G04 #@! TF.GenerationSoftware,KiCad,Pcbnew,8.0.9-8.0.9-0~ubuntu24.04.1*
G04 #@! TF.CreationDate,2025-12-21T13:30:01+00:00*
G04 #@! TF.ProjectId,greenenergyecu,67726565-6e65-46e6-9572-67796563752e,d*
G04 #@! TF.SameCoordinates,PX2b953a0PY6943058*
G04 #@! TF.FileFunction,Soldermask,Bot*
G04 #@! TF.FilePolarity,Negative*
%FSLAX46Y46*%
G04 Gerber Fmt 4.6, Leading zero omitted, Abs format (unit mm)*
G04 Created by KiCad (PCBNEW 8.0.9-8.0.9-0~ubuntu24.04.1) date 2025-12-21 13:30:01*
%MOMM*%
%LPD*%
G01*
G04 APERTURE LIST*
%ADD10C,3.700000*%
%ADD11C,2.200000*%
%ADD12C,2.600000*%
%ADD13C,1.500000*%
%ADD14C,0.599999*%
%ADD15C,1.524000*%
%ADD16C,0.600000*%
%ADD17O,1.700000X1.850000*%
%ADD18R,1.100000X1.100000*%
%ADD19C,1.100000*%
%ADD20O,1.100000X2.400000*%
G04 APERTURE END LIST*
D10*
G04 #@! TO.C,P1*
X144952000Y113258000D03*
D11*
X142502000Y105458000D03*
D10*
X70452000Y113258000D03*
D11*
X20702000Y105458000D03*
D10*
X18252000Y113258000D03*
D12*
X137852000Y108258000D03*
X132052000Y108258000D03*
X134952000Y105928000D03*
X137852000Y100128000D03*
X132052000Y100128000D03*
D13*
X78432000Y100128000D03*
X80972000Y100128000D03*
X83512000Y100128000D03*
X86052000Y100128000D03*
X88592000Y100128000D03*
X91132000Y100128000D03*
X93672000Y100128000D03*
X96212000Y100128000D03*
X98752000Y100128000D03*
X101292000Y100128000D03*
X103832000Y100128000D03*
X106372000Y100128000D03*
X108912000Y100128000D03*
X111452000Y100128000D03*
X113992000Y100128000D03*
X116532000Y100128000D03*
X119072000Y100128000D03*
X121612000Y100128000D03*
X124152000Y100128000D03*
X78432000Y102668000D03*
X80972000Y102668000D03*
X83512000Y102668000D03*
X86052000Y102668000D03*
X88592000Y102668000D03*
X91132000Y102668000D03*
X93672000Y102668000D03*
X96212000Y102668000D03*
X98752000Y102668000D03*
X101292000Y102668000D03*
X103832000Y102668000D03*
X106372000Y102668000D03*
X108912000Y102668000D03*
X111452000Y102668000D03*
X113992000Y102668000D03*
X116532000Y102668000D03*
X119072000Y102668000D03*
X121612000Y102668000D03*
X124152000Y102668000D03*
X78432000Y108718000D03*
X80972000Y108718000D03*
X83512000Y108718000D03*
X86052000Y108718000D03*
X88592000Y108718000D03*
X91132000Y108718000D03*
X93672000Y108718000D03*
X96212000Y108718000D03*
X98752000Y108718000D03*
X101292000Y108718000D03*
X103832000Y108718000D03*
X106372000Y108718000D03*
X108912000Y108718000D03*
X111452000Y108718000D03*
X113992000Y108718000D03*
X116532000Y108718000D03*
X119072000Y108718000D03*
X121612000Y108718000D03*
X124152000Y108718000D03*
X78432000Y111258000D03*
X80972000Y111258000D03*
X83512000Y111258000D03*
X86052000Y111258000D03*
X88592000Y111258000D03*
X91132000Y111258000D03*
X93672000Y111258000D03*
X96212000Y111258000D03*
X98752000Y111258000D03*
X101292000Y111258000D03*
X103832000Y111258000D03*
X106372000Y111258000D03*
X108912000Y111258000D03*
X111452000Y111258000D03*
X113992000Y111258000D03*
X116532000Y111258000D03*
X119072000Y111258000D03*
X121612000Y111258000D03*
X124152000Y111258000D03*
X62462000Y111258000D03*
X59922000Y111258000D03*
X57382000Y111258000D03*
X54842000Y111258000D03*
X52302000Y111258000D03*
X49762000Y111258000D03*
X47222000Y111258000D03*
X44682000Y111258000D03*
X62462000Y108718000D03*
X59922000Y108718000D03*
X57382000Y108718000D03*
X54842000Y108718000D03*
X52302000Y108718000D03*
X49762000Y108718000D03*
X47222000Y108718000D03*
X44682000Y108718000D03*
X62462000Y102668000D03*
X59922000Y102668000D03*
X57382000Y102668000D03*
X54842000Y102668000D03*
X52302000Y102668000D03*
X49762000Y102668000D03*
X47222000Y102668000D03*
X44682000Y102668000D03*
X62462000Y100128000D03*
X59922000Y100128000D03*
X57382000Y100128000D03*
X54842000Y100128000D03*
X52302000Y100128000D03*
X49762000Y100128000D03*
X47222000Y100128000D03*
X44682000Y100128000D03*
D12*
X36852000Y108258000D03*
X31052000Y108258000D03*
X25152000Y108258000D03*
X33952000Y105928000D03*
X28052000Y105928000D03*
X36852000Y100128000D03*
X31052000Y100128000D03*
X25152000Y100128000D03*
G04 #@! TD*
D14*
G04 #@! TO.C,M7*
X115150000Y25813325D03*
X114274998Y26338325D03*
X115450002Y27088323D03*
X115374999Y30638324D03*
G04 #@! TD*
D15*
G04 #@! TO.C,F2*
X26390000Y63298733D03*
X31290000Y63298733D03*
G04 #@! TD*
G04 #@! TO.C,F1*
X26390000Y66418733D03*
X31290000Y66418733D03*
G04 #@! TD*
D16*
G04 #@! TO.C,M3*
X157500003Y81225000D03*
X157500003Y80025000D03*
X157500003Y82425000D03*
X157500003Y83625000D03*
X143075003Y77165000D03*
X143075003Y76165000D03*
G04 #@! TD*
G04 #@! TO.C,J21*
G36*
G01*
X93225000Y68255000D02*
X93225000Y69605000D01*
G75*
G02*
X93475000Y69855000I250000J0D01*
G01*
X94675000Y69855000D01*
G75*
G02*
X94925000Y69605000I0J-250000D01*
G01*
X94925000Y68255000D01*
G75*
G02*
X94675000Y68005000I-250000J0D01*
G01*
X93475000Y68005000D01*
G75*
G02*
X93225000Y68255000I0J250000D01*
G01*
G37*
D17*
X96575000Y68930000D03*
X99075000Y68930000D03*
X101575000Y68930000D03*
X104075000Y68930000D03*
G04 #@! TD*
D18*
G04 #@! TO.C,J22*
X22745000Y51773733D03*
D19*
X23545000Y53523733D03*
X24345000Y51773733D03*
X25145000Y53523733D03*
X25945000Y51773733D03*
D20*
X20695000Y52648733D03*
X27995000Y52648733D03*
G04 #@! TD*
D15*
G04 #@! TO.C,F3*
X26390000Y60178733D03*
X31290000Y60178733D03*
G04 #@! TD*
D16*
G04 #@! TO.C,M4*
X157500003Y70175000D03*
X157500003Y68975000D03*
X157500003Y71375000D03*
X157500003Y72575000D03*
X143075003Y66115000D03*
X143075003Y65115000D03*
G04 #@! TD*
D15*
G04 #@! TO.C,R4*
X26255391Y57193342D03*
X30065391Y57193342D03*
G04 #@! TD*
D16*
G04 #@! TO.C,M2*
X129070003Y30824997D03*
X129070003Y29874997D03*
X129070003Y28924999D03*
X120370003Y29924997D03*
X120370003Y30824997D03*
G04 #@! TD*
D13*
G04 #@! TO.C,M1*
X152649999Y45674998D03*
X152649999Y39275001D03*
X152649999Y37374998D03*
X152649999Y33074998D03*
D16*
X153099998Y30675001D03*
X153099998Y29675000D03*
D13*
X152649999Y26824998D03*
X137150002Y46125000D03*
X137150002Y44275001D03*
X137150002Y39324998D03*
X137150002Y27275000D03*
G04 #@! TD*
M02*
