G04 #@! TF.GenerationSoftware,KiCad,Pcbnew,8.0.9-8.0.9-0~ubuntu24.04.1*
G04 #@! TF.CreationDate,2026-01-19T23:36:54+00:00*
G04 #@! TF.ProjectId,greenenergyecu,67726565-6e65-46e6-9572-67796563752e,d*
G04 #@! TF.SameCoordinates,PX2b953a0PY6943058*
G04 #@! TF.FileFunction,Legend,Top*
G04 #@! TF.FilePolarity,Positive*
%FSLAX46Y46*%
G04 Gerber Fmt 4.6, Leading zero omitted, Abs format (unit mm)*
G04 Created by KiCad (PCBNEW 8.0.9-8.0.9-0~ubuntu24.04.1) date 2026-01-19 23:36:54*
%MOMM*%
%LPD*%
G01*
G04 APERTURE LIST*
%ADD10C,0.250000*%
%ADD11C,0.200000*%
%ADD12C,0.150000*%
%ADD13C,0.222250*%
%ADD14C,0.127000*%
%ADD15C,0.170000*%
%ADD16C,0.203200*%
%ADD17C,0.120000*%
%ADD18C,0.100000*%
%ADD19C,0.099060*%
%ADD20C,3.700000*%
%ADD21C,2.200000*%
%ADD22C,2.600000*%
%ADD23C,1.500000*%
G04 APERTURE END LIST*
D10*
X95841666Y18022762D02*
X94698809Y18022762D01*
X95270237Y18022762D02*
X95270237Y20022762D01*
X95270237Y20022762D02*
X95079761Y19737048D01*
X95079761Y19737048D02*
X94889285Y19546572D01*
X94889285Y19546572D02*
X94698809Y19451334D01*
X97079761Y20022762D02*
X97270238Y20022762D01*
X97270238Y20022762D02*
X97460714Y19927524D01*
X97460714Y19927524D02*
X97555952Y19832286D01*
X97555952Y19832286D02*
X97651190Y19641810D01*
X97651190Y19641810D02*
X97746428Y19260858D01*
X97746428Y19260858D02*
X97746428Y18784667D01*
X97746428Y18784667D02*
X97651190Y18403715D01*
X97651190Y18403715D02*
X97555952Y18213239D01*
X97555952Y18213239D02*
X97460714Y18118000D01*
X97460714Y18118000D02*
X97270238Y18022762D01*
X97270238Y18022762D02*
X97079761Y18022762D01*
X97079761Y18022762D02*
X96889285Y18118000D01*
X96889285Y18118000D02*
X96794047Y18213239D01*
X96794047Y18213239D02*
X96698809Y18403715D01*
X96698809Y18403715D02*
X96603571Y18784667D01*
X96603571Y18784667D02*
X96603571Y19260858D01*
X96603571Y19260858D02*
X96698809Y19641810D01*
X96698809Y19641810D02*
X96794047Y19832286D01*
X96794047Y19832286D02*
X96889285Y19927524D01*
X96889285Y19927524D02*
X97079761Y20022762D01*
X99460714Y20022762D02*
X99079761Y20022762D01*
X99079761Y20022762D02*
X98889285Y19927524D01*
X98889285Y19927524D02*
X98794047Y19832286D01*
X98794047Y19832286D02*
X98603571Y19546572D01*
X98603571Y19546572D02*
X98508333Y19165620D01*
X98508333Y19165620D02*
X98508333Y18403715D01*
X98508333Y18403715D02*
X98603571Y18213239D01*
X98603571Y18213239D02*
X98698809Y18118000D01*
X98698809Y18118000D02*
X98889285Y18022762D01*
X98889285Y18022762D02*
X99270238Y18022762D01*
X99270238Y18022762D02*
X99460714Y18118000D01*
X99460714Y18118000D02*
X99555952Y18213239D01*
X99555952Y18213239D02*
X99651190Y18403715D01*
X99651190Y18403715D02*
X99651190Y18879905D01*
X99651190Y18879905D02*
X99555952Y19070381D01*
X99555952Y19070381D02*
X99460714Y19165620D01*
X99460714Y19165620D02*
X99270238Y19260858D01*
X99270238Y19260858D02*
X98889285Y19260858D01*
X98889285Y19260858D02*
X98698809Y19165620D01*
X98698809Y19165620D02*
X98603571Y19070381D01*
X98603571Y19070381D02*
X98508333Y18879905D01*
X24530952Y21261096D02*
X24530952Y19927762D01*
X24054761Y22023000D02*
X23578571Y20594429D01*
X23578571Y20594429D02*
X24816666Y20594429D01*
X33516190Y21927762D02*
X32563809Y21927762D01*
X32563809Y21927762D02*
X32468571Y20975381D01*
X32468571Y20975381D02*
X32563809Y21070620D01*
X32563809Y21070620D02*
X32754285Y21165858D01*
X32754285Y21165858D02*
X33230476Y21165858D01*
X33230476Y21165858D02*
X33420952Y21070620D01*
X33420952Y21070620D02*
X33516190Y20975381D01*
X33516190Y20975381D02*
X33611428Y20784905D01*
X33611428Y20784905D02*
X33611428Y20308715D01*
X33611428Y20308715D02*
X33516190Y20118239D01*
X33516190Y20118239D02*
X33420952Y20023000D01*
X33420952Y20023000D02*
X33230476Y19927762D01*
X33230476Y19927762D02*
X32754285Y19927762D01*
X32754285Y19927762D02*
X32563809Y20023000D01*
X32563809Y20023000D02*
X32468571Y20118239D01*
X32468571Y14117286D02*
X32563809Y14212524D01*
X32563809Y14212524D02*
X32754285Y14307762D01*
X32754285Y14307762D02*
X33230476Y14307762D01*
X33230476Y14307762D02*
X33420952Y14212524D01*
X33420952Y14212524D02*
X33516190Y14117286D01*
X33516190Y14117286D02*
X33611428Y13926810D01*
X33611428Y13926810D02*
X33611428Y13736334D01*
X33611428Y13736334D02*
X33516190Y13450620D01*
X33516190Y13450620D02*
X32373333Y12307762D01*
X32373333Y12307762D02*
X33611428Y12307762D01*
X130240928Y7775002D02*
X130240928Y6917859D01*
X130240928Y7346430D02*
X128740928Y7346430D01*
X128740928Y7346430D02*
X128955214Y7203573D01*
X128955214Y7203573D02*
X129098071Y7060716D01*
X129098071Y7060716D02*
X129169500Y6917859D01*
X130240928Y9203573D02*
X130240928Y8346430D01*
X130240928Y8775001D02*
X128740928Y8775001D01*
X128740928Y8775001D02*
X128955214Y8632144D01*
X128955214Y8632144D02*
X129098071Y8489287D01*
X129098071Y8489287D02*
X129169500Y8346430D01*
X128740928Y9703572D02*
X128740928Y10703572D01*
X128740928Y10703572D02*
X130240928Y10060715D01*
X139130928Y21745002D02*
X139130928Y20887859D01*
X139130928Y21316430D02*
X137630928Y21316430D01*
X137630928Y21316430D02*
X137845214Y21173573D01*
X137845214Y21173573D02*
X137988071Y21030716D01*
X137988071Y21030716D02*
X138059500Y20887859D01*
X137773785Y22316430D02*
X137702357Y22387858D01*
X137702357Y22387858D02*
X137630928Y22530715D01*
X137630928Y22530715D02*
X137630928Y22887858D01*
X137630928Y22887858D02*
X137702357Y23030715D01*
X137702357Y23030715D02*
X137773785Y23102144D01*
X137773785Y23102144D02*
X137916642Y23173573D01*
X137916642Y23173573D02*
X138059500Y23173573D01*
X138059500Y23173573D02*
X138273785Y23102144D01*
X138273785Y23102144D02*
X139130928Y22245001D01*
X139130928Y22245001D02*
X139130928Y23173573D01*
X139130928Y24602144D02*
X139130928Y23745001D01*
X139130928Y24173572D02*
X137630928Y24173572D01*
X137630928Y24173572D02*
X137845214Y24030715D01*
X137845214Y24030715D02*
X137988071Y23887858D01*
X137988071Y23887858D02*
X138059500Y23745001D01*
D11*
X54082219Y4790477D02*
X54082219Y5457143D01*
X54082219Y5457143D02*
X55082219Y5028572D01*
X54082219Y6314286D02*
X54082219Y5838096D01*
X54082219Y5838096D02*
X54558409Y5790477D01*
X54558409Y5790477D02*
X54510790Y5838096D01*
X54510790Y5838096D02*
X54463171Y5933334D01*
X54463171Y5933334D02*
X54463171Y6171429D01*
X54463171Y6171429D02*
X54510790Y6266667D01*
X54510790Y6266667D02*
X54558409Y6314286D01*
X54558409Y6314286D02*
X54653647Y6361905D01*
X54653647Y6361905D02*
X54891742Y6361905D01*
X54891742Y6361905D02*
X54986980Y6314286D01*
X54986980Y6314286D02*
X55034600Y6266667D01*
X55034600Y6266667D02*
X55082219Y6171429D01*
X55082219Y6171429D02*
X55082219Y5933334D01*
X55082219Y5933334D02*
X55034600Y5838096D01*
X55034600Y5838096D02*
X54986980Y5790477D01*
X69322219Y5314286D02*
X69322219Y5123810D01*
X69322219Y5123810D02*
X69369838Y5028572D01*
X69369838Y5028572D02*
X69417457Y4980953D01*
X69417457Y4980953D02*
X69560314Y4885715D01*
X69560314Y4885715D02*
X69750790Y4838096D01*
X69750790Y4838096D02*
X70131742Y4838096D01*
X70131742Y4838096D02*
X70226980Y4885715D01*
X70226980Y4885715D02*
X70274600Y4933334D01*
X70274600Y4933334D02*
X70322219Y5028572D01*
X70322219Y5028572D02*
X70322219Y5219048D01*
X70322219Y5219048D02*
X70274600Y5314286D01*
X70274600Y5314286D02*
X70226980Y5361905D01*
X70226980Y5361905D02*
X70131742Y5409524D01*
X70131742Y5409524D02*
X69893647Y5409524D01*
X69893647Y5409524D02*
X69798409Y5361905D01*
X69798409Y5361905D02*
X69750790Y5314286D01*
X69750790Y5314286D02*
X69703171Y5219048D01*
X69703171Y5219048D02*
X69703171Y5028572D01*
X69703171Y5028572D02*
X69750790Y4933334D01*
X69750790Y4933334D02*
X69798409Y4885715D01*
X69798409Y4885715D02*
X69893647Y4838096D01*
X70322219Y5885715D02*
X70322219Y6076191D01*
X70322219Y6076191D02*
X70274600Y6171429D01*
X70274600Y6171429D02*
X70226980Y6219048D01*
X70226980Y6219048D02*
X70084123Y6314286D01*
X70084123Y6314286D02*
X69893647Y6361905D01*
X69893647Y6361905D02*
X69512695Y6361905D01*
X69512695Y6361905D02*
X69417457Y6314286D01*
X69417457Y6314286D02*
X69369838Y6266667D01*
X69369838Y6266667D02*
X69322219Y6171429D01*
X69322219Y6171429D02*
X69322219Y5980953D01*
X69322219Y5980953D02*
X69369838Y5885715D01*
X69369838Y5885715D02*
X69417457Y5838096D01*
X69417457Y5838096D02*
X69512695Y5790477D01*
X69512695Y5790477D02*
X69750790Y5790477D01*
X69750790Y5790477D02*
X69846028Y5838096D01*
X69846028Y5838096D02*
X69893647Y5885715D01*
X69893647Y5885715D02*
X69941266Y5980953D01*
X69941266Y5980953D02*
X69941266Y6171429D01*
X69941266Y6171429D02*
X69893647Y6266667D01*
X69893647Y6266667D02*
X69846028Y6314286D01*
X69846028Y6314286D02*
X69750790Y6361905D01*
D10*
X86761190Y16657286D02*
X86856428Y16752524D01*
X86856428Y16752524D02*
X87046904Y16847762D01*
X87046904Y16847762D02*
X87523095Y16847762D01*
X87523095Y16847762D02*
X87713571Y16752524D01*
X87713571Y16752524D02*
X87808809Y16657286D01*
X87808809Y16657286D02*
X87904047Y16466810D01*
X87904047Y16466810D02*
X87904047Y16276334D01*
X87904047Y16276334D02*
X87808809Y15990620D01*
X87808809Y15990620D02*
X86665952Y14847762D01*
X86665952Y14847762D02*
X87904047Y14847762D01*
X89713571Y16847762D02*
X88761190Y16847762D01*
X88761190Y16847762D02*
X88665952Y15895381D01*
X88665952Y15895381D02*
X88761190Y15990620D01*
X88761190Y15990620D02*
X88951666Y16085858D01*
X88951666Y16085858D02*
X89427857Y16085858D01*
X89427857Y16085858D02*
X89618333Y15990620D01*
X89618333Y15990620D02*
X89713571Y15895381D01*
X89713571Y15895381D02*
X89808809Y15704905D01*
X89808809Y15704905D02*
X89808809Y15228715D01*
X89808809Y15228715D02*
X89713571Y15038239D01*
X89713571Y15038239D02*
X89618333Y14943000D01*
X89618333Y14943000D02*
X89427857Y14847762D01*
X89427857Y14847762D02*
X88951666Y14847762D01*
X88951666Y14847762D02*
X88761190Y14943000D01*
X88761190Y14943000D02*
X88665952Y15038239D01*
X133415928Y5870002D02*
X133415928Y5012859D01*
X133415928Y5441430D02*
X131915928Y5441430D01*
X131915928Y5441430D02*
X132130214Y5298573D01*
X132130214Y5298573D02*
X132273071Y5155716D01*
X132273071Y5155716D02*
X132344500Y5012859D01*
X133415928Y7298573D02*
X133415928Y6441430D01*
X133415928Y6870001D02*
X131915928Y6870001D01*
X131915928Y6870001D02*
X132130214Y6727144D01*
X132130214Y6727144D02*
X132273071Y6584287D01*
X132273071Y6584287D02*
X132344500Y6441430D01*
X131915928Y8655715D02*
X131915928Y7941429D01*
X131915928Y7941429D02*
X132630214Y7870001D01*
X132630214Y7870001D02*
X132558785Y7941429D01*
X132558785Y7941429D02*
X132487357Y8084286D01*
X132487357Y8084286D02*
X132487357Y8441429D01*
X132487357Y8441429D02*
X132558785Y8584286D01*
X132558785Y8584286D02*
X132630214Y8655715D01*
X132630214Y8655715D02*
X132773071Y8727144D01*
X132773071Y8727144D02*
X133130214Y8727144D01*
X133130214Y8727144D02*
X133273071Y8655715D01*
X133273071Y8655715D02*
X133344500Y8584286D01*
X133344500Y8584286D02*
X133415928Y8441429D01*
X133415928Y8441429D02*
X133415928Y8084286D01*
X133415928Y8084286D02*
X133344500Y7941429D01*
X133344500Y7941429D02*
X133273071Y7870001D01*
X36278571Y16181096D02*
X36278571Y14847762D01*
X35802380Y16943000D02*
X35326190Y15514429D01*
X35326190Y15514429D02*
X36564285Y15514429D01*
X37135714Y16847762D02*
X38373809Y16847762D01*
X38373809Y16847762D02*
X37707142Y16085858D01*
X37707142Y16085858D02*
X37992857Y16085858D01*
X37992857Y16085858D02*
X38183333Y15990620D01*
X38183333Y15990620D02*
X38278571Y15895381D01*
X38278571Y15895381D02*
X38373809Y15704905D01*
X38373809Y15704905D02*
X38373809Y15228715D01*
X38373809Y15228715D02*
X38278571Y15038239D01*
X38278571Y15038239D02*
X38183333Y14943000D01*
X38183333Y14943000D02*
X37992857Y14847762D01*
X37992857Y14847762D02*
X37421428Y14847762D01*
X37421428Y14847762D02*
X37230952Y14943000D01*
X37230952Y14943000D02*
X37135714Y15038239D01*
D11*
X55082219Y20649524D02*
X55082219Y20078096D01*
X55082219Y20363810D02*
X54082219Y20363810D01*
X54082219Y20363810D02*
X54225076Y20268572D01*
X54225076Y20268572D02*
X54320314Y20173334D01*
X54320314Y20173334D02*
X54367933Y20078096D01*
X54510790Y21220953D02*
X54463171Y21125715D01*
X54463171Y21125715D02*
X54415552Y21078096D01*
X54415552Y21078096D02*
X54320314Y21030477D01*
X54320314Y21030477D02*
X54272695Y21030477D01*
X54272695Y21030477D02*
X54177457Y21078096D01*
X54177457Y21078096D02*
X54129838Y21125715D01*
X54129838Y21125715D02*
X54082219Y21220953D01*
X54082219Y21220953D02*
X54082219Y21411429D01*
X54082219Y21411429D02*
X54129838Y21506667D01*
X54129838Y21506667D02*
X54177457Y21554286D01*
X54177457Y21554286D02*
X54272695Y21601905D01*
X54272695Y21601905D02*
X54320314Y21601905D01*
X54320314Y21601905D02*
X54415552Y21554286D01*
X54415552Y21554286D02*
X54463171Y21506667D01*
X54463171Y21506667D02*
X54510790Y21411429D01*
X54510790Y21411429D02*
X54510790Y21220953D01*
X54510790Y21220953D02*
X54558409Y21125715D01*
X54558409Y21125715D02*
X54606028Y21078096D01*
X54606028Y21078096D02*
X54701266Y21030477D01*
X54701266Y21030477D02*
X54891742Y21030477D01*
X54891742Y21030477D02*
X54986980Y21078096D01*
X54986980Y21078096D02*
X55034600Y21125715D01*
X55034600Y21125715D02*
X55082219Y21220953D01*
X55082219Y21220953D02*
X55082219Y21411429D01*
X55082219Y21411429D02*
X55034600Y21506667D01*
X55034600Y21506667D02*
X54986980Y21554286D01*
X54986980Y21554286D02*
X54891742Y21601905D01*
X54891742Y21601905D02*
X54701266Y21601905D01*
X54701266Y21601905D02*
X54606028Y21554286D01*
X54606028Y21554286D02*
X54558409Y21506667D01*
X54558409Y21506667D02*
X54510790Y21411429D01*
D10*
X120606666Y9132762D02*
X120987618Y9132762D01*
X120987618Y9132762D02*
X121178095Y9228000D01*
X121178095Y9228000D02*
X121273333Y9323239D01*
X121273333Y9323239D02*
X121463809Y9608953D01*
X121463809Y9608953D02*
X121559047Y9989905D01*
X121559047Y9989905D02*
X121559047Y10751810D01*
X121559047Y10751810D02*
X121463809Y10942286D01*
X121463809Y10942286D02*
X121368571Y11037524D01*
X121368571Y11037524D02*
X121178095Y11132762D01*
X121178095Y11132762D02*
X120797142Y11132762D01*
X120797142Y11132762D02*
X120606666Y11037524D01*
X120606666Y11037524D02*
X120511428Y10942286D01*
X120511428Y10942286D02*
X120416190Y10751810D01*
X120416190Y10751810D02*
X120416190Y10275620D01*
X120416190Y10275620D02*
X120511428Y10085143D01*
X120511428Y10085143D02*
X120606666Y9989905D01*
X120606666Y9989905D02*
X120797142Y9894667D01*
X120797142Y9894667D02*
X121178095Y9894667D01*
X121178095Y9894667D02*
X121368571Y9989905D01*
X121368571Y9989905D02*
X121463809Y10085143D01*
X121463809Y10085143D02*
X121559047Y10275620D01*
X122225714Y11132762D02*
X123559047Y11132762D01*
X123559047Y11132762D02*
X122701904Y9132762D01*
X35326190Y19832286D02*
X35421428Y19927524D01*
X35421428Y19927524D02*
X35611904Y20022762D01*
X35611904Y20022762D02*
X36088095Y20022762D01*
X36088095Y20022762D02*
X36278571Y19927524D01*
X36278571Y19927524D02*
X36373809Y19832286D01*
X36373809Y19832286D02*
X36469047Y19641810D01*
X36469047Y19641810D02*
X36469047Y19451334D01*
X36469047Y19451334D02*
X36373809Y19165620D01*
X36373809Y19165620D02*
X35230952Y18022762D01*
X35230952Y18022762D02*
X36469047Y18022762D01*
X38183333Y19356096D02*
X38183333Y18022762D01*
X37707142Y20118000D02*
X37230952Y18689429D01*
X37230952Y18689429D02*
X38469047Y18689429D01*
X96476666Y14847762D02*
X96857618Y14847762D01*
X96857618Y14847762D02*
X97048095Y14943000D01*
X97048095Y14943000D02*
X97143333Y15038239D01*
X97143333Y15038239D02*
X97333809Y15323953D01*
X97333809Y15323953D02*
X97429047Y15704905D01*
X97429047Y15704905D02*
X97429047Y16466810D01*
X97429047Y16466810D02*
X97333809Y16657286D01*
X97333809Y16657286D02*
X97238571Y16752524D01*
X97238571Y16752524D02*
X97048095Y16847762D01*
X97048095Y16847762D02*
X96667142Y16847762D01*
X96667142Y16847762D02*
X96476666Y16752524D01*
X96476666Y16752524D02*
X96381428Y16657286D01*
X96381428Y16657286D02*
X96286190Y16466810D01*
X96286190Y16466810D02*
X96286190Y15990620D01*
X96286190Y15990620D02*
X96381428Y15800143D01*
X96381428Y15800143D02*
X96476666Y15704905D01*
X96476666Y15704905D02*
X96667142Y15609667D01*
X96667142Y15609667D02*
X97048095Y15609667D01*
X97048095Y15609667D02*
X97238571Y15704905D01*
X97238571Y15704905D02*
X97333809Y15800143D01*
X97333809Y15800143D02*
X97429047Y15990620D01*
X98571904Y15990620D02*
X98381428Y16085858D01*
X98381428Y16085858D02*
X98286190Y16181096D01*
X98286190Y16181096D02*
X98190952Y16371572D01*
X98190952Y16371572D02*
X98190952Y16466810D01*
X98190952Y16466810D02*
X98286190Y16657286D01*
X98286190Y16657286D02*
X98381428Y16752524D01*
X98381428Y16752524D02*
X98571904Y16847762D01*
X98571904Y16847762D02*
X98952857Y16847762D01*
X98952857Y16847762D02*
X99143333Y16752524D01*
X99143333Y16752524D02*
X99238571Y16657286D01*
X99238571Y16657286D02*
X99333809Y16466810D01*
X99333809Y16466810D02*
X99333809Y16371572D01*
X99333809Y16371572D02*
X99238571Y16181096D01*
X99238571Y16181096D02*
X99143333Y16085858D01*
X99143333Y16085858D02*
X98952857Y15990620D01*
X98952857Y15990620D02*
X98571904Y15990620D01*
X98571904Y15990620D02*
X98381428Y15895381D01*
X98381428Y15895381D02*
X98286190Y15800143D01*
X98286190Y15800143D02*
X98190952Y15609667D01*
X98190952Y15609667D02*
X98190952Y15228715D01*
X98190952Y15228715D02*
X98286190Y15038239D01*
X98286190Y15038239D02*
X98381428Y14943000D01*
X98381428Y14943000D02*
X98571904Y14847762D01*
X98571904Y14847762D02*
X98952857Y14847762D01*
X98952857Y14847762D02*
X99143333Y14943000D01*
X99143333Y14943000D02*
X99238571Y15038239D01*
X99238571Y15038239D02*
X99333809Y15228715D01*
X99333809Y15228715D02*
X99333809Y15609667D01*
X99333809Y15609667D02*
X99238571Y15800143D01*
X99238571Y15800143D02*
X99143333Y15895381D01*
X99143333Y15895381D02*
X98952857Y15990620D01*
X135955928Y7775002D02*
X135955928Y6917859D01*
X135955928Y7346430D02*
X134455928Y7346430D01*
X134455928Y7346430D02*
X134670214Y7203573D01*
X134670214Y7203573D02*
X134813071Y7060716D01*
X134813071Y7060716D02*
X134884500Y6917859D01*
X135955928Y9203573D02*
X135955928Y8346430D01*
X135955928Y8775001D02*
X134455928Y8775001D01*
X134455928Y8775001D02*
X134670214Y8632144D01*
X134670214Y8632144D02*
X134813071Y8489287D01*
X134813071Y8489287D02*
X134884500Y8346430D01*
X135098785Y10060715D02*
X135027357Y9917858D01*
X135027357Y9917858D02*
X134955928Y9846429D01*
X134955928Y9846429D02*
X134813071Y9775001D01*
X134813071Y9775001D02*
X134741642Y9775001D01*
X134741642Y9775001D02*
X134598785Y9846429D01*
X134598785Y9846429D02*
X134527357Y9917858D01*
X134527357Y9917858D02*
X134455928Y10060715D01*
X134455928Y10060715D02*
X134455928Y10346429D01*
X134455928Y10346429D02*
X134527357Y10489286D01*
X134527357Y10489286D02*
X134598785Y10560715D01*
X134598785Y10560715D02*
X134741642Y10632144D01*
X134741642Y10632144D02*
X134813071Y10632144D01*
X134813071Y10632144D02*
X134955928Y10560715D01*
X134955928Y10560715D02*
X135027357Y10489286D01*
X135027357Y10489286D02*
X135098785Y10346429D01*
X135098785Y10346429D02*
X135098785Y10060715D01*
X135098785Y10060715D02*
X135170214Y9917858D01*
X135170214Y9917858D02*
X135241642Y9846429D01*
X135241642Y9846429D02*
X135384500Y9775001D01*
X135384500Y9775001D02*
X135670214Y9775001D01*
X135670214Y9775001D02*
X135813071Y9846429D01*
X135813071Y9846429D02*
X135884500Y9917858D01*
X135884500Y9917858D02*
X135955928Y10060715D01*
X135955928Y10060715D02*
X135955928Y10346429D01*
X135955928Y10346429D02*
X135884500Y10489286D01*
X135884500Y10489286D02*
X135813071Y10560715D01*
X135813071Y10560715D02*
X135670214Y10632144D01*
X135670214Y10632144D02*
X135384500Y10632144D01*
X135384500Y10632144D02*
X135241642Y10560715D01*
X135241642Y10560715D02*
X135170214Y10489286D01*
X135170214Y10489286D02*
X135098785Y10346429D01*
X24721428Y12307762D02*
X23578571Y12307762D01*
X24149999Y12307762D02*
X24149999Y14307762D01*
X24149999Y14307762D02*
X23959523Y14022048D01*
X23959523Y14022048D02*
X23769047Y13831572D01*
X23769047Y13831572D02*
X23578571Y13736334D01*
X35707142Y7735620D02*
X35516666Y7830858D01*
X35516666Y7830858D02*
X35421428Y7926096D01*
X35421428Y7926096D02*
X35326190Y8116572D01*
X35326190Y8116572D02*
X35326190Y8211810D01*
X35326190Y8211810D02*
X35421428Y8402286D01*
X35421428Y8402286D02*
X35516666Y8497524D01*
X35516666Y8497524D02*
X35707142Y8592762D01*
X35707142Y8592762D02*
X36088095Y8592762D01*
X36088095Y8592762D02*
X36278571Y8497524D01*
X36278571Y8497524D02*
X36373809Y8402286D01*
X36373809Y8402286D02*
X36469047Y8211810D01*
X36469047Y8211810D02*
X36469047Y8116572D01*
X36469047Y8116572D02*
X36373809Y7926096D01*
X36373809Y7926096D02*
X36278571Y7830858D01*
X36278571Y7830858D02*
X36088095Y7735620D01*
X36088095Y7735620D02*
X35707142Y7735620D01*
X35707142Y7735620D02*
X35516666Y7640381D01*
X35516666Y7640381D02*
X35421428Y7545143D01*
X35421428Y7545143D02*
X35326190Y7354667D01*
X35326190Y7354667D02*
X35326190Y6973715D01*
X35326190Y6973715D02*
X35421428Y6783239D01*
X35421428Y6783239D02*
X35516666Y6688000D01*
X35516666Y6688000D02*
X35707142Y6592762D01*
X35707142Y6592762D02*
X36088095Y6592762D01*
X36088095Y6592762D02*
X36278571Y6688000D01*
X36278571Y6688000D02*
X36373809Y6783239D01*
X36373809Y6783239D02*
X36469047Y6973715D01*
X36469047Y6973715D02*
X36469047Y7354667D01*
X36469047Y7354667D02*
X36373809Y7545143D01*
X36373809Y7545143D02*
X36278571Y7640381D01*
X36278571Y7640381D02*
X36088095Y7735620D01*
X38373809Y6592762D02*
X37230952Y6592762D01*
X37802380Y6592762D02*
X37802380Y8592762D01*
X37802380Y8592762D02*
X37611904Y8307048D01*
X37611904Y8307048D02*
X37421428Y8116572D01*
X37421428Y8116572D02*
X37230952Y8021334D01*
X127065928Y21745002D02*
X127065928Y20887859D01*
X127065928Y21316430D02*
X125565928Y21316430D01*
X125565928Y21316430D02*
X125780214Y21173573D01*
X125780214Y21173573D02*
X125923071Y21030716D01*
X125923071Y21030716D02*
X125994500Y20887859D01*
X127065928Y23173573D02*
X127065928Y22316430D01*
X127065928Y22745001D02*
X125565928Y22745001D01*
X125565928Y22745001D02*
X125780214Y22602144D01*
X125780214Y22602144D02*
X125923071Y22459287D01*
X125923071Y22459287D02*
X125994500Y22316430D01*
X127065928Y23887858D02*
X127065928Y24173572D01*
X127065928Y24173572D02*
X126994500Y24316429D01*
X126994500Y24316429D02*
X126923071Y24387858D01*
X126923071Y24387858D02*
X126708785Y24530715D01*
X126708785Y24530715D02*
X126423071Y24602144D01*
X126423071Y24602144D02*
X125851642Y24602144D01*
X125851642Y24602144D02*
X125708785Y24530715D01*
X125708785Y24530715D02*
X125637357Y24459286D01*
X125637357Y24459286D02*
X125565928Y24316429D01*
X125565928Y24316429D02*
X125565928Y24030715D01*
X125565928Y24030715D02*
X125637357Y23887858D01*
X125637357Y23887858D02*
X125708785Y23816429D01*
X125708785Y23816429D02*
X125851642Y23745001D01*
X125851642Y23745001D02*
X126208785Y23745001D01*
X126208785Y23745001D02*
X126351642Y23816429D01*
X126351642Y23816429D02*
X126423071Y23887858D01*
X126423071Y23887858D02*
X126494500Y24030715D01*
X126494500Y24030715D02*
X126494500Y24316429D01*
X126494500Y24316429D02*
X126423071Y24459286D01*
X126423071Y24459286D02*
X126351642Y24530715D01*
X126351642Y24530715D02*
X126208785Y24602144D01*
X87713571Y10466096D02*
X87713571Y9132762D01*
X87237380Y11228000D02*
X86761190Y9799429D01*
X86761190Y9799429D02*
X87999285Y9799429D01*
X89618333Y10466096D02*
X89618333Y9132762D01*
X89142142Y11228000D02*
X88665952Y9799429D01*
X88665952Y9799429D02*
X89904047Y9799429D01*
X96667142Y7735620D02*
X96476666Y7830858D01*
X96476666Y7830858D02*
X96381428Y7926096D01*
X96381428Y7926096D02*
X96286190Y8116572D01*
X96286190Y8116572D02*
X96286190Y8211810D01*
X96286190Y8211810D02*
X96381428Y8402286D01*
X96381428Y8402286D02*
X96476666Y8497524D01*
X96476666Y8497524D02*
X96667142Y8592762D01*
X96667142Y8592762D02*
X97048095Y8592762D01*
X97048095Y8592762D02*
X97238571Y8497524D01*
X97238571Y8497524D02*
X97333809Y8402286D01*
X97333809Y8402286D02*
X97429047Y8211810D01*
X97429047Y8211810D02*
X97429047Y8116572D01*
X97429047Y8116572D02*
X97333809Y7926096D01*
X97333809Y7926096D02*
X97238571Y7830858D01*
X97238571Y7830858D02*
X97048095Y7735620D01*
X97048095Y7735620D02*
X96667142Y7735620D01*
X96667142Y7735620D02*
X96476666Y7640381D01*
X96476666Y7640381D02*
X96381428Y7545143D01*
X96381428Y7545143D02*
X96286190Y7354667D01*
X96286190Y7354667D02*
X96286190Y6973715D01*
X96286190Y6973715D02*
X96381428Y6783239D01*
X96381428Y6783239D02*
X96476666Y6688000D01*
X96476666Y6688000D02*
X96667142Y6592762D01*
X96667142Y6592762D02*
X97048095Y6592762D01*
X97048095Y6592762D02*
X97238571Y6688000D01*
X97238571Y6688000D02*
X97333809Y6783239D01*
X97333809Y6783239D02*
X97429047Y6973715D01*
X97429047Y6973715D02*
X97429047Y7354667D01*
X97429047Y7354667D02*
X97333809Y7545143D01*
X97333809Y7545143D02*
X97238571Y7640381D01*
X97238571Y7640381D02*
X97048095Y7735620D01*
X98190952Y8402286D02*
X98286190Y8497524D01*
X98286190Y8497524D02*
X98476666Y8592762D01*
X98476666Y8592762D02*
X98952857Y8592762D01*
X98952857Y8592762D02*
X99143333Y8497524D01*
X99143333Y8497524D02*
X99238571Y8402286D01*
X99238571Y8402286D02*
X99333809Y8211810D01*
X99333809Y8211810D02*
X99333809Y8021334D01*
X99333809Y8021334D02*
X99238571Y7735620D01*
X99238571Y7735620D02*
X98095714Y6592762D01*
X98095714Y6592762D02*
X99333809Y6592762D01*
X27928333Y16847762D02*
X29166428Y16847762D01*
X29166428Y16847762D02*
X28499761Y16085858D01*
X28499761Y16085858D02*
X28785476Y16085858D01*
X28785476Y16085858D02*
X28975952Y15990620D01*
X28975952Y15990620D02*
X29071190Y15895381D01*
X29071190Y15895381D02*
X29166428Y15704905D01*
X29166428Y15704905D02*
X29166428Y15228715D01*
X29166428Y15228715D02*
X29071190Y15038239D01*
X29071190Y15038239D02*
X28975952Y14943000D01*
X28975952Y14943000D02*
X28785476Y14847762D01*
X28785476Y14847762D02*
X28214047Y14847762D01*
X28214047Y14847762D02*
X28023571Y14943000D01*
X28023571Y14943000D02*
X27928333Y15038239D01*
X120797142Y7735620D02*
X120606666Y7830858D01*
X120606666Y7830858D02*
X120511428Y7926096D01*
X120511428Y7926096D02*
X120416190Y8116572D01*
X120416190Y8116572D02*
X120416190Y8211810D01*
X120416190Y8211810D02*
X120511428Y8402286D01*
X120511428Y8402286D02*
X120606666Y8497524D01*
X120606666Y8497524D02*
X120797142Y8592762D01*
X120797142Y8592762D02*
X121178095Y8592762D01*
X121178095Y8592762D02*
X121368571Y8497524D01*
X121368571Y8497524D02*
X121463809Y8402286D01*
X121463809Y8402286D02*
X121559047Y8211810D01*
X121559047Y8211810D02*
X121559047Y8116572D01*
X121559047Y8116572D02*
X121463809Y7926096D01*
X121463809Y7926096D02*
X121368571Y7830858D01*
X121368571Y7830858D02*
X121178095Y7735620D01*
X121178095Y7735620D02*
X120797142Y7735620D01*
X120797142Y7735620D02*
X120606666Y7640381D01*
X120606666Y7640381D02*
X120511428Y7545143D01*
X120511428Y7545143D02*
X120416190Y7354667D01*
X120416190Y7354667D02*
X120416190Y6973715D01*
X120416190Y6973715D02*
X120511428Y6783239D01*
X120511428Y6783239D02*
X120606666Y6688000D01*
X120606666Y6688000D02*
X120797142Y6592762D01*
X120797142Y6592762D02*
X121178095Y6592762D01*
X121178095Y6592762D02*
X121368571Y6688000D01*
X121368571Y6688000D02*
X121463809Y6783239D01*
X121463809Y6783239D02*
X121559047Y6973715D01*
X121559047Y6973715D02*
X121559047Y7354667D01*
X121559047Y7354667D02*
X121463809Y7545143D01*
X121463809Y7545143D02*
X121368571Y7640381D01*
X121368571Y7640381D02*
X121178095Y7735620D01*
X122511428Y6592762D02*
X122892380Y6592762D01*
X122892380Y6592762D02*
X123082857Y6688000D01*
X123082857Y6688000D02*
X123178095Y6783239D01*
X123178095Y6783239D02*
X123368571Y7068953D01*
X123368571Y7068953D02*
X123463809Y7449905D01*
X123463809Y7449905D02*
X123463809Y8211810D01*
X123463809Y8211810D02*
X123368571Y8402286D01*
X123368571Y8402286D02*
X123273333Y8497524D01*
X123273333Y8497524D02*
X123082857Y8592762D01*
X123082857Y8592762D02*
X122701904Y8592762D01*
X122701904Y8592762D02*
X122511428Y8497524D01*
X122511428Y8497524D02*
X122416190Y8402286D01*
X122416190Y8402286D02*
X122320952Y8211810D01*
X122320952Y8211810D02*
X122320952Y7735620D01*
X122320952Y7735620D02*
X122416190Y7545143D01*
X122416190Y7545143D02*
X122511428Y7449905D01*
X122511428Y7449905D02*
X122701904Y7354667D01*
X122701904Y7354667D02*
X123082857Y7354667D01*
X123082857Y7354667D02*
X123273333Y7449905D01*
X123273333Y7449905D02*
X123368571Y7545143D01*
X123368571Y7545143D02*
X123463809Y7735620D01*
X87713571Y8592762D02*
X87332618Y8592762D01*
X87332618Y8592762D02*
X87142142Y8497524D01*
X87142142Y8497524D02*
X87046904Y8402286D01*
X87046904Y8402286D02*
X86856428Y8116572D01*
X86856428Y8116572D02*
X86761190Y7735620D01*
X86761190Y7735620D02*
X86761190Y6973715D01*
X86761190Y6973715D02*
X86856428Y6783239D01*
X86856428Y6783239D02*
X86951666Y6688000D01*
X86951666Y6688000D02*
X87142142Y6592762D01*
X87142142Y6592762D02*
X87523095Y6592762D01*
X87523095Y6592762D02*
X87713571Y6688000D01*
X87713571Y6688000D02*
X87808809Y6783239D01*
X87808809Y6783239D02*
X87904047Y6973715D01*
X87904047Y6973715D02*
X87904047Y7449905D01*
X87904047Y7449905D02*
X87808809Y7640381D01*
X87808809Y7640381D02*
X87713571Y7735620D01*
X87713571Y7735620D02*
X87523095Y7830858D01*
X87523095Y7830858D02*
X87142142Y7830858D01*
X87142142Y7830858D02*
X86951666Y7735620D01*
X86951666Y7735620D02*
X86856428Y7640381D01*
X86856428Y7640381D02*
X86761190Y7449905D01*
X88570714Y8592762D02*
X89808809Y8592762D01*
X89808809Y8592762D02*
X89142142Y7830858D01*
X89142142Y7830858D02*
X89427857Y7830858D01*
X89427857Y7830858D02*
X89618333Y7735620D01*
X89618333Y7735620D02*
X89713571Y7640381D01*
X89713571Y7640381D02*
X89808809Y7449905D01*
X89808809Y7449905D02*
X89808809Y6973715D01*
X89808809Y6973715D02*
X89713571Y6783239D01*
X89713571Y6783239D02*
X89618333Y6688000D01*
X89618333Y6688000D02*
X89427857Y6592762D01*
X89427857Y6592762D02*
X88856428Y6592762D01*
X88856428Y6592762D02*
X88665952Y6688000D01*
X88665952Y6688000D02*
X88570714Y6783239D01*
X127065928Y5870002D02*
X127065928Y5012859D01*
X127065928Y5441430D02*
X125565928Y5441430D01*
X125565928Y5441430D02*
X125780214Y5298573D01*
X125780214Y5298573D02*
X125923071Y5155716D01*
X125923071Y5155716D02*
X125994500Y5012859D01*
X127065928Y7298573D02*
X127065928Y6441430D01*
X127065928Y6870001D02*
X125565928Y6870001D01*
X125565928Y6870001D02*
X125780214Y6727144D01*
X125780214Y6727144D02*
X125923071Y6584287D01*
X125923071Y6584287D02*
X125994500Y6441430D01*
X126065928Y8584286D02*
X127065928Y8584286D01*
X125494500Y8227144D02*
X126565928Y7870001D01*
X126565928Y7870001D02*
X126565928Y8798572D01*
X132780928Y21745002D02*
X132780928Y20887859D01*
X132780928Y21316430D02*
X131280928Y21316430D01*
X131280928Y21316430D02*
X131495214Y21173573D01*
X131495214Y21173573D02*
X131638071Y21030716D01*
X131638071Y21030716D02*
X131709500Y20887859D01*
X131423785Y22316430D02*
X131352357Y22387858D01*
X131352357Y22387858D02*
X131280928Y22530715D01*
X131280928Y22530715D02*
X131280928Y22887858D01*
X131280928Y22887858D02*
X131352357Y23030715D01*
X131352357Y23030715D02*
X131423785Y23102144D01*
X131423785Y23102144D02*
X131566642Y23173573D01*
X131566642Y23173573D02*
X131709500Y23173573D01*
X131709500Y23173573D02*
X131923785Y23102144D01*
X131923785Y23102144D02*
X132780928Y22245001D01*
X132780928Y22245001D02*
X132780928Y23173573D01*
X131280928Y24102144D02*
X131280928Y24245001D01*
X131280928Y24245001D02*
X131352357Y24387858D01*
X131352357Y24387858D02*
X131423785Y24459286D01*
X131423785Y24459286D02*
X131566642Y24530715D01*
X131566642Y24530715D02*
X131852357Y24602144D01*
X131852357Y24602144D02*
X132209500Y24602144D01*
X132209500Y24602144D02*
X132495214Y24530715D01*
X132495214Y24530715D02*
X132638071Y24459286D01*
X132638071Y24459286D02*
X132709500Y24387858D01*
X132709500Y24387858D02*
X132780928Y24245001D01*
X132780928Y24245001D02*
X132780928Y24102144D01*
X132780928Y24102144D02*
X132709500Y23959286D01*
X132709500Y23959286D02*
X132638071Y23887858D01*
X132638071Y23887858D02*
X132495214Y23816429D01*
X132495214Y23816429D02*
X132209500Y23745001D01*
X132209500Y23745001D02*
X131852357Y23745001D01*
X131852357Y23745001D02*
X131566642Y23816429D01*
X131566642Y23816429D02*
X131423785Y23887858D01*
X131423785Y23887858D02*
X131352357Y23959286D01*
X131352357Y23959286D02*
X131280928Y24102144D01*
X88030952Y20022762D02*
X87649999Y20022762D01*
X87649999Y20022762D02*
X87459523Y19927524D01*
X87459523Y19927524D02*
X87364285Y19832286D01*
X87364285Y19832286D02*
X87173809Y19546572D01*
X87173809Y19546572D02*
X87078571Y19165620D01*
X87078571Y19165620D02*
X87078571Y18403715D01*
X87078571Y18403715D02*
X87173809Y18213239D01*
X87173809Y18213239D02*
X87269047Y18118000D01*
X87269047Y18118000D02*
X87459523Y18022762D01*
X87459523Y18022762D02*
X87840476Y18022762D01*
X87840476Y18022762D02*
X88030952Y18118000D01*
X88030952Y18118000D02*
X88126190Y18213239D01*
X88126190Y18213239D02*
X88221428Y18403715D01*
X88221428Y18403715D02*
X88221428Y18879905D01*
X88221428Y18879905D02*
X88126190Y19070381D01*
X88126190Y19070381D02*
X88030952Y19165620D01*
X88030952Y19165620D02*
X87840476Y19260858D01*
X87840476Y19260858D02*
X87459523Y19260858D01*
X87459523Y19260858D02*
X87269047Y19165620D01*
X87269047Y19165620D02*
X87173809Y19070381D01*
X87173809Y19070381D02*
X87078571Y18879905D01*
X96476666Y9132762D02*
X96857618Y9132762D01*
X96857618Y9132762D02*
X97048095Y9228000D01*
X97048095Y9228000D02*
X97143333Y9323239D01*
X97143333Y9323239D02*
X97333809Y9608953D01*
X97333809Y9608953D02*
X97429047Y9989905D01*
X97429047Y9989905D02*
X97429047Y10751810D01*
X97429047Y10751810D02*
X97333809Y10942286D01*
X97333809Y10942286D02*
X97238571Y11037524D01*
X97238571Y11037524D02*
X97048095Y11132762D01*
X97048095Y11132762D02*
X96667142Y11132762D01*
X96667142Y11132762D02*
X96476666Y11037524D01*
X96476666Y11037524D02*
X96381428Y10942286D01*
X96381428Y10942286D02*
X96286190Y10751810D01*
X96286190Y10751810D02*
X96286190Y10275620D01*
X96286190Y10275620D02*
X96381428Y10085143D01*
X96381428Y10085143D02*
X96476666Y9989905D01*
X96476666Y9989905D02*
X96667142Y9894667D01*
X96667142Y9894667D02*
X97048095Y9894667D01*
X97048095Y9894667D02*
X97238571Y9989905D01*
X97238571Y9989905D02*
X97333809Y10085143D01*
X97333809Y10085143D02*
X97429047Y10275620D01*
X98667142Y11132762D02*
X98857619Y11132762D01*
X98857619Y11132762D02*
X99048095Y11037524D01*
X99048095Y11037524D02*
X99143333Y10942286D01*
X99143333Y10942286D02*
X99238571Y10751810D01*
X99238571Y10751810D02*
X99333809Y10370858D01*
X99333809Y10370858D02*
X99333809Y9894667D01*
X99333809Y9894667D02*
X99238571Y9513715D01*
X99238571Y9513715D02*
X99143333Y9323239D01*
X99143333Y9323239D02*
X99048095Y9228000D01*
X99048095Y9228000D02*
X98857619Y9132762D01*
X98857619Y9132762D02*
X98667142Y9132762D01*
X98667142Y9132762D02*
X98476666Y9228000D01*
X98476666Y9228000D02*
X98381428Y9323239D01*
X98381428Y9323239D02*
X98286190Y9513715D01*
X98286190Y9513715D02*
X98190952Y9894667D01*
X98190952Y9894667D02*
X98190952Y10370858D01*
X98190952Y10370858D02*
X98286190Y10751810D01*
X98286190Y10751810D02*
X98381428Y10942286D01*
X98381428Y10942286D02*
X98476666Y11037524D01*
X98476666Y11037524D02*
X98667142Y11132762D01*
X121241666Y18022762D02*
X120098809Y18022762D01*
X120670237Y18022762D02*
X120670237Y20022762D01*
X120670237Y20022762D02*
X120479761Y19737048D01*
X120479761Y19737048D02*
X120289285Y19546572D01*
X120289285Y19546572D02*
X120098809Y19451334D01*
X123146428Y18022762D02*
X122003571Y18022762D01*
X122574999Y18022762D02*
X122574999Y20022762D01*
X122574999Y20022762D02*
X122384523Y19737048D01*
X122384523Y19737048D02*
X122194047Y19546572D01*
X122194047Y19546572D02*
X122003571Y19451334D01*
X123813095Y20022762D02*
X125051190Y20022762D01*
X125051190Y20022762D02*
X124384523Y19260858D01*
X124384523Y19260858D02*
X124670238Y19260858D01*
X124670238Y19260858D02*
X124860714Y19165620D01*
X124860714Y19165620D02*
X124955952Y19070381D01*
X124955952Y19070381D02*
X125051190Y18879905D01*
X125051190Y18879905D02*
X125051190Y18403715D01*
X125051190Y18403715D02*
X124955952Y18213239D01*
X124955952Y18213239D02*
X124860714Y18118000D01*
X124860714Y18118000D02*
X124670238Y18022762D01*
X124670238Y18022762D02*
X124098809Y18022762D01*
X124098809Y18022762D02*
X123908333Y18118000D01*
X123908333Y18118000D02*
X123813095Y18213239D01*
X36278571Y11132762D02*
X35897618Y11132762D01*
X35897618Y11132762D02*
X35707142Y11037524D01*
X35707142Y11037524D02*
X35611904Y10942286D01*
X35611904Y10942286D02*
X35421428Y10656572D01*
X35421428Y10656572D02*
X35326190Y10275620D01*
X35326190Y10275620D02*
X35326190Y9513715D01*
X35326190Y9513715D02*
X35421428Y9323239D01*
X35421428Y9323239D02*
X35516666Y9228000D01*
X35516666Y9228000D02*
X35707142Y9132762D01*
X35707142Y9132762D02*
X36088095Y9132762D01*
X36088095Y9132762D02*
X36278571Y9228000D01*
X36278571Y9228000D02*
X36373809Y9323239D01*
X36373809Y9323239D02*
X36469047Y9513715D01*
X36469047Y9513715D02*
X36469047Y9989905D01*
X36469047Y9989905D02*
X36373809Y10180381D01*
X36373809Y10180381D02*
X36278571Y10275620D01*
X36278571Y10275620D02*
X36088095Y10370858D01*
X36088095Y10370858D02*
X35707142Y10370858D01*
X35707142Y10370858D02*
X35516666Y10275620D01*
X35516666Y10275620D02*
X35421428Y10180381D01*
X35421428Y10180381D02*
X35326190Y9989905D01*
X37230952Y10942286D02*
X37326190Y11037524D01*
X37326190Y11037524D02*
X37516666Y11132762D01*
X37516666Y11132762D02*
X37992857Y11132762D01*
X37992857Y11132762D02*
X38183333Y11037524D01*
X38183333Y11037524D02*
X38278571Y10942286D01*
X38278571Y10942286D02*
X38373809Y10751810D01*
X38373809Y10751810D02*
X38373809Y10561334D01*
X38373809Y10561334D02*
X38278571Y10275620D01*
X38278571Y10275620D02*
X37135714Y9132762D01*
X37135714Y9132762D02*
X38373809Y9132762D01*
X121241666Y14847762D02*
X120098809Y14847762D01*
X120670237Y14847762D02*
X120670237Y16847762D01*
X120670237Y16847762D02*
X120479761Y16562048D01*
X120479761Y16562048D02*
X120289285Y16371572D01*
X120289285Y16371572D02*
X120098809Y16276334D01*
X122479761Y16847762D02*
X122670238Y16847762D01*
X122670238Y16847762D02*
X122860714Y16752524D01*
X122860714Y16752524D02*
X122955952Y16657286D01*
X122955952Y16657286D02*
X123051190Y16466810D01*
X123051190Y16466810D02*
X123146428Y16085858D01*
X123146428Y16085858D02*
X123146428Y15609667D01*
X123146428Y15609667D02*
X123051190Y15228715D01*
X123051190Y15228715D02*
X122955952Y15038239D01*
X122955952Y15038239D02*
X122860714Y14943000D01*
X122860714Y14943000D02*
X122670238Y14847762D01*
X122670238Y14847762D02*
X122479761Y14847762D01*
X122479761Y14847762D02*
X122289285Y14943000D01*
X122289285Y14943000D02*
X122194047Y15038239D01*
X122194047Y15038239D02*
X122098809Y15228715D01*
X122098809Y15228715D02*
X122003571Y15609667D01*
X122003571Y15609667D02*
X122003571Y16085858D01*
X122003571Y16085858D02*
X122098809Y16466810D01*
X122098809Y16466810D02*
X122194047Y16657286D01*
X122194047Y16657286D02*
X122289285Y16752524D01*
X122289285Y16752524D02*
X122479761Y16847762D01*
X124955952Y16847762D02*
X124003571Y16847762D01*
X124003571Y16847762D02*
X123908333Y15895381D01*
X123908333Y15895381D02*
X124003571Y15990620D01*
X124003571Y15990620D02*
X124194047Y16085858D01*
X124194047Y16085858D02*
X124670238Y16085858D01*
X124670238Y16085858D02*
X124860714Y15990620D01*
X124860714Y15990620D02*
X124955952Y15895381D01*
X124955952Y15895381D02*
X125051190Y15704905D01*
X125051190Y15704905D02*
X125051190Y15228715D01*
X125051190Y15228715D02*
X124955952Y15038239D01*
X124955952Y15038239D02*
X124860714Y14943000D01*
X124860714Y14943000D02*
X124670238Y14847762D01*
X124670238Y14847762D02*
X124194047Y14847762D01*
X124194047Y14847762D02*
X124003571Y14943000D01*
X124003571Y14943000D02*
X123908333Y15038239D01*
X139130928Y5870002D02*
X139130928Y5012859D01*
X139130928Y5441430D02*
X137630928Y5441430D01*
X137630928Y5441430D02*
X137845214Y5298573D01*
X137845214Y5298573D02*
X137988071Y5155716D01*
X137988071Y5155716D02*
X138059500Y5012859D01*
X139130928Y7298573D02*
X139130928Y6441430D01*
X139130928Y6870001D02*
X137630928Y6870001D01*
X137630928Y6870001D02*
X137845214Y6727144D01*
X137845214Y6727144D02*
X137988071Y6584287D01*
X137988071Y6584287D02*
X138059500Y6441430D01*
X137630928Y8584286D02*
X137630928Y8298572D01*
X137630928Y8298572D02*
X137702357Y8155715D01*
X137702357Y8155715D02*
X137773785Y8084286D01*
X137773785Y8084286D02*
X137988071Y7941429D01*
X137988071Y7941429D02*
X138273785Y7870001D01*
X138273785Y7870001D02*
X138845214Y7870001D01*
X138845214Y7870001D02*
X138988071Y7941429D01*
X138988071Y7941429D02*
X139059500Y8012858D01*
X139059500Y8012858D02*
X139130928Y8155715D01*
X139130928Y8155715D02*
X139130928Y8441429D01*
X139130928Y8441429D02*
X139059500Y8584286D01*
X139059500Y8584286D02*
X138988071Y8655715D01*
X138988071Y8655715D02*
X138845214Y8727144D01*
X138845214Y8727144D02*
X138488071Y8727144D01*
X138488071Y8727144D02*
X138345214Y8655715D01*
X138345214Y8655715D02*
X138273785Y8584286D01*
X138273785Y8584286D02*
X138202357Y8441429D01*
X138202357Y8441429D02*
X138202357Y8155715D01*
X138202357Y8155715D02*
X138273785Y8012858D01*
X138273785Y8012858D02*
X138345214Y7941429D01*
X138345214Y7941429D02*
X138488071Y7870001D01*
D11*
X70322219Y20649524D02*
X70322219Y20078096D01*
X70322219Y20363810D02*
X69322219Y20363810D01*
X69322219Y20363810D02*
X69465076Y20268572D01*
X69465076Y20268572D02*
X69560314Y20173334D01*
X69560314Y20173334D02*
X69607933Y20078096D01*
X69417457Y21030477D02*
X69369838Y21078096D01*
X69369838Y21078096D02*
X69322219Y21173334D01*
X69322219Y21173334D02*
X69322219Y21411429D01*
X69322219Y21411429D02*
X69369838Y21506667D01*
X69369838Y21506667D02*
X69417457Y21554286D01*
X69417457Y21554286D02*
X69512695Y21601905D01*
X69512695Y21601905D02*
X69607933Y21601905D01*
X69607933Y21601905D02*
X69750790Y21554286D01*
X69750790Y21554286D02*
X70322219Y20982858D01*
X70322219Y20982858D02*
X70322219Y21601905D01*
D12*
X107159819Y99175477D02*
X107874104Y99175477D01*
X107874104Y99175477D02*
X108016961Y99127858D01*
X108016961Y99127858D02*
X108112200Y99032620D01*
X108112200Y99032620D02*
X108159819Y98889763D01*
X108159819Y98889763D02*
X108159819Y98794525D01*
X107255057Y99604049D02*
X107207438Y99651668D01*
X107207438Y99651668D02*
X107159819Y99746906D01*
X107159819Y99746906D02*
X107159819Y99985001D01*
X107159819Y99985001D02*
X107207438Y100080239D01*
X107207438Y100080239D02*
X107255057Y100127858D01*
X107255057Y100127858D02*
X107350295Y100175477D01*
X107350295Y100175477D02*
X107445533Y100175477D01*
X107445533Y100175477D02*
X107588390Y100127858D01*
X107588390Y100127858D02*
X108159819Y99556430D01*
X108159819Y99556430D02*
X108159819Y100175477D01*
X107255057Y100556430D02*
X107207438Y100604049D01*
X107207438Y100604049D02*
X107159819Y100699287D01*
X107159819Y100699287D02*
X107159819Y100937382D01*
X107159819Y100937382D02*
X107207438Y101032620D01*
X107207438Y101032620D02*
X107255057Y101080239D01*
X107255057Y101080239D02*
X107350295Y101127858D01*
X107350295Y101127858D02*
X107445533Y101127858D01*
X107445533Y101127858D02*
X107588390Y101080239D01*
X107588390Y101080239D02*
X108159819Y100508811D01*
X108159819Y100508811D02*
X108159819Y101127858D01*
X6868819Y71381906D02*
X5868819Y71381906D01*
X5868819Y71381906D02*
X5868819Y71620001D01*
X5868819Y71620001D02*
X5916438Y71762858D01*
X5916438Y71762858D02*
X6011676Y71858096D01*
X6011676Y71858096D02*
X6106914Y71905715D01*
X6106914Y71905715D02*
X6297390Y71953334D01*
X6297390Y71953334D02*
X6440247Y71953334D01*
X6440247Y71953334D02*
X6630723Y71905715D01*
X6630723Y71905715D02*
X6725961Y71858096D01*
X6725961Y71858096D02*
X6821200Y71762858D01*
X6821200Y71762858D02*
X6868819Y71620001D01*
X6868819Y71620001D02*
X6868819Y71381906D01*
X6868819Y72905715D02*
X6868819Y72334287D01*
X6868819Y72620001D02*
X5868819Y72620001D01*
X5868819Y72620001D02*
X6011676Y72524763D01*
X6011676Y72524763D02*
X6106914Y72429525D01*
X6106914Y72429525D02*
X6154533Y72334287D01*
D13*
X152899712Y8828834D02*
X152010712Y8828834D01*
X152010712Y8828834D02*
X152010712Y9167501D01*
X152010712Y9167501D02*
X152053045Y9252167D01*
X152053045Y9252167D02*
X152095379Y9294501D01*
X152095379Y9294501D02*
X152180045Y9336834D01*
X152180045Y9336834D02*
X152307045Y9336834D01*
X152307045Y9336834D02*
X152391712Y9294501D01*
X152391712Y9294501D02*
X152434045Y9252167D01*
X152434045Y9252167D02*
X152476379Y9167501D01*
X152476379Y9167501D02*
X152476379Y8828834D01*
X152899712Y10183501D02*
X152899712Y9675501D01*
X152899712Y9929501D02*
X152010712Y9929501D01*
X152010712Y9929501D02*
X152137712Y9844834D01*
X152137712Y9844834D02*
X152222379Y9760167D01*
X152222379Y9760167D02*
X152264712Y9675501D01*
X152112712Y821332D02*
X152112712Y1371666D01*
X152112712Y1371666D02*
X152451379Y1075332D01*
X152451379Y1075332D02*
X152451379Y1202332D01*
X152451379Y1202332D02*
X152493712Y1286999D01*
X152493712Y1286999D02*
X152536045Y1329332D01*
X152536045Y1329332D02*
X152620712Y1371666D01*
X152620712Y1371666D02*
X152832379Y1371666D01*
X152832379Y1371666D02*
X152917045Y1329332D01*
X152917045Y1329332D02*
X152959379Y1286999D01*
X152959379Y1286999D02*
X153001712Y1202332D01*
X153001712Y1202332D02*
X153001712Y948332D01*
X153001712Y948332D02*
X152959379Y863666D01*
X152959379Y863666D02*
X152917045Y821332D01*
X152112712Y2133666D02*
X152112712Y1964333D01*
X152112712Y1964333D02*
X152155045Y1879666D01*
X152155045Y1879666D02*
X152197379Y1837333D01*
X152197379Y1837333D02*
X152324379Y1752666D01*
X152324379Y1752666D02*
X152493712Y1710333D01*
X152493712Y1710333D02*
X152832379Y1710333D01*
X152832379Y1710333D02*
X152917045Y1752666D01*
X152917045Y1752666D02*
X152959379Y1794999D01*
X152959379Y1794999D02*
X153001712Y1879666D01*
X153001712Y1879666D02*
X153001712Y2048999D01*
X153001712Y2048999D02*
X152959379Y2133666D01*
X152959379Y2133666D02*
X152917045Y2175999D01*
X152917045Y2175999D02*
X152832379Y2218333D01*
X152832379Y2218333D02*
X152620712Y2218333D01*
X152620712Y2218333D02*
X152536045Y2175999D01*
X152536045Y2175999D02*
X152493712Y2133666D01*
X152493712Y2133666D02*
X152451379Y2048999D01*
X152451379Y2048999D02*
X152451379Y1879666D01*
X152451379Y1879666D02*
X152493712Y1794999D01*
X152493712Y1794999D02*
X152536045Y1752666D01*
X152536045Y1752666D02*
X152620712Y1710333D01*
X152493712Y2726333D02*
X152451379Y2641666D01*
X152451379Y2641666D02*
X152409045Y2599333D01*
X152409045Y2599333D02*
X152324379Y2557000D01*
X152324379Y2557000D02*
X152282045Y2557000D01*
X152282045Y2557000D02*
X152197379Y2599333D01*
X152197379Y2599333D02*
X152155045Y2641666D01*
X152155045Y2641666D02*
X152112712Y2726333D01*
X152112712Y2726333D02*
X152112712Y2895666D01*
X152112712Y2895666D02*
X152155045Y2980333D01*
X152155045Y2980333D02*
X152197379Y3022666D01*
X152197379Y3022666D02*
X152282045Y3065000D01*
X152282045Y3065000D02*
X152324379Y3065000D01*
X152324379Y3065000D02*
X152409045Y3022666D01*
X152409045Y3022666D02*
X152451379Y2980333D01*
X152451379Y2980333D02*
X152493712Y2895666D01*
X152493712Y2895666D02*
X152493712Y2726333D01*
X152493712Y2726333D02*
X152536045Y2641666D01*
X152536045Y2641666D02*
X152578379Y2599333D01*
X152578379Y2599333D02*
X152663045Y2557000D01*
X152663045Y2557000D02*
X152832379Y2557000D01*
X152832379Y2557000D02*
X152917045Y2599333D01*
X152917045Y2599333D02*
X152959379Y2641666D01*
X152959379Y2641666D02*
X153001712Y2726333D01*
X153001712Y2726333D02*
X153001712Y2895666D01*
X153001712Y2895666D02*
X152959379Y2980333D01*
X152959379Y2980333D02*
X152917045Y3022666D01*
X152917045Y3022666D02*
X152832379Y3065000D01*
X152832379Y3065000D02*
X152663045Y3065000D01*
X152663045Y3065000D02*
X152578379Y3022666D01*
X152578379Y3022666D02*
X152536045Y2980333D01*
X152536045Y2980333D02*
X152493712Y2895666D01*
X152197379Y3403667D02*
X152155045Y3446000D01*
X152155045Y3446000D02*
X152112712Y3530667D01*
X152112712Y3530667D02*
X152112712Y3742333D01*
X152112712Y3742333D02*
X152155045Y3827000D01*
X152155045Y3827000D02*
X152197379Y3869333D01*
X152197379Y3869333D02*
X152282045Y3911667D01*
X152282045Y3911667D02*
X152366712Y3911667D01*
X152366712Y3911667D02*
X152493712Y3869333D01*
X152493712Y3869333D02*
X153001712Y3361333D01*
X153001712Y3361333D02*
X153001712Y3911667D01*
X152112712Y4716000D02*
X152112712Y4292667D01*
X152112712Y4292667D02*
X152536045Y4250334D01*
X152536045Y4250334D02*
X152493712Y4292667D01*
X152493712Y4292667D02*
X152451379Y4377334D01*
X152451379Y4377334D02*
X152451379Y4589000D01*
X152451379Y4589000D02*
X152493712Y4673667D01*
X152493712Y4673667D02*
X152536045Y4716000D01*
X152536045Y4716000D02*
X152620712Y4758334D01*
X152620712Y4758334D02*
X152832379Y4758334D01*
X152832379Y4758334D02*
X152917045Y4716000D01*
X152917045Y4716000D02*
X152959379Y4673667D01*
X152959379Y4673667D02*
X153001712Y4589000D01*
X153001712Y4589000D02*
X153001712Y4377334D01*
X153001712Y4377334D02*
X152959379Y4292667D01*
X152959379Y4292667D02*
X152917045Y4250334D01*
X152112712Y5562667D02*
X152112712Y5139334D01*
X152112712Y5139334D02*
X152536045Y5097001D01*
X152536045Y5097001D02*
X152493712Y5139334D01*
X152493712Y5139334D02*
X152451379Y5224001D01*
X152451379Y5224001D02*
X152451379Y5435667D01*
X152451379Y5435667D02*
X152493712Y5520334D01*
X152493712Y5520334D02*
X152536045Y5562667D01*
X152536045Y5562667D02*
X152620712Y5605001D01*
X152620712Y5605001D02*
X152832379Y5605001D01*
X152832379Y5605001D02*
X152917045Y5562667D01*
X152917045Y5562667D02*
X152959379Y5520334D01*
X152959379Y5520334D02*
X153001712Y5435667D01*
X153001712Y5435667D02*
X153001712Y5224001D01*
X153001712Y5224001D02*
X152959379Y5139334D01*
X152959379Y5139334D02*
X152917045Y5097001D01*
X152663045Y5986001D02*
X152663045Y6663334D01*
X152197379Y7044335D02*
X152155045Y7086668D01*
X152155045Y7086668D02*
X152112712Y7171335D01*
X152112712Y7171335D02*
X152112712Y7383001D01*
X152112712Y7383001D02*
X152155045Y7467668D01*
X152155045Y7467668D02*
X152197379Y7510001D01*
X152197379Y7510001D02*
X152282045Y7552335D01*
X152282045Y7552335D02*
X152366712Y7552335D01*
X152366712Y7552335D02*
X152493712Y7510001D01*
X152493712Y7510001D02*
X153001712Y7002001D01*
X153001712Y7002001D02*
X153001712Y7552335D01*
D14*
X146790286Y91370557D02*
X146536286Y91370557D01*
X146536286Y90951509D02*
X146536286Y91751509D01*
X146536286Y91751509D02*
X146899143Y91751509D01*
X147298286Y91408652D02*
X147225715Y91446747D01*
X147225715Y91446747D02*
X147189429Y91484843D01*
X147189429Y91484843D02*
X147153143Y91561033D01*
X147153143Y91561033D02*
X147153143Y91599128D01*
X147153143Y91599128D02*
X147189429Y91675319D01*
X147189429Y91675319D02*
X147225715Y91713414D01*
X147225715Y91713414D02*
X147298286Y91751509D01*
X147298286Y91751509D02*
X147443429Y91751509D01*
X147443429Y91751509D02*
X147516001Y91713414D01*
X147516001Y91713414D02*
X147552286Y91675319D01*
X147552286Y91675319D02*
X147588572Y91599128D01*
X147588572Y91599128D02*
X147588572Y91561033D01*
X147588572Y91561033D02*
X147552286Y91484843D01*
X147552286Y91484843D02*
X147516001Y91446747D01*
X147516001Y91446747D02*
X147443429Y91408652D01*
X147443429Y91408652D02*
X147298286Y91408652D01*
X147298286Y91408652D02*
X147225715Y91370557D01*
X147225715Y91370557D02*
X147189429Y91332462D01*
X147189429Y91332462D02*
X147153143Y91256271D01*
X147153143Y91256271D02*
X147153143Y91103890D01*
X147153143Y91103890D02*
X147189429Y91027700D01*
X147189429Y91027700D02*
X147225715Y90989604D01*
X147225715Y90989604D02*
X147298286Y90951509D01*
X147298286Y90951509D02*
X147443429Y90951509D01*
X147443429Y90951509D02*
X147516001Y90989604D01*
X147516001Y90989604D02*
X147552286Y91027700D01*
X147552286Y91027700D02*
X147588572Y91103890D01*
X147588572Y91103890D02*
X147588572Y91256271D01*
X147588572Y91256271D02*
X147552286Y91332462D01*
X147552286Y91332462D02*
X147516001Y91370557D01*
X147516001Y91370557D02*
X147443429Y91408652D01*
X148241715Y91484843D02*
X148241715Y90951509D01*
X148060286Y91789604D02*
X147878857Y91218176D01*
X147878857Y91218176D02*
X148350572Y91218176D01*
X148604571Y91675319D02*
X148640857Y91713414D01*
X148640857Y91713414D02*
X148713429Y91751509D01*
X148713429Y91751509D02*
X148894857Y91751509D01*
X148894857Y91751509D02*
X148967429Y91713414D01*
X148967429Y91713414D02*
X149003714Y91675319D01*
X149003714Y91675319D02*
X149040000Y91599128D01*
X149040000Y91599128D02*
X149040000Y91522938D01*
X149040000Y91522938D02*
X149003714Y91408652D01*
X149003714Y91408652D02*
X148568286Y90951509D01*
X148568286Y90951509D02*
X149040000Y90951509D01*
D12*
X102410057Y48757381D02*
X102362438Y48662143D01*
X102362438Y48662143D02*
X102267200Y48566905D01*
X102267200Y48566905D02*
X102124342Y48424048D01*
X102124342Y48424048D02*
X102076723Y48328810D01*
X102076723Y48328810D02*
X102076723Y48233572D01*
X102314819Y48281191D02*
X102267200Y48185953D01*
X102267200Y48185953D02*
X102171961Y48090715D01*
X102171961Y48090715D02*
X101981485Y48043096D01*
X101981485Y48043096D02*
X101648152Y48043096D01*
X101648152Y48043096D02*
X101457676Y48090715D01*
X101457676Y48090715D02*
X101362438Y48185953D01*
X101362438Y48185953D02*
X101314819Y48281191D01*
X101314819Y48281191D02*
X101314819Y48471667D01*
X101314819Y48471667D02*
X101362438Y48566905D01*
X101362438Y48566905D02*
X101457676Y48662143D01*
X101457676Y48662143D02*
X101648152Y48709762D01*
X101648152Y48709762D02*
X101981485Y48709762D01*
X101981485Y48709762D02*
X102171961Y48662143D01*
X102171961Y48662143D02*
X102267200Y48566905D01*
X102267200Y48566905D02*
X102314819Y48471667D01*
X102314819Y48471667D02*
X102314819Y48281191D01*
X102314819Y49185953D02*
X102314819Y49376429D01*
X102314819Y49376429D02*
X102267200Y49471667D01*
X102267200Y49471667D02*
X102219580Y49519286D01*
X102219580Y49519286D02*
X102076723Y49614524D01*
X102076723Y49614524D02*
X101886247Y49662143D01*
X101886247Y49662143D02*
X101505295Y49662143D01*
X101505295Y49662143D02*
X101410057Y49614524D01*
X101410057Y49614524D02*
X101362438Y49566905D01*
X101362438Y49566905D02*
X101314819Y49471667D01*
X101314819Y49471667D02*
X101314819Y49281191D01*
X101314819Y49281191D02*
X101362438Y49185953D01*
X101362438Y49185953D02*
X101410057Y49138334D01*
X101410057Y49138334D02*
X101505295Y49090715D01*
X101505295Y49090715D02*
X101743390Y49090715D01*
X101743390Y49090715D02*
X101838628Y49138334D01*
X101838628Y49138334D02*
X101886247Y49185953D01*
X101886247Y49185953D02*
X101933866Y49281191D01*
X101933866Y49281191D02*
X101933866Y49471667D01*
X101933866Y49471667D02*
X101886247Y49566905D01*
X101886247Y49566905D02*
X101838628Y49614524D01*
X101838628Y49614524D02*
X101743390Y49662143D01*
X101314819Y50281191D02*
X101314819Y50376429D01*
X101314819Y50376429D02*
X101362438Y50471667D01*
X101362438Y50471667D02*
X101410057Y50519286D01*
X101410057Y50519286D02*
X101505295Y50566905D01*
X101505295Y50566905D02*
X101695771Y50614524D01*
X101695771Y50614524D02*
X101933866Y50614524D01*
X101933866Y50614524D02*
X102124342Y50566905D01*
X102124342Y50566905D02*
X102219580Y50519286D01*
X102219580Y50519286D02*
X102267200Y50471667D01*
X102267200Y50471667D02*
X102314819Y50376429D01*
X102314819Y50376429D02*
X102314819Y50281191D01*
X102314819Y50281191D02*
X102267200Y50185953D01*
X102267200Y50185953D02*
X102219580Y50138334D01*
X102219580Y50138334D02*
X102124342Y50090715D01*
X102124342Y50090715D02*
X101933866Y50043096D01*
X101933866Y50043096D02*
X101695771Y50043096D01*
X101695771Y50043096D02*
X101505295Y50090715D01*
X101505295Y50090715D02*
X101410057Y50138334D01*
X101410057Y50138334D02*
X101362438Y50185953D01*
X101362438Y50185953D02*
X101314819Y50281191D01*
X102314819Y51566905D02*
X102314819Y50995477D01*
X102314819Y51281191D02*
X101314819Y51281191D01*
X101314819Y51281191D02*
X101457676Y51185953D01*
X101457676Y51185953D02*
X101552914Y51090715D01*
X101552914Y51090715D02*
X101600533Y50995477D01*
D14*
X91554433Y57175287D02*
X91554433Y56921287D01*
X91973481Y56921287D02*
X91173481Y56921287D01*
X91173481Y56921287D02*
X91173481Y57284144D01*
X91516338Y57683287D02*
X91478243Y57610716D01*
X91478243Y57610716D02*
X91440147Y57574430D01*
X91440147Y57574430D02*
X91363957Y57538144D01*
X91363957Y57538144D02*
X91325862Y57538144D01*
X91325862Y57538144D02*
X91249671Y57574430D01*
X91249671Y57574430D02*
X91211576Y57610716D01*
X91211576Y57610716D02*
X91173481Y57683287D01*
X91173481Y57683287D02*
X91173481Y57828430D01*
X91173481Y57828430D02*
X91211576Y57901001D01*
X91211576Y57901001D02*
X91249671Y57937287D01*
X91249671Y57937287D02*
X91325862Y57973573D01*
X91325862Y57973573D02*
X91363957Y57973573D01*
X91363957Y57973573D02*
X91440147Y57937287D01*
X91440147Y57937287D02*
X91478243Y57901001D01*
X91478243Y57901001D02*
X91516338Y57828430D01*
X91516338Y57828430D02*
X91516338Y57683287D01*
X91516338Y57683287D02*
X91554433Y57610716D01*
X91554433Y57610716D02*
X91592528Y57574430D01*
X91592528Y57574430D02*
X91668719Y57538144D01*
X91668719Y57538144D02*
X91821100Y57538144D01*
X91821100Y57538144D02*
X91897290Y57574430D01*
X91897290Y57574430D02*
X91935386Y57610716D01*
X91935386Y57610716D02*
X91973481Y57683287D01*
X91973481Y57683287D02*
X91973481Y57828430D01*
X91973481Y57828430D02*
X91935386Y57901001D01*
X91935386Y57901001D02*
X91897290Y57937287D01*
X91897290Y57937287D02*
X91821100Y57973573D01*
X91821100Y57973573D02*
X91668719Y57973573D01*
X91668719Y57973573D02*
X91592528Y57937287D01*
X91592528Y57937287D02*
X91554433Y57901001D01*
X91554433Y57901001D02*
X91516338Y57828430D01*
X91440147Y58626715D02*
X91973481Y58626715D01*
X91135386Y58445287D02*
X91706814Y58263858D01*
X91706814Y58263858D02*
X91706814Y58735573D01*
X91173481Y58953287D02*
X91173481Y59425001D01*
X91173481Y59425001D02*
X91478243Y59171001D01*
X91478243Y59171001D02*
X91478243Y59279858D01*
X91478243Y59279858D02*
X91516338Y59352429D01*
X91516338Y59352429D02*
X91554433Y59388715D01*
X91554433Y59388715D02*
X91630624Y59425001D01*
X91630624Y59425001D02*
X91821100Y59425001D01*
X91821100Y59425001D02*
X91897290Y59388715D01*
X91897290Y59388715D02*
X91935386Y59352429D01*
X91935386Y59352429D02*
X91973481Y59279858D01*
X91973481Y59279858D02*
X91973481Y59062144D01*
X91973481Y59062144D02*
X91935386Y58989572D01*
X91935386Y58989572D02*
X91897290Y58953287D01*
D12*
X134785057Y48802381D02*
X134737438Y48707143D01*
X134737438Y48707143D02*
X134642200Y48611905D01*
X134642200Y48611905D02*
X134499342Y48469048D01*
X134499342Y48469048D02*
X134451723Y48373810D01*
X134451723Y48373810D02*
X134451723Y48278572D01*
X134689819Y48326191D02*
X134642200Y48230953D01*
X134642200Y48230953D02*
X134546961Y48135715D01*
X134546961Y48135715D02*
X134356485Y48088096D01*
X134356485Y48088096D02*
X134023152Y48088096D01*
X134023152Y48088096D02*
X133832676Y48135715D01*
X133832676Y48135715D02*
X133737438Y48230953D01*
X133737438Y48230953D02*
X133689819Y48326191D01*
X133689819Y48326191D02*
X133689819Y48516667D01*
X133689819Y48516667D02*
X133737438Y48611905D01*
X133737438Y48611905D02*
X133832676Y48707143D01*
X133832676Y48707143D02*
X134023152Y48754762D01*
X134023152Y48754762D02*
X134356485Y48754762D01*
X134356485Y48754762D02*
X134546961Y48707143D01*
X134546961Y48707143D02*
X134642200Y48611905D01*
X134642200Y48611905D02*
X134689819Y48516667D01*
X134689819Y48516667D02*
X134689819Y48326191D01*
X134118390Y49326191D02*
X134070771Y49230953D01*
X134070771Y49230953D02*
X134023152Y49183334D01*
X134023152Y49183334D02*
X133927914Y49135715D01*
X133927914Y49135715D02*
X133880295Y49135715D01*
X133880295Y49135715D02*
X133785057Y49183334D01*
X133785057Y49183334D02*
X133737438Y49230953D01*
X133737438Y49230953D02*
X133689819Y49326191D01*
X133689819Y49326191D02*
X133689819Y49516667D01*
X133689819Y49516667D02*
X133737438Y49611905D01*
X133737438Y49611905D02*
X133785057Y49659524D01*
X133785057Y49659524D02*
X133880295Y49707143D01*
X133880295Y49707143D02*
X133927914Y49707143D01*
X133927914Y49707143D02*
X134023152Y49659524D01*
X134023152Y49659524D02*
X134070771Y49611905D01*
X134070771Y49611905D02*
X134118390Y49516667D01*
X134118390Y49516667D02*
X134118390Y49326191D01*
X134118390Y49326191D02*
X134166009Y49230953D01*
X134166009Y49230953D02*
X134213628Y49183334D01*
X134213628Y49183334D02*
X134308866Y49135715D01*
X134308866Y49135715D02*
X134499342Y49135715D01*
X134499342Y49135715D02*
X134594580Y49183334D01*
X134594580Y49183334D02*
X134642200Y49230953D01*
X134642200Y49230953D02*
X134689819Y49326191D01*
X134689819Y49326191D02*
X134689819Y49516667D01*
X134689819Y49516667D02*
X134642200Y49611905D01*
X134642200Y49611905D02*
X134594580Y49659524D01*
X134594580Y49659524D02*
X134499342Y49707143D01*
X134499342Y49707143D02*
X134308866Y49707143D01*
X134308866Y49707143D02*
X134213628Y49659524D01*
X134213628Y49659524D02*
X134166009Y49611905D01*
X134166009Y49611905D02*
X134118390Y49516667D01*
X134023152Y50564286D02*
X134689819Y50564286D01*
X133642200Y50326191D02*
X134356485Y50088096D01*
X134356485Y50088096D02*
X134356485Y50707143D01*
X134689819Y51611905D02*
X134689819Y51040477D01*
X134689819Y51326191D02*
X133689819Y51326191D01*
X133689819Y51326191D02*
X133832676Y51230953D01*
X133832676Y51230953D02*
X133927914Y51135715D01*
X133927914Y51135715D02*
X133975533Y51040477D01*
D14*
X97933433Y39786287D02*
X97933433Y39532287D01*
X98352481Y39532287D02*
X97552481Y39532287D01*
X97552481Y39532287D02*
X97552481Y39895144D01*
X97895338Y40294287D02*
X97857243Y40221716D01*
X97857243Y40221716D02*
X97819147Y40185430D01*
X97819147Y40185430D02*
X97742957Y40149144D01*
X97742957Y40149144D02*
X97704862Y40149144D01*
X97704862Y40149144D02*
X97628671Y40185430D01*
X97628671Y40185430D02*
X97590576Y40221716D01*
X97590576Y40221716D02*
X97552481Y40294287D01*
X97552481Y40294287D02*
X97552481Y40439430D01*
X97552481Y40439430D02*
X97590576Y40512001D01*
X97590576Y40512001D02*
X97628671Y40548287D01*
X97628671Y40548287D02*
X97704862Y40584573D01*
X97704862Y40584573D02*
X97742957Y40584573D01*
X97742957Y40584573D02*
X97819147Y40548287D01*
X97819147Y40548287D02*
X97857243Y40512001D01*
X97857243Y40512001D02*
X97895338Y40439430D01*
X97895338Y40439430D02*
X97895338Y40294287D01*
X97895338Y40294287D02*
X97933433Y40221716D01*
X97933433Y40221716D02*
X97971528Y40185430D01*
X97971528Y40185430D02*
X98047719Y40149144D01*
X98047719Y40149144D02*
X98200100Y40149144D01*
X98200100Y40149144D02*
X98276290Y40185430D01*
X98276290Y40185430D02*
X98314386Y40221716D01*
X98314386Y40221716D02*
X98352481Y40294287D01*
X98352481Y40294287D02*
X98352481Y40439430D01*
X98352481Y40439430D02*
X98314386Y40512001D01*
X98314386Y40512001D02*
X98276290Y40548287D01*
X98276290Y40548287D02*
X98200100Y40584573D01*
X98200100Y40584573D02*
X98047719Y40584573D01*
X98047719Y40584573D02*
X97971528Y40548287D01*
X97971528Y40548287D02*
X97933433Y40512001D01*
X97933433Y40512001D02*
X97895338Y40439430D01*
X97819147Y41237715D02*
X98352481Y41237715D01*
X97514386Y41056287D02*
X98085814Y40874858D01*
X98085814Y40874858D02*
X98085814Y41346573D01*
X98352481Y42036001D02*
X98352481Y41600572D01*
X98352481Y41818287D02*
X97552481Y41818287D01*
X97552481Y41818287D02*
X97666766Y41745715D01*
X97666766Y41745715D02*
X97742957Y41673144D01*
X97742957Y41673144D02*
X97781052Y41600572D01*
D15*
X36165651Y42474192D02*
X35892318Y42864668D01*
X35697080Y42474192D02*
X35697080Y43294192D01*
X35697080Y43294192D02*
X36009461Y43294192D01*
X36009461Y43294192D02*
X36087556Y43255144D01*
X36087556Y43255144D02*
X36126603Y43216097D01*
X36126603Y43216097D02*
X36165651Y43138001D01*
X36165651Y43138001D02*
X36165651Y43020859D01*
X36165651Y43020859D02*
X36126603Y42942763D01*
X36126603Y42942763D02*
X36087556Y42903716D01*
X36087556Y42903716D02*
X36009461Y42864668D01*
X36009461Y42864668D02*
X35697080Y42864668D01*
X36634222Y42942763D02*
X36556127Y42981811D01*
X36556127Y42981811D02*
X36517080Y43020859D01*
X36517080Y43020859D02*
X36478032Y43098954D01*
X36478032Y43098954D02*
X36478032Y43138001D01*
X36478032Y43138001D02*
X36517080Y43216097D01*
X36517080Y43216097D02*
X36556127Y43255144D01*
X36556127Y43255144D02*
X36634222Y43294192D01*
X36634222Y43294192D02*
X36790413Y43294192D01*
X36790413Y43294192D02*
X36868508Y43255144D01*
X36868508Y43255144D02*
X36907556Y43216097D01*
X36907556Y43216097D02*
X36946603Y43138001D01*
X36946603Y43138001D02*
X36946603Y43098954D01*
X36946603Y43098954D02*
X36907556Y43020859D01*
X36907556Y43020859D02*
X36868508Y42981811D01*
X36868508Y42981811D02*
X36790413Y42942763D01*
X36790413Y42942763D02*
X36634222Y42942763D01*
X36634222Y42942763D02*
X36556127Y42903716D01*
X36556127Y42903716D02*
X36517080Y42864668D01*
X36517080Y42864668D02*
X36478032Y42786573D01*
X36478032Y42786573D02*
X36478032Y42630382D01*
X36478032Y42630382D02*
X36517080Y42552287D01*
X36517080Y42552287D02*
X36556127Y42513239D01*
X36556127Y42513239D02*
X36634222Y42474192D01*
X36634222Y42474192D02*
X36790413Y42474192D01*
X36790413Y42474192D02*
X36868508Y42513239D01*
X36868508Y42513239D02*
X36907556Y42552287D01*
X36907556Y42552287D02*
X36946603Y42630382D01*
X36946603Y42630382D02*
X36946603Y42786573D01*
X36946603Y42786573D02*
X36907556Y42864668D01*
X36907556Y42864668D02*
X36868508Y42903716D01*
X36868508Y42903716D02*
X36790413Y42942763D01*
X37649460Y43020859D02*
X37649460Y42474192D01*
X37454222Y43333239D02*
X37258984Y42747525D01*
X37258984Y42747525D02*
X37766603Y42747525D01*
X38000888Y43294192D02*
X38508507Y43294192D01*
X38508507Y43294192D02*
X38235174Y42981811D01*
X38235174Y42981811D02*
X38352317Y42981811D01*
X38352317Y42981811D02*
X38430412Y42942763D01*
X38430412Y42942763D02*
X38469460Y42903716D01*
X38469460Y42903716D02*
X38508507Y42825620D01*
X38508507Y42825620D02*
X38508507Y42630382D01*
X38508507Y42630382D02*
X38469460Y42552287D01*
X38469460Y42552287D02*
X38430412Y42513239D01*
X38430412Y42513239D02*
X38352317Y42474192D01*
X38352317Y42474192D02*
X38118031Y42474192D01*
X38118031Y42474192D02*
X38039936Y42513239D01*
X38039936Y42513239D02*
X38000888Y42552287D01*
X44393808Y63751652D02*
X44003332Y63478319D01*
X44393808Y63283081D02*
X43573808Y63283081D01*
X43573808Y63283081D02*
X43573808Y63595462D01*
X43573808Y63595462D02*
X43612856Y63673557D01*
X43612856Y63673557D02*
X43651903Y63712604D01*
X43651903Y63712604D02*
X43729999Y63751652D01*
X43729999Y63751652D02*
X43847141Y63751652D01*
X43847141Y63751652D02*
X43925237Y63712604D01*
X43925237Y63712604D02*
X43964284Y63673557D01*
X43964284Y63673557D02*
X44003332Y63595462D01*
X44003332Y63595462D02*
X44003332Y63283081D01*
X43925237Y64220223D02*
X43886189Y64142128D01*
X43886189Y64142128D02*
X43847141Y64103081D01*
X43847141Y64103081D02*
X43769046Y64064033D01*
X43769046Y64064033D02*
X43729999Y64064033D01*
X43729999Y64064033D02*
X43651903Y64103081D01*
X43651903Y64103081D02*
X43612856Y64142128D01*
X43612856Y64142128D02*
X43573808Y64220223D01*
X43573808Y64220223D02*
X43573808Y64376414D01*
X43573808Y64376414D02*
X43612856Y64454509D01*
X43612856Y64454509D02*
X43651903Y64493557D01*
X43651903Y64493557D02*
X43729999Y64532604D01*
X43729999Y64532604D02*
X43769046Y64532604D01*
X43769046Y64532604D02*
X43847141Y64493557D01*
X43847141Y64493557D02*
X43886189Y64454509D01*
X43886189Y64454509D02*
X43925237Y64376414D01*
X43925237Y64376414D02*
X43925237Y64220223D01*
X43925237Y64220223D02*
X43964284Y64142128D01*
X43964284Y64142128D02*
X44003332Y64103081D01*
X44003332Y64103081D02*
X44081427Y64064033D01*
X44081427Y64064033D02*
X44237618Y64064033D01*
X44237618Y64064033D02*
X44315713Y64103081D01*
X44315713Y64103081D02*
X44354761Y64142128D01*
X44354761Y64142128D02*
X44393808Y64220223D01*
X44393808Y64220223D02*
X44393808Y64376414D01*
X44393808Y64376414D02*
X44354761Y64454509D01*
X44354761Y64454509D02*
X44315713Y64493557D01*
X44315713Y64493557D02*
X44237618Y64532604D01*
X44237618Y64532604D02*
X44081427Y64532604D01*
X44081427Y64532604D02*
X44003332Y64493557D01*
X44003332Y64493557D02*
X43964284Y64454509D01*
X43964284Y64454509D02*
X43925237Y64376414D01*
X43847141Y65235461D02*
X44393808Y65235461D01*
X43534761Y65040223D02*
X44120475Y64844985D01*
X44120475Y64844985D02*
X44120475Y65352604D01*
X43573808Y65586889D02*
X43573808Y66133556D01*
X43573808Y66133556D02*
X44393808Y65782127D01*
D12*
X125085057Y61642381D02*
X125037438Y61547143D01*
X125037438Y61547143D02*
X124942200Y61451905D01*
X124942200Y61451905D02*
X124799342Y61309048D01*
X124799342Y61309048D02*
X124751723Y61213810D01*
X124751723Y61213810D02*
X124751723Y61118572D01*
X124989819Y61166191D02*
X124942200Y61070953D01*
X124942200Y61070953D02*
X124846961Y60975715D01*
X124846961Y60975715D02*
X124656485Y60928096D01*
X124656485Y60928096D02*
X124323152Y60928096D01*
X124323152Y60928096D02*
X124132676Y60975715D01*
X124132676Y60975715D02*
X124037438Y61070953D01*
X124037438Y61070953D02*
X123989819Y61166191D01*
X123989819Y61166191D02*
X123989819Y61356667D01*
X123989819Y61356667D02*
X124037438Y61451905D01*
X124037438Y61451905D02*
X124132676Y61547143D01*
X124132676Y61547143D02*
X124323152Y61594762D01*
X124323152Y61594762D02*
X124656485Y61594762D01*
X124656485Y61594762D02*
X124846961Y61547143D01*
X124846961Y61547143D02*
X124942200Y61451905D01*
X124942200Y61451905D02*
X124989819Y61356667D01*
X124989819Y61356667D02*
X124989819Y61166191D01*
X124989819Y62070953D02*
X124989819Y62261429D01*
X124989819Y62261429D02*
X124942200Y62356667D01*
X124942200Y62356667D02*
X124894580Y62404286D01*
X124894580Y62404286D02*
X124751723Y62499524D01*
X124751723Y62499524D02*
X124561247Y62547143D01*
X124561247Y62547143D02*
X124180295Y62547143D01*
X124180295Y62547143D02*
X124085057Y62499524D01*
X124085057Y62499524D02*
X124037438Y62451905D01*
X124037438Y62451905D02*
X123989819Y62356667D01*
X123989819Y62356667D02*
X123989819Y62166191D01*
X123989819Y62166191D02*
X124037438Y62070953D01*
X124037438Y62070953D02*
X124085057Y62023334D01*
X124085057Y62023334D02*
X124180295Y61975715D01*
X124180295Y61975715D02*
X124418390Y61975715D01*
X124418390Y61975715D02*
X124513628Y62023334D01*
X124513628Y62023334D02*
X124561247Y62070953D01*
X124561247Y62070953D02*
X124608866Y62166191D01*
X124608866Y62166191D02*
X124608866Y62356667D01*
X124608866Y62356667D02*
X124561247Y62451905D01*
X124561247Y62451905D02*
X124513628Y62499524D01*
X124513628Y62499524D02*
X124418390Y62547143D01*
X123989819Y63166191D02*
X123989819Y63261429D01*
X123989819Y63261429D02*
X124037438Y63356667D01*
X124037438Y63356667D02*
X124085057Y63404286D01*
X124085057Y63404286D02*
X124180295Y63451905D01*
X124180295Y63451905D02*
X124370771Y63499524D01*
X124370771Y63499524D02*
X124608866Y63499524D01*
X124608866Y63499524D02*
X124799342Y63451905D01*
X124799342Y63451905D02*
X124894580Y63404286D01*
X124894580Y63404286D02*
X124942200Y63356667D01*
X124942200Y63356667D02*
X124989819Y63261429D01*
X124989819Y63261429D02*
X124989819Y63166191D01*
X124989819Y63166191D02*
X124942200Y63070953D01*
X124942200Y63070953D02*
X124894580Y63023334D01*
X124894580Y63023334D02*
X124799342Y62975715D01*
X124799342Y62975715D02*
X124608866Y62928096D01*
X124608866Y62928096D02*
X124370771Y62928096D01*
X124370771Y62928096D02*
X124180295Y62975715D01*
X124180295Y62975715D02*
X124085057Y63023334D01*
X124085057Y63023334D02*
X124037438Y63070953D01*
X124037438Y63070953D02*
X123989819Y63166191D01*
X123989819Y64404286D02*
X123989819Y63928096D01*
X123989819Y63928096D02*
X124466009Y63880477D01*
X124466009Y63880477D02*
X124418390Y63928096D01*
X124418390Y63928096D02*
X124370771Y64023334D01*
X124370771Y64023334D02*
X124370771Y64261429D01*
X124370771Y64261429D02*
X124418390Y64356667D01*
X124418390Y64356667D02*
X124466009Y64404286D01*
X124466009Y64404286D02*
X124561247Y64451905D01*
X124561247Y64451905D02*
X124799342Y64451905D01*
X124799342Y64451905D02*
X124894580Y64404286D01*
X124894580Y64404286D02*
X124942200Y64356667D01*
X124942200Y64356667D02*
X124989819Y64261429D01*
X124989819Y64261429D02*
X124989819Y64023334D01*
X124989819Y64023334D02*
X124942200Y63928096D01*
X124942200Y63928096D02*
X124894580Y63880477D01*
D15*
X49082880Y63752652D02*
X48692404Y63479319D01*
X49082880Y63284081D02*
X48262880Y63284081D01*
X48262880Y63284081D02*
X48262880Y63596462D01*
X48262880Y63596462D02*
X48301928Y63674557D01*
X48301928Y63674557D02*
X48340975Y63713604D01*
X48340975Y63713604D02*
X48419071Y63752652D01*
X48419071Y63752652D02*
X48536213Y63752652D01*
X48536213Y63752652D02*
X48614309Y63713604D01*
X48614309Y63713604D02*
X48653356Y63674557D01*
X48653356Y63674557D02*
X48692404Y63596462D01*
X48692404Y63596462D02*
X48692404Y63284081D01*
X48614309Y64221223D02*
X48575261Y64143128D01*
X48575261Y64143128D02*
X48536213Y64104081D01*
X48536213Y64104081D02*
X48458118Y64065033D01*
X48458118Y64065033D02*
X48419071Y64065033D01*
X48419071Y64065033D02*
X48340975Y64104081D01*
X48340975Y64104081D02*
X48301928Y64143128D01*
X48301928Y64143128D02*
X48262880Y64221223D01*
X48262880Y64221223D02*
X48262880Y64377414D01*
X48262880Y64377414D02*
X48301928Y64455509D01*
X48301928Y64455509D02*
X48340975Y64494557D01*
X48340975Y64494557D02*
X48419071Y64533604D01*
X48419071Y64533604D02*
X48458118Y64533604D01*
X48458118Y64533604D02*
X48536213Y64494557D01*
X48536213Y64494557D02*
X48575261Y64455509D01*
X48575261Y64455509D02*
X48614309Y64377414D01*
X48614309Y64377414D02*
X48614309Y64221223D01*
X48614309Y64221223D02*
X48653356Y64143128D01*
X48653356Y64143128D02*
X48692404Y64104081D01*
X48692404Y64104081D02*
X48770499Y64065033D01*
X48770499Y64065033D02*
X48926690Y64065033D01*
X48926690Y64065033D02*
X49004785Y64104081D01*
X49004785Y64104081D02*
X49043833Y64143128D01*
X49043833Y64143128D02*
X49082880Y64221223D01*
X49082880Y64221223D02*
X49082880Y64377414D01*
X49082880Y64377414D02*
X49043833Y64455509D01*
X49043833Y64455509D02*
X49004785Y64494557D01*
X49004785Y64494557D02*
X48926690Y64533604D01*
X48926690Y64533604D02*
X48770499Y64533604D01*
X48770499Y64533604D02*
X48692404Y64494557D01*
X48692404Y64494557D02*
X48653356Y64455509D01*
X48653356Y64455509D02*
X48614309Y64377414D01*
X48536213Y65236461D02*
X49082880Y65236461D01*
X48223833Y65041223D02*
X48809547Y64845985D01*
X48809547Y64845985D02*
X48809547Y65353604D01*
X48614309Y65783127D02*
X48575261Y65705032D01*
X48575261Y65705032D02*
X48536213Y65665985D01*
X48536213Y65665985D02*
X48458118Y65626937D01*
X48458118Y65626937D02*
X48419071Y65626937D01*
X48419071Y65626937D02*
X48340975Y65665985D01*
X48340975Y65665985D02*
X48301928Y65705032D01*
X48301928Y65705032D02*
X48262880Y65783127D01*
X48262880Y65783127D02*
X48262880Y65939318D01*
X48262880Y65939318D02*
X48301928Y66017413D01*
X48301928Y66017413D02*
X48340975Y66056461D01*
X48340975Y66056461D02*
X48419071Y66095508D01*
X48419071Y66095508D02*
X48458118Y66095508D01*
X48458118Y66095508D02*
X48536213Y66056461D01*
X48536213Y66056461D02*
X48575261Y66017413D01*
X48575261Y66017413D02*
X48614309Y65939318D01*
X48614309Y65939318D02*
X48614309Y65783127D01*
X48614309Y65783127D02*
X48653356Y65705032D01*
X48653356Y65705032D02*
X48692404Y65665985D01*
X48692404Y65665985D02*
X48770499Y65626937D01*
X48770499Y65626937D02*
X48926690Y65626937D01*
X48926690Y65626937D02*
X49004785Y65665985D01*
X49004785Y65665985D02*
X49043833Y65705032D01*
X49043833Y65705032D02*
X49082880Y65783127D01*
X49082880Y65783127D02*
X49082880Y65939318D01*
X49082880Y65939318D02*
X49043833Y66017413D01*
X49043833Y66017413D02*
X49004785Y66056461D01*
X49004785Y66056461D02*
X48926690Y66095508D01*
X48926690Y66095508D02*
X48770499Y66095508D01*
X48770499Y66095508D02*
X48692404Y66056461D01*
X48692404Y66056461D02*
X48653356Y66017413D01*
X48653356Y66017413D02*
X48614309Y65939318D01*
D12*
X156515057Y61152381D02*
X156467438Y61057143D01*
X156467438Y61057143D02*
X156372200Y60961905D01*
X156372200Y60961905D02*
X156229342Y60819048D01*
X156229342Y60819048D02*
X156181723Y60723810D01*
X156181723Y60723810D02*
X156181723Y60628572D01*
X156419819Y60676191D02*
X156372200Y60580953D01*
X156372200Y60580953D02*
X156276961Y60485715D01*
X156276961Y60485715D02*
X156086485Y60438096D01*
X156086485Y60438096D02*
X155753152Y60438096D01*
X155753152Y60438096D02*
X155562676Y60485715D01*
X155562676Y60485715D02*
X155467438Y60580953D01*
X155467438Y60580953D02*
X155419819Y60676191D01*
X155419819Y60676191D02*
X155419819Y60866667D01*
X155419819Y60866667D02*
X155467438Y60961905D01*
X155467438Y60961905D02*
X155562676Y61057143D01*
X155562676Y61057143D02*
X155753152Y61104762D01*
X155753152Y61104762D02*
X156086485Y61104762D01*
X156086485Y61104762D02*
X156276961Y61057143D01*
X156276961Y61057143D02*
X156372200Y60961905D01*
X156372200Y60961905D02*
X156419819Y60866667D01*
X156419819Y60866667D02*
X156419819Y60676191D01*
X155848390Y61676191D02*
X155800771Y61580953D01*
X155800771Y61580953D02*
X155753152Y61533334D01*
X155753152Y61533334D02*
X155657914Y61485715D01*
X155657914Y61485715D02*
X155610295Y61485715D01*
X155610295Y61485715D02*
X155515057Y61533334D01*
X155515057Y61533334D02*
X155467438Y61580953D01*
X155467438Y61580953D02*
X155419819Y61676191D01*
X155419819Y61676191D02*
X155419819Y61866667D01*
X155419819Y61866667D02*
X155467438Y61961905D01*
X155467438Y61961905D02*
X155515057Y62009524D01*
X155515057Y62009524D02*
X155610295Y62057143D01*
X155610295Y62057143D02*
X155657914Y62057143D01*
X155657914Y62057143D02*
X155753152Y62009524D01*
X155753152Y62009524D02*
X155800771Y61961905D01*
X155800771Y61961905D02*
X155848390Y61866667D01*
X155848390Y61866667D02*
X155848390Y61676191D01*
X155848390Y61676191D02*
X155896009Y61580953D01*
X155896009Y61580953D02*
X155943628Y61533334D01*
X155943628Y61533334D02*
X156038866Y61485715D01*
X156038866Y61485715D02*
X156229342Y61485715D01*
X156229342Y61485715D02*
X156324580Y61533334D01*
X156324580Y61533334D02*
X156372200Y61580953D01*
X156372200Y61580953D02*
X156419819Y61676191D01*
X156419819Y61676191D02*
X156419819Y61866667D01*
X156419819Y61866667D02*
X156372200Y61961905D01*
X156372200Y61961905D02*
X156324580Y62009524D01*
X156324580Y62009524D02*
X156229342Y62057143D01*
X156229342Y62057143D02*
X156038866Y62057143D01*
X156038866Y62057143D02*
X155943628Y62009524D01*
X155943628Y62009524D02*
X155896009Y61961905D01*
X155896009Y61961905D02*
X155848390Y61866667D01*
X155753152Y62914286D02*
X156419819Y62914286D01*
X155372200Y62676191D02*
X156086485Y62438096D01*
X156086485Y62438096D02*
X156086485Y63057143D01*
X155419819Y63914286D02*
X155419819Y63438096D01*
X155419819Y63438096D02*
X155896009Y63390477D01*
X155896009Y63390477D02*
X155848390Y63438096D01*
X155848390Y63438096D02*
X155800771Y63533334D01*
X155800771Y63533334D02*
X155800771Y63771429D01*
X155800771Y63771429D02*
X155848390Y63866667D01*
X155848390Y63866667D02*
X155896009Y63914286D01*
X155896009Y63914286D02*
X155991247Y63961905D01*
X155991247Y63961905D02*
X156229342Y63961905D01*
X156229342Y63961905D02*
X156324580Y63914286D01*
X156324580Y63914286D02*
X156372200Y63866667D01*
X156372200Y63866667D02*
X156419819Y63771429D01*
X156419819Y63771429D02*
X156419819Y63533334D01*
X156419819Y63533334D02*
X156372200Y63438096D01*
X156372200Y63438096D02*
X156324580Y63390477D01*
X156460057Y32647381D02*
X156412438Y32552143D01*
X156412438Y32552143D02*
X156317200Y32456905D01*
X156317200Y32456905D02*
X156174342Y32314048D01*
X156174342Y32314048D02*
X156126723Y32218810D01*
X156126723Y32218810D02*
X156126723Y32123572D01*
X156364819Y32171191D02*
X156317200Y32075953D01*
X156317200Y32075953D02*
X156221961Y31980715D01*
X156221961Y31980715D02*
X156031485Y31933096D01*
X156031485Y31933096D02*
X155698152Y31933096D01*
X155698152Y31933096D02*
X155507676Y31980715D01*
X155507676Y31980715D02*
X155412438Y32075953D01*
X155412438Y32075953D02*
X155364819Y32171191D01*
X155364819Y32171191D02*
X155364819Y32361667D01*
X155364819Y32361667D02*
X155412438Y32456905D01*
X155412438Y32456905D02*
X155507676Y32552143D01*
X155507676Y32552143D02*
X155698152Y32599762D01*
X155698152Y32599762D02*
X156031485Y32599762D01*
X156031485Y32599762D02*
X156221961Y32552143D01*
X156221961Y32552143D02*
X156317200Y32456905D01*
X156317200Y32456905D02*
X156364819Y32361667D01*
X156364819Y32361667D02*
X156364819Y32171191D01*
X155793390Y33171191D02*
X155745771Y33075953D01*
X155745771Y33075953D02*
X155698152Y33028334D01*
X155698152Y33028334D02*
X155602914Y32980715D01*
X155602914Y32980715D02*
X155555295Y32980715D01*
X155555295Y32980715D02*
X155460057Y33028334D01*
X155460057Y33028334D02*
X155412438Y33075953D01*
X155412438Y33075953D02*
X155364819Y33171191D01*
X155364819Y33171191D02*
X155364819Y33361667D01*
X155364819Y33361667D02*
X155412438Y33456905D01*
X155412438Y33456905D02*
X155460057Y33504524D01*
X155460057Y33504524D02*
X155555295Y33552143D01*
X155555295Y33552143D02*
X155602914Y33552143D01*
X155602914Y33552143D02*
X155698152Y33504524D01*
X155698152Y33504524D02*
X155745771Y33456905D01*
X155745771Y33456905D02*
X155793390Y33361667D01*
X155793390Y33361667D02*
X155793390Y33171191D01*
X155793390Y33171191D02*
X155841009Y33075953D01*
X155841009Y33075953D02*
X155888628Y33028334D01*
X155888628Y33028334D02*
X155983866Y32980715D01*
X155983866Y32980715D02*
X156174342Y32980715D01*
X156174342Y32980715D02*
X156269580Y33028334D01*
X156269580Y33028334D02*
X156317200Y33075953D01*
X156317200Y33075953D02*
X156364819Y33171191D01*
X156364819Y33171191D02*
X156364819Y33361667D01*
X156364819Y33361667D02*
X156317200Y33456905D01*
X156317200Y33456905D02*
X156269580Y33504524D01*
X156269580Y33504524D02*
X156174342Y33552143D01*
X156174342Y33552143D02*
X155983866Y33552143D01*
X155983866Y33552143D02*
X155888628Y33504524D01*
X155888628Y33504524D02*
X155841009Y33456905D01*
X155841009Y33456905D02*
X155793390Y33361667D01*
X155698152Y34409286D02*
X156364819Y34409286D01*
X155317200Y34171191D02*
X156031485Y33933096D01*
X156031485Y33933096D02*
X156031485Y34552143D01*
X155460057Y34885477D02*
X155412438Y34933096D01*
X155412438Y34933096D02*
X155364819Y35028334D01*
X155364819Y35028334D02*
X155364819Y35266429D01*
X155364819Y35266429D02*
X155412438Y35361667D01*
X155412438Y35361667D02*
X155460057Y35409286D01*
X155460057Y35409286D02*
X155555295Y35456905D01*
X155555295Y35456905D02*
X155650533Y35456905D01*
X155650533Y35456905D02*
X155793390Y35409286D01*
X155793390Y35409286D02*
X156364819Y34837858D01*
X156364819Y34837858D02*
X156364819Y35456905D01*
X101615057Y76707381D02*
X101567438Y76612143D01*
X101567438Y76612143D02*
X101472200Y76516905D01*
X101472200Y76516905D02*
X101329342Y76374048D01*
X101329342Y76374048D02*
X101281723Y76278810D01*
X101281723Y76278810D02*
X101281723Y76183572D01*
X101519819Y76231191D02*
X101472200Y76135953D01*
X101472200Y76135953D02*
X101376961Y76040715D01*
X101376961Y76040715D02*
X101186485Y75993096D01*
X101186485Y75993096D02*
X100853152Y75993096D01*
X100853152Y75993096D02*
X100662676Y76040715D01*
X100662676Y76040715D02*
X100567438Y76135953D01*
X100567438Y76135953D02*
X100519819Y76231191D01*
X100519819Y76231191D02*
X100519819Y76421667D01*
X100519819Y76421667D02*
X100567438Y76516905D01*
X100567438Y76516905D02*
X100662676Y76612143D01*
X100662676Y76612143D02*
X100853152Y76659762D01*
X100853152Y76659762D02*
X101186485Y76659762D01*
X101186485Y76659762D02*
X101376961Y76612143D01*
X101376961Y76612143D02*
X101472200Y76516905D01*
X101472200Y76516905D02*
X101519819Y76421667D01*
X101519819Y76421667D02*
X101519819Y76231191D01*
X101519819Y77135953D02*
X101519819Y77326429D01*
X101519819Y77326429D02*
X101472200Y77421667D01*
X101472200Y77421667D02*
X101424580Y77469286D01*
X101424580Y77469286D02*
X101281723Y77564524D01*
X101281723Y77564524D02*
X101091247Y77612143D01*
X101091247Y77612143D02*
X100710295Y77612143D01*
X100710295Y77612143D02*
X100615057Y77564524D01*
X100615057Y77564524D02*
X100567438Y77516905D01*
X100567438Y77516905D02*
X100519819Y77421667D01*
X100519819Y77421667D02*
X100519819Y77231191D01*
X100519819Y77231191D02*
X100567438Y77135953D01*
X100567438Y77135953D02*
X100615057Y77088334D01*
X100615057Y77088334D02*
X100710295Y77040715D01*
X100710295Y77040715D02*
X100948390Y77040715D01*
X100948390Y77040715D02*
X101043628Y77088334D01*
X101043628Y77088334D02*
X101091247Y77135953D01*
X101091247Y77135953D02*
X101138866Y77231191D01*
X101138866Y77231191D02*
X101138866Y77421667D01*
X101138866Y77421667D02*
X101091247Y77516905D01*
X101091247Y77516905D02*
X101043628Y77564524D01*
X101043628Y77564524D02*
X100948390Y77612143D01*
X100519819Y78231191D02*
X100519819Y78326429D01*
X100519819Y78326429D02*
X100567438Y78421667D01*
X100567438Y78421667D02*
X100615057Y78469286D01*
X100615057Y78469286D02*
X100710295Y78516905D01*
X100710295Y78516905D02*
X100900771Y78564524D01*
X100900771Y78564524D02*
X101138866Y78564524D01*
X101138866Y78564524D02*
X101329342Y78516905D01*
X101329342Y78516905D02*
X101424580Y78469286D01*
X101424580Y78469286D02*
X101472200Y78421667D01*
X101472200Y78421667D02*
X101519819Y78326429D01*
X101519819Y78326429D02*
X101519819Y78231191D01*
X101519819Y78231191D02*
X101472200Y78135953D01*
X101472200Y78135953D02*
X101424580Y78088334D01*
X101424580Y78088334D02*
X101329342Y78040715D01*
X101329342Y78040715D02*
X101138866Y77993096D01*
X101138866Y77993096D02*
X100900771Y77993096D01*
X100900771Y77993096D02*
X100710295Y78040715D01*
X100710295Y78040715D02*
X100615057Y78088334D01*
X100615057Y78088334D02*
X100567438Y78135953D01*
X100567438Y78135953D02*
X100519819Y78231191D01*
X100519819Y78897858D02*
X100519819Y79516905D01*
X100519819Y79516905D02*
X100900771Y79183572D01*
X100900771Y79183572D02*
X100900771Y79326429D01*
X100900771Y79326429D02*
X100948390Y79421667D01*
X100948390Y79421667D02*
X100996009Y79469286D01*
X100996009Y79469286D02*
X101091247Y79516905D01*
X101091247Y79516905D02*
X101329342Y79516905D01*
X101329342Y79516905D02*
X101424580Y79469286D01*
X101424580Y79469286D02*
X101472200Y79421667D01*
X101472200Y79421667D02*
X101519819Y79326429D01*
X101519819Y79326429D02*
X101519819Y79040715D01*
X101519819Y79040715D02*
X101472200Y78945477D01*
X101472200Y78945477D02*
X101424580Y78897858D01*
X125375057Y48792381D02*
X125327438Y48697143D01*
X125327438Y48697143D02*
X125232200Y48601905D01*
X125232200Y48601905D02*
X125089342Y48459048D01*
X125089342Y48459048D02*
X125041723Y48363810D01*
X125041723Y48363810D02*
X125041723Y48268572D01*
X125279819Y48316191D02*
X125232200Y48220953D01*
X125232200Y48220953D02*
X125136961Y48125715D01*
X125136961Y48125715D02*
X124946485Y48078096D01*
X124946485Y48078096D02*
X124613152Y48078096D01*
X124613152Y48078096D02*
X124422676Y48125715D01*
X124422676Y48125715D02*
X124327438Y48220953D01*
X124327438Y48220953D02*
X124279819Y48316191D01*
X124279819Y48316191D02*
X124279819Y48506667D01*
X124279819Y48506667D02*
X124327438Y48601905D01*
X124327438Y48601905D02*
X124422676Y48697143D01*
X124422676Y48697143D02*
X124613152Y48744762D01*
X124613152Y48744762D02*
X124946485Y48744762D01*
X124946485Y48744762D02*
X125136961Y48697143D01*
X125136961Y48697143D02*
X125232200Y48601905D01*
X125232200Y48601905D02*
X125279819Y48506667D01*
X125279819Y48506667D02*
X125279819Y48316191D01*
X125279819Y49220953D02*
X125279819Y49411429D01*
X125279819Y49411429D02*
X125232200Y49506667D01*
X125232200Y49506667D02*
X125184580Y49554286D01*
X125184580Y49554286D02*
X125041723Y49649524D01*
X125041723Y49649524D02*
X124851247Y49697143D01*
X124851247Y49697143D02*
X124470295Y49697143D01*
X124470295Y49697143D02*
X124375057Y49649524D01*
X124375057Y49649524D02*
X124327438Y49601905D01*
X124327438Y49601905D02*
X124279819Y49506667D01*
X124279819Y49506667D02*
X124279819Y49316191D01*
X124279819Y49316191D02*
X124327438Y49220953D01*
X124327438Y49220953D02*
X124375057Y49173334D01*
X124375057Y49173334D02*
X124470295Y49125715D01*
X124470295Y49125715D02*
X124708390Y49125715D01*
X124708390Y49125715D02*
X124803628Y49173334D01*
X124803628Y49173334D02*
X124851247Y49220953D01*
X124851247Y49220953D02*
X124898866Y49316191D01*
X124898866Y49316191D02*
X124898866Y49506667D01*
X124898866Y49506667D02*
X124851247Y49601905D01*
X124851247Y49601905D02*
X124803628Y49649524D01*
X124803628Y49649524D02*
X124708390Y49697143D01*
X124279819Y50316191D02*
X124279819Y50411429D01*
X124279819Y50411429D02*
X124327438Y50506667D01*
X124327438Y50506667D02*
X124375057Y50554286D01*
X124375057Y50554286D02*
X124470295Y50601905D01*
X124470295Y50601905D02*
X124660771Y50649524D01*
X124660771Y50649524D02*
X124898866Y50649524D01*
X124898866Y50649524D02*
X125089342Y50601905D01*
X125089342Y50601905D02*
X125184580Y50554286D01*
X125184580Y50554286D02*
X125232200Y50506667D01*
X125232200Y50506667D02*
X125279819Y50411429D01*
X125279819Y50411429D02*
X125279819Y50316191D01*
X125279819Y50316191D02*
X125232200Y50220953D01*
X125232200Y50220953D02*
X125184580Y50173334D01*
X125184580Y50173334D02*
X125089342Y50125715D01*
X125089342Y50125715D02*
X124898866Y50078096D01*
X124898866Y50078096D02*
X124660771Y50078096D01*
X124660771Y50078096D02*
X124470295Y50125715D01*
X124470295Y50125715D02*
X124375057Y50173334D01*
X124375057Y50173334D02*
X124327438Y50220953D01*
X124327438Y50220953D02*
X124279819Y50316191D01*
X124279819Y51506667D02*
X124279819Y51316191D01*
X124279819Y51316191D02*
X124327438Y51220953D01*
X124327438Y51220953D02*
X124375057Y51173334D01*
X124375057Y51173334D02*
X124517914Y51078096D01*
X124517914Y51078096D02*
X124708390Y51030477D01*
X124708390Y51030477D02*
X125089342Y51030477D01*
X125089342Y51030477D02*
X125184580Y51078096D01*
X125184580Y51078096D02*
X125232200Y51125715D01*
X125232200Y51125715D02*
X125279819Y51220953D01*
X125279819Y51220953D02*
X125279819Y51411429D01*
X125279819Y51411429D02*
X125232200Y51506667D01*
X125232200Y51506667D02*
X125184580Y51554286D01*
X125184580Y51554286D02*
X125089342Y51601905D01*
X125089342Y51601905D02*
X124851247Y51601905D01*
X124851247Y51601905D02*
X124756009Y51554286D01*
X124756009Y51554286D02*
X124708390Y51506667D01*
X124708390Y51506667D02*
X124660771Y51411429D01*
X124660771Y51411429D02*
X124660771Y51220953D01*
X124660771Y51220953D02*
X124708390Y51125715D01*
X124708390Y51125715D02*
X124756009Y51078096D01*
X124756009Y51078096D02*
X124851247Y51030477D01*
X124975057Y33062381D02*
X124927438Y32967143D01*
X124927438Y32967143D02*
X124832200Y32871905D01*
X124832200Y32871905D02*
X124689342Y32729048D01*
X124689342Y32729048D02*
X124641723Y32633810D01*
X124641723Y32633810D02*
X124641723Y32538572D01*
X124879819Y32586191D02*
X124832200Y32490953D01*
X124832200Y32490953D02*
X124736961Y32395715D01*
X124736961Y32395715D02*
X124546485Y32348096D01*
X124546485Y32348096D02*
X124213152Y32348096D01*
X124213152Y32348096D02*
X124022676Y32395715D01*
X124022676Y32395715D02*
X123927438Y32490953D01*
X123927438Y32490953D02*
X123879819Y32586191D01*
X123879819Y32586191D02*
X123879819Y32776667D01*
X123879819Y32776667D02*
X123927438Y32871905D01*
X123927438Y32871905D02*
X124022676Y32967143D01*
X124022676Y32967143D02*
X124213152Y33014762D01*
X124213152Y33014762D02*
X124546485Y33014762D01*
X124546485Y33014762D02*
X124736961Y32967143D01*
X124736961Y32967143D02*
X124832200Y32871905D01*
X124832200Y32871905D02*
X124879819Y32776667D01*
X124879819Y32776667D02*
X124879819Y32586191D01*
X124879819Y33490953D02*
X124879819Y33681429D01*
X124879819Y33681429D02*
X124832200Y33776667D01*
X124832200Y33776667D02*
X124784580Y33824286D01*
X124784580Y33824286D02*
X124641723Y33919524D01*
X124641723Y33919524D02*
X124451247Y33967143D01*
X124451247Y33967143D02*
X124070295Y33967143D01*
X124070295Y33967143D02*
X123975057Y33919524D01*
X123975057Y33919524D02*
X123927438Y33871905D01*
X123927438Y33871905D02*
X123879819Y33776667D01*
X123879819Y33776667D02*
X123879819Y33586191D01*
X123879819Y33586191D02*
X123927438Y33490953D01*
X123927438Y33490953D02*
X123975057Y33443334D01*
X123975057Y33443334D02*
X124070295Y33395715D01*
X124070295Y33395715D02*
X124308390Y33395715D01*
X124308390Y33395715D02*
X124403628Y33443334D01*
X124403628Y33443334D02*
X124451247Y33490953D01*
X124451247Y33490953D02*
X124498866Y33586191D01*
X124498866Y33586191D02*
X124498866Y33776667D01*
X124498866Y33776667D02*
X124451247Y33871905D01*
X124451247Y33871905D02*
X124403628Y33919524D01*
X124403628Y33919524D02*
X124308390Y33967143D01*
X123879819Y34586191D02*
X123879819Y34681429D01*
X123879819Y34681429D02*
X123927438Y34776667D01*
X123927438Y34776667D02*
X123975057Y34824286D01*
X123975057Y34824286D02*
X124070295Y34871905D01*
X124070295Y34871905D02*
X124260771Y34919524D01*
X124260771Y34919524D02*
X124498866Y34919524D01*
X124498866Y34919524D02*
X124689342Y34871905D01*
X124689342Y34871905D02*
X124784580Y34824286D01*
X124784580Y34824286D02*
X124832200Y34776667D01*
X124832200Y34776667D02*
X124879819Y34681429D01*
X124879819Y34681429D02*
X124879819Y34586191D01*
X124879819Y34586191D02*
X124832200Y34490953D01*
X124832200Y34490953D02*
X124784580Y34443334D01*
X124784580Y34443334D02*
X124689342Y34395715D01*
X124689342Y34395715D02*
X124498866Y34348096D01*
X124498866Y34348096D02*
X124260771Y34348096D01*
X124260771Y34348096D02*
X124070295Y34395715D01*
X124070295Y34395715D02*
X123975057Y34443334D01*
X123975057Y34443334D02*
X123927438Y34490953D01*
X123927438Y34490953D02*
X123879819Y34586191D01*
X123879819Y35252858D02*
X123879819Y35919524D01*
X123879819Y35919524D02*
X124879819Y35490953D01*
X102272557Y33212381D02*
X102224938Y33117143D01*
X102224938Y33117143D02*
X102129700Y33021905D01*
X102129700Y33021905D02*
X101986842Y32879048D01*
X101986842Y32879048D02*
X101939223Y32783810D01*
X101939223Y32783810D02*
X101939223Y32688572D01*
X102177319Y32736191D02*
X102129700Y32640953D01*
X102129700Y32640953D02*
X102034461Y32545715D01*
X102034461Y32545715D02*
X101843985Y32498096D01*
X101843985Y32498096D02*
X101510652Y32498096D01*
X101510652Y32498096D02*
X101320176Y32545715D01*
X101320176Y32545715D02*
X101224938Y32640953D01*
X101224938Y32640953D02*
X101177319Y32736191D01*
X101177319Y32736191D02*
X101177319Y32926667D01*
X101177319Y32926667D02*
X101224938Y33021905D01*
X101224938Y33021905D02*
X101320176Y33117143D01*
X101320176Y33117143D02*
X101510652Y33164762D01*
X101510652Y33164762D02*
X101843985Y33164762D01*
X101843985Y33164762D02*
X102034461Y33117143D01*
X102034461Y33117143D02*
X102129700Y33021905D01*
X102129700Y33021905D02*
X102177319Y32926667D01*
X102177319Y32926667D02*
X102177319Y32736191D01*
X102177319Y33640953D02*
X102177319Y33831429D01*
X102177319Y33831429D02*
X102129700Y33926667D01*
X102129700Y33926667D02*
X102082080Y33974286D01*
X102082080Y33974286D02*
X101939223Y34069524D01*
X101939223Y34069524D02*
X101748747Y34117143D01*
X101748747Y34117143D02*
X101367795Y34117143D01*
X101367795Y34117143D02*
X101272557Y34069524D01*
X101272557Y34069524D02*
X101224938Y34021905D01*
X101224938Y34021905D02*
X101177319Y33926667D01*
X101177319Y33926667D02*
X101177319Y33736191D01*
X101177319Y33736191D02*
X101224938Y33640953D01*
X101224938Y33640953D02*
X101272557Y33593334D01*
X101272557Y33593334D02*
X101367795Y33545715D01*
X101367795Y33545715D02*
X101605890Y33545715D01*
X101605890Y33545715D02*
X101701128Y33593334D01*
X101701128Y33593334D02*
X101748747Y33640953D01*
X101748747Y33640953D02*
X101796366Y33736191D01*
X101796366Y33736191D02*
X101796366Y33926667D01*
X101796366Y33926667D02*
X101748747Y34021905D01*
X101748747Y34021905D02*
X101701128Y34069524D01*
X101701128Y34069524D02*
X101605890Y34117143D01*
X101177319Y34736191D02*
X101177319Y34831429D01*
X101177319Y34831429D02*
X101224938Y34926667D01*
X101224938Y34926667D02*
X101272557Y34974286D01*
X101272557Y34974286D02*
X101367795Y35021905D01*
X101367795Y35021905D02*
X101558271Y35069524D01*
X101558271Y35069524D02*
X101796366Y35069524D01*
X101796366Y35069524D02*
X101986842Y35021905D01*
X101986842Y35021905D02*
X102082080Y34974286D01*
X102082080Y34974286D02*
X102129700Y34926667D01*
X102129700Y34926667D02*
X102177319Y34831429D01*
X102177319Y34831429D02*
X102177319Y34736191D01*
X102177319Y34736191D02*
X102129700Y34640953D01*
X102129700Y34640953D02*
X102082080Y34593334D01*
X102082080Y34593334D02*
X101986842Y34545715D01*
X101986842Y34545715D02*
X101796366Y34498096D01*
X101796366Y34498096D02*
X101558271Y34498096D01*
X101558271Y34498096D02*
X101367795Y34545715D01*
X101367795Y34545715D02*
X101272557Y34593334D01*
X101272557Y34593334D02*
X101224938Y34640953D01*
X101224938Y34640953D02*
X101177319Y34736191D01*
X101177319Y35688572D02*
X101177319Y35783810D01*
X101177319Y35783810D02*
X101224938Y35879048D01*
X101224938Y35879048D02*
X101272557Y35926667D01*
X101272557Y35926667D02*
X101367795Y35974286D01*
X101367795Y35974286D02*
X101558271Y36021905D01*
X101558271Y36021905D02*
X101796366Y36021905D01*
X101796366Y36021905D02*
X101986842Y35974286D01*
X101986842Y35974286D02*
X102082080Y35926667D01*
X102082080Y35926667D02*
X102129700Y35879048D01*
X102129700Y35879048D02*
X102177319Y35783810D01*
X102177319Y35783810D02*
X102177319Y35688572D01*
X102177319Y35688572D02*
X102129700Y35593334D01*
X102129700Y35593334D02*
X102082080Y35545715D01*
X102082080Y35545715D02*
X101986842Y35498096D01*
X101986842Y35498096D02*
X101796366Y35450477D01*
X101796366Y35450477D02*
X101558271Y35450477D01*
X101558271Y35450477D02*
X101367795Y35498096D01*
X101367795Y35498096D02*
X101272557Y35545715D01*
X101272557Y35545715D02*
X101224938Y35593334D01*
X101224938Y35593334D02*
X101177319Y35688572D01*
D14*
X117195911Y105002287D02*
X116833054Y104748287D01*
X117195911Y104566858D02*
X116433911Y104566858D01*
X116433911Y104566858D02*
X116433911Y104857144D01*
X116433911Y104857144D02*
X116470197Y104929715D01*
X116470197Y104929715D02*
X116506483Y104966001D01*
X116506483Y104966001D02*
X116579054Y105002287D01*
X116579054Y105002287D02*
X116687911Y105002287D01*
X116687911Y105002287D02*
X116760483Y104966001D01*
X116760483Y104966001D02*
X116796768Y104929715D01*
X116796768Y104929715D02*
X116833054Y104857144D01*
X116833054Y104857144D02*
X116833054Y104566858D01*
X116760483Y105437715D02*
X116724197Y105365144D01*
X116724197Y105365144D02*
X116687911Y105328858D01*
X116687911Y105328858D02*
X116615340Y105292572D01*
X116615340Y105292572D02*
X116579054Y105292572D01*
X116579054Y105292572D02*
X116506483Y105328858D01*
X116506483Y105328858D02*
X116470197Y105365144D01*
X116470197Y105365144D02*
X116433911Y105437715D01*
X116433911Y105437715D02*
X116433911Y105582858D01*
X116433911Y105582858D02*
X116470197Y105655429D01*
X116470197Y105655429D02*
X116506483Y105691715D01*
X116506483Y105691715D02*
X116579054Y105728001D01*
X116579054Y105728001D02*
X116615340Y105728001D01*
X116615340Y105728001D02*
X116687911Y105691715D01*
X116687911Y105691715D02*
X116724197Y105655429D01*
X116724197Y105655429D02*
X116760483Y105582858D01*
X116760483Y105582858D02*
X116760483Y105437715D01*
X116760483Y105437715D02*
X116796768Y105365144D01*
X116796768Y105365144D02*
X116833054Y105328858D01*
X116833054Y105328858D02*
X116905626Y105292572D01*
X116905626Y105292572D02*
X117050768Y105292572D01*
X117050768Y105292572D02*
X117123340Y105328858D01*
X117123340Y105328858D02*
X117159626Y105365144D01*
X117159626Y105365144D02*
X117195911Y105437715D01*
X117195911Y105437715D02*
X117195911Y105582858D01*
X117195911Y105582858D02*
X117159626Y105655429D01*
X117159626Y105655429D02*
X117123340Y105691715D01*
X117123340Y105691715D02*
X117050768Y105728001D01*
X117050768Y105728001D02*
X116905626Y105728001D01*
X116905626Y105728001D02*
X116833054Y105691715D01*
X116833054Y105691715D02*
X116796768Y105655429D01*
X116796768Y105655429D02*
X116760483Y105582858D01*
X116687911Y106381143D02*
X117195911Y106381143D01*
X116397626Y106199715D02*
X116941911Y106018286D01*
X116941911Y106018286D02*
X116941911Y106490001D01*
X116433911Y107106857D02*
X116433911Y106961715D01*
X116433911Y106961715D02*
X116470197Y106889143D01*
X116470197Y106889143D02*
X116506483Y106852857D01*
X116506483Y106852857D02*
X116615340Y106780286D01*
X116615340Y106780286D02*
X116760483Y106744000D01*
X116760483Y106744000D02*
X117050768Y106744000D01*
X117050768Y106744000D02*
X117123340Y106780286D01*
X117123340Y106780286D02*
X117159626Y106816572D01*
X117159626Y106816572D02*
X117195911Y106889143D01*
X117195911Y106889143D02*
X117195911Y107034286D01*
X117195911Y107034286D02*
X117159626Y107106857D01*
X117159626Y107106857D02*
X117123340Y107143143D01*
X117123340Y107143143D02*
X117050768Y107179429D01*
X117050768Y107179429D02*
X116869340Y107179429D01*
X116869340Y107179429D02*
X116796768Y107143143D01*
X116796768Y107143143D02*
X116760483Y107106857D01*
X116760483Y107106857D02*
X116724197Y107034286D01*
X116724197Y107034286D02*
X116724197Y106889143D01*
X116724197Y106889143D02*
X116760483Y106816572D01*
X116760483Y106816572D02*
X116796768Y106780286D01*
X116796768Y106780286D02*
X116869340Y106744000D01*
D12*
X156607557Y48284881D02*
X156559938Y48189643D01*
X156559938Y48189643D02*
X156464700Y48094405D01*
X156464700Y48094405D02*
X156321842Y47951548D01*
X156321842Y47951548D02*
X156274223Y47856310D01*
X156274223Y47856310D02*
X156274223Y47761072D01*
X156512319Y47808691D02*
X156464700Y47713453D01*
X156464700Y47713453D02*
X156369461Y47618215D01*
X156369461Y47618215D02*
X156178985Y47570596D01*
X156178985Y47570596D02*
X155845652Y47570596D01*
X155845652Y47570596D02*
X155655176Y47618215D01*
X155655176Y47618215D02*
X155559938Y47713453D01*
X155559938Y47713453D02*
X155512319Y47808691D01*
X155512319Y47808691D02*
X155512319Y47999167D01*
X155512319Y47999167D02*
X155559938Y48094405D01*
X155559938Y48094405D02*
X155655176Y48189643D01*
X155655176Y48189643D02*
X155845652Y48237262D01*
X155845652Y48237262D02*
X156178985Y48237262D01*
X156178985Y48237262D02*
X156369461Y48189643D01*
X156369461Y48189643D02*
X156464700Y48094405D01*
X156464700Y48094405D02*
X156512319Y47999167D01*
X156512319Y47999167D02*
X156512319Y47808691D01*
X155940890Y48808691D02*
X155893271Y48713453D01*
X155893271Y48713453D02*
X155845652Y48665834D01*
X155845652Y48665834D02*
X155750414Y48618215D01*
X155750414Y48618215D02*
X155702795Y48618215D01*
X155702795Y48618215D02*
X155607557Y48665834D01*
X155607557Y48665834D02*
X155559938Y48713453D01*
X155559938Y48713453D02*
X155512319Y48808691D01*
X155512319Y48808691D02*
X155512319Y48999167D01*
X155512319Y48999167D02*
X155559938Y49094405D01*
X155559938Y49094405D02*
X155607557Y49142024D01*
X155607557Y49142024D02*
X155702795Y49189643D01*
X155702795Y49189643D02*
X155750414Y49189643D01*
X155750414Y49189643D02*
X155845652Y49142024D01*
X155845652Y49142024D02*
X155893271Y49094405D01*
X155893271Y49094405D02*
X155940890Y48999167D01*
X155940890Y48999167D02*
X155940890Y48808691D01*
X155940890Y48808691D02*
X155988509Y48713453D01*
X155988509Y48713453D02*
X156036128Y48665834D01*
X156036128Y48665834D02*
X156131366Y48618215D01*
X156131366Y48618215D02*
X156321842Y48618215D01*
X156321842Y48618215D02*
X156417080Y48665834D01*
X156417080Y48665834D02*
X156464700Y48713453D01*
X156464700Y48713453D02*
X156512319Y48808691D01*
X156512319Y48808691D02*
X156512319Y48999167D01*
X156512319Y48999167D02*
X156464700Y49094405D01*
X156464700Y49094405D02*
X156417080Y49142024D01*
X156417080Y49142024D02*
X156321842Y49189643D01*
X156321842Y49189643D02*
X156131366Y49189643D01*
X156131366Y49189643D02*
X156036128Y49142024D01*
X156036128Y49142024D02*
X155988509Y49094405D01*
X155988509Y49094405D02*
X155940890Y48999167D01*
X155845652Y50046786D02*
X156512319Y50046786D01*
X155464700Y49808691D02*
X156178985Y49570596D01*
X156178985Y49570596D02*
X156178985Y50189643D01*
X155512319Y50475358D02*
X155512319Y51094405D01*
X155512319Y51094405D02*
X155893271Y50761072D01*
X155893271Y50761072D02*
X155893271Y50903929D01*
X155893271Y50903929D02*
X155940890Y50999167D01*
X155940890Y50999167D02*
X155988509Y51046786D01*
X155988509Y51046786D02*
X156083747Y51094405D01*
X156083747Y51094405D02*
X156321842Y51094405D01*
X156321842Y51094405D02*
X156417080Y51046786D01*
X156417080Y51046786D02*
X156464700Y50999167D01*
X156464700Y50999167D02*
X156512319Y50903929D01*
X156512319Y50903929D02*
X156512319Y50618215D01*
X156512319Y50618215D02*
X156464700Y50522977D01*
X156464700Y50522977D02*
X156417080Y50475358D01*
X134875057Y31234881D02*
X134827438Y31139643D01*
X134827438Y31139643D02*
X134732200Y31044405D01*
X134732200Y31044405D02*
X134589342Y30901548D01*
X134589342Y30901548D02*
X134541723Y30806310D01*
X134541723Y30806310D02*
X134541723Y30711072D01*
X134779819Y30758691D02*
X134732200Y30663453D01*
X134732200Y30663453D02*
X134636961Y30568215D01*
X134636961Y30568215D02*
X134446485Y30520596D01*
X134446485Y30520596D02*
X134113152Y30520596D01*
X134113152Y30520596D02*
X133922676Y30568215D01*
X133922676Y30568215D02*
X133827438Y30663453D01*
X133827438Y30663453D02*
X133779819Y30758691D01*
X133779819Y30758691D02*
X133779819Y30949167D01*
X133779819Y30949167D02*
X133827438Y31044405D01*
X133827438Y31044405D02*
X133922676Y31139643D01*
X133922676Y31139643D02*
X134113152Y31187262D01*
X134113152Y31187262D02*
X134446485Y31187262D01*
X134446485Y31187262D02*
X134636961Y31139643D01*
X134636961Y31139643D02*
X134732200Y31044405D01*
X134732200Y31044405D02*
X134779819Y30949167D01*
X134779819Y30949167D02*
X134779819Y30758691D01*
X134208390Y31758691D02*
X134160771Y31663453D01*
X134160771Y31663453D02*
X134113152Y31615834D01*
X134113152Y31615834D02*
X134017914Y31568215D01*
X134017914Y31568215D02*
X133970295Y31568215D01*
X133970295Y31568215D02*
X133875057Y31615834D01*
X133875057Y31615834D02*
X133827438Y31663453D01*
X133827438Y31663453D02*
X133779819Y31758691D01*
X133779819Y31758691D02*
X133779819Y31949167D01*
X133779819Y31949167D02*
X133827438Y32044405D01*
X133827438Y32044405D02*
X133875057Y32092024D01*
X133875057Y32092024D02*
X133970295Y32139643D01*
X133970295Y32139643D02*
X134017914Y32139643D01*
X134017914Y32139643D02*
X134113152Y32092024D01*
X134113152Y32092024D02*
X134160771Y32044405D01*
X134160771Y32044405D02*
X134208390Y31949167D01*
X134208390Y31949167D02*
X134208390Y31758691D01*
X134208390Y31758691D02*
X134256009Y31663453D01*
X134256009Y31663453D02*
X134303628Y31615834D01*
X134303628Y31615834D02*
X134398866Y31568215D01*
X134398866Y31568215D02*
X134589342Y31568215D01*
X134589342Y31568215D02*
X134684580Y31615834D01*
X134684580Y31615834D02*
X134732200Y31663453D01*
X134732200Y31663453D02*
X134779819Y31758691D01*
X134779819Y31758691D02*
X134779819Y31949167D01*
X134779819Y31949167D02*
X134732200Y32044405D01*
X134732200Y32044405D02*
X134684580Y32092024D01*
X134684580Y32092024D02*
X134589342Y32139643D01*
X134589342Y32139643D02*
X134398866Y32139643D01*
X134398866Y32139643D02*
X134303628Y32092024D01*
X134303628Y32092024D02*
X134256009Y32044405D01*
X134256009Y32044405D02*
X134208390Y31949167D01*
X134113152Y32996786D02*
X134779819Y32996786D01*
X133732200Y32758691D02*
X134446485Y32520596D01*
X134446485Y32520596D02*
X134446485Y33139643D01*
X133779819Y33949167D02*
X133779819Y33758691D01*
X133779819Y33758691D02*
X133827438Y33663453D01*
X133827438Y33663453D02*
X133875057Y33615834D01*
X133875057Y33615834D02*
X134017914Y33520596D01*
X134017914Y33520596D02*
X134208390Y33472977D01*
X134208390Y33472977D02*
X134589342Y33472977D01*
X134589342Y33472977D02*
X134684580Y33520596D01*
X134684580Y33520596D02*
X134732200Y33568215D01*
X134732200Y33568215D02*
X134779819Y33663453D01*
X134779819Y33663453D02*
X134779819Y33853929D01*
X134779819Y33853929D02*
X134732200Y33949167D01*
X134732200Y33949167D02*
X134684580Y33996786D01*
X134684580Y33996786D02*
X134589342Y34044405D01*
X134589342Y34044405D02*
X134351247Y34044405D01*
X134351247Y34044405D02*
X134256009Y33996786D01*
X134256009Y33996786D02*
X134208390Y33949167D01*
X134208390Y33949167D02*
X134160771Y33853929D01*
X134160771Y33853929D02*
X134160771Y33663453D01*
X134160771Y33663453D02*
X134208390Y33568215D01*
X134208390Y33568215D02*
X134256009Y33520596D01*
X134256009Y33520596D02*
X134351247Y33472977D01*
D15*
X69495651Y66354192D02*
X69222318Y66744668D01*
X69027080Y66354192D02*
X69027080Y67174192D01*
X69027080Y67174192D02*
X69339461Y67174192D01*
X69339461Y67174192D02*
X69417556Y67135144D01*
X69417556Y67135144D02*
X69456603Y67096097D01*
X69456603Y67096097D02*
X69495651Y67018001D01*
X69495651Y67018001D02*
X69495651Y66900859D01*
X69495651Y66900859D02*
X69456603Y66822763D01*
X69456603Y66822763D02*
X69417556Y66783716D01*
X69417556Y66783716D02*
X69339461Y66744668D01*
X69339461Y66744668D02*
X69027080Y66744668D01*
X69964222Y66822763D02*
X69886127Y66861811D01*
X69886127Y66861811D02*
X69847080Y66900859D01*
X69847080Y66900859D02*
X69808032Y66978954D01*
X69808032Y66978954D02*
X69808032Y67018001D01*
X69808032Y67018001D02*
X69847080Y67096097D01*
X69847080Y67096097D02*
X69886127Y67135144D01*
X69886127Y67135144D02*
X69964222Y67174192D01*
X69964222Y67174192D02*
X70120413Y67174192D01*
X70120413Y67174192D02*
X70198508Y67135144D01*
X70198508Y67135144D02*
X70237556Y67096097D01*
X70237556Y67096097D02*
X70276603Y67018001D01*
X70276603Y67018001D02*
X70276603Y66978954D01*
X70276603Y66978954D02*
X70237556Y66900859D01*
X70237556Y66900859D02*
X70198508Y66861811D01*
X70198508Y66861811D02*
X70120413Y66822763D01*
X70120413Y66822763D02*
X69964222Y66822763D01*
X69964222Y66822763D02*
X69886127Y66783716D01*
X69886127Y66783716D02*
X69847080Y66744668D01*
X69847080Y66744668D02*
X69808032Y66666573D01*
X69808032Y66666573D02*
X69808032Y66510382D01*
X69808032Y66510382D02*
X69847080Y66432287D01*
X69847080Y66432287D02*
X69886127Y66393239D01*
X69886127Y66393239D02*
X69964222Y66354192D01*
X69964222Y66354192D02*
X70120413Y66354192D01*
X70120413Y66354192D02*
X70198508Y66393239D01*
X70198508Y66393239D02*
X70237556Y66432287D01*
X70237556Y66432287D02*
X70276603Y66510382D01*
X70276603Y66510382D02*
X70276603Y66666573D01*
X70276603Y66666573D02*
X70237556Y66744668D01*
X70237556Y66744668D02*
X70198508Y66783716D01*
X70198508Y66783716D02*
X70120413Y66822763D01*
X70979460Y66900859D02*
X70979460Y66354192D01*
X70784222Y67213239D02*
X70588984Y66627525D01*
X70588984Y66627525D02*
X71096603Y66627525D01*
X71369936Y67096097D02*
X71408984Y67135144D01*
X71408984Y67135144D02*
X71487079Y67174192D01*
X71487079Y67174192D02*
X71682317Y67174192D01*
X71682317Y67174192D02*
X71760412Y67135144D01*
X71760412Y67135144D02*
X71799460Y67096097D01*
X71799460Y67096097D02*
X71838507Y67018001D01*
X71838507Y67018001D02*
X71838507Y66939906D01*
X71838507Y66939906D02*
X71799460Y66822763D01*
X71799460Y66822763D02*
X71330888Y66354192D01*
X71330888Y66354192D02*
X71838507Y66354192D01*
D14*
X142836000Y92810557D02*
X142582000Y92810557D01*
X142582000Y92391509D02*
X142582000Y93191509D01*
X142582000Y93191509D02*
X142944857Y93191509D01*
X143634286Y92391509D02*
X143198857Y92391509D01*
X143416572Y92391509D02*
X143416572Y93191509D01*
X143416572Y93191509D02*
X143344000Y93077224D01*
X143344000Y93077224D02*
X143271429Y93001033D01*
X143271429Y93001033D02*
X143198857Y92962938D01*
D15*
X68660651Y63484192D02*
X68387318Y63874668D01*
X68192080Y63484192D02*
X68192080Y64304192D01*
X68192080Y64304192D02*
X68504461Y64304192D01*
X68504461Y64304192D02*
X68582556Y64265144D01*
X68582556Y64265144D02*
X68621603Y64226097D01*
X68621603Y64226097D02*
X68660651Y64148001D01*
X68660651Y64148001D02*
X68660651Y64030859D01*
X68660651Y64030859D02*
X68621603Y63952763D01*
X68621603Y63952763D02*
X68582556Y63913716D01*
X68582556Y63913716D02*
X68504461Y63874668D01*
X68504461Y63874668D02*
X68192080Y63874668D01*
X69129222Y63952763D02*
X69051127Y63991811D01*
X69051127Y63991811D02*
X69012080Y64030859D01*
X69012080Y64030859D02*
X68973032Y64108954D01*
X68973032Y64108954D02*
X68973032Y64148001D01*
X68973032Y64148001D02*
X69012080Y64226097D01*
X69012080Y64226097D02*
X69051127Y64265144D01*
X69051127Y64265144D02*
X69129222Y64304192D01*
X69129222Y64304192D02*
X69285413Y64304192D01*
X69285413Y64304192D02*
X69363508Y64265144D01*
X69363508Y64265144D02*
X69402556Y64226097D01*
X69402556Y64226097D02*
X69441603Y64148001D01*
X69441603Y64148001D02*
X69441603Y64108954D01*
X69441603Y64108954D02*
X69402556Y64030859D01*
X69402556Y64030859D02*
X69363508Y63991811D01*
X69363508Y63991811D02*
X69285413Y63952763D01*
X69285413Y63952763D02*
X69129222Y63952763D01*
X69129222Y63952763D02*
X69051127Y63913716D01*
X69051127Y63913716D02*
X69012080Y63874668D01*
X69012080Y63874668D02*
X68973032Y63796573D01*
X68973032Y63796573D02*
X68973032Y63640382D01*
X68973032Y63640382D02*
X69012080Y63562287D01*
X69012080Y63562287D02*
X69051127Y63523239D01*
X69051127Y63523239D02*
X69129222Y63484192D01*
X69129222Y63484192D02*
X69285413Y63484192D01*
X69285413Y63484192D02*
X69363508Y63523239D01*
X69363508Y63523239D02*
X69402556Y63562287D01*
X69402556Y63562287D02*
X69441603Y63640382D01*
X69441603Y63640382D02*
X69441603Y63796573D01*
X69441603Y63796573D02*
X69402556Y63874668D01*
X69402556Y63874668D02*
X69363508Y63913716D01*
X69363508Y63913716D02*
X69285413Y63952763D01*
X70144460Y64030859D02*
X70144460Y63484192D01*
X69949222Y64343239D02*
X69753984Y63757525D01*
X69753984Y63757525D02*
X70261603Y63757525D01*
X71003507Y63484192D02*
X70534936Y63484192D01*
X70769222Y63484192D02*
X70769222Y64304192D01*
X70769222Y64304192D02*
X70691126Y64187049D01*
X70691126Y64187049D02*
X70613031Y64108954D01*
X70613031Y64108954D02*
X70534936Y64069906D01*
D12*
X26299057Y32914762D02*
X26251438Y32819524D01*
X26251438Y32819524D02*
X26156200Y32724286D01*
X26156200Y32724286D02*
X26013342Y32581429D01*
X26013342Y32581429D02*
X25965723Y32486191D01*
X25965723Y32486191D02*
X25965723Y32390953D01*
X26203819Y32438572D02*
X26156200Y32343334D01*
X26156200Y32343334D02*
X26060961Y32248096D01*
X26060961Y32248096D02*
X25870485Y32200477D01*
X25870485Y32200477D02*
X25537152Y32200477D01*
X25537152Y32200477D02*
X25346676Y32248096D01*
X25346676Y32248096D02*
X25251438Y32343334D01*
X25251438Y32343334D02*
X25203819Y32438572D01*
X25203819Y32438572D02*
X25203819Y32629048D01*
X25203819Y32629048D02*
X25251438Y32724286D01*
X25251438Y32724286D02*
X25346676Y32819524D01*
X25346676Y32819524D02*
X25537152Y32867143D01*
X25537152Y32867143D02*
X25870485Y32867143D01*
X25870485Y32867143D02*
X26060961Y32819524D01*
X26060961Y32819524D02*
X26156200Y32724286D01*
X26156200Y32724286D02*
X26203819Y32629048D01*
X26203819Y32629048D02*
X26203819Y32438572D01*
X25203819Y33200477D02*
X25203819Y33819524D01*
X25203819Y33819524D02*
X25584771Y33486191D01*
X25584771Y33486191D02*
X25584771Y33629048D01*
X25584771Y33629048D02*
X25632390Y33724286D01*
X25632390Y33724286D02*
X25680009Y33771905D01*
X25680009Y33771905D02*
X25775247Y33819524D01*
X25775247Y33819524D02*
X26013342Y33819524D01*
X26013342Y33819524D02*
X26108580Y33771905D01*
X26108580Y33771905D02*
X26156200Y33724286D01*
X26156200Y33724286D02*
X26203819Y33629048D01*
X26203819Y33629048D02*
X26203819Y33343334D01*
X26203819Y33343334D02*
X26156200Y33248096D01*
X26156200Y33248096D02*
X26108580Y33200477D01*
X125505057Y75822381D02*
X125457438Y75727143D01*
X125457438Y75727143D02*
X125362200Y75631905D01*
X125362200Y75631905D02*
X125219342Y75489048D01*
X125219342Y75489048D02*
X125171723Y75393810D01*
X125171723Y75393810D02*
X125171723Y75298572D01*
X125409819Y75346191D02*
X125362200Y75250953D01*
X125362200Y75250953D02*
X125266961Y75155715D01*
X125266961Y75155715D02*
X125076485Y75108096D01*
X125076485Y75108096D02*
X124743152Y75108096D01*
X124743152Y75108096D02*
X124552676Y75155715D01*
X124552676Y75155715D02*
X124457438Y75250953D01*
X124457438Y75250953D02*
X124409819Y75346191D01*
X124409819Y75346191D02*
X124409819Y75536667D01*
X124409819Y75536667D02*
X124457438Y75631905D01*
X124457438Y75631905D02*
X124552676Y75727143D01*
X124552676Y75727143D02*
X124743152Y75774762D01*
X124743152Y75774762D02*
X125076485Y75774762D01*
X125076485Y75774762D02*
X125266961Y75727143D01*
X125266961Y75727143D02*
X125362200Y75631905D01*
X125362200Y75631905D02*
X125409819Y75536667D01*
X125409819Y75536667D02*
X125409819Y75346191D01*
X125409819Y76250953D02*
X125409819Y76441429D01*
X125409819Y76441429D02*
X125362200Y76536667D01*
X125362200Y76536667D02*
X125314580Y76584286D01*
X125314580Y76584286D02*
X125171723Y76679524D01*
X125171723Y76679524D02*
X124981247Y76727143D01*
X124981247Y76727143D02*
X124600295Y76727143D01*
X124600295Y76727143D02*
X124505057Y76679524D01*
X124505057Y76679524D02*
X124457438Y76631905D01*
X124457438Y76631905D02*
X124409819Y76536667D01*
X124409819Y76536667D02*
X124409819Y76346191D01*
X124409819Y76346191D02*
X124457438Y76250953D01*
X124457438Y76250953D02*
X124505057Y76203334D01*
X124505057Y76203334D02*
X124600295Y76155715D01*
X124600295Y76155715D02*
X124838390Y76155715D01*
X124838390Y76155715D02*
X124933628Y76203334D01*
X124933628Y76203334D02*
X124981247Y76250953D01*
X124981247Y76250953D02*
X125028866Y76346191D01*
X125028866Y76346191D02*
X125028866Y76536667D01*
X125028866Y76536667D02*
X124981247Y76631905D01*
X124981247Y76631905D02*
X124933628Y76679524D01*
X124933628Y76679524D02*
X124838390Y76727143D01*
X124409819Y77346191D02*
X124409819Y77441429D01*
X124409819Y77441429D02*
X124457438Y77536667D01*
X124457438Y77536667D02*
X124505057Y77584286D01*
X124505057Y77584286D02*
X124600295Y77631905D01*
X124600295Y77631905D02*
X124790771Y77679524D01*
X124790771Y77679524D02*
X125028866Y77679524D01*
X125028866Y77679524D02*
X125219342Y77631905D01*
X125219342Y77631905D02*
X125314580Y77584286D01*
X125314580Y77584286D02*
X125362200Y77536667D01*
X125362200Y77536667D02*
X125409819Y77441429D01*
X125409819Y77441429D02*
X125409819Y77346191D01*
X125409819Y77346191D02*
X125362200Y77250953D01*
X125362200Y77250953D02*
X125314580Y77203334D01*
X125314580Y77203334D02*
X125219342Y77155715D01*
X125219342Y77155715D02*
X125028866Y77108096D01*
X125028866Y77108096D02*
X124790771Y77108096D01*
X124790771Y77108096D02*
X124600295Y77155715D01*
X124600295Y77155715D02*
X124505057Y77203334D01*
X124505057Y77203334D02*
X124457438Y77250953D01*
X124457438Y77250953D02*
X124409819Y77346191D01*
X124743152Y78536667D02*
X125409819Y78536667D01*
X124362200Y78298572D02*
X125076485Y78060477D01*
X125076485Y78060477D02*
X125076485Y78679524D01*
D15*
X52716152Y52016022D02*
X53106629Y52289356D01*
X52716152Y52484594D02*
X53536153Y52484594D01*
X53536153Y52484594D02*
X53536153Y52172213D01*
X53536153Y52172213D02*
X53497105Y52094117D01*
X53497105Y52094117D02*
X53458058Y52055070D01*
X53458058Y52055070D02*
X53379962Y52016022D01*
X53379962Y52016022D02*
X53262819Y52016022D01*
X53262819Y52016022D02*
X53184724Y52055070D01*
X53184724Y52055070D02*
X53145676Y52094117D01*
X53145676Y52094117D02*
X53106629Y52172213D01*
X53106629Y52172213D02*
X53106629Y52484594D01*
X52716152Y51625545D02*
X52716152Y51469355D01*
X52716152Y51469355D02*
X52755200Y51391259D01*
X52755200Y51391259D02*
X52794247Y51352212D01*
X52794247Y51352212D02*
X52911390Y51274116D01*
X52911390Y51274116D02*
X53067581Y51235069D01*
X53067581Y51235069D02*
X53379962Y51235069D01*
X53379962Y51235069D02*
X53458058Y51274116D01*
X53458058Y51274116D02*
X53497105Y51313164D01*
X53497105Y51313164D02*
X53536153Y51391259D01*
X53536153Y51391259D02*
X53536153Y51547450D01*
X53536153Y51547450D02*
X53497105Y51625545D01*
X53497105Y51625545D02*
X53458058Y51664593D01*
X53458058Y51664593D02*
X53379962Y51703641D01*
X53379962Y51703641D02*
X53184724Y51703641D01*
X53184724Y51703641D02*
X53106629Y51664593D01*
X53106629Y51664593D02*
X53067581Y51625545D01*
X53067581Y51625545D02*
X53028533Y51547450D01*
X53028533Y51547450D02*
X53028533Y51391259D01*
X53028533Y51391259D02*
X53067581Y51313164D01*
X53067581Y51313164D02*
X53106629Y51274116D01*
X53106629Y51274116D02*
X53184724Y51235069D01*
D12*
X18225819Y63946096D02*
X19035342Y63946096D01*
X19035342Y63946096D02*
X19130580Y63993715D01*
X19130580Y63993715D02*
X19178200Y64041334D01*
X19178200Y64041334D02*
X19225819Y64136572D01*
X19225819Y64136572D02*
X19225819Y64327048D01*
X19225819Y64327048D02*
X19178200Y64422286D01*
X19178200Y64422286D02*
X19130580Y64469905D01*
X19130580Y64469905D02*
X19035342Y64517524D01*
X19035342Y64517524D02*
X18225819Y64517524D01*
X19225819Y65517524D02*
X19225819Y64946096D01*
X19225819Y65231810D02*
X18225819Y65231810D01*
X18225819Y65231810D02*
X18368676Y65136572D01*
X18368676Y65136572D02*
X18463914Y65041334D01*
X18463914Y65041334D02*
X18511533Y64946096D01*
X101675057Y63732381D02*
X101627438Y63637143D01*
X101627438Y63637143D02*
X101532200Y63541905D01*
X101532200Y63541905D02*
X101389342Y63399048D01*
X101389342Y63399048D02*
X101341723Y63303810D01*
X101341723Y63303810D02*
X101341723Y63208572D01*
X101579819Y63256191D02*
X101532200Y63160953D01*
X101532200Y63160953D02*
X101436961Y63065715D01*
X101436961Y63065715D02*
X101246485Y63018096D01*
X101246485Y63018096D02*
X100913152Y63018096D01*
X100913152Y63018096D02*
X100722676Y63065715D01*
X100722676Y63065715D02*
X100627438Y63160953D01*
X100627438Y63160953D02*
X100579819Y63256191D01*
X100579819Y63256191D02*
X100579819Y63446667D01*
X100579819Y63446667D02*
X100627438Y63541905D01*
X100627438Y63541905D02*
X100722676Y63637143D01*
X100722676Y63637143D02*
X100913152Y63684762D01*
X100913152Y63684762D02*
X101246485Y63684762D01*
X101246485Y63684762D02*
X101436961Y63637143D01*
X101436961Y63637143D02*
X101532200Y63541905D01*
X101532200Y63541905D02*
X101579819Y63446667D01*
X101579819Y63446667D02*
X101579819Y63256191D01*
X101579819Y64160953D02*
X101579819Y64351429D01*
X101579819Y64351429D02*
X101532200Y64446667D01*
X101532200Y64446667D02*
X101484580Y64494286D01*
X101484580Y64494286D02*
X101341723Y64589524D01*
X101341723Y64589524D02*
X101151247Y64637143D01*
X101151247Y64637143D02*
X100770295Y64637143D01*
X100770295Y64637143D02*
X100675057Y64589524D01*
X100675057Y64589524D02*
X100627438Y64541905D01*
X100627438Y64541905D02*
X100579819Y64446667D01*
X100579819Y64446667D02*
X100579819Y64256191D01*
X100579819Y64256191D02*
X100627438Y64160953D01*
X100627438Y64160953D02*
X100675057Y64113334D01*
X100675057Y64113334D02*
X100770295Y64065715D01*
X100770295Y64065715D02*
X101008390Y64065715D01*
X101008390Y64065715D02*
X101103628Y64113334D01*
X101103628Y64113334D02*
X101151247Y64160953D01*
X101151247Y64160953D02*
X101198866Y64256191D01*
X101198866Y64256191D02*
X101198866Y64446667D01*
X101198866Y64446667D02*
X101151247Y64541905D01*
X101151247Y64541905D02*
X101103628Y64589524D01*
X101103628Y64589524D02*
X101008390Y64637143D01*
X100579819Y65256191D02*
X100579819Y65351429D01*
X100579819Y65351429D02*
X100627438Y65446667D01*
X100627438Y65446667D02*
X100675057Y65494286D01*
X100675057Y65494286D02*
X100770295Y65541905D01*
X100770295Y65541905D02*
X100960771Y65589524D01*
X100960771Y65589524D02*
X101198866Y65589524D01*
X101198866Y65589524D02*
X101389342Y65541905D01*
X101389342Y65541905D02*
X101484580Y65494286D01*
X101484580Y65494286D02*
X101532200Y65446667D01*
X101532200Y65446667D02*
X101579819Y65351429D01*
X101579819Y65351429D02*
X101579819Y65256191D01*
X101579819Y65256191D02*
X101532200Y65160953D01*
X101532200Y65160953D02*
X101484580Y65113334D01*
X101484580Y65113334D02*
X101389342Y65065715D01*
X101389342Y65065715D02*
X101198866Y65018096D01*
X101198866Y65018096D02*
X100960771Y65018096D01*
X100960771Y65018096D02*
X100770295Y65065715D01*
X100770295Y65065715D02*
X100675057Y65113334D01*
X100675057Y65113334D02*
X100627438Y65160953D01*
X100627438Y65160953D02*
X100579819Y65256191D01*
X100675057Y65970477D02*
X100627438Y66018096D01*
X100627438Y66018096D02*
X100579819Y66113334D01*
X100579819Y66113334D02*
X100579819Y66351429D01*
X100579819Y66351429D02*
X100627438Y66446667D01*
X100627438Y66446667D02*
X100675057Y66494286D01*
X100675057Y66494286D02*
X100770295Y66541905D01*
X100770295Y66541905D02*
X100865533Y66541905D01*
X100865533Y66541905D02*
X101008390Y66494286D01*
X101008390Y66494286D02*
X101579819Y65922858D01*
X101579819Y65922858D02*
X101579819Y66541905D01*
D15*
X11535651Y73144192D02*
X11262318Y73534668D01*
X11067080Y73144192D02*
X11067080Y73964192D01*
X11067080Y73964192D02*
X11379461Y73964192D01*
X11379461Y73964192D02*
X11457556Y73925144D01*
X11457556Y73925144D02*
X11496603Y73886097D01*
X11496603Y73886097D02*
X11535651Y73808001D01*
X11535651Y73808001D02*
X11535651Y73690859D01*
X11535651Y73690859D02*
X11496603Y73612763D01*
X11496603Y73612763D02*
X11457556Y73573716D01*
X11457556Y73573716D02*
X11379461Y73534668D01*
X11379461Y73534668D02*
X11067080Y73534668D01*
X11808984Y73964192D02*
X12316603Y73964192D01*
X12316603Y73964192D02*
X12043270Y73651811D01*
X12043270Y73651811D02*
X12160413Y73651811D01*
X12160413Y73651811D02*
X12238508Y73612763D01*
X12238508Y73612763D02*
X12277556Y73573716D01*
X12277556Y73573716D02*
X12316603Y73495620D01*
X12316603Y73495620D02*
X12316603Y73300382D01*
X12316603Y73300382D02*
X12277556Y73222287D01*
X12277556Y73222287D02*
X12238508Y73183239D01*
X12238508Y73183239D02*
X12160413Y73144192D01*
X12160413Y73144192D02*
X11926127Y73144192D01*
X11926127Y73144192D02*
X11848032Y73183239D01*
X11848032Y73183239D02*
X11808984Y73222287D01*
D12*
X156165057Y73732381D02*
X156117438Y73637143D01*
X156117438Y73637143D02*
X156022200Y73541905D01*
X156022200Y73541905D02*
X155879342Y73399048D01*
X155879342Y73399048D02*
X155831723Y73303810D01*
X155831723Y73303810D02*
X155831723Y73208572D01*
X156069819Y73256191D02*
X156022200Y73160953D01*
X156022200Y73160953D02*
X155926961Y73065715D01*
X155926961Y73065715D02*
X155736485Y73018096D01*
X155736485Y73018096D02*
X155403152Y73018096D01*
X155403152Y73018096D02*
X155212676Y73065715D01*
X155212676Y73065715D02*
X155117438Y73160953D01*
X155117438Y73160953D02*
X155069819Y73256191D01*
X155069819Y73256191D02*
X155069819Y73446667D01*
X155069819Y73446667D02*
X155117438Y73541905D01*
X155117438Y73541905D02*
X155212676Y73637143D01*
X155212676Y73637143D02*
X155403152Y73684762D01*
X155403152Y73684762D02*
X155736485Y73684762D01*
X155736485Y73684762D02*
X155926961Y73637143D01*
X155926961Y73637143D02*
X156022200Y73541905D01*
X156022200Y73541905D02*
X156069819Y73446667D01*
X156069819Y73446667D02*
X156069819Y73256191D01*
X155498390Y74256191D02*
X155450771Y74160953D01*
X155450771Y74160953D02*
X155403152Y74113334D01*
X155403152Y74113334D02*
X155307914Y74065715D01*
X155307914Y74065715D02*
X155260295Y74065715D01*
X155260295Y74065715D02*
X155165057Y74113334D01*
X155165057Y74113334D02*
X155117438Y74160953D01*
X155117438Y74160953D02*
X155069819Y74256191D01*
X155069819Y74256191D02*
X155069819Y74446667D01*
X155069819Y74446667D02*
X155117438Y74541905D01*
X155117438Y74541905D02*
X155165057Y74589524D01*
X155165057Y74589524D02*
X155260295Y74637143D01*
X155260295Y74637143D02*
X155307914Y74637143D01*
X155307914Y74637143D02*
X155403152Y74589524D01*
X155403152Y74589524D02*
X155450771Y74541905D01*
X155450771Y74541905D02*
X155498390Y74446667D01*
X155498390Y74446667D02*
X155498390Y74256191D01*
X155498390Y74256191D02*
X155546009Y74160953D01*
X155546009Y74160953D02*
X155593628Y74113334D01*
X155593628Y74113334D02*
X155688866Y74065715D01*
X155688866Y74065715D02*
X155879342Y74065715D01*
X155879342Y74065715D02*
X155974580Y74113334D01*
X155974580Y74113334D02*
X156022200Y74160953D01*
X156022200Y74160953D02*
X156069819Y74256191D01*
X156069819Y74256191D02*
X156069819Y74446667D01*
X156069819Y74446667D02*
X156022200Y74541905D01*
X156022200Y74541905D02*
X155974580Y74589524D01*
X155974580Y74589524D02*
X155879342Y74637143D01*
X155879342Y74637143D02*
X155688866Y74637143D01*
X155688866Y74637143D02*
X155593628Y74589524D01*
X155593628Y74589524D02*
X155546009Y74541905D01*
X155546009Y74541905D02*
X155498390Y74446667D01*
X155403152Y75494286D02*
X156069819Y75494286D01*
X155022200Y75256191D02*
X155736485Y75018096D01*
X155736485Y75018096D02*
X155736485Y75637143D01*
X156069819Y76065715D02*
X156069819Y76256191D01*
X156069819Y76256191D02*
X156022200Y76351429D01*
X156022200Y76351429D02*
X155974580Y76399048D01*
X155974580Y76399048D02*
X155831723Y76494286D01*
X155831723Y76494286D02*
X155641247Y76541905D01*
X155641247Y76541905D02*
X155260295Y76541905D01*
X155260295Y76541905D02*
X155165057Y76494286D01*
X155165057Y76494286D02*
X155117438Y76446667D01*
X155117438Y76446667D02*
X155069819Y76351429D01*
X155069819Y76351429D02*
X155069819Y76160953D01*
X155069819Y76160953D02*
X155117438Y76065715D01*
X155117438Y76065715D02*
X155165057Y76018096D01*
X155165057Y76018096D02*
X155260295Y75970477D01*
X155260295Y75970477D02*
X155498390Y75970477D01*
X155498390Y75970477D02*
X155593628Y76018096D01*
X155593628Y76018096D02*
X155641247Y76065715D01*
X155641247Y76065715D02*
X155688866Y76160953D01*
X155688866Y76160953D02*
X155688866Y76351429D01*
X155688866Y76351429D02*
X155641247Y76446667D01*
X155641247Y76446667D02*
X155593628Y76494286D01*
X155593628Y76494286D02*
X155498390Y76541905D01*
X134532557Y59762381D02*
X134484938Y59667143D01*
X134484938Y59667143D02*
X134389700Y59571905D01*
X134389700Y59571905D02*
X134246842Y59429048D01*
X134246842Y59429048D02*
X134199223Y59333810D01*
X134199223Y59333810D02*
X134199223Y59238572D01*
X134437319Y59286191D02*
X134389700Y59190953D01*
X134389700Y59190953D02*
X134294461Y59095715D01*
X134294461Y59095715D02*
X134103985Y59048096D01*
X134103985Y59048096D02*
X133770652Y59048096D01*
X133770652Y59048096D02*
X133580176Y59095715D01*
X133580176Y59095715D02*
X133484938Y59190953D01*
X133484938Y59190953D02*
X133437319Y59286191D01*
X133437319Y59286191D02*
X133437319Y59476667D01*
X133437319Y59476667D02*
X133484938Y59571905D01*
X133484938Y59571905D02*
X133580176Y59667143D01*
X133580176Y59667143D02*
X133770652Y59714762D01*
X133770652Y59714762D02*
X134103985Y59714762D01*
X134103985Y59714762D02*
X134294461Y59667143D01*
X134294461Y59667143D02*
X134389700Y59571905D01*
X134389700Y59571905D02*
X134437319Y59476667D01*
X134437319Y59476667D02*
X134437319Y59286191D01*
X133865890Y60286191D02*
X133818271Y60190953D01*
X133818271Y60190953D02*
X133770652Y60143334D01*
X133770652Y60143334D02*
X133675414Y60095715D01*
X133675414Y60095715D02*
X133627795Y60095715D01*
X133627795Y60095715D02*
X133532557Y60143334D01*
X133532557Y60143334D02*
X133484938Y60190953D01*
X133484938Y60190953D02*
X133437319Y60286191D01*
X133437319Y60286191D02*
X133437319Y60476667D01*
X133437319Y60476667D02*
X133484938Y60571905D01*
X133484938Y60571905D02*
X133532557Y60619524D01*
X133532557Y60619524D02*
X133627795Y60667143D01*
X133627795Y60667143D02*
X133675414Y60667143D01*
X133675414Y60667143D02*
X133770652Y60619524D01*
X133770652Y60619524D02*
X133818271Y60571905D01*
X133818271Y60571905D02*
X133865890Y60476667D01*
X133865890Y60476667D02*
X133865890Y60286191D01*
X133865890Y60286191D02*
X133913509Y60190953D01*
X133913509Y60190953D02*
X133961128Y60143334D01*
X133961128Y60143334D02*
X134056366Y60095715D01*
X134056366Y60095715D02*
X134246842Y60095715D01*
X134246842Y60095715D02*
X134342080Y60143334D01*
X134342080Y60143334D02*
X134389700Y60190953D01*
X134389700Y60190953D02*
X134437319Y60286191D01*
X134437319Y60286191D02*
X134437319Y60476667D01*
X134437319Y60476667D02*
X134389700Y60571905D01*
X134389700Y60571905D02*
X134342080Y60619524D01*
X134342080Y60619524D02*
X134246842Y60667143D01*
X134246842Y60667143D02*
X134056366Y60667143D01*
X134056366Y60667143D02*
X133961128Y60619524D01*
X133961128Y60619524D02*
X133913509Y60571905D01*
X133913509Y60571905D02*
X133865890Y60476667D01*
X133770652Y61524286D02*
X134437319Y61524286D01*
X133389700Y61286191D02*
X134103985Y61048096D01*
X134103985Y61048096D02*
X134103985Y61667143D01*
X133437319Y61952858D02*
X133437319Y62619524D01*
X133437319Y62619524D02*
X134437319Y62190953D01*
D15*
X15604348Y78375809D02*
X15877681Y77985333D01*
X16072919Y78375809D02*
X16072919Y77555809D01*
X16072919Y77555809D02*
X15760538Y77555809D01*
X15760538Y77555809D02*
X15682443Y77594857D01*
X15682443Y77594857D02*
X15643396Y77633904D01*
X15643396Y77633904D02*
X15604348Y77712000D01*
X15604348Y77712000D02*
X15604348Y77829142D01*
X15604348Y77829142D02*
X15643396Y77907238D01*
X15643396Y77907238D02*
X15682443Y77946285D01*
X15682443Y77946285D02*
X15760538Y77985333D01*
X15760538Y77985333D02*
X16072919Y77985333D01*
X14901491Y77829142D02*
X14901491Y78375809D01*
X15096729Y77516761D02*
X15291967Y78102476D01*
X15291967Y78102476D02*
X14784348Y78102476D01*
D12*
X18367057Y73383262D02*
X18319438Y73288024D01*
X18319438Y73288024D02*
X18224200Y73192786D01*
X18224200Y73192786D02*
X18081342Y73049929D01*
X18081342Y73049929D02*
X18033723Y72954691D01*
X18033723Y72954691D02*
X18033723Y72859453D01*
X18271819Y72907072D02*
X18224200Y72811834D01*
X18224200Y72811834D02*
X18128961Y72716596D01*
X18128961Y72716596D02*
X17938485Y72668977D01*
X17938485Y72668977D02*
X17605152Y72668977D01*
X17605152Y72668977D02*
X17414676Y72716596D01*
X17414676Y72716596D02*
X17319438Y72811834D01*
X17319438Y72811834D02*
X17271819Y72907072D01*
X17271819Y72907072D02*
X17271819Y73097548D01*
X17271819Y73097548D02*
X17319438Y73192786D01*
X17319438Y73192786D02*
X17414676Y73288024D01*
X17414676Y73288024D02*
X17605152Y73335643D01*
X17605152Y73335643D02*
X17938485Y73335643D01*
X17938485Y73335643D02*
X18128961Y73288024D01*
X18128961Y73288024D02*
X18224200Y73192786D01*
X18224200Y73192786D02*
X18271819Y73097548D01*
X18271819Y73097548D02*
X18271819Y72907072D01*
X18271819Y74288024D02*
X18271819Y73716596D01*
X18271819Y74002310D02*
X17271819Y74002310D01*
X17271819Y74002310D02*
X17414676Y73907072D01*
X17414676Y73907072D02*
X17509914Y73811834D01*
X17509914Y73811834D02*
X17557533Y73716596D01*
D15*
X52657152Y55642022D02*
X53047629Y55915356D01*
X52657152Y56110594D02*
X53477153Y56110594D01*
X53477153Y56110594D02*
X53477153Y55798213D01*
X53477153Y55798213D02*
X53438105Y55720117D01*
X53438105Y55720117D02*
X53399058Y55681070D01*
X53399058Y55681070D02*
X53320962Y55642022D01*
X53320962Y55642022D02*
X53203819Y55642022D01*
X53203819Y55642022D02*
X53125724Y55681070D01*
X53125724Y55681070D02*
X53086676Y55720117D01*
X53086676Y55720117D02*
X53047629Y55798213D01*
X53047629Y55798213D02*
X53047629Y56110594D01*
X52657152Y54861069D02*
X52657152Y55329641D01*
X52657152Y55095355D02*
X53477153Y55095355D01*
X53477153Y55095355D02*
X53360010Y55173450D01*
X53360010Y55173450D02*
X53281915Y55251545D01*
X53281915Y55251545D02*
X53242867Y55329641D01*
X53399058Y54548688D02*
X53438105Y54509640D01*
X53438105Y54509640D02*
X53477153Y54431545D01*
X53477153Y54431545D02*
X53477153Y54236306D01*
X53477153Y54236306D02*
X53438105Y54158211D01*
X53438105Y54158211D02*
X53399058Y54119163D01*
X53399058Y54119163D02*
X53320962Y54080116D01*
X53320962Y54080116D02*
X53242867Y54080116D01*
X53242867Y54080116D02*
X53125724Y54119163D01*
X53125724Y54119163D02*
X52657152Y54587735D01*
X52657152Y54587735D02*
X52657152Y54080116D01*
D12*
X134840057Y75257381D02*
X134792438Y75162143D01*
X134792438Y75162143D02*
X134697200Y75066905D01*
X134697200Y75066905D02*
X134554342Y74924048D01*
X134554342Y74924048D02*
X134506723Y74828810D01*
X134506723Y74828810D02*
X134506723Y74733572D01*
X134744819Y74781191D02*
X134697200Y74685953D01*
X134697200Y74685953D02*
X134601961Y74590715D01*
X134601961Y74590715D02*
X134411485Y74543096D01*
X134411485Y74543096D02*
X134078152Y74543096D01*
X134078152Y74543096D02*
X133887676Y74590715D01*
X133887676Y74590715D02*
X133792438Y74685953D01*
X133792438Y74685953D02*
X133744819Y74781191D01*
X133744819Y74781191D02*
X133744819Y74971667D01*
X133744819Y74971667D02*
X133792438Y75066905D01*
X133792438Y75066905D02*
X133887676Y75162143D01*
X133887676Y75162143D02*
X134078152Y75209762D01*
X134078152Y75209762D02*
X134411485Y75209762D01*
X134411485Y75209762D02*
X134601961Y75162143D01*
X134601961Y75162143D02*
X134697200Y75066905D01*
X134697200Y75066905D02*
X134744819Y74971667D01*
X134744819Y74971667D02*
X134744819Y74781191D01*
X134173390Y75781191D02*
X134125771Y75685953D01*
X134125771Y75685953D02*
X134078152Y75638334D01*
X134078152Y75638334D02*
X133982914Y75590715D01*
X133982914Y75590715D02*
X133935295Y75590715D01*
X133935295Y75590715D02*
X133840057Y75638334D01*
X133840057Y75638334D02*
X133792438Y75685953D01*
X133792438Y75685953D02*
X133744819Y75781191D01*
X133744819Y75781191D02*
X133744819Y75971667D01*
X133744819Y75971667D02*
X133792438Y76066905D01*
X133792438Y76066905D02*
X133840057Y76114524D01*
X133840057Y76114524D02*
X133935295Y76162143D01*
X133935295Y76162143D02*
X133982914Y76162143D01*
X133982914Y76162143D02*
X134078152Y76114524D01*
X134078152Y76114524D02*
X134125771Y76066905D01*
X134125771Y76066905D02*
X134173390Y75971667D01*
X134173390Y75971667D02*
X134173390Y75781191D01*
X134173390Y75781191D02*
X134221009Y75685953D01*
X134221009Y75685953D02*
X134268628Y75638334D01*
X134268628Y75638334D02*
X134363866Y75590715D01*
X134363866Y75590715D02*
X134554342Y75590715D01*
X134554342Y75590715D02*
X134649580Y75638334D01*
X134649580Y75638334D02*
X134697200Y75685953D01*
X134697200Y75685953D02*
X134744819Y75781191D01*
X134744819Y75781191D02*
X134744819Y75971667D01*
X134744819Y75971667D02*
X134697200Y76066905D01*
X134697200Y76066905D02*
X134649580Y76114524D01*
X134649580Y76114524D02*
X134554342Y76162143D01*
X134554342Y76162143D02*
X134363866Y76162143D01*
X134363866Y76162143D02*
X134268628Y76114524D01*
X134268628Y76114524D02*
X134221009Y76066905D01*
X134221009Y76066905D02*
X134173390Y75971667D01*
X134078152Y77019286D02*
X134744819Y77019286D01*
X133697200Y76781191D02*
X134411485Y76543096D01*
X134411485Y76543096D02*
X134411485Y77162143D01*
X134078152Y77971667D02*
X134744819Y77971667D01*
X133697200Y77733572D02*
X134411485Y77495477D01*
X134411485Y77495477D02*
X134411485Y78114524D01*
D16*
G04 #@! TO.C,R1*
X34184005Y27803000D02*
X34184015Y28203000D01*
X34929840Y27801944D02*
X34929851Y28201943D01*
D12*
G04 #@! TO.C,J22*
X108505000Y103885000D02*
X109105000Y103885000D01*
X108505000Y96085000D02*
X108505000Y103885000D01*
X109105000Y96085000D02*
X108505000Y96085000D01*
X112005000Y96085000D02*
X112605000Y96085000D01*
X112605000Y103885000D02*
X112005000Y103885000D01*
X112605000Y96085000D02*
X112605000Y103885000D01*
X112905000Y97885000D02*
X112905000Y98885000D01*
D16*
G04 #@! TO.C,R309*
X89198944Y96974160D02*
X89598943Y96974149D01*
X89200000Y97719995D02*
X89600000Y97719985D01*
D17*
G04 #@! TO.C,D1*
X7264000Y68610000D02*
X7264000Y74120000D01*
X7264000Y68610000D02*
X10564000Y68610000D01*
X10564000Y68610000D02*
X10564000Y74120000D01*
G04 #@! TO.C,F842*
X146770000Y93915000D02*
X146770000Y98765000D01*
X148770000Y93915000D02*
X148770000Y98765000D01*
X146770000Y98765000D02*
G75*
G02*
X148770000Y98765000I1000000J0D01*
G01*
X148770000Y93865000D02*
G75*
G02*
X146770000Y93865000I-1000000J0D01*
G01*
G04 #@! TO.C,Q901*
X93910000Y53115000D02*
X94180000Y53115000D01*
X93910000Y46695000D02*
X93910000Y53115000D01*
X100810000Y53115000D02*
X100540000Y53115000D01*
X100810000Y46695000D02*
X100810000Y53115000D01*
X100970000Y54505000D02*
X100500000Y54845000D01*
X100970000Y55185000D01*
X100970000Y54505000D01*
G36*
X100970000Y54505000D02*
G01*
X100500000Y54845000D01*
X100970000Y55185000D01*
X100970000Y54505000D01*
G37*
G04 #@! TO.C,F843*
X93890000Y56695000D02*
X89040000Y56695000D01*
X93890000Y54695000D02*
X89040000Y54695000D01*
X89040000Y54695000D02*
G75*
G02*
X89040000Y56695000I0J1000000D01*
G01*
X93940000Y56695000D02*
G75*
G02*
X93940000Y54695000I0J-1000000D01*
G01*
G04 #@! TO.C,Q841*
X126285000Y53160000D02*
X126555000Y53160000D01*
X126285000Y46740000D02*
X126285000Y53160000D01*
X133185000Y53160000D02*
X132915000Y53160000D01*
X133185000Y46740000D02*
X133185000Y53160000D01*
X133345000Y54550000D02*
X132875000Y54890000D01*
X133345000Y55230000D01*
X133345000Y54550000D01*
G36*
X133345000Y54550000D02*
G01*
X132875000Y54890000D01*
X133345000Y55230000D01*
X133345000Y54550000D01*
G37*
G04 #@! TO.C,F841*
X96050000Y41815000D02*
X91200000Y41815000D01*
X96050000Y39815000D02*
X91200000Y39815000D01*
X91200000Y39815000D02*
G75*
G02*
X91200000Y41815000I0J1000000D01*
G01*
X96100000Y41815000D02*
G75*
G02*
X96100000Y39815000I0J-1000000D01*
G01*
D16*
G04 #@! TO.C,R843*
X33769944Y42430160D02*
X34169943Y42430149D01*
X33771000Y43175995D02*
X34171000Y43175985D01*
G04 #@! TO.C,M5*
D11*
X70585000Y31425000D02*
X56685000Y31425000D01*
X56685000Y58925000D01*
X70585000Y58925000D01*
X70585000Y31425000D01*
D16*
G04 #@! TO.C,R847*
X43628005Y61076000D02*
X43628015Y61476000D01*
X44373840Y61074944D02*
X44373851Y61474943D01*
G04 #@! TO.C,M8*
D18*
X73255000Y53400000D02*
X86955000Y53400000D01*
X86955000Y43500000D01*
X73255000Y43500000D01*
X73255000Y53400000D01*
D17*
G04 #@! TO.C,Q905*
X116585000Y66000000D02*
X116855000Y66000000D01*
X116585000Y59580000D02*
X116585000Y66000000D01*
X123485000Y66000000D02*
X123215000Y66000000D01*
X123485000Y59580000D02*
X123485000Y66000000D01*
X123645000Y67390000D02*
X123175000Y67730000D01*
X123645000Y68070000D01*
X123645000Y67390000D01*
G36*
X123645000Y67390000D02*
G01*
X123175000Y67730000D01*
X123645000Y68070000D01*
X123645000Y67390000D01*
G37*
D16*
G04 #@! TO.C,R848*
X48317077Y61277000D02*
X48317087Y61677000D01*
X49062912Y61275944D02*
X49062923Y61675943D01*
D11*
G04 #@! TO.C,M3*
X40623000Y58203000D02*
X40623000Y43803000D01*
X40623000Y43803000D02*
X47023000Y43803000D01*
X50223000Y58803000D02*
X45123000Y58803000D01*
X50223000Y43803000D02*
X48923000Y43803000D01*
X50223000Y43803000D02*
X50223000Y58803000D01*
D17*
G04 #@! TO.C,Q845*
X148015000Y65510000D02*
X148285000Y65510000D01*
X148015000Y59090000D02*
X148015000Y65510000D01*
X154915000Y65510000D02*
X154645000Y65510000D01*
X154915000Y59090000D02*
X154915000Y65510000D01*
X155075000Y66900000D02*
X154605000Y67240000D01*
X155075000Y67580000D01*
X155075000Y66900000D01*
G36*
X155075000Y66900000D02*
G01*
X154605000Y67240000D01*
X155075000Y67580000D01*
X155075000Y66900000D01*
G37*
G04 #@! TO.C,Q842*
X147960000Y37005000D02*
X148230000Y37005000D01*
X147960000Y30585000D02*
X147960000Y37005000D01*
X154860000Y37005000D02*
X154590000Y37005000D01*
X154860000Y30585000D02*
X154860000Y37005000D01*
X155020000Y38395000D02*
X154550000Y38735000D01*
X155020000Y39075000D01*
X155020000Y38395000D01*
G36*
X155020000Y38395000D02*
G01*
X154550000Y38735000D01*
X155020000Y39075000D01*
X155020000Y38395000D01*
G37*
D11*
G04 #@! TO.C,M1*
X117199997Y108744995D02*
X117199997Y93344995D01*
X117199997Y108744995D02*
X117499997Y108744995D01*
X118649997Y91944998D02*
X120199997Y91944993D01*
X119099997Y108744995D02*
X129499999Y108744995D01*
X122199999Y91944998D02*
X123300002Y91944998D01*
X124899997Y91944998D02*
X127599997Y91944998D01*
X131099999Y91944998D02*
X135899999Y91944998D01*
X131199997Y108744995D02*
X134400000Y108744995D01*
X137499999Y91944996D02*
X137799997Y91944996D01*
X137799995Y107244995D02*
X137799997Y91944996D01*
G04 #@! TO.C,M4*
X30147000Y58121000D02*
X30147000Y43721000D01*
X30147000Y43721000D02*
X36547000Y43721000D01*
X39747000Y58721000D02*
X34647000Y58721000D01*
X39747000Y43721000D02*
X38447000Y43721000D01*
X39747000Y43721000D02*
X39747000Y58721000D01*
D16*
G04 #@! TO.C,R311*
X86338944Y96984160D02*
X86738943Y96984149D01*
X86340000Y97729995D02*
X86740000Y97729985D01*
G04 #@! TO.C,R313*
X90988944Y95404160D02*
X91388943Y95404149D01*
X90990000Y96149995D02*
X91390000Y96149985D01*
D17*
G04 #@! TO.C,Q903*
X93115000Y81065000D02*
X93385000Y81065000D01*
X93115000Y74645000D02*
X93115000Y81065000D01*
X100015000Y81065000D02*
X99745000Y81065000D01*
X100015000Y74645000D02*
X100015000Y81065000D01*
X100175000Y82455000D02*
X99705000Y82795000D01*
X100175000Y83135000D01*
X100175000Y82455000D01*
G36*
X100175000Y82455000D02*
G01*
X99705000Y82795000D01*
X100175000Y83135000D01*
X100175000Y82455000D01*
G37*
G04 #@! TO.C,Q906*
X116875000Y53150000D02*
X117145000Y53150000D01*
X116875000Y46730000D02*
X116875000Y53150000D01*
X123775000Y53150000D02*
X123505000Y53150000D01*
X123775000Y46730000D02*
X123775000Y53150000D01*
X123935000Y54540000D02*
X123465000Y54880000D01*
X123935000Y55220000D01*
X123935000Y54540000D01*
G36*
X123935000Y54540000D02*
G01*
X123465000Y54880000D01*
X123935000Y55220000D01*
X123935000Y54540000D01*
G37*
G04 #@! TO.C,Q907*
X116475000Y37420000D02*
X116745000Y37420000D01*
X116475000Y31000000D02*
X116475000Y37420000D01*
X123375000Y37420000D02*
X123105000Y37420000D01*
X123375000Y31000000D02*
X123375000Y37420000D01*
X123535000Y38810000D02*
X123065000Y39150000D01*
X123535000Y39490000D01*
X123535000Y38810000D01*
G36*
X123535000Y38810000D02*
G01*
X123065000Y39150000D01*
X123535000Y39490000D01*
X123535000Y38810000D01*
G37*
G04 #@! TO.C,Q900*
X93772500Y37570000D02*
X94042500Y37570000D01*
X93772500Y31150000D02*
X93772500Y37570000D01*
X100672500Y37570000D02*
X100402500Y37570000D01*
X100672500Y31150000D02*
X100672500Y37570000D01*
X100832500Y38960000D02*
X100362500Y39300000D01*
X100832500Y39640000D01*
X100832500Y38960000D01*
G36*
X100832500Y38960000D02*
G01*
X100362500Y39300000D01*
X100832500Y39640000D01*
X100832500Y38960000D01*
G37*
D19*
G04 #@! TO.C,R846*
X111826000Y106655000D02*
X112842000Y106655000D01*
X112842000Y105055000D02*
X111826000Y105055000D01*
X113858000Y106655000D02*
X114874000Y106655000D01*
X114874000Y105055000D02*
X113858000Y105055000D01*
D17*
X111775000Y105055000D02*
G75*
G02*
X111771000Y106656638I-330000J800000D01*
G01*
X114933602Y106658495D02*
G75*
G02*
X114925000Y105055000I321398J-803495D01*
G01*
D16*
G04 #@! TO.C,R315*
X88168944Y95414160D02*
X88568943Y95414149D01*
X88170000Y96159995D02*
X88570000Y96159985D01*
D17*
G04 #@! TO.C,Q843*
X148107500Y52642500D02*
X148377500Y52642500D01*
X148107500Y46222500D02*
X148107500Y52642500D01*
X155007500Y52642500D02*
X154737500Y52642500D01*
X155007500Y46222500D02*
X155007500Y52642500D01*
X155167500Y54032500D02*
X154697500Y54372500D01*
X155167500Y54712500D01*
X155167500Y54032500D01*
G36*
X155167500Y54032500D02*
G01*
X154697500Y54372500D01*
X155167500Y54712500D01*
X155167500Y54032500D01*
G37*
G04 #@! TO.C,Q846*
X126375000Y35592500D02*
X126645000Y35592500D01*
X126375000Y29172500D02*
X126375000Y35592500D01*
X133275000Y35592500D02*
X133005000Y35592500D01*
X133275000Y29172500D02*
X133275000Y35592500D01*
X133435000Y36982500D02*
X132965000Y37322500D01*
X133435000Y37662500D01*
X133435000Y36982500D01*
G36*
X133435000Y36982500D02*
G01*
X132965000Y37322500D01*
X133435000Y37662500D01*
X133435000Y36982500D01*
G37*
D16*
G04 #@! TO.C,R842*
X67336000Y66415005D02*
X66936000Y66415015D01*
X67337056Y67160840D02*
X66937057Y67160851D01*
D17*
G04 #@! TO.C,F1*
X141960000Y94405000D02*
X141960000Y99255000D01*
X143960000Y94405000D02*
X143960000Y99255000D01*
X141960000Y99255000D02*
G75*
G02*
X143960000Y99255000I1000000J0D01*
G01*
X143960000Y94355000D02*
G75*
G02*
X141960000Y94355000I-1000000J0D01*
G01*
D16*
G04 #@! TO.C,R307*
X84698944Y98614160D02*
X85098943Y98614149D01*
X84700000Y99359995D02*
X85100000Y99359985D01*
D11*
G04 #@! TO.C,M6*
X41279990Y103695000D02*
X75080000Y103695000D01*
X41279990Y67895010D02*
X41279990Y103695000D01*
X41279990Y67895010D02*
X75079990Y67895010D01*
X75080000Y67895010D02*
X75080000Y103695000D01*
D16*
G04 #@! TO.C,R327*
X91858944Y93924160D02*
X92258943Y93924149D01*
X91860000Y94669995D02*
X92260000Y94669985D01*
D11*
G04 #@! TO.C,M2*
X25808999Y49486000D02*
X25808999Y58586000D01*
X28909002Y49486000D02*
X27909000Y49486000D01*
X28909002Y49486000D02*
X28909002Y58586000D01*
D16*
G04 #@! TO.C,R841*
X65908944Y63274160D02*
X66308943Y63274149D01*
X65910000Y64019995D02*
X66310000Y64019985D01*
G04 #@! TO.C,R325*
X88978944Y93844160D02*
X89378943Y93844149D01*
X88980000Y94589995D02*
X89380000Y94589985D01*
D17*
G04 #@! TO.C,Q3*
X26799000Y36120000D02*
X26799000Y29700000D01*
X26799000Y29700000D02*
X27069000Y29700000D01*
X33699000Y36120000D02*
X33699000Y29700000D01*
X33699000Y29700000D02*
X33429000Y29700000D01*
X27109000Y27970000D02*
X26639000Y27630000D01*
X26639000Y28310000D01*
X27109000Y27970000D01*
G36*
X27109000Y27970000D02*
G01*
X26639000Y27630000D01*
X26639000Y28310000D01*
X27109000Y27970000D01*
G37*
G04 #@! TO.C,Q904*
X117005000Y80180000D02*
X117275000Y80180000D01*
X117005000Y73760000D02*
X117005000Y80180000D01*
X123905000Y80180000D02*
X123635000Y80180000D01*
X123905000Y73760000D02*
X123905000Y80180000D01*
X124065000Y81570000D02*
X123595000Y81910000D01*
X124065000Y82250000D01*
X124065000Y81570000D01*
G36*
X124065000Y81570000D02*
G01*
X123595000Y81910000D01*
X124065000Y82250000D01*
X124065000Y81570000D01*
G37*
D11*
G04 #@! TO.C,R9*
X50975073Y51882389D02*
X50975073Y51482389D01*
X52278001Y51878000D02*
X52278001Y51478000D01*
D17*
G04 #@! TO.C,U1*
X10821000Y68018000D02*
X11291000Y68018000D01*
X10821000Y61598000D02*
X10821000Y68018000D01*
X17721000Y68018000D02*
X17251000Y68018000D01*
X17721000Y61598000D02*
X17721000Y68018000D01*
X17681000Y69408000D02*
X17211000Y69748000D01*
X17681000Y70088000D01*
X17681000Y69408000D01*
G36*
X17681000Y69408000D02*
G01*
X17211000Y69748000D01*
X17681000Y70088000D01*
X17681000Y69408000D01*
G37*
G04 #@! TO.C,Q902*
X93175000Y68090000D02*
X93445000Y68090000D01*
X93175000Y61670000D02*
X93175000Y68090000D01*
X100075000Y68090000D02*
X99805000Y68090000D01*
X100075000Y61670000D02*
X100075000Y68090000D01*
X100235000Y69480000D02*
X99765000Y69820000D01*
X100235000Y70160000D01*
X100235000Y69480000D01*
G36*
X100235000Y69480000D02*
G01*
X99765000Y69820000D01*
X100235000Y70160000D01*
X100235000Y69480000D01*
G37*
D16*
G04 #@! TO.C,R3*
X12557005Y73454500D02*
X12557015Y73854500D01*
X13302840Y73453444D02*
X13302851Y73853443D01*
D11*
G04 #@! TO.C,M7*
X74676998Y61674482D02*
X85851998Y61713329D01*
X74676998Y55977001D02*
X74676998Y61674482D01*
X74676998Y55977001D02*
X74952002Y55701997D01*
X74952002Y54827003D02*
X74952002Y55701997D01*
X74952002Y54827003D02*
X74952004Y54827000D01*
X74952004Y54827000D02*
X85851998Y54827000D01*
X85851998Y54827000D02*
X85851998Y61713329D01*
G04 #@! TO.C,M9*
X81242027Y85614287D02*
X81242027Y91354994D01*
X81601318Y85254996D02*
X81242027Y85614287D01*
X81838379Y91354994D02*
X81242027Y91354994D01*
X81838379Y91354994D02*
X82588380Y92104995D01*
X82588380Y92104995D02*
X82588380Y93104996D01*
X84463377Y93104996D02*
X82588380Y93104996D01*
X94662999Y85254996D02*
X81601318Y85254996D01*
X94662999Y85254996D02*
X94912998Y85504996D01*
X94663377Y93104996D02*
X84463377Y93104996D01*
X94912998Y92855375D02*
X94663377Y93104996D01*
X94912998Y85504996D02*
X94912998Y92855375D01*
D17*
G04 #@! TO.C,Q849*
X147665000Y78090000D02*
X147935000Y78090000D01*
X147665000Y71670000D02*
X147665000Y78090000D01*
X154565000Y78090000D02*
X154295000Y78090000D01*
X154565000Y71670000D02*
X154565000Y78090000D01*
X154725000Y79480000D02*
X154255000Y79820000D01*
X154725000Y80160000D01*
X154725000Y79480000D01*
G36*
X154725000Y79480000D02*
G01*
X154255000Y79820000D01*
X154725000Y80160000D01*
X154725000Y79480000D01*
G37*
D16*
G04 #@! TO.C,R305*
X87548944Y98554160D02*
X87948943Y98554149D01*
X87550000Y99299995D02*
X87950000Y99299985D01*
D17*
G04 #@! TO.C,Q847*
X126032500Y64120000D02*
X126302500Y64120000D01*
X126032500Y57700000D02*
X126032500Y64120000D01*
X132932500Y64120000D02*
X132662500Y64120000D01*
X132932500Y57700000D02*
X132932500Y64120000D01*
X133092500Y65510000D02*
X132622500Y65850000D01*
X133092500Y66190000D01*
X133092500Y65510000D01*
G36*
X133092500Y65510000D02*
G01*
X132622500Y65850000D01*
X133092500Y66190000D01*
X133092500Y65510000D01*
G37*
D16*
G04 #@! TO.C,R4*
X15592000Y76119577D02*
X15192000Y76119587D01*
X15593056Y76865412D02*
X15193057Y76865423D01*
D17*
G04 #@! TO.C,Q1*
X13857000Y73478500D02*
X13857000Y74128500D01*
X13857000Y73478500D02*
X13857000Y72828500D01*
X16977000Y73478500D02*
X16977000Y74128500D01*
X16977000Y73478500D02*
X16977000Y72828500D01*
X17257000Y74401000D02*
X16927000Y74641000D01*
X17257000Y74881000D01*
X17257000Y74401000D01*
G36*
X17257000Y74401000D02*
G01*
X16927000Y74641000D01*
X17257000Y74881000D01*
X17257000Y74401000D01*
G37*
D11*
G04 #@! TO.C,R12*
X50916073Y55508389D02*
X50916073Y55108389D01*
X52219001Y55504000D02*
X52219001Y55104000D01*
D17*
G04 #@! TO.C,Q844*
X126340000Y79615000D02*
X126610000Y79615000D01*
X126340000Y73195000D02*
X126340000Y79615000D01*
X133240000Y79615000D02*
X132970000Y79615000D01*
X133240000Y73195000D02*
X133240000Y79615000D01*
X133400000Y81005000D02*
X132930000Y81345000D01*
X133400000Y81685000D01*
X133400000Y81005000D01*
G36*
X133400000Y81005000D02*
G01*
X132930000Y81345000D01*
X133400000Y81685000D01*
X133400000Y81005000D01*
G37*
G04 #@! TD*
D20*
G04 #@! TO.C,P1*
X18650000Y5495000D03*
D21*
X21100000Y13295000D03*
D20*
X93150000Y5495000D03*
D21*
X142900000Y13295000D03*
D20*
X145350000Y5495000D03*
D22*
X25750000Y10495000D03*
X31550000Y10495000D03*
X28650000Y12825000D03*
X25750000Y18625000D03*
X31550000Y18625000D03*
D23*
X85170000Y18625000D03*
X82630000Y18625000D03*
X80090000Y18625000D03*
X77550000Y18625000D03*
X75010000Y18625000D03*
X72470000Y18625000D03*
X69930000Y18625000D03*
X67390000Y18625000D03*
X64850000Y18625000D03*
X62310000Y18625000D03*
X59770000Y18625000D03*
X57230000Y18625000D03*
X54690000Y18625000D03*
X52150000Y18625000D03*
X49610000Y18625000D03*
X47070000Y18625000D03*
X44530000Y18625000D03*
X41990000Y18625000D03*
X39450000Y18625000D03*
X85170000Y16085000D03*
X82630000Y16085000D03*
X80090000Y16085000D03*
X77550000Y16085000D03*
X75010000Y16085000D03*
X72470000Y16085000D03*
X69930000Y16085000D03*
X67390000Y16085000D03*
X64850000Y16085000D03*
X62310000Y16085000D03*
X59770000Y16085000D03*
X57230000Y16085000D03*
X54690000Y16085000D03*
X52150000Y16085000D03*
X49610000Y16085000D03*
X47070000Y16085000D03*
X44530000Y16085000D03*
X41990000Y16085000D03*
X39450000Y16085000D03*
X85170000Y10035000D03*
X82630000Y10035000D03*
X80090000Y10035000D03*
X77550000Y10035000D03*
X75010000Y10035000D03*
X72470000Y10035000D03*
X69930000Y10035000D03*
X67390000Y10035000D03*
X64850000Y10035000D03*
X62310000Y10035000D03*
X59770000Y10035000D03*
X57230000Y10035000D03*
X54690000Y10035000D03*
X52150000Y10035000D03*
X49610000Y10035000D03*
X47070000Y10035000D03*
X44530000Y10035000D03*
X41990000Y10035000D03*
X39450000Y10035000D03*
X85170000Y7495000D03*
X82630000Y7495000D03*
X80090000Y7495000D03*
X77550000Y7495000D03*
X75010000Y7495000D03*
X72470000Y7495000D03*
X69930000Y7495000D03*
X67390000Y7495000D03*
X64850000Y7495000D03*
X62310000Y7495000D03*
X59770000Y7495000D03*
X57230000Y7495000D03*
X54690000Y7495000D03*
X52150000Y7495000D03*
X49610000Y7495000D03*
X47070000Y7495000D03*
X44530000Y7495000D03*
X41990000Y7495000D03*
X39450000Y7495000D03*
X101140000Y7495000D03*
X103680000Y7495000D03*
X106220000Y7495000D03*
X108760000Y7495000D03*
X111300000Y7495000D03*
X113840000Y7495000D03*
X116380000Y7495000D03*
X118920000Y7495000D03*
X101140000Y10035000D03*
X103680000Y10035000D03*
X106220000Y10035000D03*
X108760000Y10035000D03*
X111300000Y10035000D03*
X113840000Y10035000D03*
X116380000Y10035000D03*
X118920000Y10035000D03*
X101140000Y16085000D03*
X103680000Y16085000D03*
X106220000Y16085000D03*
X108760000Y16085000D03*
X111300000Y16085000D03*
X113840000Y16085000D03*
X116380000Y16085000D03*
X118920000Y16085000D03*
X101140000Y18625000D03*
X103680000Y18625000D03*
X106220000Y18625000D03*
X108760000Y18625000D03*
X111300000Y18625000D03*
X113840000Y18625000D03*
X116380000Y18625000D03*
X118920000Y18625000D03*
D22*
X126750000Y10495000D03*
X132550000Y10495000D03*
X138450000Y10495000D03*
X129650000Y12825000D03*
X135550000Y12825000D03*
X126750000Y18625000D03*
X132550000Y18625000D03*
X138450000Y18625000D03*
G04 #@! TD*
M02*
