M48
; DRILL file {KiCad 8.0.9-8.0.9-0~ubuntu24.04.1} date 2025-12-25T16:20:24+0000
; FORMAT={2:4/ absolute / inch / suppress leading zeros}
; #@! TF.CreationDate,2025-12-25T16:20:24+00:00
; #@! TF.GenerationSoftware,Kicad,Pcbnew,8.0.9-8.0.9-0~ubuntu24.04.1
; #@! TF.FileFunction,MixedPlating,1,4
FMAT,2
INCH,TZ
; #@! TA.AperFunction,Plated,PTH,ComponentDrill
T1C0.0118
; #@! TA.AperFunction,Plated,PTH,ComponentDrill
T2C0.0118
; #@! TA.AperFunction,Plated,PTH,ComponentDrill
T3C0.0276
; #@! TA.AperFunction,Plated,PTH,ComponentDrill
T4C0.0320
; #@! TA.AperFunction,Plated,PTH,ComponentDrill
T5C0.0335
; #@! TA.AperFunction,Plated,PTH,ViaDrill
T6C0.0394
; #@! TA.AperFunction,Plated,PTH,ComponentDrill
T7C0.0394
; #@! TA.AperFunction,Plated,PTH,ComponentDrill
T8C0.0433
; #@! TA.AperFunction,Plated,PTH,ComponentDrill
T9C0.0866
; #@! TA.AperFunction,Plated,PTH,ComponentDrill
T10C0.1457
%
G90
G05
T1
X47977Y37458
X48007Y36060
X48095Y37960
X48440Y37753
T2
X12018Y16516
X12411Y16516
X12805Y16516
X13199Y16516
X14126Y26985
X14526Y26985
X15423Y26985
X15817Y26985
X16211Y26985
X17943Y17500
X17943Y17146
X19419Y23957
X19734Y23957
X20049Y23957
X20364Y23957
X20679Y23957
X20994Y23957
X21309Y23957
X21309Y23642
X21368Y17500
X21368Y17126
X21368Y16752
X22874Y22249
X23346Y22249
X23819Y22249
X24291Y22249
X25417Y16570
X25811Y16570
X26880Y22323
X27352Y22323
X27825Y22323
X28297Y22323
X29423Y16644
X29817Y16644
X30010Y41417
X30010Y39567
X30010Y39016
X30010Y37165
X30010Y36850
X30010Y35827
X30010Y35433
X30010Y35039
X30010Y34646
X30010Y34252
X30010Y33858
X30010Y33465
X30010Y33071
X30010Y28858
X30010Y28465
X30167Y27480
X31112Y27480
X31585Y27480
X32057Y27480
X32530Y27480
X32923Y41417
X33002Y27480
X33317Y41417
X33474Y27480
X33947Y27480
X34380Y41417
X34419Y27480
X34892Y27480
X35364Y27480
X35837Y27480
X36073Y41417
X36309Y27480
X36388Y41417
X36703Y41417
X36781Y27480
X37018Y41417
X37254Y27480
X37333Y41417
X37648Y41417
X37726Y27480
X37963Y41417
X38199Y27480
X38278Y41417
X38593Y41417
X38671Y27480
X39144Y27480
X39537Y41417
X39616Y27480
X39852Y41417
X40089Y27480
X40167Y41417
X40482Y41417
X40561Y27480
X40797Y41417
X41112Y41417
X41427Y41417
X41742Y41417
X42057Y41417
X42372Y41417
X42687Y41417
X43002Y41417
X43159Y36142
X43159Y30039
X43159Y38583
X43159Y38268
X43159Y37953
X43159Y37638
X43159Y37323
X43159Y37008
X43159Y36457
X43159Y35827
X43159Y35512
X43159Y35197
X43159Y34882
X43159Y34567
X43159Y34252
X43159Y33937
X43159Y33622
X43159Y33307
X43159Y32992
X43159Y32677
X43159Y32362
X43159Y32047
X43159Y31732
X45315Y33809
X45315Y33415
T3
X17687Y23327
X17687Y22854
X17687Y19626
X21230Y20492
X44459Y40404
X44459Y39774
X44459Y39144
X45148Y40089
X45148Y39459
T4
X18642Y26132
X20571Y26132
X44409Y37098
X44409Y35598
X52087Y18632
X52087Y16703
X53071Y18632
X53071Y16703
T5
X47362Y40561
X48346Y40561
X49331Y40561
X50315Y40561
X51299Y40561
T6
X1024Y38031
X1024Y33750
X1024Y28406
X1024Y24094
X1024Y20197
X1024Y16053
X1024Y12106
X1024Y8406
X1083Y5719
X6280Y45266
X10561Y45266
X14744Y45266
X19242Y45266
X23888Y45266
X27933Y45266
X32215Y45276
X36398Y45276
X40896Y45276
X45039Y45256
X49587Y45276
X53730Y45256
X58278Y45276
X63346Y38612
X63346Y34331
X63346Y28986
X63346Y24675
X63346Y20778
X63346Y16634
X63346Y12687
X63346Y8986
X63346Y5846
T7
X45492Y34931
X45492Y32470
X45492Y30778
X45492Y30030
X45492Y27510
X51594Y34754
X51594Y30010
X51594Y28061
X51594Y27333
T8
X15531Y7331
X15531Y6331
X15531Y3950
X15531Y2950
X16531Y7331
X16531Y6331
X16531Y3950
X16531Y2950
X17531Y7331
X17531Y6331
X17531Y3950
X17531Y2950
X18531Y7331
X18531Y6331
X18531Y3950
X18531Y2950
X19531Y7331
X19531Y6331
X19531Y3950
X19531Y2950
X20531Y7331
X20531Y6331
X20531Y3950
X20531Y2950
X21531Y7331
X21531Y6331
X21531Y3950
X21531Y2950
X22531Y7331
X22531Y6331
X22531Y3950
X22531Y2950
X23531Y7331
X23531Y6331
X23531Y3950
X23531Y2950
X24531Y7331
X24531Y6331
X24531Y3950
X24531Y2950
X25531Y7331
X25531Y6331
X25531Y3950
X25531Y2950
X26531Y7331
X26531Y6331
X26531Y3950
X26531Y2950
X27531Y7331
X27531Y6331
X27531Y3950
X27531Y2950
X28531Y7331
X28531Y6331
X28531Y3950
X28531Y2950
X29531Y7331
X29531Y6331
X29531Y3950
X29531Y2950
X30531Y7331
X30531Y6331
X30531Y3950
X30531Y2950
X31531Y7331
X31531Y6331
X31531Y3950
X31531Y2950
X32531Y7331
X32531Y6331
X32531Y3950
X32531Y2950
X33531Y7331
X33531Y6331
X33531Y3950
X33531Y2950
X39818Y7331
X39818Y6331
X39818Y3950
X39818Y2950
X40818Y7331
X40818Y6331
X40818Y3950
X40818Y2950
X41818Y7331
X41818Y6331
X41818Y3950
X41818Y2950
X42818Y7331
X42818Y6331
X42818Y3950
X42818Y2950
X43818Y7331
X43818Y6331
X43818Y3950
X43818Y2950
X44818Y7331
X44818Y6331
X44818Y3950
X44818Y2950
X45818Y7331
X45818Y6331
X45818Y3950
X45818Y2950
X46818Y7331
X46818Y6331
X46818Y3950
X46818Y2950
T9
X8306Y5233
X10137Y7331
X10137Y4131
X11279Y5048
X12420Y7331
X12420Y4131
X49901Y7331
X49901Y4131
X51043Y5048
X52184Y7331
X52184Y4131
X53365Y5048
X54507Y7331
X54507Y4131
X56259Y5233
T10
X7342Y2162
X36672Y2162
X57224Y2162
T3
X45059Y41211G85X44547Y41211
G05
X45059Y38337G85X44547Y38337
G05
M30
