G04 #@! TF.GenerationSoftware,KiCad,Pcbnew,8.0.9-8.0.9-0~ubuntu24.04.1*
G04 #@! TF.CreationDate,2025-12-21T15:13:14+00:00*
G04 #@! TF.ProjectId,greenenergyecu,67726565-6e65-46e6-9572-67796563752e,d*
G04 #@! TF.SameCoordinates,PX2ab9800PY68e7780*
G04 #@! TF.FileFunction,Copper,L1,Top*
G04 #@! TF.FilePolarity,Positive*
%FSLAX46Y46*%
G04 Gerber Fmt 4.6, Leading zero omitted, Abs format (unit mm)*
G04 Created by KiCad (PCBNEW 8.0.9-8.0.9-0~ubuntu24.04.1) date 2025-12-21 15:13:14*
%MOMM*%
%LPD*%
G01*
G04 APERTURE LIST*
G04 #@! TA.AperFunction,ComponentPad*
%ADD10C,3.700000*%
G04 #@! TD*
G04 #@! TA.AperFunction,ComponentPad*
%ADD11C,2.200000*%
G04 #@! TD*
G04 #@! TA.AperFunction,ComponentPad*
%ADD12C,2.600000*%
G04 #@! TD*
G04 #@! TA.AperFunction,ComponentPad*
%ADD13C,1.500000*%
G04 #@! TD*
G04 #@! TA.AperFunction,SMDPad,CuDef*
%ADD14O,0.200000X5.669999*%
G04 #@! TD*
G04 #@! TA.AperFunction,SMDPad,CuDef*
%ADD15O,11.100001X0.200000*%
G04 #@! TD*
G04 #@! TA.AperFunction,SMDPad,CuDef*
%ADD16O,9.800001X0.399999*%
G04 #@! TD*
G04 #@! TA.AperFunction,SMDPad,CuDef*
%ADD17O,0.499999X0.250000*%
G04 #@! TD*
G04 #@! TA.AperFunction,SMDPad,CuDef*
%ADD18O,0.200000X6.799999*%
G04 #@! TD*
G04 #@! TA.AperFunction,SMDPad,CuDef*
%ADD19O,0.250000X0.499999*%
G04 #@! TD*
G04 #@! TA.AperFunction,ComponentPad*
%ADD20C,0.599999*%
G04 #@! TD*
G04 #@! TA.AperFunction,ComponentPad*
%ADD21C,1.524000*%
G04 #@! TD*
G04 #@! TA.AperFunction,ComponentPad*
%ADD22C,0.700000*%
G04 #@! TD*
G04 #@! TA.AperFunction,SMDPad,CuDef*
%ADD23C,3.000000*%
G04 #@! TD*
G04 #@! TA.AperFunction,SMDPad,CuDef*
%ADD24R,0.250000X3.000000*%
G04 #@! TD*
G04 #@! TA.AperFunction,SMDPad,CuDef*
%ADD25R,0.250000X1.100000*%
G04 #@! TD*
G04 #@! TA.AperFunction,SMDPad,CuDef*
%ADD26R,0.250000X0.980000*%
G04 #@! TD*
G04 #@! TA.AperFunction,SMDPad,CuDef*
%ADD27R,0.250000X1.450000*%
G04 #@! TD*
G04 #@! TA.AperFunction,SMDPad,CuDef*
%ADD28R,27.600000X0.250000*%
G04 #@! TD*
G04 #@! TA.AperFunction,SMDPad,CuDef*
%ADD29R,0.250000X1.950000*%
G04 #@! TD*
G04 #@! TA.AperFunction,SMDPad,CuDef*
%ADD30R,0.250000X0.950000*%
G04 #@! TD*
G04 #@! TA.AperFunction,ComponentPad*
%ADD31C,0.600000*%
G04 #@! TD*
G04 #@! TA.AperFunction,SMDPad,CuDef*
%ADD32R,0.250000X6.185000*%
G04 #@! TD*
G04 #@! TA.AperFunction,SMDPad,CuDef*
%ADD33R,0.250000X1.115000*%
G04 #@! TD*
G04 #@! TA.AperFunction,SMDPad,CuDef*
%ADD34R,14.275000X0.250000*%
G04 #@! TD*
G04 #@! TA.AperFunction,SMDPad,CuDef*
%ADD35R,15.100000X0.250000*%
G04 #@! TD*
G04 #@! TA.AperFunction,SMDPad,CuDef*
%ADD36R,0.250000X5.175000*%
G04 #@! TD*
G04 #@! TA.AperFunction,ComponentPad*
%ADD37O,1.700000X1.850000*%
G04 #@! TD*
G04 #@! TA.AperFunction,SMDPad,CuDef*
%ADD38R,0.200000X4.400000*%
G04 #@! TD*
G04 #@! TA.AperFunction,SMDPad,CuDef*
%ADD39R,1.200000X0.200000*%
G04 #@! TD*
G04 #@! TA.AperFunction,SMDPad,CuDef*
%ADD40R,6.800000X0.200000*%
G04 #@! TD*
G04 #@! TA.AperFunction,SMDPad,CuDef*
%ADD41R,4.000000X0.200000*%
G04 #@! TD*
G04 #@! TA.AperFunction,SMDPad,CuDef*
%ADD42R,1.800000X0.200000*%
G04 #@! TD*
G04 #@! TA.AperFunction,SMDPad,CuDef*
%ADD43R,0.200000X10.000000*%
G04 #@! TD*
G04 #@! TA.AperFunction,ComponentPad*
%ADD44C,1.000000*%
G04 #@! TD*
G04 #@! TA.AperFunction,SMDPad,CuDef*
%ADD45R,0.200000X3.700000*%
G04 #@! TD*
G04 #@! TA.AperFunction,SMDPad,CuDef*
%ADD46R,0.200000X0.400000*%
G04 #@! TD*
G04 #@! TA.AperFunction,SMDPad,CuDef*
%ADD47R,0.200000X1.600000*%
G04 #@! TD*
G04 #@! TA.AperFunction,SMDPad,CuDef*
%ADD48R,0.200000X9.700000*%
G04 #@! TD*
G04 #@! TA.AperFunction,SMDPad,CuDef*
%ADD49R,0.200000X2.300000*%
G04 #@! TD*
G04 #@! TA.AperFunction,SMDPad,CuDef*
%ADD50R,1.400000X0.200000*%
G04 #@! TD*
G04 #@! TA.AperFunction,SMDPad,CuDef*
%ADD51R,6.400000X0.200000*%
G04 #@! TD*
G04 #@! TA.AperFunction,SMDPad,CuDef*
%ADD52R,1.700000X0.200000*%
G04 #@! TD*
G04 #@! TA.AperFunction,SMDPad,CuDef*
%ADD53R,3.300000X0.200000*%
G04 #@! TD*
G04 #@! TA.AperFunction,SMDPad,CuDef*
%ADD54R,0.200000X7.000000*%
G04 #@! TD*
G04 #@! TA.AperFunction,SMDPad,CuDef*
%ADD55R,0.200000X3.300000*%
G04 #@! TD*
G04 #@! TA.AperFunction,SMDPad,CuDef*
%ADD56R,0.200000X6.300000*%
G04 #@! TD*
G04 #@! TA.AperFunction,ComponentPad*
%ADD57R,1.100000X1.100000*%
G04 #@! TD*
G04 #@! TA.AperFunction,ComponentPad*
%ADD58C,1.100000*%
G04 #@! TD*
G04 #@! TA.AperFunction,ComponentPad*
%ADD59O,1.100000X2.400000*%
G04 #@! TD*
G04 #@! TA.AperFunction,SMDPad,CuDef*
%ADD60O,0.200000X1.225000*%
G04 #@! TD*
G04 #@! TA.AperFunction,SMDPad,CuDef*
%ADD61O,9.300000X0.200000*%
G04 #@! TD*
G04 #@! TA.AperFunction,SMDPad,CuDef*
%ADD62O,0.200000X3.300000*%
G04 #@! TD*
G04 #@! TA.AperFunction,SMDPad,CuDef*
%ADD63O,0.200000X10.200000*%
G04 #@! TD*
G04 #@! TA.AperFunction,SMDPad,CuDef*
%ADD64O,0.200000X0.300000*%
G04 #@! TD*
G04 #@! TA.AperFunction,SMDPad,CuDef*
%ADD65O,17.000000X0.200000*%
G04 #@! TD*
G04 #@! TA.AperFunction,SMDPad,CuDef*
%ADD66O,15.400000X0.200000*%
G04 #@! TD*
G04 #@! TA.AperFunction,SMDPad,CuDef*
%ADD67O,0.200000X4.800000*%
G04 #@! TD*
G04 #@! TA.AperFunction,SMDPad,CuDef*
%ADD68O,0.200000X2.600000*%
G04 #@! TD*
G04 #@! TA.AperFunction,SMDPad,CuDef*
%ADD69O,0.200000X1.000000*%
G04 #@! TD*
G04 #@! TA.AperFunction,SMDPad,CuDef*
%ADD70O,0.200000X1.500000*%
G04 #@! TD*
G04 #@! TA.AperFunction,ViaPad*
%ADD71C,2.000000*%
G04 #@! TD*
G04 APERTURE END LIST*
D10*
G04 #@! TO.P,P1,*
G04 #@! TO.N,*
X145852000Y112883000D03*
D11*
X143402000Y105083000D03*
D10*
X71352000Y112883000D03*
D11*
X21602000Y105083000D03*
D10*
X19152000Y112883000D03*
D12*
G04 #@! TO.P,P1,1,1*
G04 #@! TO.N,PIN1*
X138752000Y107883000D03*
G04 #@! TO.P,P1,2,2*
G04 #@! TO.N,PIN2*
X132952000Y107883000D03*
G04 #@! TO.P,P1,3,3*
G04 #@! TO.N,PIN114*
X135852000Y105553000D03*
G04 #@! TO.P,P1,4,4*
G04 #@! TO.N,PIN4*
X138752000Y99753000D03*
G04 #@! TO.P,P1,5,5*
G04 #@! TO.N,PIN5*
X132952000Y99753000D03*
D13*
G04 #@! TO.P,P1,6,6*
G04 #@! TO.N,PIN6*
X79332000Y99753000D03*
G04 #@! TO.P,P1,7,7*
G04 #@! TO.N,PIN7*
X81872000Y99753000D03*
G04 #@! TO.P,P1,8,8*
G04 #@! TO.N,PIN8*
X84412000Y99753000D03*
G04 #@! TO.P,P1,9,9*
G04 #@! TO.N,PIN9*
X86952000Y99753000D03*
G04 #@! TO.P,P1,10,10*
G04 #@! TO.N,PIN10*
X89492000Y99753000D03*
G04 #@! TO.P,P1,11,11*
G04 #@! TO.N,PIN11*
X92032000Y99753000D03*
G04 #@! TO.P,P1,12,12*
G04 #@! TO.N,PIN12*
X94572000Y99753000D03*
G04 #@! TO.P,P1,13,13*
G04 #@! TO.N,PIN13*
X97112000Y99753000D03*
G04 #@! TO.P,P1,14,14*
G04 #@! TO.N,PIN14*
X99652000Y99753000D03*
G04 #@! TO.P,P1,15,15*
G04 #@! TO.N,PIN15*
X102192000Y99753000D03*
G04 #@! TO.P,P1,16,16*
G04 #@! TO.N,PIN16*
X104732000Y99753000D03*
G04 #@! TO.P,P1,17,17*
G04 #@! TO.N,PIN17*
X107272000Y99753000D03*
G04 #@! TO.P,P1,18,18*
G04 #@! TO.N,PIN18*
X109812000Y99753000D03*
G04 #@! TO.P,P1,19,19*
G04 #@! TO.N,PIN19*
X112352000Y99753000D03*
G04 #@! TO.P,P1,20,20*
G04 #@! TO.N,PIN20*
X114892000Y99753000D03*
G04 #@! TO.P,P1,21,21*
G04 #@! TO.N,PIN21*
X117432000Y99753000D03*
G04 #@! TO.P,P1,22,22*
G04 #@! TO.N,PIN22*
X119972000Y99753000D03*
G04 #@! TO.P,P1,23,23*
G04 #@! TO.N,PIN120*
X122512000Y99753000D03*
G04 #@! TO.P,P1,24,24*
X125052000Y99753000D03*
G04 #@! TO.P,P1,25,25*
G04 #@! TO.N,PIN25*
X79332000Y102293000D03*
G04 #@! TO.P,P1,26,26*
G04 #@! TO.N,PIN26*
X81872000Y102293000D03*
G04 #@! TO.P,P1,27,27*
G04 #@! TO.N,PIN27*
X84412000Y102293000D03*
G04 #@! TO.P,P1,28,28*
G04 #@! TO.N,PIN28*
X86952000Y102293000D03*
G04 #@! TO.P,P1,29,29*
G04 #@! TO.N,PIN29*
X89492000Y102293000D03*
G04 #@! TO.P,P1,30,30*
G04 #@! TO.N,PIN30*
X92032000Y102293000D03*
G04 #@! TO.P,P1,31,31*
G04 #@! TO.N,PIN31*
X94572000Y102293000D03*
G04 #@! TO.P,P1,32,32*
G04 #@! TO.N,PIN32*
X97112000Y102293000D03*
G04 #@! TO.P,P1,33,33*
G04 #@! TO.N,PIN33*
X99652000Y102293000D03*
G04 #@! TO.P,P1,34,34*
G04 #@! TO.N,PIN34*
X102192000Y102293000D03*
G04 #@! TO.P,P1,35,35*
G04 #@! TO.N,PIN35*
X104732000Y102293000D03*
G04 #@! TO.P,P1,36,36*
G04 #@! TO.N,PIN36*
X107272000Y102293000D03*
G04 #@! TO.P,P1,37,37*
G04 #@! TO.N,PIN37*
X109812000Y102293000D03*
G04 #@! TO.P,P1,38,38*
G04 #@! TO.N,PIN38*
X112352000Y102293000D03*
G04 #@! TO.P,P1,39,39*
G04 #@! TO.N,PIN39*
X114892000Y102293000D03*
G04 #@! TO.P,P1,40,40*
G04 #@! TO.N,PIN40*
X117432000Y102293000D03*
G04 #@! TO.P,P1,41,41*
G04 #@! TO.N,PIN41*
X119972000Y102293000D03*
G04 #@! TO.P,P1,42,42*
G04 #@! TO.N,PIN42*
X122512000Y102293000D03*
G04 #@! TO.P,P1,43,43*
G04 #@! TO.N,PIN43*
X125052000Y102293000D03*
G04 #@! TO.P,P1,44,44*
G04 #@! TO.N,PIN44*
X79332000Y108343000D03*
G04 #@! TO.P,P1,45,45*
G04 #@! TO.N,PIN45*
X81872000Y108343000D03*
G04 #@! TO.P,P1,46,46*
G04 #@! TO.N,PIN46*
X84412000Y108343000D03*
G04 #@! TO.P,P1,47,47*
G04 #@! TO.N,PIN47*
X86952000Y108343000D03*
G04 #@! TO.P,P1,48,48*
G04 #@! TO.N,PIN48*
X89492000Y108343000D03*
G04 #@! TO.P,P1,49,49*
G04 #@! TO.N,PIN49*
X92032000Y108343000D03*
G04 #@! TO.P,P1,50,50*
G04 #@! TO.N,PIN50*
X94572000Y108343000D03*
G04 #@! TO.P,P1,51,51*
G04 #@! TO.N,PIN51*
X97112000Y108343000D03*
G04 #@! TO.P,P1,52,52*
G04 #@! TO.N,PIN113*
X99652000Y108343000D03*
G04 #@! TO.P,P1,53,53*
X102192000Y108343000D03*
G04 #@! TO.P,P1,54,54*
X104732000Y108343000D03*
G04 #@! TO.P,P1,55,55*
X107272000Y108343000D03*
G04 #@! TO.P,P1,56,56*
X109812000Y108343000D03*
G04 #@! TO.P,P1,57,57*
X112352000Y108343000D03*
G04 #@! TO.P,P1,58,58*
X114892000Y108343000D03*
G04 #@! TO.P,P1,59,59*
X117432000Y108343000D03*
G04 #@! TO.P,P1,60,60*
X119972000Y108343000D03*
G04 #@! TO.P,P1,61,61*
X122512000Y108343000D03*
G04 #@! TO.P,P1,62,62*
X125052000Y108343000D03*
G04 #@! TO.P,P1,63,63*
G04 #@! TO.N,PIN63*
X79332000Y110883000D03*
G04 #@! TO.P,P1,64,64*
G04 #@! TO.N,PIN113*
X81872000Y110883000D03*
G04 #@! TO.P,P1,65,65*
G04 #@! TO.N,PIN65*
X84412000Y110883000D03*
G04 #@! TO.P,P1,66,66*
G04 #@! TO.N,PIN113*
X86952000Y110883000D03*
G04 #@! TO.P,P1,67,67*
G04 #@! TO.N,PIN67*
X89492000Y110883000D03*
G04 #@! TO.P,P1,68,68*
G04 #@! TO.N,PIN113*
X92032000Y110883000D03*
G04 #@! TO.P,P1,69,69*
G04 #@! TO.N,PIN69*
X94572000Y110883000D03*
G04 #@! TO.P,P1,70,70*
G04 #@! TO.N,PIN70*
X97112000Y110883000D03*
G04 #@! TO.P,P1,71,71*
G04 #@! TO.N,PIN106*
X99652000Y110883000D03*
G04 #@! TO.P,P1,72,72*
X102192000Y110883000D03*
G04 #@! TO.P,P1,73,73*
X104732000Y110883000D03*
G04 #@! TO.P,P1,74,74*
X107272000Y110883000D03*
G04 #@! TO.P,P1,75,75*
X109812000Y110883000D03*
G04 #@! TO.P,P1,76,76*
X112352000Y110883000D03*
G04 #@! TO.P,P1,77,77*
X114892000Y110883000D03*
G04 #@! TO.P,P1,78,78*
X117432000Y110883000D03*
G04 #@! TO.P,P1,79,79*
X119972000Y110883000D03*
G04 #@! TO.P,P1,80,80*
X122512000Y110883000D03*
G04 #@! TO.P,P1,81,81*
G04 #@! TO.N,PIN81*
X125052000Y110883000D03*
G04 #@! TO.P,P1,82,82*
G04 #@! TO.N,PIN82*
X63362000Y110883000D03*
G04 #@! TO.P,P1,83,83*
G04 #@! TO.N,PIN83*
X60822000Y110883000D03*
G04 #@! TO.P,P1,84,84*
G04 #@! TO.N,PIN84*
X58282000Y110883000D03*
G04 #@! TO.P,P1,85,85*
G04 #@! TO.N,PIN85*
X55742000Y110883000D03*
G04 #@! TO.P,P1,86,86*
G04 #@! TO.N,PIN86*
X53202000Y110883000D03*
G04 #@! TO.P,P1,87,87*
G04 #@! TO.N,PIN87*
X50662000Y110883000D03*
G04 #@! TO.P,P1,88,88*
G04 #@! TO.N,PIN88*
X48122000Y110883000D03*
G04 #@! TO.P,P1,89,89*
G04 #@! TO.N,PIN89*
X45582000Y110883000D03*
G04 #@! TO.P,P1,90,90*
G04 #@! TO.N,PIN90*
X63362000Y108343000D03*
G04 #@! TO.P,P1,91,91*
G04 #@! TO.N,PIN91*
X60822000Y108343000D03*
G04 #@! TO.P,P1,92,92*
G04 #@! TO.N,PIN92*
X58282000Y108343000D03*
G04 #@! TO.P,P1,93,93*
G04 #@! TO.N,PIN93*
X55742000Y108343000D03*
G04 #@! TO.P,P1,94,94*
G04 #@! TO.N,PIN94*
X53202000Y108343000D03*
G04 #@! TO.P,P1,95,95*
G04 #@! TO.N,PIN95*
X50662000Y108343000D03*
G04 #@! TO.P,P1,96,96*
G04 #@! TO.N,PIN96*
X48122000Y108343000D03*
G04 #@! TO.P,P1,97,97*
G04 #@! TO.N,PIN97*
X45582000Y108343000D03*
G04 #@! TO.P,P1,98,98*
G04 #@! TO.N,PIN113*
X63362000Y102293000D03*
G04 #@! TO.P,P1,99,99*
X60822000Y102293000D03*
G04 #@! TO.P,P1,100,100*
G04 #@! TO.N,PIN100*
X58282000Y102293000D03*
G04 #@! TO.P,P1,101,101*
G04 #@! TO.N,PIN101*
X55742000Y102293000D03*
G04 #@! TO.P,P1,102,102*
G04 #@! TO.N,PIN102*
X53202000Y102293000D03*
G04 #@! TO.P,P1,103,103*
G04 #@! TO.N,PIN103*
X50662000Y102293000D03*
G04 #@! TO.P,P1,104,104*
G04 #@! TO.N,PIN104*
X48122000Y102293000D03*
G04 #@! TO.P,P1,105,105*
G04 #@! TO.N,PIN105*
X45582000Y102293000D03*
G04 #@! TO.P,P1,106,106*
G04 #@! TO.N,PIN106*
X63362000Y99753000D03*
G04 #@! TO.P,P1,107,107*
X60822000Y99753000D03*
G04 #@! TO.P,P1,108,108*
G04 #@! TO.N,PIN108*
X58282000Y99753000D03*
G04 #@! TO.P,P1,109,109*
G04 #@! TO.N,PIN109*
X55742000Y99753000D03*
G04 #@! TO.P,P1,110,110*
G04 #@! TO.N,PIN110*
X53202000Y99753000D03*
G04 #@! TO.P,P1,111,111*
G04 #@! TO.N,PIN111*
X50662000Y99753000D03*
G04 #@! TO.P,P1,112,112*
G04 #@! TO.N,PIN112*
X48122000Y99753000D03*
G04 #@! TO.P,P1,113,113*
G04 #@! TO.N,PIN113*
X45582000Y99753000D03*
D12*
G04 #@! TO.P,P1,114,114*
G04 #@! TO.N,PIN114*
X37752000Y107883000D03*
G04 #@! TO.P,P1,115,115*
X31952000Y107883000D03*
G04 #@! TO.P,P1,116,116*
G04 #@! TO.N,PIN116*
X26052000Y107883000D03*
G04 #@! TO.P,P1,117,117*
G04 #@! TO.N,PIN117*
X34852000Y105553000D03*
G04 #@! TO.P,P1,118,118*
G04 #@! TO.N,PIN118*
X28952000Y105553000D03*
G04 #@! TO.P,P1,119,119*
G04 #@! TO.N,PIN119*
X37752000Y99753000D03*
G04 #@! TO.P,P1,120,120*
G04 #@! TO.N,PIN120*
X31952000Y99753000D03*
G04 #@! TO.P,P1,121,121*
G04 #@! TO.N,PIN121*
X26052000Y99753000D03*
G04 #@! TD*
G04 #@! TO.P,R43,1*
G04 #@! TO.N,/INJ3*
G04 #@! TA.AperFunction,SMDPad,CuDef*
G36*
G01*
X16920000Y40110000D02*
X16920000Y40890000D01*
G75*
G02*
X16990000Y40960000I70000J0D01*
G01*
X17550000Y40960000D01*
G75*
G02*
X17620000Y40890000I0J-70000D01*
G01*
X17620000Y40110000D01*
G75*
G02*
X17550000Y40040000I-70000J0D01*
G01*
X16990000Y40040000D01*
G75*
G02*
X16920000Y40110000I0J70000D01*
G01*
G37*
G04 #@! TD.AperFunction*
G04 #@! TO.P,R43,2*
G04 #@! TO.N,PIN114*
G04 #@! TA.AperFunction,SMDPad,CuDef*
G36*
G01*
X18520000Y40110000D02*
X18520000Y40890000D01*
G75*
G02*
X18590000Y40960000I70000J0D01*
G01*
X19150000Y40960000D01*
G75*
G02*
X19220000Y40890000I0J-70000D01*
G01*
X19220000Y40110000D01*
G75*
G02*
X19150000Y40040000I-70000J0D01*
G01*
X18590000Y40040000D01*
G75*
G02*
X18520000Y40110000I0J70000D01*
G01*
G37*
G04 #@! TD.AperFunction*
G04 #@! TD*
G04 #@! TO.P,L2,1,1*
G04 #@! TO.N,PIN22*
G04 #@! TA.AperFunction,SMDPad,CuDef*
G36*
G01*
X92280000Y33758750D02*
X92280000Y34271250D01*
G75*
G02*
X92498750Y34490000I218750J0D01*
G01*
X92936250Y34490000D01*
G75*
G02*
X93155000Y34271250I0J-218750D01*
G01*
X93155000Y33758750D01*
G75*
G02*
X92936250Y33540000I-218750J0D01*
G01*
X92498750Y33540000D01*
G75*
G02*
X92280000Y33758750I0J218750D01*
G01*
G37*
G04 #@! TD.AperFunction*
G04 #@! TO.P,L2,2,2*
G04 #@! TO.N,Net-(U8-T-)*
G04 #@! TA.AperFunction,SMDPad,CuDef*
G36*
G01*
X93855000Y33758750D02*
X93855000Y34271250D01*
G75*
G02*
X94073750Y34490000I218750J0D01*
G01*
X94511250Y34490000D01*
G75*
G02*
X94730000Y34271250I0J-218750D01*
G01*
X94730000Y33758750D01*
G75*
G02*
X94511250Y33540000I-218750J0D01*
G01*
X94073750Y33540000D01*
G75*
G02*
X93855000Y33758750I0J218750D01*
G01*
G37*
G04 #@! TD.AperFunction*
G04 #@! TD*
D14*
G04 #@! TO.P,M7,E1,GND*
G04 #@! TO.N,PIN114*
X108550000Y28200826D03*
D15*
X114025001Y30938326D03*
D16*
X114725002Y24338329D03*
D17*
X119349996Y24338329D03*
D18*
X119525000Y27600827D03*
D19*
G04 #@! TO.P,M7,S1,CANL*
G04 #@! TO.N,unconnected-(M7-CANL-PadS1)*
X109000002Y24388327D03*
G04 #@! TO.P,M7,S2,CANH*
G04 #@! TO.N,unconnected-(M7-CANH-PadS2)*
X109500003Y24388327D03*
D20*
G04 #@! TO.P,M7,V1,V5*
G04 #@! TO.N,+5VA*
X116050000Y25438325D03*
G04 #@! TO.P,M7,V2,CAN_VIO*
G04 #@! TO.N,+3.3VA*
X115174998Y25963325D03*
G04 #@! TO.P,M7,V5,CAN_TX*
G04 #@! TO.N,E7INJ8CANTX*
X116350002Y26713323D03*
G04 #@! TO.P,M7,V6,CAN_RX*
G04 #@! TO.N,E6INJ7CANRX*
X116274999Y30263324D03*
G04 #@! TD*
G04 #@! TO.P,R45,1*
G04 #@! TO.N,/INJ4*
G04 #@! TA.AperFunction,SMDPad,CuDef*
G36*
G01*
X16920000Y36211908D02*
X16920000Y36991908D01*
G75*
G02*
X16990000Y37061908I70000J0D01*
G01*
X17550000Y37061908D01*
G75*
G02*
X17620000Y36991908I0J-70000D01*
G01*
X17620000Y36211908D01*
G75*
G02*
X17550000Y36141908I-70000J0D01*
G01*
X16990000Y36141908D01*
G75*
G02*
X16920000Y36211908I0J70000D01*
G01*
G37*
G04 #@! TD.AperFunction*
G04 #@! TO.P,R45,2*
G04 #@! TO.N,Net-(U4-IN2)*
G04 #@! TA.AperFunction,SMDPad,CuDef*
G36*
G01*
X18520000Y36211908D02*
X18520000Y36991908D01*
G75*
G02*
X18590000Y37061908I70000J0D01*
G01*
X19150000Y37061908D01*
G75*
G02*
X19220000Y36991908I0J-70000D01*
G01*
X19220000Y36211908D01*
G75*
G02*
X19150000Y36141908I-70000J0D01*
G01*
X18590000Y36141908D01*
G75*
G02*
X18520000Y36211908I0J70000D01*
G01*
G37*
G04 #@! TD.AperFunction*
G04 #@! TD*
G04 #@! TO.P,F5,1*
G04 #@! TO.N,Net-(F5-Pad1)*
G04 #@! TA.AperFunction,SMDPad,CuDef*
G36*
G01*
X71140000Y39318750D02*
X71140000Y39831250D01*
G75*
G02*
X71358750Y40050000I218750J0D01*
G01*
X71796250Y40050000D01*
G75*
G02*
X72015000Y39831250I0J-218750D01*
G01*
X72015000Y39318750D01*
G75*
G02*
X71796250Y39100000I-218750J0D01*
G01*
X71358750Y39100000D01*
G75*
G02*
X71140000Y39318750I0J218750D01*
G01*
G37*
G04 #@! TD.AperFunction*
G04 #@! TO.P,F5,2*
G04 #@! TO.N,/IGN2*
G04 #@! TA.AperFunction,SMDPad,CuDef*
G36*
G01*
X72715000Y39318750D02*
X72715000Y39831250D01*
G75*
G02*
X72933750Y40050000I218750J0D01*
G01*
X73371250Y40050000D01*
G75*
G02*
X73590000Y39831250I0J-218750D01*
G01*
X73590000Y39318750D01*
G75*
G02*
X73371250Y39100000I-218750J0D01*
G01*
X72933750Y39100000D01*
G75*
G02*
X72715000Y39318750I0J218750D01*
G01*
G37*
G04 #@! TD.AperFunction*
G04 #@! TD*
G04 #@! TO.P,R17,1*
G04 #@! TO.N,/LS2*
G04 #@! TA.AperFunction,SMDPad,CuDef*
G36*
G01*
X36250000Y60390000D02*
X36250000Y61170000D01*
G75*
G02*
X36320000Y61240000I70000J0D01*
G01*
X36880000Y61240000D01*
G75*
G02*
X36950000Y61170000I0J-70000D01*
G01*
X36950000Y60390000D01*
G75*
G02*
X36880000Y60320000I-70000J0D01*
G01*
X36320000Y60320000D01*
G75*
G02*
X36250000Y60390000I0J70000D01*
G01*
G37*
G04 #@! TD.AperFunction*
G04 #@! TO.P,R17,2*
G04 #@! TO.N,PIN114*
G04 #@! TA.AperFunction,SMDPad,CuDef*
G36*
G01*
X37850000Y60390000D02*
X37850000Y61170000D01*
G75*
G02*
X37920000Y61240000I70000J0D01*
G01*
X38480000Y61240000D01*
G75*
G02*
X38550000Y61170000I0J-70000D01*
G01*
X38550000Y60390000D01*
G75*
G02*
X38480000Y60320000I-70000J0D01*
G01*
X37920000Y60320000D01*
G75*
G02*
X37850000Y60390000I0J70000D01*
G01*
G37*
G04 #@! TD.AperFunction*
G04 #@! TD*
G04 #@! TO.P,R15,1*
G04 #@! TO.N,Net-(M6-LED_GREEN)*
G04 #@! TA.AperFunction,SMDPad,CuDef*
G36*
G01*
X17520000Y56491908D02*
X17520000Y57271908D01*
G75*
G02*
X17590000Y57341908I70000J0D01*
G01*
X18150000Y57341908D01*
G75*
G02*
X18220000Y57271908I0J-70000D01*
G01*
X18220000Y56491908D01*
G75*
G02*
X18150000Y56421908I-70000J0D01*
G01*
X17590000Y56421908D01*
G75*
G02*
X17520000Y56491908I0J70000D01*
G01*
G37*
G04 #@! TD.AperFunction*
G04 #@! TO.P,R15,2*
G04 #@! TO.N,PIN114*
G04 #@! TA.AperFunction,SMDPad,CuDef*
G36*
G01*
X19120000Y56491908D02*
X19120000Y57271908D01*
G75*
G02*
X19190000Y57341908I70000J0D01*
G01*
X19750000Y57341908D01*
G75*
G02*
X19820000Y57271908I0J-70000D01*
G01*
X19820000Y56491908D01*
G75*
G02*
X19750000Y56421908I-70000J0D01*
G01*
X19190000Y56421908D01*
G75*
G02*
X19120000Y56491908I0J70000D01*
G01*
G37*
G04 #@! TD.AperFunction*
G04 #@! TD*
D21*
G04 #@! TO.P,F2,1,1*
G04 #@! TO.N,PIN120*
X27290000Y62923733D03*
G04 #@! TA.AperFunction,SMDPad,CuDef*
G36*
G01*
X28634990Y62023733D02*
X27944990Y62023733D01*
G75*
G02*
X27714990Y62253733I0J230000D01*
G01*
X27714990Y63593733D01*
G75*
G02*
X27944990Y63823733I230000J0D01*
G01*
X28634990Y63823733D01*
G75*
G02*
X28864990Y63593733I0J-230000D01*
G01*
X28864990Y62253733D01*
G75*
G02*
X28634990Y62023733I-230000J0D01*
G01*
G37*
G04 #@! TD.AperFunction*
G04 #@! TO.P,F2,2,2*
G04 #@! TO.N,PIN117*
G04 #@! TA.AperFunction,SMDPad,CuDef*
G36*
G01*
X31535010Y62023733D02*
X30845010Y62023733D01*
G75*
G02*
X30615010Y62253733I0J230000D01*
G01*
X30615010Y63593733D01*
G75*
G02*
X30845010Y63823733I230000J0D01*
G01*
X31535010Y63823733D01*
G75*
G02*
X31765010Y63593733I0J-230000D01*
G01*
X31765010Y62253733D01*
G75*
G02*
X31535010Y62023733I-230000J0D01*
G01*
G37*
G04 #@! TD.AperFunction*
X32190000Y62923733D03*
G04 #@! TD*
G04 #@! TO.P,Q4,1,G*
G04 #@! TO.N,Net-(Q4-G)*
G04 #@! TA.AperFunction,SMDPad,CuDef*
G36*
G01*
X58985000Y45855000D02*
X58985000Y46555000D01*
G75*
G02*
X59235000Y46805000I250000J0D01*
G01*
X60935000Y46805000D01*
G75*
G02*
X61185000Y46555000I0J-250000D01*
G01*
X61185000Y45855000D01*
G75*
G02*
X60935000Y45605000I-250000J0D01*
G01*
X59235000Y45605000D01*
G75*
G02*
X58985000Y45855000I0J250000D01*
G01*
G37*
G04 #@! TD.AperFunction*
G04 #@! TO.P,Q4,2,C*
G04 #@! TO.N,PIN9*
G04 #@! TA.AperFunction,SMDPad,CuDef*
G36*
G01*
X63185000Y44325000D02*
X63185000Y46575000D01*
G75*
G02*
X63435000Y46825000I250000J0D01*
G01*
X65985000Y46825000D01*
G75*
G02*
X66235000Y46575000I0J-250000D01*
G01*
X66235000Y44325000D01*
G75*
G02*
X65985000Y44075000I-250000J0D01*
G01*
X63435000Y44075000D01*
G75*
G02*
X63185000Y44325000I0J250000D01*
G01*
G37*
G04 #@! TD.AperFunction*
G04 #@! TA.AperFunction,SMDPad,CuDef*
G36*
G01*
X63185000Y41275000D02*
X63185000Y43525000D01*
G75*
G02*
X63435000Y43775000I250000J0D01*
G01*
X65985000Y43775000D01*
G75*
G02*
X66235000Y43525000I0J-250000D01*
G01*
X66235000Y41275000D01*
G75*
G02*
X65985000Y41025000I-250000J0D01*
G01*
X63435000Y41025000D01*
G75*
G02*
X63185000Y41275000I0J250000D01*
G01*
G37*
G04 #@! TD.AperFunction*
G04 #@! TA.AperFunction,SMDPad,CuDef*
G36*
G01*
X63185000Y41274997D02*
X63185000Y46575003D01*
G75*
G02*
X63434997Y46825000I249997J0D01*
G01*
X69335003Y46825000D01*
G75*
G02*
X69585000Y46575003I0J-249997D01*
G01*
X69585000Y41274997D01*
G75*
G02*
X69335003Y41025000I-249997J0D01*
G01*
X63434997Y41025000D01*
G75*
G02*
X63185000Y41274997I0J249997D01*
G01*
G37*
G04 #@! TD.AperFunction*
G04 #@! TA.AperFunction,SMDPad,CuDef*
G36*
G01*
X66535000Y44325000D02*
X66535000Y46575000D01*
G75*
G02*
X66785000Y46825000I250000J0D01*
G01*
X69335000Y46825000D01*
G75*
G02*
X69585000Y46575000I0J-250000D01*
G01*
X69585000Y44325000D01*
G75*
G02*
X69335000Y44075000I-250000J0D01*
G01*
X66785000Y44075000D01*
G75*
G02*
X66535000Y44325000I0J250000D01*
G01*
G37*
G04 #@! TD.AperFunction*
G04 #@! TA.AperFunction,SMDPad,CuDef*
G36*
G01*
X66535000Y41275000D02*
X66535000Y43525000D01*
G75*
G02*
X66785000Y43775000I250000J0D01*
G01*
X69335000Y43775000D01*
G75*
G02*
X69585000Y43525000I0J-250000D01*
G01*
X69585000Y41275000D01*
G75*
G02*
X69335000Y41025000I-250000J0D01*
G01*
X66785000Y41025000D01*
G75*
G02*
X66535000Y41275000I0J250000D01*
G01*
G37*
G04 #@! TD.AperFunction*
G04 #@! TO.P,Q4,3,E*
G04 #@! TO.N,PIN114*
G04 #@! TA.AperFunction,SMDPad,CuDef*
G36*
G01*
X58985000Y41295000D02*
X58985000Y41995000D01*
G75*
G02*
X59235000Y42245000I250000J0D01*
G01*
X60935000Y42245000D01*
G75*
G02*
X61185000Y41995000I0J-250000D01*
G01*
X61185000Y41295000D01*
G75*
G02*
X60935000Y41045000I-250000J0D01*
G01*
X59235000Y41045000D01*
G75*
G02*
X58985000Y41295000I0J250000D01*
G01*
G37*
G04 #@! TD.AperFunction*
G04 #@! TD*
G04 #@! TO.P,R40,1*
G04 #@! TO.N,/INJ2*
G04 #@! TA.AperFunction,SMDPad,CuDef*
G36*
G01*
X16920000Y45957138D02*
X16920000Y46737138D01*
G75*
G02*
X16990000Y46807138I70000J0D01*
G01*
X17550000Y46807138D01*
G75*
G02*
X17620000Y46737138I0J-70000D01*
G01*
X17620000Y45957138D01*
G75*
G02*
X17550000Y45887138I-70000J0D01*
G01*
X16990000Y45887138D01*
G75*
G02*
X16920000Y45957138I0J70000D01*
G01*
G37*
G04 #@! TD.AperFunction*
G04 #@! TO.P,R40,2*
G04 #@! TO.N,PIN114*
G04 #@! TA.AperFunction,SMDPad,CuDef*
G36*
G01*
X18520000Y45957138D02*
X18520000Y46737138D01*
G75*
G02*
X18590000Y46807138I70000J0D01*
G01*
X19150000Y46807138D01*
G75*
G02*
X19220000Y46737138I0J-70000D01*
G01*
X19220000Y45957138D01*
G75*
G02*
X19150000Y45887138I-70000J0D01*
G01*
X18590000Y45887138D01*
G75*
G02*
X18520000Y45957138I0J70000D01*
G01*
G37*
G04 #@! TD.AperFunction*
G04 #@! TD*
G04 #@! TO.P,R11,1*
G04 #@! TO.N,PIN113*
G04 #@! TA.AperFunction,SMDPad,CuDef*
G36*
G01*
X13620000Y55717020D02*
X13620000Y56967020D01*
G75*
G02*
X13720000Y57067020I100000J0D01*
G01*
X14520000Y57067020D01*
G75*
G02*
X14620000Y56967020I0J-100000D01*
G01*
X14620000Y55717020D01*
G75*
G02*
X14520000Y55617020I-100000J0D01*
G01*
X13720000Y55617020D01*
G75*
G02*
X13620000Y55717020I0J100000D01*
G01*
G37*
G04 #@! TD.AperFunction*
G04 #@! TO.P,R11,2*
G04 #@! TO.N,PIN85*
G04 #@! TA.AperFunction,SMDPad,CuDef*
G36*
G01*
X15520022Y55717020D02*
X15520022Y56967020D01*
G75*
G02*
X15620022Y57067020I100000J0D01*
G01*
X16420022Y57067020D01*
G75*
G02*
X16520022Y56967020I0J-100000D01*
G01*
X16520022Y55717020D01*
G75*
G02*
X16420022Y55617020I-100000J0D01*
G01*
X15620022Y55617020D01*
G75*
G02*
X15520022Y55717020I0J100000D01*
G01*
G37*
G04 #@! TD.AperFunction*
G04 #@! TD*
G04 #@! TO.P,L1,1,1*
G04 #@! TO.N,PIN21*
G04 #@! TA.AperFunction,SMDPad,CuDef*
G36*
G01*
X92280000Y36268750D02*
X92280000Y36781250D01*
G75*
G02*
X92498750Y37000000I218750J0D01*
G01*
X92936250Y37000000D01*
G75*
G02*
X93155000Y36781250I0J-218750D01*
G01*
X93155000Y36268750D01*
G75*
G02*
X92936250Y36050000I-218750J0D01*
G01*
X92498750Y36050000D01*
G75*
G02*
X92280000Y36268750I0J218750D01*
G01*
G37*
G04 #@! TD.AperFunction*
G04 #@! TO.P,L1,2,2*
G04 #@! TO.N,Net-(U8-T+)*
G04 #@! TA.AperFunction,SMDPad,CuDef*
G36*
G01*
X93855000Y36268750D02*
X93855000Y36781250D01*
G75*
G02*
X94073750Y37000000I218750J0D01*
G01*
X94511250Y37000000D01*
G75*
G02*
X94730000Y36781250I0J-218750D01*
G01*
X94730000Y36268750D01*
G75*
G02*
X94511250Y36050000I-218750J0D01*
G01*
X94073750Y36050000D01*
G75*
G02*
X93855000Y36268750I0J218750D01*
G01*
G37*
G04 #@! TD.AperFunction*
G04 #@! TD*
G04 #@! TO.P,F1,1,1*
G04 #@! TO.N,PIN108*
X27290000Y66043733D03*
G04 #@! TA.AperFunction,SMDPad,CuDef*
G36*
G01*
X28634990Y65143733D02*
X27944990Y65143733D01*
G75*
G02*
X27714990Y65373733I0J230000D01*
G01*
X27714990Y66713733D01*
G75*
G02*
X27944990Y66943733I230000J0D01*
G01*
X28634990Y66943733D01*
G75*
G02*
X28864990Y66713733I0J-230000D01*
G01*
X28864990Y65373733D01*
G75*
G02*
X28634990Y65143733I-230000J0D01*
G01*
G37*
G04 #@! TD.AperFunction*
G04 #@! TO.P,F1,2,2*
G04 #@! TO.N,/IN_VIGN*
G04 #@! TA.AperFunction,SMDPad,CuDef*
G36*
G01*
X31535010Y65143733D02*
X30845010Y65143733D01*
G75*
G02*
X30615010Y65373733I0J230000D01*
G01*
X30615010Y66713733D01*
G75*
G02*
X30845010Y66943733I230000J0D01*
G01*
X31535010Y66943733D01*
G75*
G02*
X31765010Y66713733I0J-230000D01*
G01*
X31765010Y65373733D01*
G75*
G02*
X31535010Y65143733I-230000J0D01*
G01*
G37*
G04 #@! TD.AperFunction*
X32190000Y66043733D03*
G04 #@! TD*
G04 #@! TO.P,R42,1*
G04 #@! TO.N,/INJ3*
G04 #@! TA.AperFunction,SMDPad,CuDef*
G36*
G01*
X16920000Y42059046D02*
X16920000Y42839046D01*
G75*
G02*
X16990000Y42909046I70000J0D01*
G01*
X17550000Y42909046D01*
G75*
G02*
X17620000Y42839046I0J-70000D01*
G01*
X17620000Y42059046D01*
G75*
G02*
X17550000Y41989046I-70000J0D01*
G01*
X16990000Y41989046D01*
G75*
G02*
X16920000Y42059046I0J70000D01*
G01*
G37*
G04 #@! TD.AperFunction*
G04 #@! TO.P,R42,2*
G04 #@! TO.N,Net-(U4-IN1)*
G04 #@! TA.AperFunction,SMDPad,CuDef*
G36*
G01*
X18520000Y42059046D02*
X18520000Y42839046D01*
G75*
G02*
X18590000Y42909046I70000J0D01*
G01*
X19150000Y42909046D01*
G75*
G02*
X19220000Y42839046I0J-70000D01*
G01*
X19220000Y42059046D01*
G75*
G02*
X19150000Y41989046I-70000J0D01*
G01*
X18590000Y41989046D01*
G75*
G02*
X18520000Y42059046I0J70000D01*
G01*
G37*
G04 #@! TD.AperFunction*
G04 #@! TD*
G04 #@! TO.P,Q1,1,G*
G04 #@! TO.N,Net-(Q1-G)*
G04 #@! TA.AperFunction,SMDPad,CuDef*
G36*
G01*
X58985000Y70440000D02*
X58985000Y71140000D01*
G75*
G02*
X59235000Y71390000I250000J0D01*
G01*
X60935000Y71390000D01*
G75*
G02*
X61185000Y71140000I0J-250000D01*
G01*
X61185000Y70440000D01*
G75*
G02*
X60935000Y70190000I-250000J0D01*
G01*
X59235000Y70190000D01*
G75*
G02*
X58985000Y70440000I0J250000D01*
G01*
G37*
G04 #@! TD.AperFunction*
G04 #@! TO.P,Q1,2,C*
G04 #@! TO.N,PIN13*
G04 #@! TA.AperFunction,SMDPad,CuDef*
G36*
G01*
X63185000Y68910000D02*
X63185000Y71160000D01*
G75*
G02*
X63435000Y71410000I250000J0D01*
G01*
X65985000Y71410000D01*
G75*
G02*
X66235000Y71160000I0J-250000D01*
G01*
X66235000Y68910000D01*
G75*
G02*
X65985000Y68660000I-250000J0D01*
G01*
X63435000Y68660000D01*
G75*
G02*
X63185000Y68910000I0J250000D01*
G01*
G37*
G04 #@! TD.AperFunction*
G04 #@! TA.AperFunction,SMDPad,CuDef*
G36*
G01*
X63185000Y65860000D02*
X63185000Y68110000D01*
G75*
G02*
X63435000Y68360000I250000J0D01*
G01*
X65985000Y68360000D01*
G75*
G02*
X66235000Y68110000I0J-250000D01*
G01*
X66235000Y65860000D01*
G75*
G02*
X65985000Y65610000I-250000J0D01*
G01*
X63435000Y65610000D01*
G75*
G02*
X63185000Y65860000I0J250000D01*
G01*
G37*
G04 #@! TD.AperFunction*
G04 #@! TA.AperFunction,SMDPad,CuDef*
G36*
G01*
X63185000Y65859997D02*
X63185000Y71160003D01*
G75*
G02*
X63434997Y71410000I249997J0D01*
G01*
X69335003Y71410000D01*
G75*
G02*
X69585000Y71160003I0J-249997D01*
G01*
X69585000Y65859997D01*
G75*
G02*
X69335003Y65610000I-249997J0D01*
G01*
X63434997Y65610000D01*
G75*
G02*
X63185000Y65859997I0J249997D01*
G01*
G37*
G04 #@! TD.AperFunction*
G04 #@! TA.AperFunction,SMDPad,CuDef*
G36*
G01*
X66535000Y68910000D02*
X66535000Y71160000D01*
G75*
G02*
X66785000Y71410000I250000J0D01*
G01*
X69335000Y71410000D01*
G75*
G02*
X69585000Y71160000I0J-250000D01*
G01*
X69585000Y68910000D01*
G75*
G02*
X69335000Y68660000I-250000J0D01*
G01*
X66785000Y68660000D01*
G75*
G02*
X66535000Y68910000I0J250000D01*
G01*
G37*
G04 #@! TD.AperFunction*
G04 #@! TA.AperFunction,SMDPad,CuDef*
G36*
G01*
X66535000Y65860000D02*
X66535000Y68110000D01*
G75*
G02*
X66785000Y68360000I250000J0D01*
G01*
X69335000Y68360000D01*
G75*
G02*
X69585000Y68110000I0J-250000D01*
G01*
X69585000Y65860000D01*
G75*
G02*
X69335000Y65610000I-250000J0D01*
G01*
X66785000Y65610000D01*
G75*
G02*
X66535000Y65860000I0J250000D01*
G01*
G37*
G04 #@! TD.AperFunction*
G04 #@! TO.P,Q1,3,E*
G04 #@! TO.N,PIN114*
G04 #@! TA.AperFunction,SMDPad,CuDef*
G36*
G01*
X58985000Y65880000D02*
X58985000Y66580000D01*
G75*
G02*
X59235000Y66830000I250000J0D01*
G01*
X60935000Y66830000D01*
G75*
G02*
X61185000Y66580000I0J-250000D01*
G01*
X61185000Y65880000D01*
G75*
G02*
X60935000Y65630000I-250000J0D01*
G01*
X59235000Y65630000D01*
G75*
G02*
X58985000Y65880000I0J250000D01*
G01*
G37*
G04 #@! TD.AperFunction*
G04 #@! TD*
D22*
G04 #@! TO.P,M5,E1,LSU_Un*
G04 #@! TO.N,PIN105*
X135500003Y34050000D03*
G04 #@! TO.P,M5,E2,LSU_Vm*
G04 #@! TO.N,PIN104*
X135500003Y37050000D03*
G04 #@! TO.P,M5,E3,LSU_Ip*
G04 #@! TO.N,PIN103*
X135500003Y36050000D03*
G04 #@! TO.P,M5,E4,LSU_Rtrim*
G04 #@! TO.N,PIN102*
X135500003Y35050000D03*
D23*
G04 #@! TO.P,M5,E5,LSU_H+*
G04 #@! TO.N,PIN119*
X134250003Y39200000D03*
D24*
G04 #@! TO.P,M5,E6,LSU_H-*
G04 #@! TO.N,PIN114*
X135875003Y42700000D03*
D25*
G04 #@! TO.P,M5,G,GND*
X108525003Y45900000D03*
D26*
X108525003Y41560000D03*
X108525003Y38260000D03*
D27*
X108525003Y33175000D03*
D28*
X122200003Y46325000D03*
X122200003Y32575000D03*
D29*
X135875003Y45475000D03*
D30*
X135875003Y32925000D03*
G04 #@! TO.P,M5,J1,SEL1*
G04 #@! TO.N,Net-(M5-PULL_DOWN1)*
G04 #@! TA.AperFunction,SMDPad,CuDef*
G36*
G01*
X117950003Y45300000D02*
X117950003Y44050000D01*
G75*
G02*
X117825003Y43925000I-125000J0D01*
G01*
X117575003Y43925000D01*
G75*
G02*
X117450003Y44050000I0J125000D01*
G01*
X117450003Y45300000D01*
G75*
G02*
X117575003Y45425000I125000J0D01*
G01*
X117825003Y45425000D01*
G75*
G02*
X117950003Y45300000I0J-125000D01*
G01*
G37*
G04 #@! TD.AperFunction*
G04 #@! TO.P,M5,J2,SEL2*
G04 #@! TO.N,unconnected-(M5-SEL2-PadJ2)*
G04 #@! TA.AperFunction,SMDPad,CuDef*
G36*
G01*
X116275003Y42625000D02*
X116275003Y42375000D01*
G75*
G02*
X116150003Y42250000I-125000J0D01*
G01*
X114900003Y42250000D01*
G75*
G02*
X114775003Y42375000I0J125000D01*
G01*
X114775003Y42625000D01*
G75*
G02*
X114900003Y42750000I125000J0D01*
G01*
X116150003Y42750000D01*
G75*
G02*
X116275003Y42625000I0J-125000D01*
G01*
G37*
G04 #@! TD.AperFunction*
G04 #@! TO.P,M5,J_GND1,PULL_DOWN1*
G04 #@! TO.N,Net-(M5-PULL_DOWN1)*
G04 #@! TA.AperFunction,SMDPad,CuDef*
G36*
G01*
X117150003Y45300000D02*
X117150003Y44050000D01*
G75*
G02*
X117025003Y43925000I-125000J0D01*
G01*
X116775003Y43925000D01*
G75*
G02*
X116650003Y44050000I0J125000D01*
G01*
X116650003Y45300000D01*
G75*
G02*
X116775003Y45425000I125000J0D01*
G01*
X117025003Y45425000D01*
G75*
G02*
X117150003Y45300000I0J-125000D01*
G01*
G37*
G04 #@! TD.AperFunction*
G04 #@! TO.P,M5,J_GND2,PULL_DOWN2*
G04 #@! TO.N,unconnected-(M5-PULL_DOWN2-PadJ_GND2)*
G04 #@! TA.AperFunction,SMDPad,CuDef*
G36*
G01*
X116825003Y42750000D02*
X117075003Y42750000D01*
G75*
G02*
X117200003Y42625000I0J-125000D01*
G01*
X117200003Y42375000D01*
G75*
G02*
X117075003Y42250000I-125000J0D01*
G01*
X116825003Y42250000D01*
G75*
G02*
X116700003Y42375000I0J125000D01*
G01*
X116700003Y42625000D01*
G75*
G02*
X116825003Y42750000I125000J0D01*
G01*
G37*
G04 #@! TD.AperFunction*
G04 #@! TO.P,M5,J_VCC1,PULL_UP1*
G04 #@! TO.N,unconnected-(M5-PULL_UP1-PadJ_VCC1)*
G04 #@! TA.AperFunction,SMDPad,CuDef*
G36*
G01*
X117950003Y43425000D02*
X117950003Y43175000D01*
G75*
G02*
X117825003Y43050000I-125000J0D01*
G01*
X117575003Y43050000D01*
G75*
G02*
X117450003Y43175000I0J125000D01*
G01*
X117450003Y43425000D01*
G75*
G02*
X117575003Y43550000I125000J0D01*
G01*
X117825003Y43550000D01*
G75*
G02*
X117950003Y43425000I0J-125000D01*
G01*
G37*
G04 #@! TD.AperFunction*
G04 #@! TO.P,M5,J_VCC2,PULL_UP2*
G04 #@! TO.N,unconnected-(M5-PULL_UP2-PadJ_VCC2)*
G04 #@! TA.AperFunction,SMDPad,CuDef*
G36*
G01*
X116275003Y43425000D02*
X116275003Y43175000D01*
G75*
G02*
X116150003Y43050000I-125000J0D01*
G01*
X114900003Y43050000D01*
G75*
G02*
X114775003Y43175000I0J125000D01*
G01*
X114775003Y43425000D01*
G75*
G02*
X114900003Y43550000I125000J0D01*
G01*
X116150003Y43550000D01*
G75*
G02*
X116275003Y43425000I0J-125000D01*
G01*
G37*
G04 #@! TD.AperFunction*
D22*
G04 #@! TO.P,M5,W1,V5_IN*
G04 #@! TO.N,+5VA*
X108908803Y43700000D03*
G04 #@! TO.P,M5,W2,CAN_VIO*
G04 #@! TO.N,unconnected-(M5-CAN_VIO-PadW2)*
X108908803Y42700000D03*
G04 #@! TO.P,M5,W3,CANL*
G04 #@! TO.N,PIN83*
X108908803Y39404000D03*
G04 #@! TO.P,M5,W4,CANH*
G04 #@! TO.N,PIN82*
X108908803Y40420000D03*
G04 #@! TO.P,M5,W5,nReset*
G04 #@! TO.N,unconnected-(M5-nReset-PadW5)*
G04 #@! TA.AperFunction,SMDPad,CuDef*
G36*
G01*
X108400003Y37400000D02*
X108400003Y37400000D01*
G75*
G02*
X108525003Y37525000I125000J0D01*
G01*
X108775003Y37525000D01*
G75*
G02*
X108900003Y37400000I0J-125000D01*
G01*
X108900003Y37400000D01*
G75*
G02*
X108775003Y37275000I-125000J0D01*
G01*
X108525003Y37275000D01*
G75*
G02*
X108400003Y37400000I0J125000D01*
G01*
G37*
G04 #@! TD.AperFunction*
G04 #@! TO.P,M5,W6,SWDIO*
G04 #@! TO.N,unconnected-(M5-SWDIO-PadW6)*
G04 #@! TA.AperFunction,SMDPad,CuDef*
G36*
G01*
X108400003Y36900000D02*
X108400003Y36900000D01*
G75*
G02*
X108525003Y37025000I125000J0D01*
G01*
X108775003Y37025000D01*
G75*
G02*
X108900003Y36900000I0J-125000D01*
G01*
X108900003Y36900000D01*
G75*
G02*
X108775003Y36775000I-125000J0D01*
G01*
X108525003Y36775000D01*
G75*
G02*
X108400003Y36900000I0J125000D01*
G01*
G37*
G04 #@! TD.AperFunction*
G04 #@! TO.P,M5,W7,SWCLK*
G04 #@! TO.N,unconnected-(M5-SWCLK-PadW7)*
G04 #@! TA.AperFunction,SMDPad,CuDef*
G36*
G01*
X108400003Y36400000D02*
X108400003Y36400000D01*
G75*
G02*
X108525003Y36525000I125000J0D01*
G01*
X108775003Y36525000D01*
G75*
G02*
X108900003Y36400000I0J-125000D01*
G01*
X108900003Y36400000D01*
G75*
G02*
X108775003Y36275000I-125000J0D01*
G01*
X108525003Y36275000D01*
G75*
G02*
X108400003Y36400000I0J125000D01*
G01*
G37*
G04 #@! TD.AperFunction*
G04 #@! TO.P,M5,W8,V33_OUT*
G04 #@! TO.N,unconnected-(M5-V33_OUT-PadW8)*
G04 #@! TA.AperFunction,SMDPad,CuDef*
G36*
G01*
X108400003Y34300000D02*
X108400003Y34300000D01*
G75*
G02*
X108525003Y34425000I125000J0D01*
G01*
X108775003Y34425000D01*
G75*
G02*
X108900003Y34300000I0J-125000D01*
G01*
X108900003Y34300000D01*
G75*
G02*
X108775003Y34175000I-125000J0D01*
G01*
X108525003Y34175000D01*
G75*
G02*
X108400003Y34300000I0J125000D01*
G01*
G37*
G04 #@! TD.AperFunction*
G04 #@! TO.P,M5,W9,VDDA*
G04 #@! TO.N,unconnected-(M5-VDDA-PadW9)*
X108908803Y44700000D03*
G04 #@! TD*
G04 #@! TO.P,U2,1,IN1*
G04 #@! TO.N,Net-(U2-IN1)*
G04 #@! TA.AperFunction,SMDPad,CuDef*
G36*
G01*
X81825000Y36180000D02*
X81825000Y36480000D01*
G75*
G02*
X81975000Y36630000I150000J0D01*
G01*
X83625000Y36630000D01*
G75*
G02*
X83775000Y36480000I0J-150000D01*
G01*
X83775000Y36180000D01*
G75*
G02*
X83625000Y36030000I-150000J0D01*
G01*
X81975000Y36030000D01*
G75*
G02*
X81825000Y36180000I0J150000D01*
G01*
G37*
G04 #@! TD.AperFunction*
G04 #@! TO.P,U2,2,STATUS1*
G04 #@! TO.N,unconnected-(U2-STATUS1-Pad2)*
G04 #@! TA.AperFunction,SMDPad,CuDef*
G36*
G01*
X81825000Y34910000D02*
X81825000Y35210000D01*
G75*
G02*
X81975000Y35360000I150000J0D01*
G01*
X83625000Y35360000D01*
G75*
G02*
X83775000Y35210000I0J-150000D01*
G01*
X83775000Y34910000D01*
G75*
G02*
X83625000Y34760000I-150000J0D01*
G01*
X81975000Y34760000D01*
G75*
G02*
X81825000Y34910000I0J150000D01*
G01*
G37*
G04 #@! TD.AperFunction*
G04 #@! TO.P,U2,3,IN2*
G04 #@! TO.N,Net-(U2-IN2)*
G04 #@! TA.AperFunction,SMDPad,CuDef*
G36*
G01*
X81825000Y33640000D02*
X81825000Y33940000D01*
G75*
G02*
X81975000Y34090000I150000J0D01*
G01*
X83625000Y34090000D01*
G75*
G02*
X83775000Y33940000I0J-150000D01*
G01*
X83775000Y33640000D01*
G75*
G02*
X83625000Y33490000I-150000J0D01*
G01*
X81975000Y33490000D01*
G75*
G02*
X81825000Y33640000I0J150000D01*
G01*
G37*
G04 #@! TD.AperFunction*
G04 #@! TO.P,U2,4,STATUS2*
G04 #@! TO.N,unconnected-(U2-STATUS2-Pad4)*
G04 #@! TA.AperFunction,SMDPad,CuDef*
G36*
G01*
X81825000Y32370000D02*
X81825000Y32670000D01*
G75*
G02*
X81975000Y32820000I150000J0D01*
G01*
X83625000Y32820000D01*
G75*
G02*
X83775000Y32670000I0J-150000D01*
G01*
X83775000Y32370000D01*
G75*
G02*
X83625000Y32220000I-150000J0D01*
G01*
X81975000Y32220000D01*
G75*
G02*
X81825000Y32370000I0J150000D01*
G01*
G37*
G04 #@! TD.AperFunction*
G04 #@! TO.P,U2,5,S2*
G04 #@! TO.N,PIN114*
G04 #@! TA.AperFunction,SMDPad,CuDef*
G36*
G01*
X86775000Y32370000D02*
X86775000Y32670000D01*
G75*
G02*
X86925000Y32820000I150000J0D01*
G01*
X88575000Y32820000D01*
G75*
G02*
X88725000Y32670000I0J-150000D01*
G01*
X88725000Y32370000D01*
G75*
G02*
X88575000Y32220000I-150000J0D01*
G01*
X86925000Y32220000D01*
G75*
G02*
X86775000Y32370000I0J150000D01*
G01*
G37*
G04 #@! TD.AperFunction*
G04 #@! TO.P,U2,6,D2*
G04 #@! TO.N,PIN88*
G04 #@! TA.AperFunction,SMDPad,CuDef*
G36*
G01*
X86775000Y33640000D02*
X86775000Y33940000D01*
G75*
G02*
X86925000Y34090000I150000J0D01*
G01*
X88575000Y34090000D01*
G75*
G02*
X88725000Y33940000I0J-150000D01*
G01*
X88725000Y33640000D01*
G75*
G02*
X88575000Y33490000I-150000J0D01*
G01*
X86925000Y33490000D01*
G75*
G02*
X86775000Y33640000I0J150000D01*
G01*
G37*
G04 #@! TD.AperFunction*
G04 #@! TO.P,U2,7,S1*
G04 #@! TO.N,PIN114*
G04 #@! TA.AperFunction,SMDPad,CuDef*
G36*
G01*
X86775000Y34910000D02*
X86775000Y35210000D01*
G75*
G02*
X86925000Y35360000I150000J0D01*
G01*
X88575000Y35360000D01*
G75*
G02*
X88725000Y35210000I0J-150000D01*
G01*
X88725000Y34910000D01*
G75*
G02*
X88575000Y34760000I-150000J0D01*
G01*
X86925000Y34760000D01*
G75*
G02*
X86775000Y34910000I0J150000D01*
G01*
G37*
G04 #@! TD.AperFunction*
G04 #@! TO.P,U2,8,D1*
G04 #@! TO.N,PIN16*
G04 #@! TA.AperFunction,SMDPad,CuDef*
G36*
G01*
X86775000Y36180000D02*
X86775000Y36480000D01*
G75*
G02*
X86925000Y36630000I150000J0D01*
G01*
X88575000Y36630000D01*
G75*
G02*
X88725000Y36480000I0J-150000D01*
G01*
X88725000Y36180000D01*
G75*
G02*
X88575000Y36030000I-150000J0D01*
G01*
X86925000Y36030000D01*
G75*
G02*
X86775000Y36180000I0J150000D01*
G01*
G37*
G04 #@! TD.AperFunction*
G04 #@! TD*
D31*
G04 #@! TO.P,M3,E1,Thresh_IN*
G04 #@! TO.N,/VR_DISCRETE_THR*
X158400003Y80850000D03*
G04 #@! TO.P,M3,E2,OUT_A*
G04 #@! TO.N,/VR_DISCRETE_A*
X158400003Y79650000D03*
G04 #@! TO.P,M3,E3,OUT*
G04 #@! TO.N,/VR_DISCRETE*
X158400003Y82050000D03*
G04 #@! TO.P,M3,E4,V5_IN*
G04 #@! TO.N,+5VA*
X158400003Y83250000D03*
D32*
G04 #@! TO.P,M3,G,GND*
G04 #@! TO.N,PIN114*
X143750003Y80582500D03*
D33*
X143750003Y74532500D03*
D34*
X150762503Y83550000D03*
D35*
X151175003Y74100000D03*
D36*
X158600003Y76562500D03*
D31*
G04 #@! TO.P,M3,W1,VR-*
G04 #@! TO.N,PIN18*
X143975003Y76790000D03*
G04 #@! TO.P,M3,W2,VR+*
G04 #@! TO.N,PIN17*
X143975003Y75790000D03*
G04 #@! TD*
G04 #@! TO.P,R52,1*
G04 #@! TO.N,/LS_HOT1*
G04 #@! TA.AperFunction,SMDPad,CuDef*
G36*
G01*
X36250000Y42059046D02*
X36250000Y42839046D01*
G75*
G02*
X36320000Y42909046I70000J0D01*
G01*
X36880000Y42909046D01*
G75*
G02*
X36950000Y42839046I0J-70000D01*
G01*
X36950000Y42059046D01*
G75*
G02*
X36880000Y41989046I-70000J0D01*
G01*
X36320000Y41989046D01*
G75*
G02*
X36250000Y42059046I0J70000D01*
G01*
G37*
G04 #@! TD.AperFunction*
G04 #@! TO.P,R52,2*
G04 #@! TO.N,Net-(U7-IN2)*
G04 #@! TA.AperFunction,SMDPad,CuDef*
G36*
G01*
X37850000Y42059046D02*
X37850000Y42839046D01*
G75*
G02*
X37920000Y42909046I70000J0D01*
G01*
X38480000Y42909046D01*
G75*
G02*
X38550000Y42839046I0J-70000D01*
G01*
X38550000Y42059046D01*
G75*
G02*
X38480000Y41989046I-70000J0D01*
G01*
X37920000Y41989046D01*
G75*
G02*
X37850000Y42059046I0J70000D01*
G01*
G37*
G04 #@! TD.AperFunction*
G04 #@! TD*
G04 #@! TO.P,Q7,1,G*
G04 #@! TO.N,Net-(M6-LED_GREEN)*
G04 #@! TA.AperFunction,SMDPad,CuDef*
G36*
G01*
X104420000Y64130000D02*
X104420000Y64430000D01*
G75*
G02*
X104570000Y64580000I150000J0D01*
G01*
X105745000Y64580000D01*
G75*
G02*
X105895000Y64430000I0J-150000D01*
G01*
X105895000Y64130000D01*
G75*
G02*
X105745000Y63980000I-150000J0D01*
G01*
X104570000Y63980000D01*
G75*
G02*
X104420000Y64130000I0J150000D01*
G01*
G37*
G04 #@! TD.AperFunction*
G04 #@! TO.P,Q7,2,S*
G04 #@! TO.N,PIN114*
G04 #@! TA.AperFunction,SMDPad,CuDef*
G36*
G01*
X104420000Y62230000D02*
X104420000Y62530000D01*
G75*
G02*
X104570000Y62680000I150000J0D01*
G01*
X105745000Y62680000D01*
G75*
G02*
X105895000Y62530000I0J-150000D01*
G01*
X105895000Y62230000D01*
G75*
G02*
X105745000Y62080000I-150000J0D01*
G01*
X104570000Y62080000D01*
G75*
G02*
X104420000Y62230000I0J150000D01*
G01*
G37*
G04 #@! TD.AperFunction*
G04 #@! TO.P,Q7,3,D*
G04 #@! TO.N,Net-(Q7-D)*
G04 #@! TA.AperFunction,SMDPad,CuDef*
G36*
G01*
X106295000Y63180000D02*
X106295000Y63480000D01*
G75*
G02*
X106445000Y63630000I150000J0D01*
G01*
X107620000Y63630000D01*
G75*
G02*
X107770000Y63480000I0J-150000D01*
G01*
X107770000Y63180000D01*
G75*
G02*
X107620000Y63030000I-150000J0D01*
G01*
X106445000Y63030000D01*
G75*
G02*
X106295000Y63180000I0J150000D01*
G01*
G37*
G04 #@! TD.AperFunction*
G04 #@! TD*
G04 #@! TO.P,R8,1*
G04 #@! TO.N,PIN85*
G04 #@! TA.AperFunction,SMDPad,CuDef*
G36*
G01*
X13620000Y63225804D02*
X13620000Y64475804D01*
G75*
G02*
X13720000Y64575804I100000J0D01*
G01*
X14520000Y64575804D01*
G75*
G02*
X14620000Y64475804I0J-100000D01*
G01*
X14620000Y63225804D01*
G75*
G02*
X14520000Y63125804I-100000J0D01*
G01*
X13720000Y63125804D01*
G75*
G02*
X13620000Y63225804I0J100000D01*
G01*
G37*
G04 #@! TD.AperFunction*
G04 #@! TO.P,R8,2*
G04 #@! TO.N,+5VA*
G04 #@! TA.AperFunction,SMDPad,CuDef*
G36*
G01*
X15520022Y63225804D02*
X15520022Y64475804D01*
G75*
G02*
X15620022Y64575804I100000J0D01*
G01*
X16420022Y64575804D01*
G75*
G02*
X16520022Y64475804I0J-100000D01*
G01*
X16520022Y63225804D01*
G75*
G02*
X16420022Y63125804I-100000J0D01*
G01*
X15620022Y63125804D01*
G75*
G02*
X15520022Y63225804I0J100000D01*
G01*
G37*
G04 #@! TD.AperFunction*
G04 #@! TD*
G04 #@! TO.P,J21,1,Pin_1*
G04 #@! TO.N,/VBUS*
G04 #@! TA.AperFunction,ComponentPad*
G36*
G01*
X94125000Y67880000D02*
X94125000Y69230000D01*
G75*
G02*
X94375000Y69480000I250000J0D01*
G01*
X95575000Y69480000D01*
G75*
G02*
X95825000Y69230000I0J-250000D01*
G01*
X95825000Y67880000D01*
G75*
G02*
X95575000Y67630000I-250000J0D01*
G01*
X94375000Y67630000D01*
G75*
G02*
X94125000Y67880000I0J250000D01*
G01*
G37*
G04 #@! TD.AperFunction*
D37*
G04 #@! TO.P,J21,2,Pin_2*
G04 #@! TO.N,/USB-*
X97475000Y68555000D03*
G04 #@! TO.P,J21,3,Pin_3*
G04 #@! TO.N,/USB+*
X99975000Y68555000D03*
G04 #@! TO.P,J21,4,Pin_4*
G04 #@! TO.N,PIN114*
X102475000Y68555000D03*
G04 #@! TO.P,J21,5,Pin_5*
X104975000Y68555000D03*
G04 #@! TD*
G04 #@! TO.P,R2,1*
G04 #@! TO.N,/IN_VMAIN*
G04 #@! TA.AperFunction,SMDPad,CuDef*
G36*
G01*
X17520000Y64288092D02*
X17520000Y65068092D01*
G75*
G02*
X17590000Y65138092I70000J0D01*
G01*
X18150000Y65138092D01*
G75*
G02*
X18220000Y65068092I0J-70000D01*
G01*
X18220000Y64288092D01*
G75*
G02*
X18150000Y64218092I-70000J0D01*
G01*
X17590000Y64218092D01*
G75*
G02*
X17520000Y64288092I0J70000D01*
G01*
G37*
G04 #@! TD.AperFunction*
G04 #@! TO.P,R2,2*
G04 #@! TO.N,PIN120*
G04 #@! TA.AperFunction,SMDPad,CuDef*
G36*
G01*
X19120000Y64288092D02*
X19120000Y65068092D01*
G75*
G02*
X19190000Y65138092I70000J0D01*
G01*
X19750000Y65138092D01*
G75*
G02*
X19820000Y65068092I0J-70000D01*
G01*
X19820000Y64288092D01*
G75*
G02*
X19750000Y64218092I-70000J0D01*
G01*
X19190000Y64218092D01*
G75*
G02*
X19120000Y64288092I0J70000D01*
G01*
G37*
G04 #@! TD.AperFunction*
G04 #@! TD*
G04 #@! TO.P,U3,1,IN1*
G04 #@! TO.N,Net-(U3-IN1)*
G04 #@! TA.AperFunction,SMDPad,CuDef*
G36*
G01*
X81825000Y71080000D02*
X81825000Y71380000D01*
G75*
G02*
X81975000Y71530000I150000J0D01*
G01*
X83625000Y71530000D01*
G75*
G02*
X83775000Y71380000I0J-150000D01*
G01*
X83775000Y71080000D01*
G75*
G02*
X83625000Y70930000I-150000J0D01*
G01*
X81975000Y70930000D01*
G75*
G02*
X81825000Y71080000I0J150000D01*
G01*
G37*
G04 #@! TD.AperFunction*
G04 #@! TO.P,U3,2,STATUS1*
G04 #@! TO.N,unconnected-(U3-STATUS1-Pad2)*
G04 #@! TA.AperFunction,SMDPad,CuDef*
G36*
G01*
X81825000Y69810000D02*
X81825000Y70110000D01*
G75*
G02*
X81975000Y70260000I150000J0D01*
G01*
X83625000Y70260000D01*
G75*
G02*
X83775000Y70110000I0J-150000D01*
G01*
X83775000Y69810000D01*
G75*
G02*
X83625000Y69660000I-150000J0D01*
G01*
X81975000Y69660000D01*
G75*
G02*
X81825000Y69810000I0J150000D01*
G01*
G37*
G04 #@! TD.AperFunction*
G04 #@! TO.P,U3,3,IN2*
G04 #@! TO.N,Net-(U3-IN2)*
G04 #@! TA.AperFunction,SMDPad,CuDef*
G36*
G01*
X81825000Y68540000D02*
X81825000Y68840000D01*
G75*
G02*
X81975000Y68990000I150000J0D01*
G01*
X83625000Y68990000D01*
G75*
G02*
X83775000Y68840000I0J-150000D01*
G01*
X83775000Y68540000D01*
G75*
G02*
X83625000Y68390000I-150000J0D01*
G01*
X81975000Y68390000D01*
G75*
G02*
X81825000Y68540000I0J150000D01*
G01*
G37*
G04 #@! TD.AperFunction*
G04 #@! TO.P,U3,4,STATUS2*
G04 #@! TO.N,unconnected-(U3-STATUS2-Pad4)*
G04 #@! TA.AperFunction,SMDPad,CuDef*
G36*
G01*
X81825000Y67270000D02*
X81825000Y67570000D01*
G75*
G02*
X81975000Y67720000I150000J0D01*
G01*
X83625000Y67720000D01*
G75*
G02*
X83775000Y67570000I0J-150000D01*
G01*
X83775000Y67270000D01*
G75*
G02*
X83625000Y67120000I-150000J0D01*
G01*
X81975000Y67120000D01*
G75*
G02*
X81825000Y67270000I0J150000D01*
G01*
G37*
G04 #@! TD.AperFunction*
G04 #@! TO.P,U3,5,S2*
G04 #@! TO.N,PIN114*
G04 #@! TA.AperFunction,SMDPad,CuDef*
G36*
G01*
X86775000Y67270000D02*
X86775000Y67570000D01*
G75*
G02*
X86925000Y67720000I150000J0D01*
G01*
X88575000Y67720000D01*
G75*
G02*
X88725000Y67570000I0J-150000D01*
G01*
X88725000Y67270000D01*
G75*
G02*
X88575000Y67120000I-150000J0D01*
G01*
X86925000Y67120000D01*
G75*
G02*
X86775000Y67270000I0J150000D01*
G01*
G37*
G04 #@! TD.AperFunction*
G04 #@! TO.P,U3,6,D2*
G04 #@! TO.N,PIN51*
G04 #@! TA.AperFunction,SMDPad,CuDef*
G36*
G01*
X86775000Y68540000D02*
X86775000Y68840000D01*
G75*
G02*
X86925000Y68990000I150000J0D01*
G01*
X88575000Y68990000D01*
G75*
G02*
X88725000Y68840000I0J-150000D01*
G01*
X88725000Y68540000D01*
G75*
G02*
X88575000Y68390000I-150000J0D01*
G01*
X86925000Y68390000D01*
G75*
G02*
X86775000Y68540000I0J150000D01*
G01*
G37*
G04 #@! TD.AperFunction*
G04 #@! TO.P,U3,7,S1*
G04 #@! TO.N,PIN114*
G04 #@! TA.AperFunction,SMDPad,CuDef*
G36*
G01*
X86775000Y69810000D02*
X86775000Y70110000D01*
G75*
G02*
X86925000Y70260000I150000J0D01*
G01*
X88575000Y70260000D01*
G75*
G02*
X88725000Y70110000I0J-150000D01*
G01*
X88725000Y69810000D01*
G75*
G02*
X88575000Y69660000I-150000J0D01*
G01*
X86925000Y69660000D01*
G75*
G02*
X86775000Y69810000I0J150000D01*
G01*
G37*
G04 #@! TD.AperFunction*
G04 #@! TO.P,U3,8,D1*
G04 #@! TO.N,PIN50*
G04 #@! TA.AperFunction,SMDPad,CuDef*
G36*
G01*
X86775000Y71080000D02*
X86775000Y71380000D01*
G75*
G02*
X86925000Y71530000I150000J0D01*
G01*
X88575000Y71530000D01*
G75*
G02*
X88725000Y71380000I0J-150000D01*
G01*
X88725000Y71080000D01*
G75*
G02*
X88575000Y70930000I-150000J0D01*
G01*
X86925000Y70930000D01*
G75*
G02*
X86775000Y71080000I0J150000D01*
G01*
G37*
G04 #@! TD.AperFunction*
G04 #@! TD*
G04 #@! TO.P,U7,1,IN1*
G04 #@! TO.N,Net-(U7-IN1)*
G04 #@! TA.AperFunction,SMDPad,CuDef*
G36*
G01*
X92275000Y29160000D02*
X92275000Y29460000D01*
G75*
G02*
X92425000Y29610000I150000J0D01*
G01*
X94075000Y29610000D01*
G75*
G02*
X94225000Y29460000I0J-150000D01*
G01*
X94225000Y29160000D01*
G75*
G02*
X94075000Y29010000I-150000J0D01*
G01*
X92425000Y29010000D01*
G75*
G02*
X92275000Y29160000I0J150000D01*
G01*
G37*
G04 #@! TD.AperFunction*
G04 #@! TO.P,U7,2,STATUS1*
G04 #@! TO.N,unconnected-(U7-STATUS1-Pad2)*
G04 #@! TA.AperFunction,SMDPad,CuDef*
G36*
G01*
X92275000Y27890000D02*
X92275000Y28190000D01*
G75*
G02*
X92425000Y28340000I150000J0D01*
G01*
X94075000Y28340000D01*
G75*
G02*
X94225000Y28190000I0J-150000D01*
G01*
X94225000Y27890000D01*
G75*
G02*
X94075000Y27740000I-150000J0D01*
G01*
X92425000Y27740000D01*
G75*
G02*
X92275000Y27890000I0J150000D01*
G01*
G37*
G04 #@! TD.AperFunction*
G04 #@! TO.P,U7,3,IN2*
G04 #@! TO.N,Net-(U7-IN2)*
G04 #@! TA.AperFunction,SMDPad,CuDef*
G36*
G01*
X92275000Y26620000D02*
X92275000Y26920000D01*
G75*
G02*
X92425000Y27070000I150000J0D01*
G01*
X94075000Y27070000D01*
G75*
G02*
X94225000Y26920000I0J-150000D01*
G01*
X94225000Y26620000D01*
G75*
G02*
X94075000Y26470000I-150000J0D01*
G01*
X92425000Y26470000D01*
G75*
G02*
X92275000Y26620000I0J150000D01*
G01*
G37*
G04 #@! TD.AperFunction*
G04 #@! TO.P,U7,4,STATUS2*
G04 #@! TO.N,unconnected-(U7-STATUS2-Pad4)*
G04 #@! TA.AperFunction,SMDPad,CuDef*
G36*
G01*
X92275000Y25350000D02*
X92275000Y25650000D01*
G75*
G02*
X92425000Y25800000I150000J0D01*
G01*
X94075000Y25800000D01*
G75*
G02*
X94225000Y25650000I0J-150000D01*
G01*
X94225000Y25350000D01*
G75*
G02*
X94075000Y25200000I-150000J0D01*
G01*
X92425000Y25200000D01*
G75*
G02*
X92275000Y25350000I0J150000D01*
G01*
G37*
G04 #@! TD.AperFunction*
G04 #@! TO.P,U7,5,S2*
G04 #@! TO.N,PIN114*
G04 #@! TA.AperFunction,SMDPad,CuDef*
G36*
G01*
X97225000Y25350000D02*
X97225000Y25650000D01*
G75*
G02*
X97375000Y25800000I150000J0D01*
G01*
X99025000Y25800000D01*
G75*
G02*
X99175000Y25650000I0J-150000D01*
G01*
X99175000Y25350000D01*
G75*
G02*
X99025000Y25200000I-150000J0D01*
G01*
X97375000Y25200000D01*
G75*
G02*
X97225000Y25350000I0J150000D01*
G01*
G37*
G04 #@! TD.AperFunction*
G04 #@! TO.P,U7,6,D2*
G04 #@! TO.N,PIN86*
G04 #@! TA.AperFunction,SMDPad,CuDef*
G36*
G01*
X97225000Y26620000D02*
X97225000Y26920000D01*
G75*
G02*
X97375000Y27070000I150000J0D01*
G01*
X99025000Y27070000D01*
G75*
G02*
X99175000Y26920000I0J-150000D01*
G01*
X99175000Y26620000D01*
G75*
G02*
X99025000Y26470000I-150000J0D01*
G01*
X97375000Y26470000D01*
G75*
G02*
X97225000Y26620000I0J150000D01*
G01*
G37*
G04 #@! TD.AperFunction*
G04 #@! TO.P,U7,7,S1*
G04 #@! TO.N,PIN114*
G04 #@! TA.AperFunction,SMDPad,CuDef*
G36*
G01*
X97225000Y27890000D02*
X97225000Y28190000D01*
G75*
G02*
X97375000Y28340000I150000J0D01*
G01*
X99025000Y28340000D01*
G75*
G02*
X99175000Y28190000I0J-150000D01*
G01*
X99175000Y27890000D01*
G75*
G02*
X99025000Y27740000I-150000J0D01*
G01*
X97375000Y27740000D01*
G75*
G02*
X97225000Y27890000I0J150000D01*
G01*
G37*
G04 #@! TD.AperFunction*
G04 #@! TO.P,U7,8,D1*
G04 #@! TO.N,PIN87*
G04 #@! TA.AperFunction,SMDPad,CuDef*
G36*
G01*
X97225000Y29160000D02*
X97225000Y29460000D01*
G75*
G02*
X97375000Y29610000I150000J0D01*
G01*
X99025000Y29610000D01*
G75*
G02*
X99175000Y29460000I0J-150000D01*
G01*
X99175000Y29160000D01*
G75*
G02*
X99025000Y29010000I-150000J0D01*
G01*
X97375000Y29010000D01*
G75*
G02*
X97225000Y29160000I0J150000D01*
G01*
G37*
G04 #@! TD.AperFunction*
G04 #@! TD*
G04 #@! TO.P,D4,1,K*
G04 #@! TO.N,PIN117*
G04 #@! TA.AperFunction,SMDPad,CuDef*
G36*
G01*
X21030000Y56173733D02*
X21030000Y57193733D01*
G75*
G02*
X21120000Y57283733I90000J0D01*
G01*
X21840000Y57283733D01*
G75*
G02*
X21930000Y57193733I0J-90000D01*
G01*
X21930000Y56173733D01*
G75*
G02*
X21840000Y56083733I-90000J0D01*
G01*
X21120000Y56083733D01*
G75*
G02*
X21030000Y56173733I0J90000D01*
G01*
G37*
G04 #@! TD.AperFunction*
G04 #@! TO.P,D4,2,A*
G04 #@! TO.N,PIN88*
G04 #@! TA.AperFunction,SMDPad,CuDef*
G36*
G01*
X24330000Y56173733D02*
X24330000Y57193733D01*
G75*
G02*
X24420000Y57283733I90000J0D01*
G01*
X25140000Y57283733D01*
G75*
G02*
X25230000Y57193733I0J-90000D01*
G01*
X25230000Y56173733D01*
G75*
G02*
X25140000Y56083733I-90000J0D01*
G01*
X24420000Y56083733D01*
G75*
G02*
X24330000Y56173733I0J90000D01*
G01*
G37*
G04 #@! TD.AperFunction*
G04 #@! TD*
G04 #@! TO.P,U4,1,IN1*
G04 #@! TO.N,Net-(U4-IN1)*
G04 #@! TA.AperFunction,SMDPad,CuDef*
G36*
G01*
X81825000Y64500000D02*
X81825000Y64800000D01*
G75*
G02*
X81975000Y64950000I150000J0D01*
G01*
X83625000Y64950000D01*
G75*
G02*
X83775000Y64800000I0J-150000D01*
G01*
X83775000Y64500000D01*
G75*
G02*
X83625000Y64350000I-150000J0D01*
G01*
X81975000Y64350000D01*
G75*
G02*
X81825000Y64500000I0J150000D01*
G01*
G37*
G04 #@! TD.AperFunction*
G04 #@! TO.P,U4,2,STATUS1*
G04 #@! TO.N,unconnected-(U4-STATUS1-Pad2)*
G04 #@! TA.AperFunction,SMDPad,CuDef*
G36*
G01*
X81825000Y63230000D02*
X81825000Y63530000D01*
G75*
G02*
X81975000Y63680000I150000J0D01*
G01*
X83625000Y63680000D01*
G75*
G02*
X83775000Y63530000I0J-150000D01*
G01*
X83775000Y63230000D01*
G75*
G02*
X83625000Y63080000I-150000J0D01*
G01*
X81975000Y63080000D01*
G75*
G02*
X81825000Y63230000I0J150000D01*
G01*
G37*
G04 #@! TD.AperFunction*
G04 #@! TO.P,U4,3,IN2*
G04 #@! TO.N,Net-(U4-IN2)*
G04 #@! TA.AperFunction,SMDPad,CuDef*
G36*
G01*
X81825000Y61960000D02*
X81825000Y62260000D01*
G75*
G02*
X81975000Y62410000I150000J0D01*
G01*
X83625000Y62410000D01*
G75*
G02*
X83775000Y62260000I0J-150000D01*
G01*
X83775000Y61960000D01*
G75*
G02*
X83625000Y61810000I-150000J0D01*
G01*
X81975000Y61810000D01*
G75*
G02*
X81825000Y61960000I0J150000D01*
G01*
G37*
G04 #@! TD.AperFunction*
G04 #@! TO.P,U4,4,STATUS2*
G04 #@! TO.N,unconnected-(U4-STATUS2-Pad4)*
G04 #@! TA.AperFunction,SMDPad,CuDef*
G36*
G01*
X81825000Y60690000D02*
X81825000Y60990000D01*
G75*
G02*
X81975000Y61140000I150000J0D01*
G01*
X83625000Y61140000D01*
G75*
G02*
X83775000Y60990000I0J-150000D01*
G01*
X83775000Y60690000D01*
G75*
G02*
X83625000Y60540000I-150000J0D01*
G01*
X81975000Y60540000D01*
G75*
G02*
X81825000Y60690000I0J150000D01*
G01*
G37*
G04 #@! TD.AperFunction*
G04 #@! TO.P,U4,5,S2*
G04 #@! TO.N,PIN114*
G04 #@! TA.AperFunction,SMDPad,CuDef*
G36*
G01*
X86775000Y60690000D02*
X86775000Y60990000D01*
G75*
G02*
X86925000Y61140000I150000J0D01*
G01*
X88575000Y61140000D01*
G75*
G02*
X88725000Y60990000I0J-150000D01*
G01*
X88725000Y60690000D01*
G75*
G02*
X88575000Y60540000I-150000J0D01*
G01*
X86925000Y60540000D01*
G75*
G02*
X86775000Y60690000I0J150000D01*
G01*
G37*
G04 #@! TD.AperFunction*
G04 #@! TO.P,U4,6,D2*
G04 #@! TO.N,PIN47*
G04 #@! TA.AperFunction,SMDPad,CuDef*
G36*
G01*
X86775000Y61960000D02*
X86775000Y62260000D01*
G75*
G02*
X86925000Y62410000I150000J0D01*
G01*
X88575000Y62410000D01*
G75*
G02*
X88725000Y62260000I0J-150000D01*
G01*
X88725000Y61960000D01*
G75*
G02*
X88575000Y61810000I-150000J0D01*
G01*
X86925000Y61810000D01*
G75*
G02*
X86775000Y61960000I0J150000D01*
G01*
G37*
G04 #@! TD.AperFunction*
G04 #@! TO.P,U4,7,S1*
G04 #@! TO.N,PIN114*
G04 #@! TA.AperFunction,SMDPad,CuDef*
G36*
G01*
X86775000Y63230000D02*
X86775000Y63530000D01*
G75*
G02*
X86925000Y63680000I150000J0D01*
G01*
X88575000Y63680000D01*
G75*
G02*
X88725000Y63530000I0J-150000D01*
G01*
X88725000Y63230000D01*
G75*
G02*
X88575000Y63080000I-150000J0D01*
G01*
X86925000Y63080000D01*
G75*
G02*
X86775000Y63230000I0J150000D01*
G01*
G37*
G04 #@! TD.AperFunction*
G04 #@! TO.P,U4,8,D1*
G04 #@! TO.N,PIN46*
G04 #@! TA.AperFunction,SMDPad,CuDef*
G36*
G01*
X86775000Y64500000D02*
X86775000Y64800000D01*
G75*
G02*
X86925000Y64950000I150000J0D01*
G01*
X88575000Y64950000D01*
G75*
G02*
X88725000Y64800000I0J-150000D01*
G01*
X88725000Y64500000D01*
G75*
G02*
X88575000Y64350000I-150000J0D01*
G01*
X86925000Y64350000D01*
G75*
G02*
X86775000Y64500000I0J150000D01*
G01*
G37*
G04 #@! TD.AperFunction*
G04 #@! TD*
G04 #@! TO.P,R19,1*
G04 #@! TO.N,/LS4*
G04 #@! TA.AperFunction,SMDPad,CuDef*
G36*
G01*
X36250000Y56491908D02*
X36250000Y57271908D01*
G75*
G02*
X36320000Y57341908I70000J0D01*
G01*
X36880000Y57341908D01*
G75*
G02*
X36950000Y57271908I0J-70000D01*
G01*
X36950000Y56491908D01*
G75*
G02*
X36880000Y56421908I-70000J0D01*
G01*
X36320000Y56421908D01*
G75*
G02*
X36250000Y56491908I0J70000D01*
G01*
G37*
G04 #@! TD.AperFunction*
G04 #@! TO.P,R19,2*
G04 #@! TO.N,Net-(U2-IN2)*
G04 #@! TA.AperFunction,SMDPad,CuDef*
G36*
G01*
X37850000Y56491908D02*
X37850000Y57271908D01*
G75*
G02*
X37920000Y57341908I70000J0D01*
G01*
X38480000Y57341908D01*
G75*
G02*
X38550000Y57271908I0J-70000D01*
G01*
X38550000Y56491908D01*
G75*
G02*
X38480000Y56421908I-70000J0D01*
G01*
X37920000Y56421908D01*
G75*
G02*
X37850000Y56491908I0J70000D01*
G01*
G37*
G04 #@! TD.AperFunction*
G04 #@! TD*
G04 #@! TO.P,R21,1*
G04 #@! TO.N,/LS4*
G04 #@! TA.AperFunction,SMDPad,CuDef*
G36*
G01*
X36250000Y52593816D02*
X36250000Y53373816D01*
G75*
G02*
X36320000Y53443816I70000J0D01*
G01*
X36880000Y53443816D01*
G75*
G02*
X36950000Y53373816I0J-70000D01*
G01*
X36950000Y52593816D01*
G75*
G02*
X36880000Y52523816I-70000J0D01*
G01*
X36320000Y52523816D01*
G75*
G02*
X36250000Y52593816I0J70000D01*
G01*
G37*
G04 #@! TD.AperFunction*
G04 #@! TO.P,R21,2*
G04 #@! TO.N,PIN114*
G04 #@! TA.AperFunction,SMDPad,CuDef*
G36*
G01*
X37850000Y52593816D02*
X37850000Y53373816D01*
G75*
G02*
X37920000Y53443816I70000J0D01*
G01*
X38480000Y53443816D01*
G75*
G02*
X38550000Y53373816I0J-70000D01*
G01*
X38550000Y52593816D01*
G75*
G02*
X38480000Y52523816I-70000J0D01*
G01*
X37920000Y52523816D01*
G75*
G02*
X37850000Y52593816I0J70000D01*
G01*
G37*
G04 #@! TD.AperFunction*
G04 #@! TD*
G04 #@! TO.P,R41,1*
G04 #@! TO.N,/INJ2*
G04 #@! TA.AperFunction,SMDPad,CuDef*
G36*
G01*
X16920000Y44008092D02*
X16920000Y44788092D01*
G75*
G02*
X16990000Y44858092I70000J0D01*
G01*
X17550000Y44858092D01*
G75*
G02*
X17620000Y44788092I0J-70000D01*
G01*
X17620000Y44008092D01*
G75*
G02*
X17550000Y43938092I-70000J0D01*
G01*
X16990000Y43938092D01*
G75*
G02*
X16920000Y44008092I0J70000D01*
G01*
G37*
G04 #@! TD.AperFunction*
G04 #@! TO.P,R41,2*
G04 #@! TO.N,Net-(U6-IN2)*
G04 #@! TA.AperFunction,SMDPad,CuDef*
G36*
G01*
X18520000Y44008092D02*
X18520000Y44788092D01*
G75*
G02*
X18590000Y44858092I70000J0D01*
G01*
X19150000Y44858092D01*
G75*
G02*
X19220000Y44788092I0J-70000D01*
G01*
X19220000Y44008092D01*
G75*
G02*
X19150000Y43938092I-70000J0D01*
G01*
X18590000Y43938092D01*
G75*
G02*
X18520000Y44008092I0J70000D01*
G01*
G37*
G04 #@! TD.AperFunction*
G04 #@! TD*
G04 #@! TO.P,R32,1*
G04 #@! TO.N,Net-(F8-Pad1)*
G04 #@! TA.AperFunction,SMDPad,CuDef*
G36*
G01*
X71130000Y49250000D02*
X71130000Y52100000D01*
G75*
G02*
X71380000Y52350000I250000J0D01*
G01*
X72105000Y52350000D01*
G75*
G02*
X72355000Y52100000I0J-250000D01*
G01*
X72355000Y49250000D01*
G75*
G02*
X72105000Y49000000I-250000J0D01*
G01*
X71380000Y49000000D01*
G75*
G02*
X71130000Y49250000I0J250000D01*
G01*
G37*
G04 #@! TD.AperFunction*
G04 #@! TO.P,R32,2*
G04 #@! TO.N,PIN11*
G04 #@! TA.AperFunction,SMDPad,CuDef*
G36*
G01*
X77055000Y49250000D02*
X77055000Y52100000D01*
G75*
G02*
X77305000Y52350000I250000J0D01*
G01*
X78030000Y52350000D01*
G75*
G02*
X78280000Y52100000I0J-250000D01*
G01*
X78280000Y49250000D01*
G75*
G02*
X78030000Y49000000I-250000J0D01*
G01*
X77305000Y49000000D01*
G75*
G02*
X77055000Y49250000I0J250000D01*
G01*
G37*
G04 #@! TD.AperFunction*
G04 #@! TD*
G04 #@! TO.P,R13,1*
G04 #@! TO.N,/LS1*
G04 #@! TA.AperFunction,SMDPad,CuDef*
G36*
G01*
X36250000Y66237138D02*
X36250000Y67017138D01*
G75*
G02*
X36320000Y67087138I70000J0D01*
G01*
X36880000Y67087138D01*
G75*
G02*
X36950000Y67017138I0J-70000D01*
G01*
X36950000Y66237138D01*
G75*
G02*
X36880000Y66167138I-70000J0D01*
G01*
X36320000Y66167138D01*
G75*
G02*
X36250000Y66237138I0J70000D01*
G01*
G37*
G04 #@! TD.AperFunction*
G04 #@! TO.P,R13,2*
G04 #@! TO.N,Net-(U1-IN1)*
G04 #@! TA.AperFunction,SMDPad,CuDef*
G36*
G01*
X37850000Y66237138D02*
X37850000Y67017138D01*
G75*
G02*
X37920000Y67087138I70000J0D01*
G01*
X38480000Y67087138D01*
G75*
G02*
X38550000Y67017138I0J-70000D01*
G01*
X38550000Y66237138D01*
G75*
G02*
X38480000Y66167138I-70000J0D01*
G01*
X37920000Y66167138D01*
G75*
G02*
X37850000Y66237138I0J70000D01*
G01*
G37*
G04 #@! TD.AperFunction*
G04 #@! TD*
G04 #@! TO.P,R18,1*
G04 #@! TO.N,/LS3*
G04 #@! TA.AperFunction,SMDPad,CuDef*
G36*
G01*
X36250000Y58440954D02*
X36250000Y59220954D01*
G75*
G02*
X36320000Y59290954I70000J0D01*
G01*
X36880000Y59290954D01*
G75*
G02*
X36950000Y59220954I0J-70000D01*
G01*
X36950000Y58440954D01*
G75*
G02*
X36880000Y58370954I-70000J0D01*
G01*
X36320000Y58370954D01*
G75*
G02*
X36250000Y58440954I0J70000D01*
G01*
G37*
G04 #@! TD.AperFunction*
G04 #@! TO.P,R18,2*
G04 #@! TO.N,Net-(U2-IN1)*
G04 #@! TA.AperFunction,SMDPad,CuDef*
G36*
G01*
X37850000Y58440954D02*
X37850000Y59220954D01*
G75*
G02*
X37920000Y59290954I70000J0D01*
G01*
X38480000Y59290954D01*
G75*
G02*
X38550000Y59220954I0J-70000D01*
G01*
X38550000Y58440954D01*
G75*
G02*
X38480000Y58370954I-70000J0D01*
G01*
X37920000Y58370954D01*
G75*
G02*
X37850000Y58440954I0J70000D01*
G01*
G37*
G04 #@! TD.AperFunction*
G04 #@! TD*
G04 #@! TO.P,U8,1,GND*
G04 #@! TO.N,PIN114*
G04 #@! TA.AperFunction,SMDPad,CuDef*
G36*
G01*
X92275000Y42760000D02*
X92275000Y43060000D01*
G75*
G02*
X92425000Y43210000I150000J0D01*
G01*
X94075000Y43210000D01*
G75*
G02*
X94225000Y43060000I0J-150000D01*
G01*
X94225000Y42760000D01*
G75*
G02*
X94075000Y42610000I-150000J0D01*
G01*
X92425000Y42610000D01*
G75*
G02*
X92275000Y42760000I0J150000D01*
G01*
G37*
G04 #@! TD.AperFunction*
G04 #@! TO.P,U8,2,T-*
G04 #@! TO.N,Net-(U8-T-)*
G04 #@! TA.AperFunction,SMDPad,CuDef*
G36*
G01*
X92275000Y41490000D02*
X92275000Y41790000D01*
G75*
G02*
X92425000Y41940000I150000J0D01*
G01*
X94075000Y41940000D01*
G75*
G02*
X94225000Y41790000I0J-150000D01*
G01*
X94225000Y41490000D01*
G75*
G02*
X94075000Y41340000I-150000J0D01*
G01*
X92425000Y41340000D01*
G75*
G02*
X92275000Y41490000I0J150000D01*
G01*
G37*
G04 #@! TD.AperFunction*
G04 #@! TO.P,U8,3,T+*
G04 #@! TO.N,Net-(U8-T+)*
G04 #@! TA.AperFunction,SMDPad,CuDef*
G36*
G01*
X92275000Y40220000D02*
X92275000Y40520000D01*
G75*
G02*
X92425000Y40670000I150000J0D01*
G01*
X94075000Y40670000D01*
G75*
G02*
X94225000Y40520000I0J-150000D01*
G01*
X94225000Y40220000D01*
G75*
G02*
X94075000Y40070000I-150000J0D01*
G01*
X92425000Y40070000D01*
G75*
G02*
X92275000Y40220000I0J150000D01*
G01*
G37*
G04 #@! TD.AperFunction*
G04 #@! TO.P,U8,4,V_CC*
G04 #@! TO.N,+3.3VA*
G04 #@! TA.AperFunction,SMDPad,CuDef*
G36*
G01*
X92275000Y38950000D02*
X92275000Y39250000D01*
G75*
G02*
X92425000Y39400000I150000J0D01*
G01*
X94075000Y39400000D01*
G75*
G02*
X94225000Y39250000I0J-150000D01*
G01*
X94225000Y38950000D01*
G75*
G02*
X94075000Y38800000I-150000J0D01*
G01*
X92425000Y38800000D01*
G75*
G02*
X92275000Y38950000I0J150000D01*
G01*
G37*
G04 #@! TD.AperFunction*
G04 #@! TO.P,U8,5,SCK*
G04 #@! TO.N,/SCK3*
G04 #@! TA.AperFunction,SMDPad,CuDef*
G36*
G01*
X97225000Y38950000D02*
X97225000Y39250000D01*
G75*
G02*
X97375000Y39400000I150000J0D01*
G01*
X99025000Y39400000D01*
G75*
G02*
X99175000Y39250000I0J-150000D01*
G01*
X99175000Y38950000D01*
G75*
G02*
X99025000Y38800000I-150000J0D01*
G01*
X97375000Y38800000D01*
G75*
G02*
X97225000Y38950000I0J150000D01*
G01*
G37*
G04 #@! TD.AperFunction*
G04 #@! TO.P,U8,6,~{CS}*
G04 #@! TO.N,/EGT/SPI_CS*
G04 #@! TA.AperFunction,SMDPad,CuDef*
G36*
G01*
X97225000Y40220000D02*
X97225000Y40520000D01*
G75*
G02*
X97375000Y40670000I150000J0D01*
G01*
X99025000Y40670000D01*
G75*
G02*
X99175000Y40520000I0J-150000D01*
G01*
X99175000Y40220000D01*
G75*
G02*
X99025000Y40070000I-150000J0D01*
G01*
X97375000Y40070000D01*
G75*
G02*
X97225000Y40220000I0J150000D01*
G01*
G37*
G04 #@! TD.AperFunction*
G04 #@! TO.P,U8,7,SO*
G04 #@! TO.N,/MISO3*
G04 #@! TA.AperFunction,SMDPad,CuDef*
G36*
G01*
X97225000Y41490000D02*
X97225000Y41790000D01*
G75*
G02*
X97375000Y41940000I150000J0D01*
G01*
X99025000Y41940000D01*
G75*
G02*
X99175000Y41790000I0J-150000D01*
G01*
X99175000Y41490000D01*
G75*
G02*
X99025000Y41340000I-150000J0D01*
G01*
X97375000Y41340000D01*
G75*
G02*
X97225000Y41490000I0J150000D01*
G01*
G37*
G04 #@! TD.AperFunction*
G04 #@! TO.P,U8,8*
G04 #@! TO.N,N/C*
G04 #@! TA.AperFunction,SMDPad,CuDef*
G36*
G01*
X97225000Y42760000D02*
X97225000Y43060000D01*
G75*
G02*
X97375000Y43210000I150000J0D01*
G01*
X99025000Y43210000D01*
G75*
G02*
X99175000Y43060000I0J-150000D01*
G01*
X99175000Y42760000D01*
G75*
G02*
X99025000Y42610000I-150000J0D01*
G01*
X97375000Y42610000D01*
G75*
G02*
X97225000Y42760000I0J150000D01*
G01*
G37*
G04 #@! TD.AperFunction*
G04 #@! TD*
D38*
G04 #@! TO.P,M8,G,GND*
G04 #@! TO.N,PIN114*
X143700003Y53850000D03*
D39*
X144200003Y51750000D03*
D40*
X148600003Y61550000D03*
X150800003Y51750000D03*
D41*
X155400003Y61550000D03*
D42*
X156500003Y51750000D03*
D43*
X157300003Y56650000D03*
D31*
G04 #@! TO.P,M8,N1,MOSI*
G04 #@! TO.N,unconnected-(M8-MOSI-PadN1)*
X144700003Y61350000D03*
D44*
G04 #@! TO.P,M8,N2,12V_IN*
G04 #@! TO.N,Net-(F3-Pad2)*
X152700003Y61150000D03*
G04 #@! TO.P,M8,S1,12V_IN*
X145500003Y52150000D03*
G04 #@! TO.P,M8,S2,OUT-*
G04 #@! TO.N,PIN2*
X146700003Y52150000D03*
G04 #@! TO.P,M8,S3,OUT+*
G04 #@! TO.N,PIN1*
X154900003Y52150000D03*
D31*
G04 #@! TO.P,M8,W1,DIS*
G04 #@! TO.N,DC1_DIS_W1*
X143900003Y61350000D03*
G04 #@! TO.P,M8,W2,PWM*
G04 #@! TO.N,/DC1_PWM*
X143900003Y60550000D03*
G04 #@! TO.P,M8,W3,SCLK*
G04 #@! TO.N,unconnected-(M8-SCLK-PadW3)*
X143900003Y59750000D03*
G04 #@! TO.P,M8,W4,DIR*
G04 #@! TO.N,/DC1_DIR*
X143900003Y58950000D03*
G04 #@! TO.P,M8,W5,3V3_IN*
G04 #@! TO.N,+3.3V*
X143900003Y58150000D03*
G04 #@! TO.P,M8,W6,MISO*
G04 #@! TO.N,unconnected-(M8-MISO-PadW6)*
X143900003Y57350000D03*
G04 #@! TO.P,M8,W7,~CS*
G04 #@! TO.N,unconnected-(M8-~CS-PadW7)*
X143900003Y56550000D03*
G04 #@! TD*
G04 #@! TO.P,D6,1,K*
G04 #@! TO.N,Net-(U8-T-)*
G04 #@! TA.AperFunction,SMDPad,CuDef*
G36*
G01*
X96280000Y36180000D02*
X96280000Y36480000D01*
G75*
G02*
X96430000Y36630000I150000J0D01*
G01*
X97605000Y36630000D01*
G75*
G02*
X97755000Y36480000I0J-150000D01*
G01*
X97755000Y36180000D01*
G75*
G02*
X97605000Y36030000I-150000J0D01*
G01*
X96430000Y36030000D01*
G75*
G02*
X96280000Y36180000I0J150000D01*
G01*
G37*
G04 #@! TD.AperFunction*
G04 #@! TO.P,D6,2,K*
G04 #@! TO.N,Net-(U8-T+)*
G04 #@! TA.AperFunction,SMDPad,CuDef*
G36*
G01*
X96280000Y34280000D02*
X96280000Y34580000D01*
G75*
G02*
X96430000Y34730000I150000J0D01*
G01*
X97605000Y34730000D01*
G75*
G02*
X97755000Y34580000I0J-150000D01*
G01*
X97755000Y34280000D01*
G75*
G02*
X97605000Y34130000I-150000J0D01*
G01*
X96430000Y34130000D01*
G75*
G02*
X96280000Y34280000I0J150000D01*
G01*
G37*
G04 #@! TD.AperFunction*
G04 #@! TO.P,D6,3,A*
G04 #@! TO.N,PIN114*
G04 #@! TA.AperFunction,SMDPad,CuDef*
G36*
G01*
X98155000Y35230000D02*
X98155000Y35530000D01*
G75*
G02*
X98305000Y35680000I150000J0D01*
G01*
X99480000Y35680000D01*
G75*
G02*
X99630000Y35530000I0J-150000D01*
G01*
X99630000Y35230000D01*
G75*
G02*
X99480000Y35080000I-150000J0D01*
G01*
X98305000Y35080000D01*
G75*
G02*
X98155000Y35230000I0J150000D01*
G01*
G37*
G04 #@! TD.AperFunction*
G04 #@! TD*
G04 #@! TO.P,D5,1,K*
G04 #@! TO.N,PIN43*
G04 #@! TA.AperFunction,SMDPad,CuDef*
G36*
G01*
X92320000Y54755000D02*
X92320000Y56055000D01*
G75*
G02*
X92570000Y56305000I250000J0D01*
G01*
X94570000Y56305000D01*
G75*
G02*
X94820000Y56055000I0J-250000D01*
G01*
X94820000Y54755000D01*
G75*
G02*
X94570000Y54505000I-250000J0D01*
G01*
X92570000Y54505000D01*
G75*
G02*
X92320000Y54755000I0J250000D01*
G01*
G37*
G04 #@! TD.AperFunction*
G04 #@! TO.P,D5,2,A*
G04 #@! TO.N,PIN114*
G04 #@! TA.AperFunction,SMDPad,CuDef*
G36*
G01*
X96320000Y54755000D02*
X96320000Y56055000D01*
G75*
G02*
X96570000Y56305000I250000J0D01*
G01*
X98570000Y56305000D01*
G75*
G02*
X98820000Y56055000I0J-250000D01*
G01*
X98820000Y54755000D01*
G75*
G02*
X98570000Y54505000I-250000J0D01*
G01*
X96570000Y54505000D01*
G75*
G02*
X96320000Y54755000I0J250000D01*
G01*
G37*
G04 #@! TD.AperFunction*
G04 #@! TD*
G04 #@! TO.P,Q5,1,G*
G04 #@! TO.N,Net-(Q5-G)*
G04 #@! TA.AperFunction,SMDPad,CuDef*
G36*
G01*
X58985000Y37660000D02*
X58985000Y38360000D01*
G75*
G02*
X59235000Y38610000I250000J0D01*
G01*
X60935000Y38610000D01*
G75*
G02*
X61185000Y38360000I0J-250000D01*
G01*
X61185000Y37660000D01*
G75*
G02*
X60935000Y37410000I-250000J0D01*
G01*
X59235000Y37410000D01*
G75*
G02*
X58985000Y37660000I0J250000D01*
G01*
G37*
G04 #@! TD.AperFunction*
G04 #@! TO.P,Q5,2,C*
G04 #@! TO.N,PIN11*
G04 #@! TA.AperFunction,SMDPad,CuDef*
G36*
G01*
X63185000Y36130000D02*
X63185000Y38380000D01*
G75*
G02*
X63435000Y38630000I250000J0D01*
G01*
X65985000Y38630000D01*
G75*
G02*
X66235000Y38380000I0J-250000D01*
G01*
X66235000Y36130000D01*
G75*
G02*
X65985000Y35880000I-250000J0D01*
G01*
X63435000Y35880000D01*
G75*
G02*
X63185000Y36130000I0J250000D01*
G01*
G37*
G04 #@! TD.AperFunction*
G04 #@! TA.AperFunction,SMDPad,CuDef*
G36*
G01*
X63185000Y33080000D02*
X63185000Y35330000D01*
G75*
G02*
X63435000Y35580000I250000J0D01*
G01*
X65985000Y35580000D01*
G75*
G02*
X66235000Y35330000I0J-250000D01*
G01*
X66235000Y33080000D01*
G75*
G02*
X65985000Y32830000I-250000J0D01*
G01*
X63435000Y32830000D01*
G75*
G02*
X63185000Y33080000I0J250000D01*
G01*
G37*
G04 #@! TD.AperFunction*
G04 #@! TA.AperFunction,SMDPad,CuDef*
G36*
G01*
X63185000Y33079997D02*
X63185000Y38380003D01*
G75*
G02*
X63434997Y38630000I249997J0D01*
G01*
X69335003Y38630000D01*
G75*
G02*
X69585000Y38380003I0J-249997D01*
G01*
X69585000Y33079997D01*
G75*
G02*
X69335003Y32830000I-249997J0D01*
G01*
X63434997Y32830000D01*
G75*
G02*
X63185000Y33079997I0J249997D01*
G01*
G37*
G04 #@! TD.AperFunction*
G04 #@! TA.AperFunction,SMDPad,CuDef*
G36*
G01*
X66535000Y36130000D02*
X66535000Y38380000D01*
G75*
G02*
X66785000Y38630000I250000J0D01*
G01*
X69335000Y38630000D01*
G75*
G02*
X69585000Y38380000I0J-250000D01*
G01*
X69585000Y36130000D01*
G75*
G02*
X69335000Y35880000I-250000J0D01*
G01*
X66785000Y35880000D01*
G75*
G02*
X66535000Y36130000I0J250000D01*
G01*
G37*
G04 #@! TD.AperFunction*
G04 #@! TA.AperFunction,SMDPad,CuDef*
G36*
G01*
X66535000Y33080000D02*
X66535000Y35330000D01*
G75*
G02*
X66785000Y35580000I250000J0D01*
G01*
X69335000Y35580000D01*
G75*
G02*
X69585000Y35330000I0J-250000D01*
G01*
X69585000Y33080000D01*
G75*
G02*
X69335000Y32830000I-250000J0D01*
G01*
X66785000Y32830000D01*
G75*
G02*
X66535000Y33080000I0J250000D01*
G01*
G37*
G04 #@! TD.AperFunction*
G04 #@! TO.P,Q5,3,E*
G04 #@! TO.N,PIN114*
G04 #@! TA.AperFunction,SMDPad,CuDef*
G36*
G01*
X58985000Y33100000D02*
X58985000Y33800000D01*
G75*
G02*
X59235000Y34050000I250000J0D01*
G01*
X60935000Y34050000D01*
G75*
G02*
X61185000Y33800000I0J-250000D01*
G01*
X61185000Y33100000D01*
G75*
G02*
X60935000Y32850000I-250000J0D01*
G01*
X59235000Y32850000D01*
G75*
G02*
X58985000Y33100000I0J250000D01*
G01*
G37*
G04 #@! TD.AperFunction*
G04 #@! TD*
G04 #@! TO.P,R1,1*
G04 #@! TO.N,PIN106*
G04 #@! TA.AperFunction,SMDPad,CuDef*
G36*
G01*
X17520000Y66237138D02*
X17520000Y67017138D01*
G75*
G02*
X17590000Y67087138I70000J0D01*
G01*
X18150000Y67087138D01*
G75*
G02*
X18220000Y67017138I0J-70000D01*
G01*
X18220000Y66237138D01*
G75*
G02*
X18150000Y66167138I-70000J0D01*
G01*
X17590000Y66167138D01*
G75*
G02*
X17520000Y66237138I0J70000D01*
G01*
G37*
G04 #@! TD.AperFunction*
G04 #@! TO.P,R1,2*
G04 #@! TO.N,PIN20*
G04 #@! TA.AperFunction,SMDPad,CuDef*
G36*
G01*
X19120000Y66237138D02*
X19120000Y67017138D01*
G75*
G02*
X19190000Y67087138I70000J0D01*
G01*
X19750000Y67087138D01*
G75*
G02*
X19820000Y67017138I0J-70000D01*
G01*
X19820000Y66237138D01*
G75*
G02*
X19750000Y66167138I-70000J0D01*
G01*
X19190000Y66167138D01*
G75*
G02*
X19120000Y66237138I0J70000D01*
G01*
G37*
G04 #@! TD.AperFunction*
G04 #@! TD*
G04 #@! TO.P,R39,1*
G04 #@! TO.N,/INJ1*
G04 #@! TA.AperFunction,SMDPad,CuDef*
G36*
G01*
X13620000Y36211908D02*
X13620000Y36991908D01*
G75*
G02*
X13690000Y37061908I70000J0D01*
G01*
X14250000Y37061908D01*
G75*
G02*
X14320000Y36991908I0J-70000D01*
G01*
X14320000Y36211908D01*
G75*
G02*
X14250000Y36141908I-70000J0D01*
G01*
X13690000Y36141908D01*
G75*
G02*
X13620000Y36211908I0J70000D01*
G01*
G37*
G04 #@! TD.AperFunction*
G04 #@! TO.P,R39,2*
G04 #@! TO.N,PIN114*
G04 #@! TA.AperFunction,SMDPad,CuDef*
G36*
G01*
X15220000Y36211908D02*
X15220000Y36991908D01*
G75*
G02*
X15290000Y37061908I70000J0D01*
G01*
X15850000Y37061908D01*
G75*
G02*
X15920000Y36991908I0J-70000D01*
G01*
X15920000Y36211908D01*
G75*
G02*
X15850000Y36141908I-70000J0D01*
G01*
X15290000Y36141908D01*
G75*
G02*
X15220000Y36211908I0J70000D01*
G01*
G37*
G04 #@! TD.AperFunction*
G04 #@! TD*
G04 #@! TO.P,U6,1,IN1*
G04 #@! TO.N,Net-(U6-IN1)*
G04 #@! TA.AperFunction,SMDPad,CuDef*
G36*
G01*
X81825000Y51340000D02*
X81825000Y51640000D01*
G75*
G02*
X81975000Y51790000I150000J0D01*
G01*
X83625000Y51790000D01*
G75*
G02*
X83775000Y51640000I0J-150000D01*
G01*
X83775000Y51340000D01*
G75*
G02*
X83625000Y51190000I-150000J0D01*
G01*
X81975000Y51190000D01*
G75*
G02*
X81825000Y51340000I0J150000D01*
G01*
G37*
G04 #@! TD.AperFunction*
G04 #@! TO.P,U6,2,STATUS1*
G04 #@! TO.N,unconnected-(U6-STATUS1-Pad2)*
G04 #@! TA.AperFunction,SMDPad,CuDef*
G36*
G01*
X81825000Y50070000D02*
X81825000Y50370000D01*
G75*
G02*
X81975000Y50520000I150000J0D01*
G01*
X83625000Y50520000D01*
G75*
G02*
X83775000Y50370000I0J-150000D01*
G01*
X83775000Y50070000D01*
G75*
G02*
X83625000Y49920000I-150000J0D01*
G01*
X81975000Y49920000D01*
G75*
G02*
X81825000Y50070000I0J150000D01*
G01*
G37*
G04 #@! TD.AperFunction*
G04 #@! TO.P,U6,3,IN2*
G04 #@! TO.N,Net-(U6-IN2)*
G04 #@! TA.AperFunction,SMDPad,CuDef*
G36*
G01*
X81825000Y48800000D02*
X81825000Y49100000D01*
G75*
G02*
X81975000Y49250000I150000J0D01*
G01*
X83625000Y49250000D01*
G75*
G02*
X83775000Y49100000I0J-150000D01*
G01*
X83775000Y48800000D01*
G75*
G02*
X83625000Y48650000I-150000J0D01*
G01*
X81975000Y48650000D01*
G75*
G02*
X81825000Y48800000I0J150000D01*
G01*
G37*
G04 #@! TD.AperFunction*
G04 #@! TO.P,U6,4,STATUS2*
G04 #@! TO.N,unconnected-(U6-STATUS2-Pad4)*
G04 #@! TA.AperFunction,SMDPad,CuDef*
G36*
G01*
X81825000Y47530000D02*
X81825000Y47830000D01*
G75*
G02*
X81975000Y47980000I150000J0D01*
G01*
X83625000Y47980000D01*
G75*
G02*
X83775000Y47830000I0J-150000D01*
G01*
X83775000Y47530000D01*
G75*
G02*
X83625000Y47380000I-150000J0D01*
G01*
X81975000Y47380000D01*
G75*
G02*
X81825000Y47530000I0J150000D01*
G01*
G37*
G04 #@! TD.AperFunction*
G04 #@! TO.P,U6,5,S2*
G04 #@! TO.N,PIN114*
G04 #@! TA.AperFunction,SMDPad,CuDef*
G36*
G01*
X86775000Y47530000D02*
X86775000Y47830000D01*
G75*
G02*
X86925000Y47980000I150000J0D01*
G01*
X88575000Y47980000D01*
G75*
G02*
X88725000Y47830000I0J-150000D01*
G01*
X88725000Y47530000D01*
G75*
G02*
X88575000Y47380000I-150000J0D01*
G01*
X86925000Y47380000D01*
G75*
G02*
X86775000Y47530000I0J150000D01*
G01*
G37*
G04 #@! TD.AperFunction*
G04 #@! TO.P,U6,6,D2*
G04 #@! TO.N,PIN45*
G04 #@! TA.AperFunction,SMDPad,CuDef*
G36*
G01*
X86775000Y48800000D02*
X86775000Y49100000D01*
G75*
G02*
X86925000Y49250000I150000J0D01*
G01*
X88575000Y49250000D01*
G75*
G02*
X88725000Y49100000I0J-150000D01*
G01*
X88725000Y48800000D01*
G75*
G02*
X88575000Y48650000I-150000J0D01*
G01*
X86925000Y48650000D01*
G75*
G02*
X86775000Y48800000I0J150000D01*
G01*
G37*
G04 #@! TD.AperFunction*
G04 #@! TO.P,U6,7,S1*
G04 #@! TO.N,PIN114*
G04 #@! TA.AperFunction,SMDPad,CuDef*
G36*
G01*
X86775000Y50070000D02*
X86775000Y50370000D01*
G75*
G02*
X86925000Y50520000I150000J0D01*
G01*
X88575000Y50520000D01*
G75*
G02*
X88725000Y50370000I0J-150000D01*
G01*
X88725000Y50070000D01*
G75*
G02*
X88575000Y49920000I-150000J0D01*
G01*
X86925000Y49920000D01*
G75*
G02*
X86775000Y50070000I0J150000D01*
G01*
G37*
G04 #@! TD.AperFunction*
G04 #@! TO.P,U6,8,D1*
G04 #@! TO.N,PIN44*
G04 #@! TA.AperFunction,SMDPad,CuDef*
G36*
G01*
X86775000Y51340000D02*
X86775000Y51640000D01*
G75*
G02*
X86925000Y51790000I150000J0D01*
G01*
X88575000Y51790000D01*
G75*
G02*
X88725000Y51640000I0J-150000D01*
G01*
X88725000Y51340000D01*
G75*
G02*
X88575000Y51190000I-150000J0D01*
G01*
X86925000Y51190000D01*
G75*
G02*
X86775000Y51340000I0J150000D01*
G01*
G37*
G04 #@! TD.AperFunction*
G04 #@! TD*
G04 #@! TO.P,Q6,1,G*
G04 #@! TO.N,Net-(Q6-G)*
G04 #@! TA.AperFunction,SMDPad,CuDef*
G36*
G01*
X58985000Y29465000D02*
X58985000Y30165000D01*
G75*
G02*
X59235000Y30415000I250000J0D01*
G01*
X60935000Y30415000D01*
G75*
G02*
X61185000Y30165000I0J-250000D01*
G01*
X61185000Y29465000D01*
G75*
G02*
X60935000Y29215000I-250000J0D01*
G01*
X59235000Y29215000D01*
G75*
G02*
X58985000Y29465000I0J250000D01*
G01*
G37*
G04 #@! TD.AperFunction*
G04 #@! TO.P,Q6,2,C*
G04 #@! TO.N,PIN8*
G04 #@! TA.AperFunction,SMDPad,CuDef*
G36*
G01*
X63185000Y27935000D02*
X63185000Y30185000D01*
G75*
G02*
X63435000Y30435000I250000J0D01*
G01*
X65985000Y30435000D01*
G75*
G02*
X66235000Y30185000I0J-250000D01*
G01*
X66235000Y27935000D01*
G75*
G02*
X65985000Y27685000I-250000J0D01*
G01*
X63435000Y27685000D01*
G75*
G02*
X63185000Y27935000I0J250000D01*
G01*
G37*
G04 #@! TD.AperFunction*
G04 #@! TA.AperFunction,SMDPad,CuDef*
G36*
G01*
X63185000Y24885000D02*
X63185000Y27135000D01*
G75*
G02*
X63435000Y27385000I250000J0D01*
G01*
X65985000Y27385000D01*
G75*
G02*
X66235000Y27135000I0J-250000D01*
G01*
X66235000Y24885000D01*
G75*
G02*
X65985000Y24635000I-250000J0D01*
G01*
X63435000Y24635000D01*
G75*
G02*
X63185000Y24885000I0J250000D01*
G01*
G37*
G04 #@! TD.AperFunction*
G04 #@! TA.AperFunction,SMDPad,CuDef*
G36*
G01*
X63185000Y24884997D02*
X63185000Y30185003D01*
G75*
G02*
X63434997Y30435000I249997J0D01*
G01*
X69335003Y30435000D01*
G75*
G02*
X69585000Y30185003I0J-249997D01*
G01*
X69585000Y24884997D01*
G75*
G02*
X69335003Y24635000I-249997J0D01*
G01*
X63434997Y24635000D01*
G75*
G02*
X63185000Y24884997I0J249997D01*
G01*
G37*
G04 #@! TD.AperFunction*
G04 #@! TA.AperFunction,SMDPad,CuDef*
G36*
G01*
X66535000Y27935000D02*
X66535000Y30185000D01*
G75*
G02*
X66785000Y30435000I250000J0D01*
G01*
X69335000Y30435000D01*
G75*
G02*
X69585000Y30185000I0J-250000D01*
G01*
X69585000Y27935000D01*
G75*
G02*
X69335000Y27685000I-250000J0D01*
G01*
X66785000Y27685000D01*
G75*
G02*
X66535000Y27935000I0J250000D01*
G01*
G37*
G04 #@! TD.AperFunction*
G04 #@! TA.AperFunction,SMDPad,CuDef*
G36*
G01*
X66535000Y24885000D02*
X66535000Y27135000D01*
G75*
G02*
X66785000Y27385000I250000J0D01*
G01*
X69335000Y27385000D01*
G75*
G02*
X69585000Y27135000I0J-250000D01*
G01*
X69585000Y24885000D01*
G75*
G02*
X69335000Y24635000I-250000J0D01*
G01*
X66785000Y24635000D01*
G75*
G02*
X66535000Y24885000I0J250000D01*
G01*
G37*
G04 #@! TD.AperFunction*
G04 #@! TO.P,Q6,3,E*
G04 #@! TO.N,PIN114*
G04 #@! TA.AperFunction,SMDPad,CuDef*
G36*
G01*
X58985000Y24905000D02*
X58985000Y25605000D01*
G75*
G02*
X59235000Y25855000I250000J0D01*
G01*
X60935000Y25855000D01*
G75*
G02*
X61185000Y25605000I0J-250000D01*
G01*
X61185000Y24905000D01*
G75*
G02*
X60935000Y24655000I-250000J0D01*
G01*
X59235000Y24655000D01*
G75*
G02*
X58985000Y24905000I0J250000D01*
G01*
G37*
G04 #@! TD.AperFunction*
G04 #@! TD*
G04 #@! TO.P,R50,1*
G04 #@! TO.N,/LS_HOT2*
G04 #@! TA.AperFunction,SMDPad,CuDef*
G36*
G01*
X36250000Y45957138D02*
X36250000Y46737138D01*
G75*
G02*
X36320000Y46807138I70000J0D01*
G01*
X36880000Y46807138D01*
G75*
G02*
X36950000Y46737138I0J-70000D01*
G01*
X36950000Y45957138D01*
G75*
G02*
X36880000Y45887138I-70000J0D01*
G01*
X36320000Y45887138D01*
G75*
G02*
X36250000Y45957138I0J70000D01*
G01*
G37*
G04 #@! TD.AperFunction*
G04 #@! TO.P,R50,2*
G04 #@! TO.N,Net-(U7-IN1)*
G04 #@! TA.AperFunction,SMDPad,CuDef*
G36*
G01*
X37850000Y45957138D02*
X37850000Y46737138D01*
G75*
G02*
X37920000Y46807138I70000J0D01*
G01*
X38480000Y46807138D01*
G75*
G02*
X38550000Y46737138I0J-70000D01*
G01*
X38550000Y45957138D01*
G75*
G02*
X38480000Y45887138I-70000J0D01*
G01*
X37920000Y45887138D01*
G75*
G02*
X37850000Y45957138I0J70000D01*
G01*
G37*
G04 #@! TD.AperFunction*
G04 #@! TD*
G04 #@! TO.P,R28,1*
G04 #@! TO.N,Net-(Q4-G)*
G04 #@! TA.AperFunction,SMDPad,CuDef*
G36*
G01*
X25520000Y40110000D02*
X25520000Y40890000D01*
G75*
G02*
X25590000Y40960000I70000J0D01*
G01*
X26150000Y40960000D01*
G75*
G02*
X26220000Y40890000I0J-70000D01*
G01*
X26220000Y40110000D01*
G75*
G02*
X26150000Y40040000I-70000J0D01*
G01*
X25590000Y40040000D01*
G75*
G02*
X25520000Y40110000I0J70000D01*
G01*
G37*
G04 #@! TD.AperFunction*
G04 #@! TO.P,R28,2*
G04 #@! TO.N,Net-(F7-Pad1)*
G04 #@! TA.AperFunction,SMDPad,CuDef*
G36*
G01*
X27120000Y40110000D02*
X27120000Y40890000D01*
G75*
G02*
X27190000Y40960000I70000J0D01*
G01*
X27750000Y40960000D01*
G75*
G02*
X27820000Y40890000I0J-70000D01*
G01*
X27820000Y40110000D01*
G75*
G02*
X27750000Y40040000I-70000J0D01*
G01*
X27190000Y40040000D01*
G75*
G02*
X27120000Y40110000I0J70000D01*
G01*
G37*
G04 #@! TD.AperFunction*
G04 #@! TD*
G04 #@! TO.P,R9,1*
G04 #@! TO.N,PIN89*
G04 #@! TA.AperFunction,SMDPad,CuDef*
G36*
G01*
X13620000Y60722876D02*
X13620000Y61972876D01*
G75*
G02*
X13720000Y62072876I100000J0D01*
G01*
X14520000Y62072876D01*
G75*
G02*
X14620000Y61972876I0J-100000D01*
G01*
X14620000Y60722876D01*
G75*
G02*
X14520000Y60622876I-100000J0D01*
G01*
X13720000Y60622876D01*
G75*
G02*
X13620000Y60722876I0J100000D01*
G01*
G37*
G04 #@! TD.AperFunction*
G04 #@! TO.P,R9,2*
G04 #@! TO.N,+5VA*
G04 #@! TA.AperFunction,SMDPad,CuDef*
G36*
G01*
X15520022Y60722876D02*
X15520022Y61972876D01*
G75*
G02*
X15620022Y62072876I100000J0D01*
G01*
X16420022Y62072876D01*
G75*
G02*
X16520022Y61972876I0J-100000D01*
G01*
X16520022Y60722876D01*
G75*
G02*
X16420022Y60622876I-100000J0D01*
G01*
X15620022Y60622876D01*
G75*
G02*
X15520022Y60722876I0J100000D01*
G01*
G37*
G04 #@! TD.AperFunction*
G04 #@! TD*
G04 #@! TO.P,R29,1*
G04 #@! TO.N,Net-(Q5-G)*
G04 #@! TA.AperFunction,SMDPad,CuDef*
G36*
G01*
X25520000Y38160954D02*
X25520000Y38940954D01*
G75*
G02*
X25590000Y39010954I70000J0D01*
G01*
X26150000Y39010954D01*
G75*
G02*
X26220000Y38940954I0J-70000D01*
G01*
X26220000Y38160954D01*
G75*
G02*
X26150000Y38090954I-70000J0D01*
G01*
X25590000Y38090954D01*
G75*
G02*
X25520000Y38160954I0J70000D01*
G01*
G37*
G04 #@! TD.AperFunction*
G04 #@! TO.P,R29,2*
G04 #@! TO.N,Net-(F8-Pad1)*
G04 #@! TA.AperFunction,SMDPad,CuDef*
G36*
G01*
X27120000Y38160954D02*
X27120000Y38940954D01*
G75*
G02*
X27190000Y39010954I70000J0D01*
G01*
X27750000Y39010954D01*
G75*
G02*
X27820000Y38940954I0J-70000D01*
G01*
X27820000Y38160954D01*
G75*
G02*
X27750000Y38090954I-70000J0D01*
G01*
X27190000Y38090954D01*
G75*
G02*
X27120000Y38160954I0J70000D01*
G01*
G37*
G04 #@! TD.AperFunction*
G04 #@! TD*
G04 #@! TO.P,M6,E1,V5A_SWITCHABLE*
G04 #@! TO.N,+5VA*
X142050003Y54549990D03*
G04 #@! TO.P,M6,E2,GNDA*
G04 #@! TO.N,unconnected-(M6-GNDA-PadE2)*
X142050013Y58849990D03*
G04 #@! TO.P,M6,E3,I2C_SCL_(PB10)*
G04 #@! TO.N,unconnected-(M6-I2C_SCL_(PB10)-PadE3)*
X142050013Y59649980D03*
G04 #@! TO.P,M6,E4,I2C_SDA_(PB11)*
G04 #@! TO.N,unconnected-(M6-I2C_SDA_(PB11)-PadE4)*
X142050013Y60449990D03*
G04 #@! TO.P,M6,E5,IN_VIGN_(PA5)*
G04 #@! TO.N,/VIGN*
X142050013Y61249990D03*
G04 #@! TO.P,M6,E6,SPI2_CS_/_CAN2_RX_(PB12)*
G04 #@! TO.N,E6INJ7CANRX*
X142050013Y62049990D03*
G04 #@! TO.P,M6,E7,SPI2_SCK_/_CAN2_TX_(PB13)*
G04 #@! TO.N,E7INJ8CANTX*
X142050013Y62849990D03*
G04 #@! TO.P,M6,E8,SPI2_MISO_(PB14)*
G04 #@! TO.N,DC1_DIS_W1*
X142050013Y63649990D03*
G04 #@! TO.P,M6,E9,SPI2_MOSI_(PB15)*
G04 #@! TO.N,/DC2_DIR*
X142050013Y64449990D03*
G04 #@! TO.P,M6,E10,OUT_INJ8_(PD12)*
G04 #@! TO.N,/LS2*
X142050013Y65249990D03*
G04 #@! TO.P,M6,E11,OUT_INJ7_(PD15)*
G04 #@! TO.N,/LS1*
X142050013Y66049990D03*
G04 #@! TO.P,M6,E12,OUT_INJ6_(PA8)*
G04 #@! TO.N,/INJ6*
X142050013Y66849990D03*
G04 #@! TO.P,M6,E13,OUT_INJ5_(PD2)*
G04 #@! TO.N,/INJ5*
X142050013Y67649990D03*
G04 #@! TO.P,M6,E14,OUT_INJ4_(PD10)*
G04 #@! TO.N,/INJ4*
X142050013Y68449990D03*
G04 #@! TO.P,M6,E15,OUT_INJ3_(PD11)*
G04 #@! TO.N,/INJ3*
X142050013Y69249990D03*
G04 #@! TO.P,M6,E16,OUT_INJ2_(PA9)*
G04 #@! TO.N,/INJ2*
X142050003Y70049980D03*
G04 #@! TO.P,M6,E17,OUT_INJ1_(PD3)*
G04 #@! TO.N,/INJ1*
X142050013Y70849990D03*
G04 #@! TO.P,M6,E18,OUT_PWM1_(PD13)*
G04 #@! TO.N,/LS3*
X142050013Y72249990D03*
G04 #@! TO.P,M6,E19,OUT_PWM2_(PC6)*
G04 #@! TO.N,/LS4*
X142050013Y73049980D03*
G04 #@! TO.P,M6,E20,OUT_PWM3_(PC7)*
G04 #@! TO.N,/DC1_PWM*
X142050013Y73849980D03*
G04 #@! TO.P,M6,E21,OUT_PWM4_(PC8)*
G04 #@! TO.N,/DC1_DIR*
X142050013Y74649980D03*
G04 #@! TO.P,M6,E22,OUT_PWM5_(PC9)*
G04 #@! TO.N,/DC2_PWM*
X142050013Y75449980D03*
G04 #@! TO.P,M6,E23,OUT_PWM6_(PD14)*
G04 #@! TO.N,/VR_DISCRETE_THR*
X142050013Y76249990D03*
D45*
G04 #@! TO.P,M6,G,GND*
G04 #@! TO.N,PIN114*
X108450003Y81099980D03*
D46*
X108450003Y78049990D03*
D45*
X108450003Y74999980D03*
D47*
X108450003Y70549990D03*
D48*
X108450003Y56899990D03*
D49*
X108450003Y48899990D03*
D50*
X110250013Y47849980D03*
D51*
X112350003Y83649980D03*
D52*
X118400003Y83649980D03*
D53*
X121900003Y83649980D03*
D50*
X131650003Y83649980D03*
D51*
X139150003Y47849980D03*
D54*
X142250013Y80250000D03*
D46*
X142250013Y71549980D03*
D55*
X142250013Y56699980D03*
D56*
X142250013Y50899980D03*
D31*
G04 #@! TO.P,M6,N1,VBUS*
G04 #@! TO.N,/VBUS*
X141650013Y83449990D03*
G04 #@! TO.P,M6,N2,USBM_(PA11)*
G04 #@! TO.N,/USB-*
X140850013Y83449990D03*
G04 #@! TO.P,M6,N3,USBP_(PA12)*
G04 #@! TO.N,/USB+*
X140050013Y83449990D03*
G04 #@! TO.P,M6,N4,USBID_(PA10)*
G04 #@! TO.N,/DC2_DIS*
X139250003Y83449990D03*
G04 #@! TO.P,M6,N5,SWDIO_(PA13)*
G04 #@! TO.N,unconnected-(M6-SWDIO_(PA13)-PadN5)*
X138450013Y83449990D03*
G04 #@! TO.P,M6,N6,SWCLK_(PA14)*
G04 #@! TO.N,unconnected-(M6-SWCLK_(PA14)-PadN6)*
X137650013Y83449990D03*
G04 #@! TO.P,M6,N7,nReset*
G04 #@! TO.N,unconnected-(M6-nReset-PadN7)*
X136850013Y83449990D03*
G04 #@! TO.P,M6,N8,SWO_(PB3)*
G04 #@! TO.N,unconnected-(M6-SWO_(PB3)-PadN8)*
X136050003Y83449990D03*
G04 #@! TO.P,M6,N9,SPI3_CS_(PA15)*
G04 #@! TO.N,/EGT/SPI_CS*
X135250013Y83449980D03*
G04 #@! TO.P,M6,N10,SPI3_SCK_(PC10)*
G04 #@! TO.N,/SCK3*
X134450013Y83449980D03*
G04 #@! TO.P,M6,N11,SPI3_MISO_(PC11)*
G04 #@! TO.N,/MISO3*
X133650013Y83449980D03*
G04 #@! TO.P,M6,N12,SPI3_MOSI_(PC12)*
G04 #@! TO.N,/PG_5VP*
X132850013Y83449980D03*
G04 #@! TO.P,M6,N13,UART2_TX_(PD5)*
G04 #@! TO.N,PIN7*
X130450003Y83449980D03*
G04 #@! TO.P,M6,N14,UART2_RX_(PD6)*
G04 #@! TO.N,PIN6*
X129650003Y83449980D03*
G04 #@! TO.P,M6,N14a,LED_GREEN*
G04 #@! TO.N,Net-(M6-LED_GREEN)*
X128850013Y83449990D03*
G04 #@! TO.P,M6,N14b,LED_YELLOW*
G04 #@! TO.N,unconnected-(M6-LED_YELLOW-PadN14b)*
X128050003Y83449990D03*
G04 #@! TO.P,M6,N15,V33_SWITCHABLE*
G04 #@! TO.N,+3.3VA*
X127250003Y83449990D03*
G04 #@! TO.P,M6,N16,BOOT0*
G04 #@! TO.N,unconnected-(M6-BOOT0-PadN16)*
X126450003Y83449990D03*
G04 #@! TO.P,M6,N17,VBAT*
G04 #@! TO.N,/VBAT*
X125650003Y83449990D03*
G04 #@! TO.P,M6,N18,UART8_RX_(PE0)*
G04 #@! TO.N,/VR_DISCRETE*
X124850003Y83449980D03*
G04 #@! TO.P,M6,N19,UART8_TX_(PE1)*
G04 #@! TO.N,/VR_MAX9924*
X124050003Y83449980D03*
G04 #@! TO.P,M6,N20,OUT_PWR_EN_(PE10)*
G04 #@! TO.N,/PWR_EN*
X119750003Y83449980D03*
G04 #@! TO.P,M6,N21,V33*
G04 #@! TO.N,+3.3V*
X117050003Y83449980D03*
G04 #@! TO.P,M6,N22,VCC*
G04 #@! TO.N,+5V*
X116050013Y83449980D03*
G04 #@! TO.P,M6,N23,V33*
G04 #@! TO.N,unconnected-(M6-V33-PadN23)*
X108650003Y83449980D03*
G04 #@! TO.P,M6,S1,IN_D4_(PE15)*
G04 #@! TO.N,PIN89*
X135450023Y48049980D03*
G04 #@! TO.P,M6,S2,IN_D3_(PE14)*
G04 #@! TO.N,PIN34*
X134250013Y48049980D03*
G04 #@! TO.P,M6,S3,IN_D2_(PE13)*
G04 #@! TO.N,PIN35*
X133050013Y48049980D03*
G04 #@! TO.P,M6,S4,IN_D1_(PE12)*
G04 #@! TO.N,PIN36*
X131850013Y48049980D03*
G04 #@! TO.P,M6,S5,VREF2*
G04 #@! TO.N,unconnected-(M6-VREF2-PadS5)*
X130650013Y48049980D03*
G04 #@! TO.P,M6,S6,IN_AUX4_(PC5)*
G04 #@! TO.N,/IN_VMAIN*
X129450013Y48049980D03*
G04 #@! TO.P,M6,S7,IN_AUX3_(PA7)*
G04 #@! TO.N,/IN_AUX3*
X128250013Y48049980D03*
G04 #@! TO.P,M6,S8,IN_AUX2_(PC4/PE9)*
G04 #@! TO.N,PIN91*
X127050013Y48049980D03*
G04 #@! TO.P,M6,S9,IN_AUX1_(PB0)*
G04 #@! TO.N,PIN39*
X125850013Y48049980D03*
G04 #@! TO.P,M6,S10,IN_O2S2_(PA1)*
G04 #@! TO.N,PIN41*
X124650013Y48049980D03*
G04 #@! TO.P,M6,S11,IN_O2S_/_CAN_WAKEUP_(PA0)*
G04 #@! TO.N,PIN40*
X123450013Y48049980D03*
G04 #@! TO.P,M6,S12,IN_MAP2_(PC1)*
G04 #@! TO.N,/INTERNAL_MAP*
X122250013Y48049980D03*
G04 #@! TO.P,M6,S13,IN_MAP1_(PC0)*
G04 #@! TO.N,PIN37*
X121050013Y48049980D03*
G04 #@! TO.P,M6,S14,IN_CRANK_(PB1)*
G04 #@! TO.N,PIN84*
X119850013Y48049980D03*
G04 #@! TO.P,M6,S15,IN_KNOCK_(PA2)*
G04 #@! TO.N,/ADC3*
X118650013Y48049980D03*
G04 #@! TO.P,M6,S16,IN_CAM_(PA6)*
G04 #@! TO.N,PIN85*
X117450013Y48049980D03*
G04 #@! TO.P,M6,S17,IN_VSS_(PE11)*
G04 #@! TO.N,PIN42*
X116250013Y48049980D03*
G04 #@! TO.P,M6,S18,IN_TPS_(PA4)*
G04 #@! TO.N,PIN38*
X115050003Y48049980D03*
G04 #@! TO.P,M6,S19,IN_PPS_(PA3)*
G04 #@! TO.N,PIN90*
X113850003Y48049980D03*
G04 #@! TO.P,M6,S20,IN_IAT_(PC3)*
G04 #@! TO.N,PIN63*
X112650003Y48049980D03*
G04 #@! TO.P,M6,S21,IN_CLT_(PC2)*
G04 #@! TO.N,PIN65*
X111450003Y48049980D03*
G04 #@! TO.P,M6,S22,VREF1*
G04 #@! TO.N,/VREF1*
X109050003Y48049980D03*
G04 #@! TO.P,M6,W1,GNDA*
G04 #@! TO.N,PIN113*
X108650003Y50549990D03*
G04 #@! TO.P,M6,W2,V5A_SWITCHABLE*
G04 #@! TO.N,+5VA*
X108650003Y51549990D03*
G04 #@! TO.P,M6,W3,IGN8_(PE6)*
G04 #@! TO.N,/LS_HOT2*
X108650003Y62249980D03*
G04 #@! TO.P,M6,W4,IGN7_(PB9)*
G04 #@! TO.N,/LS_HOT1*
X108650003Y63249990D03*
G04 #@! TO.P,M6,W5,IGN6_(PB8)*
G04 #@! TO.N,/IGN6*
X108650003Y64249980D03*
G04 #@! TO.P,M6,W6,IGN5_(PE2)*
G04 #@! TO.N,/IGN5*
X108650003Y65249980D03*
G04 #@! TO.P,M6,W7,IGN4_(PE3)*
G04 #@! TO.N,/IGN4*
X108650003Y66249980D03*
G04 #@! TO.P,M6,W8,IGN3_(PE4)*
G04 #@! TO.N,/IGN3*
X108650003Y67249980D03*
G04 #@! TO.P,M6,W9,IGN2_(PE5)*
G04 #@! TO.N,/IGN2*
X108650003Y68249980D03*
G04 #@! TO.P,M6,W10,IGN1_(PC13)*
G04 #@! TO.N,/IGN1*
X108650003Y69249980D03*
G04 #@! TO.P,M6,W11,CANH*
G04 #@! TO.N,PIN82*
X108650003Y71849980D03*
G04 #@! TO.P,M6,W12,CANL*
G04 #@! TO.N,PIN83*
X108650003Y72649980D03*
G04 #@! TO.P,M6,W13,V33_REF*
G04 #@! TO.N,unconnected-(M6-V33_REF-PadW13)*
X108650003Y77349990D03*
G04 #@! TO.P,M6,W14,V5A_SWITCHABLE*
G04 #@! TO.N,unconnected-(M6-V5A_SWITCHABLE-PadW14)*
X108650003Y78749980D03*
G04 #@! TD*
G04 #@! TO.P,R16,1*
G04 #@! TO.N,/LS1*
G04 #@! TA.AperFunction,SMDPad,CuDef*
G36*
G01*
X36250000Y62339046D02*
X36250000Y63119046D01*
G75*
G02*
X36320000Y63189046I70000J0D01*
G01*
X36880000Y63189046D01*
G75*
G02*
X36950000Y63119046I0J-70000D01*
G01*
X36950000Y62339046D01*
G75*
G02*
X36880000Y62269046I-70000J0D01*
G01*
X36320000Y62269046D01*
G75*
G02*
X36250000Y62339046I0J70000D01*
G01*
G37*
G04 #@! TD.AperFunction*
G04 #@! TO.P,R16,2*
G04 #@! TO.N,PIN114*
G04 #@! TA.AperFunction,SMDPad,CuDef*
G36*
G01*
X37850000Y62339046D02*
X37850000Y63119046D01*
G75*
G02*
X37920000Y63189046I70000J0D01*
G01*
X38480000Y63189046D01*
G75*
G02*
X38550000Y63119046I0J-70000D01*
G01*
X38550000Y62339046D01*
G75*
G02*
X38480000Y62269046I-70000J0D01*
G01*
X37920000Y62269046D01*
G75*
G02*
X37850000Y62339046I0J70000D01*
G01*
G37*
G04 #@! TD.AperFunction*
G04 #@! TD*
G04 #@! TO.P,D1,1,K*
G04 #@! TO.N,PIN117*
G04 #@! TA.AperFunction,SMDPad,CuDef*
G36*
G01*
X21030000Y65533733D02*
X21030000Y66553733D01*
G75*
G02*
X21120000Y66643733I90000J0D01*
G01*
X21840000Y66643733D01*
G75*
G02*
X21930000Y66553733I0J-90000D01*
G01*
X21930000Y65533733D01*
G75*
G02*
X21840000Y65443733I-90000J0D01*
G01*
X21120000Y65443733D01*
G75*
G02*
X21030000Y65533733I0J90000D01*
G01*
G37*
G04 #@! TD.AperFunction*
G04 #@! TO.P,D1,2,A*
G04 #@! TO.N,PIN14*
G04 #@! TA.AperFunction,SMDPad,CuDef*
G36*
G01*
X24330000Y65533733D02*
X24330000Y66553733D01*
G75*
G02*
X24420000Y66643733I90000J0D01*
G01*
X25140000Y66643733D01*
G75*
G02*
X25230000Y66553733I0J-90000D01*
G01*
X25230000Y65533733D01*
G75*
G02*
X25140000Y65443733I-90000J0D01*
G01*
X24420000Y65443733D01*
G75*
G02*
X24330000Y65533733I0J90000D01*
G01*
G37*
G04 #@! TD.AperFunction*
G04 #@! TD*
G04 #@! TO.P,R12,1*
G04 #@! TO.N,PIN113*
G04 #@! TA.AperFunction,SMDPad,CuDef*
G36*
G01*
X13620000Y53214092D02*
X13620000Y54464092D01*
G75*
G02*
X13720000Y54564092I100000J0D01*
G01*
X14520000Y54564092D01*
G75*
G02*
X14620000Y54464092I0J-100000D01*
G01*
X14620000Y53214092D01*
G75*
G02*
X14520000Y53114092I-100000J0D01*
G01*
X13720000Y53114092D01*
G75*
G02*
X13620000Y53214092I0J100000D01*
G01*
G37*
G04 #@! TD.AperFunction*
G04 #@! TO.P,R12,2*
G04 #@! TO.N,PIN89*
G04 #@! TA.AperFunction,SMDPad,CuDef*
G36*
G01*
X15520022Y53214092D02*
X15520022Y54464092D01*
G75*
G02*
X15620022Y54564092I100000J0D01*
G01*
X16420022Y54564092D01*
G75*
G02*
X16520022Y54464092I0J-100000D01*
G01*
X16520022Y53214092D01*
G75*
G02*
X16420022Y53114092I-100000J0D01*
G01*
X15620022Y53114092D01*
G75*
G02*
X15520022Y53214092I0J100000D01*
G01*
G37*
G04 #@! TD.AperFunction*
G04 #@! TD*
G04 #@! TO.P,F4,1*
G04 #@! TO.N,Net-(F4-Pad1)*
G04 #@! TA.AperFunction,SMDPad,CuDef*
G36*
G01*
X71140000Y41828750D02*
X71140000Y42341250D01*
G75*
G02*
X71358750Y42560000I218750J0D01*
G01*
X71796250Y42560000D01*
G75*
G02*
X72015000Y42341250I0J-218750D01*
G01*
X72015000Y41828750D01*
G75*
G02*
X71796250Y41610000I-218750J0D01*
G01*
X71358750Y41610000D01*
G75*
G02*
X71140000Y41828750I0J218750D01*
G01*
G37*
G04 #@! TD.AperFunction*
G04 #@! TO.P,F4,2*
G04 #@! TO.N,/IGN1*
G04 #@! TA.AperFunction,SMDPad,CuDef*
G36*
G01*
X72715000Y41828750D02*
X72715000Y42341250D01*
G75*
G02*
X72933750Y42560000I218750J0D01*
G01*
X73371250Y42560000D01*
G75*
G02*
X73590000Y42341250I0J-218750D01*
G01*
X73590000Y41828750D01*
G75*
G02*
X73371250Y41610000I-218750J0D01*
G01*
X72933750Y41610000D01*
G75*
G02*
X72715000Y41828750I0J218750D01*
G01*
G37*
G04 #@! TD.AperFunction*
G04 #@! TD*
G04 #@! TO.P,R53,1*
G04 #@! TO.N,/LS_HOT1*
G04 #@! TA.AperFunction,SMDPad,CuDef*
G36*
G01*
X36250000Y40110000D02*
X36250000Y40890000D01*
G75*
G02*
X36320000Y40960000I70000J0D01*
G01*
X36880000Y40960000D01*
G75*
G02*
X36950000Y40890000I0J-70000D01*
G01*
X36950000Y40110000D01*
G75*
G02*
X36880000Y40040000I-70000J0D01*
G01*
X36320000Y40040000D01*
G75*
G02*
X36250000Y40110000I0J70000D01*
G01*
G37*
G04 #@! TD.AperFunction*
G04 #@! TO.P,R53,2*
G04 #@! TO.N,PIN114*
G04 #@! TA.AperFunction,SMDPad,CuDef*
G36*
G01*
X37850000Y40110000D02*
X37850000Y40890000D01*
G75*
G02*
X37920000Y40960000I70000J0D01*
G01*
X38480000Y40960000D01*
G75*
G02*
X38550000Y40890000I0J-70000D01*
G01*
X38550000Y40110000D01*
G75*
G02*
X38480000Y40040000I-70000J0D01*
G01*
X37920000Y40040000D01*
G75*
G02*
X37850000Y40110000I0J70000D01*
G01*
G37*
G04 #@! TD.AperFunction*
G04 #@! TD*
D57*
G04 #@! TO.P,J22,1,VBUS*
G04 #@! TO.N,/VBUS*
X23645000Y51398733D03*
D58*
G04 #@! TO.P,J22,2,D-*
G04 #@! TO.N,/USB-*
X24445000Y53148733D03*
G04 #@! TO.P,J22,3,D+*
G04 #@! TO.N,/USB+*
X25245000Y51398733D03*
G04 #@! TO.P,J22,4,ID*
G04 #@! TO.N,unconnected-(J22-ID-Pad4)*
X26045000Y53148733D03*
G04 #@! TO.P,J22,5,GND*
G04 #@! TO.N,PIN114*
X26845000Y51398733D03*
D59*
G04 #@! TO.P,J22,6,Shield*
X21595000Y52273733D03*
X28895000Y52273733D03*
G04 #@! TD*
G04 #@! TO.P,C4,1*
G04 #@! TO.N,PIN114*
G04 #@! TA.AperFunction,SMDPad,CuDef*
G36*
G01*
X30820000Y40183792D02*
X30820000Y40863792D01*
G75*
G02*
X30905000Y40948792I85000J0D01*
G01*
X31585000Y40948792D01*
G75*
G02*
X31670000Y40863792I0J-85000D01*
G01*
X31670000Y40183792D01*
G75*
G02*
X31585000Y40098792I-85000J0D01*
G01*
X30905000Y40098792D01*
G75*
G02*
X30820000Y40183792I0J85000D01*
G01*
G37*
G04 #@! TD.AperFunction*
G04 #@! TO.P,C4,2*
G04 #@! TO.N,+3.3VA*
G04 #@! TA.AperFunction,SMDPad,CuDef*
G36*
G01*
X32400002Y40183792D02*
X32400002Y40863792D01*
G75*
G02*
X32485002Y40948792I85000J0D01*
G01*
X33165002Y40948792D01*
G75*
G02*
X33250002Y40863792I0J-85000D01*
G01*
X33250002Y40183792D01*
G75*
G02*
X33165002Y40098792I-85000J0D01*
G01*
X32485002Y40098792D01*
G75*
G02*
X32400002Y40183792I0J85000D01*
G01*
G37*
G04 #@! TD.AperFunction*
G04 #@! TD*
G04 #@! TO.P,U5,1,IN1*
G04 #@! TO.N,Net-(U5-IN1)*
G04 #@! TA.AperFunction,SMDPad,CuDef*
G36*
G01*
X81825000Y57920000D02*
X81825000Y58220000D01*
G75*
G02*
X81975000Y58370000I150000J0D01*
G01*
X83625000Y58370000D01*
G75*
G02*
X83775000Y58220000I0J-150000D01*
G01*
X83775000Y57920000D01*
G75*
G02*
X83625000Y57770000I-150000J0D01*
G01*
X81975000Y57770000D01*
G75*
G02*
X81825000Y57920000I0J150000D01*
G01*
G37*
G04 #@! TD.AperFunction*
G04 #@! TO.P,U5,2,STATUS1*
G04 #@! TO.N,unconnected-(U5-STATUS1-Pad2)*
G04 #@! TA.AperFunction,SMDPad,CuDef*
G36*
G01*
X81825000Y56650000D02*
X81825000Y56950000D01*
G75*
G02*
X81975000Y57100000I150000J0D01*
G01*
X83625000Y57100000D01*
G75*
G02*
X83775000Y56950000I0J-150000D01*
G01*
X83775000Y56650000D01*
G75*
G02*
X83625000Y56500000I-150000J0D01*
G01*
X81975000Y56500000D01*
G75*
G02*
X81825000Y56650000I0J150000D01*
G01*
G37*
G04 #@! TD.AperFunction*
G04 #@! TO.P,U5,3,IN2*
G04 #@! TO.N,Net-(U5-IN2)*
G04 #@! TA.AperFunction,SMDPad,CuDef*
G36*
G01*
X81825000Y55380000D02*
X81825000Y55680000D01*
G75*
G02*
X81975000Y55830000I150000J0D01*
G01*
X83625000Y55830000D01*
G75*
G02*
X83775000Y55680000I0J-150000D01*
G01*
X83775000Y55380000D01*
G75*
G02*
X83625000Y55230000I-150000J0D01*
G01*
X81975000Y55230000D01*
G75*
G02*
X81825000Y55380000I0J150000D01*
G01*
G37*
G04 #@! TD.AperFunction*
G04 #@! TO.P,U5,4,STATUS2*
G04 #@! TO.N,unconnected-(U5-STATUS2-Pad4)*
G04 #@! TA.AperFunction,SMDPad,CuDef*
G36*
G01*
X81825000Y54110000D02*
X81825000Y54410000D01*
G75*
G02*
X81975000Y54560000I150000J0D01*
G01*
X83625000Y54560000D01*
G75*
G02*
X83775000Y54410000I0J-150000D01*
G01*
X83775000Y54110000D01*
G75*
G02*
X83625000Y53960000I-150000J0D01*
G01*
X81975000Y53960000D01*
G75*
G02*
X81825000Y54110000I0J150000D01*
G01*
G37*
G04 #@! TD.AperFunction*
G04 #@! TO.P,U5,5,S2*
G04 #@! TO.N,PIN114*
G04 #@! TA.AperFunction,SMDPad,CuDef*
G36*
G01*
X86775000Y54110000D02*
X86775000Y54410000D01*
G75*
G02*
X86925000Y54560000I150000J0D01*
G01*
X88575000Y54560000D01*
G75*
G02*
X88725000Y54410000I0J-150000D01*
G01*
X88725000Y54110000D01*
G75*
G02*
X88575000Y53960000I-150000J0D01*
G01*
X86925000Y53960000D01*
G75*
G02*
X86775000Y54110000I0J150000D01*
G01*
G37*
G04 #@! TD.AperFunction*
G04 #@! TO.P,U5,6,D2*
G04 #@! TO.N,PIN49*
G04 #@! TA.AperFunction,SMDPad,CuDef*
G36*
G01*
X86775000Y55380000D02*
X86775000Y55680000D01*
G75*
G02*
X86925000Y55830000I150000J0D01*
G01*
X88575000Y55830000D01*
G75*
G02*
X88725000Y55680000I0J-150000D01*
G01*
X88725000Y55380000D01*
G75*
G02*
X88575000Y55230000I-150000J0D01*
G01*
X86925000Y55230000D01*
G75*
G02*
X86775000Y55380000I0J150000D01*
G01*
G37*
G04 #@! TD.AperFunction*
G04 #@! TO.P,U5,7,S1*
G04 #@! TO.N,PIN114*
G04 #@! TA.AperFunction,SMDPad,CuDef*
G36*
G01*
X86775000Y56650000D02*
X86775000Y56950000D01*
G75*
G02*
X86925000Y57100000I150000J0D01*
G01*
X88575000Y57100000D01*
G75*
G02*
X88725000Y56950000I0J-150000D01*
G01*
X88725000Y56650000D01*
G75*
G02*
X88575000Y56500000I-150000J0D01*
G01*
X86925000Y56500000D01*
G75*
G02*
X86775000Y56650000I0J150000D01*
G01*
G37*
G04 #@! TD.AperFunction*
G04 #@! TO.P,U5,8,D1*
G04 #@! TO.N,PIN48*
G04 #@! TA.AperFunction,SMDPad,CuDef*
G36*
G01*
X86775000Y57920000D02*
X86775000Y58220000D01*
G75*
G02*
X86925000Y58370000I150000J0D01*
G01*
X88575000Y58370000D01*
G75*
G02*
X88725000Y58220000I0J-150000D01*
G01*
X88725000Y57920000D01*
G75*
G02*
X88575000Y57770000I-150000J0D01*
G01*
X86925000Y57770000D01*
G75*
G02*
X86775000Y57920000I0J150000D01*
G01*
G37*
G04 #@! TD.AperFunction*
G04 #@! TD*
G04 #@! TO.P,R5,1*
G04 #@! TO.N,/IN_KNOCK*
G04 #@! TA.AperFunction,SMDPad,CuDef*
G36*
G01*
X17520000Y60390000D02*
X17520000Y61170000D01*
G75*
G02*
X17590000Y61240000I70000J0D01*
G01*
X18150000Y61240000D01*
G75*
G02*
X18220000Y61170000I0J-70000D01*
G01*
X18220000Y60390000D01*
G75*
G02*
X18150000Y60320000I-70000J0D01*
G01*
X17590000Y60320000D01*
G75*
G02*
X17520000Y60390000I0J70000D01*
G01*
G37*
G04 #@! TD.AperFunction*
G04 #@! TO.P,R5,2*
G04 #@! TO.N,/ADC3*
G04 #@! TA.AperFunction,SMDPad,CuDef*
G36*
G01*
X19120000Y60390000D02*
X19120000Y61170000D01*
G75*
G02*
X19190000Y61240000I70000J0D01*
G01*
X19750000Y61240000D01*
G75*
G02*
X19820000Y61170000I0J-70000D01*
G01*
X19820000Y60390000D01*
G75*
G02*
X19750000Y60320000I-70000J0D01*
G01*
X19190000Y60320000D01*
G75*
G02*
X19120000Y60390000I0J70000D01*
G01*
G37*
G04 #@! TD.AperFunction*
G04 #@! TD*
G04 #@! TO.P,C5,1*
G04 #@! TO.N,PIN114*
G04 #@! TA.AperFunction,SMDPad,CuDef*
G36*
G01*
X30820000Y38233807D02*
X30820000Y38913807D01*
G75*
G02*
X30905000Y38998807I85000J0D01*
G01*
X31585000Y38998807D01*
G75*
G02*
X31670000Y38913807I0J-85000D01*
G01*
X31670000Y38233807D01*
G75*
G02*
X31585000Y38148807I-85000J0D01*
G01*
X30905000Y38148807D01*
G75*
G02*
X30820000Y38233807I0J85000D01*
G01*
G37*
G04 #@! TD.AperFunction*
G04 #@! TO.P,C5,2*
G04 #@! TO.N,+3.3VA*
G04 #@! TA.AperFunction,SMDPad,CuDef*
G36*
G01*
X32400002Y38233807D02*
X32400002Y38913807D01*
G75*
G02*
X32485002Y38998807I85000J0D01*
G01*
X33165002Y38998807D01*
G75*
G02*
X33250002Y38913807I0J-85000D01*
G01*
X33250002Y38233807D01*
G75*
G02*
X33165002Y38148807I-85000J0D01*
G01*
X32485002Y38148807D01*
G75*
G02*
X32400002Y38233807I0J85000D01*
G01*
G37*
G04 #@! TD.AperFunction*
G04 #@! TD*
G04 #@! TO.P,R37,1*
G04 #@! TO.N,E6INJ7CANRX*
G04 #@! TA.AperFunction,SMDPad,CuDef*
G36*
G01*
X13620000Y40110000D02*
X13620000Y40890000D01*
G75*
G02*
X13690000Y40960000I70000J0D01*
G01*
X14250000Y40960000D01*
G75*
G02*
X14320000Y40890000I0J-70000D01*
G01*
X14320000Y40110000D01*
G75*
G02*
X14250000Y40040000I-70000J0D01*
G01*
X13690000Y40040000D01*
G75*
G02*
X13620000Y40110000I0J70000D01*
G01*
G37*
G04 #@! TD.AperFunction*
G04 #@! TO.P,R37,2*
G04 #@! TO.N,PIN114*
G04 #@! TA.AperFunction,SMDPad,CuDef*
G36*
G01*
X15220000Y40110000D02*
X15220000Y40890000D01*
G75*
G02*
X15290000Y40960000I70000J0D01*
G01*
X15850000Y40960000D01*
G75*
G02*
X15920000Y40890000I0J-70000D01*
G01*
X15920000Y40110000D01*
G75*
G02*
X15850000Y40040000I-70000J0D01*
G01*
X15290000Y40040000D01*
G75*
G02*
X15220000Y40110000I0J70000D01*
G01*
G37*
G04 #@! TD.AperFunction*
G04 #@! TD*
G04 #@! TO.P,R30,1*
G04 #@! TO.N,Net-(Q6-G)*
G04 #@! TA.AperFunction,SMDPad,CuDef*
G36*
G01*
X25520000Y36211908D02*
X25520000Y36991908D01*
G75*
G02*
X25590000Y37061908I70000J0D01*
G01*
X26150000Y37061908D01*
G75*
G02*
X26220000Y36991908I0J-70000D01*
G01*
X26220000Y36211908D01*
G75*
G02*
X26150000Y36141908I-70000J0D01*
G01*
X25590000Y36141908D01*
G75*
G02*
X25520000Y36211908I0J70000D01*
G01*
G37*
G04 #@! TD.AperFunction*
G04 #@! TO.P,R30,2*
G04 #@! TO.N,Net-(F9-Pad1)*
G04 #@! TA.AperFunction,SMDPad,CuDef*
G36*
G01*
X27120000Y36211908D02*
X27120000Y36991908D01*
G75*
G02*
X27190000Y37061908I70000J0D01*
G01*
X27750000Y37061908D01*
G75*
G02*
X27820000Y36991908I0J-70000D01*
G01*
X27820000Y36211908D01*
G75*
G02*
X27750000Y36141908I-70000J0D01*
G01*
X27190000Y36141908D01*
G75*
G02*
X27120000Y36211908I0J70000D01*
G01*
G37*
G04 #@! TD.AperFunction*
G04 #@! TD*
D21*
G04 #@! TO.P,F3,1,1*
G04 #@! TO.N,PIN120*
X27290000Y59803733D03*
G04 #@! TA.AperFunction,SMDPad,CuDef*
G36*
G01*
X28634990Y58903733D02*
X27944990Y58903733D01*
G75*
G02*
X27714990Y59133733I0J230000D01*
G01*
X27714990Y60473733D01*
G75*
G02*
X27944990Y60703733I230000J0D01*
G01*
X28634990Y60703733D01*
G75*
G02*
X28864990Y60473733I0J-230000D01*
G01*
X28864990Y59133733D01*
G75*
G02*
X28634990Y58903733I-230000J0D01*
G01*
G37*
G04 #@! TD.AperFunction*
G04 #@! TO.P,F3,2,2*
G04 #@! TO.N,Net-(F3-Pad2)*
G04 #@! TA.AperFunction,SMDPad,CuDef*
G36*
G01*
X31535010Y58903733D02*
X30845010Y58903733D01*
G75*
G02*
X30615010Y59133733I0J230000D01*
G01*
X30615010Y60473733D01*
G75*
G02*
X30845010Y60703733I230000J0D01*
G01*
X31535010Y60703733D01*
G75*
G02*
X31765010Y60473733I0J-230000D01*
G01*
X31765010Y59133733D01*
G75*
G02*
X31535010Y58903733I-230000J0D01*
G01*
G37*
G04 #@! TD.AperFunction*
X32190000Y59803733D03*
G04 #@! TD*
D31*
G04 #@! TO.P,M4,E1,NC*
G04 #@! TO.N,unconnected-(M4-NC-PadE1)*
X158400003Y69800000D03*
G04 #@! TO.P,M4,E2,NC*
G04 #@! TO.N,unconnected-(M4-NC-PadE2)*
X158400003Y68600000D03*
G04 #@! TO.P,M4,E3,OUT*
G04 #@! TO.N,/VR_MAX9924*
X158400003Y71000000D03*
G04 #@! TO.P,M4,E4,V5_IN*
G04 #@! TO.N,+5VA*
X158400003Y72200000D03*
D32*
G04 #@! TO.P,M4,G,GND*
G04 #@! TO.N,PIN114*
X143750003Y69532500D03*
D33*
X143750003Y63482500D03*
D34*
X150762503Y72500000D03*
D35*
X151175003Y63050000D03*
D36*
X158600003Y65512500D03*
D31*
G04 #@! TO.P,M4,W1,VR-*
G04 #@! TO.N,PIN20*
X143975003Y65740000D03*
G04 #@! TO.P,M4,W2,VR+*
G04 #@! TO.N,PIN19*
X143975003Y64740000D03*
G04 #@! TD*
G04 #@! TO.P,R35,1*
G04 #@! TO.N,E7INJ8CANTX*
G04 #@! TA.AperFunction,SMDPad,CuDef*
G36*
G01*
X13620000Y44008092D02*
X13620000Y44788092D01*
G75*
G02*
X13690000Y44858092I70000J0D01*
G01*
X14250000Y44858092D01*
G75*
G02*
X14320000Y44788092I0J-70000D01*
G01*
X14320000Y44008092D01*
G75*
G02*
X14250000Y43938092I-70000J0D01*
G01*
X13690000Y43938092D01*
G75*
G02*
X13620000Y44008092I0J70000D01*
G01*
G37*
G04 #@! TD.AperFunction*
G04 #@! TO.P,R35,2*
G04 #@! TO.N,PIN114*
G04 #@! TA.AperFunction,SMDPad,CuDef*
G36*
G01*
X15220000Y44008092D02*
X15220000Y44788092D01*
G75*
G02*
X15290000Y44858092I70000J0D01*
G01*
X15850000Y44858092D01*
G75*
G02*
X15920000Y44788092I0J-70000D01*
G01*
X15920000Y44008092D01*
G75*
G02*
X15850000Y43938092I-70000J0D01*
G01*
X15290000Y43938092D01*
G75*
G02*
X15220000Y44008092I0J70000D01*
G01*
G37*
G04 #@! TD.AperFunction*
G04 #@! TD*
G04 #@! TO.P,R48,1*
G04 #@! TO.N,/INJ6*
G04 #@! TA.AperFunction,SMDPad,CuDef*
G36*
G01*
X20220000Y42059046D02*
X20220000Y42839046D01*
G75*
G02*
X20290000Y42909046I70000J0D01*
G01*
X20850000Y42909046D01*
G75*
G02*
X20920000Y42839046I0J-70000D01*
G01*
X20920000Y42059046D01*
G75*
G02*
X20850000Y41989046I-70000J0D01*
G01*
X20290000Y41989046D01*
G75*
G02*
X20220000Y42059046I0J70000D01*
G01*
G37*
G04 #@! TD.AperFunction*
G04 #@! TO.P,R48,2*
G04 #@! TO.N,Net-(U5-IN2)*
G04 #@! TA.AperFunction,SMDPad,CuDef*
G36*
G01*
X21820000Y42059046D02*
X21820000Y42839046D01*
G75*
G02*
X21890000Y42909046I70000J0D01*
G01*
X22450000Y42909046D01*
G75*
G02*
X22520000Y42839046I0J-70000D01*
G01*
X22520000Y42059046D01*
G75*
G02*
X22450000Y41989046I-70000J0D01*
G01*
X21890000Y41989046D01*
G75*
G02*
X21820000Y42059046I0J70000D01*
G01*
G37*
G04 #@! TD.AperFunction*
G04 #@! TD*
G04 #@! TO.P,R27,1*
G04 #@! TO.N,Net-(F6-Pad1)*
G04 #@! TA.AperFunction,SMDPad,CuDef*
G36*
G01*
X71130000Y59030000D02*
X71130000Y61880000D01*
G75*
G02*
X71380000Y62130000I250000J0D01*
G01*
X72105000Y62130000D01*
G75*
G02*
X72355000Y61880000I0J-250000D01*
G01*
X72355000Y59030000D01*
G75*
G02*
X72105000Y58780000I-250000J0D01*
G01*
X71380000Y58780000D01*
G75*
G02*
X71130000Y59030000I0J250000D01*
G01*
G37*
G04 #@! TD.AperFunction*
G04 #@! TO.P,R27,2*
G04 #@! TO.N,PIN10*
G04 #@! TA.AperFunction,SMDPad,CuDef*
G36*
G01*
X77055000Y59030000D02*
X77055000Y61880000D01*
G75*
G02*
X77305000Y62130000I250000J0D01*
G01*
X78030000Y62130000D01*
G75*
G02*
X78280000Y61880000I0J-250000D01*
G01*
X78280000Y59030000D01*
G75*
G02*
X78030000Y58780000I-250000J0D01*
G01*
X77305000Y58780000D01*
G75*
G02*
X77055000Y59030000I0J250000D01*
G01*
G37*
G04 #@! TD.AperFunction*
G04 #@! TD*
G04 #@! TO.P,R47,1*
G04 #@! TO.N,/INJ5*
G04 #@! TA.AperFunction,SMDPad,CuDef*
G36*
G01*
X20220000Y44008092D02*
X20220000Y44788092D01*
G75*
G02*
X20290000Y44858092I70000J0D01*
G01*
X20850000Y44858092D01*
G75*
G02*
X20920000Y44788092I0J-70000D01*
G01*
X20920000Y44008092D01*
G75*
G02*
X20850000Y43938092I-70000J0D01*
G01*
X20290000Y43938092D01*
G75*
G02*
X20220000Y44008092I0J70000D01*
G01*
G37*
G04 #@! TD.AperFunction*
G04 #@! TO.P,R47,2*
G04 #@! TO.N,PIN114*
G04 #@! TA.AperFunction,SMDPad,CuDef*
G36*
G01*
X21820000Y44008092D02*
X21820000Y44788092D01*
G75*
G02*
X21890000Y44858092I70000J0D01*
G01*
X22450000Y44858092D01*
G75*
G02*
X22520000Y44788092I0J-70000D01*
G01*
X22520000Y44008092D01*
G75*
G02*
X22450000Y43938092I-70000J0D01*
G01*
X21890000Y43938092D01*
G75*
G02*
X21820000Y44008092I0J70000D01*
G01*
G37*
G04 #@! TD.AperFunction*
G04 #@! TD*
G04 #@! TO.P,C3,1*
G04 #@! TO.N,PIN114*
G04 #@! TA.AperFunction,SMDPad,CuDef*
G36*
G01*
X30820000Y42133777D02*
X30820000Y42813777D01*
G75*
G02*
X30905000Y42898777I85000J0D01*
G01*
X31585000Y42898777D01*
G75*
G02*
X31670000Y42813777I0J-85000D01*
G01*
X31670000Y42133777D01*
G75*
G02*
X31585000Y42048777I-85000J0D01*
G01*
X30905000Y42048777D01*
G75*
G02*
X30820000Y42133777I0J85000D01*
G01*
G37*
G04 #@! TD.AperFunction*
G04 #@! TO.P,C3,2*
G04 #@! TO.N,Net-(U8-T+)*
G04 #@! TA.AperFunction,SMDPad,CuDef*
G36*
G01*
X32400002Y42133777D02*
X32400002Y42813777D01*
G75*
G02*
X32485002Y42898777I85000J0D01*
G01*
X33165002Y42898777D01*
G75*
G02*
X33250002Y42813777I0J-85000D01*
G01*
X33250002Y42133777D01*
G75*
G02*
X33165002Y42048777I-85000J0D01*
G01*
X32485002Y42048777D01*
G75*
G02*
X32400002Y42133777I0J85000D01*
G01*
G37*
G04 #@! TD.AperFunction*
G04 #@! TD*
G04 #@! TO.P,R44,1*
G04 #@! TO.N,/INJ4*
G04 #@! TA.AperFunction,SMDPad,CuDef*
G36*
G01*
X16920000Y38160954D02*
X16920000Y38940954D01*
G75*
G02*
X16990000Y39010954I70000J0D01*
G01*
X17550000Y39010954D01*
G75*
G02*
X17620000Y38940954I0J-70000D01*
G01*
X17620000Y38160954D01*
G75*
G02*
X17550000Y38090954I-70000J0D01*
G01*
X16990000Y38090954D01*
G75*
G02*
X16920000Y38160954I0J70000D01*
G01*
G37*
G04 #@! TD.AperFunction*
G04 #@! TO.P,R44,2*
G04 #@! TO.N,PIN114*
G04 #@! TA.AperFunction,SMDPad,CuDef*
G36*
G01*
X18520000Y38160954D02*
X18520000Y38940954D01*
G75*
G02*
X18590000Y39010954I70000J0D01*
G01*
X19150000Y39010954D01*
G75*
G02*
X19220000Y38940954I0J-70000D01*
G01*
X19220000Y38160954D01*
G75*
G02*
X19150000Y38090954I-70000J0D01*
G01*
X18590000Y38090954D01*
G75*
G02*
X18520000Y38160954I0J70000D01*
G01*
G37*
G04 #@! TD.AperFunction*
G04 #@! TD*
G04 #@! TO.P,R46,1*
G04 #@! TO.N,/INJ5*
G04 #@! TA.AperFunction,SMDPad,CuDef*
G36*
G01*
X20220000Y45957138D02*
X20220000Y46737138D01*
G75*
G02*
X20290000Y46807138I70000J0D01*
G01*
X20850000Y46807138D01*
G75*
G02*
X20920000Y46737138I0J-70000D01*
G01*
X20920000Y45957138D01*
G75*
G02*
X20850000Y45887138I-70000J0D01*
G01*
X20290000Y45887138D01*
G75*
G02*
X20220000Y45957138I0J70000D01*
G01*
G37*
G04 #@! TD.AperFunction*
G04 #@! TO.P,R46,2*
G04 #@! TO.N,Net-(U5-IN1)*
G04 #@! TA.AperFunction,SMDPad,CuDef*
G36*
G01*
X21820000Y45957138D02*
X21820000Y46737138D01*
G75*
G02*
X21890000Y46807138I70000J0D01*
G01*
X22450000Y46807138D01*
G75*
G02*
X22520000Y46737138I0J-70000D01*
G01*
X22520000Y45957138D01*
G75*
G02*
X22450000Y45887138I-70000J0D01*
G01*
X21890000Y45887138D01*
G75*
G02*
X21820000Y45957138I0J70000D01*
G01*
G37*
G04 #@! TD.AperFunction*
G04 #@! TD*
D21*
G04 #@! TO.P,R4,1,1*
G04 #@! TO.N,Net-(M1-PG_5VP)*
X27155391Y56818342D03*
G04 #@! TA.AperFunction,SMDPad,CuDef*
G36*
G01*
X27610390Y56193342D02*
X27610390Y57443342D01*
G75*
G02*
X27710390Y57543342I100000J0D01*
G01*
X28510390Y57543342D01*
G75*
G02*
X28610390Y57443342I0J-100000D01*
G01*
X28610390Y56193342D01*
G75*
G02*
X28510390Y56093342I-100000J0D01*
G01*
X27710390Y56093342D01*
G75*
G02*
X27610390Y56193342I0J100000D01*
G01*
G37*
G04 #@! TD.AperFunction*
G04 #@! TO.P,R4,2,2*
G04 #@! TO.N,/PG_5VP*
G04 #@! TA.AperFunction,SMDPad,CuDef*
G36*
G01*
X29510412Y56193342D02*
X29510412Y57443342D01*
G75*
G02*
X29610412Y57543342I100000J0D01*
G01*
X30410412Y57543342D01*
G75*
G02*
X30510412Y57443342I0J-100000D01*
G01*
X30510412Y56193342D01*
G75*
G02*
X30410412Y56093342I-100000J0D01*
G01*
X29610412Y56093342D01*
G75*
G02*
X29510412Y56193342I0J100000D01*
G01*
G37*
G04 #@! TD.AperFunction*
X30965391Y56818342D03*
G04 #@! TD*
G04 #@! TO.P,Q2,1,G*
G04 #@! TO.N,Net-(Q2-G)*
G04 #@! TA.AperFunction,SMDPad,CuDef*
G36*
G01*
X58985000Y62245000D02*
X58985000Y62945000D01*
G75*
G02*
X59235000Y63195000I250000J0D01*
G01*
X60935000Y63195000D01*
G75*
G02*
X61185000Y62945000I0J-250000D01*
G01*
X61185000Y62245000D01*
G75*
G02*
X60935000Y61995000I-250000J0D01*
G01*
X59235000Y61995000D01*
G75*
G02*
X58985000Y62245000I0J250000D01*
G01*
G37*
G04 #@! TD.AperFunction*
G04 #@! TO.P,Q2,2,C*
G04 #@! TO.N,PIN12*
G04 #@! TA.AperFunction,SMDPad,CuDef*
G36*
G01*
X63185000Y60715000D02*
X63185000Y62965000D01*
G75*
G02*
X63435000Y63215000I250000J0D01*
G01*
X65985000Y63215000D01*
G75*
G02*
X66235000Y62965000I0J-250000D01*
G01*
X66235000Y60715000D01*
G75*
G02*
X65985000Y60465000I-250000J0D01*
G01*
X63435000Y60465000D01*
G75*
G02*
X63185000Y60715000I0J250000D01*
G01*
G37*
G04 #@! TD.AperFunction*
G04 #@! TA.AperFunction,SMDPad,CuDef*
G36*
G01*
X63185000Y57665000D02*
X63185000Y59915000D01*
G75*
G02*
X63435000Y60165000I250000J0D01*
G01*
X65985000Y60165000D01*
G75*
G02*
X66235000Y59915000I0J-250000D01*
G01*
X66235000Y57665000D01*
G75*
G02*
X65985000Y57415000I-250000J0D01*
G01*
X63435000Y57415000D01*
G75*
G02*
X63185000Y57665000I0J250000D01*
G01*
G37*
G04 #@! TD.AperFunction*
G04 #@! TA.AperFunction,SMDPad,CuDef*
G36*
G01*
X63185000Y57664997D02*
X63185000Y62965003D01*
G75*
G02*
X63434997Y63215000I249997J0D01*
G01*
X69335003Y63215000D01*
G75*
G02*
X69585000Y62965003I0J-249997D01*
G01*
X69585000Y57664997D01*
G75*
G02*
X69335003Y57415000I-249997J0D01*
G01*
X63434997Y57415000D01*
G75*
G02*
X63185000Y57664997I0J249997D01*
G01*
G37*
G04 #@! TD.AperFunction*
G04 #@! TA.AperFunction,SMDPad,CuDef*
G36*
G01*
X66535000Y60715000D02*
X66535000Y62965000D01*
G75*
G02*
X66785000Y63215000I250000J0D01*
G01*
X69335000Y63215000D01*
G75*
G02*
X69585000Y62965000I0J-250000D01*
G01*
X69585000Y60715000D01*
G75*
G02*
X69335000Y60465000I-250000J0D01*
G01*
X66785000Y60465000D01*
G75*
G02*
X66535000Y60715000I0J250000D01*
G01*
G37*
G04 #@! TD.AperFunction*
G04 #@! TA.AperFunction,SMDPad,CuDef*
G36*
G01*
X66535000Y57665000D02*
X66535000Y59915000D01*
G75*
G02*
X66785000Y60165000I250000J0D01*
G01*
X69335000Y60165000D01*
G75*
G02*
X69585000Y59915000I0J-250000D01*
G01*
X69585000Y57665000D01*
G75*
G02*
X69335000Y57415000I-250000J0D01*
G01*
X66785000Y57415000D01*
G75*
G02*
X66535000Y57665000I0J250000D01*
G01*
G37*
G04 #@! TD.AperFunction*
G04 #@! TO.P,Q2,3,E*
G04 #@! TO.N,PIN114*
G04 #@! TA.AperFunction,SMDPad,CuDef*
G36*
G01*
X58985000Y57685000D02*
X58985000Y58385000D01*
G75*
G02*
X59235000Y58635000I250000J0D01*
G01*
X60935000Y58635000D01*
G75*
G02*
X61185000Y58385000I0J-250000D01*
G01*
X61185000Y57685000D01*
G75*
G02*
X60935000Y57435000I-250000J0D01*
G01*
X59235000Y57435000D01*
G75*
G02*
X58985000Y57685000I0J250000D01*
G01*
G37*
G04 #@! TD.AperFunction*
G04 #@! TD*
G04 #@! TO.P,Q3,1,G*
G04 #@! TO.N,Net-(Q3-G)*
G04 #@! TA.AperFunction,SMDPad,CuDef*
G36*
G01*
X58985000Y54050000D02*
X58985000Y54750000D01*
G75*
G02*
X59235000Y55000000I250000J0D01*
G01*
X60935000Y55000000D01*
G75*
G02*
X61185000Y54750000I0J-250000D01*
G01*
X61185000Y54050000D01*
G75*
G02*
X60935000Y53800000I-250000J0D01*
G01*
X59235000Y53800000D01*
G75*
G02*
X58985000Y54050000I0J250000D01*
G01*
G37*
G04 #@! TD.AperFunction*
G04 #@! TO.P,Q3,2,C*
G04 #@! TO.N,PIN10*
G04 #@! TA.AperFunction,SMDPad,CuDef*
G36*
G01*
X63185000Y52520000D02*
X63185000Y54770000D01*
G75*
G02*
X63435000Y55020000I250000J0D01*
G01*
X65985000Y55020000D01*
G75*
G02*
X66235000Y54770000I0J-250000D01*
G01*
X66235000Y52520000D01*
G75*
G02*
X65985000Y52270000I-250000J0D01*
G01*
X63435000Y52270000D01*
G75*
G02*
X63185000Y52520000I0J250000D01*
G01*
G37*
G04 #@! TD.AperFunction*
G04 #@! TA.AperFunction,SMDPad,CuDef*
G36*
G01*
X63185000Y49470000D02*
X63185000Y51720000D01*
G75*
G02*
X63435000Y51970000I250000J0D01*
G01*
X65985000Y51970000D01*
G75*
G02*
X66235000Y51720000I0J-250000D01*
G01*
X66235000Y49470000D01*
G75*
G02*
X65985000Y49220000I-250000J0D01*
G01*
X63435000Y49220000D01*
G75*
G02*
X63185000Y49470000I0J250000D01*
G01*
G37*
G04 #@! TD.AperFunction*
G04 #@! TA.AperFunction,SMDPad,CuDef*
G36*
G01*
X63185000Y49469997D02*
X63185000Y54770003D01*
G75*
G02*
X63434997Y55020000I249997J0D01*
G01*
X69335003Y55020000D01*
G75*
G02*
X69585000Y54770003I0J-249997D01*
G01*
X69585000Y49469997D01*
G75*
G02*
X69335003Y49220000I-249997J0D01*
G01*
X63434997Y49220000D01*
G75*
G02*
X63185000Y49469997I0J249997D01*
G01*
G37*
G04 #@! TD.AperFunction*
G04 #@! TA.AperFunction,SMDPad,CuDef*
G36*
G01*
X66535000Y52520000D02*
X66535000Y54770000D01*
G75*
G02*
X66785000Y55020000I250000J0D01*
G01*
X69335000Y55020000D01*
G75*
G02*
X69585000Y54770000I0J-250000D01*
G01*
X69585000Y52520000D01*
G75*
G02*
X69335000Y52270000I-250000J0D01*
G01*
X66785000Y52270000D01*
G75*
G02*
X66535000Y52520000I0J250000D01*
G01*
G37*
G04 #@! TD.AperFunction*
G04 #@! TA.AperFunction,SMDPad,CuDef*
G36*
G01*
X66535000Y49470000D02*
X66535000Y51720000D01*
G75*
G02*
X66785000Y51970000I250000J0D01*
G01*
X69335000Y51970000D01*
G75*
G02*
X69585000Y51720000I0J-250000D01*
G01*
X69585000Y49470000D01*
G75*
G02*
X69335000Y49220000I-250000J0D01*
G01*
X66785000Y49220000D01*
G75*
G02*
X66535000Y49470000I0J250000D01*
G01*
G37*
G04 #@! TD.AperFunction*
G04 #@! TO.P,Q3,3,E*
G04 #@! TO.N,PIN114*
G04 #@! TA.AperFunction,SMDPad,CuDef*
G36*
G01*
X58985000Y49490000D02*
X58985000Y50190000D01*
G75*
G02*
X59235000Y50440000I250000J0D01*
G01*
X60935000Y50440000D01*
G75*
G02*
X61185000Y50190000I0J-250000D01*
G01*
X61185000Y49490000D01*
G75*
G02*
X60935000Y49240000I-250000J0D01*
G01*
X59235000Y49240000D01*
G75*
G02*
X58985000Y49490000I0J250000D01*
G01*
G37*
G04 #@! TD.AperFunction*
G04 #@! TD*
G04 #@! TO.P,F6,1*
G04 #@! TO.N,Net-(F6-Pad1)*
G04 #@! TA.AperFunction,SMDPad,CuDef*
G36*
G01*
X71140000Y36808750D02*
X71140000Y37321250D01*
G75*
G02*
X71358750Y37540000I218750J0D01*
G01*
X71796250Y37540000D01*
G75*
G02*
X72015000Y37321250I0J-218750D01*
G01*
X72015000Y36808750D01*
G75*
G02*
X71796250Y36590000I-218750J0D01*
G01*
X71358750Y36590000D01*
G75*
G02*
X71140000Y36808750I0J218750D01*
G01*
G37*
G04 #@! TD.AperFunction*
G04 #@! TO.P,F6,2*
G04 #@! TO.N,/IGN3*
G04 #@! TA.AperFunction,SMDPad,CuDef*
G36*
G01*
X72715000Y36808750D02*
X72715000Y37321250D01*
G75*
G02*
X72933750Y37540000I218750J0D01*
G01*
X73371250Y37540000D01*
G75*
G02*
X73590000Y37321250I0J-218750D01*
G01*
X73590000Y36808750D01*
G75*
G02*
X73371250Y36590000I-218750J0D01*
G01*
X72933750Y36590000D01*
G75*
G02*
X72715000Y36808750I0J218750D01*
G01*
G37*
G04 #@! TD.AperFunction*
G04 #@! TD*
G04 #@! TO.P,R36,1*
G04 #@! TO.N,E7INJ8CANTX*
G04 #@! TA.AperFunction,SMDPad,CuDef*
G36*
G01*
X13620000Y42059046D02*
X13620000Y42839046D01*
G75*
G02*
X13690000Y42909046I70000J0D01*
G01*
X14250000Y42909046D01*
G75*
G02*
X14320000Y42839046I0J-70000D01*
G01*
X14320000Y42059046D01*
G75*
G02*
X14250000Y41989046I-70000J0D01*
G01*
X13690000Y41989046D01*
G75*
G02*
X13620000Y42059046I0J70000D01*
G01*
G37*
G04 #@! TD.AperFunction*
G04 #@! TO.P,R36,2*
G04 #@! TO.N,Net-(U3-IN2)*
G04 #@! TA.AperFunction,SMDPad,CuDef*
G36*
G01*
X15220000Y42059046D02*
X15220000Y42839046D01*
G75*
G02*
X15290000Y42909046I70000J0D01*
G01*
X15850000Y42909046D01*
G75*
G02*
X15920000Y42839046I0J-70000D01*
G01*
X15920000Y42059046D01*
G75*
G02*
X15850000Y41989046I-70000J0D01*
G01*
X15290000Y41989046D01*
G75*
G02*
X15220000Y42059046I0J70000D01*
G01*
G37*
G04 #@! TD.AperFunction*
G04 #@! TD*
G04 #@! TO.P,F7,1*
G04 #@! TO.N,Net-(F7-Pad1)*
G04 #@! TA.AperFunction,SMDPad,CuDef*
G36*
G01*
X71140000Y34298750D02*
X71140000Y34811250D01*
G75*
G02*
X71358750Y35030000I218750J0D01*
G01*
X71796250Y35030000D01*
G75*
G02*
X72015000Y34811250I0J-218750D01*
G01*
X72015000Y34298750D01*
G75*
G02*
X71796250Y34080000I-218750J0D01*
G01*
X71358750Y34080000D01*
G75*
G02*
X71140000Y34298750I0J218750D01*
G01*
G37*
G04 #@! TD.AperFunction*
G04 #@! TO.P,F7,2*
G04 #@! TO.N,/IGN4*
G04 #@! TA.AperFunction,SMDPad,CuDef*
G36*
G01*
X72715000Y34298750D02*
X72715000Y34811250D01*
G75*
G02*
X72933750Y35030000I218750J0D01*
G01*
X73371250Y35030000D01*
G75*
G02*
X73590000Y34811250I0J-218750D01*
G01*
X73590000Y34298750D01*
G75*
G02*
X73371250Y34080000I-218750J0D01*
G01*
X72933750Y34080000D01*
G75*
G02*
X72715000Y34298750I0J218750D01*
G01*
G37*
G04 #@! TD.AperFunction*
G04 #@! TD*
G04 #@! TO.P,F9,1*
G04 #@! TO.N,Net-(F9-Pad1)*
G04 #@! TA.AperFunction,SMDPad,CuDef*
G36*
G01*
X71140000Y29278750D02*
X71140000Y29791250D01*
G75*
G02*
X71358750Y30010000I218750J0D01*
G01*
X71796250Y30010000D01*
G75*
G02*
X72015000Y29791250I0J-218750D01*
G01*
X72015000Y29278750D01*
G75*
G02*
X71796250Y29060000I-218750J0D01*
G01*
X71358750Y29060000D01*
G75*
G02*
X71140000Y29278750I0J218750D01*
G01*
G37*
G04 #@! TD.AperFunction*
G04 #@! TO.P,F9,2*
G04 #@! TO.N,/IGN6*
G04 #@! TA.AperFunction,SMDPad,CuDef*
G36*
G01*
X72715000Y29278750D02*
X72715000Y29791250D01*
G75*
G02*
X72933750Y30010000I218750J0D01*
G01*
X73371250Y30010000D01*
G75*
G02*
X73590000Y29791250I0J-218750D01*
G01*
X73590000Y29278750D01*
G75*
G02*
X73371250Y29060000I-218750J0D01*
G01*
X72933750Y29060000D01*
G75*
G02*
X72715000Y29278750I0J218750D01*
G01*
G37*
G04 #@! TD.AperFunction*
G04 #@! TD*
G04 #@! TO.P,U10,1,OUT*
G04 #@! TO.N,PIN43*
G04 #@! TA.AperFunction,SMDPad,CuDef*
G36*
G01*
X92275000Y63785000D02*
X92275000Y64185000D01*
G75*
G02*
X92475000Y64385000I200000J0D01*
G01*
X94275000Y64385000D01*
G75*
G02*
X94475000Y64185000I0J-200000D01*
G01*
X94475000Y63785000D01*
G75*
G02*
X94275000Y63585000I-200000J0D01*
G01*
X92475000Y63585000D01*
G75*
G02*
X92275000Y63785000I0J200000D01*
G01*
G37*
G04 #@! TD.AperFunction*
G04 #@! TO.P,U10,2,IN*
G04 #@! TO.N,Net-(Q7-D)*
G04 #@! TA.AperFunction,SMDPad,CuDef*
G36*
G01*
X92275000Y62645000D02*
X92275000Y63045000D01*
G75*
G02*
X92475000Y63245000I200000J0D01*
G01*
X94275000Y63245000D01*
G75*
G02*
X94475000Y63045000I0J-200000D01*
G01*
X94475000Y62645000D01*
G75*
G02*
X94275000Y62445000I-200000J0D01*
G01*
X92475000Y62445000D01*
G75*
G02*
X92275000Y62645000I0J200000D01*
G01*
G37*
G04 #@! TD.AperFunction*
G04 #@! TO.P,U10,3,Vbb*
G04 #@! TO.N,PIN120*
G04 #@! TA.AperFunction,SMDPad,CuDef*
G36*
G01*
X96475000Y62105000D02*
X96475000Y64355000D01*
G75*
G02*
X96725000Y64605000I250000J0D01*
G01*
X99275000Y64605000D01*
G75*
G02*
X99525000Y64355000I0J-250000D01*
G01*
X99525000Y62105000D01*
G75*
G02*
X99275000Y61855000I-250000J0D01*
G01*
X96725000Y61855000D01*
G75*
G02*
X96475000Y62105000I0J250000D01*
G01*
G37*
G04 #@! TD.AperFunction*
G04 #@! TA.AperFunction,SMDPad,CuDef*
G36*
G01*
X96475000Y59055000D02*
X96475000Y61305000D01*
G75*
G02*
X96725000Y61555000I250000J0D01*
G01*
X99275000Y61555000D01*
G75*
G02*
X99525000Y61305000I0J-250000D01*
G01*
X99525000Y59055000D01*
G75*
G02*
X99275000Y58805000I-250000J0D01*
G01*
X96725000Y58805000D01*
G75*
G02*
X96475000Y59055000I0J250000D01*
G01*
G37*
G04 #@! TD.AperFunction*
G04 #@! TA.AperFunction,SMDPad,CuDef*
G36*
G01*
X96475000Y59054997D02*
X96475000Y64355003D01*
G75*
G02*
X96724997Y64605000I249997J0D01*
G01*
X102625003Y64605000D01*
G75*
G02*
X102875000Y64355003I0J-249997D01*
G01*
X102875000Y59054997D01*
G75*
G02*
X102625003Y58805000I-249997J0D01*
G01*
X96724997Y58805000D01*
G75*
G02*
X96475000Y59054997I0J249997D01*
G01*
G37*
G04 #@! TD.AperFunction*
G04 #@! TA.AperFunction,SMDPad,CuDef*
G36*
G01*
X99825000Y62105000D02*
X99825000Y64355000D01*
G75*
G02*
X100075000Y64605000I250000J0D01*
G01*
X102625000Y64605000D01*
G75*
G02*
X102875000Y64355000I0J-250000D01*
G01*
X102875000Y62105000D01*
G75*
G02*
X102625000Y61855000I-250000J0D01*
G01*
X100075000Y61855000D01*
G75*
G02*
X99825000Y62105000I0J250000D01*
G01*
G37*
G04 #@! TD.AperFunction*
G04 #@! TA.AperFunction,SMDPad,CuDef*
G36*
G01*
X99825000Y59055000D02*
X99825000Y61305000D01*
G75*
G02*
X100075000Y61555000I250000J0D01*
G01*
X102625000Y61555000D01*
G75*
G02*
X102875000Y61305000I0J-250000D01*
G01*
X102875000Y59055000D01*
G75*
G02*
X102625000Y58805000I-250000J0D01*
G01*
X100075000Y58805000D01*
G75*
G02*
X99825000Y59055000I0J250000D01*
G01*
G37*
G04 #@! TD.AperFunction*
G04 #@! TO.P,U10,4,IS*
G04 #@! TO.N,Net-(U10-IS)*
G04 #@! TA.AperFunction,SMDPad,CuDef*
G36*
G01*
X92275000Y60365000D02*
X92275000Y60765000D01*
G75*
G02*
X92475000Y60965000I200000J0D01*
G01*
X94275000Y60965000D01*
G75*
G02*
X94475000Y60765000I0J-200000D01*
G01*
X94475000Y60365000D01*
G75*
G02*
X94275000Y60165000I-200000J0D01*
G01*
X92475000Y60165000D01*
G75*
G02*
X92275000Y60365000I0J200000D01*
G01*
G37*
G04 #@! TD.AperFunction*
G04 #@! TO.P,U10,5,OUT*
G04 #@! TO.N,PIN43*
G04 #@! TA.AperFunction,SMDPad,CuDef*
G36*
G01*
X92275000Y59225000D02*
X92275000Y59625000D01*
G75*
G02*
X92475000Y59825000I200000J0D01*
G01*
X94275000Y59825000D01*
G75*
G02*
X94475000Y59625000I0J-200000D01*
G01*
X94475000Y59225000D01*
G75*
G02*
X94275000Y59025000I-200000J0D01*
G01*
X92475000Y59025000D01*
G75*
G02*
X92275000Y59225000I0J200000D01*
G01*
G37*
G04 #@! TD.AperFunction*
G04 #@! TD*
G04 #@! TO.P,R34,1*
G04 #@! TO.N,E6INJ7CANRX*
G04 #@! TA.AperFunction,SMDPad,CuDef*
G36*
G01*
X13620000Y45957138D02*
X13620000Y46737138D01*
G75*
G02*
X13690000Y46807138I70000J0D01*
G01*
X14250000Y46807138D01*
G75*
G02*
X14320000Y46737138I0J-70000D01*
G01*
X14320000Y45957138D01*
G75*
G02*
X14250000Y45887138I-70000J0D01*
G01*
X13690000Y45887138D01*
G75*
G02*
X13620000Y45957138I0J70000D01*
G01*
G37*
G04 #@! TD.AperFunction*
G04 #@! TO.P,R34,2*
G04 #@! TO.N,Net-(U3-IN1)*
G04 #@! TA.AperFunction,SMDPad,CuDef*
G36*
G01*
X15220000Y45957138D02*
X15220000Y46737138D01*
G75*
G02*
X15290000Y46807138I70000J0D01*
G01*
X15850000Y46807138D01*
G75*
G02*
X15920000Y46737138I0J-70000D01*
G01*
X15920000Y45957138D01*
G75*
G02*
X15850000Y45887138I-70000J0D01*
G01*
X15290000Y45887138D01*
G75*
G02*
X15220000Y45957138I0J70000D01*
G01*
G37*
G04 #@! TD.AperFunction*
G04 #@! TD*
G04 #@! TO.P,R7,1*
G04 #@! TO.N,PIN84*
G04 #@! TA.AperFunction,SMDPad,CuDef*
G36*
G01*
X13620000Y65728732D02*
X13620000Y66978732D01*
G75*
G02*
X13720000Y67078732I100000J0D01*
G01*
X14520000Y67078732D01*
G75*
G02*
X14620000Y66978732I0J-100000D01*
G01*
X14620000Y65728732D01*
G75*
G02*
X14520000Y65628732I-100000J0D01*
G01*
X13720000Y65628732D01*
G75*
G02*
X13620000Y65728732I0J100000D01*
G01*
G37*
G04 #@! TD.AperFunction*
G04 #@! TO.P,R7,2*
G04 #@! TO.N,+5VA*
G04 #@! TA.AperFunction,SMDPad,CuDef*
G36*
G01*
X15520022Y65728732D02*
X15520022Y66978732D01*
G75*
G02*
X15620022Y67078732I100000J0D01*
G01*
X16420022Y67078732D01*
G75*
G02*
X16520022Y66978732I0J-100000D01*
G01*
X16520022Y65728732D01*
G75*
G02*
X16420022Y65628732I-100000J0D01*
G01*
X15620022Y65628732D01*
G75*
G02*
X15520022Y65728732I0J100000D01*
G01*
G37*
G04 #@! TD.AperFunction*
G04 #@! TD*
G04 #@! TO.P,D2,1,K*
G04 #@! TO.N,PIN117*
G04 #@! TA.AperFunction,SMDPad,CuDef*
G36*
G01*
X21030000Y62413733D02*
X21030000Y63433733D01*
G75*
G02*
X21120000Y63523733I90000J0D01*
G01*
X21840000Y63523733D01*
G75*
G02*
X21930000Y63433733I0J-90000D01*
G01*
X21930000Y62413733D01*
G75*
G02*
X21840000Y62323733I-90000J0D01*
G01*
X21120000Y62323733D01*
G75*
G02*
X21030000Y62413733I0J90000D01*
G01*
G37*
G04 #@! TD.AperFunction*
G04 #@! TO.P,D2,2,A*
G04 #@! TO.N,PIN15*
G04 #@! TA.AperFunction,SMDPad,CuDef*
G36*
G01*
X24330000Y62413733D02*
X24330000Y63433733D01*
G75*
G02*
X24420000Y63523733I90000J0D01*
G01*
X25140000Y63523733D01*
G75*
G02*
X25230000Y63433733I0J-90000D01*
G01*
X25230000Y62413733D01*
G75*
G02*
X25140000Y62323733I-90000J0D01*
G01*
X24420000Y62323733D01*
G75*
G02*
X24330000Y62413733I0J90000D01*
G01*
G37*
G04 #@! TD.AperFunction*
G04 #@! TD*
G04 #@! TO.P,R10,1*
G04 #@! TO.N,PIN113*
G04 #@! TA.AperFunction,SMDPad,CuDef*
G36*
G01*
X13620000Y58219948D02*
X13620000Y59469948D01*
G75*
G02*
X13720000Y59569948I100000J0D01*
G01*
X14520000Y59569948D01*
G75*
G02*
X14620000Y59469948I0J-100000D01*
G01*
X14620000Y58219948D01*
G75*
G02*
X14520000Y58119948I-100000J0D01*
G01*
X13720000Y58119948D01*
G75*
G02*
X13620000Y58219948I0J100000D01*
G01*
G37*
G04 #@! TD.AperFunction*
G04 #@! TO.P,R10,2*
G04 #@! TO.N,PIN84*
G04 #@! TA.AperFunction,SMDPad,CuDef*
G36*
G01*
X15520022Y58219948D02*
X15520022Y59469948D01*
G75*
G02*
X15620022Y59569948I100000J0D01*
G01*
X16420022Y59569948D01*
G75*
G02*
X16520022Y59469948I0J-100000D01*
G01*
X16520022Y58219948D01*
G75*
G02*
X16420022Y58119948I-100000J0D01*
G01*
X15620022Y58119948D01*
G75*
G02*
X15520022Y58219948I0J100000D01*
G01*
G37*
G04 #@! TD.AperFunction*
G04 #@! TD*
G04 #@! TO.P,R14,1*
G04 #@! TO.N,/LS2*
G04 #@! TA.AperFunction,SMDPad,CuDef*
G36*
G01*
X36250000Y64288092D02*
X36250000Y65068092D01*
G75*
G02*
X36320000Y65138092I70000J0D01*
G01*
X36880000Y65138092D01*
G75*
G02*
X36950000Y65068092I0J-70000D01*
G01*
X36950000Y64288092D01*
G75*
G02*
X36880000Y64218092I-70000J0D01*
G01*
X36320000Y64218092D01*
G75*
G02*
X36250000Y64288092I0J70000D01*
G01*
G37*
G04 #@! TD.AperFunction*
G04 #@! TO.P,R14,2*
G04 #@! TO.N,Net-(U1-IN2)*
G04 #@! TA.AperFunction,SMDPad,CuDef*
G36*
G01*
X37850000Y64288092D02*
X37850000Y65068092D01*
G75*
G02*
X37920000Y65138092I70000J0D01*
G01*
X38480000Y65138092D01*
G75*
G02*
X38550000Y65068092I0J-70000D01*
G01*
X38550000Y64288092D01*
G75*
G02*
X38480000Y64218092I-70000J0D01*
G01*
X37920000Y64218092D01*
G75*
G02*
X37850000Y64288092I0J70000D01*
G01*
G37*
G04 #@! TD.AperFunction*
G04 #@! TD*
G04 #@! TO.P,R20,1*
G04 #@! TO.N,/LS3*
G04 #@! TA.AperFunction,SMDPad,CuDef*
G36*
G01*
X36250000Y54542862D02*
X36250000Y55322862D01*
G75*
G02*
X36320000Y55392862I70000J0D01*
G01*
X36880000Y55392862D01*
G75*
G02*
X36950000Y55322862I0J-70000D01*
G01*
X36950000Y54542862D01*
G75*
G02*
X36880000Y54472862I-70000J0D01*
G01*
X36320000Y54472862D01*
G75*
G02*
X36250000Y54542862I0J70000D01*
G01*
G37*
G04 #@! TD.AperFunction*
G04 #@! TO.P,R20,2*
G04 #@! TO.N,PIN114*
G04 #@! TA.AperFunction,SMDPad,CuDef*
G36*
G01*
X37850000Y54542862D02*
X37850000Y55322862D01*
G75*
G02*
X37920000Y55392862I70000J0D01*
G01*
X38480000Y55392862D01*
G75*
G02*
X38550000Y55322862I0J-70000D01*
G01*
X38550000Y54542862D01*
G75*
G02*
X38480000Y54472862I-70000J0D01*
G01*
X37920000Y54472862D01*
G75*
G02*
X37850000Y54542862I0J70000D01*
G01*
G37*
G04 #@! TD.AperFunction*
G04 #@! TD*
G04 #@! TO.P,R22,1*
G04 #@! TO.N,Net-(Q1-G)*
G04 #@! TA.AperFunction,SMDPad,CuDef*
G36*
G01*
X25520000Y45957138D02*
X25520000Y46737138D01*
G75*
G02*
X25590000Y46807138I70000J0D01*
G01*
X26150000Y46807138D01*
G75*
G02*
X26220000Y46737138I0J-70000D01*
G01*
X26220000Y45957138D01*
G75*
G02*
X26150000Y45887138I-70000J0D01*
G01*
X25590000Y45887138D01*
G75*
G02*
X25520000Y45957138I0J70000D01*
G01*
G37*
G04 #@! TD.AperFunction*
G04 #@! TO.P,R22,2*
G04 #@! TO.N,Net-(F4-Pad1)*
G04 #@! TA.AperFunction,SMDPad,CuDef*
G36*
G01*
X27120000Y45957138D02*
X27120000Y46737138D01*
G75*
G02*
X27190000Y46807138I70000J0D01*
G01*
X27750000Y46807138D01*
G75*
G02*
X27820000Y46737138I0J-70000D01*
G01*
X27820000Y45957138D01*
G75*
G02*
X27750000Y45887138I-70000J0D01*
G01*
X27190000Y45887138D01*
G75*
G02*
X27120000Y45957138I0J70000D01*
G01*
G37*
G04 #@! TD.AperFunction*
G04 #@! TD*
G04 #@! TO.P,R3,1*
G04 #@! TO.N,PIN114*
G04 #@! TA.AperFunction,SMDPad,CuDef*
G36*
G01*
X17520000Y62339046D02*
X17520000Y63119046D01*
G75*
G02*
X17590000Y63189046I70000J0D01*
G01*
X18150000Y63189046D01*
G75*
G02*
X18220000Y63119046I0J-70000D01*
G01*
X18220000Y62339046D01*
G75*
G02*
X18150000Y62269046I-70000J0D01*
G01*
X17590000Y62269046D01*
G75*
G02*
X17520000Y62339046I0J70000D01*
G01*
G37*
G04 #@! TD.AperFunction*
G04 #@! TO.P,R3,2*
G04 #@! TO.N,/IN_VMAIN*
G04 #@! TA.AperFunction,SMDPad,CuDef*
G36*
G01*
X19120000Y62339046D02*
X19120000Y63119046D01*
G75*
G02*
X19190000Y63189046I70000J0D01*
G01*
X19750000Y63189046D01*
G75*
G02*
X19820000Y63119046I0J-70000D01*
G01*
X19820000Y62339046D01*
G75*
G02*
X19750000Y62269046I-70000J0D01*
G01*
X19190000Y62269046D01*
G75*
G02*
X19120000Y62339046I0J70000D01*
G01*
G37*
G04 #@! TD.AperFunction*
G04 #@! TD*
G04 #@! TO.P,U1,1,IN1*
G04 #@! TO.N,Net-(U1-IN1)*
G04 #@! TA.AperFunction,SMDPad,CuDef*
G36*
G01*
X81825000Y42760000D02*
X81825000Y43060000D01*
G75*
G02*
X81975000Y43210000I150000J0D01*
G01*
X83625000Y43210000D01*
G75*
G02*
X83775000Y43060000I0J-150000D01*
G01*
X83775000Y42760000D01*
G75*
G02*
X83625000Y42610000I-150000J0D01*
G01*
X81975000Y42610000D01*
G75*
G02*
X81825000Y42760000I0J150000D01*
G01*
G37*
G04 #@! TD.AperFunction*
G04 #@! TO.P,U1,2,STATUS1*
G04 #@! TO.N,unconnected-(U1-STATUS1-Pad2)*
G04 #@! TA.AperFunction,SMDPad,CuDef*
G36*
G01*
X81825000Y41490000D02*
X81825000Y41790000D01*
G75*
G02*
X81975000Y41940000I150000J0D01*
G01*
X83625000Y41940000D01*
G75*
G02*
X83775000Y41790000I0J-150000D01*
G01*
X83775000Y41490000D01*
G75*
G02*
X83625000Y41340000I-150000J0D01*
G01*
X81975000Y41340000D01*
G75*
G02*
X81825000Y41490000I0J150000D01*
G01*
G37*
G04 #@! TD.AperFunction*
G04 #@! TO.P,U1,3,IN2*
G04 #@! TO.N,Net-(U1-IN2)*
G04 #@! TA.AperFunction,SMDPad,CuDef*
G36*
G01*
X81825000Y40220000D02*
X81825000Y40520000D01*
G75*
G02*
X81975000Y40670000I150000J0D01*
G01*
X83625000Y40670000D01*
G75*
G02*
X83775000Y40520000I0J-150000D01*
G01*
X83775000Y40220000D01*
G75*
G02*
X83625000Y40070000I-150000J0D01*
G01*
X81975000Y40070000D01*
G75*
G02*
X81825000Y40220000I0J150000D01*
G01*
G37*
G04 #@! TD.AperFunction*
G04 #@! TO.P,U1,4,STATUS2*
G04 #@! TO.N,unconnected-(U1-STATUS2-Pad4)*
G04 #@! TA.AperFunction,SMDPad,CuDef*
G36*
G01*
X81825000Y38950000D02*
X81825000Y39250000D01*
G75*
G02*
X81975000Y39400000I150000J0D01*
G01*
X83625000Y39400000D01*
G75*
G02*
X83775000Y39250000I0J-150000D01*
G01*
X83775000Y38950000D01*
G75*
G02*
X83625000Y38800000I-150000J0D01*
G01*
X81975000Y38800000D01*
G75*
G02*
X81825000Y38950000I0J150000D01*
G01*
G37*
G04 #@! TD.AperFunction*
G04 #@! TO.P,U1,5,S2*
G04 #@! TO.N,PIN114*
G04 #@! TA.AperFunction,SMDPad,CuDef*
G36*
G01*
X86775000Y38950000D02*
X86775000Y39250000D01*
G75*
G02*
X86925000Y39400000I150000J0D01*
G01*
X88575000Y39400000D01*
G75*
G02*
X88725000Y39250000I0J-150000D01*
G01*
X88725000Y38950000D01*
G75*
G02*
X88575000Y38800000I-150000J0D01*
G01*
X86925000Y38800000D01*
G75*
G02*
X86775000Y38950000I0J150000D01*
G01*
G37*
G04 #@! TD.AperFunction*
G04 #@! TO.P,U1,6,D2*
G04 #@! TO.N,PIN15*
G04 #@! TA.AperFunction,SMDPad,CuDef*
G36*
G01*
X86775000Y40220000D02*
X86775000Y40520000D01*
G75*
G02*
X86925000Y40670000I150000J0D01*
G01*
X88575000Y40670000D01*
G75*
G02*
X88725000Y40520000I0J-150000D01*
G01*
X88725000Y40220000D01*
G75*
G02*
X88575000Y40070000I-150000J0D01*
G01*
X86925000Y40070000D01*
G75*
G02*
X86775000Y40220000I0J150000D01*
G01*
G37*
G04 #@! TD.AperFunction*
G04 #@! TO.P,U1,7,S1*
G04 #@! TO.N,PIN114*
G04 #@! TA.AperFunction,SMDPad,CuDef*
G36*
G01*
X86775000Y41490000D02*
X86775000Y41790000D01*
G75*
G02*
X86925000Y41940000I150000J0D01*
G01*
X88575000Y41940000D01*
G75*
G02*
X88725000Y41790000I0J-150000D01*
G01*
X88725000Y41490000D01*
G75*
G02*
X88575000Y41340000I-150000J0D01*
G01*
X86925000Y41340000D01*
G75*
G02*
X86775000Y41490000I0J150000D01*
G01*
G37*
G04 #@! TD.AperFunction*
G04 #@! TO.P,U1,8,D1*
G04 #@! TO.N,PIN14*
G04 #@! TA.AperFunction,SMDPad,CuDef*
G36*
G01*
X86775000Y42760000D02*
X86775000Y43060000D01*
G75*
G02*
X86925000Y43210000I150000J0D01*
G01*
X88575000Y43210000D01*
G75*
G02*
X88725000Y43060000I0J-150000D01*
G01*
X88725000Y42760000D01*
G75*
G02*
X88575000Y42610000I-150000J0D01*
G01*
X86925000Y42610000D01*
G75*
G02*
X86775000Y42760000I0J150000D01*
G01*
G37*
G04 #@! TD.AperFunction*
G04 #@! TD*
G04 #@! TO.P,R31,1*
G04 #@! TO.N,Net-(F7-Pad1)*
G04 #@! TA.AperFunction,SMDPad,CuDef*
G36*
G01*
X71130000Y54140000D02*
X71130000Y56990000D01*
G75*
G02*
X71380000Y57240000I250000J0D01*
G01*
X72105000Y57240000D01*
G75*
G02*
X72355000Y56990000I0J-250000D01*
G01*
X72355000Y54140000D01*
G75*
G02*
X72105000Y53890000I-250000J0D01*
G01*
X71380000Y53890000D01*
G75*
G02*
X71130000Y54140000I0J250000D01*
G01*
G37*
G04 #@! TD.AperFunction*
G04 #@! TO.P,R31,2*
G04 #@! TO.N,PIN9*
G04 #@! TA.AperFunction,SMDPad,CuDef*
G36*
G01*
X77055000Y54140000D02*
X77055000Y56990000D01*
G75*
G02*
X77305000Y57240000I250000J0D01*
G01*
X78030000Y57240000D01*
G75*
G02*
X78280000Y56990000I0J-250000D01*
G01*
X78280000Y54140000D01*
G75*
G02*
X78030000Y53890000I-250000J0D01*
G01*
X77305000Y53890000D01*
G75*
G02*
X77055000Y54140000I0J250000D01*
G01*
G37*
G04 #@! TD.AperFunction*
G04 #@! TD*
G04 #@! TO.P,R49,1*
G04 #@! TO.N,/INJ6*
G04 #@! TA.AperFunction,SMDPad,CuDef*
G36*
G01*
X20220000Y40110000D02*
X20220000Y40890000D01*
G75*
G02*
X20290000Y40960000I70000J0D01*
G01*
X20850000Y40960000D01*
G75*
G02*
X20920000Y40890000I0J-70000D01*
G01*
X20920000Y40110000D01*
G75*
G02*
X20850000Y40040000I-70000J0D01*
G01*
X20290000Y40040000D01*
G75*
G02*
X20220000Y40110000I0J70000D01*
G01*
G37*
G04 #@! TD.AperFunction*
G04 #@! TO.P,R49,2*
G04 #@! TO.N,PIN114*
G04 #@! TA.AperFunction,SMDPad,CuDef*
G36*
G01*
X21820000Y40110000D02*
X21820000Y40890000D01*
G75*
G02*
X21890000Y40960000I70000J0D01*
G01*
X22450000Y40960000D01*
G75*
G02*
X22520000Y40890000I0J-70000D01*
G01*
X22520000Y40110000D01*
G75*
G02*
X22450000Y40040000I-70000J0D01*
G01*
X21890000Y40040000D01*
G75*
G02*
X21820000Y40110000I0J70000D01*
G01*
G37*
G04 #@! TD.AperFunction*
G04 #@! TD*
G04 #@! TO.P,R6,1*
G04 #@! TO.N,/VR_DISCRETE_A*
G04 #@! TA.AperFunction,SMDPad,CuDef*
G36*
G01*
X17520000Y58440954D02*
X17520000Y59220954D01*
G75*
G02*
X17590000Y59290954I70000J0D01*
G01*
X18150000Y59290954D01*
G75*
G02*
X18220000Y59220954I0J-70000D01*
G01*
X18220000Y58440954D01*
G75*
G02*
X18150000Y58370954I-70000J0D01*
G01*
X17590000Y58370954D01*
G75*
G02*
X17520000Y58440954I0J70000D01*
G01*
G37*
G04 #@! TD.AperFunction*
G04 #@! TO.P,R6,2*
G04 #@! TO.N,/ADC3*
G04 #@! TA.AperFunction,SMDPad,CuDef*
G36*
G01*
X19120000Y58440954D02*
X19120000Y59220954D01*
G75*
G02*
X19190000Y59290954I70000J0D01*
G01*
X19750000Y59290954D01*
G75*
G02*
X19820000Y59220954I0J-70000D01*
G01*
X19820000Y58440954D01*
G75*
G02*
X19750000Y58370954I-70000J0D01*
G01*
X19190000Y58370954D01*
G75*
G02*
X19120000Y58440954I0J70000D01*
G01*
G37*
G04 #@! TD.AperFunction*
G04 #@! TD*
G04 #@! TO.P,R51,1*
G04 #@! TO.N,/LS_HOT2*
G04 #@! TA.AperFunction,SMDPad,CuDef*
G36*
G01*
X36250000Y44008092D02*
X36250000Y44788092D01*
G75*
G02*
X36320000Y44858092I70000J0D01*
G01*
X36880000Y44858092D01*
G75*
G02*
X36950000Y44788092I0J-70000D01*
G01*
X36950000Y44008092D01*
G75*
G02*
X36880000Y43938092I-70000J0D01*
G01*
X36320000Y43938092D01*
G75*
G02*
X36250000Y44008092I0J70000D01*
G01*
G37*
G04 #@! TD.AperFunction*
G04 #@! TO.P,R51,2*
G04 #@! TO.N,PIN114*
G04 #@! TA.AperFunction,SMDPad,CuDef*
G36*
G01*
X37850000Y44008092D02*
X37850000Y44788092D01*
G75*
G02*
X37920000Y44858092I70000J0D01*
G01*
X38480000Y44858092D01*
G75*
G02*
X38550000Y44788092I0J-70000D01*
G01*
X38550000Y44008092D01*
G75*
G02*
X38480000Y43938092I-70000J0D01*
G01*
X37920000Y43938092D01*
G75*
G02*
X37850000Y44008092I0J70000D01*
G01*
G37*
G04 #@! TD.AperFunction*
G04 #@! TD*
G04 #@! TO.P,R38,1*
G04 #@! TO.N,/INJ1*
G04 #@! TA.AperFunction,SMDPad,CuDef*
G36*
G01*
X13620000Y38160954D02*
X13620000Y38940954D01*
G75*
G02*
X13690000Y39010954I70000J0D01*
G01*
X14250000Y39010954D01*
G75*
G02*
X14320000Y38940954I0J-70000D01*
G01*
X14320000Y38160954D01*
G75*
G02*
X14250000Y38090954I-70000J0D01*
G01*
X13690000Y38090954D01*
G75*
G02*
X13620000Y38160954I0J70000D01*
G01*
G37*
G04 #@! TD.AperFunction*
G04 #@! TO.P,R38,2*
G04 #@! TO.N,Net-(U6-IN1)*
G04 #@! TA.AperFunction,SMDPad,CuDef*
G36*
G01*
X15220000Y38160954D02*
X15220000Y38940954D01*
G75*
G02*
X15290000Y39010954I70000J0D01*
G01*
X15850000Y39010954D01*
G75*
G02*
X15920000Y38940954I0J-70000D01*
G01*
X15920000Y38160954D01*
G75*
G02*
X15850000Y38090954I-70000J0D01*
G01*
X15290000Y38090954D01*
G75*
G02*
X15220000Y38160954I0J70000D01*
G01*
G37*
G04 #@! TD.AperFunction*
G04 #@! TD*
G04 #@! TO.P,R33,1*
G04 #@! TO.N,Net-(F9-Pad1)*
G04 #@! TA.AperFunction,SMDPad,CuDef*
G36*
G01*
X71130000Y44360000D02*
X71130000Y47210000D01*
G75*
G02*
X71380000Y47460000I250000J0D01*
G01*
X72105000Y47460000D01*
G75*
G02*
X72355000Y47210000I0J-250000D01*
G01*
X72355000Y44360000D01*
G75*
G02*
X72105000Y44110000I-250000J0D01*
G01*
X71380000Y44110000D01*
G75*
G02*
X71130000Y44360000I0J250000D01*
G01*
G37*
G04 #@! TD.AperFunction*
G04 #@! TO.P,R33,2*
G04 #@! TO.N,PIN8*
G04 #@! TA.AperFunction,SMDPad,CuDef*
G36*
G01*
X77055000Y44360000D02*
X77055000Y47210000D01*
G75*
G02*
X77305000Y47460000I250000J0D01*
G01*
X78030000Y47460000D01*
G75*
G02*
X78280000Y47210000I0J-250000D01*
G01*
X78280000Y44360000D01*
G75*
G02*
X78030000Y44110000I-250000J0D01*
G01*
X77305000Y44110000D01*
G75*
G02*
X77055000Y44360000I0J250000D01*
G01*
G37*
G04 #@! TD.AperFunction*
G04 #@! TD*
G04 #@! TO.P,F8,1*
G04 #@! TO.N,Net-(F8-Pad1)*
G04 #@! TA.AperFunction,SMDPad,CuDef*
G36*
G01*
X71140000Y31788750D02*
X71140000Y32301250D01*
G75*
G02*
X71358750Y32520000I218750J0D01*
G01*
X71796250Y32520000D01*
G75*
G02*
X72015000Y32301250I0J-218750D01*
G01*
X72015000Y31788750D01*
G75*
G02*
X71796250Y31570000I-218750J0D01*
G01*
X71358750Y31570000D01*
G75*
G02*
X71140000Y31788750I0J218750D01*
G01*
G37*
G04 #@! TD.AperFunction*
G04 #@! TO.P,F8,2*
G04 #@! TO.N,/IGN5*
G04 #@! TA.AperFunction,SMDPad,CuDef*
G36*
G01*
X72715000Y31788750D02*
X72715000Y32301250D01*
G75*
G02*
X72933750Y32520000I218750J0D01*
G01*
X73371250Y32520000D01*
G75*
G02*
X73590000Y32301250I0J-218750D01*
G01*
X73590000Y31788750D01*
G75*
G02*
X73371250Y31570000I-218750J0D01*
G01*
X72933750Y31570000D01*
G75*
G02*
X72715000Y31788750I0J218750D01*
G01*
G37*
G04 #@! TD.AperFunction*
G04 #@! TD*
G04 #@! TO.P,D3,1,K*
G04 #@! TO.N,PIN117*
G04 #@! TA.AperFunction,SMDPad,CuDef*
G36*
G01*
X21030000Y59293733D02*
X21030000Y60313733D01*
G75*
G02*
X21120000Y60403733I90000J0D01*
G01*
X21840000Y60403733D01*
G75*
G02*
X21930000Y60313733I0J-90000D01*
G01*
X21930000Y59293733D01*
G75*
G02*
X21840000Y59203733I-90000J0D01*
G01*
X21120000Y59203733D01*
G75*
G02*
X21030000Y59293733I0J90000D01*
G01*
G37*
G04 #@! TD.AperFunction*
G04 #@! TO.P,D3,2,A*
G04 #@! TO.N,PIN16*
G04 #@! TA.AperFunction,SMDPad,CuDef*
G36*
G01*
X24330000Y59293733D02*
X24330000Y60313733D01*
G75*
G02*
X24420000Y60403733I90000J0D01*
G01*
X25140000Y60403733D01*
G75*
G02*
X25230000Y60313733I0J-90000D01*
G01*
X25230000Y59293733D01*
G75*
G02*
X25140000Y59203733I-90000J0D01*
G01*
X24420000Y59203733D01*
G75*
G02*
X24330000Y59293733I0J90000D01*
G01*
G37*
G04 #@! TD.AperFunction*
G04 #@! TD*
G04 #@! TO.P,R54,1*
G04 #@! TO.N,Net-(U10-IS)*
G04 #@! TA.AperFunction,SMDPad,CuDef*
G36*
G01*
X17520000Y54542862D02*
X17520000Y55322862D01*
G75*
G02*
X17590000Y55392862I70000J0D01*
G01*
X18150000Y55392862D01*
G75*
G02*
X18220000Y55322862I0J-70000D01*
G01*
X18220000Y54542862D01*
G75*
G02*
X18150000Y54472862I-70000J0D01*
G01*
X17590000Y54472862D01*
G75*
G02*
X17520000Y54542862I0J70000D01*
G01*
G37*
G04 #@! TD.AperFunction*
G04 #@! TO.P,R54,2*
G04 #@! TO.N,PIN114*
G04 #@! TA.AperFunction,SMDPad,CuDef*
G36*
G01*
X19120000Y54542862D02*
X19120000Y55322862D01*
G75*
G02*
X19190000Y55392862I70000J0D01*
G01*
X19750000Y55392862D01*
G75*
G02*
X19820000Y55322862I0J-70000D01*
G01*
X19820000Y54542862D01*
G75*
G02*
X19750000Y54472862I-70000J0D01*
G01*
X19190000Y54472862D01*
G75*
G02*
X19120000Y54542862I0J70000D01*
G01*
G37*
G04 #@! TD.AperFunction*
G04 #@! TD*
D31*
G04 #@! TO.P,M2,E1,V5A*
G04 #@! TO.N,+5VA*
X129970003Y30449997D03*
D60*
G04 #@! TO.P,M2,E2,GND*
G04 #@! TO.N,PIN114*
X121070003Y28474997D03*
D61*
X125620003Y31049997D03*
X125620003Y27949997D03*
D31*
X129970003Y29499997D03*
G04 #@! TO.P,M2,E3,OUT_KNOCK*
G04 #@! TO.N,/IN_KNOCK*
X129970003Y28549999D03*
G04 #@! TO.P,M2,W1,IN_KNOCK*
G04 #@! TO.N,PIN81*
X121270003Y29549997D03*
G04 #@! TO.P,M2,W2,VREF*
G04 #@! TO.N,/VREF1*
X121270003Y30449997D03*
G04 #@! TD*
G04 #@! TO.P,C2,1*
G04 #@! TO.N,Net-(U8-T-)*
G04 #@! TA.AperFunction,SMDPad,CuDef*
G36*
G01*
X30820000Y44083762D02*
X30820000Y44763762D01*
G75*
G02*
X30905000Y44848762I85000J0D01*
G01*
X31585000Y44848762D01*
G75*
G02*
X31670000Y44763762I0J-85000D01*
G01*
X31670000Y44083762D01*
G75*
G02*
X31585000Y43998762I-85000J0D01*
G01*
X30905000Y43998762D01*
G75*
G02*
X30820000Y44083762I0J85000D01*
G01*
G37*
G04 #@! TD.AperFunction*
G04 #@! TO.P,C2,2*
G04 #@! TO.N,Net-(U8-T+)*
G04 #@! TA.AperFunction,SMDPad,CuDef*
G36*
G01*
X32400002Y44083762D02*
X32400002Y44763762D01*
G75*
G02*
X32485002Y44848762I85000J0D01*
G01*
X33165002Y44848762D01*
G75*
G02*
X33250002Y44763762I0J-85000D01*
G01*
X33250002Y44083762D01*
G75*
G02*
X33165002Y43998762I-85000J0D01*
G01*
X32485002Y43998762D01*
G75*
G02*
X32400002Y44083762I0J85000D01*
G01*
G37*
G04 #@! TD.AperFunction*
G04 #@! TD*
G04 #@! TO.P,C1,1*
G04 #@! TO.N,PIN114*
G04 #@! TA.AperFunction,SMDPad,CuDef*
G36*
G01*
X30820000Y46033747D02*
X30820000Y46713747D01*
G75*
G02*
X30905000Y46798747I85000J0D01*
G01*
X31585000Y46798747D01*
G75*
G02*
X31670000Y46713747I0J-85000D01*
G01*
X31670000Y46033747D01*
G75*
G02*
X31585000Y45948747I-85000J0D01*
G01*
X30905000Y45948747D01*
G75*
G02*
X30820000Y46033747I0J85000D01*
G01*
G37*
G04 #@! TD.AperFunction*
G04 #@! TO.P,C1,2*
G04 #@! TO.N,Net-(U8-T-)*
G04 #@! TA.AperFunction,SMDPad,CuDef*
G36*
G01*
X32400002Y46033747D02*
X32400002Y46713747D01*
G75*
G02*
X32485002Y46798747I85000J0D01*
G01*
X33165002Y46798747D01*
G75*
G02*
X33250002Y46713747I0J-85000D01*
G01*
X33250002Y46033747D01*
G75*
G02*
X33165002Y45948747I-85000J0D01*
G01*
X32485002Y45948747D01*
G75*
G02*
X32400002Y46033747I0J85000D01*
G01*
G37*
G04 #@! TD.AperFunction*
G04 #@! TD*
D13*
G04 #@! TO.P,M1,E1,VBAT*
G04 #@! TO.N,/VBAT*
X153549999Y45299998D03*
G04 #@! TO.P,M1,E2,V12*
G04 #@! TO.N,unconnected-(M1-V12-PadE2)*
X153549999Y38900001D03*
G04 #@! TO.P,M1,E3,VIGN*
G04 #@! TO.N,/VIGN*
X153549999Y36999998D03*
G04 #@! TO.P,M1,E4,V5*
G04 #@! TO.N,+5V*
X153549999Y32699998D03*
D31*
G04 #@! TO.P,M1,E5,EN_5VP*
G04 #@! TO.N,/PWR_EN*
X153999998Y30300001D03*
G04 #@! TO.P,M1,E6,PG_5VP*
G04 #@! TO.N,Net-(M1-PG_5VP)*
X153999998Y29300000D03*
D62*
G04 #@! TO.P,M1,S1,GND*
G04 #@! TO.N,PIN114*
X137400003Y41449998D03*
D63*
X137400003Y32950000D03*
D64*
X137400003Y25849998D03*
D65*
X145800001Y25799998D03*
D66*
X146600002Y46399998D03*
D13*
X153549999Y26449998D03*
D64*
X154200000Y46349998D03*
D67*
X154200000Y42150000D03*
D68*
X154200000Y34799998D03*
D69*
X154200000Y31300001D03*
D70*
X154200000Y28000000D03*
D13*
G04 #@! TO.P,M1,V1,V12_PERM*
G04 #@! TO.N,PIN116*
X138050002Y45750000D03*
G04 #@! TO.P,M1,V2,IN_VIGN*
G04 #@! TO.N,/IN_VIGN*
X138050002Y43900001D03*
G04 #@! TO.P,M1,V3,V12_RAW*
G04 #@! TO.N,PIN117*
X138050002Y38949998D03*
G04 #@! TO.P,M1,V4,5VP*
G04 #@! TO.N,PIN106*
X138050002Y26900000D03*
G04 #@! TD*
G04 #@! TO.P,R24,1*
G04 #@! TO.N,Net-(Q3-G)*
G04 #@! TA.AperFunction,SMDPad,CuDef*
G36*
G01*
X25520000Y42059046D02*
X25520000Y42839046D01*
G75*
G02*
X25590000Y42909046I70000J0D01*
G01*
X26150000Y42909046D01*
G75*
G02*
X26220000Y42839046I0J-70000D01*
G01*
X26220000Y42059046D01*
G75*
G02*
X26150000Y41989046I-70000J0D01*
G01*
X25590000Y41989046D01*
G75*
G02*
X25520000Y42059046I0J70000D01*
G01*
G37*
G04 #@! TD.AperFunction*
G04 #@! TO.P,R24,2*
G04 #@! TO.N,Net-(F6-Pad1)*
G04 #@! TA.AperFunction,SMDPad,CuDef*
G36*
G01*
X27120000Y42059046D02*
X27120000Y42839046D01*
G75*
G02*
X27190000Y42909046I70000J0D01*
G01*
X27750000Y42909046D01*
G75*
G02*
X27820000Y42839046I0J-70000D01*
G01*
X27820000Y42059046D01*
G75*
G02*
X27750000Y41989046I-70000J0D01*
G01*
X27190000Y41989046D01*
G75*
G02*
X27120000Y42059046I0J70000D01*
G01*
G37*
G04 #@! TD.AperFunction*
G04 #@! TD*
G04 #@! TO.P,R26,1*
G04 #@! TO.N,Net-(F5-Pad1)*
G04 #@! TA.AperFunction,SMDPad,CuDef*
G36*
G01*
X71130000Y63920000D02*
X71130000Y66770000D01*
G75*
G02*
X71380000Y67020000I250000J0D01*
G01*
X72105000Y67020000D01*
G75*
G02*
X72355000Y66770000I0J-250000D01*
G01*
X72355000Y63920000D01*
G75*
G02*
X72105000Y63670000I-250000J0D01*
G01*
X71380000Y63670000D01*
G75*
G02*
X71130000Y63920000I0J250000D01*
G01*
G37*
G04 #@! TD.AperFunction*
G04 #@! TO.P,R26,2*
G04 #@! TO.N,PIN12*
G04 #@! TA.AperFunction,SMDPad,CuDef*
G36*
G01*
X77055000Y63920000D02*
X77055000Y66770000D01*
G75*
G02*
X77305000Y67020000I250000J0D01*
G01*
X78030000Y67020000D01*
G75*
G02*
X78280000Y66770000I0J-250000D01*
G01*
X78280000Y63920000D01*
G75*
G02*
X78030000Y63670000I-250000J0D01*
G01*
X77305000Y63670000D01*
G75*
G02*
X77055000Y63920000I0J250000D01*
G01*
G37*
G04 #@! TD.AperFunction*
G04 #@! TD*
G04 #@! TO.P,R23,1*
G04 #@! TO.N,Net-(Q2-G)*
G04 #@! TA.AperFunction,SMDPad,CuDef*
G36*
G01*
X25520000Y44008092D02*
X25520000Y44788092D01*
G75*
G02*
X25590000Y44858092I70000J0D01*
G01*
X26150000Y44858092D01*
G75*
G02*
X26220000Y44788092I0J-70000D01*
G01*
X26220000Y44008092D01*
G75*
G02*
X26150000Y43938092I-70000J0D01*
G01*
X25590000Y43938092D01*
G75*
G02*
X25520000Y44008092I0J70000D01*
G01*
G37*
G04 #@! TD.AperFunction*
G04 #@! TO.P,R23,2*
G04 #@! TO.N,Net-(F5-Pad1)*
G04 #@! TA.AperFunction,SMDPad,CuDef*
G36*
G01*
X27120000Y44008092D02*
X27120000Y44788092D01*
G75*
G02*
X27190000Y44858092I70000J0D01*
G01*
X27750000Y44858092D01*
G75*
G02*
X27820000Y44788092I0J-70000D01*
G01*
X27820000Y44008092D01*
G75*
G02*
X27750000Y43938092I-70000J0D01*
G01*
X27190000Y43938092D01*
G75*
G02*
X27120000Y44008092I0J70000D01*
G01*
G37*
G04 #@! TD.AperFunction*
G04 #@! TD*
G04 #@! TO.P,R25,1*
G04 #@! TO.N,Net-(F4-Pad1)*
G04 #@! TA.AperFunction,SMDPad,CuDef*
G36*
G01*
X71130000Y68810000D02*
X71130000Y71660000D01*
G75*
G02*
X71380000Y71910000I250000J0D01*
G01*
X72105000Y71910000D01*
G75*
G02*
X72355000Y71660000I0J-250000D01*
G01*
X72355000Y68810000D01*
G75*
G02*
X72105000Y68560000I-250000J0D01*
G01*
X71380000Y68560000D01*
G75*
G02*
X71130000Y68810000I0J250000D01*
G01*
G37*
G04 #@! TD.AperFunction*
G04 #@! TO.P,R25,2*
G04 #@! TO.N,PIN13*
G04 #@! TA.AperFunction,SMDPad,CuDef*
G36*
G01*
X77055000Y68810000D02*
X77055000Y71660000D01*
G75*
G02*
X77305000Y71910000I250000J0D01*
G01*
X78030000Y71910000D01*
G75*
G02*
X78280000Y71660000I0J-250000D01*
G01*
X78280000Y68810000D01*
G75*
G02*
X78030000Y68560000I-250000J0D01*
G01*
X77305000Y68560000D01*
G75*
G02*
X77055000Y68810000I0J250000D01*
G01*
G37*
G04 #@! TD.AperFunction*
G04 #@! TD*
D71*
G04 #@! TO.N,PIN113*
X161900000Y87625000D03*
X161900000Y97025000D03*
X161900000Y32650000D03*
X161900000Y46225000D03*
X161900000Y21775000D03*
X50100000Y3425000D03*
X161750000Y103850000D03*
X60625000Y3375000D03*
X3600000Y86150000D03*
X161900000Y77600000D03*
X3600000Y76125000D03*
X137675000Y3400000D03*
X93550000Y3400000D03*
X115625000Y3400000D03*
X16475000Y3375000D03*
X3600000Y31175000D03*
X3600000Y65600000D03*
X3600000Y103525000D03*
X3600000Y20300000D03*
X3600000Y55700000D03*
X148550000Y3400000D03*
X103825000Y3400000D03*
X161900000Y67075000D03*
X3600000Y95550000D03*
X82675000Y3375000D03*
X28025000Y3425000D03*
X72050000Y3375000D03*
X161900000Y57175000D03*
X127050000Y3400000D03*
X3600000Y44750000D03*
G04 #@! TD*
G04 #@! TA.AperFunction,Conductor*
G04 #@! TO.N,PIN113*
G36*
X6640857Y105204498D02*
G01*
X6687350Y105150842D01*
X6698736Y105098356D01*
X6599999Y19000001D01*
X6600000Y19000001D01*
X6600000Y19000000D01*
X7583340Y18901666D01*
X7615651Y18894038D01*
X11778998Y17308001D01*
X11816939Y17285233D01*
X15685879Y13912310D01*
X15709926Y13884118D01*
X15873023Y13623163D01*
X17687489Y10720017D01*
X17704416Y10676813D01*
X18500000Y6500000D01*
X146299999Y6500000D01*
X146300000Y6500000D01*
X146996617Y10281637D01*
X147008563Y10316593D01*
X148586944Y13374705D01*
X148622664Y13417226D01*
X153576274Y17181969D01*
X153629287Y17205492D01*
X158400000Y18100000D01*
X158415476Y45370283D01*
X158425255Y62598572D01*
X158445296Y62666681D01*
X158498978Y62713143D01*
X158551255Y62724500D01*
X158744750Y62724500D01*
X158744751Y62724500D01*
X158803234Y62736133D01*
X158869555Y62780448D01*
X158913870Y62846769D01*
X158925503Y62905252D01*
X158925503Y68119748D01*
X158913870Y68178231D01*
X158869555Y68244552D01*
X158869554Y68244553D01*
X158862660Y68254871D01*
X158865513Y68256778D01*
X158841332Y68301062D01*
X158846397Y68371877D01*
X158849828Y68380161D01*
X158885168Y68457543D01*
X158905650Y68600000D01*
X158885168Y68742457D01*
X158825380Y68873373D01*
X158731131Y68982143D01*
X158731130Y68982144D01*
X158657882Y69029218D01*
X158611389Y69082874D01*
X158600003Y69135216D01*
X158600003Y69264786D01*
X158620005Y69332907D01*
X158657878Y69370781D01*
X158731131Y69417857D01*
X158825380Y69526627D01*
X158885168Y69657543D01*
X158905650Y69800000D01*
X158885168Y69942457D01*
X158825380Y70073373D01*
X158731131Y70182143D01*
X158731130Y70182144D01*
X158657882Y70229218D01*
X158611389Y70282874D01*
X158600003Y70335216D01*
X158600003Y70464786D01*
X158620005Y70532907D01*
X158657878Y70570781D01*
X158731131Y70617857D01*
X158825380Y70726627D01*
X158885168Y70857543D01*
X158905650Y71000000D01*
X158885168Y71142457D01*
X158825380Y71273373D01*
X158731131Y71382143D01*
X158731130Y71382144D01*
X158657882Y71429218D01*
X158611389Y71482874D01*
X158600003Y71535216D01*
X158600003Y71664786D01*
X158620005Y71732907D01*
X158657878Y71770781D01*
X158731131Y71817857D01*
X158825380Y71926627D01*
X158885168Y72057543D01*
X158905650Y72200000D01*
X158885168Y72342457D01*
X158825380Y72473373D01*
X158731131Y72582143D01*
X158731130Y72582144D01*
X158731129Y72582145D01*
X158610056Y72659953D01*
X158521549Y72685941D01*
X158461823Y72724325D01*
X158432330Y72788906D01*
X158431048Y72806909D01*
X158431526Y73648572D01*
X158451567Y73716681D01*
X158505249Y73763143D01*
X158557526Y73774500D01*
X158744750Y73774500D01*
X158744751Y73774500D01*
X158803234Y73786133D01*
X158869555Y73830448D01*
X158913870Y73896769D01*
X158925503Y73955252D01*
X158925503Y79169748D01*
X158913870Y79228231D01*
X158869555Y79294552D01*
X158869554Y79294553D01*
X158862660Y79304871D01*
X158865513Y79306778D01*
X158841332Y79351062D01*
X158846397Y79421877D01*
X158849828Y79430161D01*
X158885168Y79507543D01*
X158905650Y79650000D01*
X158885168Y79792457D01*
X158825380Y79923373D01*
X158731131Y80032143D01*
X158731130Y80032144D01*
X158657882Y80079218D01*
X158611389Y80132874D01*
X158600003Y80185216D01*
X158600003Y80314786D01*
X158620005Y80382907D01*
X158657878Y80420781D01*
X158731131Y80467857D01*
X158825380Y80576627D01*
X158885168Y80707543D01*
X158905650Y80850000D01*
X158885168Y80992457D01*
X158825380Y81123373D01*
X158731131Y81232143D01*
X158731130Y81232144D01*
X158657882Y81279218D01*
X158611389Y81332874D01*
X158600003Y81385216D01*
X158600003Y81514786D01*
X158620005Y81582907D01*
X158657878Y81620781D01*
X158731131Y81667857D01*
X158825380Y81776627D01*
X158885168Y81907543D01*
X158905650Y82050000D01*
X158885168Y82192457D01*
X158825380Y82323373D01*
X158731131Y82432143D01*
X158731130Y82432144D01*
X158657882Y82479218D01*
X158611389Y82532874D01*
X158600003Y82585216D01*
X158600003Y82714786D01*
X158620005Y82782907D01*
X158657878Y82820781D01*
X158731131Y82867857D01*
X158825380Y82976627D01*
X158885168Y83107543D01*
X158905650Y83250000D01*
X158885168Y83392457D01*
X158825380Y83523373D01*
X158731131Y83632143D01*
X158731130Y83632144D01*
X158731129Y83632145D01*
X158610056Y83709953D01*
X158527819Y83734100D01*
X158468093Y83772484D01*
X158438600Y83837065D01*
X158437318Y83855068D01*
X158449375Y105098572D01*
X158469416Y105166681D01*
X158523098Y105213143D01*
X158575375Y105224500D01*
X162826281Y105224500D01*
X162894402Y105204498D01*
X162915376Y105187595D01*
X163962595Y104140377D01*
X163996620Y104078065D01*
X163999500Y104051282D01*
X163999500Y41851500D01*
X163979498Y41783379D01*
X163925842Y41736886D01*
X163873500Y41725500D01*
X162200067Y41725500D01*
X162063224Y41725519D01*
X161792059Y41688282D01*
X161528506Y41614469D01*
X161277448Y41505449D01*
X161043596Y41363267D01*
X161043590Y41363263D01*
X161043588Y41363261D01*
X160831263Y41190549D01*
X160655319Y41002185D01*
X160644435Y40990531D01*
X160486583Y40766929D01*
X160360661Y40523933D01*
X160360659Y40523930D01*
X160360659Y40523928D01*
X160272641Y40276291D01*
X160268996Y40266037D01*
X160268993Y40266028D01*
X160213304Y39998065D01*
X160213304Y39998061D01*
X160194625Y39725004D01*
X160194625Y39724997D01*
X160203821Y39590573D01*
X160213301Y39451976D01*
X160213304Y39451940D01*
X160213304Y39451936D01*
X160268993Y39183973D01*
X160268995Y39183965D01*
X160360659Y38926072D01*
X160360660Y38926069D01*
X160360661Y38926068D01*
X160486583Y38683072D01*
X160486586Y38683068D01*
X160486588Y38683064D01*
X160644436Y38459468D01*
X160831263Y38259451D01*
X161043588Y38086739D01*
X161043595Y38086735D01*
X161043596Y38086734D01*
X161277448Y37944552D01*
X161277451Y37944551D01*
X161277454Y37944549D01*
X161528505Y37835532D01*
X161712882Y37783894D01*
X161791891Y37761766D01*
X161792063Y37761718D01*
X162063217Y37724482D01*
X162200067Y37724500D01*
X163873500Y37724500D01*
X163941621Y37704498D01*
X163988114Y37650842D01*
X163999500Y37598500D01*
X163999500Y14908718D01*
X163979498Y14840597D01*
X163962595Y14819623D01*
X162915377Y13772405D01*
X162853065Y13738379D01*
X162826282Y13735500D01*
X160341424Y13735500D01*
X159745473Y13698006D01*
X159745472Y13698006D01*
X159153066Y13623166D01*
X159153053Y13623164D01*
X158566496Y13511272D01*
X158566488Y13511271D01*
X157988144Y13362777D01*
X157988120Y13362770D01*
X157420228Y13178249D01*
X156865033Y12958432D01*
X156865015Y12958424D01*
X156324741Y12704190D01*
X155801449Y12416509D01*
X155297293Y12096560D01*
X155297281Y12096552D01*
X154814213Y11745583D01*
X154814206Y11745578D01*
X154354121Y11364963D01*
X154354097Y11364941D01*
X153918815Y10956185D01*
X153510059Y10520903D01*
X153510037Y10520879D01*
X153129422Y10060794D01*
X153129417Y10060787D01*
X152778448Y9577719D01*
X152778440Y9577707D01*
X152458491Y9073551D01*
X152170810Y8550259D01*
X151916576Y8009985D01*
X151916568Y8009967D01*
X151696751Y7454772D01*
X151512230Y6886880D01*
X151512223Y6886856D01*
X151363729Y6308512D01*
X151363728Y6308504D01*
X151251836Y5721947D01*
X151251834Y5721934D01*
X151176994Y5129528D01*
X151176994Y5129527D01*
X151139500Y4533577D01*
X151139500Y2048718D01*
X151119498Y1980597D01*
X151102595Y1959623D01*
X150055377Y912405D01*
X149993065Y878379D01*
X149966282Y875500D01*
X15033717Y875500D01*
X14965596Y895502D01*
X14944622Y912405D01*
X13897405Y1959622D01*
X13863379Y2021934D01*
X13860500Y2048717D01*
X13860500Y4308608D01*
X13860499Y4308626D01*
X13860499Y4533575D01*
X13860498Y4533576D01*
X13823004Y5129526D01*
X13823004Y5129527D01*
X13794451Y5355539D01*
X13748164Y5721938D01*
X13636273Y6308492D01*
X13636269Y6308505D01*
X13636269Y6308511D01*
X13487775Y6886855D01*
X13487768Y6886879D01*
X13303253Y7454757D01*
X13303250Y7454767D01*
X13083431Y8009965D01*
X12829186Y8550265D01*
X12541516Y9073534D01*
X12221558Y9577708D01*
X11870573Y10060797D01*
X11718143Y10245053D01*
X11489962Y10520878D01*
X11489954Y10520887D01*
X11489948Y10520894D01*
X11302959Y10720017D01*
X11081184Y10956184D01*
X10645902Y11364940D01*
X10645901Y11364941D01*
X10645895Y11364947D01*
X10645888Y11364953D01*
X10645878Y11364962D01*
X10185793Y11745576D01*
X10185786Y11745581D01*
X9702718Y12096551D01*
X9702706Y12096559D01*
X9198547Y12416508D01*
X9198539Y12416513D01*
X8917195Y12571183D01*
X8675266Y12704185D01*
X8675260Y12704188D01*
X8675258Y12704189D01*
X8134984Y12958423D01*
X8134966Y12958431D01*
X7579771Y13178248D01*
X7011879Y13362769D01*
X7011855Y13362776D01*
X6433511Y13511270D01*
X6433503Y13511271D01*
X6433487Y13511274D01*
X6306788Y13535444D01*
X5846946Y13623163D01*
X5846933Y13623165D01*
X5254526Y13698005D01*
X4658576Y13735499D01*
X4658565Y13735499D01*
X4425892Y13735499D01*
X2173717Y13735499D01*
X2105596Y13755501D01*
X2084622Y13772404D01*
X1037405Y14819621D01*
X1003379Y14881933D01*
X1000500Y14908716D01*
X1000500Y37598499D01*
X1020502Y37666620D01*
X1074158Y37713113D01*
X1126500Y37724499D01*
X2874659Y37724499D01*
X2874687Y37724501D01*
X2936838Y37724501D01*
X2936851Y37724502D01*
X3167645Y37756225D01*
X3207965Y37761766D01*
X3471492Y37835603D01*
X3722510Y37944636D01*
X3956344Y38086833D01*
X4168638Y38259547D01*
X4355436Y38459559D01*
X4513260Y38683144D01*
X4639168Y38926136D01*
X4730817Y39184011D01*
X4786498Y39451962D01*
X4786807Y39456483D01*
X4805174Y39724996D01*
X4805174Y39725005D01*
X4786499Y39998025D01*
X4786498Y39998031D01*
X4786498Y39998038D01*
X4730817Y40265989D01*
X4639168Y40523864D01*
X4513260Y40766856D01*
X4355436Y40990441D01*
X4168638Y41190453D01*
X3956344Y41363167D01*
X3956339Y41363170D01*
X3956338Y41363171D01*
X3722508Y41505366D01*
X3471493Y41614397D01*
X3471483Y41614400D01*
X3207972Y41688233D01*
X3207964Y41688235D01*
X2936851Y41725499D01*
X2936838Y41725499D01*
X2865892Y41725499D01*
X1126500Y41725499D01*
X1058379Y41745501D01*
X1011886Y41799157D01*
X1000500Y41851499D01*
X1000500Y104051283D01*
X1020502Y104119404D01*
X1037405Y104140378D01*
X2084622Y105187595D01*
X2146934Y105221621D01*
X2173717Y105224500D01*
X6572736Y105224500D01*
X6640857Y105204498D01*
G37*
G04 #@! TD.AperFunction*
G04 #@! TD*
M02*
