G04 #@! TF.GenerationSoftware,KiCad,Pcbnew,8.0.9-8.0.9-0~ubuntu24.04.1*
G04 #@! TF.CreationDate,2025-12-21T15:13:14+00:00*
G04 #@! TF.ProjectId,greenenergyecu,67726565-6e65-46e6-9572-67796563752e,d*
G04 #@! TF.SameCoordinates,PX2ab9800PY68e7780*
G04 #@! TF.FileFunction,Profile,NP*
%FSLAX46Y46*%
G04 Gerber Fmt 4.6, Leading zero omitted, Abs format (unit mm)*
G04 Created by KiCad (PCBNEW 8.0.9-8.0.9-0~ubuntu24.04.1) date 2025-12-21 15:13:14*
%MOMM*%
%LPD*%
G01*
G04 APERTURE LIST*
G04 #@! TA.AperFunction,Profile*
%ADD10C,0.200000*%
G04 #@! TD*
G04 APERTURE END LIST*
D10*
X26540000Y118375000D02*
X15184800Y116375000D01*
X151640000Y4235000D02*
X151640000Y1789213D01*
X162200000Y38225000D02*
G75*
G02*
X162200000Y41225000I-200J1500000D01*
G01*
X4360000Y13234999D02*
G75*
G02*
X13359999Y4234999I0J-8999999D01*
G01*
X149800000Y116375000D02*
X149800000Y110166999D01*
X154300000Y105724998D02*
G75*
G02*
X149799989Y110166999I46900J4547902D01*
G01*
X2800000Y38224999D02*
X500000Y38224999D01*
X15200000Y110286999D02*
G75*
G02*
X10612800Y105725000I-4569250J7221D01*
G01*
X164500000Y104310786D02*
X164500000Y41225000D01*
X160640000Y13235000D02*
X163085786Y13235000D01*
X14774213Y374999D02*
X150225786Y375000D01*
X1914213Y105725000D02*
X10612800Y105725000D01*
X162200000Y41225000D02*
X164500000Y41225000D01*
X15184800Y116375000D02*
X15200000Y110286999D01*
X26540000Y118375000D02*
X138460000Y118375000D01*
X500000Y104310786D02*
X500000Y41224999D01*
X151640000Y1789213D02*
X150225786Y375000D01*
X500000Y38224999D02*
X500000Y14649213D01*
X13360000Y1789213D02*
X14774213Y375000D01*
X162200000Y38225000D02*
X164500000Y38225000D01*
X138460000Y118375000D02*
X149800000Y116375000D01*
X499999Y14649213D02*
X1914213Y13234999D01*
X4360000Y13234999D02*
X1914213Y13234999D01*
X2800000Y41224999D02*
X500000Y41224999D01*
X500000Y104310786D02*
X1914213Y105724999D01*
X151640000Y4235000D02*
G75*
G02*
X160640000Y13235000I9000000J0D01*
G01*
X164500000Y14649213D02*
X163085786Y13235000D01*
X13360000Y4234999D02*
X13360000Y1789213D01*
X2800000Y41224999D02*
G75*
G02*
X2800000Y38225001I0J-1499999D01*
G01*
X164500000Y38224999D02*
X164500000Y14649213D01*
X164500000Y104310786D02*
X163085786Y105724999D01*
X163085786Y105725000D02*
X154300000Y105725000D01*
M02*
