G04 #@! TF.GenerationSoftware,KiCad,Pcbnew,8.0.9-8.0.9-0~ubuntu24.04.1*
G04 #@! TF.CreationDate,2025-12-21T15:13:14+00:00*
G04 #@! TF.ProjectId,greenenergyecu,67726565-6e65-46e6-9572-67796563752e,d*
G04 #@! TF.SameCoordinates,PX2ab9800PY68e7780*
G04 #@! TF.FileFunction,Soldermask,Bot*
G04 #@! TF.FilePolarity,Negative*
%FSLAX46Y46*%
G04 Gerber Fmt 4.6, Leading zero omitted, Abs format (unit mm)*
G04 Created by KiCad (PCBNEW 8.0.9-8.0.9-0~ubuntu24.04.1) date 2025-12-21 15:13:14*
%MOMM*%
%LPD*%
G01*
G04 APERTURE LIST*
%ADD10C,3.700000*%
%ADD11C,2.200000*%
%ADD12C,2.600000*%
%ADD13C,1.500000*%
%ADD14C,0.599999*%
%ADD15C,1.524000*%
%ADD16C,0.600000*%
%ADD17O,1.700000X1.850000*%
%ADD18R,1.100000X1.100000*%
%ADD19C,1.100000*%
%ADD20O,1.100000X2.400000*%
G04 APERTURE END LIST*
D10*
G04 #@! TO.C,P1*
X145852000Y112883000D03*
D11*
X143402000Y105083000D03*
D10*
X71352000Y112883000D03*
D11*
X21602000Y105083000D03*
D10*
X19152000Y112883000D03*
D12*
X138752000Y107883000D03*
X132952000Y107883000D03*
X135852000Y105553000D03*
X138752000Y99753000D03*
X132952000Y99753000D03*
D13*
X79332000Y99753000D03*
X81872000Y99753000D03*
X84412000Y99753000D03*
X86952000Y99753000D03*
X89492000Y99753000D03*
X92032000Y99753000D03*
X94572000Y99753000D03*
X97112000Y99753000D03*
X99652000Y99753000D03*
X102192000Y99753000D03*
X104732000Y99753000D03*
X107272000Y99753000D03*
X109812000Y99753000D03*
X112352000Y99753000D03*
X114892000Y99753000D03*
X117432000Y99753000D03*
X119972000Y99753000D03*
X122512000Y99753000D03*
X125052000Y99753000D03*
X79332000Y102293000D03*
X81872000Y102293000D03*
X84412000Y102293000D03*
X86952000Y102293000D03*
X89492000Y102293000D03*
X92032000Y102293000D03*
X94572000Y102293000D03*
X97112000Y102293000D03*
X99652000Y102293000D03*
X102192000Y102293000D03*
X104732000Y102293000D03*
X107272000Y102293000D03*
X109812000Y102293000D03*
X112352000Y102293000D03*
X114892000Y102293000D03*
X117432000Y102293000D03*
X119972000Y102293000D03*
X122512000Y102293000D03*
X125052000Y102293000D03*
X79332000Y108343000D03*
X81872000Y108343000D03*
X84412000Y108343000D03*
X86952000Y108343000D03*
X89492000Y108343000D03*
X92032000Y108343000D03*
X94572000Y108343000D03*
X97112000Y108343000D03*
X99652000Y108343000D03*
X102192000Y108343000D03*
X104732000Y108343000D03*
X107272000Y108343000D03*
X109812000Y108343000D03*
X112352000Y108343000D03*
X114892000Y108343000D03*
X117432000Y108343000D03*
X119972000Y108343000D03*
X122512000Y108343000D03*
X125052000Y108343000D03*
X79332000Y110883000D03*
X81872000Y110883000D03*
X84412000Y110883000D03*
X86952000Y110883000D03*
X89492000Y110883000D03*
X92032000Y110883000D03*
X94572000Y110883000D03*
X97112000Y110883000D03*
X99652000Y110883000D03*
X102192000Y110883000D03*
X104732000Y110883000D03*
X107272000Y110883000D03*
X109812000Y110883000D03*
X112352000Y110883000D03*
X114892000Y110883000D03*
X117432000Y110883000D03*
X119972000Y110883000D03*
X122512000Y110883000D03*
X125052000Y110883000D03*
X63362000Y110883000D03*
X60822000Y110883000D03*
X58282000Y110883000D03*
X55742000Y110883000D03*
X53202000Y110883000D03*
X50662000Y110883000D03*
X48122000Y110883000D03*
X45582000Y110883000D03*
X63362000Y108343000D03*
X60822000Y108343000D03*
X58282000Y108343000D03*
X55742000Y108343000D03*
X53202000Y108343000D03*
X50662000Y108343000D03*
X48122000Y108343000D03*
X45582000Y108343000D03*
X63362000Y102293000D03*
X60822000Y102293000D03*
X58282000Y102293000D03*
X55742000Y102293000D03*
X53202000Y102293000D03*
X50662000Y102293000D03*
X48122000Y102293000D03*
X45582000Y102293000D03*
X63362000Y99753000D03*
X60822000Y99753000D03*
X58282000Y99753000D03*
X55742000Y99753000D03*
X53202000Y99753000D03*
X50662000Y99753000D03*
X48122000Y99753000D03*
X45582000Y99753000D03*
D12*
X37752000Y107883000D03*
X31952000Y107883000D03*
X26052000Y107883000D03*
X34852000Y105553000D03*
X28952000Y105553000D03*
X37752000Y99753000D03*
X31952000Y99753000D03*
X26052000Y99753000D03*
G04 #@! TD*
D14*
G04 #@! TO.C,M7*
X116050000Y25438325D03*
X115174998Y25963325D03*
X116350002Y26713323D03*
X116274999Y30263324D03*
G04 #@! TD*
D15*
G04 #@! TO.C,F2*
X27290000Y62923733D03*
X32190000Y62923733D03*
G04 #@! TD*
G04 #@! TO.C,F1*
X27290000Y66043733D03*
X32190000Y66043733D03*
G04 #@! TD*
D16*
G04 #@! TO.C,M3*
X158400003Y80850000D03*
X158400003Y79650000D03*
X158400003Y82050000D03*
X158400003Y83250000D03*
X143975003Y76790000D03*
X143975003Y75790000D03*
G04 #@! TD*
G04 #@! TO.C,J21*
G36*
G01*
X94125000Y67880000D02*
X94125000Y69230000D01*
G75*
G02*
X94375000Y69480000I250000J0D01*
G01*
X95575000Y69480000D01*
G75*
G02*
X95825000Y69230000I0J-250000D01*
G01*
X95825000Y67880000D01*
G75*
G02*
X95575000Y67630000I-250000J0D01*
G01*
X94375000Y67630000D01*
G75*
G02*
X94125000Y67880000I0J250000D01*
G01*
G37*
D17*
X97475000Y68555000D03*
X99975000Y68555000D03*
X102475000Y68555000D03*
X104975000Y68555000D03*
G04 #@! TD*
D18*
G04 #@! TO.C,J22*
X23645000Y51398733D03*
D19*
X24445000Y53148733D03*
X25245000Y51398733D03*
X26045000Y53148733D03*
X26845000Y51398733D03*
D20*
X21595000Y52273733D03*
X28895000Y52273733D03*
G04 #@! TD*
D15*
G04 #@! TO.C,F3*
X27290000Y59803733D03*
X32190000Y59803733D03*
G04 #@! TD*
D16*
G04 #@! TO.C,M4*
X158400003Y69800000D03*
X158400003Y68600000D03*
X158400003Y71000000D03*
X158400003Y72200000D03*
X143975003Y65740000D03*
X143975003Y64740000D03*
G04 #@! TD*
D15*
G04 #@! TO.C,R4*
X27155391Y56818342D03*
X30965391Y56818342D03*
G04 #@! TD*
D16*
G04 #@! TO.C,M2*
X129970003Y30449997D03*
X129970003Y29499997D03*
X129970003Y28549999D03*
X121270003Y29549997D03*
X121270003Y30449997D03*
G04 #@! TD*
D13*
G04 #@! TO.C,M1*
X153549999Y45299998D03*
X153549999Y38900001D03*
X153549999Y36999998D03*
X153549999Y32699998D03*
D16*
X153999998Y30300001D03*
X153999998Y29300000D03*
D13*
X153549999Y26449998D03*
X138050002Y45750000D03*
X138050002Y43900001D03*
X138050002Y38949998D03*
X138050002Y26900000D03*
G04 #@! TD*
M02*
