G04 #@! TF.GenerationSoftware,KiCad,Pcbnew,8.0.9-8.0.9-0~ubuntu24.04.1*
G04 #@! TF.CreationDate,2025-12-21T16:04:00+00:00*
G04 #@! TF.ProjectId,greenenergyecu,67726565-6e65-46e6-9572-67796563752e,d*
G04 #@! TF.SameCoordinates,PX2b953a0PY6943058*
G04 #@! TF.FileFunction,Legend,Bot*
G04 #@! TF.FilePolarity,Positive*
%FSLAX46Y46*%
G04 Gerber Fmt 4.6, Leading zero omitted, Abs format (unit mm)*
G04 Created by KiCad (PCBNEW 8.0.9-8.0.9-0~ubuntu24.04.1) date 2025-12-21 16:04:00*
%MOMM*%
%LPD*%
G01*
G04 APERTURE LIST*
%ADD10C,0.250000*%
%ADD11C,0.200000*%
%ADD12C,0.127000*%
%ADD13C,0.120000*%
%ADD14C,0.099060*%
%ADD15C,0.100000*%
G04 APERTURE END LIST*
D10*
X127065928Y23744999D02*
X127065928Y24602142D01*
X127065928Y24173571D02*
X125565928Y24173571D01*
X125565928Y24173571D02*
X125780214Y24316428D01*
X125780214Y24316428D02*
X125923071Y24459285D01*
X125923071Y24459285D02*
X125994500Y24602142D01*
X127065928Y22316428D02*
X127065928Y23173571D01*
X127065928Y22745000D02*
X125565928Y22745000D01*
X125565928Y22745000D02*
X125780214Y22887857D01*
X125780214Y22887857D02*
X125923071Y23030714D01*
X125923071Y23030714D02*
X125994500Y23173571D01*
X127065928Y21602143D02*
X127065928Y21316429D01*
X127065928Y21316429D02*
X126994500Y21173572D01*
X126994500Y21173572D02*
X126923071Y21102143D01*
X126923071Y21102143D02*
X126708785Y20959286D01*
X126708785Y20959286D02*
X126423071Y20887857D01*
X126423071Y20887857D02*
X125851642Y20887857D01*
X125851642Y20887857D02*
X125708785Y20959286D01*
X125708785Y20959286D02*
X125637357Y21030714D01*
X125637357Y21030714D02*
X125565928Y21173572D01*
X125565928Y21173572D02*
X125565928Y21459286D01*
X125565928Y21459286D02*
X125637357Y21602143D01*
X125637357Y21602143D02*
X125708785Y21673572D01*
X125708785Y21673572D02*
X125851642Y21745000D01*
X125851642Y21745000D02*
X126208785Y21745000D01*
X126208785Y21745000D02*
X126351642Y21673572D01*
X126351642Y21673572D02*
X126423071Y21602143D01*
X126423071Y21602143D02*
X126494500Y21459286D01*
X126494500Y21459286D02*
X126494500Y21173572D01*
X126494500Y21173572D02*
X126423071Y21030714D01*
X126423071Y21030714D02*
X126351642Y20959286D01*
X126351642Y20959286D02*
X126208785Y20887857D01*
X139130928Y23744999D02*
X139130928Y24602142D01*
X139130928Y24173571D02*
X137630928Y24173571D01*
X137630928Y24173571D02*
X137845214Y24316428D01*
X137845214Y24316428D02*
X137988071Y24459285D01*
X137988071Y24459285D02*
X138059500Y24602142D01*
X137773785Y23173571D02*
X137702357Y23102143D01*
X137702357Y23102143D02*
X137630928Y22959285D01*
X137630928Y22959285D02*
X137630928Y22602143D01*
X137630928Y22602143D02*
X137702357Y22459285D01*
X137702357Y22459285D02*
X137773785Y22387857D01*
X137773785Y22387857D02*
X137916642Y22316428D01*
X137916642Y22316428D02*
X138059500Y22316428D01*
X138059500Y22316428D02*
X138273785Y22387857D01*
X138273785Y22387857D02*
X139130928Y23245000D01*
X139130928Y23245000D02*
X139130928Y22316428D01*
X139130928Y20887857D02*
X139130928Y21745000D01*
X139130928Y21316429D02*
X137630928Y21316429D01*
X137630928Y21316429D02*
X137845214Y21459286D01*
X137845214Y21459286D02*
X137988071Y21602143D01*
X137988071Y21602143D02*
X138059500Y21745000D01*
X139130928Y7869999D02*
X139130928Y8727142D01*
X139130928Y8298571D02*
X137630928Y8298571D01*
X137630928Y8298571D02*
X137845214Y8441428D01*
X137845214Y8441428D02*
X137988071Y8584285D01*
X137988071Y8584285D02*
X138059500Y8727142D01*
X139130928Y6441428D02*
X139130928Y7298571D01*
X139130928Y6870000D02*
X137630928Y6870000D01*
X137630928Y6870000D02*
X137845214Y7012857D01*
X137845214Y7012857D02*
X137988071Y7155714D01*
X137988071Y7155714D02*
X138059500Y7298571D01*
X137630928Y5155714D02*
X137630928Y5441429D01*
X137630928Y5441429D02*
X137702357Y5584286D01*
X137702357Y5584286D02*
X137773785Y5655714D01*
X137773785Y5655714D02*
X137988071Y5798572D01*
X137988071Y5798572D02*
X138273785Y5870000D01*
X138273785Y5870000D02*
X138845214Y5870000D01*
X138845214Y5870000D02*
X138988071Y5798572D01*
X138988071Y5798572D02*
X139059500Y5727143D01*
X139059500Y5727143D02*
X139130928Y5584286D01*
X139130928Y5584286D02*
X139130928Y5298572D01*
X139130928Y5298572D02*
X139059500Y5155714D01*
X139059500Y5155714D02*
X138988071Y5084286D01*
X138988071Y5084286D02*
X138845214Y5012857D01*
X138845214Y5012857D02*
X138488071Y5012857D01*
X138488071Y5012857D02*
X138345214Y5084286D01*
X138345214Y5084286D02*
X138273785Y5155714D01*
X138273785Y5155714D02*
X138202357Y5298572D01*
X138202357Y5298572D02*
X138202357Y5584286D01*
X138202357Y5584286D02*
X138273785Y5727143D01*
X138273785Y5727143D02*
X138345214Y5798572D01*
X138345214Y5798572D02*
X138488071Y5870000D01*
X133415928Y7869999D02*
X133415928Y8727142D01*
X133415928Y8298571D02*
X131915928Y8298571D01*
X131915928Y8298571D02*
X132130214Y8441428D01*
X132130214Y8441428D02*
X132273071Y8584285D01*
X132273071Y8584285D02*
X132344500Y8727142D01*
X133415928Y6441428D02*
X133415928Y7298571D01*
X133415928Y6870000D02*
X131915928Y6870000D01*
X131915928Y6870000D02*
X132130214Y7012857D01*
X132130214Y7012857D02*
X132273071Y7155714D01*
X132273071Y7155714D02*
X132344500Y7298571D01*
X131915928Y5084286D02*
X131915928Y5798572D01*
X131915928Y5798572D02*
X132630214Y5870000D01*
X132630214Y5870000D02*
X132558785Y5798572D01*
X132558785Y5798572D02*
X132487357Y5655714D01*
X132487357Y5655714D02*
X132487357Y5298572D01*
X132487357Y5298572D02*
X132558785Y5155714D01*
X132558785Y5155714D02*
X132630214Y5084286D01*
X132630214Y5084286D02*
X132773071Y5012857D01*
X132773071Y5012857D02*
X133130214Y5012857D01*
X133130214Y5012857D02*
X133273071Y5084286D01*
X133273071Y5084286D02*
X133344500Y5155714D01*
X133344500Y5155714D02*
X133415928Y5298572D01*
X133415928Y5298572D02*
X133415928Y5655714D01*
X133415928Y5655714D02*
X133344500Y5798572D01*
X133344500Y5798572D02*
X133273071Y5870000D01*
X135955928Y9774999D02*
X135955928Y10632142D01*
X135955928Y10203571D02*
X134455928Y10203571D01*
X134455928Y10203571D02*
X134670214Y10346428D01*
X134670214Y10346428D02*
X134813071Y10489285D01*
X134813071Y10489285D02*
X134884500Y10632142D01*
X135955928Y8346428D02*
X135955928Y9203571D01*
X135955928Y8775000D02*
X134455928Y8775000D01*
X134455928Y8775000D02*
X134670214Y8917857D01*
X134670214Y8917857D02*
X134813071Y9060714D01*
X134813071Y9060714D02*
X134884500Y9203571D01*
X135098785Y7489286D02*
X135027357Y7632143D01*
X135027357Y7632143D02*
X134955928Y7703572D01*
X134955928Y7703572D02*
X134813071Y7775000D01*
X134813071Y7775000D02*
X134741642Y7775000D01*
X134741642Y7775000D02*
X134598785Y7703572D01*
X134598785Y7703572D02*
X134527357Y7632143D01*
X134527357Y7632143D02*
X134455928Y7489286D01*
X134455928Y7489286D02*
X134455928Y7203572D01*
X134455928Y7203572D02*
X134527357Y7060714D01*
X134527357Y7060714D02*
X134598785Y6989286D01*
X134598785Y6989286D02*
X134741642Y6917857D01*
X134741642Y6917857D02*
X134813071Y6917857D01*
X134813071Y6917857D02*
X134955928Y6989286D01*
X134955928Y6989286D02*
X135027357Y7060714D01*
X135027357Y7060714D02*
X135098785Y7203572D01*
X135098785Y7203572D02*
X135098785Y7489286D01*
X135098785Y7489286D02*
X135170214Y7632143D01*
X135170214Y7632143D02*
X135241642Y7703572D01*
X135241642Y7703572D02*
X135384500Y7775000D01*
X135384500Y7775000D02*
X135670214Y7775000D01*
X135670214Y7775000D02*
X135813071Y7703572D01*
X135813071Y7703572D02*
X135884500Y7632143D01*
X135884500Y7632143D02*
X135955928Y7489286D01*
X135955928Y7489286D02*
X135955928Y7203572D01*
X135955928Y7203572D02*
X135884500Y7060714D01*
X135884500Y7060714D02*
X135813071Y6989286D01*
X135813071Y6989286D02*
X135670214Y6917857D01*
X135670214Y6917857D02*
X135384500Y6917857D01*
X135384500Y6917857D02*
X135241642Y6989286D01*
X135241642Y6989286D02*
X135170214Y7060714D01*
X135170214Y7060714D02*
X135098785Y7203572D01*
X132780928Y23744999D02*
X132780928Y24602142D01*
X132780928Y24173571D02*
X131280928Y24173571D01*
X131280928Y24173571D02*
X131495214Y24316428D01*
X131495214Y24316428D02*
X131638071Y24459285D01*
X131638071Y24459285D02*
X131709500Y24602142D01*
X131423785Y23173571D02*
X131352357Y23102143D01*
X131352357Y23102143D02*
X131280928Y22959285D01*
X131280928Y22959285D02*
X131280928Y22602143D01*
X131280928Y22602143D02*
X131352357Y22459285D01*
X131352357Y22459285D02*
X131423785Y22387857D01*
X131423785Y22387857D02*
X131566642Y22316428D01*
X131566642Y22316428D02*
X131709500Y22316428D01*
X131709500Y22316428D02*
X131923785Y22387857D01*
X131923785Y22387857D02*
X132780928Y23245000D01*
X132780928Y23245000D02*
X132780928Y22316428D01*
X131280928Y21387857D02*
X131280928Y21245000D01*
X131280928Y21245000D02*
X131352357Y21102143D01*
X131352357Y21102143D02*
X131423785Y21030714D01*
X131423785Y21030714D02*
X131566642Y20959286D01*
X131566642Y20959286D02*
X131852357Y20887857D01*
X131852357Y20887857D02*
X132209500Y20887857D01*
X132209500Y20887857D02*
X132495214Y20959286D01*
X132495214Y20959286D02*
X132638071Y21030714D01*
X132638071Y21030714D02*
X132709500Y21102143D01*
X132709500Y21102143D02*
X132780928Y21245000D01*
X132780928Y21245000D02*
X132780928Y21387857D01*
X132780928Y21387857D02*
X132709500Y21530714D01*
X132709500Y21530714D02*
X132638071Y21602143D01*
X132638071Y21602143D02*
X132495214Y21673572D01*
X132495214Y21673572D02*
X132209500Y21745000D01*
X132209500Y21745000D02*
X131852357Y21745000D01*
X131852357Y21745000D02*
X131566642Y21673572D01*
X131566642Y21673572D02*
X131423785Y21602143D01*
X131423785Y21602143D02*
X131352357Y21530714D01*
X131352357Y21530714D02*
X131280928Y21387857D01*
X130240928Y9774999D02*
X130240928Y10632142D01*
X130240928Y10203571D02*
X128740928Y10203571D01*
X128740928Y10203571D02*
X128955214Y10346428D01*
X128955214Y10346428D02*
X129098071Y10489285D01*
X129098071Y10489285D02*
X129169500Y10632142D01*
X130240928Y8346428D02*
X130240928Y9203571D01*
X130240928Y8775000D02*
X128740928Y8775000D01*
X128740928Y8775000D02*
X128955214Y8917857D01*
X128955214Y8917857D02*
X129098071Y9060714D01*
X129098071Y9060714D02*
X129169500Y9203571D01*
X128740928Y7846429D02*
X128740928Y6846429D01*
X128740928Y6846429D02*
X130240928Y7489286D01*
X127065928Y7869999D02*
X127065928Y8727142D01*
X127065928Y8298571D02*
X125565928Y8298571D01*
X125565928Y8298571D02*
X125780214Y8441428D01*
X125780214Y8441428D02*
X125923071Y8584285D01*
X125923071Y8584285D02*
X125994500Y8727142D01*
X127065928Y6441428D02*
X127065928Y7298571D01*
X127065928Y6870000D02*
X125565928Y6870000D01*
X125565928Y6870000D02*
X125780214Y7012857D01*
X125780214Y7012857D02*
X125923071Y7155714D01*
X125923071Y7155714D02*
X125994500Y7298571D01*
X126065928Y5155714D02*
X127065928Y5155714D01*
X125494500Y5512857D02*
X126565928Y5870000D01*
X126565928Y5870000D02*
X126565928Y4941429D01*
X123082857Y7735620D02*
X123273333Y7830858D01*
X123273333Y7830858D02*
X123368571Y7926096D01*
X123368571Y7926096D02*
X123463809Y8116572D01*
X123463809Y8116572D02*
X123463809Y8211810D01*
X123463809Y8211810D02*
X123368571Y8402286D01*
X123368571Y8402286D02*
X123273333Y8497524D01*
X123273333Y8497524D02*
X123082857Y8592762D01*
X123082857Y8592762D02*
X122701904Y8592762D01*
X122701904Y8592762D02*
X122511428Y8497524D01*
X122511428Y8497524D02*
X122416190Y8402286D01*
X122416190Y8402286D02*
X122320952Y8211810D01*
X122320952Y8211810D02*
X122320952Y8116572D01*
X122320952Y8116572D02*
X122416190Y7926096D01*
X122416190Y7926096D02*
X122511428Y7830858D01*
X122511428Y7830858D02*
X122701904Y7735620D01*
X122701904Y7735620D02*
X123082857Y7735620D01*
X123082857Y7735620D02*
X123273333Y7640381D01*
X123273333Y7640381D02*
X123368571Y7545143D01*
X123368571Y7545143D02*
X123463809Y7354667D01*
X123463809Y7354667D02*
X123463809Y6973715D01*
X123463809Y6973715D02*
X123368571Y6783239D01*
X123368571Y6783239D02*
X123273333Y6688000D01*
X123273333Y6688000D02*
X123082857Y6592762D01*
X123082857Y6592762D02*
X122701904Y6592762D01*
X122701904Y6592762D02*
X122511428Y6688000D01*
X122511428Y6688000D02*
X122416190Y6783239D01*
X122416190Y6783239D02*
X122320952Y6973715D01*
X122320952Y6973715D02*
X122320952Y7354667D01*
X122320952Y7354667D02*
X122416190Y7545143D01*
X122416190Y7545143D02*
X122511428Y7640381D01*
X122511428Y7640381D02*
X122701904Y7735620D01*
X121368571Y6592762D02*
X120987619Y6592762D01*
X120987619Y6592762D02*
X120797142Y6688000D01*
X120797142Y6688000D02*
X120701904Y6783239D01*
X120701904Y6783239D02*
X120511428Y7068953D01*
X120511428Y7068953D02*
X120416190Y7449905D01*
X120416190Y7449905D02*
X120416190Y8211810D01*
X120416190Y8211810D02*
X120511428Y8402286D01*
X120511428Y8402286D02*
X120606666Y8497524D01*
X120606666Y8497524D02*
X120797142Y8592762D01*
X120797142Y8592762D02*
X121178095Y8592762D01*
X121178095Y8592762D02*
X121368571Y8497524D01*
X121368571Y8497524D02*
X121463809Y8402286D01*
X121463809Y8402286D02*
X121559047Y8211810D01*
X121559047Y8211810D02*
X121559047Y7735620D01*
X121559047Y7735620D02*
X121463809Y7545143D01*
X121463809Y7545143D02*
X121368571Y7449905D01*
X121368571Y7449905D02*
X121178095Y7354667D01*
X121178095Y7354667D02*
X120797142Y7354667D01*
X120797142Y7354667D02*
X120606666Y7449905D01*
X120606666Y7449905D02*
X120511428Y7545143D01*
X120511428Y7545143D02*
X120416190Y7735620D01*
X123273333Y9132762D02*
X122892381Y9132762D01*
X122892381Y9132762D02*
X122701904Y9228000D01*
X122701904Y9228000D02*
X122606666Y9323239D01*
X122606666Y9323239D02*
X122416190Y9608953D01*
X122416190Y9608953D02*
X122320952Y9989905D01*
X122320952Y9989905D02*
X122320952Y10751810D01*
X122320952Y10751810D02*
X122416190Y10942286D01*
X122416190Y10942286D02*
X122511428Y11037524D01*
X122511428Y11037524D02*
X122701904Y11132762D01*
X122701904Y11132762D02*
X123082857Y11132762D01*
X123082857Y11132762D02*
X123273333Y11037524D01*
X123273333Y11037524D02*
X123368571Y10942286D01*
X123368571Y10942286D02*
X123463809Y10751810D01*
X123463809Y10751810D02*
X123463809Y10275620D01*
X123463809Y10275620D02*
X123368571Y10085143D01*
X123368571Y10085143D02*
X123273333Y9989905D01*
X123273333Y9989905D02*
X123082857Y9894667D01*
X123082857Y9894667D02*
X122701904Y9894667D01*
X122701904Y9894667D02*
X122511428Y9989905D01*
X122511428Y9989905D02*
X122416190Y10085143D01*
X122416190Y10085143D02*
X122320952Y10275620D01*
X121654285Y11132762D02*
X120320952Y11132762D01*
X120320952Y11132762D02*
X121178095Y9132762D01*
X123883333Y14862762D02*
X125026190Y14862762D01*
X124454762Y14862762D02*
X124454762Y16862762D01*
X124454762Y16862762D02*
X124645238Y16577048D01*
X124645238Y16577048D02*
X124835714Y16386572D01*
X124835714Y16386572D02*
X125026190Y16291334D01*
X122645238Y16862762D02*
X122454761Y16862762D01*
X122454761Y16862762D02*
X122264285Y16767524D01*
X122264285Y16767524D02*
X122169047Y16672286D01*
X122169047Y16672286D02*
X122073809Y16481810D01*
X122073809Y16481810D02*
X121978571Y16100858D01*
X121978571Y16100858D02*
X121978571Y15624667D01*
X121978571Y15624667D02*
X122073809Y15243715D01*
X122073809Y15243715D02*
X122169047Y15053239D01*
X122169047Y15053239D02*
X122264285Y14958000D01*
X122264285Y14958000D02*
X122454761Y14862762D01*
X122454761Y14862762D02*
X122645238Y14862762D01*
X122645238Y14862762D02*
X122835714Y14958000D01*
X122835714Y14958000D02*
X122930952Y15053239D01*
X122930952Y15053239D02*
X123026190Y15243715D01*
X123026190Y15243715D02*
X123121428Y15624667D01*
X123121428Y15624667D02*
X123121428Y16100858D01*
X123121428Y16100858D02*
X123026190Y16481810D01*
X123026190Y16481810D02*
X122930952Y16672286D01*
X122930952Y16672286D02*
X122835714Y16767524D01*
X122835714Y16767524D02*
X122645238Y16862762D01*
X120169047Y16862762D02*
X121121428Y16862762D01*
X121121428Y16862762D02*
X121216666Y15910381D01*
X121216666Y15910381D02*
X121121428Y16005620D01*
X121121428Y16005620D02*
X120930952Y16100858D01*
X120930952Y16100858D02*
X120454761Y16100858D01*
X120454761Y16100858D02*
X120264285Y16005620D01*
X120264285Y16005620D02*
X120169047Y15910381D01*
X120169047Y15910381D02*
X120073809Y15719905D01*
X120073809Y15719905D02*
X120073809Y15243715D01*
X120073809Y15243715D02*
X120169047Y15053239D01*
X120169047Y15053239D02*
X120264285Y14958000D01*
X120264285Y14958000D02*
X120454761Y14862762D01*
X120454761Y14862762D02*
X120930952Y14862762D01*
X120930952Y14862762D02*
X121121428Y14958000D01*
X121121428Y14958000D02*
X121216666Y15053239D01*
X123908333Y18022762D02*
X125051190Y18022762D01*
X124479762Y18022762D02*
X124479762Y20022762D01*
X124479762Y20022762D02*
X124670238Y19737048D01*
X124670238Y19737048D02*
X124860714Y19546572D01*
X124860714Y19546572D02*
X125051190Y19451334D01*
X122003571Y18022762D02*
X123146428Y18022762D01*
X122575000Y18022762D02*
X122575000Y20022762D01*
X122575000Y20022762D02*
X122765476Y19737048D01*
X122765476Y19737048D02*
X122955952Y19546572D01*
X122955952Y19546572D02*
X123146428Y19451334D01*
X121336904Y20022762D02*
X120098809Y20022762D01*
X120098809Y20022762D02*
X120765476Y19260858D01*
X120765476Y19260858D02*
X120479761Y19260858D01*
X120479761Y19260858D02*
X120289285Y19165620D01*
X120289285Y19165620D02*
X120194047Y19070381D01*
X120194047Y19070381D02*
X120098809Y18879905D01*
X120098809Y18879905D02*
X120098809Y18403715D01*
X120098809Y18403715D02*
X120194047Y18213239D01*
X120194047Y18213239D02*
X120289285Y18118000D01*
X120289285Y18118000D02*
X120479761Y18022762D01*
X120479761Y18022762D02*
X121051190Y18022762D01*
X121051190Y18022762D02*
X121241666Y18118000D01*
X121241666Y18118000D02*
X121336904Y18213239D01*
X98952857Y7735620D02*
X99143333Y7830858D01*
X99143333Y7830858D02*
X99238571Y7926096D01*
X99238571Y7926096D02*
X99333809Y8116572D01*
X99333809Y8116572D02*
X99333809Y8211810D01*
X99333809Y8211810D02*
X99238571Y8402286D01*
X99238571Y8402286D02*
X99143333Y8497524D01*
X99143333Y8497524D02*
X98952857Y8592762D01*
X98952857Y8592762D02*
X98571904Y8592762D01*
X98571904Y8592762D02*
X98381428Y8497524D01*
X98381428Y8497524D02*
X98286190Y8402286D01*
X98286190Y8402286D02*
X98190952Y8211810D01*
X98190952Y8211810D02*
X98190952Y8116572D01*
X98190952Y8116572D02*
X98286190Y7926096D01*
X98286190Y7926096D02*
X98381428Y7830858D01*
X98381428Y7830858D02*
X98571904Y7735620D01*
X98571904Y7735620D02*
X98952857Y7735620D01*
X98952857Y7735620D02*
X99143333Y7640381D01*
X99143333Y7640381D02*
X99238571Y7545143D01*
X99238571Y7545143D02*
X99333809Y7354667D01*
X99333809Y7354667D02*
X99333809Y6973715D01*
X99333809Y6973715D02*
X99238571Y6783239D01*
X99238571Y6783239D02*
X99143333Y6688000D01*
X99143333Y6688000D02*
X98952857Y6592762D01*
X98952857Y6592762D02*
X98571904Y6592762D01*
X98571904Y6592762D02*
X98381428Y6688000D01*
X98381428Y6688000D02*
X98286190Y6783239D01*
X98286190Y6783239D02*
X98190952Y6973715D01*
X98190952Y6973715D02*
X98190952Y7354667D01*
X98190952Y7354667D02*
X98286190Y7545143D01*
X98286190Y7545143D02*
X98381428Y7640381D01*
X98381428Y7640381D02*
X98571904Y7735620D01*
X97429047Y8402286D02*
X97333809Y8497524D01*
X97333809Y8497524D02*
X97143333Y8592762D01*
X97143333Y8592762D02*
X96667142Y8592762D01*
X96667142Y8592762D02*
X96476666Y8497524D01*
X96476666Y8497524D02*
X96381428Y8402286D01*
X96381428Y8402286D02*
X96286190Y8211810D01*
X96286190Y8211810D02*
X96286190Y8021334D01*
X96286190Y8021334D02*
X96381428Y7735620D01*
X96381428Y7735620D02*
X97524285Y6592762D01*
X97524285Y6592762D02*
X96286190Y6592762D01*
X99143333Y9132762D02*
X98762381Y9132762D01*
X98762381Y9132762D02*
X98571904Y9228000D01*
X98571904Y9228000D02*
X98476666Y9323239D01*
X98476666Y9323239D02*
X98286190Y9608953D01*
X98286190Y9608953D02*
X98190952Y9989905D01*
X98190952Y9989905D02*
X98190952Y10751810D01*
X98190952Y10751810D02*
X98286190Y10942286D01*
X98286190Y10942286D02*
X98381428Y11037524D01*
X98381428Y11037524D02*
X98571904Y11132762D01*
X98571904Y11132762D02*
X98952857Y11132762D01*
X98952857Y11132762D02*
X99143333Y11037524D01*
X99143333Y11037524D02*
X99238571Y10942286D01*
X99238571Y10942286D02*
X99333809Y10751810D01*
X99333809Y10751810D02*
X99333809Y10275620D01*
X99333809Y10275620D02*
X99238571Y10085143D01*
X99238571Y10085143D02*
X99143333Y9989905D01*
X99143333Y9989905D02*
X98952857Y9894667D01*
X98952857Y9894667D02*
X98571904Y9894667D01*
X98571904Y9894667D02*
X98381428Y9989905D01*
X98381428Y9989905D02*
X98286190Y10085143D01*
X98286190Y10085143D02*
X98190952Y10275620D01*
X96952857Y11132762D02*
X96762380Y11132762D01*
X96762380Y11132762D02*
X96571904Y11037524D01*
X96571904Y11037524D02*
X96476666Y10942286D01*
X96476666Y10942286D02*
X96381428Y10751810D01*
X96381428Y10751810D02*
X96286190Y10370858D01*
X96286190Y10370858D02*
X96286190Y9894667D01*
X96286190Y9894667D02*
X96381428Y9513715D01*
X96381428Y9513715D02*
X96476666Y9323239D01*
X96476666Y9323239D02*
X96571904Y9228000D01*
X96571904Y9228000D02*
X96762380Y9132762D01*
X96762380Y9132762D02*
X96952857Y9132762D01*
X96952857Y9132762D02*
X97143333Y9228000D01*
X97143333Y9228000D02*
X97238571Y9323239D01*
X97238571Y9323239D02*
X97333809Y9513715D01*
X97333809Y9513715D02*
X97429047Y9894667D01*
X97429047Y9894667D02*
X97429047Y10370858D01*
X97429047Y10370858D02*
X97333809Y10751810D01*
X97333809Y10751810D02*
X97238571Y10942286D01*
X97238571Y10942286D02*
X97143333Y11037524D01*
X97143333Y11037524D02*
X96952857Y11132762D01*
X98743333Y14647762D02*
X98362381Y14647762D01*
X98362381Y14647762D02*
X98171904Y14743000D01*
X98171904Y14743000D02*
X98076666Y14838239D01*
X98076666Y14838239D02*
X97886190Y15123953D01*
X97886190Y15123953D02*
X97790952Y15504905D01*
X97790952Y15504905D02*
X97790952Y16266810D01*
X97790952Y16266810D02*
X97886190Y16457286D01*
X97886190Y16457286D02*
X97981428Y16552524D01*
X97981428Y16552524D02*
X98171904Y16647762D01*
X98171904Y16647762D02*
X98552857Y16647762D01*
X98552857Y16647762D02*
X98743333Y16552524D01*
X98743333Y16552524D02*
X98838571Y16457286D01*
X98838571Y16457286D02*
X98933809Y16266810D01*
X98933809Y16266810D02*
X98933809Y15790620D01*
X98933809Y15790620D02*
X98838571Y15600143D01*
X98838571Y15600143D02*
X98743333Y15504905D01*
X98743333Y15504905D02*
X98552857Y15409667D01*
X98552857Y15409667D02*
X98171904Y15409667D01*
X98171904Y15409667D02*
X97981428Y15504905D01*
X97981428Y15504905D02*
X97886190Y15600143D01*
X97886190Y15600143D02*
X97790952Y15790620D01*
X96648095Y15790620D02*
X96838571Y15885858D01*
X96838571Y15885858D02*
X96933809Y15981096D01*
X96933809Y15981096D02*
X97029047Y16171572D01*
X97029047Y16171572D02*
X97029047Y16266810D01*
X97029047Y16266810D02*
X96933809Y16457286D01*
X96933809Y16457286D02*
X96838571Y16552524D01*
X96838571Y16552524D02*
X96648095Y16647762D01*
X96648095Y16647762D02*
X96267142Y16647762D01*
X96267142Y16647762D02*
X96076666Y16552524D01*
X96076666Y16552524D02*
X95981428Y16457286D01*
X95981428Y16457286D02*
X95886190Y16266810D01*
X95886190Y16266810D02*
X95886190Y16171572D01*
X95886190Y16171572D02*
X95981428Y15981096D01*
X95981428Y15981096D02*
X96076666Y15885858D01*
X96076666Y15885858D02*
X96267142Y15790620D01*
X96267142Y15790620D02*
X96648095Y15790620D01*
X96648095Y15790620D02*
X96838571Y15695381D01*
X96838571Y15695381D02*
X96933809Y15600143D01*
X96933809Y15600143D02*
X97029047Y15409667D01*
X97029047Y15409667D02*
X97029047Y15028715D01*
X97029047Y15028715D02*
X96933809Y14838239D01*
X96933809Y14838239D02*
X96838571Y14743000D01*
X96838571Y14743000D02*
X96648095Y14647762D01*
X96648095Y14647762D02*
X96267142Y14647762D01*
X96267142Y14647762D02*
X96076666Y14743000D01*
X96076666Y14743000D02*
X95981428Y14838239D01*
X95981428Y14838239D02*
X95886190Y15028715D01*
X95886190Y15028715D02*
X95886190Y15409667D01*
X95886190Y15409667D02*
X95981428Y15600143D01*
X95981428Y15600143D02*
X96076666Y15695381D01*
X96076666Y15695381D02*
X96267142Y15790620D01*
X98457533Y18073562D02*
X99600390Y18073562D01*
X99028962Y18073562D02*
X99028962Y20073562D01*
X99028962Y20073562D02*
X99219438Y19787848D01*
X99219438Y19787848D02*
X99409914Y19597372D01*
X99409914Y19597372D02*
X99600390Y19502134D01*
X97219438Y20073562D02*
X97028961Y20073562D01*
X97028961Y20073562D02*
X96838485Y19978324D01*
X96838485Y19978324D02*
X96743247Y19883086D01*
X96743247Y19883086D02*
X96648009Y19692610D01*
X96648009Y19692610D02*
X96552771Y19311658D01*
X96552771Y19311658D02*
X96552771Y18835467D01*
X96552771Y18835467D02*
X96648009Y18454515D01*
X96648009Y18454515D02*
X96743247Y18264039D01*
X96743247Y18264039D02*
X96838485Y18168800D01*
X96838485Y18168800D02*
X97028961Y18073562D01*
X97028961Y18073562D02*
X97219438Y18073562D01*
X97219438Y18073562D02*
X97409914Y18168800D01*
X97409914Y18168800D02*
X97505152Y18264039D01*
X97505152Y18264039D02*
X97600390Y18454515D01*
X97600390Y18454515D02*
X97695628Y18835467D01*
X97695628Y18835467D02*
X97695628Y19311658D01*
X97695628Y19311658D02*
X97600390Y19692610D01*
X97600390Y19692610D02*
X97505152Y19883086D01*
X97505152Y19883086D02*
X97409914Y19978324D01*
X97409914Y19978324D02*
X97219438Y20073562D01*
X94838485Y20073562D02*
X95219438Y20073562D01*
X95219438Y20073562D02*
X95409914Y19978324D01*
X95409914Y19978324D02*
X95505152Y19883086D01*
X95505152Y19883086D02*
X95695628Y19597372D01*
X95695628Y19597372D02*
X95790866Y19216420D01*
X95790866Y19216420D02*
X95790866Y18454515D01*
X95790866Y18454515D02*
X95695628Y18264039D01*
X95695628Y18264039D02*
X95600390Y18168800D01*
X95600390Y18168800D02*
X95409914Y18073562D01*
X95409914Y18073562D02*
X95028961Y18073562D01*
X95028961Y18073562D02*
X94838485Y18168800D01*
X94838485Y18168800D02*
X94743247Y18264039D01*
X94743247Y18264039D02*
X94648009Y18454515D01*
X94648009Y18454515D02*
X94648009Y18930705D01*
X94648009Y18930705D02*
X94743247Y19121181D01*
X94743247Y19121181D02*
X94838485Y19216420D01*
X94838485Y19216420D02*
X95028961Y19311658D01*
X95028961Y19311658D02*
X95409914Y19311658D01*
X95409914Y19311658D02*
X95600390Y19216420D01*
X95600390Y19216420D02*
X95695628Y19121181D01*
X95695628Y19121181D02*
X95790866Y18930705D01*
X88856428Y8592762D02*
X89237381Y8592762D01*
X89237381Y8592762D02*
X89427857Y8497524D01*
X89427857Y8497524D02*
X89523095Y8402286D01*
X89523095Y8402286D02*
X89713571Y8116572D01*
X89713571Y8116572D02*
X89808809Y7735620D01*
X89808809Y7735620D02*
X89808809Y6973715D01*
X89808809Y6973715D02*
X89713571Y6783239D01*
X89713571Y6783239D02*
X89618333Y6688000D01*
X89618333Y6688000D02*
X89427857Y6592762D01*
X89427857Y6592762D02*
X89046904Y6592762D01*
X89046904Y6592762D02*
X88856428Y6688000D01*
X88856428Y6688000D02*
X88761190Y6783239D01*
X88761190Y6783239D02*
X88665952Y6973715D01*
X88665952Y6973715D02*
X88665952Y7449905D01*
X88665952Y7449905D02*
X88761190Y7640381D01*
X88761190Y7640381D02*
X88856428Y7735620D01*
X88856428Y7735620D02*
X89046904Y7830858D01*
X89046904Y7830858D02*
X89427857Y7830858D01*
X89427857Y7830858D02*
X89618333Y7735620D01*
X89618333Y7735620D02*
X89713571Y7640381D01*
X89713571Y7640381D02*
X89808809Y7449905D01*
X87999285Y8592762D02*
X86761190Y8592762D01*
X86761190Y8592762D02*
X87427857Y7830858D01*
X87427857Y7830858D02*
X87142142Y7830858D01*
X87142142Y7830858D02*
X86951666Y7735620D01*
X86951666Y7735620D02*
X86856428Y7640381D01*
X86856428Y7640381D02*
X86761190Y7449905D01*
X86761190Y7449905D02*
X86761190Y6973715D01*
X86761190Y6973715D02*
X86856428Y6783239D01*
X86856428Y6783239D02*
X86951666Y6688000D01*
X86951666Y6688000D02*
X87142142Y6592762D01*
X87142142Y6592762D02*
X87713571Y6592762D01*
X87713571Y6592762D02*
X87904047Y6688000D01*
X87904047Y6688000D02*
X87999285Y6783239D01*
X88856428Y10466096D02*
X88856428Y9132762D01*
X89332619Y11228000D02*
X89808809Y9799429D01*
X89808809Y9799429D02*
X88570714Y9799429D01*
X86951666Y10466096D02*
X86951666Y9132762D01*
X87427857Y11228000D02*
X87904047Y9799429D01*
X87904047Y9799429D02*
X86665952Y9799429D01*
X89808809Y16657286D02*
X89713571Y16752524D01*
X89713571Y16752524D02*
X89523095Y16847762D01*
X89523095Y16847762D02*
X89046904Y16847762D01*
X89046904Y16847762D02*
X88856428Y16752524D01*
X88856428Y16752524D02*
X88761190Y16657286D01*
X88761190Y16657286D02*
X88665952Y16466810D01*
X88665952Y16466810D02*
X88665952Y16276334D01*
X88665952Y16276334D02*
X88761190Y15990620D01*
X88761190Y15990620D02*
X89904047Y14847762D01*
X89904047Y14847762D02*
X88665952Y14847762D01*
X86856428Y16847762D02*
X87808809Y16847762D01*
X87808809Y16847762D02*
X87904047Y15895381D01*
X87904047Y15895381D02*
X87808809Y15990620D01*
X87808809Y15990620D02*
X87618333Y16085858D01*
X87618333Y16085858D02*
X87142142Y16085858D01*
X87142142Y16085858D02*
X86951666Y15990620D01*
X86951666Y15990620D02*
X86856428Y15895381D01*
X86856428Y15895381D02*
X86761190Y15704905D01*
X86761190Y15704905D02*
X86761190Y15228715D01*
X86761190Y15228715D02*
X86856428Y15038239D01*
X86856428Y15038239D02*
X86951666Y14943000D01*
X86951666Y14943000D02*
X87142142Y14847762D01*
X87142142Y14847762D02*
X87618333Y14847762D01*
X87618333Y14847762D02*
X87808809Y14943000D01*
X87808809Y14943000D02*
X87904047Y15038239D01*
X87269047Y20022762D02*
X87650000Y20022762D01*
X87650000Y20022762D02*
X87840476Y19927524D01*
X87840476Y19927524D02*
X87935714Y19832286D01*
X87935714Y19832286D02*
X88126190Y19546572D01*
X88126190Y19546572D02*
X88221428Y19165620D01*
X88221428Y19165620D02*
X88221428Y18403715D01*
X88221428Y18403715D02*
X88126190Y18213239D01*
X88126190Y18213239D02*
X88030952Y18118000D01*
X88030952Y18118000D02*
X87840476Y18022762D01*
X87840476Y18022762D02*
X87459523Y18022762D01*
X87459523Y18022762D02*
X87269047Y18118000D01*
X87269047Y18118000D02*
X87173809Y18213239D01*
X87173809Y18213239D02*
X87078571Y18403715D01*
X87078571Y18403715D02*
X87078571Y18879905D01*
X87078571Y18879905D02*
X87173809Y19070381D01*
X87173809Y19070381D02*
X87269047Y19165620D01*
X87269047Y19165620D02*
X87459523Y19260858D01*
X87459523Y19260858D02*
X87840476Y19260858D01*
X87840476Y19260858D02*
X88030952Y19165620D01*
X88030952Y19165620D02*
X88126190Y19070381D01*
X88126190Y19070381D02*
X88221428Y18879905D01*
X32563809Y21927762D02*
X33516190Y21927762D01*
X33516190Y21927762D02*
X33611428Y20975381D01*
X33611428Y20975381D02*
X33516190Y21070620D01*
X33516190Y21070620D02*
X33325714Y21165858D01*
X33325714Y21165858D02*
X32849523Y21165858D01*
X32849523Y21165858D02*
X32659047Y21070620D01*
X32659047Y21070620D02*
X32563809Y20975381D01*
X32563809Y20975381D02*
X32468571Y20784905D01*
X32468571Y20784905D02*
X32468571Y20308715D01*
X32468571Y20308715D02*
X32563809Y20118239D01*
X32563809Y20118239D02*
X32659047Y20023000D01*
X32659047Y20023000D02*
X32849523Y19927762D01*
X32849523Y19927762D02*
X33325714Y19927762D01*
X33325714Y19927762D02*
X33516190Y20023000D01*
X33516190Y20023000D02*
X33611428Y20118239D01*
X23769047Y21261096D02*
X23769047Y19927762D01*
X24245238Y22023000D02*
X24721428Y20594429D01*
X24721428Y20594429D02*
X23483333Y20594429D01*
X29261666Y16847762D02*
X28023571Y16847762D01*
X28023571Y16847762D02*
X28690238Y16085858D01*
X28690238Y16085858D02*
X28404523Y16085858D01*
X28404523Y16085858D02*
X28214047Y15990620D01*
X28214047Y15990620D02*
X28118809Y15895381D01*
X28118809Y15895381D02*
X28023571Y15704905D01*
X28023571Y15704905D02*
X28023571Y15228715D01*
X28023571Y15228715D02*
X28118809Y15038239D01*
X28118809Y15038239D02*
X28214047Y14943000D01*
X28214047Y14943000D02*
X28404523Y14847762D01*
X28404523Y14847762D02*
X28975952Y14847762D01*
X28975952Y14847762D02*
X29166428Y14943000D01*
X29166428Y14943000D02*
X29261666Y15038239D01*
X33611428Y14117286D02*
X33516190Y14212524D01*
X33516190Y14212524D02*
X33325714Y14307762D01*
X33325714Y14307762D02*
X32849523Y14307762D01*
X32849523Y14307762D02*
X32659047Y14212524D01*
X32659047Y14212524D02*
X32563809Y14117286D01*
X32563809Y14117286D02*
X32468571Y13926810D01*
X32468571Y13926810D02*
X32468571Y13736334D01*
X32468571Y13736334D02*
X32563809Y13450620D01*
X32563809Y13450620D02*
X33706666Y12307762D01*
X33706666Y12307762D02*
X32468571Y12307762D01*
X23578571Y12307762D02*
X24721428Y12307762D01*
X24150000Y12307762D02*
X24150000Y14307762D01*
X24150000Y14307762D02*
X24340476Y14022048D01*
X24340476Y14022048D02*
X24530952Y13831572D01*
X24530952Y13831572D02*
X24721428Y13736334D01*
X37992857Y7735620D02*
X38183333Y7830858D01*
X38183333Y7830858D02*
X38278571Y7926096D01*
X38278571Y7926096D02*
X38373809Y8116572D01*
X38373809Y8116572D02*
X38373809Y8211810D01*
X38373809Y8211810D02*
X38278571Y8402286D01*
X38278571Y8402286D02*
X38183333Y8497524D01*
X38183333Y8497524D02*
X37992857Y8592762D01*
X37992857Y8592762D02*
X37611904Y8592762D01*
X37611904Y8592762D02*
X37421428Y8497524D01*
X37421428Y8497524D02*
X37326190Y8402286D01*
X37326190Y8402286D02*
X37230952Y8211810D01*
X37230952Y8211810D02*
X37230952Y8116572D01*
X37230952Y8116572D02*
X37326190Y7926096D01*
X37326190Y7926096D02*
X37421428Y7830858D01*
X37421428Y7830858D02*
X37611904Y7735620D01*
X37611904Y7735620D02*
X37992857Y7735620D01*
X37992857Y7735620D02*
X38183333Y7640381D01*
X38183333Y7640381D02*
X38278571Y7545143D01*
X38278571Y7545143D02*
X38373809Y7354667D01*
X38373809Y7354667D02*
X38373809Y6973715D01*
X38373809Y6973715D02*
X38278571Y6783239D01*
X38278571Y6783239D02*
X38183333Y6688000D01*
X38183333Y6688000D02*
X37992857Y6592762D01*
X37992857Y6592762D02*
X37611904Y6592762D01*
X37611904Y6592762D02*
X37421428Y6688000D01*
X37421428Y6688000D02*
X37326190Y6783239D01*
X37326190Y6783239D02*
X37230952Y6973715D01*
X37230952Y6973715D02*
X37230952Y7354667D01*
X37230952Y7354667D02*
X37326190Y7545143D01*
X37326190Y7545143D02*
X37421428Y7640381D01*
X37421428Y7640381D02*
X37611904Y7735620D01*
X35326190Y6592762D02*
X36469047Y6592762D01*
X35897619Y6592762D02*
X35897619Y8592762D01*
X35897619Y8592762D02*
X36088095Y8307048D01*
X36088095Y8307048D02*
X36278571Y8116572D01*
X36278571Y8116572D02*
X36469047Y8021334D01*
X37421428Y11132762D02*
X37802381Y11132762D01*
X37802381Y11132762D02*
X37992857Y11037524D01*
X37992857Y11037524D02*
X38088095Y10942286D01*
X38088095Y10942286D02*
X38278571Y10656572D01*
X38278571Y10656572D02*
X38373809Y10275620D01*
X38373809Y10275620D02*
X38373809Y9513715D01*
X38373809Y9513715D02*
X38278571Y9323239D01*
X38278571Y9323239D02*
X38183333Y9228000D01*
X38183333Y9228000D02*
X37992857Y9132762D01*
X37992857Y9132762D02*
X37611904Y9132762D01*
X37611904Y9132762D02*
X37421428Y9228000D01*
X37421428Y9228000D02*
X37326190Y9323239D01*
X37326190Y9323239D02*
X37230952Y9513715D01*
X37230952Y9513715D02*
X37230952Y9989905D01*
X37230952Y9989905D02*
X37326190Y10180381D01*
X37326190Y10180381D02*
X37421428Y10275620D01*
X37421428Y10275620D02*
X37611904Y10370858D01*
X37611904Y10370858D02*
X37992857Y10370858D01*
X37992857Y10370858D02*
X38183333Y10275620D01*
X38183333Y10275620D02*
X38278571Y10180381D01*
X38278571Y10180381D02*
X38373809Y9989905D01*
X36469047Y10942286D02*
X36373809Y11037524D01*
X36373809Y11037524D02*
X36183333Y11132762D01*
X36183333Y11132762D02*
X35707142Y11132762D01*
X35707142Y11132762D02*
X35516666Y11037524D01*
X35516666Y11037524D02*
X35421428Y10942286D01*
X35421428Y10942286D02*
X35326190Y10751810D01*
X35326190Y10751810D02*
X35326190Y10561334D01*
X35326190Y10561334D02*
X35421428Y10275620D01*
X35421428Y10275620D02*
X36564285Y9132762D01*
X36564285Y9132762D02*
X35326190Y9132762D01*
X37333428Y16300096D02*
X37333428Y14966762D01*
X37809619Y17062000D02*
X38285809Y15633429D01*
X38285809Y15633429D02*
X37047714Y15633429D01*
X36476285Y16966762D02*
X35238190Y16966762D01*
X35238190Y16966762D02*
X35904857Y16204858D01*
X35904857Y16204858D02*
X35619142Y16204858D01*
X35619142Y16204858D02*
X35428666Y16109620D01*
X35428666Y16109620D02*
X35333428Y16014381D01*
X35333428Y16014381D02*
X35238190Y15823905D01*
X35238190Y15823905D02*
X35238190Y15347715D01*
X35238190Y15347715D02*
X35333428Y15157239D01*
X35333428Y15157239D02*
X35428666Y15062000D01*
X35428666Y15062000D02*
X35619142Y14966762D01*
X35619142Y14966762D02*
X36190571Y14966762D01*
X36190571Y14966762D02*
X36381047Y15062000D01*
X36381047Y15062000D02*
X36476285Y15157239D01*
X38373809Y19832286D02*
X38278571Y19927524D01*
X38278571Y19927524D02*
X38088095Y20022762D01*
X38088095Y20022762D02*
X37611904Y20022762D01*
X37611904Y20022762D02*
X37421428Y19927524D01*
X37421428Y19927524D02*
X37326190Y19832286D01*
X37326190Y19832286D02*
X37230952Y19641810D01*
X37230952Y19641810D02*
X37230952Y19451334D01*
X37230952Y19451334D02*
X37326190Y19165620D01*
X37326190Y19165620D02*
X38469047Y18022762D01*
X38469047Y18022762D02*
X37230952Y18022762D01*
X35516666Y19356096D02*
X35516666Y18022762D01*
X35992857Y20118000D02*
X36469047Y18689429D01*
X36469047Y18689429D02*
X35230952Y18689429D01*
D11*
X53282219Y15049524D02*
X53282219Y14430477D01*
X53282219Y14430477D02*
X53663171Y14763810D01*
X53663171Y14763810D02*
X53663171Y14620953D01*
X53663171Y14620953D02*
X53710790Y14525715D01*
X53710790Y14525715D02*
X53758409Y14478096D01*
X53758409Y14478096D02*
X53853647Y14430477D01*
X53853647Y14430477D02*
X54091742Y14430477D01*
X54091742Y14430477D02*
X54186980Y14478096D01*
X54186980Y14478096D02*
X54234600Y14525715D01*
X54234600Y14525715D02*
X54282219Y14620953D01*
X54282219Y14620953D02*
X54282219Y14906667D01*
X54282219Y14906667D02*
X54234600Y15001905D01*
X54234600Y15001905D02*
X54186980Y15049524D01*
X53282219Y14097143D02*
X53282219Y13430477D01*
X53282219Y13430477D02*
X54282219Y13859048D01*
X52714219Y20969477D02*
X52714219Y21540905D01*
X52714219Y21255191D02*
X51714219Y21255191D01*
X51714219Y21255191D02*
X51857076Y21350429D01*
X51857076Y21350429D02*
X51952314Y21445667D01*
X51952314Y21445667D02*
X51999933Y21540905D01*
X52714219Y20493286D02*
X52714219Y20302810D01*
X52714219Y20302810D02*
X52666600Y20207572D01*
X52666600Y20207572D02*
X52618980Y20159953D01*
X52618980Y20159953D02*
X52476123Y20064715D01*
X52476123Y20064715D02*
X52285647Y20017096D01*
X52285647Y20017096D02*
X51904695Y20017096D01*
X51904695Y20017096D02*
X51809457Y20064715D01*
X51809457Y20064715D02*
X51761838Y20112334D01*
X51761838Y20112334D02*
X51714219Y20207572D01*
X51714219Y20207572D02*
X51714219Y20398048D01*
X51714219Y20398048D02*
X51761838Y20493286D01*
X51761838Y20493286D02*
X51809457Y20540905D01*
X51809457Y20540905D02*
X51904695Y20588524D01*
X51904695Y20588524D02*
X52142790Y20588524D01*
X52142790Y20588524D02*
X52238028Y20540905D01*
X52238028Y20540905D02*
X52285647Y20493286D01*
X52285647Y20493286D02*
X52333266Y20398048D01*
X52333266Y20398048D02*
X52333266Y20207572D01*
X52333266Y20207572D02*
X52285647Y20112334D01*
X52285647Y20112334D02*
X52238028Y20064715D01*
X52238028Y20064715D02*
X52142790Y20017096D01*
X115582219Y14706667D02*
X115582219Y15278095D01*
X115582219Y14992381D02*
X114582219Y14992381D01*
X114582219Y14992381D02*
X114725076Y15087619D01*
X114725076Y15087619D02*
X114820314Y15182857D01*
X114820314Y15182857D02*
X114867933Y15278095D01*
X114582219Y14087619D02*
X114582219Y13992381D01*
X114582219Y13992381D02*
X114629838Y13897143D01*
X114629838Y13897143D02*
X114677457Y13849524D01*
X114677457Y13849524D02*
X114772695Y13801905D01*
X114772695Y13801905D02*
X114963171Y13754286D01*
X114963171Y13754286D02*
X115201266Y13754286D01*
X115201266Y13754286D02*
X115391742Y13801905D01*
X115391742Y13801905D02*
X115486980Y13849524D01*
X115486980Y13849524D02*
X115534600Y13897143D01*
X115534600Y13897143D02*
X115582219Y13992381D01*
X115582219Y13992381D02*
X115582219Y14087619D01*
X115582219Y14087619D02*
X115534600Y14182857D01*
X115534600Y14182857D02*
X115486980Y14230476D01*
X115486980Y14230476D02*
X115391742Y14278095D01*
X115391742Y14278095D02*
X115201266Y14325714D01*
X115201266Y14325714D02*
X114963171Y14325714D01*
X114963171Y14325714D02*
X114772695Y14278095D01*
X114772695Y14278095D02*
X114677457Y14230476D01*
X114677457Y14230476D02*
X114629838Y14182857D01*
X114629838Y14182857D02*
X114582219Y14087619D01*
X114915552Y12897143D02*
X115582219Y12897143D01*
X114534600Y13135238D02*
X115248885Y13373333D01*
X115248885Y13373333D02*
X115248885Y12754286D01*
X43547552Y14464715D02*
X44214219Y14464715D01*
X43166600Y14702810D02*
X43880885Y14940905D01*
X43880885Y14940905D02*
X43880885Y14321858D01*
X44214219Y13417096D02*
X44214219Y13988524D01*
X44214219Y13702810D02*
X43214219Y13702810D01*
X43214219Y13702810D02*
X43357076Y13798048D01*
X43357076Y13798048D02*
X43452314Y13893286D01*
X43452314Y13893286D02*
X43499933Y13988524D01*
X116410790Y5911429D02*
X116363171Y6006667D01*
X116363171Y6006667D02*
X116315552Y6054286D01*
X116315552Y6054286D02*
X116220314Y6101905D01*
X116220314Y6101905D02*
X116172695Y6101905D01*
X116172695Y6101905D02*
X116077457Y6054286D01*
X116077457Y6054286D02*
X116029838Y6006667D01*
X116029838Y6006667D02*
X115982219Y5911429D01*
X115982219Y5911429D02*
X115982219Y5720953D01*
X115982219Y5720953D02*
X116029838Y5625715D01*
X116029838Y5625715D02*
X116077457Y5578096D01*
X116077457Y5578096D02*
X116172695Y5530477D01*
X116172695Y5530477D02*
X116220314Y5530477D01*
X116220314Y5530477D02*
X116315552Y5578096D01*
X116315552Y5578096D02*
X116363171Y5625715D01*
X116363171Y5625715D02*
X116410790Y5720953D01*
X116410790Y5720953D02*
X116410790Y5911429D01*
X116410790Y5911429D02*
X116458409Y6006667D01*
X116458409Y6006667D02*
X116506028Y6054286D01*
X116506028Y6054286D02*
X116601266Y6101905D01*
X116601266Y6101905D02*
X116791742Y6101905D01*
X116791742Y6101905D02*
X116886980Y6054286D01*
X116886980Y6054286D02*
X116934600Y6006667D01*
X116934600Y6006667D02*
X116982219Y5911429D01*
X116982219Y5911429D02*
X116982219Y5720953D01*
X116982219Y5720953D02*
X116934600Y5625715D01*
X116934600Y5625715D02*
X116886980Y5578096D01*
X116886980Y5578096D02*
X116791742Y5530477D01*
X116791742Y5530477D02*
X116601266Y5530477D01*
X116601266Y5530477D02*
X116506028Y5578096D01*
X116506028Y5578096D02*
X116458409Y5625715D01*
X116458409Y5625715D02*
X116410790Y5720953D01*
X116410790Y4959048D02*
X116363171Y5054286D01*
X116363171Y5054286D02*
X116315552Y5101905D01*
X116315552Y5101905D02*
X116220314Y5149524D01*
X116220314Y5149524D02*
X116172695Y5149524D01*
X116172695Y5149524D02*
X116077457Y5101905D01*
X116077457Y5101905D02*
X116029838Y5054286D01*
X116029838Y5054286D02*
X115982219Y4959048D01*
X115982219Y4959048D02*
X115982219Y4768572D01*
X115982219Y4768572D02*
X116029838Y4673334D01*
X116029838Y4673334D02*
X116077457Y4625715D01*
X116077457Y4625715D02*
X116172695Y4578096D01*
X116172695Y4578096D02*
X116220314Y4578096D01*
X116220314Y4578096D02*
X116315552Y4625715D01*
X116315552Y4625715D02*
X116363171Y4673334D01*
X116363171Y4673334D02*
X116410790Y4768572D01*
X116410790Y4768572D02*
X116410790Y4959048D01*
X116410790Y4959048D02*
X116458409Y5054286D01*
X116458409Y5054286D02*
X116506028Y5101905D01*
X116506028Y5101905D02*
X116601266Y5149524D01*
X116601266Y5149524D02*
X116791742Y5149524D01*
X116791742Y5149524D02*
X116886980Y5101905D01*
X116886980Y5101905D02*
X116934600Y5054286D01*
X116934600Y5054286D02*
X116982219Y4959048D01*
X116982219Y4959048D02*
X116982219Y4768572D01*
X116982219Y4768572D02*
X116934600Y4673334D01*
X116934600Y4673334D02*
X116886980Y4625715D01*
X116886980Y4625715D02*
X116791742Y4578096D01*
X116791742Y4578096D02*
X116601266Y4578096D01*
X116601266Y4578096D02*
X116506028Y4625715D01*
X116506028Y4625715D02*
X116458409Y4673334D01*
X116458409Y4673334D02*
X116410790Y4768572D01*
X44109457Y21540905D02*
X44061838Y21493286D01*
X44061838Y21493286D02*
X44014219Y21398048D01*
X44014219Y21398048D02*
X44014219Y21159953D01*
X44014219Y21159953D02*
X44061838Y21064715D01*
X44061838Y21064715D02*
X44109457Y21017096D01*
X44109457Y21017096D02*
X44204695Y20969477D01*
X44204695Y20969477D02*
X44299933Y20969477D01*
X44299933Y20969477D02*
X44442790Y21017096D01*
X44442790Y21017096D02*
X45014219Y21588524D01*
X45014219Y21588524D02*
X45014219Y20969477D01*
X44109457Y20588524D02*
X44061838Y20540905D01*
X44061838Y20540905D02*
X44014219Y20445667D01*
X44014219Y20445667D02*
X44014219Y20207572D01*
X44014219Y20207572D02*
X44061838Y20112334D01*
X44061838Y20112334D02*
X44109457Y20064715D01*
X44109457Y20064715D02*
X44204695Y20017096D01*
X44204695Y20017096D02*
X44299933Y20017096D01*
X44299933Y20017096D02*
X44442790Y20064715D01*
X44442790Y20064715D02*
X45014219Y20636143D01*
X45014219Y20636143D02*
X45014219Y20017096D01*
X59414219Y12317096D02*
X59414219Y12793286D01*
X59414219Y12793286D02*
X59890409Y12840905D01*
X59890409Y12840905D02*
X59842790Y12793286D01*
X59842790Y12793286D02*
X59795171Y12698048D01*
X59795171Y12698048D02*
X59795171Y12459953D01*
X59795171Y12459953D02*
X59842790Y12364715D01*
X59842790Y12364715D02*
X59890409Y12317096D01*
X59890409Y12317096D02*
X59985647Y12269477D01*
X59985647Y12269477D02*
X60223742Y12269477D01*
X60223742Y12269477D02*
X60318980Y12317096D01*
X60318980Y12317096D02*
X60366600Y12364715D01*
X60366600Y12364715D02*
X60414219Y12459953D01*
X60414219Y12459953D02*
X60414219Y12698048D01*
X60414219Y12698048D02*
X60366600Y12793286D01*
X60366600Y12793286D02*
X60318980Y12840905D01*
X59747552Y11412334D02*
X60414219Y11412334D01*
X59366600Y11650429D02*
X60080885Y11888524D01*
X60080885Y11888524D02*
X60080885Y11269477D01*
X101714219Y12545667D02*
X101714219Y12355191D01*
X101714219Y12355191D02*
X101666600Y12259953D01*
X101666600Y12259953D02*
X101618980Y12212334D01*
X101618980Y12212334D02*
X101476123Y12117096D01*
X101476123Y12117096D02*
X101285647Y12069477D01*
X101285647Y12069477D02*
X100904695Y12069477D01*
X100904695Y12069477D02*
X100809457Y12117096D01*
X100809457Y12117096D02*
X100761838Y12164715D01*
X100761838Y12164715D02*
X100714219Y12259953D01*
X100714219Y12259953D02*
X100714219Y12450429D01*
X100714219Y12450429D02*
X100761838Y12545667D01*
X100761838Y12545667D02*
X100809457Y12593286D01*
X100809457Y12593286D02*
X100904695Y12640905D01*
X100904695Y12640905D02*
X101142790Y12640905D01*
X101142790Y12640905D02*
X101238028Y12593286D01*
X101238028Y12593286D02*
X101285647Y12545667D01*
X101285647Y12545667D02*
X101333266Y12450429D01*
X101333266Y12450429D02*
X101333266Y12259953D01*
X101333266Y12259953D02*
X101285647Y12164715D01*
X101285647Y12164715D02*
X101238028Y12117096D01*
X101238028Y12117096D02*
X101142790Y12069477D01*
X100714219Y11450429D02*
X100714219Y11355191D01*
X100714219Y11355191D02*
X100761838Y11259953D01*
X100761838Y11259953D02*
X100809457Y11212334D01*
X100809457Y11212334D02*
X100904695Y11164715D01*
X100904695Y11164715D02*
X101095171Y11117096D01*
X101095171Y11117096D02*
X101333266Y11117096D01*
X101333266Y11117096D02*
X101523742Y11164715D01*
X101523742Y11164715D02*
X101618980Y11212334D01*
X101618980Y11212334D02*
X101666600Y11259953D01*
X101666600Y11259953D02*
X101714219Y11355191D01*
X101714219Y11355191D02*
X101714219Y11450429D01*
X101714219Y11450429D02*
X101666600Y11545667D01*
X101666600Y11545667D02*
X101618980Y11593286D01*
X101618980Y11593286D02*
X101523742Y11640905D01*
X101523742Y11640905D02*
X101333266Y11688524D01*
X101333266Y11688524D02*
X101095171Y11688524D01*
X101095171Y11688524D02*
X100904695Y11640905D01*
X100904695Y11640905D02*
X100809457Y11593286D01*
X100809457Y11593286D02*
X100761838Y11545667D01*
X100761838Y11545667D02*
X100714219Y11450429D01*
X74847552Y12364715D02*
X75514219Y12364715D01*
X74466600Y12602810D02*
X75180885Y12840905D01*
X75180885Y12840905D02*
X75180885Y12221858D01*
X74942790Y11698048D02*
X74895171Y11793286D01*
X74895171Y11793286D02*
X74847552Y11840905D01*
X74847552Y11840905D02*
X74752314Y11888524D01*
X74752314Y11888524D02*
X74704695Y11888524D01*
X74704695Y11888524D02*
X74609457Y11840905D01*
X74609457Y11840905D02*
X74561838Y11793286D01*
X74561838Y11793286D02*
X74514219Y11698048D01*
X74514219Y11698048D02*
X74514219Y11507572D01*
X74514219Y11507572D02*
X74561838Y11412334D01*
X74561838Y11412334D02*
X74609457Y11364715D01*
X74609457Y11364715D02*
X74704695Y11317096D01*
X74704695Y11317096D02*
X74752314Y11317096D01*
X74752314Y11317096D02*
X74847552Y11364715D01*
X74847552Y11364715D02*
X74895171Y11412334D01*
X74895171Y11412334D02*
X74942790Y11507572D01*
X74942790Y11507572D02*
X74942790Y11698048D01*
X74942790Y11698048D02*
X74990409Y11793286D01*
X74990409Y11793286D02*
X75038028Y11840905D01*
X75038028Y11840905D02*
X75133266Y11888524D01*
X75133266Y11888524D02*
X75323742Y11888524D01*
X75323742Y11888524D02*
X75418980Y11840905D01*
X75418980Y11840905D02*
X75466600Y11793286D01*
X75466600Y11793286D02*
X75514219Y11698048D01*
X75514219Y11698048D02*
X75514219Y11507572D01*
X75514219Y11507572D02*
X75466600Y11412334D01*
X75466600Y11412334D02*
X75418980Y11364715D01*
X75418980Y11364715D02*
X75323742Y11317096D01*
X75323742Y11317096D02*
X75133266Y11317096D01*
X75133266Y11317096D02*
X75038028Y11364715D01*
X75038028Y11364715D02*
X74990409Y11412334D01*
X74990409Y11412334D02*
X74942790Y11507572D01*
X112014219Y12545667D02*
X112014219Y12355191D01*
X112014219Y12355191D02*
X111966600Y12259953D01*
X111966600Y12259953D02*
X111918980Y12212334D01*
X111918980Y12212334D02*
X111776123Y12117096D01*
X111776123Y12117096D02*
X111585647Y12069477D01*
X111585647Y12069477D02*
X111204695Y12069477D01*
X111204695Y12069477D02*
X111109457Y12117096D01*
X111109457Y12117096D02*
X111061838Y12164715D01*
X111061838Y12164715D02*
X111014219Y12259953D01*
X111014219Y12259953D02*
X111014219Y12450429D01*
X111014219Y12450429D02*
X111061838Y12545667D01*
X111061838Y12545667D02*
X111109457Y12593286D01*
X111109457Y12593286D02*
X111204695Y12640905D01*
X111204695Y12640905D02*
X111442790Y12640905D01*
X111442790Y12640905D02*
X111538028Y12593286D01*
X111538028Y12593286D02*
X111585647Y12545667D01*
X111585647Y12545667D02*
X111633266Y12450429D01*
X111633266Y12450429D02*
X111633266Y12259953D01*
X111633266Y12259953D02*
X111585647Y12164715D01*
X111585647Y12164715D02*
X111538028Y12117096D01*
X111538028Y12117096D02*
X111442790Y12069477D01*
X111347552Y11212334D02*
X112014219Y11212334D01*
X110966600Y11450429D02*
X111680885Y11688524D01*
X111680885Y11688524D02*
X111680885Y11069477D01*
X75414219Y21069477D02*
X75414219Y21640905D01*
X75414219Y21355191D02*
X74414219Y21355191D01*
X74414219Y21355191D02*
X74557076Y21450429D01*
X74557076Y21450429D02*
X74652314Y21545667D01*
X74652314Y21545667D02*
X74699933Y21640905D01*
X74414219Y20450429D02*
X74414219Y20355191D01*
X74414219Y20355191D02*
X74461838Y20259953D01*
X74461838Y20259953D02*
X74509457Y20212334D01*
X74509457Y20212334D02*
X74604695Y20164715D01*
X74604695Y20164715D02*
X74795171Y20117096D01*
X74795171Y20117096D02*
X75033266Y20117096D01*
X75033266Y20117096D02*
X75223742Y20164715D01*
X75223742Y20164715D02*
X75318980Y20212334D01*
X75318980Y20212334D02*
X75366600Y20259953D01*
X75366600Y20259953D02*
X75414219Y20355191D01*
X75414219Y20355191D02*
X75414219Y20450429D01*
X75414219Y20450429D02*
X75366600Y20545667D01*
X75366600Y20545667D02*
X75318980Y20593286D01*
X75318980Y20593286D02*
X75223742Y20640905D01*
X75223742Y20640905D02*
X75033266Y20688524D01*
X75033266Y20688524D02*
X74795171Y20688524D01*
X74795171Y20688524D02*
X74604695Y20640905D01*
X74604695Y20640905D02*
X74509457Y20593286D01*
X74509457Y20593286D02*
X74461838Y20545667D01*
X74461838Y20545667D02*
X74414219Y20450429D01*
X38447552Y14464715D02*
X39114219Y14464715D01*
X38066600Y14702810D02*
X38780885Y14940905D01*
X38780885Y14940905D02*
X38780885Y14321858D01*
X38114219Y14036143D02*
X38114219Y13417096D01*
X38114219Y13417096D02*
X38495171Y13750429D01*
X38495171Y13750429D02*
X38495171Y13607572D01*
X38495171Y13607572D02*
X38542790Y13512334D01*
X38542790Y13512334D02*
X38590409Y13464715D01*
X38590409Y13464715D02*
X38685647Y13417096D01*
X38685647Y13417096D02*
X38923742Y13417096D01*
X38923742Y13417096D02*
X39018980Y13464715D01*
X39018980Y13464715D02*
X39066600Y13512334D01*
X39066600Y13512334D02*
X39114219Y13607572D01*
X39114219Y13607572D02*
X39114219Y13893286D01*
X39114219Y13893286D02*
X39066600Y13988524D01*
X39066600Y13988524D02*
X39018980Y14036143D01*
X82114219Y21212333D02*
X82114219Y20545667D01*
X82114219Y20545667D02*
X83114219Y20974238D01*
X46714219Y12217096D02*
X46714219Y12693286D01*
X46714219Y12693286D02*
X47190409Y12740905D01*
X47190409Y12740905D02*
X47142790Y12693286D01*
X47142790Y12693286D02*
X47095171Y12598048D01*
X47095171Y12598048D02*
X47095171Y12359953D01*
X47095171Y12359953D02*
X47142790Y12264715D01*
X47142790Y12264715D02*
X47190409Y12217096D01*
X47190409Y12217096D02*
X47285647Y12169477D01*
X47285647Y12169477D02*
X47523742Y12169477D01*
X47523742Y12169477D02*
X47618980Y12217096D01*
X47618980Y12217096D02*
X47666600Y12264715D01*
X47666600Y12264715D02*
X47714219Y12359953D01*
X47714219Y12359953D02*
X47714219Y12598048D01*
X47714219Y12598048D02*
X47666600Y12693286D01*
X47666600Y12693286D02*
X47618980Y12740905D01*
X47714219Y11693286D02*
X47714219Y11502810D01*
X47714219Y11502810D02*
X47666600Y11407572D01*
X47666600Y11407572D02*
X47618980Y11359953D01*
X47618980Y11359953D02*
X47476123Y11264715D01*
X47476123Y11264715D02*
X47285647Y11217096D01*
X47285647Y11217096D02*
X46904695Y11217096D01*
X46904695Y11217096D02*
X46809457Y11264715D01*
X46809457Y11264715D02*
X46761838Y11312334D01*
X46761838Y11312334D02*
X46714219Y11407572D01*
X46714219Y11407572D02*
X46714219Y11598048D01*
X46714219Y11598048D02*
X46761838Y11693286D01*
X46761838Y11693286D02*
X46809457Y11740905D01*
X46809457Y11740905D02*
X46904695Y11788524D01*
X46904695Y11788524D02*
X47142790Y11788524D01*
X47142790Y11788524D02*
X47238028Y11740905D01*
X47238028Y11740905D02*
X47285647Y11693286D01*
X47285647Y11693286D02*
X47333266Y11598048D01*
X47333266Y11598048D02*
X47333266Y11407572D01*
X47333266Y11407572D02*
X47285647Y11312334D01*
X47285647Y11312334D02*
X47238028Y11264715D01*
X47238028Y11264715D02*
X47142790Y11217096D01*
X57614219Y21069477D02*
X57614219Y21640905D01*
X57614219Y21355191D02*
X56614219Y21355191D01*
X56614219Y21355191D02*
X56757076Y21450429D01*
X56757076Y21450429D02*
X56852314Y21545667D01*
X56852314Y21545667D02*
X56899933Y21640905D01*
X56614219Y20736143D02*
X56614219Y20069477D01*
X56614219Y20069477D02*
X57614219Y20498048D01*
X72447552Y12364715D02*
X73114219Y12364715D01*
X72066600Y12602810D02*
X72780885Y12840905D01*
X72780885Y12840905D02*
X72780885Y12221858D01*
X73114219Y11793286D02*
X73114219Y11602810D01*
X73114219Y11602810D02*
X73066600Y11507572D01*
X73066600Y11507572D02*
X73018980Y11459953D01*
X73018980Y11459953D02*
X72876123Y11364715D01*
X72876123Y11364715D02*
X72685647Y11317096D01*
X72685647Y11317096D02*
X72304695Y11317096D01*
X72304695Y11317096D02*
X72209457Y11364715D01*
X72209457Y11364715D02*
X72161838Y11412334D01*
X72161838Y11412334D02*
X72114219Y11507572D01*
X72114219Y11507572D02*
X72114219Y11698048D01*
X72114219Y11698048D02*
X72161838Y11793286D01*
X72161838Y11793286D02*
X72209457Y11840905D01*
X72209457Y11840905D02*
X72304695Y11888524D01*
X72304695Y11888524D02*
X72542790Y11888524D01*
X72542790Y11888524D02*
X72638028Y11840905D01*
X72638028Y11840905D02*
X72685647Y11793286D01*
X72685647Y11793286D02*
X72733266Y11698048D01*
X72733266Y11698048D02*
X72733266Y11507572D01*
X72733266Y11507572D02*
X72685647Y11412334D01*
X72685647Y11412334D02*
X72638028Y11364715D01*
X72638028Y11364715D02*
X72542790Y11317096D01*
X62714219Y21069477D02*
X62714219Y21640905D01*
X62714219Y21355191D02*
X61714219Y21355191D01*
X61714219Y21355191D02*
X61857076Y21450429D01*
X61857076Y21450429D02*
X61952314Y21545667D01*
X61952314Y21545667D02*
X61999933Y21640905D01*
X61714219Y20164715D02*
X61714219Y20640905D01*
X61714219Y20640905D02*
X62190409Y20688524D01*
X62190409Y20688524D02*
X62142790Y20640905D01*
X62142790Y20640905D02*
X62095171Y20545667D01*
X62095171Y20545667D02*
X62095171Y20307572D01*
X62095171Y20307572D02*
X62142790Y20212334D01*
X62142790Y20212334D02*
X62190409Y20164715D01*
X62190409Y20164715D02*
X62285647Y20117096D01*
X62285647Y20117096D02*
X62523742Y20117096D01*
X62523742Y20117096D02*
X62618980Y20164715D01*
X62618980Y20164715D02*
X62666600Y20212334D01*
X62666600Y20212334D02*
X62714219Y20307572D01*
X62714219Y20307572D02*
X62714219Y20545667D01*
X62714219Y20545667D02*
X62666600Y20640905D01*
X62666600Y20640905D02*
X62618980Y20688524D01*
X116882219Y12606667D02*
X116882219Y12416191D01*
X116882219Y12416191D02*
X116834600Y12320953D01*
X116834600Y12320953D02*
X116786980Y12273334D01*
X116786980Y12273334D02*
X116644123Y12178096D01*
X116644123Y12178096D02*
X116453647Y12130477D01*
X116453647Y12130477D02*
X116072695Y12130477D01*
X116072695Y12130477D02*
X115977457Y12178096D01*
X115977457Y12178096D02*
X115929838Y12225715D01*
X115929838Y12225715D02*
X115882219Y12320953D01*
X115882219Y12320953D02*
X115882219Y12511429D01*
X115882219Y12511429D02*
X115929838Y12606667D01*
X115929838Y12606667D02*
X115977457Y12654286D01*
X115977457Y12654286D02*
X116072695Y12701905D01*
X116072695Y12701905D02*
X116310790Y12701905D01*
X116310790Y12701905D02*
X116406028Y12654286D01*
X116406028Y12654286D02*
X116453647Y12606667D01*
X116453647Y12606667D02*
X116501266Y12511429D01*
X116501266Y12511429D02*
X116501266Y12320953D01*
X116501266Y12320953D02*
X116453647Y12225715D01*
X116453647Y12225715D02*
X116406028Y12178096D01*
X116406028Y12178096D02*
X116310790Y12130477D01*
X115882219Y11273334D02*
X115882219Y11463810D01*
X115882219Y11463810D02*
X115929838Y11559048D01*
X115929838Y11559048D02*
X115977457Y11606667D01*
X115977457Y11606667D02*
X116120314Y11701905D01*
X116120314Y11701905D02*
X116310790Y11749524D01*
X116310790Y11749524D02*
X116691742Y11749524D01*
X116691742Y11749524D02*
X116786980Y11701905D01*
X116786980Y11701905D02*
X116834600Y11654286D01*
X116834600Y11654286D02*
X116882219Y11559048D01*
X116882219Y11559048D02*
X116882219Y11368572D01*
X116882219Y11368572D02*
X116834600Y11273334D01*
X116834600Y11273334D02*
X116786980Y11225715D01*
X116786980Y11225715D02*
X116691742Y11178096D01*
X116691742Y11178096D02*
X116453647Y11178096D01*
X116453647Y11178096D02*
X116358409Y11225715D01*
X116358409Y11225715D02*
X116310790Y11273334D01*
X116310790Y11273334D02*
X116263171Y11368572D01*
X116263171Y11368572D02*
X116263171Y11559048D01*
X116263171Y11559048D02*
X116310790Y11654286D01*
X116310790Y11654286D02*
X116358409Y11701905D01*
X116358409Y11701905D02*
X116453647Y11749524D01*
X76309457Y15040905D02*
X76261838Y14993286D01*
X76261838Y14993286D02*
X76214219Y14898048D01*
X76214219Y14898048D02*
X76214219Y14659953D01*
X76214219Y14659953D02*
X76261838Y14564715D01*
X76261838Y14564715D02*
X76309457Y14517096D01*
X76309457Y14517096D02*
X76404695Y14469477D01*
X76404695Y14469477D02*
X76499933Y14469477D01*
X76499933Y14469477D02*
X76642790Y14517096D01*
X76642790Y14517096D02*
X77214219Y15088524D01*
X77214219Y15088524D02*
X77214219Y14469477D01*
X76642790Y13898048D02*
X76595171Y13993286D01*
X76595171Y13993286D02*
X76547552Y14040905D01*
X76547552Y14040905D02*
X76452314Y14088524D01*
X76452314Y14088524D02*
X76404695Y14088524D01*
X76404695Y14088524D02*
X76309457Y14040905D01*
X76309457Y14040905D02*
X76261838Y13993286D01*
X76261838Y13993286D02*
X76214219Y13898048D01*
X76214219Y13898048D02*
X76214219Y13707572D01*
X76214219Y13707572D02*
X76261838Y13612334D01*
X76261838Y13612334D02*
X76309457Y13564715D01*
X76309457Y13564715D02*
X76404695Y13517096D01*
X76404695Y13517096D02*
X76452314Y13517096D01*
X76452314Y13517096D02*
X76547552Y13564715D01*
X76547552Y13564715D02*
X76595171Y13612334D01*
X76595171Y13612334D02*
X76642790Y13707572D01*
X76642790Y13707572D02*
X76642790Y13898048D01*
X76642790Y13898048D02*
X76690409Y13993286D01*
X76690409Y13993286D02*
X76738028Y14040905D01*
X76738028Y14040905D02*
X76833266Y14088524D01*
X76833266Y14088524D02*
X77023742Y14088524D01*
X77023742Y14088524D02*
X77118980Y14040905D01*
X77118980Y14040905D02*
X77166600Y13993286D01*
X77166600Y13993286D02*
X77214219Y13898048D01*
X77214219Y13898048D02*
X77214219Y13707572D01*
X77214219Y13707572D02*
X77166600Y13612334D01*
X77166600Y13612334D02*
X77118980Y13564715D01*
X77118980Y13564715D02*
X77023742Y13517096D01*
X77023742Y13517096D02*
X76833266Y13517096D01*
X76833266Y13517096D02*
X76738028Y13564715D01*
X76738028Y13564715D02*
X76690409Y13612334D01*
X76690409Y13612334D02*
X76642790Y13707572D01*
X50914219Y14988524D02*
X50914219Y14369477D01*
X50914219Y14369477D02*
X51295171Y14702810D01*
X51295171Y14702810D02*
X51295171Y14559953D01*
X51295171Y14559953D02*
X51342790Y14464715D01*
X51342790Y14464715D02*
X51390409Y14417096D01*
X51390409Y14417096D02*
X51485647Y14369477D01*
X51485647Y14369477D02*
X51723742Y14369477D01*
X51723742Y14369477D02*
X51818980Y14417096D01*
X51818980Y14417096D02*
X51866600Y14464715D01*
X51866600Y14464715D02*
X51914219Y14559953D01*
X51914219Y14559953D02*
X51914219Y14845667D01*
X51914219Y14845667D02*
X51866600Y14940905D01*
X51866600Y14940905D02*
X51818980Y14988524D01*
X51342790Y13798048D02*
X51295171Y13893286D01*
X51295171Y13893286D02*
X51247552Y13940905D01*
X51247552Y13940905D02*
X51152314Y13988524D01*
X51152314Y13988524D02*
X51104695Y13988524D01*
X51104695Y13988524D02*
X51009457Y13940905D01*
X51009457Y13940905D02*
X50961838Y13893286D01*
X50961838Y13893286D02*
X50914219Y13798048D01*
X50914219Y13798048D02*
X50914219Y13607572D01*
X50914219Y13607572D02*
X50961838Y13512334D01*
X50961838Y13512334D02*
X51009457Y13464715D01*
X51009457Y13464715D02*
X51104695Y13417096D01*
X51104695Y13417096D02*
X51152314Y13417096D01*
X51152314Y13417096D02*
X51247552Y13464715D01*
X51247552Y13464715D02*
X51295171Y13512334D01*
X51295171Y13512334D02*
X51342790Y13607572D01*
X51342790Y13607572D02*
X51342790Y13798048D01*
X51342790Y13798048D02*
X51390409Y13893286D01*
X51390409Y13893286D02*
X51438028Y13940905D01*
X51438028Y13940905D02*
X51533266Y13988524D01*
X51533266Y13988524D02*
X51723742Y13988524D01*
X51723742Y13988524D02*
X51818980Y13940905D01*
X51818980Y13940905D02*
X51866600Y13893286D01*
X51866600Y13893286D02*
X51914219Y13798048D01*
X51914219Y13798048D02*
X51914219Y13607572D01*
X51914219Y13607572D02*
X51866600Y13512334D01*
X51866600Y13512334D02*
X51818980Y13464715D01*
X51818980Y13464715D02*
X51723742Y13417096D01*
X51723742Y13417096D02*
X51533266Y13417096D01*
X51533266Y13417096D02*
X51438028Y13464715D01*
X51438028Y13464715D02*
X51390409Y13512334D01*
X51390409Y13512334D02*
X51342790Y13607572D01*
X69422219Y12278096D02*
X69422219Y12754286D01*
X69422219Y12754286D02*
X69898409Y12801905D01*
X69898409Y12801905D02*
X69850790Y12754286D01*
X69850790Y12754286D02*
X69803171Y12659048D01*
X69803171Y12659048D02*
X69803171Y12420953D01*
X69803171Y12420953D02*
X69850790Y12325715D01*
X69850790Y12325715D02*
X69898409Y12278096D01*
X69898409Y12278096D02*
X69993647Y12230477D01*
X69993647Y12230477D02*
X70231742Y12230477D01*
X70231742Y12230477D02*
X70326980Y12278096D01*
X70326980Y12278096D02*
X70374600Y12325715D01*
X70374600Y12325715D02*
X70422219Y12420953D01*
X70422219Y12420953D02*
X70422219Y12659048D01*
X70422219Y12659048D02*
X70374600Y12754286D01*
X70374600Y12754286D02*
X70326980Y12801905D01*
X69422219Y11611429D02*
X69422219Y11516191D01*
X69422219Y11516191D02*
X69469838Y11420953D01*
X69469838Y11420953D02*
X69517457Y11373334D01*
X69517457Y11373334D02*
X69612695Y11325715D01*
X69612695Y11325715D02*
X69803171Y11278096D01*
X69803171Y11278096D02*
X70041266Y11278096D01*
X70041266Y11278096D02*
X70231742Y11325715D01*
X70231742Y11325715D02*
X70326980Y11373334D01*
X70326980Y11373334D02*
X70374600Y11420953D01*
X70374600Y11420953D02*
X70422219Y11516191D01*
X70422219Y11516191D02*
X70422219Y11611429D01*
X70422219Y11611429D02*
X70374600Y11706667D01*
X70374600Y11706667D02*
X70326980Y11754286D01*
X70326980Y11754286D02*
X70231742Y11801905D01*
X70231742Y11801905D02*
X70041266Y11849524D01*
X70041266Y11849524D02*
X69803171Y11849524D01*
X69803171Y11849524D02*
X69612695Y11801905D01*
X69612695Y11801905D02*
X69517457Y11754286D01*
X69517457Y11754286D02*
X69469838Y11706667D01*
X69469838Y11706667D02*
X69422219Y11611429D01*
X114514219Y12545667D02*
X114514219Y12355191D01*
X114514219Y12355191D02*
X114466600Y12259953D01*
X114466600Y12259953D02*
X114418980Y12212334D01*
X114418980Y12212334D02*
X114276123Y12117096D01*
X114276123Y12117096D02*
X114085647Y12069477D01*
X114085647Y12069477D02*
X113704695Y12069477D01*
X113704695Y12069477D02*
X113609457Y12117096D01*
X113609457Y12117096D02*
X113561838Y12164715D01*
X113561838Y12164715D02*
X113514219Y12259953D01*
X113514219Y12259953D02*
X113514219Y12450429D01*
X113514219Y12450429D02*
X113561838Y12545667D01*
X113561838Y12545667D02*
X113609457Y12593286D01*
X113609457Y12593286D02*
X113704695Y12640905D01*
X113704695Y12640905D02*
X113942790Y12640905D01*
X113942790Y12640905D02*
X114038028Y12593286D01*
X114038028Y12593286D02*
X114085647Y12545667D01*
X114085647Y12545667D02*
X114133266Y12450429D01*
X114133266Y12450429D02*
X114133266Y12259953D01*
X114133266Y12259953D02*
X114085647Y12164715D01*
X114085647Y12164715D02*
X114038028Y12117096D01*
X114038028Y12117096D02*
X113942790Y12069477D01*
X113514219Y11164715D02*
X113514219Y11640905D01*
X113514219Y11640905D02*
X113990409Y11688524D01*
X113990409Y11688524D02*
X113942790Y11640905D01*
X113942790Y11640905D02*
X113895171Y11545667D01*
X113895171Y11545667D02*
X113895171Y11307572D01*
X113895171Y11307572D02*
X113942790Y11212334D01*
X113942790Y11212334D02*
X113990409Y11164715D01*
X113990409Y11164715D02*
X114085647Y11117096D01*
X114085647Y11117096D02*
X114323742Y11117096D01*
X114323742Y11117096D02*
X114418980Y11164715D01*
X114418980Y11164715D02*
X114466600Y11212334D01*
X114466600Y11212334D02*
X114514219Y11307572D01*
X114514219Y11307572D02*
X114514219Y11545667D01*
X114514219Y11545667D02*
X114466600Y11640905D01*
X114466600Y11640905D02*
X114418980Y11688524D01*
X110714219Y14645667D02*
X110714219Y15217095D01*
X110714219Y14931381D02*
X109714219Y14931381D01*
X109714219Y14931381D02*
X109857076Y15026619D01*
X109857076Y15026619D02*
X109952314Y15121857D01*
X109952314Y15121857D02*
X109999933Y15217095D01*
X109714219Y14026619D02*
X109714219Y13931381D01*
X109714219Y13931381D02*
X109761838Y13836143D01*
X109761838Y13836143D02*
X109809457Y13788524D01*
X109809457Y13788524D02*
X109904695Y13740905D01*
X109904695Y13740905D02*
X110095171Y13693286D01*
X110095171Y13693286D02*
X110333266Y13693286D01*
X110333266Y13693286D02*
X110523742Y13740905D01*
X110523742Y13740905D02*
X110618980Y13788524D01*
X110618980Y13788524D02*
X110666600Y13836143D01*
X110666600Y13836143D02*
X110714219Y13931381D01*
X110714219Y13931381D02*
X110714219Y14026619D01*
X110714219Y14026619D02*
X110666600Y14121857D01*
X110666600Y14121857D02*
X110618980Y14169476D01*
X110618980Y14169476D02*
X110523742Y14217095D01*
X110523742Y14217095D02*
X110333266Y14264714D01*
X110333266Y14264714D02*
X110095171Y14264714D01*
X110095171Y14264714D02*
X109904695Y14217095D01*
X109904695Y14217095D02*
X109809457Y14169476D01*
X109809457Y14169476D02*
X109761838Y14121857D01*
X109761838Y14121857D02*
X109714219Y14026619D01*
X109809457Y13312333D02*
X109761838Y13264714D01*
X109761838Y13264714D02*
X109714219Y13169476D01*
X109714219Y13169476D02*
X109714219Y12931381D01*
X109714219Y12931381D02*
X109761838Y12836143D01*
X109761838Y12836143D02*
X109809457Y12788524D01*
X109809457Y12788524D02*
X109904695Y12740905D01*
X109904695Y12740905D02*
X109999933Y12740905D01*
X109999933Y12740905D02*
X110142790Y12788524D01*
X110142790Y12788524D02*
X110714219Y13359952D01*
X110714219Y13359952D02*
X110714219Y12740905D01*
X60314219Y21069477D02*
X60314219Y21640905D01*
X60314219Y21355191D02*
X59314219Y21355191D01*
X59314219Y21355191D02*
X59457076Y21450429D01*
X59457076Y21450429D02*
X59552314Y21545667D01*
X59552314Y21545667D02*
X59599933Y21640905D01*
X59314219Y20212334D02*
X59314219Y20402810D01*
X59314219Y20402810D02*
X59361838Y20498048D01*
X59361838Y20498048D02*
X59409457Y20545667D01*
X59409457Y20545667D02*
X59552314Y20640905D01*
X59552314Y20640905D02*
X59742790Y20688524D01*
X59742790Y20688524D02*
X60123742Y20688524D01*
X60123742Y20688524D02*
X60218980Y20640905D01*
X60218980Y20640905D02*
X60266600Y20593286D01*
X60266600Y20593286D02*
X60314219Y20498048D01*
X60314219Y20498048D02*
X60314219Y20307572D01*
X60314219Y20307572D02*
X60266600Y20212334D01*
X60266600Y20212334D02*
X60218980Y20164715D01*
X60218980Y20164715D02*
X60123742Y20117096D01*
X60123742Y20117096D02*
X59885647Y20117096D01*
X59885647Y20117096D02*
X59790409Y20164715D01*
X59790409Y20164715D02*
X59742790Y20212334D01*
X59742790Y20212334D02*
X59695171Y20307572D01*
X59695171Y20307572D02*
X59695171Y20498048D01*
X59695171Y20498048D02*
X59742790Y20593286D01*
X59742790Y20593286D02*
X59790409Y20640905D01*
X59790409Y20640905D02*
X59885647Y20688524D01*
X82314219Y5664715D02*
X82314219Y5855191D01*
X82314219Y5855191D02*
X82361838Y5950429D01*
X82361838Y5950429D02*
X82409457Y5998048D01*
X82409457Y5998048D02*
X82552314Y6093286D01*
X82552314Y6093286D02*
X82742790Y6140905D01*
X82742790Y6140905D02*
X83123742Y6140905D01*
X83123742Y6140905D02*
X83218980Y6093286D01*
X83218980Y6093286D02*
X83266600Y6045667D01*
X83266600Y6045667D02*
X83314219Y5950429D01*
X83314219Y5950429D02*
X83314219Y5759953D01*
X83314219Y5759953D02*
X83266600Y5664715D01*
X83266600Y5664715D02*
X83218980Y5617096D01*
X83218980Y5617096D02*
X83123742Y5569477D01*
X83123742Y5569477D02*
X82885647Y5569477D01*
X82885647Y5569477D02*
X82790409Y5617096D01*
X82790409Y5617096D02*
X82742790Y5664715D01*
X82742790Y5664715D02*
X82695171Y5759953D01*
X82695171Y5759953D02*
X82695171Y5950429D01*
X82695171Y5950429D02*
X82742790Y6045667D01*
X82742790Y6045667D02*
X82790409Y6093286D01*
X82790409Y6093286D02*
X82885647Y6140905D01*
X82647552Y4712334D02*
X83314219Y4712334D01*
X82266600Y4950429D02*
X82980885Y5188524D01*
X82980885Y5188524D02*
X82980885Y4569477D01*
X111542790Y5850429D02*
X111495171Y5945667D01*
X111495171Y5945667D02*
X111447552Y5993286D01*
X111447552Y5993286D02*
X111352314Y6040905D01*
X111352314Y6040905D02*
X111304695Y6040905D01*
X111304695Y6040905D02*
X111209457Y5993286D01*
X111209457Y5993286D02*
X111161838Y5945667D01*
X111161838Y5945667D02*
X111114219Y5850429D01*
X111114219Y5850429D02*
X111114219Y5659953D01*
X111114219Y5659953D02*
X111161838Y5564715D01*
X111161838Y5564715D02*
X111209457Y5517096D01*
X111209457Y5517096D02*
X111304695Y5469477D01*
X111304695Y5469477D02*
X111352314Y5469477D01*
X111352314Y5469477D02*
X111447552Y5517096D01*
X111447552Y5517096D02*
X111495171Y5564715D01*
X111495171Y5564715D02*
X111542790Y5659953D01*
X111542790Y5659953D02*
X111542790Y5850429D01*
X111542790Y5850429D02*
X111590409Y5945667D01*
X111590409Y5945667D02*
X111638028Y5993286D01*
X111638028Y5993286D02*
X111733266Y6040905D01*
X111733266Y6040905D02*
X111923742Y6040905D01*
X111923742Y6040905D02*
X112018980Y5993286D01*
X112018980Y5993286D02*
X112066600Y5945667D01*
X112066600Y5945667D02*
X112114219Y5850429D01*
X112114219Y5850429D02*
X112114219Y5659953D01*
X112114219Y5659953D02*
X112066600Y5564715D01*
X112066600Y5564715D02*
X112018980Y5517096D01*
X112018980Y5517096D02*
X111923742Y5469477D01*
X111923742Y5469477D02*
X111733266Y5469477D01*
X111733266Y5469477D02*
X111638028Y5517096D01*
X111638028Y5517096D02*
X111590409Y5564715D01*
X111590409Y5564715D02*
X111542790Y5659953D01*
X111114219Y4612334D02*
X111114219Y4802810D01*
X111114219Y4802810D02*
X111161838Y4898048D01*
X111161838Y4898048D02*
X111209457Y4945667D01*
X111209457Y4945667D02*
X111352314Y5040905D01*
X111352314Y5040905D02*
X111542790Y5088524D01*
X111542790Y5088524D02*
X111923742Y5088524D01*
X111923742Y5088524D02*
X112018980Y5040905D01*
X112018980Y5040905D02*
X112066600Y4993286D01*
X112066600Y4993286D02*
X112114219Y4898048D01*
X112114219Y4898048D02*
X112114219Y4707572D01*
X112114219Y4707572D02*
X112066600Y4612334D01*
X112066600Y4612334D02*
X112018980Y4564715D01*
X112018980Y4564715D02*
X111923742Y4517096D01*
X111923742Y4517096D02*
X111685647Y4517096D01*
X111685647Y4517096D02*
X111590409Y4564715D01*
X111590409Y4564715D02*
X111542790Y4612334D01*
X111542790Y4612334D02*
X111495171Y4707572D01*
X111495171Y4707572D02*
X111495171Y4898048D01*
X111495171Y4898048D02*
X111542790Y4993286D01*
X111542790Y4993286D02*
X111590409Y5040905D01*
X111590409Y5040905D02*
X111685647Y5088524D01*
X104314219Y12545667D02*
X104314219Y12355191D01*
X104314219Y12355191D02*
X104266600Y12259953D01*
X104266600Y12259953D02*
X104218980Y12212334D01*
X104218980Y12212334D02*
X104076123Y12117096D01*
X104076123Y12117096D02*
X103885647Y12069477D01*
X103885647Y12069477D02*
X103504695Y12069477D01*
X103504695Y12069477D02*
X103409457Y12117096D01*
X103409457Y12117096D02*
X103361838Y12164715D01*
X103361838Y12164715D02*
X103314219Y12259953D01*
X103314219Y12259953D02*
X103314219Y12450429D01*
X103314219Y12450429D02*
X103361838Y12545667D01*
X103361838Y12545667D02*
X103409457Y12593286D01*
X103409457Y12593286D02*
X103504695Y12640905D01*
X103504695Y12640905D02*
X103742790Y12640905D01*
X103742790Y12640905D02*
X103838028Y12593286D01*
X103838028Y12593286D02*
X103885647Y12545667D01*
X103885647Y12545667D02*
X103933266Y12450429D01*
X103933266Y12450429D02*
X103933266Y12259953D01*
X103933266Y12259953D02*
X103885647Y12164715D01*
X103885647Y12164715D02*
X103838028Y12117096D01*
X103838028Y12117096D02*
X103742790Y12069477D01*
X104314219Y11117096D02*
X104314219Y11688524D01*
X104314219Y11402810D02*
X103314219Y11402810D01*
X103314219Y11402810D02*
X103457076Y11498048D01*
X103457076Y11498048D02*
X103552314Y11593286D01*
X103552314Y11593286D02*
X103599933Y11688524D01*
X118114219Y14745667D02*
X118114219Y15317095D01*
X118114219Y15031381D02*
X117114219Y15031381D01*
X117114219Y15031381D02*
X117257076Y15126619D01*
X117257076Y15126619D02*
X117352314Y15221857D01*
X117352314Y15221857D02*
X117399933Y15317095D01*
X117114219Y14126619D02*
X117114219Y14031381D01*
X117114219Y14031381D02*
X117161838Y13936143D01*
X117161838Y13936143D02*
X117209457Y13888524D01*
X117209457Y13888524D02*
X117304695Y13840905D01*
X117304695Y13840905D02*
X117495171Y13793286D01*
X117495171Y13793286D02*
X117733266Y13793286D01*
X117733266Y13793286D02*
X117923742Y13840905D01*
X117923742Y13840905D02*
X118018980Y13888524D01*
X118018980Y13888524D02*
X118066600Y13936143D01*
X118066600Y13936143D02*
X118114219Y14031381D01*
X118114219Y14031381D02*
X118114219Y14126619D01*
X118114219Y14126619D02*
X118066600Y14221857D01*
X118066600Y14221857D02*
X118018980Y14269476D01*
X118018980Y14269476D02*
X117923742Y14317095D01*
X117923742Y14317095D02*
X117733266Y14364714D01*
X117733266Y14364714D02*
X117495171Y14364714D01*
X117495171Y14364714D02*
X117304695Y14317095D01*
X117304695Y14317095D02*
X117209457Y14269476D01*
X117209457Y14269476D02*
X117161838Y14221857D01*
X117161838Y14221857D02*
X117114219Y14126619D01*
X117114219Y12888524D02*
X117114219Y13364714D01*
X117114219Y13364714D02*
X117590409Y13412333D01*
X117590409Y13412333D02*
X117542790Y13364714D01*
X117542790Y13364714D02*
X117495171Y13269476D01*
X117495171Y13269476D02*
X117495171Y13031381D01*
X117495171Y13031381D02*
X117542790Y12936143D01*
X117542790Y12936143D02*
X117590409Y12888524D01*
X117590409Y12888524D02*
X117685647Y12840905D01*
X117685647Y12840905D02*
X117923742Y12840905D01*
X117923742Y12840905D02*
X118018980Y12888524D01*
X118018980Y12888524D02*
X118066600Y12936143D01*
X118066600Y12936143D02*
X118114219Y13031381D01*
X118114219Y13031381D02*
X118114219Y13269476D01*
X118114219Y13269476D02*
X118066600Y13364714D01*
X118066600Y13364714D02*
X118018980Y13412333D01*
X119414219Y21945667D02*
X119414219Y22517095D01*
X119414219Y22231381D02*
X118414219Y22231381D01*
X118414219Y22231381D02*
X118557076Y22326619D01*
X118557076Y22326619D02*
X118652314Y22421857D01*
X118652314Y22421857D02*
X118699933Y22517095D01*
X119414219Y20993286D02*
X119414219Y21564714D01*
X119414219Y21279000D02*
X118414219Y21279000D01*
X118414219Y21279000D02*
X118557076Y21374238D01*
X118557076Y21374238D02*
X118652314Y21469476D01*
X118652314Y21469476D02*
X118699933Y21564714D01*
X118414219Y20659952D02*
X118414219Y20040905D01*
X118414219Y20040905D02*
X118795171Y20374238D01*
X118795171Y20374238D02*
X118795171Y20231381D01*
X118795171Y20231381D02*
X118842790Y20136143D01*
X118842790Y20136143D02*
X118890409Y20088524D01*
X118890409Y20088524D02*
X118985647Y20040905D01*
X118985647Y20040905D02*
X119223742Y20040905D01*
X119223742Y20040905D02*
X119318980Y20088524D01*
X119318980Y20088524D02*
X119366600Y20136143D01*
X119366600Y20136143D02*
X119414219Y20231381D01*
X119414219Y20231381D02*
X119414219Y20517095D01*
X119414219Y20517095D02*
X119366600Y20612333D01*
X119366600Y20612333D02*
X119318980Y20659952D01*
X108114219Y14645667D02*
X108114219Y15217095D01*
X108114219Y14931381D02*
X107114219Y14931381D01*
X107114219Y14931381D02*
X107257076Y15026619D01*
X107257076Y15026619D02*
X107352314Y15121857D01*
X107352314Y15121857D02*
X107399933Y15217095D01*
X107114219Y14026619D02*
X107114219Y13931381D01*
X107114219Y13931381D02*
X107161838Y13836143D01*
X107161838Y13836143D02*
X107209457Y13788524D01*
X107209457Y13788524D02*
X107304695Y13740905D01*
X107304695Y13740905D02*
X107495171Y13693286D01*
X107495171Y13693286D02*
X107733266Y13693286D01*
X107733266Y13693286D02*
X107923742Y13740905D01*
X107923742Y13740905D02*
X108018980Y13788524D01*
X108018980Y13788524D02*
X108066600Y13836143D01*
X108066600Y13836143D02*
X108114219Y13931381D01*
X108114219Y13931381D02*
X108114219Y14026619D01*
X108114219Y14026619D02*
X108066600Y14121857D01*
X108066600Y14121857D02*
X108018980Y14169476D01*
X108018980Y14169476D02*
X107923742Y14217095D01*
X107923742Y14217095D02*
X107733266Y14264714D01*
X107733266Y14264714D02*
X107495171Y14264714D01*
X107495171Y14264714D02*
X107304695Y14217095D01*
X107304695Y14217095D02*
X107209457Y14169476D01*
X107209457Y14169476D02*
X107161838Y14121857D01*
X107161838Y14121857D02*
X107114219Y14026619D01*
X108114219Y12740905D02*
X108114219Y13312333D01*
X108114219Y13026619D02*
X107114219Y13026619D01*
X107114219Y13026619D02*
X107257076Y13121857D01*
X107257076Y13121857D02*
X107352314Y13217095D01*
X107352314Y13217095D02*
X107399933Y13312333D01*
X51914219Y6088524D02*
X51914219Y5421858D01*
X51914219Y5421858D02*
X52914219Y5850429D01*
X51914219Y4612334D02*
X51914219Y4802810D01*
X51914219Y4802810D02*
X51961838Y4898048D01*
X51961838Y4898048D02*
X52009457Y4945667D01*
X52009457Y4945667D02*
X52152314Y5040905D01*
X52152314Y5040905D02*
X52342790Y5088524D01*
X52342790Y5088524D02*
X52723742Y5088524D01*
X52723742Y5088524D02*
X52818980Y5040905D01*
X52818980Y5040905D02*
X52866600Y4993286D01*
X52866600Y4993286D02*
X52914219Y4898048D01*
X52914219Y4898048D02*
X52914219Y4707572D01*
X52914219Y4707572D02*
X52866600Y4612334D01*
X52866600Y4612334D02*
X52818980Y4564715D01*
X52818980Y4564715D02*
X52723742Y4517096D01*
X52723742Y4517096D02*
X52485647Y4517096D01*
X52485647Y4517096D02*
X52390409Y4564715D01*
X52390409Y4564715D02*
X52342790Y4612334D01*
X52342790Y4612334D02*
X52295171Y4707572D01*
X52295171Y4707572D02*
X52295171Y4898048D01*
X52295171Y4898048D02*
X52342790Y4993286D01*
X52342790Y4993286D02*
X52390409Y5040905D01*
X52390409Y5040905D02*
X52485647Y5088524D01*
X42142790Y5850429D02*
X42095171Y5945667D01*
X42095171Y5945667D02*
X42047552Y5993286D01*
X42047552Y5993286D02*
X41952314Y6040905D01*
X41952314Y6040905D02*
X41904695Y6040905D01*
X41904695Y6040905D02*
X41809457Y5993286D01*
X41809457Y5993286D02*
X41761838Y5945667D01*
X41761838Y5945667D02*
X41714219Y5850429D01*
X41714219Y5850429D02*
X41714219Y5659953D01*
X41714219Y5659953D02*
X41761838Y5564715D01*
X41761838Y5564715D02*
X41809457Y5517096D01*
X41809457Y5517096D02*
X41904695Y5469477D01*
X41904695Y5469477D02*
X41952314Y5469477D01*
X41952314Y5469477D02*
X42047552Y5517096D01*
X42047552Y5517096D02*
X42095171Y5564715D01*
X42095171Y5564715D02*
X42142790Y5659953D01*
X42142790Y5659953D02*
X42142790Y5850429D01*
X42142790Y5850429D02*
X42190409Y5945667D01*
X42190409Y5945667D02*
X42238028Y5993286D01*
X42238028Y5993286D02*
X42333266Y6040905D01*
X42333266Y6040905D02*
X42523742Y6040905D01*
X42523742Y6040905D02*
X42618980Y5993286D01*
X42618980Y5993286D02*
X42666600Y5945667D01*
X42666600Y5945667D02*
X42714219Y5850429D01*
X42714219Y5850429D02*
X42714219Y5659953D01*
X42714219Y5659953D02*
X42666600Y5564715D01*
X42666600Y5564715D02*
X42618980Y5517096D01*
X42618980Y5517096D02*
X42523742Y5469477D01*
X42523742Y5469477D02*
X42333266Y5469477D01*
X42333266Y5469477D02*
X42238028Y5517096D01*
X42238028Y5517096D02*
X42190409Y5564715D01*
X42190409Y5564715D02*
X42142790Y5659953D01*
X41714219Y4850429D02*
X41714219Y4755191D01*
X41714219Y4755191D02*
X41761838Y4659953D01*
X41761838Y4659953D02*
X41809457Y4612334D01*
X41809457Y4612334D02*
X41904695Y4564715D01*
X41904695Y4564715D02*
X42095171Y4517096D01*
X42095171Y4517096D02*
X42333266Y4517096D01*
X42333266Y4517096D02*
X42523742Y4564715D01*
X42523742Y4564715D02*
X42618980Y4612334D01*
X42618980Y4612334D02*
X42666600Y4659953D01*
X42666600Y4659953D02*
X42714219Y4755191D01*
X42714219Y4755191D02*
X42714219Y4850429D01*
X42714219Y4850429D02*
X42666600Y4945667D01*
X42666600Y4945667D02*
X42618980Y4993286D01*
X42618980Y4993286D02*
X42523742Y5040905D01*
X42523742Y5040905D02*
X42333266Y5088524D01*
X42333266Y5088524D02*
X42095171Y5088524D01*
X42095171Y5088524D02*
X41904695Y5040905D01*
X41904695Y5040905D02*
X41809457Y4993286D01*
X41809457Y4993286D02*
X41761838Y4945667D01*
X41761838Y4945667D02*
X41714219Y4850429D01*
X118942790Y5950429D02*
X118895171Y6045667D01*
X118895171Y6045667D02*
X118847552Y6093286D01*
X118847552Y6093286D02*
X118752314Y6140905D01*
X118752314Y6140905D02*
X118704695Y6140905D01*
X118704695Y6140905D02*
X118609457Y6093286D01*
X118609457Y6093286D02*
X118561838Y6045667D01*
X118561838Y6045667D02*
X118514219Y5950429D01*
X118514219Y5950429D02*
X118514219Y5759953D01*
X118514219Y5759953D02*
X118561838Y5664715D01*
X118561838Y5664715D02*
X118609457Y5617096D01*
X118609457Y5617096D02*
X118704695Y5569477D01*
X118704695Y5569477D02*
X118752314Y5569477D01*
X118752314Y5569477D02*
X118847552Y5617096D01*
X118847552Y5617096D02*
X118895171Y5664715D01*
X118895171Y5664715D02*
X118942790Y5759953D01*
X118942790Y5759953D02*
X118942790Y5950429D01*
X118942790Y5950429D02*
X118990409Y6045667D01*
X118990409Y6045667D02*
X119038028Y6093286D01*
X119038028Y6093286D02*
X119133266Y6140905D01*
X119133266Y6140905D02*
X119323742Y6140905D01*
X119323742Y6140905D02*
X119418980Y6093286D01*
X119418980Y6093286D02*
X119466600Y6045667D01*
X119466600Y6045667D02*
X119514219Y5950429D01*
X119514219Y5950429D02*
X119514219Y5759953D01*
X119514219Y5759953D02*
X119466600Y5664715D01*
X119466600Y5664715D02*
X119418980Y5617096D01*
X119418980Y5617096D02*
X119323742Y5569477D01*
X119323742Y5569477D02*
X119133266Y5569477D01*
X119133266Y5569477D02*
X119038028Y5617096D01*
X119038028Y5617096D02*
X118990409Y5664715D01*
X118990409Y5664715D02*
X118942790Y5759953D01*
X119514219Y5093286D02*
X119514219Y4902810D01*
X119514219Y4902810D02*
X119466600Y4807572D01*
X119466600Y4807572D02*
X119418980Y4759953D01*
X119418980Y4759953D02*
X119276123Y4664715D01*
X119276123Y4664715D02*
X119085647Y4617096D01*
X119085647Y4617096D02*
X118704695Y4617096D01*
X118704695Y4617096D02*
X118609457Y4664715D01*
X118609457Y4664715D02*
X118561838Y4712334D01*
X118561838Y4712334D02*
X118514219Y4807572D01*
X118514219Y4807572D02*
X118514219Y4998048D01*
X118514219Y4998048D02*
X118561838Y5093286D01*
X118561838Y5093286D02*
X118609457Y5140905D01*
X118609457Y5140905D02*
X118704695Y5188524D01*
X118704695Y5188524D02*
X118942790Y5188524D01*
X118942790Y5188524D02*
X119038028Y5140905D01*
X119038028Y5140905D02*
X119085647Y5093286D01*
X119085647Y5093286D02*
X119133266Y4998048D01*
X119133266Y4998048D02*
X119133266Y4807572D01*
X119133266Y4807572D02*
X119085647Y4712334D01*
X119085647Y4712334D02*
X119038028Y4664715D01*
X119038028Y4664715D02*
X118942790Y4617096D01*
X80042790Y20974238D02*
X79995171Y21069476D01*
X79995171Y21069476D02*
X79947552Y21117095D01*
X79947552Y21117095D02*
X79852314Y21164714D01*
X79852314Y21164714D02*
X79804695Y21164714D01*
X79804695Y21164714D02*
X79709457Y21117095D01*
X79709457Y21117095D02*
X79661838Y21069476D01*
X79661838Y21069476D02*
X79614219Y20974238D01*
X79614219Y20974238D02*
X79614219Y20783762D01*
X79614219Y20783762D02*
X79661838Y20688524D01*
X79661838Y20688524D02*
X79709457Y20640905D01*
X79709457Y20640905D02*
X79804695Y20593286D01*
X79804695Y20593286D02*
X79852314Y20593286D01*
X79852314Y20593286D02*
X79947552Y20640905D01*
X79947552Y20640905D02*
X79995171Y20688524D01*
X79995171Y20688524D02*
X80042790Y20783762D01*
X80042790Y20783762D02*
X80042790Y20974238D01*
X80042790Y20974238D02*
X80090409Y21069476D01*
X80090409Y21069476D02*
X80138028Y21117095D01*
X80138028Y21117095D02*
X80233266Y21164714D01*
X80233266Y21164714D02*
X80423742Y21164714D01*
X80423742Y21164714D02*
X80518980Y21117095D01*
X80518980Y21117095D02*
X80566600Y21069476D01*
X80566600Y21069476D02*
X80614219Y20974238D01*
X80614219Y20974238D02*
X80614219Y20783762D01*
X80614219Y20783762D02*
X80566600Y20688524D01*
X80566600Y20688524D02*
X80518980Y20640905D01*
X80518980Y20640905D02*
X80423742Y20593286D01*
X80423742Y20593286D02*
X80233266Y20593286D01*
X80233266Y20593286D02*
X80138028Y20640905D01*
X80138028Y20640905D02*
X80090409Y20688524D01*
X80090409Y20688524D02*
X80042790Y20783762D01*
X81409457Y15040905D02*
X81361838Y14993286D01*
X81361838Y14993286D02*
X81314219Y14898048D01*
X81314219Y14898048D02*
X81314219Y14659953D01*
X81314219Y14659953D02*
X81361838Y14564715D01*
X81361838Y14564715D02*
X81409457Y14517096D01*
X81409457Y14517096D02*
X81504695Y14469477D01*
X81504695Y14469477D02*
X81599933Y14469477D01*
X81599933Y14469477D02*
X81742790Y14517096D01*
X81742790Y14517096D02*
X82314219Y15088524D01*
X82314219Y15088524D02*
X82314219Y14469477D01*
X81314219Y13612334D02*
X81314219Y13802810D01*
X81314219Y13802810D02*
X81361838Y13898048D01*
X81361838Y13898048D02*
X81409457Y13945667D01*
X81409457Y13945667D02*
X81552314Y14040905D01*
X81552314Y14040905D02*
X81742790Y14088524D01*
X81742790Y14088524D02*
X82123742Y14088524D01*
X82123742Y14088524D02*
X82218980Y14040905D01*
X82218980Y14040905D02*
X82266600Y13993286D01*
X82266600Y13993286D02*
X82314219Y13898048D01*
X82314219Y13898048D02*
X82314219Y13707572D01*
X82314219Y13707572D02*
X82266600Y13612334D01*
X82266600Y13612334D02*
X82218980Y13564715D01*
X82218980Y13564715D02*
X82123742Y13517096D01*
X82123742Y13517096D02*
X81885647Y13517096D01*
X81885647Y13517096D02*
X81790409Y13564715D01*
X81790409Y13564715D02*
X81742790Y13612334D01*
X81742790Y13612334D02*
X81695171Y13707572D01*
X81695171Y13707572D02*
X81695171Y13898048D01*
X81695171Y13898048D02*
X81742790Y13993286D01*
X81742790Y13993286D02*
X81790409Y14040905D01*
X81790409Y14040905D02*
X81885647Y14088524D01*
X44214219Y6088524D02*
X44214219Y5421858D01*
X44214219Y5421858D02*
X45214219Y5850429D01*
X45214219Y4993286D02*
X45214219Y4802810D01*
X45214219Y4802810D02*
X45166600Y4707572D01*
X45166600Y4707572D02*
X45118980Y4659953D01*
X45118980Y4659953D02*
X44976123Y4564715D01*
X44976123Y4564715D02*
X44785647Y4517096D01*
X44785647Y4517096D02*
X44404695Y4517096D01*
X44404695Y4517096D02*
X44309457Y4564715D01*
X44309457Y4564715D02*
X44261838Y4612334D01*
X44261838Y4612334D02*
X44214219Y4707572D01*
X44214219Y4707572D02*
X44214219Y4898048D01*
X44214219Y4898048D02*
X44261838Y4993286D01*
X44261838Y4993286D02*
X44309457Y5040905D01*
X44309457Y5040905D02*
X44404695Y5088524D01*
X44404695Y5088524D02*
X44642790Y5088524D01*
X44642790Y5088524D02*
X44738028Y5040905D01*
X44738028Y5040905D02*
X44785647Y4993286D01*
X44785647Y4993286D02*
X44833266Y4898048D01*
X44833266Y4898048D02*
X44833266Y4707572D01*
X44833266Y4707572D02*
X44785647Y4612334D01*
X44785647Y4612334D02*
X44738028Y4564715D01*
X44738028Y4564715D02*
X44642790Y4517096D01*
X106814219Y12545667D02*
X106814219Y12355191D01*
X106814219Y12355191D02*
X106766600Y12259953D01*
X106766600Y12259953D02*
X106718980Y12212334D01*
X106718980Y12212334D02*
X106576123Y12117096D01*
X106576123Y12117096D02*
X106385647Y12069477D01*
X106385647Y12069477D02*
X106004695Y12069477D01*
X106004695Y12069477D02*
X105909457Y12117096D01*
X105909457Y12117096D02*
X105861838Y12164715D01*
X105861838Y12164715D02*
X105814219Y12259953D01*
X105814219Y12259953D02*
X105814219Y12450429D01*
X105814219Y12450429D02*
X105861838Y12545667D01*
X105861838Y12545667D02*
X105909457Y12593286D01*
X105909457Y12593286D02*
X106004695Y12640905D01*
X106004695Y12640905D02*
X106242790Y12640905D01*
X106242790Y12640905D02*
X106338028Y12593286D01*
X106338028Y12593286D02*
X106385647Y12545667D01*
X106385647Y12545667D02*
X106433266Y12450429D01*
X106433266Y12450429D02*
X106433266Y12259953D01*
X106433266Y12259953D02*
X106385647Y12164715D01*
X106385647Y12164715D02*
X106338028Y12117096D01*
X106338028Y12117096D02*
X106242790Y12069477D01*
X105909457Y11688524D02*
X105861838Y11640905D01*
X105861838Y11640905D02*
X105814219Y11545667D01*
X105814219Y11545667D02*
X105814219Y11307572D01*
X105814219Y11307572D02*
X105861838Y11212334D01*
X105861838Y11212334D02*
X105909457Y11164715D01*
X105909457Y11164715D02*
X106004695Y11117096D01*
X106004695Y11117096D02*
X106099933Y11117096D01*
X106099933Y11117096D02*
X106242790Y11164715D01*
X106242790Y11164715D02*
X106814219Y11736143D01*
X106814219Y11736143D02*
X106814219Y11117096D01*
X56714219Y12317096D02*
X56714219Y12793286D01*
X56714219Y12793286D02*
X57190409Y12840905D01*
X57190409Y12840905D02*
X57142790Y12793286D01*
X57142790Y12793286D02*
X57095171Y12698048D01*
X57095171Y12698048D02*
X57095171Y12459953D01*
X57095171Y12459953D02*
X57142790Y12364715D01*
X57142790Y12364715D02*
X57190409Y12317096D01*
X57190409Y12317096D02*
X57285647Y12269477D01*
X57285647Y12269477D02*
X57523742Y12269477D01*
X57523742Y12269477D02*
X57618980Y12317096D01*
X57618980Y12317096D02*
X57666600Y12364715D01*
X57666600Y12364715D02*
X57714219Y12459953D01*
X57714219Y12459953D02*
X57714219Y12698048D01*
X57714219Y12698048D02*
X57666600Y12793286D01*
X57666600Y12793286D02*
X57618980Y12840905D01*
X56714219Y11364715D02*
X56714219Y11840905D01*
X56714219Y11840905D02*
X57190409Y11888524D01*
X57190409Y11888524D02*
X57142790Y11840905D01*
X57142790Y11840905D02*
X57095171Y11745667D01*
X57095171Y11745667D02*
X57095171Y11507572D01*
X57095171Y11507572D02*
X57142790Y11412334D01*
X57142790Y11412334D02*
X57190409Y11364715D01*
X57190409Y11364715D02*
X57285647Y11317096D01*
X57285647Y11317096D02*
X57523742Y11317096D01*
X57523742Y11317096D02*
X57618980Y11364715D01*
X57618980Y11364715D02*
X57666600Y11412334D01*
X57666600Y11412334D02*
X57714219Y11507572D01*
X57714219Y11507572D02*
X57714219Y11745667D01*
X57714219Y11745667D02*
X57666600Y11840905D01*
X57666600Y11840905D02*
X57618980Y11888524D01*
X71214219Y15088524D02*
X71214219Y14469477D01*
X71214219Y14469477D02*
X71595171Y14802810D01*
X71595171Y14802810D02*
X71595171Y14659953D01*
X71595171Y14659953D02*
X71642790Y14564715D01*
X71642790Y14564715D02*
X71690409Y14517096D01*
X71690409Y14517096D02*
X71785647Y14469477D01*
X71785647Y14469477D02*
X72023742Y14469477D01*
X72023742Y14469477D02*
X72118980Y14517096D01*
X72118980Y14517096D02*
X72166600Y14564715D01*
X72166600Y14564715D02*
X72214219Y14659953D01*
X72214219Y14659953D02*
X72214219Y14945667D01*
X72214219Y14945667D02*
X72166600Y15040905D01*
X72166600Y15040905D02*
X72118980Y15088524D01*
X71214219Y13850429D02*
X71214219Y13755191D01*
X71214219Y13755191D02*
X71261838Y13659953D01*
X71261838Y13659953D02*
X71309457Y13612334D01*
X71309457Y13612334D02*
X71404695Y13564715D01*
X71404695Y13564715D02*
X71595171Y13517096D01*
X71595171Y13517096D02*
X71833266Y13517096D01*
X71833266Y13517096D02*
X72023742Y13564715D01*
X72023742Y13564715D02*
X72118980Y13612334D01*
X72118980Y13612334D02*
X72166600Y13659953D01*
X72166600Y13659953D02*
X72214219Y13755191D01*
X72214219Y13755191D02*
X72214219Y13850429D01*
X72214219Y13850429D02*
X72166600Y13945667D01*
X72166600Y13945667D02*
X72118980Y13993286D01*
X72118980Y13993286D02*
X72023742Y14040905D01*
X72023742Y14040905D02*
X71833266Y14088524D01*
X71833266Y14088524D02*
X71595171Y14088524D01*
X71595171Y14088524D02*
X71404695Y14040905D01*
X71404695Y14040905D02*
X71309457Y13993286D01*
X71309457Y13993286D02*
X71261838Y13945667D01*
X71261838Y13945667D02*
X71214219Y13850429D01*
X48414219Y14988524D02*
X48414219Y14369477D01*
X48414219Y14369477D02*
X48795171Y14702810D01*
X48795171Y14702810D02*
X48795171Y14559953D01*
X48795171Y14559953D02*
X48842790Y14464715D01*
X48842790Y14464715D02*
X48890409Y14417096D01*
X48890409Y14417096D02*
X48985647Y14369477D01*
X48985647Y14369477D02*
X49223742Y14369477D01*
X49223742Y14369477D02*
X49318980Y14417096D01*
X49318980Y14417096D02*
X49366600Y14464715D01*
X49366600Y14464715D02*
X49414219Y14559953D01*
X49414219Y14559953D02*
X49414219Y14845667D01*
X49414219Y14845667D02*
X49366600Y14940905D01*
X49366600Y14940905D02*
X49318980Y14988524D01*
X49414219Y13893286D02*
X49414219Y13702810D01*
X49414219Y13702810D02*
X49366600Y13607572D01*
X49366600Y13607572D02*
X49318980Y13559953D01*
X49318980Y13559953D02*
X49176123Y13464715D01*
X49176123Y13464715D02*
X48985647Y13417096D01*
X48985647Y13417096D02*
X48604695Y13417096D01*
X48604695Y13417096D02*
X48509457Y13464715D01*
X48509457Y13464715D02*
X48461838Y13512334D01*
X48461838Y13512334D02*
X48414219Y13607572D01*
X48414219Y13607572D02*
X48414219Y13798048D01*
X48414219Y13798048D02*
X48461838Y13893286D01*
X48461838Y13893286D02*
X48509457Y13940905D01*
X48509457Y13940905D02*
X48604695Y13988524D01*
X48604695Y13988524D02*
X48842790Y13988524D01*
X48842790Y13988524D02*
X48938028Y13940905D01*
X48938028Y13940905D02*
X48985647Y13893286D01*
X48985647Y13893286D02*
X49033266Y13798048D01*
X49033266Y13798048D02*
X49033266Y13607572D01*
X49033266Y13607572D02*
X48985647Y13512334D01*
X48985647Y13512334D02*
X48938028Y13464715D01*
X48938028Y13464715D02*
X48842790Y13417096D01*
X51814219Y12217096D02*
X51814219Y12693286D01*
X51814219Y12693286D02*
X52290409Y12740905D01*
X52290409Y12740905D02*
X52242790Y12693286D01*
X52242790Y12693286D02*
X52195171Y12598048D01*
X52195171Y12598048D02*
X52195171Y12359953D01*
X52195171Y12359953D02*
X52242790Y12264715D01*
X52242790Y12264715D02*
X52290409Y12217096D01*
X52290409Y12217096D02*
X52385647Y12169477D01*
X52385647Y12169477D02*
X52623742Y12169477D01*
X52623742Y12169477D02*
X52718980Y12217096D01*
X52718980Y12217096D02*
X52766600Y12264715D01*
X52766600Y12264715D02*
X52814219Y12359953D01*
X52814219Y12359953D02*
X52814219Y12598048D01*
X52814219Y12598048D02*
X52766600Y12693286D01*
X52766600Y12693286D02*
X52718980Y12740905D01*
X51814219Y11836143D02*
X51814219Y11169477D01*
X51814219Y11169477D02*
X52814219Y11598048D01*
X67814219Y21069477D02*
X67814219Y21640905D01*
X67814219Y21355191D02*
X66814219Y21355191D01*
X66814219Y21355191D02*
X66957076Y21450429D01*
X66957076Y21450429D02*
X67052314Y21545667D01*
X67052314Y21545667D02*
X67099933Y21640905D01*
X66814219Y20736143D02*
X66814219Y20117096D01*
X66814219Y20117096D02*
X67195171Y20450429D01*
X67195171Y20450429D02*
X67195171Y20307572D01*
X67195171Y20307572D02*
X67242790Y20212334D01*
X67242790Y20212334D02*
X67290409Y20164715D01*
X67290409Y20164715D02*
X67385647Y20117096D01*
X67385647Y20117096D02*
X67623742Y20117096D01*
X67623742Y20117096D02*
X67718980Y20164715D01*
X67718980Y20164715D02*
X67766600Y20212334D01*
X67766600Y20212334D02*
X67814219Y20307572D01*
X67814219Y20307572D02*
X67814219Y20593286D01*
X67814219Y20593286D02*
X67766600Y20688524D01*
X67766600Y20688524D02*
X67718980Y20736143D01*
X101242790Y5850429D02*
X101195171Y5945667D01*
X101195171Y5945667D02*
X101147552Y5993286D01*
X101147552Y5993286D02*
X101052314Y6040905D01*
X101052314Y6040905D02*
X101004695Y6040905D01*
X101004695Y6040905D02*
X100909457Y5993286D01*
X100909457Y5993286D02*
X100861838Y5945667D01*
X100861838Y5945667D02*
X100814219Y5850429D01*
X100814219Y5850429D02*
X100814219Y5659953D01*
X100814219Y5659953D02*
X100861838Y5564715D01*
X100861838Y5564715D02*
X100909457Y5517096D01*
X100909457Y5517096D02*
X101004695Y5469477D01*
X101004695Y5469477D02*
X101052314Y5469477D01*
X101052314Y5469477D02*
X101147552Y5517096D01*
X101147552Y5517096D02*
X101195171Y5564715D01*
X101195171Y5564715D02*
X101242790Y5659953D01*
X101242790Y5659953D02*
X101242790Y5850429D01*
X101242790Y5850429D02*
X101290409Y5945667D01*
X101290409Y5945667D02*
X101338028Y5993286D01*
X101338028Y5993286D02*
X101433266Y6040905D01*
X101433266Y6040905D02*
X101623742Y6040905D01*
X101623742Y6040905D02*
X101718980Y5993286D01*
X101718980Y5993286D02*
X101766600Y5945667D01*
X101766600Y5945667D02*
X101814219Y5850429D01*
X101814219Y5850429D02*
X101814219Y5659953D01*
X101814219Y5659953D02*
X101766600Y5564715D01*
X101766600Y5564715D02*
X101718980Y5517096D01*
X101718980Y5517096D02*
X101623742Y5469477D01*
X101623742Y5469477D02*
X101433266Y5469477D01*
X101433266Y5469477D02*
X101338028Y5517096D01*
X101338028Y5517096D02*
X101290409Y5564715D01*
X101290409Y5564715D02*
X101242790Y5659953D01*
X100909457Y5088524D02*
X100861838Y5040905D01*
X100861838Y5040905D02*
X100814219Y4945667D01*
X100814219Y4945667D02*
X100814219Y4707572D01*
X100814219Y4707572D02*
X100861838Y4612334D01*
X100861838Y4612334D02*
X100909457Y4564715D01*
X100909457Y4564715D02*
X101004695Y4517096D01*
X101004695Y4517096D02*
X101099933Y4517096D01*
X101099933Y4517096D02*
X101242790Y4564715D01*
X101242790Y4564715D02*
X101814219Y5136143D01*
X101814219Y5136143D02*
X101814219Y4517096D01*
X49309457Y21540905D02*
X49261838Y21493286D01*
X49261838Y21493286D02*
X49214219Y21398048D01*
X49214219Y21398048D02*
X49214219Y21159953D01*
X49214219Y21159953D02*
X49261838Y21064715D01*
X49261838Y21064715D02*
X49309457Y21017096D01*
X49309457Y21017096D02*
X49404695Y20969477D01*
X49404695Y20969477D02*
X49499933Y20969477D01*
X49499933Y20969477D02*
X49642790Y21017096D01*
X49642790Y21017096D02*
X50214219Y21588524D01*
X50214219Y21588524D02*
X50214219Y20969477D01*
X49214219Y20350429D02*
X49214219Y20255191D01*
X49214219Y20255191D02*
X49261838Y20159953D01*
X49261838Y20159953D02*
X49309457Y20112334D01*
X49309457Y20112334D02*
X49404695Y20064715D01*
X49404695Y20064715D02*
X49595171Y20017096D01*
X49595171Y20017096D02*
X49833266Y20017096D01*
X49833266Y20017096D02*
X50023742Y20064715D01*
X50023742Y20064715D02*
X50118980Y20112334D01*
X50118980Y20112334D02*
X50166600Y20159953D01*
X50166600Y20159953D02*
X50214219Y20255191D01*
X50214219Y20255191D02*
X50214219Y20350429D01*
X50214219Y20350429D02*
X50166600Y20445667D01*
X50166600Y20445667D02*
X50118980Y20493286D01*
X50118980Y20493286D02*
X50023742Y20540905D01*
X50023742Y20540905D02*
X49833266Y20588524D01*
X49833266Y20588524D02*
X49595171Y20588524D01*
X49595171Y20588524D02*
X49404695Y20540905D01*
X49404695Y20540905D02*
X49309457Y20493286D01*
X49309457Y20493286D02*
X49261838Y20445667D01*
X49261838Y20445667D02*
X49214219Y20350429D01*
X108942790Y5850429D02*
X108895171Y5945667D01*
X108895171Y5945667D02*
X108847552Y5993286D01*
X108847552Y5993286D02*
X108752314Y6040905D01*
X108752314Y6040905D02*
X108704695Y6040905D01*
X108704695Y6040905D02*
X108609457Y5993286D01*
X108609457Y5993286D02*
X108561838Y5945667D01*
X108561838Y5945667D02*
X108514219Y5850429D01*
X108514219Y5850429D02*
X108514219Y5659953D01*
X108514219Y5659953D02*
X108561838Y5564715D01*
X108561838Y5564715D02*
X108609457Y5517096D01*
X108609457Y5517096D02*
X108704695Y5469477D01*
X108704695Y5469477D02*
X108752314Y5469477D01*
X108752314Y5469477D02*
X108847552Y5517096D01*
X108847552Y5517096D02*
X108895171Y5564715D01*
X108895171Y5564715D02*
X108942790Y5659953D01*
X108942790Y5659953D02*
X108942790Y5850429D01*
X108942790Y5850429D02*
X108990409Y5945667D01*
X108990409Y5945667D02*
X109038028Y5993286D01*
X109038028Y5993286D02*
X109133266Y6040905D01*
X109133266Y6040905D02*
X109323742Y6040905D01*
X109323742Y6040905D02*
X109418980Y5993286D01*
X109418980Y5993286D02*
X109466600Y5945667D01*
X109466600Y5945667D02*
X109514219Y5850429D01*
X109514219Y5850429D02*
X109514219Y5659953D01*
X109514219Y5659953D02*
X109466600Y5564715D01*
X109466600Y5564715D02*
X109418980Y5517096D01*
X109418980Y5517096D02*
X109323742Y5469477D01*
X109323742Y5469477D02*
X109133266Y5469477D01*
X109133266Y5469477D02*
X109038028Y5517096D01*
X109038028Y5517096D02*
X108990409Y5564715D01*
X108990409Y5564715D02*
X108942790Y5659953D01*
X108514219Y4564715D02*
X108514219Y5040905D01*
X108514219Y5040905D02*
X108990409Y5088524D01*
X108990409Y5088524D02*
X108942790Y5040905D01*
X108942790Y5040905D02*
X108895171Y4945667D01*
X108895171Y4945667D02*
X108895171Y4707572D01*
X108895171Y4707572D02*
X108942790Y4612334D01*
X108942790Y4612334D02*
X108990409Y4564715D01*
X108990409Y4564715D02*
X109085647Y4517096D01*
X109085647Y4517096D02*
X109323742Y4517096D01*
X109323742Y4517096D02*
X109418980Y4564715D01*
X109418980Y4564715D02*
X109466600Y4612334D01*
X109466600Y4612334D02*
X109514219Y4707572D01*
X109514219Y4707572D02*
X109514219Y4945667D01*
X109514219Y4945667D02*
X109466600Y5040905D01*
X109466600Y5040905D02*
X109418980Y5088524D01*
X116882219Y21906667D02*
X116882219Y22478095D01*
X116882219Y22192381D02*
X115882219Y22192381D01*
X115882219Y22192381D02*
X116025076Y22287619D01*
X116025076Y22287619D02*
X116120314Y22382857D01*
X116120314Y22382857D02*
X116167933Y22478095D01*
X116882219Y20954286D02*
X116882219Y21525714D01*
X116882219Y21240000D02*
X115882219Y21240000D01*
X115882219Y21240000D02*
X116025076Y21335238D01*
X116025076Y21335238D02*
X116120314Y21430476D01*
X116120314Y21430476D02*
X116167933Y21525714D01*
X115977457Y20573333D02*
X115929838Y20525714D01*
X115929838Y20525714D02*
X115882219Y20430476D01*
X115882219Y20430476D02*
X115882219Y20192381D01*
X115882219Y20192381D02*
X115929838Y20097143D01*
X115929838Y20097143D02*
X115977457Y20049524D01*
X115977457Y20049524D02*
X116072695Y20001905D01*
X116072695Y20001905D02*
X116167933Y20001905D01*
X116167933Y20001905D02*
X116310790Y20049524D01*
X116310790Y20049524D02*
X116882219Y20620952D01*
X116882219Y20620952D02*
X116882219Y20001905D01*
X73014219Y21069477D02*
X73014219Y21640905D01*
X73014219Y21355191D02*
X72014219Y21355191D01*
X72014219Y21355191D02*
X72157076Y21450429D01*
X72157076Y21450429D02*
X72252314Y21545667D01*
X72252314Y21545667D02*
X72299933Y21640905D01*
X73014219Y20117096D02*
X73014219Y20688524D01*
X73014219Y20402810D02*
X72014219Y20402810D01*
X72014219Y20402810D02*
X72157076Y20498048D01*
X72157076Y20498048D02*
X72252314Y20593286D01*
X72252314Y20593286D02*
X72299933Y20688524D01*
X77447552Y12364715D02*
X78114219Y12364715D01*
X77066600Y12602810D02*
X77780885Y12840905D01*
X77780885Y12840905D02*
X77780885Y12221858D01*
X77114219Y11936143D02*
X77114219Y11269477D01*
X77114219Y11269477D02*
X78114219Y11698048D01*
X78909457Y15040905D02*
X78861838Y14993286D01*
X78861838Y14993286D02*
X78814219Y14898048D01*
X78814219Y14898048D02*
X78814219Y14659953D01*
X78814219Y14659953D02*
X78861838Y14564715D01*
X78861838Y14564715D02*
X78909457Y14517096D01*
X78909457Y14517096D02*
X79004695Y14469477D01*
X79004695Y14469477D02*
X79099933Y14469477D01*
X79099933Y14469477D02*
X79242790Y14517096D01*
X79242790Y14517096D02*
X79814219Y15088524D01*
X79814219Y15088524D02*
X79814219Y14469477D01*
X78814219Y14136143D02*
X78814219Y13469477D01*
X78814219Y13469477D02*
X79814219Y13898048D01*
X69522219Y5625715D02*
X69522219Y5816191D01*
X69522219Y5816191D02*
X69569838Y5911429D01*
X69569838Y5911429D02*
X69617457Y5959048D01*
X69617457Y5959048D02*
X69760314Y6054286D01*
X69760314Y6054286D02*
X69950790Y6101905D01*
X69950790Y6101905D02*
X70331742Y6101905D01*
X70331742Y6101905D02*
X70426980Y6054286D01*
X70426980Y6054286D02*
X70474600Y6006667D01*
X70474600Y6006667D02*
X70522219Y5911429D01*
X70522219Y5911429D02*
X70522219Y5720953D01*
X70522219Y5720953D02*
X70474600Y5625715D01*
X70474600Y5625715D02*
X70426980Y5578096D01*
X70426980Y5578096D02*
X70331742Y5530477D01*
X70331742Y5530477D02*
X70093647Y5530477D01*
X70093647Y5530477D02*
X69998409Y5578096D01*
X69998409Y5578096D02*
X69950790Y5625715D01*
X69950790Y5625715D02*
X69903171Y5720953D01*
X69903171Y5720953D02*
X69903171Y5911429D01*
X69903171Y5911429D02*
X69950790Y6006667D01*
X69950790Y6006667D02*
X69998409Y6054286D01*
X69998409Y6054286D02*
X70093647Y6101905D01*
X70522219Y5054286D02*
X70522219Y4863810D01*
X70522219Y4863810D02*
X70474600Y4768572D01*
X70474600Y4768572D02*
X70426980Y4720953D01*
X70426980Y4720953D02*
X70284123Y4625715D01*
X70284123Y4625715D02*
X70093647Y4578096D01*
X70093647Y4578096D02*
X69712695Y4578096D01*
X69712695Y4578096D02*
X69617457Y4625715D01*
X69617457Y4625715D02*
X69569838Y4673334D01*
X69569838Y4673334D02*
X69522219Y4768572D01*
X69522219Y4768572D02*
X69522219Y4959048D01*
X69522219Y4959048D02*
X69569838Y5054286D01*
X69569838Y5054286D02*
X69617457Y5101905D01*
X69617457Y5101905D02*
X69712695Y5149524D01*
X69712695Y5149524D02*
X69950790Y5149524D01*
X69950790Y5149524D02*
X70046028Y5101905D01*
X70046028Y5101905D02*
X70093647Y5054286D01*
X70093647Y5054286D02*
X70141266Y4959048D01*
X70141266Y4959048D02*
X70141266Y4768572D01*
X70141266Y4768572D02*
X70093647Y4673334D01*
X70093647Y4673334D02*
X70046028Y4625715D01*
X70046028Y4625715D02*
X69950790Y4578096D01*
X58514219Y15088524D02*
X58514219Y14469477D01*
X58514219Y14469477D02*
X58895171Y14802810D01*
X58895171Y14802810D02*
X58895171Y14659953D01*
X58895171Y14659953D02*
X58942790Y14564715D01*
X58942790Y14564715D02*
X58990409Y14517096D01*
X58990409Y14517096D02*
X59085647Y14469477D01*
X59085647Y14469477D02*
X59323742Y14469477D01*
X59323742Y14469477D02*
X59418980Y14517096D01*
X59418980Y14517096D02*
X59466600Y14564715D01*
X59466600Y14564715D02*
X59514219Y14659953D01*
X59514219Y14659953D02*
X59514219Y14945667D01*
X59514219Y14945667D02*
X59466600Y15040905D01*
X59466600Y15040905D02*
X59418980Y15088524D01*
X58514219Y13564715D02*
X58514219Y14040905D01*
X58514219Y14040905D02*
X58990409Y14088524D01*
X58990409Y14088524D02*
X58942790Y14040905D01*
X58942790Y14040905D02*
X58895171Y13945667D01*
X58895171Y13945667D02*
X58895171Y13707572D01*
X58895171Y13707572D02*
X58942790Y13612334D01*
X58942790Y13612334D02*
X58990409Y13564715D01*
X58990409Y13564715D02*
X59085647Y13517096D01*
X59085647Y13517096D02*
X59323742Y13517096D01*
X59323742Y13517096D02*
X59418980Y13564715D01*
X59418980Y13564715D02*
X59466600Y13612334D01*
X59466600Y13612334D02*
X59514219Y13707572D01*
X59514219Y13707572D02*
X59514219Y13945667D01*
X59514219Y13945667D02*
X59466600Y14040905D01*
X59466600Y14040905D02*
X59418980Y14088524D01*
X64414219Y12317096D02*
X64414219Y12793286D01*
X64414219Y12793286D02*
X64890409Y12840905D01*
X64890409Y12840905D02*
X64842790Y12793286D01*
X64842790Y12793286D02*
X64795171Y12698048D01*
X64795171Y12698048D02*
X64795171Y12459953D01*
X64795171Y12459953D02*
X64842790Y12364715D01*
X64842790Y12364715D02*
X64890409Y12317096D01*
X64890409Y12317096D02*
X64985647Y12269477D01*
X64985647Y12269477D02*
X65223742Y12269477D01*
X65223742Y12269477D02*
X65318980Y12317096D01*
X65318980Y12317096D02*
X65366600Y12364715D01*
X65366600Y12364715D02*
X65414219Y12459953D01*
X65414219Y12459953D02*
X65414219Y12698048D01*
X65414219Y12698048D02*
X65366600Y12793286D01*
X65366600Y12793286D02*
X65318980Y12840905D01*
X64509457Y11888524D02*
X64461838Y11840905D01*
X64461838Y11840905D02*
X64414219Y11745667D01*
X64414219Y11745667D02*
X64414219Y11507572D01*
X64414219Y11507572D02*
X64461838Y11412334D01*
X64461838Y11412334D02*
X64509457Y11364715D01*
X64509457Y11364715D02*
X64604695Y11317096D01*
X64604695Y11317096D02*
X64699933Y11317096D01*
X64699933Y11317096D02*
X64842790Y11364715D01*
X64842790Y11364715D02*
X65414219Y11936143D01*
X65414219Y11936143D02*
X65414219Y11317096D01*
X44114219Y12264715D02*
X44114219Y12455191D01*
X44114219Y12455191D02*
X44161838Y12550429D01*
X44161838Y12550429D02*
X44209457Y12598048D01*
X44209457Y12598048D02*
X44352314Y12693286D01*
X44352314Y12693286D02*
X44542790Y12740905D01*
X44542790Y12740905D02*
X44923742Y12740905D01*
X44923742Y12740905D02*
X45018980Y12693286D01*
X45018980Y12693286D02*
X45066600Y12645667D01*
X45066600Y12645667D02*
X45114219Y12550429D01*
X45114219Y12550429D02*
X45114219Y12359953D01*
X45114219Y12359953D02*
X45066600Y12264715D01*
X45066600Y12264715D02*
X45018980Y12217096D01*
X45018980Y12217096D02*
X44923742Y12169477D01*
X44923742Y12169477D02*
X44685647Y12169477D01*
X44685647Y12169477D02*
X44590409Y12217096D01*
X44590409Y12217096D02*
X44542790Y12264715D01*
X44542790Y12264715D02*
X44495171Y12359953D01*
X44495171Y12359953D02*
X44495171Y12550429D01*
X44495171Y12550429D02*
X44542790Y12645667D01*
X44542790Y12645667D02*
X44590409Y12693286D01*
X44590409Y12693286D02*
X44685647Y12740905D01*
X44114219Y11550429D02*
X44114219Y11455191D01*
X44114219Y11455191D02*
X44161838Y11359953D01*
X44161838Y11359953D02*
X44209457Y11312334D01*
X44209457Y11312334D02*
X44304695Y11264715D01*
X44304695Y11264715D02*
X44495171Y11217096D01*
X44495171Y11217096D02*
X44733266Y11217096D01*
X44733266Y11217096D02*
X44923742Y11264715D01*
X44923742Y11264715D02*
X45018980Y11312334D01*
X45018980Y11312334D02*
X45066600Y11359953D01*
X45066600Y11359953D02*
X45114219Y11455191D01*
X45114219Y11455191D02*
X45114219Y11550429D01*
X45114219Y11550429D02*
X45066600Y11645667D01*
X45066600Y11645667D02*
X45018980Y11693286D01*
X45018980Y11693286D02*
X44923742Y11740905D01*
X44923742Y11740905D02*
X44733266Y11788524D01*
X44733266Y11788524D02*
X44495171Y11788524D01*
X44495171Y11788524D02*
X44304695Y11740905D01*
X44304695Y11740905D02*
X44209457Y11693286D01*
X44209457Y11693286D02*
X44161838Y11645667D01*
X44161838Y11645667D02*
X44114219Y11550429D01*
X49414219Y6088524D02*
X49414219Y5421858D01*
X49414219Y5421858D02*
X50414219Y5850429D01*
X49414219Y5136143D02*
X49414219Y4469477D01*
X49414219Y4469477D02*
X50414219Y4898048D01*
X61914219Y6188524D02*
X61914219Y5521858D01*
X61914219Y5521858D02*
X62914219Y5950429D01*
X62009457Y5188524D02*
X61961838Y5140905D01*
X61961838Y5140905D02*
X61914219Y5045667D01*
X61914219Y5045667D02*
X61914219Y4807572D01*
X61914219Y4807572D02*
X61961838Y4712334D01*
X61961838Y4712334D02*
X62009457Y4664715D01*
X62009457Y4664715D02*
X62104695Y4617096D01*
X62104695Y4617096D02*
X62199933Y4617096D01*
X62199933Y4617096D02*
X62342790Y4664715D01*
X62342790Y4664715D02*
X62914219Y5236143D01*
X62914219Y5236143D02*
X62914219Y4617096D01*
X46147552Y14464715D02*
X46814219Y14464715D01*
X45766600Y14702810D02*
X46480885Y14940905D01*
X46480885Y14940905D02*
X46480885Y14321858D01*
X45814219Y13750429D02*
X45814219Y13655191D01*
X45814219Y13655191D02*
X45861838Y13559953D01*
X45861838Y13559953D02*
X45909457Y13512334D01*
X45909457Y13512334D02*
X46004695Y13464715D01*
X46004695Y13464715D02*
X46195171Y13417096D01*
X46195171Y13417096D02*
X46433266Y13417096D01*
X46433266Y13417096D02*
X46623742Y13464715D01*
X46623742Y13464715D02*
X46718980Y13512334D01*
X46718980Y13512334D02*
X46766600Y13559953D01*
X46766600Y13559953D02*
X46814219Y13655191D01*
X46814219Y13655191D02*
X46814219Y13750429D01*
X46814219Y13750429D02*
X46766600Y13845667D01*
X46766600Y13845667D02*
X46718980Y13893286D01*
X46718980Y13893286D02*
X46623742Y13940905D01*
X46623742Y13940905D02*
X46433266Y13988524D01*
X46433266Y13988524D02*
X46195171Y13988524D01*
X46195171Y13988524D02*
X46004695Y13940905D01*
X46004695Y13940905D02*
X45909457Y13893286D01*
X45909457Y13893286D02*
X45861838Y13845667D01*
X45861838Y13845667D02*
X45814219Y13750429D01*
X83909457Y15040905D02*
X83861838Y14993286D01*
X83861838Y14993286D02*
X83814219Y14898048D01*
X83814219Y14898048D02*
X83814219Y14659953D01*
X83814219Y14659953D02*
X83861838Y14564715D01*
X83861838Y14564715D02*
X83909457Y14517096D01*
X83909457Y14517096D02*
X84004695Y14469477D01*
X84004695Y14469477D02*
X84099933Y14469477D01*
X84099933Y14469477D02*
X84242790Y14517096D01*
X84242790Y14517096D02*
X84814219Y15088524D01*
X84814219Y15088524D02*
X84814219Y14469477D01*
X83814219Y13564715D02*
X83814219Y14040905D01*
X83814219Y14040905D02*
X84290409Y14088524D01*
X84290409Y14088524D02*
X84242790Y14040905D01*
X84242790Y14040905D02*
X84195171Y13945667D01*
X84195171Y13945667D02*
X84195171Y13707572D01*
X84195171Y13707572D02*
X84242790Y13612334D01*
X84242790Y13612334D02*
X84290409Y13564715D01*
X84290409Y13564715D02*
X84385647Y13517096D01*
X84385647Y13517096D02*
X84623742Y13517096D01*
X84623742Y13517096D02*
X84718980Y13564715D01*
X84718980Y13564715D02*
X84766600Y13612334D01*
X84766600Y13612334D02*
X84814219Y13707572D01*
X84814219Y13707572D02*
X84814219Y13945667D01*
X84814219Y13945667D02*
X84766600Y14040905D01*
X84766600Y14040905D02*
X84718980Y14088524D01*
X79814219Y5664715D02*
X79814219Y5855191D01*
X79814219Y5855191D02*
X79861838Y5950429D01*
X79861838Y5950429D02*
X79909457Y5998048D01*
X79909457Y5998048D02*
X80052314Y6093286D01*
X80052314Y6093286D02*
X80242790Y6140905D01*
X80242790Y6140905D02*
X80623742Y6140905D01*
X80623742Y6140905D02*
X80718980Y6093286D01*
X80718980Y6093286D02*
X80766600Y6045667D01*
X80766600Y6045667D02*
X80814219Y5950429D01*
X80814219Y5950429D02*
X80814219Y5759953D01*
X80814219Y5759953D02*
X80766600Y5664715D01*
X80766600Y5664715D02*
X80718980Y5617096D01*
X80718980Y5617096D02*
X80623742Y5569477D01*
X80623742Y5569477D02*
X80385647Y5569477D01*
X80385647Y5569477D02*
X80290409Y5617096D01*
X80290409Y5617096D02*
X80242790Y5664715D01*
X80242790Y5664715D02*
X80195171Y5759953D01*
X80195171Y5759953D02*
X80195171Y5950429D01*
X80195171Y5950429D02*
X80242790Y6045667D01*
X80242790Y6045667D02*
X80290409Y6093286D01*
X80290409Y6093286D02*
X80385647Y6140905D01*
X79814219Y4664715D02*
X79814219Y5140905D01*
X79814219Y5140905D02*
X80290409Y5188524D01*
X80290409Y5188524D02*
X80242790Y5140905D01*
X80242790Y5140905D02*
X80195171Y5045667D01*
X80195171Y5045667D02*
X80195171Y4807572D01*
X80195171Y4807572D02*
X80242790Y4712334D01*
X80242790Y4712334D02*
X80290409Y4664715D01*
X80290409Y4664715D02*
X80385647Y4617096D01*
X80385647Y4617096D02*
X80623742Y4617096D01*
X80623742Y4617096D02*
X80718980Y4664715D01*
X80718980Y4664715D02*
X80766600Y4712334D01*
X80766600Y4712334D02*
X80814219Y4807572D01*
X80814219Y4807572D02*
X80814219Y5045667D01*
X80814219Y5045667D02*
X80766600Y5140905D01*
X80766600Y5140905D02*
X80718980Y5188524D01*
X70322219Y21030477D02*
X70322219Y21601905D01*
X70322219Y21316191D02*
X69322219Y21316191D01*
X69322219Y21316191D02*
X69465076Y21411429D01*
X69465076Y21411429D02*
X69560314Y21506667D01*
X69560314Y21506667D02*
X69607933Y21601905D01*
X69417457Y20649524D02*
X69369838Y20601905D01*
X69369838Y20601905D02*
X69322219Y20506667D01*
X69322219Y20506667D02*
X69322219Y20268572D01*
X69322219Y20268572D02*
X69369838Y20173334D01*
X69369838Y20173334D02*
X69417457Y20125715D01*
X69417457Y20125715D02*
X69512695Y20078096D01*
X69512695Y20078096D02*
X69607933Y20078096D01*
X69607933Y20078096D02*
X69750790Y20125715D01*
X69750790Y20125715D02*
X70322219Y20697143D01*
X70322219Y20697143D02*
X70322219Y20078096D01*
X84814219Y5664715D02*
X84814219Y5855191D01*
X84814219Y5855191D02*
X84861838Y5950429D01*
X84861838Y5950429D02*
X84909457Y5998048D01*
X84909457Y5998048D02*
X85052314Y6093286D01*
X85052314Y6093286D02*
X85242790Y6140905D01*
X85242790Y6140905D02*
X85623742Y6140905D01*
X85623742Y6140905D02*
X85718980Y6093286D01*
X85718980Y6093286D02*
X85766600Y6045667D01*
X85766600Y6045667D02*
X85814219Y5950429D01*
X85814219Y5950429D02*
X85814219Y5759953D01*
X85814219Y5759953D02*
X85766600Y5664715D01*
X85766600Y5664715D02*
X85718980Y5617096D01*
X85718980Y5617096D02*
X85623742Y5569477D01*
X85623742Y5569477D02*
X85385647Y5569477D01*
X85385647Y5569477D02*
X85290409Y5617096D01*
X85290409Y5617096D02*
X85242790Y5664715D01*
X85242790Y5664715D02*
X85195171Y5759953D01*
X85195171Y5759953D02*
X85195171Y5950429D01*
X85195171Y5950429D02*
X85242790Y6045667D01*
X85242790Y6045667D02*
X85290409Y6093286D01*
X85290409Y6093286D02*
X85385647Y6140905D01*
X84814219Y5236143D02*
X84814219Y4617096D01*
X84814219Y4617096D02*
X85195171Y4950429D01*
X85195171Y4950429D02*
X85195171Y4807572D01*
X85195171Y4807572D02*
X85242790Y4712334D01*
X85242790Y4712334D02*
X85290409Y4664715D01*
X85290409Y4664715D02*
X85385647Y4617096D01*
X85385647Y4617096D02*
X85623742Y4617096D01*
X85623742Y4617096D02*
X85718980Y4664715D01*
X85718980Y4664715D02*
X85766600Y4712334D01*
X85766600Y4712334D02*
X85814219Y4807572D01*
X85814219Y4807572D02*
X85814219Y5093286D01*
X85814219Y5093286D02*
X85766600Y5188524D01*
X85766600Y5188524D02*
X85718980Y5236143D01*
X56814219Y6188524D02*
X56814219Y5521858D01*
X56814219Y5521858D02*
X57814219Y5950429D01*
X57147552Y4712334D02*
X57814219Y4712334D01*
X56766600Y4950429D02*
X57480885Y5188524D01*
X57480885Y5188524D02*
X57480885Y4569477D01*
X54182219Y12278096D02*
X54182219Y12754286D01*
X54182219Y12754286D02*
X54658409Y12801905D01*
X54658409Y12801905D02*
X54610790Y12754286D01*
X54610790Y12754286D02*
X54563171Y12659048D01*
X54563171Y12659048D02*
X54563171Y12420953D01*
X54563171Y12420953D02*
X54610790Y12325715D01*
X54610790Y12325715D02*
X54658409Y12278096D01*
X54658409Y12278096D02*
X54753647Y12230477D01*
X54753647Y12230477D02*
X54991742Y12230477D01*
X54991742Y12230477D02*
X55086980Y12278096D01*
X55086980Y12278096D02*
X55134600Y12325715D01*
X55134600Y12325715D02*
X55182219Y12420953D01*
X55182219Y12420953D02*
X55182219Y12659048D01*
X55182219Y12659048D02*
X55134600Y12754286D01*
X55134600Y12754286D02*
X55086980Y12801905D01*
X54182219Y11373334D02*
X54182219Y11563810D01*
X54182219Y11563810D02*
X54229838Y11659048D01*
X54229838Y11659048D02*
X54277457Y11706667D01*
X54277457Y11706667D02*
X54420314Y11801905D01*
X54420314Y11801905D02*
X54610790Y11849524D01*
X54610790Y11849524D02*
X54991742Y11849524D01*
X54991742Y11849524D02*
X55086980Y11801905D01*
X55086980Y11801905D02*
X55134600Y11754286D01*
X55134600Y11754286D02*
X55182219Y11659048D01*
X55182219Y11659048D02*
X55182219Y11468572D01*
X55182219Y11468572D02*
X55134600Y11373334D01*
X55134600Y11373334D02*
X55086980Y11325715D01*
X55086980Y11325715D02*
X54991742Y11278096D01*
X54991742Y11278096D02*
X54753647Y11278096D01*
X54753647Y11278096D02*
X54658409Y11325715D01*
X54658409Y11325715D02*
X54610790Y11373334D01*
X54610790Y11373334D02*
X54563171Y11468572D01*
X54563171Y11468572D02*
X54563171Y11659048D01*
X54563171Y11659048D02*
X54610790Y11754286D01*
X54610790Y11754286D02*
X54658409Y11801905D01*
X54658409Y11801905D02*
X54753647Y11849524D01*
X74614219Y5664715D02*
X74614219Y5855191D01*
X74614219Y5855191D02*
X74661838Y5950429D01*
X74661838Y5950429D02*
X74709457Y5998048D01*
X74709457Y5998048D02*
X74852314Y6093286D01*
X74852314Y6093286D02*
X75042790Y6140905D01*
X75042790Y6140905D02*
X75423742Y6140905D01*
X75423742Y6140905D02*
X75518980Y6093286D01*
X75518980Y6093286D02*
X75566600Y6045667D01*
X75566600Y6045667D02*
X75614219Y5950429D01*
X75614219Y5950429D02*
X75614219Y5759953D01*
X75614219Y5759953D02*
X75566600Y5664715D01*
X75566600Y5664715D02*
X75518980Y5617096D01*
X75518980Y5617096D02*
X75423742Y5569477D01*
X75423742Y5569477D02*
X75185647Y5569477D01*
X75185647Y5569477D02*
X75090409Y5617096D01*
X75090409Y5617096D02*
X75042790Y5664715D01*
X75042790Y5664715D02*
X74995171Y5759953D01*
X74995171Y5759953D02*
X74995171Y5950429D01*
X74995171Y5950429D02*
X75042790Y6045667D01*
X75042790Y6045667D02*
X75090409Y6093286D01*
X75090409Y6093286D02*
X75185647Y6140905D01*
X74614219Y5236143D02*
X74614219Y4569477D01*
X74614219Y4569477D02*
X75614219Y4998048D01*
X78014219Y21069476D02*
X78014219Y20879000D01*
X78014219Y20879000D02*
X77966600Y20783762D01*
X77966600Y20783762D02*
X77918980Y20736143D01*
X77918980Y20736143D02*
X77776123Y20640905D01*
X77776123Y20640905D02*
X77585647Y20593286D01*
X77585647Y20593286D02*
X77204695Y20593286D01*
X77204695Y20593286D02*
X77109457Y20640905D01*
X77109457Y20640905D02*
X77061838Y20688524D01*
X77061838Y20688524D02*
X77014219Y20783762D01*
X77014219Y20783762D02*
X77014219Y20974238D01*
X77014219Y20974238D02*
X77061838Y21069476D01*
X77061838Y21069476D02*
X77109457Y21117095D01*
X77109457Y21117095D02*
X77204695Y21164714D01*
X77204695Y21164714D02*
X77442790Y21164714D01*
X77442790Y21164714D02*
X77538028Y21117095D01*
X77538028Y21117095D02*
X77585647Y21069476D01*
X77585647Y21069476D02*
X77633266Y20974238D01*
X77633266Y20974238D02*
X77633266Y20783762D01*
X77633266Y20783762D02*
X77585647Y20688524D01*
X77585647Y20688524D02*
X77538028Y20640905D01*
X77538028Y20640905D02*
X77442790Y20593286D01*
X46814219Y6088524D02*
X46814219Y5421858D01*
X46814219Y5421858D02*
X47814219Y5850429D01*
X47242790Y4898048D02*
X47195171Y4993286D01*
X47195171Y4993286D02*
X47147552Y5040905D01*
X47147552Y5040905D02*
X47052314Y5088524D01*
X47052314Y5088524D02*
X47004695Y5088524D01*
X47004695Y5088524D02*
X46909457Y5040905D01*
X46909457Y5040905D02*
X46861838Y4993286D01*
X46861838Y4993286D02*
X46814219Y4898048D01*
X46814219Y4898048D02*
X46814219Y4707572D01*
X46814219Y4707572D02*
X46861838Y4612334D01*
X46861838Y4612334D02*
X46909457Y4564715D01*
X46909457Y4564715D02*
X47004695Y4517096D01*
X47004695Y4517096D02*
X47052314Y4517096D01*
X47052314Y4517096D02*
X47147552Y4564715D01*
X47147552Y4564715D02*
X47195171Y4612334D01*
X47195171Y4612334D02*
X47242790Y4707572D01*
X47242790Y4707572D02*
X47242790Y4898048D01*
X47242790Y4898048D02*
X47290409Y4993286D01*
X47290409Y4993286D02*
X47338028Y5040905D01*
X47338028Y5040905D02*
X47433266Y5088524D01*
X47433266Y5088524D02*
X47623742Y5088524D01*
X47623742Y5088524D02*
X47718980Y5040905D01*
X47718980Y5040905D02*
X47766600Y4993286D01*
X47766600Y4993286D02*
X47814219Y4898048D01*
X47814219Y4898048D02*
X47814219Y4707572D01*
X47814219Y4707572D02*
X47766600Y4612334D01*
X47766600Y4612334D02*
X47718980Y4564715D01*
X47718980Y4564715D02*
X47623742Y4517096D01*
X47623742Y4517096D02*
X47433266Y4517096D01*
X47433266Y4517096D02*
X47338028Y4564715D01*
X47338028Y4564715D02*
X47290409Y4612334D01*
X47290409Y4612334D02*
X47242790Y4707572D01*
X67014219Y6188524D02*
X67014219Y5521858D01*
X67014219Y5521858D02*
X68014219Y5950429D01*
X67014219Y4950429D02*
X67014219Y4855191D01*
X67014219Y4855191D02*
X67061838Y4759953D01*
X67061838Y4759953D02*
X67109457Y4712334D01*
X67109457Y4712334D02*
X67204695Y4664715D01*
X67204695Y4664715D02*
X67395171Y4617096D01*
X67395171Y4617096D02*
X67633266Y4617096D01*
X67633266Y4617096D02*
X67823742Y4664715D01*
X67823742Y4664715D02*
X67918980Y4712334D01*
X67918980Y4712334D02*
X67966600Y4759953D01*
X67966600Y4759953D02*
X68014219Y4855191D01*
X68014219Y4855191D02*
X68014219Y4950429D01*
X68014219Y4950429D02*
X67966600Y5045667D01*
X67966600Y5045667D02*
X67918980Y5093286D01*
X67918980Y5093286D02*
X67823742Y5140905D01*
X67823742Y5140905D02*
X67633266Y5188524D01*
X67633266Y5188524D02*
X67395171Y5188524D01*
X67395171Y5188524D02*
X67204695Y5140905D01*
X67204695Y5140905D02*
X67109457Y5093286D01*
X67109457Y5093286D02*
X67061838Y5045667D01*
X67061838Y5045667D02*
X67014219Y4950429D01*
X54282219Y6149524D02*
X54282219Y5482858D01*
X54282219Y5482858D02*
X55282219Y5911429D01*
X54282219Y4625715D02*
X54282219Y5101905D01*
X54282219Y5101905D02*
X54758409Y5149524D01*
X54758409Y5149524D02*
X54710790Y5101905D01*
X54710790Y5101905D02*
X54663171Y5006667D01*
X54663171Y5006667D02*
X54663171Y4768572D01*
X54663171Y4768572D02*
X54710790Y4673334D01*
X54710790Y4673334D02*
X54758409Y4625715D01*
X54758409Y4625715D02*
X54853647Y4578096D01*
X54853647Y4578096D02*
X55091742Y4578096D01*
X55091742Y4578096D02*
X55186980Y4625715D01*
X55186980Y4625715D02*
X55234600Y4673334D01*
X55234600Y4673334D02*
X55282219Y4768572D01*
X55282219Y4768572D02*
X55282219Y5006667D01*
X55282219Y5006667D02*
X55234600Y5101905D01*
X55234600Y5101905D02*
X55186980Y5149524D01*
X49314219Y12217096D02*
X49314219Y12693286D01*
X49314219Y12693286D02*
X49790409Y12740905D01*
X49790409Y12740905D02*
X49742790Y12693286D01*
X49742790Y12693286D02*
X49695171Y12598048D01*
X49695171Y12598048D02*
X49695171Y12359953D01*
X49695171Y12359953D02*
X49742790Y12264715D01*
X49742790Y12264715D02*
X49790409Y12217096D01*
X49790409Y12217096D02*
X49885647Y12169477D01*
X49885647Y12169477D02*
X50123742Y12169477D01*
X50123742Y12169477D02*
X50218980Y12217096D01*
X50218980Y12217096D02*
X50266600Y12264715D01*
X50266600Y12264715D02*
X50314219Y12359953D01*
X50314219Y12359953D02*
X50314219Y12598048D01*
X50314219Y12598048D02*
X50266600Y12693286D01*
X50266600Y12693286D02*
X50218980Y12740905D01*
X49742790Y11598048D02*
X49695171Y11693286D01*
X49695171Y11693286D02*
X49647552Y11740905D01*
X49647552Y11740905D02*
X49552314Y11788524D01*
X49552314Y11788524D02*
X49504695Y11788524D01*
X49504695Y11788524D02*
X49409457Y11740905D01*
X49409457Y11740905D02*
X49361838Y11693286D01*
X49361838Y11693286D02*
X49314219Y11598048D01*
X49314219Y11598048D02*
X49314219Y11407572D01*
X49314219Y11407572D02*
X49361838Y11312334D01*
X49361838Y11312334D02*
X49409457Y11264715D01*
X49409457Y11264715D02*
X49504695Y11217096D01*
X49504695Y11217096D02*
X49552314Y11217096D01*
X49552314Y11217096D02*
X49647552Y11264715D01*
X49647552Y11264715D02*
X49695171Y11312334D01*
X49695171Y11312334D02*
X49742790Y11407572D01*
X49742790Y11407572D02*
X49742790Y11598048D01*
X49742790Y11598048D02*
X49790409Y11693286D01*
X49790409Y11693286D02*
X49838028Y11740905D01*
X49838028Y11740905D02*
X49933266Y11788524D01*
X49933266Y11788524D02*
X50123742Y11788524D01*
X50123742Y11788524D02*
X50218980Y11740905D01*
X50218980Y11740905D02*
X50266600Y11693286D01*
X50266600Y11693286D02*
X50314219Y11598048D01*
X50314219Y11598048D02*
X50314219Y11407572D01*
X50314219Y11407572D02*
X50266600Y11312334D01*
X50266600Y11312334D02*
X50218980Y11264715D01*
X50218980Y11264715D02*
X50123742Y11217096D01*
X50123742Y11217096D02*
X49933266Y11217096D01*
X49933266Y11217096D02*
X49838028Y11264715D01*
X49838028Y11264715D02*
X49790409Y11312334D01*
X49790409Y11312334D02*
X49742790Y11407572D01*
X55082219Y21030477D02*
X55082219Y21601905D01*
X55082219Y21316191D02*
X54082219Y21316191D01*
X54082219Y21316191D02*
X54225076Y21411429D01*
X54225076Y21411429D02*
X54320314Y21506667D01*
X54320314Y21506667D02*
X54367933Y21601905D01*
X54510790Y20459048D02*
X54463171Y20554286D01*
X54463171Y20554286D02*
X54415552Y20601905D01*
X54415552Y20601905D02*
X54320314Y20649524D01*
X54320314Y20649524D02*
X54272695Y20649524D01*
X54272695Y20649524D02*
X54177457Y20601905D01*
X54177457Y20601905D02*
X54129838Y20554286D01*
X54129838Y20554286D02*
X54082219Y20459048D01*
X54082219Y20459048D02*
X54082219Y20268572D01*
X54082219Y20268572D02*
X54129838Y20173334D01*
X54129838Y20173334D02*
X54177457Y20125715D01*
X54177457Y20125715D02*
X54272695Y20078096D01*
X54272695Y20078096D02*
X54320314Y20078096D01*
X54320314Y20078096D02*
X54415552Y20125715D01*
X54415552Y20125715D02*
X54463171Y20173334D01*
X54463171Y20173334D02*
X54510790Y20268572D01*
X54510790Y20268572D02*
X54510790Y20459048D01*
X54510790Y20459048D02*
X54558409Y20554286D01*
X54558409Y20554286D02*
X54606028Y20601905D01*
X54606028Y20601905D02*
X54701266Y20649524D01*
X54701266Y20649524D02*
X54891742Y20649524D01*
X54891742Y20649524D02*
X54986980Y20601905D01*
X54986980Y20601905D02*
X55034600Y20554286D01*
X55034600Y20554286D02*
X55082219Y20459048D01*
X55082219Y20459048D02*
X55082219Y20268572D01*
X55082219Y20268572D02*
X55034600Y20173334D01*
X55034600Y20173334D02*
X54986980Y20125715D01*
X54986980Y20125715D02*
X54891742Y20078096D01*
X54891742Y20078096D02*
X54701266Y20078096D01*
X54701266Y20078096D02*
X54606028Y20125715D01*
X54606028Y20125715D02*
X54558409Y20173334D01*
X54558409Y20173334D02*
X54510790Y20268572D01*
X64514219Y6188524D02*
X64514219Y5521858D01*
X64514219Y5521858D02*
X65514219Y5950429D01*
X65514219Y4617096D02*
X65514219Y5188524D01*
X65514219Y4902810D02*
X64514219Y4902810D01*
X64514219Y4902810D02*
X64657076Y4998048D01*
X64657076Y4998048D02*
X64752314Y5093286D01*
X64752314Y5093286D02*
X64799933Y5188524D01*
X119414219Y12645667D02*
X119414219Y12455191D01*
X119414219Y12455191D02*
X119366600Y12359953D01*
X119366600Y12359953D02*
X119318980Y12312334D01*
X119318980Y12312334D02*
X119176123Y12217096D01*
X119176123Y12217096D02*
X118985647Y12169477D01*
X118985647Y12169477D02*
X118604695Y12169477D01*
X118604695Y12169477D02*
X118509457Y12217096D01*
X118509457Y12217096D02*
X118461838Y12264715D01*
X118461838Y12264715D02*
X118414219Y12359953D01*
X118414219Y12359953D02*
X118414219Y12550429D01*
X118414219Y12550429D02*
X118461838Y12645667D01*
X118461838Y12645667D02*
X118509457Y12693286D01*
X118509457Y12693286D02*
X118604695Y12740905D01*
X118604695Y12740905D02*
X118842790Y12740905D01*
X118842790Y12740905D02*
X118938028Y12693286D01*
X118938028Y12693286D02*
X118985647Y12645667D01*
X118985647Y12645667D02*
X119033266Y12550429D01*
X119033266Y12550429D02*
X119033266Y12359953D01*
X119033266Y12359953D02*
X118985647Y12264715D01*
X118985647Y12264715D02*
X118938028Y12217096D01*
X118938028Y12217096D02*
X118842790Y12169477D01*
X118414219Y11836143D02*
X118414219Y11169477D01*
X118414219Y11169477D02*
X119414219Y11598048D01*
X100514219Y15145667D02*
X100514219Y14955191D01*
X100514219Y14955191D02*
X100466600Y14859953D01*
X100466600Y14859953D02*
X100418980Y14812334D01*
X100418980Y14812334D02*
X100276123Y14717096D01*
X100276123Y14717096D02*
X100085647Y14669477D01*
X100085647Y14669477D02*
X99704695Y14669477D01*
X99704695Y14669477D02*
X99609457Y14717096D01*
X99609457Y14717096D02*
X99561838Y14764715D01*
X99561838Y14764715D02*
X99514219Y14859953D01*
X99514219Y14859953D02*
X99514219Y15050429D01*
X99514219Y15050429D02*
X99561838Y15145667D01*
X99561838Y15145667D02*
X99609457Y15193286D01*
X99609457Y15193286D02*
X99704695Y15240905D01*
X99704695Y15240905D02*
X99942790Y15240905D01*
X99942790Y15240905D02*
X100038028Y15193286D01*
X100038028Y15193286D02*
X100085647Y15145667D01*
X100085647Y15145667D02*
X100133266Y15050429D01*
X100133266Y15050429D02*
X100133266Y14859953D01*
X100133266Y14859953D02*
X100085647Y14764715D01*
X100085647Y14764715D02*
X100038028Y14717096D01*
X100038028Y14717096D02*
X99942790Y14669477D01*
X99942790Y14098048D02*
X99895171Y14193286D01*
X99895171Y14193286D02*
X99847552Y14240905D01*
X99847552Y14240905D02*
X99752314Y14288524D01*
X99752314Y14288524D02*
X99704695Y14288524D01*
X99704695Y14288524D02*
X99609457Y14240905D01*
X99609457Y14240905D02*
X99561838Y14193286D01*
X99561838Y14193286D02*
X99514219Y14098048D01*
X99514219Y14098048D02*
X99514219Y13907572D01*
X99514219Y13907572D02*
X99561838Y13812334D01*
X99561838Y13812334D02*
X99609457Y13764715D01*
X99609457Y13764715D02*
X99704695Y13717096D01*
X99704695Y13717096D02*
X99752314Y13717096D01*
X99752314Y13717096D02*
X99847552Y13764715D01*
X99847552Y13764715D02*
X99895171Y13812334D01*
X99895171Y13812334D02*
X99942790Y13907572D01*
X99942790Y13907572D02*
X99942790Y14098048D01*
X99942790Y14098048D02*
X99990409Y14193286D01*
X99990409Y14193286D02*
X100038028Y14240905D01*
X100038028Y14240905D02*
X100133266Y14288524D01*
X100133266Y14288524D02*
X100323742Y14288524D01*
X100323742Y14288524D02*
X100418980Y14240905D01*
X100418980Y14240905D02*
X100466600Y14193286D01*
X100466600Y14193286D02*
X100514219Y14098048D01*
X100514219Y14098048D02*
X100514219Y13907572D01*
X100514219Y13907572D02*
X100466600Y13812334D01*
X100466600Y13812334D02*
X100418980Y13764715D01*
X100418980Y13764715D02*
X100323742Y13717096D01*
X100323742Y13717096D02*
X100133266Y13717096D01*
X100133266Y13717096D02*
X100038028Y13764715D01*
X100038028Y13764715D02*
X99990409Y13812334D01*
X99990409Y13812334D02*
X99942790Y13907572D01*
X39014219Y12264715D02*
X39014219Y12455191D01*
X39014219Y12455191D02*
X39061838Y12550429D01*
X39061838Y12550429D02*
X39109457Y12598048D01*
X39109457Y12598048D02*
X39252314Y12693286D01*
X39252314Y12693286D02*
X39442790Y12740905D01*
X39442790Y12740905D02*
X39823742Y12740905D01*
X39823742Y12740905D02*
X39918980Y12693286D01*
X39918980Y12693286D02*
X39966600Y12645667D01*
X39966600Y12645667D02*
X40014219Y12550429D01*
X40014219Y12550429D02*
X40014219Y12359953D01*
X40014219Y12359953D02*
X39966600Y12264715D01*
X39966600Y12264715D02*
X39918980Y12217096D01*
X39918980Y12217096D02*
X39823742Y12169477D01*
X39823742Y12169477D02*
X39585647Y12169477D01*
X39585647Y12169477D02*
X39490409Y12217096D01*
X39490409Y12217096D02*
X39442790Y12264715D01*
X39442790Y12264715D02*
X39395171Y12359953D01*
X39395171Y12359953D02*
X39395171Y12550429D01*
X39395171Y12550429D02*
X39442790Y12645667D01*
X39442790Y12645667D02*
X39490409Y12693286D01*
X39490409Y12693286D02*
X39585647Y12740905D01*
X39109457Y11788524D02*
X39061838Y11740905D01*
X39061838Y11740905D02*
X39014219Y11645667D01*
X39014219Y11645667D02*
X39014219Y11407572D01*
X39014219Y11407572D02*
X39061838Y11312334D01*
X39061838Y11312334D02*
X39109457Y11264715D01*
X39109457Y11264715D02*
X39204695Y11217096D01*
X39204695Y11217096D02*
X39299933Y11217096D01*
X39299933Y11217096D02*
X39442790Y11264715D01*
X39442790Y11264715D02*
X40014219Y11836143D01*
X40014219Y11836143D02*
X40014219Y11217096D01*
X60914219Y15088524D02*
X60914219Y14469477D01*
X60914219Y14469477D02*
X61295171Y14802810D01*
X61295171Y14802810D02*
X61295171Y14659953D01*
X61295171Y14659953D02*
X61342790Y14564715D01*
X61342790Y14564715D02*
X61390409Y14517096D01*
X61390409Y14517096D02*
X61485647Y14469477D01*
X61485647Y14469477D02*
X61723742Y14469477D01*
X61723742Y14469477D02*
X61818980Y14517096D01*
X61818980Y14517096D02*
X61866600Y14564715D01*
X61866600Y14564715D02*
X61914219Y14659953D01*
X61914219Y14659953D02*
X61914219Y14945667D01*
X61914219Y14945667D02*
X61866600Y15040905D01*
X61866600Y15040905D02*
X61818980Y15088524D01*
X61247552Y13612334D02*
X61914219Y13612334D01*
X60866600Y13850429D02*
X61580885Y14088524D01*
X61580885Y14088524D02*
X61580885Y13469477D01*
X105514219Y14645667D02*
X105514219Y15217095D01*
X105514219Y14931381D02*
X104514219Y14931381D01*
X104514219Y14931381D02*
X104657076Y15026619D01*
X104657076Y15026619D02*
X104752314Y15121857D01*
X104752314Y15121857D02*
X104799933Y15217095D01*
X104514219Y14026619D02*
X104514219Y13931381D01*
X104514219Y13931381D02*
X104561838Y13836143D01*
X104561838Y13836143D02*
X104609457Y13788524D01*
X104609457Y13788524D02*
X104704695Y13740905D01*
X104704695Y13740905D02*
X104895171Y13693286D01*
X104895171Y13693286D02*
X105133266Y13693286D01*
X105133266Y13693286D02*
X105323742Y13740905D01*
X105323742Y13740905D02*
X105418980Y13788524D01*
X105418980Y13788524D02*
X105466600Y13836143D01*
X105466600Y13836143D02*
X105514219Y13931381D01*
X105514219Y13931381D02*
X105514219Y14026619D01*
X105514219Y14026619D02*
X105466600Y14121857D01*
X105466600Y14121857D02*
X105418980Y14169476D01*
X105418980Y14169476D02*
X105323742Y14217095D01*
X105323742Y14217095D02*
X105133266Y14264714D01*
X105133266Y14264714D02*
X104895171Y14264714D01*
X104895171Y14264714D02*
X104704695Y14217095D01*
X104704695Y14217095D02*
X104609457Y14169476D01*
X104609457Y14169476D02*
X104561838Y14121857D01*
X104561838Y14121857D02*
X104514219Y14026619D01*
X104514219Y13074238D02*
X104514219Y12979000D01*
X104514219Y12979000D02*
X104561838Y12883762D01*
X104561838Y12883762D02*
X104609457Y12836143D01*
X104609457Y12836143D02*
X104704695Y12788524D01*
X104704695Y12788524D02*
X104895171Y12740905D01*
X104895171Y12740905D02*
X105133266Y12740905D01*
X105133266Y12740905D02*
X105323742Y12788524D01*
X105323742Y12788524D02*
X105418980Y12836143D01*
X105418980Y12836143D02*
X105466600Y12883762D01*
X105466600Y12883762D02*
X105514219Y12979000D01*
X105514219Y12979000D02*
X105514219Y13074238D01*
X105514219Y13074238D02*
X105466600Y13169476D01*
X105466600Y13169476D02*
X105418980Y13217095D01*
X105418980Y13217095D02*
X105323742Y13264714D01*
X105323742Y13264714D02*
X105133266Y13312333D01*
X105133266Y13312333D02*
X104895171Y13312333D01*
X104895171Y13312333D02*
X104704695Y13264714D01*
X104704695Y13264714D02*
X104609457Y13217095D01*
X104609457Y13217095D02*
X104561838Y13169476D01*
X104561838Y13169476D02*
X104514219Y13074238D01*
X113214219Y14645667D02*
X113214219Y15217095D01*
X113214219Y14931381D02*
X112214219Y14931381D01*
X112214219Y14931381D02*
X112357076Y15026619D01*
X112357076Y15026619D02*
X112452314Y15121857D01*
X112452314Y15121857D02*
X112499933Y15217095D01*
X112214219Y14026619D02*
X112214219Y13931381D01*
X112214219Y13931381D02*
X112261838Y13836143D01*
X112261838Y13836143D02*
X112309457Y13788524D01*
X112309457Y13788524D02*
X112404695Y13740905D01*
X112404695Y13740905D02*
X112595171Y13693286D01*
X112595171Y13693286D02*
X112833266Y13693286D01*
X112833266Y13693286D02*
X113023742Y13740905D01*
X113023742Y13740905D02*
X113118980Y13788524D01*
X113118980Y13788524D02*
X113166600Y13836143D01*
X113166600Y13836143D02*
X113214219Y13931381D01*
X113214219Y13931381D02*
X113214219Y14026619D01*
X113214219Y14026619D02*
X113166600Y14121857D01*
X113166600Y14121857D02*
X113118980Y14169476D01*
X113118980Y14169476D02*
X113023742Y14217095D01*
X113023742Y14217095D02*
X112833266Y14264714D01*
X112833266Y14264714D02*
X112595171Y14264714D01*
X112595171Y14264714D02*
X112404695Y14217095D01*
X112404695Y14217095D02*
X112309457Y14169476D01*
X112309457Y14169476D02*
X112261838Y14121857D01*
X112261838Y14121857D02*
X112214219Y14026619D01*
X112214219Y13359952D02*
X112214219Y12740905D01*
X112214219Y12740905D02*
X112595171Y13074238D01*
X112595171Y13074238D02*
X112595171Y12931381D01*
X112595171Y12931381D02*
X112642790Y12836143D01*
X112642790Y12836143D02*
X112690409Y12788524D01*
X112690409Y12788524D02*
X112785647Y12740905D01*
X112785647Y12740905D02*
X113023742Y12740905D01*
X113023742Y12740905D02*
X113118980Y12788524D01*
X113118980Y12788524D02*
X113166600Y12836143D01*
X113166600Y12836143D02*
X113214219Y12931381D01*
X113214219Y12931381D02*
X113214219Y13217095D01*
X113214219Y13217095D02*
X113166600Y13312333D01*
X113166600Y13312333D02*
X113118980Y13359952D01*
X103842790Y5850429D02*
X103795171Y5945667D01*
X103795171Y5945667D02*
X103747552Y5993286D01*
X103747552Y5993286D02*
X103652314Y6040905D01*
X103652314Y6040905D02*
X103604695Y6040905D01*
X103604695Y6040905D02*
X103509457Y5993286D01*
X103509457Y5993286D02*
X103461838Y5945667D01*
X103461838Y5945667D02*
X103414219Y5850429D01*
X103414219Y5850429D02*
X103414219Y5659953D01*
X103414219Y5659953D02*
X103461838Y5564715D01*
X103461838Y5564715D02*
X103509457Y5517096D01*
X103509457Y5517096D02*
X103604695Y5469477D01*
X103604695Y5469477D02*
X103652314Y5469477D01*
X103652314Y5469477D02*
X103747552Y5517096D01*
X103747552Y5517096D02*
X103795171Y5564715D01*
X103795171Y5564715D02*
X103842790Y5659953D01*
X103842790Y5659953D02*
X103842790Y5850429D01*
X103842790Y5850429D02*
X103890409Y5945667D01*
X103890409Y5945667D02*
X103938028Y5993286D01*
X103938028Y5993286D02*
X104033266Y6040905D01*
X104033266Y6040905D02*
X104223742Y6040905D01*
X104223742Y6040905D02*
X104318980Y5993286D01*
X104318980Y5993286D02*
X104366600Y5945667D01*
X104366600Y5945667D02*
X104414219Y5850429D01*
X104414219Y5850429D02*
X104414219Y5659953D01*
X104414219Y5659953D02*
X104366600Y5564715D01*
X104366600Y5564715D02*
X104318980Y5517096D01*
X104318980Y5517096D02*
X104223742Y5469477D01*
X104223742Y5469477D02*
X104033266Y5469477D01*
X104033266Y5469477D02*
X103938028Y5517096D01*
X103938028Y5517096D02*
X103890409Y5564715D01*
X103890409Y5564715D02*
X103842790Y5659953D01*
X103414219Y5136143D02*
X103414219Y4517096D01*
X103414219Y4517096D02*
X103795171Y4850429D01*
X103795171Y4850429D02*
X103795171Y4707572D01*
X103795171Y4707572D02*
X103842790Y4612334D01*
X103842790Y4612334D02*
X103890409Y4564715D01*
X103890409Y4564715D02*
X103985647Y4517096D01*
X103985647Y4517096D02*
X104223742Y4517096D01*
X104223742Y4517096D02*
X104318980Y4564715D01*
X104318980Y4564715D02*
X104366600Y4612334D01*
X104366600Y4612334D02*
X104414219Y4707572D01*
X104414219Y4707572D02*
X104414219Y4993286D01*
X104414219Y4993286D02*
X104366600Y5088524D01*
X104366600Y5088524D02*
X104318980Y5136143D01*
X80047552Y12364715D02*
X80714219Y12364715D01*
X79666600Y12602810D02*
X80380885Y12840905D01*
X80380885Y12840905D02*
X80380885Y12221858D01*
X79714219Y11412334D02*
X79714219Y11602810D01*
X79714219Y11602810D02*
X79761838Y11698048D01*
X79761838Y11698048D02*
X79809457Y11745667D01*
X79809457Y11745667D02*
X79952314Y11840905D01*
X79952314Y11840905D02*
X80142790Y11888524D01*
X80142790Y11888524D02*
X80523742Y11888524D01*
X80523742Y11888524D02*
X80618980Y11840905D01*
X80618980Y11840905D02*
X80666600Y11793286D01*
X80666600Y11793286D02*
X80714219Y11698048D01*
X80714219Y11698048D02*
X80714219Y11507572D01*
X80714219Y11507572D02*
X80666600Y11412334D01*
X80666600Y11412334D02*
X80618980Y11364715D01*
X80618980Y11364715D02*
X80523742Y11317096D01*
X80523742Y11317096D02*
X80285647Y11317096D01*
X80285647Y11317096D02*
X80190409Y11364715D01*
X80190409Y11364715D02*
X80142790Y11412334D01*
X80142790Y11412334D02*
X80095171Y11507572D01*
X80095171Y11507572D02*
X80095171Y11698048D01*
X80095171Y11698048D02*
X80142790Y11793286D01*
X80142790Y11793286D02*
X80190409Y11840905D01*
X80190409Y11840905D02*
X80285647Y11888524D01*
X84614219Y20688524D02*
X84614219Y20879000D01*
X84614219Y20879000D02*
X84661838Y20974238D01*
X84661838Y20974238D02*
X84709457Y21021857D01*
X84709457Y21021857D02*
X84852314Y21117095D01*
X84852314Y21117095D02*
X85042790Y21164714D01*
X85042790Y21164714D02*
X85423742Y21164714D01*
X85423742Y21164714D02*
X85518980Y21117095D01*
X85518980Y21117095D02*
X85566600Y21069476D01*
X85566600Y21069476D02*
X85614219Y20974238D01*
X85614219Y20974238D02*
X85614219Y20783762D01*
X85614219Y20783762D02*
X85566600Y20688524D01*
X85566600Y20688524D02*
X85518980Y20640905D01*
X85518980Y20640905D02*
X85423742Y20593286D01*
X85423742Y20593286D02*
X85185647Y20593286D01*
X85185647Y20593286D02*
X85090409Y20640905D01*
X85090409Y20640905D02*
X85042790Y20688524D01*
X85042790Y20688524D02*
X84995171Y20783762D01*
X84995171Y20783762D02*
X84995171Y20974238D01*
X84995171Y20974238D02*
X85042790Y21069476D01*
X85042790Y21069476D02*
X85090409Y21117095D01*
X85090409Y21117095D02*
X85185647Y21164714D01*
X72214219Y5664715D02*
X72214219Y5855191D01*
X72214219Y5855191D02*
X72261838Y5950429D01*
X72261838Y5950429D02*
X72309457Y5998048D01*
X72309457Y5998048D02*
X72452314Y6093286D01*
X72452314Y6093286D02*
X72642790Y6140905D01*
X72642790Y6140905D02*
X73023742Y6140905D01*
X73023742Y6140905D02*
X73118980Y6093286D01*
X73118980Y6093286D02*
X73166600Y6045667D01*
X73166600Y6045667D02*
X73214219Y5950429D01*
X73214219Y5950429D02*
X73214219Y5759953D01*
X73214219Y5759953D02*
X73166600Y5664715D01*
X73166600Y5664715D02*
X73118980Y5617096D01*
X73118980Y5617096D02*
X73023742Y5569477D01*
X73023742Y5569477D02*
X72785647Y5569477D01*
X72785647Y5569477D02*
X72690409Y5617096D01*
X72690409Y5617096D02*
X72642790Y5664715D01*
X72642790Y5664715D02*
X72595171Y5759953D01*
X72595171Y5759953D02*
X72595171Y5950429D01*
X72595171Y5950429D02*
X72642790Y6045667D01*
X72642790Y6045667D02*
X72690409Y6093286D01*
X72690409Y6093286D02*
X72785647Y6140905D01*
X72642790Y4998048D02*
X72595171Y5093286D01*
X72595171Y5093286D02*
X72547552Y5140905D01*
X72547552Y5140905D02*
X72452314Y5188524D01*
X72452314Y5188524D02*
X72404695Y5188524D01*
X72404695Y5188524D02*
X72309457Y5140905D01*
X72309457Y5140905D02*
X72261838Y5093286D01*
X72261838Y5093286D02*
X72214219Y4998048D01*
X72214219Y4998048D02*
X72214219Y4807572D01*
X72214219Y4807572D02*
X72261838Y4712334D01*
X72261838Y4712334D02*
X72309457Y4664715D01*
X72309457Y4664715D02*
X72404695Y4617096D01*
X72404695Y4617096D02*
X72452314Y4617096D01*
X72452314Y4617096D02*
X72547552Y4664715D01*
X72547552Y4664715D02*
X72595171Y4712334D01*
X72595171Y4712334D02*
X72642790Y4807572D01*
X72642790Y4807572D02*
X72642790Y4998048D01*
X72642790Y4998048D02*
X72690409Y5093286D01*
X72690409Y5093286D02*
X72738028Y5140905D01*
X72738028Y5140905D02*
X72833266Y5188524D01*
X72833266Y5188524D02*
X73023742Y5188524D01*
X73023742Y5188524D02*
X73118980Y5140905D01*
X73118980Y5140905D02*
X73166600Y5093286D01*
X73166600Y5093286D02*
X73214219Y4998048D01*
X73214219Y4998048D02*
X73214219Y4807572D01*
X73214219Y4807572D02*
X73166600Y4712334D01*
X73166600Y4712334D02*
X73118980Y4664715D01*
X73118980Y4664715D02*
X73023742Y4617096D01*
X73023742Y4617096D02*
X72833266Y4617096D01*
X72833266Y4617096D02*
X72738028Y4664715D01*
X72738028Y4664715D02*
X72690409Y4712334D01*
X72690409Y4712334D02*
X72642790Y4807572D01*
X66014219Y15088524D02*
X66014219Y14469477D01*
X66014219Y14469477D02*
X66395171Y14802810D01*
X66395171Y14802810D02*
X66395171Y14659953D01*
X66395171Y14659953D02*
X66442790Y14564715D01*
X66442790Y14564715D02*
X66490409Y14517096D01*
X66490409Y14517096D02*
X66585647Y14469477D01*
X66585647Y14469477D02*
X66823742Y14469477D01*
X66823742Y14469477D02*
X66918980Y14517096D01*
X66918980Y14517096D02*
X66966600Y14564715D01*
X66966600Y14564715D02*
X67014219Y14659953D01*
X67014219Y14659953D02*
X67014219Y14945667D01*
X67014219Y14945667D02*
X66966600Y15040905D01*
X66966600Y15040905D02*
X66918980Y15088524D01*
X66109457Y14088524D02*
X66061838Y14040905D01*
X66061838Y14040905D02*
X66014219Y13945667D01*
X66014219Y13945667D02*
X66014219Y13707572D01*
X66014219Y13707572D02*
X66061838Y13612334D01*
X66061838Y13612334D02*
X66109457Y13564715D01*
X66109457Y13564715D02*
X66204695Y13517096D01*
X66204695Y13517096D02*
X66299933Y13517096D01*
X66299933Y13517096D02*
X66442790Y13564715D01*
X66442790Y13564715D02*
X67014219Y14136143D01*
X67014219Y14136143D02*
X67014219Y13517096D01*
X66914219Y12317096D02*
X66914219Y12793286D01*
X66914219Y12793286D02*
X67390409Y12840905D01*
X67390409Y12840905D02*
X67342790Y12793286D01*
X67342790Y12793286D02*
X67295171Y12698048D01*
X67295171Y12698048D02*
X67295171Y12459953D01*
X67295171Y12459953D02*
X67342790Y12364715D01*
X67342790Y12364715D02*
X67390409Y12317096D01*
X67390409Y12317096D02*
X67485647Y12269477D01*
X67485647Y12269477D02*
X67723742Y12269477D01*
X67723742Y12269477D02*
X67818980Y12317096D01*
X67818980Y12317096D02*
X67866600Y12364715D01*
X67866600Y12364715D02*
X67914219Y12459953D01*
X67914219Y12459953D02*
X67914219Y12698048D01*
X67914219Y12698048D02*
X67866600Y12793286D01*
X67866600Y12793286D02*
X67818980Y12840905D01*
X67914219Y11317096D02*
X67914219Y11888524D01*
X67914219Y11602810D02*
X66914219Y11602810D01*
X66914219Y11602810D02*
X67057076Y11698048D01*
X67057076Y11698048D02*
X67152314Y11793286D01*
X67152314Y11793286D02*
X67199933Y11888524D01*
X77214219Y5664715D02*
X77214219Y5855191D01*
X77214219Y5855191D02*
X77261838Y5950429D01*
X77261838Y5950429D02*
X77309457Y5998048D01*
X77309457Y5998048D02*
X77452314Y6093286D01*
X77452314Y6093286D02*
X77642790Y6140905D01*
X77642790Y6140905D02*
X78023742Y6140905D01*
X78023742Y6140905D02*
X78118980Y6093286D01*
X78118980Y6093286D02*
X78166600Y6045667D01*
X78166600Y6045667D02*
X78214219Y5950429D01*
X78214219Y5950429D02*
X78214219Y5759953D01*
X78214219Y5759953D02*
X78166600Y5664715D01*
X78166600Y5664715D02*
X78118980Y5617096D01*
X78118980Y5617096D02*
X78023742Y5569477D01*
X78023742Y5569477D02*
X77785647Y5569477D01*
X77785647Y5569477D02*
X77690409Y5617096D01*
X77690409Y5617096D02*
X77642790Y5664715D01*
X77642790Y5664715D02*
X77595171Y5759953D01*
X77595171Y5759953D02*
X77595171Y5950429D01*
X77595171Y5950429D02*
X77642790Y6045667D01*
X77642790Y6045667D02*
X77690409Y6093286D01*
X77690409Y6093286D02*
X77785647Y6140905D01*
X77214219Y4712334D02*
X77214219Y4902810D01*
X77214219Y4902810D02*
X77261838Y4998048D01*
X77261838Y4998048D02*
X77309457Y5045667D01*
X77309457Y5045667D02*
X77452314Y5140905D01*
X77452314Y5140905D02*
X77642790Y5188524D01*
X77642790Y5188524D02*
X78023742Y5188524D01*
X78023742Y5188524D02*
X78118980Y5140905D01*
X78118980Y5140905D02*
X78166600Y5093286D01*
X78166600Y5093286D02*
X78214219Y4998048D01*
X78214219Y4998048D02*
X78214219Y4807572D01*
X78214219Y4807572D02*
X78166600Y4712334D01*
X78166600Y4712334D02*
X78118980Y4664715D01*
X78118980Y4664715D02*
X78023742Y4617096D01*
X78023742Y4617096D02*
X77785647Y4617096D01*
X77785647Y4617096D02*
X77690409Y4664715D01*
X77690409Y4664715D02*
X77642790Y4712334D01*
X77642790Y4712334D02*
X77595171Y4807572D01*
X77595171Y4807572D02*
X77595171Y4998048D01*
X77595171Y4998048D02*
X77642790Y5093286D01*
X77642790Y5093286D02*
X77690409Y5140905D01*
X77690409Y5140905D02*
X77785647Y5188524D01*
X46709457Y21540905D02*
X46661838Y21493286D01*
X46661838Y21493286D02*
X46614219Y21398048D01*
X46614219Y21398048D02*
X46614219Y21159953D01*
X46614219Y21159953D02*
X46661838Y21064715D01*
X46661838Y21064715D02*
X46709457Y21017096D01*
X46709457Y21017096D02*
X46804695Y20969477D01*
X46804695Y20969477D02*
X46899933Y20969477D01*
X46899933Y20969477D02*
X47042790Y21017096D01*
X47042790Y21017096D02*
X47614219Y21588524D01*
X47614219Y21588524D02*
X47614219Y20969477D01*
X47614219Y20017096D02*
X47614219Y20588524D01*
X47614219Y20302810D02*
X46614219Y20302810D01*
X46614219Y20302810D02*
X46757076Y20398048D01*
X46757076Y20398048D02*
X46852314Y20493286D01*
X46852314Y20493286D02*
X46899933Y20588524D01*
X114042790Y5850429D02*
X113995171Y5945667D01*
X113995171Y5945667D02*
X113947552Y5993286D01*
X113947552Y5993286D02*
X113852314Y6040905D01*
X113852314Y6040905D02*
X113804695Y6040905D01*
X113804695Y6040905D02*
X113709457Y5993286D01*
X113709457Y5993286D02*
X113661838Y5945667D01*
X113661838Y5945667D02*
X113614219Y5850429D01*
X113614219Y5850429D02*
X113614219Y5659953D01*
X113614219Y5659953D02*
X113661838Y5564715D01*
X113661838Y5564715D02*
X113709457Y5517096D01*
X113709457Y5517096D02*
X113804695Y5469477D01*
X113804695Y5469477D02*
X113852314Y5469477D01*
X113852314Y5469477D02*
X113947552Y5517096D01*
X113947552Y5517096D02*
X113995171Y5564715D01*
X113995171Y5564715D02*
X114042790Y5659953D01*
X114042790Y5659953D02*
X114042790Y5850429D01*
X114042790Y5850429D02*
X114090409Y5945667D01*
X114090409Y5945667D02*
X114138028Y5993286D01*
X114138028Y5993286D02*
X114233266Y6040905D01*
X114233266Y6040905D02*
X114423742Y6040905D01*
X114423742Y6040905D02*
X114518980Y5993286D01*
X114518980Y5993286D02*
X114566600Y5945667D01*
X114566600Y5945667D02*
X114614219Y5850429D01*
X114614219Y5850429D02*
X114614219Y5659953D01*
X114614219Y5659953D02*
X114566600Y5564715D01*
X114566600Y5564715D02*
X114518980Y5517096D01*
X114518980Y5517096D02*
X114423742Y5469477D01*
X114423742Y5469477D02*
X114233266Y5469477D01*
X114233266Y5469477D02*
X114138028Y5517096D01*
X114138028Y5517096D02*
X114090409Y5564715D01*
X114090409Y5564715D02*
X114042790Y5659953D01*
X113614219Y5136143D02*
X113614219Y4469477D01*
X113614219Y4469477D02*
X114614219Y4898048D01*
X68522219Y15049524D02*
X68522219Y14430477D01*
X68522219Y14430477D02*
X68903171Y14763810D01*
X68903171Y14763810D02*
X68903171Y14620953D01*
X68903171Y14620953D02*
X68950790Y14525715D01*
X68950790Y14525715D02*
X68998409Y14478096D01*
X68998409Y14478096D02*
X69093647Y14430477D01*
X69093647Y14430477D02*
X69331742Y14430477D01*
X69331742Y14430477D02*
X69426980Y14478096D01*
X69426980Y14478096D02*
X69474600Y14525715D01*
X69474600Y14525715D02*
X69522219Y14620953D01*
X69522219Y14620953D02*
X69522219Y14906667D01*
X69522219Y14906667D02*
X69474600Y15001905D01*
X69474600Y15001905D02*
X69426980Y15049524D01*
X69522219Y13478096D02*
X69522219Y14049524D01*
X69522219Y13763810D02*
X68522219Y13763810D01*
X68522219Y13763810D02*
X68665076Y13859048D01*
X68665076Y13859048D02*
X68760314Y13954286D01*
X68760314Y13954286D02*
X68807933Y14049524D01*
X61814219Y12317096D02*
X61814219Y12793286D01*
X61814219Y12793286D02*
X62290409Y12840905D01*
X62290409Y12840905D02*
X62242790Y12793286D01*
X62242790Y12793286D02*
X62195171Y12698048D01*
X62195171Y12698048D02*
X62195171Y12459953D01*
X62195171Y12459953D02*
X62242790Y12364715D01*
X62242790Y12364715D02*
X62290409Y12317096D01*
X62290409Y12317096D02*
X62385647Y12269477D01*
X62385647Y12269477D02*
X62623742Y12269477D01*
X62623742Y12269477D02*
X62718980Y12317096D01*
X62718980Y12317096D02*
X62766600Y12364715D01*
X62766600Y12364715D02*
X62814219Y12459953D01*
X62814219Y12459953D02*
X62814219Y12698048D01*
X62814219Y12698048D02*
X62766600Y12793286D01*
X62766600Y12793286D02*
X62718980Y12840905D01*
X61814219Y11936143D02*
X61814219Y11317096D01*
X61814219Y11317096D02*
X62195171Y11650429D01*
X62195171Y11650429D02*
X62195171Y11507572D01*
X62195171Y11507572D02*
X62242790Y11412334D01*
X62242790Y11412334D02*
X62290409Y11364715D01*
X62290409Y11364715D02*
X62385647Y11317096D01*
X62385647Y11317096D02*
X62623742Y11317096D01*
X62623742Y11317096D02*
X62718980Y11364715D01*
X62718980Y11364715D02*
X62766600Y11412334D01*
X62766600Y11412334D02*
X62814219Y11507572D01*
X62814219Y11507572D02*
X62814219Y11793286D01*
X62814219Y11793286D02*
X62766600Y11888524D01*
X62766600Y11888524D02*
X62718980Y11936143D01*
X109414219Y12545667D02*
X109414219Y12355191D01*
X109414219Y12355191D02*
X109366600Y12259953D01*
X109366600Y12259953D02*
X109318980Y12212334D01*
X109318980Y12212334D02*
X109176123Y12117096D01*
X109176123Y12117096D02*
X108985647Y12069477D01*
X108985647Y12069477D02*
X108604695Y12069477D01*
X108604695Y12069477D02*
X108509457Y12117096D01*
X108509457Y12117096D02*
X108461838Y12164715D01*
X108461838Y12164715D02*
X108414219Y12259953D01*
X108414219Y12259953D02*
X108414219Y12450429D01*
X108414219Y12450429D02*
X108461838Y12545667D01*
X108461838Y12545667D02*
X108509457Y12593286D01*
X108509457Y12593286D02*
X108604695Y12640905D01*
X108604695Y12640905D02*
X108842790Y12640905D01*
X108842790Y12640905D02*
X108938028Y12593286D01*
X108938028Y12593286D02*
X108985647Y12545667D01*
X108985647Y12545667D02*
X109033266Y12450429D01*
X109033266Y12450429D02*
X109033266Y12259953D01*
X109033266Y12259953D02*
X108985647Y12164715D01*
X108985647Y12164715D02*
X108938028Y12117096D01*
X108938028Y12117096D02*
X108842790Y12069477D01*
X108414219Y11736143D02*
X108414219Y11117096D01*
X108414219Y11117096D02*
X108795171Y11450429D01*
X108795171Y11450429D02*
X108795171Y11307572D01*
X108795171Y11307572D02*
X108842790Y11212334D01*
X108842790Y11212334D02*
X108890409Y11164715D01*
X108890409Y11164715D02*
X108985647Y11117096D01*
X108985647Y11117096D02*
X109223742Y11117096D01*
X109223742Y11117096D02*
X109318980Y11164715D01*
X109318980Y11164715D02*
X109366600Y11212334D01*
X109366600Y11212334D02*
X109414219Y11307572D01*
X109414219Y11307572D02*
X109414219Y11593286D01*
X109414219Y11593286D02*
X109366600Y11688524D01*
X109366600Y11688524D02*
X109318980Y11736143D01*
X41047552Y14464715D02*
X41714219Y14464715D01*
X40666600Y14702810D02*
X41380885Y14940905D01*
X41380885Y14940905D02*
X41380885Y14321858D01*
X40809457Y13988524D02*
X40761838Y13940905D01*
X40761838Y13940905D02*
X40714219Y13845667D01*
X40714219Y13845667D02*
X40714219Y13607572D01*
X40714219Y13607572D02*
X40761838Y13512334D01*
X40761838Y13512334D02*
X40809457Y13464715D01*
X40809457Y13464715D02*
X40904695Y13417096D01*
X40904695Y13417096D02*
X40999933Y13417096D01*
X40999933Y13417096D02*
X41142790Y13464715D01*
X41142790Y13464715D02*
X41714219Y14036143D01*
X41714219Y14036143D02*
X41714219Y13417096D01*
X73709457Y15040905D02*
X73661838Y14993286D01*
X73661838Y14993286D02*
X73614219Y14898048D01*
X73614219Y14898048D02*
X73614219Y14659953D01*
X73614219Y14659953D02*
X73661838Y14564715D01*
X73661838Y14564715D02*
X73709457Y14517096D01*
X73709457Y14517096D02*
X73804695Y14469477D01*
X73804695Y14469477D02*
X73899933Y14469477D01*
X73899933Y14469477D02*
X74042790Y14517096D01*
X74042790Y14517096D02*
X74614219Y15088524D01*
X74614219Y15088524D02*
X74614219Y14469477D01*
X74614219Y13993286D02*
X74614219Y13802810D01*
X74614219Y13802810D02*
X74566600Y13707572D01*
X74566600Y13707572D02*
X74518980Y13659953D01*
X74518980Y13659953D02*
X74376123Y13564715D01*
X74376123Y13564715D02*
X74185647Y13517096D01*
X74185647Y13517096D02*
X73804695Y13517096D01*
X73804695Y13517096D02*
X73709457Y13564715D01*
X73709457Y13564715D02*
X73661838Y13612334D01*
X73661838Y13612334D02*
X73614219Y13707572D01*
X73614219Y13707572D02*
X73614219Y13898048D01*
X73614219Y13898048D02*
X73661838Y13993286D01*
X73661838Y13993286D02*
X73709457Y14040905D01*
X73709457Y14040905D02*
X73804695Y14088524D01*
X73804695Y14088524D02*
X74042790Y14088524D01*
X74042790Y14088524D02*
X74138028Y14040905D01*
X74138028Y14040905D02*
X74185647Y13993286D01*
X74185647Y13993286D02*
X74233266Y13898048D01*
X74233266Y13898048D02*
X74233266Y13707572D01*
X74233266Y13707572D02*
X74185647Y13612334D01*
X74185647Y13612334D02*
X74138028Y13564715D01*
X74138028Y13564715D02*
X74042790Y13517096D01*
X63514219Y15088524D02*
X63514219Y14469477D01*
X63514219Y14469477D02*
X63895171Y14802810D01*
X63895171Y14802810D02*
X63895171Y14659953D01*
X63895171Y14659953D02*
X63942790Y14564715D01*
X63942790Y14564715D02*
X63990409Y14517096D01*
X63990409Y14517096D02*
X64085647Y14469477D01*
X64085647Y14469477D02*
X64323742Y14469477D01*
X64323742Y14469477D02*
X64418980Y14517096D01*
X64418980Y14517096D02*
X64466600Y14564715D01*
X64466600Y14564715D02*
X64514219Y14659953D01*
X64514219Y14659953D02*
X64514219Y14945667D01*
X64514219Y14945667D02*
X64466600Y15040905D01*
X64466600Y15040905D02*
X64418980Y15088524D01*
X63514219Y14136143D02*
X63514219Y13517096D01*
X63514219Y13517096D02*
X63895171Y13850429D01*
X63895171Y13850429D02*
X63895171Y13707572D01*
X63895171Y13707572D02*
X63942790Y13612334D01*
X63942790Y13612334D02*
X63990409Y13564715D01*
X63990409Y13564715D02*
X64085647Y13517096D01*
X64085647Y13517096D02*
X64323742Y13517096D01*
X64323742Y13517096D02*
X64418980Y13564715D01*
X64418980Y13564715D02*
X64466600Y13612334D01*
X64466600Y13612334D02*
X64514219Y13707572D01*
X64514219Y13707572D02*
X64514219Y13993286D01*
X64514219Y13993286D02*
X64466600Y14088524D01*
X64466600Y14088524D02*
X64418980Y14136143D01*
X82547552Y12364715D02*
X83214219Y12364715D01*
X82166600Y12602810D02*
X82880885Y12840905D01*
X82880885Y12840905D02*
X82880885Y12221858D01*
X82214219Y11364715D02*
X82214219Y11840905D01*
X82214219Y11840905D02*
X82690409Y11888524D01*
X82690409Y11888524D02*
X82642790Y11840905D01*
X82642790Y11840905D02*
X82595171Y11745667D01*
X82595171Y11745667D02*
X82595171Y11507572D01*
X82595171Y11507572D02*
X82642790Y11412334D01*
X82642790Y11412334D02*
X82690409Y11364715D01*
X82690409Y11364715D02*
X82785647Y11317096D01*
X82785647Y11317096D02*
X83023742Y11317096D01*
X83023742Y11317096D02*
X83118980Y11364715D01*
X83118980Y11364715D02*
X83166600Y11412334D01*
X83166600Y11412334D02*
X83214219Y11507572D01*
X83214219Y11507572D02*
X83214219Y11745667D01*
X83214219Y11745667D02*
X83166600Y11840905D01*
X83166600Y11840905D02*
X83118980Y11888524D01*
X55814219Y15088524D02*
X55814219Y14469477D01*
X55814219Y14469477D02*
X56195171Y14802810D01*
X56195171Y14802810D02*
X56195171Y14659953D01*
X56195171Y14659953D02*
X56242790Y14564715D01*
X56242790Y14564715D02*
X56290409Y14517096D01*
X56290409Y14517096D02*
X56385647Y14469477D01*
X56385647Y14469477D02*
X56623742Y14469477D01*
X56623742Y14469477D02*
X56718980Y14517096D01*
X56718980Y14517096D02*
X56766600Y14564715D01*
X56766600Y14564715D02*
X56814219Y14659953D01*
X56814219Y14659953D02*
X56814219Y14945667D01*
X56814219Y14945667D02*
X56766600Y15040905D01*
X56766600Y15040905D02*
X56718980Y15088524D01*
X55814219Y13612334D02*
X55814219Y13802810D01*
X55814219Y13802810D02*
X55861838Y13898048D01*
X55861838Y13898048D02*
X55909457Y13945667D01*
X55909457Y13945667D02*
X56052314Y14040905D01*
X56052314Y14040905D02*
X56242790Y14088524D01*
X56242790Y14088524D02*
X56623742Y14088524D01*
X56623742Y14088524D02*
X56718980Y14040905D01*
X56718980Y14040905D02*
X56766600Y13993286D01*
X56766600Y13993286D02*
X56814219Y13898048D01*
X56814219Y13898048D02*
X56814219Y13707572D01*
X56814219Y13707572D02*
X56766600Y13612334D01*
X56766600Y13612334D02*
X56718980Y13564715D01*
X56718980Y13564715D02*
X56623742Y13517096D01*
X56623742Y13517096D02*
X56385647Y13517096D01*
X56385647Y13517096D02*
X56290409Y13564715D01*
X56290409Y13564715D02*
X56242790Y13612334D01*
X56242790Y13612334D02*
X56195171Y13707572D01*
X56195171Y13707572D02*
X56195171Y13898048D01*
X56195171Y13898048D02*
X56242790Y13993286D01*
X56242790Y13993286D02*
X56290409Y14040905D01*
X56290409Y14040905D02*
X56385647Y14088524D01*
X103114219Y15145667D02*
X103114219Y14955191D01*
X103114219Y14955191D02*
X103066600Y14859953D01*
X103066600Y14859953D02*
X103018980Y14812334D01*
X103018980Y14812334D02*
X102876123Y14717096D01*
X102876123Y14717096D02*
X102685647Y14669477D01*
X102685647Y14669477D02*
X102304695Y14669477D01*
X102304695Y14669477D02*
X102209457Y14717096D01*
X102209457Y14717096D02*
X102161838Y14764715D01*
X102161838Y14764715D02*
X102114219Y14859953D01*
X102114219Y14859953D02*
X102114219Y15050429D01*
X102114219Y15050429D02*
X102161838Y15145667D01*
X102161838Y15145667D02*
X102209457Y15193286D01*
X102209457Y15193286D02*
X102304695Y15240905D01*
X102304695Y15240905D02*
X102542790Y15240905D01*
X102542790Y15240905D02*
X102638028Y15193286D01*
X102638028Y15193286D02*
X102685647Y15145667D01*
X102685647Y15145667D02*
X102733266Y15050429D01*
X102733266Y15050429D02*
X102733266Y14859953D01*
X102733266Y14859953D02*
X102685647Y14764715D01*
X102685647Y14764715D02*
X102638028Y14717096D01*
X102638028Y14717096D02*
X102542790Y14669477D01*
X103114219Y14193286D02*
X103114219Y14002810D01*
X103114219Y14002810D02*
X103066600Y13907572D01*
X103066600Y13907572D02*
X103018980Y13859953D01*
X103018980Y13859953D02*
X102876123Y13764715D01*
X102876123Y13764715D02*
X102685647Y13717096D01*
X102685647Y13717096D02*
X102304695Y13717096D01*
X102304695Y13717096D02*
X102209457Y13764715D01*
X102209457Y13764715D02*
X102161838Y13812334D01*
X102161838Y13812334D02*
X102114219Y13907572D01*
X102114219Y13907572D02*
X102114219Y14098048D01*
X102114219Y14098048D02*
X102161838Y14193286D01*
X102161838Y14193286D02*
X102209457Y14240905D01*
X102209457Y14240905D02*
X102304695Y14288524D01*
X102304695Y14288524D02*
X102542790Y14288524D01*
X102542790Y14288524D02*
X102638028Y14240905D01*
X102638028Y14240905D02*
X102685647Y14193286D01*
X102685647Y14193286D02*
X102733266Y14098048D01*
X102733266Y14098048D02*
X102733266Y13907572D01*
X102733266Y13907572D02*
X102685647Y13812334D01*
X102685647Y13812334D02*
X102638028Y13764715D01*
X102638028Y13764715D02*
X102542790Y13717096D01*
X39009457Y21540905D02*
X38961838Y21493286D01*
X38961838Y21493286D02*
X38914219Y21398048D01*
X38914219Y21398048D02*
X38914219Y21159953D01*
X38914219Y21159953D02*
X38961838Y21064715D01*
X38961838Y21064715D02*
X39009457Y21017096D01*
X39009457Y21017096D02*
X39104695Y20969477D01*
X39104695Y20969477D02*
X39199933Y20969477D01*
X39199933Y20969477D02*
X39342790Y21017096D01*
X39342790Y21017096D02*
X39914219Y21588524D01*
X39914219Y21588524D02*
X39914219Y20969477D01*
X39247552Y20112334D02*
X39914219Y20112334D01*
X38866600Y20350429D02*
X39580885Y20588524D01*
X39580885Y20588524D02*
X39580885Y19969477D01*
X39542790Y5850429D02*
X39495171Y5945667D01*
X39495171Y5945667D02*
X39447552Y5993286D01*
X39447552Y5993286D02*
X39352314Y6040905D01*
X39352314Y6040905D02*
X39304695Y6040905D01*
X39304695Y6040905D02*
X39209457Y5993286D01*
X39209457Y5993286D02*
X39161838Y5945667D01*
X39161838Y5945667D02*
X39114219Y5850429D01*
X39114219Y5850429D02*
X39114219Y5659953D01*
X39114219Y5659953D02*
X39161838Y5564715D01*
X39161838Y5564715D02*
X39209457Y5517096D01*
X39209457Y5517096D02*
X39304695Y5469477D01*
X39304695Y5469477D02*
X39352314Y5469477D01*
X39352314Y5469477D02*
X39447552Y5517096D01*
X39447552Y5517096D02*
X39495171Y5564715D01*
X39495171Y5564715D02*
X39542790Y5659953D01*
X39542790Y5659953D02*
X39542790Y5850429D01*
X39542790Y5850429D02*
X39590409Y5945667D01*
X39590409Y5945667D02*
X39638028Y5993286D01*
X39638028Y5993286D02*
X39733266Y6040905D01*
X39733266Y6040905D02*
X39923742Y6040905D01*
X39923742Y6040905D02*
X40018980Y5993286D01*
X40018980Y5993286D02*
X40066600Y5945667D01*
X40066600Y5945667D02*
X40114219Y5850429D01*
X40114219Y5850429D02*
X40114219Y5659953D01*
X40114219Y5659953D02*
X40066600Y5564715D01*
X40066600Y5564715D02*
X40018980Y5517096D01*
X40018980Y5517096D02*
X39923742Y5469477D01*
X39923742Y5469477D02*
X39733266Y5469477D01*
X39733266Y5469477D02*
X39638028Y5517096D01*
X39638028Y5517096D02*
X39590409Y5564715D01*
X39590409Y5564715D02*
X39542790Y5659953D01*
X40114219Y4517096D02*
X40114219Y5088524D01*
X40114219Y4802810D02*
X39114219Y4802810D01*
X39114219Y4802810D02*
X39257076Y4898048D01*
X39257076Y4898048D02*
X39352314Y4993286D01*
X39352314Y4993286D02*
X39399933Y5088524D01*
X106342790Y5850429D02*
X106295171Y5945667D01*
X106295171Y5945667D02*
X106247552Y5993286D01*
X106247552Y5993286D02*
X106152314Y6040905D01*
X106152314Y6040905D02*
X106104695Y6040905D01*
X106104695Y6040905D02*
X106009457Y5993286D01*
X106009457Y5993286D02*
X105961838Y5945667D01*
X105961838Y5945667D02*
X105914219Y5850429D01*
X105914219Y5850429D02*
X105914219Y5659953D01*
X105914219Y5659953D02*
X105961838Y5564715D01*
X105961838Y5564715D02*
X106009457Y5517096D01*
X106009457Y5517096D02*
X106104695Y5469477D01*
X106104695Y5469477D02*
X106152314Y5469477D01*
X106152314Y5469477D02*
X106247552Y5517096D01*
X106247552Y5517096D02*
X106295171Y5564715D01*
X106295171Y5564715D02*
X106342790Y5659953D01*
X106342790Y5659953D02*
X106342790Y5850429D01*
X106342790Y5850429D02*
X106390409Y5945667D01*
X106390409Y5945667D02*
X106438028Y5993286D01*
X106438028Y5993286D02*
X106533266Y6040905D01*
X106533266Y6040905D02*
X106723742Y6040905D01*
X106723742Y6040905D02*
X106818980Y5993286D01*
X106818980Y5993286D02*
X106866600Y5945667D01*
X106866600Y5945667D02*
X106914219Y5850429D01*
X106914219Y5850429D02*
X106914219Y5659953D01*
X106914219Y5659953D02*
X106866600Y5564715D01*
X106866600Y5564715D02*
X106818980Y5517096D01*
X106818980Y5517096D02*
X106723742Y5469477D01*
X106723742Y5469477D02*
X106533266Y5469477D01*
X106533266Y5469477D02*
X106438028Y5517096D01*
X106438028Y5517096D02*
X106390409Y5564715D01*
X106390409Y5564715D02*
X106342790Y5659953D01*
X106247552Y4612334D02*
X106914219Y4612334D01*
X105866600Y4850429D02*
X106580885Y5088524D01*
X106580885Y5088524D02*
X106580885Y4469477D01*
X41614219Y12264715D02*
X41614219Y12455191D01*
X41614219Y12455191D02*
X41661838Y12550429D01*
X41661838Y12550429D02*
X41709457Y12598048D01*
X41709457Y12598048D02*
X41852314Y12693286D01*
X41852314Y12693286D02*
X42042790Y12740905D01*
X42042790Y12740905D02*
X42423742Y12740905D01*
X42423742Y12740905D02*
X42518980Y12693286D01*
X42518980Y12693286D02*
X42566600Y12645667D01*
X42566600Y12645667D02*
X42614219Y12550429D01*
X42614219Y12550429D02*
X42614219Y12359953D01*
X42614219Y12359953D02*
X42566600Y12264715D01*
X42566600Y12264715D02*
X42518980Y12217096D01*
X42518980Y12217096D02*
X42423742Y12169477D01*
X42423742Y12169477D02*
X42185647Y12169477D01*
X42185647Y12169477D02*
X42090409Y12217096D01*
X42090409Y12217096D02*
X42042790Y12264715D01*
X42042790Y12264715D02*
X41995171Y12359953D01*
X41995171Y12359953D02*
X41995171Y12550429D01*
X41995171Y12550429D02*
X42042790Y12645667D01*
X42042790Y12645667D02*
X42090409Y12693286D01*
X42090409Y12693286D02*
X42185647Y12740905D01*
X42614219Y11217096D02*
X42614219Y11788524D01*
X42614219Y11502810D02*
X41614219Y11502810D01*
X41614219Y11502810D02*
X41757076Y11598048D01*
X41757076Y11598048D02*
X41852314Y11693286D01*
X41852314Y11693286D02*
X41899933Y11788524D01*
X65314219Y21069477D02*
X65314219Y21640905D01*
X65314219Y21355191D02*
X64314219Y21355191D01*
X64314219Y21355191D02*
X64457076Y21450429D01*
X64457076Y21450429D02*
X64552314Y21545667D01*
X64552314Y21545667D02*
X64599933Y21640905D01*
X64647552Y20212334D02*
X65314219Y20212334D01*
X64266600Y20450429D02*
X64980885Y20688524D01*
X64980885Y20688524D02*
X64980885Y20069477D01*
X59514219Y6188524D02*
X59514219Y5521858D01*
X59514219Y5521858D02*
X60514219Y5950429D01*
X59514219Y5236143D02*
X59514219Y4617096D01*
X59514219Y4617096D02*
X59895171Y4950429D01*
X59895171Y4950429D02*
X59895171Y4807572D01*
X59895171Y4807572D02*
X59942790Y4712334D01*
X59942790Y4712334D02*
X59990409Y4664715D01*
X59990409Y4664715D02*
X60085647Y4617096D01*
X60085647Y4617096D02*
X60323742Y4617096D01*
X60323742Y4617096D02*
X60418980Y4664715D01*
X60418980Y4664715D02*
X60466600Y4712334D01*
X60466600Y4712334D02*
X60514219Y4807572D01*
X60514219Y4807572D02*
X60514219Y5093286D01*
X60514219Y5093286D02*
X60466600Y5188524D01*
X60466600Y5188524D02*
X60418980Y5236143D01*
X41609457Y21540905D02*
X41561838Y21493286D01*
X41561838Y21493286D02*
X41514219Y21398048D01*
X41514219Y21398048D02*
X41514219Y21159953D01*
X41514219Y21159953D02*
X41561838Y21064715D01*
X41561838Y21064715D02*
X41609457Y21017096D01*
X41609457Y21017096D02*
X41704695Y20969477D01*
X41704695Y20969477D02*
X41799933Y20969477D01*
X41799933Y20969477D02*
X41942790Y21017096D01*
X41942790Y21017096D02*
X42514219Y21588524D01*
X42514219Y21588524D02*
X42514219Y20969477D01*
X41514219Y20636143D02*
X41514219Y20017096D01*
X41514219Y20017096D02*
X41895171Y20350429D01*
X41895171Y20350429D02*
X41895171Y20207572D01*
X41895171Y20207572D02*
X41942790Y20112334D01*
X41942790Y20112334D02*
X41990409Y20064715D01*
X41990409Y20064715D02*
X42085647Y20017096D01*
X42085647Y20017096D02*
X42323742Y20017096D01*
X42323742Y20017096D02*
X42418980Y20064715D01*
X42418980Y20064715D02*
X42466600Y20112334D01*
X42466600Y20112334D02*
X42514219Y20207572D01*
X42514219Y20207572D02*
X42514219Y20493286D01*
X42514219Y20493286D02*
X42466600Y20588524D01*
X42466600Y20588524D02*
X42418980Y20636143D01*
X85047552Y12364715D02*
X85714219Y12364715D01*
X84666600Y12602810D02*
X85380885Y12840905D01*
X85380885Y12840905D02*
X85380885Y12221858D01*
X85047552Y11412334D02*
X85714219Y11412334D01*
X84666600Y11650429D02*
X85380885Y11888524D01*
X85380885Y11888524D02*
X85380885Y11269477D01*
D12*
X83666768Y45641779D02*
X83666768Y45895779D01*
X84065911Y45895779D02*
X83303911Y45895779D01*
X83303911Y45895779D02*
X83303911Y45532922D01*
X83303911Y45315207D02*
X83303911Y44843493D01*
X83303911Y44843493D02*
X83594197Y45097493D01*
X83594197Y45097493D02*
X83594197Y44988636D01*
X83594197Y44988636D02*
X83630483Y44916064D01*
X83630483Y44916064D02*
X83666768Y44879779D01*
X83666768Y44879779D02*
X83739340Y44843493D01*
X83739340Y44843493D02*
X83920768Y44843493D01*
X83920768Y44843493D02*
X83993340Y44879779D01*
X83993340Y44879779D02*
X84029626Y44916064D01*
X84029626Y44916064D02*
X84065911Y44988636D01*
X84065911Y44988636D02*
X84065911Y45206350D01*
X84065911Y45206350D02*
X84029626Y45278922D01*
X84029626Y45278922D02*
X83993340Y45315207D01*
X83666768Y48761779D02*
X83666768Y49015779D01*
X84065911Y49015779D02*
X83303911Y49015779D01*
X83303911Y49015779D02*
X83303911Y48652922D01*
X83376483Y48398922D02*
X83340197Y48362636D01*
X83340197Y48362636D02*
X83303911Y48290064D01*
X83303911Y48290064D02*
X83303911Y48108636D01*
X83303911Y48108636D02*
X83340197Y48036064D01*
X83340197Y48036064D02*
X83376483Y47999779D01*
X83376483Y47999779D02*
X83449054Y47963493D01*
X83449054Y47963493D02*
X83521626Y47963493D01*
X83521626Y47963493D02*
X83630483Y47999779D01*
X83630483Y47999779D02*
X84065911Y48435207D01*
X84065911Y48435207D02*
X84065911Y47963493D01*
X88386302Y87329388D02*
X88023445Y87583388D01*
X88386302Y87764817D02*
X87624302Y87764817D01*
X87624302Y87764817D02*
X87624302Y87474531D01*
X87624302Y87474531D02*
X87660588Y87401960D01*
X87660588Y87401960D02*
X87696874Y87365674D01*
X87696874Y87365674D02*
X87769445Y87329388D01*
X87769445Y87329388D02*
X87878302Y87329388D01*
X87878302Y87329388D02*
X87950874Y87365674D01*
X87950874Y87365674D02*
X87987159Y87401960D01*
X87987159Y87401960D02*
X88023445Y87474531D01*
X88023445Y87474531D02*
X88023445Y87764817D01*
X87878302Y86676245D02*
X88386302Y86676245D01*
X87588017Y86857674D02*
X88132302Y87039103D01*
X88132302Y87039103D02*
X88132302Y86567388D01*
X83666768Y51881779D02*
X83666768Y52135779D01*
X84065911Y52135779D02*
X83303911Y52135779D01*
X83303911Y52135779D02*
X83303911Y51772922D01*
X84065911Y51083493D02*
X84065911Y51518922D01*
X84065911Y51301207D02*
X83303911Y51301207D01*
X83303911Y51301207D02*
X83412768Y51373779D01*
X83412768Y51373779D02*
X83485340Y51446350D01*
X83485340Y51446350D02*
X83521626Y51518922D01*
D11*
G04 #@! TO.C,M2*
X54310000Y47817779D02*
X63410000Y47817779D01*
X54310000Y44717776D02*
X54310000Y45717778D01*
X54310000Y44717776D02*
X63410000Y44717776D01*
G04 #@! TO.C,M1*
X66310000Y62367777D02*
X66310000Y65567780D01*
X66310000Y50267777D02*
X66310000Y60667779D01*
X66310000Y48367777D02*
X66310000Y48667777D01*
X66310000Y48367777D02*
X81710000Y48367777D01*
X67810000Y68967775D02*
X83109999Y68967777D01*
X83109997Y62267779D02*
X83109997Y67067779D01*
X83109997Y56067777D02*
X83109997Y58767777D01*
X83109997Y53367779D02*
X83109997Y54467782D01*
X83109997Y49817777D02*
X83110002Y51367777D01*
X83109999Y68667779D02*
X83109999Y68967777D01*
G04 #@! TO.C,M7*
X84559997Y68928932D02*
X95734997Y68967779D01*
X84559997Y63231110D02*
X84559997Y68928932D01*
X84559997Y63231110D02*
X84835001Y62956104D01*
X84835001Y62131105D02*
X84835001Y62956104D01*
X84835001Y62131105D02*
X84891203Y62081105D01*
X84891203Y62081105D02*
X95734997Y62081105D01*
X95734997Y62074902D02*
X95734997Y68967779D01*
D13*
G04 #@! TO.C,F3*
X90120000Y46387779D02*
X85270000Y46387779D01*
X90120000Y44387779D02*
X85270000Y44387779D01*
X85270000Y44387779D02*
G75*
G02*
X85270000Y46387779I0J1000000D01*
G01*
X90170000Y46387779D02*
G75*
G02*
X90170000Y44387779I0J-1000000D01*
G01*
D11*
G04 #@! TO.C,M6*
X37360000Y106217759D02*
X71160010Y106217759D01*
X37360000Y70417769D02*
X37360000Y106217759D01*
X37360000Y70417769D02*
X71160010Y70417769D01*
X71160010Y70417769D02*
X71160010Y106217759D01*
G04 #@! TO.C,M5*
X64860000Y68967779D02*
X37360000Y68967779D01*
X37360000Y55067779D01*
X64860000Y55067779D01*
X64860000Y68967779D01*
D13*
G04 #@! TO.C,F2*
X90120000Y49507779D02*
X85270000Y49507779D01*
X90120000Y47507779D02*
X85270000Y47507779D01*
X85270000Y47507779D02*
G75*
G02*
X85270000Y49507779I0J1000000D01*
G01*
X90170000Y49507779D02*
G75*
G02*
X90170000Y47507779I0J-1000000D01*
G01*
D11*
G04 #@! TO.C,M3*
X72610000Y106217779D02*
X72610000Y99817779D01*
X72610000Y96617779D02*
X72610000Y97917779D01*
X72610000Y96617779D02*
X87610000Y96617779D01*
X87010000Y106217779D02*
X72610000Y106217779D01*
X87610000Y96617779D02*
X87610000Y101717779D01*
D14*
G04 #@! TO.C,R4*
X90016391Y86402388D02*
X91032391Y86402388D01*
X91032391Y88002388D02*
X90016391Y88002388D01*
X92048391Y86402388D02*
X93064391Y86402388D01*
X93064391Y88002388D02*
X92048391Y88002388D01*
D13*
X89961391Y86400750D02*
G75*
G02*
X89965391Y88002388I-326000J801638D01*
G01*
X93115391Y88002388D02*
G75*
G02*
X93123993Y86398893I330000J-800000D01*
G01*
G04 #@! TO.C,M8*
D15*
X86260000Y84167779D02*
X72560000Y84167779D01*
X72560000Y74267779D01*
X86260000Y74267779D01*
X86260000Y84167779D01*
D11*
G04 #@! TO.C,M4*
X72610000Y95167779D02*
X72610000Y88767779D01*
X72610000Y85567779D02*
X72610000Y86867779D01*
X72610000Y85567779D02*
X87610000Y85567779D01*
X87010000Y95167779D02*
X72610000Y95167779D01*
X87610000Y85567779D02*
X87610000Y90667779D01*
D13*
G04 #@! TO.C,F1*
X90120000Y52627779D02*
X85270000Y52627779D01*
X90120000Y50627779D02*
X85270000Y50627779D01*
X85270000Y50627779D02*
G75*
G02*
X85270000Y52627779I0J1000000D01*
G01*
X90170000Y52627779D02*
G75*
G02*
X90170000Y50627779I0J-1000000D01*
G01*
G04 #@! TD*
M02*
