M48
; DRILL file {KiCad 8.0.9-8.0.9-0~ubuntu24.04.1} date 2025-12-21T15:30:04+0000
; FORMAT={2:4/ absolute / inch / suppress leading zeros}
; #@! TF.CreationDate,2025-12-21T15:30:04+00:00
; #@! TF.GenerationSoftware,Kicad,Pcbnew,8.0.9-8.0.9-0~ubuntu24.04.1
; #@! TF.FileFunction,MixedPlating,1,4
FMAT,2
INCH,TZ
; #@! TA.AperFunction,Plated,PTH,ComponentDrill
T1C0.0118
; #@! TA.AperFunction,Plated,PTH,ComponentDrill
T2C0.0118
; #@! TA.AperFunction,Plated,PTH,ComponentDrill
T3C0.0276
; #@! TA.AperFunction,Plated,PTH,ComponentDrill
T4C0.0320
; #@! TA.AperFunction,Plated,PTH,ComponentDrill
T5C0.0335
; #@! TA.AperFunction,Plated,PTH,ViaDrill
T6C0.0394
; #@! TA.AperFunction,Plated,PTH,ComponentDrill
T7C0.0394
; #@! TA.AperFunction,Plated,PTH,ComponentDrill
T8C0.0433
; #@! TA.AperFunction,Plated,PTH,ComponentDrill
T9C0.0866
; #@! TA.AperFunction,Plated,PTH,ComponentDrill
T10C0.1457
%
G90
G05
T1
X48100Y13175
X48445Y12968
X48533Y14867
X48563Y13470
T2
X45531Y35807
X45531Y33957
X45531Y33406
X45531Y31555
X45531Y31240
X45531Y30217
X45531Y29823
X45531Y29429
X45531Y29035
X45531Y28642
X45531Y28248
X45531Y27854
X45531Y27461
X45531Y23248
X45531Y22854
X45633Y20551
X45633Y20157
X45633Y19764
X45633Y18866
X45633Y18466
X45689Y21870
X46634Y21870
X47106Y21870
X47579Y21870
X48051Y21870
X48445Y35807
X48524Y21870
X48839Y35807
X48996Y21870
X49469Y21870
X49902Y35807
X49941Y21870
X50413Y21870
X50500Y14941
X50500Y14587
X50886Y21870
X51358Y21870
X51594Y35807
X51831Y21870
X51909Y35807
X52224Y35807
X52303Y21870
X52539Y35807
X52776Y21870
X52854Y35807
X53169Y35807
X53248Y21870
X53484Y35807
X53720Y21870
X53799Y35807
X53925Y14941
X53925Y14567
X53925Y14193
X54114Y35807
X54193Y21870
X54665Y21870
X55059Y35807
X55138Y21870
X55374Y35807
X55610Y21870
X55689Y35807
X56004Y35807
X56083Y21870
X56102Y17539
X56102Y17146
X56102Y16752
X56102Y16358
X56319Y35807
X56634Y35807
X56949Y35807
X57264Y35807
X57579Y35807
X57894Y35807
X58209Y35807
X58524Y35807
X58681Y30531
X58681Y24429
X58681Y32972
X58681Y32657
X58681Y32343
X58681Y32028
X58681Y31713
X58681Y31398
X58681Y30846
X58681Y30217
X58681Y29902
X58681Y29587
X58681Y29272
X58681Y28957
X58681Y28642
X58681Y28327
X58681Y28012
X58681Y27697
X58681Y27382
X58681Y27067
X58681Y26752
X58681Y26437
X58681Y26122
X59409Y27106
X59409Y26791
X59409Y26476
X59409Y26161
X59409Y25846
X59409Y25531
X59409Y25217
X59439Y33185
X59439Y32791
X59439Y28835
X59439Y28441
X59724Y27106
X63386Y14882
X63386Y14488
X65118Y35728
X65118Y35256
X65118Y34783
X65118Y34311
X65118Y31378
X65118Y30906
X65118Y30433
X65118Y29961
T3
X12065Y23188
X12380Y23877
X12695Y23188
X13010Y23877
X13325Y23188
X60039Y23484
X60512Y23484
X62874Y27028
X63740Y23484
T4
X13447Y25322
X13500Y28954
X13500Y27726
X13500Y26498
X14947Y25322
X15429Y28954
X15429Y27726
X15429Y26498
T5
X40148Y29943
X41132Y29943
X42116Y29943
X43100Y29943
X44085Y29943
T6
X4173Y43711
X4173Y40571
X4173Y36870
X4173Y32923
X4173Y28780
X4173Y24882
X4173Y20571
X4173Y15226
X4173Y10945
X9242Y4281
X13789Y4301
X22480Y4301
X26624Y4281
X31122Y4281
X35305Y4281
X39587Y4291
X43632Y4291
X48278Y4291
X52776Y4291
X56959Y4291
X61240Y4291
X66437Y43839
X66496Y41152
X66496Y37451
X66496Y33504
X66496Y29360
X66496Y25463
X66496Y21152
X66496Y15807
X66496Y11526
T7
X57106Y20965
X57106Y20236
X57106Y18287
X57106Y13543
X63209Y20787
X63209Y18268
X63209Y17520
X63209Y15827
X63209Y13366
T8
X20702Y46607
X20702Y45607
X20702Y43226
X20702Y42226
X21702Y46607
X21702Y45607
X21702Y43226
X21702Y42226
X22702Y46607
X22702Y45607
X22702Y43226
X22702Y42226
X23702Y46607
X23702Y45607
X23702Y43226
X23702Y42226
X24702Y46607
X24702Y45607
X24702Y43226
X24702Y42226
X25702Y46607
X25702Y45607
X25702Y43226
X25702Y42226
X26702Y46607
X26702Y45607
X26702Y43226
X26702Y42226
X27702Y46607
X27702Y45607
X27702Y43226
X27702Y42226
X33989Y46607
X33989Y45607
X33989Y43226
X33989Y42226
X34989Y46607
X34989Y45607
X34989Y43226
X34989Y42226
X35989Y46607
X35989Y45607
X35989Y43226
X35989Y42226
X36989Y46607
X36989Y45607
X36989Y43226
X36989Y42226
X37989Y46607
X37989Y45607
X37989Y43226
X37989Y42226
X38989Y46607
X38989Y45607
X38989Y43226
X38989Y42226
X39989Y46607
X39989Y45607
X39989Y43226
X39989Y42226
X40989Y46607
X40989Y45607
X40989Y43226
X40989Y42226
X41989Y46607
X41989Y45607
X41989Y43226
X41989Y42226
X42989Y46607
X42989Y45607
X42989Y43226
X42989Y42226
X43989Y46607
X43989Y45607
X43989Y43226
X43989Y42226
X44989Y46607
X44989Y45607
X44989Y43226
X44989Y42226
X45989Y46607
X45989Y45607
X45989Y43226
X45989Y42226
X46989Y46607
X46989Y45607
X46989Y43226
X46989Y42226
X47989Y46607
X47989Y45607
X47989Y43226
X47989Y42226
X48989Y46607
X48989Y45607
X48989Y43226
X48989Y42226
X49989Y46607
X49989Y45607
X49989Y43226
X49989Y42226
X50989Y46607
X50989Y45607
X50989Y43226
X50989Y42226
X51989Y46607
X51989Y45607
X51989Y43226
X51989Y42226
T9
X11261Y44324
X13013Y45426
X13013Y42226
X14154Y44509
X15335Y45426
X15335Y42226
X16477Y44509
X17619Y45426
X17619Y42226
X55099Y45426
X55099Y42226
X56241Y44509
X57383Y45426
X57383Y42226
X59213Y44324
T10
X10296Y47395
X30847Y47395
X60178Y47395
T3
X11258Y23789G85X11258Y23277
G05
X14132Y23789G85X14132Y23277
G05
M30
