G04 #@! TF.GenerationSoftware,KiCad,Pcbnew,8.0.9-8.0.9-0~ubuntu24.04.1*
G04 #@! TF.CreationDate,2025-12-21T14:32:56+00:00*
G04 #@! TF.ProjectId,greenenergyecu,67726565-6e65-46e6-9572-67796563752e,d*
G04 #@! TF.SameCoordinates,PX2ab9800PY68e7780*
G04 #@! TF.FileFunction,Paste,Top*
G04 #@! TF.FilePolarity,Positive*
%FSLAX46Y46*%
G04 Gerber Fmt 4.6, Leading zero omitted, Abs format (unit mm)*
G04 Created by KiCad (PCBNEW 8.0.9-8.0.9-0~ubuntu24.04.1) date 2025-12-21 14:32:56*
%MOMM*%
%LPD*%
G01*
G04 APERTURE LIST*
%ADD10O,0.000001X0.000001*%
G04 APERTURE END LIST*
G04 #@! TO.C,R43*
G36*
G01*
X16920000Y40110000D02*
X16920000Y40890000D01*
G75*
G02*
X16990000Y40960000I70000J0D01*
G01*
X17550000Y40960000D01*
G75*
G02*
X17620000Y40890000I0J-70000D01*
G01*
X17620000Y40110000D01*
G75*
G02*
X17550000Y40040000I-70000J0D01*
G01*
X16990000Y40040000D01*
G75*
G02*
X16920000Y40110000I0J70000D01*
G01*
G37*
G36*
G01*
X18520000Y40110000D02*
X18520000Y40890000D01*
G75*
G02*
X18590000Y40960000I70000J0D01*
G01*
X19150000Y40960000D01*
G75*
G02*
X19220000Y40890000I0J-70000D01*
G01*
X19220000Y40110000D01*
G75*
G02*
X19150000Y40040000I-70000J0D01*
G01*
X18590000Y40040000D01*
G75*
G02*
X18520000Y40110000I0J70000D01*
G01*
G37*
G04 #@! TD*
G04 #@! TO.C,L2*
G36*
G01*
X92280000Y33758750D02*
X92280000Y34271250D01*
G75*
G02*
X92498750Y34490000I218750J0D01*
G01*
X92936250Y34490000D01*
G75*
G02*
X93155000Y34271250I0J-218750D01*
G01*
X93155000Y33758750D01*
G75*
G02*
X92936250Y33540000I-218750J0D01*
G01*
X92498750Y33540000D01*
G75*
G02*
X92280000Y33758750I0J218750D01*
G01*
G37*
G36*
G01*
X93855000Y33758750D02*
X93855000Y34271250D01*
G75*
G02*
X94073750Y34490000I218750J0D01*
G01*
X94511250Y34490000D01*
G75*
G02*
X94730000Y34271250I0J-218750D01*
G01*
X94730000Y33758750D01*
G75*
G02*
X94511250Y33540000I-218750J0D01*
G01*
X94073750Y33540000D01*
G75*
G02*
X93855000Y33758750I0J218750D01*
G01*
G37*
G04 #@! TD*
D10*
G04 #@! TO.C,M7*
X114725002Y24338329D03*
G04 #@! TD*
G04 #@! TO.C,R45*
G36*
G01*
X16920000Y36211908D02*
X16920000Y36991908D01*
G75*
G02*
X16990000Y37061908I70000J0D01*
G01*
X17550000Y37061908D01*
G75*
G02*
X17620000Y36991908I0J-70000D01*
G01*
X17620000Y36211908D01*
G75*
G02*
X17550000Y36141908I-70000J0D01*
G01*
X16990000Y36141908D01*
G75*
G02*
X16920000Y36211908I0J70000D01*
G01*
G37*
G36*
G01*
X18520000Y36211908D02*
X18520000Y36991908D01*
G75*
G02*
X18590000Y37061908I70000J0D01*
G01*
X19150000Y37061908D01*
G75*
G02*
X19220000Y36991908I0J-70000D01*
G01*
X19220000Y36211908D01*
G75*
G02*
X19150000Y36141908I-70000J0D01*
G01*
X18590000Y36141908D01*
G75*
G02*
X18520000Y36211908I0J70000D01*
G01*
G37*
G04 #@! TD*
G04 #@! TO.C,F5*
G36*
G01*
X71140000Y39318750D02*
X71140000Y39831250D01*
G75*
G02*
X71358750Y40050000I218750J0D01*
G01*
X71796250Y40050000D01*
G75*
G02*
X72015000Y39831250I0J-218750D01*
G01*
X72015000Y39318750D01*
G75*
G02*
X71796250Y39100000I-218750J0D01*
G01*
X71358750Y39100000D01*
G75*
G02*
X71140000Y39318750I0J218750D01*
G01*
G37*
G36*
G01*
X72715000Y39318750D02*
X72715000Y39831250D01*
G75*
G02*
X72933750Y40050000I218750J0D01*
G01*
X73371250Y40050000D01*
G75*
G02*
X73590000Y39831250I0J-218750D01*
G01*
X73590000Y39318750D01*
G75*
G02*
X73371250Y39100000I-218750J0D01*
G01*
X72933750Y39100000D01*
G75*
G02*
X72715000Y39318750I0J218750D01*
G01*
G37*
G04 #@! TD*
G04 #@! TO.C,R17*
G36*
G01*
X36250000Y60390000D02*
X36250000Y61170000D01*
G75*
G02*
X36320000Y61240000I70000J0D01*
G01*
X36880000Y61240000D01*
G75*
G02*
X36950000Y61170000I0J-70000D01*
G01*
X36950000Y60390000D01*
G75*
G02*
X36880000Y60320000I-70000J0D01*
G01*
X36320000Y60320000D01*
G75*
G02*
X36250000Y60390000I0J70000D01*
G01*
G37*
G36*
G01*
X37850000Y60390000D02*
X37850000Y61170000D01*
G75*
G02*
X37920000Y61240000I70000J0D01*
G01*
X38480000Y61240000D01*
G75*
G02*
X38550000Y61170000I0J-70000D01*
G01*
X38550000Y60390000D01*
G75*
G02*
X38480000Y60320000I-70000J0D01*
G01*
X37920000Y60320000D01*
G75*
G02*
X37850000Y60390000I0J70000D01*
G01*
G37*
G04 #@! TD*
G04 #@! TO.C,R15*
G36*
G01*
X17520000Y56491908D02*
X17520000Y57271908D01*
G75*
G02*
X17590000Y57341908I70000J0D01*
G01*
X18150000Y57341908D01*
G75*
G02*
X18220000Y57271908I0J-70000D01*
G01*
X18220000Y56491908D01*
G75*
G02*
X18150000Y56421908I-70000J0D01*
G01*
X17590000Y56421908D01*
G75*
G02*
X17520000Y56491908I0J70000D01*
G01*
G37*
G36*
G01*
X19120000Y56491908D02*
X19120000Y57271908D01*
G75*
G02*
X19190000Y57341908I70000J0D01*
G01*
X19750000Y57341908D01*
G75*
G02*
X19820000Y57271908I0J-70000D01*
G01*
X19820000Y56491908D01*
G75*
G02*
X19750000Y56421908I-70000J0D01*
G01*
X19190000Y56421908D01*
G75*
G02*
X19120000Y56491908I0J70000D01*
G01*
G37*
G04 #@! TD*
G04 #@! TO.C,F2*
G36*
G01*
X28634990Y62023733D02*
X27944990Y62023733D01*
G75*
G02*
X27714990Y62253733I0J230000D01*
G01*
X27714990Y63593733D01*
G75*
G02*
X27944990Y63823733I230000J0D01*
G01*
X28634990Y63823733D01*
G75*
G02*
X28864990Y63593733I0J-230000D01*
G01*
X28864990Y62253733D01*
G75*
G02*
X28634990Y62023733I-230000J0D01*
G01*
G37*
G36*
G01*
X31535010Y62023733D02*
X30845010Y62023733D01*
G75*
G02*
X30615010Y62253733I0J230000D01*
G01*
X30615010Y63593733D01*
G75*
G02*
X30845010Y63823733I230000J0D01*
G01*
X31535010Y63823733D01*
G75*
G02*
X31765010Y63593733I0J-230000D01*
G01*
X31765010Y62253733D01*
G75*
G02*
X31535010Y62023733I-230000J0D01*
G01*
G37*
G04 #@! TD*
G04 #@! TO.C,Q4*
G36*
G01*
X58985000Y45855000D02*
X58985000Y46555000D01*
G75*
G02*
X59235000Y46805000I250000J0D01*
G01*
X60935000Y46805000D01*
G75*
G02*
X61185000Y46555000I0J-250000D01*
G01*
X61185000Y45855000D01*
G75*
G02*
X60935000Y45605000I-250000J0D01*
G01*
X59235000Y45605000D01*
G75*
G02*
X58985000Y45855000I0J250000D01*
G01*
G37*
G36*
G01*
X63185000Y44325000D02*
X63185000Y46575000D01*
G75*
G02*
X63435000Y46825000I250000J0D01*
G01*
X65985000Y46825000D01*
G75*
G02*
X66235000Y46575000I0J-250000D01*
G01*
X66235000Y44325000D01*
G75*
G02*
X65985000Y44075000I-250000J0D01*
G01*
X63435000Y44075000D01*
G75*
G02*
X63185000Y44325000I0J250000D01*
G01*
G37*
G36*
G01*
X63185000Y41275000D02*
X63185000Y43525000D01*
G75*
G02*
X63435000Y43775000I250000J0D01*
G01*
X65985000Y43775000D01*
G75*
G02*
X66235000Y43525000I0J-250000D01*
G01*
X66235000Y41275000D01*
G75*
G02*
X65985000Y41025000I-250000J0D01*
G01*
X63435000Y41025000D01*
G75*
G02*
X63185000Y41275000I0J250000D01*
G01*
G37*
G36*
G01*
X66535000Y44325000D02*
X66535000Y46575000D01*
G75*
G02*
X66785000Y46825000I250000J0D01*
G01*
X69335000Y46825000D01*
G75*
G02*
X69585000Y46575000I0J-250000D01*
G01*
X69585000Y44325000D01*
G75*
G02*
X69335000Y44075000I-250000J0D01*
G01*
X66785000Y44075000D01*
G75*
G02*
X66535000Y44325000I0J250000D01*
G01*
G37*
G36*
G01*
X66535000Y41275000D02*
X66535000Y43525000D01*
G75*
G02*
X66785000Y43775000I250000J0D01*
G01*
X69335000Y43775000D01*
G75*
G02*
X69585000Y43525000I0J-250000D01*
G01*
X69585000Y41275000D01*
G75*
G02*
X69335000Y41025000I-250000J0D01*
G01*
X66785000Y41025000D01*
G75*
G02*
X66535000Y41275000I0J250000D01*
G01*
G37*
G36*
G01*
X58985000Y41295000D02*
X58985000Y41995000D01*
G75*
G02*
X59235000Y42245000I250000J0D01*
G01*
X60935000Y42245000D01*
G75*
G02*
X61185000Y41995000I0J-250000D01*
G01*
X61185000Y41295000D01*
G75*
G02*
X60935000Y41045000I-250000J0D01*
G01*
X59235000Y41045000D01*
G75*
G02*
X58985000Y41295000I0J250000D01*
G01*
G37*
G04 #@! TD*
G04 #@! TO.C,R40*
G36*
G01*
X16920000Y45957138D02*
X16920000Y46737138D01*
G75*
G02*
X16990000Y46807138I70000J0D01*
G01*
X17550000Y46807138D01*
G75*
G02*
X17620000Y46737138I0J-70000D01*
G01*
X17620000Y45957138D01*
G75*
G02*
X17550000Y45887138I-70000J0D01*
G01*
X16990000Y45887138D01*
G75*
G02*
X16920000Y45957138I0J70000D01*
G01*
G37*
G36*
G01*
X18520000Y45957138D02*
X18520000Y46737138D01*
G75*
G02*
X18590000Y46807138I70000J0D01*
G01*
X19150000Y46807138D01*
G75*
G02*
X19220000Y46737138I0J-70000D01*
G01*
X19220000Y45957138D01*
G75*
G02*
X19150000Y45887138I-70000J0D01*
G01*
X18590000Y45887138D01*
G75*
G02*
X18520000Y45957138I0J70000D01*
G01*
G37*
G04 #@! TD*
G04 #@! TO.C,R11*
G36*
G01*
X13620000Y55717020D02*
X13620000Y56967020D01*
G75*
G02*
X13720000Y57067020I100000J0D01*
G01*
X14520000Y57067020D01*
G75*
G02*
X14620000Y56967020I0J-100000D01*
G01*
X14620000Y55717020D01*
G75*
G02*
X14520000Y55617020I-100000J0D01*
G01*
X13720000Y55617020D01*
G75*
G02*
X13620000Y55717020I0J100000D01*
G01*
G37*
G36*
G01*
X15520022Y55717020D02*
X15520022Y56967020D01*
G75*
G02*
X15620022Y57067020I100000J0D01*
G01*
X16420022Y57067020D01*
G75*
G02*
X16520022Y56967020I0J-100000D01*
G01*
X16520022Y55717020D01*
G75*
G02*
X16420022Y55617020I-100000J0D01*
G01*
X15620022Y55617020D01*
G75*
G02*
X15520022Y55717020I0J100000D01*
G01*
G37*
G04 #@! TD*
G04 #@! TO.C,L1*
G36*
G01*
X92280000Y36268750D02*
X92280000Y36781250D01*
G75*
G02*
X92498750Y37000000I218750J0D01*
G01*
X92936250Y37000000D01*
G75*
G02*
X93155000Y36781250I0J-218750D01*
G01*
X93155000Y36268750D01*
G75*
G02*
X92936250Y36050000I-218750J0D01*
G01*
X92498750Y36050000D01*
G75*
G02*
X92280000Y36268750I0J218750D01*
G01*
G37*
G36*
G01*
X93855000Y36268750D02*
X93855000Y36781250D01*
G75*
G02*
X94073750Y37000000I218750J0D01*
G01*
X94511250Y37000000D01*
G75*
G02*
X94730000Y36781250I0J-218750D01*
G01*
X94730000Y36268750D01*
G75*
G02*
X94511250Y36050000I-218750J0D01*
G01*
X94073750Y36050000D01*
G75*
G02*
X93855000Y36268750I0J218750D01*
G01*
G37*
G04 #@! TD*
G04 #@! TO.C,F1*
G36*
G01*
X28634990Y65143733D02*
X27944990Y65143733D01*
G75*
G02*
X27714990Y65373733I0J230000D01*
G01*
X27714990Y66713733D01*
G75*
G02*
X27944990Y66943733I230000J0D01*
G01*
X28634990Y66943733D01*
G75*
G02*
X28864990Y66713733I0J-230000D01*
G01*
X28864990Y65373733D01*
G75*
G02*
X28634990Y65143733I-230000J0D01*
G01*
G37*
G36*
G01*
X31535010Y65143733D02*
X30845010Y65143733D01*
G75*
G02*
X30615010Y65373733I0J230000D01*
G01*
X30615010Y66713733D01*
G75*
G02*
X30845010Y66943733I230000J0D01*
G01*
X31535010Y66943733D01*
G75*
G02*
X31765010Y66713733I0J-230000D01*
G01*
X31765010Y65373733D01*
G75*
G02*
X31535010Y65143733I-230000J0D01*
G01*
G37*
G04 #@! TD*
G04 #@! TO.C,R42*
G36*
G01*
X16920000Y42059046D02*
X16920000Y42839046D01*
G75*
G02*
X16990000Y42909046I70000J0D01*
G01*
X17550000Y42909046D01*
G75*
G02*
X17620000Y42839046I0J-70000D01*
G01*
X17620000Y42059046D01*
G75*
G02*
X17550000Y41989046I-70000J0D01*
G01*
X16990000Y41989046D01*
G75*
G02*
X16920000Y42059046I0J70000D01*
G01*
G37*
G36*
G01*
X18520000Y42059046D02*
X18520000Y42839046D01*
G75*
G02*
X18590000Y42909046I70000J0D01*
G01*
X19150000Y42909046D01*
G75*
G02*
X19220000Y42839046I0J-70000D01*
G01*
X19220000Y42059046D01*
G75*
G02*
X19150000Y41989046I-70000J0D01*
G01*
X18590000Y41989046D01*
G75*
G02*
X18520000Y42059046I0J70000D01*
G01*
G37*
G04 #@! TD*
G04 #@! TO.C,Q1*
G36*
G01*
X58985000Y70440000D02*
X58985000Y71140000D01*
G75*
G02*
X59235000Y71390000I250000J0D01*
G01*
X60935000Y71390000D01*
G75*
G02*
X61185000Y71140000I0J-250000D01*
G01*
X61185000Y70440000D01*
G75*
G02*
X60935000Y70190000I-250000J0D01*
G01*
X59235000Y70190000D01*
G75*
G02*
X58985000Y70440000I0J250000D01*
G01*
G37*
G36*
G01*
X63185000Y68910000D02*
X63185000Y71160000D01*
G75*
G02*
X63435000Y71410000I250000J0D01*
G01*
X65985000Y71410000D01*
G75*
G02*
X66235000Y71160000I0J-250000D01*
G01*
X66235000Y68910000D01*
G75*
G02*
X65985000Y68660000I-250000J0D01*
G01*
X63435000Y68660000D01*
G75*
G02*
X63185000Y68910000I0J250000D01*
G01*
G37*
G36*
G01*
X63185000Y65860000D02*
X63185000Y68110000D01*
G75*
G02*
X63435000Y68360000I250000J0D01*
G01*
X65985000Y68360000D01*
G75*
G02*
X66235000Y68110000I0J-250000D01*
G01*
X66235000Y65860000D01*
G75*
G02*
X65985000Y65610000I-250000J0D01*
G01*
X63435000Y65610000D01*
G75*
G02*
X63185000Y65860000I0J250000D01*
G01*
G37*
G36*
G01*
X66535000Y68910000D02*
X66535000Y71160000D01*
G75*
G02*
X66785000Y71410000I250000J0D01*
G01*
X69335000Y71410000D01*
G75*
G02*
X69585000Y71160000I0J-250000D01*
G01*
X69585000Y68910000D01*
G75*
G02*
X69335000Y68660000I-250000J0D01*
G01*
X66785000Y68660000D01*
G75*
G02*
X66535000Y68910000I0J250000D01*
G01*
G37*
G36*
G01*
X66535000Y65860000D02*
X66535000Y68110000D01*
G75*
G02*
X66785000Y68360000I250000J0D01*
G01*
X69335000Y68360000D01*
G75*
G02*
X69585000Y68110000I0J-250000D01*
G01*
X69585000Y65860000D01*
G75*
G02*
X69335000Y65610000I-250000J0D01*
G01*
X66785000Y65610000D01*
G75*
G02*
X66535000Y65860000I0J250000D01*
G01*
G37*
G36*
G01*
X58985000Y65880000D02*
X58985000Y66580000D01*
G75*
G02*
X59235000Y66830000I250000J0D01*
G01*
X60935000Y66830000D01*
G75*
G02*
X61185000Y66580000I0J-250000D01*
G01*
X61185000Y65880000D01*
G75*
G02*
X60935000Y65630000I-250000J0D01*
G01*
X59235000Y65630000D01*
G75*
G02*
X58985000Y65880000I0J250000D01*
G01*
G37*
G04 #@! TD*
G04 #@! TO.C,U2*
G36*
G01*
X81825000Y36180000D02*
X81825000Y36480000D01*
G75*
G02*
X81975000Y36630000I150000J0D01*
G01*
X83625000Y36630000D01*
G75*
G02*
X83775000Y36480000I0J-150000D01*
G01*
X83775000Y36180000D01*
G75*
G02*
X83625000Y36030000I-150000J0D01*
G01*
X81975000Y36030000D01*
G75*
G02*
X81825000Y36180000I0J150000D01*
G01*
G37*
G36*
G01*
X81825000Y34910000D02*
X81825000Y35210000D01*
G75*
G02*
X81975000Y35360000I150000J0D01*
G01*
X83625000Y35360000D01*
G75*
G02*
X83775000Y35210000I0J-150000D01*
G01*
X83775000Y34910000D01*
G75*
G02*
X83625000Y34760000I-150000J0D01*
G01*
X81975000Y34760000D01*
G75*
G02*
X81825000Y34910000I0J150000D01*
G01*
G37*
G36*
G01*
X81825000Y33640000D02*
X81825000Y33940000D01*
G75*
G02*
X81975000Y34090000I150000J0D01*
G01*
X83625000Y34090000D01*
G75*
G02*
X83775000Y33940000I0J-150000D01*
G01*
X83775000Y33640000D01*
G75*
G02*
X83625000Y33490000I-150000J0D01*
G01*
X81975000Y33490000D01*
G75*
G02*
X81825000Y33640000I0J150000D01*
G01*
G37*
G36*
G01*
X81825000Y32370000D02*
X81825000Y32670000D01*
G75*
G02*
X81975000Y32820000I150000J0D01*
G01*
X83625000Y32820000D01*
G75*
G02*
X83775000Y32670000I0J-150000D01*
G01*
X83775000Y32370000D01*
G75*
G02*
X83625000Y32220000I-150000J0D01*
G01*
X81975000Y32220000D01*
G75*
G02*
X81825000Y32370000I0J150000D01*
G01*
G37*
G36*
G01*
X86775000Y32370000D02*
X86775000Y32670000D01*
G75*
G02*
X86925000Y32820000I150000J0D01*
G01*
X88575000Y32820000D01*
G75*
G02*
X88725000Y32670000I0J-150000D01*
G01*
X88725000Y32370000D01*
G75*
G02*
X88575000Y32220000I-150000J0D01*
G01*
X86925000Y32220000D01*
G75*
G02*
X86775000Y32370000I0J150000D01*
G01*
G37*
G36*
G01*
X86775000Y33640000D02*
X86775000Y33940000D01*
G75*
G02*
X86925000Y34090000I150000J0D01*
G01*
X88575000Y34090000D01*
G75*
G02*
X88725000Y33940000I0J-150000D01*
G01*
X88725000Y33640000D01*
G75*
G02*
X88575000Y33490000I-150000J0D01*
G01*
X86925000Y33490000D01*
G75*
G02*
X86775000Y33640000I0J150000D01*
G01*
G37*
G36*
G01*
X86775000Y34910000D02*
X86775000Y35210000D01*
G75*
G02*
X86925000Y35360000I150000J0D01*
G01*
X88575000Y35360000D01*
G75*
G02*
X88725000Y35210000I0J-150000D01*
G01*
X88725000Y34910000D01*
G75*
G02*
X88575000Y34760000I-150000J0D01*
G01*
X86925000Y34760000D01*
G75*
G02*
X86775000Y34910000I0J150000D01*
G01*
G37*
G36*
G01*
X86775000Y36180000D02*
X86775000Y36480000D01*
G75*
G02*
X86925000Y36630000I150000J0D01*
G01*
X88575000Y36630000D01*
G75*
G02*
X88725000Y36480000I0J-150000D01*
G01*
X88725000Y36180000D01*
G75*
G02*
X88575000Y36030000I-150000J0D01*
G01*
X86925000Y36030000D01*
G75*
G02*
X86775000Y36180000I0J150000D01*
G01*
G37*
G04 #@! TD*
G04 #@! TO.C,R52*
G36*
G01*
X36250000Y42059046D02*
X36250000Y42839046D01*
G75*
G02*
X36320000Y42909046I70000J0D01*
G01*
X36880000Y42909046D01*
G75*
G02*
X36950000Y42839046I0J-70000D01*
G01*
X36950000Y42059046D01*
G75*
G02*
X36880000Y41989046I-70000J0D01*
G01*
X36320000Y41989046D01*
G75*
G02*
X36250000Y42059046I0J70000D01*
G01*
G37*
G36*
G01*
X37850000Y42059046D02*
X37850000Y42839046D01*
G75*
G02*
X37920000Y42909046I70000J0D01*
G01*
X38480000Y42909046D01*
G75*
G02*
X38550000Y42839046I0J-70000D01*
G01*
X38550000Y42059046D01*
G75*
G02*
X38480000Y41989046I-70000J0D01*
G01*
X37920000Y41989046D01*
G75*
G02*
X37850000Y42059046I0J70000D01*
G01*
G37*
G04 #@! TD*
G04 #@! TO.C,Q7*
G36*
G01*
X104420000Y64130000D02*
X104420000Y64430000D01*
G75*
G02*
X104570000Y64580000I150000J0D01*
G01*
X105745000Y64580000D01*
G75*
G02*
X105895000Y64430000I0J-150000D01*
G01*
X105895000Y64130000D01*
G75*
G02*
X105745000Y63980000I-150000J0D01*
G01*
X104570000Y63980000D01*
G75*
G02*
X104420000Y64130000I0J150000D01*
G01*
G37*
G36*
G01*
X104420000Y62230000D02*
X104420000Y62530000D01*
G75*
G02*
X104570000Y62680000I150000J0D01*
G01*
X105745000Y62680000D01*
G75*
G02*
X105895000Y62530000I0J-150000D01*
G01*
X105895000Y62230000D01*
G75*
G02*
X105745000Y62080000I-150000J0D01*
G01*
X104570000Y62080000D01*
G75*
G02*
X104420000Y62230000I0J150000D01*
G01*
G37*
G36*
G01*
X106295000Y63180000D02*
X106295000Y63480000D01*
G75*
G02*
X106445000Y63630000I150000J0D01*
G01*
X107620000Y63630000D01*
G75*
G02*
X107770000Y63480000I0J-150000D01*
G01*
X107770000Y63180000D01*
G75*
G02*
X107620000Y63030000I-150000J0D01*
G01*
X106445000Y63030000D01*
G75*
G02*
X106295000Y63180000I0J150000D01*
G01*
G37*
G04 #@! TD*
G04 #@! TO.C,R8*
G36*
G01*
X13620000Y63225804D02*
X13620000Y64475804D01*
G75*
G02*
X13720000Y64575804I100000J0D01*
G01*
X14520000Y64575804D01*
G75*
G02*
X14620000Y64475804I0J-100000D01*
G01*
X14620000Y63225804D01*
G75*
G02*
X14520000Y63125804I-100000J0D01*
G01*
X13720000Y63125804D01*
G75*
G02*
X13620000Y63225804I0J100000D01*
G01*
G37*
G36*
G01*
X15520022Y63225804D02*
X15520022Y64475804D01*
G75*
G02*
X15620022Y64575804I100000J0D01*
G01*
X16420022Y64575804D01*
G75*
G02*
X16520022Y64475804I0J-100000D01*
G01*
X16520022Y63225804D01*
G75*
G02*
X16420022Y63125804I-100000J0D01*
G01*
X15620022Y63125804D01*
G75*
G02*
X15520022Y63225804I0J100000D01*
G01*
G37*
G04 #@! TD*
G04 #@! TO.C,R2*
G36*
G01*
X17520000Y64288092D02*
X17520000Y65068092D01*
G75*
G02*
X17590000Y65138092I70000J0D01*
G01*
X18150000Y65138092D01*
G75*
G02*
X18220000Y65068092I0J-70000D01*
G01*
X18220000Y64288092D01*
G75*
G02*
X18150000Y64218092I-70000J0D01*
G01*
X17590000Y64218092D01*
G75*
G02*
X17520000Y64288092I0J70000D01*
G01*
G37*
G36*
G01*
X19120000Y64288092D02*
X19120000Y65068092D01*
G75*
G02*
X19190000Y65138092I70000J0D01*
G01*
X19750000Y65138092D01*
G75*
G02*
X19820000Y65068092I0J-70000D01*
G01*
X19820000Y64288092D01*
G75*
G02*
X19750000Y64218092I-70000J0D01*
G01*
X19190000Y64218092D01*
G75*
G02*
X19120000Y64288092I0J70000D01*
G01*
G37*
G04 #@! TD*
G04 #@! TO.C,U3*
G36*
G01*
X81825000Y71080000D02*
X81825000Y71380000D01*
G75*
G02*
X81975000Y71530000I150000J0D01*
G01*
X83625000Y71530000D01*
G75*
G02*
X83775000Y71380000I0J-150000D01*
G01*
X83775000Y71080000D01*
G75*
G02*
X83625000Y70930000I-150000J0D01*
G01*
X81975000Y70930000D01*
G75*
G02*
X81825000Y71080000I0J150000D01*
G01*
G37*
G36*
G01*
X81825000Y69810000D02*
X81825000Y70110000D01*
G75*
G02*
X81975000Y70260000I150000J0D01*
G01*
X83625000Y70260000D01*
G75*
G02*
X83775000Y70110000I0J-150000D01*
G01*
X83775000Y69810000D01*
G75*
G02*
X83625000Y69660000I-150000J0D01*
G01*
X81975000Y69660000D01*
G75*
G02*
X81825000Y69810000I0J150000D01*
G01*
G37*
G36*
G01*
X81825000Y68540000D02*
X81825000Y68840000D01*
G75*
G02*
X81975000Y68990000I150000J0D01*
G01*
X83625000Y68990000D01*
G75*
G02*
X83775000Y68840000I0J-150000D01*
G01*
X83775000Y68540000D01*
G75*
G02*
X83625000Y68390000I-150000J0D01*
G01*
X81975000Y68390000D01*
G75*
G02*
X81825000Y68540000I0J150000D01*
G01*
G37*
G36*
G01*
X81825000Y67270000D02*
X81825000Y67570000D01*
G75*
G02*
X81975000Y67720000I150000J0D01*
G01*
X83625000Y67720000D01*
G75*
G02*
X83775000Y67570000I0J-150000D01*
G01*
X83775000Y67270000D01*
G75*
G02*
X83625000Y67120000I-150000J0D01*
G01*
X81975000Y67120000D01*
G75*
G02*
X81825000Y67270000I0J150000D01*
G01*
G37*
G36*
G01*
X86775000Y67270000D02*
X86775000Y67570000D01*
G75*
G02*
X86925000Y67720000I150000J0D01*
G01*
X88575000Y67720000D01*
G75*
G02*
X88725000Y67570000I0J-150000D01*
G01*
X88725000Y67270000D01*
G75*
G02*
X88575000Y67120000I-150000J0D01*
G01*
X86925000Y67120000D01*
G75*
G02*
X86775000Y67270000I0J150000D01*
G01*
G37*
G36*
G01*
X86775000Y68540000D02*
X86775000Y68840000D01*
G75*
G02*
X86925000Y68990000I150000J0D01*
G01*
X88575000Y68990000D01*
G75*
G02*
X88725000Y68840000I0J-150000D01*
G01*
X88725000Y68540000D01*
G75*
G02*
X88575000Y68390000I-150000J0D01*
G01*
X86925000Y68390000D01*
G75*
G02*
X86775000Y68540000I0J150000D01*
G01*
G37*
G36*
G01*
X86775000Y69810000D02*
X86775000Y70110000D01*
G75*
G02*
X86925000Y70260000I150000J0D01*
G01*
X88575000Y70260000D01*
G75*
G02*
X88725000Y70110000I0J-150000D01*
G01*
X88725000Y69810000D01*
G75*
G02*
X88575000Y69660000I-150000J0D01*
G01*
X86925000Y69660000D01*
G75*
G02*
X86775000Y69810000I0J150000D01*
G01*
G37*
G36*
G01*
X86775000Y71080000D02*
X86775000Y71380000D01*
G75*
G02*
X86925000Y71530000I150000J0D01*
G01*
X88575000Y71530000D01*
G75*
G02*
X88725000Y71380000I0J-150000D01*
G01*
X88725000Y71080000D01*
G75*
G02*
X88575000Y70930000I-150000J0D01*
G01*
X86925000Y70930000D01*
G75*
G02*
X86775000Y71080000I0J150000D01*
G01*
G37*
G04 #@! TD*
G04 #@! TO.C,U7*
G36*
G01*
X92275000Y29160000D02*
X92275000Y29460000D01*
G75*
G02*
X92425000Y29610000I150000J0D01*
G01*
X94075000Y29610000D01*
G75*
G02*
X94225000Y29460000I0J-150000D01*
G01*
X94225000Y29160000D01*
G75*
G02*
X94075000Y29010000I-150000J0D01*
G01*
X92425000Y29010000D01*
G75*
G02*
X92275000Y29160000I0J150000D01*
G01*
G37*
G36*
G01*
X92275000Y27890000D02*
X92275000Y28190000D01*
G75*
G02*
X92425000Y28340000I150000J0D01*
G01*
X94075000Y28340000D01*
G75*
G02*
X94225000Y28190000I0J-150000D01*
G01*
X94225000Y27890000D01*
G75*
G02*
X94075000Y27740000I-150000J0D01*
G01*
X92425000Y27740000D01*
G75*
G02*
X92275000Y27890000I0J150000D01*
G01*
G37*
G36*
G01*
X92275000Y26620000D02*
X92275000Y26920000D01*
G75*
G02*
X92425000Y27070000I150000J0D01*
G01*
X94075000Y27070000D01*
G75*
G02*
X94225000Y26920000I0J-150000D01*
G01*
X94225000Y26620000D01*
G75*
G02*
X94075000Y26470000I-150000J0D01*
G01*
X92425000Y26470000D01*
G75*
G02*
X92275000Y26620000I0J150000D01*
G01*
G37*
G36*
G01*
X92275000Y25350000D02*
X92275000Y25650000D01*
G75*
G02*
X92425000Y25800000I150000J0D01*
G01*
X94075000Y25800000D01*
G75*
G02*
X94225000Y25650000I0J-150000D01*
G01*
X94225000Y25350000D01*
G75*
G02*
X94075000Y25200000I-150000J0D01*
G01*
X92425000Y25200000D01*
G75*
G02*
X92275000Y25350000I0J150000D01*
G01*
G37*
G36*
G01*
X97225000Y25350000D02*
X97225000Y25650000D01*
G75*
G02*
X97375000Y25800000I150000J0D01*
G01*
X99025000Y25800000D01*
G75*
G02*
X99175000Y25650000I0J-150000D01*
G01*
X99175000Y25350000D01*
G75*
G02*
X99025000Y25200000I-150000J0D01*
G01*
X97375000Y25200000D01*
G75*
G02*
X97225000Y25350000I0J150000D01*
G01*
G37*
G36*
G01*
X97225000Y26620000D02*
X97225000Y26920000D01*
G75*
G02*
X97375000Y27070000I150000J0D01*
G01*
X99025000Y27070000D01*
G75*
G02*
X99175000Y26920000I0J-150000D01*
G01*
X99175000Y26620000D01*
G75*
G02*
X99025000Y26470000I-150000J0D01*
G01*
X97375000Y26470000D01*
G75*
G02*
X97225000Y26620000I0J150000D01*
G01*
G37*
G36*
G01*
X97225000Y27890000D02*
X97225000Y28190000D01*
G75*
G02*
X97375000Y28340000I150000J0D01*
G01*
X99025000Y28340000D01*
G75*
G02*
X99175000Y28190000I0J-150000D01*
G01*
X99175000Y27890000D01*
G75*
G02*
X99025000Y27740000I-150000J0D01*
G01*
X97375000Y27740000D01*
G75*
G02*
X97225000Y27890000I0J150000D01*
G01*
G37*
G36*
G01*
X97225000Y29160000D02*
X97225000Y29460000D01*
G75*
G02*
X97375000Y29610000I150000J0D01*
G01*
X99025000Y29610000D01*
G75*
G02*
X99175000Y29460000I0J-150000D01*
G01*
X99175000Y29160000D01*
G75*
G02*
X99025000Y29010000I-150000J0D01*
G01*
X97375000Y29010000D01*
G75*
G02*
X97225000Y29160000I0J150000D01*
G01*
G37*
G04 #@! TD*
G04 #@! TO.C,D4*
G36*
G01*
X21030000Y56173733D02*
X21030000Y57193733D01*
G75*
G02*
X21120000Y57283733I90000J0D01*
G01*
X21840000Y57283733D01*
G75*
G02*
X21930000Y57193733I0J-90000D01*
G01*
X21930000Y56173733D01*
G75*
G02*
X21840000Y56083733I-90000J0D01*
G01*
X21120000Y56083733D01*
G75*
G02*
X21030000Y56173733I0J90000D01*
G01*
G37*
G36*
G01*
X24330000Y56173733D02*
X24330000Y57193733D01*
G75*
G02*
X24420000Y57283733I90000J0D01*
G01*
X25140000Y57283733D01*
G75*
G02*
X25230000Y57193733I0J-90000D01*
G01*
X25230000Y56173733D01*
G75*
G02*
X25140000Y56083733I-90000J0D01*
G01*
X24420000Y56083733D01*
G75*
G02*
X24330000Y56173733I0J90000D01*
G01*
G37*
G04 #@! TD*
G04 #@! TO.C,U4*
G36*
G01*
X81825000Y64500000D02*
X81825000Y64800000D01*
G75*
G02*
X81975000Y64950000I150000J0D01*
G01*
X83625000Y64950000D01*
G75*
G02*
X83775000Y64800000I0J-150000D01*
G01*
X83775000Y64500000D01*
G75*
G02*
X83625000Y64350000I-150000J0D01*
G01*
X81975000Y64350000D01*
G75*
G02*
X81825000Y64500000I0J150000D01*
G01*
G37*
G36*
G01*
X81825000Y63230000D02*
X81825000Y63530000D01*
G75*
G02*
X81975000Y63680000I150000J0D01*
G01*
X83625000Y63680000D01*
G75*
G02*
X83775000Y63530000I0J-150000D01*
G01*
X83775000Y63230000D01*
G75*
G02*
X83625000Y63080000I-150000J0D01*
G01*
X81975000Y63080000D01*
G75*
G02*
X81825000Y63230000I0J150000D01*
G01*
G37*
G36*
G01*
X81825000Y61960000D02*
X81825000Y62260000D01*
G75*
G02*
X81975000Y62410000I150000J0D01*
G01*
X83625000Y62410000D01*
G75*
G02*
X83775000Y62260000I0J-150000D01*
G01*
X83775000Y61960000D01*
G75*
G02*
X83625000Y61810000I-150000J0D01*
G01*
X81975000Y61810000D01*
G75*
G02*
X81825000Y61960000I0J150000D01*
G01*
G37*
G36*
G01*
X81825000Y60690000D02*
X81825000Y60990000D01*
G75*
G02*
X81975000Y61140000I150000J0D01*
G01*
X83625000Y61140000D01*
G75*
G02*
X83775000Y60990000I0J-150000D01*
G01*
X83775000Y60690000D01*
G75*
G02*
X83625000Y60540000I-150000J0D01*
G01*
X81975000Y60540000D01*
G75*
G02*
X81825000Y60690000I0J150000D01*
G01*
G37*
G36*
G01*
X86775000Y60690000D02*
X86775000Y60990000D01*
G75*
G02*
X86925000Y61140000I150000J0D01*
G01*
X88575000Y61140000D01*
G75*
G02*
X88725000Y60990000I0J-150000D01*
G01*
X88725000Y60690000D01*
G75*
G02*
X88575000Y60540000I-150000J0D01*
G01*
X86925000Y60540000D01*
G75*
G02*
X86775000Y60690000I0J150000D01*
G01*
G37*
G36*
G01*
X86775000Y61960000D02*
X86775000Y62260000D01*
G75*
G02*
X86925000Y62410000I150000J0D01*
G01*
X88575000Y62410000D01*
G75*
G02*
X88725000Y62260000I0J-150000D01*
G01*
X88725000Y61960000D01*
G75*
G02*
X88575000Y61810000I-150000J0D01*
G01*
X86925000Y61810000D01*
G75*
G02*
X86775000Y61960000I0J150000D01*
G01*
G37*
G36*
G01*
X86775000Y63230000D02*
X86775000Y63530000D01*
G75*
G02*
X86925000Y63680000I150000J0D01*
G01*
X88575000Y63680000D01*
G75*
G02*
X88725000Y63530000I0J-150000D01*
G01*
X88725000Y63230000D01*
G75*
G02*
X88575000Y63080000I-150000J0D01*
G01*
X86925000Y63080000D01*
G75*
G02*
X86775000Y63230000I0J150000D01*
G01*
G37*
G36*
G01*
X86775000Y64500000D02*
X86775000Y64800000D01*
G75*
G02*
X86925000Y64950000I150000J0D01*
G01*
X88575000Y64950000D01*
G75*
G02*
X88725000Y64800000I0J-150000D01*
G01*
X88725000Y64500000D01*
G75*
G02*
X88575000Y64350000I-150000J0D01*
G01*
X86925000Y64350000D01*
G75*
G02*
X86775000Y64500000I0J150000D01*
G01*
G37*
G04 #@! TD*
G04 #@! TO.C,R19*
G36*
G01*
X36250000Y56491908D02*
X36250000Y57271908D01*
G75*
G02*
X36320000Y57341908I70000J0D01*
G01*
X36880000Y57341908D01*
G75*
G02*
X36950000Y57271908I0J-70000D01*
G01*
X36950000Y56491908D01*
G75*
G02*
X36880000Y56421908I-70000J0D01*
G01*
X36320000Y56421908D01*
G75*
G02*
X36250000Y56491908I0J70000D01*
G01*
G37*
G36*
G01*
X37850000Y56491908D02*
X37850000Y57271908D01*
G75*
G02*
X37920000Y57341908I70000J0D01*
G01*
X38480000Y57341908D01*
G75*
G02*
X38550000Y57271908I0J-70000D01*
G01*
X38550000Y56491908D01*
G75*
G02*
X38480000Y56421908I-70000J0D01*
G01*
X37920000Y56421908D01*
G75*
G02*
X37850000Y56491908I0J70000D01*
G01*
G37*
G04 #@! TD*
G04 #@! TO.C,R21*
G36*
G01*
X36250000Y52593816D02*
X36250000Y53373816D01*
G75*
G02*
X36320000Y53443816I70000J0D01*
G01*
X36880000Y53443816D01*
G75*
G02*
X36950000Y53373816I0J-70000D01*
G01*
X36950000Y52593816D01*
G75*
G02*
X36880000Y52523816I-70000J0D01*
G01*
X36320000Y52523816D01*
G75*
G02*
X36250000Y52593816I0J70000D01*
G01*
G37*
G36*
G01*
X37850000Y52593816D02*
X37850000Y53373816D01*
G75*
G02*
X37920000Y53443816I70000J0D01*
G01*
X38480000Y53443816D01*
G75*
G02*
X38550000Y53373816I0J-70000D01*
G01*
X38550000Y52593816D01*
G75*
G02*
X38480000Y52523816I-70000J0D01*
G01*
X37920000Y52523816D01*
G75*
G02*
X37850000Y52593816I0J70000D01*
G01*
G37*
G04 #@! TD*
G04 #@! TO.C,R41*
G36*
G01*
X16920000Y44008092D02*
X16920000Y44788092D01*
G75*
G02*
X16990000Y44858092I70000J0D01*
G01*
X17550000Y44858092D01*
G75*
G02*
X17620000Y44788092I0J-70000D01*
G01*
X17620000Y44008092D01*
G75*
G02*
X17550000Y43938092I-70000J0D01*
G01*
X16990000Y43938092D01*
G75*
G02*
X16920000Y44008092I0J70000D01*
G01*
G37*
G36*
G01*
X18520000Y44008092D02*
X18520000Y44788092D01*
G75*
G02*
X18590000Y44858092I70000J0D01*
G01*
X19150000Y44858092D01*
G75*
G02*
X19220000Y44788092I0J-70000D01*
G01*
X19220000Y44008092D01*
G75*
G02*
X19150000Y43938092I-70000J0D01*
G01*
X18590000Y43938092D01*
G75*
G02*
X18520000Y44008092I0J70000D01*
G01*
G37*
G04 #@! TD*
G04 #@! TO.C,R32*
G36*
G01*
X71130000Y49250000D02*
X71130000Y52100000D01*
G75*
G02*
X71380000Y52350000I250000J0D01*
G01*
X72105000Y52350000D01*
G75*
G02*
X72355000Y52100000I0J-250000D01*
G01*
X72355000Y49250000D01*
G75*
G02*
X72105000Y49000000I-250000J0D01*
G01*
X71380000Y49000000D01*
G75*
G02*
X71130000Y49250000I0J250000D01*
G01*
G37*
G36*
G01*
X77055000Y49250000D02*
X77055000Y52100000D01*
G75*
G02*
X77305000Y52350000I250000J0D01*
G01*
X78030000Y52350000D01*
G75*
G02*
X78280000Y52100000I0J-250000D01*
G01*
X78280000Y49250000D01*
G75*
G02*
X78030000Y49000000I-250000J0D01*
G01*
X77305000Y49000000D01*
G75*
G02*
X77055000Y49250000I0J250000D01*
G01*
G37*
G04 #@! TD*
G04 #@! TO.C,R13*
G36*
G01*
X36250000Y66237138D02*
X36250000Y67017138D01*
G75*
G02*
X36320000Y67087138I70000J0D01*
G01*
X36880000Y67087138D01*
G75*
G02*
X36950000Y67017138I0J-70000D01*
G01*
X36950000Y66237138D01*
G75*
G02*
X36880000Y66167138I-70000J0D01*
G01*
X36320000Y66167138D01*
G75*
G02*
X36250000Y66237138I0J70000D01*
G01*
G37*
G36*
G01*
X37850000Y66237138D02*
X37850000Y67017138D01*
G75*
G02*
X37920000Y67087138I70000J0D01*
G01*
X38480000Y67087138D01*
G75*
G02*
X38550000Y67017138I0J-70000D01*
G01*
X38550000Y66237138D01*
G75*
G02*
X38480000Y66167138I-70000J0D01*
G01*
X37920000Y66167138D01*
G75*
G02*
X37850000Y66237138I0J70000D01*
G01*
G37*
G04 #@! TD*
G04 #@! TO.C,R18*
G36*
G01*
X36250000Y58440954D02*
X36250000Y59220954D01*
G75*
G02*
X36320000Y59290954I70000J0D01*
G01*
X36880000Y59290954D01*
G75*
G02*
X36950000Y59220954I0J-70000D01*
G01*
X36950000Y58440954D01*
G75*
G02*
X36880000Y58370954I-70000J0D01*
G01*
X36320000Y58370954D01*
G75*
G02*
X36250000Y58440954I0J70000D01*
G01*
G37*
G36*
G01*
X37850000Y58440954D02*
X37850000Y59220954D01*
G75*
G02*
X37920000Y59290954I70000J0D01*
G01*
X38480000Y59290954D01*
G75*
G02*
X38550000Y59220954I0J-70000D01*
G01*
X38550000Y58440954D01*
G75*
G02*
X38480000Y58370954I-70000J0D01*
G01*
X37920000Y58370954D01*
G75*
G02*
X37850000Y58440954I0J70000D01*
G01*
G37*
G04 #@! TD*
G04 #@! TO.C,U8*
G36*
G01*
X92275000Y42760000D02*
X92275000Y43060000D01*
G75*
G02*
X92425000Y43210000I150000J0D01*
G01*
X94075000Y43210000D01*
G75*
G02*
X94225000Y43060000I0J-150000D01*
G01*
X94225000Y42760000D01*
G75*
G02*
X94075000Y42610000I-150000J0D01*
G01*
X92425000Y42610000D01*
G75*
G02*
X92275000Y42760000I0J150000D01*
G01*
G37*
G36*
G01*
X92275000Y41490000D02*
X92275000Y41790000D01*
G75*
G02*
X92425000Y41940000I150000J0D01*
G01*
X94075000Y41940000D01*
G75*
G02*
X94225000Y41790000I0J-150000D01*
G01*
X94225000Y41490000D01*
G75*
G02*
X94075000Y41340000I-150000J0D01*
G01*
X92425000Y41340000D01*
G75*
G02*
X92275000Y41490000I0J150000D01*
G01*
G37*
G36*
G01*
X92275000Y40220000D02*
X92275000Y40520000D01*
G75*
G02*
X92425000Y40670000I150000J0D01*
G01*
X94075000Y40670000D01*
G75*
G02*
X94225000Y40520000I0J-150000D01*
G01*
X94225000Y40220000D01*
G75*
G02*
X94075000Y40070000I-150000J0D01*
G01*
X92425000Y40070000D01*
G75*
G02*
X92275000Y40220000I0J150000D01*
G01*
G37*
G36*
G01*
X92275000Y38950000D02*
X92275000Y39250000D01*
G75*
G02*
X92425000Y39400000I150000J0D01*
G01*
X94075000Y39400000D01*
G75*
G02*
X94225000Y39250000I0J-150000D01*
G01*
X94225000Y38950000D01*
G75*
G02*
X94075000Y38800000I-150000J0D01*
G01*
X92425000Y38800000D01*
G75*
G02*
X92275000Y38950000I0J150000D01*
G01*
G37*
G36*
G01*
X97225000Y38950000D02*
X97225000Y39250000D01*
G75*
G02*
X97375000Y39400000I150000J0D01*
G01*
X99025000Y39400000D01*
G75*
G02*
X99175000Y39250000I0J-150000D01*
G01*
X99175000Y38950000D01*
G75*
G02*
X99025000Y38800000I-150000J0D01*
G01*
X97375000Y38800000D01*
G75*
G02*
X97225000Y38950000I0J150000D01*
G01*
G37*
G36*
G01*
X97225000Y40220000D02*
X97225000Y40520000D01*
G75*
G02*
X97375000Y40670000I150000J0D01*
G01*
X99025000Y40670000D01*
G75*
G02*
X99175000Y40520000I0J-150000D01*
G01*
X99175000Y40220000D01*
G75*
G02*
X99025000Y40070000I-150000J0D01*
G01*
X97375000Y40070000D01*
G75*
G02*
X97225000Y40220000I0J150000D01*
G01*
G37*
G36*
G01*
X97225000Y41490000D02*
X97225000Y41790000D01*
G75*
G02*
X97375000Y41940000I150000J0D01*
G01*
X99025000Y41940000D01*
G75*
G02*
X99175000Y41790000I0J-150000D01*
G01*
X99175000Y41490000D01*
G75*
G02*
X99025000Y41340000I-150000J0D01*
G01*
X97375000Y41340000D01*
G75*
G02*
X97225000Y41490000I0J150000D01*
G01*
G37*
G36*
G01*
X97225000Y42760000D02*
X97225000Y43060000D01*
G75*
G02*
X97375000Y43210000I150000J0D01*
G01*
X99025000Y43210000D01*
G75*
G02*
X99175000Y43060000I0J-150000D01*
G01*
X99175000Y42760000D01*
G75*
G02*
X99025000Y42610000I-150000J0D01*
G01*
X97375000Y42610000D01*
G75*
G02*
X97225000Y42760000I0J150000D01*
G01*
G37*
G04 #@! TD*
G04 #@! TO.C,D6*
G36*
G01*
X96280000Y36180000D02*
X96280000Y36480000D01*
G75*
G02*
X96430000Y36630000I150000J0D01*
G01*
X97605000Y36630000D01*
G75*
G02*
X97755000Y36480000I0J-150000D01*
G01*
X97755000Y36180000D01*
G75*
G02*
X97605000Y36030000I-150000J0D01*
G01*
X96430000Y36030000D01*
G75*
G02*
X96280000Y36180000I0J150000D01*
G01*
G37*
G36*
G01*
X96280000Y34280000D02*
X96280000Y34580000D01*
G75*
G02*
X96430000Y34730000I150000J0D01*
G01*
X97605000Y34730000D01*
G75*
G02*
X97755000Y34580000I0J-150000D01*
G01*
X97755000Y34280000D01*
G75*
G02*
X97605000Y34130000I-150000J0D01*
G01*
X96430000Y34130000D01*
G75*
G02*
X96280000Y34280000I0J150000D01*
G01*
G37*
G36*
G01*
X98155000Y35230000D02*
X98155000Y35530000D01*
G75*
G02*
X98305000Y35680000I150000J0D01*
G01*
X99480000Y35680000D01*
G75*
G02*
X99630000Y35530000I0J-150000D01*
G01*
X99630000Y35230000D01*
G75*
G02*
X99480000Y35080000I-150000J0D01*
G01*
X98305000Y35080000D01*
G75*
G02*
X98155000Y35230000I0J150000D01*
G01*
G37*
G04 #@! TD*
G04 #@! TO.C,D5*
G36*
G01*
X92320000Y54755000D02*
X92320000Y56055000D01*
G75*
G02*
X92570000Y56305000I250000J0D01*
G01*
X94570000Y56305000D01*
G75*
G02*
X94820000Y56055000I0J-250000D01*
G01*
X94820000Y54755000D01*
G75*
G02*
X94570000Y54505000I-250000J0D01*
G01*
X92570000Y54505000D01*
G75*
G02*
X92320000Y54755000I0J250000D01*
G01*
G37*
G36*
G01*
X96320000Y54755000D02*
X96320000Y56055000D01*
G75*
G02*
X96570000Y56305000I250000J0D01*
G01*
X98570000Y56305000D01*
G75*
G02*
X98820000Y56055000I0J-250000D01*
G01*
X98820000Y54755000D01*
G75*
G02*
X98570000Y54505000I-250000J0D01*
G01*
X96570000Y54505000D01*
G75*
G02*
X96320000Y54755000I0J250000D01*
G01*
G37*
G04 #@! TD*
G04 #@! TO.C,Q5*
G36*
G01*
X58985000Y37660000D02*
X58985000Y38360000D01*
G75*
G02*
X59235000Y38610000I250000J0D01*
G01*
X60935000Y38610000D01*
G75*
G02*
X61185000Y38360000I0J-250000D01*
G01*
X61185000Y37660000D01*
G75*
G02*
X60935000Y37410000I-250000J0D01*
G01*
X59235000Y37410000D01*
G75*
G02*
X58985000Y37660000I0J250000D01*
G01*
G37*
G36*
G01*
X63185000Y36130000D02*
X63185000Y38380000D01*
G75*
G02*
X63435000Y38630000I250000J0D01*
G01*
X65985000Y38630000D01*
G75*
G02*
X66235000Y38380000I0J-250000D01*
G01*
X66235000Y36130000D01*
G75*
G02*
X65985000Y35880000I-250000J0D01*
G01*
X63435000Y35880000D01*
G75*
G02*
X63185000Y36130000I0J250000D01*
G01*
G37*
G36*
G01*
X63185000Y33080000D02*
X63185000Y35330000D01*
G75*
G02*
X63435000Y35580000I250000J0D01*
G01*
X65985000Y35580000D01*
G75*
G02*
X66235000Y35330000I0J-250000D01*
G01*
X66235000Y33080000D01*
G75*
G02*
X65985000Y32830000I-250000J0D01*
G01*
X63435000Y32830000D01*
G75*
G02*
X63185000Y33080000I0J250000D01*
G01*
G37*
G36*
G01*
X66535000Y36130000D02*
X66535000Y38380000D01*
G75*
G02*
X66785000Y38630000I250000J0D01*
G01*
X69335000Y38630000D01*
G75*
G02*
X69585000Y38380000I0J-250000D01*
G01*
X69585000Y36130000D01*
G75*
G02*
X69335000Y35880000I-250000J0D01*
G01*
X66785000Y35880000D01*
G75*
G02*
X66535000Y36130000I0J250000D01*
G01*
G37*
G36*
G01*
X66535000Y33080000D02*
X66535000Y35330000D01*
G75*
G02*
X66785000Y35580000I250000J0D01*
G01*
X69335000Y35580000D01*
G75*
G02*
X69585000Y35330000I0J-250000D01*
G01*
X69585000Y33080000D01*
G75*
G02*
X69335000Y32830000I-250000J0D01*
G01*
X66785000Y32830000D01*
G75*
G02*
X66535000Y33080000I0J250000D01*
G01*
G37*
G36*
G01*
X58985000Y33100000D02*
X58985000Y33800000D01*
G75*
G02*
X59235000Y34050000I250000J0D01*
G01*
X60935000Y34050000D01*
G75*
G02*
X61185000Y33800000I0J-250000D01*
G01*
X61185000Y33100000D01*
G75*
G02*
X60935000Y32850000I-250000J0D01*
G01*
X59235000Y32850000D01*
G75*
G02*
X58985000Y33100000I0J250000D01*
G01*
G37*
G04 #@! TD*
G04 #@! TO.C,R1*
G36*
G01*
X17520000Y66237138D02*
X17520000Y67017138D01*
G75*
G02*
X17590000Y67087138I70000J0D01*
G01*
X18150000Y67087138D01*
G75*
G02*
X18220000Y67017138I0J-70000D01*
G01*
X18220000Y66237138D01*
G75*
G02*
X18150000Y66167138I-70000J0D01*
G01*
X17590000Y66167138D01*
G75*
G02*
X17520000Y66237138I0J70000D01*
G01*
G37*
G36*
G01*
X19120000Y66237138D02*
X19120000Y67017138D01*
G75*
G02*
X19190000Y67087138I70000J0D01*
G01*
X19750000Y67087138D01*
G75*
G02*
X19820000Y67017138I0J-70000D01*
G01*
X19820000Y66237138D01*
G75*
G02*
X19750000Y66167138I-70000J0D01*
G01*
X19190000Y66167138D01*
G75*
G02*
X19120000Y66237138I0J70000D01*
G01*
G37*
G04 #@! TD*
G04 #@! TO.C,R39*
G36*
G01*
X13620000Y36211908D02*
X13620000Y36991908D01*
G75*
G02*
X13690000Y37061908I70000J0D01*
G01*
X14250000Y37061908D01*
G75*
G02*
X14320000Y36991908I0J-70000D01*
G01*
X14320000Y36211908D01*
G75*
G02*
X14250000Y36141908I-70000J0D01*
G01*
X13690000Y36141908D01*
G75*
G02*
X13620000Y36211908I0J70000D01*
G01*
G37*
G36*
G01*
X15220000Y36211908D02*
X15220000Y36991908D01*
G75*
G02*
X15290000Y37061908I70000J0D01*
G01*
X15850000Y37061908D01*
G75*
G02*
X15920000Y36991908I0J-70000D01*
G01*
X15920000Y36211908D01*
G75*
G02*
X15850000Y36141908I-70000J0D01*
G01*
X15290000Y36141908D01*
G75*
G02*
X15220000Y36211908I0J70000D01*
G01*
G37*
G04 #@! TD*
G04 #@! TO.C,U6*
G36*
G01*
X81825000Y51340000D02*
X81825000Y51640000D01*
G75*
G02*
X81975000Y51790000I150000J0D01*
G01*
X83625000Y51790000D01*
G75*
G02*
X83775000Y51640000I0J-150000D01*
G01*
X83775000Y51340000D01*
G75*
G02*
X83625000Y51190000I-150000J0D01*
G01*
X81975000Y51190000D01*
G75*
G02*
X81825000Y51340000I0J150000D01*
G01*
G37*
G36*
G01*
X81825000Y50070000D02*
X81825000Y50370000D01*
G75*
G02*
X81975000Y50520000I150000J0D01*
G01*
X83625000Y50520000D01*
G75*
G02*
X83775000Y50370000I0J-150000D01*
G01*
X83775000Y50070000D01*
G75*
G02*
X83625000Y49920000I-150000J0D01*
G01*
X81975000Y49920000D01*
G75*
G02*
X81825000Y50070000I0J150000D01*
G01*
G37*
G36*
G01*
X81825000Y48800000D02*
X81825000Y49100000D01*
G75*
G02*
X81975000Y49250000I150000J0D01*
G01*
X83625000Y49250000D01*
G75*
G02*
X83775000Y49100000I0J-150000D01*
G01*
X83775000Y48800000D01*
G75*
G02*
X83625000Y48650000I-150000J0D01*
G01*
X81975000Y48650000D01*
G75*
G02*
X81825000Y48800000I0J150000D01*
G01*
G37*
G36*
G01*
X81825000Y47530000D02*
X81825000Y47830000D01*
G75*
G02*
X81975000Y47980000I150000J0D01*
G01*
X83625000Y47980000D01*
G75*
G02*
X83775000Y47830000I0J-150000D01*
G01*
X83775000Y47530000D01*
G75*
G02*
X83625000Y47380000I-150000J0D01*
G01*
X81975000Y47380000D01*
G75*
G02*
X81825000Y47530000I0J150000D01*
G01*
G37*
G36*
G01*
X86775000Y47530000D02*
X86775000Y47830000D01*
G75*
G02*
X86925000Y47980000I150000J0D01*
G01*
X88575000Y47980000D01*
G75*
G02*
X88725000Y47830000I0J-150000D01*
G01*
X88725000Y47530000D01*
G75*
G02*
X88575000Y47380000I-150000J0D01*
G01*
X86925000Y47380000D01*
G75*
G02*
X86775000Y47530000I0J150000D01*
G01*
G37*
G36*
G01*
X86775000Y48800000D02*
X86775000Y49100000D01*
G75*
G02*
X86925000Y49250000I150000J0D01*
G01*
X88575000Y49250000D01*
G75*
G02*
X88725000Y49100000I0J-150000D01*
G01*
X88725000Y48800000D01*
G75*
G02*
X88575000Y48650000I-150000J0D01*
G01*
X86925000Y48650000D01*
G75*
G02*
X86775000Y48800000I0J150000D01*
G01*
G37*
G36*
G01*
X86775000Y50070000D02*
X86775000Y50370000D01*
G75*
G02*
X86925000Y50520000I150000J0D01*
G01*
X88575000Y50520000D01*
G75*
G02*
X88725000Y50370000I0J-150000D01*
G01*
X88725000Y50070000D01*
G75*
G02*
X88575000Y49920000I-150000J0D01*
G01*
X86925000Y49920000D01*
G75*
G02*
X86775000Y50070000I0J150000D01*
G01*
G37*
G36*
G01*
X86775000Y51340000D02*
X86775000Y51640000D01*
G75*
G02*
X86925000Y51790000I150000J0D01*
G01*
X88575000Y51790000D01*
G75*
G02*
X88725000Y51640000I0J-150000D01*
G01*
X88725000Y51340000D01*
G75*
G02*
X88575000Y51190000I-150000J0D01*
G01*
X86925000Y51190000D01*
G75*
G02*
X86775000Y51340000I0J150000D01*
G01*
G37*
G04 #@! TD*
G04 #@! TO.C,Q6*
G36*
G01*
X58985000Y29465000D02*
X58985000Y30165000D01*
G75*
G02*
X59235000Y30415000I250000J0D01*
G01*
X60935000Y30415000D01*
G75*
G02*
X61185000Y30165000I0J-250000D01*
G01*
X61185000Y29465000D01*
G75*
G02*
X60935000Y29215000I-250000J0D01*
G01*
X59235000Y29215000D01*
G75*
G02*
X58985000Y29465000I0J250000D01*
G01*
G37*
G36*
G01*
X63185000Y27935000D02*
X63185000Y30185000D01*
G75*
G02*
X63435000Y30435000I250000J0D01*
G01*
X65985000Y30435000D01*
G75*
G02*
X66235000Y30185000I0J-250000D01*
G01*
X66235000Y27935000D01*
G75*
G02*
X65985000Y27685000I-250000J0D01*
G01*
X63435000Y27685000D01*
G75*
G02*
X63185000Y27935000I0J250000D01*
G01*
G37*
G36*
G01*
X63185000Y24885000D02*
X63185000Y27135000D01*
G75*
G02*
X63435000Y27385000I250000J0D01*
G01*
X65985000Y27385000D01*
G75*
G02*
X66235000Y27135000I0J-250000D01*
G01*
X66235000Y24885000D01*
G75*
G02*
X65985000Y24635000I-250000J0D01*
G01*
X63435000Y24635000D01*
G75*
G02*
X63185000Y24885000I0J250000D01*
G01*
G37*
G36*
G01*
X66535000Y27935000D02*
X66535000Y30185000D01*
G75*
G02*
X66785000Y30435000I250000J0D01*
G01*
X69335000Y30435000D01*
G75*
G02*
X69585000Y30185000I0J-250000D01*
G01*
X69585000Y27935000D01*
G75*
G02*
X69335000Y27685000I-250000J0D01*
G01*
X66785000Y27685000D01*
G75*
G02*
X66535000Y27935000I0J250000D01*
G01*
G37*
G36*
G01*
X66535000Y24885000D02*
X66535000Y27135000D01*
G75*
G02*
X66785000Y27385000I250000J0D01*
G01*
X69335000Y27385000D01*
G75*
G02*
X69585000Y27135000I0J-250000D01*
G01*
X69585000Y24885000D01*
G75*
G02*
X69335000Y24635000I-250000J0D01*
G01*
X66785000Y24635000D01*
G75*
G02*
X66535000Y24885000I0J250000D01*
G01*
G37*
G36*
G01*
X58985000Y24905000D02*
X58985000Y25605000D01*
G75*
G02*
X59235000Y25855000I250000J0D01*
G01*
X60935000Y25855000D01*
G75*
G02*
X61185000Y25605000I0J-250000D01*
G01*
X61185000Y24905000D01*
G75*
G02*
X60935000Y24655000I-250000J0D01*
G01*
X59235000Y24655000D01*
G75*
G02*
X58985000Y24905000I0J250000D01*
G01*
G37*
G04 #@! TD*
G04 #@! TO.C,R50*
G36*
G01*
X36250000Y45957138D02*
X36250000Y46737138D01*
G75*
G02*
X36320000Y46807138I70000J0D01*
G01*
X36880000Y46807138D01*
G75*
G02*
X36950000Y46737138I0J-70000D01*
G01*
X36950000Y45957138D01*
G75*
G02*
X36880000Y45887138I-70000J0D01*
G01*
X36320000Y45887138D01*
G75*
G02*
X36250000Y45957138I0J70000D01*
G01*
G37*
G36*
G01*
X37850000Y45957138D02*
X37850000Y46737138D01*
G75*
G02*
X37920000Y46807138I70000J0D01*
G01*
X38480000Y46807138D01*
G75*
G02*
X38550000Y46737138I0J-70000D01*
G01*
X38550000Y45957138D01*
G75*
G02*
X38480000Y45887138I-70000J0D01*
G01*
X37920000Y45887138D01*
G75*
G02*
X37850000Y45957138I0J70000D01*
G01*
G37*
G04 #@! TD*
G04 #@! TO.C,R28*
G36*
G01*
X25520000Y40110000D02*
X25520000Y40890000D01*
G75*
G02*
X25590000Y40960000I70000J0D01*
G01*
X26150000Y40960000D01*
G75*
G02*
X26220000Y40890000I0J-70000D01*
G01*
X26220000Y40110000D01*
G75*
G02*
X26150000Y40040000I-70000J0D01*
G01*
X25590000Y40040000D01*
G75*
G02*
X25520000Y40110000I0J70000D01*
G01*
G37*
G36*
G01*
X27120000Y40110000D02*
X27120000Y40890000D01*
G75*
G02*
X27190000Y40960000I70000J0D01*
G01*
X27750000Y40960000D01*
G75*
G02*
X27820000Y40890000I0J-70000D01*
G01*
X27820000Y40110000D01*
G75*
G02*
X27750000Y40040000I-70000J0D01*
G01*
X27190000Y40040000D01*
G75*
G02*
X27120000Y40110000I0J70000D01*
G01*
G37*
G04 #@! TD*
G04 #@! TO.C,R9*
G36*
G01*
X13620000Y60722876D02*
X13620000Y61972876D01*
G75*
G02*
X13720000Y62072876I100000J0D01*
G01*
X14520000Y62072876D01*
G75*
G02*
X14620000Y61972876I0J-100000D01*
G01*
X14620000Y60722876D01*
G75*
G02*
X14520000Y60622876I-100000J0D01*
G01*
X13720000Y60622876D01*
G75*
G02*
X13620000Y60722876I0J100000D01*
G01*
G37*
G36*
G01*
X15520022Y60722876D02*
X15520022Y61972876D01*
G75*
G02*
X15620022Y62072876I100000J0D01*
G01*
X16420022Y62072876D01*
G75*
G02*
X16520022Y61972876I0J-100000D01*
G01*
X16520022Y60722876D01*
G75*
G02*
X16420022Y60622876I-100000J0D01*
G01*
X15620022Y60622876D01*
G75*
G02*
X15520022Y60722876I0J100000D01*
G01*
G37*
G04 #@! TD*
G04 #@! TO.C,R29*
G36*
G01*
X25520000Y38160954D02*
X25520000Y38940954D01*
G75*
G02*
X25590000Y39010954I70000J0D01*
G01*
X26150000Y39010954D01*
G75*
G02*
X26220000Y38940954I0J-70000D01*
G01*
X26220000Y38160954D01*
G75*
G02*
X26150000Y38090954I-70000J0D01*
G01*
X25590000Y38090954D01*
G75*
G02*
X25520000Y38160954I0J70000D01*
G01*
G37*
G36*
G01*
X27120000Y38160954D02*
X27120000Y38940954D01*
G75*
G02*
X27190000Y39010954I70000J0D01*
G01*
X27750000Y39010954D01*
G75*
G02*
X27820000Y38940954I0J-70000D01*
G01*
X27820000Y38160954D01*
G75*
G02*
X27750000Y38090954I-70000J0D01*
G01*
X27190000Y38090954D01*
G75*
G02*
X27120000Y38160954I0J70000D01*
G01*
G37*
G04 #@! TD*
G04 #@! TO.C,R16*
G36*
G01*
X36250000Y62339046D02*
X36250000Y63119046D01*
G75*
G02*
X36320000Y63189046I70000J0D01*
G01*
X36880000Y63189046D01*
G75*
G02*
X36950000Y63119046I0J-70000D01*
G01*
X36950000Y62339046D01*
G75*
G02*
X36880000Y62269046I-70000J0D01*
G01*
X36320000Y62269046D01*
G75*
G02*
X36250000Y62339046I0J70000D01*
G01*
G37*
G36*
G01*
X37850000Y62339046D02*
X37850000Y63119046D01*
G75*
G02*
X37920000Y63189046I70000J0D01*
G01*
X38480000Y63189046D01*
G75*
G02*
X38550000Y63119046I0J-70000D01*
G01*
X38550000Y62339046D01*
G75*
G02*
X38480000Y62269046I-70000J0D01*
G01*
X37920000Y62269046D01*
G75*
G02*
X37850000Y62339046I0J70000D01*
G01*
G37*
G04 #@! TD*
G04 #@! TO.C,D1*
G36*
G01*
X21030000Y65533733D02*
X21030000Y66553733D01*
G75*
G02*
X21120000Y66643733I90000J0D01*
G01*
X21840000Y66643733D01*
G75*
G02*
X21930000Y66553733I0J-90000D01*
G01*
X21930000Y65533733D01*
G75*
G02*
X21840000Y65443733I-90000J0D01*
G01*
X21120000Y65443733D01*
G75*
G02*
X21030000Y65533733I0J90000D01*
G01*
G37*
G36*
G01*
X24330000Y65533733D02*
X24330000Y66553733D01*
G75*
G02*
X24420000Y66643733I90000J0D01*
G01*
X25140000Y66643733D01*
G75*
G02*
X25230000Y66553733I0J-90000D01*
G01*
X25230000Y65533733D01*
G75*
G02*
X25140000Y65443733I-90000J0D01*
G01*
X24420000Y65443733D01*
G75*
G02*
X24330000Y65533733I0J90000D01*
G01*
G37*
G04 #@! TD*
G04 #@! TO.C,R12*
G36*
G01*
X13620000Y53214092D02*
X13620000Y54464092D01*
G75*
G02*
X13720000Y54564092I100000J0D01*
G01*
X14520000Y54564092D01*
G75*
G02*
X14620000Y54464092I0J-100000D01*
G01*
X14620000Y53214092D01*
G75*
G02*
X14520000Y53114092I-100000J0D01*
G01*
X13720000Y53114092D01*
G75*
G02*
X13620000Y53214092I0J100000D01*
G01*
G37*
G36*
G01*
X15520022Y53214092D02*
X15520022Y54464092D01*
G75*
G02*
X15620022Y54564092I100000J0D01*
G01*
X16420022Y54564092D01*
G75*
G02*
X16520022Y54464092I0J-100000D01*
G01*
X16520022Y53214092D01*
G75*
G02*
X16420022Y53114092I-100000J0D01*
G01*
X15620022Y53114092D01*
G75*
G02*
X15520022Y53214092I0J100000D01*
G01*
G37*
G04 #@! TD*
G04 #@! TO.C,F4*
G36*
G01*
X71140000Y41828750D02*
X71140000Y42341250D01*
G75*
G02*
X71358750Y42560000I218750J0D01*
G01*
X71796250Y42560000D01*
G75*
G02*
X72015000Y42341250I0J-218750D01*
G01*
X72015000Y41828750D01*
G75*
G02*
X71796250Y41610000I-218750J0D01*
G01*
X71358750Y41610000D01*
G75*
G02*
X71140000Y41828750I0J218750D01*
G01*
G37*
G36*
G01*
X72715000Y41828750D02*
X72715000Y42341250D01*
G75*
G02*
X72933750Y42560000I218750J0D01*
G01*
X73371250Y42560000D01*
G75*
G02*
X73590000Y42341250I0J-218750D01*
G01*
X73590000Y41828750D01*
G75*
G02*
X73371250Y41610000I-218750J0D01*
G01*
X72933750Y41610000D01*
G75*
G02*
X72715000Y41828750I0J218750D01*
G01*
G37*
G04 #@! TD*
G04 #@! TO.C,R53*
G36*
G01*
X36250000Y40110000D02*
X36250000Y40890000D01*
G75*
G02*
X36320000Y40960000I70000J0D01*
G01*
X36880000Y40960000D01*
G75*
G02*
X36950000Y40890000I0J-70000D01*
G01*
X36950000Y40110000D01*
G75*
G02*
X36880000Y40040000I-70000J0D01*
G01*
X36320000Y40040000D01*
G75*
G02*
X36250000Y40110000I0J70000D01*
G01*
G37*
G36*
G01*
X37850000Y40110000D02*
X37850000Y40890000D01*
G75*
G02*
X37920000Y40960000I70000J0D01*
G01*
X38480000Y40960000D01*
G75*
G02*
X38550000Y40890000I0J-70000D01*
G01*
X38550000Y40110000D01*
G75*
G02*
X38480000Y40040000I-70000J0D01*
G01*
X37920000Y40040000D01*
G75*
G02*
X37850000Y40110000I0J70000D01*
G01*
G37*
G04 #@! TD*
G04 #@! TO.C,C4*
G36*
G01*
X30820000Y40183792D02*
X30820000Y40863792D01*
G75*
G02*
X30905000Y40948792I85000J0D01*
G01*
X31585000Y40948792D01*
G75*
G02*
X31670000Y40863792I0J-85000D01*
G01*
X31670000Y40183792D01*
G75*
G02*
X31585000Y40098792I-85000J0D01*
G01*
X30905000Y40098792D01*
G75*
G02*
X30820000Y40183792I0J85000D01*
G01*
G37*
G36*
G01*
X32400002Y40183792D02*
X32400002Y40863792D01*
G75*
G02*
X32485002Y40948792I85000J0D01*
G01*
X33165002Y40948792D01*
G75*
G02*
X33250002Y40863792I0J-85000D01*
G01*
X33250002Y40183792D01*
G75*
G02*
X33165002Y40098792I-85000J0D01*
G01*
X32485002Y40098792D01*
G75*
G02*
X32400002Y40183792I0J85000D01*
G01*
G37*
G04 #@! TD*
G04 #@! TO.C,U5*
G36*
G01*
X81825000Y57920000D02*
X81825000Y58220000D01*
G75*
G02*
X81975000Y58370000I150000J0D01*
G01*
X83625000Y58370000D01*
G75*
G02*
X83775000Y58220000I0J-150000D01*
G01*
X83775000Y57920000D01*
G75*
G02*
X83625000Y57770000I-150000J0D01*
G01*
X81975000Y57770000D01*
G75*
G02*
X81825000Y57920000I0J150000D01*
G01*
G37*
G36*
G01*
X81825000Y56650000D02*
X81825000Y56950000D01*
G75*
G02*
X81975000Y57100000I150000J0D01*
G01*
X83625000Y57100000D01*
G75*
G02*
X83775000Y56950000I0J-150000D01*
G01*
X83775000Y56650000D01*
G75*
G02*
X83625000Y56500000I-150000J0D01*
G01*
X81975000Y56500000D01*
G75*
G02*
X81825000Y56650000I0J150000D01*
G01*
G37*
G36*
G01*
X81825000Y55380000D02*
X81825000Y55680000D01*
G75*
G02*
X81975000Y55830000I150000J0D01*
G01*
X83625000Y55830000D01*
G75*
G02*
X83775000Y55680000I0J-150000D01*
G01*
X83775000Y55380000D01*
G75*
G02*
X83625000Y55230000I-150000J0D01*
G01*
X81975000Y55230000D01*
G75*
G02*
X81825000Y55380000I0J150000D01*
G01*
G37*
G36*
G01*
X81825000Y54110000D02*
X81825000Y54410000D01*
G75*
G02*
X81975000Y54560000I150000J0D01*
G01*
X83625000Y54560000D01*
G75*
G02*
X83775000Y54410000I0J-150000D01*
G01*
X83775000Y54110000D01*
G75*
G02*
X83625000Y53960000I-150000J0D01*
G01*
X81975000Y53960000D01*
G75*
G02*
X81825000Y54110000I0J150000D01*
G01*
G37*
G36*
G01*
X86775000Y54110000D02*
X86775000Y54410000D01*
G75*
G02*
X86925000Y54560000I150000J0D01*
G01*
X88575000Y54560000D01*
G75*
G02*
X88725000Y54410000I0J-150000D01*
G01*
X88725000Y54110000D01*
G75*
G02*
X88575000Y53960000I-150000J0D01*
G01*
X86925000Y53960000D01*
G75*
G02*
X86775000Y54110000I0J150000D01*
G01*
G37*
G36*
G01*
X86775000Y55380000D02*
X86775000Y55680000D01*
G75*
G02*
X86925000Y55830000I150000J0D01*
G01*
X88575000Y55830000D01*
G75*
G02*
X88725000Y55680000I0J-150000D01*
G01*
X88725000Y55380000D01*
G75*
G02*
X88575000Y55230000I-150000J0D01*
G01*
X86925000Y55230000D01*
G75*
G02*
X86775000Y55380000I0J150000D01*
G01*
G37*
G36*
G01*
X86775000Y56650000D02*
X86775000Y56950000D01*
G75*
G02*
X86925000Y57100000I150000J0D01*
G01*
X88575000Y57100000D01*
G75*
G02*
X88725000Y56950000I0J-150000D01*
G01*
X88725000Y56650000D01*
G75*
G02*
X88575000Y56500000I-150000J0D01*
G01*
X86925000Y56500000D01*
G75*
G02*
X86775000Y56650000I0J150000D01*
G01*
G37*
G36*
G01*
X86775000Y57920000D02*
X86775000Y58220000D01*
G75*
G02*
X86925000Y58370000I150000J0D01*
G01*
X88575000Y58370000D01*
G75*
G02*
X88725000Y58220000I0J-150000D01*
G01*
X88725000Y57920000D01*
G75*
G02*
X88575000Y57770000I-150000J0D01*
G01*
X86925000Y57770000D01*
G75*
G02*
X86775000Y57920000I0J150000D01*
G01*
G37*
G04 #@! TD*
G04 #@! TO.C,R5*
G36*
G01*
X17520000Y60390000D02*
X17520000Y61170000D01*
G75*
G02*
X17590000Y61240000I70000J0D01*
G01*
X18150000Y61240000D01*
G75*
G02*
X18220000Y61170000I0J-70000D01*
G01*
X18220000Y60390000D01*
G75*
G02*
X18150000Y60320000I-70000J0D01*
G01*
X17590000Y60320000D01*
G75*
G02*
X17520000Y60390000I0J70000D01*
G01*
G37*
G36*
G01*
X19120000Y60390000D02*
X19120000Y61170000D01*
G75*
G02*
X19190000Y61240000I70000J0D01*
G01*
X19750000Y61240000D01*
G75*
G02*
X19820000Y61170000I0J-70000D01*
G01*
X19820000Y60390000D01*
G75*
G02*
X19750000Y60320000I-70000J0D01*
G01*
X19190000Y60320000D01*
G75*
G02*
X19120000Y60390000I0J70000D01*
G01*
G37*
G04 #@! TD*
G04 #@! TO.C,C5*
G36*
G01*
X30820000Y38233807D02*
X30820000Y38913807D01*
G75*
G02*
X30905000Y38998807I85000J0D01*
G01*
X31585000Y38998807D01*
G75*
G02*
X31670000Y38913807I0J-85000D01*
G01*
X31670000Y38233807D01*
G75*
G02*
X31585000Y38148807I-85000J0D01*
G01*
X30905000Y38148807D01*
G75*
G02*
X30820000Y38233807I0J85000D01*
G01*
G37*
G36*
G01*
X32400002Y38233807D02*
X32400002Y38913807D01*
G75*
G02*
X32485002Y38998807I85000J0D01*
G01*
X33165002Y38998807D01*
G75*
G02*
X33250002Y38913807I0J-85000D01*
G01*
X33250002Y38233807D01*
G75*
G02*
X33165002Y38148807I-85000J0D01*
G01*
X32485002Y38148807D01*
G75*
G02*
X32400002Y38233807I0J85000D01*
G01*
G37*
G04 #@! TD*
G04 #@! TO.C,R37*
G36*
G01*
X13620000Y40110000D02*
X13620000Y40890000D01*
G75*
G02*
X13690000Y40960000I70000J0D01*
G01*
X14250000Y40960000D01*
G75*
G02*
X14320000Y40890000I0J-70000D01*
G01*
X14320000Y40110000D01*
G75*
G02*
X14250000Y40040000I-70000J0D01*
G01*
X13690000Y40040000D01*
G75*
G02*
X13620000Y40110000I0J70000D01*
G01*
G37*
G36*
G01*
X15220000Y40110000D02*
X15220000Y40890000D01*
G75*
G02*
X15290000Y40960000I70000J0D01*
G01*
X15850000Y40960000D01*
G75*
G02*
X15920000Y40890000I0J-70000D01*
G01*
X15920000Y40110000D01*
G75*
G02*
X15850000Y40040000I-70000J0D01*
G01*
X15290000Y40040000D01*
G75*
G02*
X15220000Y40110000I0J70000D01*
G01*
G37*
G04 #@! TD*
G04 #@! TO.C,R30*
G36*
G01*
X25520000Y36211908D02*
X25520000Y36991908D01*
G75*
G02*
X25590000Y37061908I70000J0D01*
G01*
X26150000Y37061908D01*
G75*
G02*
X26220000Y36991908I0J-70000D01*
G01*
X26220000Y36211908D01*
G75*
G02*
X26150000Y36141908I-70000J0D01*
G01*
X25590000Y36141908D01*
G75*
G02*
X25520000Y36211908I0J70000D01*
G01*
G37*
G36*
G01*
X27120000Y36211908D02*
X27120000Y36991908D01*
G75*
G02*
X27190000Y37061908I70000J0D01*
G01*
X27750000Y37061908D01*
G75*
G02*
X27820000Y36991908I0J-70000D01*
G01*
X27820000Y36211908D01*
G75*
G02*
X27750000Y36141908I-70000J0D01*
G01*
X27190000Y36141908D01*
G75*
G02*
X27120000Y36211908I0J70000D01*
G01*
G37*
G04 #@! TD*
G04 #@! TO.C,F3*
G36*
G01*
X28634990Y58903733D02*
X27944990Y58903733D01*
G75*
G02*
X27714990Y59133733I0J230000D01*
G01*
X27714990Y60473733D01*
G75*
G02*
X27944990Y60703733I230000J0D01*
G01*
X28634990Y60703733D01*
G75*
G02*
X28864990Y60473733I0J-230000D01*
G01*
X28864990Y59133733D01*
G75*
G02*
X28634990Y58903733I-230000J0D01*
G01*
G37*
G36*
G01*
X31535010Y58903733D02*
X30845010Y58903733D01*
G75*
G02*
X30615010Y59133733I0J230000D01*
G01*
X30615010Y60473733D01*
G75*
G02*
X30845010Y60703733I230000J0D01*
G01*
X31535010Y60703733D01*
G75*
G02*
X31765010Y60473733I0J-230000D01*
G01*
X31765010Y59133733D01*
G75*
G02*
X31535010Y58903733I-230000J0D01*
G01*
G37*
G04 #@! TD*
G04 #@! TO.C,R35*
G36*
G01*
X13620000Y44008092D02*
X13620000Y44788092D01*
G75*
G02*
X13690000Y44858092I70000J0D01*
G01*
X14250000Y44858092D01*
G75*
G02*
X14320000Y44788092I0J-70000D01*
G01*
X14320000Y44008092D01*
G75*
G02*
X14250000Y43938092I-70000J0D01*
G01*
X13690000Y43938092D01*
G75*
G02*
X13620000Y44008092I0J70000D01*
G01*
G37*
G36*
G01*
X15220000Y44008092D02*
X15220000Y44788092D01*
G75*
G02*
X15290000Y44858092I70000J0D01*
G01*
X15850000Y44858092D01*
G75*
G02*
X15920000Y44788092I0J-70000D01*
G01*
X15920000Y44008092D01*
G75*
G02*
X15850000Y43938092I-70000J0D01*
G01*
X15290000Y43938092D01*
G75*
G02*
X15220000Y44008092I0J70000D01*
G01*
G37*
G04 #@! TD*
G04 #@! TO.C,R48*
G36*
G01*
X20220000Y42059046D02*
X20220000Y42839046D01*
G75*
G02*
X20290000Y42909046I70000J0D01*
G01*
X20850000Y42909046D01*
G75*
G02*
X20920000Y42839046I0J-70000D01*
G01*
X20920000Y42059046D01*
G75*
G02*
X20850000Y41989046I-70000J0D01*
G01*
X20290000Y41989046D01*
G75*
G02*
X20220000Y42059046I0J70000D01*
G01*
G37*
G36*
G01*
X21820000Y42059046D02*
X21820000Y42839046D01*
G75*
G02*
X21890000Y42909046I70000J0D01*
G01*
X22450000Y42909046D01*
G75*
G02*
X22520000Y42839046I0J-70000D01*
G01*
X22520000Y42059046D01*
G75*
G02*
X22450000Y41989046I-70000J0D01*
G01*
X21890000Y41989046D01*
G75*
G02*
X21820000Y42059046I0J70000D01*
G01*
G37*
G04 #@! TD*
G04 #@! TO.C,R27*
G36*
G01*
X71130000Y59030000D02*
X71130000Y61880000D01*
G75*
G02*
X71380000Y62130000I250000J0D01*
G01*
X72105000Y62130000D01*
G75*
G02*
X72355000Y61880000I0J-250000D01*
G01*
X72355000Y59030000D01*
G75*
G02*
X72105000Y58780000I-250000J0D01*
G01*
X71380000Y58780000D01*
G75*
G02*
X71130000Y59030000I0J250000D01*
G01*
G37*
G36*
G01*
X77055000Y59030000D02*
X77055000Y61880000D01*
G75*
G02*
X77305000Y62130000I250000J0D01*
G01*
X78030000Y62130000D01*
G75*
G02*
X78280000Y61880000I0J-250000D01*
G01*
X78280000Y59030000D01*
G75*
G02*
X78030000Y58780000I-250000J0D01*
G01*
X77305000Y58780000D01*
G75*
G02*
X77055000Y59030000I0J250000D01*
G01*
G37*
G04 #@! TD*
G04 #@! TO.C,R47*
G36*
G01*
X20220000Y44008092D02*
X20220000Y44788092D01*
G75*
G02*
X20290000Y44858092I70000J0D01*
G01*
X20850000Y44858092D01*
G75*
G02*
X20920000Y44788092I0J-70000D01*
G01*
X20920000Y44008092D01*
G75*
G02*
X20850000Y43938092I-70000J0D01*
G01*
X20290000Y43938092D01*
G75*
G02*
X20220000Y44008092I0J70000D01*
G01*
G37*
G36*
G01*
X21820000Y44008092D02*
X21820000Y44788092D01*
G75*
G02*
X21890000Y44858092I70000J0D01*
G01*
X22450000Y44858092D01*
G75*
G02*
X22520000Y44788092I0J-70000D01*
G01*
X22520000Y44008092D01*
G75*
G02*
X22450000Y43938092I-70000J0D01*
G01*
X21890000Y43938092D01*
G75*
G02*
X21820000Y44008092I0J70000D01*
G01*
G37*
G04 #@! TD*
G04 #@! TO.C,C3*
G36*
G01*
X30820000Y42133777D02*
X30820000Y42813777D01*
G75*
G02*
X30905000Y42898777I85000J0D01*
G01*
X31585000Y42898777D01*
G75*
G02*
X31670000Y42813777I0J-85000D01*
G01*
X31670000Y42133777D01*
G75*
G02*
X31585000Y42048777I-85000J0D01*
G01*
X30905000Y42048777D01*
G75*
G02*
X30820000Y42133777I0J85000D01*
G01*
G37*
G36*
G01*
X32400002Y42133777D02*
X32400002Y42813777D01*
G75*
G02*
X32485002Y42898777I85000J0D01*
G01*
X33165002Y42898777D01*
G75*
G02*
X33250002Y42813777I0J-85000D01*
G01*
X33250002Y42133777D01*
G75*
G02*
X33165002Y42048777I-85000J0D01*
G01*
X32485002Y42048777D01*
G75*
G02*
X32400002Y42133777I0J85000D01*
G01*
G37*
G04 #@! TD*
G04 #@! TO.C,R44*
G36*
G01*
X16920000Y38160954D02*
X16920000Y38940954D01*
G75*
G02*
X16990000Y39010954I70000J0D01*
G01*
X17550000Y39010954D01*
G75*
G02*
X17620000Y38940954I0J-70000D01*
G01*
X17620000Y38160954D01*
G75*
G02*
X17550000Y38090954I-70000J0D01*
G01*
X16990000Y38090954D01*
G75*
G02*
X16920000Y38160954I0J70000D01*
G01*
G37*
G36*
G01*
X18520000Y38160954D02*
X18520000Y38940954D01*
G75*
G02*
X18590000Y39010954I70000J0D01*
G01*
X19150000Y39010954D01*
G75*
G02*
X19220000Y38940954I0J-70000D01*
G01*
X19220000Y38160954D01*
G75*
G02*
X19150000Y38090954I-70000J0D01*
G01*
X18590000Y38090954D01*
G75*
G02*
X18520000Y38160954I0J70000D01*
G01*
G37*
G04 #@! TD*
G04 #@! TO.C,R46*
G36*
G01*
X20220000Y45957138D02*
X20220000Y46737138D01*
G75*
G02*
X20290000Y46807138I70000J0D01*
G01*
X20850000Y46807138D01*
G75*
G02*
X20920000Y46737138I0J-70000D01*
G01*
X20920000Y45957138D01*
G75*
G02*
X20850000Y45887138I-70000J0D01*
G01*
X20290000Y45887138D01*
G75*
G02*
X20220000Y45957138I0J70000D01*
G01*
G37*
G36*
G01*
X21820000Y45957138D02*
X21820000Y46737138D01*
G75*
G02*
X21890000Y46807138I70000J0D01*
G01*
X22450000Y46807138D01*
G75*
G02*
X22520000Y46737138I0J-70000D01*
G01*
X22520000Y45957138D01*
G75*
G02*
X22450000Y45887138I-70000J0D01*
G01*
X21890000Y45887138D01*
G75*
G02*
X21820000Y45957138I0J70000D01*
G01*
G37*
G04 #@! TD*
G04 #@! TO.C,R4*
G36*
G01*
X27610390Y56193342D02*
X27610390Y57443342D01*
G75*
G02*
X27710390Y57543342I100000J0D01*
G01*
X28510390Y57543342D01*
G75*
G02*
X28610390Y57443342I0J-100000D01*
G01*
X28610390Y56193342D01*
G75*
G02*
X28510390Y56093342I-100000J0D01*
G01*
X27710390Y56093342D01*
G75*
G02*
X27610390Y56193342I0J100000D01*
G01*
G37*
G36*
G01*
X29510412Y56193342D02*
X29510412Y57443342D01*
G75*
G02*
X29610412Y57543342I100000J0D01*
G01*
X30410412Y57543342D01*
G75*
G02*
X30510412Y57443342I0J-100000D01*
G01*
X30510412Y56193342D01*
G75*
G02*
X30410412Y56093342I-100000J0D01*
G01*
X29610412Y56093342D01*
G75*
G02*
X29510412Y56193342I0J100000D01*
G01*
G37*
G04 #@! TD*
G04 #@! TO.C,Q2*
G36*
G01*
X58985000Y62245000D02*
X58985000Y62945000D01*
G75*
G02*
X59235000Y63195000I250000J0D01*
G01*
X60935000Y63195000D01*
G75*
G02*
X61185000Y62945000I0J-250000D01*
G01*
X61185000Y62245000D01*
G75*
G02*
X60935000Y61995000I-250000J0D01*
G01*
X59235000Y61995000D01*
G75*
G02*
X58985000Y62245000I0J250000D01*
G01*
G37*
G36*
G01*
X63185000Y60715000D02*
X63185000Y62965000D01*
G75*
G02*
X63435000Y63215000I250000J0D01*
G01*
X65985000Y63215000D01*
G75*
G02*
X66235000Y62965000I0J-250000D01*
G01*
X66235000Y60715000D01*
G75*
G02*
X65985000Y60465000I-250000J0D01*
G01*
X63435000Y60465000D01*
G75*
G02*
X63185000Y60715000I0J250000D01*
G01*
G37*
G36*
G01*
X63185000Y57665000D02*
X63185000Y59915000D01*
G75*
G02*
X63435000Y60165000I250000J0D01*
G01*
X65985000Y60165000D01*
G75*
G02*
X66235000Y59915000I0J-250000D01*
G01*
X66235000Y57665000D01*
G75*
G02*
X65985000Y57415000I-250000J0D01*
G01*
X63435000Y57415000D01*
G75*
G02*
X63185000Y57665000I0J250000D01*
G01*
G37*
G36*
G01*
X66535000Y60715000D02*
X66535000Y62965000D01*
G75*
G02*
X66785000Y63215000I250000J0D01*
G01*
X69335000Y63215000D01*
G75*
G02*
X69585000Y62965000I0J-250000D01*
G01*
X69585000Y60715000D01*
G75*
G02*
X69335000Y60465000I-250000J0D01*
G01*
X66785000Y60465000D01*
G75*
G02*
X66535000Y60715000I0J250000D01*
G01*
G37*
G36*
G01*
X66535000Y57665000D02*
X66535000Y59915000D01*
G75*
G02*
X66785000Y60165000I250000J0D01*
G01*
X69335000Y60165000D01*
G75*
G02*
X69585000Y59915000I0J-250000D01*
G01*
X69585000Y57665000D01*
G75*
G02*
X69335000Y57415000I-250000J0D01*
G01*
X66785000Y57415000D01*
G75*
G02*
X66535000Y57665000I0J250000D01*
G01*
G37*
G36*
G01*
X58985000Y57685000D02*
X58985000Y58385000D01*
G75*
G02*
X59235000Y58635000I250000J0D01*
G01*
X60935000Y58635000D01*
G75*
G02*
X61185000Y58385000I0J-250000D01*
G01*
X61185000Y57685000D01*
G75*
G02*
X60935000Y57435000I-250000J0D01*
G01*
X59235000Y57435000D01*
G75*
G02*
X58985000Y57685000I0J250000D01*
G01*
G37*
G04 #@! TD*
G04 #@! TO.C,Q3*
G36*
G01*
X58985000Y54050000D02*
X58985000Y54750000D01*
G75*
G02*
X59235000Y55000000I250000J0D01*
G01*
X60935000Y55000000D01*
G75*
G02*
X61185000Y54750000I0J-250000D01*
G01*
X61185000Y54050000D01*
G75*
G02*
X60935000Y53800000I-250000J0D01*
G01*
X59235000Y53800000D01*
G75*
G02*
X58985000Y54050000I0J250000D01*
G01*
G37*
G36*
G01*
X63185000Y52520000D02*
X63185000Y54770000D01*
G75*
G02*
X63435000Y55020000I250000J0D01*
G01*
X65985000Y55020000D01*
G75*
G02*
X66235000Y54770000I0J-250000D01*
G01*
X66235000Y52520000D01*
G75*
G02*
X65985000Y52270000I-250000J0D01*
G01*
X63435000Y52270000D01*
G75*
G02*
X63185000Y52520000I0J250000D01*
G01*
G37*
G36*
G01*
X63185000Y49470000D02*
X63185000Y51720000D01*
G75*
G02*
X63435000Y51970000I250000J0D01*
G01*
X65985000Y51970000D01*
G75*
G02*
X66235000Y51720000I0J-250000D01*
G01*
X66235000Y49470000D01*
G75*
G02*
X65985000Y49220000I-250000J0D01*
G01*
X63435000Y49220000D01*
G75*
G02*
X63185000Y49470000I0J250000D01*
G01*
G37*
G36*
G01*
X66535000Y52520000D02*
X66535000Y54770000D01*
G75*
G02*
X66785000Y55020000I250000J0D01*
G01*
X69335000Y55020000D01*
G75*
G02*
X69585000Y54770000I0J-250000D01*
G01*
X69585000Y52520000D01*
G75*
G02*
X69335000Y52270000I-250000J0D01*
G01*
X66785000Y52270000D01*
G75*
G02*
X66535000Y52520000I0J250000D01*
G01*
G37*
G36*
G01*
X66535000Y49470000D02*
X66535000Y51720000D01*
G75*
G02*
X66785000Y51970000I250000J0D01*
G01*
X69335000Y51970000D01*
G75*
G02*
X69585000Y51720000I0J-250000D01*
G01*
X69585000Y49470000D01*
G75*
G02*
X69335000Y49220000I-250000J0D01*
G01*
X66785000Y49220000D01*
G75*
G02*
X66535000Y49470000I0J250000D01*
G01*
G37*
G36*
G01*
X58985000Y49490000D02*
X58985000Y50190000D01*
G75*
G02*
X59235000Y50440000I250000J0D01*
G01*
X60935000Y50440000D01*
G75*
G02*
X61185000Y50190000I0J-250000D01*
G01*
X61185000Y49490000D01*
G75*
G02*
X60935000Y49240000I-250000J0D01*
G01*
X59235000Y49240000D01*
G75*
G02*
X58985000Y49490000I0J250000D01*
G01*
G37*
G04 #@! TD*
G04 #@! TO.C,F6*
G36*
G01*
X71140000Y36808750D02*
X71140000Y37321250D01*
G75*
G02*
X71358750Y37540000I218750J0D01*
G01*
X71796250Y37540000D01*
G75*
G02*
X72015000Y37321250I0J-218750D01*
G01*
X72015000Y36808750D01*
G75*
G02*
X71796250Y36590000I-218750J0D01*
G01*
X71358750Y36590000D01*
G75*
G02*
X71140000Y36808750I0J218750D01*
G01*
G37*
G36*
G01*
X72715000Y36808750D02*
X72715000Y37321250D01*
G75*
G02*
X72933750Y37540000I218750J0D01*
G01*
X73371250Y37540000D01*
G75*
G02*
X73590000Y37321250I0J-218750D01*
G01*
X73590000Y36808750D01*
G75*
G02*
X73371250Y36590000I-218750J0D01*
G01*
X72933750Y36590000D01*
G75*
G02*
X72715000Y36808750I0J218750D01*
G01*
G37*
G04 #@! TD*
G04 #@! TO.C,R36*
G36*
G01*
X13620000Y42059046D02*
X13620000Y42839046D01*
G75*
G02*
X13690000Y42909046I70000J0D01*
G01*
X14250000Y42909046D01*
G75*
G02*
X14320000Y42839046I0J-70000D01*
G01*
X14320000Y42059046D01*
G75*
G02*
X14250000Y41989046I-70000J0D01*
G01*
X13690000Y41989046D01*
G75*
G02*
X13620000Y42059046I0J70000D01*
G01*
G37*
G36*
G01*
X15220000Y42059046D02*
X15220000Y42839046D01*
G75*
G02*
X15290000Y42909046I70000J0D01*
G01*
X15850000Y42909046D01*
G75*
G02*
X15920000Y42839046I0J-70000D01*
G01*
X15920000Y42059046D01*
G75*
G02*
X15850000Y41989046I-70000J0D01*
G01*
X15290000Y41989046D01*
G75*
G02*
X15220000Y42059046I0J70000D01*
G01*
G37*
G04 #@! TD*
G04 #@! TO.C,F7*
G36*
G01*
X71140000Y34298750D02*
X71140000Y34811250D01*
G75*
G02*
X71358750Y35030000I218750J0D01*
G01*
X71796250Y35030000D01*
G75*
G02*
X72015000Y34811250I0J-218750D01*
G01*
X72015000Y34298750D01*
G75*
G02*
X71796250Y34080000I-218750J0D01*
G01*
X71358750Y34080000D01*
G75*
G02*
X71140000Y34298750I0J218750D01*
G01*
G37*
G36*
G01*
X72715000Y34298750D02*
X72715000Y34811250D01*
G75*
G02*
X72933750Y35030000I218750J0D01*
G01*
X73371250Y35030000D01*
G75*
G02*
X73590000Y34811250I0J-218750D01*
G01*
X73590000Y34298750D01*
G75*
G02*
X73371250Y34080000I-218750J0D01*
G01*
X72933750Y34080000D01*
G75*
G02*
X72715000Y34298750I0J218750D01*
G01*
G37*
G04 #@! TD*
G04 #@! TO.C,F9*
G36*
G01*
X71140000Y29278750D02*
X71140000Y29791250D01*
G75*
G02*
X71358750Y30010000I218750J0D01*
G01*
X71796250Y30010000D01*
G75*
G02*
X72015000Y29791250I0J-218750D01*
G01*
X72015000Y29278750D01*
G75*
G02*
X71796250Y29060000I-218750J0D01*
G01*
X71358750Y29060000D01*
G75*
G02*
X71140000Y29278750I0J218750D01*
G01*
G37*
G36*
G01*
X72715000Y29278750D02*
X72715000Y29791250D01*
G75*
G02*
X72933750Y30010000I218750J0D01*
G01*
X73371250Y30010000D01*
G75*
G02*
X73590000Y29791250I0J-218750D01*
G01*
X73590000Y29278750D01*
G75*
G02*
X73371250Y29060000I-218750J0D01*
G01*
X72933750Y29060000D01*
G75*
G02*
X72715000Y29278750I0J218750D01*
G01*
G37*
G04 #@! TD*
G04 #@! TO.C,U10*
G36*
G01*
X92275000Y63785000D02*
X92275000Y64185000D01*
G75*
G02*
X92475000Y64385000I200000J0D01*
G01*
X94275000Y64385000D01*
G75*
G02*
X94475000Y64185000I0J-200000D01*
G01*
X94475000Y63785000D01*
G75*
G02*
X94275000Y63585000I-200000J0D01*
G01*
X92475000Y63585000D01*
G75*
G02*
X92275000Y63785000I0J200000D01*
G01*
G37*
G36*
G01*
X92275000Y62645000D02*
X92275000Y63045000D01*
G75*
G02*
X92475000Y63245000I200000J0D01*
G01*
X94275000Y63245000D01*
G75*
G02*
X94475000Y63045000I0J-200000D01*
G01*
X94475000Y62645000D01*
G75*
G02*
X94275000Y62445000I-200000J0D01*
G01*
X92475000Y62445000D01*
G75*
G02*
X92275000Y62645000I0J200000D01*
G01*
G37*
G36*
G01*
X96475000Y62105000D02*
X96475000Y64355000D01*
G75*
G02*
X96725000Y64605000I250000J0D01*
G01*
X99275000Y64605000D01*
G75*
G02*
X99525000Y64355000I0J-250000D01*
G01*
X99525000Y62105000D01*
G75*
G02*
X99275000Y61855000I-250000J0D01*
G01*
X96725000Y61855000D01*
G75*
G02*
X96475000Y62105000I0J250000D01*
G01*
G37*
G36*
G01*
X96475000Y59055000D02*
X96475000Y61305000D01*
G75*
G02*
X96725000Y61555000I250000J0D01*
G01*
X99275000Y61555000D01*
G75*
G02*
X99525000Y61305000I0J-250000D01*
G01*
X99525000Y59055000D01*
G75*
G02*
X99275000Y58805000I-250000J0D01*
G01*
X96725000Y58805000D01*
G75*
G02*
X96475000Y59055000I0J250000D01*
G01*
G37*
G36*
G01*
X99825000Y62105000D02*
X99825000Y64355000D01*
G75*
G02*
X100075000Y64605000I250000J0D01*
G01*
X102625000Y64605000D01*
G75*
G02*
X102875000Y64355000I0J-250000D01*
G01*
X102875000Y62105000D01*
G75*
G02*
X102625000Y61855000I-250000J0D01*
G01*
X100075000Y61855000D01*
G75*
G02*
X99825000Y62105000I0J250000D01*
G01*
G37*
G36*
G01*
X99825000Y59055000D02*
X99825000Y61305000D01*
G75*
G02*
X100075000Y61555000I250000J0D01*
G01*
X102625000Y61555000D01*
G75*
G02*
X102875000Y61305000I0J-250000D01*
G01*
X102875000Y59055000D01*
G75*
G02*
X102625000Y58805000I-250000J0D01*
G01*
X100075000Y58805000D01*
G75*
G02*
X99825000Y59055000I0J250000D01*
G01*
G37*
G36*
G01*
X92275000Y60365000D02*
X92275000Y60765000D01*
G75*
G02*
X92475000Y60965000I200000J0D01*
G01*
X94275000Y60965000D01*
G75*
G02*
X94475000Y60765000I0J-200000D01*
G01*
X94475000Y60365000D01*
G75*
G02*
X94275000Y60165000I-200000J0D01*
G01*
X92475000Y60165000D01*
G75*
G02*
X92275000Y60365000I0J200000D01*
G01*
G37*
G36*
G01*
X92275000Y59225000D02*
X92275000Y59625000D01*
G75*
G02*
X92475000Y59825000I200000J0D01*
G01*
X94275000Y59825000D01*
G75*
G02*
X94475000Y59625000I0J-200000D01*
G01*
X94475000Y59225000D01*
G75*
G02*
X94275000Y59025000I-200000J0D01*
G01*
X92475000Y59025000D01*
G75*
G02*
X92275000Y59225000I0J200000D01*
G01*
G37*
G04 #@! TD*
G04 #@! TO.C,R34*
G36*
G01*
X13620000Y45957138D02*
X13620000Y46737138D01*
G75*
G02*
X13690000Y46807138I70000J0D01*
G01*
X14250000Y46807138D01*
G75*
G02*
X14320000Y46737138I0J-70000D01*
G01*
X14320000Y45957138D01*
G75*
G02*
X14250000Y45887138I-70000J0D01*
G01*
X13690000Y45887138D01*
G75*
G02*
X13620000Y45957138I0J70000D01*
G01*
G37*
G36*
G01*
X15220000Y45957138D02*
X15220000Y46737138D01*
G75*
G02*
X15290000Y46807138I70000J0D01*
G01*
X15850000Y46807138D01*
G75*
G02*
X15920000Y46737138I0J-70000D01*
G01*
X15920000Y45957138D01*
G75*
G02*
X15850000Y45887138I-70000J0D01*
G01*
X15290000Y45887138D01*
G75*
G02*
X15220000Y45957138I0J70000D01*
G01*
G37*
G04 #@! TD*
G04 #@! TO.C,R7*
G36*
G01*
X13620000Y65728732D02*
X13620000Y66978732D01*
G75*
G02*
X13720000Y67078732I100000J0D01*
G01*
X14520000Y67078732D01*
G75*
G02*
X14620000Y66978732I0J-100000D01*
G01*
X14620000Y65728732D01*
G75*
G02*
X14520000Y65628732I-100000J0D01*
G01*
X13720000Y65628732D01*
G75*
G02*
X13620000Y65728732I0J100000D01*
G01*
G37*
G36*
G01*
X15520022Y65728732D02*
X15520022Y66978732D01*
G75*
G02*
X15620022Y67078732I100000J0D01*
G01*
X16420022Y67078732D01*
G75*
G02*
X16520022Y66978732I0J-100000D01*
G01*
X16520022Y65728732D01*
G75*
G02*
X16420022Y65628732I-100000J0D01*
G01*
X15620022Y65628732D01*
G75*
G02*
X15520022Y65728732I0J100000D01*
G01*
G37*
G04 #@! TD*
G04 #@! TO.C,D2*
G36*
G01*
X21030000Y62413733D02*
X21030000Y63433733D01*
G75*
G02*
X21120000Y63523733I90000J0D01*
G01*
X21840000Y63523733D01*
G75*
G02*
X21930000Y63433733I0J-90000D01*
G01*
X21930000Y62413733D01*
G75*
G02*
X21840000Y62323733I-90000J0D01*
G01*
X21120000Y62323733D01*
G75*
G02*
X21030000Y62413733I0J90000D01*
G01*
G37*
G36*
G01*
X24330000Y62413733D02*
X24330000Y63433733D01*
G75*
G02*
X24420000Y63523733I90000J0D01*
G01*
X25140000Y63523733D01*
G75*
G02*
X25230000Y63433733I0J-90000D01*
G01*
X25230000Y62413733D01*
G75*
G02*
X25140000Y62323733I-90000J0D01*
G01*
X24420000Y62323733D01*
G75*
G02*
X24330000Y62413733I0J90000D01*
G01*
G37*
G04 #@! TD*
G04 #@! TO.C,R10*
G36*
G01*
X13620000Y58219948D02*
X13620000Y59469948D01*
G75*
G02*
X13720000Y59569948I100000J0D01*
G01*
X14520000Y59569948D01*
G75*
G02*
X14620000Y59469948I0J-100000D01*
G01*
X14620000Y58219948D01*
G75*
G02*
X14520000Y58119948I-100000J0D01*
G01*
X13720000Y58119948D01*
G75*
G02*
X13620000Y58219948I0J100000D01*
G01*
G37*
G36*
G01*
X15520022Y58219948D02*
X15520022Y59469948D01*
G75*
G02*
X15620022Y59569948I100000J0D01*
G01*
X16420022Y59569948D01*
G75*
G02*
X16520022Y59469948I0J-100000D01*
G01*
X16520022Y58219948D01*
G75*
G02*
X16420022Y58119948I-100000J0D01*
G01*
X15620022Y58119948D01*
G75*
G02*
X15520022Y58219948I0J100000D01*
G01*
G37*
G04 #@! TD*
G04 #@! TO.C,R14*
G36*
G01*
X36250000Y64288092D02*
X36250000Y65068092D01*
G75*
G02*
X36320000Y65138092I70000J0D01*
G01*
X36880000Y65138092D01*
G75*
G02*
X36950000Y65068092I0J-70000D01*
G01*
X36950000Y64288092D01*
G75*
G02*
X36880000Y64218092I-70000J0D01*
G01*
X36320000Y64218092D01*
G75*
G02*
X36250000Y64288092I0J70000D01*
G01*
G37*
G36*
G01*
X37850000Y64288092D02*
X37850000Y65068092D01*
G75*
G02*
X37920000Y65138092I70000J0D01*
G01*
X38480000Y65138092D01*
G75*
G02*
X38550000Y65068092I0J-70000D01*
G01*
X38550000Y64288092D01*
G75*
G02*
X38480000Y64218092I-70000J0D01*
G01*
X37920000Y64218092D01*
G75*
G02*
X37850000Y64288092I0J70000D01*
G01*
G37*
G04 #@! TD*
G04 #@! TO.C,R20*
G36*
G01*
X36250000Y54542862D02*
X36250000Y55322862D01*
G75*
G02*
X36320000Y55392862I70000J0D01*
G01*
X36880000Y55392862D01*
G75*
G02*
X36950000Y55322862I0J-70000D01*
G01*
X36950000Y54542862D01*
G75*
G02*
X36880000Y54472862I-70000J0D01*
G01*
X36320000Y54472862D01*
G75*
G02*
X36250000Y54542862I0J70000D01*
G01*
G37*
G36*
G01*
X37850000Y54542862D02*
X37850000Y55322862D01*
G75*
G02*
X37920000Y55392862I70000J0D01*
G01*
X38480000Y55392862D01*
G75*
G02*
X38550000Y55322862I0J-70000D01*
G01*
X38550000Y54542862D01*
G75*
G02*
X38480000Y54472862I-70000J0D01*
G01*
X37920000Y54472862D01*
G75*
G02*
X37850000Y54542862I0J70000D01*
G01*
G37*
G04 #@! TD*
G04 #@! TO.C,R22*
G36*
G01*
X25520000Y45957138D02*
X25520000Y46737138D01*
G75*
G02*
X25590000Y46807138I70000J0D01*
G01*
X26150000Y46807138D01*
G75*
G02*
X26220000Y46737138I0J-70000D01*
G01*
X26220000Y45957138D01*
G75*
G02*
X26150000Y45887138I-70000J0D01*
G01*
X25590000Y45887138D01*
G75*
G02*
X25520000Y45957138I0J70000D01*
G01*
G37*
G36*
G01*
X27120000Y45957138D02*
X27120000Y46737138D01*
G75*
G02*
X27190000Y46807138I70000J0D01*
G01*
X27750000Y46807138D01*
G75*
G02*
X27820000Y46737138I0J-70000D01*
G01*
X27820000Y45957138D01*
G75*
G02*
X27750000Y45887138I-70000J0D01*
G01*
X27190000Y45887138D01*
G75*
G02*
X27120000Y45957138I0J70000D01*
G01*
G37*
G04 #@! TD*
G04 #@! TO.C,R3*
G36*
G01*
X17520000Y62339046D02*
X17520000Y63119046D01*
G75*
G02*
X17590000Y63189046I70000J0D01*
G01*
X18150000Y63189046D01*
G75*
G02*
X18220000Y63119046I0J-70000D01*
G01*
X18220000Y62339046D01*
G75*
G02*
X18150000Y62269046I-70000J0D01*
G01*
X17590000Y62269046D01*
G75*
G02*
X17520000Y62339046I0J70000D01*
G01*
G37*
G36*
G01*
X19120000Y62339046D02*
X19120000Y63119046D01*
G75*
G02*
X19190000Y63189046I70000J0D01*
G01*
X19750000Y63189046D01*
G75*
G02*
X19820000Y63119046I0J-70000D01*
G01*
X19820000Y62339046D01*
G75*
G02*
X19750000Y62269046I-70000J0D01*
G01*
X19190000Y62269046D01*
G75*
G02*
X19120000Y62339046I0J70000D01*
G01*
G37*
G04 #@! TD*
G04 #@! TO.C,U1*
G36*
G01*
X81825000Y42760000D02*
X81825000Y43060000D01*
G75*
G02*
X81975000Y43210000I150000J0D01*
G01*
X83625000Y43210000D01*
G75*
G02*
X83775000Y43060000I0J-150000D01*
G01*
X83775000Y42760000D01*
G75*
G02*
X83625000Y42610000I-150000J0D01*
G01*
X81975000Y42610000D01*
G75*
G02*
X81825000Y42760000I0J150000D01*
G01*
G37*
G36*
G01*
X81825000Y41490000D02*
X81825000Y41790000D01*
G75*
G02*
X81975000Y41940000I150000J0D01*
G01*
X83625000Y41940000D01*
G75*
G02*
X83775000Y41790000I0J-150000D01*
G01*
X83775000Y41490000D01*
G75*
G02*
X83625000Y41340000I-150000J0D01*
G01*
X81975000Y41340000D01*
G75*
G02*
X81825000Y41490000I0J150000D01*
G01*
G37*
G36*
G01*
X81825000Y40220000D02*
X81825000Y40520000D01*
G75*
G02*
X81975000Y40670000I150000J0D01*
G01*
X83625000Y40670000D01*
G75*
G02*
X83775000Y40520000I0J-150000D01*
G01*
X83775000Y40220000D01*
G75*
G02*
X83625000Y40070000I-150000J0D01*
G01*
X81975000Y40070000D01*
G75*
G02*
X81825000Y40220000I0J150000D01*
G01*
G37*
G36*
G01*
X81825000Y38950000D02*
X81825000Y39250000D01*
G75*
G02*
X81975000Y39400000I150000J0D01*
G01*
X83625000Y39400000D01*
G75*
G02*
X83775000Y39250000I0J-150000D01*
G01*
X83775000Y38950000D01*
G75*
G02*
X83625000Y38800000I-150000J0D01*
G01*
X81975000Y38800000D01*
G75*
G02*
X81825000Y38950000I0J150000D01*
G01*
G37*
G36*
G01*
X86775000Y38950000D02*
X86775000Y39250000D01*
G75*
G02*
X86925000Y39400000I150000J0D01*
G01*
X88575000Y39400000D01*
G75*
G02*
X88725000Y39250000I0J-150000D01*
G01*
X88725000Y38950000D01*
G75*
G02*
X88575000Y38800000I-150000J0D01*
G01*
X86925000Y38800000D01*
G75*
G02*
X86775000Y38950000I0J150000D01*
G01*
G37*
G36*
G01*
X86775000Y40220000D02*
X86775000Y40520000D01*
G75*
G02*
X86925000Y40670000I150000J0D01*
G01*
X88575000Y40670000D01*
G75*
G02*
X88725000Y40520000I0J-150000D01*
G01*
X88725000Y40220000D01*
G75*
G02*
X88575000Y40070000I-150000J0D01*
G01*
X86925000Y40070000D01*
G75*
G02*
X86775000Y40220000I0J150000D01*
G01*
G37*
G36*
G01*
X86775000Y41490000D02*
X86775000Y41790000D01*
G75*
G02*
X86925000Y41940000I150000J0D01*
G01*
X88575000Y41940000D01*
G75*
G02*
X88725000Y41790000I0J-150000D01*
G01*
X88725000Y41490000D01*
G75*
G02*
X88575000Y41340000I-150000J0D01*
G01*
X86925000Y41340000D01*
G75*
G02*
X86775000Y41490000I0J150000D01*
G01*
G37*
G36*
G01*
X86775000Y42760000D02*
X86775000Y43060000D01*
G75*
G02*
X86925000Y43210000I150000J0D01*
G01*
X88575000Y43210000D01*
G75*
G02*
X88725000Y43060000I0J-150000D01*
G01*
X88725000Y42760000D01*
G75*
G02*
X88575000Y42610000I-150000J0D01*
G01*
X86925000Y42610000D01*
G75*
G02*
X86775000Y42760000I0J150000D01*
G01*
G37*
G04 #@! TD*
G04 #@! TO.C,R31*
G36*
G01*
X71130000Y54140000D02*
X71130000Y56990000D01*
G75*
G02*
X71380000Y57240000I250000J0D01*
G01*
X72105000Y57240000D01*
G75*
G02*
X72355000Y56990000I0J-250000D01*
G01*
X72355000Y54140000D01*
G75*
G02*
X72105000Y53890000I-250000J0D01*
G01*
X71380000Y53890000D01*
G75*
G02*
X71130000Y54140000I0J250000D01*
G01*
G37*
G36*
G01*
X77055000Y54140000D02*
X77055000Y56990000D01*
G75*
G02*
X77305000Y57240000I250000J0D01*
G01*
X78030000Y57240000D01*
G75*
G02*
X78280000Y56990000I0J-250000D01*
G01*
X78280000Y54140000D01*
G75*
G02*
X78030000Y53890000I-250000J0D01*
G01*
X77305000Y53890000D01*
G75*
G02*
X77055000Y54140000I0J250000D01*
G01*
G37*
G04 #@! TD*
G04 #@! TO.C,R49*
G36*
G01*
X20220000Y40110000D02*
X20220000Y40890000D01*
G75*
G02*
X20290000Y40960000I70000J0D01*
G01*
X20850000Y40960000D01*
G75*
G02*
X20920000Y40890000I0J-70000D01*
G01*
X20920000Y40110000D01*
G75*
G02*
X20850000Y40040000I-70000J0D01*
G01*
X20290000Y40040000D01*
G75*
G02*
X20220000Y40110000I0J70000D01*
G01*
G37*
G36*
G01*
X21820000Y40110000D02*
X21820000Y40890000D01*
G75*
G02*
X21890000Y40960000I70000J0D01*
G01*
X22450000Y40960000D01*
G75*
G02*
X22520000Y40890000I0J-70000D01*
G01*
X22520000Y40110000D01*
G75*
G02*
X22450000Y40040000I-70000J0D01*
G01*
X21890000Y40040000D01*
G75*
G02*
X21820000Y40110000I0J70000D01*
G01*
G37*
G04 #@! TD*
G04 #@! TO.C,R6*
G36*
G01*
X17520000Y58440954D02*
X17520000Y59220954D01*
G75*
G02*
X17590000Y59290954I70000J0D01*
G01*
X18150000Y59290954D01*
G75*
G02*
X18220000Y59220954I0J-70000D01*
G01*
X18220000Y58440954D01*
G75*
G02*
X18150000Y58370954I-70000J0D01*
G01*
X17590000Y58370954D01*
G75*
G02*
X17520000Y58440954I0J70000D01*
G01*
G37*
G36*
G01*
X19120000Y58440954D02*
X19120000Y59220954D01*
G75*
G02*
X19190000Y59290954I70000J0D01*
G01*
X19750000Y59290954D01*
G75*
G02*
X19820000Y59220954I0J-70000D01*
G01*
X19820000Y58440954D01*
G75*
G02*
X19750000Y58370954I-70000J0D01*
G01*
X19190000Y58370954D01*
G75*
G02*
X19120000Y58440954I0J70000D01*
G01*
G37*
G04 #@! TD*
G04 #@! TO.C,R51*
G36*
G01*
X36250000Y44008092D02*
X36250000Y44788092D01*
G75*
G02*
X36320000Y44858092I70000J0D01*
G01*
X36880000Y44858092D01*
G75*
G02*
X36950000Y44788092I0J-70000D01*
G01*
X36950000Y44008092D01*
G75*
G02*
X36880000Y43938092I-70000J0D01*
G01*
X36320000Y43938092D01*
G75*
G02*
X36250000Y44008092I0J70000D01*
G01*
G37*
G36*
G01*
X37850000Y44008092D02*
X37850000Y44788092D01*
G75*
G02*
X37920000Y44858092I70000J0D01*
G01*
X38480000Y44858092D01*
G75*
G02*
X38550000Y44788092I0J-70000D01*
G01*
X38550000Y44008092D01*
G75*
G02*
X38480000Y43938092I-70000J0D01*
G01*
X37920000Y43938092D01*
G75*
G02*
X37850000Y44008092I0J70000D01*
G01*
G37*
G04 #@! TD*
G04 #@! TO.C,R38*
G36*
G01*
X13620000Y38160954D02*
X13620000Y38940954D01*
G75*
G02*
X13690000Y39010954I70000J0D01*
G01*
X14250000Y39010954D01*
G75*
G02*
X14320000Y38940954I0J-70000D01*
G01*
X14320000Y38160954D01*
G75*
G02*
X14250000Y38090954I-70000J0D01*
G01*
X13690000Y38090954D01*
G75*
G02*
X13620000Y38160954I0J70000D01*
G01*
G37*
G36*
G01*
X15220000Y38160954D02*
X15220000Y38940954D01*
G75*
G02*
X15290000Y39010954I70000J0D01*
G01*
X15850000Y39010954D01*
G75*
G02*
X15920000Y38940954I0J-70000D01*
G01*
X15920000Y38160954D01*
G75*
G02*
X15850000Y38090954I-70000J0D01*
G01*
X15290000Y38090954D01*
G75*
G02*
X15220000Y38160954I0J70000D01*
G01*
G37*
G04 #@! TD*
G04 #@! TO.C,R33*
G36*
G01*
X71130000Y44360000D02*
X71130000Y47210000D01*
G75*
G02*
X71380000Y47460000I250000J0D01*
G01*
X72105000Y47460000D01*
G75*
G02*
X72355000Y47210000I0J-250000D01*
G01*
X72355000Y44360000D01*
G75*
G02*
X72105000Y44110000I-250000J0D01*
G01*
X71380000Y44110000D01*
G75*
G02*
X71130000Y44360000I0J250000D01*
G01*
G37*
G36*
G01*
X77055000Y44360000D02*
X77055000Y47210000D01*
G75*
G02*
X77305000Y47460000I250000J0D01*
G01*
X78030000Y47460000D01*
G75*
G02*
X78280000Y47210000I0J-250000D01*
G01*
X78280000Y44360000D01*
G75*
G02*
X78030000Y44110000I-250000J0D01*
G01*
X77305000Y44110000D01*
G75*
G02*
X77055000Y44360000I0J250000D01*
G01*
G37*
G04 #@! TD*
G04 #@! TO.C,F8*
G36*
G01*
X71140000Y31788750D02*
X71140000Y32301250D01*
G75*
G02*
X71358750Y32520000I218750J0D01*
G01*
X71796250Y32520000D01*
G75*
G02*
X72015000Y32301250I0J-218750D01*
G01*
X72015000Y31788750D01*
G75*
G02*
X71796250Y31570000I-218750J0D01*
G01*
X71358750Y31570000D01*
G75*
G02*
X71140000Y31788750I0J218750D01*
G01*
G37*
G36*
G01*
X72715000Y31788750D02*
X72715000Y32301250D01*
G75*
G02*
X72933750Y32520000I218750J0D01*
G01*
X73371250Y32520000D01*
G75*
G02*
X73590000Y32301250I0J-218750D01*
G01*
X73590000Y31788750D01*
G75*
G02*
X73371250Y31570000I-218750J0D01*
G01*
X72933750Y31570000D01*
G75*
G02*
X72715000Y31788750I0J218750D01*
G01*
G37*
G04 #@! TD*
G04 #@! TO.C,D3*
G36*
G01*
X21030000Y59293733D02*
X21030000Y60313733D01*
G75*
G02*
X21120000Y60403733I90000J0D01*
G01*
X21840000Y60403733D01*
G75*
G02*
X21930000Y60313733I0J-90000D01*
G01*
X21930000Y59293733D01*
G75*
G02*
X21840000Y59203733I-90000J0D01*
G01*
X21120000Y59203733D01*
G75*
G02*
X21030000Y59293733I0J90000D01*
G01*
G37*
G36*
G01*
X24330000Y59293733D02*
X24330000Y60313733D01*
G75*
G02*
X24420000Y60403733I90000J0D01*
G01*
X25140000Y60403733D01*
G75*
G02*
X25230000Y60313733I0J-90000D01*
G01*
X25230000Y59293733D01*
G75*
G02*
X25140000Y59203733I-90000J0D01*
G01*
X24420000Y59203733D01*
G75*
G02*
X24330000Y59293733I0J90000D01*
G01*
G37*
G04 #@! TD*
G04 #@! TO.C,R54*
G36*
G01*
X17520000Y54542862D02*
X17520000Y55322862D01*
G75*
G02*
X17590000Y55392862I70000J0D01*
G01*
X18150000Y55392862D01*
G75*
G02*
X18220000Y55322862I0J-70000D01*
G01*
X18220000Y54542862D01*
G75*
G02*
X18150000Y54472862I-70000J0D01*
G01*
X17590000Y54472862D01*
G75*
G02*
X17520000Y54542862I0J70000D01*
G01*
G37*
G36*
G01*
X19120000Y54542862D02*
X19120000Y55322862D01*
G75*
G02*
X19190000Y55392862I70000J0D01*
G01*
X19750000Y55392862D01*
G75*
G02*
X19820000Y55322862I0J-70000D01*
G01*
X19820000Y54542862D01*
G75*
G02*
X19750000Y54472862I-70000J0D01*
G01*
X19190000Y54472862D01*
G75*
G02*
X19120000Y54542862I0J70000D01*
G01*
G37*
G04 #@! TD*
G04 #@! TO.C,C2*
G36*
G01*
X30820000Y44083762D02*
X30820000Y44763762D01*
G75*
G02*
X30905000Y44848762I85000J0D01*
G01*
X31585000Y44848762D01*
G75*
G02*
X31670000Y44763762I0J-85000D01*
G01*
X31670000Y44083762D01*
G75*
G02*
X31585000Y43998762I-85000J0D01*
G01*
X30905000Y43998762D01*
G75*
G02*
X30820000Y44083762I0J85000D01*
G01*
G37*
G36*
G01*
X32400002Y44083762D02*
X32400002Y44763762D01*
G75*
G02*
X32485002Y44848762I85000J0D01*
G01*
X33165002Y44848762D01*
G75*
G02*
X33250002Y44763762I0J-85000D01*
G01*
X33250002Y44083762D01*
G75*
G02*
X33165002Y43998762I-85000J0D01*
G01*
X32485002Y43998762D01*
G75*
G02*
X32400002Y44083762I0J85000D01*
G01*
G37*
G04 #@! TD*
G04 #@! TO.C,C1*
G36*
G01*
X30820000Y46033747D02*
X30820000Y46713747D01*
G75*
G02*
X30905000Y46798747I85000J0D01*
G01*
X31585000Y46798747D01*
G75*
G02*
X31670000Y46713747I0J-85000D01*
G01*
X31670000Y46033747D01*
G75*
G02*
X31585000Y45948747I-85000J0D01*
G01*
X30905000Y45948747D01*
G75*
G02*
X30820000Y46033747I0J85000D01*
G01*
G37*
G36*
G01*
X32400002Y46033747D02*
X32400002Y46713747D01*
G75*
G02*
X32485002Y46798747I85000J0D01*
G01*
X33165002Y46798747D01*
G75*
G02*
X33250002Y46713747I0J-85000D01*
G01*
X33250002Y46033747D01*
G75*
G02*
X33165002Y45948747I-85000J0D01*
G01*
X32485002Y45948747D01*
G75*
G02*
X32400002Y46033747I0J85000D01*
G01*
G37*
G04 #@! TD*
G04 #@! TO.C,R24*
G36*
G01*
X25520000Y42059046D02*
X25520000Y42839046D01*
G75*
G02*
X25590000Y42909046I70000J0D01*
G01*
X26150000Y42909046D01*
G75*
G02*
X26220000Y42839046I0J-70000D01*
G01*
X26220000Y42059046D01*
G75*
G02*
X26150000Y41989046I-70000J0D01*
G01*
X25590000Y41989046D01*
G75*
G02*
X25520000Y42059046I0J70000D01*
G01*
G37*
G36*
G01*
X27120000Y42059046D02*
X27120000Y42839046D01*
G75*
G02*
X27190000Y42909046I70000J0D01*
G01*
X27750000Y42909046D01*
G75*
G02*
X27820000Y42839046I0J-70000D01*
G01*
X27820000Y42059046D01*
G75*
G02*
X27750000Y41989046I-70000J0D01*
G01*
X27190000Y41989046D01*
G75*
G02*
X27120000Y42059046I0J70000D01*
G01*
G37*
G04 #@! TD*
G04 #@! TO.C,R26*
G36*
G01*
X71130000Y63920000D02*
X71130000Y66770000D01*
G75*
G02*
X71380000Y67020000I250000J0D01*
G01*
X72105000Y67020000D01*
G75*
G02*
X72355000Y66770000I0J-250000D01*
G01*
X72355000Y63920000D01*
G75*
G02*
X72105000Y63670000I-250000J0D01*
G01*
X71380000Y63670000D01*
G75*
G02*
X71130000Y63920000I0J250000D01*
G01*
G37*
G36*
G01*
X77055000Y63920000D02*
X77055000Y66770000D01*
G75*
G02*
X77305000Y67020000I250000J0D01*
G01*
X78030000Y67020000D01*
G75*
G02*
X78280000Y66770000I0J-250000D01*
G01*
X78280000Y63920000D01*
G75*
G02*
X78030000Y63670000I-250000J0D01*
G01*
X77305000Y63670000D01*
G75*
G02*
X77055000Y63920000I0J250000D01*
G01*
G37*
G04 #@! TD*
G04 #@! TO.C,R23*
G36*
G01*
X25520000Y44008092D02*
X25520000Y44788092D01*
G75*
G02*
X25590000Y44858092I70000J0D01*
G01*
X26150000Y44858092D01*
G75*
G02*
X26220000Y44788092I0J-70000D01*
G01*
X26220000Y44008092D01*
G75*
G02*
X26150000Y43938092I-70000J0D01*
G01*
X25590000Y43938092D01*
G75*
G02*
X25520000Y44008092I0J70000D01*
G01*
G37*
G36*
G01*
X27120000Y44008092D02*
X27120000Y44788092D01*
G75*
G02*
X27190000Y44858092I70000J0D01*
G01*
X27750000Y44858092D01*
G75*
G02*
X27820000Y44788092I0J-70000D01*
G01*
X27820000Y44008092D01*
G75*
G02*
X27750000Y43938092I-70000J0D01*
G01*
X27190000Y43938092D01*
G75*
G02*
X27120000Y44008092I0J70000D01*
G01*
G37*
G04 #@! TD*
G04 #@! TO.C,R25*
G36*
G01*
X71130000Y68810000D02*
X71130000Y71660000D01*
G75*
G02*
X71380000Y71910000I250000J0D01*
G01*
X72105000Y71910000D01*
G75*
G02*
X72355000Y71660000I0J-250000D01*
G01*
X72355000Y68810000D01*
G75*
G02*
X72105000Y68560000I-250000J0D01*
G01*
X71380000Y68560000D01*
G75*
G02*
X71130000Y68810000I0J250000D01*
G01*
G37*
G36*
G01*
X77055000Y68810000D02*
X77055000Y71660000D01*
G75*
G02*
X77305000Y71910000I250000J0D01*
G01*
X78030000Y71910000D01*
G75*
G02*
X78280000Y71660000I0J-250000D01*
G01*
X78280000Y68810000D01*
G75*
G02*
X78030000Y68560000I-250000J0D01*
G01*
X77305000Y68560000D01*
G75*
G02*
X77055000Y68810000I0J250000D01*
G01*
G37*
G04 #@! TD*
M02*
