G04 #@! TF.GenerationSoftware,KiCad,Pcbnew,8.0.8*
G04 #@! TF.CreationDate,2025-12-20T23:25:09-05:00*
G04 #@! TF.ProjectId,greenenergyecu,67726565-6e65-46e6-9572-67796563752e,d*
G04 #@! TF.SameCoordinates,PX2b953a0PY6943058*
G04 #@! TF.FileFunction,Soldermask,Top*
G04 #@! TF.FilePolarity,Negative*
%FSLAX46Y46*%
G04 Gerber Fmt 4.6, Leading zero omitted, Abs format (unit mm)*
G04 Created by KiCad (PCBNEW 8.0.8) date 2025-12-20 23:25:09*
%MOMM*%
%LPD*%
G01*
G04 APERTURE LIST*
%ADD10C,1.524000*%
%ADD11R,1.100000X1.100000*%
%ADD12C,1.100000*%
%ADD13O,1.100000X2.400000*%
%ADD14C,3.700000*%
%ADD15C,2.200000*%
%ADD16C,2.600000*%
%ADD17C,1.500000*%
%ADD18O,0.499999X0.250000*%
%ADD19O,0.250000X0.499999*%
%ADD20C,0.599999*%
%ADD21C,0.600000*%
%ADD22O,1.700000X1.850000*%
G04 APERTURE END LIST*
G04 #@! TO.C,R54*
G36*
G01*
X16620000Y54917862D02*
X16620000Y55697862D01*
G75*
G02*
X16690000Y55767862I70000J0D01*
G01*
X17250000Y55767862D01*
G75*
G02*
X17320000Y55697862I0J-70000D01*
G01*
X17320000Y54917862D01*
G75*
G02*
X17250000Y54847862I-70000J0D01*
G01*
X16690000Y54847862D01*
G75*
G02*
X16620000Y54917862I0J70000D01*
G01*
G37*
G36*
G01*
X18220000Y54917862D02*
X18220000Y55697862D01*
G75*
G02*
X18290000Y55767862I70000J0D01*
G01*
X18850000Y55767862D01*
G75*
G02*
X18920000Y55697862I0J-70000D01*
G01*
X18920000Y54917862D01*
G75*
G02*
X18850000Y54847862I-70000J0D01*
G01*
X18290000Y54847862D01*
G75*
G02*
X18220000Y54917862I0J70000D01*
G01*
G37*
G04 #@! TD*
G04 #@! TO.C,R53*
G36*
G01*
X35350000Y40485000D02*
X35350000Y41265000D01*
G75*
G02*
X35420000Y41335000I70000J0D01*
G01*
X35980000Y41335000D01*
G75*
G02*
X36050000Y41265000I0J-70000D01*
G01*
X36050000Y40485000D01*
G75*
G02*
X35980000Y40415000I-70000J0D01*
G01*
X35420000Y40415000D01*
G75*
G02*
X35350000Y40485000I0J70000D01*
G01*
G37*
G36*
G01*
X36950000Y40485000D02*
X36950000Y41265000D01*
G75*
G02*
X37020000Y41335000I70000J0D01*
G01*
X37580000Y41335000D01*
G75*
G02*
X37650000Y41265000I0J-70000D01*
G01*
X37650000Y40485000D01*
G75*
G02*
X37580000Y40415000I-70000J0D01*
G01*
X37020000Y40415000D01*
G75*
G02*
X36950000Y40485000I0J70000D01*
G01*
G37*
G04 #@! TD*
G04 #@! TO.C,R52*
G36*
G01*
X35350000Y42434046D02*
X35350000Y43214046D01*
G75*
G02*
X35420000Y43284046I70000J0D01*
G01*
X35980000Y43284046D01*
G75*
G02*
X36050000Y43214046I0J-70000D01*
G01*
X36050000Y42434046D01*
G75*
G02*
X35980000Y42364046I-70000J0D01*
G01*
X35420000Y42364046D01*
G75*
G02*
X35350000Y42434046I0J70000D01*
G01*
G37*
G36*
G01*
X36950000Y42434046D02*
X36950000Y43214046D01*
G75*
G02*
X37020000Y43284046I70000J0D01*
G01*
X37580000Y43284046D01*
G75*
G02*
X37650000Y43214046I0J-70000D01*
G01*
X37650000Y42434046D01*
G75*
G02*
X37580000Y42364046I-70000J0D01*
G01*
X37020000Y42364046D01*
G75*
G02*
X36950000Y42434046I0J70000D01*
G01*
G37*
G04 #@! TD*
G04 #@! TO.C,R51*
G36*
G01*
X35350000Y44383092D02*
X35350000Y45163092D01*
G75*
G02*
X35420000Y45233092I70000J0D01*
G01*
X35980000Y45233092D01*
G75*
G02*
X36050000Y45163092I0J-70000D01*
G01*
X36050000Y44383092D01*
G75*
G02*
X35980000Y44313092I-70000J0D01*
G01*
X35420000Y44313092D01*
G75*
G02*
X35350000Y44383092I0J70000D01*
G01*
G37*
G36*
G01*
X36950000Y44383092D02*
X36950000Y45163092D01*
G75*
G02*
X37020000Y45233092I70000J0D01*
G01*
X37580000Y45233092D01*
G75*
G02*
X37650000Y45163092I0J-70000D01*
G01*
X37650000Y44383092D01*
G75*
G02*
X37580000Y44313092I-70000J0D01*
G01*
X37020000Y44313092D01*
G75*
G02*
X36950000Y44383092I0J70000D01*
G01*
G37*
G04 #@! TD*
G04 #@! TO.C,R50*
G36*
G01*
X35350000Y46332138D02*
X35350000Y47112138D01*
G75*
G02*
X35420000Y47182138I70000J0D01*
G01*
X35980000Y47182138D01*
G75*
G02*
X36050000Y47112138I0J-70000D01*
G01*
X36050000Y46332138D01*
G75*
G02*
X35980000Y46262138I-70000J0D01*
G01*
X35420000Y46262138D01*
G75*
G02*
X35350000Y46332138I0J70000D01*
G01*
G37*
G36*
G01*
X36950000Y46332138D02*
X36950000Y47112138D01*
G75*
G02*
X37020000Y47182138I70000J0D01*
G01*
X37580000Y47182138D01*
G75*
G02*
X37650000Y47112138I0J-70000D01*
G01*
X37650000Y46332138D01*
G75*
G02*
X37580000Y46262138I-70000J0D01*
G01*
X37020000Y46262138D01*
G75*
G02*
X36950000Y46332138I0J70000D01*
G01*
G37*
G04 #@! TD*
G04 #@! TO.C,R49*
G36*
G01*
X19320000Y40485000D02*
X19320000Y41265000D01*
G75*
G02*
X19390000Y41335000I70000J0D01*
G01*
X19950000Y41335000D01*
G75*
G02*
X20020000Y41265000I0J-70000D01*
G01*
X20020000Y40485000D01*
G75*
G02*
X19950000Y40415000I-70000J0D01*
G01*
X19390000Y40415000D01*
G75*
G02*
X19320000Y40485000I0J70000D01*
G01*
G37*
G36*
G01*
X20920000Y40485000D02*
X20920000Y41265000D01*
G75*
G02*
X20990000Y41335000I70000J0D01*
G01*
X21550000Y41335000D01*
G75*
G02*
X21620000Y41265000I0J-70000D01*
G01*
X21620000Y40485000D01*
G75*
G02*
X21550000Y40415000I-70000J0D01*
G01*
X20990000Y40415000D01*
G75*
G02*
X20920000Y40485000I0J70000D01*
G01*
G37*
G04 #@! TD*
G04 #@! TO.C,R48*
G36*
G01*
X19320000Y42434046D02*
X19320000Y43214046D01*
G75*
G02*
X19390000Y43284046I70000J0D01*
G01*
X19950000Y43284046D01*
G75*
G02*
X20020000Y43214046I0J-70000D01*
G01*
X20020000Y42434046D01*
G75*
G02*
X19950000Y42364046I-70000J0D01*
G01*
X19390000Y42364046D01*
G75*
G02*
X19320000Y42434046I0J70000D01*
G01*
G37*
G36*
G01*
X20920000Y42434046D02*
X20920000Y43214046D01*
G75*
G02*
X20990000Y43284046I70000J0D01*
G01*
X21550000Y43284046D01*
G75*
G02*
X21620000Y43214046I0J-70000D01*
G01*
X21620000Y42434046D01*
G75*
G02*
X21550000Y42364046I-70000J0D01*
G01*
X20990000Y42364046D01*
G75*
G02*
X20920000Y42434046I0J70000D01*
G01*
G37*
G04 #@! TD*
G04 #@! TO.C,R47*
G36*
G01*
X19320000Y44383092D02*
X19320000Y45163092D01*
G75*
G02*
X19390000Y45233092I70000J0D01*
G01*
X19950000Y45233092D01*
G75*
G02*
X20020000Y45163092I0J-70000D01*
G01*
X20020000Y44383092D01*
G75*
G02*
X19950000Y44313092I-70000J0D01*
G01*
X19390000Y44313092D01*
G75*
G02*
X19320000Y44383092I0J70000D01*
G01*
G37*
G36*
G01*
X20920000Y44383092D02*
X20920000Y45163092D01*
G75*
G02*
X20990000Y45233092I70000J0D01*
G01*
X21550000Y45233092D01*
G75*
G02*
X21620000Y45163092I0J-70000D01*
G01*
X21620000Y44383092D01*
G75*
G02*
X21550000Y44313092I-70000J0D01*
G01*
X20990000Y44313092D01*
G75*
G02*
X20920000Y44383092I0J70000D01*
G01*
G37*
G04 #@! TD*
G04 #@! TO.C,R46*
G36*
G01*
X19320000Y46332138D02*
X19320000Y47112138D01*
G75*
G02*
X19390000Y47182138I70000J0D01*
G01*
X19950000Y47182138D01*
G75*
G02*
X20020000Y47112138I0J-70000D01*
G01*
X20020000Y46332138D01*
G75*
G02*
X19950000Y46262138I-70000J0D01*
G01*
X19390000Y46262138D01*
G75*
G02*
X19320000Y46332138I0J70000D01*
G01*
G37*
G36*
G01*
X20920000Y46332138D02*
X20920000Y47112138D01*
G75*
G02*
X20990000Y47182138I70000J0D01*
G01*
X21550000Y47182138D01*
G75*
G02*
X21620000Y47112138I0J-70000D01*
G01*
X21620000Y46332138D01*
G75*
G02*
X21550000Y46262138I-70000J0D01*
G01*
X20990000Y46262138D01*
G75*
G02*
X20920000Y46332138I0J70000D01*
G01*
G37*
G04 #@! TD*
G04 #@! TO.C,R45*
G36*
G01*
X16020000Y36586908D02*
X16020000Y37366908D01*
G75*
G02*
X16090000Y37436908I70000J0D01*
G01*
X16650000Y37436908D01*
G75*
G02*
X16720000Y37366908I0J-70000D01*
G01*
X16720000Y36586908D01*
G75*
G02*
X16650000Y36516908I-70000J0D01*
G01*
X16090000Y36516908D01*
G75*
G02*
X16020000Y36586908I0J70000D01*
G01*
G37*
G36*
G01*
X17620000Y36586908D02*
X17620000Y37366908D01*
G75*
G02*
X17690000Y37436908I70000J0D01*
G01*
X18250000Y37436908D01*
G75*
G02*
X18320000Y37366908I0J-70000D01*
G01*
X18320000Y36586908D01*
G75*
G02*
X18250000Y36516908I-70000J0D01*
G01*
X17690000Y36516908D01*
G75*
G02*
X17620000Y36586908I0J70000D01*
G01*
G37*
G04 #@! TD*
G04 #@! TO.C,R44*
G36*
G01*
X16020000Y38535954D02*
X16020000Y39315954D01*
G75*
G02*
X16090000Y39385954I70000J0D01*
G01*
X16650000Y39385954D01*
G75*
G02*
X16720000Y39315954I0J-70000D01*
G01*
X16720000Y38535954D01*
G75*
G02*
X16650000Y38465954I-70000J0D01*
G01*
X16090000Y38465954D01*
G75*
G02*
X16020000Y38535954I0J70000D01*
G01*
G37*
G36*
G01*
X17620000Y38535954D02*
X17620000Y39315954D01*
G75*
G02*
X17690000Y39385954I70000J0D01*
G01*
X18250000Y39385954D01*
G75*
G02*
X18320000Y39315954I0J-70000D01*
G01*
X18320000Y38535954D01*
G75*
G02*
X18250000Y38465954I-70000J0D01*
G01*
X17690000Y38465954D01*
G75*
G02*
X17620000Y38535954I0J70000D01*
G01*
G37*
G04 #@! TD*
G04 #@! TO.C,R43*
G36*
G01*
X16020000Y40485000D02*
X16020000Y41265000D01*
G75*
G02*
X16090000Y41335000I70000J0D01*
G01*
X16650000Y41335000D01*
G75*
G02*
X16720000Y41265000I0J-70000D01*
G01*
X16720000Y40485000D01*
G75*
G02*
X16650000Y40415000I-70000J0D01*
G01*
X16090000Y40415000D01*
G75*
G02*
X16020000Y40485000I0J70000D01*
G01*
G37*
G36*
G01*
X17620000Y40485000D02*
X17620000Y41265000D01*
G75*
G02*
X17690000Y41335000I70000J0D01*
G01*
X18250000Y41335000D01*
G75*
G02*
X18320000Y41265000I0J-70000D01*
G01*
X18320000Y40485000D01*
G75*
G02*
X18250000Y40415000I-70000J0D01*
G01*
X17690000Y40415000D01*
G75*
G02*
X17620000Y40485000I0J70000D01*
G01*
G37*
G04 #@! TD*
G04 #@! TO.C,R42*
G36*
G01*
X16020000Y42434046D02*
X16020000Y43214046D01*
G75*
G02*
X16090000Y43284046I70000J0D01*
G01*
X16650000Y43284046D01*
G75*
G02*
X16720000Y43214046I0J-70000D01*
G01*
X16720000Y42434046D01*
G75*
G02*
X16650000Y42364046I-70000J0D01*
G01*
X16090000Y42364046D01*
G75*
G02*
X16020000Y42434046I0J70000D01*
G01*
G37*
G36*
G01*
X17620000Y42434046D02*
X17620000Y43214046D01*
G75*
G02*
X17690000Y43284046I70000J0D01*
G01*
X18250000Y43284046D01*
G75*
G02*
X18320000Y43214046I0J-70000D01*
G01*
X18320000Y42434046D01*
G75*
G02*
X18250000Y42364046I-70000J0D01*
G01*
X17690000Y42364046D01*
G75*
G02*
X17620000Y42434046I0J70000D01*
G01*
G37*
G04 #@! TD*
G04 #@! TO.C,R41*
G36*
G01*
X16020000Y44383092D02*
X16020000Y45163092D01*
G75*
G02*
X16090000Y45233092I70000J0D01*
G01*
X16650000Y45233092D01*
G75*
G02*
X16720000Y45163092I0J-70000D01*
G01*
X16720000Y44383092D01*
G75*
G02*
X16650000Y44313092I-70000J0D01*
G01*
X16090000Y44313092D01*
G75*
G02*
X16020000Y44383092I0J70000D01*
G01*
G37*
G36*
G01*
X17620000Y44383092D02*
X17620000Y45163092D01*
G75*
G02*
X17690000Y45233092I70000J0D01*
G01*
X18250000Y45233092D01*
G75*
G02*
X18320000Y45163092I0J-70000D01*
G01*
X18320000Y44383092D01*
G75*
G02*
X18250000Y44313092I-70000J0D01*
G01*
X17690000Y44313092D01*
G75*
G02*
X17620000Y44383092I0J70000D01*
G01*
G37*
G04 #@! TD*
G04 #@! TO.C,R40*
G36*
G01*
X16020000Y46332138D02*
X16020000Y47112138D01*
G75*
G02*
X16090000Y47182138I70000J0D01*
G01*
X16650000Y47182138D01*
G75*
G02*
X16720000Y47112138I0J-70000D01*
G01*
X16720000Y46332138D01*
G75*
G02*
X16650000Y46262138I-70000J0D01*
G01*
X16090000Y46262138D01*
G75*
G02*
X16020000Y46332138I0J70000D01*
G01*
G37*
G36*
G01*
X17620000Y46332138D02*
X17620000Y47112138D01*
G75*
G02*
X17690000Y47182138I70000J0D01*
G01*
X18250000Y47182138D01*
G75*
G02*
X18320000Y47112138I0J-70000D01*
G01*
X18320000Y46332138D01*
G75*
G02*
X18250000Y46262138I-70000J0D01*
G01*
X17690000Y46262138D01*
G75*
G02*
X17620000Y46332138I0J70000D01*
G01*
G37*
G04 #@! TD*
G04 #@! TO.C,R39*
G36*
G01*
X12720000Y36586908D02*
X12720000Y37366908D01*
G75*
G02*
X12790000Y37436908I70000J0D01*
G01*
X13350000Y37436908D01*
G75*
G02*
X13420000Y37366908I0J-70000D01*
G01*
X13420000Y36586908D01*
G75*
G02*
X13350000Y36516908I-70000J0D01*
G01*
X12790000Y36516908D01*
G75*
G02*
X12720000Y36586908I0J70000D01*
G01*
G37*
G36*
G01*
X14320000Y36586908D02*
X14320000Y37366908D01*
G75*
G02*
X14390000Y37436908I70000J0D01*
G01*
X14950000Y37436908D01*
G75*
G02*
X15020000Y37366908I0J-70000D01*
G01*
X15020000Y36586908D01*
G75*
G02*
X14950000Y36516908I-70000J0D01*
G01*
X14390000Y36516908D01*
G75*
G02*
X14320000Y36586908I0J70000D01*
G01*
G37*
G04 #@! TD*
G04 #@! TO.C,R38*
G36*
G01*
X12720000Y38535954D02*
X12720000Y39315954D01*
G75*
G02*
X12790000Y39385954I70000J0D01*
G01*
X13350000Y39385954D01*
G75*
G02*
X13420000Y39315954I0J-70000D01*
G01*
X13420000Y38535954D01*
G75*
G02*
X13350000Y38465954I-70000J0D01*
G01*
X12790000Y38465954D01*
G75*
G02*
X12720000Y38535954I0J70000D01*
G01*
G37*
G36*
G01*
X14320000Y38535954D02*
X14320000Y39315954D01*
G75*
G02*
X14390000Y39385954I70000J0D01*
G01*
X14950000Y39385954D01*
G75*
G02*
X15020000Y39315954I0J-70000D01*
G01*
X15020000Y38535954D01*
G75*
G02*
X14950000Y38465954I-70000J0D01*
G01*
X14390000Y38465954D01*
G75*
G02*
X14320000Y38535954I0J70000D01*
G01*
G37*
G04 #@! TD*
G04 #@! TO.C,R37*
G36*
G01*
X12720000Y40485000D02*
X12720000Y41265000D01*
G75*
G02*
X12790000Y41335000I70000J0D01*
G01*
X13350000Y41335000D01*
G75*
G02*
X13420000Y41265000I0J-70000D01*
G01*
X13420000Y40485000D01*
G75*
G02*
X13350000Y40415000I-70000J0D01*
G01*
X12790000Y40415000D01*
G75*
G02*
X12720000Y40485000I0J70000D01*
G01*
G37*
G36*
G01*
X14320000Y40485000D02*
X14320000Y41265000D01*
G75*
G02*
X14390000Y41335000I70000J0D01*
G01*
X14950000Y41335000D01*
G75*
G02*
X15020000Y41265000I0J-70000D01*
G01*
X15020000Y40485000D01*
G75*
G02*
X14950000Y40415000I-70000J0D01*
G01*
X14390000Y40415000D01*
G75*
G02*
X14320000Y40485000I0J70000D01*
G01*
G37*
G04 #@! TD*
G04 #@! TO.C,R36*
G36*
G01*
X12720000Y42434046D02*
X12720000Y43214046D01*
G75*
G02*
X12790000Y43284046I70000J0D01*
G01*
X13350000Y43284046D01*
G75*
G02*
X13420000Y43214046I0J-70000D01*
G01*
X13420000Y42434046D01*
G75*
G02*
X13350000Y42364046I-70000J0D01*
G01*
X12790000Y42364046D01*
G75*
G02*
X12720000Y42434046I0J70000D01*
G01*
G37*
G36*
G01*
X14320000Y42434046D02*
X14320000Y43214046D01*
G75*
G02*
X14390000Y43284046I70000J0D01*
G01*
X14950000Y43284046D01*
G75*
G02*
X15020000Y43214046I0J-70000D01*
G01*
X15020000Y42434046D01*
G75*
G02*
X14950000Y42364046I-70000J0D01*
G01*
X14390000Y42364046D01*
G75*
G02*
X14320000Y42434046I0J70000D01*
G01*
G37*
G04 #@! TD*
G04 #@! TO.C,R35*
G36*
G01*
X12720000Y44383092D02*
X12720000Y45163092D01*
G75*
G02*
X12790000Y45233092I70000J0D01*
G01*
X13350000Y45233092D01*
G75*
G02*
X13420000Y45163092I0J-70000D01*
G01*
X13420000Y44383092D01*
G75*
G02*
X13350000Y44313092I-70000J0D01*
G01*
X12790000Y44313092D01*
G75*
G02*
X12720000Y44383092I0J70000D01*
G01*
G37*
G36*
G01*
X14320000Y44383092D02*
X14320000Y45163092D01*
G75*
G02*
X14390000Y45233092I70000J0D01*
G01*
X14950000Y45233092D01*
G75*
G02*
X15020000Y45163092I0J-70000D01*
G01*
X15020000Y44383092D01*
G75*
G02*
X14950000Y44313092I-70000J0D01*
G01*
X14390000Y44313092D01*
G75*
G02*
X14320000Y44383092I0J70000D01*
G01*
G37*
G04 #@! TD*
G04 #@! TO.C,R34*
G36*
G01*
X12720000Y46332138D02*
X12720000Y47112138D01*
G75*
G02*
X12790000Y47182138I70000J0D01*
G01*
X13350000Y47182138D01*
G75*
G02*
X13420000Y47112138I0J-70000D01*
G01*
X13420000Y46332138D01*
G75*
G02*
X13350000Y46262138I-70000J0D01*
G01*
X12790000Y46262138D01*
G75*
G02*
X12720000Y46332138I0J70000D01*
G01*
G37*
G36*
G01*
X14320000Y46332138D02*
X14320000Y47112138D01*
G75*
G02*
X14390000Y47182138I70000J0D01*
G01*
X14950000Y47182138D01*
G75*
G02*
X15020000Y47112138I0J-70000D01*
G01*
X15020000Y46332138D01*
G75*
G02*
X14950000Y46262138I-70000J0D01*
G01*
X14390000Y46262138D01*
G75*
G02*
X14320000Y46332138I0J70000D01*
G01*
G37*
G04 #@! TD*
G04 #@! TO.C,R30*
G36*
G01*
X24620000Y36586908D02*
X24620000Y37366908D01*
G75*
G02*
X24690000Y37436908I70000J0D01*
G01*
X25250000Y37436908D01*
G75*
G02*
X25320000Y37366908I0J-70000D01*
G01*
X25320000Y36586908D01*
G75*
G02*
X25250000Y36516908I-70000J0D01*
G01*
X24690000Y36516908D01*
G75*
G02*
X24620000Y36586908I0J70000D01*
G01*
G37*
G36*
G01*
X26220000Y36586908D02*
X26220000Y37366908D01*
G75*
G02*
X26290000Y37436908I70000J0D01*
G01*
X26850000Y37436908D01*
G75*
G02*
X26920000Y37366908I0J-70000D01*
G01*
X26920000Y36586908D01*
G75*
G02*
X26850000Y36516908I-70000J0D01*
G01*
X26290000Y36516908D01*
G75*
G02*
X26220000Y36586908I0J70000D01*
G01*
G37*
G04 #@! TD*
G04 #@! TO.C,R29*
G36*
G01*
X24620000Y38535954D02*
X24620000Y39315954D01*
G75*
G02*
X24690000Y39385954I70000J0D01*
G01*
X25250000Y39385954D01*
G75*
G02*
X25320000Y39315954I0J-70000D01*
G01*
X25320000Y38535954D01*
G75*
G02*
X25250000Y38465954I-70000J0D01*
G01*
X24690000Y38465954D01*
G75*
G02*
X24620000Y38535954I0J70000D01*
G01*
G37*
G36*
G01*
X26220000Y38535954D02*
X26220000Y39315954D01*
G75*
G02*
X26290000Y39385954I70000J0D01*
G01*
X26850000Y39385954D01*
G75*
G02*
X26920000Y39315954I0J-70000D01*
G01*
X26920000Y38535954D01*
G75*
G02*
X26850000Y38465954I-70000J0D01*
G01*
X26290000Y38465954D01*
G75*
G02*
X26220000Y38535954I0J70000D01*
G01*
G37*
G04 #@! TD*
G04 #@! TO.C,R28*
G36*
G01*
X24620000Y40485000D02*
X24620000Y41265000D01*
G75*
G02*
X24690000Y41335000I70000J0D01*
G01*
X25250000Y41335000D01*
G75*
G02*
X25320000Y41265000I0J-70000D01*
G01*
X25320000Y40485000D01*
G75*
G02*
X25250000Y40415000I-70000J0D01*
G01*
X24690000Y40415000D01*
G75*
G02*
X24620000Y40485000I0J70000D01*
G01*
G37*
G36*
G01*
X26220000Y40485000D02*
X26220000Y41265000D01*
G75*
G02*
X26290000Y41335000I70000J0D01*
G01*
X26850000Y41335000D01*
G75*
G02*
X26920000Y41265000I0J-70000D01*
G01*
X26920000Y40485000D01*
G75*
G02*
X26850000Y40415000I-70000J0D01*
G01*
X26290000Y40415000D01*
G75*
G02*
X26220000Y40485000I0J70000D01*
G01*
G37*
G04 #@! TD*
G04 #@! TO.C,R24*
G36*
G01*
X24620000Y42434046D02*
X24620000Y43214046D01*
G75*
G02*
X24690000Y43284046I70000J0D01*
G01*
X25250000Y43284046D01*
G75*
G02*
X25320000Y43214046I0J-70000D01*
G01*
X25320000Y42434046D01*
G75*
G02*
X25250000Y42364046I-70000J0D01*
G01*
X24690000Y42364046D01*
G75*
G02*
X24620000Y42434046I0J70000D01*
G01*
G37*
G36*
G01*
X26220000Y42434046D02*
X26220000Y43214046D01*
G75*
G02*
X26290000Y43284046I70000J0D01*
G01*
X26850000Y43284046D01*
G75*
G02*
X26920000Y43214046I0J-70000D01*
G01*
X26920000Y42434046D01*
G75*
G02*
X26850000Y42364046I-70000J0D01*
G01*
X26290000Y42364046D01*
G75*
G02*
X26220000Y42434046I0J70000D01*
G01*
G37*
G04 #@! TD*
G04 #@! TO.C,R23*
G36*
G01*
X24620000Y44383092D02*
X24620000Y45163092D01*
G75*
G02*
X24690000Y45233092I70000J0D01*
G01*
X25250000Y45233092D01*
G75*
G02*
X25320000Y45163092I0J-70000D01*
G01*
X25320000Y44383092D01*
G75*
G02*
X25250000Y44313092I-70000J0D01*
G01*
X24690000Y44313092D01*
G75*
G02*
X24620000Y44383092I0J70000D01*
G01*
G37*
G36*
G01*
X26220000Y44383092D02*
X26220000Y45163092D01*
G75*
G02*
X26290000Y45233092I70000J0D01*
G01*
X26850000Y45233092D01*
G75*
G02*
X26920000Y45163092I0J-70000D01*
G01*
X26920000Y44383092D01*
G75*
G02*
X26850000Y44313092I-70000J0D01*
G01*
X26290000Y44313092D01*
G75*
G02*
X26220000Y44383092I0J70000D01*
G01*
G37*
G04 #@! TD*
G04 #@! TO.C,R22*
G36*
G01*
X24620000Y46332138D02*
X24620000Y47112138D01*
G75*
G02*
X24690000Y47182138I70000J0D01*
G01*
X25250000Y47182138D01*
G75*
G02*
X25320000Y47112138I0J-70000D01*
G01*
X25320000Y46332138D01*
G75*
G02*
X25250000Y46262138I-70000J0D01*
G01*
X24690000Y46262138D01*
G75*
G02*
X24620000Y46332138I0J70000D01*
G01*
G37*
G36*
G01*
X26220000Y46332138D02*
X26220000Y47112138D01*
G75*
G02*
X26290000Y47182138I70000J0D01*
G01*
X26850000Y47182138D01*
G75*
G02*
X26920000Y47112138I0J-70000D01*
G01*
X26920000Y46332138D01*
G75*
G02*
X26850000Y46262138I-70000J0D01*
G01*
X26290000Y46262138D01*
G75*
G02*
X26220000Y46332138I0J70000D01*
G01*
G37*
G04 #@! TD*
G04 #@! TO.C,R21*
G36*
G01*
X35350000Y52968816D02*
X35350000Y53748816D01*
G75*
G02*
X35420000Y53818816I70000J0D01*
G01*
X35980000Y53818816D01*
G75*
G02*
X36050000Y53748816I0J-70000D01*
G01*
X36050000Y52968816D01*
G75*
G02*
X35980000Y52898816I-70000J0D01*
G01*
X35420000Y52898816D01*
G75*
G02*
X35350000Y52968816I0J70000D01*
G01*
G37*
G36*
G01*
X36950000Y52968816D02*
X36950000Y53748816D01*
G75*
G02*
X37020000Y53818816I70000J0D01*
G01*
X37580000Y53818816D01*
G75*
G02*
X37650000Y53748816I0J-70000D01*
G01*
X37650000Y52968816D01*
G75*
G02*
X37580000Y52898816I-70000J0D01*
G01*
X37020000Y52898816D01*
G75*
G02*
X36950000Y52968816I0J70000D01*
G01*
G37*
G04 #@! TD*
G04 #@! TO.C,R20*
G36*
G01*
X35350000Y54917862D02*
X35350000Y55697862D01*
G75*
G02*
X35420000Y55767862I70000J0D01*
G01*
X35980000Y55767862D01*
G75*
G02*
X36050000Y55697862I0J-70000D01*
G01*
X36050000Y54917862D01*
G75*
G02*
X35980000Y54847862I-70000J0D01*
G01*
X35420000Y54847862D01*
G75*
G02*
X35350000Y54917862I0J70000D01*
G01*
G37*
G36*
G01*
X36950000Y54917862D02*
X36950000Y55697862D01*
G75*
G02*
X37020000Y55767862I70000J0D01*
G01*
X37580000Y55767862D01*
G75*
G02*
X37650000Y55697862I0J-70000D01*
G01*
X37650000Y54917862D01*
G75*
G02*
X37580000Y54847862I-70000J0D01*
G01*
X37020000Y54847862D01*
G75*
G02*
X36950000Y54917862I0J70000D01*
G01*
G37*
G04 #@! TD*
G04 #@! TO.C,R19*
G36*
G01*
X35350000Y56866908D02*
X35350000Y57646908D01*
G75*
G02*
X35420000Y57716908I70000J0D01*
G01*
X35980000Y57716908D01*
G75*
G02*
X36050000Y57646908I0J-70000D01*
G01*
X36050000Y56866908D01*
G75*
G02*
X35980000Y56796908I-70000J0D01*
G01*
X35420000Y56796908D01*
G75*
G02*
X35350000Y56866908I0J70000D01*
G01*
G37*
G36*
G01*
X36950000Y56866908D02*
X36950000Y57646908D01*
G75*
G02*
X37020000Y57716908I70000J0D01*
G01*
X37580000Y57716908D01*
G75*
G02*
X37650000Y57646908I0J-70000D01*
G01*
X37650000Y56866908D01*
G75*
G02*
X37580000Y56796908I-70000J0D01*
G01*
X37020000Y56796908D01*
G75*
G02*
X36950000Y56866908I0J70000D01*
G01*
G37*
G04 #@! TD*
G04 #@! TO.C,R18*
G36*
G01*
X35350000Y58815954D02*
X35350000Y59595954D01*
G75*
G02*
X35420000Y59665954I70000J0D01*
G01*
X35980000Y59665954D01*
G75*
G02*
X36050000Y59595954I0J-70000D01*
G01*
X36050000Y58815954D01*
G75*
G02*
X35980000Y58745954I-70000J0D01*
G01*
X35420000Y58745954D01*
G75*
G02*
X35350000Y58815954I0J70000D01*
G01*
G37*
G36*
G01*
X36950000Y58815954D02*
X36950000Y59595954D01*
G75*
G02*
X37020000Y59665954I70000J0D01*
G01*
X37580000Y59665954D01*
G75*
G02*
X37650000Y59595954I0J-70000D01*
G01*
X37650000Y58815954D01*
G75*
G02*
X37580000Y58745954I-70000J0D01*
G01*
X37020000Y58745954D01*
G75*
G02*
X36950000Y58815954I0J70000D01*
G01*
G37*
G04 #@! TD*
G04 #@! TO.C,R17*
G36*
G01*
X35350000Y60765000D02*
X35350000Y61545000D01*
G75*
G02*
X35420000Y61615000I70000J0D01*
G01*
X35980000Y61615000D01*
G75*
G02*
X36050000Y61545000I0J-70000D01*
G01*
X36050000Y60765000D01*
G75*
G02*
X35980000Y60695000I-70000J0D01*
G01*
X35420000Y60695000D01*
G75*
G02*
X35350000Y60765000I0J70000D01*
G01*
G37*
G36*
G01*
X36950000Y60765000D02*
X36950000Y61545000D01*
G75*
G02*
X37020000Y61615000I70000J0D01*
G01*
X37580000Y61615000D01*
G75*
G02*
X37650000Y61545000I0J-70000D01*
G01*
X37650000Y60765000D01*
G75*
G02*
X37580000Y60695000I-70000J0D01*
G01*
X37020000Y60695000D01*
G75*
G02*
X36950000Y60765000I0J70000D01*
G01*
G37*
G04 #@! TD*
G04 #@! TO.C,R16*
G36*
G01*
X35350000Y62714046D02*
X35350000Y63494046D01*
G75*
G02*
X35420000Y63564046I70000J0D01*
G01*
X35980000Y63564046D01*
G75*
G02*
X36050000Y63494046I0J-70000D01*
G01*
X36050000Y62714046D01*
G75*
G02*
X35980000Y62644046I-70000J0D01*
G01*
X35420000Y62644046D01*
G75*
G02*
X35350000Y62714046I0J70000D01*
G01*
G37*
G36*
G01*
X36950000Y62714046D02*
X36950000Y63494046D01*
G75*
G02*
X37020000Y63564046I70000J0D01*
G01*
X37580000Y63564046D01*
G75*
G02*
X37650000Y63494046I0J-70000D01*
G01*
X37650000Y62714046D01*
G75*
G02*
X37580000Y62644046I-70000J0D01*
G01*
X37020000Y62644046D01*
G75*
G02*
X36950000Y62714046I0J70000D01*
G01*
G37*
G04 #@! TD*
G04 #@! TO.C,R15*
G36*
G01*
X16620000Y56866908D02*
X16620000Y57646908D01*
G75*
G02*
X16690000Y57716908I70000J0D01*
G01*
X17250000Y57716908D01*
G75*
G02*
X17320000Y57646908I0J-70000D01*
G01*
X17320000Y56866908D01*
G75*
G02*
X17250000Y56796908I-70000J0D01*
G01*
X16690000Y56796908D01*
G75*
G02*
X16620000Y56866908I0J70000D01*
G01*
G37*
G36*
G01*
X18220000Y56866908D02*
X18220000Y57646908D01*
G75*
G02*
X18290000Y57716908I70000J0D01*
G01*
X18850000Y57716908D01*
G75*
G02*
X18920000Y57646908I0J-70000D01*
G01*
X18920000Y56866908D01*
G75*
G02*
X18850000Y56796908I-70000J0D01*
G01*
X18290000Y56796908D01*
G75*
G02*
X18220000Y56866908I0J70000D01*
G01*
G37*
G04 #@! TD*
G04 #@! TO.C,R14*
G36*
G01*
X35350000Y64663092D02*
X35350000Y65443092D01*
G75*
G02*
X35420000Y65513092I70000J0D01*
G01*
X35980000Y65513092D01*
G75*
G02*
X36050000Y65443092I0J-70000D01*
G01*
X36050000Y64663092D01*
G75*
G02*
X35980000Y64593092I-70000J0D01*
G01*
X35420000Y64593092D01*
G75*
G02*
X35350000Y64663092I0J70000D01*
G01*
G37*
G36*
G01*
X36950000Y64663092D02*
X36950000Y65443092D01*
G75*
G02*
X37020000Y65513092I70000J0D01*
G01*
X37580000Y65513092D01*
G75*
G02*
X37650000Y65443092I0J-70000D01*
G01*
X37650000Y64663092D01*
G75*
G02*
X37580000Y64593092I-70000J0D01*
G01*
X37020000Y64593092D01*
G75*
G02*
X36950000Y64663092I0J70000D01*
G01*
G37*
G04 #@! TD*
G04 #@! TO.C,R13*
G36*
G01*
X35350000Y66612138D02*
X35350000Y67392138D01*
G75*
G02*
X35420000Y67462138I70000J0D01*
G01*
X35980000Y67462138D01*
G75*
G02*
X36050000Y67392138I0J-70000D01*
G01*
X36050000Y66612138D01*
G75*
G02*
X35980000Y66542138I-70000J0D01*
G01*
X35420000Y66542138D01*
G75*
G02*
X35350000Y66612138I0J70000D01*
G01*
G37*
G36*
G01*
X36950000Y66612138D02*
X36950000Y67392138D01*
G75*
G02*
X37020000Y67462138I70000J0D01*
G01*
X37580000Y67462138D01*
G75*
G02*
X37650000Y67392138I0J-70000D01*
G01*
X37650000Y66612138D01*
G75*
G02*
X37580000Y66542138I-70000J0D01*
G01*
X37020000Y66542138D01*
G75*
G02*
X36950000Y66612138I0J70000D01*
G01*
G37*
G04 #@! TD*
G04 #@! TO.C,R12*
G36*
G01*
X12720000Y53589092D02*
X12720000Y54839092D01*
G75*
G02*
X12820000Y54939092I100000J0D01*
G01*
X13620000Y54939092D01*
G75*
G02*
X13720000Y54839092I0J-100000D01*
G01*
X13720000Y53589092D01*
G75*
G02*
X13620000Y53489092I-100000J0D01*
G01*
X12820000Y53489092D01*
G75*
G02*
X12720000Y53589092I0J100000D01*
G01*
G37*
G36*
G01*
X14620022Y53589092D02*
X14620022Y54839092D01*
G75*
G02*
X14720022Y54939092I100000J0D01*
G01*
X15520022Y54939092D01*
G75*
G02*
X15620022Y54839092I0J-100000D01*
G01*
X15620022Y53589092D01*
G75*
G02*
X15520022Y53489092I-100000J0D01*
G01*
X14720022Y53489092D01*
G75*
G02*
X14620022Y53589092I0J100000D01*
G01*
G37*
G04 #@! TD*
G04 #@! TO.C,R11*
G36*
G01*
X12720000Y56092020D02*
X12720000Y57342020D01*
G75*
G02*
X12820000Y57442020I100000J0D01*
G01*
X13620000Y57442020D01*
G75*
G02*
X13720000Y57342020I0J-100000D01*
G01*
X13720000Y56092020D01*
G75*
G02*
X13620000Y55992020I-100000J0D01*
G01*
X12820000Y55992020D01*
G75*
G02*
X12720000Y56092020I0J100000D01*
G01*
G37*
G36*
G01*
X14620022Y56092020D02*
X14620022Y57342020D01*
G75*
G02*
X14720022Y57442020I100000J0D01*
G01*
X15520022Y57442020D01*
G75*
G02*
X15620022Y57342020I0J-100000D01*
G01*
X15620022Y56092020D01*
G75*
G02*
X15520022Y55992020I-100000J0D01*
G01*
X14720022Y55992020D01*
G75*
G02*
X14620022Y56092020I0J100000D01*
G01*
G37*
G04 #@! TD*
G04 #@! TO.C,R10*
G36*
G01*
X12720000Y58594948D02*
X12720000Y59844948D01*
G75*
G02*
X12820000Y59944948I100000J0D01*
G01*
X13620000Y59944948D01*
G75*
G02*
X13720000Y59844948I0J-100000D01*
G01*
X13720000Y58594948D01*
G75*
G02*
X13620000Y58494948I-100000J0D01*
G01*
X12820000Y58494948D01*
G75*
G02*
X12720000Y58594948I0J100000D01*
G01*
G37*
G36*
G01*
X14620022Y58594948D02*
X14620022Y59844948D01*
G75*
G02*
X14720022Y59944948I100000J0D01*
G01*
X15520022Y59944948D01*
G75*
G02*
X15620022Y59844948I0J-100000D01*
G01*
X15620022Y58594948D01*
G75*
G02*
X15520022Y58494948I-100000J0D01*
G01*
X14720022Y58494948D01*
G75*
G02*
X14620022Y58594948I0J100000D01*
G01*
G37*
G04 #@! TD*
G04 #@! TO.C,R9*
G36*
G01*
X12720000Y61097876D02*
X12720000Y62347876D01*
G75*
G02*
X12820000Y62447876I100000J0D01*
G01*
X13620000Y62447876D01*
G75*
G02*
X13720000Y62347876I0J-100000D01*
G01*
X13720000Y61097876D01*
G75*
G02*
X13620000Y60997876I-100000J0D01*
G01*
X12820000Y60997876D01*
G75*
G02*
X12720000Y61097876I0J100000D01*
G01*
G37*
G36*
G01*
X14620022Y61097876D02*
X14620022Y62347876D01*
G75*
G02*
X14720022Y62447876I100000J0D01*
G01*
X15520022Y62447876D01*
G75*
G02*
X15620022Y62347876I0J-100000D01*
G01*
X15620022Y61097876D01*
G75*
G02*
X15520022Y60997876I-100000J0D01*
G01*
X14720022Y60997876D01*
G75*
G02*
X14620022Y61097876I0J100000D01*
G01*
G37*
G04 #@! TD*
G04 #@! TO.C,R8*
G36*
G01*
X12720000Y63600804D02*
X12720000Y64850804D01*
G75*
G02*
X12820000Y64950804I100000J0D01*
G01*
X13620000Y64950804D01*
G75*
G02*
X13720000Y64850804I0J-100000D01*
G01*
X13720000Y63600804D01*
G75*
G02*
X13620000Y63500804I-100000J0D01*
G01*
X12820000Y63500804D01*
G75*
G02*
X12720000Y63600804I0J100000D01*
G01*
G37*
G36*
G01*
X14620022Y63600804D02*
X14620022Y64850804D01*
G75*
G02*
X14720022Y64950804I100000J0D01*
G01*
X15520022Y64950804D01*
G75*
G02*
X15620022Y64850804I0J-100000D01*
G01*
X15620022Y63600804D01*
G75*
G02*
X15520022Y63500804I-100000J0D01*
G01*
X14720022Y63500804D01*
G75*
G02*
X14620022Y63600804I0J100000D01*
G01*
G37*
G04 #@! TD*
G04 #@! TO.C,R7*
G36*
G01*
X12720000Y66103732D02*
X12720000Y67353732D01*
G75*
G02*
X12820000Y67453732I100000J0D01*
G01*
X13620000Y67453732D01*
G75*
G02*
X13720000Y67353732I0J-100000D01*
G01*
X13720000Y66103732D01*
G75*
G02*
X13620000Y66003732I-100000J0D01*
G01*
X12820000Y66003732D01*
G75*
G02*
X12720000Y66103732I0J100000D01*
G01*
G37*
G36*
G01*
X14620022Y66103732D02*
X14620022Y67353732D01*
G75*
G02*
X14720022Y67453732I100000J0D01*
G01*
X15520022Y67453732D01*
G75*
G02*
X15620022Y67353732I0J-100000D01*
G01*
X15620022Y66103732D01*
G75*
G02*
X15520022Y66003732I-100000J0D01*
G01*
X14720022Y66003732D01*
G75*
G02*
X14620022Y66103732I0J100000D01*
G01*
G37*
G04 #@! TD*
G04 #@! TO.C,R6*
G36*
G01*
X16620000Y58815954D02*
X16620000Y59595954D01*
G75*
G02*
X16690000Y59665954I70000J0D01*
G01*
X17250000Y59665954D01*
G75*
G02*
X17320000Y59595954I0J-70000D01*
G01*
X17320000Y58815954D01*
G75*
G02*
X17250000Y58745954I-70000J0D01*
G01*
X16690000Y58745954D01*
G75*
G02*
X16620000Y58815954I0J70000D01*
G01*
G37*
G36*
G01*
X18220000Y58815954D02*
X18220000Y59595954D01*
G75*
G02*
X18290000Y59665954I70000J0D01*
G01*
X18850000Y59665954D01*
G75*
G02*
X18920000Y59595954I0J-70000D01*
G01*
X18920000Y58815954D01*
G75*
G02*
X18850000Y58745954I-70000J0D01*
G01*
X18290000Y58745954D01*
G75*
G02*
X18220000Y58815954I0J70000D01*
G01*
G37*
G04 #@! TD*
G04 #@! TO.C,R5*
G36*
G01*
X16620000Y60765000D02*
X16620000Y61545000D01*
G75*
G02*
X16690000Y61615000I70000J0D01*
G01*
X17250000Y61615000D01*
G75*
G02*
X17320000Y61545000I0J-70000D01*
G01*
X17320000Y60765000D01*
G75*
G02*
X17250000Y60695000I-70000J0D01*
G01*
X16690000Y60695000D01*
G75*
G02*
X16620000Y60765000I0J70000D01*
G01*
G37*
G36*
G01*
X18220000Y60765000D02*
X18220000Y61545000D01*
G75*
G02*
X18290000Y61615000I70000J0D01*
G01*
X18850000Y61615000D01*
G75*
G02*
X18920000Y61545000I0J-70000D01*
G01*
X18920000Y60765000D01*
G75*
G02*
X18850000Y60695000I-70000J0D01*
G01*
X18290000Y60695000D01*
G75*
G02*
X18220000Y60765000I0J70000D01*
G01*
G37*
G04 #@! TD*
G04 #@! TO.C,R4*
G36*
G01*
X26710390Y56568342D02*
X26710390Y57818342D01*
G75*
G02*
X26810390Y57918342I100000J0D01*
G01*
X27610390Y57918342D01*
G75*
G02*
X27710390Y57818342I0J-100000D01*
G01*
X27710390Y56568342D01*
G75*
G02*
X27610390Y56468342I-100000J0D01*
G01*
X26810390Y56468342D01*
G75*
G02*
X26710390Y56568342I0J100000D01*
G01*
G37*
D10*
X26255391Y57193342D03*
G36*
G01*
X28610412Y56568342D02*
X28610412Y57818342D01*
G75*
G02*
X28710412Y57918342I100000J0D01*
G01*
X29510412Y57918342D01*
G75*
G02*
X29610412Y57818342I0J-100000D01*
G01*
X29610412Y56568342D01*
G75*
G02*
X29510412Y56468342I-100000J0D01*
G01*
X28710412Y56468342D01*
G75*
G02*
X28610412Y56568342I0J100000D01*
G01*
G37*
X30065391Y57193342D03*
G04 #@! TD*
G04 #@! TO.C,R3*
G36*
G01*
X16620000Y62714046D02*
X16620000Y63494046D01*
G75*
G02*
X16690000Y63564046I70000J0D01*
G01*
X17250000Y63564046D01*
G75*
G02*
X17320000Y63494046I0J-70000D01*
G01*
X17320000Y62714046D01*
G75*
G02*
X17250000Y62644046I-70000J0D01*
G01*
X16690000Y62644046D01*
G75*
G02*
X16620000Y62714046I0J70000D01*
G01*
G37*
G36*
G01*
X18220000Y62714046D02*
X18220000Y63494046D01*
G75*
G02*
X18290000Y63564046I70000J0D01*
G01*
X18850000Y63564046D01*
G75*
G02*
X18920000Y63494046I0J-70000D01*
G01*
X18920000Y62714046D01*
G75*
G02*
X18850000Y62644046I-70000J0D01*
G01*
X18290000Y62644046D01*
G75*
G02*
X18220000Y62714046I0J70000D01*
G01*
G37*
G04 #@! TD*
G04 #@! TO.C,R2*
G36*
G01*
X16620000Y64663092D02*
X16620000Y65443092D01*
G75*
G02*
X16690000Y65513092I70000J0D01*
G01*
X17250000Y65513092D01*
G75*
G02*
X17320000Y65443092I0J-70000D01*
G01*
X17320000Y64663092D01*
G75*
G02*
X17250000Y64593092I-70000J0D01*
G01*
X16690000Y64593092D01*
G75*
G02*
X16620000Y64663092I0J70000D01*
G01*
G37*
G36*
G01*
X18220000Y64663092D02*
X18220000Y65443092D01*
G75*
G02*
X18290000Y65513092I70000J0D01*
G01*
X18850000Y65513092D01*
G75*
G02*
X18920000Y65443092I0J-70000D01*
G01*
X18920000Y64663092D01*
G75*
G02*
X18850000Y64593092I-70000J0D01*
G01*
X18290000Y64593092D01*
G75*
G02*
X18220000Y64663092I0J70000D01*
G01*
G37*
G04 #@! TD*
G04 #@! TO.C,R1*
G36*
G01*
X16620000Y66612138D02*
X16620000Y67392138D01*
G75*
G02*
X16690000Y67462138I70000J0D01*
G01*
X17250000Y67462138D01*
G75*
G02*
X17320000Y67392138I0J-70000D01*
G01*
X17320000Y66612138D01*
G75*
G02*
X17250000Y66542138I-70000J0D01*
G01*
X16690000Y66542138D01*
G75*
G02*
X16620000Y66612138I0J70000D01*
G01*
G37*
G36*
G01*
X18220000Y66612138D02*
X18220000Y67392138D01*
G75*
G02*
X18290000Y67462138I70000J0D01*
G01*
X18850000Y67462138D01*
G75*
G02*
X18920000Y67392138I0J-70000D01*
G01*
X18920000Y66612138D01*
G75*
G02*
X18850000Y66542138I-70000J0D01*
G01*
X18290000Y66542138D01*
G75*
G02*
X18220000Y66612138I0J70000D01*
G01*
G37*
G04 #@! TD*
D11*
G04 #@! TO.C,J22*
X22745000Y51773733D03*
D12*
X23545000Y53523733D03*
X24345000Y51773733D03*
X25145000Y53523733D03*
X25945000Y51773733D03*
D13*
X27995000Y52648733D03*
X20695000Y52648733D03*
G04 #@! TD*
G04 #@! TO.C,F3*
G36*
G01*
X27734990Y59278733D02*
X27044990Y59278733D01*
G75*
G02*
X26814990Y59508733I0J230000D01*
G01*
X26814990Y60848733D01*
G75*
G02*
X27044990Y61078733I230000J0D01*
G01*
X27734990Y61078733D01*
G75*
G02*
X27964990Y60848733I0J-230000D01*
G01*
X27964990Y59508733D01*
G75*
G02*
X27734990Y59278733I-230000J0D01*
G01*
G37*
D10*
X26390000Y60178733D03*
X31290000Y60178733D03*
G36*
G01*
X30635010Y59278733D02*
X29945010Y59278733D01*
G75*
G02*
X29715010Y59508733I0J230000D01*
G01*
X29715010Y60848733D01*
G75*
G02*
X29945010Y61078733I230000J0D01*
G01*
X30635010Y61078733D01*
G75*
G02*
X30865010Y60848733I0J-230000D01*
G01*
X30865010Y59508733D01*
G75*
G02*
X30635010Y59278733I-230000J0D01*
G01*
G37*
G04 #@! TD*
G04 #@! TO.C,F2*
G36*
G01*
X27734990Y62398733D02*
X27044990Y62398733D01*
G75*
G02*
X26814990Y62628733I0J230000D01*
G01*
X26814990Y63968733D01*
G75*
G02*
X27044990Y64198733I230000J0D01*
G01*
X27734990Y64198733D01*
G75*
G02*
X27964990Y63968733I0J-230000D01*
G01*
X27964990Y62628733D01*
G75*
G02*
X27734990Y62398733I-230000J0D01*
G01*
G37*
X26390000Y63298733D03*
X31290000Y63298733D03*
G36*
G01*
X30635010Y62398733D02*
X29945010Y62398733D01*
G75*
G02*
X29715010Y62628733I0J230000D01*
G01*
X29715010Y63968733D01*
G75*
G02*
X29945010Y64198733I230000J0D01*
G01*
X30635010Y64198733D01*
G75*
G02*
X30865010Y63968733I0J-230000D01*
G01*
X30865010Y62628733D01*
G75*
G02*
X30635010Y62398733I-230000J0D01*
G01*
G37*
G04 #@! TD*
G04 #@! TO.C,F1*
G36*
G01*
X27734990Y65518733D02*
X27044990Y65518733D01*
G75*
G02*
X26814990Y65748733I0J230000D01*
G01*
X26814990Y67088733D01*
G75*
G02*
X27044990Y67318733I230000J0D01*
G01*
X27734990Y67318733D01*
G75*
G02*
X27964990Y67088733I0J-230000D01*
G01*
X27964990Y65748733D01*
G75*
G02*
X27734990Y65518733I-230000J0D01*
G01*
G37*
X26390000Y66418733D03*
X31290000Y66418733D03*
G36*
G01*
X30635010Y65518733D02*
X29945010Y65518733D01*
G75*
G02*
X29715010Y65748733I0J230000D01*
G01*
X29715010Y67088733D01*
G75*
G02*
X29945010Y67318733I230000J0D01*
G01*
X30635010Y67318733D01*
G75*
G02*
X30865010Y67088733I0J-230000D01*
G01*
X30865010Y65748733D01*
G75*
G02*
X30635010Y65518733I-230000J0D01*
G01*
G37*
G04 #@! TD*
G04 #@! TO.C,D4*
G36*
G01*
X20130000Y56548733D02*
X20130000Y57568733D01*
G75*
G02*
X20220000Y57658733I90000J0D01*
G01*
X20940000Y57658733D01*
G75*
G02*
X21030000Y57568733I0J-90000D01*
G01*
X21030000Y56548733D01*
G75*
G02*
X20940000Y56458733I-90000J0D01*
G01*
X20220000Y56458733D01*
G75*
G02*
X20130000Y56548733I0J90000D01*
G01*
G37*
G36*
G01*
X23430000Y56548733D02*
X23430000Y57568733D01*
G75*
G02*
X23520000Y57658733I90000J0D01*
G01*
X24240000Y57658733D01*
G75*
G02*
X24330000Y57568733I0J-90000D01*
G01*
X24330000Y56548733D01*
G75*
G02*
X24240000Y56458733I-90000J0D01*
G01*
X23520000Y56458733D01*
G75*
G02*
X23430000Y56548733I0J90000D01*
G01*
G37*
G04 #@! TD*
G04 #@! TO.C,D3*
G36*
G01*
X20130000Y59668733D02*
X20130000Y60688733D01*
G75*
G02*
X20220000Y60778733I90000J0D01*
G01*
X20940000Y60778733D01*
G75*
G02*
X21030000Y60688733I0J-90000D01*
G01*
X21030000Y59668733D01*
G75*
G02*
X20940000Y59578733I-90000J0D01*
G01*
X20220000Y59578733D01*
G75*
G02*
X20130000Y59668733I0J90000D01*
G01*
G37*
G36*
G01*
X23430000Y59668733D02*
X23430000Y60688733D01*
G75*
G02*
X23520000Y60778733I90000J0D01*
G01*
X24240000Y60778733D01*
G75*
G02*
X24330000Y60688733I0J-90000D01*
G01*
X24330000Y59668733D01*
G75*
G02*
X24240000Y59578733I-90000J0D01*
G01*
X23520000Y59578733D01*
G75*
G02*
X23430000Y59668733I0J90000D01*
G01*
G37*
G04 #@! TD*
G04 #@! TO.C,D2*
G36*
G01*
X20130000Y62788733D02*
X20130000Y63808733D01*
G75*
G02*
X20220000Y63898733I90000J0D01*
G01*
X20940000Y63898733D01*
G75*
G02*
X21030000Y63808733I0J-90000D01*
G01*
X21030000Y62788733D01*
G75*
G02*
X20940000Y62698733I-90000J0D01*
G01*
X20220000Y62698733D01*
G75*
G02*
X20130000Y62788733I0J90000D01*
G01*
G37*
G36*
G01*
X23430000Y62788733D02*
X23430000Y63808733D01*
G75*
G02*
X23520000Y63898733I90000J0D01*
G01*
X24240000Y63898733D01*
G75*
G02*
X24330000Y63808733I0J-90000D01*
G01*
X24330000Y62788733D01*
G75*
G02*
X24240000Y62698733I-90000J0D01*
G01*
X23520000Y62698733D01*
G75*
G02*
X23430000Y62788733I0J90000D01*
G01*
G37*
G04 #@! TD*
G04 #@! TO.C,D1*
G36*
G01*
X20130000Y65908733D02*
X20130000Y66928733D01*
G75*
G02*
X20220000Y67018733I90000J0D01*
G01*
X20940000Y67018733D01*
G75*
G02*
X21030000Y66928733I0J-90000D01*
G01*
X21030000Y65908733D01*
G75*
G02*
X20940000Y65818733I-90000J0D01*
G01*
X20220000Y65818733D01*
G75*
G02*
X20130000Y65908733I0J90000D01*
G01*
G37*
G36*
G01*
X23430000Y65908733D02*
X23430000Y66928733D01*
G75*
G02*
X23520000Y67018733I90000J0D01*
G01*
X24240000Y67018733D01*
G75*
G02*
X24330000Y66928733I0J-90000D01*
G01*
X24330000Y65908733D01*
G75*
G02*
X24240000Y65818733I-90000J0D01*
G01*
X23520000Y65818733D01*
G75*
G02*
X23430000Y65908733I0J90000D01*
G01*
G37*
G04 #@! TD*
G04 #@! TO.C,C5*
G36*
G01*
X29920000Y38608807D02*
X29920000Y39288807D01*
G75*
G02*
X30005000Y39373807I85000J0D01*
G01*
X30685000Y39373807D01*
G75*
G02*
X30770000Y39288807I0J-85000D01*
G01*
X30770000Y38608807D01*
G75*
G02*
X30685000Y38523807I-85000J0D01*
G01*
X30005000Y38523807D01*
G75*
G02*
X29920000Y38608807I0J85000D01*
G01*
G37*
G36*
G01*
X31500002Y38608807D02*
X31500002Y39288807D01*
G75*
G02*
X31585002Y39373807I85000J0D01*
G01*
X32265002Y39373807D01*
G75*
G02*
X32350002Y39288807I0J-85000D01*
G01*
X32350002Y38608807D01*
G75*
G02*
X32265002Y38523807I-85000J0D01*
G01*
X31585002Y38523807D01*
G75*
G02*
X31500002Y38608807I0J85000D01*
G01*
G37*
G04 #@! TD*
G04 #@! TO.C,C4*
G36*
G01*
X29920000Y40558792D02*
X29920000Y41238792D01*
G75*
G02*
X30005000Y41323792I85000J0D01*
G01*
X30685000Y41323792D01*
G75*
G02*
X30770000Y41238792I0J-85000D01*
G01*
X30770000Y40558792D01*
G75*
G02*
X30685000Y40473792I-85000J0D01*
G01*
X30005000Y40473792D01*
G75*
G02*
X29920000Y40558792I0J85000D01*
G01*
G37*
G36*
G01*
X31500002Y40558792D02*
X31500002Y41238792D01*
G75*
G02*
X31585002Y41323792I85000J0D01*
G01*
X32265002Y41323792D01*
G75*
G02*
X32350002Y41238792I0J-85000D01*
G01*
X32350002Y40558792D01*
G75*
G02*
X32265002Y40473792I-85000J0D01*
G01*
X31585002Y40473792D01*
G75*
G02*
X31500002Y40558792I0J85000D01*
G01*
G37*
G04 #@! TD*
G04 #@! TO.C,C3*
G36*
G01*
X29920000Y42508777D02*
X29920000Y43188777D01*
G75*
G02*
X30005000Y43273777I85000J0D01*
G01*
X30685000Y43273777D01*
G75*
G02*
X30770000Y43188777I0J-85000D01*
G01*
X30770000Y42508777D01*
G75*
G02*
X30685000Y42423777I-85000J0D01*
G01*
X30005000Y42423777D01*
G75*
G02*
X29920000Y42508777I0J85000D01*
G01*
G37*
G36*
G01*
X31500002Y42508777D02*
X31500002Y43188777D01*
G75*
G02*
X31585002Y43273777I85000J0D01*
G01*
X32265002Y43273777D01*
G75*
G02*
X32350002Y43188777I0J-85000D01*
G01*
X32350002Y42508777D01*
G75*
G02*
X32265002Y42423777I-85000J0D01*
G01*
X31585002Y42423777D01*
G75*
G02*
X31500002Y42508777I0J85000D01*
G01*
G37*
G04 #@! TD*
G04 #@! TO.C,C2*
G36*
G01*
X29920000Y44458762D02*
X29920000Y45138762D01*
G75*
G02*
X30005000Y45223762I85000J0D01*
G01*
X30685000Y45223762D01*
G75*
G02*
X30770000Y45138762I0J-85000D01*
G01*
X30770000Y44458762D01*
G75*
G02*
X30685000Y44373762I-85000J0D01*
G01*
X30005000Y44373762D01*
G75*
G02*
X29920000Y44458762I0J85000D01*
G01*
G37*
G36*
G01*
X31500002Y44458762D02*
X31500002Y45138762D01*
G75*
G02*
X31585002Y45223762I85000J0D01*
G01*
X32265002Y45223762D01*
G75*
G02*
X32350002Y45138762I0J-85000D01*
G01*
X32350002Y44458762D01*
G75*
G02*
X32265002Y44373762I-85000J0D01*
G01*
X31585002Y44373762D01*
G75*
G02*
X31500002Y44458762I0J85000D01*
G01*
G37*
G04 #@! TD*
G04 #@! TO.C,C1*
G36*
G01*
X29920000Y46408747D02*
X29920000Y47088747D01*
G75*
G02*
X30005000Y47173747I85000J0D01*
G01*
X30685000Y47173747D01*
G75*
G02*
X30770000Y47088747I0J-85000D01*
G01*
X30770000Y46408747D01*
G75*
G02*
X30685000Y46323747I-85000J0D01*
G01*
X30005000Y46323747D01*
G75*
G02*
X29920000Y46408747I0J85000D01*
G01*
G37*
G36*
G01*
X31500002Y46408747D02*
X31500002Y47088747D01*
G75*
G02*
X31585002Y47173747I85000J0D01*
G01*
X32265002Y47173747D01*
G75*
G02*
X32350002Y47088747I0J-85000D01*
G01*
X32350002Y46408747D01*
G75*
G02*
X32265002Y46323747I-85000J0D01*
G01*
X31585002Y46323747D01*
G75*
G02*
X31500002Y46408747I0J85000D01*
G01*
G37*
G04 #@! TD*
D14*
G04 #@! TO.C,P1*
X144952000Y113258000D03*
D15*
X142502000Y105458000D03*
D14*
X70452000Y113258000D03*
D15*
X20702000Y105458000D03*
D14*
X18252000Y113258000D03*
D16*
X137852000Y108258000D03*
X132052000Y108258000D03*
X134952000Y105928000D03*
X137852000Y100128000D03*
X132052000Y100128000D03*
D17*
X78432000Y100128000D03*
X80972000Y100128000D03*
X83512000Y100128000D03*
X86052000Y100128000D03*
X88592000Y100128000D03*
X91132000Y100128000D03*
X93672000Y100128000D03*
X96212000Y100128000D03*
X98752000Y100128000D03*
X101292000Y100128000D03*
X103832000Y100128000D03*
X106372000Y100128000D03*
X108912000Y100128000D03*
X111452000Y100128000D03*
X113992000Y100128000D03*
X116532000Y100128000D03*
X119072000Y100128000D03*
X121612000Y100128000D03*
X124152000Y100128000D03*
X78432000Y102668000D03*
X80972000Y102668000D03*
X83512000Y102668000D03*
X86052000Y102668000D03*
X88592000Y102668000D03*
X91132000Y102668000D03*
X93672000Y102668000D03*
X96212000Y102668000D03*
X98752000Y102668000D03*
X101292000Y102668000D03*
X103832000Y102668000D03*
X106372000Y102668000D03*
X108912000Y102668000D03*
X111452000Y102668000D03*
X113992000Y102668000D03*
X116532000Y102668000D03*
X119072000Y102668000D03*
X121612000Y102668000D03*
X124152000Y102668000D03*
X78432000Y108718000D03*
X80972000Y108718000D03*
X83512000Y108718000D03*
X86052000Y108718000D03*
X88592000Y108718000D03*
X91132000Y108718000D03*
X93672000Y108718000D03*
X96212000Y108718000D03*
X98752000Y108718000D03*
X101292000Y108718000D03*
X103832000Y108718000D03*
X106372000Y108718000D03*
X108912000Y108718000D03*
X111452000Y108718000D03*
X113992000Y108718000D03*
X116532000Y108718000D03*
X119072000Y108718000D03*
X121612000Y108718000D03*
X124152000Y108718000D03*
X78432000Y111258000D03*
X80972000Y111258000D03*
X83512000Y111258000D03*
X86052000Y111258000D03*
X88592000Y111258000D03*
X91132000Y111258000D03*
X93672000Y111258000D03*
X96212000Y111258000D03*
X98752000Y111258000D03*
X101292000Y111258000D03*
X103832000Y111258000D03*
X106372000Y111258000D03*
X108912000Y111258000D03*
X111452000Y111258000D03*
X113992000Y111258000D03*
X116532000Y111258000D03*
X119072000Y111258000D03*
X121612000Y111258000D03*
X124152000Y111258000D03*
X62462000Y111258000D03*
X59922000Y111258000D03*
X57382000Y111258000D03*
X54842000Y111258000D03*
X52302000Y111258000D03*
X49762000Y111258000D03*
X47222000Y111258000D03*
X44682000Y111258000D03*
X62462000Y108718000D03*
X59922000Y108718000D03*
X57382000Y108718000D03*
X54842000Y108718000D03*
X52302000Y108718000D03*
X49762000Y108718000D03*
X47222000Y108718000D03*
X44682000Y108718000D03*
X62462000Y102668000D03*
X59922000Y102668000D03*
X57382000Y102668000D03*
X54842000Y102668000D03*
X52302000Y102668000D03*
X49762000Y102668000D03*
X47222000Y102668000D03*
X44682000Y102668000D03*
X62462000Y100128000D03*
X59922000Y100128000D03*
X57382000Y100128000D03*
X54842000Y100128000D03*
X52302000Y100128000D03*
X49762000Y100128000D03*
X47222000Y100128000D03*
X44682000Y100128000D03*
D16*
X36852000Y108258000D03*
X31052000Y108258000D03*
X25152000Y108258000D03*
X33952000Y105928000D03*
X28052000Y105928000D03*
X36852000Y100128000D03*
X31052000Y100128000D03*
X25152000Y100128000D03*
G04 #@! TD*
G04 #@! TO.C,L2*
G36*
G01*
X91380000Y34133750D02*
X91380000Y34646250D01*
G75*
G02*
X91598750Y34865000I218750J0D01*
G01*
X92036250Y34865000D01*
G75*
G02*
X92255000Y34646250I0J-218750D01*
G01*
X92255000Y34133750D01*
G75*
G02*
X92036250Y33915000I-218750J0D01*
G01*
X91598750Y33915000D01*
G75*
G02*
X91380000Y34133750I0J218750D01*
G01*
G37*
G36*
G01*
X92955000Y34133750D02*
X92955000Y34646250D01*
G75*
G02*
X93173750Y34865000I218750J0D01*
G01*
X93611250Y34865000D01*
G75*
G02*
X93830000Y34646250I0J-218750D01*
G01*
X93830000Y34133750D01*
G75*
G02*
X93611250Y33915000I-218750J0D01*
G01*
X93173750Y33915000D01*
G75*
G02*
X92955000Y34133750I0J218750D01*
G01*
G37*
G04 #@! TD*
D18*
G04 #@! TO.C,M7*
X118449996Y24713329D03*
D19*
X108100002Y24763327D03*
X108600003Y24763327D03*
D20*
X115150000Y25813325D03*
X114274998Y26338325D03*
X115450002Y27088323D03*
X115374999Y30638324D03*
G04 #@! TD*
G04 #@! TO.C,F5*
G36*
G01*
X70240000Y39693750D02*
X70240000Y40206250D01*
G75*
G02*
X70458750Y40425000I218750J0D01*
G01*
X70896250Y40425000D01*
G75*
G02*
X71115000Y40206250I0J-218750D01*
G01*
X71115000Y39693750D01*
G75*
G02*
X70896250Y39475000I-218750J0D01*
G01*
X70458750Y39475000D01*
G75*
G02*
X70240000Y39693750I0J218750D01*
G01*
G37*
G36*
G01*
X71815000Y39693750D02*
X71815000Y40206250D01*
G75*
G02*
X72033750Y40425000I218750J0D01*
G01*
X72471250Y40425000D01*
G75*
G02*
X72690000Y40206250I0J-218750D01*
G01*
X72690000Y39693750D01*
G75*
G02*
X72471250Y39475000I-218750J0D01*
G01*
X72033750Y39475000D01*
G75*
G02*
X71815000Y39693750I0J218750D01*
G01*
G37*
G04 #@! TD*
G04 #@! TO.C,Q4*
G36*
G01*
X58085000Y46230000D02*
X58085000Y46930000D01*
G75*
G02*
X58335000Y47180000I250000J0D01*
G01*
X60035000Y47180000D01*
G75*
G02*
X60285000Y46930000I0J-250000D01*
G01*
X60285000Y46230000D01*
G75*
G02*
X60035000Y45980000I-250000J0D01*
G01*
X58335000Y45980000D01*
G75*
G02*
X58085000Y46230000I0J250000D01*
G01*
G37*
G36*
G01*
X62285000Y41649997D02*
X62285000Y46950003D01*
G75*
G02*
X62534997Y47200000I249997J0D01*
G01*
X68435003Y47200000D01*
G75*
G02*
X68685000Y46950003I0J-249997D01*
G01*
X68685000Y41649997D01*
G75*
G02*
X68435003Y41400000I-249997J0D01*
G01*
X62534997Y41400000D01*
G75*
G02*
X62285000Y41649997I0J249997D01*
G01*
G37*
G36*
G01*
X58085000Y41670000D02*
X58085000Y42370000D01*
G75*
G02*
X58335000Y42620000I250000J0D01*
G01*
X60035000Y42620000D01*
G75*
G02*
X60285000Y42370000I0J-250000D01*
G01*
X60285000Y41670000D01*
G75*
G02*
X60035000Y41420000I-250000J0D01*
G01*
X58335000Y41420000D01*
G75*
G02*
X58085000Y41670000I0J250000D01*
G01*
G37*
G04 #@! TD*
G04 #@! TO.C,L1*
G36*
G01*
X91380000Y36643750D02*
X91380000Y37156250D01*
G75*
G02*
X91598750Y37375000I218750J0D01*
G01*
X92036250Y37375000D01*
G75*
G02*
X92255000Y37156250I0J-218750D01*
G01*
X92255000Y36643750D01*
G75*
G02*
X92036250Y36425000I-218750J0D01*
G01*
X91598750Y36425000D01*
G75*
G02*
X91380000Y36643750I0J218750D01*
G01*
G37*
G36*
G01*
X92955000Y36643750D02*
X92955000Y37156250D01*
G75*
G02*
X93173750Y37375000I218750J0D01*
G01*
X93611250Y37375000D01*
G75*
G02*
X93830000Y37156250I0J-218750D01*
G01*
X93830000Y36643750D01*
G75*
G02*
X93611250Y36425000I-218750J0D01*
G01*
X93173750Y36425000D01*
G75*
G02*
X92955000Y36643750I0J218750D01*
G01*
G37*
G04 #@! TD*
G04 #@! TO.C,Q1*
G36*
G01*
X58085000Y70815000D02*
X58085000Y71515000D01*
G75*
G02*
X58335000Y71765000I250000J0D01*
G01*
X60035000Y71765000D01*
G75*
G02*
X60285000Y71515000I0J-250000D01*
G01*
X60285000Y70815000D01*
G75*
G02*
X60035000Y70565000I-250000J0D01*
G01*
X58335000Y70565000D01*
G75*
G02*
X58085000Y70815000I0J250000D01*
G01*
G37*
G36*
G01*
X62285000Y66234997D02*
X62285000Y71535003D01*
G75*
G02*
X62534997Y71785000I249997J0D01*
G01*
X68435003Y71785000D01*
G75*
G02*
X68685000Y71535003I0J-249997D01*
G01*
X68685000Y66234997D01*
G75*
G02*
X68435003Y65985000I-249997J0D01*
G01*
X62534997Y65985000D01*
G75*
G02*
X62285000Y66234997I0J249997D01*
G01*
G37*
G36*
G01*
X58085000Y66255000D02*
X58085000Y66955000D01*
G75*
G02*
X58335000Y67205000I250000J0D01*
G01*
X60035000Y67205000D01*
G75*
G02*
X60285000Y66955000I0J-250000D01*
G01*
X60285000Y66255000D01*
G75*
G02*
X60035000Y66005000I-250000J0D01*
G01*
X58335000Y66005000D01*
G75*
G02*
X58085000Y66255000I0J250000D01*
G01*
G37*
G04 #@! TD*
G04 #@! TO.C,U2*
G36*
G01*
X80925000Y36555000D02*
X80925000Y36855000D01*
G75*
G02*
X81075000Y37005000I150000J0D01*
G01*
X82725000Y37005000D01*
G75*
G02*
X82875000Y36855000I0J-150000D01*
G01*
X82875000Y36555000D01*
G75*
G02*
X82725000Y36405000I-150000J0D01*
G01*
X81075000Y36405000D01*
G75*
G02*
X80925000Y36555000I0J150000D01*
G01*
G37*
G36*
G01*
X80925000Y35285000D02*
X80925000Y35585000D01*
G75*
G02*
X81075000Y35735000I150000J0D01*
G01*
X82725000Y35735000D01*
G75*
G02*
X82875000Y35585000I0J-150000D01*
G01*
X82875000Y35285000D01*
G75*
G02*
X82725000Y35135000I-150000J0D01*
G01*
X81075000Y35135000D01*
G75*
G02*
X80925000Y35285000I0J150000D01*
G01*
G37*
G36*
G01*
X80925000Y34015000D02*
X80925000Y34315000D01*
G75*
G02*
X81075000Y34465000I150000J0D01*
G01*
X82725000Y34465000D01*
G75*
G02*
X82875000Y34315000I0J-150000D01*
G01*
X82875000Y34015000D01*
G75*
G02*
X82725000Y33865000I-150000J0D01*
G01*
X81075000Y33865000D01*
G75*
G02*
X80925000Y34015000I0J150000D01*
G01*
G37*
G36*
G01*
X80925000Y32745000D02*
X80925000Y33045000D01*
G75*
G02*
X81075000Y33195000I150000J0D01*
G01*
X82725000Y33195000D01*
G75*
G02*
X82875000Y33045000I0J-150000D01*
G01*
X82875000Y32745000D01*
G75*
G02*
X82725000Y32595000I-150000J0D01*
G01*
X81075000Y32595000D01*
G75*
G02*
X80925000Y32745000I0J150000D01*
G01*
G37*
G36*
G01*
X85875000Y32745000D02*
X85875000Y33045000D01*
G75*
G02*
X86025000Y33195000I150000J0D01*
G01*
X87675000Y33195000D01*
G75*
G02*
X87825000Y33045000I0J-150000D01*
G01*
X87825000Y32745000D01*
G75*
G02*
X87675000Y32595000I-150000J0D01*
G01*
X86025000Y32595000D01*
G75*
G02*
X85875000Y32745000I0J150000D01*
G01*
G37*
G36*
G01*
X85875000Y34015000D02*
X85875000Y34315000D01*
G75*
G02*
X86025000Y34465000I150000J0D01*
G01*
X87675000Y34465000D01*
G75*
G02*
X87825000Y34315000I0J-150000D01*
G01*
X87825000Y34015000D01*
G75*
G02*
X87675000Y33865000I-150000J0D01*
G01*
X86025000Y33865000D01*
G75*
G02*
X85875000Y34015000I0J150000D01*
G01*
G37*
G36*
G01*
X85875000Y35285000D02*
X85875000Y35585000D01*
G75*
G02*
X86025000Y35735000I150000J0D01*
G01*
X87675000Y35735000D01*
G75*
G02*
X87825000Y35585000I0J-150000D01*
G01*
X87825000Y35285000D01*
G75*
G02*
X87675000Y35135000I-150000J0D01*
G01*
X86025000Y35135000D01*
G75*
G02*
X85875000Y35285000I0J150000D01*
G01*
G37*
G36*
G01*
X85875000Y36555000D02*
X85875000Y36855000D01*
G75*
G02*
X86025000Y37005000I150000J0D01*
G01*
X87675000Y37005000D01*
G75*
G02*
X87825000Y36855000I0J-150000D01*
G01*
X87825000Y36555000D01*
G75*
G02*
X87675000Y36405000I-150000J0D01*
G01*
X86025000Y36405000D01*
G75*
G02*
X85875000Y36555000I0J150000D01*
G01*
G37*
G04 #@! TD*
D21*
G04 #@! TO.C,M3*
X157500003Y81225000D03*
X157500003Y80025000D03*
X157500003Y82425000D03*
X157500003Y83625000D03*
X143075003Y77165000D03*
X143075003Y76165000D03*
G04 #@! TD*
G04 #@! TO.C,Q7*
G36*
G01*
X103520000Y64505000D02*
X103520000Y64805000D01*
G75*
G02*
X103670000Y64955000I150000J0D01*
G01*
X104845000Y64955000D01*
G75*
G02*
X104995000Y64805000I0J-150000D01*
G01*
X104995000Y64505000D01*
G75*
G02*
X104845000Y64355000I-150000J0D01*
G01*
X103670000Y64355000D01*
G75*
G02*
X103520000Y64505000I0J150000D01*
G01*
G37*
G36*
G01*
X103520000Y62605000D02*
X103520000Y62905000D01*
G75*
G02*
X103670000Y63055000I150000J0D01*
G01*
X104845000Y63055000D01*
G75*
G02*
X104995000Y62905000I0J-150000D01*
G01*
X104995000Y62605000D01*
G75*
G02*
X104845000Y62455000I-150000J0D01*
G01*
X103670000Y62455000D01*
G75*
G02*
X103520000Y62605000I0J150000D01*
G01*
G37*
G36*
G01*
X105395000Y63555000D02*
X105395000Y63855000D01*
G75*
G02*
X105545000Y64005000I150000J0D01*
G01*
X106720000Y64005000D01*
G75*
G02*
X106870000Y63855000I0J-150000D01*
G01*
X106870000Y63555000D01*
G75*
G02*
X106720000Y63405000I-150000J0D01*
G01*
X105545000Y63405000D01*
G75*
G02*
X105395000Y63555000I0J150000D01*
G01*
G37*
G04 #@! TD*
G04 #@! TO.C,J21*
G36*
G01*
X93225000Y68255000D02*
X93225000Y69605000D01*
G75*
G02*
X93475000Y69855000I250000J0D01*
G01*
X94675000Y69855000D01*
G75*
G02*
X94925000Y69605000I0J-250000D01*
G01*
X94925000Y68255000D01*
G75*
G02*
X94675000Y68005000I-250000J0D01*
G01*
X93475000Y68005000D01*
G75*
G02*
X93225000Y68255000I0J250000D01*
G01*
G37*
D22*
X96575000Y68930000D03*
X99075000Y68930000D03*
X101575000Y68930000D03*
X104075000Y68930000D03*
G04 #@! TD*
G04 #@! TO.C,U3*
G36*
G01*
X80925000Y71455000D02*
X80925000Y71755000D01*
G75*
G02*
X81075000Y71905000I150000J0D01*
G01*
X82725000Y71905000D01*
G75*
G02*
X82875000Y71755000I0J-150000D01*
G01*
X82875000Y71455000D01*
G75*
G02*
X82725000Y71305000I-150000J0D01*
G01*
X81075000Y71305000D01*
G75*
G02*
X80925000Y71455000I0J150000D01*
G01*
G37*
G36*
G01*
X80925000Y70185000D02*
X80925000Y70485000D01*
G75*
G02*
X81075000Y70635000I150000J0D01*
G01*
X82725000Y70635000D01*
G75*
G02*
X82875000Y70485000I0J-150000D01*
G01*
X82875000Y70185000D01*
G75*
G02*
X82725000Y70035000I-150000J0D01*
G01*
X81075000Y70035000D01*
G75*
G02*
X80925000Y70185000I0J150000D01*
G01*
G37*
G36*
G01*
X80925000Y68915000D02*
X80925000Y69215000D01*
G75*
G02*
X81075000Y69365000I150000J0D01*
G01*
X82725000Y69365000D01*
G75*
G02*
X82875000Y69215000I0J-150000D01*
G01*
X82875000Y68915000D01*
G75*
G02*
X82725000Y68765000I-150000J0D01*
G01*
X81075000Y68765000D01*
G75*
G02*
X80925000Y68915000I0J150000D01*
G01*
G37*
G36*
G01*
X80925000Y67645000D02*
X80925000Y67945000D01*
G75*
G02*
X81075000Y68095000I150000J0D01*
G01*
X82725000Y68095000D01*
G75*
G02*
X82875000Y67945000I0J-150000D01*
G01*
X82875000Y67645000D01*
G75*
G02*
X82725000Y67495000I-150000J0D01*
G01*
X81075000Y67495000D01*
G75*
G02*
X80925000Y67645000I0J150000D01*
G01*
G37*
G36*
G01*
X85875000Y67645000D02*
X85875000Y67945000D01*
G75*
G02*
X86025000Y68095000I150000J0D01*
G01*
X87675000Y68095000D01*
G75*
G02*
X87825000Y67945000I0J-150000D01*
G01*
X87825000Y67645000D01*
G75*
G02*
X87675000Y67495000I-150000J0D01*
G01*
X86025000Y67495000D01*
G75*
G02*
X85875000Y67645000I0J150000D01*
G01*
G37*
G36*
G01*
X85875000Y68915000D02*
X85875000Y69215000D01*
G75*
G02*
X86025000Y69365000I150000J0D01*
G01*
X87675000Y69365000D01*
G75*
G02*
X87825000Y69215000I0J-150000D01*
G01*
X87825000Y68915000D01*
G75*
G02*
X87675000Y68765000I-150000J0D01*
G01*
X86025000Y68765000D01*
G75*
G02*
X85875000Y68915000I0J150000D01*
G01*
G37*
G36*
G01*
X85875000Y70185000D02*
X85875000Y70485000D01*
G75*
G02*
X86025000Y70635000I150000J0D01*
G01*
X87675000Y70635000D01*
G75*
G02*
X87825000Y70485000I0J-150000D01*
G01*
X87825000Y70185000D01*
G75*
G02*
X87675000Y70035000I-150000J0D01*
G01*
X86025000Y70035000D01*
G75*
G02*
X85875000Y70185000I0J150000D01*
G01*
G37*
G36*
G01*
X85875000Y71455000D02*
X85875000Y71755000D01*
G75*
G02*
X86025000Y71905000I150000J0D01*
G01*
X87675000Y71905000D01*
G75*
G02*
X87825000Y71755000I0J-150000D01*
G01*
X87825000Y71455000D01*
G75*
G02*
X87675000Y71305000I-150000J0D01*
G01*
X86025000Y71305000D01*
G75*
G02*
X85875000Y71455000I0J150000D01*
G01*
G37*
G04 #@! TD*
G04 #@! TO.C,U7*
G36*
G01*
X91375000Y29535000D02*
X91375000Y29835000D01*
G75*
G02*
X91525000Y29985000I150000J0D01*
G01*
X93175000Y29985000D01*
G75*
G02*
X93325000Y29835000I0J-150000D01*
G01*
X93325000Y29535000D01*
G75*
G02*
X93175000Y29385000I-150000J0D01*
G01*
X91525000Y29385000D01*
G75*
G02*
X91375000Y29535000I0J150000D01*
G01*
G37*
G36*
G01*
X91375000Y28265000D02*
X91375000Y28565000D01*
G75*
G02*
X91525000Y28715000I150000J0D01*
G01*
X93175000Y28715000D01*
G75*
G02*
X93325000Y28565000I0J-150000D01*
G01*
X93325000Y28265000D01*
G75*
G02*
X93175000Y28115000I-150000J0D01*
G01*
X91525000Y28115000D01*
G75*
G02*
X91375000Y28265000I0J150000D01*
G01*
G37*
G36*
G01*
X91375000Y26995000D02*
X91375000Y27295000D01*
G75*
G02*
X91525000Y27445000I150000J0D01*
G01*
X93175000Y27445000D01*
G75*
G02*
X93325000Y27295000I0J-150000D01*
G01*
X93325000Y26995000D01*
G75*
G02*
X93175000Y26845000I-150000J0D01*
G01*
X91525000Y26845000D01*
G75*
G02*
X91375000Y26995000I0J150000D01*
G01*
G37*
G36*
G01*
X91375000Y25725000D02*
X91375000Y26025000D01*
G75*
G02*
X91525000Y26175000I150000J0D01*
G01*
X93175000Y26175000D01*
G75*
G02*
X93325000Y26025000I0J-150000D01*
G01*
X93325000Y25725000D01*
G75*
G02*
X93175000Y25575000I-150000J0D01*
G01*
X91525000Y25575000D01*
G75*
G02*
X91375000Y25725000I0J150000D01*
G01*
G37*
G36*
G01*
X96325000Y25725000D02*
X96325000Y26025000D01*
G75*
G02*
X96475000Y26175000I150000J0D01*
G01*
X98125000Y26175000D01*
G75*
G02*
X98275000Y26025000I0J-150000D01*
G01*
X98275000Y25725000D01*
G75*
G02*
X98125000Y25575000I-150000J0D01*
G01*
X96475000Y25575000D01*
G75*
G02*
X96325000Y25725000I0J150000D01*
G01*
G37*
G36*
G01*
X96325000Y26995000D02*
X96325000Y27295000D01*
G75*
G02*
X96475000Y27445000I150000J0D01*
G01*
X98125000Y27445000D01*
G75*
G02*
X98275000Y27295000I0J-150000D01*
G01*
X98275000Y26995000D01*
G75*
G02*
X98125000Y26845000I-150000J0D01*
G01*
X96475000Y26845000D01*
G75*
G02*
X96325000Y26995000I0J150000D01*
G01*
G37*
G36*
G01*
X96325000Y28265000D02*
X96325000Y28565000D01*
G75*
G02*
X96475000Y28715000I150000J0D01*
G01*
X98125000Y28715000D01*
G75*
G02*
X98275000Y28565000I0J-150000D01*
G01*
X98275000Y28265000D01*
G75*
G02*
X98125000Y28115000I-150000J0D01*
G01*
X96475000Y28115000D01*
G75*
G02*
X96325000Y28265000I0J150000D01*
G01*
G37*
G36*
G01*
X96325000Y29535000D02*
X96325000Y29835000D01*
G75*
G02*
X96475000Y29985000I150000J0D01*
G01*
X98125000Y29985000D01*
G75*
G02*
X98275000Y29835000I0J-150000D01*
G01*
X98275000Y29535000D01*
G75*
G02*
X98125000Y29385000I-150000J0D01*
G01*
X96475000Y29385000D01*
G75*
G02*
X96325000Y29535000I0J150000D01*
G01*
G37*
G04 #@! TD*
G04 #@! TO.C,U4*
G36*
G01*
X80925000Y64875000D02*
X80925000Y65175000D01*
G75*
G02*
X81075000Y65325000I150000J0D01*
G01*
X82725000Y65325000D01*
G75*
G02*
X82875000Y65175000I0J-150000D01*
G01*
X82875000Y64875000D01*
G75*
G02*
X82725000Y64725000I-150000J0D01*
G01*
X81075000Y64725000D01*
G75*
G02*
X80925000Y64875000I0J150000D01*
G01*
G37*
G36*
G01*
X80925000Y63605000D02*
X80925000Y63905000D01*
G75*
G02*
X81075000Y64055000I150000J0D01*
G01*
X82725000Y64055000D01*
G75*
G02*
X82875000Y63905000I0J-150000D01*
G01*
X82875000Y63605000D01*
G75*
G02*
X82725000Y63455000I-150000J0D01*
G01*
X81075000Y63455000D01*
G75*
G02*
X80925000Y63605000I0J150000D01*
G01*
G37*
G36*
G01*
X80925000Y62335000D02*
X80925000Y62635000D01*
G75*
G02*
X81075000Y62785000I150000J0D01*
G01*
X82725000Y62785000D01*
G75*
G02*
X82875000Y62635000I0J-150000D01*
G01*
X82875000Y62335000D01*
G75*
G02*
X82725000Y62185000I-150000J0D01*
G01*
X81075000Y62185000D01*
G75*
G02*
X80925000Y62335000I0J150000D01*
G01*
G37*
G36*
G01*
X80925000Y61065000D02*
X80925000Y61365000D01*
G75*
G02*
X81075000Y61515000I150000J0D01*
G01*
X82725000Y61515000D01*
G75*
G02*
X82875000Y61365000I0J-150000D01*
G01*
X82875000Y61065000D01*
G75*
G02*
X82725000Y60915000I-150000J0D01*
G01*
X81075000Y60915000D01*
G75*
G02*
X80925000Y61065000I0J150000D01*
G01*
G37*
G36*
G01*
X85875000Y61065000D02*
X85875000Y61365000D01*
G75*
G02*
X86025000Y61515000I150000J0D01*
G01*
X87675000Y61515000D01*
G75*
G02*
X87825000Y61365000I0J-150000D01*
G01*
X87825000Y61065000D01*
G75*
G02*
X87675000Y60915000I-150000J0D01*
G01*
X86025000Y60915000D01*
G75*
G02*
X85875000Y61065000I0J150000D01*
G01*
G37*
G36*
G01*
X85875000Y62335000D02*
X85875000Y62635000D01*
G75*
G02*
X86025000Y62785000I150000J0D01*
G01*
X87675000Y62785000D01*
G75*
G02*
X87825000Y62635000I0J-150000D01*
G01*
X87825000Y62335000D01*
G75*
G02*
X87675000Y62185000I-150000J0D01*
G01*
X86025000Y62185000D01*
G75*
G02*
X85875000Y62335000I0J150000D01*
G01*
G37*
G36*
G01*
X85875000Y63605000D02*
X85875000Y63905000D01*
G75*
G02*
X86025000Y64055000I150000J0D01*
G01*
X87675000Y64055000D01*
G75*
G02*
X87825000Y63905000I0J-150000D01*
G01*
X87825000Y63605000D01*
G75*
G02*
X87675000Y63455000I-150000J0D01*
G01*
X86025000Y63455000D01*
G75*
G02*
X85875000Y63605000I0J150000D01*
G01*
G37*
G36*
G01*
X85875000Y64875000D02*
X85875000Y65175000D01*
G75*
G02*
X86025000Y65325000I150000J0D01*
G01*
X87675000Y65325000D01*
G75*
G02*
X87825000Y65175000I0J-150000D01*
G01*
X87825000Y64875000D01*
G75*
G02*
X87675000Y64725000I-150000J0D01*
G01*
X86025000Y64725000D01*
G75*
G02*
X85875000Y64875000I0J150000D01*
G01*
G37*
G04 #@! TD*
G04 #@! TO.C,R32*
G36*
G01*
X70230000Y49625000D02*
X70230000Y52475000D01*
G75*
G02*
X70480000Y52725000I250000J0D01*
G01*
X71205000Y52725000D01*
G75*
G02*
X71455000Y52475000I0J-250000D01*
G01*
X71455000Y49625000D01*
G75*
G02*
X71205000Y49375000I-250000J0D01*
G01*
X70480000Y49375000D01*
G75*
G02*
X70230000Y49625000I0J250000D01*
G01*
G37*
G36*
G01*
X76155000Y49625000D02*
X76155000Y52475000D01*
G75*
G02*
X76405000Y52725000I250000J0D01*
G01*
X77130000Y52725000D01*
G75*
G02*
X77380000Y52475000I0J-250000D01*
G01*
X77380000Y49625000D01*
G75*
G02*
X77130000Y49375000I-250000J0D01*
G01*
X76405000Y49375000D01*
G75*
G02*
X76155000Y49625000I0J250000D01*
G01*
G37*
G04 #@! TD*
G04 #@! TO.C,U8*
G36*
G01*
X91375000Y43135000D02*
X91375000Y43435000D01*
G75*
G02*
X91525000Y43585000I150000J0D01*
G01*
X93175000Y43585000D01*
G75*
G02*
X93325000Y43435000I0J-150000D01*
G01*
X93325000Y43135000D01*
G75*
G02*
X93175000Y42985000I-150000J0D01*
G01*
X91525000Y42985000D01*
G75*
G02*
X91375000Y43135000I0J150000D01*
G01*
G37*
G36*
G01*
X91375000Y41865000D02*
X91375000Y42165000D01*
G75*
G02*
X91525000Y42315000I150000J0D01*
G01*
X93175000Y42315000D01*
G75*
G02*
X93325000Y42165000I0J-150000D01*
G01*
X93325000Y41865000D01*
G75*
G02*
X93175000Y41715000I-150000J0D01*
G01*
X91525000Y41715000D01*
G75*
G02*
X91375000Y41865000I0J150000D01*
G01*
G37*
G36*
G01*
X91375000Y40595000D02*
X91375000Y40895000D01*
G75*
G02*
X91525000Y41045000I150000J0D01*
G01*
X93175000Y41045000D01*
G75*
G02*
X93325000Y40895000I0J-150000D01*
G01*
X93325000Y40595000D01*
G75*
G02*
X93175000Y40445000I-150000J0D01*
G01*
X91525000Y40445000D01*
G75*
G02*
X91375000Y40595000I0J150000D01*
G01*
G37*
G36*
G01*
X91375000Y39325000D02*
X91375000Y39625000D01*
G75*
G02*
X91525000Y39775000I150000J0D01*
G01*
X93175000Y39775000D01*
G75*
G02*
X93325000Y39625000I0J-150000D01*
G01*
X93325000Y39325000D01*
G75*
G02*
X93175000Y39175000I-150000J0D01*
G01*
X91525000Y39175000D01*
G75*
G02*
X91375000Y39325000I0J150000D01*
G01*
G37*
G36*
G01*
X96325000Y39325000D02*
X96325000Y39625000D01*
G75*
G02*
X96475000Y39775000I150000J0D01*
G01*
X98125000Y39775000D01*
G75*
G02*
X98275000Y39625000I0J-150000D01*
G01*
X98275000Y39325000D01*
G75*
G02*
X98125000Y39175000I-150000J0D01*
G01*
X96475000Y39175000D01*
G75*
G02*
X96325000Y39325000I0J150000D01*
G01*
G37*
G36*
G01*
X96325000Y40595000D02*
X96325000Y40895000D01*
G75*
G02*
X96475000Y41045000I150000J0D01*
G01*
X98125000Y41045000D01*
G75*
G02*
X98275000Y40895000I0J-150000D01*
G01*
X98275000Y40595000D01*
G75*
G02*
X98125000Y40445000I-150000J0D01*
G01*
X96475000Y40445000D01*
G75*
G02*
X96325000Y40595000I0J150000D01*
G01*
G37*
G36*
G01*
X96325000Y41865000D02*
X96325000Y42165000D01*
G75*
G02*
X96475000Y42315000I150000J0D01*
G01*
X98125000Y42315000D01*
G75*
G02*
X98275000Y42165000I0J-150000D01*
G01*
X98275000Y41865000D01*
G75*
G02*
X98125000Y41715000I-150000J0D01*
G01*
X96475000Y41715000D01*
G75*
G02*
X96325000Y41865000I0J150000D01*
G01*
G37*
G36*
G01*
X96325000Y43135000D02*
X96325000Y43435000D01*
G75*
G02*
X96475000Y43585000I150000J0D01*
G01*
X98125000Y43585000D01*
G75*
G02*
X98275000Y43435000I0J-150000D01*
G01*
X98275000Y43135000D01*
G75*
G02*
X98125000Y42985000I-150000J0D01*
G01*
X96475000Y42985000D01*
G75*
G02*
X96325000Y43135000I0J150000D01*
G01*
G37*
G04 #@! TD*
G04 #@! TO.C,D6*
G36*
G01*
X95380000Y36555000D02*
X95380000Y36855000D01*
G75*
G02*
X95530000Y37005000I150000J0D01*
G01*
X96705000Y37005000D01*
G75*
G02*
X96855000Y36855000I0J-150000D01*
G01*
X96855000Y36555000D01*
G75*
G02*
X96705000Y36405000I-150000J0D01*
G01*
X95530000Y36405000D01*
G75*
G02*
X95380000Y36555000I0J150000D01*
G01*
G37*
G36*
G01*
X95380000Y34655000D02*
X95380000Y34955000D01*
G75*
G02*
X95530000Y35105000I150000J0D01*
G01*
X96705000Y35105000D01*
G75*
G02*
X96855000Y34955000I0J-150000D01*
G01*
X96855000Y34655000D01*
G75*
G02*
X96705000Y34505000I-150000J0D01*
G01*
X95530000Y34505000D01*
G75*
G02*
X95380000Y34655000I0J150000D01*
G01*
G37*
G36*
G01*
X97255000Y35605000D02*
X97255000Y35905000D01*
G75*
G02*
X97405000Y36055000I150000J0D01*
G01*
X98580000Y36055000D01*
G75*
G02*
X98730000Y35905000I0J-150000D01*
G01*
X98730000Y35605000D01*
G75*
G02*
X98580000Y35455000I-150000J0D01*
G01*
X97405000Y35455000D01*
G75*
G02*
X97255000Y35605000I0J150000D01*
G01*
G37*
G04 #@! TD*
G04 #@! TO.C,D5*
G36*
G01*
X91420000Y55130000D02*
X91420000Y56430000D01*
G75*
G02*
X91670000Y56680000I250000J0D01*
G01*
X93670000Y56680000D01*
G75*
G02*
X93920000Y56430000I0J-250000D01*
G01*
X93920000Y55130000D01*
G75*
G02*
X93670000Y54880000I-250000J0D01*
G01*
X91670000Y54880000D01*
G75*
G02*
X91420000Y55130000I0J250000D01*
G01*
G37*
G36*
G01*
X95420000Y55130000D02*
X95420000Y56430000D01*
G75*
G02*
X95670000Y56680000I250000J0D01*
G01*
X97670000Y56680000D01*
G75*
G02*
X97920000Y56430000I0J-250000D01*
G01*
X97920000Y55130000D01*
G75*
G02*
X97670000Y54880000I-250000J0D01*
G01*
X95670000Y54880000D01*
G75*
G02*
X95420000Y55130000I0J250000D01*
G01*
G37*
G04 #@! TD*
G04 #@! TO.C,Q5*
G36*
G01*
X58085000Y38035000D02*
X58085000Y38735000D01*
G75*
G02*
X58335000Y38985000I250000J0D01*
G01*
X60035000Y38985000D01*
G75*
G02*
X60285000Y38735000I0J-250000D01*
G01*
X60285000Y38035000D01*
G75*
G02*
X60035000Y37785000I-250000J0D01*
G01*
X58335000Y37785000D01*
G75*
G02*
X58085000Y38035000I0J250000D01*
G01*
G37*
G36*
G01*
X62285000Y33454997D02*
X62285000Y38755003D01*
G75*
G02*
X62534997Y39005000I249997J0D01*
G01*
X68435003Y39005000D01*
G75*
G02*
X68685000Y38755003I0J-249997D01*
G01*
X68685000Y33454997D01*
G75*
G02*
X68435003Y33205000I-249997J0D01*
G01*
X62534997Y33205000D01*
G75*
G02*
X62285000Y33454997I0J249997D01*
G01*
G37*
G36*
G01*
X58085000Y33475000D02*
X58085000Y34175000D01*
G75*
G02*
X58335000Y34425000I250000J0D01*
G01*
X60035000Y34425000D01*
G75*
G02*
X60285000Y34175000I0J-250000D01*
G01*
X60285000Y33475000D01*
G75*
G02*
X60035000Y33225000I-250000J0D01*
G01*
X58335000Y33225000D01*
G75*
G02*
X58085000Y33475000I0J250000D01*
G01*
G37*
G04 #@! TD*
G04 #@! TO.C,U6*
G36*
G01*
X80925000Y51715000D02*
X80925000Y52015000D01*
G75*
G02*
X81075000Y52165000I150000J0D01*
G01*
X82725000Y52165000D01*
G75*
G02*
X82875000Y52015000I0J-150000D01*
G01*
X82875000Y51715000D01*
G75*
G02*
X82725000Y51565000I-150000J0D01*
G01*
X81075000Y51565000D01*
G75*
G02*
X80925000Y51715000I0J150000D01*
G01*
G37*
G36*
G01*
X80925000Y50445000D02*
X80925000Y50745000D01*
G75*
G02*
X81075000Y50895000I150000J0D01*
G01*
X82725000Y50895000D01*
G75*
G02*
X82875000Y50745000I0J-150000D01*
G01*
X82875000Y50445000D01*
G75*
G02*
X82725000Y50295000I-150000J0D01*
G01*
X81075000Y50295000D01*
G75*
G02*
X80925000Y50445000I0J150000D01*
G01*
G37*
G36*
G01*
X80925000Y49175000D02*
X80925000Y49475000D01*
G75*
G02*
X81075000Y49625000I150000J0D01*
G01*
X82725000Y49625000D01*
G75*
G02*
X82875000Y49475000I0J-150000D01*
G01*
X82875000Y49175000D01*
G75*
G02*
X82725000Y49025000I-150000J0D01*
G01*
X81075000Y49025000D01*
G75*
G02*
X80925000Y49175000I0J150000D01*
G01*
G37*
G36*
G01*
X80925000Y47905000D02*
X80925000Y48205000D01*
G75*
G02*
X81075000Y48355000I150000J0D01*
G01*
X82725000Y48355000D01*
G75*
G02*
X82875000Y48205000I0J-150000D01*
G01*
X82875000Y47905000D01*
G75*
G02*
X82725000Y47755000I-150000J0D01*
G01*
X81075000Y47755000D01*
G75*
G02*
X80925000Y47905000I0J150000D01*
G01*
G37*
G36*
G01*
X85875000Y47905000D02*
X85875000Y48205000D01*
G75*
G02*
X86025000Y48355000I150000J0D01*
G01*
X87675000Y48355000D01*
G75*
G02*
X87825000Y48205000I0J-150000D01*
G01*
X87825000Y47905000D01*
G75*
G02*
X87675000Y47755000I-150000J0D01*
G01*
X86025000Y47755000D01*
G75*
G02*
X85875000Y47905000I0J150000D01*
G01*
G37*
G36*
G01*
X85875000Y49175000D02*
X85875000Y49475000D01*
G75*
G02*
X86025000Y49625000I150000J0D01*
G01*
X87675000Y49625000D01*
G75*
G02*
X87825000Y49475000I0J-150000D01*
G01*
X87825000Y49175000D01*
G75*
G02*
X87675000Y49025000I-150000J0D01*
G01*
X86025000Y49025000D01*
G75*
G02*
X85875000Y49175000I0J150000D01*
G01*
G37*
G36*
G01*
X85875000Y50445000D02*
X85875000Y50745000D01*
G75*
G02*
X86025000Y50895000I150000J0D01*
G01*
X87675000Y50895000D01*
G75*
G02*
X87825000Y50745000I0J-150000D01*
G01*
X87825000Y50445000D01*
G75*
G02*
X87675000Y50295000I-150000J0D01*
G01*
X86025000Y50295000D01*
G75*
G02*
X85875000Y50445000I0J150000D01*
G01*
G37*
G36*
G01*
X85875000Y51715000D02*
X85875000Y52015000D01*
G75*
G02*
X86025000Y52165000I150000J0D01*
G01*
X87675000Y52165000D01*
G75*
G02*
X87825000Y52015000I0J-150000D01*
G01*
X87825000Y51715000D01*
G75*
G02*
X87675000Y51565000I-150000J0D01*
G01*
X86025000Y51565000D01*
G75*
G02*
X85875000Y51715000I0J150000D01*
G01*
G37*
G04 #@! TD*
G04 #@! TO.C,Q6*
G36*
G01*
X58085000Y29840000D02*
X58085000Y30540000D01*
G75*
G02*
X58335000Y30790000I250000J0D01*
G01*
X60035000Y30790000D01*
G75*
G02*
X60285000Y30540000I0J-250000D01*
G01*
X60285000Y29840000D01*
G75*
G02*
X60035000Y29590000I-250000J0D01*
G01*
X58335000Y29590000D01*
G75*
G02*
X58085000Y29840000I0J250000D01*
G01*
G37*
G36*
G01*
X62285000Y25259997D02*
X62285000Y30560003D01*
G75*
G02*
X62534997Y30810000I249997J0D01*
G01*
X68435003Y30810000D01*
G75*
G02*
X68685000Y30560003I0J-249997D01*
G01*
X68685000Y25259997D01*
G75*
G02*
X68435003Y25010000I-249997J0D01*
G01*
X62534997Y25010000D01*
G75*
G02*
X62285000Y25259997I0J249997D01*
G01*
G37*
G36*
G01*
X58085000Y25280000D02*
X58085000Y25980000D01*
G75*
G02*
X58335000Y26230000I250000J0D01*
G01*
X60035000Y26230000D01*
G75*
G02*
X60285000Y25980000I0J-250000D01*
G01*
X60285000Y25280000D01*
G75*
G02*
X60035000Y25030000I-250000J0D01*
G01*
X58335000Y25030000D01*
G75*
G02*
X58085000Y25280000I0J250000D01*
G01*
G37*
G04 #@! TD*
G04 #@! TO.C,F4*
G36*
G01*
X70240000Y42203750D02*
X70240000Y42716250D01*
G75*
G02*
X70458750Y42935000I218750J0D01*
G01*
X70896250Y42935000D01*
G75*
G02*
X71115000Y42716250I0J-218750D01*
G01*
X71115000Y42203750D01*
G75*
G02*
X70896250Y41985000I-218750J0D01*
G01*
X70458750Y41985000D01*
G75*
G02*
X70240000Y42203750I0J218750D01*
G01*
G37*
G36*
G01*
X71815000Y42203750D02*
X71815000Y42716250D01*
G75*
G02*
X72033750Y42935000I218750J0D01*
G01*
X72471250Y42935000D01*
G75*
G02*
X72690000Y42716250I0J-218750D01*
G01*
X72690000Y42203750D01*
G75*
G02*
X72471250Y41985000I-218750J0D01*
G01*
X72033750Y41985000D01*
G75*
G02*
X71815000Y42203750I0J218750D01*
G01*
G37*
G04 #@! TD*
G04 #@! TO.C,U5*
G36*
G01*
X80925000Y58295000D02*
X80925000Y58595000D01*
G75*
G02*
X81075000Y58745000I150000J0D01*
G01*
X82725000Y58745000D01*
G75*
G02*
X82875000Y58595000I0J-150000D01*
G01*
X82875000Y58295000D01*
G75*
G02*
X82725000Y58145000I-150000J0D01*
G01*
X81075000Y58145000D01*
G75*
G02*
X80925000Y58295000I0J150000D01*
G01*
G37*
G36*
G01*
X80925000Y57025000D02*
X80925000Y57325000D01*
G75*
G02*
X81075000Y57475000I150000J0D01*
G01*
X82725000Y57475000D01*
G75*
G02*
X82875000Y57325000I0J-150000D01*
G01*
X82875000Y57025000D01*
G75*
G02*
X82725000Y56875000I-150000J0D01*
G01*
X81075000Y56875000D01*
G75*
G02*
X80925000Y57025000I0J150000D01*
G01*
G37*
G36*
G01*
X80925000Y55755000D02*
X80925000Y56055000D01*
G75*
G02*
X81075000Y56205000I150000J0D01*
G01*
X82725000Y56205000D01*
G75*
G02*
X82875000Y56055000I0J-150000D01*
G01*
X82875000Y55755000D01*
G75*
G02*
X82725000Y55605000I-150000J0D01*
G01*
X81075000Y55605000D01*
G75*
G02*
X80925000Y55755000I0J150000D01*
G01*
G37*
G36*
G01*
X80925000Y54485000D02*
X80925000Y54785000D01*
G75*
G02*
X81075000Y54935000I150000J0D01*
G01*
X82725000Y54935000D01*
G75*
G02*
X82875000Y54785000I0J-150000D01*
G01*
X82875000Y54485000D01*
G75*
G02*
X82725000Y54335000I-150000J0D01*
G01*
X81075000Y54335000D01*
G75*
G02*
X80925000Y54485000I0J150000D01*
G01*
G37*
G36*
G01*
X85875000Y54485000D02*
X85875000Y54785000D01*
G75*
G02*
X86025000Y54935000I150000J0D01*
G01*
X87675000Y54935000D01*
G75*
G02*
X87825000Y54785000I0J-150000D01*
G01*
X87825000Y54485000D01*
G75*
G02*
X87675000Y54335000I-150000J0D01*
G01*
X86025000Y54335000D01*
G75*
G02*
X85875000Y54485000I0J150000D01*
G01*
G37*
G36*
G01*
X85875000Y55755000D02*
X85875000Y56055000D01*
G75*
G02*
X86025000Y56205000I150000J0D01*
G01*
X87675000Y56205000D01*
G75*
G02*
X87825000Y56055000I0J-150000D01*
G01*
X87825000Y55755000D01*
G75*
G02*
X87675000Y55605000I-150000J0D01*
G01*
X86025000Y55605000D01*
G75*
G02*
X85875000Y55755000I0J150000D01*
G01*
G37*
G36*
G01*
X85875000Y57025000D02*
X85875000Y57325000D01*
G75*
G02*
X86025000Y57475000I150000J0D01*
G01*
X87675000Y57475000D01*
G75*
G02*
X87825000Y57325000I0J-150000D01*
G01*
X87825000Y57025000D01*
G75*
G02*
X87675000Y56875000I-150000J0D01*
G01*
X86025000Y56875000D01*
G75*
G02*
X85875000Y57025000I0J150000D01*
G01*
G37*
G36*
G01*
X85875000Y58295000D02*
X85875000Y58595000D01*
G75*
G02*
X86025000Y58745000I150000J0D01*
G01*
X87675000Y58745000D01*
G75*
G02*
X87825000Y58595000I0J-150000D01*
G01*
X87825000Y58295000D01*
G75*
G02*
X87675000Y58145000I-150000J0D01*
G01*
X86025000Y58145000D01*
G75*
G02*
X85875000Y58295000I0J150000D01*
G01*
G37*
G04 #@! TD*
D21*
G04 #@! TO.C,M4*
X157500003Y70175000D03*
X157500003Y68975000D03*
X157500003Y71375000D03*
X157500003Y72575000D03*
X143075003Y66115000D03*
X143075003Y65115000D03*
G04 #@! TD*
G04 #@! TO.C,R27*
G36*
G01*
X70230000Y59405000D02*
X70230000Y62255000D01*
G75*
G02*
X70480000Y62505000I250000J0D01*
G01*
X71205000Y62505000D01*
G75*
G02*
X71455000Y62255000I0J-250000D01*
G01*
X71455000Y59405000D01*
G75*
G02*
X71205000Y59155000I-250000J0D01*
G01*
X70480000Y59155000D01*
G75*
G02*
X70230000Y59405000I0J250000D01*
G01*
G37*
G36*
G01*
X76155000Y59405000D02*
X76155000Y62255000D01*
G75*
G02*
X76405000Y62505000I250000J0D01*
G01*
X77130000Y62505000D01*
G75*
G02*
X77380000Y62255000I0J-250000D01*
G01*
X77380000Y59405000D01*
G75*
G02*
X77130000Y59155000I-250000J0D01*
G01*
X76405000Y59155000D01*
G75*
G02*
X76155000Y59405000I0J250000D01*
G01*
G37*
G04 #@! TD*
G04 #@! TO.C,Q2*
G36*
G01*
X58085000Y62620000D02*
X58085000Y63320000D01*
G75*
G02*
X58335000Y63570000I250000J0D01*
G01*
X60035000Y63570000D01*
G75*
G02*
X60285000Y63320000I0J-250000D01*
G01*
X60285000Y62620000D01*
G75*
G02*
X60035000Y62370000I-250000J0D01*
G01*
X58335000Y62370000D01*
G75*
G02*
X58085000Y62620000I0J250000D01*
G01*
G37*
G36*
G01*
X62285000Y58039997D02*
X62285000Y63340003D01*
G75*
G02*
X62534997Y63590000I249997J0D01*
G01*
X68435003Y63590000D01*
G75*
G02*
X68685000Y63340003I0J-249997D01*
G01*
X68685000Y58039997D01*
G75*
G02*
X68435003Y57790000I-249997J0D01*
G01*
X62534997Y57790000D01*
G75*
G02*
X62285000Y58039997I0J249997D01*
G01*
G37*
G36*
G01*
X58085000Y58060000D02*
X58085000Y58760000D01*
G75*
G02*
X58335000Y59010000I250000J0D01*
G01*
X60035000Y59010000D01*
G75*
G02*
X60285000Y58760000I0J-250000D01*
G01*
X60285000Y58060000D01*
G75*
G02*
X60035000Y57810000I-250000J0D01*
G01*
X58335000Y57810000D01*
G75*
G02*
X58085000Y58060000I0J250000D01*
G01*
G37*
G04 #@! TD*
G04 #@! TO.C,Q3*
G36*
G01*
X58085000Y54425000D02*
X58085000Y55125000D01*
G75*
G02*
X58335000Y55375000I250000J0D01*
G01*
X60035000Y55375000D01*
G75*
G02*
X60285000Y55125000I0J-250000D01*
G01*
X60285000Y54425000D01*
G75*
G02*
X60035000Y54175000I-250000J0D01*
G01*
X58335000Y54175000D01*
G75*
G02*
X58085000Y54425000I0J250000D01*
G01*
G37*
G36*
G01*
X62285000Y49844997D02*
X62285000Y55145003D01*
G75*
G02*
X62534997Y55395000I249997J0D01*
G01*
X68435003Y55395000D01*
G75*
G02*
X68685000Y55145003I0J-249997D01*
G01*
X68685000Y49844997D01*
G75*
G02*
X68435003Y49595000I-249997J0D01*
G01*
X62534997Y49595000D01*
G75*
G02*
X62285000Y49844997I0J249997D01*
G01*
G37*
G36*
G01*
X58085000Y49865000D02*
X58085000Y50565000D01*
G75*
G02*
X58335000Y50815000I250000J0D01*
G01*
X60035000Y50815000D01*
G75*
G02*
X60285000Y50565000I0J-250000D01*
G01*
X60285000Y49865000D01*
G75*
G02*
X60035000Y49615000I-250000J0D01*
G01*
X58335000Y49615000D01*
G75*
G02*
X58085000Y49865000I0J250000D01*
G01*
G37*
G04 #@! TD*
G04 #@! TO.C,F6*
G36*
G01*
X70240000Y37183750D02*
X70240000Y37696250D01*
G75*
G02*
X70458750Y37915000I218750J0D01*
G01*
X70896250Y37915000D01*
G75*
G02*
X71115000Y37696250I0J-218750D01*
G01*
X71115000Y37183750D01*
G75*
G02*
X70896250Y36965000I-218750J0D01*
G01*
X70458750Y36965000D01*
G75*
G02*
X70240000Y37183750I0J218750D01*
G01*
G37*
G36*
G01*
X71815000Y37183750D02*
X71815000Y37696250D01*
G75*
G02*
X72033750Y37915000I218750J0D01*
G01*
X72471250Y37915000D01*
G75*
G02*
X72690000Y37696250I0J-218750D01*
G01*
X72690000Y37183750D01*
G75*
G02*
X72471250Y36965000I-218750J0D01*
G01*
X72033750Y36965000D01*
G75*
G02*
X71815000Y37183750I0J218750D01*
G01*
G37*
G04 #@! TD*
G04 #@! TO.C,F7*
G36*
G01*
X70240000Y34673750D02*
X70240000Y35186250D01*
G75*
G02*
X70458750Y35405000I218750J0D01*
G01*
X70896250Y35405000D01*
G75*
G02*
X71115000Y35186250I0J-218750D01*
G01*
X71115000Y34673750D01*
G75*
G02*
X70896250Y34455000I-218750J0D01*
G01*
X70458750Y34455000D01*
G75*
G02*
X70240000Y34673750I0J218750D01*
G01*
G37*
G36*
G01*
X71815000Y34673750D02*
X71815000Y35186250D01*
G75*
G02*
X72033750Y35405000I218750J0D01*
G01*
X72471250Y35405000D01*
G75*
G02*
X72690000Y35186250I0J-218750D01*
G01*
X72690000Y34673750D01*
G75*
G02*
X72471250Y34455000I-218750J0D01*
G01*
X72033750Y34455000D01*
G75*
G02*
X71815000Y34673750I0J218750D01*
G01*
G37*
G04 #@! TD*
G04 #@! TO.C,F9*
G36*
G01*
X70240000Y29653750D02*
X70240000Y30166250D01*
G75*
G02*
X70458750Y30385000I218750J0D01*
G01*
X70896250Y30385000D01*
G75*
G02*
X71115000Y30166250I0J-218750D01*
G01*
X71115000Y29653750D01*
G75*
G02*
X70896250Y29435000I-218750J0D01*
G01*
X70458750Y29435000D01*
G75*
G02*
X70240000Y29653750I0J218750D01*
G01*
G37*
G36*
G01*
X71815000Y29653750D02*
X71815000Y30166250D01*
G75*
G02*
X72033750Y30385000I218750J0D01*
G01*
X72471250Y30385000D01*
G75*
G02*
X72690000Y30166250I0J-218750D01*
G01*
X72690000Y29653750D01*
G75*
G02*
X72471250Y29435000I-218750J0D01*
G01*
X72033750Y29435000D01*
G75*
G02*
X71815000Y29653750I0J218750D01*
G01*
G37*
G04 #@! TD*
G04 #@! TO.C,U10*
G36*
G01*
X91375000Y64160000D02*
X91375000Y64560000D01*
G75*
G02*
X91575000Y64760000I200000J0D01*
G01*
X93375000Y64760000D01*
G75*
G02*
X93575000Y64560000I0J-200000D01*
G01*
X93575000Y64160000D01*
G75*
G02*
X93375000Y63960000I-200000J0D01*
G01*
X91575000Y63960000D01*
G75*
G02*
X91375000Y64160000I0J200000D01*
G01*
G37*
G36*
G01*
X91375000Y63020000D02*
X91375000Y63420000D01*
G75*
G02*
X91575000Y63620000I200000J0D01*
G01*
X93375000Y63620000D01*
G75*
G02*
X93575000Y63420000I0J-200000D01*
G01*
X93575000Y63020000D01*
G75*
G02*
X93375000Y62820000I-200000J0D01*
G01*
X91575000Y62820000D01*
G75*
G02*
X91375000Y63020000I0J200000D01*
G01*
G37*
G36*
G01*
X95575000Y59429997D02*
X95575000Y64730003D01*
G75*
G02*
X95824997Y64980000I249997J0D01*
G01*
X101725003Y64980000D01*
G75*
G02*
X101975000Y64730003I0J-249997D01*
G01*
X101975000Y59429997D01*
G75*
G02*
X101725003Y59180000I-249997J0D01*
G01*
X95824997Y59180000D01*
G75*
G02*
X95575000Y59429997I0J249997D01*
G01*
G37*
G36*
G01*
X91375000Y60740000D02*
X91375000Y61140000D01*
G75*
G02*
X91575000Y61340000I200000J0D01*
G01*
X93375000Y61340000D01*
G75*
G02*
X93575000Y61140000I0J-200000D01*
G01*
X93575000Y60740000D01*
G75*
G02*
X93375000Y60540000I-200000J0D01*
G01*
X91575000Y60540000D01*
G75*
G02*
X91375000Y60740000I0J200000D01*
G01*
G37*
G36*
G01*
X91375000Y59600000D02*
X91375000Y60000000D01*
G75*
G02*
X91575000Y60200000I200000J0D01*
G01*
X93375000Y60200000D01*
G75*
G02*
X93575000Y60000000I0J-200000D01*
G01*
X93575000Y59600000D01*
G75*
G02*
X93375000Y59400000I-200000J0D01*
G01*
X91575000Y59400000D01*
G75*
G02*
X91375000Y59600000I0J200000D01*
G01*
G37*
G04 #@! TD*
G04 #@! TO.C,U1*
G36*
G01*
X80925000Y43135000D02*
X80925000Y43435000D01*
G75*
G02*
X81075000Y43585000I150000J0D01*
G01*
X82725000Y43585000D01*
G75*
G02*
X82875000Y43435000I0J-150000D01*
G01*
X82875000Y43135000D01*
G75*
G02*
X82725000Y42985000I-150000J0D01*
G01*
X81075000Y42985000D01*
G75*
G02*
X80925000Y43135000I0J150000D01*
G01*
G37*
G36*
G01*
X80925000Y41865000D02*
X80925000Y42165000D01*
G75*
G02*
X81075000Y42315000I150000J0D01*
G01*
X82725000Y42315000D01*
G75*
G02*
X82875000Y42165000I0J-150000D01*
G01*
X82875000Y41865000D01*
G75*
G02*
X82725000Y41715000I-150000J0D01*
G01*
X81075000Y41715000D01*
G75*
G02*
X80925000Y41865000I0J150000D01*
G01*
G37*
G36*
G01*
X80925000Y40595000D02*
X80925000Y40895000D01*
G75*
G02*
X81075000Y41045000I150000J0D01*
G01*
X82725000Y41045000D01*
G75*
G02*
X82875000Y40895000I0J-150000D01*
G01*
X82875000Y40595000D01*
G75*
G02*
X82725000Y40445000I-150000J0D01*
G01*
X81075000Y40445000D01*
G75*
G02*
X80925000Y40595000I0J150000D01*
G01*
G37*
G36*
G01*
X80925000Y39325000D02*
X80925000Y39625000D01*
G75*
G02*
X81075000Y39775000I150000J0D01*
G01*
X82725000Y39775000D01*
G75*
G02*
X82875000Y39625000I0J-150000D01*
G01*
X82875000Y39325000D01*
G75*
G02*
X82725000Y39175000I-150000J0D01*
G01*
X81075000Y39175000D01*
G75*
G02*
X80925000Y39325000I0J150000D01*
G01*
G37*
G36*
G01*
X85875000Y39325000D02*
X85875000Y39625000D01*
G75*
G02*
X86025000Y39775000I150000J0D01*
G01*
X87675000Y39775000D01*
G75*
G02*
X87825000Y39625000I0J-150000D01*
G01*
X87825000Y39325000D01*
G75*
G02*
X87675000Y39175000I-150000J0D01*
G01*
X86025000Y39175000D01*
G75*
G02*
X85875000Y39325000I0J150000D01*
G01*
G37*
G36*
G01*
X85875000Y40595000D02*
X85875000Y40895000D01*
G75*
G02*
X86025000Y41045000I150000J0D01*
G01*
X87675000Y41045000D01*
G75*
G02*
X87825000Y40895000I0J-150000D01*
G01*
X87825000Y40595000D01*
G75*
G02*
X87675000Y40445000I-150000J0D01*
G01*
X86025000Y40445000D01*
G75*
G02*
X85875000Y40595000I0J150000D01*
G01*
G37*
G36*
G01*
X85875000Y41865000D02*
X85875000Y42165000D01*
G75*
G02*
X86025000Y42315000I150000J0D01*
G01*
X87675000Y42315000D01*
G75*
G02*
X87825000Y42165000I0J-150000D01*
G01*
X87825000Y41865000D01*
G75*
G02*
X87675000Y41715000I-150000J0D01*
G01*
X86025000Y41715000D01*
G75*
G02*
X85875000Y41865000I0J150000D01*
G01*
G37*
G36*
G01*
X85875000Y43135000D02*
X85875000Y43435000D01*
G75*
G02*
X86025000Y43585000I150000J0D01*
G01*
X87675000Y43585000D01*
G75*
G02*
X87825000Y43435000I0J-150000D01*
G01*
X87825000Y43135000D01*
G75*
G02*
X87675000Y42985000I-150000J0D01*
G01*
X86025000Y42985000D01*
G75*
G02*
X85875000Y43135000I0J150000D01*
G01*
G37*
G04 #@! TD*
G04 #@! TO.C,R31*
G36*
G01*
X70230000Y54515000D02*
X70230000Y57365000D01*
G75*
G02*
X70480000Y57615000I250000J0D01*
G01*
X71205000Y57615000D01*
G75*
G02*
X71455000Y57365000I0J-250000D01*
G01*
X71455000Y54515000D01*
G75*
G02*
X71205000Y54265000I-250000J0D01*
G01*
X70480000Y54265000D01*
G75*
G02*
X70230000Y54515000I0J250000D01*
G01*
G37*
G36*
G01*
X76155000Y54515000D02*
X76155000Y57365000D01*
G75*
G02*
X76405000Y57615000I250000J0D01*
G01*
X77130000Y57615000D01*
G75*
G02*
X77380000Y57365000I0J-250000D01*
G01*
X77380000Y54515000D01*
G75*
G02*
X77130000Y54265000I-250000J0D01*
G01*
X76405000Y54265000D01*
G75*
G02*
X76155000Y54515000I0J250000D01*
G01*
G37*
G04 #@! TD*
G04 #@! TO.C,R33*
G36*
G01*
X70230000Y44735000D02*
X70230000Y47585000D01*
G75*
G02*
X70480000Y47835000I250000J0D01*
G01*
X71205000Y47835000D01*
G75*
G02*
X71455000Y47585000I0J-250000D01*
G01*
X71455000Y44735000D01*
G75*
G02*
X71205000Y44485000I-250000J0D01*
G01*
X70480000Y44485000D01*
G75*
G02*
X70230000Y44735000I0J250000D01*
G01*
G37*
G36*
G01*
X76155000Y44735000D02*
X76155000Y47585000D01*
G75*
G02*
X76405000Y47835000I250000J0D01*
G01*
X77130000Y47835000D01*
G75*
G02*
X77380000Y47585000I0J-250000D01*
G01*
X77380000Y44735000D01*
G75*
G02*
X77130000Y44485000I-250000J0D01*
G01*
X76405000Y44485000D01*
G75*
G02*
X76155000Y44735000I0J250000D01*
G01*
G37*
G04 #@! TD*
G04 #@! TO.C,F8*
G36*
G01*
X70240000Y32163750D02*
X70240000Y32676250D01*
G75*
G02*
X70458750Y32895000I218750J0D01*
G01*
X70896250Y32895000D01*
G75*
G02*
X71115000Y32676250I0J-218750D01*
G01*
X71115000Y32163750D01*
G75*
G02*
X70896250Y31945000I-218750J0D01*
G01*
X70458750Y31945000D01*
G75*
G02*
X70240000Y32163750I0J218750D01*
G01*
G37*
G36*
G01*
X71815000Y32163750D02*
X71815000Y32676250D01*
G75*
G02*
X72033750Y32895000I218750J0D01*
G01*
X72471250Y32895000D01*
G75*
G02*
X72690000Y32676250I0J-218750D01*
G01*
X72690000Y32163750D01*
G75*
G02*
X72471250Y31945000I-218750J0D01*
G01*
X72033750Y31945000D01*
G75*
G02*
X71815000Y32163750I0J218750D01*
G01*
G37*
G04 #@! TD*
G04 #@! TO.C,M2*
X129070003Y30824997D03*
X129070003Y29874997D03*
X129070003Y28924999D03*
X120370003Y29924997D03*
X120370003Y30824997D03*
G04 #@! TD*
D17*
G04 #@! TO.C,M1*
X152649999Y45674998D03*
X152649999Y39275001D03*
X152649999Y37374998D03*
X152649999Y33074998D03*
D21*
X153099998Y30675001D03*
X153099998Y29675000D03*
D17*
X152649999Y26824998D03*
X137150002Y46125000D03*
X137150002Y44275001D03*
X137150002Y39324998D03*
X137150002Y27275000D03*
G04 #@! TD*
G04 #@! TO.C,R26*
G36*
G01*
X70230000Y64295000D02*
X70230000Y67145000D01*
G75*
G02*
X70480000Y67395000I250000J0D01*
G01*
X71205000Y67395000D01*
G75*
G02*
X71455000Y67145000I0J-250000D01*
G01*
X71455000Y64295000D01*
G75*
G02*
X71205000Y64045000I-250000J0D01*
G01*
X70480000Y64045000D01*
G75*
G02*
X70230000Y64295000I0J250000D01*
G01*
G37*
G36*
G01*
X76155000Y64295000D02*
X76155000Y67145000D01*
G75*
G02*
X76405000Y67395000I250000J0D01*
G01*
X77130000Y67395000D01*
G75*
G02*
X77380000Y67145000I0J-250000D01*
G01*
X77380000Y64295000D01*
G75*
G02*
X77130000Y64045000I-250000J0D01*
G01*
X76405000Y64045000D01*
G75*
G02*
X76155000Y64295000I0J250000D01*
G01*
G37*
G04 #@! TD*
G04 #@! TO.C,R25*
G36*
G01*
X70230000Y69185000D02*
X70230000Y72035000D01*
G75*
G02*
X70480000Y72285000I250000J0D01*
G01*
X71205000Y72285000D01*
G75*
G02*
X71455000Y72035000I0J-250000D01*
G01*
X71455000Y69185000D01*
G75*
G02*
X71205000Y68935000I-250000J0D01*
G01*
X70480000Y68935000D01*
G75*
G02*
X70230000Y69185000I0J250000D01*
G01*
G37*
G36*
G01*
X76155000Y69185000D02*
X76155000Y72035000D01*
G75*
G02*
X76405000Y72285000I250000J0D01*
G01*
X77130000Y72285000D01*
G75*
G02*
X77380000Y72035000I0J-250000D01*
G01*
X77380000Y69185000D01*
G75*
G02*
X77130000Y68935000I-250000J0D01*
G01*
X76405000Y68935000D01*
G75*
G02*
X76155000Y69185000I0J250000D01*
G01*
G37*
G04 #@! TD*
G36*
X5572864Y19227888D02*
G01*
X5599183Y19172652D01*
X5600025Y19159769D01*
X5600025Y19072856D01*
X6428824Y18930776D01*
X6435496Y18929394D01*
X7354507Y18705850D01*
X7359819Y18704400D01*
X8178720Y18456248D01*
X8185548Y18453904D01*
X8829992Y18206041D01*
X8834324Y18204256D01*
X9455568Y17930909D01*
X9458737Y17929448D01*
X10179388Y17581548D01*
X10184884Y17578679D01*
X10978027Y17132536D01*
X10986098Y17127469D01*
X11805321Y16556495D01*
X11808949Y16553843D01*
X12553654Y15982903D01*
X12560448Y15977193D01*
X13180654Y15406603D01*
X13183629Y15403750D01*
X13879009Y14708370D01*
X13885059Y14701744D01*
X14504936Y13957891D01*
X14509224Y13952359D01*
X14956139Y13331644D01*
X14958170Y13328713D01*
X15405400Y12657868D01*
X15408779Y12652426D01*
X15781036Y12007181D01*
X15783218Y12003191D01*
X16155448Y11283546D01*
X16158652Y11276727D01*
X16506357Y10457137D01*
X16507916Y10453234D01*
X16880304Y9460199D01*
X16883505Y9450027D01*
X17131239Y8483865D01*
X17132835Y8476481D01*
X17281816Y7632253D01*
X17282454Y7628132D01*
X17382041Y6881235D01*
X17382303Y6879084D01*
X17393867Y6775001D01*
X17393868Y6775000D01*
X17506166Y6775000D01*
X17564357Y6756093D01*
X17600321Y6706593D01*
X17604526Y6664762D01*
X17598418Y6611303D01*
X17583802Y6569740D01*
X17560433Y6532676D01*
X17529232Y6501571D01*
X17489600Y6476753D01*
X17453566Y6463045D01*
X17415375Y6456586D01*
X17398866Y6455200D01*
X12524000Y6455200D01*
X12465809Y6474107D01*
X12429845Y6523607D01*
X12425000Y6554200D01*
X12425000Y6655199D01*
X12424999Y6655200D01*
X12303000Y6655200D01*
X12244809Y6674107D01*
X12208845Y6723607D01*
X12207373Y6728577D01*
X12074816Y7223285D01*
X11885455Y7781120D01*
X11660014Y8325383D01*
X11660009Y8325394D01*
X11399460Y8853736D01*
X11104910Y9363910D01*
X11104906Y9363917D01*
X10777616Y9853740D01*
X10419017Y10321076D01*
X10418989Y10321109D01*
X10030591Y10763994D01*
X10030572Y10764014D01*
X9614014Y11180572D01*
X9613994Y11180591D01*
X9171108Y11568990D01*
X9171075Y11569018D01*
X8703739Y11927617D01*
X8213920Y12254904D01*
X8213906Y12254913D01*
X7703730Y12549463D01*
X7175394Y12810009D01*
X7175383Y12810014D01*
X6631116Y13035458D01*
X6073290Y13224814D01*
X5607175Y13349710D01*
X5555860Y13383034D01*
X5543538Y13415134D01*
X5533713Y13425000D01*
X5433123Y13425000D01*
X5374932Y13443907D01*
X5338968Y13493407D01*
X5334124Y13524411D01*
X5357134Y19069874D01*
X5359707Y19091892D01*
X5372227Y19145717D01*
X5391509Y19185335D01*
X5418968Y19219475D01*
X5453527Y19246801D01*
X5458440Y19249142D01*
X5519105Y19257104D01*
X5572864Y19227888D01*
G37*
G36*
X5501971Y105950547D02*
G01*
X5560055Y105931315D01*
X5595742Y105881615D01*
X5600418Y105851549D01*
X5600025Y19072856D01*
X5717751Y19052674D01*
X5771911Y19024206D01*
X5798994Y18969341D01*
X5800024Y18955097D01*
X5800000Y13436156D01*
X5797517Y13414124D01*
X5795561Y13405555D01*
X5764178Y13353032D01*
X5707916Y13328985D01*
X5673420Y13331961D01*
X5607174Y13349712D01*
X5555860Y13383036D01*
X5543539Y13415133D01*
X5533713Y13425000D01*
X5274144Y13425000D01*
X5254830Y13426902D01*
X4926455Y13492220D01*
X4926449Y13492221D01*
X4342405Y13569112D01*
X3754567Y13607640D01*
X3754557Y13607641D01*
X3459978Y13609999D01*
X1055221Y13609999D01*
X997030Y13628906D01*
X985217Y13638995D01*
X-171004Y14795216D01*
X-198781Y14849733D01*
X-200000Y14865220D01*
X-200000Y38500999D01*
X-181093Y38559190D01*
X-131593Y38595154D01*
X-101000Y38599999D01*
X1899995Y38599999D01*
X2024083Y38602562D01*
X2268855Y38643407D01*
X2503579Y38723987D01*
X2721829Y38842099D01*
X2721832Y38842101D01*
X2917660Y38994520D01*
X3085740Y39177103D01*
X3221472Y39384858D01*
X3321157Y39612116D01*
X3382078Y39852687D01*
X3402571Y40100000D01*
X3382078Y40347314D01*
X3321157Y40587885D01*
X3221472Y40815143D01*
X3085740Y41022898D01*
X2917660Y41205481D01*
X2721832Y41357900D01*
X2721829Y41357902D01*
X2503579Y41476014D01*
X2268855Y41556594D01*
X2024082Y41597439D01*
X1899997Y41599999D01*
X-101000Y41599999D01*
X-159191Y41618906D01*
X-195155Y41668406D01*
X-200000Y41698999D01*
X-200000Y104535571D01*
X-181093Y104593762D01*
X-172892Y104603633D01*
X1095904Y105943822D01*
X1149640Y105973081D01*
X1168349Y105974758D01*
X5501971Y105950547D01*
G37*
G36*
X157814000Y18722511D02*
G01*
X157868895Y18716240D01*
X157910460Y18701624D01*
X157947524Y18678255D01*
X157978629Y18647054D01*
X158003447Y18607422D01*
X158017155Y18571388D01*
X158023614Y18533197D01*
X158025000Y18516688D01*
X158025000Y13674000D01*
X158006093Y13615809D01*
X157956593Y13579845D01*
X157926000Y13575000D01*
X157825001Y13575000D01*
X157825000Y13574999D01*
X157825000Y13484195D01*
X157806093Y13426004D01*
X157756593Y13390040D01*
X157745316Y13387098D01*
X157695781Y13377244D01*
X157126729Y13224768D01*
X156568897Y13035408D01*
X156024637Y12809968D01*
X156024626Y12809963D01*
X155496299Y12549421D01*
X154986120Y12254870D01*
X154986106Y12254861D01*
X154496312Y11927591D01*
X154496282Y11927570D01*
X154028956Y11568978D01*
X154028923Y11568950D01*
X153586040Y11180554D01*
X153586020Y11180535D01*
X153169465Y10763980D01*
X153169446Y10763960D01*
X152781050Y10321077D01*
X152781022Y10321044D01*
X152422430Y9853718D01*
X152422409Y9853688D01*
X152095139Y9363894D01*
X152095130Y9363880D01*
X151800579Y8853701D01*
X151540037Y8325374D01*
X151540032Y8325363D01*
X151314592Y7781103D01*
X151125232Y7223271D01*
X150972759Y6654231D01*
X150948458Y6532065D01*
X150918561Y6478681D01*
X150862995Y6453066D01*
X150850949Y6452381D01*
X145410326Y6474956D01*
X145388308Y6477529D01*
X145334483Y6490049D01*
X145294865Y6509331D01*
X145260725Y6536790D01*
X145233399Y6571349D01*
X145213895Y6612282D01*
X145204299Y6652371D01*
X145203766Y6673504D01*
X145221201Y6732153D01*
X145269778Y6769353D01*
X145302735Y6775000D01*
X145417142Y6775000D01*
X145549424Y7546646D01*
X145550806Y7553318D01*
X145774350Y8472329D01*
X145775800Y8477641D01*
X146023952Y9296542D01*
X146026296Y9303370D01*
X146274159Y9947814D01*
X146275944Y9952146D01*
X146549291Y10573390D01*
X146550752Y10576559D01*
X146898652Y11297210D01*
X146901521Y11302706D01*
X147347664Y12095849D01*
X147352731Y12103920D01*
X147923705Y12923143D01*
X147926357Y12926771D01*
X148497297Y13671476D01*
X148503007Y13678270D01*
X149073597Y14298475D01*
X149076450Y14301450D01*
X149771830Y14996830D01*
X149778456Y15002880D01*
X150522309Y15622758D01*
X150527841Y15627046D01*
X151148556Y16073961D01*
X151151487Y16075992D01*
X151822332Y16523222D01*
X151827774Y16526601D01*
X152473019Y16898858D01*
X152477009Y16901040D01*
X153196654Y17273270D01*
X153203473Y17276474D01*
X154023063Y17624179D01*
X154026966Y17625738D01*
X155020001Y17998126D01*
X155030173Y18001327D01*
X155996335Y18249061D01*
X156003719Y18250657D01*
X156847947Y18399638D01*
X156852068Y18400276D01*
X157598947Y18499860D01*
X157601074Y18500120D01*
X157601347Y18500151D01*
X157601377Y18612801D01*
X157620300Y18670987D01*
X157669809Y18706938D01*
X157689445Y18711170D01*
X157791832Y18722546D01*
X157814000Y18722511D01*
G37*
G36*
X162202969Y106081093D02*
G01*
X162214782Y106071004D01*
X163379717Y104906069D01*
X163407494Y104851552D01*
X163408713Y104836056D01*
X163402685Y41698991D01*
X163383772Y41640802D01*
X163334269Y41604842D01*
X163303685Y41600000D01*
X161299979Y41600000D01*
X161175896Y41597596D01*
X160931065Y41556769D01*
X160931063Y41556769D01*
X160696303Y41476203D01*
X160696302Y41476202D01*
X160478003Y41358091D01*
X160282121Y41205655D01*
X160282116Y41205650D01*
X160114001Y41023052D01*
X159978235Y40815268D01*
X159878523Y40587970D01*
X159878521Y40587965D01*
X159817587Y40347359D01*
X159817586Y40347353D01*
X159797088Y40100000D01*
X159817586Y39852648D01*
X159817587Y39852642D01*
X159878521Y39612036D01*
X159878523Y39612031D01*
X159978235Y39384733D01*
X160114001Y39176949D01*
X160282116Y38994351D01*
X160282121Y38994346D01*
X160478003Y38841910D01*
X160696302Y38723799D01*
X160696303Y38723798D01*
X160931064Y38643232D01*
X161175896Y38602405D01*
X161299979Y38600000D01*
X163303380Y38600000D01*
X163361571Y38581093D01*
X163397535Y38531593D01*
X163402380Y38500991D01*
X163400122Y14865336D01*
X163381209Y14807147D01*
X163371126Y14795341D01*
X162214782Y13638996D01*
X162160265Y13611219D01*
X162144778Y13610000D01*
X159740038Y13610000D01*
X159445437Y13607590D01*
X158951455Y13575212D01*
X158944980Y13575000D01*
X157825001Y13575000D01*
X157825000Y13574999D01*
X157825000Y13484195D01*
X157806093Y13426004D01*
X157756593Y13390040D01*
X157745316Y13387098D01*
X157694179Y13376925D01*
X157694117Y13377235D01*
X157674769Y13375000D01*
X157611154Y13375000D01*
X157589124Y13377482D01*
X157535252Y13389778D01*
X157495555Y13408896D01*
X157461299Y13436215D01*
X157433830Y13470660D01*
X157412315Y13515336D01*
X157403132Y13547219D01*
X157400622Y13569521D01*
X157400001Y13580620D01*
X157401316Y18386860D01*
X157420239Y18445046D01*
X157469749Y18480996D01*
X157487232Y18484965D01*
X157598947Y18499860D01*
X157601074Y18500120D01*
X157601347Y18500151D01*
X157625000Y104925013D01*
X157625000Y106001000D01*
X157643907Y106059191D01*
X157693407Y106095155D01*
X157724000Y106100000D01*
X162144778Y106100000D01*
X162202969Y106081093D01*
G37*
G36*
X17341053Y6956093D02*
G01*
X17377017Y6906593D01*
X17380993Y6889090D01*
X17382040Y6881241D01*
X17382303Y6879084D01*
X17393867Y6775001D01*
X17393868Y6775000D01*
X145417142Y6775000D01*
X145437325Y6892728D01*
X145465793Y6946887D01*
X145520658Y6973970D01*
X145534902Y6975000D01*
X150929689Y6975000D01*
X150987880Y6956093D01*
X151023844Y6906593D01*
X151025316Y6850377D01*
X150972758Y6654229D01*
X150857831Y6076448D01*
X150857830Y6076442D01*
X150780938Y5492386D01*
X150742410Y4904563D01*
X150740000Y4609962D01*
X150740000Y2205222D01*
X150721093Y2147031D01*
X150711004Y2135218D01*
X149530072Y954288D01*
X149475555Y926511D01*
X149460050Y925292D01*
X13715434Y949768D01*
X13657247Y968686D01*
X13645448Y978764D01*
X12488996Y2135217D01*
X12461219Y2189734D01*
X12460000Y2205221D01*
X12460000Y4609977D01*
X12457641Y4904557D01*
X12457640Y4904567D01*
X12425212Y5399330D01*
X12425000Y5405805D01*
X12425000Y6655199D01*
X12424999Y6655200D01*
X12324000Y6655200D01*
X12265809Y6674107D01*
X12229845Y6723607D01*
X12225000Y6754200D01*
X12225000Y6763846D01*
X12227482Y6785874D01*
X12239777Y6839746D01*
X12258895Y6879445D01*
X12286214Y6913701D01*
X12320658Y6941169D01*
X12365339Y6962687D01*
X12397215Y6971870D01*
X12419483Y6974378D01*
X12430563Y6975000D01*
X17282862Y6975000D01*
X17341053Y6956093D01*
G37*
M02*
