M48
; DRILL file {KiCad 8.0.9-8.0.9-0~ubuntu24.04.1} date 2025-12-21T02:33:54+0000
; FORMAT={2:4/ absolute / inch / suppress leading zeros}
; #@! TF.CreationDate,2025-12-21T02:33:54+00:00
; #@! TF.GenerationSoftware,Kicad,Pcbnew,8.0.9-8.0.9-0~ubuntu24.04.1
; #@! TF.FileFunction,MixedPlating,1,4
FMAT,2
INCH,TZ
; #@! TA.AperFunction,Plated,PTH,ComponentDrill
T1C0.0118
; #@! TA.AperFunction,Plated,PTH,ComponentDrill
T2C0.0118
; #@! TA.AperFunction,Plated,PTH,ComponentDrill
T3C0.0276
; #@! TA.AperFunction,Plated,PTH,ComponentDrill
T4C0.0320
; #@! TA.AperFunction,Plated,PTH,ComponentDrill
T5C0.0335
; #@! TA.AperFunction,Plated,PTH,ViaDrill
T6C0.0394
; #@! TA.AperFunction,Plated,PTH,ComponentDrill
T7C0.0394
; #@! TA.AperFunction,Plated,PTH,ComponentDrill
T8C0.0433
; #@! TA.AperFunction,Plated,PTH,ComponentDrill
T9C0.0866
; #@! TA.AperFunction,Plated,PTH,ComponentDrill
T10C0.1457
%
G90
G05
T1
X16757Y8605
X17101Y8398
X17190Y10298
X17219Y8900
T2
X19882Y12943
X19882Y12549
X22037Y14626
X22037Y14311
X22037Y13996
X22037Y13681
X22037Y13366
X22037Y13051
X22037Y12736
X22037Y12421
X22037Y12106
X22037Y11791
X22037Y11476
X22037Y11161
X22037Y10846
X22037Y10531
X22037Y9902
X22037Y9350
X22037Y9035
X22037Y8720
X22037Y8406
X22037Y8091
X22037Y7776
X22037Y16319
X22037Y10217
X22195Y4941
X22510Y4941
X22825Y4941
X23140Y4941
X23455Y4941
X23770Y4941
X24085Y4941
X24400Y4941
X24636Y18878
X24715Y4941
X25030Y4941
X25108Y18878
X25344Y4941
X25581Y18878
X25659Y4941
X26053Y18878
X26526Y18878
X26604Y4941
X26919Y4941
X26998Y18878
X27234Y4941
X27470Y18878
X27549Y4941
X27864Y4941
X27943Y18878
X28179Y4941
X28415Y18878
X28494Y4941
X28809Y4941
X28888Y18878
X29124Y4941
X29360Y18878
X29833Y18878
X30305Y18878
X30778Y18878
X30817Y4941
X31250Y18878
X31722Y18878
X31880Y4941
X32195Y18878
X32274Y4941
X32667Y18878
X33140Y18878
X33612Y18878
X34085Y18878
X35030Y18878
X35187Y17894
X35187Y17500
X35187Y13287
X35187Y12894
X35187Y12500
X35187Y12106
X35187Y11713
X35187Y11319
X35187Y10925
X35187Y10532
X35187Y9508
X35187Y9193
X35187Y7343
X35187Y6791
X35187Y4941
X35380Y29715
X35774Y29715
X36900Y24035
X37372Y24035
X37844Y24035
X38317Y24035
X39386Y29788
X39780Y29788
X40906Y24109
X41378Y24109
X41850Y24109
X42323Y24109
X43041Y29606
X43041Y29232
X43041Y28858
X43888Y22717
X43888Y22402
X44203Y22402
X44518Y22402
X44833Y22402
X45148Y22402
X45463Y22402
X45778Y22402
X46467Y29213
X46467Y28858
X48986Y19374
X49380Y19374
X49774Y19374
X50671Y19374
X51071Y19374
X51998Y29843
X52392Y29843
X52785Y29843
X53179Y29843
T3
X20049Y6900
X20049Y6270
X20738Y7215
X20738Y6585
X20738Y5955
X43967Y25866
X47510Y26732
X47510Y23504
X47510Y23031
T4
X12126Y29656
X12126Y27726
X13110Y29656
X13110Y27726
X20787Y10760
X20787Y9260
X44626Y20226
X46555Y20226
T5
X13898Y5797
X14882Y5797
X15866Y5797
X16850Y5797
X17835Y5797
T6
X1063Y40906
X1063Y37766
X1063Y34065
X1063Y30118
X1063Y25974
X1063Y22077
X1063Y17766
X1063Y12421
X1063Y8140
X6132Y1476
X10679Y1496
X19370Y1496
X23514Y1476
X28012Y1476
X32195Y1476
X36476Y1486
X40522Y1486
X45167Y1486
X49665Y1486
X53848Y1486
X58130Y1486
X63327Y41033
X63386Y38346
X63386Y34646
X63386Y30699
X63386Y26555
X63386Y22657
X63386Y18346
X63386Y13002
X63386Y8720
T7
X13602Y19026
X13602Y18297
X13602Y16348
X13602Y11604
X19705Y18848
X19705Y16329
X19705Y15581
X19705Y13888
X19705Y11427
T8
X17591Y43802
X17591Y42802
X17591Y40420
X17591Y39420
X18591Y43802
X18591Y42802
X18591Y40420
X18591Y39420
X19591Y43802
X19591Y42802
X19591Y40420
X19591Y39420
X20591Y43802
X20591Y42802
X20591Y40420
X20591Y39420
X21591Y43802
X21591Y42802
X21591Y40420
X21591Y39420
X22591Y43802
X22591Y42802
X22591Y40420
X22591Y39420
X23591Y43802
X23591Y42802
X23591Y40420
X23591Y39420
X24591Y43802
X24591Y42802
X24591Y40420
X24591Y39420
X30879Y43802
X30879Y42802
X30879Y40420
X30879Y39420
X31879Y43802
X31879Y42802
X31879Y40420
X31879Y39420
X32879Y43802
X32879Y42802
X32879Y40420
X32879Y39420
X33879Y43802
X33879Y42802
X33879Y40420
X33879Y39420
X34879Y43802
X34879Y42802
X34879Y40420
X34879Y39420
X35879Y43802
X35879Y42802
X35879Y40420
X35879Y39420
X36879Y43802
X36879Y42802
X36879Y40420
X36879Y39420
X37879Y43802
X37879Y42802
X37879Y40420
X37879Y39420
X38879Y43802
X38879Y42802
X38879Y40420
X38879Y39420
X39879Y43802
X39879Y42802
X39879Y40420
X39879Y39420
X40879Y43802
X40879Y42802
X40879Y40420
X40879Y39420
X41879Y43802
X41879Y42802
X41879Y40420
X41879Y39420
X42879Y43802
X42879Y42802
X42879Y40420
X42879Y39420
X43879Y43802
X43879Y42802
X43879Y40420
X43879Y39420
X44879Y43802
X44879Y42802
X44879Y40420
X44879Y39420
X45879Y43802
X45879Y42802
X45879Y40420
X45879Y39420
X46879Y43802
X46879Y42802
X46879Y40420
X46879Y39420
X47879Y43802
X47879Y42802
X47879Y40420
X47879Y39420
X48879Y43802
X48879Y42802
X48879Y40420
X48879Y39420
T9
X8150Y41519
X9902Y42621
X9902Y39420
X11044Y41704
X12225Y42621
X12225Y39420
X13367Y41704
X14509Y42621
X14509Y39420
X51989Y42621
X51989Y39420
X53131Y41704
X54272Y42621
X54272Y39420
X56103Y41519
T10
X7186Y44590
X27737Y44590
X57068Y44590
T3
X20138Y8022G85X20650Y8022
G05
X20138Y5148G85X20650Y5148
G05
M30
