G04 #@! TF.GenerationSoftware,KiCad,Pcbnew,8.0.9-8.0.9-0~ubuntu24.04.1*
G04 #@! TF.CreationDate,2025-12-21T03:44:47+00:00*
G04 #@! TF.ProjectId,greenenergyecu,67726565-6e65-46e6-9572-67796563752e,d*
G04 #@! TF.SameCoordinates,PX2b953a0PY6943058*
G04 #@! TF.FileFunction,Copper,L4,Bot*
G04 #@! TF.FilePolarity,Positive*
%FSLAX46Y46*%
G04 Gerber Fmt 4.6, Leading zero omitted, Abs format (unit mm)*
G04 Created by KiCad (PCBNEW 8.0.9-8.0.9-0~ubuntu24.04.1) date 2025-12-21 03:44:47*
%MOMM*%
%LPD*%
G01*
G04 APERTURE LIST*
G04 #@! TA.AperFunction,ComponentPad*
%ADD10C,3.700000*%
G04 #@! TD*
G04 #@! TA.AperFunction,ComponentPad*
%ADD11C,2.200000*%
G04 #@! TD*
G04 #@! TA.AperFunction,ComponentPad*
%ADD12C,2.600000*%
G04 #@! TD*
G04 #@! TA.AperFunction,ComponentPad*
%ADD13C,1.500000*%
G04 #@! TD*
G04 #@! TA.AperFunction,ComponentPad*
%ADD14O,1.700000X1.850000*%
G04 #@! TD*
G04 #@! TA.AperFunction,ViaPad*
%ADD15C,2.000000*%
G04 #@! TD*
G04 APERTURE END LIST*
D10*
G04 #@! TO.P,P1,*
G04 #@! TO.N,*
X144952000Y113258000D03*
D11*
X142502000Y105458000D03*
D10*
X70452000Y113258000D03*
D11*
X20702000Y105458000D03*
D10*
X18252000Y113258000D03*
D12*
G04 #@! TO.P,P1,1,1*
G04 #@! TO.N,PIN1*
X137852000Y108258000D03*
G04 #@! TO.P,P1,2,2*
G04 #@! TO.N,PIN2*
X132052000Y108258000D03*
G04 #@! TO.P,P1,3,3*
G04 #@! TO.N,PIN114*
X134952000Y105928000D03*
G04 #@! TO.P,P1,4,4*
G04 #@! TO.N,PIN4*
X137852000Y100128000D03*
G04 #@! TO.P,P1,5,5*
G04 #@! TO.N,PIN5*
X132052000Y100128000D03*
D13*
G04 #@! TO.P,P1,6,6*
G04 #@! TO.N,PIN6*
X78432000Y100128000D03*
G04 #@! TO.P,P1,7,7*
G04 #@! TO.N,PIN7*
X80972000Y100128000D03*
G04 #@! TO.P,P1,8,8*
G04 #@! TO.N,PIN8*
X83512000Y100128000D03*
G04 #@! TO.P,P1,9,9*
G04 #@! TO.N,PIN9*
X86052000Y100128000D03*
G04 #@! TO.P,P1,10,10*
G04 #@! TO.N,PIN10*
X88592000Y100128000D03*
G04 #@! TO.P,P1,11,11*
G04 #@! TO.N,PIN11*
X91132000Y100128000D03*
G04 #@! TO.P,P1,12,12*
G04 #@! TO.N,PIN12*
X93672000Y100128000D03*
G04 #@! TO.P,P1,13,13*
G04 #@! TO.N,PIN13*
X96212000Y100128000D03*
G04 #@! TO.P,P1,14,14*
G04 #@! TO.N,PIN14*
X98752000Y100128000D03*
G04 #@! TO.P,P1,15,15*
G04 #@! TO.N,PIN15*
X101292000Y100128000D03*
G04 #@! TO.P,P1,16,16*
G04 #@! TO.N,PIN16*
X103832000Y100128000D03*
G04 #@! TO.P,P1,17,17*
G04 #@! TO.N,PIN17*
X106372000Y100128000D03*
G04 #@! TO.P,P1,18,18*
G04 #@! TO.N,PIN18*
X108912000Y100128000D03*
G04 #@! TO.P,P1,19,19*
G04 #@! TO.N,PIN19*
X111452000Y100128000D03*
G04 #@! TO.P,P1,20,20*
G04 #@! TO.N,PIN20*
X113992000Y100128000D03*
G04 #@! TO.P,P1,21,21*
G04 #@! TO.N,PIN21*
X116532000Y100128000D03*
G04 #@! TO.P,P1,22,22*
G04 #@! TO.N,PIN22*
X119072000Y100128000D03*
G04 #@! TO.P,P1,23,23*
G04 #@! TO.N,PIN120*
X121612000Y100128000D03*
G04 #@! TO.P,P1,24,24*
X124152000Y100128000D03*
G04 #@! TO.P,P1,25,25*
G04 #@! TO.N,PIN25*
X78432000Y102668000D03*
G04 #@! TO.P,P1,26,26*
G04 #@! TO.N,PIN26*
X80972000Y102668000D03*
G04 #@! TO.P,P1,27,27*
G04 #@! TO.N,PIN27*
X83512000Y102668000D03*
G04 #@! TO.P,P1,28,28*
G04 #@! TO.N,PIN28*
X86052000Y102668000D03*
G04 #@! TO.P,P1,29,29*
G04 #@! TO.N,PIN29*
X88592000Y102668000D03*
G04 #@! TO.P,P1,30,30*
G04 #@! TO.N,PIN30*
X91132000Y102668000D03*
G04 #@! TO.P,P1,31,31*
G04 #@! TO.N,PIN31*
X93672000Y102668000D03*
G04 #@! TO.P,P1,32,32*
G04 #@! TO.N,PIN32*
X96212000Y102668000D03*
G04 #@! TO.P,P1,33,33*
G04 #@! TO.N,PIN33*
X98752000Y102668000D03*
G04 #@! TO.P,P1,34,34*
G04 #@! TO.N,PIN34*
X101292000Y102668000D03*
G04 #@! TO.P,P1,35,35*
G04 #@! TO.N,PIN35*
X103832000Y102668000D03*
G04 #@! TO.P,P1,36,36*
G04 #@! TO.N,PIN36*
X106372000Y102668000D03*
G04 #@! TO.P,P1,37,37*
G04 #@! TO.N,PIN37*
X108912000Y102668000D03*
G04 #@! TO.P,P1,38,38*
G04 #@! TO.N,PIN38*
X111452000Y102668000D03*
G04 #@! TO.P,P1,39,39*
G04 #@! TO.N,PIN39*
X113992000Y102668000D03*
G04 #@! TO.P,P1,40,40*
G04 #@! TO.N,PIN40*
X116532000Y102668000D03*
G04 #@! TO.P,P1,41,41*
G04 #@! TO.N,PIN41*
X119072000Y102668000D03*
G04 #@! TO.P,P1,42,42*
G04 #@! TO.N,PIN42*
X121612000Y102668000D03*
G04 #@! TO.P,P1,43,43*
G04 #@! TO.N,PIN43*
X124152000Y102668000D03*
G04 #@! TO.P,P1,44,44*
G04 #@! TO.N,PIN44*
X78432000Y108718000D03*
G04 #@! TO.P,P1,45,45*
G04 #@! TO.N,PIN45*
X80972000Y108718000D03*
G04 #@! TO.P,P1,46,46*
G04 #@! TO.N,PIN46*
X83512000Y108718000D03*
G04 #@! TO.P,P1,47,47*
G04 #@! TO.N,PIN47*
X86052000Y108718000D03*
G04 #@! TO.P,P1,48,48*
G04 #@! TO.N,PIN48*
X88592000Y108718000D03*
G04 #@! TO.P,P1,49,49*
G04 #@! TO.N,PIN49*
X91132000Y108718000D03*
G04 #@! TO.P,P1,50,50*
G04 #@! TO.N,PIN50*
X93672000Y108718000D03*
G04 #@! TO.P,P1,51,51*
G04 #@! TO.N,PIN51*
X96212000Y108718000D03*
G04 #@! TO.P,P1,52,52*
G04 #@! TO.N,PIN113*
X98752000Y108718000D03*
G04 #@! TO.P,P1,53,53*
X101292000Y108718000D03*
G04 #@! TO.P,P1,54,54*
X103832000Y108718000D03*
G04 #@! TO.P,P1,55,55*
X106372000Y108718000D03*
G04 #@! TO.P,P1,56,56*
X108912000Y108718000D03*
G04 #@! TO.P,P1,57,57*
X111452000Y108718000D03*
G04 #@! TO.P,P1,58,58*
X113992000Y108718000D03*
G04 #@! TO.P,P1,59,59*
X116532000Y108718000D03*
G04 #@! TO.P,P1,60,60*
X119072000Y108718000D03*
G04 #@! TO.P,P1,61,61*
X121612000Y108718000D03*
G04 #@! TO.P,P1,62,62*
X124152000Y108718000D03*
G04 #@! TO.P,P1,63,63*
G04 #@! TO.N,PIN63*
X78432000Y111258000D03*
G04 #@! TO.P,P1,64,64*
G04 #@! TO.N,PIN113*
X80972000Y111258000D03*
G04 #@! TO.P,P1,65,65*
G04 #@! TO.N,PIN65*
X83512000Y111258000D03*
G04 #@! TO.P,P1,66,66*
G04 #@! TO.N,PIN113*
X86052000Y111258000D03*
G04 #@! TO.P,P1,67,67*
G04 #@! TO.N,PIN67*
X88592000Y111258000D03*
G04 #@! TO.P,P1,68,68*
G04 #@! TO.N,PIN113*
X91132000Y111258000D03*
G04 #@! TO.P,P1,69,69*
G04 #@! TO.N,PIN69*
X93672000Y111258000D03*
G04 #@! TO.P,P1,70,70*
G04 #@! TO.N,PIN70*
X96212000Y111258000D03*
G04 #@! TO.P,P1,71,71*
G04 #@! TO.N,PIN106*
X98752000Y111258000D03*
G04 #@! TO.P,P1,72,72*
X101292000Y111258000D03*
G04 #@! TO.P,P1,73,73*
X103832000Y111258000D03*
G04 #@! TO.P,P1,74,74*
X106372000Y111258000D03*
G04 #@! TO.P,P1,75,75*
X108912000Y111258000D03*
G04 #@! TO.P,P1,76,76*
X111452000Y111258000D03*
G04 #@! TO.P,P1,77,77*
X113992000Y111258000D03*
G04 #@! TO.P,P1,78,78*
X116532000Y111258000D03*
G04 #@! TO.P,P1,79,79*
X119072000Y111258000D03*
G04 #@! TO.P,P1,80,80*
X121612000Y111258000D03*
G04 #@! TO.P,P1,81,81*
G04 #@! TO.N,PIN81*
X124152000Y111258000D03*
G04 #@! TO.P,P1,82,82*
G04 #@! TO.N,PIN82*
X62462000Y111258000D03*
G04 #@! TO.P,P1,83,83*
G04 #@! TO.N,PIN83*
X59922000Y111258000D03*
G04 #@! TO.P,P1,84,84*
G04 #@! TO.N,PIN84*
X57382000Y111258000D03*
G04 #@! TO.P,P1,85,85*
G04 #@! TO.N,PIN85*
X54842000Y111258000D03*
G04 #@! TO.P,P1,86,86*
G04 #@! TO.N,PIN86*
X52302000Y111258000D03*
G04 #@! TO.P,P1,87,87*
G04 #@! TO.N,PIN87*
X49762000Y111258000D03*
G04 #@! TO.P,P1,88,88*
G04 #@! TO.N,PIN88*
X47222000Y111258000D03*
G04 #@! TO.P,P1,89,89*
G04 #@! TO.N,PIN89*
X44682000Y111258000D03*
G04 #@! TO.P,P1,90,90*
G04 #@! TO.N,PIN90*
X62462000Y108718000D03*
G04 #@! TO.P,P1,91,91*
G04 #@! TO.N,PIN91*
X59922000Y108718000D03*
G04 #@! TO.P,P1,92,92*
G04 #@! TO.N,PIN92*
X57382000Y108718000D03*
G04 #@! TO.P,P1,93,93*
G04 #@! TO.N,PIN93*
X54842000Y108718000D03*
G04 #@! TO.P,P1,94,94*
G04 #@! TO.N,PIN94*
X52302000Y108718000D03*
G04 #@! TO.P,P1,95,95*
G04 #@! TO.N,PIN95*
X49762000Y108718000D03*
G04 #@! TO.P,P1,96,96*
G04 #@! TO.N,PIN96*
X47222000Y108718000D03*
G04 #@! TO.P,P1,97,97*
G04 #@! TO.N,PIN97*
X44682000Y108718000D03*
G04 #@! TO.P,P1,98,98*
G04 #@! TO.N,PIN113*
X62462000Y102668000D03*
G04 #@! TO.P,P1,99,99*
X59922000Y102668000D03*
G04 #@! TO.P,P1,100,100*
G04 #@! TO.N,PIN100*
X57382000Y102668000D03*
G04 #@! TO.P,P1,101,101*
G04 #@! TO.N,PIN101*
X54842000Y102668000D03*
G04 #@! TO.P,P1,102,102*
G04 #@! TO.N,PIN102*
X52302000Y102668000D03*
G04 #@! TO.P,P1,103,103*
G04 #@! TO.N,PIN103*
X49762000Y102668000D03*
G04 #@! TO.P,P1,104,104*
G04 #@! TO.N,PIN104*
X47222000Y102668000D03*
G04 #@! TO.P,P1,105,105*
G04 #@! TO.N,PIN105*
X44682000Y102668000D03*
G04 #@! TO.P,P1,106,106*
G04 #@! TO.N,PIN106*
X62462000Y100128000D03*
G04 #@! TO.P,P1,107,107*
X59922000Y100128000D03*
G04 #@! TO.P,P1,108,108*
G04 #@! TO.N,PIN108*
X57382000Y100128000D03*
G04 #@! TO.P,P1,109,109*
G04 #@! TO.N,PIN109*
X54842000Y100128000D03*
G04 #@! TO.P,P1,110,110*
G04 #@! TO.N,PIN110*
X52302000Y100128000D03*
G04 #@! TO.P,P1,111,111*
G04 #@! TO.N,PIN111*
X49762000Y100128000D03*
G04 #@! TO.P,P1,112,112*
G04 #@! TO.N,PIN112*
X47222000Y100128000D03*
G04 #@! TO.P,P1,113,113*
G04 #@! TO.N,PIN113*
X44682000Y100128000D03*
D12*
G04 #@! TO.P,P1,114,114*
G04 #@! TO.N,PIN114*
X36852000Y108258000D03*
G04 #@! TO.P,P1,115,115*
X31052000Y108258000D03*
G04 #@! TO.P,P1,116,116*
G04 #@! TO.N,PIN116*
X25152000Y108258000D03*
G04 #@! TO.P,P1,117,117*
G04 #@! TO.N,PIN117*
X33952000Y105928000D03*
G04 #@! TO.P,P1,118,118*
G04 #@! TO.N,PIN118*
X28052000Y105928000D03*
G04 #@! TO.P,P1,119,119*
G04 #@! TO.N,PIN119*
X36852000Y100128000D03*
G04 #@! TO.P,P1,120,120*
G04 #@! TO.N,PIN120*
X31052000Y100128000D03*
G04 #@! TO.P,P1,121,121*
G04 #@! TO.N,PIN121*
X25152000Y100128000D03*
G04 #@! TD*
G04 #@! TO.P,J21,1,Pin_1*
G04 #@! TO.N,/VBUS*
G04 #@! TA.AperFunction,ComponentPad*
G36*
G01*
X93225000Y68255000D02*
X93225000Y69605000D01*
G75*
G02*
X93475000Y69855000I250000J0D01*
G01*
X94675000Y69855000D01*
G75*
G02*
X94925000Y69605000I0J-250000D01*
G01*
X94925000Y68255000D01*
G75*
G02*
X94675000Y68005000I-250000J0D01*
G01*
X93475000Y68005000D01*
G75*
G02*
X93225000Y68255000I0J250000D01*
G01*
G37*
G04 #@! TD.AperFunction*
D14*
G04 #@! TO.P,J21,2,Pin_2*
G04 #@! TO.N,/USB-*
X96575000Y68930000D03*
G04 #@! TO.P,J21,3,Pin_3*
G04 #@! TO.N,/USB+*
X99075000Y68930000D03*
G04 #@! TO.P,J21,4,Pin_4*
G04 #@! TO.N,PIN114*
X101575000Y68930000D03*
G04 #@! TO.P,J21,5,Pin_5*
X104075000Y68930000D03*
G04 #@! TD*
D15*
G04 #@! TO.N,PIN113*
X161000000Y88000000D03*
X161000000Y97400000D03*
X161000000Y33025000D03*
X161000000Y46600000D03*
X161000000Y22150000D03*
X49200000Y3800000D03*
X160850000Y104225000D03*
X59725000Y3750000D03*
X2700000Y86525000D03*
X161000000Y77975000D03*
X2700000Y76500000D03*
X136775000Y3775000D03*
X92650000Y3775000D03*
X114725000Y3775000D03*
X15575000Y3750000D03*
X2700000Y31550000D03*
X2700000Y65975000D03*
X2700000Y103900000D03*
X2700000Y20675000D03*
X2700000Y56075000D03*
X147650000Y3775000D03*
X102925000Y3775000D03*
X161000000Y67450000D03*
X2700000Y95925000D03*
X81775000Y3750000D03*
X27125000Y3800000D03*
X71150000Y3750000D03*
X161000000Y57550000D03*
X126150000Y3775000D03*
X2700000Y45125000D03*
G04 #@! TD*
G04 #@! TA.AperFunction,Conductor*
G04 #@! TO.N,PIN113*
G36*
X5740857Y105579498D02*
G01*
X5787350Y105525842D01*
X5798736Y105473356D01*
X5699999Y19375001D01*
X5700000Y19375001D01*
X5700000Y19375000D01*
X6683340Y19276666D01*
X6715651Y19269038D01*
X10878998Y17683001D01*
X10916939Y17660233D01*
X14785879Y14287310D01*
X14809926Y14259118D01*
X14973023Y13998163D01*
X16787489Y11095017D01*
X16804416Y11051813D01*
X17600000Y6875000D01*
X145399999Y6875000D01*
X145400000Y6875000D01*
X146096617Y10656637D01*
X146108563Y10691593D01*
X147686944Y13749705D01*
X147722664Y13792226D01*
X152676274Y17556969D01*
X152729287Y17580492D01*
X157500000Y18475000D01*
X157532532Y75797542D01*
X157549375Y105473572D01*
X157569416Y105541681D01*
X157623098Y105588143D01*
X157675375Y105599500D01*
X161926281Y105599500D01*
X161994402Y105579498D01*
X162015376Y105562595D01*
X163062595Y104515377D01*
X163096620Y104453065D01*
X163099500Y104426282D01*
X163099500Y42226500D01*
X163079498Y42158379D01*
X163025842Y42111886D01*
X162973500Y42100500D01*
X161300067Y42100500D01*
X161163224Y42100519D01*
X160892059Y42063282D01*
X160628506Y41989469D01*
X160377448Y41880449D01*
X160143596Y41738267D01*
X160143590Y41738263D01*
X160143588Y41738261D01*
X159931263Y41565549D01*
X159782996Y41406814D01*
X159744435Y41365531D01*
X159586583Y41141929D01*
X159460661Y40898933D01*
X159460659Y40898930D01*
X159460659Y40898928D01*
X159390783Y40702333D01*
X159368996Y40641037D01*
X159368993Y40641028D01*
X159313304Y40373065D01*
X159313304Y40373061D01*
X159294625Y40100004D01*
X159294625Y40099997D01*
X159300934Y40007770D01*
X159313301Y39826976D01*
X159313304Y39826940D01*
X159313304Y39826936D01*
X159368993Y39558973D01*
X159368995Y39558965D01*
X159460659Y39301072D01*
X159460660Y39301069D01*
X159460661Y39301068D01*
X159586583Y39058072D01*
X159586586Y39058068D01*
X159586588Y39058064D01*
X159744436Y38834468D01*
X159931263Y38634451D01*
X160143588Y38461739D01*
X160143595Y38461735D01*
X160143596Y38461734D01*
X160377448Y38319552D01*
X160377451Y38319551D01*
X160377454Y38319549D01*
X160628505Y38210532D01*
X160812882Y38158894D01*
X160891891Y38136766D01*
X160892063Y38136718D01*
X161163217Y38099482D01*
X161300067Y38099500D01*
X162973500Y38099500D01*
X163041621Y38079498D01*
X163088114Y38025842D01*
X163099500Y37973500D01*
X163099500Y15283718D01*
X163079498Y15215597D01*
X163062595Y15194623D01*
X162015377Y14147405D01*
X161953065Y14113379D01*
X161926282Y14110500D01*
X159441424Y14110500D01*
X158845473Y14073006D01*
X158845472Y14073006D01*
X158253066Y13998166D01*
X158253053Y13998164D01*
X157666496Y13886272D01*
X157666488Y13886271D01*
X157088144Y13737777D01*
X157088120Y13737770D01*
X156520228Y13553249D01*
X155965033Y13333432D01*
X155965015Y13333424D01*
X155424741Y13079190D01*
X154901449Y12791509D01*
X154397293Y12471560D01*
X154397281Y12471552D01*
X153914213Y12120583D01*
X153914206Y12120578D01*
X153454121Y11739963D01*
X153454097Y11739941D01*
X153018815Y11331185D01*
X152610059Y10895903D01*
X152610037Y10895879D01*
X152229422Y10435794D01*
X152229417Y10435787D01*
X151878448Y9952719D01*
X151878440Y9952707D01*
X151558491Y9448551D01*
X151270810Y8925259D01*
X151016576Y8384985D01*
X151016568Y8384967D01*
X150796751Y7829772D01*
X150612230Y7261880D01*
X150612223Y7261856D01*
X150463729Y6683512D01*
X150463728Y6683504D01*
X150351836Y6096947D01*
X150351834Y6096934D01*
X150276994Y5504528D01*
X150276994Y5504527D01*
X150239500Y4908577D01*
X150239500Y2423718D01*
X150219498Y2355597D01*
X150202595Y2334623D01*
X149155377Y1287405D01*
X149093065Y1253379D01*
X149066282Y1250500D01*
X14133717Y1250500D01*
X14065596Y1270502D01*
X14044622Y1287405D01*
X12997405Y2334622D01*
X12963379Y2396934D01*
X12960500Y2423717D01*
X12960500Y4683608D01*
X12960499Y4683626D01*
X12960499Y4908575D01*
X12960498Y4908576D01*
X12923004Y5504526D01*
X12923004Y5504527D01*
X12894451Y5730539D01*
X12848164Y6096938D01*
X12736273Y6683492D01*
X12736269Y6683505D01*
X12736269Y6683511D01*
X12587775Y7261855D01*
X12587768Y7261879D01*
X12403253Y7829757D01*
X12403250Y7829767D01*
X12183431Y8384965D01*
X11929186Y8925265D01*
X11641516Y9448534D01*
X11321558Y9952708D01*
X10970573Y10435797D01*
X10818143Y10620053D01*
X10589962Y10895878D01*
X10589954Y10895887D01*
X10589948Y10895894D01*
X10402959Y11095017D01*
X10181184Y11331184D01*
X9745902Y11739940D01*
X9745901Y11739941D01*
X9745895Y11739947D01*
X9745888Y11739953D01*
X9745878Y11739962D01*
X9285793Y12120576D01*
X9285786Y12120581D01*
X8802718Y12471551D01*
X8802706Y12471559D01*
X8298547Y12791508D01*
X8298539Y12791513D01*
X8017195Y12946183D01*
X7775266Y13079185D01*
X7775260Y13079188D01*
X7775258Y13079189D01*
X7234984Y13333423D01*
X7234966Y13333431D01*
X6679771Y13553248D01*
X6111879Y13737769D01*
X6111855Y13737776D01*
X5533511Y13886270D01*
X5533503Y13886271D01*
X5533487Y13886274D01*
X5406788Y13910444D01*
X4946946Y13998163D01*
X4946933Y13998165D01*
X4354526Y14073005D01*
X3758576Y14110499D01*
X3758565Y14110499D01*
X3525892Y14110499D01*
X1273717Y14110499D01*
X1205596Y14130501D01*
X1184622Y14147404D01*
X137405Y15194621D01*
X103379Y15256933D01*
X100500Y15283716D01*
X100500Y37973499D01*
X120502Y38041620D01*
X174158Y38088113D01*
X226500Y38099499D01*
X1974659Y38099499D01*
X1974687Y38099501D01*
X2036838Y38099501D01*
X2036851Y38099502D01*
X2267645Y38131225D01*
X2307965Y38136766D01*
X2571492Y38210603D01*
X2822510Y38319636D01*
X3056344Y38461833D01*
X3268638Y38634547D01*
X3455436Y38834559D01*
X3613260Y39058144D01*
X3739168Y39301136D01*
X3830817Y39559011D01*
X3886498Y39826962D01*
X3886499Y39826976D01*
X3905174Y40099996D01*
X3905174Y40100005D01*
X3886499Y40373025D01*
X3886498Y40373031D01*
X3886498Y40373038D01*
X3830817Y40640989D01*
X3739168Y40898864D01*
X3613260Y41141856D01*
X3455436Y41365441D01*
X3268638Y41565453D01*
X3056344Y41738167D01*
X3056339Y41738170D01*
X3056338Y41738171D01*
X2822508Y41880366D01*
X2571493Y41989397D01*
X2571483Y41989400D01*
X2307972Y42063233D01*
X2307964Y42063235D01*
X2036851Y42100499D01*
X2036838Y42100499D01*
X1965892Y42100499D01*
X226500Y42100499D01*
X158379Y42120501D01*
X111886Y42174157D01*
X100500Y42226499D01*
X100500Y104426283D01*
X120502Y104494404D01*
X137405Y104515378D01*
X1184622Y105562595D01*
X1246934Y105596621D01*
X1273717Y105599500D01*
X5672736Y105599500D01*
X5740857Y105579498D01*
G37*
G04 #@! TD.AperFunction*
G04 #@! TD*
M02*
