G04 #@! TF.GenerationSoftware,KiCad,Pcbnew,8.0.8*
G04 #@! TF.CreationDate,2025-12-21T14:08:12-05:00*
G04 #@! TF.ProjectId,greenenergyecu,67726565-6e65-46e6-9572-67796563752e,d*
G04 #@! TF.SameCoordinates,PX2b953a0PY6943058*
G04 #@! TF.FileFunction,Soldermask,Bot*
G04 #@! TF.FilePolarity,Negative*
%FSLAX46Y46*%
G04 Gerber Fmt 4.6, Leading zero omitted, Abs format (unit mm)*
G04 Created by KiCad (PCBNEW 8.0.8) date 2025-12-21 14:08:12*
%MOMM*%
%LPD*%
G01*
G04 APERTURE LIST*
%ADD10C,3.700000*%
%ADD11C,2.200000*%
%ADD12C,2.600000*%
%ADD13C,1.500000*%
%ADD14C,0.599999*%
%ADD15R,1.100000X1.100000*%
%ADD16C,1.100000*%
%ADD17O,2.400000X1.100000*%
%ADD18C,1.524000*%
%ADD19O,1.700000X1.850000*%
%ADD20C,0.600000*%
G04 APERTURE END LIST*
D10*
G04 #@! TO.C,P1*
X18648000Y5492000D03*
D11*
X21098000Y13292000D03*
D10*
X93148000Y5492000D03*
D11*
X142898000Y13292000D03*
D10*
X145348000Y5492000D03*
D12*
X25748000Y10492000D03*
X31548000Y10492000D03*
X28648000Y12822000D03*
X25748000Y18622000D03*
X31548000Y18622000D03*
D13*
X85168000Y18622000D03*
X82628000Y18622000D03*
X80088000Y18622000D03*
X77548000Y18622000D03*
X75008000Y18622000D03*
X72468000Y18622000D03*
X69928000Y18622000D03*
X67388000Y18622000D03*
X64848000Y18622000D03*
X62308000Y18622000D03*
X59768000Y18622000D03*
X57228000Y18622000D03*
X54688000Y18622000D03*
X52148000Y18622000D03*
X49608000Y18622000D03*
X47068000Y18622000D03*
X44528000Y18622000D03*
X41988000Y18622000D03*
X39448000Y18622000D03*
X85168000Y16082000D03*
X82628000Y16082000D03*
X80088000Y16082000D03*
X77548000Y16082000D03*
X75008000Y16082000D03*
X72468000Y16082000D03*
X69928000Y16082000D03*
X67388000Y16082000D03*
X64848000Y16082000D03*
X62308000Y16082000D03*
X59768000Y16082000D03*
X57228000Y16082000D03*
X54688000Y16082000D03*
X52148000Y16082000D03*
X49608000Y16082000D03*
X47068000Y16082000D03*
X44528000Y16082000D03*
X41988000Y16082000D03*
X39448000Y16082000D03*
X85168000Y10032000D03*
X82628000Y10032000D03*
X80088000Y10032000D03*
X77548000Y10032000D03*
X75008000Y10032000D03*
X72468000Y10032000D03*
X69928000Y10032000D03*
X67388000Y10032000D03*
X64848000Y10032000D03*
X62308000Y10032000D03*
X59768000Y10032000D03*
X57228000Y10032000D03*
X54688000Y10032000D03*
X52148000Y10032000D03*
X49608000Y10032000D03*
X47068000Y10032000D03*
X44528000Y10032000D03*
X41988000Y10032000D03*
X39448000Y10032000D03*
X85168000Y7492000D03*
X82628000Y7492000D03*
X80088000Y7492000D03*
X77548000Y7492000D03*
X75008000Y7492000D03*
X72468000Y7492000D03*
X69928000Y7492000D03*
X67388000Y7492000D03*
X64848000Y7492000D03*
X62308000Y7492000D03*
X59768000Y7492000D03*
X57228000Y7492000D03*
X54688000Y7492000D03*
X52148000Y7492000D03*
X49608000Y7492000D03*
X47068000Y7492000D03*
X44528000Y7492000D03*
X41988000Y7492000D03*
X39448000Y7492000D03*
X101138000Y7492000D03*
X103678000Y7492000D03*
X106218000Y7492000D03*
X108758000Y7492000D03*
X111298000Y7492000D03*
X113838000Y7492000D03*
X116378000Y7492000D03*
X118918000Y7492000D03*
X101138000Y10032000D03*
X103678000Y10032000D03*
X106218000Y10032000D03*
X108758000Y10032000D03*
X111298000Y10032000D03*
X113838000Y10032000D03*
X116378000Y10032000D03*
X118918000Y10032000D03*
X101138000Y16082000D03*
X103678000Y16082000D03*
X106218000Y16082000D03*
X108758000Y16082000D03*
X111298000Y16082000D03*
X113838000Y16082000D03*
X116378000Y16082000D03*
X118918000Y16082000D03*
X101138000Y18622000D03*
X103678000Y18622000D03*
X106218000Y18622000D03*
X108758000Y18622000D03*
X111298000Y18622000D03*
X113838000Y18622000D03*
X116378000Y18622000D03*
X118918000Y18622000D03*
D12*
X126748000Y10492000D03*
X132548000Y10492000D03*
X138448000Y10492000D03*
X129648000Y12822000D03*
X135548000Y12822000D03*
X126748000Y18622000D03*
X132548000Y18622000D03*
X138448000Y18622000D03*
G04 #@! TD*
D14*
G04 #@! TO.C,M7*
X122162501Y96418338D03*
X123037503Y95893338D03*
X121862499Y95143340D03*
X121937502Y91593339D03*
G04 #@! TD*
D15*
G04 #@! TO.C,J22*
X112925000Y102625000D03*
D16*
X114675000Y101825000D03*
X112925000Y101025000D03*
X114675000Y100225000D03*
X112925000Y99425000D03*
D17*
X113800000Y104675000D03*
X113800000Y97375000D03*
G04 #@! TD*
D18*
G04 #@! TO.C,F1*
X134800000Y42425000D03*
X134800000Y47325000D03*
G04 #@! TD*
G04 #@! TO.C,F3*
X47350000Y66375000D03*
X52250000Y66375000D03*
G04 #@! TD*
G04 #@! TO.C,F2*
X132300000Y42425000D03*
X132300000Y47325000D03*
G04 #@! TD*
G04 #@! TO.C,J21*
G36*
G01*
X131150000Y103700000D02*
X131150000Y102350000D01*
G75*
G02*
X130900000Y102100000I-250000J0D01*
G01*
X129700000Y102100000D01*
G75*
G02*
X129450000Y102350000I0J250000D01*
G01*
X129450000Y103700000D01*
G75*
G02*
X129700000Y103950000I250000J0D01*
G01*
X130900000Y103950000D01*
G75*
G02*
X131150000Y103700000I0J-250000D01*
G01*
G37*
D19*
X127800000Y103025000D03*
X125300000Y103025000D03*
X122800000Y103025000D03*
X120300000Y103025000D03*
G04 #@! TD*
D20*
G04 #@! TO.C,M3*
X70675000Y56700000D03*
X71875000Y56700000D03*
X69475000Y56700000D03*
X68275000Y56700000D03*
X74735000Y42275000D03*
X75735000Y42275000D03*
G04 #@! TD*
D13*
G04 #@! TO.C,M1*
X115550002Y69875003D03*
X115550002Y76275000D03*
X115550002Y78175003D03*
X115550002Y82475003D03*
D20*
X115100003Y84875000D03*
X115100003Y85875001D03*
D13*
X115550002Y88725003D03*
X131049999Y69425001D03*
X131049999Y71275000D03*
X131049999Y76225003D03*
X131049999Y88275001D03*
G04 #@! TD*
D20*
G04 #@! TO.C,M4*
X60500000Y56512500D03*
X61700000Y56512500D03*
X59300000Y56512500D03*
X58100000Y56512500D03*
X64560000Y42087500D03*
X65560000Y42087500D03*
G04 #@! TD*
D18*
G04 #@! TO.C,R4*
X112800000Y90420001D03*
X112800000Y94230001D03*
G04 #@! TD*
D20*
G04 #@! TO.C,M2*
X56275000Y44449999D03*
X56275000Y43499999D03*
X56275000Y42550001D03*
X47575000Y43549999D03*
X47575000Y44449999D03*
G04 #@! TD*
G04 #@! TO.C,R51*
G36*
G01*
X92410000Y62025000D02*
X93190000Y62025000D01*
G75*
G02*
X93260000Y61955000I0J-70000D01*
G01*
X93260000Y61395000D01*
G75*
G02*
X93190000Y61325000I-70000J0D01*
G01*
X92410000Y61325000D01*
G75*
G02*
X92340000Y61395000I0J70000D01*
G01*
X92340000Y61955000D01*
G75*
G02*
X92410000Y62025000I70000J0D01*
G01*
G37*
G36*
G01*
X92410000Y60425000D02*
X93190000Y60425000D01*
G75*
G02*
X93260000Y60355000I0J-70000D01*
G01*
X93260000Y59795000D01*
G75*
G02*
X93190000Y59725000I-70000J0D01*
G01*
X92410000Y59725000D01*
G75*
G02*
X92340000Y59795000I0J70000D01*
G01*
X92340000Y60355000D01*
G75*
G02*
X92410000Y60425000I70000J0D01*
G01*
G37*
G04 #@! TD*
G04 #@! TO.C,R18*
G36*
G01*
X90950000Y51765000D02*
X90950000Y50985000D01*
G75*
G02*
X90880000Y50915000I-70000J0D01*
G01*
X90320000Y50915000D01*
G75*
G02*
X90250000Y50985000I0J70000D01*
G01*
X90250000Y51765000D01*
G75*
G02*
X90320000Y51835000I70000J0D01*
G01*
X90880000Y51835000D01*
G75*
G02*
X90950000Y51765000I0J-70000D01*
G01*
G37*
G36*
G01*
X89350000Y51765000D02*
X89350000Y50985000D01*
G75*
G02*
X89280000Y50915000I-70000J0D01*
G01*
X88720000Y50915000D01*
G75*
G02*
X88650000Y50985000I0J70000D01*
G01*
X88650000Y51765000D01*
G75*
G02*
X88720000Y51835000I70000J0D01*
G01*
X89280000Y51835000D01*
G75*
G02*
X89350000Y51765000I0J-70000D01*
G01*
G37*
G04 #@! TD*
G04 #@! TO.C,R30*
G36*
G01*
X99910000Y62025000D02*
X100690000Y62025000D01*
G75*
G02*
X100760000Y61955000I0J-70000D01*
G01*
X100760000Y61395000D01*
G75*
G02*
X100690000Y61325000I-70000J0D01*
G01*
X99910000Y61325000D01*
G75*
G02*
X99840000Y61395000I0J70000D01*
G01*
X99840000Y61955000D01*
G75*
G02*
X99910000Y62025000I70000J0D01*
G01*
G37*
G36*
G01*
X99910000Y60425000D02*
X100690000Y60425000D01*
G75*
G02*
X100760000Y60355000I0J-70000D01*
G01*
X100760000Y59795000D01*
G75*
G02*
X100690000Y59725000I-70000J0D01*
G01*
X99910000Y59725000D01*
G75*
G02*
X99840000Y59795000I0J70000D01*
G01*
X99840000Y60355000D01*
G75*
G02*
X99910000Y60425000I70000J0D01*
G01*
G37*
G04 #@! TD*
G04 #@! TO.C,R46*
G36*
G01*
X107410000Y62025000D02*
X108190000Y62025000D01*
G75*
G02*
X108260000Y61955000I0J-70000D01*
G01*
X108260000Y61395000D01*
G75*
G02*
X108190000Y61325000I-70000J0D01*
G01*
X107410000Y61325000D01*
G75*
G02*
X107340000Y61395000I0J70000D01*
G01*
X107340000Y61955000D01*
G75*
G02*
X107410000Y62025000I70000J0D01*
G01*
G37*
G36*
G01*
X107410000Y60425000D02*
X108190000Y60425000D01*
G75*
G02*
X108260000Y60355000I0J-70000D01*
G01*
X108260000Y59795000D01*
G75*
G02*
X108190000Y59725000I-70000J0D01*
G01*
X107410000Y59725000D01*
G75*
G02*
X107340000Y59795000I0J70000D01*
G01*
X107340000Y60355000D01*
G75*
G02*
X107410000Y60425000I70000J0D01*
G01*
G37*
G04 #@! TD*
G04 #@! TO.C,D1*
G36*
G01*
X89790000Y58825000D02*
X90810000Y58825000D01*
G75*
G02*
X90900000Y58735000I0J-90000D01*
G01*
X90900000Y58015000D01*
G75*
G02*
X90810000Y57925000I-90000J0D01*
G01*
X89790000Y57925000D01*
G75*
G02*
X89700000Y58015000I0J90000D01*
G01*
X89700000Y58735000D01*
G75*
G02*
X89790000Y58825000I90000J0D01*
G01*
G37*
G36*
G01*
X89790000Y55525000D02*
X90810000Y55525000D01*
G75*
G02*
X90900000Y55435000I0J-90000D01*
G01*
X90900000Y54715000D01*
G75*
G02*
X90810000Y54625000I-90000J0D01*
G01*
X89790000Y54625000D01*
G75*
G02*
X89700000Y54715000I0J90000D01*
G01*
X89700000Y55435000D01*
G75*
G02*
X89790000Y55525000I90000J0D01*
G01*
G37*
G04 #@! TD*
G04 #@! TO.C,F9*
G36*
G01*
X121075000Y53118750D02*
X121075000Y53631250D01*
G75*
G02*
X121293750Y53850000I218750J0D01*
G01*
X121731250Y53850000D01*
G75*
G02*
X121950000Y53631250I0J-218750D01*
G01*
X121950000Y53118750D01*
G75*
G02*
X121731250Y52900000I-218750J0D01*
G01*
X121293750Y52900000D01*
G75*
G02*
X121075000Y53118750I0J218750D01*
G01*
G37*
G36*
G01*
X122650000Y53118750D02*
X122650000Y53631250D01*
G75*
G02*
X122868750Y53850000I218750J0D01*
G01*
X123306250Y53850000D01*
G75*
G02*
X123525000Y53631250I0J-218750D01*
G01*
X123525000Y53118750D01*
G75*
G02*
X123306250Y52900000I-218750J0D01*
G01*
X122868750Y52900000D01*
G75*
G02*
X122650000Y53118750I0J218750D01*
G01*
G37*
G04 #@! TD*
G04 #@! TO.C,R49*
G36*
G01*
X98410000Y62025000D02*
X99190000Y62025000D01*
G75*
G02*
X99260000Y61955000I0J-70000D01*
G01*
X99260000Y61395000D01*
G75*
G02*
X99190000Y61325000I-70000J0D01*
G01*
X98410000Y61325000D01*
G75*
G02*
X98340000Y61395000I0J70000D01*
G01*
X98340000Y61955000D01*
G75*
G02*
X98410000Y62025000I70000J0D01*
G01*
G37*
G36*
G01*
X98410000Y60425000D02*
X99190000Y60425000D01*
G75*
G02*
X99260000Y60355000I0J-70000D01*
G01*
X99260000Y59795000D01*
G75*
G02*
X99190000Y59725000I-70000J0D01*
G01*
X98410000Y59725000D01*
G75*
G02*
X98340000Y59795000I0J70000D01*
G01*
X98340000Y60355000D01*
G75*
G02*
X98410000Y60425000I70000J0D01*
G01*
G37*
G04 #@! TD*
G04 #@! TO.C,R19*
G36*
G01*
X98950000Y51765000D02*
X98950000Y50985000D01*
G75*
G02*
X98880000Y50915000I-70000J0D01*
G01*
X98320000Y50915000D01*
G75*
G02*
X98250000Y50985000I0J70000D01*
G01*
X98250000Y51765000D01*
G75*
G02*
X98320000Y51835000I70000J0D01*
G01*
X98880000Y51835000D01*
G75*
G02*
X98950000Y51765000I0J-70000D01*
G01*
G37*
G36*
G01*
X97350000Y51765000D02*
X97350000Y50985000D01*
G75*
G02*
X97280000Y50915000I-70000J0D01*
G01*
X96720000Y50915000D01*
G75*
G02*
X96650000Y50985000I0J70000D01*
G01*
X96650000Y51765000D01*
G75*
G02*
X96720000Y51835000I70000J0D01*
G01*
X97280000Y51835000D01*
G75*
G02*
X97350000Y51765000I0J-70000D01*
G01*
G37*
G04 #@! TD*
G04 #@! TO.C,R16*
G36*
G01*
X87910000Y62025000D02*
X88690000Y62025000D01*
G75*
G02*
X88760000Y61955000I0J-70000D01*
G01*
X88760000Y61395000D01*
G75*
G02*
X88690000Y61325000I-70000J0D01*
G01*
X87910000Y61325000D01*
G75*
G02*
X87840000Y61395000I0J70000D01*
G01*
X87840000Y61955000D01*
G75*
G02*
X87910000Y62025000I70000J0D01*
G01*
G37*
G36*
G01*
X87910000Y60425000D02*
X88690000Y60425000D01*
G75*
G02*
X88760000Y60355000I0J-70000D01*
G01*
X88760000Y59795000D01*
G75*
G02*
X88690000Y59725000I-70000J0D01*
G01*
X87910000Y59725000D01*
G75*
G02*
X87840000Y59795000I0J70000D01*
G01*
X87840000Y60355000D01*
G75*
G02*
X87910000Y60425000I70000J0D01*
G01*
G37*
G04 #@! TD*
G04 #@! TO.C,R45*
G36*
G01*
X86410000Y62025000D02*
X87190000Y62025000D01*
G75*
G02*
X87260000Y61955000I0J-70000D01*
G01*
X87260000Y61395000D01*
G75*
G02*
X87190000Y61325000I-70000J0D01*
G01*
X86410000Y61325000D01*
G75*
G02*
X86340000Y61395000I0J70000D01*
G01*
X86340000Y61955000D01*
G75*
G02*
X86410000Y62025000I70000J0D01*
G01*
G37*
G36*
G01*
X86410000Y60425000D02*
X87190000Y60425000D01*
G75*
G02*
X87260000Y60355000I0J-70000D01*
G01*
X87260000Y59795000D01*
G75*
G02*
X87190000Y59725000I-70000J0D01*
G01*
X86410000Y59725000D01*
G75*
G02*
X86340000Y59795000I0J70000D01*
G01*
X86340000Y60355000D01*
G75*
G02*
X86410000Y60425000I70000J0D01*
G01*
G37*
G04 #@! TD*
G04 #@! TO.C,D4*
G36*
G01*
X79290000Y58975000D02*
X80310000Y58975000D01*
G75*
G02*
X80400000Y58885000I0J-90000D01*
G01*
X80400000Y58165000D01*
G75*
G02*
X80310000Y58075000I-90000J0D01*
G01*
X79290000Y58075000D01*
G75*
G02*
X79200000Y58165000I0J90000D01*
G01*
X79200000Y58885000D01*
G75*
G02*
X79290000Y58975000I90000J0D01*
G01*
G37*
G36*
G01*
X79290000Y55675000D02*
X80310000Y55675000D01*
G75*
G02*
X80400000Y55585000I0J-90000D01*
G01*
X80400000Y54865000D01*
G75*
G02*
X80310000Y54775000I-90000J0D01*
G01*
X79290000Y54775000D01*
G75*
G02*
X79200000Y54865000I0J90000D01*
G01*
X79200000Y55585000D01*
G75*
G02*
X79290000Y55675000I90000J0D01*
G01*
G37*
G04 #@! TD*
G04 #@! TO.C,R36*
G36*
G01*
X111910000Y62025000D02*
X112690000Y62025000D01*
G75*
G02*
X112760000Y61955000I0J-70000D01*
G01*
X112760000Y61395000D01*
G75*
G02*
X112690000Y61325000I-70000J0D01*
G01*
X111910000Y61325000D01*
G75*
G02*
X111840000Y61395000I0J70000D01*
G01*
X111840000Y61955000D01*
G75*
G02*
X111910000Y62025000I70000J0D01*
G01*
G37*
G36*
G01*
X111910000Y60425000D02*
X112690000Y60425000D01*
G75*
G02*
X112760000Y60355000I0J-70000D01*
G01*
X112760000Y59795000D01*
G75*
G02*
X112690000Y59725000I-70000J0D01*
G01*
X111910000Y59725000D01*
G75*
G02*
X111840000Y59795000I0J70000D01*
G01*
X111840000Y60355000D01*
G75*
G02*
X111910000Y60425000I70000J0D01*
G01*
G37*
G04 #@! TD*
G04 #@! TO.C,R17*
G36*
G01*
X82450000Y51765000D02*
X82450000Y50985000D01*
G75*
G02*
X82380000Y50915000I-70000J0D01*
G01*
X81820000Y50915000D01*
G75*
G02*
X81750000Y50985000I0J70000D01*
G01*
X81750000Y51765000D01*
G75*
G02*
X81820000Y51835000I70000J0D01*
G01*
X82380000Y51835000D01*
G75*
G02*
X82450000Y51765000I0J-70000D01*
G01*
G37*
G36*
G01*
X80850000Y51765000D02*
X80850000Y50985000D01*
G75*
G02*
X80780000Y50915000I-70000J0D01*
G01*
X80220000Y50915000D01*
G75*
G02*
X80150000Y50985000I0J70000D01*
G01*
X80150000Y51765000D01*
G75*
G02*
X80220000Y51835000I70000J0D01*
G01*
X80780000Y51835000D01*
G75*
G02*
X80850000Y51765000I0J-70000D01*
G01*
G37*
G04 #@! TD*
G04 #@! TO.C,R23*
G36*
G01*
X107450000Y51765000D02*
X107450000Y50985000D01*
G75*
G02*
X107380000Y50915000I-70000J0D01*
G01*
X106820000Y50915000D01*
G75*
G02*
X106750000Y50985000I0J70000D01*
G01*
X106750000Y51765000D01*
G75*
G02*
X106820000Y51835000I70000J0D01*
G01*
X107380000Y51835000D01*
G75*
G02*
X107450000Y51765000I0J-70000D01*
G01*
G37*
G36*
G01*
X105850000Y51765000D02*
X105850000Y50985000D01*
G75*
G02*
X105780000Y50915000I-70000J0D01*
G01*
X105220000Y50915000D01*
G75*
G02*
X105150000Y50985000I0J70000D01*
G01*
X105150000Y51765000D01*
G75*
G02*
X105220000Y51835000I70000J0D01*
G01*
X105780000Y51835000D01*
G75*
G02*
X105850000Y51765000I0J-70000D01*
G01*
G37*
G04 #@! TD*
G04 #@! TO.C,R47*
G36*
G01*
X104410000Y62025000D02*
X105190000Y62025000D01*
G75*
G02*
X105260000Y61955000I0J-70000D01*
G01*
X105260000Y61395000D01*
G75*
G02*
X105190000Y61325000I-70000J0D01*
G01*
X104410000Y61325000D01*
G75*
G02*
X104340000Y61395000I0J70000D01*
G01*
X104340000Y61955000D01*
G75*
G02*
X104410000Y62025000I70000J0D01*
G01*
G37*
G36*
G01*
X104410000Y60425000D02*
X105190000Y60425000D01*
G75*
G02*
X105260000Y60355000I0J-70000D01*
G01*
X105260000Y59795000D01*
G75*
G02*
X105190000Y59725000I-70000J0D01*
G01*
X104410000Y59725000D01*
G75*
G02*
X104340000Y59795000I0J70000D01*
G01*
X104340000Y60355000D01*
G75*
G02*
X104410000Y60425000I70000J0D01*
G01*
G37*
G04 #@! TD*
G04 #@! TO.C,R53*
G36*
G01*
X140910000Y94525000D02*
X141690000Y94525000D01*
G75*
G02*
X141760000Y94455000I0J-70000D01*
G01*
X141760000Y93895000D01*
G75*
G02*
X141690000Y93825000I-70000J0D01*
G01*
X140910000Y93825000D01*
G75*
G02*
X140840000Y93895000I0J70000D01*
G01*
X140840000Y94455000D01*
G75*
G02*
X140910000Y94525000I70000J0D01*
G01*
G37*
G36*
G01*
X140910000Y92925000D02*
X141690000Y92925000D01*
G75*
G02*
X141760000Y92855000I0J-70000D01*
G01*
X141760000Y92295000D01*
G75*
G02*
X141690000Y92225000I-70000J0D01*
G01*
X140910000Y92225000D01*
G75*
G02*
X140840000Y92295000I0J70000D01*
G01*
X140840000Y92855000D01*
G75*
G02*
X140910000Y92925000I70000J0D01*
G01*
G37*
G04 #@! TD*
G04 #@! TO.C,R39*
G36*
G01*
X78910000Y62025000D02*
X79690000Y62025000D01*
G75*
G02*
X79760000Y61955000I0J-70000D01*
G01*
X79760000Y61395000D01*
G75*
G02*
X79690000Y61325000I-70000J0D01*
G01*
X78910000Y61325000D01*
G75*
G02*
X78840000Y61395000I0J70000D01*
G01*
X78840000Y61955000D01*
G75*
G02*
X78910000Y62025000I70000J0D01*
G01*
G37*
G36*
G01*
X78910000Y60425000D02*
X79690000Y60425000D01*
G75*
G02*
X79760000Y60355000I0J-70000D01*
G01*
X79760000Y59795000D01*
G75*
G02*
X79690000Y59725000I-70000J0D01*
G01*
X78910000Y59725000D01*
G75*
G02*
X78840000Y59795000I0J70000D01*
G01*
X78840000Y60355000D01*
G75*
G02*
X78910000Y60425000I70000J0D01*
G01*
G37*
G04 #@! TD*
G04 #@! TO.C,R43*
G36*
G01*
X80410000Y62025000D02*
X81190000Y62025000D01*
G75*
G02*
X81260000Y61955000I0J-70000D01*
G01*
X81260000Y61395000D01*
G75*
G02*
X81190000Y61325000I-70000J0D01*
G01*
X80410000Y61325000D01*
G75*
G02*
X80340000Y61395000I0J70000D01*
G01*
X80340000Y61955000D01*
G75*
G02*
X80410000Y62025000I70000J0D01*
G01*
G37*
G36*
G01*
X80410000Y60425000D02*
X81190000Y60425000D01*
G75*
G02*
X81260000Y60355000I0J-70000D01*
G01*
X81260000Y59795000D01*
G75*
G02*
X81190000Y59725000I-70000J0D01*
G01*
X80410000Y59725000D01*
G75*
G02*
X80340000Y59795000I0J70000D01*
G01*
X80340000Y60355000D01*
G75*
G02*
X80410000Y60425000I70000J0D01*
G01*
G37*
G04 #@! TD*
G04 #@! TO.C,D3*
G36*
G01*
X81790000Y58825000D02*
X82810000Y58825000D01*
G75*
G02*
X82900000Y58735000I0J-90000D01*
G01*
X82900000Y58015000D01*
G75*
G02*
X82810000Y57925000I-90000J0D01*
G01*
X81790000Y57925000D01*
G75*
G02*
X81700000Y58015000I0J90000D01*
G01*
X81700000Y58735000D01*
G75*
G02*
X81790000Y58825000I90000J0D01*
G01*
G37*
G36*
G01*
X81790000Y55525000D02*
X82810000Y55525000D01*
G75*
G02*
X82900000Y55435000I0J-90000D01*
G01*
X82900000Y54715000D01*
G75*
G02*
X82810000Y54625000I-90000J0D01*
G01*
X81790000Y54625000D01*
G75*
G02*
X81700000Y54715000I0J90000D01*
G01*
X81700000Y55435000D01*
G75*
G02*
X81790000Y55525000I90000J0D01*
G01*
G37*
G04 #@! TD*
G04 #@! TO.C,R41*
G36*
G01*
X139410000Y94525000D02*
X140190000Y94525000D01*
G75*
G02*
X140260000Y94455000I0J-70000D01*
G01*
X140260000Y93895000D01*
G75*
G02*
X140190000Y93825000I-70000J0D01*
G01*
X139410000Y93825000D01*
G75*
G02*
X139340000Y93895000I0J70000D01*
G01*
X139340000Y94455000D01*
G75*
G02*
X139410000Y94525000I70000J0D01*
G01*
G37*
G36*
G01*
X139410000Y92925000D02*
X140190000Y92925000D01*
G75*
G02*
X140260000Y92855000I0J-70000D01*
G01*
X140260000Y92295000D01*
G75*
G02*
X140190000Y92225000I-70000J0D01*
G01*
X139410000Y92225000D01*
G75*
G02*
X139340000Y92295000I0J70000D01*
G01*
X139340000Y92855000D01*
G75*
G02*
X139410000Y92925000I70000J0D01*
G01*
G37*
G04 #@! TD*
G04 #@! TO.C,R40*
G36*
G01*
X142410000Y94525000D02*
X143190000Y94525000D01*
G75*
G02*
X143260000Y94455000I0J-70000D01*
G01*
X143260000Y93895000D01*
G75*
G02*
X143190000Y93825000I-70000J0D01*
G01*
X142410000Y93825000D01*
G75*
G02*
X142340000Y93895000I0J70000D01*
G01*
X142340000Y94455000D01*
G75*
G02*
X142410000Y94525000I70000J0D01*
G01*
G37*
G36*
G01*
X142410000Y92925000D02*
X143190000Y92925000D01*
G75*
G02*
X143260000Y92855000I0J-70000D01*
G01*
X143260000Y92295000D01*
G75*
G02*
X143190000Y92225000I-70000J0D01*
G01*
X142410000Y92225000D01*
G75*
G02*
X142340000Y92295000I0J70000D01*
G01*
X142340000Y92855000D01*
G75*
G02*
X142410000Y92925000I70000J0D01*
G01*
G37*
G04 #@! TD*
G04 #@! TO.C,R42*
G36*
G01*
X83410000Y62025000D02*
X84190000Y62025000D01*
G75*
G02*
X84260000Y61955000I0J-70000D01*
G01*
X84260000Y61395000D01*
G75*
G02*
X84190000Y61325000I-70000J0D01*
G01*
X83410000Y61325000D01*
G75*
G02*
X83340000Y61395000I0J70000D01*
G01*
X83340000Y61955000D01*
G75*
G02*
X83410000Y62025000I70000J0D01*
G01*
G37*
G36*
G01*
X83410000Y60425000D02*
X84190000Y60425000D01*
G75*
G02*
X84260000Y60355000I0J-70000D01*
G01*
X84260000Y59795000D01*
G75*
G02*
X84190000Y59725000I-70000J0D01*
G01*
X83410000Y59725000D01*
G75*
G02*
X83340000Y59795000I0J70000D01*
G01*
X83340000Y60355000D01*
G75*
G02*
X83410000Y60425000I70000J0D01*
G01*
G37*
G04 #@! TD*
G04 #@! TO.C,F7*
G36*
G01*
X105075000Y53118750D02*
X105075000Y53631250D01*
G75*
G02*
X105293750Y53850000I218750J0D01*
G01*
X105731250Y53850000D01*
G75*
G02*
X105950000Y53631250I0J-218750D01*
G01*
X105950000Y53118750D01*
G75*
G02*
X105731250Y52900000I-218750J0D01*
G01*
X105293750Y52900000D01*
G75*
G02*
X105075000Y53118750I0J218750D01*
G01*
G37*
G36*
G01*
X106650000Y53118750D02*
X106650000Y53631250D01*
G75*
G02*
X106868750Y53850000I218750J0D01*
G01*
X107306250Y53850000D01*
G75*
G02*
X107525000Y53631250I0J-218750D01*
G01*
X107525000Y53118750D01*
G75*
G02*
X107306250Y52900000I-218750J0D01*
G01*
X106868750Y52900000D01*
G75*
G02*
X106650000Y53118750I0J218750D01*
G01*
G37*
G04 #@! TD*
G04 #@! TO.C,R3*
G36*
G01*
X128650000Y44485000D02*
X128650000Y45265000D01*
G75*
G02*
X128720000Y45335000I70000J0D01*
G01*
X129280000Y45335000D01*
G75*
G02*
X129350000Y45265000I0J-70000D01*
G01*
X129350000Y44485000D01*
G75*
G02*
X129280000Y44415000I-70000J0D01*
G01*
X128720000Y44415000D01*
G75*
G02*
X128650000Y44485000I0J70000D01*
G01*
G37*
G36*
G01*
X130250000Y44485000D02*
X130250000Y45265000D01*
G75*
G02*
X130320000Y45335000I70000J0D01*
G01*
X130880000Y45335000D01*
G75*
G02*
X130950000Y45265000I0J-70000D01*
G01*
X130950000Y44485000D01*
G75*
G02*
X130880000Y44415000I-70000J0D01*
G01*
X130320000Y44415000D01*
G75*
G02*
X130250000Y44485000I0J70000D01*
G01*
G37*
G04 #@! TD*
G04 #@! TO.C,R26*
G36*
G01*
X104875000Y49950000D02*
X107725000Y49950000D01*
G75*
G02*
X107975000Y49700000I0J-250000D01*
G01*
X107975000Y48975000D01*
G75*
G02*
X107725000Y48725000I-250000J0D01*
G01*
X104875000Y48725000D01*
G75*
G02*
X104625000Y48975000I0J250000D01*
G01*
X104625000Y49700000D01*
G75*
G02*
X104875000Y49950000I250000J0D01*
G01*
G37*
G36*
G01*
X104875000Y44025000D02*
X107725000Y44025000D01*
G75*
G02*
X107975000Y43775000I0J-250000D01*
G01*
X107975000Y43050000D01*
G75*
G02*
X107725000Y42800000I-250000J0D01*
G01*
X104875000Y42800000D01*
G75*
G02*
X104625000Y43050000I0J250000D01*
G01*
X104625000Y43775000D01*
G75*
G02*
X104875000Y44025000I250000J0D01*
G01*
G37*
G04 #@! TD*
G04 #@! TO.C,R48*
G36*
G01*
X101410000Y62025000D02*
X102190000Y62025000D01*
G75*
G02*
X102260000Y61955000I0J-70000D01*
G01*
X102260000Y61395000D01*
G75*
G02*
X102190000Y61325000I-70000J0D01*
G01*
X101410000Y61325000D01*
G75*
G02*
X101340000Y61395000I0J70000D01*
G01*
X101340000Y61955000D01*
G75*
G02*
X101410000Y62025000I70000J0D01*
G01*
G37*
G36*
G01*
X101410000Y60425000D02*
X102190000Y60425000D01*
G75*
G02*
X102260000Y60355000I0J-70000D01*
G01*
X102260000Y59795000D01*
G75*
G02*
X102190000Y59725000I-70000J0D01*
G01*
X101410000Y59725000D01*
G75*
G02*
X101340000Y59795000I0J70000D01*
G01*
X101340000Y60355000D01*
G75*
G02*
X101410000Y60425000I70000J0D01*
G01*
G37*
G04 #@! TD*
G04 #@! TO.C,R14*
G36*
G01*
X110410000Y62025000D02*
X111190000Y62025000D01*
G75*
G02*
X111260000Y61955000I0J-70000D01*
G01*
X111260000Y61395000D01*
G75*
G02*
X111190000Y61325000I-70000J0D01*
G01*
X110410000Y61325000D01*
G75*
G02*
X110340000Y61395000I0J70000D01*
G01*
X110340000Y61955000D01*
G75*
G02*
X110410000Y62025000I70000J0D01*
G01*
G37*
G36*
G01*
X110410000Y60425000D02*
X111190000Y60425000D01*
G75*
G02*
X111260000Y60355000I0J-70000D01*
G01*
X111260000Y59795000D01*
G75*
G02*
X111190000Y59725000I-70000J0D01*
G01*
X110410000Y59725000D01*
G75*
G02*
X110340000Y59795000I0J70000D01*
G01*
X110340000Y60355000D01*
G75*
G02*
X110410000Y60425000I70000J0D01*
G01*
G37*
G04 #@! TD*
G04 #@! TO.C,R52*
G36*
G01*
X143910000Y94525000D02*
X144690000Y94525000D01*
G75*
G02*
X144760000Y94455000I0J-70000D01*
G01*
X144760000Y93895000D01*
G75*
G02*
X144690000Y93825000I-70000J0D01*
G01*
X143910000Y93825000D01*
G75*
G02*
X143840000Y93895000I0J70000D01*
G01*
X143840000Y94455000D01*
G75*
G02*
X143910000Y94525000I70000J0D01*
G01*
G37*
G36*
G01*
X143910000Y92925000D02*
X144690000Y92925000D01*
G75*
G02*
X144760000Y92855000I0J-70000D01*
G01*
X144760000Y92295000D01*
G75*
G02*
X144690000Y92225000I-70000J0D01*
G01*
X143910000Y92225000D01*
G75*
G02*
X143840000Y92295000I0J70000D01*
G01*
X143840000Y92855000D01*
G75*
G02*
X143910000Y92925000I70000J0D01*
G01*
G37*
G04 #@! TD*
G04 #@! TO.C,R2*
G36*
G01*
X130950000Y43765000D02*
X130950000Y42985000D01*
G75*
G02*
X130880000Y42915000I-70000J0D01*
G01*
X130320000Y42915000D01*
G75*
G02*
X130250000Y42985000I0J70000D01*
G01*
X130250000Y43765000D01*
G75*
G02*
X130320000Y43835000I70000J0D01*
G01*
X130880000Y43835000D01*
G75*
G02*
X130950000Y43765000I0J-70000D01*
G01*
G37*
G36*
G01*
X129350000Y43765000D02*
X129350000Y42985000D01*
G75*
G02*
X129280000Y42915000I-70000J0D01*
G01*
X128720000Y42915000D01*
G75*
G02*
X128650000Y42985000I0J70000D01*
G01*
X128650000Y43765000D01*
G75*
G02*
X128720000Y43835000I70000J0D01*
G01*
X129280000Y43835000D01*
G75*
G02*
X129350000Y43765000I0J-70000D01*
G01*
G37*
G04 #@! TD*
G04 #@! TO.C,R34*
G36*
G01*
X90910000Y62025000D02*
X91690000Y62025000D01*
G75*
G02*
X91760000Y61955000I0J-70000D01*
G01*
X91760000Y61395000D01*
G75*
G02*
X91690000Y61325000I-70000J0D01*
G01*
X90910000Y61325000D01*
G75*
G02*
X90840000Y61395000I0J70000D01*
G01*
X90840000Y61955000D01*
G75*
G02*
X90910000Y62025000I70000J0D01*
G01*
G37*
G36*
G01*
X90910000Y60425000D02*
X91690000Y60425000D01*
G75*
G02*
X91760000Y60355000I0J-70000D01*
G01*
X91760000Y59795000D01*
G75*
G02*
X91690000Y59725000I-70000J0D01*
G01*
X90910000Y59725000D01*
G75*
G02*
X90840000Y59795000I0J70000D01*
G01*
X90840000Y60355000D01*
G75*
G02*
X90910000Y60425000I70000J0D01*
G01*
G37*
G04 #@! TD*
G04 #@! TO.C,F5*
G36*
G01*
X88575000Y53118750D02*
X88575000Y53631250D01*
G75*
G02*
X88793750Y53850000I218750J0D01*
G01*
X89231250Y53850000D01*
G75*
G02*
X89450000Y53631250I0J-218750D01*
G01*
X89450000Y53118750D01*
G75*
G02*
X89231250Y52900000I-218750J0D01*
G01*
X88793750Y52900000D01*
G75*
G02*
X88575000Y53118750I0J218750D01*
G01*
G37*
G36*
G01*
X90150000Y53118750D02*
X90150000Y53631250D01*
G75*
G02*
X90368750Y53850000I218750J0D01*
G01*
X90806250Y53850000D01*
G75*
G02*
X91025000Y53631250I0J-218750D01*
G01*
X91025000Y53118750D01*
G75*
G02*
X90806250Y52900000I-218750J0D01*
G01*
X90368750Y52900000D01*
G75*
G02*
X90150000Y53118750I0J218750D01*
G01*
G37*
G04 #@! TD*
G04 #@! TO.C,F4*
G36*
G01*
X80075000Y53118750D02*
X80075000Y53631250D01*
G75*
G02*
X80293750Y53850000I218750J0D01*
G01*
X80731250Y53850000D01*
G75*
G02*
X80950000Y53631250I0J-218750D01*
G01*
X80950000Y53118750D01*
G75*
G02*
X80731250Y52900000I-218750J0D01*
G01*
X80293750Y52900000D01*
G75*
G02*
X80075000Y53118750I0J218750D01*
G01*
G37*
G36*
G01*
X81650000Y53118750D02*
X81650000Y53631250D01*
G75*
G02*
X81868750Y53850000I218750J0D01*
G01*
X82306250Y53850000D01*
G75*
G02*
X82525000Y53631250I0J-218750D01*
G01*
X82525000Y53118750D01*
G75*
G02*
X82306250Y52900000I-218750J0D01*
G01*
X81868750Y52900000D01*
G75*
G02*
X81650000Y53118750I0J218750D01*
G01*
G37*
G04 #@! TD*
G04 #@! TO.C,F8*
G36*
G01*
X113075000Y53118750D02*
X113075000Y53631250D01*
G75*
G02*
X113293750Y53850000I218750J0D01*
G01*
X113731250Y53850000D01*
G75*
G02*
X113950000Y53631250I0J-218750D01*
G01*
X113950000Y53118750D01*
G75*
G02*
X113731250Y52900000I-218750J0D01*
G01*
X113293750Y52900000D01*
G75*
G02*
X113075000Y53118750I0J218750D01*
G01*
G37*
G36*
G01*
X114650000Y53118750D02*
X114650000Y53631250D01*
G75*
G02*
X114868750Y53850000I218750J0D01*
G01*
X115306250Y53850000D01*
G75*
G02*
X115525000Y53631250I0J-218750D01*
G01*
X115525000Y53118750D01*
G75*
G02*
X115306250Y52900000I-218750J0D01*
G01*
X114868750Y52900000D01*
G75*
G02*
X114650000Y53118750I0J218750D01*
G01*
G37*
G04 #@! TD*
G04 #@! TO.C,R13*
G36*
G01*
X113410000Y62025000D02*
X114190000Y62025000D01*
G75*
G02*
X114260000Y61955000I0J-70000D01*
G01*
X114260000Y61395000D01*
G75*
G02*
X114190000Y61325000I-70000J0D01*
G01*
X113410000Y61325000D01*
G75*
G02*
X113340000Y61395000I0J70000D01*
G01*
X113340000Y61955000D01*
G75*
G02*
X113410000Y62025000I70000J0D01*
G01*
G37*
G36*
G01*
X113410000Y60425000D02*
X114190000Y60425000D01*
G75*
G02*
X114260000Y60355000I0J-70000D01*
G01*
X114260000Y59795000D01*
G75*
G02*
X114190000Y59725000I-70000J0D01*
G01*
X113410000Y59725000D01*
G75*
G02*
X113340000Y59795000I0J70000D01*
G01*
X113340000Y60355000D01*
G75*
G02*
X113410000Y60425000I70000J0D01*
G01*
G37*
G04 #@! TD*
G04 #@! TO.C,R29*
G36*
G01*
X105910000Y62025000D02*
X106690000Y62025000D01*
G75*
G02*
X106760000Y61955000I0J-70000D01*
G01*
X106760000Y61395000D01*
G75*
G02*
X106690000Y61325000I-70000J0D01*
G01*
X105910000Y61325000D01*
G75*
G02*
X105840000Y61395000I0J70000D01*
G01*
X105840000Y61955000D01*
G75*
G02*
X105910000Y62025000I70000J0D01*
G01*
G37*
G36*
G01*
X105910000Y60425000D02*
X106690000Y60425000D01*
G75*
G02*
X106760000Y60355000I0J-70000D01*
G01*
X106760000Y59795000D01*
G75*
G02*
X106690000Y59725000I-70000J0D01*
G01*
X105910000Y59725000D01*
G75*
G02*
X105840000Y59795000I0J70000D01*
G01*
X105840000Y60355000D01*
G75*
G02*
X105910000Y60425000I70000J0D01*
G01*
G37*
G04 #@! TD*
G04 #@! TO.C,R35*
G36*
G01*
X108910000Y62025000D02*
X109690000Y62025000D01*
G75*
G02*
X109760000Y61955000I0J-70000D01*
G01*
X109760000Y61395000D01*
G75*
G02*
X109690000Y61325000I-70000J0D01*
G01*
X108910000Y61325000D01*
G75*
G02*
X108840000Y61395000I0J70000D01*
G01*
X108840000Y61955000D01*
G75*
G02*
X108910000Y62025000I70000J0D01*
G01*
G37*
G36*
G01*
X108910000Y60425000D02*
X109690000Y60425000D01*
G75*
G02*
X109760000Y60355000I0J-70000D01*
G01*
X109760000Y59795000D01*
G75*
G02*
X109690000Y59725000I-70000J0D01*
G01*
X108910000Y59725000D01*
G75*
G02*
X108840000Y59795000I0J70000D01*
G01*
X108840000Y60355000D01*
G75*
G02*
X108910000Y60425000I70000J0D01*
G01*
G37*
G04 #@! TD*
G04 #@! TO.C,D2*
G36*
G01*
X87290000Y58825000D02*
X88310000Y58825000D01*
G75*
G02*
X88400000Y58735000I0J-90000D01*
G01*
X88400000Y58015000D01*
G75*
G02*
X88310000Y57925000I-90000J0D01*
G01*
X87290000Y57925000D01*
G75*
G02*
X87200000Y58015000I0J90000D01*
G01*
X87200000Y58735000D01*
G75*
G02*
X87290000Y58825000I90000J0D01*
G01*
G37*
G36*
G01*
X87290000Y55525000D02*
X88310000Y55525000D01*
G75*
G02*
X88400000Y55435000I0J-90000D01*
G01*
X88400000Y54715000D01*
G75*
G02*
X88310000Y54625000I-90000J0D01*
G01*
X87290000Y54625000D01*
G75*
G02*
X87200000Y54715000I0J90000D01*
G01*
X87200000Y55435000D01*
G75*
G02*
X87290000Y55525000I90000J0D01*
G01*
G37*
G04 #@! TD*
G04 #@! TO.C,R24*
G36*
G01*
X115450000Y51765000D02*
X115450000Y50985000D01*
G75*
G02*
X115380000Y50915000I-70000J0D01*
G01*
X114820000Y50915000D01*
G75*
G02*
X114750000Y50985000I0J70000D01*
G01*
X114750000Y51765000D01*
G75*
G02*
X114820000Y51835000I70000J0D01*
G01*
X115380000Y51835000D01*
G75*
G02*
X115450000Y51765000I0J-70000D01*
G01*
G37*
G36*
G01*
X113850000Y51765000D02*
X113850000Y50985000D01*
G75*
G02*
X113780000Y50915000I-70000J0D01*
G01*
X113220000Y50915000D01*
G75*
G02*
X113150000Y50985000I0J70000D01*
G01*
X113150000Y51765000D01*
G75*
G02*
X113220000Y51835000I70000J0D01*
G01*
X113780000Y51835000D01*
G75*
G02*
X113850000Y51765000I0J-70000D01*
G01*
G37*
G04 #@! TD*
G04 #@! TO.C,R50*
G36*
G01*
X95410000Y62025000D02*
X96190000Y62025000D01*
G75*
G02*
X96260000Y61955000I0J-70000D01*
G01*
X96260000Y61395000D01*
G75*
G02*
X96190000Y61325000I-70000J0D01*
G01*
X95410000Y61325000D01*
G75*
G02*
X95340000Y61395000I0J70000D01*
G01*
X95340000Y61955000D01*
G75*
G02*
X95410000Y62025000I70000J0D01*
G01*
G37*
G36*
G01*
X95410000Y60425000D02*
X96190000Y60425000D01*
G75*
G02*
X96260000Y60355000I0J-70000D01*
G01*
X96260000Y59795000D01*
G75*
G02*
X96190000Y59725000I-70000J0D01*
G01*
X95410000Y59725000D01*
G75*
G02*
X95340000Y59795000I0J70000D01*
G01*
X95340000Y60355000D01*
G75*
G02*
X95410000Y60425000I70000J0D01*
G01*
G37*
G04 #@! TD*
G04 #@! TO.C,F6*
G36*
G01*
X96575000Y53118750D02*
X96575000Y53631250D01*
G75*
G02*
X96793750Y53850000I218750J0D01*
G01*
X97231250Y53850000D01*
G75*
G02*
X97450000Y53631250I0J-218750D01*
G01*
X97450000Y53118750D01*
G75*
G02*
X97231250Y52900000I-218750J0D01*
G01*
X96793750Y52900000D01*
G75*
G02*
X96575000Y53118750I0J218750D01*
G01*
G37*
G36*
G01*
X98150000Y53118750D02*
X98150000Y53631250D01*
G75*
G02*
X98368750Y53850000I218750J0D01*
G01*
X98806250Y53850000D01*
G75*
G02*
X99025000Y53631250I0J-218750D01*
G01*
X99025000Y53118750D01*
G75*
G02*
X98806250Y52900000I-218750J0D01*
G01*
X98368750Y52900000D01*
G75*
G02*
X98150000Y53118750I0J218750D01*
G01*
G37*
G04 #@! TD*
G04 #@! TO.C,R44*
G36*
G01*
X89410000Y62025000D02*
X90190000Y62025000D01*
G75*
G02*
X90260000Y61955000I0J-70000D01*
G01*
X90260000Y61395000D01*
G75*
G02*
X90190000Y61325000I-70000J0D01*
G01*
X89410000Y61325000D01*
G75*
G02*
X89340000Y61395000I0J70000D01*
G01*
X89340000Y61955000D01*
G75*
G02*
X89410000Y62025000I70000J0D01*
G01*
G37*
G36*
G01*
X89410000Y60425000D02*
X90190000Y60425000D01*
G75*
G02*
X90260000Y60355000I0J-70000D01*
G01*
X90260000Y59795000D01*
G75*
G02*
X90190000Y59725000I-70000J0D01*
G01*
X89410000Y59725000D01*
G75*
G02*
X89340000Y59795000I0J70000D01*
G01*
X89340000Y60355000D01*
G75*
G02*
X89410000Y60425000I70000J0D01*
G01*
G37*
G04 #@! TD*
G04 #@! TO.C,R37*
G36*
G01*
X81910000Y62025000D02*
X82690000Y62025000D01*
G75*
G02*
X82760000Y61955000I0J-70000D01*
G01*
X82760000Y61395000D01*
G75*
G02*
X82690000Y61325000I-70000J0D01*
G01*
X81910000Y61325000D01*
G75*
G02*
X81840000Y61395000I0J70000D01*
G01*
X81840000Y61955000D01*
G75*
G02*
X81910000Y62025000I70000J0D01*
G01*
G37*
G36*
G01*
X81910000Y60425000D02*
X82690000Y60425000D01*
G75*
G02*
X82760000Y60355000I0J-70000D01*
G01*
X82760000Y59795000D01*
G75*
G02*
X82690000Y59725000I-70000J0D01*
G01*
X81910000Y59725000D01*
G75*
G02*
X81840000Y59795000I0J70000D01*
G01*
X81840000Y60355000D01*
G75*
G02*
X81910000Y60425000I70000J0D01*
G01*
G37*
G04 #@! TD*
G04 #@! TO.C,R38*
G36*
G01*
X84910000Y62025000D02*
X85690000Y62025000D01*
G75*
G02*
X85760000Y61955000I0J-70000D01*
G01*
X85760000Y61395000D01*
G75*
G02*
X85690000Y61325000I-70000J0D01*
G01*
X84910000Y61325000D01*
G75*
G02*
X84840000Y61395000I0J70000D01*
G01*
X84840000Y61955000D01*
G75*
G02*
X84910000Y62025000I70000J0D01*
G01*
G37*
G36*
G01*
X84910000Y60425000D02*
X85690000Y60425000D01*
G75*
G02*
X85760000Y60355000I0J-70000D01*
G01*
X85760000Y59795000D01*
G75*
G02*
X85690000Y59725000I-70000J0D01*
G01*
X84910000Y59725000D01*
G75*
G02*
X84840000Y59795000I0J70000D01*
G01*
X84840000Y60355000D01*
G75*
G02*
X84910000Y60425000I70000J0D01*
G01*
G37*
G04 #@! TD*
G04 #@! TO.C,R27*
G36*
G01*
X112875000Y49950000D02*
X115725000Y49950000D01*
G75*
G02*
X115975000Y49700000I0J-250000D01*
G01*
X115975000Y48975000D01*
G75*
G02*
X115725000Y48725000I-250000J0D01*
G01*
X112875000Y48725000D01*
G75*
G02*
X112625000Y48975000I0J250000D01*
G01*
X112625000Y49700000D01*
G75*
G02*
X112875000Y49950000I250000J0D01*
G01*
G37*
G36*
G01*
X112875000Y44025000D02*
X115725000Y44025000D01*
G75*
G02*
X115975000Y43775000I0J-250000D01*
G01*
X115975000Y43050000D01*
G75*
G02*
X115725000Y42800000I-250000J0D01*
G01*
X112875000Y42800000D01*
G75*
G02*
X112625000Y43050000I0J250000D01*
G01*
X112625000Y43775000D01*
G75*
G02*
X112875000Y44025000I250000J0D01*
G01*
G37*
G04 #@! TD*
G04 #@! TO.C,R20*
G36*
G01*
X81410000Y47562500D02*
X82190000Y47562500D01*
G75*
G02*
X82260000Y47492500I0J-70000D01*
G01*
X82260000Y46932500D01*
G75*
G02*
X82190000Y46862500I-70000J0D01*
G01*
X81410000Y46862500D01*
G75*
G02*
X81340000Y46932500I0J70000D01*
G01*
X81340000Y47492500D01*
G75*
G02*
X81410000Y47562500I70000J0D01*
G01*
G37*
G36*
G01*
X81410000Y45962500D02*
X82190000Y45962500D01*
G75*
G02*
X82260000Y45892500I0J-70000D01*
G01*
X82260000Y45332500D01*
G75*
G02*
X82190000Y45262500I-70000J0D01*
G01*
X81410000Y45262500D01*
G75*
G02*
X81340000Y45332500I0J70000D01*
G01*
X81340000Y45892500D01*
G75*
G02*
X81410000Y45962500I70000J0D01*
G01*
G37*
G04 #@! TD*
G04 #@! TO.C,R21*
G36*
G01*
X89410000Y47487500D02*
X90190000Y47487500D01*
G75*
G02*
X90260000Y47417500I0J-70000D01*
G01*
X90260000Y46857500D01*
G75*
G02*
X90190000Y46787500I-70000J0D01*
G01*
X89410000Y46787500D01*
G75*
G02*
X89340000Y46857500I0J70000D01*
G01*
X89340000Y47417500D01*
G75*
G02*
X89410000Y47487500I70000J0D01*
G01*
G37*
G36*
G01*
X89410000Y45887500D02*
X90190000Y45887500D01*
G75*
G02*
X90260000Y45817500I0J-70000D01*
G01*
X90260000Y45257500D01*
G75*
G02*
X90190000Y45187500I-70000J0D01*
G01*
X89410000Y45187500D01*
G75*
G02*
X89340000Y45257500I0J70000D01*
G01*
X89340000Y45817500D01*
G75*
G02*
X89410000Y45887500I70000J0D01*
G01*
G37*
G04 #@! TD*
G04 #@! TO.C,R22*
G36*
G01*
X97410000Y47525000D02*
X98190000Y47525000D01*
G75*
G02*
X98260000Y47455000I0J-70000D01*
G01*
X98260000Y46895000D01*
G75*
G02*
X98190000Y46825000I-70000J0D01*
G01*
X97410000Y46825000D01*
G75*
G02*
X97340000Y46895000I0J70000D01*
G01*
X97340000Y47455000D01*
G75*
G02*
X97410000Y47525000I70000J0D01*
G01*
G37*
G36*
G01*
X97410000Y45925000D02*
X98190000Y45925000D01*
G75*
G02*
X98260000Y45855000I0J-70000D01*
G01*
X98260000Y45295000D01*
G75*
G02*
X98190000Y45225000I-70000J0D01*
G01*
X97410000Y45225000D01*
G75*
G02*
X97340000Y45295000I0J70000D01*
G01*
X97340000Y45855000D01*
G75*
G02*
X97410000Y45925000I70000J0D01*
G01*
G37*
G04 #@! TD*
G04 #@! TO.C,R25*
G36*
G01*
X125875000Y52800000D02*
X125875000Y49950000D01*
G75*
G02*
X125625000Y49700000I-250000J0D01*
G01*
X124900000Y49700000D01*
G75*
G02*
X124650000Y49950000I0J250000D01*
G01*
X124650000Y52800000D01*
G75*
G02*
X124900000Y53050000I250000J0D01*
G01*
X125625000Y53050000D01*
G75*
G02*
X125875000Y52800000I0J-250000D01*
G01*
G37*
G36*
G01*
X119950000Y52800000D02*
X119950000Y49950000D01*
G75*
G02*
X119700000Y49700000I-250000J0D01*
G01*
X118975000Y49700000D01*
G75*
G02*
X118725000Y49950000I0J250000D01*
G01*
X118725000Y52800000D01*
G75*
G02*
X118975000Y53050000I250000J0D01*
G01*
X119700000Y53050000D01*
G75*
G02*
X119950000Y52800000I0J-250000D01*
G01*
G37*
G04 #@! TD*
G04 #@! TO.C,R28*
G36*
G01*
X122105000Y47525000D02*
X122885000Y47525000D01*
G75*
G02*
X122955000Y47455000I0J-70000D01*
G01*
X122955000Y46895000D01*
G75*
G02*
X122885000Y46825000I-70000J0D01*
G01*
X122105000Y46825000D01*
G75*
G02*
X122035000Y46895000I0J70000D01*
G01*
X122035000Y47455000D01*
G75*
G02*
X122105000Y47525000I70000J0D01*
G01*
G37*
G36*
G01*
X122105000Y45925000D02*
X122885000Y45925000D01*
G75*
G02*
X122955000Y45855000I0J-70000D01*
G01*
X122955000Y45295000D01*
G75*
G02*
X122885000Y45225000I-70000J0D01*
G01*
X122105000Y45225000D01*
G75*
G02*
X122035000Y45295000I0J70000D01*
G01*
X122035000Y45855000D01*
G75*
G02*
X122105000Y45925000I70000J0D01*
G01*
G37*
G04 #@! TD*
G04 #@! TO.C,R31*
G36*
G01*
X92875000Y64450000D02*
X95725000Y64450000D01*
G75*
G02*
X95975000Y64200000I0J-250000D01*
G01*
X95975000Y63475000D01*
G75*
G02*
X95725000Y63225000I-250000J0D01*
G01*
X92875000Y63225000D01*
G75*
G02*
X92625000Y63475000I0J250000D01*
G01*
X92625000Y64200000D01*
G75*
G02*
X92875000Y64450000I250000J0D01*
G01*
G37*
G36*
G01*
X92875000Y58525000D02*
X95725000Y58525000D01*
G75*
G02*
X95975000Y58275000I0J-250000D01*
G01*
X95975000Y57550000D01*
G75*
G02*
X95725000Y57300000I-250000J0D01*
G01*
X92875000Y57300000D01*
G75*
G02*
X92625000Y57550000I0J250000D01*
G01*
X92625000Y58275000D01*
G75*
G02*
X92875000Y58525000I250000J0D01*
G01*
G37*
G04 #@! TD*
G04 #@! TO.C,R32*
G36*
G01*
X101875000Y64450000D02*
X104725000Y64450000D01*
G75*
G02*
X104975000Y64200000I0J-250000D01*
G01*
X104975000Y63475000D01*
G75*
G02*
X104725000Y63225000I-250000J0D01*
G01*
X101875000Y63225000D01*
G75*
G02*
X101625000Y63475000I0J250000D01*
G01*
X101625000Y64200000D01*
G75*
G02*
X101875000Y64450000I250000J0D01*
G01*
G37*
G36*
G01*
X101875000Y58525000D02*
X104725000Y58525000D01*
G75*
G02*
X104975000Y58275000I0J-250000D01*
G01*
X104975000Y57550000D01*
G75*
G02*
X104725000Y57300000I-250000J0D01*
G01*
X101875000Y57300000D01*
G75*
G02*
X101625000Y57550000I0J250000D01*
G01*
X101625000Y58275000D01*
G75*
G02*
X101875000Y58525000I250000J0D01*
G01*
G37*
G04 #@! TD*
G04 #@! TO.C,R33*
G36*
G01*
X95875000Y64450000D02*
X98725000Y64450000D01*
G75*
G02*
X98975000Y64200000I0J-250000D01*
G01*
X98975000Y63475000D01*
G75*
G02*
X98725000Y63225000I-250000J0D01*
G01*
X95875000Y63225000D01*
G75*
G02*
X95625000Y63475000I0J250000D01*
G01*
X95625000Y64200000D01*
G75*
G02*
X95875000Y64450000I250000J0D01*
G01*
G37*
G36*
G01*
X95875000Y58525000D02*
X98725000Y58525000D01*
G75*
G02*
X98975000Y58275000I0J-250000D01*
G01*
X98975000Y57550000D01*
G75*
G02*
X98725000Y57300000I-250000J0D01*
G01*
X95875000Y57300000D01*
G75*
G02*
X95625000Y57550000I0J250000D01*
G01*
X95625000Y58275000D01*
G75*
G02*
X95875000Y58525000I250000J0D01*
G01*
G37*
G04 #@! TD*
M02*
