G04 #@! TF.GenerationSoftware,KiCad,Pcbnew,8.0.8*
G04 #@! TF.CreationDate,2025-12-21T11:00:02-05:00*
G04 #@! TF.ProjectId,greenenergyecu,67726565-6e65-46e6-9572-67796563752e,d*
G04 #@! TF.SameCoordinates,PX2b953a0PY6943058*
G04 #@! TF.FileFunction,Soldermask,Bot*
G04 #@! TF.FilePolarity,Negative*
%FSLAX46Y46*%
G04 Gerber Fmt 4.6, Leading zero omitted, Abs format (unit mm)*
G04 Created by KiCad (PCBNEW 8.0.8) date 2025-12-21 11:00:02*
%MOMM*%
%LPD*%
G01*
G04 APERTURE LIST*
%ADD10C,1.524000*%
%ADD11C,0.599999*%
%ADD12C,0.600000*%
%ADD13C,1.500000*%
%ADD14R,1.100000X1.100000*%
%ADD15C,1.100000*%
%ADD16O,1.100000X2.400000*%
%ADD17O,1.700000X1.850000*%
%ADD18C,3.700000*%
%ADD19C,2.200000*%
%ADD20C,2.600000*%
G04 APERTURE END LIST*
D10*
G04 #@! TO.C,R4*
X89635391Y87202388D03*
X93445391Y87202388D03*
G04 #@! TD*
D11*
G04 #@! TO.C,M7*
X92159997Y63356104D03*
X91284995Y63881104D03*
X92459999Y64631102D03*
X92384996Y68181103D03*
G04 #@! TD*
D12*
G04 #@! TO.C,M4*
X87310000Y92367779D03*
X87310000Y91167779D03*
X87310000Y93567779D03*
X87310000Y94767779D03*
X72885000Y88307779D03*
X72885000Y87307779D03*
G04 #@! TD*
G04 #@! TO.C,M3*
X87310000Y103417779D03*
X87310000Y102217779D03*
X87310000Y104617779D03*
X87310000Y105817779D03*
X72885000Y99357779D03*
X72885000Y98357779D03*
G04 #@! TD*
G04 #@! TO.C,M2*
X63210000Y47217776D03*
X63210000Y46267776D03*
X63210000Y45317778D03*
X54510000Y46317776D03*
X54510000Y47217776D03*
G04 #@! TD*
D13*
G04 #@! TO.C,M1*
X82459996Y67867777D03*
X82459996Y61467780D03*
X82459996Y59567777D03*
X82459996Y55267777D03*
D12*
X82909995Y52867780D03*
X82909995Y51867779D03*
D13*
X82459996Y49017777D03*
X66959999Y68317779D03*
X66959999Y66467780D03*
X66959999Y61517777D03*
X66959999Y49467779D03*
G04 #@! TD*
D14*
G04 #@! TO.C,J22*
X56785000Y50492779D03*
D15*
X57585000Y52242779D03*
X58385000Y50492779D03*
X59185000Y52242779D03*
X59985000Y50492779D03*
D16*
X62035000Y51367779D03*
X54735000Y51367779D03*
G04 #@! TD*
G04 #@! TO.C,J21*
G36*
G01*
X39135000Y49417779D02*
X39135000Y50767779D01*
G75*
G02*
X39385000Y51017779I250000J0D01*
G01*
X40585000Y51017779D01*
G75*
G02*
X40835000Y50767779I0J-250000D01*
G01*
X40835000Y49417779D01*
G75*
G02*
X40585000Y49167779I-250000J0D01*
G01*
X39385000Y49167779D01*
G75*
G02*
X39135000Y49417779I0J250000D01*
G01*
G37*
D17*
X42485000Y50092779D03*
X44985000Y50092779D03*
X47485000Y50092779D03*
X49985000Y50092779D03*
G04 #@! TD*
D10*
G04 #@! TO.C,F3*
X85270000Y45387779D03*
X90170000Y45387779D03*
G04 #@! TD*
G04 #@! TO.C,F2*
X85270000Y48507779D03*
X90170000Y48507779D03*
G04 #@! TD*
G04 #@! TO.C,F1*
X85270000Y51627779D03*
X90170000Y51627779D03*
G04 #@! TD*
D18*
G04 #@! TO.C,P1*
X18648000Y5492000D03*
D19*
X21098000Y13292000D03*
D18*
X93148000Y5492000D03*
D19*
X142898000Y13292000D03*
D18*
X145348000Y5492000D03*
D20*
X25748000Y10492000D03*
X31548000Y10492000D03*
X28648000Y12822000D03*
X25748000Y18622000D03*
X31548000Y18622000D03*
D13*
X85168000Y18622000D03*
X82628000Y18622000D03*
X80088000Y18622000D03*
X77548000Y18622000D03*
X75008000Y18622000D03*
X72468000Y18622000D03*
X69928000Y18622000D03*
X67388000Y18622000D03*
X64848000Y18622000D03*
X62308000Y18622000D03*
X59768000Y18622000D03*
X57228000Y18622000D03*
X54688000Y18622000D03*
X52148000Y18622000D03*
X49608000Y18622000D03*
X47068000Y18622000D03*
X44528000Y18622000D03*
X41988000Y18622000D03*
X39448000Y18622000D03*
X85168000Y16082000D03*
X82628000Y16082000D03*
X80088000Y16082000D03*
X77548000Y16082000D03*
X75008000Y16082000D03*
X72468000Y16082000D03*
X69928000Y16082000D03*
X67388000Y16082000D03*
X64848000Y16082000D03*
X62308000Y16082000D03*
X59768000Y16082000D03*
X57228000Y16082000D03*
X54688000Y16082000D03*
X52148000Y16082000D03*
X49608000Y16082000D03*
X47068000Y16082000D03*
X44528000Y16082000D03*
X41988000Y16082000D03*
X39448000Y16082000D03*
X85168000Y10032000D03*
X82628000Y10032000D03*
X80088000Y10032000D03*
X77548000Y10032000D03*
X75008000Y10032000D03*
X72468000Y10032000D03*
X69928000Y10032000D03*
X67388000Y10032000D03*
X64848000Y10032000D03*
X62308000Y10032000D03*
X59768000Y10032000D03*
X57228000Y10032000D03*
X54688000Y10032000D03*
X52148000Y10032000D03*
X49608000Y10032000D03*
X47068000Y10032000D03*
X44528000Y10032000D03*
X41988000Y10032000D03*
X39448000Y10032000D03*
X85168000Y7492000D03*
X82628000Y7492000D03*
X80088000Y7492000D03*
X77548000Y7492000D03*
X75008000Y7492000D03*
X72468000Y7492000D03*
X69928000Y7492000D03*
X67388000Y7492000D03*
X64848000Y7492000D03*
X62308000Y7492000D03*
X59768000Y7492000D03*
X57228000Y7492000D03*
X54688000Y7492000D03*
X52148000Y7492000D03*
X49608000Y7492000D03*
X47068000Y7492000D03*
X44528000Y7492000D03*
X41988000Y7492000D03*
X39448000Y7492000D03*
X101138000Y7492000D03*
X103678000Y7492000D03*
X106218000Y7492000D03*
X108758000Y7492000D03*
X111298000Y7492000D03*
X113838000Y7492000D03*
X116378000Y7492000D03*
X118918000Y7492000D03*
X101138000Y10032000D03*
X103678000Y10032000D03*
X106218000Y10032000D03*
X108758000Y10032000D03*
X111298000Y10032000D03*
X113838000Y10032000D03*
X116378000Y10032000D03*
X118918000Y10032000D03*
X101138000Y16082000D03*
X103678000Y16082000D03*
X106218000Y16082000D03*
X108758000Y16082000D03*
X111298000Y16082000D03*
X113838000Y16082000D03*
X116378000Y16082000D03*
X118918000Y16082000D03*
X101138000Y18622000D03*
X103678000Y18622000D03*
X106218000Y18622000D03*
X108758000Y18622000D03*
X111298000Y18622000D03*
X113838000Y18622000D03*
X116378000Y18622000D03*
X118918000Y18622000D03*
D20*
X126748000Y10492000D03*
X132548000Y10492000D03*
X138448000Y10492000D03*
X129648000Y12822000D03*
X135548000Y12822000D03*
X126748000Y18622000D03*
X132548000Y18622000D03*
X138448000Y18622000D03*
G04 #@! TD*
M02*
