G04 #@! TF.GenerationSoftware,KiCad,Pcbnew,8.0.8*
G04 #@! TF.CreationDate,2026-01-13T17:51:08-05:00*
G04 #@! TF.ProjectId,greenenergyecu,67726565-6e65-46e6-9572-67796563752e,d*
G04 #@! TF.SameCoordinates,PX2b953a0PY6943058*
G04 #@! TF.FileFunction,Copper,L3,Inr*
G04 #@! TF.FilePolarity,Positive*
%FSLAX46Y46*%
G04 Gerber Fmt 4.6, Leading zero omitted, Abs format (unit mm)*
G04 Created by KiCad (PCBNEW 8.0.8) date 2026-01-13 17:51:08*
%MOMM*%
%LPD*%
G01*
G04 APERTURE LIST*
G04 #@! TA.AperFunction,ComponentPad*
%ADD10R,1.100000X1.100000*%
G04 #@! TD*
G04 #@! TA.AperFunction,ComponentPad*
%ADD11C,1.100000*%
G04 #@! TD*
G04 #@! TA.AperFunction,ComponentPad*
%ADD12O,2.400000X1.100000*%
G04 #@! TD*
G04 #@! TA.AperFunction,ComponentPad*
%ADD13C,1.700000*%
G04 #@! TD*
G04 #@! TA.AperFunction,ComponentPad*
%ADD14C,2.600000*%
G04 #@! TD*
G04 #@! TA.AperFunction,ComponentPad*
%ADD15C,1.500000*%
G04 #@! TD*
G04 #@! TA.AperFunction,ComponentPad*
%ADD16C,3.700000*%
G04 #@! TD*
G04 #@! TA.AperFunction,ComponentPad*
%ADD17C,2.200000*%
G04 #@! TD*
G04 #@! TA.AperFunction,ComponentPad*
%ADD18C,1.524000*%
G04 #@! TD*
G04 #@! TA.AperFunction,ComponentPad*
%ADD19C,0.700000*%
G04 #@! TD*
G04 #@! TA.AperFunction,Conductor*
%ADD20R,1.100000X0.250000*%
G04 #@! TD*
G04 #@! TA.AperFunction,Conductor*
%ADD21R,0.980000X0.250000*%
G04 #@! TD*
G04 #@! TA.AperFunction,Conductor*
%ADD22R,6.300000X0.250000*%
G04 #@! TD*
G04 #@! TA.AperFunction,Conductor*
%ADD23R,0.250000X27.600000*%
G04 #@! TD*
G04 #@! TA.AperFunction,Conductor*
%ADD24R,8.750000X0.250000*%
G04 #@! TD*
G04 #@! TA.AperFunction,Conductor*
%ADD25R,0.950000X0.250000*%
G04 #@! TD*
G04 #@! TA.AperFunction,Conductor*
%ADD26R,0.200000X4.400000*%
G04 #@! TD*
G04 #@! TA.AperFunction,Conductor*
%ADD27R,1.200000X0.200000*%
G04 #@! TD*
G04 #@! TA.AperFunction,Conductor*
%ADD28R,6.800000X0.200000*%
G04 #@! TD*
G04 #@! TA.AperFunction,Conductor*
%ADD29R,4.000000X0.200000*%
G04 #@! TD*
G04 #@! TA.AperFunction,Conductor*
%ADD30R,1.800000X0.200000*%
G04 #@! TD*
G04 #@! TA.AperFunction,Conductor*
%ADD31R,0.200000X10.000000*%
G04 #@! TD*
G04 #@! TA.AperFunction,ComponentPad*
%ADD32C,0.600000*%
G04 #@! TD*
G04 #@! TA.AperFunction,ComponentPad*
%ADD33C,1.000000*%
G04 #@! TD*
G04 #@! TA.AperFunction,Conductor*
%ADD34R,6.185000X0.250000*%
G04 #@! TD*
G04 #@! TA.AperFunction,Conductor*
%ADD35R,1.115000X0.250000*%
G04 #@! TD*
G04 #@! TA.AperFunction,Conductor*
%ADD36R,0.250000X14.275000*%
G04 #@! TD*
G04 #@! TA.AperFunction,Conductor*
%ADD37R,0.250000X15.100000*%
G04 #@! TD*
G04 #@! TA.AperFunction,Conductor*
%ADD38R,5.175000X0.250000*%
G04 #@! TD*
G04 #@! TA.AperFunction,Conductor*
%ADD39O,3.300000X0.200000*%
G04 #@! TD*
G04 #@! TA.AperFunction,Conductor*
%ADD40O,10.200000X0.200000*%
G04 #@! TD*
G04 #@! TA.AperFunction,Conductor*
%ADD41O,0.300000X0.200000*%
G04 #@! TD*
G04 #@! TA.AperFunction,Conductor*
%ADD42O,0.200000X17.000000*%
G04 #@! TD*
G04 #@! TA.AperFunction,Conductor*
%ADD43O,0.200000X15.400000*%
G04 #@! TD*
G04 #@! TA.AperFunction,Conductor*
%ADD44O,4.800000X0.200000*%
G04 #@! TD*
G04 #@! TA.AperFunction,Conductor*
%ADD45O,2.600000X0.200000*%
G04 #@! TD*
G04 #@! TA.AperFunction,Conductor*
%ADD46O,1.000000X0.200000*%
G04 #@! TD*
G04 #@! TA.AperFunction,Conductor*
%ADD47O,1.500000X0.200000*%
G04 #@! TD*
G04 #@! TA.AperFunction,Conductor*
%ADD48R,0.200000X3.700000*%
G04 #@! TD*
G04 #@! TA.AperFunction,Conductor*
%ADD49R,0.200000X0.400000*%
G04 #@! TD*
G04 #@! TA.AperFunction,Conductor*
%ADD50R,0.200000X1.600000*%
G04 #@! TD*
G04 #@! TA.AperFunction,Conductor*
%ADD51R,0.200000X9.700000*%
G04 #@! TD*
G04 #@! TA.AperFunction,Conductor*
%ADD52R,0.200000X2.300000*%
G04 #@! TD*
G04 #@! TA.AperFunction,Conductor*
%ADD53R,1.400000X0.200000*%
G04 #@! TD*
G04 #@! TA.AperFunction,Conductor*
%ADD54R,6.400000X0.200000*%
G04 #@! TD*
G04 #@! TA.AperFunction,Conductor*
%ADD55R,1.700000X0.200000*%
G04 #@! TD*
G04 #@! TA.AperFunction,Conductor*
%ADD56R,3.300000X0.200000*%
G04 #@! TD*
G04 #@! TA.AperFunction,Conductor*
%ADD57R,0.200000X7.000000*%
G04 #@! TD*
G04 #@! TA.AperFunction,Conductor*
%ADD58R,0.200000X3.300000*%
G04 #@! TD*
G04 #@! TA.AperFunction,Conductor*
%ADD59R,0.200000X6.300000*%
G04 #@! TD*
G04 #@! TA.AperFunction,Conductor*
%ADD60O,1.225000X0.200000*%
G04 #@! TD*
G04 #@! TA.AperFunction,Conductor*
%ADD61O,0.200000X9.300000*%
G04 #@! TD*
G04 #@! TA.AperFunction,ComponentPad*
%ADD62C,0.599999*%
G04 #@! TD*
G04 #@! TA.AperFunction,ViaPad*
%ADD63C,0.600000*%
G04 #@! TD*
G04 #@! TA.AperFunction,ViaPad*
%ADD64C,0.400000*%
G04 #@! TD*
G04 #@! TA.AperFunction,ViaPad*
%ADD65C,0.200000*%
G04 #@! TD*
G04 #@! TA.AperFunction,ViaPad*
%ADD66C,0.150000*%
G04 #@! TD*
G04 #@! TA.AperFunction,ViaPad*
%ADD67C,0.300000*%
G04 #@! TD*
G04 #@! TA.AperFunction,ViaPad*
%ADD68C,0.800000*%
G04 #@! TD*
G04 #@! TA.AperFunction,ViaPad*
%ADD69C,1.000000*%
G04 #@! TD*
G04 #@! TA.AperFunction,ViaPad*
%ADD70C,1.500000*%
G04 #@! TD*
G04 #@! TA.AperFunction,Conductor*
%ADD71C,2.000000*%
G04 #@! TD*
G04 #@! TA.AperFunction,Conductor*
%ADD72C,3.000000*%
G04 #@! TD*
G04 #@! TA.AperFunction,Conductor*
%ADD73C,0.500000*%
G04 #@! TD*
G04 #@! TA.AperFunction,Conductor*
%ADD74C,0.200000*%
G04 #@! TD*
G04 #@! TA.AperFunction,Conductor*
%ADD75C,1.000000*%
G04 #@! TD*
G04 #@! TA.AperFunction,Conductor*
%ADD76C,2.500000*%
G04 #@! TD*
G04 #@! TA.AperFunction,Conductor*
%ADD77C,1.300000*%
G04 #@! TD*
G04 #@! TA.AperFunction,Conductor*
%ADD78C,0.800000*%
G04 #@! TD*
G04 #@! TA.AperFunction,Conductor*
%ADD79C,1.200000*%
G04 #@! TD*
G04 #@! TA.AperFunction,Conductor*
%ADD80C,1.500000*%
G04 #@! TD*
G04 #@! TA.AperFunction,Conductor*
%ADD81C,1.400000*%
G04 #@! TD*
G04 APERTURE END LIST*
D10*
G04 #@! TO.N,P_VBUS*
G04 #@! TO.C,J22*
X102050000Y99625000D03*
D11*
G04 #@! TO.N,P_USB-*
X100300000Y100425000D03*
G04 #@! TO.N,P_USB+*
X102050000Y101225000D03*
G04 #@! TO.N,unconnected-(J22-ID-Pad4)*
X100300000Y102025000D03*
G04 #@! TO.N,GND*
X102050000Y102825000D03*
D12*
X101175000Y97575000D03*
X101175000Y104875000D03*
G04 #@! TD*
D13*
G04 #@! TO.N,OUT_IGN8*
G04 #@! TO.C,G16*
X153640000Y76145000D03*
X151100000Y76145000D03*
X148560000Y76145000D03*
X153640000Y73605000D03*
X151100000Y73605000D03*
X148560000Y73605000D03*
X153640000Y71065000D03*
X151100000Y71065000D03*
X148560000Y71065000D03*
G04 #@! TD*
D14*
G04 #@! TO.N,OUT_IGN8*
G04 #@! TO.C,P1*
X138448000Y18622000D03*
G04 #@! TO.N,OUT_IGN7*
X132548000Y18622000D03*
G04 #@! TO.N,OUT_IGN6*
X126748000Y18622000D03*
G04 #@! TO.N,OUT_IGN5*
X135548000Y12822000D03*
G04 #@! TO.N,OUT_IGN4*
X129648000Y12822000D03*
G04 #@! TO.N,OUT_IGN3*
X138448000Y10492000D03*
G04 #@! TO.N,OUT_IGN2*
X132548000Y10492000D03*
G04 #@! TO.N,OUT_IGN1*
X126748000Y10492000D03*
D15*
G04 #@! TO.N,OUT_INJ8*
X118918000Y18622000D03*
G04 #@! TO.N,OUT_INJ7*
X116378000Y18622000D03*
G04 #@! TO.N,OUT_INJ6*
X113838000Y18622000D03*
G04 #@! TO.N,OUT_INJ5*
X111298000Y18622000D03*
G04 #@! TO.N,OUT_INJ4*
X108758000Y18622000D03*
G04 #@! TO.N,OUT_INJ3*
X106218000Y18622000D03*
G04 #@! TO.N,OUT_INJ2*
X103678000Y18622000D03*
G04 #@! TO.N,OUT_INJ1*
X101138000Y18622000D03*
G04 #@! TO.N,OUT_INJ8*
X118918000Y16082000D03*
G04 #@! TO.N,OUT_INJ7*
X116378000Y16082000D03*
G04 #@! TO.N,OUT_INJ6*
X113838000Y16082000D03*
G04 #@! TO.N,OUT_INJ5*
X111298000Y16082000D03*
G04 #@! TO.N,OUT_INJ4*
X108758000Y16082000D03*
G04 #@! TO.N,OUT_INJ3*
X106218000Y16082000D03*
G04 #@! TO.N,OUT_INJ2*
X103678000Y16082000D03*
G04 #@! TO.N,OUT_INJ1*
X101138000Y16082000D03*
G04 #@! TO.N,12V_KEY*
X118918000Y10032000D03*
G04 #@! TO.N,+12V_PERM*
X116378000Y10032000D03*
G04 #@! TO.N,+12V*
X113838000Y10032000D03*
X111298000Y10032000D03*
X108758000Y10032000D03*
X106218000Y10032000D03*
G04 #@! TO.N,OUT_DC1+*
X103678000Y10032000D03*
X101138000Y10032000D03*
G04 #@! TO.N,GND*
X118918000Y7492000D03*
X116378000Y7492000D03*
X113838000Y7492000D03*
X111298000Y7492000D03*
X108758000Y7492000D03*
X106218000Y7492000D03*
G04 #@! TO.N,OUT_DC1-*
X103678000Y7492000D03*
X101138000Y7492000D03*
G04 #@! TO.N,+5VP*
X39448000Y7492000D03*
X41988000Y7492000D03*
X44528000Y7492000D03*
X47068000Y7492000D03*
X49608000Y7492000D03*
X52148000Y7492000D03*
X54688000Y7492000D03*
X57228000Y7492000D03*
X59768000Y7492000D03*
X62308000Y7492000D03*
X64848000Y7492000D03*
X67388000Y7492000D03*
X69928000Y7492000D03*
X72468000Y7492000D03*
X75008000Y7492000D03*
X77548000Y7492000D03*
X80088000Y7492000D03*
G04 #@! TO.N,+12V_RAW*
X82628000Y7492000D03*
X85168000Y7492000D03*
G04 #@! TO.N,GNDA*
X39448000Y10032000D03*
X41988000Y10032000D03*
X44528000Y10032000D03*
X47068000Y10032000D03*
X49608000Y10032000D03*
X52148000Y10032000D03*
X54688000Y10032000D03*
X57228000Y10032000D03*
X59768000Y10032000D03*
X62308000Y10032000D03*
X64848000Y10032000D03*
X67388000Y10032000D03*
X69928000Y10032000D03*
X72468000Y10032000D03*
X75008000Y10032000D03*
X77548000Y10032000D03*
X80088000Y10032000D03*
G04 #@! TO.N,3_WBO_Heater*
X82628000Y10032000D03*
X85168000Y10032000D03*
G04 #@! TO.N,unconnected-(P1-Pad43)*
X39448000Y16082000D03*
G04 #@! TO.N,unconnected-(P1-Pad42)*
X41988000Y16082000D03*
G04 #@! TO.N,IN_IAT*
X44528000Y16082000D03*
G04 #@! TO.N,IN_TPS1*
X47068000Y16082000D03*
G04 #@! TO.N,/IN_MAP*
X49608000Y16082000D03*
G04 #@! TO.N,IN_AUX1*
X52148000Y16082000D03*
G04 #@! TO.N,IN_TPS2*
X54688000Y16082000D03*
G04 #@! TO.N,AUX3*
X57228000Y16082000D03*
G04 #@! TO.N,UART_TX*
X59768000Y16082000D03*
G04 #@! TO.N,IN_HALL2*
X62308000Y16082000D03*
G04 #@! TO.N,P_USB+*
X64848000Y16082000D03*
G04 #@! TO.N,P_VBUS*
X67388000Y16082000D03*
G04 #@! TO.N,/CAN_L*
X69928000Y16082000D03*
G04 #@! TO.N,OUT_LS2*
X72468000Y16082000D03*
G04 #@! TO.N,GNDA*
X75008000Y16082000D03*
G04 #@! TO.N,VR_MAX9924-*
X77548000Y16082000D03*
G04 #@! TO.N,VR_DISCRETE-*
X80088000Y16082000D03*
G04 #@! TO.N,2_WBO_Vm*
X82628000Y16082000D03*
G04 #@! TO.N,1_WBO_Ip*
X85168000Y16082000D03*
G04 #@! TO.N,unconnected-(P1-Pad24)*
X39448000Y18622000D03*
G04 #@! TO.N,IN_CLT*
X41988000Y18622000D03*
G04 #@! TO.N,IN_PPS1*
X44528000Y18622000D03*
G04 #@! TO.N,IN_FLEX*
X47068000Y18622000D03*
G04 #@! TO.N,/INTERNAL_MAP*
X49608000Y18622000D03*
G04 #@! TO.N,IN_AUX2*
X52148000Y18622000D03*
G04 #@! TO.N,IN_PPS2*
X54688000Y18622000D03*
G04 #@! TO.N,IN_HALL1*
X57228000Y18622000D03*
G04 #@! TO.N,UART_RX*
X59768000Y18622000D03*
G04 #@! TO.N,IN_HALL3*
X62308000Y18622000D03*
G04 #@! TO.N,P_USB-*
X64848000Y18622000D03*
G04 #@! TO.N,/LSH/OUT2*
X67388000Y18622000D03*
G04 #@! TO.N,/CAN_H*
X69928000Y18622000D03*
G04 #@! TO.N,OUT_LS1*
X72468000Y18622000D03*
G04 #@! TO.N,IN_KNOCK_RAW*
X75008000Y18622000D03*
G04 #@! TO.N,VR_MAX9924+*
X77548000Y18622000D03*
G04 #@! TO.N,VR_DISCRETE+*
X80088000Y18622000D03*
G04 #@! TO.N,6_WBO_Un*
X82628000Y18622000D03*
G04 #@! TO.N,5_WBO_Rtrim*
X85168000Y18622000D03*
D14*
G04 #@! TO.N,GND*
X31548000Y18622000D03*
X25748000Y18622000D03*
G04 #@! TO.N,+12V*
X28648000Y12822000D03*
G04 #@! TO.N,MAIN_LS*
X31548000Y10492000D03*
G04 #@! TO.N,HSO*
X25748000Y10492000D03*
D16*
G04 #@! TO.N,*
X145348000Y5492000D03*
D17*
X142898000Y13292000D03*
D16*
X93148000Y5492000D03*
D17*
X21098000Y13292000D03*
D16*
X18648000Y5492000D03*
G04 #@! TD*
D18*
G04 #@! TO.N,12V_KEY*
G04 #@! TO.C,F842*
X147770000Y93865000D03*
G04 #@! TO.N,/IN_VIGN*
X147770000Y98765000D03*
G04 #@! TD*
G04 #@! TO.N,+12V*
G04 #@! TO.C,F843*
X92980010Y55345000D03*
G04 #@! TO.N,Net-(F843-Pad2)*
X88080010Y55345000D03*
G04 #@! TD*
G04 #@! TO.N,+12V*
G04 #@! TO.C,F841*
X97541010Y41814000D03*
G04 #@! TO.N,+12V_RAW*
X92641010Y41814000D03*
G04 #@! TD*
D19*
G04 #@! TO.N,6_WBO_Un*
G04 #@! TO.C,M5*
X58235000Y31875000D03*
G04 #@! TO.N,2_WBO_Vm*
X61235000Y31875000D03*
G04 #@! TO.N,1_WBO_Ip*
X60235000Y31875000D03*
G04 #@! TO.N,5_WBO_Rtrim*
X59235000Y31875000D03*
D20*
G04 #@! TO.N,GND*
X70085000Y58850000D03*
X70085000Y58850000D03*
D21*
X65745000Y58850000D03*
D22*
X59785000Y58850000D03*
D23*
X70510000Y45175000D03*
X56760000Y45175000D03*
D24*
X66260000Y31500000D03*
D25*
X57110000Y31500000D03*
D19*
G04 #@! TO.N,+5VA*
X67885000Y58466200D03*
G04 #@! TO.N,unconnected-(M5-CAN_VIO-PadW2)*
X66885000Y58466200D03*
G04 #@! TO.N,CAN-*
X63589000Y58466200D03*
G04 #@! TO.N,CAN+*
X64605000Y58466200D03*
G04 #@! TO.N,unconnected-(M5-VDDA-PadW9)*
X68885000Y58466200D03*
G04 #@! TD*
D26*
G04 #@! TO.N,GND*
G04 #@! TO.C,M8*
X73305000Y45650000D03*
D27*
X73805000Y43550000D03*
D28*
X78205000Y53350000D03*
X80405000Y43550000D03*
D29*
X85005000Y53350000D03*
D30*
X86105000Y43550000D03*
D31*
X86905000Y48450000D03*
D32*
G04 #@! TO.N,unconnected-(M8-MOSI-PadN1)*
X74305000Y53150000D03*
D33*
G04 #@! TO.N,unconnected-(M8-12V_IN-PadN2)*
X82305000Y52950000D03*
G04 #@! TO.N,Net-(F843-Pad2)*
X75105000Y43950000D03*
G04 #@! TO.N,unconnected-(M8-OUT--PadS2)*
X76305000Y43950000D03*
G04 #@! TO.N,unconnected-(M8-OUT+-PadS3)*
X84505000Y43950000D03*
D32*
G04 #@! TO.N,DC1_DIS_W1*
X73505000Y53150000D03*
G04 #@! TO.N,/DC1_PWM*
X73505000Y52350000D03*
G04 #@! TO.N,unconnected-(M8-SCLK-PadW3)*
X73505000Y51550000D03*
G04 #@! TO.N,/DC1_DIR*
X73505000Y50750000D03*
G04 #@! TO.N,+3.3V*
X73505000Y49950000D03*
G04 #@! TO.N,unconnected-(M8-MISO-PadW6)*
X73505000Y49150000D03*
G04 #@! TO.N,unconnected-(M8-~CS-PadW7)*
X73505000Y48350000D03*
G04 #@! TD*
D13*
G04 #@! TO.N,OUT_INJ4*
G04 #@! TO.C,G11*
X93980000Y77635000D03*
X93980000Y75095000D03*
X93980000Y72555000D03*
X96520000Y77635000D03*
X96520000Y75095000D03*
X96520000Y72555000D03*
X99060000Y77635000D03*
X99060000Y75095000D03*
X99060000Y72555000D03*
G04 #@! TD*
D32*
G04 #@! TO.N,/VR_DISCRETE_THR*
G04 #@! TO.C,M3*
X43423000Y58503000D03*
G04 #@! TO.N,/VR_DISCRETE_A*
X44623000Y58503000D03*
G04 #@! TO.N,/VR_DISCRETE*
X42223000Y58503000D03*
G04 #@! TO.N,+5VA*
X41023000Y58503000D03*
D34*
G04 #@! TO.N,GND*
X43690500Y43853000D03*
D35*
X49740500Y43853000D03*
D36*
X40723000Y50865500D03*
D37*
X50173000Y51278000D03*
D38*
X47710500Y58703000D03*
D32*
G04 #@! TO.N,VR_DISCRETE-*
X47483000Y44078000D03*
G04 #@! TO.N,VR_DISCRETE+*
X48483000Y44078000D03*
G04 #@! TD*
D15*
G04 #@! TO.N,/VBAT*
G04 #@! TO.C,M1*
X136699997Y92594999D03*
G04 #@! TO.N,unconnected-(M1-V12-PadE2)*
X130300000Y92594999D03*
G04 #@! TO.N,/VIGN*
X128399997Y92594999D03*
G04 #@! TO.N,+5V*
X124099997Y92594999D03*
D32*
G04 #@! TO.N,/PWR_EN*
X121700000Y92145000D03*
G04 #@! TO.N,Net-(M1-PG_5VP)*
X120699999Y92145000D03*
D39*
G04 #@! TO.N,GND*
X132849997Y108744995D03*
D40*
X124349999Y108744995D03*
D41*
X117249997Y108744995D03*
D42*
X117199997Y100344997D03*
D43*
X137799997Y99544996D03*
D15*
X117849997Y92594999D03*
D41*
X137749997Y91944998D03*
D44*
X133549999Y91944998D03*
D45*
X126199997Y91944998D03*
D46*
X122700000Y91944998D03*
D47*
X119399999Y91944998D03*
D15*
G04 #@! TO.N,+12V_PERM*
X137149999Y108094996D03*
G04 #@! TO.N,/IN_VIGN*
X135300000Y108094996D03*
G04 #@! TO.N,+12V_RAW*
X130349997Y108094996D03*
G04 #@! TO.N,+5VP*
X118299999Y108094996D03*
G04 #@! TD*
D32*
G04 #@! TO.N,unconnected-(M4-NC-PadE1)*
G04 #@! TO.C,M4*
X32947000Y58421000D03*
G04 #@! TO.N,unconnected-(M4-NC-PadE2)*
X34147000Y58421000D03*
G04 #@! TO.N,/VR_MAX9924*
X31747000Y58421000D03*
G04 #@! TO.N,+5VA*
X30547000Y58421000D03*
D34*
G04 #@! TO.N,GND*
X33214500Y43771000D03*
D35*
X39264500Y43771000D03*
D36*
X30247000Y50783500D03*
D37*
X39697000Y51196000D03*
D38*
X37234500Y58621000D03*
D32*
G04 #@! TO.N,VR_MAX9924-*
X37007000Y43996000D03*
G04 #@! TO.N,VR_MAX9924+*
X38007000Y43996000D03*
G04 #@! TD*
D13*
G04 #@! TO.N,OUT_IGN5*
G04 #@! TO.C,G6*
X148890000Y62175000D03*
X148890000Y59635000D03*
X148890000Y57095000D03*
X151430000Y62175000D03*
X151430000Y59635000D03*
X151430000Y57095000D03*
X153970000Y62175000D03*
X153970000Y59635000D03*
X153970000Y57095000D03*
G04 #@! TD*
G04 #@! TO.N,OUT_INJ8*
G04 #@! TO.C,G15*
X117330000Y34045000D03*
X117330000Y31505000D03*
X117330000Y28965000D03*
X119870000Y34045000D03*
X119870000Y31505000D03*
X119870000Y28965000D03*
X122410000Y34045000D03*
X122410000Y31505000D03*
X122410000Y28965000D03*
G04 #@! TD*
G04 #@! TO.N,OUT_INJ3*
G04 #@! TO.C,G10*
X94130000Y62885000D03*
X94130000Y60345000D03*
X94130000Y57805000D03*
X96670000Y62885000D03*
X96670000Y60345000D03*
X96670000Y57805000D03*
X99210000Y62885000D03*
X99210000Y60345000D03*
X99210000Y57805000D03*
G04 #@! TD*
D18*
G04 #@! TO.N,Net-(M1-PG_5VP)*
G04 #@! TO.C,R846*
X111855000Y101355000D03*
G04 #@! TO.N,/PG_5VP*
X108045000Y101355000D03*
G04 #@! TD*
D13*
G04 #@! TO.N,OUT_INJ6*
G04 #@! TO.C,G13*
X117470000Y62545000D03*
X117470000Y60005000D03*
X117470000Y57465000D03*
X120010000Y62545000D03*
X120010000Y60005000D03*
X120010000Y57465000D03*
X122550000Y62545000D03*
X122550000Y60005000D03*
X122550000Y57465000D03*
G04 #@! TD*
G04 #@! TO.N,OUT_INJ1*
G04 #@! TO.C,G8*
X94630000Y34085000D03*
X94630000Y31545000D03*
X94630000Y29005000D03*
X97170000Y34085000D03*
X97170000Y31545000D03*
X97170000Y29005000D03*
X99710000Y34085000D03*
X99710000Y31545000D03*
X99710000Y29005000D03*
G04 #@! TD*
D18*
G04 #@! TO.N,+12V_PERM*
G04 #@! TO.C,F1*
X142960000Y94355000D03*
X142960000Y99255000D03*
G04 #@! TD*
D32*
G04 #@! TO.N,+5VA*
G04 #@! TO.C,M6*
X74879990Y74595010D03*
G04 #@! TO.N,unconnected-(M6-GNDA-PadE2)*
X74880000Y78895010D03*
G04 #@! TO.N,unconnected-(M6-I2C_SCL_(PB10)-PadE3)*
X74880000Y79695000D03*
G04 #@! TO.N,unconnected-(M6-I2C_SDA_(PB11)-PadE4)*
X74880000Y80495010D03*
G04 #@! TO.N,/VIGN*
X74880000Y81295010D03*
G04 #@! TO.N,Net-(M6-SPI2_CS_{slash}_CAN2_RX_(PB12))*
X74880000Y82095010D03*
G04 #@! TO.N,Net-(M6-SPI2_SCK_{slash}_CAN2_TX_(PB13))*
X74880000Y82895010D03*
G04 #@! TO.N,DC1_DIS_W1*
X74880000Y83695010D03*
G04 #@! TO.N,/DC2_DIR*
X74880000Y84495010D03*
G04 #@! TO.N,/INJ8*
X74880000Y85295010D03*
G04 #@! TO.N,/INJ7*
X74880000Y86095010D03*
G04 #@! TO.N,/INJ6*
X74880000Y86895010D03*
G04 #@! TO.N,/INJ5*
X74880000Y87695010D03*
G04 #@! TO.N,/INJ4*
X74880000Y88495010D03*
G04 #@! TO.N,/INJ3*
X74880000Y89295010D03*
G04 #@! TO.N,/INJ2*
X74879990Y90095000D03*
G04 #@! TO.N,/INJ1*
X74880000Y90895010D03*
G04 #@! TO.N,/LS3*
X74880000Y92295010D03*
G04 #@! TO.N,/LS2*
X74880000Y93095000D03*
G04 #@! TO.N,/DC1_PWM*
X74880000Y93895000D03*
G04 #@! TO.N,/DC1_DIR*
X74880000Y94695000D03*
G04 #@! TO.N,/DC2_PWM*
X74880000Y95495000D03*
G04 #@! TO.N,/VR_DISCRETE_THR*
X74880000Y96295010D03*
D48*
G04 #@! TO.N,GND*
X41279990Y101145000D03*
D49*
X41279990Y98095010D03*
D48*
X41279990Y95045000D03*
D50*
X41279990Y90595010D03*
D51*
X41279990Y76945010D03*
D52*
X41279990Y68945010D03*
D53*
X43080000Y67895000D03*
D54*
X45179990Y103695000D03*
D55*
X51229990Y103695000D03*
D56*
X54729990Y103695000D03*
D53*
X64479990Y103695000D03*
D54*
X71979990Y67895000D03*
D57*
X75080000Y100295020D03*
D49*
X75080000Y91595000D03*
D58*
X75080000Y76745000D03*
D59*
X75080000Y70945000D03*
D32*
G04 #@! TO.N,P_VBUS*
X74480000Y103495010D03*
G04 #@! TO.N,P_USB-*
X73680000Y103495010D03*
G04 #@! TO.N,P_USB+*
X72880000Y103495010D03*
G04 #@! TO.N,/DC2_DIS*
X72079990Y103495010D03*
G04 #@! TO.N,unconnected-(M6-SWDIO_(PA13)-PadN5)*
X71280000Y103495010D03*
G04 #@! TO.N,unconnected-(M6-SWCLK_(PA14)-PadN6)*
X70480000Y103495010D03*
G04 #@! TO.N,unconnected-(M6-nReset-PadN7)*
X69680000Y103495010D03*
G04 #@! TO.N,unconnected-(M6-SWO_(PB3)-PadN8)*
X68879990Y103495010D03*
G04 #@! TO.N,/EGT/SPI_CS*
X68080000Y103495000D03*
G04 #@! TO.N,/SCK3*
X67280000Y103495000D03*
G04 #@! TO.N,/MISO3*
X66480000Y103495000D03*
G04 #@! TO.N,/PG_5VP*
X65680000Y103495000D03*
G04 #@! TO.N,UART_TX*
X63279990Y103495000D03*
G04 #@! TO.N,UART_RX*
X62479990Y103495000D03*
G04 #@! TO.N,Net-(M6-LED_GREEN)*
X61680000Y103495010D03*
G04 #@! TO.N,unconnected-(M6-LED_YELLOW-PadN14b)*
X60879990Y103495010D03*
G04 #@! TO.N,+3.3VA*
X60079990Y103495010D03*
G04 #@! TO.N,unconnected-(M6-BOOT0-PadN16)*
X59279990Y103495010D03*
G04 #@! TO.N,/VBAT*
X58479990Y103495010D03*
G04 #@! TO.N,/VR_DISCRETE*
X57679990Y103495000D03*
G04 #@! TO.N,/VR_MAX9924*
X56879990Y103495000D03*
G04 #@! TO.N,/PWR_EN*
X52579990Y103495000D03*
G04 #@! TO.N,+3.3V*
X49879990Y103495000D03*
G04 #@! TO.N,+5V*
X48880000Y103495000D03*
G04 #@! TO.N,unconnected-(M6-V33-PadN23)*
X41479990Y103495000D03*
G04 #@! TO.N,IN_BUTTON3*
X68280010Y68095000D03*
G04 #@! TO.N,IN_HALL3*
X67080000Y68095000D03*
G04 #@! TO.N,IN_HALL2*
X65880000Y68095000D03*
G04 #@! TO.N,IN_HALL1*
X64680000Y68095000D03*
G04 #@! TO.N,unconnected-(M6-VREF2-PadS5)*
X63480000Y68095000D03*
G04 #@! TO.N,/IN_VMAIN*
X62280000Y68095000D03*
G04 #@! TO.N,AUX3*
X61080000Y68095000D03*
G04 #@! TO.N,IN_PPS2*
X59880000Y68095000D03*
G04 #@! TO.N,IN_TPS2*
X58680000Y68095000D03*
G04 #@! TO.N,IN_AUX2*
X57480000Y68095000D03*
G04 #@! TO.N,IN_AUX1*
X56280000Y68095000D03*
G04 #@! TO.N,/INTERNAL_MAP*
X55080000Y68095000D03*
G04 #@! TO.N,/IN_MAP*
X53880000Y68095000D03*
G04 #@! TO.N,IN_BUTTON1*
X52680000Y68095000D03*
G04 #@! TO.N,/ADC3*
X51480000Y68095000D03*
G04 #@! TO.N,IN_BUTTON2*
X50280000Y68095000D03*
G04 #@! TO.N,IN_FLEX*
X49080000Y68095000D03*
G04 #@! TO.N,IN_TPS1*
X47879990Y68095000D03*
G04 #@! TO.N,IN_PPS1*
X46679990Y68095000D03*
G04 #@! TO.N,IN_IAT*
X45479990Y68095000D03*
G04 #@! TO.N,IN_CLT*
X44279990Y68095000D03*
G04 #@! TO.N,/VREF1*
X41879990Y68095000D03*
G04 #@! TO.N,GNDA*
X41479990Y70595010D03*
G04 #@! TO.N,+5VA*
X41479990Y71595010D03*
G04 #@! TO.N,/IGN8*
X41479990Y82295000D03*
G04 #@! TO.N,/IGN7*
X41479990Y83295010D03*
G04 #@! TO.N,/IGN6*
X41479990Y84295000D03*
G04 #@! TO.N,/IGN5*
X41479990Y85295000D03*
G04 #@! TO.N,/IGN4*
X41479990Y86295000D03*
G04 #@! TO.N,/IGN3*
X41479990Y87295000D03*
G04 #@! TO.N,/IGN2*
X41479990Y88295000D03*
G04 #@! TO.N,/IGN1*
X41479990Y89295000D03*
G04 #@! TO.N,CAN+*
X41479990Y91895000D03*
G04 #@! TO.N,CAN-*
X41479990Y92695000D03*
G04 #@! TO.N,unconnected-(M6-V33_REF-PadW13)*
X41479990Y97395010D03*
G04 #@! TO.N,unconnected-(M6-V5A_SWITCHABLE-PadW14)*
X41479990Y98795000D03*
G04 #@! TD*
D13*
G04 #@! TO.N,OUT_INJ2*
G04 #@! TO.C,G9*
X94760000Y49635000D03*
X94760000Y47095000D03*
X94760000Y44555000D03*
X97300000Y49635000D03*
X97300000Y47095000D03*
X97300000Y44555000D03*
X99840000Y49635000D03*
X99840000Y47095000D03*
X99840000Y44555000D03*
G04 #@! TD*
D32*
G04 #@! TO.N,+5VA*
G04 #@! TO.C,M2*
X26409002Y58386000D03*
D60*
G04 #@! TO.N,GND*
X28384002Y49486000D03*
D61*
X25809002Y54036000D03*
X28909002Y54036000D03*
D32*
X27359002Y58386000D03*
G04 #@! TO.N,/IN_KNOCK*
X28309000Y58386000D03*
G04 #@! TO.N,IN_KNOCK_RAW*
X27309002Y49686000D03*
G04 #@! TO.N,/VREF1*
X26409002Y49686000D03*
G04 #@! TD*
D13*
G04 #@! TO.N,OUT_IGN4*
G04 #@! TO.C,G5*
X127230000Y76245000D03*
X127230000Y73705000D03*
X127230000Y71165000D03*
X129770000Y76245000D03*
X129770000Y73705000D03*
X129770000Y71165000D03*
X132310000Y76245000D03*
X132310000Y73705000D03*
X132310000Y71165000D03*
G04 #@! TD*
G04 #@! TO.N,OUT_IGN3*
G04 #@! TO.C,G4*
X148990000Y49215000D03*
X148990000Y46675000D03*
X148990000Y44135000D03*
X151530000Y49215000D03*
X151530000Y46675000D03*
X151530000Y44135000D03*
X154070000Y49215000D03*
X154070000Y46675000D03*
X154070000Y44135000D03*
G04 #@! TD*
G04 #@! TO.N,OUT_IGN6*
G04 #@! TO.C,G7*
X127250000Y33685000D03*
X127250000Y31145000D03*
X127250000Y28605000D03*
X129790000Y33685000D03*
X129790000Y31145000D03*
X129790000Y28605000D03*
X132330000Y33685000D03*
X132330000Y31145000D03*
X132330000Y28605000D03*
G04 #@! TD*
G04 #@! TO.N,OUT_INJ7*
G04 #@! TO.C,G14*
X117750000Y49715000D03*
X117750000Y47175000D03*
X117750000Y44635000D03*
X120290000Y49715000D03*
X120290000Y47175000D03*
X120290000Y44635000D03*
X122830000Y49715000D03*
X122830000Y47175000D03*
X122830000Y44635000D03*
G04 #@! TD*
D62*
G04 #@! TO.N,+5VA*
G04 #@! TO.C,M7*
X82276998Y56102002D03*
G04 #@! TO.N,+3.3V*
X81401996Y56627002D03*
G04 #@! TO.N,Net-(M6-SPI2_SCK_{slash}_CAN2_TX_(PB13))*
X82577000Y57377000D03*
G04 #@! TO.N,Net-(M6-SPI2_CS_{slash}_CAN2_RX_(PB12))*
X82501997Y60927001D03*
G04 #@! TD*
G04 #@! TO.N,/INJ8*
G04 #@! TO.C,M9*
X84638393Y90994995D03*
G04 #@! TO.N,/INJ7*
X85063401Y92830005D03*
G04 #@! TO.N,/INJ6*
X85613398Y90779997D03*
G04 #@! TO.N,/INJ5*
X86488357Y90994992D03*
G04 #@! TO.N,/INJ4*
X87338380Y91069999D03*
G04 #@! TO.N,/INJ3*
X87663396Y92830005D03*
G04 #@! TO.N,/INJ2*
X88963363Y91520005D03*
G04 #@! TO.N,/INJ1*
X89613380Y92830005D03*
G04 #@! TO.N,+5V*
X82438377Y86904990D03*
G04 #@! TO.N,+3.3V*
X82738379Y90979996D03*
G04 #@! TD*
D13*
G04 #@! TO.N,OUT_IGN2*
G04 #@! TO.C,G3*
X148840000Y33605000D03*
X148840000Y31065000D03*
X148840000Y28525000D03*
X151380000Y33605000D03*
X151380000Y31065000D03*
X151380000Y28525000D03*
X153920000Y33605000D03*
X153920000Y31065000D03*
X153920000Y28525000D03*
G04 #@! TD*
G04 #@! TO.N,OUT_IGN7*
G04 #@! TO.C,G1*
X132030000Y62405000D03*
X129490000Y62405000D03*
X126950000Y62405000D03*
X132030000Y59865000D03*
X129490000Y59865000D03*
X126950000Y59865000D03*
X132030000Y57325000D03*
X129490000Y57325000D03*
X126950000Y57325000D03*
G04 #@! TD*
G04 #@! TO.N,OUT_IGN1*
G04 #@! TO.C,G2*
X127010000Y49805000D03*
X127010000Y47265000D03*
X127010000Y44725000D03*
X129550000Y49805000D03*
X129550000Y47265000D03*
X129550000Y44725000D03*
X132090000Y49805000D03*
X132090000Y47265000D03*
X132090000Y44725000D03*
G04 #@! TD*
G04 #@! TO.N,OUT_INJ5*
G04 #@! TO.C,G12*
X117890000Y76805000D03*
X117890000Y74265000D03*
X117890000Y71725000D03*
X120430000Y76805000D03*
X120430000Y74265000D03*
X120430000Y71725000D03*
X122970000Y76805000D03*
X122970000Y74265000D03*
X122970000Y71725000D03*
G04 #@! TD*
D63*
G04 #@! TO.N,GND*
X95157000Y103384000D03*
X84898000Y102932000D03*
X98970000Y93226000D03*
X42012000Y27927000D03*
X47585000Y28219000D03*
X32393000Y101084000D03*
X83055000Y72797000D03*
X133740000Y79814000D03*
D64*
G04 #@! TO.N,+3.3VA*
X26497000Y44571000D03*
X28772000Y46257000D03*
X11611004Y33895000D03*
G04 #@! TO.N,OUT_LS1*
X79027000Y32685000D03*
D63*
G04 #@! TO.N,+12V_RAW*
X17990000Y91638000D03*
D64*
X88377000Y38015000D03*
G04 #@! TO.N,OUT_LS2*
X78483000Y35050000D03*
G04 #@! TO.N,P_USB-*
X75910000Y67169000D03*
D65*
X79365000Y89827000D03*
D66*
X53013000Y32362000D03*
X77838000Y77186000D03*
D65*
X78654000Y100361000D03*
D66*
G04 #@! TO.N,P_VBUS*
X53460871Y31522000D03*
D65*
X79054000Y99901859D03*
X78338000Y76895000D03*
X79882000Y90348000D03*
D64*
X76823000Y67264000D03*
D63*
G04 #@! TO.N,/PWR_EN*
X79420000Y103335000D03*
G04 #@! TO.N,/VBAT*
X78574831Y102875831D03*
D66*
G04 #@! TO.N,+5VA*
X70368913Y61445087D03*
D65*
X27435000Y59448000D03*
D64*
X51577000Y49701319D03*
D65*
X25950000Y69120000D03*
D64*
G04 #@! TO.N,/IN_KNOCK*
X32058000Y60405000D03*
G04 #@! TO.N,/VREF1*
X37192025Y67872025D03*
X34483000Y68049000D03*
D65*
G04 #@! TO.N,/VR_DISCRETE_THR*
X65762000Y60276000D03*
D63*
X79649525Y65476187D03*
D65*
X62496000Y60120000D03*
X85051091Y69526909D03*
G04 #@! TO.N,/VR_MAX9924*
X27691000Y79151000D03*
X27857000Y74600000D03*
D64*
G04 #@! TO.N,IN_BUTTON3*
X51577000Y53425053D03*
D66*
G04 #@! TO.N,/EGT/SPI_CS*
X9540000Y36398000D03*
D65*
G04 #@! TO.N,Net-(M6-LED_GREEN)*
X24228000Y78434000D03*
X16689000Y77784000D03*
D66*
G04 #@! TO.N,/INJ3*
X83120000Y95945000D03*
G04 #@! TO.N,/INJ2*
X83220000Y96345000D03*
G04 #@! TO.N,/INJ5*
X82870000Y95145000D03*
G04 #@! TO.N,/SCK3*
X9762000Y30845000D03*
D63*
G04 #@! TO.N,/PG_5VP*
X78390000Y101752002D03*
D66*
G04 #@! TO.N,/INJ1*
X83430000Y96759000D03*
G04 #@! TO.N,Net-(M6-SPI2_SCK_{slash}_CAN2_TX_(PB13))*
X86546000Y60422000D03*
X89429000Y62287000D03*
D65*
G04 #@! TO.N,/DC1_PWM*
X84222000Y74472000D03*
X87203000Y71333000D03*
D66*
G04 #@! TO.N,/DC2_DIR*
X34624000Y28178000D03*
D64*
X78079000Y67778000D03*
D66*
G04 #@! TO.N,/INJ4*
X83000000Y95545000D03*
G04 #@! TO.N,/DC2_PWM*
X81697000Y76970000D03*
X82572000Y79231000D03*
D64*
X72344000Y31608000D03*
D66*
G04 #@! TO.N,/MISO3*
X10340000Y34528314D03*
X8795000Y34172000D03*
D65*
G04 #@! TO.N,DC1_DIS_W1*
X88113000Y71022000D03*
X76702000Y75974000D03*
D63*
G04 #@! TO.N,+3.3V*
X86199000Y84040000D03*
X86424000Y80555000D03*
D65*
X80426855Y99267000D03*
D66*
X77657000Y62565000D03*
D64*
G04 #@! TO.N,/LS3*
X40710000Y69208000D03*
G04 #@! TO.N,/ADC3*
X40844571Y60905000D03*
D66*
G04 #@! TO.N,/INJ6*
X82620000Y94745000D03*
G04 #@! TO.N,Net-(M6-SPI2_CS_{slash}_CAN2_RX_(PB12))*
X84260000Y62685004D03*
X87002000Y63997000D03*
D67*
G04 #@! TO.N,/IN_VMAIN*
X66929000Y64977000D03*
D65*
X67134000Y66266000D03*
G04 #@! TO.N,P_USB+*
X78109343Y101168343D03*
D66*
X52605000Y32666000D03*
D65*
X78956000Y90252000D03*
D64*
X74894956Y66887636D03*
D66*
X77212000Y77224000D03*
D68*
G04 #@! TO.N,GND*
X119411500Y52033500D03*
X147862000Y80717000D03*
D67*
X105038500Y98060500D03*
X105533000Y98555000D03*
D66*
X41279990Y95045000D03*
D67*
X10836036Y86343036D03*
D68*
X153610000Y54999000D03*
D66*
X75080000Y100295020D03*
X41279990Y98095010D03*
D68*
X126630000Y78975000D03*
X124656000Y35865000D03*
D66*
X39697000Y51196000D03*
D67*
X85021000Y98982000D03*
D66*
X64479990Y103695000D03*
D67*
X72308000Y67345000D03*
D66*
X137799997Y99544996D03*
X70510000Y45175000D03*
D67*
X98385000Y104726000D03*
X89224000Y94229000D03*
D66*
X126199997Y91944998D03*
D67*
X86688000Y97360000D03*
D68*
X144970000Y80717000D03*
D66*
X73805000Y43550000D03*
X28909002Y54036000D03*
D68*
X147186000Y66180000D03*
X120737000Y35865000D03*
D67*
X11221000Y74120000D03*
D68*
X94859000Y64901000D03*
X119301000Y64704000D03*
D66*
X72806000Y35218000D03*
D68*
X150230500Y36154500D03*
X96281000Y79519000D03*
D66*
X122700000Y91944998D03*
X41279990Y90595010D03*
X56760000Y45175000D03*
D68*
X126482750Y36270250D03*
X97434000Y79519000D03*
D66*
X80405000Y43550000D03*
D68*
X124453000Y64095000D03*
D66*
X25809002Y54036000D03*
D68*
X145110000Y64104000D03*
D66*
X80949500Y42691500D03*
D68*
X126448500Y52393500D03*
D66*
X86905000Y48450000D03*
X73305000Y45650000D03*
D67*
X10921964Y88054036D03*
D66*
X86105000Y43550000D03*
D63*
X26956000Y24815000D03*
D66*
X78205000Y53350000D03*
X79185000Y34476000D03*
X75080000Y91595000D03*
X40864000Y69733000D03*
X51229990Y103695000D03*
D67*
X88182000Y99821000D03*
D68*
X119304500Y79300500D03*
D66*
X43080000Y67895000D03*
D68*
X96101250Y36661250D03*
X125137000Y78625000D03*
D66*
X119399999Y91944998D03*
X45179990Y103695000D03*
D67*
X16781500Y87955500D03*
D66*
X41279990Y68945010D03*
X41279990Y101145000D03*
X117199997Y100344997D03*
D68*
X152366000Y54999000D03*
X152175000Y35535000D03*
D67*
X88572699Y95776699D03*
D66*
X65745000Y58850000D03*
D68*
X120752000Y78625000D03*
X96749000Y64878000D03*
D67*
X13176999Y28655001D03*
D66*
X39674000Y72189000D03*
X124349999Y108744995D03*
D67*
X16651000Y34954000D03*
D68*
X120838000Y64095000D03*
D67*
X16936500Y86399500D03*
X69468000Y66889000D03*
D66*
X30247000Y50783500D03*
X72806000Y36317000D03*
X79265000Y36608000D03*
X133549999Y91944998D03*
D68*
X97998000Y51563000D03*
D66*
X62445000Y58850000D03*
X41279990Y76945010D03*
D67*
X76124000Y99693000D03*
D68*
X118897500Y36417500D03*
X96374500Y52070500D03*
D67*
X13731714Y75634286D03*
D66*
X66796000Y31500000D03*
X40723000Y50865500D03*
X75080000Y76745000D03*
X132849997Y108744995D03*
D68*
X124884000Y51595000D03*
X126106750Y64764250D03*
D66*
X137749997Y91944998D03*
D67*
X116474000Y100739000D03*
D66*
X47710500Y58703000D03*
D68*
X120896000Y51595000D03*
D66*
X54729990Y103695000D03*
D67*
X14257999Y29736001D03*
D68*
X97930000Y35950000D03*
D66*
X85005000Y53350000D03*
D67*
X80779000Y88490000D03*
D66*
X75080000Y70945000D03*
D63*
G04 #@! TO.N,Net-(Q841-G)*
X131080000Y53335000D03*
G04 #@! TO.N,Net-(Q842-G)*
X153264000Y38715000D03*
G04 #@! TO.N,Net-(Q843-G)*
X152860000Y52595000D03*
G04 #@! TO.N,Net-(Q844-G)*
X130925160Y78005000D03*
G04 #@! TO.N,Net-(Q845-G)*
X152640000Y65825000D03*
G04 #@! TO.N,Net-(Q846-G)*
X131050000Y37215000D03*
G04 #@! TO.N,+12V*
X93107000Y53200000D03*
D69*
X15161000Y57730000D03*
D70*
X93321000Y69789000D03*
D63*
X13066000Y51874000D03*
X78436000Y65575000D03*
D65*
X70071500Y64964500D03*
D70*
X88493000Y81598000D03*
D63*
X95633000Y41516000D03*
D64*
G04 #@! TO.N,+5VP*
X31795000Y43023000D03*
G04 #@! TO.N,IN_KNOCK_RAW*
X58984000Y26005000D03*
D63*
G04 #@! TO.N,VR_DISCRETE-*
X56955000Y28965000D03*
G04 #@! TO.N,VR_DISCRETE+*
X56693213Y30395215D03*
G04 #@! TO.N,VR_MAX9924+*
X57691000Y27855001D03*
G04 #@! TO.N,VR_MAX9924-*
X58512000Y26855000D03*
D66*
G04 #@! TO.N,IN_BUTTON2*
X11051000Y67316000D03*
X27175000Y65400000D03*
G04 #@! TO.N,GNDA*
X8062000Y66655000D03*
X54906000Y54803000D03*
G04 #@! TO.N,IN_HALL2*
X50321500Y34829500D03*
G04 #@! TO.N,UART_TX*
X22756000Y39418000D03*
G04 #@! TO.N,UART_RX*
X23500070Y39265070D03*
G04 #@! TO.N,IN_HALL3*
X51197000Y31280000D03*
G04 #@! TO.N,IN_BUTTON1*
X27249000Y64990000D03*
X10545000Y63838000D03*
D65*
G04 #@! TO.N,Net-(Q900-G)*
X98218000Y37092000D03*
G04 #@! TO.N,Net-(Q901-G)*
X98347000Y52911000D03*
G04 #@! TO.N,Net-(Q902-G)*
X97704000Y65970000D03*
D66*
G04 #@! TO.N,Net-(Q903-G)*
X98723000Y79615000D03*
D63*
G04 #@! TO.N,Net-(Q904-G)*
X121528279Y80888000D03*
G04 #@! TO.N,Net-(Q905-G)*
X121360000Y67865000D03*
D65*
G04 #@! TO.N,Net-(Q906-G)*
X121309000Y53222000D03*
G04 #@! TO.N,Net-(Q907-G)*
X120908000Y37220000D03*
D63*
G04 #@! TO.N,Net-(Q847-G)*
X130700000Y65925000D03*
G04 #@! TO.N,Net-(Q849-G)*
X152300000Y79955000D03*
G04 #@! TO.N,Net-(M9-OUT_IGN1)*
X101670000Y86259886D03*
G04 #@! TO.N,Net-(M9-OUT_IGN2)*
X99149998Y87434883D03*
G04 #@! TO.N,Net-(M9-OUT_IGN3)*
X96780000Y88559966D03*
G04 #@! TO.N,Net-(M9-OUT_IGN4)*
X95750000Y89309966D03*
G04 #@! TO.N,Net-(M9-OUT_IGN5)*
X102369743Y90079621D03*
G04 #@! TO.N,Net-(M9-OUT_IGN6)*
X100210000Y91345000D03*
G04 #@! TO.N,Net-(M9-OUT_IGN7)*
X97912000Y92549858D03*
G04 #@! TO.N,Net-(M9-OUT_IGN8)*
X96106391Y93299858D03*
G04 #@! TO.N,/IGN4*
X40425000Y96159000D03*
X34630000Y95966000D03*
G04 #@! TO.N,/IGN6*
X38053000Y98173000D03*
X32730000Y97704000D03*
G04 #@! TO.N,/IGN7*
X31920000Y96077000D03*
X39625000Y96766000D03*
D64*
G04 #@! TO.N,/LS2*
X72176000Y38690000D03*
D65*
G04 #@! TO.N,/INJ8*
X82302000Y93945000D03*
D64*
X79004459Y67764806D03*
G04 #@! TO.N,/INJ7*
X79923000Y67835000D03*
D65*
X82435000Y94345000D03*
D66*
G04 #@! TO.N,/CAN_L*
X49189000Y27584000D03*
X74339000Y54921000D03*
G04 #@! TO.N,/CAN_H*
X74167000Y54112000D03*
X50564000Y27708000D03*
G04 #@! TD*
D71*
G04 #@! TO.N,+12V*
X28648000Y7484000D02*
X28648000Y12822000D01*
X28851000Y7281000D02*
X28648000Y7484000D01*
D72*
X28851000Y5916000D02*
X28851000Y7281000D01*
X96041000Y1942000D02*
X32825000Y1942000D01*
X32063000Y2704000D02*
X28851000Y5916000D01*
X96969000Y2870000D02*
X96041000Y1942000D01*
X32825000Y1942000D02*
X32063000Y2704000D01*
X96773000Y10499000D02*
X96969000Y10303000D01*
X96969000Y10303000D02*
X96969000Y2870000D01*
X98688000Y12414000D02*
X96773000Y10499000D01*
X98688000Y12914000D02*
X98688000Y12414000D01*
D71*
X93837000Y69273000D02*
X93321000Y69789000D01*
X103161000Y69273000D02*
X93837000Y69273000D01*
D72*
X105848000Y66586000D02*
X103161000Y69273000D01*
X105848000Y53742000D02*
X105848000Y66586000D01*
D71*
X101938000Y55551000D02*
X101732000Y55345000D01*
X103747000Y53742000D02*
X101938000Y55551000D01*
X101732000Y55345000D02*
X92980010Y55345000D01*
X105848000Y53742000D02*
X103747000Y53742000D01*
D72*
X105975500Y47105745D02*
X105848000Y47233245D01*
X105975500Y38001500D02*
X105975500Y47105745D01*
X105975500Y38001500D02*
X102163000Y41814000D01*
X105848000Y47233245D02*
X105848000Y53742000D01*
X108676000Y35301000D02*
X105975500Y38001500D01*
X102163000Y41814000D02*
X97541010Y41814000D01*
X108676000Y32132000D02*
X108676000Y35301000D01*
X98688000Y12914000D02*
X98688000Y24703000D01*
X101247000Y24703000D02*
X108676000Y32132000D01*
X98731000Y12871000D02*
X98688000Y12914000D01*
X105919000Y12871000D02*
X98731000Y12871000D01*
X98688000Y24703000D02*
X101247000Y24703000D01*
X108758000Y10032000D02*
X105919000Y12871000D01*
D73*
G04 #@! TO.N,+3.3VA*
X26497000Y44571000D02*
X27086000Y44571000D01*
X27086000Y44571000D02*
X28772000Y46257000D01*
D74*
G04 #@! TO.N,OUT_LS1*
X72717000Y26375000D02*
X72717000Y21716000D01*
X72724000Y18878000D02*
X72468000Y18622000D01*
X79027000Y32685000D02*
X72717000Y26375000D01*
X72717000Y21716000D02*
X72724000Y21709000D01*
X72724000Y21709000D02*
X72724000Y18878000D01*
D71*
G04 #@! TO.N,+12V_RAW*
X148194688Y96415000D02*
X141570000Y96415000D01*
D75*
X130349997Y108094996D02*
X130349997Y109155656D01*
X111970964Y110395020D02*
X112555945Y110980001D01*
X17943000Y91591000D02*
X17990000Y91638000D01*
D71*
X149732000Y97952312D02*
X148194688Y96415000D01*
X132035284Y82388000D02*
X93733000Y82388000D01*
D76*
X85168000Y7492000D02*
X87587000Y7492000D01*
D73*
X88842010Y38015000D02*
X92641010Y41814000D01*
D75*
X128525652Y110980001D02*
X130349997Y109155656D01*
D76*
X91050000Y10955000D02*
X91050000Y24504000D01*
D71*
X90530010Y25023990D02*
X91050000Y24504000D01*
X139099997Y89452713D02*
X132035284Y82388000D01*
X149732000Y100093000D02*
X149732000Y97952312D01*
X91462000Y41814000D02*
X92641010Y41814000D01*
D75*
X17990000Y91638000D02*
X25398000Y99046000D01*
D71*
X90530010Y41565000D02*
X90530010Y40245010D01*
D75*
X34719944Y110192000D02*
X34922964Y110395020D01*
D71*
X144740000Y105085000D02*
X149732000Y100093000D01*
X93733000Y82388000D02*
X90530010Y79185010D01*
D77*
X138890000Y110935000D02*
X144740000Y105085000D01*
X130349997Y109155656D02*
X132129341Y110935000D01*
D71*
X90530010Y41565000D02*
X91213000Y41565000D01*
D75*
X34437102Y110192000D02*
X34719944Y110192000D01*
X25398000Y101152898D02*
X34437102Y110192000D01*
D71*
X91213000Y41565000D02*
X91462000Y41814000D01*
D73*
X88377000Y38015000D02*
X88842010Y38015000D01*
D75*
X25398000Y99046000D02*
X25398000Y101152898D01*
D71*
X90491000Y40206000D02*
X90530010Y40166990D01*
X90530010Y79185010D02*
X90530010Y41565000D01*
X139099997Y93944997D02*
X139099997Y89452713D01*
D77*
X132129341Y110935000D02*
X138890000Y110935000D01*
D76*
X82628000Y7492000D02*
X85168000Y7492000D01*
D71*
X141570000Y96415000D02*
X139099997Y93944997D01*
X90530010Y40166990D02*
X90530010Y25023990D01*
D76*
X87587000Y7492000D02*
X91050000Y10955000D01*
D75*
X112555945Y110980001D02*
X128525652Y110980001D01*
D71*
X90530010Y40245010D02*
X90491000Y40206000D01*
D75*
X34922964Y110395020D02*
X111970964Y110395020D01*
D74*
G04 #@! TO.N,OUT_LS2*
X71312000Y27879000D02*
X71312000Y17238000D01*
X78483000Y35050000D02*
X71312000Y27879000D01*
X71312000Y17238000D02*
X72468000Y16082000D01*
D78*
G04 #@! TO.N,/IN_VIGN*
X145980000Y98765000D02*
X147770000Y98765000D01*
D73*
X135305002Y108130002D02*
X135305002Y108719998D01*
D78*
X136240004Y109655000D02*
X138212233Y109655000D01*
X142188001Y102556999D02*
X145980000Y98765000D01*
X135300000Y108714996D02*
X136240004Y109655000D01*
X135300000Y108094996D02*
X135300000Y108714996D01*
D73*
X135305002Y108719998D02*
X136240004Y109655000D01*
D78*
X138212233Y109655000D02*
X142188001Y105679232D01*
X142188001Y105679232D02*
X142188001Y102556999D01*
D74*
G04 #@! TO.N,P_USB-*
X78305000Y100361000D02*
X78654000Y100361000D01*
X58837207Y24879000D02*
X61609000Y24879000D01*
X61609000Y24879000D02*
X64848000Y21640000D01*
X53013000Y30703207D02*
X58837207Y24879000D01*
X64848000Y21640000D02*
X64848000Y18622000D01*
X74255746Y104495020D02*
X75519980Y104495020D01*
X73680000Y103495010D02*
X73680000Y103919274D01*
X73680000Y103919274D02*
X74255746Y104495020D01*
X76160000Y102506000D02*
X78305000Y100361000D01*
X75519980Y104495020D02*
X76160000Y103855000D01*
X53013000Y32362000D02*
X53013000Y30703207D01*
X76160000Y103855000D02*
X76160000Y102506000D01*
G04 #@! TO.N,P_VBUS*
X75750000Y103695000D02*
X75750000Y101933000D01*
X66338000Y17132000D02*
X67388000Y16082000D01*
X53460871Y31522000D02*
X53460871Y30821022D01*
X66338000Y23839000D02*
X66338000Y17132000D01*
X75750000Y101933000D02*
X77781141Y99901859D01*
X74480000Y103919274D02*
X74655746Y104095020D01*
X64898000Y25279000D02*
X66338000Y23839000D01*
X53460871Y30821022D02*
X59002893Y25279000D01*
X59002893Y25279000D02*
X64898000Y25279000D01*
X75349980Y104095020D02*
X75750000Y103695000D01*
X74655746Y104095020D02*
X75349980Y104095020D01*
X77781141Y99901859D02*
X79054000Y99901859D01*
X74480000Y103495010D02*
X74480000Y103919274D01*
D73*
G04 #@! TO.N,/PWR_EN*
X55230010Y106845020D02*
X76629980Y106845020D01*
X79420000Y104055000D02*
X79420000Y103335000D01*
X52579990Y104195000D02*
X55230010Y106845020D01*
X52579990Y103495000D02*
X52579990Y104195000D01*
X76629980Y106845020D02*
X79420000Y104055000D01*
G04 #@! TO.N,/VBAT*
X76319980Y106145020D02*
X78574831Y103890169D01*
X60705736Y106145020D02*
X76319980Y106145020D01*
X78574831Y103890169D02*
X78574831Y102875831D01*
X58479990Y103919274D02*
X60705736Y106145020D01*
X58479990Y103495010D02*
X58479990Y103919274D01*
G04 #@! TO.N,/VIGN*
X122450000Y87335000D02*
X110340000Y87335000D01*
X128404999Y91569345D02*
X127710654Y90875000D01*
X84888010Y81295010D02*
X87700000Y84107000D01*
X127710654Y90875000D02*
X125990000Y90875000D01*
X125990000Y90875000D02*
X122450000Y87335000D01*
X107112000Y84107000D02*
X110340000Y87335000D01*
X110340000Y87335000D02*
X110100000Y87335000D01*
X74880000Y81295010D02*
X84888010Y81295010D01*
X128404999Y92630005D02*
X128404999Y91569345D01*
X87700000Y84107000D02*
X107112000Y84107000D01*
D79*
G04 #@! TO.N,+5V*
X124104999Y91569345D02*
X122980654Y90445000D01*
D73*
X95140000Y98485000D02*
X92920000Y98485000D01*
D79*
X124104999Y92630005D02*
X124104999Y91569345D01*
D73*
X92920000Y98485000D02*
X90469000Y100936000D01*
X90469000Y100936000D02*
X84064000Y100936000D01*
X84064000Y100936000D02*
X80587000Y97459000D01*
X80179000Y87414000D02*
X80688010Y86904990D01*
X80179000Y88738529D02*
X80179000Y87414000D01*
X95140000Y98865000D02*
X95140000Y98191741D01*
X80587000Y97459000D02*
X80587000Y89090000D01*
D75*
X96085685Y98485000D02*
X95140000Y98485000D01*
D71*
X121550654Y89015000D02*
X105555685Y89015000D01*
D73*
X85759980Y108245020D02*
X52820020Y108245020D01*
D75*
X105555685Y89015000D02*
X96085685Y98485000D01*
D71*
X122980654Y90445000D02*
X121550654Y89015000D01*
D73*
X80688010Y86904990D02*
X82438377Y86904990D01*
X48880000Y104305000D02*
X48880000Y103495000D01*
X52820020Y108245020D02*
X48880000Y104305000D01*
X80530471Y89090000D02*
X80179000Y88738529D01*
X80587000Y89090000D02*
X80530471Y89090000D01*
X95140000Y98865000D02*
X95140000Y98485000D01*
X95140000Y98865000D02*
X85759980Y108245020D01*
G04 #@! TO.N,+5VA*
X30547000Y58421000D02*
X30547000Y59559000D01*
X72870826Y63947000D02*
X79181000Y63947000D01*
X81111000Y72994000D02*
X79509990Y74595010D01*
X35811000Y67332051D02*
X28873949Y60395000D01*
X39847959Y71595010D02*
X35811000Y67558051D01*
X26681000Y59448000D02*
X27435000Y59448000D01*
X26409002Y59176002D02*
X26681000Y59448000D01*
X35811000Y67558051D02*
X35811000Y67332051D01*
X26409002Y59176002D02*
X26409002Y58386000D01*
X70368913Y61445087D02*
X72870826Y63947000D01*
X81111000Y65877000D02*
X81111000Y72994000D01*
D74*
X56212000Y54285000D02*
X51628319Y49701319D01*
D73*
X27628000Y60395000D02*
X26409002Y59176002D01*
X29897000Y60209000D02*
X27814000Y60209000D01*
X28873949Y60395000D02*
X27628000Y60395000D01*
X79181000Y63947000D02*
X81111000Y65877000D01*
D74*
X56212000Y59425000D02*
X56212000Y54285000D01*
X51628319Y49701319D02*
X51577000Y49701319D01*
D73*
X79509990Y74595010D02*
X74879990Y74595010D01*
X56212000Y59425000D02*
X41945000Y59425000D01*
X67885000Y58466200D02*
X67885000Y58961174D01*
X42044000Y59755000D02*
X42374000Y59425000D01*
X41945000Y59425000D02*
X41023000Y58503000D01*
X67885000Y58961174D02*
X67421174Y59425000D01*
X67421174Y59425000D02*
X56212000Y59425000D01*
X30547000Y59559000D02*
X30048000Y60058000D01*
X30351000Y59755000D02*
X42044000Y59755000D01*
X27814000Y60209000D02*
X27628000Y60395000D01*
X30048000Y60058000D02*
X30351000Y59755000D01*
X67885000Y58961174D02*
X70368913Y61445087D01*
X41479990Y71595010D02*
X39847959Y71595010D01*
X30048000Y60058000D02*
X29897000Y60209000D01*
G04 #@! TO.N,/VREF1*
X26083266Y48936000D02*
X25581185Y48936000D01*
X25227000Y49290185D02*
X25227000Y58993000D01*
X26409002Y49261736D02*
X26083266Y48936000D01*
X25581185Y48936000D02*
X25227000Y49290185D01*
X34283000Y68049000D02*
X34483000Y68049000D01*
X37744050Y67320000D02*
X37192025Y67872025D01*
X25227000Y58993000D02*
X34283000Y68049000D01*
X41879990Y67395010D02*
X41804980Y67320000D01*
X41804980Y67320000D02*
X37744050Y67320000D01*
X26409002Y49686000D02*
X26409002Y49261736D01*
X41879990Y68095000D02*
X41879990Y67395010D01*
G04 #@! TO.N,/PG_5VP*
X65680000Y103495000D02*
X65680000Y103919264D01*
X75969980Y105445020D02*
X77200000Y104215000D01*
X77200000Y102942002D02*
X78390000Y101752002D01*
X67205756Y105445020D02*
X75969980Y105445020D01*
X65680000Y103919264D02*
X67205756Y105445020D01*
X77200000Y104215000D02*
X77200000Y102942002D01*
D74*
G04 #@! TO.N,/MISO3*
X10077686Y34266000D02*
X8889000Y34266000D01*
X10340000Y34528314D02*
X10077686Y34266000D01*
X8889000Y34266000D02*
X8795000Y34172000D01*
D73*
G04 #@! TO.N,+3.3V*
X73080736Y49950000D02*
X72150000Y50880736D01*
X49879990Y104195000D02*
X53230010Y107545020D01*
X77657000Y62565000D02*
X78867000Y62565000D01*
X79497000Y84040000D02*
X77864000Y85673000D01*
X73080736Y49950000D02*
X72755000Y49624264D01*
X86199000Y84040000D02*
X79497000Y84040000D01*
X86424000Y70122000D02*
X86424000Y80555000D01*
X74311000Y38786000D02*
X74311000Y38298000D01*
X72150000Y50880736D02*
X72150000Y59964000D01*
X74311000Y38298000D02*
X73512000Y37499000D01*
X72755000Y49624264D02*
X72755000Y40342000D01*
X74751000Y62565000D02*
X77657000Y62565000D01*
X72755000Y40342000D02*
X74311000Y38786000D01*
X72150000Y59964000D02*
X74751000Y62565000D01*
X53230010Y107545020D02*
X78439980Y107545020D01*
X49879990Y103495000D02*
X49879990Y104195000D01*
X73512000Y37499000D02*
X73512000Y31039000D01*
X77864000Y85673000D02*
X77864000Y96704145D01*
X78867000Y62565000D02*
X86424000Y70122000D01*
X77864000Y96704145D02*
X80426855Y99267000D01*
X78439980Y107545020D02*
X80426855Y105558145D01*
X73505000Y49950000D02*
X73080736Y49950000D01*
X80426855Y105558145D02*
X80426855Y99267000D01*
D74*
G04 #@! TO.N,/ADC3*
X51480000Y68095000D02*
X44290000Y60905000D01*
X44290000Y60905000D02*
X40844571Y60905000D01*
G04 #@! TO.N,P_USB+*
X72880000Y103495010D02*
X72880000Y103919274D01*
X52605000Y30416000D02*
X58721000Y24300000D01*
X58721000Y24300000D02*
X61622314Y24300000D01*
X73855746Y104895020D02*
X75685666Y104895020D01*
X63636000Y17294000D02*
X64848000Y16082000D01*
X63636000Y22286314D02*
X63636000Y17294000D01*
X72880000Y103919274D02*
X73855746Y104895020D01*
X52605000Y32666000D02*
X52605000Y30416000D01*
X76600000Y103980686D02*
X76600000Y102677686D01*
X75685666Y104895020D02*
X76600000Y103980686D01*
X76600000Y102677686D02*
X78109343Y101168343D01*
X61622314Y24300000D02*
X63636000Y22286314D01*
D71*
G04 #@! TO.N,Net-(F843-Pad2)*
X88080010Y55345000D02*
X85915000Y55345000D01*
X85375000Y42250000D02*
X84420000Y41295000D01*
X84420000Y41295000D02*
X75260000Y41295000D01*
X88290000Y42756260D02*
X87783740Y42250000D01*
D75*
X82305000Y52950000D02*
X82305000Y53610000D01*
D71*
X87783740Y42250000D02*
X85375000Y42250000D01*
X88290000Y55135010D02*
X88290000Y42756260D01*
D75*
X75035000Y42935000D02*
X75035000Y43410000D01*
X75035000Y41520000D02*
X75035000Y42935000D01*
D71*
X85915000Y55345000D02*
X85220000Y54650000D01*
X88080010Y55345000D02*
X88290000Y55135010D01*
D75*
X82235000Y53610000D02*
X82760000Y54135000D01*
X82760000Y54135000D02*
X85560000Y54135000D01*
X75105000Y43005000D02*
X75035000Y42935000D01*
D71*
X75260000Y41295000D02*
X75035000Y41520000D01*
D75*
X75105000Y43950000D02*
X75105000Y43005000D01*
G04 #@! TO.N,+12V*
X97541010Y41814000D02*
X95931000Y41814000D01*
X97776610Y41814000D02*
X97541010Y41814000D01*
D80*
X19310000Y51219000D02*
X19310000Y22160000D01*
X23498000Y17972000D02*
X23498000Y17690019D01*
D75*
X95931000Y41814000D02*
X95633000Y41516000D01*
D80*
X15161000Y57730000D02*
X15161000Y55368000D01*
D76*
X111298000Y10032000D02*
X113838000Y10032000D01*
D80*
X19310000Y22160000D02*
X23498000Y17972000D01*
D75*
X13066000Y55635000D02*
X13066000Y51874000D01*
D76*
X108758000Y10032000D02*
X111298000Y10032000D01*
D80*
X15161000Y55368000D02*
X19310000Y51219000D01*
D75*
X15161000Y57730000D02*
X13066000Y55635000D01*
X92980010Y55345000D02*
X92980010Y53326990D01*
D80*
X24816019Y16372000D02*
X25098000Y16372000D01*
D75*
X92980010Y53326990D02*
X93107000Y53200000D01*
D76*
X106218000Y10032000D02*
X108758000Y10032000D01*
D80*
X23498000Y17690019D02*
X24816019Y16372000D01*
X25098000Y16372000D02*
X28648000Y12822000D01*
G04 #@! TO.N,12V_KEY*
X147770000Y93865000D02*
X142950000Y89045000D01*
D73*
X143610000Y32495000D02*
X142950000Y31835000D01*
D80*
X142950000Y89045000D02*
X142950000Y30705000D01*
X120201730Y10032000D02*
X123199365Y7034365D01*
X142950000Y30705000D02*
X142950000Y27705981D01*
X124441730Y5792000D02*
X123199365Y7034365D01*
X147630000Y23025981D02*
X147630000Y10113730D01*
X142950000Y31835000D02*
X142950000Y30705000D01*
X118918000Y10032000D02*
X120201730Y10032000D01*
X146191270Y8675000D02*
X143277804Y8675000D01*
X142950000Y27705981D02*
X147630000Y23025981D01*
D73*
X142950000Y31835000D02*
X142950000Y31545000D01*
D80*
X147630000Y10113730D02*
X146191270Y8675000D01*
X143277804Y8675000D02*
X140394804Y5792000D01*
X140394804Y5792000D02*
X124441730Y5792000D01*
G04 #@! TO.N,+12V_PERM*
X140320000Y20285534D02*
X145200000Y15405534D01*
X145200000Y15405534D02*
X145200000Y10945000D01*
D73*
X139710000Y106595655D02*
X140180000Y106125655D01*
D80*
X118110283Y11982000D02*
X116378000Y10249717D01*
X141250000Y88845000D02*
X141250000Y92645000D01*
D78*
X137149999Y108094996D02*
X138210659Y108094996D01*
D80*
X140870000Y88465000D02*
X141250000Y88845000D01*
X145200000Y10945000D02*
X142436534Y10945000D01*
X140320000Y29915000D02*
X140320000Y20285534D01*
X140870000Y30465000D02*
X140870000Y88465000D01*
X116378000Y10249717D02*
X116378000Y10032000D01*
X125663000Y7992000D02*
X121673000Y11982000D01*
X121673000Y11982000D02*
X118110283Y11982000D01*
D73*
X140180000Y106125655D02*
X140180000Y102035000D01*
D80*
X141250000Y92645000D02*
X142960000Y94355000D01*
X140870000Y30465000D02*
X140320000Y29915000D01*
X142436534Y10945000D02*
X139483534Y7992000D01*
D73*
X140180000Y102035000D02*
X142960000Y99255000D01*
D78*
X138210659Y108094996D02*
X139710000Y106595655D01*
D73*
X137155001Y108130002D02*
X138215661Y108130002D01*
D80*
X139483534Y7992000D02*
X125663000Y7992000D01*
D75*
G04 #@! TO.N,+5VP*
X118305001Y109194213D02*
X118305001Y108130002D01*
D74*
X75008000Y7492000D02*
X72468000Y7492000D01*
X69928000Y7492000D02*
X72468000Y7492000D01*
D75*
X25723000Y28646000D02*
X35216000Y19153000D01*
X52359497Y109128000D02*
X52426517Y109195020D01*
X39448000Y7492000D02*
X41988000Y7492000D01*
D74*
X80088000Y7492000D02*
X77548000Y7492000D01*
D75*
X35353000Y109128000D02*
X52359497Y109128000D01*
X41988000Y7492000D02*
X44528000Y7492000D01*
D74*
X59768000Y7492000D02*
X62308000Y7492000D01*
D81*
X29919998Y103694998D02*
X29919998Y65312344D01*
X29919998Y65312344D02*
X21114000Y56506346D01*
D75*
X52426517Y109195020D02*
X86153483Y109195020D01*
X25723000Y38639000D02*
X25723000Y28646000D01*
D81*
X25723000Y40836000D02*
X23529000Y43030000D01*
D75*
X117719213Y109780001D02*
X118305001Y109194213D01*
X112401000Y109128000D02*
X113053001Y109780001D01*
D73*
X31788000Y43030000D02*
X31795000Y43023000D01*
D75*
X113053001Y109780001D02*
X117719213Y109780001D01*
D81*
X23529000Y43030000D02*
X21114000Y43030000D01*
D75*
X47068000Y7492000D02*
X49608000Y7492000D01*
D74*
X62308000Y7492000D02*
X64848000Y7492000D01*
D81*
X21114000Y56506346D02*
X21114000Y43030000D01*
D75*
X32810000Y106585000D02*
X35353000Y109128000D01*
D73*
X21114000Y43030000D02*
X31788000Y43030000D01*
D75*
X35216000Y11724000D02*
X39448000Y7492000D01*
D74*
X77548000Y7492000D02*
X75008000Y7492000D01*
D75*
X44528000Y7492000D02*
X47068000Y7492000D01*
D81*
X25723000Y38639000D02*
X25723000Y40836000D01*
D75*
X86153483Y109195020D02*
X86220503Y109128000D01*
X49608000Y7492000D02*
X52148000Y7492000D01*
X86220503Y109128000D02*
X112401000Y109128000D01*
D81*
X32810000Y106585000D02*
X29919998Y103694998D01*
D75*
X57228000Y7492000D02*
X59768000Y7492000D01*
D74*
X67388000Y7492000D02*
X69928000Y7492000D01*
D75*
X52148000Y7492000D02*
X54688000Y7492000D01*
X57228000Y7492000D02*
X54688000Y7492000D01*
X35216000Y19153000D02*
X35216000Y11724000D01*
D74*
X64848000Y7492000D02*
X67388000Y7492000D01*
G04 #@! TO.N,IN_BUTTON2*
X11056000Y67316000D02*
X11051000Y67316000D01*
X12972000Y65400000D02*
X11056000Y67316000D01*
X27175000Y65400000D02*
X12972000Y65400000D01*
G04 #@! TO.N,IN_HALL2*
X61258000Y22410000D02*
X61258000Y17132000D01*
X61258000Y17132000D02*
X62308000Y16082000D01*
X60427000Y23241000D02*
X61258000Y22410000D01*
X58648629Y23241000D02*
X60427000Y23241000D01*
X50247000Y34755000D02*
X50247000Y31642629D01*
X50247000Y31642629D02*
X58648629Y23241000D01*
X50321500Y34829500D02*
X50247000Y34755000D01*
G04 #@! TO.N,IN_HALL3*
X51197000Y31280000D02*
X51511000Y30966000D01*
X62317000Y23039628D02*
X62317000Y18631000D01*
X51511000Y30966000D02*
X51511000Y30944314D01*
X51511000Y30944314D02*
X58625314Y23830000D01*
X58625314Y23830000D02*
X61526628Y23830000D01*
X62317000Y18631000D02*
X62308000Y18622000D01*
X61526628Y23830000D02*
X62317000Y23039628D01*
G04 #@! TO.N,IN_BUTTON1*
X10664000Y63719000D02*
X10545000Y63838000D01*
X10664000Y63639000D02*
X10664000Y63719000D01*
X27249000Y64990000D02*
X25898000Y63639000D01*
X25898000Y63639000D02*
X10664000Y63639000D01*
G04 #@! TD*
M02*
