G04 #@! TF.GenerationSoftware,KiCad,Pcbnew,8.0.8*
G04 #@! TF.CreationDate,2025-12-21T18:09:55-05:00*
G04 #@! TF.ProjectId,greenenergyecu,67726565-6e65-46e6-9572-67796563752e,d*
G04 #@! TF.SameCoordinates,PX2b953a0PY6943058*
G04 #@! TF.FileFunction,Legend,Top*
G04 #@! TF.FilePolarity,Positive*
%FSLAX46Y46*%
G04 Gerber Fmt 4.6, Leading zero omitted, Abs format (unit mm)*
G04 Created by KiCad (PCBNEW 8.0.8) date 2025-12-21 18:09:55*
%MOMM*%
%LPD*%
G01*
G04 APERTURE LIST*
%ADD10C,0.250000*%
%ADD11C,0.200000*%
%ADD12C,0.222250*%
%ADD13C,0.170000*%
%ADD14C,0.150000*%
%ADD15C,0.127000*%
%ADD16C,0.203200*%
%ADD17C,0.120000*%
%ADD18C,0.100000*%
%ADD19C,0.099060*%
%ADD20C,3.700000*%
%ADD21C,2.200000*%
%ADD22C,2.600000*%
%ADD23C,1.500000*%
G04 APERTURE END LIST*
D10*
X95841666Y18022762D02*
X94698809Y18022762D01*
X95270237Y18022762D02*
X95270237Y20022762D01*
X95270237Y20022762D02*
X95079761Y19737048D01*
X95079761Y19737048D02*
X94889285Y19546572D01*
X94889285Y19546572D02*
X94698809Y19451334D01*
X97079761Y20022762D02*
X97270238Y20022762D01*
X97270238Y20022762D02*
X97460714Y19927524D01*
X97460714Y19927524D02*
X97555952Y19832286D01*
X97555952Y19832286D02*
X97651190Y19641810D01*
X97651190Y19641810D02*
X97746428Y19260858D01*
X97746428Y19260858D02*
X97746428Y18784667D01*
X97746428Y18784667D02*
X97651190Y18403715D01*
X97651190Y18403715D02*
X97555952Y18213239D01*
X97555952Y18213239D02*
X97460714Y18118000D01*
X97460714Y18118000D02*
X97270238Y18022762D01*
X97270238Y18022762D02*
X97079761Y18022762D01*
X97079761Y18022762D02*
X96889285Y18118000D01*
X96889285Y18118000D02*
X96794047Y18213239D01*
X96794047Y18213239D02*
X96698809Y18403715D01*
X96698809Y18403715D02*
X96603571Y18784667D01*
X96603571Y18784667D02*
X96603571Y19260858D01*
X96603571Y19260858D02*
X96698809Y19641810D01*
X96698809Y19641810D02*
X96794047Y19832286D01*
X96794047Y19832286D02*
X96889285Y19927524D01*
X96889285Y19927524D02*
X97079761Y20022762D01*
X99460714Y20022762D02*
X99079761Y20022762D01*
X99079761Y20022762D02*
X98889285Y19927524D01*
X98889285Y19927524D02*
X98794047Y19832286D01*
X98794047Y19832286D02*
X98603571Y19546572D01*
X98603571Y19546572D02*
X98508333Y19165620D01*
X98508333Y19165620D02*
X98508333Y18403715D01*
X98508333Y18403715D02*
X98603571Y18213239D01*
X98603571Y18213239D02*
X98698809Y18118000D01*
X98698809Y18118000D02*
X98889285Y18022762D01*
X98889285Y18022762D02*
X99270238Y18022762D01*
X99270238Y18022762D02*
X99460714Y18118000D01*
X99460714Y18118000D02*
X99555952Y18213239D01*
X99555952Y18213239D02*
X99651190Y18403715D01*
X99651190Y18403715D02*
X99651190Y18879905D01*
X99651190Y18879905D02*
X99555952Y19070381D01*
X99555952Y19070381D02*
X99460714Y19165620D01*
X99460714Y19165620D02*
X99270238Y19260858D01*
X99270238Y19260858D02*
X98889285Y19260858D01*
X98889285Y19260858D02*
X98698809Y19165620D01*
X98698809Y19165620D02*
X98603571Y19070381D01*
X98603571Y19070381D02*
X98508333Y18879905D01*
X24530952Y21261096D02*
X24530952Y19927762D01*
X24054761Y22023000D02*
X23578571Y20594429D01*
X23578571Y20594429D02*
X24816666Y20594429D01*
X33516190Y21927762D02*
X32563809Y21927762D01*
X32563809Y21927762D02*
X32468571Y20975381D01*
X32468571Y20975381D02*
X32563809Y21070620D01*
X32563809Y21070620D02*
X32754285Y21165858D01*
X32754285Y21165858D02*
X33230476Y21165858D01*
X33230476Y21165858D02*
X33420952Y21070620D01*
X33420952Y21070620D02*
X33516190Y20975381D01*
X33516190Y20975381D02*
X33611428Y20784905D01*
X33611428Y20784905D02*
X33611428Y20308715D01*
X33611428Y20308715D02*
X33516190Y20118239D01*
X33516190Y20118239D02*
X33420952Y20023000D01*
X33420952Y20023000D02*
X33230476Y19927762D01*
X33230476Y19927762D02*
X32754285Y19927762D01*
X32754285Y19927762D02*
X32563809Y20023000D01*
X32563809Y20023000D02*
X32468571Y20118239D01*
X32468571Y14117286D02*
X32563809Y14212524D01*
X32563809Y14212524D02*
X32754285Y14307762D01*
X32754285Y14307762D02*
X33230476Y14307762D01*
X33230476Y14307762D02*
X33420952Y14212524D01*
X33420952Y14212524D02*
X33516190Y14117286D01*
X33516190Y14117286D02*
X33611428Y13926810D01*
X33611428Y13926810D02*
X33611428Y13736334D01*
X33611428Y13736334D02*
X33516190Y13450620D01*
X33516190Y13450620D02*
X32373333Y12307762D01*
X32373333Y12307762D02*
X33611428Y12307762D01*
X130240928Y7775002D02*
X130240928Y6917859D01*
X130240928Y7346430D02*
X128740928Y7346430D01*
X128740928Y7346430D02*
X128955214Y7203573D01*
X128955214Y7203573D02*
X129098071Y7060716D01*
X129098071Y7060716D02*
X129169500Y6917859D01*
X130240928Y9203573D02*
X130240928Y8346430D01*
X130240928Y8775001D02*
X128740928Y8775001D01*
X128740928Y8775001D02*
X128955214Y8632144D01*
X128955214Y8632144D02*
X129098071Y8489287D01*
X129098071Y8489287D02*
X129169500Y8346430D01*
X128740928Y9703572D02*
X128740928Y10703572D01*
X128740928Y10703572D02*
X130240928Y10060715D01*
X139130928Y21745002D02*
X139130928Y20887859D01*
X139130928Y21316430D02*
X137630928Y21316430D01*
X137630928Y21316430D02*
X137845214Y21173573D01*
X137845214Y21173573D02*
X137988071Y21030716D01*
X137988071Y21030716D02*
X138059500Y20887859D01*
X137773785Y22316430D02*
X137702357Y22387858D01*
X137702357Y22387858D02*
X137630928Y22530715D01*
X137630928Y22530715D02*
X137630928Y22887858D01*
X137630928Y22887858D02*
X137702357Y23030715D01*
X137702357Y23030715D02*
X137773785Y23102144D01*
X137773785Y23102144D02*
X137916642Y23173573D01*
X137916642Y23173573D02*
X138059500Y23173573D01*
X138059500Y23173573D02*
X138273785Y23102144D01*
X138273785Y23102144D02*
X139130928Y22245001D01*
X139130928Y22245001D02*
X139130928Y23173573D01*
X139130928Y24602144D02*
X139130928Y23745001D01*
X139130928Y24173572D02*
X137630928Y24173572D01*
X137630928Y24173572D02*
X137845214Y24030715D01*
X137845214Y24030715D02*
X137988071Y23887858D01*
X137988071Y23887858D02*
X138059500Y23745001D01*
D11*
X54082219Y4790477D02*
X54082219Y5457143D01*
X54082219Y5457143D02*
X55082219Y5028572D01*
X54082219Y6314286D02*
X54082219Y5838096D01*
X54082219Y5838096D02*
X54558409Y5790477D01*
X54558409Y5790477D02*
X54510790Y5838096D01*
X54510790Y5838096D02*
X54463171Y5933334D01*
X54463171Y5933334D02*
X54463171Y6171429D01*
X54463171Y6171429D02*
X54510790Y6266667D01*
X54510790Y6266667D02*
X54558409Y6314286D01*
X54558409Y6314286D02*
X54653647Y6361905D01*
X54653647Y6361905D02*
X54891742Y6361905D01*
X54891742Y6361905D02*
X54986980Y6314286D01*
X54986980Y6314286D02*
X55034600Y6266667D01*
X55034600Y6266667D02*
X55082219Y6171429D01*
X55082219Y6171429D02*
X55082219Y5933334D01*
X55082219Y5933334D02*
X55034600Y5838096D01*
X55034600Y5838096D02*
X54986980Y5790477D01*
X69322219Y5314286D02*
X69322219Y5123810D01*
X69322219Y5123810D02*
X69369838Y5028572D01*
X69369838Y5028572D02*
X69417457Y4980953D01*
X69417457Y4980953D02*
X69560314Y4885715D01*
X69560314Y4885715D02*
X69750790Y4838096D01*
X69750790Y4838096D02*
X70131742Y4838096D01*
X70131742Y4838096D02*
X70226980Y4885715D01*
X70226980Y4885715D02*
X70274600Y4933334D01*
X70274600Y4933334D02*
X70322219Y5028572D01*
X70322219Y5028572D02*
X70322219Y5219048D01*
X70322219Y5219048D02*
X70274600Y5314286D01*
X70274600Y5314286D02*
X70226980Y5361905D01*
X70226980Y5361905D02*
X70131742Y5409524D01*
X70131742Y5409524D02*
X69893647Y5409524D01*
X69893647Y5409524D02*
X69798409Y5361905D01*
X69798409Y5361905D02*
X69750790Y5314286D01*
X69750790Y5314286D02*
X69703171Y5219048D01*
X69703171Y5219048D02*
X69703171Y5028572D01*
X69703171Y5028572D02*
X69750790Y4933334D01*
X69750790Y4933334D02*
X69798409Y4885715D01*
X69798409Y4885715D02*
X69893647Y4838096D01*
X70322219Y5885715D02*
X70322219Y6076191D01*
X70322219Y6076191D02*
X70274600Y6171429D01*
X70274600Y6171429D02*
X70226980Y6219048D01*
X70226980Y6219048D02*
X70084123Y6314286D01*
X70084123Y6314286D02*
X69893647Y6361905D01*
X69893647Y6361905D02*
X69512695Y6361905D01*
X69512695Y6361905D02*
X69417457Y6314286D01*
X69417457Y6314286D02*
X69369838Y6266667D01*
X69369838Y6266667D02*
X69322219Y6171429D01*
X69322219Y6171429D02*
X69322219Y5980953D01*
X69322219Y5980953D02*
X69369838Y5885715D01*
X69369838Y5885715D02*
X69417457Y5838096D01*
X69417457Y5838096D02*
X69512695Y5790477D01*
X69512695Y5790477D02*
X69750790Y5790477D01*
X69750790Y5790477D02*
X69846028Y5838096D01*
X69846028Y5838096D02*
X69893647Y5885715D01*
X69893647Y5885715D02*
X69941266Y5980953D01*
X69941266Y5980953D02*
X69941266Y6171429D01*
X69941266Y6171429D02*
X69893647Y6266667D01*
X69893647Y6266667D02*
X69846028Y6314286D01*
X69846028Y6314286D02*
X69750790Y6361905D01*
D10*
X86761190Y16657286D02*
X86856428Y16752524D01*
X86856428Y16752524D02*
X87046904Y16847762D01*
X87046904Y16847762D02*
X87523095Y16847762D01*
X87523095Y16847762D02*
X87713571Y16752524D01*
X87713571Y16752524D02*
X87808809Y16657286D01*
X87808809Y16657286D02*
X87904047Y16466810D01*
X87904047Y16466810D02*
X87904047Y16276334D01*
X87904047Y16276334D02*
X87808809Y15990620D01*
X87808809Y15990620D02*
X86665952Y14847762D01*
X86665952Y14847762D02*
X87904047Y14847762D01*
X89713571Y16847762D02*
X88761190Y16847762D01*
X88761190Y16847762D02*
X88665952Y15895381D01*
X88665952Y15895381D02*
X88761190Y15990620D01*
X88761190Y15990620D02*
X88951666Y16085858D01*
X88951666Y16085858D02*
X89427857Y16085858D01*
X89427857Y16085858D02*
X89618333Y15990620D01*
X89618333Y15990620D02*
X89713571Y15895381D01*
X89713571Y15895381D02*
X89808809Y15704905D01*
X89808809Y15704905D02*
X89808809Y15228715D01*
X89808809Y15228715D02*
X89713571Y15038239D01*
X89713571Y15038239D02*
X89618333Y14943000D01*
X89618333Y14943000D02*
X89427857Y14847762D01*
X89427857Y14847762D02*
X88951666Y14847762D01*
X88951666Y14847762D02*
X88761190Y14943000D01*
X88761190Y14943000D02*
X88665952Y15038239D01*
X133415928Y5870002D02*
X133415928Y5012859D01*
X133415928Y5441430D02*
X131915928Y5441430D01*
X131915928Y5441430D02*
X132130214Y5298573D01*
X132130214Y5298573D02*
X132273071Y5155716D01*
X132273071Y5155716D02*
X132344500Y5012859D01*
X133415928Y7298573D02*
X133415928Y6441430D01*
X133415928Y6870001D02*
X131915928Y6870001D01*
X131915928Y6870001D02*
X132130214Y6727144D01*
X132130214Y6727144D02*
X132273071Y6584287D01*
X132273071Y6584287D02*
X132344500Y6441430D01*
X131915928Y8655715D02*
X131915928Y7941429D01*
X131915928Y7941429D02*
X132630214Y7870001D01*
X132630214Y7870001D02*
X132558785Y7941429D01*
X132558785Y7941429D02*
X132487357Y8084286D01*
X132487357Y8084286D02*
X132487357Y8441429D01*
X132487357Y8441429D02*
X132558785Y8584286D01*
X132558785Y8584286D02*
X132630214Y8655715D01*
X132630214Y8655715D02*
X132773071Y8727144D01*
X132773071Y8727144D02*
X133130214Y8727144D01*
X133130214Y8727144D02*
X133273071Y8655715D01*
X133273071Y8655715D02*
X133344500Y8584286D01*
X133344500Y8584286D02*
X133415928Y8441429D01*
X133415928Y8441429D02*
X133415928Y8084286D01*
X133415928Y8084286D02*
X133344500Y7941429D01*
X133344500Y7941429D02*
X133273071Y7870001D01*
X36278571Y16181096D02*
X36278571Y14847762D01*
X35802380Y16943000D02*
X35326190Y15514429D01*
X35326190Y15514429D02*
X36564285Y15514429D01*
X37135714Y16847762D02*
X38373809Y16847762D01*
X38373809Y16847762D02*
X37707142Y16085858D01*
X37707142Y16085858D02*
X37992857Y16085858D01*
X37992857Y16085858D02*
X38183333Y15990620D01*
X38183333Y15990620D02*
X38278571Y15895381D01*
X38278571Y15895381D02*
X38373809Y15704905D01*
X38373809Y15704905D02*
X38373809Y15228715D01*
X38373809Y15228715D02*
X38278571Y15038239D01*
X38278571Y15038239D02*
X38183333Y14943000D01*
X38183333Y14943000D02*
X37992857Y14847762D01*
X37992857Y14847762D02*
X37421428Y14847762D01*
X37421428Y14847762D02*
X37230952Y14943000D01*
X37230952Y14943000D02*
X37135714Y15038239D01*
D11*
X55082219Y20649524D02*
X55082219Y20078096D01*
X55082219Y20363810D02*
X54082219Y20363810D01*
X54082219Y20363810D02*
X54225076Y20268572D01*
X54225076Y20268572D02*
X54320314Y20173334D01*
X54320314Y20173334D02*
X54367933Y20078096D01*
X54510790Y21220953D02*
X54463171Y21125715D01*
X54463171Y21125715D02*
X54415552Y21078096D01*
X54415552Y21078096D02*
X54320314Y21030477D01*
X54320314Y21030477D02*
X54272695Y21030477D01*
X54272695Y21030477D02*
X54177457Y21078096D01*
X54177457Y21078096D02*
X54129838Y21125715D01*
X54129838Y21125715D02*
X54082219Y21220953D01*
X54082219Y21220953D02*
X54082219Y21411429D01*
X54082219Y21411429D02*
X54129838Y21506667D01*
X54129838Y21506667D02*
X54177457Y21554286D01*
X54177457Y21554286D02*
X54272695Y21601905D01*
X54272695Y21601905D02*
X54320314Y21601905D01*
X54320314Y21601905D02*
X54415552Y21554286D01*
X54415552Y21554286D02*
X54463171Y21506667D01*
X54463171Y21506667D02*
X54510790Y21411429D01*
X54510790Y21411429D02*
X54510790Y21220953D01*
X54510790Y21220953D02*
X54558409Y21125715D01*
X54558409Y21125715D02*
X54606028Y21078096D01*
X54606028Y21078096D02*
X54701266Y21030477D01*
X54701266Y21030477D02*
X54891742Y21030477D01*
X54891742Y21030477D02*
X54986980Y21078096D01*
X54986980Y21078096D02*
X55034600Y21125715D01*
X55034600Y21125715D02*
X55082219Y21220953D01*
X55082219Y21220953D02*
X55082219Y21411429D01*
X55082219Y21411429D02*
X55034600Y21506667D01*
X55034600Y21506667D02*
X54986980Y21554286D01*
X54986980Y21554286D02*
X54891742Y21601905D01*
X54891742Y21601905D02*
X54701266Y21601905D01*
X54701266Y21601905D02*
X54606028Y21554286D01*
X54606028Y21554286D02*
X54558409Y21506667D01*
X54558409Y21506667D02*
X54510790Y21411429D01*
D10*
X120606666Y9132762D02*
X120987618Y9132762D01*
X120987618Y9132762D02*
X121178095Y9228000D01*
X121178095Y9228000D02*
X121273333Y9323239D01*
X121273333Y9323239D02*
X121463809Y9608953D01*
X121463809Y9608953D02*
X121559047Y9989905D01*
X121559047Y9989905D02*
X121559047Y10751810D01*
X121559047Y10751810D02*
X121463809Y10942286D01*
X121463809Y10942286D02*
X121368571Y11037524D01*
X121368571Y11037524D02*
X121178095Y11132762D01*
X121178095Y11132762D02*
X120797142Y11132762D01*
X120797142Y11132762D02*
X120606666Y11037524D01*
X120606666Y11037524D02*
X120511428Y10942286D01*
X120511428Y10942286D02*
X120416190Y10751810D01*
X120416190Y10751810D02*
X120416190Y10275620D01*
X120416190Y10275620D02*
X120511428Y10085143D01*
X120511428Y10085143D02*
X120606666Y9989905D01*
X120606666Y9989905D02*
X120797142Y9894667D01*
X120797142Y9894667D02*
X121178095Y9894667D01*
X121178095Y9894667D02*
X121368571Y9989905D01*
X121368571Y9989905D02*
X121463809Y10085143D01*
X121463809Y10085143D02*
X121559047Y10275620D01*
X122225714Y11132762D02*
X123559047Y11132762D01*
X123559047Y11132762D02*
X122701904Y9132762D01*
X35326190Y19832286D02*
X35421428Y19927524D01*
X35421428Y19927524D02*
X35611904Y20022762D01*
X35611904Y20022762D02*
X36088095Y20022762D01*
X36088095Y20022762D02*
X36278571Y19927524D01*
X36278571Y19927524D02*
X36373809Y19832286D01*
X36373809Y19832286D02*
X36469047Y19641810D01*
X36469047Y19641810D02*
X36469047Y19451334D01*
X36469047Y19451334D02*
X36373809Y19165620D01*
X36373809Y19165620D02*
X35230952Y18022762D01*
X35230952Y18022762D02*
X36469047Y18022762D01*
X38183333Y19356096D02*
X38183333Y18022762D01*
X37707142Y20118000D02*
X37230952Y18689429D01*
X37230952Y18689429D02*
X38469047Y18689429D01*
X96476666Y14847762D02*
X96857618Y14847762D01*
X96857618Y14847762D02*
X97048095Y14943000D01*
X97048095Y14943000D02*
X97143333Y15038239D01*
X97143333Y15038239D02*
X97333809Y15323953D01*
X97333809Y15323953D02*
X97429047Y15704905D01*
X97429047Y15704905D02*
X97429047Y16466810D01*
X97429047Y16466810D02*
X97333809Y16657286D01*
X97333809Y16657286D02*
X97238571Y16752524D01*
X97238571Y16752524D02*
X97048095Y16847762D01*
X97048095Y16847762D02*
X96667142Y16847762D01*
X96667142Y16847762D02*
X96476666Y16752524D01*
X96476666Y16752524D02*
X96381428Y16657286D01*
X96381428Y16657286D02*
X96286190Y16466810D01*
X96286190Y16466810D02*
X96286190Y15990620D01*
X96286190Y15990620D02*
X96381428Y15800143D01*
X96381428Y15800143D02*
X96476666Y15704905D01*
X96476666Y15704905D02*
X96667142Y15609667D01*
X96667142Y15609667D02*
X97048095Y15609667D01*
X97048095Y15609667D02*
X97238571Y15704905D01*
X97238571Y15704905D02*
X97333809Y15800143D01*
X97333809Y15800143D02*
X97429047Y15990620D01*
X98571904Y15990620D02*
X98381428Y16085858D01*
X98381428Y16085858D02*
X98286190Y16181096D01*
X98286190Y16181096D02*
X98190952Y16371572D01*
X98190952Y16371572D02*
X98190952Y16466810D01*
X98190952Y16466810D02*
X98286190Y16657286D01*
X98286190Y16657286D02*
X98381428Y16752524D01*
X98381428Y16752524D02*
X98571904Y16847762D01*
X98571904Y16847762D02*
X98952857Y16847762D01*
X98952857Y16847762D02*
X99143333Y16752524D01*
X99143333Y16752524D02*
X99238571Y16657286D01*
X99238571Y16657286D02*
X99333809Y16466810D01*
X99333809Y16466810D02*
X99333809Y16371572D01*
X99333809Y16371572D02*
X99238571Y16181096D01*
X99238571Y16181096D02*
X99143333Y16085858D01*
X99143333Y16085858D02*
X98952857Y15990620D01*
X98952857Y15990620D02*
X98571904Y15990620D01*
X98571904Y15990620D02*
X98381428Y15895381D01*
X98381428Y15895381D02*
X98286190Y15800143D01*
X98286190Y15800143D02*
X98190952Y15609667D01*
X98190952Y15609667D02*
X98190952Y15228715D01*
X98190952Y15228715D02*
X98286190Y15038239D01*
X98286190Y15038239D02*
X98381428Y14943000D01*
X98381428Y14943000D02*
X98571904Y14847762D01*
X98571904Y14847762D02*
X98952857Y14847762D01*
X98952857Y14847762D02*
X99143333Y14943000D01*
X99143333Y14943000D02*
X99238571Y15038239D01*
X99238571Y15038239D02*
X99333809Y15228715D01*
X99333809Y15228715D02*
X99333809Y15609667D01*
X99333809Y15609667D02*
X99238571Y15800143D01*
X99238571Y15800143D02*
X99143333Y15895381D01*
X99143333Y15895381D02*
X98952857Y15990620D01*
X135955928Y7775002D02*
X135955928Y6917859D01*
X135955928Y7346430D02*
X134455928Y7346430D01*
X134455928Y7346430D02*
X134670214Y7203573D01*
X134670214Y7203573D02*
X134813071Y7060716D01*
X134813071Y7060716D02*
X134884500Y6917859D01*
X135955928Y9203573D02*
X135955928Y8346430D01*
X135955928Y8775001D02*
X134455928Y8775001D01*
X134455928Y8775001D02*
X134670214Y8632144D01*
X134670214Y8632144D02*
X134813071Y8489287D01*
X134813071Y8489287D02*
X134884500Y8346430D01*
X135098785Y10060715D02*
X135027357Y9917858D01*
X135027357Y9917858D02*
X134955928Y9846429D01*
X134955928Y9846429D02*
X134813071Y9775001D01*
X134813071Y9775001D02*
X134741642Y9775001D01*
X134741642Y9775001D02*
X134598785Y9846429D01*
X134598785Y9846429D02*
X134527357Y9917858D01*
X134527357Y9917858D02*
X134455928Y10060715D01*
X134455928Y10060715D02*
X134455928Y10346429D01*
X134455928Y10346429D02*
X134527357Y10489286D01*
X134527357Y10489286D02*
X134598785Y10560715D01*
X134598785Y10560715D02*
X134741642Y10632144D01*
X134741642Y10632144D02*
X134813071Y10632144D01*
X134813071Y10632144D02*
X134955928Y10560715D01*
X134955928Y10560715D02*
X135027357Y10489286D01*
X135027357Y10489286D02*
X135098785Y10346429D01*
X135098785Y10346429D02*
X135098785Y10060715D01*
X135098785Y10060715D02*
X135170214Y9917858D01*
X135170214Y9917858D02*
X135241642Y9846429D01*
X135241642Y9846429D02*
X135384500Y9775001D01*
X135384500Y9775001D02*
X135670214Y9775001D01*
X135670214Y9775001D02*
X135813071Y9846429D01*
X135813071Y9846429D02*
X135884500Y9917858D01*
X135884500Y9917858D02*
X135955928Y10060715D01*
X135955928Y10060715D02*
X135955928Y10346429D01*
X135955928Y10346429D02*
X135884500Y10489286D01*
X135884500Y10489286D02*
X135813071Y10560715D01*
X135813071Y10560715D02*
X135670214Y10632144D01*
X135670214Y10632144D02*
X135384500Y10632144D01*
X135384500Y10632144D02*
X135241642Y10560715D01*
X135241642Y10560715D02*
X135170214Y10489286D01*
X135170214Y10489286D02*
X135098785Y10346429D01*
X24721428Y12307762D02*
X23578571Y12307762D01*
X24149999Y12307762D02*
X24149999Y14307762D01*
X24149999Y14307762D02*
X23959523Y14022048D01*
X23959523Y14022048D02*
X23769047Y13831572D01*
X23769047Y13831572D02*
X23578571Y13736334D01*
X35707142Y7735620D02*
X35516666Y7830858D01*
X35516666Y7830858D02*
X35421428Y7926096D01*
X35421428Y7926096D02*
X35326190Y8116572D01*
X35326190Y8116572D02*
X35326190Y8211810D01*
X35326190Y8211810D02*
X35421428Y8402286D01*
X35421428Y8402286D02*
X35516666Y8497524D01*
X35516666Y8497524D02*
X35707142Y8592762D01*
X35707142Y8592762D02*
X36088095Y8592762D01*
X36088095Y8592762D02*
X36278571Y8497524D01*
X36278571Y8497524D02*
X36373809Y8402286D01*
X36373809Y8402286D02*
X36469047Y8211810D01*
X36469047Y8211810D02*
X36469047Y8116572D01*
X36469047Y8116572D02*
X36373809Y7926096D01*
X36373809Y7926096D02*
X36278571Y7830858D01*
X36278571Y7830858D02*
X36088095Y7735620D01*
X36088095Y7735620D02*
X35707142Y7735620D01*
X35707142Y7735620D02*
X35516666Y7640381D01*
X35516666Y7640381D02*
X35421428Y7545143D01*
X35421428Y7545143D02*
X35326190Y7354667D01*
X35326190Y7354667D02*
X35326190Y6973715D01*
X35326190Y6973715D02*
X35421428Y6783239D01*
X35421428Y6783239D02*
X35516666Y6688000D01*
X35516666Y6688000D02*
X35707142Y6592762D01*
X35707142Y6592762D02*
X36088095Y6592762D01*
X36088095Y6592762D02*
X36278571Y6688000D01*
X36278571Y6688000D02*
X36373809Y6783239D01*
X36373809Y6783239D02*
X36469047Y6973715D01*
X36469047Y6973715D02*
X36469047Y7354667D01*
X36469047Y7354667D02*
X36373809Y7545143D01*
X36373809Y7545143D02*
X36278571Y7640381D01*
X36278571Y7640381D02*
X36088095Y7735620D01*
X38373809Y6592762D02*
X37230952Y6592762D01*
X37802380Y6592762D02*
X37802380Y8592762D01*
X37802380Y8592762D02*
X37611904Y8307048D01*
X37611904Y8307048D02*
X37421428Y8116572D01*
X37421428Y8116572D02*
X37230952Y8021334D01*
X127065928Y21745002D02*
X127065928Y20887859D01*
X127065928Y21316430D02*
X125565928Y21316430D01*
X125565928Y21316430D02*
X125780214Y21173573D01*
X125780214Y21173573D02*
X125923071Y21030716D01*
X125923071Y21030716D02*
X125994500Y20887859D01*
X127065928Y23173573D02*
X127065928Y22316430D01*
X127065928Y22745001D02*
X125565928Y22745001D01*
X125565928Y22745001D02*
X125780214Y22602144D01*
X125780214Y22602144D02*
X125923071Y22459287D01*
X125923071Y22459287D02*
X125994500Y22316430D01*
X127065928Y23887858D02*
X127065928Y24173572D01*
X127065928Y24173572D02*
X126994500Y24316429D01*
X126994500Y24316429D02*
X126923071Y24387858D01*
X126923071Y24387858D02*
X126708785Y24530715D01*
X126708785Y24530715D02*
X126423071Y24602144D01*
X126423071Y24602144D02*
X125851642Y24602144D01*
X125851642Y24602144D02*
X125708785Y24530715D01*
X125708785Y24530715D02*
X125637357Y24459286D01*
X125637357Y24459286D02*
X125565928Y24316429D01*
X125565928Y24316429D02*
X125565928Y24030715D01*
X125565928Y24030715D02*
X125637357Y23887858D01*
X125637357Y23887858D02*
X125708785Y23816429D01*
X125708785Y23816429D02*
X125851642Y23745001D01*
X125851642Y23745001D02*
X126208785Y23745001D01*
X126208785Y23745001D02*
X126351642Y23816429D01*
X126351642Y23816429D02*
X126423071Y23887858D01*
X126423071Y23887858D02*
X126494500Y24030715D01*
X126494500Y24030715D02*
X126494500Y24316429D01*
X126494500Y24316429D02*
X126423071Y24459286D01*
X126423071Y24459286D02*
X126351642Y24530715D01*
X126351642Y24530715D02*
X126208785Y24602144D01*
X87713571Y10466096D02*
X87713571Y9132762D01*
X87237380Y11228000D02*
X86761190Y9799429D01*
X86761190Y9799429D02*
X87999285Y9799429D01*
X89618333Y10466096D02*
X89618333Y9132762D01*
X89142142Y11228000D02*
X88665952Y9799429D01*
X88665952Y9799429D02*
X89904047Y9799429D01*
X96667142Y7735620D02*
X96476666Y7830858D01*
X96476666Y7830858D02*
X96381428Y7926096D01*
X96381428Y7926096D02*
X96286190Y8116572D01*
X96286190Y8116572D02*
X96286190Y8211810D01*
X96286190Y8211810D02*
X96381428Y8402286D01*
X96381428Y8402286D02*
X96476666Y8497524D01*
X96476666Y8497524D02*
X96667142Y8592762D01*
X96667142Y8592762D02*
X97048095Y8592762D01*
X97048095Y8592762D02*
X97238571Y8497524D01*
X97238571Y8497524D02*
X97333809Y8402286D01*
X97333809Y8402286D02*
X97429047Y8211810D01*
X97429047Y8211810D02*
X97429047Y8116572D01*
X97429047Y8116572D02*
X97333809Y7926096D01*
X97333809Y7926096D02*
X97238571Y7830858D01*
X97238571Y7830858D02*
X97048095Y7735620D01*
X97048095Y7735620D02*
X96667142Y7735620D01*
X96667142Y7735620D02*
X96476666Y7640381D01*
X96476666Y7640381D02*
X96381428Y7545143D01*
X96381428Y7545143D02*
X96286190Y7354667D01*
X96286190Y7354667D02*
X96286190Y6973715D01*
X96286190Y6973715D02*
X96381428Y6783239D01*
X96381428Y6783239D02*
X96476666Y6688000D01*
X96476666Y6688000D02*
X96667142Y6592762D01*
X96667142Y6592762D02*
X97048095Y6592762D01*
X97048095Y6592762D02*
X97238571Y6688000D01*
X97238571Y6688000D02*
X97333809Y6783239D01*
X97333809Y6783239D02*
X97429047Y6973715D01*
X97429047Y6973715D02*
X97429047Y7354667D01*
X97429047Y7354667D02*
X97333809Y7545143D01*
X97333809Y7545143D02*
X97238571Y7640381D01*
X97238571Y7640381D02*
X97048095Y7735620D01*
X98190952Y8402286D02*
X98286190Y8497524D01*
X98286190Y8497524D02*
X98476666Y8592762D01*
X98476666Y8592762D02*
X98952857Y8592762D01*
X98952857Y8592762D02*
X99143333Y8497524D01*
X99143333Y8497524D02*
X99238571Y8402286D01*
X99238571Y8402286D02*
X99333809Y8211810D01*
X99333809Y8211810D02*
X99333809Y8021334D01*
X99333809Y8021334D02*
X99238571Y7735620D01*
X99238571Y7735620D02*
X98095714Y6592762D01*
X98095714Y6592762D02*
X99333809Y6592762D01*
X27928333Y16847762D02*
X29166428Y16847762D01*
X29166428Y16847762D02*
X28499761Y16085858D01*
X28499761Y16085858D02*
X28785476Y16085858D01*
X28785476Y16085858D02*
X28975952Y15990620D01*
X28975952Y15990620D02*
X29071190Y15895381D01*
X29071190Y15895381D02*
X29166428Y15704905D01*
X29166428Y15704905D02*
X29166428Y15228715D01*
X29166428Y15228715D02*
X29071190Y15038239D01*
X29071190Y15038239D02*
X28975952Y14943000D01*
X28975952Y14943000D02*
X28785476Y14847762D01*
X28785476Y14847762D02*
X28214047Y14847762D01*
X28214047Y14847762D02*
X28023571Y14943000D01*
X28023571Y14943000D02*
X27928333Y15038239D01*
X120797142Y7735620D02*
X120606666Y7830858D01*
X120606666Y7830858D02*
X120511428Y7926096D01*
X120511428Y7926096D02*
X120416190Y8116572D01*
X120416190Y8116572D02*
X120416190Y8211810D01*
X120416190Y8211810D02*
X120511428Y8402286D01*
X120511428Y8402286D02*
X120606666Y8497524D01*
X120606666Y8497524D02*
X120797142Y8592762D01*
X120797142Y8592762D02*
X121178095Y8592762D01*
X121178095Y8592762D02*
X121368571Y8497524D01*
X121368571Y8497524D02*
X121463809Y8402286D01*
X121463809Y8402286D02*
X121559047Y8211810D01*
X121559047Y8211810D02*
X121559047Y8116572D01*
X121559047Y8116572D02*
X121463809Y7926096D01*
X121463809Y7926096D02*
X121368571Y7830858D01*
X121368571Y7830858D02*
X121178095Y7735620D01*
X121178095Y7735620D02*
X120797142Y7735620D01*
X120797142Y7735620D02*
X120606666Y7640381D01*
X120606666Y7640381D02*
X120511428Y7545143D01*
X120511428Y7545143D02*
X120416190Y7354667D01*
X120416190Y7354667D02*
X120416190Y6973715D01*
X120416190Y6973715D02*
X120511428Y6783239D01*
X120511428Y6783239D02*
X120606666Y6688000D01*
X120606666Y6688000D02*
X120797142Y6592762D01*
X120797142Y6592762D02*
X121178095Y6592762D01*
X121178095Y6592762D02*
X121368571Y6688000D01*
X121368571Y6688000D02*
X121463809Y6783239D01*
X121463809Y6783239D02*
X121559047Y6973715D01*
X121559047Y6973715D02*
X121559047Y7354667D01*
X121559047Y7354667D02*
X121463809Y7545143D01*
X121463809Y7545143D02*
X121368571Y7640381D01*
X121368571Y7640381D02*
X121178095Y7735620D01*
X122511428Y6592762D02*
X122892380Y6592762D01*
X122892380Y6592762D02*
X123082857Y6688000D01*
X123082857Y6688000D02*
X123178095Y6783239D01*
X123178095Y6783239D02*
X123368571Y7068953D01*
X123368571Y7068953D02*
X123463809Y7449905D01*
X123463809Y7449905D02*
X123463809Y8211810D01*
X123463809Y8211810D02*
X123368571Y8402286D01*
X123368571Y8402286D02*
X123273333Y8497524D01*
X123273333Y8497524D02*
X123082857Y8592762D01*
X123082857Y8592762D02*
X122701904Y8592762D01*
X122701904Y8592762D02*
X122511428Y8497524D01*
X122511428Y8497524D02*
X122416190Y8402286D01*
X122416190Y8402286D02*
X122320952Y8211810D01*
X122320952Y8211810D02*
X122320952Y7735620D01*
X122320952Y7735620D02*
X122416190Y7545143D01*
X122416190Y7545143D02*
X122511428Y7449905D01*
X122511428Y7449905D02*
X122701904Y7354667D01*
X122701904Y7354667D02*
X123082857Y7354667D01*
X123082857Y7354667D02*
X123273333Y7449905D01*
X123273333Y7449905D02*
X123368571Y7545143D01*
X123368571Y7545143D02*
X123463809Y7735620D01*
X87713571Y8592762D02*
X87332618Y8592762D01*
X87332618Y8592762D02*
X87142142Y8497524D01*
X87142142Y8497524D02*
X87046904Y8402286D01*
X87046904Y8402286D02*
X86856428Y8116572D01*
X86856428Y8116572D02*
X86761190Y7735620D01*
X86761190Y7735620D02*
X86761190Y6973715D01*
X86761190Y6973715D02*
X86856428Y6783239D01*
X86856428Y6783239D02*
X86951666Y6688000D01*
X86951666Y6688000D02*
X87142142Y6592762D01*
X87142142Y6592762D02*
X87523095Y6592762D01*
X87523095Y6592762D02*
X87713571Y6688000D01*
X87713571Y6688000D02*
X87808809Y6783239D01*
X87808809Y6783239D02*
X87904047Y6973715D01*
X87904047Y6973715D02*
X87904047Y7449905D01*
X87904047Y7449905D02*
X87808809Y7640381D01*
X87808809Y7640381D02*
X87713571Y7735620D01*
X87713571Y7735620D02*
X87523095Y7830858D01*
X87523095Y7830858D02*
X87142142Y7830858D01*
X87142142Y7830858D02*
X86951666Y7735620D01*
X86951666Y7735620D02*
X86856428Y7640381D01*
X86856428Y7640381D02*
X86761190Y7449905D01*
X88570714Y8592762D02*
X89808809Y8592762D01*
X89808809Y8592762D02*
X89142142Y7830858D01*
X89142142Y7830858D02*
X89427857Y7830858D01*
X89427857Y7830858D02*
X89618333Y7735620D01*
X89618333Y7735620D02*
X89713571Y7640381D01*
X89713571Y7640381D02*
X89808809Y7449905D01*
X89808809Y7449905D02*
X89808809Y6973715D01*
X89808809Y6973715D02*
X89713571Y6783239D01*
X89713571Y6783239D02*
X89618333Y6688000D01*
X89618333Y6688000D02*
X89427857Y6592762D01*
X89427857Y6592762D02*
X88856428Y6592762D01*
X88856428Y6592762D02*
X88665952Y6688000D01*
X88665952Y6688000D02*
X88570714Y6783239D01*
X127065928Y5870002D02*
X127065928Y5012859D01*
X127065928Y5441430D02*
X125565928Y5441430D01*
X125565928Y5441430D02*
X125780214Y5298573D01*
X125780214Y5298573D02*
X125923071Y5155716D01*
X125923071Y5155716D02*
X125994500Y5012859D01*
X127065928Y7298573D02*
X127065928Y6441430D01*
X127065928Y6870001D02*
X125565928Y6870001D01*
X125565928Y6870001D02*
X125780214Y6727144D01*
X125780214Y6727144D02*
X125923071Y6584287D01*
X125923071Y6584287D02*
X125994500Y6441430D01*
X126065928Y8584286D02*
X127065928Y8584286D01*
X125494500Y8227144D02*
X126565928Y7870001D01*
X126565928Y7870001D02*
X126565928Y8798572D01*
X132780928Y21745002D02*
X132780928Y20887859D01*
X132780928Y21316430D02*
X131280928Y21316430D01*
X131280928Y21316430D02*
X131495214Y21173573D01*
X131495214Y21173573D02*
X131638071Y21030716D01*
X131638071Y21030716D02*
X131709500Y20887859D01*
X131423785Y22316430D02*
X131352357Y22387858D01*
X131352357Y22387858D02*
X131280928Y22530715D01*
X131280928Y22530715D02*
X131280928Y22887858D01*
X131280928Y22887858D02*
X131352357Y23030715D01*
X131352357Y23030715D02*
X131423785Y23102144D01*
X131423785Y23102144D02*
X131566642Y23173573D01*
X131566642Y23173573D02*
X131709500Y23173573D01*
X131709500Y23173573D02*
X131923785Y23102144D01*
X131923785Y23102144D02*
X132780928Y22245001D01*
X132780928Y22245001D02*
X132780928Y23173573D01*
X131280928Y24102144D02*
X131280928Y24245001D01*
X131280928Y24245001D02*
X131352357Y24387858D01*
X131352357Y24387858D02*
X131423785Y24459286D01*
X131423785Y24459286D02*
X131566642Y24530715D01*
X131566642Y24530715D02*
X131852357Y24602144D01*
X131852357Y24602144D02*
X132209500Y24602144D01*
X132209500Y24602144D02*
X132495214Y24530715D01*
X132495214Y24530715D02*
X132638071Y24459286D01*
X132638071Y24459286D02*
X132709500Y24387858D01*
X132709500Y24387858D02*
X132780928Y24245001D01*
X132780928Y24245001D02*
X132780928Y24102144D01*
X132780928Y24102144D02*
X132709500Y23959286D01*
X132709500Y23959286D02*
X132638071Y23887858D01*
X132638071Y23887858D02*
X132495214Y23816429D01*
X132495214Y23816429D02*
X132209500Y23745001D01*
X132209500Y23745001D02*
X131852357Y23745001D01*
X131852357Y23745001D02*
X131566642Y23816429D01*
X131566642Y23816429D02*
X131423785Y23887858D01*
X131423785Y23887858D02*
X131352357Y23959286D01*
X131352357Y23959286D02*
X131280928Y24102144D01*
X88030952Y20022762D02*
X87649999Y20022762D01*
X87649999Y20022762D02*
X87459523Y19927524D01*
X87459523Y19927524D02*
X87364285Y19832286D01*
X87364285Y19832286D02*
X87173809Y19546572D01*
X87173809Y19546572D02*
X87078571Y19165620D01*
X87078571Y19165620D02*
X87078571Y18403715D01*
X87078571Y18403715D02*
X87173809Y18213239D01*
X87173809Y18213239D02*
X87269047Y18118000D01*
X87269047Y18118000D02*
X87459523Y18022762D01*
X87459523Y18022762D02*
X87840476Y18022762D01*
X87840476Y18022762D02*
X88030952Y18118000D01*
X88030952Y18118000D02*
X88126190Y18213239D01*
X88126190Y18213239D02*
X88221428Y18403715D01*
X88221428Y18403715D02*
X88221428Y18879905D01*
X88221428Y18879905D02*
X88126190Y19070381D01*
X88126190Y19070381D02*
X88030952Y19165620D01*
X88030952Y19165620D02*
X87840476Y19260858D01*
X87840476Y19260858D02*
X87459523Y19260858D01*
X87459523Y19260858D02*
X87269047Y19165620D01*
X87269047Y19165620D02*
X87173809Y19070381D01*
X87173809Y19070381D02*
X87078571Y18879905D01*
X96476666Y9132762D02*
X96857618Y9132762D01*
X96857618Y9132762D02*
X97048095Y9228000D01*
X97048095Y9228000D02*
X97143333Y9323239D01*
X97143333Y9323239D02*
X97333809Y9608953D01*
X97333809Y9608953D02*
X97429047Y9989905D01*
X97429047Y9989905D02*
X97429047Y10751810D01*
X97429047Y10751810D02*
X97333809Y10942286D01*
X97333809Y10942286D02*
X97238571Y11037524D01*
X97238571Y11037524D02*
X97048095Y11132762D01*
X97048095Y11132762D02*
X96667142Y11132762D01*
X96667142Y11132762D02*
X96476666Y11037524D01*
X96476666Y11037524D02*
X96381428Y10942286D01*
X96381428Y10942286D02*
X96286190Y10751810D01*
X96286190Y10751810D02*
X96286190Y10275620D01*
X96286190Y10275620D02*
X96381428Y10085143D01*
X96381428Y10085143D02*
X96476666Y9989905D01*
X96476666Y9989905D02*
X96667142Y9894667D01*
X96667142Y9894667D02*
X97048095Y9894667D01*
X97048095Y9894667D02*
X97238571Y9989905D01*
X97238571Y9989905D02*
X97333809Y10085143D01*
X97333809Y10085143D02*
X97429047Y10275620D01*
X98667142Y11132762D02*
X98857619Y11132762D01*
X98857619Y11132762D02*
X99048095Y11037524D01*
X99048095Y11037524D02*
X99143333Y10942286D01*
X99143333Y10942286D02*
X99238571Y10751810D01*
X99238571Y10751810D02*
X99333809Y10370858D01*
X99333809Y10370858D02*
X99333809Y9894667D01*
X99333809Y9894667D02*
X99238571Y9513715D01*
X99238571Y9513715D02*
X99143333Y9323239D01*
X99143333Y9323239D02*
X99048095Y9228000D01*
X99048095Y9228000D02*
X98857619Y9132762D01*
X98857619Y9132762D02*
X98667142Y9132762D01*
X98667142Y9132762D02*
X98476666Y9228000D01*
X98476666Y9228000D02*
X98381428Y9323239D01*
X98381428Y9323239D02*
X98286190Y9513715D01*
X98286190Y9513715D02*
X98190952Y9894667D01*
X98190952Y9894667D02*
X98190952Y10370858D01*
X98190952Y10370858D02*
X98286190Y10751810D01*
X98286190Y10751810D02*
X98381428Y10942286D01*
X98381428Y10942286D02*
X98476666Y11037524D01*
X98476666Y11037524D02*
X98667142Y11132762D01*
X121241666Y18022762D02*
X120098809Y18022762D01*
X120670237Y18022762D02*
X120670237Y20022762D01*
X120670237Y20022762D02*
X120479761Y19737048D01*
X120479761Y19737048D02*
X120289285Y19546572D01*
X120289285Y19546572D02*
X120098809Y19451334D01*
X123146428Y18022762D02*
X122003571Y18022762D01*
X122574999Y18022762D02*
X122574999Y20022762D01*
X122574999Y20022762D02*
X122384523Y19737048D01*
X122384523Y19737048D02*
X122194047Y19546572D01*
X122194047Y19546572D02*
X122003571Y19451334D01*
X123813095Y20022762D02*
X125051190Y20022762D01*
X125051190Y20022762D02*
X124384523Y19260858D01*
X124384523Y19260858D02*
X124670238Y19260858D01*
X124670238Y19260858D02*
X124860714Y19165620D01*
X124860714Y19165620D02*
X124955952Y19070381D01*
X124955952Y19070381D02*
X125051190Y18879905D01*
X125051190Y18879905D02*
X125051190Y18403715D01*
X125051190Y18403715D02*
X124955952Y18213239D01*
X124955952Y18213239D02*
X124860714Y18118000D01*
X124860714Y18118000D02*
X124670238Y18022762D01*
X124670238Y18022762D02*
X124098809Y18022762D01*
X124098809Y18022762D02*
X123908333Y18118000D01*
X123908333Y18118000D02*
X123813095Y18213239D01*
X36278571Y11132762D02*
X35897618Y11132762D01*
X35897618Y11132762D02*
X35707142Y11037524D01*
X35707142Y11037524D02*
X35611904Y10942286D01*
X35611904Y10942286D02*
X35421428Y10656572D01*
X35421428Y10656572D02*
X35326190Y10275620D01*
X35326190Y10275620D02*
X35326190Y9513715D01*
X35326190Y9513715D02*
X35421428Y9323239D01*
X35421428Y9323239D02*
X35516666Y9228000D01*
X35516666Y9228000D02*
X35707142Y9132762D01*
X35707142Y9132762D02*
X36088095Y9132762D01*
X36088095Y9132762D02*
X36278571Y9228000D01*
X36278571Y9228000D02*
X36373809Y9323239D01*
X36373809Y9323239D02*
X36469047Y9513715D01*
X36469047Y9513715D02*
X36469047Y9989905D01*
X36469047Y9989905D02*
X36373809Y10180381D01*
X36373809Y10180381D02*
X36278571Y10275620D01*
X36278571Y10275620D02*
X36088095Y10370858D01*
X36088095Y10370858D02*
X35707142Y10370858D01*
X35707142Y10370858D02*
X35516666Y10275620D01*
X35516666Y10275620D02*
X35421428Y10180381D01*
X35421428Y10180381D02*
X35326190Y9989905D01*
X37230952Y10942286D02*
X37326190Y11037524D01*
X37326190Y11037524D02*
X37516666Y11132762D01*
X37516666Y11132762D02*
X37992857Y11132762D01*
X37992857Y11132762D02*
X38183333Y11037524D01*
X38183333Y11037524D02*
X38278571Y10942286D01*
X38278571Y10942286D02*
X38373809Y10751810D01*
X38373809Y10751810D02*
X38373809Y10561334D01*
X38373809Y10561334D02*
X38278571Y10275620D01*
X38278571Y10275620D02*
X37135714Y9132762D01*
X37135714Y9132762D02*
X38373809Y9132762D01*
X121241666Y14847762D02*
X120098809Y14847762D01*
X120670237Y14847762D02*
X120670237Y16847762D01*
X120670237Y16847762D02*
X120479761Y16562048D01*
X120479761Y16562048D02*
X120289285Y16371572D01*
X120289285Y16371572D02*
X120098809Y16276334D01*
X122479761Y16847762D02*
X122670238Y16847762D01*
X122670238Y16847762D02*
X122860714Y16752524D01*
X122860714Y16752524D02*
X122955952Y16657286D01*
X122955952Y16657286D02*
X123051190Y16466810D01*
X123051190Y16466810D02*
X123146428Y16085858D01*
X123146428Y16085858D02*
X123146428Y15609667D01*
X123146428Y15609667D02*
X123051190Y15228715D01*
X123051190Y15228715D02*
X122955952Y15038239D01*
X122955952Y15038239D02*
X122860714Y14943000D01*
X122860714Y14943000D02*
X122670238Y14847762D01*
X122670238Y14847762D02*
X122479761Y14847762D01*
X122479761Y14847762D02*
X122289285Y14943000D01*
X122289285Y14943000D02*
X122194047Y15038239D01*
X122194047Y15038239D02*
X122098809Y15228715D01*
X122098809Y15228715D02*
X122003571Y15609667D01*
X122003571Y15609667D02*
X122003571Y16085858D01*
X122003571Y16085858D02*
X122098809Y16466810D01*
X122098809Y16466810D02*
X122194047Y16657286D01*
X122194047Y16657286D02*
X122289285Y16752524D01*
X122289285Y16752524D02*
X122479761Y16847762D01*
X124955952Y16847762D02*
X124003571Y16847762D01*
X124003571Y16847762D02*
X123908333Y15895381D01*
X123908333Y15895381D02*
X124003571Y15990620D01*
X124003571Y15990620D02*
X124194047Y16085858D01*
X124194047Y16085858D02*
X124670238Y16085858D01*
X124670238Y16085858D02*
X124860714Y15990620D01*
X124860714Y15990620D02*
X124955952Y15895381D01*
X124955952Y15895381D02*
X125051190Y15704905D01*
X125051190Y15704905D02*
X125051190Y15228715D01*
X125051190Y15228715D02*
X124955952Y15038239D01*
X124955952Y15038239D02*
X124860714Y14943000D01*
X124860714Y14943000D02*
X124670238Y14847762D01*
X124670238Y14847762D02*
X124194047Y14847762D01*
X124194047Y14847762D02*
X124003571Y14943000D01*
X124003571Y14943000D02*
X123908333Y15038239D01*
X139130928Y5870002D02*
X139130928Y5012859D01*
X139130928Y5441430D02*
X137630928Y5441430D01*
X137630928Y5441430D02*
X137845214Y5298573D01*
X137845214Y5298573D02*
X137988071Y5155716D01*
X137988071Y5155716D02*
X138059500Y5012859D01*
X139130928Y7298573D02*
X139130928Y6441430D01*
X139130928Y6870001D02*
X137630928Y6870001D01*
X137630928Y6870001D02*
X137845214Y6727144D01*
X137845214Y6727144D02*
X137988071Y6584287D01*
X137988071Y6584287D02*
X138059500Y6441430D01*
X137630928Y8584286D02*
X137630928Y8298572D01*
X137630928Y8298572D02*
X137702357Y8155715D01*
X137702357Y8155715D02*
X137773785Y8084286D01*
X137773785Y8084286D02*
X137988071Y7941429D01*
X137988071Y7941429D02*
X138273785Y7870001D01*
X138273785Y7870001D02*
X138845214Y7870001D01*
X138845214Y7870001D02*
X138988071Y7941429D01*
X138988071Y7941429D02*
X139059500Y8012858D01*
X139059500Y8012858D02*
X139130928Y8155715D01*
X139130928Y8155715D02*
X139130928Y8441429D01*
X139130928Y8441429D02*
X139059500Y8584286D01*
X139059500Y8584286D02*
X138988071Y8655715D01*
X138988071Y8655715D02*
X138845214Y8727144D01*
X138845214Y8727144D02*
X138488071Y8727144D01*
X138488071Y8727144D02*
X138345214Y8655715D01*
X138345214Y8655715D02*
X138273785Y8584286D01*
X138273785Y8584286D02*
X138202357Y8441429D01*
X138202357Y8441429D02*
X138202357Y8155715D01*
X138202357Y8155715D02*
X138273785Y8012858D01*
X138273785Y8012858D02*
X138345214Y7941429D01*
X138345214Y7941429D02*
X138488071Y7870001D01*
D11*
X70322219Y20649524D02*
X70322219Y20078096D01*
X70322219Y20363810D02*
X69322219Y20363810D01*
X69322219Y20363810D02*
X69465076Y20268572D01*
X69465076Y20268572D02*
X69560314Y20173334D01*
X69560314Y20173334D02*
X69607933Y20078096D01*
X69417457Y21030477D02*
X69369838Y21078096D01*
X69369838Y21078096D02*
X69322219Y21173334D01*
X69322219Y21173334D02*
X69322219Y21411429D01*
X69322219Y21411429D02*
X69369838Y21506667D01*
X69369838Y21506667D02*
X69417457Y21554286D01*
X69417457Y21554286D02*
X69512695Y21601905D01*
X69512695Y21601905D02*
X69607933Y21601905D01*
X69607933Y21601905D02*
X69750790Y21554286D01*
X69750790Y21554286D02*
X70322219Y20982858D01*
X70322219Y20982858D02*
X70322219Y21601905D01*
D12*
X156899712Y16443834D02*
X156010712Y16443834D01*
X156010712Y16443834D02*
X156010712Y16782501D01*
X156010712Y16782501D02*
X156053045Y16867167D01*
X156053045Y16867167D02*
X156095379Y16909501D01*
X156095379Y16909501D02*
X156180045Y16951834D01*
X156180045Y16951834D02*
X156307045Y16951834D01*
X156307045Y16951834D02*
X156391712Y16909501D01*
X156391712Y16909501D02*
X156434045Y16867167D01*
X156434045Y16867167D02*
X156476379Y16782501D01*
X156476379Y16782501D02*
X156476379Y16443834D01*
X156899712Y17798501D02*
X156899712Y17290501D01*
X156899712Y17544501D02*
X156010712Y17544501D01*
X156010712Y17544501D02*
X156137712Y17459834D01*
X156137712Y17459834D02*
X156222379Y17375167D01*
X156222379Y17375167D02*
X156264712Y17290501D01*
D13*
X131987287Y61599348D02*
X131948240Y61638396D01*
X131948240Y61638396D02*
X131909192Y61755539D01*
X131909192Y61755539D02*
X131909192Y61833634D01*
X131909192Y61833634D02*
X131948240Y61950777D01*
X131948240Y61950777D02*
X132026335Y62028872D01*
X132026335Y62028872D02*
X132104430Y62067920D01*
X132104430Y62067920D02*
X132260621Y62106968D01*
X132260621Y62106968D02*
X132377764Y62106968D01*
X132377764Y62106968D02*
X132533955Y62067920D01*
X132533955Y62067920D02*
X132612050Y62028872D01*
X132612050Y62028872D02*
X132690145Y61950777D01*
X132690145Y61950777D02*
X132729193Y61833634D01*
X132729193Y61833634D02*
X132729193Y61755539D01*
X132729193Y61755539D02*
X132690145Y61638396D01*
X132690145Y61638396D02*
X132651098Y61599348D01*
X132729193Y61326014D02*
X132729193Y60818395D01*
X132729193Y60818395D02*
X132416812Y61091728D01*
X132416812Y61091728D02*
X132416812Y60974585D01*
X132416812Y60974585D02*
X132377764Y60896490D01*
X132377764Y60896490D02*
X132338716Y60857442D01*
X132338716Y60857442D02*
X132260621Y60818395D01*
X132260621Y60818395D02*
X132065383Y60818395D01*
X132065383Y60818395D02*
X131987287Y60857442D01*
X131987287Y60857442D02*
X131948240Y60896490D01*
X131948240Y60896490D02*
X131909192Y60974585D01*
X131909192Y60974585D02*
X131909192Y61208871D01*
X131909192Y61208871D02*
X131948240Y61286967D01*
X131948240Y61286967D02*
X131987287Y61326014D01*
X132651098Y60506014D02*
X132690145Y60466966D01*
X132690145Y60466966D02*
X132729193Y60388871D01*
X132729193Y60388871D02*
X132729193Y60193632D01*
X132729193Y60193632D02*
X132690145Y60115537D01*
X132690145Y60115537D02*
X132651098Y60076489D01*
X132651098Y60076489D02*
X132573002Y60037442D01*
X132573002Y60037442D02*
X132494907Y60037442D01*
X132494907Y60037442D02*
X132377764Y60076489D01*
X132377764Y60076489D02*
X131909192Y60545061D01*
X131909192Y60545061D02*
X131909192Y60037442D01*
X56563014Y47099349D02*
X56953490Y47372682D01*
X56563014Y47567920D02*
X57383014Y47567920D01*
X57383014Y47567920D02*
X57383014Y47255539D01*
X57383014Y47255539D02*
X57343966Y47177444D01*
X57343966Y47177444D02*
X57304919Y47138397D01*
X57304919Y47138397D02*
X57226823Y47099349D01*
X57226823Y47099349D02*
X57109681Y47099349D01*
X57109681Y47099349D02*
X57031585Y47138397D01*
X57031585Y47138397D02*
X56992538Y47177444D01*
X56992538Y47177444D02*
X56953490Y47255539D01*
X56953490Y47255539D02*
X56953490Y47567920D01*
X56563014Y46318397D02*
X56563014Y46786968D01*
X56563014Y46552682D02*
X57383014Y46552682D01*
X57383014Y46552682D02*
X57265871Y46630778D01*
X57265871Y46630778D02*
X57187776Y46708873D01*
X57187776Y46708873D02*
X57148728Y46786968D01*
D14*
X116079819Y100215477D02*
X116794104Y100215477D01*
X116794104Y100215477D02*
X116936961Y100167858D01*
X116936961Y100167858D02*
X117032200Y100072620D01*
X117032200Y100072620D02*
X117079819Y99929763D01*
X117079819Y99929763D02*
X117079819Y99834525D01*
X116175057Y100644049D02*
X116127438Y100691668D01*
X116127438Y100691668D02*
X116079819Y100786906D01*
X116079819Y100786906D02*
X116079819Y101025001D01*
X116079819Y101025001D02*
X116127438Y101120239D01*
X116127438Y101120239D02*
X116175057Y101167858D01*
X116175057Y101167858D02*
X116270295Y101215477D01*
X116270295Y101215477D02*
X116365533Y101215477D01*
X116365533Y101215477D02*
X116508390Y101167858D01*
X116508390Y101167858D02*
X117079819Y100596430D01*
X117079819Y100596430D02*
X117079819Y101215477D01*
X116175057Y101596430D02*
X116127438Y101644049D01*
X116127438Y101644049D02*
X116079819Y101739287D01*
X116079819Y101739287D02*
X116079819Y101977382D01*
X116079819Y101977382D02*
X116127438Y102072620D01*
X116127438Y102072620D02*
X116175057Y102120239D01*
X116175057Y102120239D02*
X116270295Y102167858D01*
X116270295Y102167858D02*
X116365533Y102167858D01*
X116365533Y102167858D02*
X116508390Y102120239D01*
X116508390Y102120239D02*
X117079819Y101548811D01*
X117079819Y101548811D02*
X117079819Y102167858D01*
X12254819Y37476906D02*
X11254819Y37476906D01*
X11254819Y37476906D02*
X11254819Y37715001D01*
X11254819Y37715001D02*
X11302438Y37857858D01*
X11302438Y37857858D02*
X11397676Y37953096D01*
X11397676Y37953096D02*
X11492914Y38000715D01*
X11492914Y38000715D02*
X11683390Y38048334D01*
X11683390Y38048334D02*
X11826247Y38048334D01*
X11826247Y38048334D02*
X12016723Y38000715D01*
X12016723Y38000715D02*
X12111961Y37953096D01*
X12111961Y37953096D02*
X12207200Y37857858D01*
X12207200Y37857858D02*
X12254819Y37715001D01*
X12254819Y37715001D02*
X12254819Y37476906D01*
X11254819Y38953096D02*
X11254819Y38476906D01*
X11254819Y38476906D02*
X11731009Y38429287D01*
X11731009Y38429287D02*
X11683390Y38476906D01*
X11683390Y38476906D02*
X11635771Y38572144D01*
X11635771Y38572144D02*
X11635771Y38810239D01*
X11635771Y38810239D02*
X11683390Y38905477D01*
X11683390Y38905477D02*
X11731009Y38953096D01*
X11731009Y38953096D02*
X11826247Y39000715D01*
X11826247Y39000715D02*
X12064342Y39000715D01*
X12064342Y39000715D02*
X12159580Y38953096D01*
X12159580Y38953096D02*
X12207200Y38905477D01*
X12207200Y38905477D02*
X12254819Y38810239D01*
X12254819Y38810239D02*
X12254819Y38572144D01*
X12254819Y38572144D02*
X12207200Y38476906D01*
X12207200Y38476906D02*
X12159580Y38429287D01*
D13*
X128024347Y45947583D02*
X128063395Y45986630D01*
X128063395Y45986630D02*
X128180538Y46025678D01*
X128180538Y46025678D02*
X128258633Y46025678D01*
X128258633Y46025678D02*
X128375776Y45986630D01*
X128375776Y45986630D02*
X128453872Y45908535D01*
X128453872Y45908535D02*
X128492919Y45830440D01*
X128492919Y45830440D02*
X128531967Y45674249D01*
X128531967Y45674249D02*
X128531967Y45557106D01*
X128531967Y45557106D02*
X128492919Y45400915D01*
X128492919Y45400915D02*
X128453872Y45322820D01*
X128453872Y45322820D02*
X128375776Y45244725D01*
X128375776Y45244725D02*
X128258633Y45205677D01*
X128258633Y45205677D02*
X128180538Y45205677D01*
X128180538Y45205677D02*
X128063395Y45244725D01*
X128063395Y45244725D02*
X128024347Y45283772D01*
X127711966Y45283772D02*
X127672918Y45244725D01*
X127672918Y45244725D02*
X127594823Y45205677D01*
X127594823Y45205677D02*
X127399585Y45205677D01*
X127399585Y45205677D02*
X127321489Y45244725D01*
X127321489Y45244725D02*
X127282442Y45283772D01*
X127282442Y45283772D02*
X127243394Y45361868D01*
X127243394Y45361868D02*
X127243394Y45439963D01*
X127243394Y45439963D02*
X127282442Y45557106D01*
X127282442Y45557106D02*
X127751014Y46025678D01*
X127751014Y46025678D02*
X127243394Y46025678D01*
X126774822Y45557106D02*
X126852918Y45518058D01*
X126852918Y45518058D02*
X126891965Y45479011D01*
X126891965Y45479011D02*
X126931013Y45400915D01*
X126931013Y45400915D02*
X126931013Y45361868D01*
X126931013Y45361868D02*
X126891965Y45283772D01*
X126891965Y45283772D02*
X126852918Y45244725D01*
X126852918Y45244725D02*
X126774822Y45205677D01*
X126774822Y45205677D02*
X126618632Y45205677D01*
X126618632Y45205677D02*
X126540536Y45244725D01*
X126540536Y45244725D02*
X126501489Y45283772D01*
X126501489Y45283772D02*
X126462441Y45361868D01*
X126462441Y45361868D02*
X126462441Y45400915D01*
X126462441Y45400915D02*
X126501489Y45479011D01*
X126501489Y45479011D02*
X126540536Y45518058D01*
X126540536Y45518058D02*
X126618632Y45557106D01*
X126618632Y45557106D02*
X126774822Y45557106D01*
X126774822Y45557106D02*
X126852918Y45596154D01*
X126852918Y45596154D02*
X126891965Y45635201D01*
X126891965Y45635201D02*
X126931013Y45713297D01*
X126931013Y45713297D02*
X126931013Y45869487D01*
X126931013Y45869487D02*
X126891965Y45947583D01*
X126891965Y45947583D02*
X126852918Y45986630D01*
X126852918Y45986630D02*
X126774822Y46025678D01*
X126774822Y46025678D02*
X126618632Y46025678D01*
X126618632Y46025678D02*
X126540536Y45986630D01*
X126540536Y45986630D02*
X126501489Y45947583D01*
X126501489Y45947583D02*
X126462441Y45869487D01*
X126462441Y45869487D02*
X126462441Y45713297D01*
X126462441Y45713297D02*
X126501489Y45635201D01*
X126501489Y45635201D02*
X126540536Y45596154D01*
X126540536Y45596154D02*
X126618632Y45557106D01*
D14*
X122754819Y59113096D02*
X123564342Y59113096D01*
X123564342Y59113096D02*
X123659580Y59160715D01*
X123659580Y59160715D02*
X123707200Y59208334D01*
X123707200Y59208334D02*
X123754819Y59303572D01*
X123754819Y59303572D02*
X123754819Y59494048D01*
X123754819Y59494048D02*
X123707200Y59589286D01*
X123707200Y59589286D02*
X123659580Y59636905D01*
X123659580Y59636905D02*
X123564342Y59684524D01*
X123564342Y59684524D02*
X122754819Y59684524D01*
X123183390Y60303572D02*
X123135771Y60208334D01*
X123135771Y60208334D02*
X123088152Y60160715D01*
X123088152Y60160715D02*
X122992914Y60113096D01*
X122992914Y60113096D02*
X122945295Y60113096D01*
X122945295Y60113096D02*
X122850057Y60160715D01*
X122850057Y60160715D02*
X122802438Y60208334D01*
X122802438Y60208334D02*
X122754819Y60303572D01*
X122754819Y60303572D02*
X122754819Y60494048D01*
X122754819Y60494048D02*
X122802438Y60589286D01*
X122802438Y60589286D02*
X122850057Y60636905D01*
X122850057Y60636905D02*
X122945295Y60684524D01*
X122945295Y60684524D02*
X122992914Y60684524D01*
X122992914Y60684524D02*
X123088152Y60636905D01*
X123088152Y60636905D02*
X123135771Y60589286D01*
X123135771Y60589286D02*
X123183390Y60494048D01*
X123183390Y60494048D02*
X123183390Y60303572D01*
X123183390Y60303572D02*
X123231009Y60208334D01*
X123231009Y60208334D02*
X123278628Y60160715D01*
X123278628Y60160715D02*
X123373866Y60113096D01*
X123373866Y60113096D02*
X123564342Y60113096D01*
X123564342Y60113096D02*
X123659580Y60160715D01*
X123659580Y60160715D02*
X123707200Y60208334D01*
X123707200Y60208334D02*
X123754819Y60303572D01*
X123754819Y60303572D02*
X123754819Y60494048D01*
X123754819Y60494048D02*
X123707200Y60589286D01*
X123707200Y60589286D02*
X123659580Y60636905D01*
X123659580Y60636905D02*
X123564342Y60684524D01*
X123564342Y60684524D02*
X123373866Y60684524D01*
X123373866Y60684524D02*
X123278628Y60636905D01*
X123278628Y60636905D02*
X123231009Y60589286D01*
X123231009Y60589286D02*
X123183390Y60494048D01*
D15*
X134546000Y40928232D02*
X134292000Y40928232D01*
X134292000Y40529089D02*
X134292000Y41291089D01*
X134292000Y41291089D02*
X134654857Y41291089D01*
X135344286Y40529089D02*
X134908857Y40529089D01*
X135126572Y40529089D02*
X135126572Y41291089D01*
X135126572Y41291089D02*
X135054000Y41182232D01*
X135054000Y41182232D02*
X134981429Y41109660D01*
X134981429Y41109660D02*
X134908857Y41073374D01*
X45746768Y66121001D02*
X45746768Y65867001D01*
X46145911Y65867001D02*
X45383911Y65867001D01*
X45383911Y65867001D02*
X45383911Y66229858D01*
X45383911Y66447573D02*
X45383911Y66919287D01*
X45383911Y66919287D02*
X45674197Y66665287D01*
X45674197Y66665287D02*
X45674197Y66774144D01*
X45674197Y66774144D02*
X45710483Y66846715D01*
X45710483Y66846715D02*
X45746768Y66883001D01*
X45746768Y66883001D02*
X45819340Y66919287D01*
X45819340Y66919287D02*
X46000768Y66919287D01*
X46000768Y66919287D02*
X46073340Y66883001D01*
X46073340Y66883001D02*
X46109626Y66846715D01*
X46109626Y66846715D02*
X46145911Y66774144D01*
X46145911Y66774144D02*
X46145911Y66556430D01*
X46145911Y66556430D02*
X46109626Y66483858D01*
X46109626Y66483858D02*
X46073340Y66447573D01*
D14*
X86570057Y47214762D02*
X86522438Y47119524D01*
X86522438Y47119524D02*
X86427200Y47024286D01*
X86427200Y47024286D02*
X86284342Y46881429D01*
X86284342Y46881429D02*
X86236723Y46786191D01*
X86236723Y46786191D02*
X86236723Y46690953D01*
X86474819Y46738572D02*
X86427200Y46643334D01*
X86427200Y46643334D02*
X86331961Y46548096D01*
X86331961Y46548096D02*
X86141485Y46500477D01*
X86141485Y46500477D02*
X85808152Y46500477D01*
X85808152Y46500477D02*
X85617676Y46548096D01*
X85617676Y46548096D02*
X85522438Y46643334D01*
X85522438Y46643334D02*
X85474819Y46738572D01*
X85474819Y46738572D02*
X85474819Y46929048D01*
X85474819Y46929048D02*
X85522438Y47024286D01*
X85522438Y47024286D02*
X85617676Y47119524D01*
X85617676Y47119524D02*
X85808152Y47167143D01*
X85808152Y47167143D02*
X86141485Y47167143D01*
X86141485Y47167143D02*
X86331961Y47119524D01*
X86331961Y47119524D02*
X86427200Y47024286D01*
X86427200Y47024286D02*
X86474819Y46929048D01*
X86474819Y46929048D02*
X86474819Y46738572D01*
X86474819Y48119524D02*
X86474819Y47548096D01*
X86474819Y47833810D02*
X85474819Y47833810D01*
X85474819Y47833810D02*
X85617676Y47738572D01*
X85617676Y47738572D02*
X85712914Y47643334D01*
X85712914Y47643334D02*
X85760533Y47548096D01*
D15*
X132046000Y40928232D02*
X131792000Y40928232D01*
X131792000Y40529089D02*
X131792000Y41291089D01*
X131792000Y41291089D02*
X132154857Y41291089D01*
X132408857Y41218517D02*
X132445143Y41254803D01*
X132445143Y41254803D02*
X132517715Y41291089D01*
X132517715Y41291089D02*
X132699143Y41291089D01*
X132699143Y41291089D02*
X132771715Y41254803D01*
X132771715Y41254803D02*
X132808000Y41218517D01*
X132808000Y41218517D02*
X132844286Y41145946D01*
X132844286Y41145946D02*
X132844286Y41073374D01*
X132844286Y41073374D02*
X132808000Y40964517D01*
X132808000Y40964517D02*
X132372572Y40529089D01*
X132372572Y40529089D02*
X132844286Y40529089D01*
D14*
X91654819Y58113096D02*
X92464342Y58113096D01*
X92464342Y58113096D02*
X92559580Y58160715D01*
X92559580Y58160715D02*
X92607200Y58208334D01*
X92607200Y58208334D02*
X92654819Y58303572D01*
X92654819Y58303572D02*
X92654819Y58494048D01*
X92654819Y58494048D02*
X92607200Y58589286D01*
X92607200Y58589286D02*
X92559580Y58636905D01*
X92559580Y58636905D02*
X92464342Y58684524D01*
X92464342Y58684524D02*
X91654819Y58684524D01*
X91654819Y59065477D02*
X91654819Y59684524D01*
X91654819Y59684524D02*
X92035771Y59351191D01*
X92035771Y59351191D02*
X92035771Y59494048D01*
X92035771Y59494048D02*
X92083390Y59589286D01*
X92083390Y59589286D02*
X92131009Y59636905D01*
X92131009Y59636905D02*
X92226247Y59684524D01*
X92226247Y59684524D02*
X92464342Y59684524D01*
X92464342Y59684524D02*
X92559580Y59636905D01*
X92559580Y59636905D02*
X92607200Y59589286D01*
X92607200Y59589286D02*
X92654819Y59494048D01*
X92654819Y59494048D02*
X92654819Y59208334D01*
X92654819Y59208334D02*
X92607200Y59113096D01*
X92607200Y59113096D02*
X92559580Y59065477D01*
D13*
X130524347Y46687713D02*
X130563395Y46726760D01*
X130563395Y46726760D02*
X130680538Y46765808D01*
X130680538Y46765808D02*
X130758633Y46765808D01*
X130758633Y46765808D02*
X130875776Y46726760D01*
X130875776Y46726760D02*
X130953872Y46648665D01*
X130953872Y46648665D02*
X130992919Y46570570D01*
X130992919Y46570570D02*
X131031967Y46414379D01*
X131031967Y46414379D02*
X131031967Y46297236D01*
X131031967Y46297236D02*
X130992919Y46141045D01*
X130992919Y46141045D02*
X130953872Y46062950D01*
X130953872Y46062950D02*
X130875776Y45984855D01*
X130875776Y45984855D02*
X130758633Y45945807D01*
X130758633Y45945807D02*
X130680538Y45945807D01*
X130680538Y45945807D02*
X130563395Y45984855D01*
X130563395Y45984855D02*
X130524347Y46023902D01*
X130251014Y45945807D02*
X129743394Y45945807D01*
X129743394Y45945807D02*
X130016728Y46258188D01*
X130016728Y46258188D02*
X129899585Y46258188D01*
X129899585Y46258188D02*
X129821489Y46297236D01*
X129821489Y46297236D02*
X129782442Y46336284D01*
X129782442Y46336284D02*
X129743394Y46414379D01*
X129743394Y46414379D02*
X129743394Y46609617D01*
X129743394Y46609617D02*
X129782442Y46687713D01*
X129782442Y46687713D02*
X129821489Y46726760D01*
X129821489Y46726760D02*
X129899585Y46765808D01*
X129899585Y46765808D02*
X130133871Y46765808D01*
X130133871Y46765808D02*
X130211966Y46726760D01*
X130211966Y46726760D02*
X130251014Y46687713D01*
X129235775Y45945807D02*
X129157679Y45945807D01*
X129157679Y45945807D02*
X129079584Y45984855D01*
X129079584Y45984855D02*
X129040536Y46023902D01*
X129040536Y46023902D02*
X129001489Y46101998D01*
X129001489Y46101998D02*
X128962441Y46258188D01*
X128962441Y46258188D02*
X128962441Y46453427D01*
X128962441Y46453427D02*
X129001489Y46609617D01*
X129001489Y46609617D02*
X129040536Y46687713D01*
X129040536Y46687713D02*
X129079584Y46726760D01*
X129079584Y46726760D02*
X129157679Y46765808D01*
X129157679Y46765808D02*
X129235775Y46765808D01*
X129235775Y46765808D02*
X129313870Y46726760D01*
X129313870Y46726760D02*
X129352918Y46687713D01*
X129352918Y46687713D02*
X129391965Y46609617D01*
X129391965Y46609617D02*
X129431013Y46453427D01*
X129431013Y46453427D02*
X129431013Y46258188D01*
X129431013Y46258188D02*
X129391965Y46101998D01*
X129391965Y46101998D02*
X129352918Y46023902D01*
X129352918Y46023902D02*
X129313870Y45984855D01*
X129313870Y45984855D02*
X129235775Y45945807D01*
X69690808Y62150652D02*
X69300332Y61877319D01*
X69690808Y61682081D02*
X68870808Y61682081D01*
X68870808Y61682081D02*
X68870808Y61994462D01*
X68870808Y61994462D02*
X68909856Y62072557D01*
X68909856Y62072557D02*
X68948903Y62111604D01*
X68948903Y62111604D02*
X69026999Y62150652D01*
X69026999Y62150652D02*
X69144141Y62150652D01*
X69144141Y62150652D02*
X69222237Y62111604D01*
X69222237Y62111604D02*
X69261284Y62072557D01*
X69261284Y62072557D02*
X69300332Y61994462D01*
X69300332Y61994462D02*
X69300332Y61682081D01*
X68870808Y62892557D02*
X68870808Y62502081D01*
X68870808Y62502081D02*
X69261284Y62463033D01*
X69261284Y62463033D02*
X69222237Y62502081D01*
X69222237Y62502081D02*
X69183189Y62580176D01*
X69183189Y62580176D02*
X69183189Y62775414D01*
X69183189Y62775414D02*
X69222237Y62853509D01*
X69222237Y62853509D02*
X69261284Y62892557D01*
X69261284Y62892557D02*
X69339380Y62931604D01*
X69339380Y62931604D02*
X69534618Y62931604D01*
X69534618Y62931604D02*
X69612713Y62892557D01*
X69612713Y62892557D02*
X69651761Y62853509D01*
X69651761Y62853509D02*
X69690808Y62775414D01*
X69690808Y62775414D02*
X69690808Y62580176D01*
X69690808Y62580176D02*
X69651761Y62502081D01*
X69651761Y62502081D02*
X69612713Y62463033D01*
D14*
X106154819Y58113096D02*
X106964342Y58113096D01*
X106964342Y58113096D02*
X107059580Y58160715D01*
X107059580Y58160715D02*
X107107200Y58208334D01*
X107107200Y58208334D02*
X107154819Y58303572D01*
X107154819Y58303572D02*
X107154819Y58494048D01*
X107154819Y58494048D02*
X107107200Y58589286D01*
X107107200Y58589286D02*
X107059580Y58636905D01*
X107059580Y58636905D02*
X106964342Y58684524D01*
X106964342Y58684524D02*
X106154819Y58684524D01*
X106154819Y59636905D02*
X106154819Y59160715D01*
X106154819Y59160715D02*
X106631009Y59113096D01*
X106631009Y59113096D02*
X106583390Y59160715D01*
X106583390Y59160715D02*
X106535771Y59255953D01*
X106535771Y59255953D02*
X106535771Y59494048D01*
X106535771Y59494048D02*
X106583390Y59589286D01*
X106583390Y59589286D02*
X106631009Y59636905D01*
X106631009Y59636905D02*
X106726247Y59684524D01*
X106726247Y59684524D02*
X106964342Y59684524D01*
X106964342Y59684524D02*
X107059580Y59636905D01*
X107059580Y59636905D02*
X107107200Y59589286D01*
X107107200Y59589286D02*
X107154819Y59494048D01*
X107154819Y59494048D02*
X107154819Y59255953D01*
X107154819Y59255953D02*
X107107200Y59160715D01*
X107107200Y59160715D02*
X107059580Y59113096D01*
X124490476Y99270181D02*
X124490476Y98555896D01*
X124490476Y98555896D02*
X124442857Y98413039D01*
X124442857Y98413039D02*
X124347619Y98317800D01*
X124347619Y98317800D02*
X124204762Y98270181D01*
X124204762Y98270181D02*
X124109524Y98270181D01*
X124919048Y99174943D02*
X124966667Y99222562D01*
X124966667Y99222562D02*
X125061905Y99270181D01*
X125061905Y99270181D02*
X125300000Y99270181D01*
X125300000Y99270181D02*
X125395238Y99222562D01*
X125395238Y99222562D02*
X125442857Y99174943D01*
X125442857Y99174943D02*
X125490476Y99079705D01*
X125490476Y99079705D02*
X125490476Y98984467D01*
X125490476Y98984467D02*
X125442857Y98841610D01*
X125442857Y98841610D02*
X124871429Y98270181D01*
X124871429Y98270181D02*
X125490476Y98270181D01*
X126442857Y98270181D02*
X125871429Y98270181D01*
X126157143Y98270181D02*
X126157143Y99270181D01*
X126157143Y99270181D02*
X126061905Y99127324D01*
X126061905Y99127324D02*
X125966667Y99032086D01*
X125966667Y99032086D02*
X125871429Y98984467D01*
D13*
X71690808Y61950652D02*
X71300332Y61677319D01*
X71690808Y61482081D02*
X70870808Y61482081D01*
X70870808Y61482081D02*
X70870808Y61794462D01*
X70870808Y61794462D02*
X70909856Y61872557D01*
X70909856Y61872557D02*
X70948903Y61911604D01*
X70948903Y61911604D02*
X71026999Y61950652D01*
X71026999Y61950652D02*
X71144141Y61950652D01*
X71144141Y61950652D02*
X71222237Y61911604D01*
X71222237Y61911604D02*
X71261284Y61872557D01*
X71261284Y61872557D02*
X71300332Y61794462D01*
X71300332Y61794462D02*
X71300332Y61482081D01*
X70870808Y62653509D02*
X70870808Y62497319D01*
X70870808Y62497319D02*
X70909856Y62419223D01*
X70909856Y62419223D02*
X70948903Y62380176D01*
X70948903Y62380176D02*
X71066046Y62302081D01*
X71066046Y62302081D02*
X71222237Y62263033D01*
X71222237Y62263033D02*
X71534618Y62263033D01*
X71534618Y62263033D02*
X71612713Y62302081D01*
X71612713Y62302081D02*
X71651761Y62341128D01*
X71651761Y62341128D02*
X71690808Y62419223D01*
X71690808Y62419223D02*
X71690808Y62575414D01*
X71690808Y62575414D02*
X71651761Y62653509D01*
X71651761Y62653509D02*
X71612713Y62692557D01*
X71612713Y62692557D02*
X71534618Y62731604D01*
X71534618Y62731604D02*
X71339380Y62731604D01*
X71339380Y62731604D02*
X71261284Y62692557D01*
X71261284Y62692557D02*
X71222237Y62653509D01*
X71222237Y62653509D02*
X71183189Y62575414D01*
X71183189Y62575414D02*
X71183189Y62419223D01*
X71183189Y62419223D02*
X71222237Y62341128D01*
X71222237Y62341128D02*
X71261284Y62302081D01*
X71261284Y62302081D02*
X71339380Y62263033D01*
X61638021Y61786848D02*
X61911355Y61396371D01*
X62106593Y61786848D02*
X62106593Y60966847D01*
X62106593Y60966847D02*
X61794212Y60966847D01*
X61794212Y60966847D02*
X61716117Y61005895D01*
X61716117Y61005895D02*
X61677069Y61044942D01*
X61677069Y61044942D02*
X61638021Y61123038D01*
X61638021Y61123038D02*
X61638021Y61240181D01*
X61638021Y61240181D02*
X61677069Y61318276D01*
X61677069Y61318276D02*
X61716117Y61357324D01*
X61716117Y61357324D02*
X61794212Y61396371D01*
X61794212Y61396371D02*
X62106593Y61396371D01*
X61169449Y61318276D02*
X61247545Y61279228D01*
X61247545Y61279228D02*
X61286592Y61240181D01*
X61286592Y61240181D02*
X61325640Y61162085D01*
X61325640Y61162085D02*
X61325640Y61123038D01*
X61325640Y61123038D02*
X61286592Y61044942D01*
X61286592Y61044942D02*
X61247545Y61005895D01*
X61247545Y61005895D02*
X61169449Y60966847D01*
X61169449Y60966847D02*
X61013259Y60966847D01*
X61013259Y60966847D02*
X60935163Y61005895D01*
X60935163Y61005895D02*
X60896116Y61044942D01*
X60896116Y61044942D02*
X60857068Y61123038D01*
X60857068Y61123038D02*
X60857068Y61162085D01*
X60857068Y61162085D02*
X60896116Y61240181D01*
X60896116Y61240181D02*
X60935163Y61279228D01*
X60935163Y61279228D02*
X61013259Y61318276D01*
X61013259Y61318276D02*
X61169449Y61318276D01*
X61169449Y61318276D02*
X61247545Y61357324D01*
X61247545Y61357324D02*
X61286592Y61396371D01*
X61286592Y61396371D02*
X61325640Y61474467D01*
X61325640Y61474467D02*
X61325640Y61630657D01*
X61325640Y61630657D02*
X61286592Y61708753D01*
X61286592Y61708753D02*
X61247545Y61747800D01*
X61247545Y61747800D02*
X61169449Y61786848D01*
X61169449Y61786848D02*
X61013259Y61786848D01*
X61013259Y61786848D02*
X60935163Y61747800D01*
X60935163Y61747800D02*
X60896116Y61708753D01*
X60896116Y61708753D02*
X60857068Y61630657D01*
X60857068Y61630657D02*
X60857068Y61474467D01*
X60857068Y61474467D02*
X60896116Y61396371D01*
X60896116Y61396371D02*
X60935163Y61357324D01*
X60935163Y61357324D02*
X61013259Y61318276D01*
X129867533Y55302418D02*
X129828485Y55263370D01*
X129828485Y55263370D02*
X129711342Y55224323D01*
X129711342Y55224323D02*
X129633247Y55224323D01*
X129633247Y55224323D02*
X129516104Y55263370D01*
X129516104Y55263370D02*
X129438009Y55341466D01*
X129438009Y55341466D02*
X129398961Y55419561D01*
X129398961Y55419561D02*
X129359913Y55575752D01*
X129359913Y55575752D02*
X129359913Y55692895D01*
X129359913Y55692895D02*
X129398961Y55849085D01*
X129398961Y55849085D02*
X129438009Y55927181D01*
X129438009Y55927181D02*
X129516104Y56005276D01*
X129516104Y56005276D02*
X129633247Y56044324D01*
X129633247Y56044324D02*
X129711342Y56044324D01*
X129711342Y56044324D02*
X129828485Y56005276D01*
X129828485Y56005276D02*
X129867533Y55966228D01*
X130179914Y55966228D02*
X130218962Y56005276D01*
X130218962Y56005276D02*
X130297057Y56044324D01*
X130297057Y56044324D02*
X130492296Y56044324D01*
X130492296Y56044324D02*
X130570391Y56005276D01*
X130570391Y56005276D02*
X130609439Y55966228D01*
X130609439Y55966228D02*
X130648486Y55888133D01*
X130648486Y55888133D02*
X130648486Y55810038D01*
X130648486Y55810038D02*
X130609439Y55692895D01*
X130609439Y55692895D02*
X130140867Y55224323D01*
X130140867Y55224323D02*
X130648486Y55224323D01*
X131038963Y55224323D02*
X131195153Y55224323D01*
X131195153Y55224323D02*
X131273249Y55263370D01*
X131273249Y55263370D02*
X131312296Y55302418D01*
X131312296Y55302418D02*
X131390392Y55419561D01*
X131390392Y55419561D02*
X131429439Y55575752D01*
X131429439Y55575752D02*
X131429439Y55888133D01*
X131429439Y55888133D02*
X131390392Y55966228D01*
X131390392Y55966228D02*
X131351344Y56005276D01*
X131351344Y56005276D02*
X131273249Y56044324D01*
X131273249Y56044324D02*
X131117058Y56044324D01*
X131117058Y56044324D02*
X131038963Y56005276D01*
X131038963Y56005276D02*
X130999915Y55966228D01*
X130999915Y55966228D02*
X130960867Y55888133D01*
X130960867Y55888133D02*
X130960867Y55692895D01*
X130960867Y55692895D02*
X130999915Y55614799D01*
X130999915Y55614799D02*
X131038963Y55575752D01*
X131038963Y55575752D02*
X131117058Y55536704D01*
X131117058Y55536704D02*
X131273249Y55536704D01*
X131273249Y55536704D02*
X131351344Y55575752D01*
X131351344Y55575752D02*
X131390392Y55614799D01*
X131390392Y55614799D02*
X131429439Y55692895D01*
D14*
X119350057Y47214762D02*
X119302438Y47119524D01*
X119302438Y47119524D02*
X119207200Y47024286D01*
X119207200Y47024286D02*
X119064342Y46881429D01*
X119064342Y46881429D02*
X119016723Y46786191D01*
X119016723Y46786191D02*
X119016723Y46690953D01*
X119254819Y46738572D02*
X119207200Y46643334D01*
X119207200Y46643334D02*
X119111961Y46548096D01*
X119111961Y46548096D02*
X118921485Y46500477D01*
X118921485Y46500477D02*
X118588152Y46500477D01*
X118588152Y46500477D02*
X118397676Y46548096D01*
X118397676Y46548096D02*
X118302438Y46643334D01*
X118302438Y46643334D02*
X118254819Y46738572D01*
X118254819Y46738572D02*
X118254819Y46929048D01*
X118254819Y46929048D02*
X118302438Y47024286D01*
X118302438Y47024286D02*
X118397676Y47119524D01*
X118397676Y47119524D02*
X118588152Y47167143D01*
X118588152Y47167143D02*
X118921485Y47167143D01*
X118921485Y47167143D02*
X119111961Y47119524D01*
X119111961Y47119524D02*
X119207200Y47024286D01*
X119207200Y47024286D02*
X119254819Y46929048D01*
X119254819Y46929048D02*
X119254819Y46738572D01*
X118254819Y48071905D02*
X118254819Y47595715D01*
X118254819Y47595715D02*
X118731009Y47548096D01*
X118731009Y47548096D02*
X118683390Y47595715D01*
X118683390Y47595715D02*
X118635771Y47690953D01*
X118635771Y47690953D02*
X118635771Y47929048D01*
X118635771Y47929048D02*
X118683390Y48024286D01*
X118683390Y48024286D02*
X118731009Y48071905D01*
X118731009Y48071905D02*
X118826247Y48119524D01*
X118826247Y48119524D02*
X119064342Y48119524D01*
X119064342Y48119524D02*
X119159580Y48071905D01*
X119159580Y48071905D02*
X119207200Y48024286D01*
X119207200Y48024286D02*
X119254819Y47929048D01*
X119254819Y47929048D02*
X119254819Y47690953D01*
X119254819Y47690953D02*
X119207200Y47595715D01*
X119207200Y47595715D02*
X119159580Y47548096D01*
X94765057Y47214762D02*
X94717438Y47119524D01*
X94717438Y47119524D02*
X94622200Y47024286D01*
X94622200Y47024286D02*
X94479342Y46881429D01*
X94479342Y46881429D02*
X94431723Y46786191D01*
X94431723Y46786191D02*
X94431723Y46690953D01*
X94669819Y46738572D02*
X94622200Y46643334D01*
X94622200Y46643334D02*
X94526961Y46548096D01*
X94526961Y46548096D02*
X94336485Y46500477D01*
X94336485Y46500477D02*
X94003152Y46500477D01*
X94003152Y46500477D02*
X93812676Y46548096D01*
X93812676Y46548096D02*
X93717438Y46643334D01*
X93717438Y46643334D02*
X93669819Y46738572D01*
X93669819Y46738572D02*
X93669819Y46929048D01*
X93669819Y46929048D02*
X93717438Y47024286D01*
X93717438Y47024286D02*
X93812676Y47119524D01*
X93812676Y47119524D02*
X94003152Y47167143D01*
X94003152Y47167143D02*
X94336485Y47167143D01*
X94336485Y47167143D02*
X94526961Y47119524D01*
X94526961Y47119524D02*
X94622200Y47024286D01*
X94622200Y47024286D02*
X94669819Y46929048D01*
X94669819Y46929048D02*
X94669819Y46738572D01*
X93765057Y47548096D02*
X93717438Y47595715D01*
X93717438Y47595715D02*
X93669819Y47690953D01*
X93669819Y47690953D02*
X93669819Y47929048D01*
X93669819Y47929048D02*
X93717438Y48024286D01*
X93717438Y48024286D02*
X93765057Y48071905D01*
X93765057Y48071905D02*
X93860295Y48119524D01*
X93860295Y48119524D02*
X93955533Y48119524D01*
X93955533Y48119524D02*
X94098390Y48071905D01*
X94098390Y48071905D02*
X94669819Y47500477D01*
X94669819Y47500477D02*
X94669819Y48119524D01*
D13*
X61638021Y58786848D02*
X61911355Y58396371D01*
X62106593Y58786848D02*
X62106593Y57966847D01*
X62106593Y57966847D02*
X61794212Y57966847D01*
X61794212Y57966847D02*
X61716117Y58005895D01*
X61716117Y58005895D02*
X61677069Y58044942D01*
X61677069Y58044942D02*
X61638021Y58123038D01*
X61638021Y58123038D02*
X61638021Y58240181D01*
X61638021Y58240181D02*
X61677069Y58318276D01*
X61677069Y58318276D02*
X61716117Y58357324D01*
X61716117Y58357324D02*
X61794212Y58396371D01*
X61794212Y58396371D02*
X62106593Y58396371D01*
X61364688Y57966847D02*
X60818020Y57966847D01*
X60818020Y57966847D02*
X61169449Y58786848D01*
D14*
X127854819Y50636906D02*
X126854819Y50636906D01*
X126854819Y50636906D02*
X126854819Y50875001D01*
X126854819Y50875001D02*
X126902438Y51017858D01*
X126902438Y51017858D02*
X126997676Y51113096D01*
X126997676Y51113096D02*
X127092914Y51160715D01*
X127092914Y51160715D02*
X127283390Y51208334D01*
X127283390Y51208334D02*
X127426247Y51208334D01*
X127426247Y51208334D02*
X127616723Y51160715D01*
X127616723Y51160715D02*
X127711961Y51113096D01*
X127711961Y51113096D02*
X127807200Y51017858D01*
X127807200Y51017858D02*
X127854819Y50875001D01*
X127854819Y50875001D02*
X127854819Y50636906D01*
X126854819Y52065477D02*
X126854819Y51875001D01*
X126854819Y51875001D02*
X126902438Y51779763D01*
X126902438Y51779763D02*
X126950057Y51732144D01*
X126950057Y51732144D02*
X127092914Y51636906D01*
X127092914Y51636906D02*
X127283390Y51589287D01*
X127283390Y51589287D02*
X127664342Y51589287D01*
X127664342Y51589287D02*
X127759580Y51636906D01*
X127759580Y51636906D02*
X127807200Y51684525D01*
X127807200Y51684525D02*
X127854819Y51779763D01*
X127854819Y51779763D02*
X127854819Y51970239D01*
X127854819Y51970239D02*
X127807200Y52065477D01*
X127807200Y52065477D02*
X127759580Y52113096D01*
X127759580Y52113096D02*
X127664342Y52160715D01*
X127664342Y52160715D02*
X127426247Y52160715D01*
X127426247Y52160715D02*
X127331009Y52113096D01*
X127331009Y52113096D02*
X127283390Y52065477D01*
X127283390Y52065477D02*
X127235771Y51970239D01*
X127235771Y51970239D02*
X127235771Y51779763D01*
X127235771Y51779763D02*
X127283390Y51684525D01*
X127283390Y51684525D02*
X127331009Y51636906D01*
X127331009Y51636906D02*
X127426247Y51589287D01*
X120059819Y58113096D02*
X120869342Y58113096D01*
X120869342Y58113096D02*
X120964580Y58160715D01*
X120964580Y58160715D02*
X121012200Y58208334D01*
X121012200Y58208334D02*
X121059819Y58303572D01*
X121059819Y58303572D02*
X121059819Y58494048D01*
X121059819Y58494048D02*
X121012200Y58589286D01*
X121012200Y58589286D02*
X120964580Y58636905D01*
X120964580Y58636905D02*
X120869342Y58684524D01*
X120869342Y58684524D02*
X120059819Y58684524D01*
X120059819Y59065477D02*
X120059819Y59732143D01*
X120059819Y59732143D02*
X121059819Y59303572D01*
X112654819Y58113096D02*
X113464342Y58113096D01*
X113464342Y58113096D02*
X113559580Y58160715D01*
X113559580Y58160715D02*
X113607200Y58208334D01*
X113607200Y58208334D02*
X113654819Y58303572D01*
X113654819Y58303572D02*
X113654819Y58494048D01*
X113654819Y58494048D02*
X113607200Y58589286D01*
X113607200Y58589286D02*
X113559580Y58636905D01*
X113559580Y58636905D02*
X113464342Y58684524D01*
X113464342Y58684524D02*
X112654819Y58684524D01*
X112988152Y59589286D02*
X113654819Y59589286D01*
X112607200Y59351191D02*
X113321485Y59113096D01*
X113321485Y59113096D02*
X113321485Y59732143D01*
D15*
X112673000Y88479090D02*
X112419000Y88841947D01*
X112237571Y88479090D02*
X112237571Y89241090D01*
X112237571Y89241090D02*
X112527857Y89241090D01*
X112527857Y89241090D02*
X112600428Y89204804D01*
X112600428Y89204804D02*
X112636714Y89168518D01*
X112636714Y89168518D02*
X112673000Y89095947D01*
X112673000Y89095947D02*
X112673000Y88987090D01*
X112673000Y88987090D02*
X112636714Y88914518D01*
X112636714Y88914518D02*
X112600428Y88878233D01*
X112600428Y88878233D02*
X112527857Y88841947D01*
X112527857Y88841947D02*
X112237571Y88841947D01*
X113326143Y88987090D02*
X113326143Y88479090D01*
X113144714Y89277375D02*
X112963285Y88733090D01*
X112963285Y88733090D02*
X113435000Y88733090D01*
D13*
X65138021Y58786848D02*
X65411355Y58396371D01*
X65606593Y58786848D02*
X65606593Y57966847D01*
X65606593Y57966847D02*
X65294212Y57966847D01*
X65294212Y57966847D02*
X65216117Y58005895D01*
X65216117Y58005895D02*
X65177069Y58044942D01*
X65177069Y58044942D02*
X65138021Y58123038D01*
X65138021Y58123038D02*
X65138021Y58240181D01*
X65138021Y58240181D02*
X65177069Y58318276D01*
X65177069Y58318276D02*
X65216117Y58357324D01*
X65216117Y58357324D02*
X65294212Y58396371D01*
X65294212Y58396371D02*
X65606593Y58396371D01*
X64357068Y58786848D02*
X64825640Y58786848D01*
X64591354Y58786848D02*
X64591354Y57966847D01*
X64591354Y57966847D02*
X64669449Y58083990D01*
X64669449Y58083990D02*
X64747545Y58162085D01*
X64747545Y58162085D02*
X64825640Y58201133D01*
X63849449Y57966847D02*
X63771353Y57966847D01*
X63771353Y57966847D02*
X63693258Y58005895D01*
X63693258Y58005895D02*
X63654210Y58044942D01*
X63654210Y58044942D02*
X63615163Y58123038D01*
X63615163Y58123038D02*
X63576115Y58279228D01*
X63576115Y58279228D02*
X63576115Y58474467D01*
X63576115Y58474467D02*
X63615163Y58630657D01*
X63615163Y58630657D02*
X63654210Y58708753D01*
X63654210Y58708753D02*
X63693258Y58747800D01*
X63693258Y58747800D02*
X63771353Y58786848D01*
X63771353Y58786848D02*
X63849449Y58786848D01*
X63849449Y58786848D02*
X63927544Y58747800D01*
X63927544Y58747800D02*
X63966592Y58708753D01*
X63966592Y58708753D02*
X64005639Y58630657D01*
X64005639Y58630657D02*
X64044687Y58474467D01*
X64044687Y58474467D02*
X64044687Y58279228D01*
X64044687Y58279228D02*
X64005639Y58123038D01*
X64005639Y58123038D02*
X63966592Y58044942D01*
X63966592Y58044942D02*
X63927544Y58005895D01*
X63927544Y58005895D02*
X63849449Y57966847D01*
D14*
X102960057Y47214762D02*
X102912438Y47119524D01*
X102912438Y47119524D02*
X102817200Y47024286D01*
X102817200Y47024286D02*
X102674342Y46881429D01*
X102674342Y46881429D02*
X102626723Y46786191D01*
X102626723Y46786191D02*
X102626723Y46690953D01*
X102864819Y46738572D02*
X102817200Y46643334D01*
X102817200Y46643334D02*
X102721961Y46548096D01*
X102721961Y46548096D02*
X102531485Y46500477D01*
X102531485Y46500477D02*
X102198152Y46500477D01*
X102198152Y46500477D02*
X102007676Y46548096D01*
X102007676Y46548096D02*
X101912438Y46643334D01*
X101912438Y46643334D02*
X101864819Y46738572D01*
X101864819Y46738572D02*
X101864819Y46929048D01*
X101864819Y46929048D02*
X101912438Y47024286D01*
X101912438Y47024286D02*
X102007676Y47119524D01*
X102007676Y47119524D02*
X102198152Y47167143D01*
X102198152Y47167143D02*
X102531485Y47167143D01*
X102531485Y47167143D02*
X102721961Y47119524D01*
X102721961Y47119524D02*
X102817200Y47024286D01*
X102817200Y47024286D02*
X102864819Y46929048D01*
X102864819Y46929048D02*
X102864819Y46738572D01*
X101864819Y47500477D02*
X101864819Y48119524D01*
X101864819Y48119524D02*
X102245771Y47786191D01*
X102245771Y47786191D02*
X102245771Y47929048D01*
X102245771Y47929048D02*
X102293390Y48024286D01*
X102293390Y48024286D02*
X102341009Y48071905D01*
X102341009Y48071905D02*
X102436247Y48119524D01*
X102436247Y48119524D02*
X102674342Y48119524D01*
X102674342Y48119524D02*
X102769580Y48071905D01*
X102769580Y48071905D02*
X102817200Y48024286D01*
X102817200Y48024286D02*
X102864819Y47929048D01*
X102864819Y47929048D02*
X102864819Y47643334D01*
X102864819Y47643334D02*
X102817200Y47548096D01*
X102817200Y47548096D02*
X102769580Y47500477D01*
X123350057Y41279762D02*
X123302438Y41184524D01*
X123302438Y41184524D02*
X123207200Y41089286D01*
X123207200Y41089286D02*
X123064342Y40946429D01*
X123064342Y40946429D02*
X123016723Y40851191D01*
X123016723Y40851191D02*
X123016723Y40755953D01*
X123254819Y40803572D02*
X123207200Y40708334D01*
X123207200Y40708334D02*
X123111961Y40613096D01*
X123111961Y40613096D02*
X122921485Y40565477D01*
X122921485Y40565477D02*
X122588152Y40565477D01*
X122588152Y40565477D02*
X122397676Y40613096D01*
X122397676Y40613096D02*
X122302438Y40708334D01*
X122302438Y40708334D02*
X122254819Y40803572D01*
X122254819Y40803572D02*
X122254819Y40994048D01*
X122254819Y40994048D02*
X122302438Y41089286D01*
X122302438Y41089286D02*
X122397676Y41184524D01*
X122397676Y41184524D02*
X122588152Y41232143D01*
X122588152Y41232143D02*
X122921485Y41232143D01*
X122921485Y41232143D02*
X123111961Y41184524D01*
X123111961Y41184524D02*
X123207200Y41089286D01*
X123207200Y41089286D02*
X123254819Y40994048D01*
X123254819Y40994048D02*
X123254819Y40803572D01*
X122254819Y42089286D02*
X122254819Y41898810D01*
X122254819Y41898810D02*
X122302438Y41803572D01*
X122302438Y41803572D02*
X122350057Y41755953D01*
X122350057Y41755953D02*
X122492914Y41660715D01*
X122492914Y41660715D02*
X122683390Y41613096D01*
X122683390Y41613096D02*
X123064342Y41613096D01*
X123064342Y41613096D02*
X123159580Y41660715D01*
X123159580Y41660715D02*
X123207200Y41708334D01*
X123207200Y41708334D02*
X123254819Y41803572D01*
X123254819Y41803572D02*
X123254819Y41994048D01*
X123254819Y41994048D02*
X123207200Y42089286D01*
X123207200Y42089286D02*
X123159580Y42136905D01*
X123159580Y42136905D02*
X123064342Y42184524D01*
X123064342Y42184524D02*
X122826247Y42184524D01*
X122826247Y42184524D02*
X122731009Y42136905D01*
X122731009Y42136905D02*
X122683390Y42089286D01*
X122683390Y42089286D02*
X122635771Y41994048D01*
X122635771Y41994048D02*
X122635771Y41803572D01*
X122635771Y41803572D02*
X122683390Y41708334D01*
X122683390Y41708334D02*
X122731009Y41660715D01*
X122731009Y41660715D02*
X122826247Y41613096D01*
D13*
X65138021Y61786848D02*
X65411355Y61396371D01*
X65606593Y61786848D02*
X65606593Y60966847D01*
X65606593Y60966847D02*
X65294212Y60966847D01*
X65294212Y60966847D02*
X65216117Y61005895D01*
X65216117Y61005895D02*
X65177069Y61044942D01*
X65177069Y61044942D02*
X65138021Y61123038D01*
X65138021Y61123038D02*
X65138021Y61240181D01*
X65138021Y61240181D02*
X65177069Y61318276D01*
X65177069Y61318276D02*
X65216117Y61357324D01*
X65216117Y61357324D02*
X65294212Y61396371D01*
X65294212Y61396371D02*
X65606593Y61396371D01*
X64357068Y61786848D02*
X64825640Y61786848D01*
X64591354Y61786848D02*
X64591354Y60966847D01*
X64591354Y60966847D02*
X64669449Y61083990D01*
X64669449Y61083990D02*
X64747545Y61162085D01*
X64747545Y61162085D02*
X64825640Y61201133D01*
X63576115Y61786848D02*
X64044687Y61786848D01*
X63810401Y61786848D02*
X63810401Y60966847D01*
X63810401Y60966847D02*
X63888496Y61083990D01*
X63888496Y61083990D02*
X63966592Y61162085D01*
X63966592Y61162085D02*
X64044687Y61201133D01*
D14*
X144654819Y86136906D02*
X145464342Y86136906D01*
X145464342Y86136906D02*
X145559580Y86184525D01*
X145559580Y86184525D02*
X145607200Y86232144D01*
X145607200Y86232144D02*
X145654819Y86327382D01*
X145654819Y86327382D02*
X145654819Y86517858D01*
X145654819Y86517858D02*
X145607200Y86613096D01*
X145607200Y86613096D02*
X145559580Y86660715D01*
X145559580Y86660715D02*
X145464342Y86708334D01*
X145464342Y86708334D02*
X144654819Y86708334D01*
X145654819Y87708334D02*
X145654819Y87136906D01*
X145654819Y87422620D02*
X144654819Y87422620D01*
X144654819Y87422620D02*
X144797676Y87327382D01*
X144797676Y87327382D02*
X144892914Y87232144D01*
X144892914Y87232144D02*
X144940533Y87136906D01*
X145654819Y88660715D02*
X145654819Y88089287D01*
X145654819Y88375001D02*
X144654819Y88375001D01*
X144654819Y88375001D02*
X144797676Y88279763D01*
X144797676Y88279763D02*
X144892914Y88184525D01*
X144892914Y88184525D02*
X144940533Y88089287D01*
X47416741Y45969428D02*
X47416741Y46569428D01*
X47416741Y46569428D02*
X47616741Y46140857D01*
X47616741Y46140857D02*
X47816741Y46569428D01*
X47816741Y46569428D02*
X47816741Y45969428D01*
X48073883Y46512285D02*
X48102455Y46540857D01*
X48102455Y46540857D02*
X48159598Y46569428D01*
X48159598Y46569428D02*
X48302455Y46569428D01*
X48302455Y46569428D02*
X48359598Y46540857D01*
X48359598Y46540857D02*
X48388169Y46512285D01*
X48388169Y46512285D02*
X48416740Y46455142D01*
X48416740Y46455142D02*
X48416740Y46397999D01*
X48416740Y46397999D02*
X48388169Y46312285D01*
X48388169Y46312285D02*
X48045312Y45969428D01*
X48045312Y45969428D02*
X48416740Y45969428D01*
X129754819Y40420834D02*
X129754819Y39944644D01*
X129754819Y39944644D02*
X128754819Y39944644D01*
X129754819Y41277977D02*
X129754819Y40706549D01*
X129754819Y40992263D02*
X128754819Y40992263D01*
X128754819Y40992263D02*
X128897676Y40897025D01*
X128897676Y40897025D02*
X128992914Y40801787D01*
X128992914Y40801787D02*
X129040533Y40706549D01*
X127754819Y40420834D02*
X127754819Y39944644D01*
X127754819Y39944644D02*
X126754819Y39944644D01*
X126850057Y40706549D02*
X126802438Y40754168D01*
X126802438Y40754168D02*
X126754819Y40849406D01*
X126754819Y40849406D02*
X126754819Y41087501D01*
X126754819Y41087501D02*
X126802438Y41182739D01*
X126802438Y41182739D02*
X126850057Y41230358D01*
X126850057Y41230358D02*
X126945295Y41277977D01*
X126945295Y41277977D02*
X127040533Y41277977D01*
X127040533Y41277977D02*
X127183390Y41230358D01*
X127183390Y41230358D02*
X127754819Y40658930D01*
X127754819Y40658930D02*
X127754819Y41277977D01*
D13*
X61638021Y64786848D02*
X61911355Y64396371D01*
X62106593Y64786848D02*
X62106593Y63966847D01*
X62106593Y63966847D02*
X61794212Y63966847D01*
X61794212Y63966847D02*
X61716117Y64005895D01*
X61716117Y64005895D02*
X61677069Y64044942D01*
X61677069Y64044942D02*
X61638021Y64123038D01*
X61638021Y64123038D02*
X61638021Y64240181D01*
X61638021Y64240181D02*
X61677069Y64318276D01*
X61677069Y64318276D02*
X61716117Y64357324D01*
X61716117Y64357324D02*
X61794212Y64396371D01*
X61794212Y64396371D02*
X62106593Y64396371D01*
X61247545Y64786848D02*
X61091354Y64786848D01*
X61091354Y64786848D02*
X61013259Y64747800D01*
X61013259Y64747800D02*
X60974211Y64708753D01*
X60974211Y64708753D02*
X60896116Y64591610D01*
X60896116Y64591610D02*
X60857068Y64435419D01*
X60857068Y64435419D02*
X60857068Y64123038D01*
X60857068Y64123038D02*
X60896116Y64044942D01*
X60896116Y64044942D02*
X60935163Y64005895D01*
X60935163Y64005895D02*
X61013259Y63966847D01*
X61013259Y63966847D02*
X61169449Y63966847D01*
X61169449Y63966847D02*
X61247545Y64005895D01*
X61247545Y64005895D02*
X61286592Y64044942D01*
X61286592Y64044942D02*
X61325640Y64123038D01*
X61325640Y64123038D02*
X61325640Y64318276D01*
X61325640Y64318276D02*
X61286592Y64396371D01*
X61286592Y64396371D02*
X61247545Y64435419D01*
X61247545Y64435419D02*
X61169449Y64474467D01*
X61169449Y64474467D02*
X61013259Y64474467D01*
X61013259Y64474467D02*
X60935163Y64435419D01*
X60935163Y64435419D02*
X60896116Y64396371D01*
X60896116Y64396371D02*
X60857068Y64318276D01*
D14*
X21254819Y34136906D02*
X22064342Y34136906D01*
X22064342Y34136906D02*
X22159580Y34184525D01*
X22159580Y34184525D02*
X22207200Y34232144D01*
X22207200Y34232144D02*
X22254819Y34327382D01*
X22254819Y34327382D02*
X22254819Y34517858D01*
X22254819Y34517858D02*
X22207200Y34613096D01*
X22207200Y34613096D02*
X22159580Y34660715D01*
X22159580Y34660715D02*
X22064342Y34708334D01*
X22064342Y34708334D02*
X21254819Y34708334D01*
X22254819Y35708334D02*
X22254819Y35136906D01*
X22254819Y35422620D02*
X21254819Y35422620D01*
X21254819Y35422620D02*
X21397676Y35327382D01*
X21397676Y35327382D02*
X21492914Y35232144D01*
X21492914Y35232144D02*
X21540533Y35136906D01*
X21254819Y36327382D02*
X21254819Y36422620D01*
X21254819Y36422620D02*
X21302438Y36517858D01*
X21302438Y36517858D02*
X21350057Y36565477D01*
X21350057Y36565477D02*
X21445295Y36613096D01*
X21445295Y36613096D02*
X21635771Y36660715D01*
X21635771Y36660715D02*
X21873866Y36660715D01*
X21873866Y36660715D02*
X22064342Y36613096D01*
X22064342Y36613096D02*
X22159580Y36565477D01*
X22159580Y36565477D02*
X22207200Y36517858D01*
X22207200Y36517858D02*
X22254819Y36422620D01*
X22254819Y36422620D02*
X22254819Y36327382D01*
X22254819Y36327382D02*
X22207200Y36232144D01*
X22207200Y36232144D02*
X22159580Y36184525D01*
X22159580Y36184525D02*
X22064342Y36136906D01*
X22064342Y36136906D02*
X21873866Y36089287D01*
X21873866Y36089287D02*
X21635771Y36089287D01*
X21635771Y36089287D02*
X21445295Y36136906D01*
X21445295Y36136906D02*
X21350057Y36184525D01*
X21350057Y36184525D02*
X21302438Y36232144D01*
X21302438Y36232144D02*
X21254819Y36327382D01*
X84154819Y58113096D02*
X84964342Y58113096D01*
X84964342Y58113096D02*
X85059580Y58160715D01*
X85059580Y58160715D02*
X85107200Y58208334D01*
X85107200Y58208334D02*
X85154819Y58303572D01*
X85154819Y58303572D02*
X85154819Y58494048D01*
X85154819Y58494048D02*
X85107200Y58589286D01*
X85107200Y58589286D02*
X85059580Y58636905D01*
X85059580Y58636905D02*
X84964342Y58684524D01*
X84964342Y58684524D02*
X84154819Y58684524D01*
X85154819Y59208334D02*
X85154819Y59398810D01*
X85154819Y59398810D02*
X85107200Y59494048D01*
X85107200Y59494048D02*
X85059580Y59541667D01*
X85059580Y59541667D02*
X84916723Y59636905D01*
X84916723Y59636905D02*
X84726247Y59684524D01*
X84726247Y59684524D02*
X84345295Y59684524D01*
X84345295Y59684524D02*
X84250057Y59636905D01*
X84250057Y59636905D02*
X84202438Y59589286D01*
X84202438Y59589286D02*
X84154819Y59494048D01*
X84154819Y59494048D02*
X84154819Y59303572D01*
X84154819Y59303572D02*
X84202438Y59208334D01*
X84202438Y59208334D02*
X84250057Y59160715D01*
X84250057Y59160715D02*
X84345295Y59113096D01*
X84345295Y59113096D02*
X84583390Y59113096D01*
X84583390Y59113096D02*
X84678628Y59160715D01*
X84678628Y59160715D02*
X84726247Y59208334D01*
X84726247Y59208334D02*
X84773866Y59303572D01*
X84773866Y59303572D02*
X84773866Y59494048D01*
X84773866Y59494048D02*
X84726247Y59589286D01*
X84726247Y59589286D02*
X84678628Y59636905D01*
X84678628Y59636905D02*
X84583390Y59684524D01*
D13*
X14536985Y44255093D02*
X14146509Y43981760D01*
X14536985Y43786522D02*
X13716985Y43786522D01*
X13716985Y43786522D02*
X13716985Y44098903D01*
X13716985Y44098903D02*
X13756033Y44176998D01*
X13756033Y44176998D02*
X13795080Y44216045D01*
X13795080Y44216045D02*
X13873176Y44255093D01*
X13873176Y44255093D02*
X13990318Y44255093D01*
X13990318Y44255093D02*
X14068414Y44216045D01*
X14068414Y44216045D02*
X14107461Y44176998D01*
X14107461Y44176998D02*
X14146509Y44098903D01*
X14146509Y44098903D02*
X14146509Y43786522D01*
X13716985Y44996998D02*
X13716985Y44606522D01*
X13716985Y44606522D02*
X14107461Y44567474D01*
X14107461Y44567474D02*
X14068414Y44606522D01*
X14068414Y44606522D02*
X14029366Y44684617D01*
X14029366Y44684617D02*
X14029366Y44879855D01*
X14029366Y44879855D02*
X14068414Y44957950D01*
X14068414Y44957950D02*
X14107461Y44996998D01*
X14107461Y44996998D02*
X14185557Y45036045D01*
X14185557Y45036045D02*
X14380795Y45036045D01*
X14380795Y45036045D02*
X14458890Y44996998D01*
X14458890Y44996998D02*
X14497938Y44957950D01*
X14497938Y44957950D02*
X14536985Y44879855D01*
X14536985Y44879855D02*
X14536985Y44684617D01*
X14536985Y44684617D02*
X14497938Y44606522D01*
X14497938Y44606522D02*
X14458890Y44567474D01*
X13990318Y45738902D02*
X14536985Y45738902D01*
X13677938Y45543664D02*
X14263652Y45348426D01*
X14263652Y45348426D02*
X14263652Y45856045D01*
X18759907Y47951986D02*
X19033240Y47561510D01*
X19228478Y47951986D02*
X19228478Y47131986D01*
X19228478Y47131986D02*
X18916097Y47131986D01*
X18916097Y47131986D02*
X18838002Y47171034D01*
X18838002Y47171034D02*
X18798955Y47210081D01*
X18798955Y47210081D02*
X18759907Y47288177D01*
X18759907Y47288177D02*
X18759907Y47405319D01*
X18759907Y47405319D02*
X18798955Y47483415D01*
X18798955Y47483415D02*
X18838002Y47522462D01*
X18838002Y47522462D02*
X18916097Y47561510D01*
X18916097Y47561510D02*
X19228478Y47561510D01*
X17978955Y47951986D02*
X18447526Y47951986D01*
X18213240Y47951986D02*
X18213240Y47131986D01*
X18213240Y47131986D02*
X18291336Y47249129D01*
X18291336Y47249129D02*
X18369431Y47327224D01*
X18369431Y47327224D02*
X18447526Y47366272D01*
X17237050Y47131986D02*
X17627526Y47131986D01*
X17627526Y47131986D02*
X17666574Y47522462D01*
X17666574Y47522462D02*
X17627526Y47483415D01*
X17627526Y47483415D02*
X17549431Y47444367D01*
X17549431Y47444367D02*
X17354193Y47444367D01*
X17354193Y47444367D02*
X17276098Y47483415D01*
X17276098Y47483415D02*
X17237050Y47522462D01*
X17237050Y47522462D02*
X17198003Y47600558D01*
X17198003Y47600558D02*
X17198003Y47795796D01*
X17198003Y47795796D02*
X17237050Y47873891D01*
X17237050Y47873891D02*
X17276098Y47912938D01*
X17276098Y47912938D02*
X17354193Y47951986D01*
X17354193Y47951986D02*
X17549431Y47951986D01*
X17549431Y47951986D02*
X17627526Y47912938D01*
X17627526Y47912938D02*
X17666574Y47873891D01*
X130487287Y61599348D02*
X130448240Y61638396D01*
X130448240Y61638396D02*
X130409192Y61755539D01*
X130409192Y61755539D02*
X130409192Y61833634D01*
X130409192Y61833634D02*
X130448240Y61950777D01*
X130448240Y61950777D02*
X130526335Y62028872D01*
X130526335Y62028872D02*
X130604430Y62067920D01*
X130604430Y62067920D02*
X130760621Y62106968D01*
X130760621Y62106968D02*
X130877764Y62106968D01*
X130877764Y62106968D02*
X131033955Y62067920D01*
X131033955Y62067920D02*
X131112050Y62028872D01*
X131112050Y62028872D02*
X131190145Y61950777D01*
X131190145Y61950777D02*
X131229193Y61833634D01*
X131229193Y61833634D02*
X131229193Y61755539D01*
X131229193Y61755539D02*
X131190145Y61638396D01*
X131190145Y61638396D02*
X131151098Y61599348D01*
X131229193Y61326014D02*
X131229193Y60818395D01*
X131229193Y60818395D02*
X130916812Y61091728D01*
X130916812Y61091728D02*
X130916812Y60974585D01*
X130916812Y60974585D02*
X130877764Y60896490D01*
X130877764Y60896490D02*
X130838716Y60857442D01*
X130838716Y60857442D02*
X130760621Y60818395D01*
X130760621Y60818395D02*
X130565383Y60818395D01*
X130565383Y60818395D02*
X130487287Y60857442D01*
X130487287Y60857442D02*
X130448240Y60896490D01*
X130448240Y60896490D02*
X130409192Y60974585D01*
X130409192Y60974585D02*
X130409192Y61208871D01*
X130409192Y61208871D02*
X130448240Y61286967D01*
X130448240Y61286967D02*
X130487287Y61326014D01*
X130409192Y60037442D02*
X130409192Y60506014D01*
X130409192Y60271728D02*
X131229193Y60271728D01*
X131229193Y60271728D02*
X131112050Y60349823D01*
X131112050Y60349823D02*
X131033955Y60427918D01*
X131033955Y60427918D02*
X130994907Y60506014D01*
D14*
X21250057Y44619762D02*
X21202438Y44524524D01*
X21202438Y44524524D02*
X21107200Y44429286D01*
X21107200Y44429286D02*
X20964342Y44286429D01*
X20964342Y44286429D02*
X20916723Y44191191D01*
X20916723Y44191191D02*
X20916723Y44095953D01*
X21154819Y44143572D02*
X21107200Y44048334D01*
X21107200Y44048334D02*
X21011961Y43953096D01*
X21011961Y43953096D02*
X20821485Y43905477D01*
X20821485Y43905477D02*
X20488152Y43905477D01*
X20488152Y43905477D02*
X20297676Y43953096D01*
X20297676Y43953096D02*
X20202438Y44048334D01*
X20202438Y44048334D02*
X20154819Y44143572D01*
X20154819Y44143572D02*
X20154819Y44334048D01*
X20154819Y44334048D02*
X20202438Y44429286D01*
X20202438Y44429286D02*
X20297676Y44524524D01*
X20297676Y44524524D02*
X20488152Y44572143D01*
X20488152Y44572143D02*
X20821485Y44572143D01*
X20821485Y44572143D02*
X21011961Y44524524D01*
X21011961Y44524524D02*
X21107200Y44429286D01*
X21107200Y44429286D02*
X21154819Y44334048D01*
X21154819Y44334048D02*
X21154819Y44143572D01*
X20154819Y44905477D02*
X20154819Y45572143D01*
X20154819Y45572143D02*
X21154819Y45143572D01*
D13*
X65138021Y64786848D02*
X65411355Y64396371D01*
X65606593Y64786848D02*
X65606593Y63966847D01*
X65606593Y63966847D02*
X65294212Y63966847D01*
X65294212Y63966847D02*
X65216117Y64005895D01*
X65216117Y64005895D02*
X65177069Y64044942D01*
X65177069Y64044942D02*
X65138021Y64123038D01*
X65138021Y64123038D02*
X65138021Y64240181D01*
X65138021Y64240181D02*
X65177069Y64318276D01*
X65177069Y64318276D02*
X65216117Y64357324D01*
X65216117Y64357324D02*
X65294212Y64396371D01*
X65294212Y64396371D02*
X65606593Y64396371D01*
X64357068Y64786848D02*
X64825640Y64786848D01*
X64591354Y64786848D02*
X64591354Y63966847D01*
X64591354Y63966847D02*
X64669449Y64083990D01*
X64669449Y64083990D02*
X64747545Y64162085D01*
X64747545Y64162085D02*
X64825640Y64201133D01*
X64044687Y64044942D02*
X64005639Y64005895D01*
X64005639Y64005895D02*
X63927544Y63966847D01*
X63927544Y63966847D02*
X63732306Y63966847D01*
X63732306Y63966847D02*
X63654210Y64005895D01*
X63654210Y64005895D02*
X63615163Y64044942D01*
X63615163Y64044942D02*
X63576115Y64123038D01*
X63576115Y64123038D02*
X63576115Y64201133D01*
X63576115Y64201133D02*
X63615163Y64318276D01*
X63615163Y64318276D02*
X64083735Y64786848D01*
X64083735Y64786848D02*
X63576115Y64786848D01*
D14*
X111155057Y47214762D02*
X111107438Y47119524D01*
X111107438Y47119524D02*
X111012200Y47024286D01*
X111012200Y47024286D02*
X110869342Y46881429D01*
X110869342Y46881429D02*
X110821723Y46786191D01*
X110821723Y46786191D02*
X110821723Y46690953D01*
X111059819Y46738572D02*
X111012200Y46643334D01*
X111012200Y46643334D02*
X110916961Y46548096D01*
X110916961Y46548096D02*
X110726485Y46500477D01*
X110726485Y46500477D02*
X110393152Y46500477D01*
X110393152Y46500477D02*
X110202676Y46548096D01*
X110202676Y46548096D02*
X110107438Y46643334D01*
X110107438Y46643334D02*
X110059819Y46738572D01*
X110059819Y46738572D02*
X110059819Y46929048D01*
X110059819Y46929048D02*
X110107438Y47024286D01*
X110107438Y47024286D02*
X110202676Y47119524D01*
X110202676Y47119524D02*
X110393152Y47167143D01*
X110393152Y47167143D02*
X110726485Y47167143D01*
X110726485Y47167143D02*
X110916961Y47119524D01*
X110916961Y47119524D02*
X111012200Y47024286D01*
X111012200Y47024286D02*
X111059819Y46929048D01*
X111059819Y46929048D02*
X111059819Y46738572D01*
X110393152Y48024286D02*
X111059819Y48024286D01*
X110012200Y47786191D02*
X110726485Y47548096D01*
X110726485Y47548096D02*
X110726485Y48167143D01*
X99019819Y58113096D02*
X99829342Y58113096D01*
X99829342Y58113096D02*
X99924580Y58160715D01*
X99924580Y58160715D02*
X99972200Y58208334D01*
X99972200Y58208334D02*
X100019819Y58303572D01*
X100019819Y58303572D02*
X100019819Y58494048D01*
X100019819Y58494048D02*
X99972200Y58589286D01*
X99972200Y58589286D02*
X99924580Y58636905D01*
X99924580Y58636905D02*
X99829342Y58684524D01*
X99829342Y58684524D02*
X99019819Y58684524D01*
X99019819Y59589286D02*
X99019819Y59398810D01*
X99019819Y59398810D02*
X99067438Y59303572D01*
X99067438Y59303572D02*
X99115057Y59255953D01*
X99115057Y59255953D02*
X99257914Y59160715D01*
X99257914Y59160715D02*
X99448390Y59113096D01*
X99448390Y59113096D02*
X99829342Y59113096D01*
X99829342Y59113096D02*
X99924580Y59160715D01*
X99924580Y59160715D02*
X99972200Y59208334D01*
X99972200Y59208334D02*
X100019819Y59303572D01*
X100019819Y59303572D02*
X100019819Y59494048D01*
X100019819Y59494048D02*
X99972200Y59589286D01*
X99972200Y59589286D02*
X99924580Y59636905D01*
X99924580Y59636905D02*
X99829342Y59684524D01*
X99829342Y59684524D02*
X99591247Y59684524D01*
X99591247Y59684524D02*
X99496009Y59636905D01*
X99496009Y59636905D02*
X99448390Y59589286D01*
X99448390Y59589286D02*
X99400771Y59494048D01*
X99400771Y59494048D02*
X99400771Y59303572D01*
X99400771Y59303572D02*
X99448390Y59208334D01*
X99448390Y59208334D02*
X99496009Y59160715D01*
X99496009Y59160715D02*
X99591247Y59113096D01*
D11*
G04 #@! TO.C,C32*
X132649986Y58375000D02*
X131900001Y58375000D01*
G04 #@! TO.C,M7*
X118587501Y97693340D02*
X118587501Y90807011D01*
X129487495Y97693340D02*
X118587501Y97693340D01*
X129487497Y97693337D02*
X129487495Y97693340D01*
X129487497Y97693337D02*
X129487497Y96818343D01*
X129762501Y96543339D02*
X129487497Y96818343D01*
X129762501Y96543339D02*
X129762501Y90845858D01*
X129762501Y90845858D02*
X118587501Y90807011D01*
D16*
G04 #@! TO.C,R1*
X55429160Y47576056D02*
X55429149Y47176057D01*
X56174995Y47575000D02*
X56174985Y47175000D01*
D14*
G04 #@! TO.C,J22*
X111425000Y103125000D02*
X111425000Y102125000D01*
X111725000Y104925000D02*
X111725000Y97125000D01*
X111725000Y97125000D02*
X112325000Y97125000D01*
X112325000Y104925000D02*
X111725000Y104925000D01*
X115225000Y104925000D02*
X115825000Y104925000D01*
X115825000Y104925000D02*
X115825000Y97125000D01*
X115825000Y97125000D02*
X115225000Y97125000D01*
D17*
G04 #@! TO.C,D5*
X7650000Y41725000D02*
X7650000Y36215000D01*
X10950000Y41725000D02*
X7650000Y41725000D01*
X10950000Y41725000D02*
X10950000Y36215000D01*
D11*
G04 #@! TO.C,C28*
X127509999Y46525014D02*
X127509999Y47274999D01*
D17*
G04 #@! TO.C,U8*
X124240000Y59875000D02*
X124240000Y61825000D01*
X124240000Y59875000D02*
X124240000Y57925000D01*
X129360000Y59875000D02*
X129360000Y61825000D01*
X129360000Y59875000D02*
X129360000Y57925000D01*
X124335000Y57175000D02*
X124005000Y56935000D01*
X124005000Y57415000D01*
X124335000Y57175000D01*
G36*
X124335000Y57175000D02*
G01*
X124005000Y56935000D01*
X124005000Y57415000D01*
X124335000Y57175000D01*
G37*
G04 #@! TO.C,F1*
X133800000Y42475000D02*
X133800000Y47325000D01*
X135800000Y42475000D02*
X135800000Y47325000D01*
X133800000Y47325000D02*
G75*
G02*
X135800000Y47325000I1000000J0D01*
G01*
X135800000Y42425000D02*
G75*
G02*
X133800000Y42425000I-1000000J0D01*
G01*
G04 #@! TO.C,F3*
X47400000Y67375000D02*
X52250000Y67375000D01*
X47400000Y65375000D02*
X52250000Y65375000D01*
X47350000Y65375000D02*
G75*
G02*
X47350000Y67375000I0J1000000D01*
G01*
X52250000Y67375000D02*
G75*
G02*
X52250000Y65375000I0J-1000000D01*
G01*
G04 #@! TO.C,Q1*
X78070000Y50620000D02*
X78340000Y50620000D01*
X78070000Y44200000D02*
X78070000Y50620000D01*
X84970000Y50620000D02*
X84700000Y50620000D01*
X84970000Y44200000D02*
X84970000Y50620000D01*
X85130000Y52010000D02*
X84660000Y52350000D01*
X85130000Y52690000D01*
X85130000Y52010000D01*
G36*
X85130000Y52010000D02*
G01*
X84660000Y52350000D01*
X85130000Y52690000D01*
X85130000Y52010000D01*
G37*
G04 #@! TO.C,F2*
X131300000Y42475000D02*
X131300000Y47325000D01*
X133300000Y42475000D02*
X133300000Y47325000D01*
X131300000Y47325000D02*
G75*
G02*
X133300000Y47325000I1000000J0D01*
G01*
X133300000Y42425000D02*
G75*
G02*
X131300000Y42425000I-1000000J0D01*
G01*
G04 #@! TO.C,U3*
X86240000Y58875000D02*
X86240000Y60825000D01*
X86240000Y58875000D02*
X86240000Y56925000D01*
X91360000Y58875000D02*
X91360000Y60825000D01*
X91360000Y58875000D02*
X91360000Y56925000D01*
X91595000Y61335000D02*
X91265000Y61575000D01*
X91595000Y61815000D01*
X91595000Y61335000D01*
G36*
X91595000Y61335000D02*
G01*
X91265000Y61575000D01*
X91595000Y61815000D01*
X91595000Y61335000D01*
G37*
D11*
G04 #@! TO.C,C30*
X129590001Y48224986D02*
X129590001Y47475001D01*
G04 #@! TO.C,M5*
X42875000Y41500000D02*
X28975000Y41500000D01*
X28975000Y69000000D01*
X42875000Y69000000D01*
X42875000Y41500000D01*
D16*
G04 #@! TO.C,R5*
X68925005Y59475000D02*
X68925015Y59875000D01*
X69670840Y59473944D02*
X69670851Y59873943D01*
G04 #@! TO.C,M8*
D18*
X54375000Y61100000D02*
X44475000Y61100000D01*
X44475000Y47400000D01*
X54375000Y47400000D01*
X54375000Y61100000D01*
D17*
G04 #@! TO.C,U5*
X100740000Y58875000D02*
X100740000Y60825000D01*
X100740000Y58875000D02*
X100740000Y56925000D01*
X105860000Y58875000D02*
X105860000Y60825000D01*
X105860000Y58875000D02*
X105860000Y56925000D01*
X106095000Y61335000D02*
X105765000Y61575000D01*
X106095000Y61815000D01*
X106095000Y61335000D01*
G36*
X106095000Y61335000D02*
G01*
X105765000Y61575000D01*
X106095000Y61815000D01*
X106095000Y61335000D01*
G37*
G04 #@! TO.C,J21*
X117740000Y103935000D02*
X117740000Y99815000D01*
X117740000Y99815000D02*
X132860000Y99815000D01*
X118740000Y104935000D02*
X117740000Y103935000D01*
X132860000Y104935000D02*
X118740000Y104935000D01*
X132860000Y99815000D02*
X132860000Y104935000D01*
X133160000Y105235000D02*
X130750000Y105235000D01*
X133160000Y102825000D02*
X133160000Y105235000D01*
D16*
G04 #@! TO.C,R6*
X70925005Y59475000D02*
X70925015Y59875000D01*
X71670840Y59473944D02*
X71670851Y59873943D01*
D11*
G04 #@! TO.C,R8*
X61500000Y62224999D02*
X61100000Y62224999D01*
X61504389Y63527927D02*
X61104389Y63527927D01*
G04 #@! TO.C,M3*
X67875000Y56400000D02*
X67875000Y42000000D01*
X67875000Y42000000D02*
X74275000Y42000000D01*
X77475000Y57000000D02*
X72375000Y57000000D01*
X77475000Y42000000D02*
X76175000Y42000000D01*
X77475000Y42000000D02*
X77475000Y57000000D01*
G04 #@! TO.C,C29*
X129800000Y54724986D02*
X129800000Y53975001D01*
D17*
G04 #@! TO.C,Q5*
X110850000Y50620000D02*
X111120000Y50620000D01*
X110850000Y44200000D02*
X110850000Y50620000D01*
X117750000Y50620000D02*
X117480000Y50620000D01*
X117750000Y44200000D02*
X117750000Y50620000D01*
X117910000Y52010000D02*
X117440000Y52350000D01*
X117910000Y52690000D01*
X117910000Y52010000D01*
G36*
X117910000Y52010000D02*
G01*
X117440000Y52350000D01*
X117910000Y52690000D01*
X117910000Y52010000D01*
G37*
G04 #@! TO.C,Q2*
X86265000Y50620000D02*
X86535000Y50620000D01*
X86265000Y44200000D02*
X86265000Y50620000D01*
X93165000Y50620000D02*
X92895000Y50620000D01*
X93165000Y44200000D02*
X93165000Y50620000D01*
X93325000Y52010000D02*
X92855000Y52350000D01*
X93325000Y52690000D01*
X93325000Y52010000D01*
G36*
X93325000Y52010000D02*
G01*
X92855000Y52350000D01*
X93325000Y52690000D01*
X93325000Y52010000D01*
G37*
D11*
G04 #@! TO.C,M1*
X114899999Y69075001D02*
X114899999Y68775003D01*
X114900001Y87925003D02*
X114899996Y86375003D01*
X114900001Y84375001D02*
X114900001Y83274998D01*
X114900001Y81675003D02*
X114900001Y78975003D01*
X114900001Y75475001D02*
X114900001Y70675001D01*
X130199998Y68775005D02*
X114899999Y68775003D01*
X131699998Y89375003D02*
X116299998Y89375003D01*
X131699998Y89375003D02*
X131699998Y89075003D01*
X131699998Y87475003D02*
X131699998Y77075001D01*
X131699998Y75375003D02*
X131699998Y72175000D01*
G04 #@! TO.C,M4*
X57700000Y56212500D02*
X57700000Y41812500D01*
X57700000Y41812500D02*
X64100000Y41812500D01*
X67300000Y56812500D02*
X62200000Y56812500D01*
X67300000Y41812500D02*
X66000000Y41812500D01*
X67300000Y41812500D02*
X67300000Y56812500D01*
G04 #@! TO.C,R7*
X61500000Y59224999D02*
X61100000Y59224999D01*
X61504389Y60527927D02*
X61104389Y60527927D01*
D17*
G04 #@! TO.C,D6*
X128240000Y51375000D02*
X128240000Y52025000D01*
X128240000Y51375000D02*
X128240000Y50725000D01*
X131360000Y51375000D02*
X131360000Y52025000D01*
X131360000Y51375000D02*
X131360000Y50725000D01*
X128290000Y50212500D02*
X127960000Y49972500D01*
X127960000Y50452500D01*
X128290000Y50212500D01*
G36*
X128290000Y50212500D02*
G01*
X127960000Y49972500D01*
X127960000Y50452500D01*
X128290000Y50212500D01*
G37*
G04 #@! TO.C,U7*
X114645000Y58875000D02*
X114645000Y60825000D01*
X114645000Y58875000D02*
X114645000Y56925000D01*
X119765000Y58875000D02*
X119765000Y60825000D01*
X119765000Y58875000D02*
X119765000Y56925000D01*
X120000000Y61335000D02*
X119670000Y61575000D01*
X120000000Y61815000D01*
X120000000Y61335000D01*
G36*
X120000000Y61335000D02*
G01*
X119670000Y61575000D01*
X120000000Y61815000D01*
X120000000Y61335000D01*
G37*
G04 #@! TO.C,U4*
X107240000Y58875000D02*
X107240000Y60825000D01*
X107240000Y58875000D02*
X107240000Y56925000D01*
X112360000Y58875000D02*
X112360000Y60825000D01*
X112360000Y58875000D02*
X112360000Y56925000D01*
X112595000Y61335000D02*
X112265000Y61575000D01*
X112595000Y61815000D01*
X112595000Y61335000D01*
G36*
X112595000Y61335000D02*
G01*
X112265000Y61575000D01*
X112595000Y61815000D01*
X112595000Y61335000D01*
G37*
D19*
G04 #@! TO.C,R4*
X112000000Y92833001D02*
X112000000Y93849001D01*
X112000000Y90801001D02*
X112000000Y91817001D01*
X113600000Y93849001D02*
X113600000Y92833001D01*
X113600000Y91817001D02*
X113600000Y90801001D01*
D17*
X112000000Y93900001D02*
G75*
G02*
X113601638Y93904001I800000J330000D01*
G01*
X113603495Y90741399D02*
G75*
G02*
X112000000Y90750001I-803495J-321398D01*
G01*
D11*
G04 #@! TO.C,R10*
X65000000Y59224999D02*
X64600000Y59224999D01*
X65004389Y60527927D02*
X64604389Y60527927D01*
D17*
G04 #@! TO.C,Q3*
X94460000Y50620000D02*
X94730000Y50620000D01*
X94460000Y44200000D02*
X94460000Y50620000D01*
X101360000Y50620000D02*
X101090000Y50620000D01*
X101360000Y44200000D02*
X101360000Y50620000D01*
X101520000Y52010000D02*
X101050000Y52350000D01*
X101520000Y52690000D01*
X101520000Y52010000D01*
G36*
X101520000Y52010000D02*
G01*
X101050000Y52350000D01*
X101520000Y52690000D01*
X101520000Y52010000D01*
G37*
G04 #@! TO.C,Q6*
X119045000Y50620000D02*
X119315000Y50620000D01*
X119045000Y44200000D02*
X119045000Y50620000D01*
X125945000Y50620000D02*
X125675000Y50620000D01*
X125945000Y44200000D02*
X125945000Y50620000D01*
X126105000Y52010000D02*
X125635000Y52350000D01*
X126105000Y52690000D01*
X126105000Y52010000D01*
G36*
X126105000Y52010000D02*
G01*
X125635000Y52350000D01*
X126105000Y52690000D01*
X126105000Y52010000D01*
G37*
D11*
G04 #@! TO.C,R11*
X65000000Y62224999D02*
X64600000Y62224999D01*
X65004389Y63527927D02*
X64604389Y63527927D01*
G04 #@! TO.C,M6*
X76024995Y105399985D02*
X109825005Y105399985D01*
X76024995Y69599995D02*
X76024995Y105399985D01*
X76024995Y69599995D02*
X109824995Y69599995D01*
X109825005Y69599995D02*
X109825005Y105399985D01*
D17*
G04 #@! TO.C,U11*
X139240000Y87375000D02*
X139240000Y89325000D01*
X139240000Y87375000D02*
X139240000Y85425000D01*
X144360000Y87375000D02*
X144360000Y89325000D01*
X144360000Y87375000D02*
X144360000Y85425000D01*
X144595000Y89835000D02*
X144265000Y90075000D01*
X144595000Y90315000D01*
X144595000Y89835000D01*
G36*
X144595000Y89835000D02*
G01*
X144265000Y90075000D01*
X144595000Y90315000D01*
X144595000Y89835000D01*
G37*
D11*
G04 #@! TO.C,M2*
X47375000Y45050002D02*
X56475000Y45050002D01*
X47375000Y41949999D02*
X47375000Y42950001D01*
X47375000Y41949999D02*
X56475000Y41949999D01*
D17*
G04 #@! TO.C,L1*
X128790000Y43212221D02*
X128790000Y43537779D01*
X129810000Y43212221D02*
X129810000Y43537779D01*
G04 #@! TO.C,L2*
X126790000Y43212221D02*
X126790000Y43537779D01*
X127810000Y43212221D02*
X127810000Y43537779D01*
D11*
G04 #@! TO.C,R9*
X61500000Y65224999D02*
X61100000Y65224999D01*
X61504389Y66527927D02*
X61104389Y66527927D01*
D17*
G04 #@! TO.C,U10*
X13850000Y38685000D02*
X14320000Y38685000D01*
X13850000Y32265000D02*
X13850000Y38685000D01*
X20750000Y38685000D02*
X20280000Y38685000D01*
X20750000Y32265000D02*
X20750000Y38685000D01*
X20710000Y40075000D02*
X20240000Y40415000D01*
X20710000Y40755000D01*
X20710000Y40075000D01*
G36*
X20710000Y40075000D02*
G01*
X20240000Y40415000D01*
X20710000Y40755000D01*
X20710000Y40075000D01*
G37*
G04 #@! TO.C,U9*
X78740000Y58875000D02*
X78740000Y60825000D01*
X78740000Y58875000D02*
X78740000Y56925000D01*
X83860000Y58875000D02*
X83860000Y60825000D01*
X83860000Y58875000D02*
X83860000Y56925000D01*
X84095000Y61335000D02*
X83765000Y61575000D01*
X84095000Y61815000D01*
X84095000Y61335000D01*
G36*
X84095000Y61335000D02*
G01*
X83765000Y61575000D01*
X84095000Y61815000D01*
X84095000Y61335000D01*
G37*
D16*
G04 #@! TO.C,R54*
X14925005Y44515000D02*
X14925015Y44915000D01*
X15670840Y44513944D02*
X15670851Y44913943D01*
G04 #@! TO.C,R15*
X18500000Y48340005D02*
X18100000Y48340015D01*
X18501056Y49085840D02*
X18101057Y49085851D01*
D11*
G04 #@! TO.C,C31*
X131149986Y58375000D02*
X130400001Y58375000D01*
D17*
G04 #@! TO.C,Q7*
X16740000Y44715000D02*
X16740000Y45365000D01*
X16740000Y44715000D02*
X16740000Y44065000D01*
X19860000Y44715000D02*
X19860000Y45365000D01*
X19860000Y44715000D02*
X19860000Y44065000D01*
X20140000Y45637500D02*
X19810000Y45877500D01*
X20140000Y46117500D01*
X20140000Y45637500D01*
G36*
X20140000Y45637500D02*
G01*
X19810000Y45877500D01*
X20140000Y46117500D01*
X20140000Y45637500D01*
G37*
D11*
G04 #@! TO.C,R12*
X65000000Y65224999D02*
X64600000Y65224999D01*
X65004389Y66527927D02*
X64604389Y66527927D01*
D17*
G04 #@! TO.C,Q4*
X102655000Y50620000D02*
X102925000Y50620000D01*
X102655000Y44200000D02*
X102655000Y50620000D01*
X109555000Y50620000D02*
X109285000Y50620000D01*
X109555000Y44200000D02*
X109555000Y50620000D01*
X109715000Y52010000D02*
X109245000Y52350000D01*
X109715000Y52690000D01*
X109715000Y52010000D01*
G36*
X109715000Y52010000D02*
G01*
X109245000Y52350000D01*
X109715000Y52690000D01*
X109715000Y52010000D01*
G37*
G04 #@! TO.C,U6*
X93605000Y58875000D02*
X93605000Y60825000D01*
X93605000Y58875000D02*
X93605000Y56925000D01*
X98725000Y58875000D02*
X98725000Y60825000D01*
X98725000Y58875000D02*
X98725000Y56925000D01*
X98960000Y61335000D02*
X98630000Y61575000D01*
X98960000Y61815000D01*
X98960000Y61335000D01*
G36*
X98960000Y61335000D02*
G01*
X98630000Y61575000D01*
X98960000Y61815000D01*
X98960000Y61335000D01*
G37*
G04 #@! TD*
D20*
G04 #@! TO.C,P1*
X18648000Y5492000D03*
D21*
X21098000Y13292000D03*
D20*
X93148000Y5492000D03*
D21*
X142898000Y13292000D03*
D20*
X145348000Y5492000D03*
D22*
X25748000Y10492000D03*
X31548000Y10492000D03*
X28648000Y12822000D03*
X25748000Y18622000D03*
X31548000Y18622000D03*
D23*
X85168000Y18622000D03*
X82628000Y18622000D03*
X80088000Y18622000D03*
X77548000Y18622000D03*
X75008000Y18622000D03*
X72468000Y18622000D03*
X69928000Y18622000D03*
X67388000Y18622000D03*
X64848000Y18622000D03*
X62308000Y18622000D03*
X59768000Y18622000D03*
X57228000Y18622000D03*
X54688000Y18622000D03*
X52148000Y18622000D03*
X49608000Y18622000D03*
X47068000Y18622000D03*
X44528000Y18622000D03*
X41988000Y18622000D03*
X39448000Y18622000D03*
X85168000Y16082000D03*
X82628000Y16082000D03*
X80088000Y16082000D03*
X77548000Y16082000D03*
X75008000Y16082000D03*
X72468000Y16082000D03*
X69928000Y16082000D03*
X67388000Y16082000D03*
X64848000Y16082000D03*
X62308000Y16082000D03*
X59768000Y16082000D03*
X57228000Y16082000D03*
X54688000Y16082000D03*
X52148000Y16082000D03*
X49608000Y16082000D03*
X47068000Y16082000D03*
X44528000Y16082000D03*
X41988000Y16082000D03*
X39448000Y16082000D03*
X85168000Y10032000D03*
X82628000Y10032000D03*
X80088000Y10032000D03*
X77548000Y10032000D03*
X75008000Y10032000D03*
X72468000Y10032000D03*
X69928000Y10032000D03*
X67388000Y10032000D03*
X64848000Y10032000D03*
X62308000Y10032000D03*
X59768000Y10032000D03*
X57228000Y10032000D03*
X54688000Y10032000D03*
X52148000Y10032000D03*
X49608000Y10032000D03*
X47068000Y10032000D03*
X44528000Y10032000D03*
X41988000Y10032000D03*
X39448000Y10032000D03*
X85168000Y7492000D03*
X82628000Y7492000D03*
X80088000Y7492000D03*
X77548000Y7492000D03*
X75008000Y7492000D03*
X72468000Y7492000D03*
X69928000Y7492000D03*
X67388000Y7492000D03*
X64848000Y7492000D03*
X62308000Y7492000D03*
X59768000Y7492000D03*
X57228000Y7492000D03*
X54688000Y7492000D03*
X52148000Y7492000D03*
X49608000Y7492000D03*
X47068000Y7492000D03*
X44528000Y7492000D03*
X41988000Y7492000D03*
X39448000Y7492000D03*
X101138000Y7492000D03*
X103678000Y7492000D03*
X106218000Y7492000D03*
X108758000Y7492000D03*
X111298000Y7492000D03*
X113838000Y7492000D03*
X116378000Y7492000D03*
X118918000Y7492000D03*
X101138000Y10032000D03*
X103678000Y10032000D03*
X106218000Y10032000D03*
X108758000Y10032000D03*
X111298000Y10032000D03*
X113838000Y10032000D03*
X116378000Y10032000D03*
X118918000Y10032000D03*
X101138000Y16082000D03*
X103678000Y16082000D03*
X106218000Y16082000D03*
X108758000Y16082000D03*
X111298000Y16082000D03*
X113838000Y16082000D03*
X116378000Y16082000D03*
X118918000Y16082000D03*
X101138000Y18622000D03*
X103678000Y18622000D03*
X106218000Y18622000D03*
X108758000Y18622000D03*
X111298000Y18622000D03*
X113838000Y18622000D03*
X116378000Y18622000D03*
X118918000Y18622000D03*
D22*
X126748000Y10492000D03*
X132548000Y10492000D03*
X138448000Y10492000D03*
X129648000Y12822000D03*
X135548000Y12822000D03*
X126748000Y18622000D03*
X132548000Y18622000D03*
X138448000Y18622000D03*
G04 #@! TD*
M02*
