G04 #@! TF.GenerationSoftware,KiCad,Pcbnew,8.0.9-8.0.9-0~ubuntu24.04.1*
G04 #@! TF.CreationDate,2026-01-19T23:36:54+00:00*
G04 #@! TF.ProjectId,greenenergyecu,67726565-6e65-46e6-9572-67796563752e,d*
G04 #@! TF.SameCoordinates,PX2b953a0PY6943058*
G04 #@! TF.FileFunction,Paste,Top*
G04 #@! TF.FilePolarity,Positive*
%FSLAX46Y46*%
G04 Gerber Fmt 4.6, Leading zero omitted, Abs format (unit mm)*
G04 Created by KiCad (PCBNEW 8.0.9-8.0.9-0~ubuntu24.04.1) date 2026-01-19 23:36:54*
%MOMM*%
%LPD*%
G01*
G04 APERTURE LIST*
%ADD10O,0.000001X0.000001*%
G04 APERTURE END LIST*
G04 #@! TO.C,R1*
G36*
G01*
X34949000Y26853000D02*
X34169000Y26853000D01*
G75*
G02*
X34099000Y26923000I0J70000D01*
G01*
X34099000Y27483000D01*
G75*
G02*
X34169000Y27553000I70000J0D01*
G01*
X34949000Y27553000D01*
G75*
G02*
X35019000Y27483000I0J-70000D01*
G01*
X35019000Y26923000D01*
G75*
G02*
X34949000Y26853000I-70000J0D01*
G01*
G37*
G36*
G01*
X34949000Y28453000D02*
X34169000Y28453000D01*
G75*
G02*
X34099000Y28523000I0J70000D01*
G01*
X34099000Y29083000D01*
G75*
G02*
X34169000Y29153000I70000J0D01*
G01*
X34949000Y29153000D01*
G75*
G02*
X35019000Y29083000I0J-70000D01*
G01*
X35019000Y28523000D01*
G75*
G02*
X34949000Y28453000I-70000J0D01*
G01*
G37*
G04 #@! TD*
G04 #@! TO.C,R309*
G36*
G01*
X88250000Y96955000D02*
X88250000Y97735000D01*
G75*
G02*
X88320000Y97805000I70000J0D01*
G01*
X88880000Y97805000D01*
G75*
G02*
X88950000Y97735000I0J-70000D01*
G01*
X88950000Y96955000D01*
G75*
G02*
X88880000Y96885000I-70000J0D01*
G01*
X88320000Y96885000D01*
G75*
G02*
X88250000Y96955000I0J70000D01*
G01*
G37*
G36*
G01*
X89850000Y96955000D02*
X89850000Y97735000D01*
G75*
G02*
X89920000Y97805000I70000J0D01*
G01*
X90480000Y97805000D01*
G75*
G02*
X90550000Y97735000I0J-70000D01*
G01*
X90550000Y96955000D01*
G75*
G02*
X90480000Y96885000I-70000J0D01*
G01*
X89920000Y96885000D01*
G75*
G02*
X89850000Y96955000I0J70000D01*
G01*
G37*
G04 #@! TD*
G04 #@! TO.C,D1*
G36*
G01*
X9564000Y68870000D02*
X8264000Y68870000D01*
G75*
G02*
X8014000Y69120000I0J250000D01*
G01*
X8014000Y71120000D01*
G75*
G02*
X8264000Y71370000I250000J0D01*
G01*
X9564000Y71370000D01*
G75*
G02*
X9814000Y71120000I0J-250000D01*
G01*
X9814000Y69120000D01*
G75*
G02*
X9564000Y68870000I-250000J0D01*
G01*
G37*
G36*
G01*
X9564000Y72870000D02*
X8264000Y72870000D01*
G75*
G02*
X8014000Y73120000I0J250000D01*
G01*
X8014000Y75120000D01*
G75*
G02*
X8264000Y75370000I250000J0D01*
G01*
X9564000Y75370000D01*
G75*
G02*
X9814000Y75120000I0J-250000D01*
G01*
X9814000Y73120000D01*
G75*
G02*
X9564000Y72870000I-250000J0D01*
G01*
G37*
G04 #@! TD*
G04 #@! TO.C,F842*
G36*
G01*
X148670000Y95209990D02*
X148670000Y94519990D01*
G75*
G02*
X148440000Y94289990I-230000J0D01*
G01*
X147100000Y94289990D01*
G75*
G02*
X146870000Y94519990I0J230000D01*
G01*
X146870000Y95209990D01*
G75*
G02*
X147100000Y95439990I230000J0D01*
G01*
X148440000Y95439990D01*
G75*
G02*
X148670000Y95209990I0J-230000D01*
G01*
G37*
G36*
G01*
X148670000Y98110010D02*
X148670000Y97420010D01*
G75*
G02*
X148440000Y97190010I-230000J0D01*
G01*
X147100000Y97190010D01*
G75*
G02*
X146870000Y97420010I0J230000D01*
G01*
X146870000Y98110010D01*
G75*
G02*
X147100000Y98340010I230000J0D01*
G01*
X148440000Y98340010D01*
G75*
G02*
X148670000Y98110010I0J-230000D01*
G01*
G37*
G04 #@! TD*
G04 #@! TO.C,Q901*
G36*
G01*
X99290000Y55945000D02*
X99990000Y55945000D01*
G75*
G02*
X100240000Y55695000I0J-250000D01*
G01*
X100240000Y53995000D01*
G75*
G02*
X99990000Y53745000I-250000J0D01*
G01*
X99290000Y53745000D01*
G75*
G02*
X99040000Y53995000I0J250000D01*
G01*
X99040000Y55695000D01*
G75*
G02*
X99290000Y55945000I250000J0D01*
G01*
G37*
G36*
G01*
X97760000Y51745000D02*
X100010000Y51745000D01*
G75*
G02*
X100260000Y51495000I0J-250000D01*
G01*
X100260000Y48945000D01*
G75*
G02*
X100010000Y48695000I-250000J0D01*
G01*
X97760000Y48695000D01*
G75*
G02*
X97510000Y48945000I0J250000D01*
G01*
X97510000Y51495000D01*
G75*
G02*
X97760000Y51745000I250000J0D01*
G01*
G37*
G36*
G01*
X94710000Y51745000D02*
X96960000Y51745000D01*
G75*
G02*
X97210000Y51495000I0J-250000D01*
G01*
X97210000Y48945000D01*
G75*
G02*
X96960000Y48695000I-250000J0D01*
G01*
X94710000Y48695000D01*
G75*
G02*
X94460000Y48945000I0J250000D01*
G01*
X94460000Y51495000D01*
G75*
G02*
X94710000Y51745000I250000J0D01*
G01*
G37*
G36*
G01*
X97760000Y48395000D02*
X100010000Y48395000D01*
G75*
G02*
X100260000Y48145000I0J-250000D01*
G01*
X100260000Y45595000D01*
G75*
G02*
X100010000Y45345000I-250000J0D01*
G01*
X97760000Y45345000D01*
G75*
G02*
X97510000Y45595000I0J250000D01*
G01*
X97510000Y48145000D01*
G75*
G02*
X97760000Y48395000I250000J0D01*
G01*
G37*
G36*
G01*
X94710000Y48395000D02*
X96960000Y48395000D01*
G75*
G02*
X97210000Y48145000I0J-250000D01*
G01*
X97210000Y45595000D01*
G75*
G02*
X96960000Y45345000I-250000J0D01*
G01*
X94710000Y45345000D01*
G75*
G02*
X94460000Y45595000I0J250000D01*
G01*
X94460000Y48145000D01*
G75*
G02*
X94710000Y48395000I250000J0D01*
G01*
G37*
G36*
G01*
X94730000Y55945000D02*
X95430000Y55945000D01*
G75*
G02*
X95680000Y55695000I0J-250000D01*
G01*
X95680000Y53995000D01*
G75*
G02*
X95430000Y53745000I-250000J0D01*
G01*
X94730000Y53745000D01*
G75*
G02*
X94480000Y53995000I0J250000D01*
G01*
X94480000Y55695000D01*
G75*
G02*
X94730000Y55945000I250000J0D01*
G01*
G37*
G04 #@! TD*
G04 #@! TO.C,F843*
G36*
G01*
X92595010Y56595000D02*
X93285010Y56595000D01*
G75*
G02*
X93515010Y56365000I0J-230000D01*
G01*
X93515010Y55025000D01*
G75*
G02*
X93285010Y54795000I-230000J0D01*
G01*
X92595010Y54795000D01*
G75*
G02*
X92365010Y55025000I0J230000D01*
G01*
X92365010Y56365000D01*
G75*
G02*
X92595010Y56595000I230000J0D01*
G01*
G37*
G36*
G01*
X89694990Y56595000D02*
X90384990Y56595000D01*
G75*
G02*
X90614990Y56365000I0J-230000D01*
G01*
X90614990Y55025000D01*
G75*
G02*
X90384990Y54795000I-230000J0D01*
G01*
X89694990Y54795000D01*
G75*
G02*
X89464990Y55025000I0J230000D01*
G01*
X89464990Y56365000D01*
G75*
G02*
X89694990Y56595000I230000J0D01*
G01*
G37*
G04 #@! TD*
G04 #@! TO.C,Q841*
G36*
G01*
X131665000Y55990000D02*
X132365000Y55990000D01*
G75*
G02*
X132615000Y55740000I0J-250000D01*
G01*
X132615000Y54040000D01*
G75*
G02*
X132365000Y53790000I-250000J0D01*
G01*
X131665000Y53790000D01*
G75*
G02*
X131415000Y54040000I0J250000D01*
G01*
X131415000Y55740000D01*
G75*
G02*
X131665000Y55990000I250000J0D01*
G01*
G37*
G36*
G01*
X130135000Y51790000D02*
X132385000Y51790000D01*
G75*
G02*
X132635000Y51540000I0J-250000D01*
G01*
X132635000Y48990000D01*
G75*
G02*
X132385000Y48740000I-250000J0D01*
G01*
X130135000Y48740000D01*
G75*
G02*
X129885000Y48990000I0J250000D01*
G01*
X129885000Y51540000D01*
G75*
G02*
X130135000Y51790000I250000J0D01*
G01*
G37*
G36*
G01*
X127085000Y51790000D02*
X129335000Y51790000D01*
G75*
G02*
X129585000Y51540000I0J-250000D01*
G01*
X129585000Y48990000D01*
G75*
G02*
X129335000Y48740000I-250000J0D01*
G01*
X127085000Y48740000D01*
G75*
G02*
X126835000Y48990000I0J250000D01*
G01*
X126835000Y51540000D01*
G75*
G02*
X127085000Y51790000I250000J0D01*
G01*
G37*
G36*
G01*
X130135000Y48440000D02*
X132385000Y48440000D01*
G75*
G02*
X132635000Y48190000I0J-250000D01*
G01*
X132635000Y45640000D01*
G75*
G02*
X132385000Y45390000I-250000J0D01*
G01*
X130135000Y45390000D01*
G75*
G02*
X129885000Y45640000I0J250000D01*
G01*
X129885000Y48190000D01*
G75*
G02*
X130135000Y48440000I250000J0D01*
G01*
G37*
G36*
G01*
X127085000Y48440000D02*
X129335000Y48440000D01*
G75*
G02*
X129585000Y48190000I0J-250000D01*
G01*
X129585000Y45640000D01*
G75*
G02*
X129335000Y45390000I-250000J0D01*
G01*
X127085000Y45390000D01*
G75*
G02*
X126835000Y45640000I0J250000D01*
G01*
X126835000Y48190000D01*
G75*
G02*
X127085000Y48440000I250000J0D01*
G01*
G37*
G36*
G01*
X127105000Y55990000D02*
X127805000Y55990000D01*
G75*
G02*
X128055000Y55740000I0J-250000D01*
G01*
X128055000Y54040000D01*
G75*
G02*
X127805000Y53790000I-250000J0D01*
G01*
X127105000Y53790000D01*
G75*
G02*
X126855000Y54040000I0J250000D01*
G01*
X126855000Y55740000D01*
G75*
G02*
X127105000Y55990000I250000J0D01*
G01*
G37*
G04 #@! TD*
G04 #@! TO.C,F841*
G36*
G01*
X94755010Y41715000D02*
X95445010Y41715000D01*
G75*
G02*
X95675010Y41485000I0J-230000D01*
G01*
X95675010Y40145000D01*
G75*
G02*
X95445010Y39915000I-230000J0D01*
G01*
X94755010Y39915000D01*
G75*
G02*
X94525010Y40145000I0J230000D01*
G01*
X94525010Y41485000D01*
G75*
G02*
X94755010Y41715000I230000J0D01*
G01*
G37*
G36*
G01*
X91854990Y41715000D02*
X92544990Y41715000D01*
G75*
G02*
X92774990Y41485000I0J-230000D01*
G01*
X92774990Y40145000D01*
G75*
G02*
X92544990Y39915000I-230000J0D01*
G01*
X91854990Y39915000D01*
G75*
G02*
X91624990Y40145000I0J230000D01*
G01*
X91624990Y41485000D01*
G75*
G02*
X91854990Y41715000I230000J0D01*
G01*
G37*
G04 #@! TD*
G04 #@! TO.C,R843*
G36*
G01*
X32821000Y42411000D02*
X32821000Y43191000D01*
G75*
G02*
X32891000Y43261000I70000J0D01*
G01*
X33451000Y43261000D01*
G75*
G02*
X33521000Y43191000I0J-70000D01*
G01*
X33521000Y42411000D01*
G75*
G02*
X33451000Y42341000I-70000J0D01*
G01*
X32891000Y42341000D01*
G75*
G02*
X32821000Y42411000I0J70000D01*
G01*
G37*
G36*
G01*
X34421000Y42411000D02*
X34421000Y43191000D01*
G75*
G02*
X34491000Y43261000I70000J0D01*
G01*
X35051000Y43261000D01*
G75*
G02*
X35121000Y43191000I0J-70000D01*
G01*
X35121000Y42411000D01*
G75*
G02*
X35051000Y42341000I-70000J0D01*
G01*
X34491000Y42341000D01*
G75*
G02*
X34421000Y42411000I0J70000D01*
G01*
G37*
G04 #@! TD*
G04 #@! TO.C,R847*
G36*
G01*
X44393000Y60126000D02*
X43613000Y60126000D01*
G75*
G02*
X43543000Y60196000I0J70000D01*
G01*
X43543000Y60756000D01*
G75*
G02*
X43613000Y60826000I70000J0D01*
G01*
X44393000Y60826000D01*
G75*
G02*
X44463000Y60756000I0J-70000D01*
G01*
X44463000Y60196000D01*
G75*
G02*
X44393000Y60126000I-70000J0D01*
G01*
G37*
G36*
G01*
X44393000Y61726000D02*
X43613000Y61726000D01*
G75*
G02*
X43543000Y61796000I0J70000D01*
G01*
X43543000Y62356000D01*
G75*
G02*
X43613000Y62426000I70000J0D01*
G01*
X44393000Y62426000D01*
G75*
G02*
X44463000Y62356000I0J-70000D01*
G01*
X44463000Y61796000D01*
G75*
G02*
X44393000Y61726000I-70000J0D01*
G01*
G37*
G04 #@! TD*
G04 #@! TO.C,Q905*
G36*
G01*
X121965000Y68830000D02*
X122665000Y68830000D01*
G75*
G02*
X122915000Y68580000I0J-250000D01*
G01*
X122915000Y66880000D01*
G75*
G02*
X122665000Y66630000I-250000J0D01*
G01*
X121965000Y66630000D01*
G75*
G02*
X121715000Y66880000I0J250000D01*
G01*
X121715000Y68580000D01*
G75*
G02*
X121965000Y68830000I250000J0D01*
G01*
G37*
G36*
G01*
X120435000Y64630000D02*
X122685000Y64630000D01*
G75*
G02*
X122935000Y64380000I0J-250000D01*
G01*
X122935000Y61830000D01*
G75*
G02*
X122685000Y61580000I-250000J0D01*
G01*
X120435000Y61580000D01*
G75*
G02*
X120185000Y61830000I0J250000D01*
G01*
X120185000Y64380000D01*
G75*
G02*
X120435000Y64630000I250000J0D01*
G01*
G37*
G36*
G01*
X117385000Y64630000D02*
X119635000Y64630000D01*
G75*
G02*
X119885000Y64380000I0J-250000D01*
G01*
X119885000Y61830000D01*
G75*
G02*
X119635000Y61580000I-250000J0D01*
G01*
X117385000Y61580000D01*
G75*
G02*
X117135000Y61830000I0J250000D01*
G01*
X117135000Y64380000D01*
G75*
G02*
X117385000Y64630000I250000J0D01*
G01*
G37*
G36*
G01*
X120435000Y61280000D02*
X122685000Y61280000D01*
G75*
G02*
X122935000Y61030000I0J-250000D01*
G01*
X122935000Y58480000D01*
G75*
G02*
X122685000Y58230000I-250000J0D01*
G01*
X120435000Y58230000D01*
G75*
G02*
X120185000Y58480000I0J250000D01*
G01*
X120185000Y61030000D01*
G75*
G02*
X120435000Y61280000I250000J0D01*
G01*
G37*
G36*
G01*
X117385000Y61280000D02*
X119635000Y61280000D01*
G75*
G02*
X119885000Y61030000I0J-250000D01*
G01*
X119885000Y58480000D01*
G75*
G02*
X119635000Y58230000I-250000J0D01*
G01*
X117385000Y58230000D01*
G75*
G02*
X117135000Y58480000I0J250000D01*
G01*
X117135000Y61030000D01*
G75*
G02*
X117385000Y61280000I250000J0D01*
G01*
G37*
G36*
G01*
X117405000Y68830000D02*
X118105000Y68830000D01*
G75*
G02*
X118355000Y68580000I0J-250000D01*
G01*
X118355000Y66880000D01*
G75*
G02*
X118105000Y66630000I-250000J0D01*
G01*
X117405000Y66630000D01*
G75*
G02*
X117155000Y66880000I0J250000D01*
G01*
X117155000Y68580000D01*
G75*
G02*
X117405000Y68830000I250000J0D01*
G01*
G37*
G04 #@! TD*
G04 #@! TO.C,R848*
G36*
G01*
X49082072Y60327000D02*
X48302072Y60327000D01*
G75*
G02*
X48232072Y60397000I0J70000D01*
G01*
X48232072Y60957000D01*
G75*
G02*
X48302072Y61027000I70000J0D01*
G01*
X49082072Y61027000D01*
G75*
G02*
X49152072Y60957000I0J-70000D01*
G01*
X49152072Y60397000D01*
G75*
G02*
X49082072Y60327000I-70000J0D01*
G01*
G37*
G36*
G01*
X49082072Y61927000D02*
X48302072Y61927000D01*
G75*
G02*
X48232072Y61997000I0J70000D01*
G01*
X48232072Y62557000D01*
G75*
G02*
X48302072Y62627000I70000J0D01*
G01*
X49082072Y62627000D01*
G75*
G02*
X49152072Y62557000I0J-70000D01*
G01*
X49152072Y61997000D01*
G75*
G02*
X49082072Y61927000I-70000J0D01*
G01*
G37*
G04 #@! TD*
G04 #@! TO.C,Q845*
G36*
G01*
X153395000Y68340000D02*
X154095000Y68340000D01*
G75*
G02*
X154345000Y68090000I0J-250000D01*
G01*
X154345000Y66390000D01*
G75*
G02*
X154095000Y66140000I-250000J0D01*
G01*
X153395000Y66140000D01*
G75*
G02*
X153145000Y66390000I0J250000D01*
G01*
X153145000Y68090000D01*
G75*
G02*
X153395000Y68340000I250000J0D01*
G01*
G37*
G36*
G01*
X151865000Y64140000D02*
X154115000Y64140000D01*
G75*
G02*
X154365000Y63890000I0J-250000D01*
G01*
X154365000Y61340000D01*
G75*
G02*
X154115000Y61090000I-250000J0D01*
G01*
X151865000Y61090000D01*
G75*
G02*
X151615000Y61340000I0J250000D01*
G01*
X151615000Y63890000D01*
G75*
G02*
X151865000Y64140000I250000J0D01*
G01*
G37*
G36*
G01*
X148815000Y64140000D02*
X151065000Y64140000D01*
G75*
G02*
X151315000Y63890000I0J-250000D01*
G01*
X151315000Y61340000D01*
G75*
G02*
X151065000Y61090000I-250000J0D01*
G01*
X148815000Y61090000D01*
G75*
G02*
X148565000Y61340000I0J250000D01*
G01*
X148565000Y63890000D01*
G75*
G02*
X148815000Y64140000I250000J0D01*
G01*
G37*
G36*
G01*
X151865000Y60790000D02*
X154115000Y60790000D01*
G75*
G02*
X154365000Y60540000I0J-250000D01*
G01*
X154365000Y57990000D01*
G75*
G02*
X154115000Y57740000I-250000J0D01*
G01*
X151865000Y57740000D01*
G75*
G02*
X151615000Y57990000I0J250000D01*
G01*
X151615000Y60540000D01*
G75*
G02*
X151865000Y60790000I250000J0D01*
G01*
G37*
G36*
G01*
X148815000Y60790000D02*
X151065000Y60790000D01*
G75*
G02*
X151315000Y60540000I0J-250000D01*
G01*
X151315000Y57990000D01*
G75*
G02*
X151065000Y57740000I-250000J0D01*
G01*
X148815000Y57740000D01*
G75*
G02*
X148565000Y57990000I0J250000D01*
G01*
X148565000Y60540000D01*
G75*
G02*
X148815000Y60790000I250000J0D01*
G01*
G37*
G36*
G01*
X148835000Y68340000D02*
X149535000Y68340000D01*
G75*
G02*
X149785000Y68090000I0J-250000D01*
G01*
X149785000Y66390000D01*
G75*
G02*
X149535000Y66140000I-250000J0D01*
G01*
X148835000Y66140000D01*
G75*
G02*
X148585000Y66390000I0J250000D01*
G01*
X148585000Y68090000D01*
G75*
G02*
X148835000Y68340000I250000J0D01*
G01*
G37*
G04 #@! TD*
G04 #@! TO.C,Q842*
G36*
G01*
X153340000Y39835000D02*
X154040000Y39835000D01*
G75*
G02*
X154290000Y39585000I0J-250000D01*
G01*
X154290000Y37885000D01*
G75*
G02*
X154040000Y37635000I-250000J0D01*
G01*
X153340000Y37635000D01*
G75*
G02*
X153090000Y37885000I0J250000D01*
G01*
X153090000Y39585000D01*
G75*
G02*
X153340000Y39835000I250000J0D01*
G01*
G37*
G36*
G01*
X151810000Y35635000D02*
X154060000Y35635000D01*
G75*
G02*
X154310000Y35385000I0J-250000D01*
G01*
X154310000Y32835000D01*
G75*
G02*
X154060000Y32585000I-250000J0D01*
G01*
X151810000Y32585000D01*
G75*
G02*
X151560000Y32835000I0J250000D01*
G01*
X151560000Y35385000D01*
G75*
G02*
X151810000Y35635000I250000J0D01*
G01*
G37*
G36*
G01*
X148760000Y35635000D02*
X151010000Y35635000D01*
G75*
G02*
X151260000Y35385000I0J-250000D01*
G01*
X151260000Y32835000D01*
G75*
G02*
X151010000Y32585000I-250000J0D01*
G01*
X148760000Y32585000D01*
G75*
G02*
X148510000Y32835000I0J250000D01*
G01*
X148510000Y35385000D01*
G75*
G02*
X148760000Y35635000I250000J0D01*
G01*
G37*
G36*
G01*
X151810000Y32285000D02*
X154060000Y32285000D01*
G75*
G02*
X154310000Y32035000I0J-250000D01*
G01*
X154310000Y29485000D01*
G75*
G02*
X154060000Y29235000I-250000J0D01*
G01*
X151810000Y29235000D01*
G75*
G02*
X151560000Y29485000I0J250000D01*
G01*
X151560000Y32035000D01*
G75*
G02*
X151810000Y32285000I250000J0D01*
G01*
G37*
G36*
G01*
X148760000Y32285000D02*
X151010000Y32285000D01*
G75*
G02*
X151260000Y32035000I0J-250000D01*
G01*
X151260000Y29485000D01*
G75*
G02*
X151010000Y29235000I-250000J0D01*
G01*
X148760000Y29235000D01*
G75*
G02*
X148510000Y29485000I0J250000D01*
G01*
X148510000Y32035000D01*
G75*
G02*
X148760000Y32285000I250000J0D01*
G01*
G37*
G36*
G01*
X148780000Y39835000D02*
X149480000Y39835000D01*
G75*
G02*
X149730000Y39585000I0J-250000D01*
G01*
X149730000Y37885000D01*
G75*
G02*
X149480000Y37635000I-250000J0D01*
G01*
X148780000Y37635000D01*
G75*
G02*
X148530000Y37885000I0J250000D01*
G01*
X148530000Y39585000D01*
G75*
G02*
X148780000Y39835000I250000J0D01*
G01*
G37*
G04 #@! TD*
G04 #@! TO.C,R311*
G36*
G01*
X85390000Y96965000D02*
X85390000Y97745000D01*
G75*
G02*
X85460000Y97815000I70000J0D01*
G01*
X86020000Y97815000D01*
G75*
G02*
X86090000Y97745000I0J-70000D01*
G01*
X86090000Y96965000D01*
G75*
G02*
X86020000Y96895000I-70000J0D01*
G01*
X85460000Y96895000D01*
G75*
G02*
X85390000Y96965000I0J70000D01*
G01*
G37*
G36*
G01*
X86990000Y96965000D02*
X86990000Y97745000D01*
G75*
G02*
X87060000Y97815000I70000J0D01*
G01*
X87620000Y97815000D01*
G75*
G02*
X87690000Y97745000I0J-70000D01*
G01*
X87690000Y96965000D01*
G75*
G02*
X87620000Y96895000I-70000J0D01*
G01*
X87060000Y96895000D01*
G75*
G02*
X86990000Y96965000I0J70000D01*
G01*
G37*
G04 #@! TD*
G04 #@! TO.C,R313*
G36*
G01*
X90040000Y95385000D02*
X90040000Y96165000D01*
G75*
G02*
X90110000Y96235000I70000J0D01*
G01*
X90670000Y96235000D01*
G75*
G02*
X90740000Y96165000I0J-70000D01*
G01*
X90740000Y95385000D01*
G75*
G02*
X90670000Y95315000I-70000J0D01*
G01*
X90110000Y95315000D01*
G75*
G02*
X90040000Y95385000I0J70000D01*
G01*
G37*
G36*
G01*
X91640000Y95385000D02*
X91640000Y96165000D01*
G75*
G02*
X91710000Y96235000I70000J0D01*
G01*
X92270000Y96235000D01*
G75*
G02*
X92340000Y96165000I0J-70000D01*
G01*
X92340000Y95385000D01*
G75*
G02*
X92270000Y95315000I-70000J0D01*
G01*
X91710000Y95315000D01*
G75*
G02*
X91640000Y95385000I0J70000D01*
G01*
G37*
G04 #@! TD*
G04 #@! TO.C,Q903*
G36*
G01*
X98495000Y83895000D02*
X99195000Y83895000D01*
G75*
G02*
X99445000Y83645000I0J-250000D01*
G01*
X99445000Y81945000D01*
G75*
G02*
X99195000Y81695000I-250000J0D01*
G01*
X98495000Y81695000D01*
G75*
G02*
X98245000Y81945000I0J250000D01*
G01*
X98245000Y83645000D01*
G75*
G02*
X98495000Y83895000I250000J0D01*
G01*
G37*
G36*
G01*
X96965000Y79695000D02*
X99215000Y79695000D01*
G75*
G02*
X99465000Y79445000I0J-250000D01*
G01*
X99465000Y76895000D01*
G75*
G02*
X99215000Y76645000I-250000J0D01*
G01*
X96965000Y76645000D01*
G75*
G02*
X96715000Y76895000I0J250000D01*
G01*
X96715000Y79445000D01*
G75*
G02*
X96965000Y79695000I250000J0D01*
G01*
G37*
G36*
G01*
X93915000Y79695000D02*
X96165000Y79695000D01*
G75*
G02*
X96415000Y79445000I0J-250000D01*
G01*
X96415000Y76895000D01*
G75*
G02*
X96165000Y76645000I-250000J0D01*
G01*
X93915000Y76645000D01*
G75*
G02*
X93665000Y76895000I0J250000D01*
G01*
X93665000Y79445000D01*
G75*
G02*
X93915000Y79695000I250000J0D01*
G01*
G37*
G36*
G01*
X96965000Y76345000D02*
X99215000Y76345000D01*
G75*
G02*
X99465000Y76095000I0J-250000D01*
G01*
X99465000Y73545000D01*
G75*
G02*
X99215000Y73295000I-250000J0D01*
G01*
X96965000Y73295000D01*
G75*
G02*
X96715000Y73545000I0J250000D01*
G01*
X96715000Y76095000D01*
G75*
G02*
X96965000Y76345000I250000J0D01*
G01*
G37*
G36*
G01*
X93915000Y76345000D02*
X96165000Y76345000D01*
G75*
G02*
X96415000Y76095000I0J-250000D01*
G01*
X96415000Y73545000D01*
G75*
G02*
X96165000Y73295000I-250000J0D01*
G01*
X93915000Y73295000D01*
G75*
G02*
X93665000Y73545000I0J250000D01*
G01*
X93665000Y76095000D01*
G75*
G02*
X93915000Y76345000I250000J0D01*
G01*
G37*
G36*
G01*
X93935000Y83895000D02*
X94635000Y83895000D01*
G75*
G02*
X94885000Y83645000I0J-250000D01*
G01*
X94885000Y81945000D01*
G75*
G02*
X94635000Y81695000I-250000J0D01*
G01*
X93935000Y81695000D01*
G75*
G02*
X93685000Y81945000I0J250000D01*
G01*
X93685000Y83645000D01*
G75*
G02*
X93935000Y83895000I250000J0D01*
G01*
G37*
G04 #@! TD*
G04 #@! TO.C,Q906*
G36*
G01*
X122255000Y55980000D02*
X122955000Y55980000D01*
G75*
G02*
X123205000Y55730000I0J-250000D01*
G01*
X123205000Y54030000D01*
G75*
G02*
X122955000Y53780000I-250000J0D01*
G01*
X122255000Y53780000D01*
G75*
G02*
X122005000Y54030000I0J250000D01*
G01*
X122005000Y55730000D01*
G75*
G02*
X122255000Y55980000I250000J0D01*
G01*
G37*
G36*
G01*
X120725000Y51780000D02*
X122975000Y51780000D01*
G75*
G02*
X123225000Y51530000I0J-250000D01*
G01*
X123225000Y48980000D01*
G75*
G02*
X122975000Y48730000I-250000J0D01*
G01*
X120725000Y48730000D01*
G75*
G02*
X120475000Y48980000I0J250000D01*
G01*
X120475000Y51530000D01*
G75*
G02*
X120725000Y51780000I250000J0D01*
G01*
G37*
G36*
G01*
X117675000Y51780000D02*
X119925000Y51780000D01*
G75*
G02*
X120175000Y51530000I0J-250000D01*
G01*
X120175000Y48980000D01*
G75*
G02*
X119925000Y48730000I-250000J0D01*
G01*
X117675000Y48730000D01*
G75*
G02*
X117425000Y48980000I0J250000D01*
G01*
X117425000Y51530000D01*
G75*
G02*
X117675000Y51780000I250000J0D01*
G01*
G37*
G36*
G01*
X120725000Y48430000D02*
X122975000Y48430000D01*
G75*
G02*
X123225000Y48180000I0J-250000D01*
G01*
X123225000Y45630000D01*
G75*
G02*
X122975000Y45380000I-250000J0D01*
G01*
X120725000Y45380000D01*
G75*
G02*
X120475000Y45630000I0J250000D01*
G01*
X120475000Y48180000D01*
G75*
G02*
X120725000Y48430000I250000J0D01*
G01*
G37*
G36*
G01*
X117675000Y48430000D02*
X119925000Y48430000D01*
G75*
G02*
X120175000Y48180000I0J-250000D01*
G01*
X120175000Y45630000D01*
G75*
G02*
X119925000Y45380000I-250000J0D01*
G01*
X117675000Y45380000D01*
G75*
G02*
X117425000Y45630000I0J250000D01*
G01*
X117425000Y48180000D01*
G75*
G02*
X117675000Y48430000I250000J0D01*
G01*
G37*
G36*
G01*
X117695000Y55980000D02*
X118395000Y55980000D01*
G75*
G02*
X118645000Y55730000I0J-250000D01*
G01*
X118645000Y54030000D01*
G75*
G02*
X118395000Y53780000I-250000J0D01*
G01*
X117695000Y53780000D01*
G75*
G02*
X117445000Y54030000I0J250000D01*
G01*
X117445000Y55730000D01*
G75*
G02*
X117695000Y55980000I250000J0D01*
G01*
G37*
G04 #@! TD*
G04 #@! TO.C,Q907*
G36*
G01*
X121855000Y40250000D02*
X122555000Y40250000D01*
G75*
G02*
X122805000Y40000000I0J-250000D01*
G01*
X122805000Y38300000D01*
G75*
G02*
X122555000Y38050000I-250000J0D01*
G01*
X121855000Y38050000D01*
G75*
G02*
X121605000Y38300000I0J250000D01*
G01*
X121605000Y40000000D01*
G75*
G02*
X121855000Y40250000I250000J0D01*
G01*
G37*
G36*
G01*
X120325000Y36050000D02*
X122575000Y36050000D01*
G75*
G02*
X122825000Y35800000I0J-250000D01*
G01*
X122825000Y33250000D01*
G75*
G02*
X122575000Y33000000I-250000J0D01*
G01*
X120325000Y33000000D01*
G75*
G02*
X120075000Y33250000I0J250000D01*
G01*
X120075000Y35800000D01*
G75*
G02*
X120325000Y36050000I250000J0D01*
G01*
G37*
G36*
G01*
X117275000Y36050000D02*
X119525000Y36050000D01*
G75*
G02*
X119775000Y35800000I0J-250000D01*
G01*
X119775000Y33250000D01*
G75*
G02*
X119525000Y33000000I-250000J0D01*
G01*
X117275000Y33000000D01*
G75*
G02*
X117025000Y33250000I0J250000D01*
G01*
X117025000Y35800000D01*
G75*
G02*
X117275000Y36050000I250000J0D01*
G01*
G37*
G36*
G01*
X120325000Y32700000D02*
X122575000Y32700000D01*
G75*
G02*
X122825000Y32450000I0J-250000D01*
G01*
X122825000Y29900000D01*
G75*
G02*
X122575000Y29650000I-250000J0D01*
G01*
X120325000Y29650000D01*
G75*
G02*
X120075000Y29900000I0J250000D01*
G01*
X120075000Y32450000D01*
G75*
G02*
X120325000Y32700000I250000J0D01*
G01*
G37*
G36*
G01*
X117275000Y32700000D02*
X119525000Y32700000D01*
G75*
G02*
X119775000Y32450000I0J-250000D01*
G01*
X119775000Y29900000D01*
G75*
G02*
X119525000Y29650000I-250000J0D01*
G01*
X117275000Y29650000D01*
G75*
G02*
X117025000Y29900000I0J250000D01*
G01*
X117025000Y32450000D01*
G75*
G02*
X117275000Y32700000I250000J0D01*
G01*
G37*
G36*
G01*
X117295000Y40250000D02*
X117995000Y40250000D01*
G75*
G02*
X118245000Y40000000I0J-250000D01*
G01*
X118245000Y38300000D01*
G75*
G02*
X117995000Y38050000I-250000J0D01*
G01*
X117295000Y38050000D01*
G75*
G02*
X117045000Y38300000I0J250000D01*
G01*
X117045000Y40000000D01*
G75*
G02*
X117295000Y40250000I250000J0D01*
G01*
G37*
G04 #@! TD*
G04 #@! TO.C,Q900*
G36*
G01*
X99152500Y40400000D02*
X99852500Y40400000D01*
G75*
G02*
X100102500Y40150000I0J-250000D01*
G01*
X100102500Y38450000D01*
G75*
G02*
X99852500Y38200000I-250000J0D01*
G01*
X99152500Y38200000D01*
G75*
G02*
X98902500Y38450000I0J250000D01*
G01*
X98902500Y40150000D01*
G75*
G02*
X99152500Y40400000I250000J0D01*
G01*
G37*
G36*
G01*
X97622500Y36200000D02*
X99872500Y36200000D01*
G75*
G02*
X100122500Y35950000I0J-250000D01*
G01*
X100122500Y33400000D01*
G75*
G02*
X99872500Y33150000I-250000J0D01*
G01*
X97622500Y33150000D01*
G75*
G02*
X97372500Y33400000I0J250000D01*
G01*
X97372500Y35950000D01*
G75*
G02*
X97622500Y36200000I250000J0D01*
G01*
G37*
G36*
G01*
X94572500Y36200000D02*
X96822500Y36200000D01*
G75*
G02*
X97072500Y35950000I0J-250000D01*
G01*
X97072500Y33400000D01*
G75*
G02*
X96822500Y33150000I-250000J0D01*
G01*
X94572500Y33150000D01*
G75*
G02*
X94322500Y33400000I0J250000D01*
G01*
X94322500Y35950000D01*
G75*
G02*
X94572500Y36200000I250000J0D01*
G01*
G37*
G36*
G01*
X97622500Y32850000D02*
X99872500Y32850000D01*
G75*
G02*
X100122500Y32600000I0J-250000D01*
G01*
X100122500Y30050000D01*
G75*
G02*
X99872500Y29800000I-250000J0D01*
G01*
X97622500Y29800000D01*
G75*
G02*
X97372500Y30050000I0J250000D01*
G01*
X97372500Y32600000D01*
G75*
G02*
X97622500Y32850000I250000J0D01*
G01*
G37*
G36*
G01*
X94572500Y32850000D02*
X96822500Y32850000D01*
G75*
G02*
X97072500Y32600000I0J-250000D01*
G01*
X97072500Y30050000D01*
G75*
G02*
X96822500Y29800000I-250000J0D01*
G01*
X94572500Y29800000D01*
G75*
G02*
X94322500Y30050000I0J250000D01*
G01*
X94322500Y32600000D01*
G75*
G02*
X94572500Y32850000I250000J0D01*
G01*
G37*
G36*
G01*
X94592500Y40400000D02*
X95292500Y40400000D01*
G75*
G02*
X95542500Y40150000I0J-250000D01*
G01*
X95542500Y38450000D01*
G75*
G02*
X95292500Y38200000I-250000J0D01*
G01*
X94592500Y38200000D01*
G75*
G02*
X94342500Y38450000I0J250000D01*
G01*
X94342500Y40150000D01*
G75*
G02*
X94592500Y40400000I250000J0D01*
G01*
G37*
G04 #@! TD*
G04 #@! TO.C,R846*
G36*
G01*
X114800001Y106480000D02*
X114800001Y105230000D01*
G75*
G02*
X114700001Y105130000I-100000J0D01*
G01*
X113900001Y105130000D01*
G75*
G02*
X113800001Y105230000I0J100000D01*
G01*
X113800001Y106480000D01*
G75*
G02*
X113900001Y106580000I100000J0D01*
G01*
X114700001Y106580000D01*
G75*
G02*
X114800001Y106480000I0J-100000D01*
G01*
G37*
G36*
G01*
X112899979Y106480000D02*
X112899979Y105230000D01*
G75*
G02*
X112799979Y105130000I-100000J0D01*
G01*
X111999979Y105130000D01*
G75*
G02*
X111899979Y105230000I0J100000D01*
G01*
X111899979Y106480000D01*
G75*
G02*
X111999979Y106580000I100000J0D01*
G01*
X112799979Y106580000D01*
G75*
G02*
X112899979Y106480000I0J-100000D01*
G01*
G37*
G04 #@! TD*
G04 #@! TO.C,R315*
G36*
G01*
X87220000Y95395000D02*
X87220000Y96175000D01*
G75*
G02*
X87290000Y96245000I70000J0D01*
G01*
X87850000Y96245000D01*
G75*
G02*
X87920000Y96175000I0J-70000D01*
G01*
X87920000Y95395000D01*
G75*
G02*
X87850000Y95325000I-70000J0D01*
G01*
X87290000Y95325000D01*
G75*
G02*
X87220000Y95395000I0J70000D01*
G01*
G37*
G36*
G01*
X88820000Y95395000D02*
X88820000Y96175000D01*
G75*
G02*
X88890000Y96245000I70000J0D01*
G01*
X89450000Y96245000D01*
G75*
G02*
X89520000Y96175000I0J-70000D01*
G01*
X89520000Y95395000D01*
G75*
G02*
X89450000Y95325000I-70000J0D01*
G01*
X88890000Y95325000D01*
G75*
G02*
X88820000Y95395000I0J70000D01*
G01*
G37*
G04 #@! TD*
G04 #@! TO.C,Q843*
G36*
G01*
X153487500Y55472500D02*
X154187500Y55472500D01*
G75*
G02*
X154437500Y55222500I0J-250000D01*
G01*
X154437500Y53522500D01*
G75*
G02*
X154187500Y53272500I-250000J0D01*
G01*
X153487500Y53272500D01*
G75*
G02*
X153237500Y53522500I0J250000D01*
G01*
X153237500Y55222500D01*
G75*
G02*
X153487500Y55472500I250000J0D01*
G01*
G37*
G36*
G01*
X151957500Y51272500D02*
X154207500Y51272500D01*
G75*
G02*
X154457500Y51022500I0J-250000D01*
G01*
X154457500Y48472500D01*
G75*
G02*
X154207500Y48222500I-250000J0D01*
G01*
X151957500Y48222500D01*
G75*
G02*
X151707500Y48472500I0J250000D01*
G01*
X151707500Y51022500D01*
G75*
G02*
X151957500Y51272500I250000J0D01*
G01*
G37*
G36*
G01*
X148907500Y51272500D02*
X151157500Y51272500D01*
G75*
G02*
X151407500Y51022500I0J-250000D01*
G01*
X151407500Y48472500D01*
G75*
G02*
X151157500Y48222500I-250000J0D01*
G01*
X148907500Y48222500D01*
G75*
G02*
X148657500Y48472500I0J250000D01*
G01*
X148657500Y51022500D01*
G75*
G02*
X148907500Y51272500I250000J0D01*
G01*
G37*
G36*
G01*
X151957500Y47922500D02*
X154207500Y47922500D01*
G75*
G02*
X154457500Y47672500I0J-250000D01*
G01*
X154457500Y45122500D01*
G75*
G02*
X154207500Y44872500I-250000J0D01*
G01*
X151957500Y44872500D01*
G75*
G02*
X151707500Y45122500I0J250000D01*
G01*
X151707500Y47672500D01*
G75*
G02*
X151957500Y47922500I250000J0D01*
G01*
G37*
G36*
G01*
X148907500Y47922500D02*
X151157500Y47922500D01*
G75*
G02*
X151407500Y47672500I0J-250000D01*
G01*
X151407500Y45122500D01*
G75*
G02*
X151157500Y44872500I-250000J0D01*
G01*
X148907500Y44872500D01*
G75*
G02*
X148657500Y45122500I0J250000D01*
G01*
X148657500Y47672500D01*
G75*
G02*
X148907500Y47922500I250000J0D01*
G01*
G37*
G36*
G01*
X148927500Y55472500D02*
X149627500Y55472500D01*
G75*
G02*
X149877500Y55222500I0J-250000D01*
G01*
X149877500Y53522500D01*
G75*
G02*
X149627500Y53272500I-250000J0D01*
G01*
X148927500Y53272500D01*
G75*
G02*
X148677500Y53522500I0J250000D01*
G01*
X148677500Y55222500D01*
G75*
G02*
X148927500Y55472500I250000J0D01*
G01*
G37*
G04 #@! TD*
G04 #@! TO.C,Q846*
G36*
G01*
X131755000Y38422500D02*
X132455000Y38422500D01*
G75*
G02*
X132705000Y38172500I0J-250000D01*
G01*
X132705000Y36472500D01*
G75*
G02*
X132455000Y36222500I-250000J0D01*
G01*
X131755000Y36222500D01*
G75*
G02*
X131505000Y36472500I0J250000D01*
G01*
X131505000Y38172500D01*
G75*
G02*
X131755000Y38422500I250000J0D01*
G01*
G37*
G36*
G01*
X130225000Y34222500D02*
X132475000Y34222500D01*
G75*
G02*
X132725000Y33972500I0J-250000D01*
G01*
X132725000Y31422500D01*
G75*
G02*
X132475000Y31172500I-250000J0D01*
G01*
X130225000Y31172500D01*
G75*
G02*
X129975000Y31422500I0J250000D01*
G01*
X129975000Y33972500D01*
G75*
G02*
X130225000Y34222500I250000J0D01*
G01*
G37*
G36*
G01*
X127175000Y34222500D02*
X129425000Y34222500D01*
G75*
G02*
X129675000Y33972500I0J-250000D01*
G01*
X129675000Y31422500D01*
G75*
G02*
X129425000Y31172500I-250000J0D01*
G01*
X127175000Y31172500D01*
G75*
G02*
X126925000Y31422500I0J250000D01*
G01*
X126925000Y33972500D01*
G75*
G02*
X127175000Y34222500I250000J0D01*
G01*
G37*
G36*
G01*
X130225000Y30872500D02*
X132475000Y30872500D01*
G75*
G02*
X132725000Y30622500I0J-250000D01*
G01*
X132725000Y28072500D01*
G75*
G02*
X132475000Y27822500I-250000J0D01*
G01*
X130225000Y27822500D01*
G75*
G02*
X129975000Y28072500I0J250000D01*
G01*
X129975000Y30622500D01*
G75*
G02*
X130225000Y30872500I250000J0D01*
G01*
G37*
G36*
G01*
X127175000Y30872500D02*
X129425000Y30872500D01*
G75*
G02*
X129675000Y30622500I0J-250000D01*
G01*
X129675000Y28072500D01*
G75*
G02*
X129425000Y27822500I-250000J0D01*
G01*
X127175000Y27822500D01*
G75*
G02*
X126925000Y28072500I0J250000D01*
G01*
X126925000Y30622500D01*
G75*
G02*
X127175000Y30872500I250000J0D01*
G01*
G37*
G36*
G01*
X127195000Y38422500D02*
X127895000Y38422500D01*
G75*
G02*
X128145000Y38172500I0J-250000D01*
G01*
X128145000Y36472500D01*
G75*
G02*
X127895000Y36222500I-250000J0D01*
G01*
X127195000Y36222500D01*
G75*
G02*
X126945000Y36472500I0J250000D01*
G01*
X126945000Y38172500D01*
G75*
G02*
X127195000Y38422500I250000J0D01*
G01*
G37*
G04 #@! TD*
G04 #@! TO.C,R842*
G36*
G01*
X68286000Y67180000D02*
X68286000Y66400000D01*
G75*
G02*
X68216000Y66330000I-70000J0D01*
G01*
X67656000Y66330000D01*
G75*
G02*
X67586000Y66400000I0J70000D01*
G01*
X67586000Y67180000D01*
G75*
G02*
X67656000Y67250000I70000J0D01*
G01*
X68216000Y67250000D01*
G75*
G02*
X68286000Y67180000I0J-70000D01*
G01*
G37*
G36*
G01*
X66686000Y67180000D02*
X66686000Y66400000D01*
G75*
G02*
X66616000Y66330000I-70000J0D01*
G01*
X66056000Y66330000D01*
G75*
G02*
X65986000Y66400000I0J70000D01*
G01*
X65986000Y67180000D01*
G75*
G02*
X66056000Y67250000I70000J0D01*
G01*
X66616000Y67250000D01*
G75*
G02*
X66686000Y67180000I0J-70000D01*
G01*
G37*
G04 #@! TD*
G04 #@! TO.C,F1*
G36*
G01*
X143860000Y95699990D02*
X143860000Y95009990D01*
G75*
G02*
X143630000Y94779990I-230000J0D01*
G01*
X142290000Y94779990D01*
G75*
G02*
X142060000Y95009990I0J230000D01*
G01*
X142060000Y95699990D01*
G75*
G02*
X142290000Y95929990I230000J0D01*
G01*
X143630000Y95929990D01*
G75*
G02*
X143860000Y95699990I0J-230000D01*
G01*
G37*
G36*
G01*
X143860000Y98600010D02*
X143860000Y97910010D01*
G75*
G02*
X143630000Y97680010I-230000J0D01*
G01*
X142290000Y97680010D01*
G75*
G02*
X142060000Y97910010I0J230000D01*
G01*
X142060000Y98600010D01*
G75*
G02*
X142290000Y98830010I230000J0D01*
G01*
X143630000Y98830010D01*
G75*
G02*
X143860000Y98600010I0J-230000D01*
G01*
G37*
G04 #@! TD*
G04 #@! TO.C,R307*
G36*
G01*
X83750000Y98595000D02*
X83750000Y99375000D01*
G75*
G02*
X83820000Y99445000I70000J0D01*
G01*
X84380000Y99445000D01*
G75*
G02*
X84450000Y99375000I0J-70000D01*
G01*
X84450000Y98595000D01*
G75*
G02*
X84380000Y98525000I-70000J0D01*
G01*
X83820000Y98525000D01*
G75*
G02*
X83750000Y98595000I0J70000D01*
G01*
G37*
G36*
G01*
X85350000Y98595000D02*
X85350000Y99375000D01*
G75*
G02*
X85420000Y99445000I70000J0D01*
G01*
X85980000Y99445000D01*
G75*
G02*
X86050000Y99375000I0J-70000D01*
G01*
X86050000Y98595000D01*
G75*
G02*
X85980000Y98525000I-70000J0D01*
G01*
X85420000Y98525000D01*
G75*
G02*
X85350000Y98595000I0J70000D01*
G01*
G37*
G04 #@! TD*
G04 #@! TO.C,R327*
G36*
G01*
X90910000Y93905000D02*
X90910000Y94685000D01*
G75*
G02*
X90980000Y94755000I70000J0D01*
G01*
X91540000Y94755000D01*
G75*
G02*
X91610000Y94685000I0J-70000D01*
G01*
X91610000Y93905000D01*
G75*
G02*
X91540000Y93835000I-70000J0D01*
G01*
X90980000Y93835000D01*
G75*
G02*
X90910000Y93905000I0J70000D01*
G01*
G37*
G36*
G01*
X92510000Y93905000D02*
X92510000Y94685000D01*
G75*
G02*
X92580000Y94755000I70000J0D01*
G01*
X93140000Y94755000D01*
G75*
G02*
X93210000Y94685000I0J-70000D01*
G01*
X93210000Y93905000D01*
G75*
G02*
X93140000Y93835000I-70000J0D01*
G01*
X92580000Y93835000D01*
G75*
G02*
X92510000Y93905000I0J70000D01*
G01*
G37*
G04 #@! TD*
G04 #@! TO.C,R841*
G36*
G01*
X64960000Y63255000D02*
X64960000Y64035000D01*
G75*
G02*
X65030000Y64105000I70000J0D01*
G01*
X65590000Y64105000D01*
G75*
G02*
X65660000Y64035000I0J-70000D01*
G01*
X65660000Y63255000D01*
G75*
G02*
X65590000Y63185000I-70000J0D01*
G01*
X65030000Y63185000D01*
G75*
G02*
X64960000Y63255000I0J70000D01*
G01*
G37*
G36*
G01*
X66560000Y63255000D02*
X66560000Y64035000D01*
G75*
G02*
X66630000Y64105000I70000J0D01*
G01*
X67190000Y64105000D01*
G75*
G02*
X67260000Y64035000I0J-70000D01*
G01*
X67260000Y63255000D01*
G75*
G02*
X67190000Y63185000I-70000J0D01*
G01*
X66630000Y63185000D01*
G75*
G02*
X66560000Y63255000I0J70000D01*
G01*
G37*
G04 #@! TD*
G04 #@! TO.C,R325*
G36*
G01*
X88030000Y93825000D02*
X88030000Y94605000D01*
G75*
G02*
X88100000Y94675000I70000J0D01*
G01*
X88660000Y94675000D01*
G75*
G02*
X88730000Y94605000I0J-70000D01*
G01*
X88730000Y93825000D01*
G75*
G02*
X88660000Y93755000I-70000J0D01*
G01*
X88100000Y93755000D01*
G75*
G02*
X88030000Y93825000I0J70000D01*
G01*
G37*
G36*
G01*
X89630000Y93825000D02*
X89630000Y94605000D01*
G75*
G02*
X89700000Y94675000I70000J0D01*
G01*
X90260000Y94675000D01*
G75*
G02*
X90330000Y94605000I0J-70000D01*
G01*
X90330000Y93825000D01*
G75*
G02*
X90260000Y93755000I-70000J0D01*
G01*
X89700000Y93755000D01*
G75*
G02*
X89630000Y93825000I0J70000D01*
G01*
G37*
G04 #@! TD*
G04 #@! TO.C,Q3*
G36*
G01*
X28319000Y26870000D02*
X27619000Y26870000D01*
G75*
G02*
X27369000Y27120000I0J250000D01*
G01*
X27369000Y28820000D01*
G75*
G02*
X27619000Y29070000I250000J0D01*
G01*
X28319000Y29070000D01*
G75*
G02*
X28569000Y28820000I0J-250000D01*
G01*
X28569000Y27120000D01*
G75*
G02*
X28319000Y26870000I-250000J0D01*
G01*
G37*
G36*
G01*
X29849000Y31070000D02*
X27599000Y31070000D01*
G75*
G02*
X27349000Y31320000I0J250000D01*
G01*
X27349000Y33870000D01*
G75*
G02*
X27599000Y34120000I250000J0D01*
G01*
X29849000Y34120000D01*
G75*
G02*
X30099000Y33870000I0J-250000D01*
G01*
X30099000Y31320000D01*
G75*
G02*
X29849000Y31070000I-250000J0D01*
G01*
G37*
G36*
G01*
X32899000Y31070000D02*
X30649000Y31070000D01*
G75*
G02*
X30399000Y31320000I0J250000D01*
G01*
X30399000Y33870000D01*
G75*
G02*
X30649000Y34120000I250000J0D01*
G01*
X32899000Y34120000D01*
G75*
G02*
X33149000Y33870000I0J-250000D01*
G01*
X33149000Y31320000D01*
G75*
G02*
X32899000Y31070000I-250000J0D01*
G01*
G37*
G36*
G01*
X29849000Y34420000D02*
X27599000Y34420000D01*
G75*
G02*
X27349000Y34670000I0J250000D01*
G01*
X27349000Y37220000D01*
G75*
G02*
X27599000Y37470000I250000J0D01*
G01*
X29849000Y37470000D01*
G75*
G02*
X30099000Y37220000I0J-250000D01*
G01*
X30099000Y34670000D01*
G75*
G02*
X29849000Y34420000I-250000J0D01*
G01*
G37*
G36*
G01*
X32899000Y34420000D02*
X30649000Y34420000D01*
G75*
G02*
X30399000Y34670000I0J250000D01*
G01*
X30399000Y37220000D01*
G75*
G02*
X30649000Y37470000I250000J0D01*
G01*
X32899000Y37470000D01*
G75*
G02*
X33149000Y37220000I0J-250000D01*
G01*
X33149000Y34670000D01*
G75*
G02*
X32899000Y34420000I-250000J0D01*
G01*
G37*
G36*
G01*
X32879000Y26870000D02*
X32179000Y26870000D01*
G75*
G02*
X31929000Y27120000I0J250000D01*
G01*
X31929000Y28820000D01*
G75*
G02*
X32179000Y29070000I250000J0D01*
G01*
X32879000Y29070000D01*
G75*
G02*
X33129000Y28820000I0J-250000D01*
G01*
X33129000Y27120000D01*
G75*
G02*
X32879000Y26870000I-250000J0D01*
G01*
G37*
G04 #@! TD*
G04 #@! TO.C,Q904*
G36*
G01*
X122385000Y83010000D02*
X123085000Y83010000D01*
G75*
G02*
X123335000Y82760000I0J-250000D01*
G01*
X123335000Y81060000D01*
G75*
G02*
X123085000Y80810000I-250000J0D01*
G01*
X122385000Y80810000D01*
G75*
G02*
X122135000Y81060000I0J250000D01*
G01*
X122135000Y82760000D01*
G75*
G02*
X122385000Y83010000I250000J0D01*
G01*
G37*
G36*
G01*
X120855000Y78810000D02*
X123105000Y78810000D01*
G75*
G02*
X123355000Y78560000I0J-250000D01*
G01*
X123355000Y76010000D01*
G75*
G02*
X123105000Y75760000I-250000J0D01*
G01*
X120855000Y75760000D01*
G75*
G02*
X120605000Y76010000I0J250000D01*
G01*
X120605000Y78560000D01*
G75*
G02*
X120855000Y78810000I250000J0D01*
G01*
G37*
G36*
G01*
X117805000Y78810000D02*
X120055000Y78810000D01*
G75*
G02*
X120305000Y78560000I0J-250000D01*
G01*
X120305000Y76010000D01*
G75*
G02*
X120055000Y75760000I-250000J0D01*
G01*
X117805000Y75760000D01*
G75*
G02*
X117555000Y76010000I0J250000D01*
G01*
X117555000Y78560000D01*
G75*
G02*
X117805000Y78810000I250000J0D01*
G01*
G37*
G36*
G01*
X120855000Y75460000D02*
X123105000Y75460000D01*
G75*
G02*
X123355000Y75210000I0J-250000D01*
G01*
X123355000Y72660000D01*
G75*
G02*
X123105000Y72410000I-250000J0D01*
G01*
X120855000Y72410000D01*
G75*
G02*
X120605000Y72660000I0J250000D01*
G01*
X120605000Y75210000D01*
G75*
G02*
X120855000Y75460000I250000J0D01*
G01*
G37*
G36*
G01*
X117805000Y75460000D02*
X120055000Y75460000D01*
G75*
G02*
X120305000Y75210000I0J-250000D01*
G01*
X120305000Y72660000D01*
G75*
G02*
X120055000Y72410000I-250000J0D01*
G01*
X117805000Y72410000D01*
G75*
G02*
X117555000Y72660000I0J250000D01*
G01*
X117555000Y75210000D01*
G75*
G02*
X117805000Y75460000I250000J0D01*
G01*
G37*
G36*
G01*
X117825000Y83010000D02*
X118525000Y83010000D01*
G75*
G02*
X118775000Y82760000I0J-250000D01*
G01*
X118775000Y81060000D01*
G75*
G02*
X118525000Y80810000I-250000J0D01*
G01*
X117825000Y80810000D01*
G75*
G02*
X117575000Y81060000I0J250000D01*
G01*
X117575000Y82760000D01*
G75*
G02*
X117825000Y83010000I250000J0D01*
G01*
G37*
G04 #@! TD*
G04 #@! TO.C,R9*
G36*
G01*
X51003000Y53128001D02*
X52253000Y53128001D01*
G75*
G02*
X52353000Y53028001I0J-100000D01*
G01*
X52353000Y52228001D01*
G75*
G02*
X52253000Y52128001I-100000J0D01*
G01*
X51003000Y52128001D01*
G75*
G02*
X50903000Y52228001I0J100000D01*
G01*
X50903000Y53028001D01*
G75*
G02*
X51003000Y53128001I100000J0D01*
G01*
G37*
G36*
G01*
X51003000Y51227979D02*
X52253000Y51227979D01*
G75*
G02*
X52353000Y51127979I0J-100000D01*
G01*
X52353000Y50327979D01*
G75*
G02*
X52253000Y50227979I-100000J0D01*
G01*
X51003000Y50227979D01*
G75*
G02*
X50903000Y50327979I0J100000D01*
G01*
X50903000Y51127979D01*
G75*
G02*
X51003000Y51227979I100000J0D01*
G01*
G37*
G04 #@! TD*
G04 #@! TO.C,U1*
G36*
G01*
X16351000Y70848000D02*
X16751000Y70848000D01*
G75*
G02*
X16951000Y70648000I0J-200000D01*
G01*
X16951000Y68848000D01*
G75*
G02*
X16751000Y68648000I-200000J0D01*
G01*
X16351000Y68648000D01*
G75*
G02*
X16151000Y68848000I0J200000D01*
G01*
X16151000Y70648000D01*
G75*
G02*
X16351000Y70848000I200000J0D01*
G01*
G37*
G36*
G01*
X15211000Y70848000D02*
X15611000Y70848000D01*
G75*
G02*
X15811000Y70648000I0J-200000D01*
G01*
X15811000Y68848000D01*
G75*
G02*
X15611000Y68648000I-200000J0D01*
G01*
X15211000Y68648000D01*
G75*
G02*
X15011000Y68848000I0J200000D01*
G01*
X15011000Y70648000D01*
G75*
G02*
X15211000Y70848000I200000J0D01*
G01*
G37*
G36*
G01*
X14671000Y66648000D02*
X16921000Y66648000D01*
G75*
G02*
X17171000Y66398000I0J-250000D01*
G01*
X17171000Y63848000D01*
G75*
G02*
X16921000Y63598000I-250000J0D01*
G01*
X14671000Y63598000D01*
G75*
G02*
X14421000Y63848000I0J250000D01*
G01*
X14421000Y66398000D01*
G75*
G02*
X14671000Y66648000I250000J0D01*
G01*
G37*
G36*
G01*
X11621000Y66648000D02*
X13871000Y66648000D01*
G75*
G02*
X14121000Y66398000I0J-250000D01*
G01*
X14121000Y63848000D01*
G75*
G02*
X13871000Y63598000I-250000J0D01*
G01*
X11621000Y63598000D01*
G75*
G02*
X11371000Y63848000I0J250000D01*
G01*
X11371000Y66398000D01*
G75*
G02*
X11621000Y66648000I250000J0D01*
G01*
G37*
G36*
G01*
X14671000Y63298000D02*
X16921000Y63298000D01*
G75*
G02*
X17171000Y63048000I0J-250000D01*
G01*
X17171000Y60498000D01*
G75*
G02*
X16921000Y60248000I-250000J0D01*
G01*
X14671000Y60248000D01*
G75*
G02*
X14421000Y60498000I0J250000D01*
G01*
X14421000Y63048000D01*
G75*
G02*
X14671000Y63298000I250000J0D01*
G01*
G37*
G36*
G01*
X11621000Y63298000D02*
X13871000Y63298000D01*
G75*
G02*
X14121000Y63048000I0J-250000D01*
G01*
X14121000Y60498000D01*
G75*
G02*
X13871000Y60248000I-250000J0D01*
G01*
X11621000Y60248000D01*
G75*
G02*
X11371000Y60498000I0J250000D01*
G01*
X11371000Y63048000D01*
G75*
G02*
X11621000Y63298000I250000J0D01*
G01*
G37*
G36*
G01*
X12931000Y70848000D02*
X13331000Y70848000D01*
G75*
G02*
X13531000Y70648000I0J-200000D01*
G01*
X13531000Y68848000D01*
G75*
G02*
X13331000Y68648000I-200000J0D01*
G01*
X12931000Y68648000D01*
G75*
G02*
X12731000Y68848000I0J200000D01*
G01*
X12731000Y70648000D01*
G75*
G02*
X12931000Y70848000I200000J0D01*
G01*
G37*
G36*
G01*
X11791000Y70848000D02*
X12191000Y70848000D01*
G75*
G02*
X12391000Y70648000I0J-200000D01*
G01*
X12391000Y68848000D01*
G75*
G02*
X12191000Y68648000I-200000J0D01*
G01*
X11791000Y68648000D01*
G75*
G02*
X11591000Y68848000I0J200000D01*
G01*
X11591000Y70648000D01*
G75*
G02*
X11791000Y70848000I200000J0D01*
G01*
G37*
G04 #@! TD*
G04 #@! TO.C,Q902*
G36*
G01*
X98555000Y70920000D02*
X99255000Y70920000D01*
G75*
G02*
X99505000Y70670000I0J-250000D01*
G01*
X99505000Y68970000D01*
G75*
G02*
X99255000Y68720000I-250000J0D01*
G01*
X98555000Y68720000D01*
G75*
G02*
X98305000Y68970000I0J250000D01*
G01*
X98305000Y70670000D01*
G75*
G02*
X98555000Y70920000I250000J0D01*
G01*
G37*
G36*
G01*
X97025000Y66720000D02*
X99275000Y66720000D01*
G75*
G02*
X99525000Y66470000I0J-250000D01*
G01*
X99525000Y63920000D01*
G75*
G02*
X99275000Y63670000I-250000J0D01*
G01*
X97025000Y63670000D01*
G75*
G02*
X96775000Y63920000I0J250000D01*
G01*
X96775000Y66470000D01*
G75*
G02*
X97025000Y66720000I250000J0D01*
G01*
G37*
G36*
G01*
X93975000Y66720000D02*
X96225000Y66720000D01*
G75*
G02*
X96475000Y66470000I0J-250000D01*
G01*
X96475000Y63920000D01*
G75*
G02*
X96225000Y63670000I-250000J0D01*
G01*
X93975000Y63670000D01*
G75*
G02*
X93725000Y63920000I0J250000D01*
G01*
X93725000Y66470000D01*
G75*
G02*
X93975000Y66720000I250000J0D01*
G01*
G37*
G36*
G01*
X97025000Y63370000D02*
X99275000Y63370000D01*
G75*
G02*
X99525000Y63120000I0J-250000D01*
G01*
X99525000Y60570000D01*
G75*
G02*
X99275000Y60320000I-250000J0D01*
G01*
X97025000Y60320000D01*
G75*
G02*
X96775000Y60570000I0J250000D01*
G01*
X96775000Y63120000D01*
G75*
G02*
X97025000Y63370000I250000J0D01*
G01*
G37*
G36*
G01*
X93975000Y63370000D02*
X96225000Y63370000D01*
G75*
G02*
X96475000Y63120000I0J-250000D01*
G01*
X96475000Y60570000D01*
G75*
G02*
X96225000Y60320000I-250000J0D01*
G01*
X93975000Y60320000D01*
G75*
G02*
X93725000Y60570000I0J250000D01*
G01*
X93725000Y63120000D01*
G75*
G02*
X93975000Y63370000I250000J0D01*
G01*
G37*
G36*
G01*
X93995000Y70920000D02*
X94695000Y70920000D01*
G75*
G02*
X94945000Y70670000I0J-250000D01*
G01*
X94945000Y68970000D01*
G75*
G02*
X94695000Y68720000I-250000J0D01*
G01*
X93995000Y68720000D01*
G75*
G02*
X93745000Y68970000I0J250000D01*
G01*
X93745000Y70670000D01*
G75*
G02*
X93995000Y70920000I250000J0D01*
G01*
G37*
G04 #@! TD*
G04 #@! TO.C,R3*
G36*
G01*
X13322000Y72504500D02*
X12542000Y72504500D01*
G75*
G02*
X12472000Y72574500I0J70000D01*
G01*
X12472000Y73134500D01*
G75*
G02*
X12542000Y73204500I70000J0D01*
G01*
X13322000Y73204500D01*
G75*
G02*
X13392000Y73134500I0J-70000D01*
G01*
X13392000Y72574500D01*
G75*
G02*
X13322000Y72504500I-70000J0D01*
G01*
G37*
G36*
G01*
X13322000Y74104500D02*
X12542000Y74104500D01*
G75*
G02*
X12472000Y74174500I0J70000D01*
G01*
X12472000Y74734500D01*
G75*
G02*
X12542000Y74804500I70000J0D01*
G01*
X13322000Y74804500D01*
G75*
G02*
X13392000Y74734500I0J-70000D01*
G01*
X13392000Y74174500D01*
G75*
G02*
X13322000Y74104500I-70000J0D01*
G01*
G37*
G04 #@! TD*
D10*
G04 #@! TO.C,M7*
X80952000Y55002006D03*
G04 #@! TD*
G04 #@! TO.C,Q849*
G36*
G01*
X153045000Y80920000D02*
X153745000Y80920000D01*
G75*
G02*
X153995000Y80670000I0J-250000D01*
G01*
X153995000Y78970000D01*
G75*
G02*
X153745000Y78720000I-250000J0D01*
G01*
X153045000Y78720000D01*
G75*
G02*
X152795000Y78970000I0J250000D01*
G01*
X152795000Y80670000D01*
G75*
G02*
X153045000Y80920000I250000J0D01*
G01*
G37*
G36*
G01*
X151515000Y76720000D02*
X153765000Y76720000D01*
G75*
G02*
X154015000Y76470000I0J-250000D01*
G01*
X154015000Y73920000D01*
G75*
G02*
X153765000Y73670000I-250000J0D01*
G01*
X151515000Y73670000D01*
G75*
G02*
X151265000Y73920000I0J250000D01*
G01*
X151265000Y76470000D01*
G75*
G02*
X151515000Y76720000I250000J0D01*
G01*
G37*
G36*
G01*
X148465000Y76720000D02*
X150715000Y76720000D01*
G75*
G02*
X150965000Y76470000I0J-250000D01*
G01*
X150965000Y73920000D01*
G75*
G02*
X150715000Y73670000I-250000J0D01*
G01*
X148465000Y73670000D01*
G75*
G02*
X148215000Y73920000I0J250000D01*
G01*
X148215000Y76470000D01*
G75*
G02*
X148465000Y76720000I250000J0D01*
G01*
G37*
G36*
G01*
X151515000Y73370000D02*
X153765000Y73370000D01*
G75*
G02*
X154015000Y73120000I0J-250000D01*
G01*
X154015000Y70570000D01*
G75*
G02*
X153765000Y70320000I-250000J0D01*
G01*
X151515000Y70320000D01*
G75*
G02*
X151265000Y70570000I0J250000D01*
G01*
X151265000Y73120000D01*
G75*
G02*
X151515000Y73370000I250000J0D01*
G01*
G37*
G36*
G01*
X148465000Y73370000D02*
X150715000Y73370000D01*
G75*
G02*
X150965000Y73120000I0J-250000D01*
G01*
X150965000Y70570000D01*
G75*
G02*
X150715000Y70320000I-250000J0D01*
G01*
X148465000Y70320000D01*
G75*
G02*
X148215000Y70570000I0J250000D01*
G01*
X148215000Y73120000D01*
G75*
G02*
X148465000Y73370000I250000J0D01*
G01*
G37*
G36*
G01*
X148485000Y80920000D02*
X149185000Y80920000D01*
G75*
G02*
X149435000Y80670000I0J-250000D01*
G01*
X149435000Y78970000D01*
G75*
G02*
X149185000Y78720000I-250000J0D01*
G01*
X148485000Y78720000D01*
G75*
G02*
X148235000Y78970000I0J250000D01*
G01*
X148235000Y80670000D01*
G75*
G02*
X148485000Y80920000I250000J0D01*
G01*
G37*
G04 #@! TD*
G04 #@! TO.C,R305*
G36*
G01*
X86600000Y98535000D02*
X86600000Y99315000D01*
G75*
G02*
X86670000Y99385000I70000J0D01*
G01*
X87230000Y99385000D01*
G75*
G02*
X87300000Y99315000I0J-70000D01*
G01*
X87300000Y98535000D01*
G75*
G02*
X87230000Y98465000I-70000J0D01*
G01*
X86670000Y98465000D01*
G75*
G02*
X86600000Y98535000I0J70000D01*
G01*
G37*
G36*
G01*
X88200000Y98535000D02*
X88200000Y99315000D01*
G75*
G02*
X88270000Y99385000I70000J0D01*
G01*
X88830000Y99385000D01*
G75*
G02*
X88900000Y99315000I0J-70000D01*
G01*
X88900000Y98535000D01*
G75*
G02*
X88830000Y98465000I-70000J0D01*
G01*
X88270000Y98465000D01*
G75*
G02*
X88200000Y98535000I0J70000D01*
G01*
G37*
G04 #@! TD*
G04 #@! TO.C,Q847*
G36*
G01*
X131412500Y66950000D02*
X132112500Y66950000D01*
G75*
G02*
X132362500Y66700000I0J-250000D01*
G01*
X132362500Y65000000D01*
G75*
G02*
X132112500Y64750000I-250000J0D01*
G01*
X131412500Y64750000D01*
G75*
G02*
X131162500Y65000000I0J250000D01*
G01*
X131162500Y66700000D01*
G75*
G02*
X131412500Y66950000I250000J0D01*
G01*
G37*
G36*
G01*
X129882500Y62750000D02*
X132132500Y62750000D01*
G75*
G02*
X132382500Y62500000I0J-250000D01*
G01*
X132382500Y59950000D01*
G75*
G02*
X132132500Y59700000I-250000J0D01*
G01*
X129882500Y59700000D01*
G75*
G02*
X129632500Y59950000I0J250000D01*
G01*
X129632500Y62500000D01*
G75*
G02*
X129882500Y62750000I250000J0D01*
G01*
G37*
G36*
G01*
X126832500Y62750000D02*
X129082500Y62750000D01*
G75*
G02*
X129332500Y62500000I0J-250000D01*
G01*
X129332500Y59950000D01*
G75*
G02*
X129082500Y59700000I-250000J0D01*
G01*
X126832500Y59700000D01*
G75*
G02*
X126582500Y59950000I0J250000D01*
G01*
X126582500Y62500000D01*
G75*
G02*
X126832500Y62750000I250000J0D01*
G01*
G37*
G36*
G01*
X129882500Y59400000D02*
X132132500Y59400000D01*
G75*
G02*
X132382500Y59150000I0J-250000D01*
G01*
X132382500Y56600000D01*
G75*
G02*
X132132500Y56350000I-250000J0D01*
G01*
X129882500Y56350000D01*
G75*
G02*
X129632500Y56600000I0J250000D01*
G01*
X129632500Y59150000D01*
G75*
G02*
X129882500Y59400000I250000J0D01*
G01*
G37*
G36*
G01*
X126832500Y59400000D02*
X129082500Y59400000D01*
G75*
G02*
X129332500Y59150000I0J-250000D01*
G01*
X129332500Y56600000D01*
G75*
G02*
X129082500Y56350000I-250000J0D01*
G01*
X126832500Y56350000D01*
G75*
G02*
X126582500Y56600000I0J250000D01*
G01*
X126582500Y59150000D01*
G75*
G02*
X126832500Y59400000I250000J0D01*
G01*
G37*
G36*
G01*
X126852500Y66950000D02*
X127552500Y66950000D01*
G75*
G02*
X127802500Y66700000I0J-250000D01*
G01*
X127802500Y65000000D01*
G75*
G02*
X127552500Y64750000I-250000J0D01*
G01*
X126852500Y64750000D01*
G75*
G02*
X126602500Y65000000I0J250000D01*
G01*
X126602500Y66700000D01*
G75*
G02*
X126852500Y66950000I250000J0D01*
G01*
G37*
G04 #@! TD*
G04 #@! TO.C,R4*
G36*
G01*
X16542000Y76884572D02*
X16542000Y76104572D01*
G75*
G02*
X16472000Y76034572I-70000J0D01*
G01*
X15912000Y76034572D01*
G75*
G02*
X15842000Y76104572I0J70000D01*
G01*
X15842000Y76884572D01*
G75*
G02*
X15912000Y76954572I70000J0D01*
G01*
X16472000Y76954572D01*
G75*
G02*
X16542000Y76884572I0J-70000D01*
G01*
G37*
G36*
G01*
X14942000Y76884572D02*
X14942000Y76104572D01*
G75*
G02*
X14872000Y76034572I-70000J0D01*
G01*
X14312000Y76034572D01*
G75*
G02*
X14242000Y76104572I0J70000D01*
G01*
X14242000Y76884572D01*
G75*
G02*
X14312000Y76954572I70000J0D01*
G01*
X14872000Y76954572D01*
G75*
G02*
X14942000Y76884572I0J-70000D01*
G01*
G37*
G04 #@! TD*
G04 #@! TO.C,Q1*
G36*
G01*
X16217000Y75153500D02*
X16517000Y75153500D01*
G75*
G02*
X16667000Y75003500I0J-150000D01*
G01*
X16667000Y73828500D01*
G75*
G02*
X16517000Y73678500I-150000J0D01*
G01*
X16217000Y73678500D01*
G75*
G02*
X16067000Y73828500I0J150000D01*
G01*
X16067000Y75003500D01*
G75*
G02*
X16217000Y75153500I150000J0D01*
G01*
G37*
G36*
G01*
X14317000Y75153500D02*
X14617000Y75153500D01*
G75*
G02*
X14767000Y75003500I0J-150000D01*
G01*
X14767000Y73828500D01*
G75*
G02*
X14617000Y73678500I-150000J0D01*
G01*
X14317000Y73678500D01*
G75*
G02*
X14167000Y73828500I0J150000D01*
G01*
X14167000Y75003500D01*
G75*
G02*
X14317000Y75153500I150000J0D01*
G01*
G37*
G36*
G01*
X15267000Y73278500D02*
X15567000Y73278500D01*
G75*
G02*
X15717000Y73128500I0J-150000D01*
G01*
X15717000Y71953500D01*
G75*
G02*
X15567000Y71803500I-150000J0D01*
G01*
X15267000Y71803500D01*
G75*
G02*
X15117000Y71953500I0J150000D01*
G01*
X15117000Y73128500D01*
G75*
G02*
X15267000Y73278500I150000J0D01*
G01*
G37*
G04 #@! TD*
G04 #@! TO.C,R12*
G36*
G01*
X50944000Y56754001D02*
X52194000Y56754001D01*
G75*
G02*
X52294000Y56654001I0J-100000D01*
G01*
X52294000Y55854001D01*
G75*
G02*
X52194000Y55754001I-100000J0D01*
G01*
X50944000Y55754001D01*
G75*
G02*
X50844000Y55854001I0J100000D01*
G01*
X50844000Y56654001D01*
G75*
G02*
X50944000Y56754001I100000J0D01*
G01*
G37*
G36*
G01*
X50944000Y54853979D02*
X52194000Y54853979D01*
G75*
G02*
X52294000Y54753979I0J-100000D01*
G01*
X52294000Y53953979D01*
G75*
G02*
X52194000Y53853979I-100000J0D01*
G01*
X50944000Y53853979D01*
G75*
G02*
X50844000Y53953979I0J100000D01*
G01*
X50844000Y54753979D01*
G75*
G02*
X50944000Y54853979I100000J0D01*
G01*
G37*
G04 #@! TD*
G04 #@! TO.C,Q844*
G36*
G01*
X131720000Y82445000D02*
X132420000Y82445000D01*
G75*
G02*
X132670000Y82195000I0J-250000D01*
G01*
X132670000Y80495000D01*
G75*
G02*
X132420000Y80245000I-250000J0D01*
G01*
X131720000Y80245000D01*
G75*
G02*
X131470000Y80495000I0J250000D01*
G01*
X131470000Y82195000D01*
G75*
G02*
X131720000Y82445000I250000J0D01*
G01*
G37*
G36*
G01*
X130190000Y78245000D02*
X132440000Y78245000D01*
G75*
G02*
X132690000Y77995000I0J-250000D01*
G01*
X132690000Y75445000D01*
G75*
G02*
X132440000Y75195000I-250000J0D01*
G01*
X130190000Y75195000D01*
G75*
G02*
X129940000Y75445000I0J250000D01*
G01*
X129940000Y77995000D01*
G75*
G02*
X130190000Y78245000I250000J0D01*
G01*
G37*
G36*
G01*
X127140000Y78245000D02*
X129390000Y78245000D01*
G75*
G02*
X129640000Y77995000I0J-250000D01*
G01*
X129640000Y75445000D01*
G75*
G02*
X129390000Y75195000I-250000J0D01*
G01*
X127140000Y75195000D01*
G75*
G02*
X126890000Y75445000I0J250000D01*
G01*
X126890000Y77995000D01*
G75*
G02*
X127140000Y78245000I250000J0D01*
G01*
G37*
G36*
G01*
X130190000Y74895000D02*
X132440000Y74895000D01*
G75*
G02*
X132690000Y74645000I0J-250000D01*
G01*
X132690000Y72095000D01*
G75*
G02*
X132440000Y71845000I-250000J0D01*
G01*
X130190000Y71845000D01*
G75*
G02*
X129940000Y72095000I0J250000D01*
G01*
X129940000Y74645000D01*
G75*
G02*
X130190000Y74895000I250000J0D01*
G01*
G37*
G36*
G01*
X127140000Y74895000D02*
X129390000Y74895000D01*
G75*
G02*
X129640000Y74645000I0J-250000D01*
G01*
X129640000Y72095000D01*
G75*
G02*
X129390000Y71845000I-250000J0D01*
G01*
X127140000Y71845000D01*
G75*
G02*
X126890000Y72095000I0J250000D01*
G01*
X126890000Y74645000D01*
G75*
G02*
X127140000Y74895000I250000J0D01*
G01*
G37*
G36*
G01*
X127160000Y82445000D02*
X127860000Y82445000D01*
G75*
G02*
X128110000Y82195000I0J-250000D01*
G01*
X128110000Y80495000D01*
G75*
G02*
X127860000Y80245000I-250000J0D01*
G01*
X127160000Y80245000D01*
G75*
G02*
X126910000Y80495000I0J250000D01*
G01*
X126910000Y82195000D01*
G75*
G02*
X127160000Y82445000I250000J0D01*
G01*
G37*
G04 #@! TD*
M02*
