M48
; DRILL file {KiCad 8.0.9-8.0.9-0~ubuntu24.04.1} date 2026-01-26T21:12:33+0000
; FORMAT={2:4/ absolute / inch / suppress leading zeros}
; #@! TF.CreationDate,2026-01-26T21:12:33+00:00
; #@! TF.GenerationSoftware,Kicad,Pcbnew,8.0.9-8.0.9-0~ubuntu24.04.1
; #@! TF.FileFunction,MixedPlating,1,4
FMAT,2
INCH,TZ
; #@! TA.AperFunction,Plated,PTH,ComponentDrill
T1C0.0118
; #@! TA.AperFunction,Plated,PTH,ViaDrill
T2C0.0118
; #@! TA.AperFunction,Plated,PTH,ComponentDrill
T3C0.0118
; #@! TA.AperFunction,Plated,PTH,ViaDrill
T4C0.0157
; #@! TA.AperFunction,Plated,PTH,ViaDrill
T5C0.0276
; #@! TA.AperFunction,Plated,PTH,ComponentDrill
T6C0.0276
; #@! TA.AperFunction,Plated,PTH,ComponentDrill
T7C0.0320
; #@! TA.AperFunction,Plated,PTH,ComponentDrill
T8C0.0394
; #@! TA.AperFunction,Plated,PTH,ComponentDrill
T9C0.0433
; #@! TA.AperFunction,Plated,PTH,ComponentDrill
T10C0.0866
; #@! TA.AperFunction,Plated,PTH,ComponentDrill
T11C0.1457
%
G90
G05
T1
X32008Y22669
X32352Y22463
X32441Y24362
X32456Y34215
X32470Y22965
X32574Y35819
X33322Y35825
X33490Y36547
X33706Y35740
X34051Y35825
X34385Y35854
X34513Y36547
X35025Y36031
X35281Y36547
T2
X3174Y26242
X3472Y13400
X3756Y14330
X3984Y12045
X4134Y13557
X4152Y25133
X4169Y34041
X4351Y26502
X4571Y13344
X5406Y29777
X5969Y22728
X6570Y30624
X7083Y36078
X9126Y15896
X9256Y15600
X9528Y30880
X9930Y21212
X10161Y27880
X10432Y17548
X10801Y23405
X10902Y31162
X10987Y29370
X11118Y25919
X11169Y26392
X11331Y18215
X12518Y16938
X12567Y37826
X12567Y23683
X12610Y27774
X12886Y38466
X13634Y37782
X13972Y27675
X13988Y11301
X14638Y39821
X14981Y38651
X15557Y27356
X15600Y38097
X15622Y28801
X15823Y20140
X15826Y23737
X15915Y37858
X16024Y27211
X16091Y35671
X16953Y26573
X18701Y13533
X19039Y14301
X19094Y10652
X19630Y10746
X19693Y14167
X20165Y40927
X20177Y14844
X20425Y19392
X20453Y21128
X20697Y14321
X21547Y40923
X21617Y21576
X22320Y11967
X22423Y11404
X22555Y12183
X22713Y10967
X23036Y10573
X23222Y10238
X24453Y24037
X25394Y40947
X25693Y25526
X25850Y24069
X26374Y25915
X27704Y24191
X28323Y26537
X28416Y15232
X28482Y12444
X28860Y17972
X28878Y21557
X28921Y21869
X29012Y26423
X29057Y17146
X29362Y18199
X29512Y20789
X29677Y36065
X29717Y30222
X29843Y39333
X29895Y26435
X30261Y26467
X30433Y31372
X30488Y21096
X30693Y30395
X30765Y26659
X30798Y39877
X30880Y25817
X30899Y13799
X30902Y40174
X30913Y31061
X30952Y39568
X30963Y40531
X31113Y12868
X31202Y39331
X31264Y29852
X31268Y40683
X31283Y35616
X31358Y25778
X31453Y35333
X31664Y39081
X31756Y35876
X31843Y37518
X31854Y21884
X31945Y34829
X31988Y36955
X32079Y37809
X32287Y36622
X32343Y38022
X32413Y29986
X32561Y24972
X32689Y38100
X32717Y38470
X32732Y38872
X32752Y31152
X32776Y29057
X33409Y24919
X33417Y27124
X33425Y40565
X33445Y39037
X33862Y19018
X33917Y16360
X33937Y33087
X34025Y31715
X34073Y23788
X34102Y38360
X34240Y33455
X34253Y25196
X34332Y28084
X34531Y24530
X34583Y38868
X34690Y27961
X34811Y37750
X34905Y14934
X35130Y37088
X36953Y37065
X37114Y31313
X37142Y27750
X37496Y14222
X37504Y20352
X37697Y35161
X37837Y36732
X38102Y34866
X38413Y26880
X38548Y36437
X38669Y14603
X38719Y20831
X38867Y31344
X39035Y34423
X39453Y35963
X40028Y33961
X40303Y35464
X45856Y39661
X47602Y14654
X47759Y20954
X47780Y26719
X47846Y31846
X49000Y43002
X49760Y35998
X51457Y25955
X51545Y30711
X51594Y14652
X51606Y20998
X52295Y43018
X52388Y36008
X54512Y39195
X59961Y31478
X60094Y25915
X60181Y20707
X60340Y15242
T3
X10397Y22987
X10397Y19561
X10752Y19561
X10771Y22987
X11145Y22987
X12026Y23000
X12499Y23000
X12971Y23000
X13444Y23000
X14570Y17321
X14963Y17321
X16151Y23033
X16331Y40746
X16331Y38896
X16331Y38344
X16331Y36494
X16331Y36179
X16331Y35156
X16331Y34762
X16331Y34368
X16331Y33974
X16331Y33581
X16331Y33187
X16331Y32793
X16331Y32400
X16331Y28187
X16331Y27793
X16488Y26809
X16623Y23033
X17096Y23033
X17433Y26809
X17568Y23033
X17906Y26809
X18378Y26809
X18694Y17354
X18850Y26809
X19088Y17354
X19244Y40746
X19323Y26809
X19638Y40746
X19795Y26809
X20268Y26809
X20701Y40746
X20740Y26809
X21213Y26809
X21685Y26809
X22157Y26809
X22394Y40746
X22630Y26809
X22709Y40746
X22927Y12549
X23024Y40746
X23102Y26809
X23321Y12549
X23339Y40746
X23575Y26809
X23654Y40746
X23715Y12549
X23969Y40746
X24047Y26809
X24108Y12549
X24283Y40746
X24520Y26809
X24598Y40746
X24913Y40746
X24992Y26809
X25035Y23018
X25435Y23018
X25465Y26809
X25858Y40746
X25937Y26809
X26173Y40746
X26333Y23018
X26409Y26809
X26488Y40746
X26726Y23018
X26803Y40746
X26882Y26809
X27118Y40746
X27120Y23018
X27433Y40746
X27748Y40746
X28063Y40746
X28378Y40746
X28693Y40746
X29008Y40746
X29323Y40746
X29480Y35470
X29480Y29368
X29480Y37911
X29480Y37596
X29480Y37281
X29480Y36967
X29480Y36652
X29480Y36337
X29480Y35785
X29480Y35156
X29480Y34841
X29480Y34526
X29480Y34211
X29480Y33896
X29480Y33581
X29480Y33266
X29480Y32951
X29480Y32636
X29480Y32321
X29480Y32006
X29480Y31691
X29480Y31376
X29480Y31061
X31553Y20886
X31868Y20886
X32183Y20886
X32498Y20886
X32813Y20886
X33128Y20886
X33443Y20886
X33443Y20571
X47520Y36278
X47913Y36278
T4
X34350Y15545
T5
X508Y28963
X508Y24544
X508Y20125
X508Y15706
X508Y11287
X508Y6868
X823Y33274
X1185Y40246
X5236Y41982
X6713Y45238
X11332Y45238
X15951Y45238
X20570Y45238
X25189Y45238
X29366Y8620
X29809Y45238
X34428Y45238
X37260Y29577
X37276Y30427
X37276Y28844
X37291Y24419
X37307Y25270
X37307Y23687
X37488Y12431
X37504Y13281
X37504Y11699
X37571Y18541
X37587Y19392
X37587Y17809
X38020Y29545
X38024Y30415
X38051Y24388
X38055Y28856
X38055Y25258
X38087Y23699
X38248Y12400
X38252Y13270
X38283Y11711
X38331Y18510
X38335Y19380
X38366Y17821
X38752Y30419
X38752Y29569
X38783Y25262
X38783Y24411
X38791Y28856
X38823Y23699
X38980Y13274
X38980Y12423
X39020Y11711
X39047Y45238
X39063Y19384
X39063Y18533
X39102Y17821
X43666Y45238
X46465Y13203
X46476Y11632
X46492Y12364
X46500Y23620
X46516Y24470
X46516Y22888
X46606Y18557
X46622Y19407
X46622Y17825
X46657Y29199
X46673Y30049
X46673Y28467
X47213Y11636
X47217Y12348
X47228Y13171
X47260Y23589
X47264Y24459
X47295Y22900
X47366Y18526
X47370Y19396
X47402Y17837
X47417Y29167
X47421Y30037
X47453Y28478
X47957Y13171
X47969Y11640
X47976Y12352
X47992Y24463
X47992Y23612
X48031Y22900
X48098Y19400
X48098Y18549
X48138Y17837
X48150Y30041
X48150Y29191
X48189Y28478
X48285Y45238
X50205Y23506
X50220Y24356
X50220Y22774
X50283Y18553
X50299Y19404
X50299Y17821
X50319Y12175
X50335Y13026
X50335Y11443
X50350Y29006
X50366Y29856
X50366Y28274
X50965Y23474
X50969Y24344
X51000Y22785
X51043Y18522
X51047Y19392
X51079Y17833
X51079Y12144
X51083Y13014
X51110Y28974
X51114Y29844
X51114Y11455
X51146Y28285
X51697Y24348
X51697Y23498
X51736Y22785
X51776Y19396
X51776Y18545
X51811Y13018
X51811Y12167
X51815Y17833
X51843Y29848
X51843Y28998
X51850Y11455
X51882Y28285
X52904Y45238
X53224Y31195
X53409Y29018
X57524Y45238
X58752Y28998
X58768Y29848
X58768Y28266
X58858Y23455
X58870Y12179
X58874Y24305
X58874Y22722
X58886Y13030
X58886Y11447
X58909Y18392
X58925Y19242
X58925Y17659
X59512Y28967
X59516Y29837
X59547Y28278
X59618Y23423
X59622Y24293
X59630Y12148
X59634Y13018
X59654Y22734
X59665Y11459
X59669Y18360
X59673Y19230
X59705Y17671
X60244Y29841
X60244Y28990
X60283Y28278
X60350Y24297
X60350Y23447
X60362Y13022
X60362Y12171
X60390Y22734
X60402Y19234
X60402Y18384
X60402Y11459
X60417Y41502
X60441Y17671
X63346Y39955
X63413Y28285
X63413Y22985
X63413Y17685
X63413Y12385
X63413Y7085
X63508Y33301
T6
X29821Y20256
X29821Y19783
X29821Y16555
X33364Y17421
X43171Y39679
X43171Y39049
X43860Y39994
X43860Y39364
X43860Y38734
T7
X35055Y21927
X35906Y16069
X36984Y21927
X37835Y16069
X43876Y41675
X45376Y41675
X56283Y39077
X56283Y37148
X58177Y38884
X58177Y36955
T8
X46398Y36455
X46575Y42557
X48858Y36455
X50551Y36455
X51299Y36455
X51319Y42557
X53268Y42557
X53819Y36455
X53996Y42557
T9
X15531Y7333
X15531Y6333
X15531Y3951
X15531Y2951
X16531Y7333
X16531Y6333
X16531Y3951
X16531Y2951
X17531Y7333
X17531Y6333
X17531Y3951
X17531Y2951
X18531Y7333
X18531Y6333
X18531Y3951
X18531Y2951
X19531Y7333
X19531Y6333
X19531Y3951
X19531Y2951
X20531Y7333
X20531Y6333
X20531Y3951
X20531Y2951
X21531Y7333
X21531Y6333
X21531Y3951
X21531Y2951
X22531Y7333
X22531Y6333
X22531Y3951
X22531Y2951
X23531Y7333
X23531Y6333
X23531Y3951
X23531Y2951
X24531Y7333
X24531Y6333
X24531Y3951
X24531Y2951
X25531Y7333
X25531Y6333
X25531Y3951
X25531Y2951
X26531Y7333
X26531Y6333
X26531Y3951
X26531Y2951
X27531Y7333
X27531Y6333
X27531Y3951
X27531Y2951
X28531Y7333
X28531Y6333
X28531Y3951
X28531Y2951
X29531Y7333
X29531Y6333
X29531Y3951
X29531Y2951
X30531Y7333
X30531Y6333
X30531Y3951
X30531Y2951
X31531Y7333
X31531Y6333
X31531Y3951
X31531Y2951
X32531Y7333
X32531Y6333
X32531Y3951
X32531Y2951
X33531Y7333
X33531Y6333
X33531Y3951
X33531Y2951
X39819Y7333
X39819Y6333
X39819Y3951
X39819Y2951
X40819Y7333
X40819Y6333
X40819Y3951
X40819Y2951
X41819Y7333
X41819Y6333
X41819Y3951
X41819Y2951
X42819Y7333
X42819Y6333
X42819Y3951
X42819Y2951
X43819Y7333
X43819Y6333
X43819Y3951
X43819Y2951
X44819Y7333
X44819Y6333
X44819Y3951
X44819Y2951
X45819Y7333
X45819Y6333
X45819Y3951
X45819Y2951
X46819Y7333
X46819Y6333
X46819Y3951
X46819Y2951
T10
X8307Y5234
X10138Y7333
X10138Y4132
X11280Y5049
X12421Y7333
X12421Y4132
X49902Y7333
X49902Y4132
X51043Y5049
X52185Y7333
X52185Y4132
X53366Y5049
X54508Y7333
X54508Y4132
X56260Y5234
T11
X7343Y2163
X36673Y2163
X57224Y2163
T6
X43260Y40801G85X43772Y40801
G05
X43260Y37927G85X43772Y37927
G05
M30
