G04 #@! TF.GenerationSoftware,KiCad,Pcbnew,8.0.9-8.0.9-0~ubuntu24.04.1*
G04 #@! TF.CreationDate,2025-12-21T02:33:54+00:00*
G04 #@! TF.ProjectId,greenenergyecu,67726565-6e65-46e6-9572-67796563752e,d*
G04 #@! TF.SameCoordinates,PX2b953a0PY6943058*
G04 #@! TF.FileFunction,Soldermask,Bot*
G04 #@! TF.FilePolarity,Negative*
%FSLAX46Y46*%
G04 Gerber Fmt 4.6, Leading zero omitted, Abs format (unit mm)*
G04 Created by KiCad (PCBNEW 8.0.9-8.0.9-0~ubuntu24.04.1) date 2025-12-21 02:33:54*
%MOMM*%
%LPD*%
G01*
G04 APERTURE LIST*
%ADD10C,3.700000*%
%ADD11C,2.200000*%
%ADD12C,2.600000*%
%ADD13C,1.500000*%
%ADD14C,0.600000*%
%ADD15C,1.524000*%
%ADD16O,1.700000X1.850000*%
%ADD17R,1.100000X1.100000*%
%ADD18C,1.100000*%
%ADD19O,2.400000X1.100000*%
%ADD20C,0.599999*%
G04 APERTURE END LIST*
D10*
G04 #@! TO.C,P1*
X144952000Y113258000D03*
D11*
X142502000Y105458000D03*
D10*
X70452000Y113258000D03*
D11*
X20702000Y105458000D03*
D10*
X18252000Y113258000D03*
D12*
X137852000Y108258000D03*
X132052000Y108258000D03*
X134952000Y105928000D03*
X137852000Y100128000D03*
X132052000Y100128000D03*
D13*
X78432000Y100128000D03*
X80972000Y100128000D03*
X83512000Y100128000D03*
X86052000Y100128000D03*
X88592000Y100128000D03*
X91132000Y100128000D03*
X93672000Y100128000D03*
X96212000Y100128000D03*
X98752000Y100128000D03*
X101292000Y100128000D03*
X103832000Y100128000D03*
X106372000Y100128000D03*
X108912000Y100128000D03*
X111452000Y100128000D03*
X113992000Y100128000D03*
X116532000Y100128000D03*
X119072000Y100128000D03*
X121612000Y100128000D03*
X124152000Y100128000D03*
X78432000Y102668000D03*
X80972000Y102668000D03*
X83512000Y102668000D03*
X86052000Y102668000D03*
X88592000Y102668000D03*
X91132000Y102668000D03*
X93672000Y102668000D03*
X96212000Y102668000D03*
X98752000Y102668000D03*
X101292000Y102668000D03*
X103832000Y102668000D03*
X106372000Y102668000D03*
X108912000Y102668000D03*
X111452000Y102668000D03*
X113992000Y102668000D03*
X116532000Y102668000D03*
X119072000Y102668000D03*
X121612000Y102668000D03*
X124152000Y102668000D03*
X78432000Y108718000D03*
X80972000Y108718000D03*
X83512000Y108718000D03*
X86052000Y108718000D03*
X88592000Y108718000D03*
X91132000Y108718000D03*
X93672000Y108718000D03*
X96212000Y108718000D03*
X98752000Y108718000D03*
X101292000Y108718000D03*
X103832000Y108718000D03*
X106372000Y108718000D03*
X108912000Y108718000D03*
X111452000Y108718000D03*
X113992000Y108718000D03*
X116532000Y108718000D03*
X119072000Y108718000D03*
X121612000Y108718000D03*
X124152000Y108718000D03*
X78432000Y111258000D03*
X80972000Y111258000D03*
X83512000Y111258000D03*
X86052000Y111258000D03*
X88592000Y111258000D03*
X91132000Y111258000D03*
X93672000Y111258000D03*
X96212000Y111258000D03*
X98752000Y111258000D03*
X101292000Y111258000D03*
X103832000Y111258000D03*
X106372000Y111258000D03*
X108912000Y111258000D03*
X111452000Y111258000D03*
X113992000Y111258000D03*
X116532000Y111258000D03*
X119072000Y111258000D03*
X121612000Y111258000D03*
X124152000Y111258000D03*
X62462000Y111258000D03*
X59922000Y111258000D03*
X57382000Y111258000D03*
X54842000Y111258000D03*
X52302000Y111258000D03*
X49762000Y111258000D03*
X47222000Y111258000D03*
X44682000Y111258000D03*
X62462000Y108718000D03*
X59922000Y108718000D03*
X57382000Y108718000D03*
X54842000Y108718000D03*
X52302000Y108718000D03*
X49762000Y108718000D03*
X47222000Y108718000D03*
X44682000Y108718000D03*
X62462000Y102668000D03*
X59922000Y102668000D03*
X57382000Y102668000D03*
X54842000Y102668000D03*
X52302000Y102668000D03*
X49762000Y102668000D03*
X47222000Y102668000D03*
X44682000Y102668000D03*
X62462000Y100128000D03*
X59922000Y100128000D03*
X57382000Y100128000D03*
X54842000Y100128000D03*
X52302000Y100128000D03*
X49762000Y100128000D03*
X47222000Y100128000D03*
X44682000Y100128000D03*
D12*
X36852000Y108258000D03*
X31052000Y108258000D03*
X25152000Y108258000D03*
X33952000Y105928000D03*
X28052000Y105928000D03*
X36852000Y100128000D03*
X31052000Y100128000D03*
X25152000Y100128000D03*
G04 #@! TD*
D13*
G04 #@! TO.C,M1*
X50049998Y47874997D03*
X50049998Y41475000D03*
X50049998Y39574997D03*
X50049998Y35274997D03*
D14*
X50499997Y32875000D03*
X50499997Y31874999D03*
D13*
X50049998Y29024997D03*
X34550001Y48324999D03*
X34550001Y46475000D03*
X34550001Y41524997D03*
X34550001Y29474999D03*
G04 #@! TD*
D14*
G04 #@! TO.C,M2*
X109325000Y73300001D03*
X109325000Y74250001D03*
X109325000Y75199999D03*
X118025000Y74200001D03*
X118025000Y73300001D03*
G04 #@! TD*
G04 #@! TO.C,M4*
X105100000Y61237500D03*
X103900000Y61237500D03*
X106300000Y61237500D03*
X107500000Y61237500D03*
X101040000Y75662500D03*
X100040000Y75662500D03*
G04 #@! TD*
D15*
G04 #@! TO.C,F2*
X33300000Y75325000D03*
X33300000Y70425000D03*
G04 #@! TD*
G04 #@! TO.C,R4*
X52800000Y27329999D03*
X52800000Y23519999D03*
G04 #@! TD*
G04 #@! TO.C,F3*
X118250000Y51375000D03*
X113350000Y51375000D03*
G04 #@! TD*
G04 #@! TO.C,F1*
X30800000Y75325000D03*
X30800000Y70425000D03*
G04 #@! TD*
G04 #@! TO.C,J21*
G36*
G01*
X34450000Y14050000D02*
X34450000Y15400000D01*
G75*
G02*
X34700000Y15650000I250000J0D01*
G01*
X35900000Y15650000D01*
G75*
G02*
X36150000Y15400000I0J-250000D01*
G01*
X36150000Y14050000D01*
G75*
G02*
X35900000Y13800000I-250000J0D01*
G01*
X34700000Y13800000D01*
G75*
G02*
X34450000Y14050000I0J250000D01*
G01*
G37*
D16*
X37800000Y14725000D03*
X40300000Y14725000D03*
X42800000Y14725000D03*
X45300000Y14725000D03*
G04 #@! TD*
D14*
G04 #@! TO.C,M3*
X94925000Y61050000D03*
X93725000Y61050000D03*
X96125000Y61050000D03*
X97325000Y61050000D03*
X90865000Y75475000D03*
X89865000Y75475000D03*
G04 #@! TD*
D17*
G04 #@! TO.C,J22*
X52675000Y15125000D03*
D18*
X50925000Y15925000D03*
X52675000Y16725000D03*
X50925000Y17525000D03*
X52675000Y18325000D03*
D19*
X51800000Y13075000D03*
X51800000Y20375000D03*
G04 #@! TD*
D20*
G04 #@! TO.C,M7*
X43437499Y21331662D03*
X42562497Y21856662D03*
X43737501Y22606660D03*
X43662498Y26156661D03*
G04 #@! TD*
G04 #@! TO.C,R17*
G36*
G01*
X83150000Y65985000D02*
X83150000Y66765000D01*
G75*
G02*
X83220000Y66835000I70000J0D01*
G01*
X83780000Y66835000D01*
G75*
G02*
X83850000Y66765000I0J-70000D01*
G01*
X83850000Y65985000D01*
G75*
G02*
X83780000Y65915000I-70000J0D01*
G01*
X83220000Y65915000D01*
G75*
G02*
X83150000Y65985000I0J70000D01*
G01*
G37*
G36*
G01*
X84750000Y65985000D02*
X84750000Y66765000D01*
G75*
G02*
X84820000Y66835000I70000J0D01*
G01*
X85380000Y66835000D01*
G75*
G02*
X85450000Y66765000I0J-70000D01*
G01*
X85450000Y65985000D01*
G75*
G02*
X85380000Y65915000I-70000J0D01*
G01*
X84820000Y65915000D01*
G75*
G02*
X84750000Y65985000I0J70000D01*
G01*
G37*
G04 #@! TD*
G04 #@! TO.C,R38*
G36*
G01*
X80690000Y55725000D02*
X79910000Y55725000D01*
G75*
G02*
X79840000Y55795000I0J70000D01*
G01*
X79840000Y56355000D01*
G75*
G02*
X79910000Y56425000I70000J0D01*
G01*
X80690000Y56425000D01*
G75*
G02*
X80760000Y56355000I0J-70000D01*
G01*
X80760000Y55795000D01*
G75*
G02*
X80690000Y55725000I-70000J0D01*
G01*
G37*
G36*
G01*
X80690000Y57325000D02*
X79910000Y57325000D01*
G75*
G02*
X79840000Y57395000I0J70000D01*
G01*
X79840000Y57955000D01*
G75*
G02*
X79910000Y58025000I70000J0D01*
G01*
X80690000Y58025000D01*
G75*
G02*
X80760000Y57955000I0J-70000D01*
G01*
X80760000Y57395000D01*
G75*
G02*
X80690000Y57325000I-70000J0D01*
G01*
G37*
G04 #@! TD*
G04 #@! TO.C,R37*
G36*
G01*
X83690000Y55725000D02*
X82910000Y55725000D01*
G75*
G02*
X82840000Y55795000I0J70000D01*
G01*
X82840000Y56355000D01*
G75*
G02*
X82910000Y56425000I70000J0D01*
G01*
X83690000Y56425000D01*
G75*
G02*
X83760000Y56355000I0J-70000D01*
G01*
X83760000Y55795000D01*
G75*
G02*
X83690000Y55725000I-70000J0D01*
G01*
G37*
G36*
G01*
X83690000Y57325000D02*
X82910000Y57325000D01*
G75*
G02*
X82840000Y57395000I0J70000D01*
G01*
X82840000Y57955000D01*
G75*
G02*
X82910000Y58025000I70000J0D01*
G01*
X83690000Y58025000D01*
G75*
G02*
X83760000Y57955000I0J-70000D01*
G01*
X83760000Y57395000D01*
G75*
G02*
X83690000Y57325000I-70000J0D01*
G01*
G37*
G04 #@! TD*
G04 #@! TO.C,R52*
G36*
G01*
X21690000Y23225000D02*
X20910000Y23225000D01*
G75*
G02*
X20840000Y23295000I0J70000D01*
G01*
X20840000Y23855000D01*
G75*
G02*
X20910000Y23925000I70000J0D01*
G01*
X21690000Y23925000D01*
G75*
G02*
X21760000Y23855000I0J-70000D01*
G01*
X21760000Y23295000D01*
G75*
G02*
X21690000Y23225000I-70000J0D01*
G01*
G37*
G36*
G01*
X21690000Y24825000D02*
X20910000Y24825000D01*
G75*
G02*
X20840000Y24895000I0J70000D01*
G01*
X20840000Y25455000D01*
G75*
G02*
X20910000Y25525000I70000J0D01*
G01*
X21690000Y25525000D01*
G75*
G02*
X21760000Y25455000I0J-70000D01*
G01*
X21760000Y24895000D01*
G75*
G02*
X21690000Y24825000I-70000J0D01*
G01*
G37*
G04 #@! TD*
G04 #@! TO.C,R40*
G36*
G01*
X23190000Y23225000D02*
X22410000Y23225000D01*
G75*
G02*
X22340000Y23295000I0J70000D01*
G01*
X22340000Y23855000D01*
G75*
G02*
X22410000Y23925000I70000J0D01*
G01*
X23190000Y23925000D01*
G75*
G02*
X23260000Y23855000I0J-70000D01*
G01*
X23260000Y23295000D01*
G75*
G02*
X23190000Y23225000I-70000J0D01*
G01*
G37*
G36*
G01*
X23190000Y24825000D02*
X22410000Y24825000D01*
G75*
G02*
X22340000Y24895000I0J70000D01*
G01*
X22340000Y25455000D01*
G75*
G02*
X22410000Y25525000I70000J0D01*
G01*
X23190000Y25525000D01*
G75*
G02*
X23260000Y25455000I0J-70000D01*
G01*
X23260000Y24895000D01*
G75*
G02*
X23190000Y24825000I-70000J0D01*
G01*
G37*
G04 #@! TD*
G04 #@! TO.C,R39*
G36*
G01*
X86690000Y55725000D02*
X85910000Y55725000D01*
G75*
G02*
X85840000Y55795000I0J70000D01*
G01*
X85840000Y56355000D01*
G75*
G02*
X85910000Y56425000I70000J0D01*
G01*
X86690000Y56425000D01*
G75*
G02*
X86760000Y56355000I0J-70000D01*
G01*
X86760000Y55795000D01*
G75*
G02*
X86690000Y55725000I-70000J0D01*
G01*
G37*
G36*
G01*
X86690000Y57325000D02*
X85910000Y57325000D01*
G75*
G02*
X85840000Y57395000I0J70000D01*
G01*
X85840000Y57955000D01*
G75*
G02*
X85910000Y58025000I70000J0D01*
G01*
X86690000Y58025000D01*
G75*
G02*
X86760000Y57955000I0J-70000D01*
G01*
X86760000Y57395000D01*
G75*
G02*
X86690000Y57325000I-70000J0D01*
G01*
G37*
G04 #@! TD*
G04 #@! TO.C,R25*
G36*
G01*
X42150000Y65985000D02*
X42150000Y66765000D01*
G75*
G02*
X42220000Y66835000I70000J0D01*
G01*
X42780000Y66835000D01*
G75*
G02*
X42850000Y66765000I0J-70000D01*
G01*
X42850000Y65985000D01*
G75*
G02*
X42780000Y65915000I-70000J0D01*
G01*
X42220000Y65915000D01*
G75*
G02*
X42150000Y65985000I0J70000D01*
G01*
G37*
G36*
G01*
X43750000Y65985000D02*
X43750000Y66765000D01*
G75*
G02*
X43820000Y66835000I70000J0D01*
G01*
X44380000Y66835000D01*
G75*
G02*
X44450000Y66765000I0J-70000D01*
G01*
X44450000Y65985000D01*
G75*
G02*
X44380000Y65915000I-70000J0D01*
G01*
X43820000Y65915000D01*
G75*
G02*
X43750000Y65985000I0J70000D01*
G01*
G37*
G04 #@! TD*
G04 #@! TO.C,R29*
G36*
G01*
X59690000Y55725000D02*
X58910000Y55725000D01*
G75*
G02*
X58840000Y55795000I0J70000D01*
G01*
X58840000Y56355000D01*
G75*
G02*
X58910000Y56425000I70000J0D01*
G01*
X59690000Y56425000D01*
G75*
G02*
X59760000Y56355000I0J-70000D01*
G01*
X59760000Y55795000D01*
G75*
G02*
X59690000Y55725000I-70000J0D01*
G01*
G37*
G36*
G01*
X59690000Y57325000D02*
X58910000Y57325000D01*
G75*
G02*
X58840000Y57395000I0J70000D01*
G01*
X58840000Y57955000D01*
G75*
G02*
X58910000Y58025000I70000J0D01*
G01*
X59690000Y58025000D01*
G75*
G02*
X59760000Y57955000I0J-70000D01*
G01*
X59760000Y57395000D01*
G75*
G02*
X59690000Y57325000I-70000J0D01*
G01*
G37*
G04 #@! TD*
G04 #@! TO.C,R33*
G36*
G01*
X68690000Y55725000D02*
X67910000Y55725000D01*
G75*
G02*
X67840000Y55795000I0J70000D01*
G01*
X67840000Y56355000D01*
G75*
G02*
X67910000Y56425000I70000J0D01*
G01*
X68690000Y56425000D01*
G75*
G02*
X68760000Y56355000I0J-70000D01*
G01*
X68760000Y55795000D01*
G75*
G02*
X68690000Y55725000I-70000J0D01*
G01*
G37*
G36*
G01*
X68690000Y57325000D02*
X67910000Y57325000D01*
G75*
G02*
X67840000Y57395000I0J70000D01*
G01*
X67840000Y57955000D01*
G75*
G02*
X67910000Y58025000I70000J0D01*
G01*
X68690000Y58025000D01*
G75*
G02*
X68760000Y57955000I0J-70000D01*
G01*
X68760000Y57395000D01*
G75*
G02*
X68690000Y57325000I-70000J0D01*
G01*
G37*
G04 #@! TD*
G04 #@! TO.C,R35*
G36*
G01*
X56690000Y55725000D02*
X55910000Y55725000D01*
G75*
G02*
X55840000Y55795000I0J70000D01*
G01*
X55840000Y56355000D01*
G75*
G02*
X55910000Y56425000I70000J0D01*
G01*
X56690000Y56425000D01*
G75*
G02*
X56760000Y56355000I0J-70000D01*
G01*
X56760000Y55795000D01*
G75*
G02*
X56690000Y55725000I-70000J0D01*
G01*
G37*
G36*
G01*
X56690000Y57325000D02*
X55910000Y57325000D01*
G75*
G02*
X55840000Y57395000I0J70000D01*
G01*
X55840000Y57955000D01*
G75*
G02*
X55910000Y58025000I70000J0D01*
G01*
X56690000Y58025000D01*
G75*
G02*
X56760000Y57955000I0J-70000D01*
G01*
X56760000Y57395000D01*
G75*
G02*
X56690000Y57325000I-70000J0D01*
G01*
G37*
G04 #@! TD*
G04 #@! TO.C,R31*
G36*
G01*
X71690000Y55725000D02*
X70910000Y55725000D01*
G75*
G02*
X70840000Y55795000I0J70000D01*
G01*
X70840000Y56355000D01*
G75*
G02*
X70910000Y56425000I70000J0D01*
G01*
X71690000Y56425000D01*
G75*
G02*
X71760000Y56355000I0J-70000D01*
G01*
X71760000Y55795000D01*
G75*
G02*
X71690000Y55725000I-70000J0D01*
G01*
G37*
G36*
G01*
X71690000Y57325000D02*
X70910000Y57325000D01*
G75*
G02*
X70840000Y57395000I0J70000D01*
G01*
X70840000Y57955000D01*
G75*
G02*
X70910000Y58025000I70000J0D01*
G01*
X71690000Y58025000D01*
G75*
G02*
X71760000Y57955000I0J-70000D01*
G01*
X71760000Y57395000D01*
G75*
G02*
X71690000Y57325000I-70000J0D01*
G01*
G37*
G04 #@! TD*
G04 #@! TO.C,R30*
G36*
G01*
X65690000Y55725000D02*
X64910000Y55725000D01*
G75*
G02*
X64840000Y55795000I0J70000D01*
G01*
X64840000Y56355000D01*
G75*
G02*
X64910000Y56425000I70000J0D01*
G01*
X65690000Y56425000D01*
G75*
G02*
X65760000Y56355000I0J-70000D01*
G01*
X65760000Y55795000D01*
G75*
G02*
X65690000Y55725000I-70000J0D01*
G01*
G37*
G36*
G01*
X65690000Y57325000D02*
X64910000Y57325000D01*
G75*
G02*
X64840000Y57395000I0J70000D01*
G01*
X64840000Y57955000D01*
G75*
G02*
X64910000Y58025000I70000J0D01*
G01*
X65690000Y58025000D01*
G75*
G02*
X65760000Y57955000I0J-70000D01*
G01*
X65760000Y57395000D01*
G75*
G02*
X65690000Y57325000I-70000J0D01*
G01*
G37*
G04 #@! TD*
G04 #@! TO.C,D1*
G36*
G01*
X75810000Y58925000D02*
X74790000Y58925000D01*
G75*
G02*
X74700000Y59015000I0J90000D01*
G01*
X74700000Y59735000D01*
G75*
G02*
X74790000Y59825000I90000J0D01*
G01*
X75810000Y59825000D01*
G75*
G02*
X75900000Y59735000I0J-90000D01*
G01*
X75900000Y59015000D01*
G75*
G02*
X75810000Y58925000I-90000J0D01*
G01*
G37*
G36*
G01*
X75810000Y62225000D02*
X74790000Y62225000D01*
G75*
G02*
X74700000Y62315000I0J90000D01*
G01*
X74700000Y63035000D01*
G75*
G02*
X74790000Y63125000I90000J0D01*
G01*
X75810000Y63125000D01*
G75*
G02*
X75900000Y63035000I0J-90000D01*
G01*
X75900000Y62315000D01*
G75*
G02*
X75810000Y62225000I-90000J0D01*
G01*
G37*
G04 #@! TD*
G04 #@! TO.C,R14*
G36*
G01*
X55190000Y55725000D02*
X54410000Y55725000D01*
G75*
G02*
X54340000Y55795000I0J70000D01*
G01*
X54340000Y56355000D01*
G75*
G02*
X54410000Y56425000I70000J0D01*
G01*
X55190000Y56425000D01*
G75*
G02*
X55260000Y56355000I0J-70000D01*
G01*
X55260000Y55795000D01*
G75*
G02*
X55190000Y55725000I-70000J0D01*
G01*
G37*
G36*
G01*
X55190000Y57325000D02*
X54410000Y57325000D01*
G75*
G02*
X54340000Y57395000I0J70000D01*
G01*
X54340000Y57955000D01*
G75*
G02*
X54410000Y58025000I70000J0D01*
G01*
X55190000Y58025000D01*
G75*
G02*
X55260000Y57955000I0J-70000D01*
G01*
X55260000Y57395000D01*
G75*
G02*
X55190000Y57325000I-70000J0D01*
G01*
G37*
G04 #@! TD*
G04 #@! TO.C,R43*
G36*
G01*
X85190000Y55725000D02*
X84410000Y55725000D01*
G75*
G02*
X84340000Y55795000I0J70000D01*
G01*
X84340000Y56355000D01*
G75*
G02*
X84410000Y56425000I70000J0D01*
G01*
X85190000Y56425000D01*
G75*
G02*
X85260000Y56355000I0J-70000D01*
G01*
X85260000Y55795000D01*
G75*
G02*
X85190000Y55725000I-70000J0D01*
G01*
G37*
G36*
G01*
X85190000Y57325000D02*
X84410000Y57325000D01*
G75*
G02*
X84340000Y57395000I0J70000D01*
G01*
X84340000Y57955000D01*
G75*
G02*
X84410000Y58025000I70000J0D01*
G01*
X85190000Y58025000D01*
G75*
G02*
X85260000Y57955000I0J-70000D01*
G01*
X85260000Y57395000D01*
G75*
G02*
X85190000Y57325000I-70000J0D01*
G01*
G37*
G04 #@! TD*
G04 #@! TO.C,R19*
G36*
G01*
X66650000Y65985000D02*
X66650000Y66765000D01*
G75*
G02*
X66720000Y66835000I70000J0D01*
G01*
X67280000Y66835000D01*
G75*
G02*
X67350000Y66765000I0J-70000D01*
G01*
X67350000Y65985000D01*
G75*
G02*
X67280000Y65915000I-70000J0D01*
G01*
X66720000Y65915000D01*
G75*
G02*
X66650000Y65985000I0J70000D01*
G01*
G37*
G36*
G01*
X68250000Y65985000D02*
X68250000Y66765000D01*
G75*
G02*
X68320000Y66835000I70000J0D01*
G01*
X68880000Y66835000D01*
G75*
G02*
X68950000Y66765000I0J-70000D01*
G01*
X68950000Y65985000D01*
G75*
G02*
X68880000Y65915000I-70000J0D01*
G01*
X68320000Y65915000D01*
G75*
G02*
X68250000Y65985000I0J70000D01*
G01*
G37*
G04 #@! TD*
G04 #@! TO.C,R51*
G36*
G01*
X73190000Y55725000D02*
X72410000Y55725000D01*
G75*
G02*
X72340000Y55795000I0J70000D01*
G01*
X72340000Y56355000D01*
G75*
G02*
X72410000Y56425000I70000J0D01*
G01*
X73190000Y56425000D01*
G75*
G02*
X73260000Y56355000I0J-70000D01*
G01*
X73260000Y55795000D01*
G75*
G02*
X73190000Y55725000I-70000J0D01*
G01*
G37*
G36*
G01*
X73190000Y57325000D02*
X72410000Y57325000D01*
G75*
G02*
X72340000Y57395000I0J70000D01*
G01*
X72340000Y57955000D01*
G75*
G02*
X72410000Y58025000I70000J0D01*
G01*
X73190000Y58025000D01*
G75*
G02*
X73260000Y57955000I0J-70000D01*
G01*
X73260000Y57395000D01*
G75*
G02*
X73190000Y57325000I-70000J0D01*
G01*
G37*
G04 #@! TD*
G04 #@! TO.C,F10*
G36*
G01*
X44525000Y64631250D02*
X44525000Y64118750D01*
G75*
G02*
X44306250Y63900000I-218750J0D01*
G01*
X43868750Y63900000D01*
G75*
G02*
X43650000Y64118750I0J218750D01*
G01*
X43650000Y64631250D01*
G75*
G02*
X43868750Y64850000I218750J0D01*
G01*
X44306250Y64850000D01*
G75*
G02*
X44525000Y64631250I0J-218750D01*
G01*
G37*
G36*
G01*
X42950000Y64631250D02*
X42950000Y64118750D01*
G75*
G02*
X42731250Y63900000I-218750J0D01*
G01*
X42293750Y63900000D01*
G75*
G02*
X42075000Y64118750I0J218750D01*
G01*
X42075000Y64631250D01*
G75*
G02*
X42293750Y64850000I218750J0D01*
G01*
X42731250Y64850000D01*
G75*
G02*
X42950000Y64631250I0J-218750D01*
G01*
G37*
G04 #@! TD*
G04 #@! TO.C,R50*
G36*
G01*
X70190000Y55725000D02*
X69410000Y55725000D01*
G75*
G02*
X69340000Y55795000I0J70000D01*
G01*
X69340000Y56355000D01*
G75*
G02*
X69410000Y56425000I70000J0D01*
G01*
X70190000Y56425000D01*
G75*
G02*
X70260000Y56355000I0J-70000D01*
G01*
X70260000Y55795000D01*
G75*
G02*
X70190000Y55725000I-70000J0D01*
G01*
G37*
G36*
G01*
X70190000Y57325000D02*
X69410000Y57325000D01*
G75*
G02*
X69340000Y57395000I0J70000D01*
G01*
X69340000Y57955000D01*
G75*
G02*
X69410000Y58025000I70000J0D01*
G01*
X70190000Y58025000D01*
G75*
G02*
X70260000Y57955000I0J-70000D01*
G01*
X70260000Y57395000D01*
G75*
G02*
X70190000Y57325000I-70000J0D01*
G01*
G37*
G04 #@! TD*
G04 #@! TO.C,R48*
G36*
G01*
X64190000Y55725000D02*
X63410000Y55725000D01*
G75*
G02*
X63340000Y55795000I0J70000D01*
G01*
X63340000Y56355000D01*
G75*
G02*
X63410000Y56425000I70000J0D01*
G01*
X64190000Y56425000D01*
G75*
G02*
X64260000Y56355000I0J-70000D01*
G01*
X64260000Y55795000D01*
G75*
G02*
X64190000Y55725000I-70000J0D01*
G01*
G37*
G36*
G01*
X64190000Y57325000D02*
X63410000Y57325000D01*
G75*
G02*
X63340000Y57395000I0J70000D01*
G01*
X63340000Y57955000D01*
G75*
G02*
X63410000Y58025000I70000J0D01*
G01*
X64190000Y58025000D01*
G75*
G02*
X64260000Y57955000I0J-70000D01*
G01*
X64260000Y57395000D01*
G75*
G02*
X64190000Y57325000I-70000J0D01*
G01*
G37*
G04 #@! TD*
G04 #@! TO.C,F6*
G36*
G01*
X77025000Y64631250D02*
X77025000Y64118750D01*
G75*
G02*
X76806250Y63900000I-218750J0D01*
G01*
X76368750Y63900000D01*
G75*
G02*
X76150000Y64118750I0J218750D01*
G01*
X76150000Y64631250D01*
G75*
G02*
X76368750Y64850000I218750J0D01*
G01*
X76806250Y64850000D01*
G75*
G02*
X77025000Y64631250I0J-218750D01*
G01*
G37*
G36*
G01*
X75450000Y64631250D02*
X75450000Y64118750D01*
G75*
G02*
X75231250Y63900000I-218750J0D01*
G01*
X74793750Y63900000D01*
G75*
G02*
X74575000Y64118750I0J218750D01*
G01*
X74575000Y64631250D01*
G75*
G02*
X74793750Y64850000I218750J0D01*
G01*
X75231250Y64850000D01*
G75*
G02*
X75450000Y64631250I0J-218750D01*
G01*
G37*
G04 #@! TD*
G04 #@! TO.C,R44*
G36*
G01*
X76190000Y55725000D02*
X75410000Y55725000D01*
G75*
G02*
X75340000Y55795000I0J70000D01*
G01*
X75340000Y56355000D01*
G75*
G02*
X75410000Y56425000I70000J0D01*
G01*
X76190000Y56425000D01*
G75*
G02*
X76260000Y56355000I0J-70000D01*
G01*
X76260000Y55795000D01*
G75*
G02*
X76190000Y55725000I-70000J0D01*
G01*
G37*
G36*
G01*
X76190000Y57325000D02*
X75410000Y57325000D01*
G75*
G02*
X75340000Y57395000I0J70000D01*
G01*
X75340000Y57955000D01*
G75*
G02*
X75410000Y58025000I70000J0D01*
G01*
X76190000Y58025000D01*
G75*
G02*
X76260000Y57955000I0J-70000D01*
G01*
X76260000Y57395000D01*
G75*
G02*
X76190000Y57325000I-70000J0D01*
G01*
G37*
G04 #@! TD*
G04 #@! TO.C,R27*
G36*
G01*
X52725000Y67800000D02*
X49875000Y67800000D01*
G75*
G02*
X49625000Y68050000I0J250000D01*
G01*
X49625000Y68775000D01*
G75*
G02*
X49875000Y69025000I250000J0D01*
G01*
X52725000Y69025000D01*
G75*
G02*
X52975000Y68775000I0J-250000D01*
G01*
X52975000Y68050000D01*
G75*
G02*
X52725000Y67800000I-250000J0D01*
G01*
G37*
G36*
G01*
X52725000Y73725000D02*
X49875000Y73725000D01*
G75*
G02*
X49625000Y73975000I0J250000D01*
G01*
X49625000Y74700000D01*
G75*
G02*
X49875000Y74950000I250000J0D01*
G01*
X52725000Y74950000D01*
G75*
G02*
X52975000Y74700000I0J-250000D01*
G01*
X52975000Y73975000D01*
G75*
G02*
X52725000Y73725000I-250000J0D01*
G01*
G37*
G04 #@! TD*
G04 #@! TO.C,R13*
G36*
G01*
X52190000Y55725000D02*
X51410000Y55725000D01*
G75*
G02*
X51340000Y55795000I0J70000D01*
G01*
X51340000Y56355000D01*
G75*
G02*
X51410000Y56425000I70000J0D01*
G01*
X52190000Y56425000D01*
G75*
G02*
X52260000Y56355000I0J-70000D01*
G01*
X52260000Y55795000D01*
G75*
G02*
X52190000Y55725000I-70000J0D01*
G01*
G37*
G36*
G01*
X52190000Y57325000D02*
X51410000Y57325000D01*
G75*
G02*
X51340000Y57395000I0J70000D01*
G01*
X51340000Y57955000D01*
G75*
G02*
X51410000Y58025000I70000J0D01*
G01*
X52190000Y58025000D01*
G75*
G02*
X52260000Y57955000I0J-70000D01*
G01*
X52260000Y57395000D01*
G75*
G02*
X52190000Y57325000I-70000J0D01*
G01*
G37*
G04 #@! TD*
G04 #@! TO.C,R23*
G36*
G01*
X58150000Y65985000D02*
X58150000Y66765000D01*
G75*
G02*
X58220000Y66835000I70000J0D01*
G01*
X58780000Y66835000D01*
G75*
G02*
X58850000Y66765000I0J-70000D01*
G01*
X58850000Y65985000D01*
G75*
G02*
X58780000Y65915000I-70000J0D01*
G01*
X58220000Y65915000D01*
G75*
G02*
X58150000Y65985000I0J70000D01*
G01*
G37*
G36*
G01*
X59750000Y65985000D02*
X59750000Y66765000D01*
G75*
G02*
X59820000Y66835000I70000J0D01*
G01*
X60380000Y66835000D01*
G75*
G02*
X60450000Y66765000I0J-70000D01*
G01*
X60450000Y65985000D01*
G75*
G02*
X60380000Y65915000I-70000J0D01*
G01*
X59820000Y65915000D01*
G75*
G02*
X59750000Y65985000I0J70000D01*
G01*
G37*
G04 #@! TD*
G04 #@! TO.C,R49*
G36*
G01*
X67190000Y55725000D02*
X66410000Y55725000D01*
G75*
G02*
X66340000Y55795000I0J70000D01*
G01*
X66340000Y56355000D01*
G75*
G02*
X66410000Y56425000I70000J0D01*
G01*
X67190000Y56425000D01*
G75*
G02*
X67260000Y56355000I0J-70000D01*
G01*
X67260000Y55795000D01*
G75*
G02*
X67190000Y55725000I-70000J0D01*
G01*
G37*
G36*
G01*
X67190000Y57325000D02*
X66410000Y57325000D01*
G75*
G02*
X66340000Y57395000I0J70000D01*
G01*
X66340000Y57955000D01*
G75*
G02*
X66410000Y58025000I70000J0D01*
G01*
X67190000Y58025000D01*
G75*
G02*
X67260000Y57955000I0J-70000D01*
G01*
X67260000Y57395000D01*
G75*
G02*
X67190000Y57325000I-70000J0D01*
G01*
G37*
G04 #@! TD*
G04 #@! TO.C,R45*
G36*
G01*
X79190000Y55725000D02*
X78410000Y55725000D01*
G75*
G02*
X78340000Y55795000I0J70000D01*
G01*
X78340000Y56355000D01*
G75*
G02*
X78410000Y56425000I70000J0D01*
G01*
X79190000Y56425000D01*
G75*
G02*
X79260000Y56355000I0J-70000D01*
G01*
X79260000Y55795000D01*
G75*
G02*
X79190000Y55725000I-70000J0D01*
G01*
G37*
G36*
G01*
X79190000Y57325000D02*
X78410000Y57325000D01*
G75*
G02*
X78340000Y57395000I0J70000D01*
G01*
X78340000Y57955000D01*
G75*
G02*
X78410000Y58025000I70000J0D01*
G01*
X79190000Y58025000D01*
G75*
G02*
X79260000Y57955000I0J-70000D01*
G01*
X79260000Y57395000D01*
G75*
G02*
X79190000Y57325000I-70000J0D01*
G01*
G37*
G04 #@! TD*
G04 #@! TO.C,R24*
G36*
G01*
X50150000Y65985000D02*
X50150000Y66765000D01*
G75*
G02*
X50220000Y66835000I70000J0D01*
G01*
X50780000Y66835000D01*
G75*
G02*
X50850000Y66765000I0J-70000D01*
G01*
X50850000Y65985000D01*
G75*
G02*
X50780000Y65915000I-70000J0D01*
G01*
X50220000Y65915000D01*
G75*
G02*
X50150000Y65985000I0J70000D01*
G01*
G37*
G36*
G01*
X51750000Y65985000D02*
X51750000Y66765000D01*
G75*
G02*
X51820000Y66835000I70000J0D01*
G01*
X52380000Y66835000D01*
G75*
G02*
X52450000Y66765000I0J-70000D01*
G01*
X52450000Y65985000D01*
G75*
G02*
X52380000Y65915000I-70000J0D01*
G01*
X51820000Y65915000D01*
G75*
G02*
X51750000Y65985000I0J70000D01*
G01*
G37*
G04 #@! TD*
G04 #@! TO.C,R28*
G36*
G01*
X44530000Y67800000D02*
X41680000Y67800000D01*
G75*
G02*
X41430000Y68050000I0J250000D01*
G01*
X41430000Y68775000D01*
G75*
G02*
X41680000Y69025000I250000J0D01*
G01*
X44530000Y69025000D01*
G75*
G02*
X44780000Y68775000I0J-250000D01*
G01*
X44780000Y68050000D01*
G75*
G02*
X44530000Y67800000I-250000J0D01*
G01*
G37*
G36*
G01*
X44530000Y73725000D02*
X41680000Y73725000D01*
G75*
G02*
X41430000Y73975000I0J250000D01*
G01*
X41430000Y74700000D01*
G75*
G02*
X41680000Y74950000I250000J0D01*
G01*
X44530000Y74950000D01*
G75*
G02*
X44780000Y74700000I0J-250000D01*
G01*
X44780000Y73975000D01*
G75*
G02*
X44530000Y73725000I-250000J0D01*
G01*
G37*
G04 #@! TD*
G04 #@! TO.C,D2*
G36*
G01*
X78310000Y58925000D02*
X77290000Y58925000D01*
G75*
G02*
X77200000Y59015000I0J90000D01*
G01*
X77200000Y59735000D01*
G75*
G02*
X77290000Y59825000I90000J0D01*
G01*
X78310000Y59825000D01*
G75*
G02*
X78400000Y59735000I0J-90000D01*
G01*
X78400000Y59015000D01*
G75*
G02*
X78310000Y58925000I-90000J0D01*
G01*
G37*
G36*
G01*
X78310000Y62225000D02*
X77290000Y62225000D01*
G75*
G02*
X77200000Y62315000I0J90000D01*
G01*
X77200000Y63035000D01*
G75*
G02*
X77290000Y63125000I90000J0D01*
G01*
X78310000Y63125000D01*
G75*
G02*
X78400000Y63035000I0J-90000D01*
G01*
X78400000Y62315000D01*
G75*
G02*
X78310000Y62225000I-90000J0D01*
G01*
G37*
G04 #@! TD*
G04 #@! TO.C,R3*
G36*
G01*
X36950000Y73265000D02*
X36950000Y72485000D01*
G75*
G02*
X36880000Y72415000I-70000J0D01*
G01*
X36320000Y72415000D01*
G75*
G02*
X36250000Y72485000I0J70000D01*
G01*
X36250000Y73265000D01*
G75*
G02*
X36320000Y73335000I70000J0D01*
G01*
X36880000Y73335000D01*
G75*
G02*
X36950000Y73265000I0J-70000D01*
G01*
G37*
G36*
G01*
X35350000Y73265000D02*
X35350000Y72485000D01*
G75*
G02*
X35280000Y72415000I-70000J0D01*
G01*
X34720000Y72415000D01*
G75*
G02*
X34650000Y72485000I0J70000D01*
G01*
X34650000Y73265000D01*
G75*
G02*
X34720000Y73335000I70000J0D01*
G01*
X35280000Y73335000D01*
G75*
G02*
X35350000Y73265000I0J-70000D01*
G01*
G37*
G04 #@! TD*
G04 #@! TO.C,R36*
G36*
G01*
X53690000Y55725000D02*
X52910000Y55725000D01*
G75*
G02*
X52840000Y55795000I0J70000D01*
G01*
X52840000Y56355000D01*
G75*
G02*
X52910000Y56425000I70000J0D01*
G01*
X53690000Y56425000D01*
G75*
G02*
X53760000Y56355000I0J-70000D01*
G01*
X53760000Y55795000D01*
G75*
G02*
X53690000Y55725000I-70000J0D01*
G01*
G37*
G36*
G01*
X53690000Y57325000D02*
X52910000Y57325000D01*
G75*
G02*
X52840000Y57395000I0J70000D01*
G01*
X52840000Y57955000D01*
G75*
G02*
X52910000Y58025000I70000J0D01*
G01*
X53690000Y58025000D01*
G75*
G02*
X53760000Y57955000I0J-70000D01*
G01*
X53760000Y57395000D01*
G75*
G02*
X53690000Y57325000I-70000J0D01*
G01*
G37*
G04 #@! TD*
G04 #@! TO.C,R22*
G36*
G01*
X69225000Y67800000D02*
X66375000Y67800000D01*
G75*
G02*
X66125000Y68050000I0J250000D01*
G01*
X66125000Y68775000D01*
G75*
G02*
X66375000Y69025000I250000J0D01*
G01*
X69225000Y69025000D01*
G75*
G02*
X69475000Y68775000I0J-250000D01*
G01*
X69475000Y68050000D01*
G75*
G02*
X69225000Y67800000I-250000J0D01*
G01*
G37*
G36*
G01*
X69225000Y73725000D02*
X66375000Y73725000D01*
G75*
G02*
X66125000Y73975000I0J250000D01*
G01*
X66125000Y74700000D01*
G75*
G02*
X66375000Y74950000I250000J0D01*
G01*
X69225000Y74950000D01*
G75*
G02*
X69475000Y74700000I0J-250000D01*
G01*
X69475000Y73975000D01*
G75*
G02*
X69225000Y73725000I-250000J0D01*
G01*
G37*
G04 #@! TD*
G04 #@! TO.C,R46*
G36*
G01*
X58190000Y55725000D02*
X57410000Y55725000D01*
G75*
G02*
X57340000Y55795000I0J70000D01*
G01*
X57340000Y56355000D01*
G75*
G02*
X57410000Y56425000I70000J0D01*
G01*
X58190000Y56425000D01*
G75*
G02*
X58260000Y56355000I0J-70000D01*
G01*
X58260000Y55795000D01*
G75*
G02*
X58190000Y55725000I-70000J0D01*
G01*
G37*
G36*
G01*
X58190000Y57325000D02*
X57410000Y57325000D01*
G75*
G02*
X57340000Y57395000I0J70000D01*
G01*
X57340000Y57955000D01*
G75*
G02*
X57410000Y58025000I70000J0D01*
G01*
X58190000Y58025000D01*
G75*
G02*
X58260000Y57955000I0J-70000D01*
G01*
X58260000Y57395000D01*
G75*
G02*
X58190000Y57325000I-70000J0D01*
G01*
G37*
G04 #@! TD*
G04 #@! TO.C,F9*
G36*
G01*
X52525000Y64631250D02*
X52525000Y64118750D01*
G75*
G02*
X52306250Y63900000I-218750J0D01*
G01*
X51868750Y63900000D01*
G75*
G02*
X51650000Y64118750I0J218750D01*
G01*
X51650000Y64631250D01*
G75*
G02*
X51868750Y64850000I218750J0D01*
G01*
X52306250Y64850000D01*
G75*
G02*
X52525000Y64631250I0J-218750D01*
G01*
G37*
G36*
G01*
X50950000Y64631250D02*
X50950000Y64118750D01*
G75*
G02*
X50731250Y63900000I-218750J0D01*
G01*
X50293750Y63900000D01*
G75*
G02*
X50075000Y64118750I0J218750D01*
G01*
X50075000Y64631250D01*
G75*
G02*
X50293750Y64850000I218750J0D01*
G01*
X50731250Y64850000D01*
G75*
G02*
X50950000Y64631250I0J-218750D01*
G01*
G37*
G04 #@! TD*
G04 #@! TO.C,R41*
G36*
G01*
X26190000Y23225000D02*
X25410000Y23225000D01*
G75*
G02*
X25340000Y23295000I0J70000D01*
G01*
X25340000Y23855000D01*
G75*
G02*
X25410000Y23925000I70000J0D01*
G01*
X26190000Y23925000D01*
G75*
G02*
X26260000Y23855000I0J-70000D01*
G01*
X26260000Y23295000D01*
G75*
G02*
X26190000Y23225000I-70000J0D01*
G01*
G37*
G36*
G01*
X26190000Y24825000D02*
X25410000Y24825000D01*
G75*
G02*
X25340000Y24895000I0J70000D01*
G01*
X25340000Y25455000D01*
G75*
G02*
X25410000Y25525000I70000J0D01*
G01*
X26190000Y25525000D01*
G75*
G02*
X26260000Y25455000I0J-70000D01*
G01*
X26260000Y24895000D01*
G75*
G02*
X26190000Y24825000I-70000J0D01*
G01*
G37*
G04 #@! TD*
G04 #@! TO.C,R42*
G36*
G01*
X82190000Y55725000D02*
X81410000Y55725000D01*
G75*
G02*
X81340000Y55795000I0J70000D01*
G01*
X81340000Y56355000D01*
G75*
G02*
X81410000Y56425000I70000J0D01*
G01*
X82190000Y56425000D01*
G75*
G02*
X82260000Y56355000I0J-70000D01*
G01*
X82260000Y55795000D01*
G75*
G02*
X82190000Y55725000I-70000J0D01*
G01*
G37*
G36*
G01*
X82190000Y57325000D02*
X81410000Y57325000D01*
G75*
G02*
X81340000Y57395000I0J70000D01*
G01*
X81340000Y57955000D01*
G75*
G02*
X81410000Y58025000I70000J0D01*
G01*
X82190000Y58025000D01*
G75*
G02*
X82260000Y57955000I0J-70000D01*
G01*
X82260000Y57395000D01*
G75*
G02*
X82190000Y57325000I-70000J0D01*
G01*
G37*
G04 #@! TD*
G04 #@! TO.C,F8*
G36*
G01*
X60525000Y64631250D02*
X60525000Y64118750D01*
G75*
G02*
X60306250Y63900000I-218750J0D01*
G01*
X59868750Y63900000D01*
G75*
G02*
X59650000Y64118750I0J218750D01*
G01*
X59650000Y64631250D01*
G75*
G02*
X59868750Y64850000I218750J0D01*
G01*
X60306250Y64850000D01*
G75*
G02*
X60525000Y64631250I0J-218750D01*
G01*
G37*
G36*
G01*
X58950000Y64631250D02*
X58950000Y64118750D01*
G75*
G02*
X58731250Y63900000I-218750J0D01*
G01*
X58293750Y63900000D01*
G75*
G02*
X58075000Y64118750I0J218750D01*
G01*
X58075000Y64631250D01*
G75*
G02*
X58293750Y64850000I218750J0D01*
G01*
X58731250Y64850000D01*
G75*
G02*
X58950000Y64631250I0J-218750D01*
G01*
G37*
G04 #@! TD*
G04 #@! TO.C,R2*
G36*
G01*
X34650000Y73985000D02*
X34650000Y74765000D01*
G75*
G02*
X34720000Y74835000I70000J0D01*
G01*
X35280000Y74835000D01*
G75*
G02*
X35350000Y74765000I0J-70000D01*
G01*
X35350000Y73985000D01*
G75*
G02*
X35280000Y73915000I-70000J0D01*
G01*
X34720000Y73915000D01*
G75*
G02*
X34650000Y73985000I0J70000D01*
G01*
G37*
G36*
G01*
X36250000Y73985000D02*
X36250000Y74765000D01*
G75*
G02*
X36320000Y74835000I70000J0D01*
G01*
X36880000Y74835000D01*
G75*
G02*
X36950000Y74765000I0J-70000D01*
G01*
X36950000Y73985000D01*
G75*
G02*
X36880000Y73915000I-70000J0D01*
G01*
X36320000Y73915000D01*
G75*
G02*
X36250000Y73985000I0J70000D01*
G01*
G37*
G04 #@! TD*
G04 #@! TO.C,F5*
G36*
G01*
X85525000Y64631250D02*
X85525000Y64118750D01*
G75*
G02*
X85306250Y63900000I-218750J0D01*
G01*
X84868750Y63900000D01*
G75*
G02*
X84650000Y64118750I0J218750D01*
G01*
X84650000Y64631250D01*
G75*
G02*
X84868750Y64850000I218750J0D01*
G01*
X85306250Y64850000D01*
G75*
G02*
X85525000Y64631250I0J-218750D01*
G01*
G37*
G36*
G01*
X83950000Y64631250D02*
X83950000Y64118750D01*
G75*
G02*
X83731250Y63900000I-218750J0D01*
G01*
X83293750Y63900000D01*
G75*
G02*
X83075000Y64118750I0J218750D01*
G01*
X83075000Y64631250D01*
G75*
G02*
X83293750Y64850000I218750J0D01*
G01*
X83731250Y64850000D01*
G75*
G02*
X83950000Y64631250I0J-218750D01*
G01*
G37*
G04 #@! TD*
G04 #@! TO.C,R16*
G36*
G01*
X77690000Y55725000D02*
X76910000Y55725000D01*
G75*
G02*
X76840000Y55795000I0J70000D01*
G01*
X76840000Y56355000D01*
G75*
G02*
X76910000Y56425000I70000J0D01*
G01*
X77690000Y56425000D01*
G75*
G02*
X77760000Y56355000I0J-70000D01*
G01*
X77760000Y55795000D01*
G75*
G02*
X77690000Y55725000I-70000J0D01*
G01*
G37*
G36*
G01*
X77690000Y57325000D02*
X76910000Y57325000D01*
G75*
G02*
X76840000Y57395000I0J70000D01*
G01*
X76840000Y57955000D01*
G75*
G02*
X76910000Y58025000I70000J0D01*
G01*
X77690000Y58025000D01*
G75*
G02*
X77760000Y57955000I0J-70000D01*
G01*
X77760000Y57395000D01*
G75*
G02*
X77690000Y57325000I-70000J0D01*
G01*
G37*
G04 #@! TD*
G04 #@! TO.C,R18*
G36*
G01*
X74650000Y65985000D02*
X74650000Y66765000D01*
G75*
G02*
X74720000Y66835000I70000J0D01*
G01*
X75280000Y66835000D01*
G75*
G02*
X75350000Y66765000I0J-70000D01*
G01*
X75350000Y65985000D01*
G75*
G02*
X75280000Y65915000I-70000J0D01*
G01*
X74720000Y65915000D01*
G75*
G02*
X74650000Y65985000I0J70000D01*
G01*
G37*
G36*
G01*
X76250000Y65985000D02*
X76250000Y66765000D01*
G75*
G02*
X76320000Y66835000I70000J0D01*
G01*
X76880000Y66835000D01*
G75*
G02*
X76950000Y66765000I0J-70000D01*
G01*
X76950000Y65985000D01*
G75*
G02*
X76880000Y65915000I-70000J0D01*
G01*
X76320000Y65915000D01*
G75*
G02*
X76250000Y65985000I0J70000D01*
G01*
G37*
G04 #@! TD*
G04 #@! TO.C,R53*
G36*
G01*
X24690000Y23225000D02*
X23910000Y23225000D01*
G75*
G02*
X23840000Y23295000I0J70000D01*
G01*
X23840000Y23855000D01*
G75*
G02*
X23910000Y23925000I70000J0D01*
G01*
X24690000Y23925000D01*
G75*
G02*
X24760000Y23855000I0J-70000D01*
G01*
X24760000Y23295000D01*
G75*
G02*
X24690000Y23225000I-70000J0D01*
G01*
G37*
G36*
G01*
X24690000Y24825000D02*
X23910000Y24825000D01*
G75*
G02*
X23840000Y24895000I0J70000D01*
G01*
X23840000Y25455000D01*
G75*
G02*
X23910000Y25525000I70000J0D01*
G01*
X24690000Y25525000D01*
G75*
G02*
X24760000Y25455000I0J-70000D01*
G01*
X24760000Y24895000D01*
G75*
G02*
X24690000Y24825000I-70000J0D01*
G01*
G37*
G04 #@! TD*
G04 #@! TO.C,D3*
G36*
G01*
X83810000Y58925000D02*
X82790000Y58925000D01*
G75*
G02*
X82700000Y59015000I0J90000D01*
G01*
X82700000Y59735000D01*
G75*
G02*
X82790000Y59825000I90000J0D01*
G01*
X83810000Y59825000D01*
G75*
G02*
X83900000Y59735000I0J-90000D01*
G01*
X83900000Y59015000D01*
G75*
G02*
X83810000Y58925000I-90000J0D01*
G01*
G37*
G36*
G01*
X83810000Y62225000D02*
X82790000Y62225000D01*
G75*
G02*
X82700000Y62315000I0J90000D01*
G01*
X82700000Y63035000D01*
G75*
G02*
X82790000Y63125000I90000J0D01*
G01*
X83810000Y63125000D01*
G75*
G02*
X83900000Y63035000I0J-90000D01*
G01*
X83900000Y62315000D01*
G75*
G02*
X83810000Y62225000I-90000J0D01*
G01*
G37*
G04 #@! TD*
G04 #@! TO.C,R34*
G36*
G01*
X74690000Y55725000D02*
X73910000Y55725000D01*
G75*
G02*
X73840000Y55795000I0J70000D01*
G01*
X73840000Y56355000D01*
G75*
G02*
X73910000Y56425000I70000J0D01*
G01*
X74690000Y56425000D01*
G75*
G02*
X74760000Y56355000I0J-70000D01*
G01*
X74760000Y55795000D01*
G75*
G02*
X74690000Y55725000I-70000J0D01*
G01*
G37*
G36*
G01*
X74690000Y57325000D02*
X73910000Y57325000D01*
G75*
G02*
X73840000Y57395000I0J70000D01*
G01*
X73840000Y57955000D01*
G75*
G02*
X73910000Y58025000I70000J0D01*
G01*
X74690000Y58025000D01*
G75*
G02*
X74760000Y57955000I0J-70000D01*
G01*
X74760000Y57395000D01*
G75*
G02*
X74690000Y57325000I-70000J0D01*
G01*
G37*
G04 #@! TD*
G04 #@! TO.C,D4*
G36*
G01*
X86310000Y58775000D02*
X85290000Y58775000D01*
G75*
G02*
X85200000Y58865000I0J90000D01*
G01*
X85200000Y59585000D01*
G75*
G02*
X85290000Y59675000I90000J0D01*
G01*
X86310000Y59675000D01*
G75*
G02*
X86400000Y59585000I0J-90000D01*
G01*
X86400000Y58865000D01*
G75*
G02*
X86310000Y58775000I-90000J0D01*
G01*
G37*
G36*
G01*
X86310000Y62075000D02*
X85290000Y62075000D01*
G75*
G02*
X85200000Y62165000I0J90000D01*
G01*
X85200000Y62885000D01*
G75*
G02*
X85290000Y62975000I90000J0D01*
G01*
X86310000Y62975000D01*
G75*
G02*
X86400000Y62885000I0J-90000D01*
G01*
X86400000Y62165000D01*
G75*
G02*
X86310000Y62075000I-90000J0D01*
G01*
G37*
G04 #@! TD*
G04 #@! TO.C,R20*
G36*
G01*
X85225000Y67762500D02*
X82375000Y67762500D01*
G75*
G02*
X82125000Y68012500I0J250000D01*
G01*
X82125000Y68737500D01*
G75*
G02*
X82375000Y68987500I250000J0D01*
G01*
X85225000Y68987500D01*
G75*
G02*
X85475000Y68737500I0J-250000D01*
G01*
X85475000Y68012500D01*
G75*
G02*
X85225000Y67762500I-250000J0D01*
G01*
G37*
G36*
G01*
X85225000Y73687500D02*
X82375000Y73687500D01*
G75*
G02*
X82125000Y73937500I0J250000D01*
G01*
X82125000Y74662500D01*
G75*
G02*
X82375000Y74912500I250000J0D01*
G01*
X85225000Y74912500D01*
G75*
G02*
X85475000Y74662500I0J-250000D01*
G01*
X85475000Y73937500D01*
G75*
G02*
X85225000Y73687500I-250000J0D01*
G01*
G37*
G04 #@! TD*
G04 #@! TO.C,R21*
G36*
G01*
X77225000Y67837500D02*
X74375000Y67837500D01*
G75*
G02*
X74125000Y68087500I0J250000D01*
G01*
X74125000Y68812500D01*
G75*
G02*
X74375000Y69062500I250000J0D01*
G01*
X77225000Y69062500D01*
G75*
G02*
X77475000Y68812500I0J-250000D01*
G01*
X77475000Y68087500D01*
G75*
G02*
X77225000Y67837500I-250000J0D01*
G01*
G37*
G36*
G01*
X77225000Y73762500D02*
X74375000Y73762500D01*
G75*
G02*
X74125000Y74012500I0J250000D01*
G01*
X74125000Y74737500D01*
G75*
G02*
X74375000Y74987500I250000J0D01*
G01*
X77225000Y74987500D01*
G75*
G02*
X77475000Y74737500I0J-250000D01*
G01*
X77475000Y74012500D01*
G75*
G02*
X77225000Y73762500I-250000J0D01*
G01*
G37*
G04 #@! TD*
G04 #@! TO.C,F7*
G36*
G01*
X69025000Y64631250D02*
X69025000Y64118750D01*
G75*
G02*
X68806250Y63900000I-218750J0D01*
G01*
X68368750Y63900000D01*
G75*
G02*
X68150000Y64118750I0J218750D01*
G01*
X68150000Y64631250D01*
G75*
G02*
X68368750Y64850000I218750J0D01*
G01*
X68806250Y64850000D01*
G75*
G02*
X69025000Y64631250I0J-218750D01*
G01*
G37*
G36*
G01*
X67450000Y64631250D02*
X67450000Y64118750D01*
G75*
G02*
X67231250Y63900000I-218750J0D01*
G01*
X66793750Y63900000D01*
G75*
G02*
X66575000Y64118750I0J218750D01*
G01*
X66575000Y64631250D01*
G75*
G02*
X66793750Y64850000I218750J0D01*
G01*
X67231250Y64850000D01*
G75*
G02*
X67450000Y64631250I0J-218750D01*
G01*
G37*
G04 #@! TD*
G04 #@! TO.C,R26*
G36*
G01*
X60725000Y67800000D02*
X57875000Y67800000D01*
G75*
G02*
X57625000Y68050000I0J250000D01*
G01*
X57625000Y68775000D01*
G75*
G02*
X57875000Y69025000I250000J0D01*
G01*
X60725000Y69025000D01*
G75*
G02*
X60975000Y68775000I0J-250000D01*
G01*
X60975000Y68050000D01*
G75*
G02*
X60725000Y67800000I-250000J0D01*
G01*
G37*
G36*
G01*
X60725000Y73725000D02*
X57875000Y73725000D01*
G75*
G02*
X57625000Y73975000I0J250000D01*
G01*
X57625000Y74700000D01*
G75*
G02*
X57875000Y74950000I250000J0D01*
G01*
X60725000Y74950000D01*
G75*
G02*
X60975000Y74700000I0J-250000D01*
G01*
X60975000Y73975000D01*
G75*
G02*
X60725000Y73725000I-250000J0D01*
G01*
G37*
G04 #@! TD*
G04 #@! TO.C,R47*
G36*
G01*
X61190000Y55725000D02*
X60410000Y55725000D01*
G75*
G02*
X60340000Y55795000I0J70000D01*
G01*
X60340000Y56355000D01*
G75*
G02*
X60410000Y56425000I70000J0D01*
G01*
X61190000Y56425000D01*
G75*
G02*
X61260000Y56355000I0J-70000D01*
G01*
X61260000Y55795000D01*
G75*
G02*
X61190000Y55725000I-70000J0D01*
G01*
G37*
G36*
G01*
X61190000Y57325000D02*
X60410000Y57325000D01*
G75*
G02*
X60340000Y57395000I0J70000D01*
G01*
X60340000Y57955000D01*
G75*
G02*
X60410000Y58025000I70000J0D01*
G01*
X61190000Y58025000D01*
G75*
G02*
X61260000Y57955000I0J-70000D01*
G01*
X61260000Y57395000D01*
G75*
G02*
X61190000Y57325000I-70000J0D01*
G01*
G37*
G04 #@! TD*
G04 #@! TO.C,R32*
G36*
G01*
X62690000Y55725000D02*
X61910000Y55725000D01*
G75*
G02*
X61840000Y55795000I0J70000D01*
G01*
X61840000Y56355000D01*
G75*
G02*
X61910000Y56425000I70000J0D01*
G01*
X62690000Y56425000D01*
G75*
G02*
X62760000Y56355000I0J-70000D01*
G01*
X62760000Y55795000D01*
G75*
G02*
X62690000Y55725000I-70000J0D01*
G01*
G37*
G36*
G01*
X62690000Y57325000D02*
X61910000Y57325000D01*
G75*
G02*
X61840000Y57395000I0J70000D01*
G01*
X61840000Y57955000D01*
G75*
G02*
X61910000Y58025000I70000J0D01*
G01*
X62690000Y58025000D01*
G75*
G02*
X62760000Y57955000I0J-70000D01*
G01*
X62760000Y57395000D01*
G75*
G02*
X62690000Y57325000I-70000J0D01*
G01*
G37*
G04 #@! TD*
M02*
