M48
; DRILL file {KiCad 8.0.8} date 2026-01-13T08:47:59-0500
; FORMAT={-:-/ absolute / inch / decimal}
; #@! TF.CreationDate,2026-01-13T08:47:59-05:00
; #@! TF.GenerationSoftware,Kicad,Pcbnew,8.0.8
; #@! TF.FileFunction,Plated,1,4,PTH
FMAT,2
INCH
; #@! TA.AperFunction,Plated,PTH,ViaDrill
T1C0.0030
; #@! TA.AperFunction,Plated,PTH,ViaDrill
T2C0.0039
; #@! TA.AperFunction,Plated,PTH,ViaDrill
T3C0.0059
; #@! TA.AperFunction,Plated,PTH,ViaDrill
T4C0.0079
; #@! TA.AperFunction,Plated,PTH,ComponentDrill
T5C0.0118
; #@! TA.AperFunction,Plated,PTH,ViaDrill
T6C0.0118
; #@! TA.AperFunction,Plated,PTH,ComponentDrill
T7C0.0118
; #@! TA.AperFunction,Plated,PTH,ViaDrill
T8C0.0157
; #@! TA.AperFunction,Plated,PTH,ViaDrill
T9C0.0197
; #@! TA.AperFunction,Plated,PTH,ViaDrill
T10C0.0276
; #@! TA.AperFunction,Plated,PTH,ComponentDrill
T11C0.0276
; #@! TA.AperFunction,Plated,PTH,ComponentDrill
T12C0.0320
; #@! TA.AperFunction,Plated,PTH,ComponentDrill
T13C0.0394
; #@! TA.AperFunction,Plated,PTH,ComponentDrill
T14C0.0433
; #@! TA.AperFunction,Plated,PTH,ComponentDrill
T15C0.0866
; #@! TA.AperFunction,Plated,PTH,ComponentDrill
T16C0.1457
%
G90
G05
T1
X0.3174Y2.6242
X0.3463Y1.3454
X0.3756Y1.433
X0.3843Y1.2144
X0.4071Y1.3594
X0.4152Y2.5133
X0.4351Y2.6502
X0.8959Y1.5519
X0.9252Y1.5459
X1.0161Y2.1274
X1.0699Y2.5748
X1.0728Y2.5587
X1.1381Y2.1274
X1.1908Y1.9994
X1.3631Y1.1094
X1.562Y2.8421
X1.5629Y2.0156
X1.6033Y2.0026
X1.6088Y2.7454
X1.6252Y3.9821
X1.6252Y3.862
X1.6252Y3.7419
X1.6252Y3.5667
X1.6252Y3.0293
X1.6252Y2.7144
X1.6961Y2.673
X1.7787Y4.0825
X1.8784Y2.3111
X1.9366Y1.086
X1.9812Y1.3712
X1.9907Y1.0909
X2.0156Y1.2315
X2.0169Y4.0825
X2.0711Y1.2861
X2.0871Y1.2741
X2.1048Y1.241
X2.1547Y4.0825
X2.1617Y2.1576
X2.2346Y1.7785
X2.4585Y2.3169
X2.5386Y4.0825
X2.5884Y2.3169
X2.6298Y1.2402
X2.7704Y2.4191
X2.776Y1.7785
X2.8664Y1.4298
X2.8664Y1.3865
X2.886Y1.7972
X2.9057Y1.7146
X2.92Y2.1304
X2.9267Y2.1622
X2.9559Y3.9486
X2.9559Y3.6061
X2.9559Y3.0215
X2.9559Y2.7931
X3.0398Y3.0403
X3.0574Y2.4632
X3.0645Y3.0388
X3.0789Y2.1004
X3.1175Y1.3573
X3.1207Y1.4413
X3.1656Y1.7146
X3.187Y1.6808
X3.2164Y3.0303
X3.2509Y3.1193
X3.2528Y3.7301
X3.2626Y3.7459
X3.2677Y3.7616
X3.2724Y3.7774
X3.2764Y3.7931
X3.2846Y3.8094
X3.3173Y2.4679
X3.3467Y2.1004
X3.39Y1.7146
X3.4073Y2.3788
X3.4215Y1.9075
X3.4253Y2.5196
X3.5208Y2.4522
X3.8867Y3.1344
X4.6142Y3.9506
X4.7008Y3.6199
X4.8307Y3.6199
X4.8957Y4.2813
X4.9685Y3.6199
X5.2303Y4.2813
X5.2579Y3.6199
X5.4232Y3.6199
X5.4252Y3.9191
T2
X0.657Y3.0624
X0.9539Y3.088
X1.0217Y2.7213
X1.0801Y2.3405
X1.0902Y3.1162
X1.0967Y2.937
X2.4605Y2.3669
X2.5891Y2.3731
X2.6431Y2.6089
X2.7587Y2.5577
X3.0198Y2.9911
X3.0752Y3.983
X3.0842Y3.0274
X3.0966Y3.9512
X3.1085Y3.5532
X3.1124Y3.9331
X3.1246Y3.5365
X3.145Y3.557
X3.1664Y3.9081
X3.2402Y3.6986
X3.2455Y3.7144
X3.3158Y2.932
X3.3485Y2.7373
X3.4332Y2.8084
X3.469Y2.7961
X3.8466Y2.5972
X3.8669Y1.4603
X3.8719Y2.0831
X4.7602Y1.4654
X4.7759Y2.0954
T3
X0.4266Y3.3993
X0.43Y3.4667
X0.4418Y2.9181
X0.5188Y1.1281
X0.5406Y2.9777
X0.5613Y1.1707
X0.6556Y1.3761
X0.6607Y3.4628
X0.6668Y3.4016
X2.635Y2.5581
X2.735Y2.6334
X2.8468Y2.6514
X2.997Y3.9249
X3.1803Y3.4839
X3.3473Y3.8969
X3.4129Y3.8331
X3.4717Y3.93
X3.4871Y3.7707
X3.5128Y3.7098
X3.8734Y4.1231
X4.1354Y3.8606
X4.1548Y3.8801
X4.5856Y3.9661
T4
X0.4571Y1.3344
X1.0432Y1.7548
X1.1328Y1.8211
X1.2518Y1.6938
X1.2621Y2.3781
X1.3576Y2.6791
X1.4643Y2.6721
X1.6028Y2.7247
X1.6081Y2.3978
X2.0306Y2.1033
X2.0306Y1.9567
X2.3222Y1.0238
X2.8416Y1.5232
X2.8482Y1.2444
X2.9486Y2.6334
X2.9886Y2.6444
X3.0245Y2.6482
X3.074Y2.6684
X3.0899Y1.3799
X3.1104Y2.6679
X3.1113Y1.2868
X3.1466Y2.6707
X3.4794Y1.4967
T5
X3.2048Y2.2294
X3.2393Y2.2087
X3.2456Y3.4215
X3.2481Y2.3987
X3.2511Y2.2589
X3.2574Y3.5819
X3.3322Y3.5825
X3.349Y3.6547
X3.3706Y3.574
X3.4051Y3.5825
X3.4385Y3.5854
X3.4513Y3.6547
X3.5025Y3.6031
X3.5281Y3.6547
T6
X0.5144Y2.0423
X0.7083Y3.6078
X1.0613Y0.977
X1.2567Y3.7826
X1.2886Y3.8466
X1.3634Y3.7782
X1.4981Y3.8651
X1.56Y3.8097
X1.5915Y3.7858
X2.232Y1.1967
X2.2423Y1.1404
X2.2713Y1.0967
X2.3036Y1.0573
X3.0862Y4.006
X3.088Y2.5817
X3.0935Y4.0502
X3.1268Y4.0683
X3.1358Y2.5778
X3.3937Y3.3087
X3.4025Y3.1715
X3.6656Y2.0945
X3.7651Y1.6345
X3.7697Y3.5161
X3.7837Y3.6732
X3.8102Y3.4866
X3.8548Y3.6437
X3.9035Y3.4423
X3.9453Y3.5963
X4.0028Y3.3961
X4.0303Y3.5464
X4.778Y2.6719
X4.7846Y3.1846
X5.1457Y2.5955
X5.1545Y3.0711
X5.1594Y1.4652
X5.1606Y2.0998
X5.9961Y3.1478
X6.0094Y2.5915
X6.0181Y2.0707
X6.034Y1.5242
T7
X1.0397Y2.2987
X1.0397Y1.9561
X1.0752Y1.9561
X1.0771Y2.2987
X1.1145Y2.2987
X1.2026Y2.3
X1.2499Y2.3
X1.2971Y2.3
X1.3444Y2.3
X1.457Y1.7321
X1.4963Y1.7321
X1.6151Y2.3033
X1.6331Y4.0746
X1.6331Y3.8896
X1.6331Y3.8344
X1.6331Y3.6494
X1.6331Y3.6179
X1.6331Y3.5156
X1.6331Y3.4762
X1.6331Y3.4368
X1.6331Y3.3974
X1.6331Y3.3581
X1.6331Y3.3187
X1.6331Y3.2793
X1.6331Y3.24
X1.6331Y2.8187
X1.6331Y2.7793
X1.6488Y2.6809
X1.6623Y2.3033
X1.7096Y2.3033
X1.7433Y2.6809
X1.7568Y2.3033
X1.7906Y2.6809
X1.8378Y2.6809
X1.8694Y1.7354
X1.885Y2.6809
X1.9088Y1.7354
X1.9244Y4.0746
X1.9323Y2.6809
X1.9638Y4.0746
X1.9795Y2.6809
X2.0268Y2.6809
X2.0701Y4.0746
X2.074Y2.6809
X2.1213Y2.6809
X2.1685Y2.6809
X2.2157Y2.6809
X2.2394Y4.0746
X2.263Y2.6809
X2.2709Y4.0746
X2.2927Y1.2549
X2.3024Y4.0746
X2.3102Y2.6809
X2.3321Y1.2549
X2.3339Y4.0746
X2.3575Y2.6809
X2.3654Y4.0746
X2.3715Y1.2549
X2.3969Y4.0746
X2.4047Y2.6809
X2.4108Y1.2549
X2.4283Y4.0746
X2.452Y2.6809
X2.4598Y4.0746
X2.4913Y4.0746
X2.4992Y2.6809
X2.5035Y2.3018
X2.5435Y2.3018
X2.5465Y2.6809
X2.5858Y4.0746
X2.5937Y2.6809
X2.6173Y4.0746
X2.6333Y2.3018
X2.6409Y2.6809
X2.6488Y4.0746
X2.6726Y2.3018
X2.6803Y4.0746
X2.6882Y2.6809
X2.7118Y4.0746
X2.712Y2.3018
X2.7433Y4.0746
X2.7748Y4.0746
X2.8063Y4.0746
X2.8378Y4.0746
X2.8693Y4.0746
X2.8939Y2.0925
X2.8939Y2.061
X2.8939Y2.0295
X2.8939Y1.998
X2.8939Y1.9665
X2.8939Y1.935
X2.8939Y1.9035
X2.9008Y4.0746
X2.9254Y2.0925
X2.9323Y4.0746
X2.948Y3.547
X2.948Y2.9368
X2.948Y3.7911
X2.948Y3.7596
X2.948Y3.7281
X2.948Y3.6967
X2.948Y3.6652
X2.948Y3.6337
X2.948Y3.5785
X2.948Y3.5156
X2.948Y3.4841
X2.948Y3.4526
X2.948Y3.4211
X2.948Y3.3896
X2.948Y3.3581
X2.948Y3.3266
X2.948Y3.2951
X2.948Y3.2636
X2.948Y3.2321
X2.948Y3.2006
X2.948Y3.1691
X2.948Y3.1376
X2.948Y3.1061
X4.752Y3.6278
X4.7913Y3.6278
T8
X3.7346Y2.5552
X3.7835Y1.4434
X3.7906Y3.1307
X3.7943Y2.05
X3.809Y2.5543
X3.836Y3.1307
X3.8555Y1.4154
X3.8582Y2.03
X4.681Y1.4338
X4.6969Y2.5474
X4.697Y3.1221
X4.7012Y2.0486
X4.7534Y1.412
X4.754Y3.0955
X4.7574Y2.5234
X4.7597Y2.0313
X4.8997Y2.5234
X4.9077Y1.412
X4.9167Y2.0313
X4.9267Y3.0955
X4.9648Y2.5498
X4.9783Y2.0627
X4.9796Y1.428
X4.9854Y3.1093
X5.7075Y3.1778
X5.713Y2.5238
X5.7947Y2.6055
X5.8213Y3.1778
X5.9146Y1.4234
X5.9911Y1.399
X5.9987Y2.1653
X6.0476Y2.1653
T9
X0.5969Y2.2728
T10
X3.484Y3.2125
X3.6741Y2.7476
T11
X2.9569Y1.7303
X3.0041Y1.7303
X3.2404Y2.0846
X3.327Y1.7303
X3.9488Y4.0167
X3.9488Y3.9537
X4.0177Y4.0482
X4.0177Y3.9852
X4.0177Y3.9222
T12
X3.4677Y2.1789
X3.6473Y1.6462
X3.6606Y2.1789
X3.8402Y1.6462
X4.2537Y3.9904
X4.4037Y3.9904
X5.6283Y3.9077
X5.6283Y3.7148
X5.8177Y3.8884
X5.8177Y3.6955
T13
X3.7Y3.0565
X3.7Y2.9565
X3.7Y2.8565
X3.7059Y2.4758
X3.7059Y2.3758
X3.7059Y2.2758
X3.7256Y1.3419
X3.7256Y1.2419
X3.7256Y1.1419
X3.7307Y1.9541
X3.7307Y1.8541
X3.7307Y1.7541
X3.8Y3.0565
X3.8Y2.9565
X3.8Y2.8565
X3.8059Y2.4758
X3.8059Y2.3758
X3.8059Y2.2758
X3.8256Y1.3419
X3.8256Y1.2419
X3.8256Y1.1419
X3.8307Y1.9541
X3.8307Y1.8541
X3.8307Y1.7541
X3.9Y3.0565
X3.9Y2.9565
X3.9Y2.8565
X3.9059Y2.4758
X3.9059Y2.3758
X3.9059Y2.2758
X3.9256Y1.3419
X3.9256Y1.2419
X3.9256Y1.1419
X3.9307Y1.9541
X3.9307Y1.8541
X3.9307Y1.7541
X4.6193Y1.3404
X4.6193Y1.2404
X4.6193Y1.1404
X4.6248Y2.4624
X4.6248Y2.3624
X4.6248Y2.2624
X4.6358Y1.9573
X4.6358Y1.8573
X4.6358Y1.7573
X4.6398Y3.6455
X4.6413Y3.0238
X4.6413Y2.9238
X4.6413Y2.8238
X4.6575Y4.2557
X4.7193Y1.3404
X4.7193Y1.2404
X4.7193Y1.1404
X4.7248Y2.4624
X4.7248Y2.3624
X4.7248Y2.2624
X4.7358Y1.9573
X4.7358Y1.8573
X4.7358Y1.7573
X4.7413Y3.0238
X4.7413Y2.9238
X4.7413Y2.8238
X4.8193Y1.3404
X4.8193Y1.2404
X4.8193Y1.1404
X4.8248Y2.4624
X4.8248Y2.3624
X4.8248Y2.2624
X4.8358Y1.9573
X4.8358Y1.8573
X4.8358Y1.7573
X4.8413Y3.0238
X4.8413Y2.9238
X4.8413Y2.8238
X4.8858Y3.6455
X4.998Y2.4569
X4.998Y2.3569
X4.998Y2.2569
X5.0004Y1.9608
X5.0004Y1.8608
X5.0004Y1.7608
X5.0091Y3.0018
X5.0091Y2.9018
X5.0091Y2.8018
X5.0098Y1.3262
X5.0098Y1.2262
X5.0098Y1.1262
X5.0551Y3.6455
X5.098Y2.4569
X5.098Y2.3569
X5.098Y2.2569
X5.1004Y1.9608
X5.1004Y1.8608
X5.1004Y1.7608
X5.1091Y3.0018
X5.1091Y2.9018
X5.1091Y2.8018
X5.1098Y1.3262
X5.1098Y1.2262
X5.1098Y1.1262
X5.1299Y3.6455
X5.1319Y4.2557
X5.198Y2.4569
X5.198Y2.3569
X5.198Y2.2569
X5.2004Y1.9608
X5.2004Y1.8608
X5.2004Y1.7608
X5.2091Y3.0018
X5.2091Y2.9018
X5.2091Y2.8018
X5.2098Y1.3262
X5.2098Y1.2262
X5.2098Y1.1262
X5.3268Y4.2557
X5.3819Y3.6455
X5.3996Y4.2557
X5.8488Y2.9978
X5.8488Y2.8978
X5.8488Y2.7978
X5.8598Y1.323
X5.8598Y1.223
X5.8598Y1.123
X5.8618Y2.4478
X5.8618Y2.3478
X5.8618Y2.2478
X5.8657Y1.9376
X5.8657Y1.8376
X5.8657Y1.7376
X5.9488Y2.9978
X5.9488Y2.8978
X5.9488Y2.7978
X5.9598Y1.323
X5.9598Y1.223
X5.9598Y1.123
X5.9618Y2.4478
X5.9618Y2.3478
X5.9618Y2.2478
X5.9657Y1.9376
X5.9657Y1.8376
X5.9657Y1.7376
X6.0488Y2.9978
X6.0488Y2.8978
X6.0488Y2.7978
X6.0598Y1.323
X6.0598Y1.223
X6.0598Y1.123
X6.0618Y2.4478
X6.0618Y2.3478
X6.0618Y2.2478
X6.0657Y1.9376
X6.0657Y1.8376
X6.0657Y1.7376
T14
X1.5531Y0.7331
X1.5531Y0.6331
X1.5531Y0.395
X1.5531Y0.295
X1.6531Y0.7331
X1.6531Y0.6331
X1.6531Y0.395
X1.6531Y0.295
X1.7531Y0.7331
X1.7531Y0.6331
X1.7531Y0.395
X1.7531Y0.295
X1.8531Y0.7331
X1.8531Y0.6331
X1.8531Y0.395
X1.8531Y0.295
X1.9531Y0.7331
X1.9531Y0.6331
X1.9531Y0.395
X1.9531Y0.295
X2.0531Y0.7331
X2.0531Y0.6331
X2.0531Y0.395
X2.0531Y0.295
X2.1531Y0.7331
X2.1531Y0.6331
X2.1531Y0.395
X2.1531Y0.295
X2.2531Y0.7331
X2.2531Y0.6331
X2.2531Y0.395
X2.2531Y0.295
X2.3531Y0.7331
X2.3531Y0.6331
X2.3531Y0.395
X2.3531Y0.295
X2.4531Y0.7331
X2.4531Y0.6331
X2.4531Y0.395
X2.4531Y0.295
X2.5531Y0.7331
X2.5531Y0.6331
X2.5531Y0.395
X2.5531Y0.295
X2.6531Y0.7331
X2.6531Y0.6331
X2.6531Y0.395
X2.6531Y0.295
X2.7531Y0.7331
X2.7531Y0.6331
X2.7531Y0.395
X2.7531Y0.295
X2.8531Y0.7331
X2.8531Y0.6331
X2.8531Y0.395
X2.8531Y0.295
X2.9531Y0.7331
X2.9531Y0.6331
X2.9531Y0.395
X2.9531Y0.295
X3.0531Y0.7331
X3.0531Y0.6331
X3.0531Y0.395
X3.0531Y0.295
X3.1531Y0.7331
X3.1531Y0.6331
X3.1531Y0.395
X3.1531Y0.295
X3.2531Y0.7331
X3.2531Y0.6331
X3.2531Y0.395
X3.2531Y0.295
X3.3531Y0.7331
X3.3531Y0.6331
X3.3531Y0.395
X3.3531Y0.295
X3.9818Y0.7331
X3.9818Y0.6331
X3.9818Y0.395
X3.9818Y0.295
X4.0818Y0.7331
X4.0818Y0.6331
X4.0818Y0.395
X4.0818Y0.295
X4.1818Y0.7331
X4.1818Y0.6331
X4.1818Y0.395
X4.1818Y0.295
X4.2818Y0.7331
X4.2818Y0.6331
X4.2818Y0.395
X4.2818Y0.295
X4.3818Y0.7331
X4.3818Y0.6331
X4.3818Y0.395
X4.3818Y0.295
X4.4818Y0.7331
X4.4818Y0.6331
X4.4818Y0.395
X4.4818Y0.295
X4.5818Y0.7331
X4.5818Y0.6331
X4.5818Y0.395
X4.5818Y0.295
X4.6818Y0.7331
X4.6818Y0.6331
X4.6818Y0.395
X4.6818Y0.295
T15
X0.8306Y0.5233
X1.0137Y0.7331
X1.0137Y0.4131
X1.1279Y0.5048
X1.242Y0.7331
X1.242Y0.4131
X4.9901Y0.7331
X4.9901Y0.4131
X5.1043Y0.5048
X5.2184Y0.7331
X5.2184Y0.4131
X5.3365Y0.5048
X5.4507Y0.7331
X5.4507Y0.4131
X5.6259Y0.5233
T16
X0.7342Y0.2162
X3.6672Y0.2162
X5.7224Y0.2162
T11
G00X3.9577Y4.1289
M15
G01X4.0089Y4.1289
M16
G05
G00X3.9577Y3.8415
M15
G01X4.0089Y3.8415
M16
G05
M30
