G04 #@! TF.GenerationSoftware,KiCad,Pcbnew,8.0.9-8.0.9-0~ubuntu24.04.1*
G04 #@! TF.CreationDate,2025-12-21T15:30:04+00:00*
G04 #@! TF.ProjectId,greenenergyecu,67726565-6e65-46e6-9572-67796563752e,d*
G04 #@! TF.SameCoordinates,PX240c840PY700e860*
G04 #@! TF.FileFunction,Copper,L1,Top*
G04 #@! TF.FilePolarity,Positive*
%FSLAX46Y46*%
G04 Gerber Fmt 4.6, Leading zero omitted, Abs format (unit mm)*
G04 Created by KiCad (PCBNEW 8.0.9-8.0.9-0~ubuntu24.04.1) date 2025-12-21 15:30:04*
%MOMM*%
%LPD*%
G01*
G04 APERTURE LIST*
G04 #@! TA.AperFunction,ComponentPad*
%ADD10C,3.700000*%
G04 #@! TD*
G04 #@! TA.AperFunction,ComponentPad*
%ADD11C,2.200000*%
G04 #@! TD*
G04 #@! TA.AperFunction,ComponentPad*
%ADD12C,2.600000*%
G04 #@! TD*
G04 #@! TA.AperFunction,ComponentPad*
%ADD13C,1.500000*%
G04 #@! TD*
G04 #@! TA.AperFunction,SMDPad,CuDef*
%ADD14O,0.200000X5.669999*%
G04 #@! TD*
G04 #@! TA.AperFunction,SMDPad,CuDef*
%ADD15O,11.100001X0.200000*%
G04 #@! TD*
G04 #@! TA.AperFunction,SMDPad,CuDef*
%ADD16O,9.800001X0.399999*%
G04 #@! TD*
G04 #@! TA.AperFunction,SMDPad,CuDef*
%ADD17O,0.499999X0.250000*%
G04 #@! TD*
G04 #@! TA.AperFunction,SMDPad,CuDef*
%ADD18O,0.200000X6.799999*%
G04 #@! TD*
G04 #@! TA.AperFunction,SMDPad,CuDef*
%ADD19O,0.250000X0.499999*%
G04 #@! TD*
G04 #@! TA.AperFunction,ComponentPad*
%ADD20C,0.599999*%
G04 #@! TD*
G04 #@! TA.AperFunction,ComponentPad*
%ADD21C,1.524000*%
G04 #@! TD*
G04 #@! TA.AperFunction,ComponentPad*
%ADD22C,0.700000*%
G04 #@! TD*
G04 #@! TA.AperFunction,SMDPad,CuDef*
%ADD23C,3.000000*%
G04 #@! TD*
G04 #@! TA.AperFunction,SMDPad,CuDef*
%ADD24R,0.250000X3.000000*%
G04 #@! TD*
G04 #@! TA.AperFunction,SMDPad,CuDef*
%ADD25R,0.250000X1.100000*%
G04 #@! TD*
G04 #@! TA.AperFunction,SMDPad,CuDef*
%ADD26R,0.250000X0.980000*%
G04 #@! TD*
G04 #@! TA.AperFunction,SMDPad,CuDef*
%ADD27R,0.250000X1.450000*%
G04 #@! TD*
G04 #@! TA.AperFunction,SMDPad,CuDef*
%ADD28R,27.600000X0.250000*%
G04 #@! TD*
G04 #@! TA.AperFunction,SMDPad,CuDef*
%ADD29R,0.250000X1.950000*%
G04 #@! TD*
G04 #@! TA.AperFunction,SMDPad,CuDef*
%ADD30R,0.250000X0.950000*%
G04 #@! TD*
G04 #@! TA.AperFunction,ComponentPad*
%ADD31C,0.600000*%
G04 #@! TD*
G04 #@! TA.AperFunction,SMDPad,CuDef*
%ADD32R,0.250000X6.185000*%
G04 #@! TD*
G04 #@! TA.AperFunction,SMDPad,CuDef*
%ADD33R,0.250000X1.115000*%
G04 #@! TD*
G04 #@! TA.AperFunction,SMDPad,CuDef*
%ADD34R,14.275000X0.250000*%
G04 #@! TD*
G04 #@! TA.AperFunction,SMDPad,CuDef*
%ADD35R,15.100000X0.250000*%
G04 #@! TD*
G04 #@! TA.AperFunction,SMDPad,CuDef*
%ADD36R,0.250000X5.175000*%
G04 #@! TD*
G04 #@! TA.AperFunction,ComponentPad*
%ADD37O,1.700000X1.850000*%
G04 #@! TD*
G04 #@! TA.AperFunction,SMDPad,CuDef*
%ADD38R,0.200000X4.400000*%
G04 #@! TD*
G04 #@! TA.AperFunction,SMDPad,CuDef*
%ADD39R,1.200000X0.200000*%
G04 #@! TD*
G04 #@! TA.AperFunction,SMDPad,CuDef*
%ADD40R,6.800000X0.200000*%
G04 #@! TD*
G04 #@! TA.AperFunction,SMDPad,CuDef*
%ADD41R,4.000000X0.200000*%
G04 #@! TD*
G04 #@! TA.AperFunction,SMDPad,CuDef*
%ADD42R,1.800000X0.200000*%
G04 #@! TD*
G04 #@! TA.AperFunction,SMDPad,CuDef*
%ADD43R,0.200000X10.000000*%
G04 #@! TD*
G04 #@! TA.AperFunction,ComponentPad*
%ADD44C,1.000000*%
G04 #@! TD*
G04 #@! TA.AperFunction,SMDPad,CuDef*
%ADD45R,0.200000X3.700000*%
G04 #@! TD*
G04 #@! TA.AperFunction,SMDPad,CuDef*
%ADD46R,0.200000X0.400000*%
G04 #@! TD*
G04 #@! TA.AperFunction,SMDPad,CuDef*
%ADD47R,0.200000X1.600000*%
G04 #@! TD*
G04 #@! TA.AperFunction,SMDPad,CuDef*
%ADD48R,0.200000X9.700000*%
G04 #@! TD*
G04 #@! TA.AperFunction,SMDPad,CuDef*
%ADD49R,0.200000X2.300000*%
G04 #@! TD*
G04 #@! TA.AperFunction,SMDPad,CuDef*
%ADD50R,1.400000X0.200000*%
G04 #@! TD*
G04 #@! TA.AperFunction,SMDPad,CuDef*
%ADD51R,6.400000X0.200000*%
G04 #@! TD*
G04 #@! TA.AperFunction,SMDPad,CuDef*
%ADD52R,1.700000X0.200000*%
G04 #@! TD*
G04 #@! TA.AperFunction,SMDPad,CuDef*
%ADD53R,3.300000X0.200000*%
G04 #@! TD*
G04 #@! TA.AperFunction,SMDPad,CuDef*
%ADD54R,0.200000X7.000000*%
G04 #@! TD*
G04 #@! TA.AperFunction,SMDPad,CuDef*
%ADD55R,0.200000X3.300000*%
G04 #@! TD*
G04 #@! TA.AperFunction,SMDPad,CuDef*
%ADD56R,0.200000X6.300000*%
G04 #@! TD*
G04 #@! TA.AperFunction,ComponentPad*
%ADD57R,1.100000X1.100000*%
G04 #@! TD*
G04 #@! TA.AperFunction,ComponentPad*
%ADD58C,1.100000*%
G04 #@! TD*
G04 #@! TA.AperFunction,ComponentPad*
%ADD59O,1.100000X2.400000*%
G04 #@! TD*
G04 #@! TA.AperFunction,SMDPad,CuDef*
%ADD60O,0.200000X1.225000*%
G04 #@! TD*
G04 #@! TA.AperFunction,SMDPad,CuDef*
%ADD61O,9.300000X0.200000*%
G04 #@! TD*
G04 #@! TA.AperFunction,SMDPad,CuDef*
%ADD62O,0.200000X3.300000*%
G04 #@! TD*
G04 #@! TA.AperFunction,SMDPad,CuDef*
%ADD63O,0.200000X10.200000*%
G04 #@! TD*
G04 #@! TA.AperFunction,SMDPad,CuDef*
%ADD64O,0.200000X0.300000*%
G04 #@! TD*
G04 #@! TA.AperFunction,SMDPad,CuDef*
%ADD65O,17.000000X0.200000*%
G04 #@! TD*
G04 #@! TA.AperFunction,SMDPad,CuDef*
%ADD66O,15.400000X0.200000*%
G04 #@! TD*
G04 #@! TA.AperFunction,SMDPad,CuDef*
%ADD67O,0.200000X4.800000*%
G04 #@! TD*
G04 #@! TA.AperFunction,SMDPad,CuDef*
%ADD68O,0.200000X2.600000*%
G04 #@! TD*
G04 #@! TA.AperFunction,SMDPad,CuDef*
%ADD69O,0.200000X1.000000*%
G04 #@! TD*
G04 #@! TA.AperFunction,SMDPad,CuDef*
%ADD70O,0.200000X1.500000*%
G04 #@! TD*
G04 #@! TA.AperFunction,ViaPad*
%ADD71C,2.000000*%
G04 #@! TD*
G04 APERTURE END LIST*
D10*
G04 #@! TO.P,P1,*
G04 #@! TO.N,*
X152852000Y120383000D03*
D11*
X150402000Y112583000D03*
D10*
X78352000Y120383000D03*
D11*
X28602000Y112583000D03*
D10*
X26152000Y120383000D03*
D12*
G04 #@! TO.P,P1,1,1*
G04 #@! TO.N,PIN1*
X145752000Y115383000D03*
G04 #@! TO.P,P1,2,2*
G04 #@! TO.N,PIN2*
X139952000Y115383000D03*
G04 #@! TO.P,P1,3,3*
G04 #@! TO.N,PIN114*
X142852000Y113053000D03*
G04 #@! TO.P,P1,4,4*
G04 #@! TO.N,PIN4*
X145752000Y107253000D03*
G04 #@! TO.P,P1,5,5*
G04 #@! TO.N,PIN5*
X139952000Y107253000D03*
D13*
G04 #@! TO.P,P1,6,6*
G04 #@! TO.N,PIN6*
X86332000Y107253000D03*
G04 #@! TO.P,P1,7,7*
G04 #@! TO.N,PIN7*
X88872000Y107253000D03*
G04 #@! TO.P,P1,8,8*
G04 #@! TO.N,PIN8*
X91412000Y107253000D03*
G04 #@! TO.P,P1,9,9*
G04 #@! TO.N,PIN9*
X93952000Y107253000D03*
G04 #@! TO.P,P1,10,10*
G04 #@! TO.N,PIN10*
X96492000Y107253000D03*
G04 #@! TO.P,P1,11,11*
G04 #@! TO.N,PIN11*
X99032000Y107253000D03*
G04 #@! TO.P,P1,12,12*
G04 #@! TO.N,PIN12*
X101572000Y107253000D03*
G04 #@! TO.P,P1,13,13*
G04 #@! TO.N,PIN13*
X104112000Y107253000D03*
G04 #@! TO.P,P1,14,14*
G04 #@! TO.N,PIN14*
X106652000Y107253000D03*
G04 #@! TO.P,P1,15,15*
G04 #@! TO.N,PIN15*
X109192000Y107253000D03*
G04 #@! TO.P,P1,16,16*
G04 #@! TO.N,PIN16*
X111732000Y107253000D03*
G04 #@! TO.P,P1,17,17*
G04 #@! TO.N,PIN17*
X114272000Y107253000D03*
G04 #@! TO.P,P1,18,18*
G04 #@! TO.N,PIN18*
X116812000Y107253000D03*
G04 #@! TO.P,P1,19,19*
G04 #@! TO.N,PIN19*
X119352000Y107253000D03*
G04 #@! TO.P,P1,20,20*
G04 #@! TO.N,PIN20*
X121892000Y107253000D03*
G04 #@! TO.P,P1,21,21*
G04 #@! TO.N,PIN21*
X124432000Y107253000D03*
G04 #@! TO.P,P1,22,22*
G04 #@! TO.N,PIN22*
X126972000Y107253000D03*
G04 #@! TO.P,P1,23,23*
G04 #@! TO.N,PIN120*
X129512000Y107253000D03*
G04 #@! TO.P,P1,24,24*
X132052000Y107253000D03*
G04 #@! TO.P,P1,25,25*
G04 #@! TO.N,PIN25*
X86332000Y109793000D03*
G04 #@! TO.P,P1,26,26*
G04 #@! TO.N,PIN26*
X88872000Y109793000D03*
G04 #@! TO.P,P1,27,27*
G04 #@! TO.N,PIN27*
X91412000Y109793000D03*
G04 #@! TO.P,P1,28,28*
G04 #@! TO.N,PIN28*
X93952000Y109793000D03*
G04 #@! TO.P,P1,29,29*
G04 #@! TO.N,PIN29*
X96492000Y109793000D03*
G04 #@! TO.P,P1,30,30*
G04 #@! TO.N,PIN30*
X99032000Y109793000D03*
G04 #@! TO.P,P1,31,31*
G04 #@! TO.N,PIN31*
X101572000Y109793000D03*
G04 #@! TO.P,P1,32,32*
G04 #@! TO.N,PIN32*
X104112000Y109793000D03*
G04 #@! TO.P,P1,33,33*
G04 #@! TO.N,PIN33*
X106652000Y109793000D03*
G04 #@! TO.P,P1,34,34*
G04 #@! TO.N,PIN34*
X109192000Y109793000D03*
G04 #@! TO.P,P1,35,35*
G04 #@! TO.N,PIN35*
X111732000Y109793000D03*
G04 #@! TO.P,P1,36,36*
G04 #@! TO.N,PIN36*
X114272000Y109793000D03*
G04 #@! TO.P,P1,37,37*
G04 #@! TO.N,PIN37*
X116812000Y109793000D03*
G04 #@! TO.P,P1,38,38*
G04 #@! TO.N,PIN38*
X119352000Y109793000D03*
G04 #@! TO.P,P1,39,39*
G04 #@! TO.N,PIN39*
X121892000Y109793000D03*
G04 #@! TO.P,P1,40,40*
G04 #@! TO.N,PIN40*
X124432000Y109793000D03*
G04 #@! TO.P,P1,41,41*
G04 #@! TO.N,PIN41*
X126972000Y109793000D03*
G04 #@! TO.P,P1,42,42*
G04 #@! TO.N,PIN42*
X129512000Y109793000D03*
G04 #@! TO.P,P1,43,43*
G04 #@! TO.N,PIN43*
X132052000Y109793000D03*
G04 #@! TO.P,P1,44,44*
G04 #@! TO.N,PIN44*
X86332000Y115843000D03*
G04 #@! TO.P,P1,45,45*
G04 #@! TO.N,PIN45*
X88872000Y115843000D03*
G04 #@! TO.P,P1,46,46*
G04 #@! TO.N,PIN46*
X91412000Y115843000D03*
G04 #@! TO.P,P1,47,47*
G04 #@! TO.N,PIN47*
X93952000Y115843000D03*
G04 #@! TO.P,P1,48,48*
G04 #@! TO.N,PIN48*
X96492000Y115843000D03*
G04 #@! TO.P,P1,49,49*
G04 #@! TO.N,PIN49*
X99032000Y115843000D03*
G04 #@! TO.P,P1,50,50*
G04 #@! TO.N,PIN50*
X101572000Y115843000D03*
G04 #@! TO.P,P1,51,51*
G04 #@! TO.N,PIN51*
X104112000Y115843000D03*
G04 #@! TO.P,P1,52,52*
G04 #@! TO.N,PIN113*
X106652000Y115843000D03*
G04 #@! TO.P,P1,53,53*
X109192000Y115843000D03*
G04 #@! TO.P,P1,54,54*
X111732000Y115843000D03*
G04 #@! TO.P,P1,55,55*
X114272000Y115843000D03*
G04 #@! TO.P,P1,56,56*
X116812000Y115843000D03*
G04 #@! TO.P,P1,57,57*
X119352000Y115843000D03*
G04 #@! TO.P,P1,58,58*
X121892000Y115843000D03*
G04 #@! TO.P,P1,59,59*
X124432000Y115843000D03*
G04 #@! TO.P,P1,60,60*
X126972000Y115843000D03*
G04 #@! TO.P,P1,61,61*
X129512000Y115843000D03*
G04 #@! TO.P,P1,62,62*
X132052000Y115843000D03*
G04 #@! TO.P,P1,63,63*
G04 #@! TO.N,PIN63*
X86332000Y118383000D03*
G04 #@! TO.P,P1,64,64*
G04 #@! TO.N,PIN113*
X88872000Y118383000D03*
G04 #@! TO.P,P1,65,65*
G04 #@! TO.N,PIN65*
X91412000Y118383000D03*
G04 #@! TO.P,P1,66,66*
G04 #@! TO.N,PIN113*
X93952000Y118383000D03*
G04 #@! TO.P,P1,67,67*
G04 #@! TO.N,PIN67*
X96492000Y118383000D03*
G04 #@! TO.P,P1,68,68*
G04 #@! TO.N,PIN113*
X99032000Y118383000D03*
G04 #@! TO.P,P1,69,69*
G04 #@! TO.N,PIN69*
X101572000Y118383000D03*
G04 #@! TO.P,P1,70,70*
G04 #@! TO.N,PIN70*
X104112000Y118383000D03*
G04 #@! TO.P,P1,71,71*
G04 #@! TO.N,PIN106*
X106652000Y118383000D03*
G04 #@! TO.P,P1,72,72*
X109192000Y118383000D03*
G04 #@! TO.P,P1,73,73*
X111732000Y118383000D03*
G04 #@! TO.P,P1,74,74*
X114272000Y118383000D03*
G04 #@! TO.P,P1,75,75*
X116812000Y118383000D03*
G04 #@! TO.P,P1,76,76*
X119352000Y118383000D03*
G04 #@! TO.P,P1,77,77*
X121892000Y118383000D03*
G04 #@! TO.P,P1,78,78*
X124432000Y118383000D03*
G04 #@! TO.P,P1,79,79*
X126972000Y118383000D03*
G04 #@! TO.P,P1,80,80*
X129512000Y118383000D03*
G04 #@! TO.P,P1,81,81*
G04 #@! TO.N,PIN81*
X132052000Y118383000D03*
G04 #@! TO.P,P1,82,82*
G04 #@! TO.N,PIN82*
X70362000Y118383000D03*
G04 #@! TO.P,P1,83,83*
G04 #@! TO.N,PIN83*
X67822000Y118383000D03*
G04 #@! TO.P,P1,84,84*
G04 #@! TO.N,PIN84*
X65282000Y118383000D03*
G04 #@! TO.P,P1,85,85*
G04 #@! TO.N,PIN85*
X62742000Y118383000D03*
G04 #@! TO.P,P1,86,86*
G04 #@! TO.N,PIN86*
X60202000Y118383000D03*
G04 #@! TO.P,P1,87,87*
G04 #@! TO.N,PIN87*
X57662000Y118383000D03*
G04 #@! TO.P,P1,88,88*
G04 #@! TO.N,PIN88*
X55122000Y118383000D03*
G04 #@! TO.P,P1,89,89*
G04 #@! TO.N,PIN89*
X52582000Y118383000D03*
G04 #@! TO.P,P1,90,90*
G04 #@! TO.N,PIN90*
X70362000Y115843000D03*
G04 #@! TO.P,P1,91,91*
G04 #@! TO.N,PIN91*
X67822000Y115843000D03*
G04 #@! TO.P,P1,92,92*
G04 #@! TO.N,PIN92*
X65282000Y115843000D03*
G04 #@! TO.P,P1,93,93*
G04 #@! TO.N,PIN93*
X62742000Y115843000D03*
G04 #@! TO.P,P1,94,94*
G04 #@! TO.N,PIN94*
X60202000Y115843000D03*
G04 #@! TO.P,P1,95,95*
G04 #@! TO.N,PIN95*
X57662000Y115843000D03*
G04 #@! TO.P,P1,96,96*
G04 #@! TO.N,PIN96*
X55122000Y115843000D03*
G04 #@! TO.P,P1,97,97*
G04 #@! TO.N,PIN97*
X52582000Y115843000D03*
G04 #@! TO.P,P1,98,98*
G04 #@! TO.N,PIN113*
X70362000Y109793000D03*
G04 #@! TO.P,P1,99,99*
X67822000Y109793000D03*
G04 #@! TO.P,P1,100,100*
G04 #@! TO.N,PIN100*
X65282000Y109793000D03*
G04 #@! TO.P,P1,101,101*
G04 #@! TO.N,PIN101*
X62742000Y109793000D03*
G04 #@! TO.P,P1,102,102*
G04 #@! TO.N,PIN102*
X60202000Y109793000D03*
G04 #@! TO.P,P1,103,103*
G04 #@! TO.N,PIN103*
X57662000Y109793000D03*
G04 #@! TO.P,P1,104,104*
G04 #@! TO.N,PIN104*
X55122000Y109793000D03*
G04 #@! TO.P,P1,105,105*
G04 #@! TO.N,PIN105*
X52582000Y109793000D03*
G04 #@! TO.P,P1,106,106*
G04 #@! TO.N,PIN106*
X70362000Y107253000D03*
G04 #@! TO.P,P1,107,107*
X67822000Y107253000D03*
G04 #@! TO.P,P1,108,108*
G04 #@! TO.N,PIN108*
X65282000Y107253000D03*
G04 #@! TO.P,P1,109,109*
G04 #@! TO.N,PIN109*
X62742000Y107253000D03*
G04 #@! TO.P,P1,110,110*
G04 #@! TO.N,PIN110*
X60202000Y107253000D03*
G04 #@! TO.P,P1,111,111*
G04 #@! TO.N,PIN111*
X57662000Y107253000D03*
G04 #@! TO.P,P1,112,112*
G04 #@! TO.N,PIN112*
X55122000Y107253000D03*
G04 #@! TO.P,P1,113,113*
G04 #@! TO.N,PIN113*
X52582000Y107253000D03*
D12*
G04 #@! TO.P,P1,114,114*
G04 #@! TO.N,PIN114*
X44752000Y115383000D03*
G04 #@! TO.P,P1,115,115*
X38952000Y115383000D03*
G04 #@! TO.P,P1,116,116*
G04 #@! TO.N,PIN116*
X33052000Y115383000D03*
G04 #@! TO.P,P1,117,117*
G04 #@! TO.N,PIN117*
X41852000Y113053000D03*
G04 #@! TO.P,P1,118,118*
G04 #@! TO.N,PIN118*
X35952000Y113053000D03*
G04 #@! TO.P,P1,119,119*
G04 #@! TO.N,PIN119*
X44752000Y107253000D03*
G04 #@! TO.P,P1,120,120*
G04 #@! TO.N,PIN120*
X38952000Y107253000D03*
G04 #@! TO.P,P1,121,121*
G04 #@! TO.N,PIN121*
X33052000Y107253000D03*
G04 #@! TD*
G04 #@! TO.P,R43,1*
G04 #@! TO.N,/INJ3*
G04 #@! TA.AperFunction,SMDPad,CuDef*
G36*
G01*
X23920000Y47610000D02*
X23920000Y48390000D01*
G75*
G02*
X23990000Y48460000I70000J0D01*
G01*
X24550000Y48460000D01*
G75*
G02*
X24620000Y48390000I0J-70000D01*
G01*
X24620000Y47610000D01*
G75*
G02*
X24550000Y47540000I-70000J0D01*
G01*
X23990000Y47540000D01*
G75*
G02*
X23920000Y47610000I0J70000D01*
G01*
G37*
G04 #@! TD.AperFunction*
G04 #@! TO.P,R43,2*
G04 #@! TO.N,PIN114*
G04 #@! TA.AperFunction,SMDPad,CuDef*
G36*
G01*
X25520000Y47610000D02*
X25520000Y48390000D01*
G75*
G02*
X25590000Y48460000I70000J0D01*
G01*
X26150000Y48460000D01*
G75*
G02*
X26220000Y48390000I0J-70000D01*
G01*
X26220000Y47610000D01*
G75*
G02*
X26150000Y47540000I-70000J0D01*
G01*
X25590000Y47540000D01*
G75*
G02*
X25520000Y47610000I0J70000D01*
G01*
G37*
G04 #@! TD.AperFunction*
G04 #@! TD*
G04 #@! TO.P,L2,1,1*
G04 #@! TO.N,PIN22*
G04 #@! TA.AperFunction,SMDPad,CuDef*
G36*
G01*
X99280000Y41258750D02*
X99280000Y41771250D01*
G75*
G02*
X99498750Y41990000I218750J0D01*
G01*
X99936250Y41990000D01*
G75*
G02*
X100155000Y41771250I0J-218750D01*
G01*
X100155000Y41258750D01*
G75*
G02*
X99936250Y41040000I-218750J0D01*
G01*
X99498750Y41040000D01*
G75*
G02*
X99280000Y41258750I0J218750D01*
G01*
G37*
G04 #@! TD.AperFunction*
G04 #@! TO.P,L2,2,2*
G04 #@! TO.N,Net-(U8-T-)*
G04 #@! TA.AperFunction,SMDPad,CuDef*
G36*
G01*
X100855000Y41258750D02*
X100855000Y41771250D01*
G75*
G02*
X101073750Y41990000I218750J0D01*
G01*
X101511250Y41990000D01*
G75*
G02*
X101730000Y41771250I0J-218750D01*
G01*
X101730000Y41258750D01*
G75*
G02*
X101511250Y41040000I-218750J0D01*
G01*
X101073750Y41040000D01*
G75*
G02*
X100855000Y41258750I0J218750D01*
G01*
G37*
G04 #@! TD.AperFunction*
G04 #@! TD*
D14*
G04 #@! TO.P,M7,E1,GND*
G04 #@! TO.N,PIN114*
X115550000Y35700826D03*
D15*
X121025001Y38438326D03*
D16*
X121725002Y31838329D03*
D17*
X126349996Y31838329D03*
D18*
X126525000Y35100827D03*
D19*
G04 #@! TO.P,M7,S1,CANL*
G04 #@! TO.N,unconnected-(M7-CANL-PadS1)*
X116000002Y31888327D03*
G04 #@! TO.P,M7,S2,CANH*
G04 #@! TO.N,unconnected-(M7-CANH-PadS2)*
X116500003Y31888327D03*
D20*
G04 #@! TO.P,M7,V1,V5*
G04 #@! TO.N,+5VA*
X123050000Y32938325D03*
G04 #@! TO.P,M7,V2,CAN_VIO*
G04 #@! TO.N,+3.3VA*
X122174998Y33463325D03*
G04 #@! TO.P,M7,V5,CAN_TX*
G04 #@! TO.N,E7INJ8CANTX*
X123350002Y34213323D03*
G04 #@! TO.P,M7,V6,CAN_RX*
G04 #@! TO.N,E6INJ7CANRX*
X123274999Y37763324D03*
G04 #@! TD*
G04 #@! TO.P,R45,1*
G04 #@! TO.N,/INJ4*
G04 #@! TA.AperFunction,SMDPad,CuDef*
G36*
G01*
X23920000Y43711908D02*
X23920000Y44491908D01*
G75*
G02*
X23990000Y44561908I70000J0D01*
G01*
X24550000Y44561908D01*
G75*
G02*
X24620000Y44491908I0J-70000D01*
G01*
X24620000Y43711908D01*
G75*
G02*
X24550000Y43641908I-70000J0D01*
G01*
X23990000Y43641908D01*
G75*
G02*
X23920000Y43711908I0J70000D01*
G01*
G37*
G04 #@! TD.AperFunction*
G04 #@! TO.P,R45,2*
G04 #@! TO.N,Net-(U4-IN2)*
G04 #@! TA.AperFunction,SMDPad,CuDef*
G36*
G01*
X25520000Y43711908D02*
X25520000Y44491908D01*
G75*
G02*
X25590000Y44561908I70000J0D01*
G01*
X26150000Y44561908D01*
G75*
G02*
X26220000Y44491908I0J-70000D01*
G01*
X26220000Y43711908D01*
G75*
G02*
X26150000Y43641908I-70000J0D01*
G01*
X25590000Y43641908D01*
G75*
G02*
X25520000Y43711908I0J70000D01*
G01*
G37*
G04 #@! TD.AperFunction*
G04 #@! TD*
G04 #@! TO.P,F5,1*
G04 #@! TO.N,Net-(F5-Pad1)*
G04 #@! TA.AperFunction,SMDPad,CuDef*
G36*
G01*
X78140000Y46818750D02*
X78140000Y47331250D01*
G75*
G02*
X78358750Y47550000I218750J0D01*
G01*
X78796250Y47550000D01*
G75*
G02*
X79015000Y47331250I0J-218750D01*
G01*
X79015000Y46818750D01*
G75*
G02*
X78796250Y46600000I-218750J0D01*
G01*
X78358750Y46600000D01*
G75*
G02*
X78140000Y46818750I0J218750D01*
G01*
G37*
G04 #@! TD.AperFunction*
G04 #@! TO.P,F5,2*
G04 #@! TO.N,/IGN2*
G04 #@! TA.AperFunction,SMDPad,CuDef*
G36*
G01*
X79715000Y46818750D02*
X79715000Y47331250D01*
G75*
G02*
X79933750Y47550000I218750J0D01*
G01*
X80371250Y47550000D01*
G75*
G02*
X80590000Y47331250I0J-218750D01*
G01*
X80590000Y46818750D01*
G75*
G02*
X80371250Y46600000I-218750J0D01*
G01*
X79933750Y46600000D01*
G75*
G02*
X79715000Y46818750I0J218750D01*
G01*
G37*
G04 #@! TD.AperFunction*
G04 #@! TD*
G04 #@! TO.P,R17,1*
G04 #@! TO.N,/LS2*
G04 #@! TA.AperFunction,SMDPad,CuDef*
G36*
G01*
X43250000Y67890000D02*
X43250000Y68670000D01*
G75*
G02*
X43320000Y68740000I70000J0D01*
G01*
X43880000Y68740000D01*
G75*
G02*
X43950000Y68670000I0J-70000D01*
G01*
X43950000Y67890000D01*
G75*
G02*
X43880000Y67820000I-70000J0D01*
G01*
X43320000Y67820000D01*
G75*
G02*
X43250000Y67890000I0J70000D01*
G01*
G37*
G04 #@! TD.AperFunction*
G04 #@! TO.P,R17,2*
G04 #@! TO.N,PIN114*
G04 #@! TA.AperFunction,SMDPad,CuDef*
G36*
G01*
X44850000Y67890000D02*
X44850000Y68670000D01*
G75*
G02*
X44920000Y68740000I70000J0D01*
G01*
X45480000Y68740000D01*
G75*
G02*
X45550000Y68670000I0J-70000D01*
G01*
X45550000Y67890000D01*
G75*
G02*
X45480000Y67820000I-70000J0D01*
G01*
X44920000Y67820000D01*
G75*
G02*
X44850000Y67890000I0J70000D01*
G01*
G37*
G04 #@! TD.AperFunction*
G04 #@! TD*
G04 #@! TO.P,R15,1*
G04 #@! TO.N,Net-(M6-LED_GREEN)*
G04 #@! TA.AperFunction,SMDPad,CuDef*
G36*
G01*
X24520000Y63991908D02*
X24520000Y64771908D01*
G75*
G02*
X24590000Y64841908I70000J0D01*
G01*
X25150000Y64841908D01*
G75*
G02*
X25220000Y64771908I0J-70000D01*
G01*
X25220000Y63991908D01*
G75*
G02*
X25150000Y63921908I-70000J0D01*
G01*
X24590000Y63921908D01*
G75*
G02*
X24520000Y63991908I0J70000D01*
G01*
G37*
G04 #@! TD.AperFunction*
G04 #@! TO.P,R15,2*
G04 #@! TO.N,PIN114*
G04 #@! TA.AperFunction,SMDPad,CuDef*
G36*
G01*
X26120000Y63991908D02*
X26120000Y64771908D01*
G75*
G02*
X26190000Y64841908I70000J0D01*
G01*
X26750000Y64841908D01*
G75*
G02*
X26820000Y64771908I0J-70000D01*
G01*
X26820000Y63991908D01*
G75*
G02*
X26750000Y63921908I-70000J0D01*
G01*
X26190000Y63921908D01*
G75*
G02*
X26120000Y63991908I0J70000D01*
G01*
G37*
G04 #@! TD.AperFunction*
G04 #@! TD*
D21*
G04 #@! TO.P,F2,1,1*
G04 #@! TO.N,PIN120*
X34290000Y70423733D03*
G04 #@! TA.AperFunction,SMDPad,CuDef*
G36*
G01*
X35634990Y69523733D02*
X34944990Y69523733D01*
G75*
G02*
X34714990Y69753733I0J230000D01*
G01*
X34714990Y71093733D01*
G75*
G02*
X34944990Y71323733I230000J0D01*
G01*
X35634990Y71323733D01*
G75*
G02*
X35864990Y71093733I0J-230000D01*
G01*
X35864990Y69753733D01*
G75*
G02*
X35634990Y69523733I-230000J0D01*
G01*
G37*
G04 #@! TD.AperFunction*
G04 #@! TO.P,F2,2,2*
G04 #@! TO.N,PIN117*
G04 #@! TA.AperFunction,SMDPad,CuDef*
G36*
G01*
X38535010Y69523733D02*
X37845010Y69523733D01*
G75*
G02*
X37615010Y69753733I0J230000D01*
G01*
X37615010Y71093733D01*
G75*
G02*
X37845010Y71323733I230000J0D01*
G01*
X38535010Y71323733D01*
G75*
G02*
X38765010Y71093733I0J-230000D01*
G01*
X38765010Y69753733D01*
G75*
G02*
X38535010Y69523733I-230000J0D01*
G01*
G37*
G04 #@! TD.AperFunction*
X39190000Y70423733D03*
G04 #@! TD*
G04 #@! TO.P,Q4,1,G*
G04 #@! TO.N,Net-(Q4-G)*
G04 #@! TA.AperFunction,SMDPad,CuDef*
G36*
G01*
X65985000Y53355000D02*
X65985000Y54055000D01*
G75*
G02*
X66235000Y54305000I250000J0D01*
G01*
X67935000Y54305000D01*
G75*
G02*
X68185000Y54055000I0J-250000D01*
G01*
X68185000Y53355000D01*
G75*
G02*
X67935000Y53105000I-250000J0D01*
G01*
X66235000Y53105000D01*
G75*
G02*
X65985000Y53355000I0J250000D01*
G01*
G37*
G04 #@! TD.AperFunction*
G04 #@! TO.P,Q4,2,C*
G04 #@! TO.N,PIN9*
G04 #@! TA.AperFunction,SMDPad,CuDef*
G36*
G01*
X70185000Y51825000D02*
X70185000Y54075000D01*
G75*
G02*
X70435000Y54325000I250000J0D01*
G01*
X72985000Y54325000D01*
G75*
G02*
X73235000Y54075000I0J-250000D01*
G01*
X73235000Y51825000D01*
G75*
G02*
X72985000Y51575000I-250000J0D01*
G01*
X70435000Y51575000D01*
G75*
G02*
X70185000Y51825000I0J250000D01*
G01*
G37*
G04 #@! TD.AperFunction*
G04 #@! TA.AperFunction,SMDPad,CuDef*
G36*
G01*
X70185000Y48775000D02*
X70185000Y51025000D01*
G75*
G02*
X70435000Y51275000I250000J0D01*
G01*
X72985000Y51275000D01*
G75*
G02*
X73235000Y51025000I0J-250000D01*
G01*
X73235000Y48775000D01*
G75*
G02*
X72985000Y48525000I-250000J0D01*
G01*
X70435000Y48525000D01*
G75*
G02*
X70185000Y48775000I0J250000D01*
G01*
G37*
G04 #@! TD.AperFunction*
G04 #@! TA.AperFunction,SMDPad,CuDef*
G36*
G01*
X70185000Y48774997D02*
X70185000Y54075003D01*
G75*
G02*
X70434997Y54325000I249997J0D01*
G01*
X76335003Y54325000D01*
G75*
G02*
X76585000Y54075003I0J-249997D01*
G01*
X76585000Y48774997D01*
G75*
G02*
X76335003Y48525000I-249997J0D01*
G01*
X70434997Y48525000D01*
G75*
G02*
X70185000Y48774997I0J249997D01*
G01*
G37*
G04 #@! TD.AperFunction*
G04 #@! TA.AperFunction,SMDPad,CuDef*
G36*
G01*
X73535000Y51825000D02*
X73535000Y54075000D01*
G75*
G02*
X73785000Y54325000I250000J0D01*
G01*
X76335000Y54325000D01*
G75*
G02*
X76585000Y54075000I0J-250000D01*
G01*
X76585000Y51825000D01*
G75*
G02*
X76335000Y51575000I-250000J0D01*
G01*
X73785000Y51575000D01*
G75*
G02*
X73535000Y51825000I0J250000D01*
G01*
G37*
G04 #@! TD.AperFunction*
G04 #@! TA.AperFunction,SMDPad,CuDef*
G36*
G01*
X73535000Y48775000D02*
X73535000Y51025000D01*
G75*
G02*
X73785000Y51275000I250000J0D01*
G01*
X76335000Y51275000D01*
G75*
G02*
X76585000Y51025000I0J-250000D01*
G01*
X76585000Y48775000D01*
G75*
G02*
X76335000Y48525000I-250000J0D01*
G01*
X73785000Y48525000D01*
G75*
G02*
X73535000Y48775000I0J250000D01*
G01*
G37*
G04 #@! TD.AperFunction*
G04 #@! TO.P,Q4,3,E*
G04 #@! TO.N,PIN114*
G04 #@! TA.AperFunction,SMDPad,CuDef*
G36*
G01*
X65985000Y48795000D02*
X65985000Y49495000D01*
G75*
G02*
X66235000Y49745000I250000J0D01*
G01*
X67935000Y49745000D01*
G75*
G02*
X68185000Y49495000I0J-250000D01*
G01*
X68185000Y48795000D01*
G75*
G02*
X67935000Y48545000I-250000J0D01*
G01*
X66235000Y48545000D01*
G75*
G02*
X65985000Y48795000I0J250000D01*
G01*
G37*
G04 #@! TD.AperFunction*
G04 #@! TD*
G04 #@! TO.P,R40,1*
G04 #@! TO.N,/INJ2*
G04 #@! TA.AperFunction,SMDPad,CuDef*
G36*
G01*
X23920000Y53457138D02*
X23920000Y54237138D01*
G75*
G02*
X23990000Y54307138I70000J0D01*
G01*
X24550000Y54307138D01*
G75*
G02*
X24620000Y54237138I0J-70000D01*
G01*
X24620000Y53457138D01*
G75*
G02*
X24550000Y53387138I-70000J0D01*
G01*
X23990000Y53387138D01*
G75*
G02*
X23920000Y53457138I0J70000D01*
G01*
G37*
G04 #@! TD.AperFunction*
G04 #@! TO.P,R40,2*
G04 #@! TO.N,PIN114*
G04 #@! TA.AperFunction,SMDPad,CuDef*
G36*
G01*
X25520000Y53457138D02*
X25520000Y54237138D01*
G75*
G02*
X25590000Y54307138I70000J0D01*
G01*
X26150000Y54307138D01*
G75*
G02*
X26220000Y54237138I0J-70000D01*
G01*
X26220000Y53457138D01*
G75*
G02*
X26150000Y53387138I-70000J0D01*
G01*
X25590000Y53387138D01*
G75*
G02*
X25520000Y53457138I0J70000D01*
G01*
G37*
G04 #@! TD.AperFunction*
G04 #@! TD*
G04 #@! TO.P,R11,1*
G04 #@! TO.N,PIN113*
G04 #@! TA.AperFunction,SMDPad,CuDef*
G36*
G01*
X20620000Y63217020D02*
X20620000Y64467020D01*
G75*
G02*
X20720000Y64567020I100000J0D01*
G01*
X21520000Y64567020D01*
G75*
G02*
X21620000Y64467020I0J-100000D01*
G01*
X21620000Y63217020D01*
G75*
G02*
X21520000Y63117020I-100000J0D01*
G01*
X20720000Y63117020D01*
G75*
G02*
X20620000Y63217020I0J100000D01*
G01*
G37*
G04 #@! TD.AperFunction*
G04 #@! TO.P,R11,2*
G04 #@! TO.N,PIN85*
G04 #@! TA.AperFunction,SMDPad,CuDef*
G36*
G01*
X22520022Y63217020D02*
X22520022Y64467020D01*
G75*
G02*
X22620022Y64567020I100000J0D01*
G01*
X23420022Y64567020D01*
G75*
G02*
X23520022Y64467020I0J-100000D01*
G01*
X23520022Y63217020D01*
G75*
G02*
X23420022Y63117020I-100000J0D01*
G01*
X22620022Y63117020D01*
G75*
G02*
X22520022Y63217020I0J100000D01*
G01*
G37*
G04 #@! TD.AperFunction*
G04 #@! TD*
G04 #@! TO.P,L1,1,1*
G04 #@! TO.N,PIN21*
G04 #@! TA.AperFunction,SMDPad,CuDef*
G36*
G01*
X99280000Y43768750D02*
X99280000Y44281250D01*
G75*
G02*
X99498750Y44500000I218750J0D01*
G01*
X99936250Y44500000D01*
G75*
G02*
X100155000Y44281250I0J-218750D01*
G01*
X100155000Y43768750D01*
G75*
G02*
X99936250Y43550000I-218750J0D01*
G01*
X99498750Y43550000D01*
G75*
G02*
X99280000Y43768750I0J218750D01*
G01*
G37*
G04 #@! TD.AperFunction*
G04 #@! TO.P,L1,2,2*
G04 #@! TO.N,Net-(U8-T+)*
G04 #@! TA.AperFunction,SMDPad,CuDef*
G36*
G01*
X100855000Y43768750D02*
X100855000Y44281250D01*
G75*
G02*
X101073750Y44500000I218750J0D01*
G01*
X101511250Y44500000D01*
G75*
G02*
X101730000Y44281250I0J-218750D01*
G01*
X101730000Y43768750D01*
G75*
G02*
X101511250Y43550000I-218750J0D01*
G01*
X101073750Y43550000D01*
G75*
G02*
X100855000Y43768750I0J218750D01*
G01*
G37*
G04 #@! TD.AperFunction*
G04 #@! TD*
G04 #@! TO.P,F1,1,1*
G04 #@! TO.N,PIN108*
X34290000Y73543733D03*
G04 #@! TA.AperFunction,SMDPad,CuDef*
G36*
G01*
X35634990Y72643733D02*
X34944990Y72643733D01*
G75*
G02*
X34714990Y72873733I0J230000D01*
G01*
X34714990Y74213733D01*
G75*
G02*
X34944990Y74443733I230000J0D01*
G01*
X35634990Y74443733D01*
G75*
G02*
X35864990Y74213733I0J-230000D01*
G01*
X35864990Y72873733D01*
G75*
G02*
X35634990Y72643733I-230000J0D01*
G01*
G37*
G04 #@! TD.AperFunction*
G04 #@! TO.P,F1,2,2*
G04 #@! TO.N,/IN_VIGN*
G04 #@! TA.AperFunction,SMDPad,CuDef*
G36*
G01*
X38535010Y72643733D02*
X37845010Y72643733D01*
G75*
G02*
X37615010Y72873733I0J230000D01*
G01*
X37615010Y74213733D01*
G75*
G02*
X37845010Y74443733I230000J0D01*
G01*
X38535010Y74443733D01*
G75*
G02*
X38765010Y74213733I0J-230000D01*
G01*
X38765010Y72873733D01*
G75*
G02*
X38535010Y72643733I-230000J0D01*
G01*
G37*
G04 #@! TD.AperFunction*
X39190000Y73543733D03*
G04 #@! TD*
G04 #@! TO.P,R42,1*
G04 #@! TO.N,/INJ3*
G04 #@! TA.AperFunction,SMDPad,CuDef*
G36*
G01*
X23920000Y49559046D02*
X23920000Y50339046D01*
G75*
G02*
X23990000Y50409046I70000J0D01*
G01*
X24550000Y50409046D01*
G75*
G02*
X24620000Y50339046I0J-70000D01*
G01*
X24620000Y49559046D01*
G75*
G02*
X24550000Y49489046I-70000J0D01*
G01*
X23990000Y49489046D01*
G75*
G02*
X23920000Y49559046I0J70000D01*
G01*
G37*
G04 #@! TD.AperFunction*
G04 #@! TO.P,R42,2*
G04 #@! TO.N,Net-(U4-IN1)*
G04 #@! TA.AperFunction,SMDPad,CuDef*
G36*
G01*
X25520000Y49559046D02*
X25520000Y50339046D01*
G75*
G02*
X25590000Y50409046I70000J0D01*
G01*
X26150000Y50409046D01*
G75*
G02*
X26220000Y50339046I0J-70000D01*
G01*
X26220000Y49559046D01*
G75*
G02*
X26150000Y49489046I-70000J0D01*
G01*
X25590000Y49489046D01*
G75*
G02*
X25520000Y49559046I0J70000D01*
G01*
G37*
G04 #@! TD.AperFunction*
G04 #@! TD*
G04 #@! TO.P,Q1,1,G*
G04 #@! TO.N,Net-(Q1-G)*
G04 #@! TA.AperFunction,SMDPad,CuDef*
G36*
G01*
X65985000Y77940000D02*
X65985000Y78640000D01*
G75*
G02*
X66235000Y78890000I250000J0D01*
G01*
X67935000Y78890000D01*
G75*
G02*
X68185000Y78640000I0J-250000D01*
G01*
X68185000Y77940000D01*
G75*
G02*
X67935000Y77690000I-250000J0D01*
G01*
X66235000Y77690000D01*
G75*
G02*
X65985000Y77940000I0J250000D01*
G01*
G37*
G04 #@! TD.AperFunction*
G04 #@! TO.P,Q1,2,C*
G04 #@! TO.N,PIN13*
G04 #@! TA.AperFunction,SMDPad,CuDef*
G36*
G01*
X70185000Y76410000D02*
X70185000Y78660000D01*
G75*
G02*
X70435000Y78910000I250000J0D01*
G01*
X72985000Y78910000D01*
G75*
G02*
X73235000Y78660000I0J-250000D01*
G01*
X73235000Y76410000D01*
G75*
G02*
X72985000Y76160000I-250000J0D01*
G01*
X70435000Y76160000D01*
G75*
G02*
X70185000Y76410000I0J250000D01*
G01*
G37*
G04 #@! TD.AperFunction*
G04 #@! TA.AperFunction,SMDPad,CuDef*
G36*
G01*
X70185000Y73360000D02*
X70185000Y75610000D01*
G75*
G02*
X70435000Y75860000I250000J0D01*
G01*
X72985000Y75860000D01*
G75*
G02*
X73235000Y75610000I0J-250000D01*
G01*
X73235000Y73360000D01*
G75*
G02*
X72985000Y73110000I-250000J0D01*
G01*
X70435000Y73110000D01*
G75*
G02*
X70185000Y73360000I0J250000D01*
G01*
G37*
G04 #@! TD.AperFunction*
G04 #@! TA.AperFunction,SMDPad,CuDef*
G36*
G01*
X70185000Y73359997D02*
X70185000Y78660003D01*
G75*
G02*
X70434997Y78910000I249997J0D01*
G01*
X76335003Y78910000D01*
G75*
G02*
X76585000Y78660003I0J-249997D01*
G01*
X76585000Y73359997D01*
G75*
G02*
X76335003Y73110000I-249997J0D01*
G01*
X70434997Y73110000D01*
G75*
G02*
X70185000Y73359997I0J249997D01*
G01*
G37*
G04 #@! TD.AperFunction*
G04 #@! TA.AperFunction,SMDPad,CuDef*
G36*
G01*
X73535000Y76410000D02*
X73535000Y78660000D01*
G75*
G02*
X73785000Y78910000I250000J0D01*
G01*
X76335000Y78910000D01*
G75*
G02*
X76585000Y78660000I0J-250000D01*
G01*
X76585000Y76410000D01*
G75*
G02*
X76335000Y76160000I-250000J0D01*
G01*
X73785000Y76160000D01*
G75*
G02*
X73535000Y76410000I0J250000D01*
G01*
G37*
G04 #@! TD.AperFunction*
G04 #@! TA.AperFunction,SMDPad,CuDef*
G36*
G01*
X73535000Y73360000D02*
X73535000Y75610000D01*
G75*
G02*
X73785000Y75860000I250000J0D01*
G01*
X76335000Y75860000D01*
G75*
G02*
X76585000Y75610000I0J-250000D01*
G01*
X76585000Y73360000D01*
G75*
G02*
X76335000Y73110000I-250000J0D01*
G01*
X73785000Y73110000D01*
G75*
G02*
X73535000Y73360000I0J250000D01*
G01*
G37*
G04 #@! TD.AperFunction*
G04 #@! TO.P,Q1,3,E*
G04 #@! TO.N,PIN114*
G04 #@! TA.AperFunction,SMDPad,CuDef*
G36*
G01*
X65985000Y73380000D02*
X65985000Y74080000D01*
G75*
G02*
X66235000Y74330000I250000J0D01*
G01*
X67935000Y74330000D01*
G75*
G02*
X68185000Y74080000I0J-250000D01*
G01*
X68185000Y73380000D01*
G75*
G02*
X67935000Y73130000I-250000J0D01*
G01*
X66235000Y73130000D01*
G75*
G02*
X65985000Y73380000I0J250000D01*
G01*
G37*
G04 #@! TD.AperFunction*
G04 #@! TD*
D22*
G04 #@! TO.P,M5,E1,LSU_Un*
G04 #@! TO.N,PIN105*
X142500003Y41550000D03*
G04 #@! TO.P,M5,E2,LSU_Vm*
G04 #@! TO.N,PIN104*
X142500003Y44550000D03*
G04 #@! TO.P,M5,E3,LSU_Ip*
G04 #@! TO.N,PIN103*
X142500003Y43550000D03*
G04 #@! TO.P,M5,E4,LSU_Rtrim*
G04 #@! TO.N,PIN102*
X142500003Y42550000D03*
D23*
G04 #@! TO.P,M5,E5,LSU_H+*
G04 #@! TO.N,PIN119*
X141250003Y46700000D03*
D24*
G04 #@! TO.P,M5,E6,LSU_H-*
G04 #@! TO.N,PIN114*
X142875003Y50200000D03*
D25*
G04 #@! TO.P,M5,G,GND*
X115525003Y53400000D03*
D26*
X115525003Y49060000D03*
X115525003Y45760000D03*
D27*
X115525003Y40675000D03*
D28*
X129200003Y53825000D03*
X129200003Y40075000D03*
D29*
X142875003Y52975000D03*
D30*
X142875003Y40425000D03*
G04 #@! TO.P,M5,J1,SEL1*
G04 #@! TO.N,Net-(M5-PULL_DOWN1)*
G04 #@! TA.AperFunction,SMDPad,CuDef*
G36*
G01*
X124950003Y52800000D02*
X124950003Y51550000D01*
G75*
G02*
X124825003Y51425000I-125000J0D01*
G01*
X124575003Y51425000D01*
G75*
G02*
X124450003Y51550000I0J125000D01*
G01*
X124450003Y52800000D01*
G75*
G02*
X124575003Y52925000I125000J0D01*
G01*
X124825003Y52925000D01*
G75*
G02*
X124950003Y52800000I0J-125000D01*
G01*
G37*
G04 #@! TD.AperFunction*
G04 #@! TO.P,M5,J2,SEL2*
G04 #@! TO.N,unconnected-(M5-SEL2-PadJ2)*
G04 #@! TA.AperFunction,SMDPad,CuDef*
G36*
G01*
X123275003Y50125000D02*
X123275003Y49875000D01*
G75*
G02*
X123150003Y49750000I-125000J0D01*
G01*
X121900003Y49750000D01*
G75*
G02*
X121775003Y49875000I0J125000D01*
G01*
X121775003Y50125000D01*
G75*
G02*
X121900003Y50250000I125000J0D01*
G01*
X123150003Y50250000D01*
G75*
G02*
X123275003Y50125000I0J-125000D01*
G01*
G37*
G04 #@! TD.AperFunction*
G04 #@! TO.P,M5,J_GND1,PULL_DOWN1*
G04 #@! TO.N,Net-(M5-PULL_DOWN1)*
G04 #@! TA.AperFunction,SMDPad,CuDef*
G36*
G01*
X124150003Y52800000D02*
X124150003Y51550000D01*
G75*
G02*
X124025003Y51425000I-125000J0D01*
G01*
X123775003Y51425000D01*
G75*
G02*
X123650003Y51550000I0J125000D01*
G01*
X123650003Y52800000D01*
G75*
G02*
X123775003Y52925000I125000J0D01*
G01*
X124025003Y52925000D01*
G75*
G02*
X124150003Y52800000I0J-125000D01*
G01*
G37*
G04 #@! TD.AperFunction*
G04 #@! TO.P,M5,J_GND2,PULL_DOWN2*
G04 #@! TO.N,unconnected-(M5-PULL_DOWN2-PadJ_GND2)*
G04 #@! TA.AperFunction,SMDPad,CuDef*
G36*
G01*
X123825003Y50250000D02*
X124075003Y50250000D01*
G75*
G02*
X124200003Y50125000I0J-125000D01*
G01*
X124200003Y49875000D01*
G75*
G02*
X124075003Y49750000I-125000J0D01*
G01*
X123825003Y49750000D01*
G75*
G02*
X123700003Y49875000I0J125000D01*
G01*
X123700003Y50125000D01*
G75*
G02*
X123825003Y50250000I125000J0D01*
G01*
G37*
G04 #@! TD.AperFunction*
G04 #@! TO.P,M5,J_VCC1,PULL_UP1*
G04 #@! TO.N,unconnected-(M5-PULL_UP1-PadJ_VCC1)*
G04 #@! TA.AperFunction,SMDPad,CuDef*
G36*
G01*
X124950003Y50925000D02*
X124950003Y50675000D01*
G75*
G02*
X124825003Y50550000I-125000J0D01*
G01*
X124575003Y50550000D01*
G75*
G02*
X124450003Y50675000I0J125000D01*
G01*
X124450003Y50925000D01*
G75*
G02*
X124575003Y51050000I125000J0D01*
G01*
X124825003Y51050000D01*
G75*
G02*
X124950003Y50925000I0J-125000D01*
G01*
G37*
G04 #@! TD.AperFunction*
G04 #@! TO.P,M5,J_VCC2,PULL_UP2*
G04 #@! TO.N,unconnected-(M5-PULL_UP2-PadJ_VCC2)*
G04 #@! TA.AperFunction,SMDPad,CuDef*
G36*
G01*
X123275003Y50925000D02*
X123275003Y50675000D01*
G75*
G02*
X123150003Y50550000I-125000J0D01*
G01*
X121900003Y50550000D01*
G75*
G02*
X121775003Y50675000I0J125000D01*
G01*
X121775003Y50925000D01*
G75*
G02*
X121900003Y51050000I125000J0D01*
G01*
X123150003Y51050000D01*
G75*
G02*
X123275003Y50925000I0J-125000D01*
G01*
G37*
G04 #@! TD.AperFunction*
D22*
G04 #@! TO.P,M5,W1,V5_IN*
G04 #@! TO.N,+5VA*
X115908803Y51200000D03*
G04 #@! TO.P,M5,W2,CAN_VIO*
G04 #@! TO.N,unconnected-(M5-CAN_VIO-PadW2)*
X115908803Y50200000D03*
G04 #@! TO.P,M5,W3,CANL*
G04 #@! TO.N,PIN83*
X115908803Y46904000D03*
G04 #@! TO.P,M5,W4,CANH*
G04 #@! TO.N,PIN82*
X115908803Y47920000D03*
G04 #@! TO.P,M5,W5,nReset*
G04 #@! TO.N,unconnected-(M5-nReset-PadW5)*
G04 #@! TA.AperFunction,SMDPad,CuDef*
G36*
G01*
X115400003Y44900000D02*
X115400003Y44900000D01*
G75*
G02*
X115525003Y45025000I125000J0D01*
G01*
X115775003Y45025000D01*
G75*
G02*
X115900003Y44900000I0J-125000D01*
G01*
X115900003Y44900000D01*
G75*
G02*
X115775003Y44775000I-125000J0D01*
G01*
X115525003Y44775000D01*
G75*
G02*
X115400003Y44900000I0J125000D01*
G01*
G37*
G04 #@! TD.AperFunction*
G04 #@! TO.P,M5,W6,SWDIO*
G04 #@! TO.N,unconnected-(M5-SWDIO-PadW6)*
G04 #@! TA.AperFunction,SMDPad,CuDef*
G36*
G01*
X115400003Y44400000D02*
X115400003Y44400000D01*
G75*
G02*
X115525003Y44525000I125000J0D01*
G01*
X115775003Y44525000D01*
G75*
G02*
X115900003Y44400000I0J-125000D01*
G01*
X115900003Y44400000D01*
G75*
G02*
X115775003Y44275000I-125000J0D01*
G01*
X115525003Y44275000D01*
G75*
G02*
X115400003Y44400000I0J125000D01*
G01*
G37*
G04 #@! TD.AperFunction*
G04 #@! TO.P,M5,W7,SWCLK*
G04 #@! TO.N,unconnected-(M5-SWCLK-PadW7)*
G04 #@! TA.AperFunction,SMDPad,CuDef*
G36*
G01*
X115400003Y43900000D02*
X115400003Y43900000D01*
G75*
G02*
X115525003Y44025000I125000J0D01*
G01*
X115775003Y44025000D01*
G75*
G02*
X115900003Y43900000I0J-125000D01*
G01*
X115900003Y43900000D01*
G75*
G02*
X115775003Y43775000I-125000J0D01*
G01*
X115525003Y43775000D01*
G75*
G02*
X115400003Y43900000I0J125000D01*
G01*
G37*
G04 #@! TD.AperFunction*
G04 #@! TO.P,M5,W8,V33_OUT*
G04 #@! TO.N,unconnected-(M5-V33_OUT-PadW8)*
G04 #@! TA.AperFunction,SMDPad,CuDef*
G36*
G01*
X115400003Y41800000D02*
X115400003Y41800000D01*
G75*
G02*
X115525003Y41925000I125000J0D01*
G01*
X115775003Y41925000D01*
G75*
G02*
X115900003Y41800000I0J-125000D01*
G01*
X115900003Y41800000D01*
G75*
G02*
X115775003Y41675000I-125000J0D01*
G01*
X115525003Y41675000D01*
G75*
G02*
X115400003Y41800000I0J125000D01*
G01*
G37*
G04 #@! TD.AperFunction*
G04 #@! TO.P,M5,W9,VDDA*
G04 #@! TO.N,unconnected-(M5-VDDA-PadW9)*
X115908803Y52200000D03*
G04 #@! TD*
G04 #@! TO.P,U2,1,IN1*
G04 #@! TO.N,Net-(U2-IN1)*
G04 #@! TA.AperFunction,SMDPad,CuDef*
G36*
G01*
X88825000Y43680000D02*
X88825000Y43980000D01*
G75*
G02*
X88975000Y44130000I150000J0D01*
G01*
X90625000Y44130000D01*
G75*
G02*
X90775000Y43980000I0J-150000D01*
G01*
X90775000Y43680000D01*
G75*
G02*
X90625000Y43530000I-150000J0D01*
G01*
X88975000Y43530000D01*
G75*
G02*
X88825000Y43680000I0J150000D01*
G01*
G37*
G04 #@! TD.AperFunction*
G04 #@! TO.P,U2,2,STATUS1*
G04 #@! TO.N,unconnected-(U2-STATUS1-Pad2)*
G04 #@! TA.AperFunction,SMDPad,CuDef*
G36*
G01*
X88825000Y42410000D02*
X88825000Y42710000D01*
G75*
G02*
X88975000Y42860000I150000J0D01*
G01*
X90625000Y42860000D01*
G75*
G02*
X90775000Y42710000I0J-150000D01*
G01*
X90775000Y42410000D01*
G75*
G02*
X90625000Y42260000I-150000J0D01*
G01*
X88975000Y42260000D01*
G75*
G02*
X88825000Y42410000I0J150000D01*
G01*
G37*
G04 #@! TD.AperFunction*
G04 #@! TO.P,U2,3,IN2*
G04 #@! TO.N,Net-(U2-IN2)*
G04 #@! TA.AperFunction,SMDPad,CuDef*
G36*
G01*
X88825000Y41140000D02*
X88825000Y41440000D01*
G75*
G02*
X88975000Y41590000I150000J0D01*
G01*
X90625000Y41590000D01*
G75*
G02*
X90775000Y41440000I0J-150000D01*
G01*
X90775000Y41140000D01*
G75*
G02*
X90625000Y40990000I-150000J0D01*
G01*
X88975000Y40990000D01*
G75*
G02*
X88825000Y41140000I0J150000D01*
G01*
G37*
G04 #@! TD.AperFunction*
G04 #@! TO.P,U2,4,STATUS2*
G04 #@! TO.N,unconnected-(U2-STATUS2-Pad4)*
G04 #@! TA.AperFunction,SMDPad,CuDef*
G36*
G01*
X88825000Y39870000D02*
X88825000Y40170000D01*
G75*
G02*
X88975000Y40320000I150000J0D01*
G01*
X90625000Y40320000D01*
G75*
G02*
X90775000Y40170000I0J-150000D01*
G01*
X90775000Y39870000D01*
G75*
G02*
X90625000Y39720000I-150000J0D01*
G01*
X88975000Y39720000D01*
G75*
G02*
X88825000Y39870000I0J150000D01*
G01*
G37*
G04 #@! TD.AperFunction*
G04 #@! TO.P,U2,5,S2*
G04 #@! TO.N,PIN114*
G04 #@! TA.AperFunction,SMDPad,CuDef*
G36*
G01*
X93775000Y39870000D02*
X93775000Y40170000D01*
G75*
G02*
X93925000Y40320000I150000J0D01*
G01*
X95575000Y40320000D01*
G75*
G02*
X95725000Y40170000I0J-150000D01*
G01*
X95725000Y39870000D01*
G75*
G02*
X95575000Y39720000I-150000J0D01*
G01*
X93925000Y39720000D01*
G75*
G02*
X93775000Y39870000I0J150000D01*
G01*
G37*
G04 #@! TD.AperFunction*
G04 #@! TO.P,U2,6,D2*
G04 #@! TO.N,PIN88*
G04 #@! TA.AperFunction,SMDPad,CuDef*
G36*
G01*
X93775000Y41140000D02*
X93775000Y41440000D01*
G75*
G02*
X93925000Y41590000I150000J0D01*
G01*
X95575000Y41590000D01*
G75*
G02*
X95725000Y41440000I0J-150000D01*
G01*
X95725000Y41140000D01*
G75*
G02*
X95575000Y40990000I-150000J0D01*
G01*
X93925000Y40990000D01*
G75*
G02*
X93775000Y41140000I0J150000D01*
G01*
G37*
G04 #@! TD.AperFunction*
G04 #@! TO.P,U2,7,S1*
G04 #@! TO.N,PIN114*
G04 #@! TA.AperFunction,SMDPad,CuDef*
G36*
G01*
X93775000Y42410000D02*
X93775000Y42710000D01*
G75*
G02*
X93925000Y42860000I150000J0D01*
G01*
X95575000Y42860000D01*
G75*
G02*
X95725000Y42710000I0J-150000D01*
G01*
X95725000Y42410000D01*
G75*
G02*
X95575000Y42260000I-150000J0D01*
G01*
X93925000Y42260000D01*
G75*
G02*
X93775000Y42410000I0J150000D01*
G01*
G37*
G04 #@! TD.AperFunction*
G04 #@! TO.P,U2,8,D1*
G04 #@! TO.N,PIN16*
G04 #@! TA.AperFunction,SMDPad,CuDef*
G36*
G01*
X93775000Y43680000D02*
X93775000Y43980000D01*
G75*
G02*
X93925000Y44130000I150000J0D01*
G01*
X95575000Y44130000D01*
G75*
G02*
X95725000Y43980000I0J-150000D01*
G01*
X95725000Y43680000D01*
G75*
G02*
X95575000Y43530000I-150000J0D01*
G01*
X93925000Y43530000D01*
G75*
G02*
X93775000Y43680000I0J150000D01*
G01*
G37*
G04 #@! TD.AperFunction*
G04 #@! TD*
D31*
G04 #@! TO.P,M3,E1,Thresh_IN*
G04 #@! TO.N,/VR_DISCRETE_THR*
X165400003Y88350000D03*
G04 #@! TO.P,M3,E2,OUT_A*
G04 #@! TO.N,/VR_DISCRETE_A*
X165400003Y87150000D03*
G04 #@! TO.P,M3,E3,OUT*
G04 #@! TO.N,/VR_DISCRETE*
X165400003Y89550000D03*
G04 #@! TO.P,M3,E4,V5_IN*
G04 #@! TO.N,+5VA*
X165400003Y90750000D03*
D32*
G04 #@! TO.P,M3,G,GND*
G04 #@! TO.N,PIN114*
X150750003Y88082500D03*
D33*
X150750003Y82032500D03*
D34*
X157762503Y91050000D03*
D35*
X158175003Y81600000D03*
D36*
X165600003Y84062500D03*
D31*
G04 #@! TO.P,M3,W1,VR-*
G04 #@! TO.N,PIN18*
X150975003Y84290000D03*
G04 #@! TO.P,M3,W2,VR+*
G04 #@! TO.N,PIN17*
X150975003Y83290000D03*
G04 #@! TD*
G04 #@! TO.P,R52,1*
G04 #@! TO.N,/LS_HOT1*
G04 #@! TA.AperFunction,SMDPad,CuDef*
G36*
G01*
X43250000Y49559046D02*
X43250000Y50339046D01*
G75*
G02*
X43320000Y50409046I70000J0D01*
G01*
X43880000Y50409046D01*
G75*
G02*
X43950000Y50339046I0J-70000D01*
G01*
X43950000Y49559046D01*
G75*
G02*
X43880000Y49489046I-70000J0D01*
G01*
X43320000Y49489046D01*
G75*
G02*
X43250000Y49559046I0J70000D01*
G01*
G37*
G04 #@! TD.AperFunction*
G04 #@! TO.P,R52,2*
G04 #@! TO.N,Net-(U7-IN2)*
G04 #@! TA.AperFunction,SMDPad,CuDef*
G36*
G01*
X44850000Y49559046D02*
X44850000Y50339046D01*
G75*
G02*
X44920000Y50409046I70000J0D01*
G01*
X45480000Y50409046D01*
G75*
G02*
X45550000Y50339046I0J-70000D01*
G01*
X45550000Y49559046D01*
G75*
G02*
X45480000Y49489046I-70000J0D01*
G01*
X44920000Y49489046D01*
G75*
G02*
X44850000Y49559046I0J70000D01*
G01*
G37*
G04 #@! TD.AperFunction*
G04 #@! TD*
G04 #@! TO.P,Q7,1,G*
G04 #@! TO.N,Net-(M6-LED_GREEN)*
G04 #@! TA.AperFunction,SMDPad,CuDef*
G36*
G01*
X111420000Y71630000D02*
X111420000Y71930000D01*
G75*
G02*
X111570000Y72080000I150000J0D01*
G01*
X112745000Y72080000D01*
G75*
G02*
X112895000Y71930000I0J-150000D01*
G01*
X112895000Y71630000D01*
G75*
G02*
X112745000Y71480000I-150000J0D01*
G01*
X111570000Y71480000D01*
G75*
G02*
X111420000Y71630000I0J150000D01*
G01*
G37*
G04 #@! TD.AperFunction*
G04 #@! TO.P,Q7,2,S*
G04 #@! TO.N,PIN114*
G04 #@! TA.AperFunction,SMDPad,CuDef*
G36*
G01*
X111420000Y69730000D02*
X111420000Y70030000D01*
G75*
G02*
X111570000Y70180000I150000J0D01*
G01*
X112745000Y70180000D01*
G75*
G02*
X112895000Y70030000I0J-150000D01*
G01*
X112895000Y69730000D01*
G75*
G02*
X112745000Y69580000I-150000J0D01*
G01*
X111570000Y69580000D01*
G75*
G02*
X111420000Y69730000I0J150000D01*
G01*
G37*
G04 #@! TD.AperFunction*
G04 #@! TO.P,Q7,3,D*
G04 #@! TO.N,Net-(Q7-D)*
G04 #@! TA.AperFunction,SMDPad,CuDef*
G36*
G01*
X113295000Y70680000D02*
X113295000Y70980000D01*
G75*
G02*
X113445000Y71130000I150000J0D01*
G01*
X114620000Y71130000D01*
G75*
G02*
X114770000Y70980000I0J-150000D01*
G01*
X114770000Y70680000D01*
G75*
G02*
X114620000Y70530000I-150000J0D01*
G01*
X113445000Y70530000D01*
G75*
G02*
X113295000Y70680000I0J150000D01*
G01*
G37*
G04 #@! TD.AperFunction*
G04 #@! TD*
G04 #@! TO.P,R8,1*
G04 #@! TO.N,PIN85*
G04 #@! TA.AperFunction,SMDPad,CuDef*
G36*
G01*
X20620000Y70725804D02*
X20620000Y71975804D01*
G75*
G02*
X20720000Y72075804I100000J0D01*
G01*
X21520000Y72075804D01*
G75*
G02*
X21620000Y71975804I0J-100000D01*
G01*
X21620000Y70725804D01*
G75*
G02*
X21520000Y70625804I-100000J0D01*
G01*
X20720000Y70625804D01*
G75*
G02*
X20620000Y70725804I0J100000D01*
G01*
G37*
G04 #@! TD.AperFunction*
G04 #@! TO.P,R8,2*
G04 #@! TO.N,+5VA*
G04 #@! TA.AperFunction,SMDPad,CuDef*
G36*
G01*
X22520022Y70725804D02*
X22520022Y71975804D01*
G75*
G02*
X22620022Y72075804I100000J0D01*
G01*
X23420022Y72075804D01*
G75*
G02*
X23520022Y71975804I0J-100000D01*
G01*
X23520022Y70725804D01*
G75*
G02*
X23420022Y70625804I-100000J0D01*
G01*
X22620022Y70625804D01*
G75*
G02*
X22520022Y70725804I0J100000D01*
G01*
G37*
G04 #@! TD.AperFunction*
G04 #@! TD*
G04 #@! TO.P,J21,1,Pin_1*
G04 #@! TO.N,/VBUS*
G04 #@! TA.AperFunction,ComponentPad*
G36*
G01*
X101125000Y75380000D02*
X101125000Y76730000D01*
G75*
G02*
X101375000Y76980000I250000J0D01*
G01*
X102575000Y76980000D01*
G75*
G02*
X102825000Y76730000I0J-250000D01*
G01*
X102825000Y75380000D01*
G75*
G02*
X102575000Y75130000I-250000J0D01*
G01*
X101375000Y75130000D01*
G75*
G02*
X101125000Y75380000I0J250000D01*
G01*
G37*
G04 #@! TD.AperFunction*
D37*
G04 #@! TO.P,J21,2,Pin_2*
G04 #@! TO.N,/USB-*
X104475000Y76055000D03*
G04 #@! TO.P,J21,3,Pin_3*
G04 #@! TO.N,/USB+*
X106975000Y76055000D03*
G04 #@! TO.P,J21,4,Pin_4*
G04 #@! TO.N,PIN114*
X109475000Y76055000D03*
G04 #@! TO.P,J21,5,Pin_5*
X111975000Y76055000D03*
G04 #@! TD*
G04 #@! TO.P,R2,1*
G04 #@! TO.N,/IN_VMAIN*
G04 #@! TA.AperFunction,SMDPad,CuDef*
G36*
G01*
X24520000Y71788092D02*
X24520000Y72568092D01*
G75*
G02*
X24590000Y72638092I70000J0D01*
G01*
X25150000Y72638092D01*
G75*
G02*
X25220000Y72568092I0J-70000D01*
G01*
X25220000Y71788092D01*
G75*
G02*
X25150000Y71718092I-70000J0D01*
G01*
X24590000Y71718092D01*
G75*
G02*
X24520000Y71788092I0J70000D01*
G01*
G37*
G04 #@! TD.AperFunction*
G04 #@! TO.P,R2,2*
G04 #@! TO.N,PIN120*
G04 #@! TA.AperFunction,SMDPad,CuDef*
G36*
G01*
X26120000Y71788092D02*
X26120000Y72568092D01*
G75*
G02*
X26190000Y72638092I70000J0D01*
G01*
X26750000Y72638092D01*
G75*
G02*
X26820000Y72568092I0J-70000D01*
G01*
X26820000Y71788092D01*
G75*
G02*
X26750000Y71718092I-70000J0D01*
G01*
X26190000Y71718092D01*
G75*
G02*
X26120000Y71788092I0J70000D01*
G01*
G37*
G04 #@! TD.AperFunction*
G04 #@! TD*
G04 #@! TO.P,U3,1,IN1*
G04 #@! TO.N,Net-(U3-IN1)*
G04 #@! TA.AperFunction,SMDPad,CuDef*
G36*
G01*
X88825000Y78580000D02*
X88825000Y78880000D01*
G75*
G02*
X88975000Y79030000I150000J0D01*
G01*
X90625000Y79030000D01*
G75*
G02*
X90775000Y78880000I0J-150000D01*
G01*
X90775000Y78580000D01*
G75*
G02*
X90625000Y78430000I-150000J0D01*
G01*
X88975000Y78430000D01*
G75*
G02*
X88825000Y78580000I0J150000D01*
G01*
G37*
G04 #@! TD.AperFunction*
G04 #@! TO.P,U3,2,STATUS1*
G04 #@! TO.N,unconnected-(U3-STATUS1-Pad2)*
G04 #@! TA.AperFunction,SMDPad,CuDef*
G36*
G01*
X88825000Y77310000D02*
X88825000Y77610000D01*
G75*
G02*
X88975000Y77760000I150000J0D01*
G01*
X90625000Y77760000D01*
G75*
G02*
X90775000Y77610000I0J-150000D01*
G01*
X90775000Y77310000D01*
G75*
G02*
X90625000Y77160000I-150000J0D01*
G01*
X88975000Y77160000D01*
G75*
G02*
X88825000Y77310000I0J150000D01*
G01*
G37*
G04 #@! TD.AperFunction*
G04 #@! TO.P,U3,3,IN2*
G04 #@! TO.N,Net-(U3-IN2)*
G04 #@! TA.AperFunction,SMDPad,CuDef*
G36*
G01*
X88825000Y76040000D02*
X88825000Y76340000D01*
G75*
G02*
X88975000Y76490000I150000J0D01*
G01*
X90625000Y76490000D01*
G75*
G02*
X90775000Y76340000I0J-150000D01*
G01*
X90775000Y76040000D01*
G75*
G02*
X90625000Y75890000I-150000J0D01*
G01*
X88975000Y75890000D01*
G75*
G02*
X88825000Y76040000I0J150000D01*
G01*
G37*
G04 #@! TD.AperFunction*
G04 #@! TO.P,U3,4,STATUS2*
G04 #@! TO.N,unconnected-(U3-STATUS2-Pad4)*
G04 #@! TA.AperFunction,SMDPad,CuDef*
G36*
G01*
X88825000Y74770000D02*
X88825000Y75070000D01*
G75*
G02*
X88975000Y75220000I150000J0D01*
G01*
X90625000Y75220000D01*
G75*
G02*
X90775000Y75070000I0J-150000D01*
G01*
X90775000Y74770000D01*
G75*
G02*
X90625000Y74620000I-150000J0D01*
G01*
X88975000Y74620000D01*
G75*
G02*
X88825000Y74770000I0J150000D01*
G01*
G37*
G04 #@! TD.AperFunction*
G04 #@! TO.P,U3,5,S2*
G04 #@! TO.N,PIN114*
G04 #@! TA.AperFunction,SMDPad,CuDef*
G36*
G01*
X93775000Y74770000D02*
X93775000Y75070000D01*
G75*
G02*
X93925000Y75220000I150000J0D01*
G01*
X95575000Y75220000D01*
G75*
G02*
X95725000Y75070000I0J-150000D01*
G01*
X95725000Y74770000D01*
G75*
G02*
X95575000Y74620000I-150000J0D01*
G01*
X93925000Y74620000D01*
G75*
G02*
X93775000Y74770000I0J150000D01*
G01*
G37*
G04 #@! TD.AperFunction*
G04 #@! TO.P,U3,6,D2*
G04 #@! TO.N,PIN51*
G04 #@! TA.AperFunction,SMDPad,CuDef*
G36*
G01*
X93775000Y76040000D02*
X93775000Y76340000D01*
G75*
G02*
X93925000Y76490000I150000J0D01*
G01*
X95575000Y76490000D01*
G75*
G02*
X95725000Y76340000I0J-150000D01*
G01*
X95725000Y76040000D01*
G75*
G02*
X95575000Y75890000I-150000J0D01*
G01*
X93925000Y75890000D01*
G75*
G02*
X93775000Y76040000I0J150000D01*
G01*
G37*
G04 #@! TD.AperFunction*
G04 #@! TO.P,U3,7,S1*
G04 #@! TO.N,PIN114*
G04 #@! TA.AperFunction,SMDPad,CuDef*
G36*
G01*
X93775000Y77310000D02*
X93775000Y77610000D01*
G75*
G02*
X93925000Y77760000I150000J0D01*
G01*
X95575000Y77760000D01*
G75*
G02*
X95725000Y77610000I0J-150000D01*
G01*
X95725000Y77310000D01*
G75*
G02*
X95575000Y77160000I-150000J0D01*
G01*
X93925000Y77160000D01*
G75*
G02*
X93775000Y77310000I0J150000D01*
G01*
G37*
G04 #@! TD.AperFunction*
G04 #@! TO.P,U3,8,D1*
G04 #@! TO.N,PIN50*
G04 #@! TA.AperFunction,SMDPad,CuDef*
G36*
G01*
X93775000Y78580000D02*
X93775000Y78880000D01*
G75*
G02*
X93925000Y79030000I150000J0D01*
G01*
X95575000Y79030000D01*
G75*
G02*
X95725000Y78880000I0J-150000D01*
G01*
X95725000Y78580000D01*
G75*
G02*
X95575000Y78430000I-150000J0D01*
G01*
X93925000Y78430000D01*
G75*
G02*
X93775000Y78580000I0J150000D01*
G01*
G37*
G04 #@! TD.AperFunction*
G04 #@! TD*
G04 #@! TO.P,U7,1,IN1*
G04 #@! TO.N,Net-(U7-IN1)*
G04 #@! TA.AperFunction,SMDPad,CuDef*
G36*
G01*
X99275000Y36660000D02*
X99275000Y36960000D01*
G75*
G02*
X99425000Y37110000I150000J0D01*
G01*
X101075000Y37110000D01*
G75*
G02*
X101225000Y36960000I0J-150000D01*
G01*
X101225000Y36660000D01*
G75*
G02*
X101075000Y36510000I-150000J0D01*
G01*
X99425000Y36510000D01*
G75*
G02*
X99275000Y36660000I0J150000D01*
G01*
G37*
G04 #@! TD.AperFunction*
G04 #@! TO.P,U7,2,STATUS1*
G04 #@! TO.N,unconnected-(U7-STATUS1-Pad2)*
G04 #@! TA.AperFunction,SMDPad,CuDef*
G36*
G01*
X99275000Y35390000D02*
X99275000Y35690000D01*
G75*
G02*
X99425000Y35840000I150000J0D01*
G01*
X101075000Y35840000D01*
G75*
G02*
X101225000Y35690000I0J-150000D01*
G01*
X101225000Y35390000D01*
G75*
G02*
X101075000Y35240000I-150000J0D01*
G01*
X99425000Y35240000D01*
G75*
G02*
X99275000Y35390000I0J150000D01*
G01*
G37*
G04 #@! TD.AperFunction*
G04 #@! TO.P,U7,3,IN2*
G04 #@! TO.N,Net-(U7-IN2)*
G04 #@! TA.AperFunction,SMDPad,CuDef*
G36*
G01*
X99275000Y34120000D02*
X99275000Y34420000D01*
G75*
G02*
X99425000Y34570000I150000J0D01*
G01*
X101075000Y34570000D01*
G75*
G02*
X101225000Y34420000I0J-150000D01*
G01*
X101225000Y34120000D01*
G75*
G02*
X101075000Y33970000I-150000J0D01*
G01*
X99425000Y33970000D01*
G75*
G02*
X99275000Y34120000I0J150000D01*
G01*
G37*
G04 #@! TD.AperFunction*
G04 #@! TO.P,U7,4,STATUS2*
G04 #@! TO.N,unconnected-(U7-STATUS2-Pad4)*
G04 #@! TA.AperFunction,SMDPad,CuDef*
G36*
G01*
X99275000Y32850000D02*
X99275000Y33150000D01*
G75*
G02*
X99425000Y33300000I150000J0D01*
G01*
X101075000Y33300000D01*
G75*
G02*
X101225000Y33150000I0J-150000D01*
G01*
X101225000Y32850000D01*
G75*
G02*
X101075000Y32700000I-150000J0D01*
G01*
X99425000Y32700000D01*
G75*
G02*
X99275000Y32850000I0J150000D01*
G01*
G37*
G04 #@! TD.AperFunction*
G04 #@! TO.P,U7,5,S2*
G04 #@! TO.N,PIN114*
G04 #@! TA.AperFunction,SMDPad,CuDef*
G36*
G01*
X104225000Y32850000D02*
X104225000Y33150000D01*
G75*
G02*
X104375000Y33300000I150000J0D01*
G01*
X106025000Y33300000D01*
G75*
G02*
X106175000Y33150000I0J-150000D01*
G01*
X106175000Y32850000D01*
G75*
G02*
X106025000Y32700000I-150000J0D01*
G01*
X104375000Y32700000D01*
G75*
G02*
X104225000Y32850000I0J150000D01*
G01*
G37*
G04 #@! TD.AperFunction*
G04 #@! TO.P,U7,6,D2*
G04 #@! TO.N,PIN86*
G04 #@! TA.AperFunction,SMDPad,CuDef*
G36*
G01*
X104225000Y34120000D02*
X104225000Y34420000D01*
G75*
G02*
X104375000Y34570000I150000J0D01*
G01*
X106025000Y34570000D01*
G75*
G02*
X106175000Y34420000I0J-150000D01*
G01*
X106175000Y34120000D01*
G75*
G02*
X106025000Y33970000I-150000J0D01*
G01*
X104375000Y33970000D01*
G75*
G02*
X104225000Y34120000I0J150000D01*
G01*
G37*
G04 #@! TD.AperFunction*
G04 #@! TO.P,U7,7,S1*
G04 #@! TO.N,PIN114*
G04 #@! TA.AperFunction,SMDPad,CuDef*
G36*
G01*
X104225000Y35390000D02*
X104225000Y35690000D01*
G75*
G02*
X104375000Y35840000I150000J0D01*
G01*
X106025000Y35840000D01*
G75*
G02*
X106175000Y35690000I0J-150000D01*
G01*
X106175000Y35390000D01*
G75*
G02*
X106025000Y35240000I-150000J0D01*
G01*
X104375000Y35240000D01*
G75*
G02*
X104225000Y35390000I0J150000D01*
G01*
G37*
G04 #@! TD.AperFunction*
G04 #@! TO.P,U7,8,D1*
G04 #@! TO.N,PIN87*
G04 #@! TA.AperFunction,SMDPad,CuDef*
G36*
G01*
X104225000Y36660000D02*
X104225000Y36960000D01*
G75*
G02*
X104375000Y37110000I150000J0D01*
G01*
X106025000Y37110000D01*
G75*
G02*
X106175000Y36960000I0J-150000D01*
G01*
X106175000Y36660000D01*
G75*
G02*
X106025000Y36510000I-150000J0D01*
G01*
X104375000Y36510000D01*
G75*
G02*
X104225000Y36660000I0J150000D01*
G01*
G37*
G04 #@! TD.AperFunction*
G04 #@! TD*
G04 #@! TO.P,D4,1,K*
G04 #@! TO.N,PIN117*
G04 #@! TA.AperFunction,SMDPad,CuDef*
G36*
G01*
X28030000Y63673733D02*
X28030000Y64693733D01*
G75*
G02*
X28120000Y64783733I90000J0D01*
G01*
X28840000Y64783733D01*
G75*
G02*
X28930000Y64693733I0J-90000D01*
G01*
X28930000Y63673733D01*
G75*
G02*
X28840000Y63583733I-90000J0D01*
G01*
X28120000Y63583733D01*
G75*
G02*
X28030000Y63673733I0J90000D01*
G01*
G37*
G04 #@! TD.AperFunction*
G04 #@! TO.P,D4,2,A*
G04 #@! TO.N,PIN88*
G04 #@! TA.AperFunction,SMDPad,CuDef*
G36*
G01*
X31330000Y63673733D02*
X31330000Y64693733D01*
G75*
G02*
X31420000Y64783733I90000J0D01*
G01*
X32140000Y64783733D01*
G75*
G02*
X32230000Y64693733I0J-90000D01*
G01*
X32230000Y63673733D01*
G75*
G02*
X32140000Y63583733I-90000J0D01*
G01*
X31420000Y63583733D01*
G75*
G02*
X31330000Y63673733I0J90000D01*
G01*
G37*
G04 #@! TD.AperFunction*
G04 #@! TD*
G04 #@! TO.P,U4,1,IN1*
G04 #@! TO.N,Net-(U4-IN1)*
G04 #@! TA.AperFunction,SMDPad,CuDef*
G36*
G01*
X88825000Y72000000D02*
X88825000Y72300000D01*
G75*
G02*
X88975000Y72450000I150000J0D01*
G01*
X90625000Y72450000D01*
G75*
G02*
X90775000Y72300000I0J-150000D01*
G01*
X90775000Y72000000D01*
G75*
G02*
X90625000Y71850000I-150000J0D01*
G01*
X88975000Y71850000D01*
G75*
G02*
X88825000Y72000000I0J150000D01*
G01*
G37*
G04 #@! TD.AperFunction*
G04 #@! TO.P,U4,2,STATUS1*
G04 #@! TO.N,unconnected-(U4-STATUS1-Pad2)*
G04 #@! TA.AperFunction,SMDPad,CuDef*
G36*
G01*
X88825000Y70730000D02*
X88825000Y71030000D01*
G75*
G02*
X88975000Y71180000I150000J0D01*
G01*
X90625000Y71180000D01*
G75*
G02*
X90775000Y71030000I0J-150000D01*
G01*
X90775000Y70730000D01*
G75*
G02*
X90625000Y70580000I-150000J0D01*
G01*
X88975000Y70580000D01*
G75*
G02*
X88825000Y70730000I0J150000D01*
G01*
G37*
G04 #@! TD.AperFunction*
G04 #@! TO.P,U4,3,IN2*
G04 #@! TO.N,Net-(U4-IN2)*
G04 #@! TA.AperFunction,SMDPad,CuDef*
G36*
G01*
X88825000Y69460000D02*
X88825000Y69760000D01*
G75*
G02*
X88975000Y69910000I150000J0D01*
G01*
X90625000Y69910000D01*
G75*
G02*
X90775000Y69760000I0J-150000D01*
G01*
X90775000Y69460000D01*
G75*
G02*
X90625000Y69310000I-150000J0D01*
G01*
X88975000Y69310000D01*
G75*
G02*
X88825000Y69460000I0J150000D01*
G01*
G37*
G04 #@! TD.AperFunction*
G04 #@! TO.P,U4,4,STATUS2*
G04 #@! TO.N,unconnected-(U4-STATUS2-Pad4)*
G04 #@! TA.AperFunction,SMDPad,CuDef*
G36*
G01*
X88825000Y68190000D02*
X88825000Y68490000D01*
G75*
G02*
X88975000Y68640000I150000J0D01*
G01*
X90625000Y68640000D01*
G75*
G02*
X90775000Y68490000I0J-150000D01*
G01*
X90775000Y68190000D01*
G75*
G02*
X90625000Y68040000I-150000J0D01*
G01*
X88975000Y68040000D01*
G75*
G02*
X88825000Y68190000I0J150000D01*
G01*
G37*
G04 #@! TD.AperFunction*
G04 #@! TO.P,U4,5,S2*
G04 #@! TO.N,PIN114*
G04 #@! TA.AperFunction,SMDPad,CuDef*
G36*
G01*
X93775000Y68190000D02*
X93775000Y68490000D01*
G75*
G02*
X93925000Y68640000I150000J0D01*
G01*
X95575000Y68640000D01*
G75*
G02*
X95725000Y68490000I0J-150000D01*
G01*
X95725000Y68190000D01*
G75*
G02*
X95575000Y68040000I-150000J0D01*
G01*
X93925000Y68040000D01*
G75*
G02*
X93775000Y68190000I0J150000D01*
G01*
G37*
G04 #@! TD.AperFunction*
G04 #@! TO.P,U4,6,D2*
G04 #@! TO.N,PIN47*
G04 #@! TA.AperFunction,SMDPad,CuDef*
G36*
G01*
X93775000Y69460000D02*
X93775000Y69760000D01*
G75*
G02*
X93925000Y69910000I150000J0D01*
G01*
X95575000Y69910000D01*
G75*
G02*
X95725000Y69760000I0J-150000D01*
G01*
X95725000Y69460000D01*
G75*
G02*
X95575000Y69310000I-150000J0D01*
G01*
X93925000Y69310000D01*
G75*
G02*
X93775000Y69460000I0J150000D01*
G01*
G37*
G04 #@! TD.AperFunction*
G04 #@! TO.P,U4,7,S1*
G04 #@! TO.N,PIN114*
G04 #@! TA.AperFunction,SMDPad,CuDef*
G36*
G01*
X93775000Y70730000D02*
X93775000Y71030000D01*
G75*
G02*
X93925000Y71180000I150000J0D01*
G01*
X95575000Y71180000D01*
G75*
G02*
X95725000Y71030000I0J-150000D01*
G01*
X95725000Y70730000D01*
G75*
G02*
X95575000Y70580000I-150000J0D01*
G01*
X93925000Y70580000D01*
G75*
G02*
X93775000Y70730000I0J150000D01*
G01*
G37*
G04 #@! TD.AperFunction*
G04 #@! TO.P,U4,8,D1*
G04 #@! TO.N,PIN46*
G04 #@! TA.AperFunction,SMDPad,CuDef*
G36*
G01*
X93775000Y72000000D02*
X93775000Y72300000D01*
G75*
G02*
X93925000Y72450000I150000J0D01*
G01*
X95575000Y72450000D01*
G75*
G02*
X95725000Y72300000I0J-150000D01*
G01*
X95725000Y72000000D01*
G75*
G02*
X95575000Y71850000I-150000J0D01*
G01*
X93925000Y71850000D01*
G75*
G02*
X93775000Y72000000I0J150000D01*
G01*
G37*
G04 #@! TD.AperFunction*
G04 #@! TD*
G04 #@! TO.P,R19,1*
G04 #@! TO.N,/LS4*
G04 #@! TA.AperFunction,SMDPad,CuDef*
G36*
G01*
X43250000Y63991908D02*
X43250000Y64771908D01*
G75*
G02*
X43320000Y64841908I70000J0D01*
G01*
X43880000Y64841908D01*
G75*
G02*
X43950000Y64771908I0J-70000D01*
G01*
X43950000Y63991908D01*
G75*
G02*
X43880000Y63921908I-70000J0D01*
G01*
X43320000Y63921908D01*
G75*
G02*
X43250000Y63991908I0J70000D01*
G01*
G37*
G04 #@! TD.AperFunction*
G04 #@! TO.P,R19,2*
G04 #@! TO.N,Net-(U2-IN2)*
G04 #@! TA.AperFunction,SMDPad,CuDef*
G36*
G01*
X44850000Y63991908D02*
X44850000Y64771908D01*
G75*
G02*
X44920000Y64841908I70000J0D01*
G01*
X45480000Y64841908D01*
G75*
G02*
X45550000Y64771908I0J-70000D01*
G01*
X45550000Y63991908D01*
G75*
G02*
X45480000Y63921908I-70000J0D01*
G01*
X44920000Y63921908D01*
G75*
G02*
X44850000Y63991908I0J70000D01*
G01*
G37*
G04 #@! TD.AperFunction*
G04 #@! TD*
G04 #@! TO.P,R21,1*
G04 #@! TO.N,/LS4*
G04 #@! TA.AperFunction,SMDPad,CuDef*
G36*
G01*
X43250000Y60093816D02*
X43250000Y60873816D01*
G75*
G02*
X43320000Y60943816I70000J0D01*
G01*
X43880000Y60943816D01*
G75*
G02*
X43950000Y60873816I0J-70000D01*
G01*
X43950000Y60093816D01*
G75*
G02*
X43880000Y60023816I-70000J0D01*
G01*
X43320000Y60023816D01*
G75*
G02*
X43250000Y60093816I0J70000D01*
G01*
G37*
G04 #@! TD.AperFunction*
G04 #@! TO.P,R21,2*
G04 #@! TO.N,PIN114*
G04 #@! TA.AperFunction,SMDPad,CuDef*
G36*
G01*
X44850000Y60093816D02*
X44850000Y60873816D01*
G75*
G02*
X44920000Y60943816I70000J0D01*
G01*
X45480000Y60943816D01*
G75*
G02*
X45550000Y60873816I0J-70000D01*
G01*
X45550000Y60093816D01*
G75*
G02*
X45480000Y60023816I-70000J0D01*
G01*
X44920000Y60023816D01*
G75*
G02*
X44850000Y60093816I0J70000D01*
G01*
G37*
G04 #@! TD.AperFunction*
G04 #@! TD*
G04 #@! TO.P,R41,1*
G04 #@! TO.N,/INJ2*
G04 #@! TA.AperFunction,SMDPad,CuDef*
G36*
G01*
X23920000Y51508092D02*
X23920000Y52288092D01*
G75*
G02*
X23990000Y52358092I70000J0D01*
G01*
X24550000Y52358092D01*
G75*
G02*
X24620000Y52288092I0J-70000D01*
G01*
X24620000Y51508092D01*
G75*
G02*
X24550000Y51438092I-70000J0D01*
G01*
X23990000Y51438092D01*
G75*
G02*
X23920000Y51508092I0J70000D01*
G01*
G37*
G04 #@! TD.AperFunction*
G04 #@! TO.P,R41,2*
G04 #@! TO.N,Net-(U6-IN2)*
G04 #@! TA.AperFunction,SMDPad,CuDef*
G36*
G01*
X25520000Y51508092D02*
X25520000Y52288092D01*
G75*
G02*
X25590000Y52358092I70000J0D01*
G01*
X26150000Y52358092D01*
G75*
G02*
X26220000Y52288092I0J-70000D01*
G01*
X26220000Y51508092D01*
G75*
G02*
X26150000Y51438092I-70000J0D01*
G01*
X25590000Y51438092D01*
G75*
G02*
X25520000Y51508092I0J70000D01*
G01*
G37*
G04 #@! TD.AperFunction*
G04 #@! TD*
G04 #@! TO.P,R32,1*
G04 #@! TO.N,Net-(F8-Pad1)*
G04 #@! TA.AperFunction,SMDPad,CuDef*
G36*
G01*
X78130000Y56750000D02*
X78130000Y59600000D01*
G75*
G02*
X78380000Y59850000I250000J0D01*
G01*
X79105000Y59850000D01*
G75*
G02*
X79355000Y59600000I0J-250000D01*
G01*
X79355000Y56750000D01*
G75*
G02*
X79105000Y56500000I-250000J0D01*
G01*
X78380000Y56500000D01*
G75*
G02*
X78130000Y56750000I0J250000D01*
G01*
G37*
G04 #@! TD.AperFunction*
G04 #@! TO.P,R32,2*
G04 #@! TO.N,PIN11*
G04 #@! TA.AperFunction,SMDPad,CuDef*
G36*
G01*
X84055000Y56750000D02*
X84055000Y59600000D01*
G75*
G02*
X84305000Y59850000I250000J0D01*
G01*
X85030000Y59850000D01*
G75*
G02*
X85280000Y59600000I0J-250000D01*
G01*
X85280000Y56750000D01*
G75*
G02*
X85030000Y56500000I-250000J0D01*
G01*
X84305000Y56500000D01*
G75*
G02*
X84055000Y56750000I0J250000D01*
G01*
G37*
G04 #@! TD.AperFunction*
G04 #@! TD*
G04 #@! TO.P,R13,1*
G04 #@! TO.N,/LS1*
G04 #@! TA.AperFunction,SMDPad,CuDef*
G36*
G01*
X43250000Y73737138D02*
X43250000Y74517138D01*
G75*
G02*
X43320000Y74587138I70000J0D01*
G01*
X43880000Y74587138D01*
G75*
G02*
X43950000Y74517138I0J-70000D01*
G01*
X43950000Y73737138D01*
G75*
G02*
X43880000Y73667138I-70000J0D01*
G01*
X43320000Y73667138D01*
G75*
G02*
X43250000Y73737138I0J70000D01*
G01*
G37*
G04 #@! TD.AperFunction*
G04 #@! TO.P,R13,2*
G04 #@! TO.N,Net-(U1-IN1)*
G04 #@! TA.AperFunction,SMDPad,CuDef*
G36*
G01*
X44850000Y73737138D02*
X44850000Y74517138D01*
G75*
G02*
X44920000Y74587138I70000J0D01*
G01*
X45480000Y74587138D01*
G75*
G02*
X45550000Y74517138I0J-70000D01*
G01*
X45550000Y73737138D01*
G75*
G02*
X45480000Y73667138I-70000J0D01*
G01*
X44920000Y73667138D01*
G75*
G02*
X44850000Y73737138I0J70000D01*
G01*
G37*
G04 #@! TD.AperFunction*
G04 #@! TD*
G04 #@! TO.P,R18,1*
G04 #@! TO.N,/LS3*
G04 #@! TA.AperFunction,SMDPad,CuDef*
G36*
G01*
X43250000Y65940954D02*
X43250000Y66720954D01*
G75*
G02*
X43320000Y66790954I70000J0D01*
G01*
X43880000Y66790954D01*
G75*
G02*
X43950000Y66720954I0J-70000D01*
G01*
X43950000Y65940954D01*
G75*
G02*
X43880000Y65870954I-70000J0D01*
G01*
X43320000Y65870954D01*
G75*
G02*
X43250000Y65940954I0J70000D01*
G01*
G37*
G04 #@! TD.AperFunction*
G04 #@! TO.P,R18,2*
G04 #@! TO.N,Net-(U2-IN1)*
G04 #@! TA.AperFunction,SMDPad,CuDef*
G36*
G01*
X44850000Y65940954D02*
X44850000Y66720954D01*
G75*
G02*
X44920000Y66790954I70000J0D01*
G01*
X45480000Y66790954D01*
G75*
G02*
X45550000Y66720954I0J-70000D01*
G01*
X45550000Y65940954D01*
G75*
G02*
X45480000Y65870954I-70000J0D01*
G01*
X44920000Y65870954D01*
G75*
G02*
X44850000Y65940954I0J70000D01*
G01*
G37*
G04 #@! TD.AperFunction*
G04 #@! TD*
G04 #@! TO.P,U8,1,GND*
G04 #@! TO.N,PIN114*
G04 #@! TA.AperFunction,SMDPad,CuDef*
G36*
G01*
X99275000Y50260000D02*
X99275000Y50560000D01*
G75*
G02*
X99425000Y50710000I150000J0D01*
G01*
X101075000Y50710000D01*
G75*
G02*
X101225000Y50560000I0J-150000D01*
G01*
X101225000Y50260000D01*
G75*
G02*
X101075000Y50110000I-150000J0D01*
G01*
X99425000Y50110000D01*
G75*
G02*
X99275000Y50260000I0J150000D01*
G01*
G37*
G04 #@! TD.AperFunction*
G04 #@! TO.P,U8,2,T-*
G04 #@! TO.N,Net-(U8-T-)*
G04 #@! TA.AperFunction,SMDPad,CuDef*
G36*
G01*
X99275000Y48990000D02*
X99275000Y49290000D01*
G75*
G02*
X99425000Y49440000I150000J0D01*
G01*
X101075000Y49440000D01*
G75*
G02*
X101225000Y49290000I0J-150000D01*
G01*
X101225000Y48990000D01*
G75*
G02*
X101075000Y48840000I-150000J0D01*
G01*
X99425000Y48840000D01*
G75*
G02*
X99275000Y48990000I0J150000D01*
G01*
G37*
G04 #@! TD.AperFunction*
G04 #@! TO.P,U8,3,T+*
G04 #@! TO.N,Net-(U8-T+)*
G04 #@! TA.AperFunction,SMDPad,CuDef*
G36*
G01*
X99275000Y47720000D02*
X99275000Y48020000D01*
G75*
G02*
X99425000Y48170000I150000J0D01*
G01*
X101075000Y48170000D01*
G75*
G02*
X101225000Y48020000I0J-150000D01*
G01*
X101225000Y47720000D01*
G75*
G02*
X101075000Y47570000I-150000J0D01*
G01*
X99425000Y47570000D01*
G75*
G02*
X99275000Y47720000I0J150000D01*
G01*
G37*
G04 #@! TD.AperFunction*
G04 #@! TO.P,U8,4,V_CC*
G04 #@! TO.N,+3.3VA*
G04 #@! TA.AperFunction,SMDPad,CuDef*
G36*
G01*
X99275000Y46450000D02*
X99275000Y46750000D01*
G75*
G02*
X99425000Y46900000I150000J0D01*
G01*
X101075000Y46900000D01*
G75*
G02*
X101225000Y46750000I0J-150000D01*
G01*
X101225000Y46450000D01*
G75*
G02*
X101075000Y46300000I-150000J0D01*
G01*
X99425000Y46300000D01*
G75*
G02*
X99275000Y46450000I0J150000D01*
G01*
G37*
G04 #@! TD.AperFunction*
G04 #@! TO.P,U8,5,SCK*
G04 #@! TO.N,/SCK3*
G04 #@! TA.AperFunction,SMDPad,CuDef*
G36*
G01*
X104225000Y46450000D02*
X104225000Y46750000D01*
G75*
G02*
X104375000Y46900000I150000J0D01*
G01*
X106025000Y46900000D01*
G75*
G02*
X106175000Y46750000I0J-150000D01*
G01*
X106175000Y46450000D01*
G75*
G02*
X106025000Y46300000I-150000J0D01*
G01*
X104375000Y46300000D01*
G75*
G02*
X104225000Y46450000I0J150000D01*
G01*
G37*
G04 #@! TD.AperFunction*
G04 #@! TO.P,U8,6,~{CS}*
G04 #@! TO.N,/EGT/SPI_CS*
G04 #@! TA.AperFunction,SMDPad,CuDef*
G36*
G01*
X104225000Y47720000D02*
X104225000Y48020000D01*
G75*
G02*
X104375000Y48170000I150000J0D01*
G01*
X106025000Y48170000D01*
G75*
G02*
X106175000Y48020000I0J-150000D01*
G01*
X106175000Y47720000D01*
G75*
G02*
X106025000Y47570000I-150000J0D01*
G01*
X104375000Y47570000D01*
G75*
G02*
X104225000Y47720000I0J150000D01*
G01*
G37*
G04 #@! TD.AperFunction*
G04 #@! TO.P,U8,7,SO*
G04 #@! TO.N,/MISO3*
G04 #@! TA.AperFunction,SMDPad,CuDef*
G36*
G01*
X104225000Y48990000D02*
X104225000Y49290000D01*
G75*
G02*
X104375000Y49440000I150000J0D01*
G01*
X106025000Y49440000D01*
G75*
G02*
X106175000Y49290000I0J-150000D01*
G01*
X106175000Y48990000D01*
G75*
G02*
X106025000Y48840000I-150000J0D01*
G01*
X104375000Y48840000D01*
G75*
G02*
X104225000Y48990000I0J150000D01*
G01*
G37*
G04 #@! TD.AperFunction*
G04 #@! TO.P,U8,8*
G04 #@! TO.N,N/C*
G04 #@! TA.AperFunction,SMDPad,CuDef*
G36*
G01*
X104225000Y50260000D02*
X104225000Y50560000D01*
G75*
G02*
X104375000Y50710000I150000J0D01*
G01*
X106025000Y50710000D01*
G75*
G02*
X106175000Y50560000I0J-150000D01*
G01*
X106175000Y50260000D01*
G75*
G02*
X106025000Y50110000I-150000J0D01*
G01*
X104375000Y50110000D01*
G75*
G02*
X104225000Y50260000I0J150000D01*
G01*
G37*
G04 #@! TD.AperFunction*
G04 #@! TD*
D38*
G04 #@! TO.P,M8,G,GND*
G04 #@! TO.N,PIN114*
X150700003Y61350000D03*
D39*
X151200003Y59250000D03*
D40*
X155600003Y69050000D03*
X157800003Y59250000D03*
D41*
X162400003Y69050000D03*
D42*
X163500003Y59250000D03*
D43*
X164300003Y64150000D03*
D31*
G04 #@! TO.P,M8,N1,MOSI*
G04 #@! TO.N,unconnected-(M8-MOSI-PadN1)*
X151700003Y68850000D03*
D44*
G04 #@! TO.P,M8,N2,12V_IN*
G04 #@! TO.N,Net-(F3-Pad2)*
X159700003Y68650000D03*
G04 #@! TO.P,M8,S1,12V_IN*
X152500003Y59650000D03*
G04 #@! TO.P,M8,S2,OUT-*
G04 #@! TO.N,PIN2*
X153700003Y59650000D03*
G04 #@! TO.P,M8,S3,OUT+*
G04 #@! TO.N,PIN1*
X161900003Y59650000D03*
D31*
G04 #@! TO.P,M8,W1,DIS*
G04 #@! TO.N,DC1_DIS_W1*
X150900003Y68850000D03*
G04 #@! TO.P,M8,W2,PWM*
G04 #@! TO.N,/DC1_PWM*
X150900003Y68050000D03*
G04 #@! TO.P,M8,W3,SCLK*
G04 #@! TO.N,unconnected-(M8-SCLK-PadW3)*
X150900003Y67250000D03*
G04 #@! TO.P,M8,W4,DIR*
G04 #@! TO.N,/DC1_DIR*
X150900003Y66450000D03*
G04 #@! TO.P,M8,W5,3V3_IN*
G04 #@! TO.N,+3.3V*
X150900003Y65650000D03*
G04 #@! TO.P,M8,W6,MISO*
G04 #@! TO.N,unconnected-(M8-MISO-PadW6)*
X150900003Y64850000D03*
G04 #@! TO.P,M8,W7,~CS*
G04 #@! TO.N,unconnected-(M8-~CS-PadW7)*
X150900003Y64050000D03*
G04 #@! TD*
G04 #@! TO.P,D6,1,K*
G04 #@! TO.N,Net-(U8-T-)*
G04 #@! TA.AperFunction,SMDPad,CuDef*
G36*
G01*
X103280000Y43680000D02*
X103280000Y43980000D01*
G75*
G02*
X103430000Y44130000I150000J0D01*
G01*
X104605000Y44130000D01*
G75*
G02*
X104755000Y43980000I0J-150000D01*
G01*
X104755000Y43680000D01*
G75*
G02*
X104605000Y43530000I-150000J0D01*
G01*
X103430000Y43530000D01*
G75*
G02*
X103280000Y43680000I0J150000D01*
G01*
G37*
G04 #@! TD.AperFunction*
G04 #@! TO.P,D6,2,K*
G04 #@! TO.N,Net-(U8-T+)*
G04 #@! TA.AperFunction,SMDPad,CuDef*
G36*
G01*
X103280000Y41780000D02*
X103280000Y42080000D01*
G75*
G02*
X103430000Y42230000I150000J0D01*
G01*
X104605000Y42230000D01*
G75*
G02*
X104755000Y42080000I0J-150000D01*
G01*
X104755000Y41780000D01*
G75*
G02*
X104605000Y41630000I-150000J0D01*
G01*
X103430000Y41630000D01*
G75*
G02*
X103280000Y41780000I0J150000D01*
G01*
G37*
G04 #@! TD.AperFunction*
G04 #@! TO.P,D6,3,A*
G04 #@! TO.N,PIN114*
G04 #@! TA.AperFunction,SMDPad,CuDef*
G36*
G01*
X105155000Y42730000D02*
X105155000Y43030000D01*
G75*
G02*
X105305000Y43180000I150000J0D01*
G01*
X106480000Y43180000D01*
G75*
G02*
X106630000Y43030000I0J-150000D01*
G01*
X106630000Y42730000D01*
G75*
G02*
X106480000Y42580000I-150000J0D01*
G01*
X105305000Y42580000D01*
G75*
G02*
X105155000Y42730000I0J150000D01*
G01*
G37*
G04 #@! TD.AperFunction*
G04 #@! TD*
G04 #@! TO.P,D5,1,K*
G04 #@! TO.N,PIN43*
G04 #@! TA.AperFunction,SMDPad,CuDef*
G36*
G01*
X99320000Y62255000D02*
X99320000Y63555000D01*
G75*
G02*
X99570000Y63805000I250000J0D01*
G01*
X101570000Y63805000D01*
G75*
G02*
X101820000Y63555000I0J-250000D01*
G01*
X101820000Y62255000D01*
G75*
G02*
X101570000Y62005000I-250000J0D01*
G01*
X99570000Y62005000D01*
G75*
G02*
X99320000Y62255000I0J250000D01*
G01*
G37*
G04 #@! TD.AperFunction*
G04 #@! TO.P,D5,2,A*
G04 #@! TO.N,PIN114*
G04 #@! TA.AperFunction,SMDPad,CuDef*
G36*
G01*
X103320000Y62255000D02*
X103320000Y63555000D01*
G75*
G02*
X103570000Y63805000I250000J0D01*
G01*
X105570000Y63805000D01*
G75*
G02*
X105820000Y63555000I0J-250000D01*
G01*
X105820000Y62255000D01*
G75*
G02*
X105570000Y62005000I-250000J0D01*
G01*
X103570000Y62005000D01*
G75*
G02*
X103320000Y62255000I0J250000D01*
G01*
G37*
G04 #@! TD.AperFunction*
G04 #@! TD*
G04 #@! TO.P,Q5,1,G*
G04 #@! TO.N,Net-(Q5-G)*
G04 #@! TA.AperFunction,SMDPad,CuDef*
G36*
G01*
X65985000Y45160000D02*
X65985000Y45860000D01*
G75*
G02*
X66235000Y46110000I250000J0D01*
G01*
X67935000Y46110000D01*
G75*
G02*
X68185000Y45860000I0J-250000D01*
G01*
X68185000Y45160000D01*
G75*
G02*
X67935000Y44910000I-250000J0D01*
G01*
X66235000Y44910000D01*
G75*
G02*
X65985000Y45160000I0J250000D01*
G01*
G37*
G04 #@! TD.AperFunction*
G04 #@! TO.P,Q5,2,C*
G04 #@! TO.N,PIN11*
G04 #@! TA.AperFunction,SMDPad,CuDef*
G36*
G01*
X70185000Y43630000D02*
X70185000Y45880000D01*
G75*
G02*
X70435000Y46130000I250000J0D01*
G01*
X72985000Y46130000D01*
G75*
G02*
X73235000Y45880000I0J-250000D01*
G01*
X73235000Y43630000D01*
G75*
G02*
X72985000Y43380000I-250000J0D01*
G01*
X70435000Y43380000D01*
G75*
G02*
X70185000Y43630000I0J250000D01*
G01*
G37*
G04 #@! TD.AperFunction*
G04 #@! TA.AperFunction,SMDPad,CuDef*
G36*
G01*
X70185000Y40580000D02*
X70185000Y42830000D01*
G75*
G02*
X70435000Y43080000I250000J0D01*
G01*
X72985000Y43080000D01*
G75*
G02*
X73235000Y42830000I0J-250000D01*
G01*
X73235000Y40580000D01*
G75*
G02*
X72985000Y40330000I-250000J0D01*
G01*
X70435000Y40330000D01*
G75*
G02*
X70185000Y40580000I0J250000D01*
G01*
G37*
G04 #@! TD.AperFunction*
G04 #@! TA.AperFunction,SMDPad,CuDef*
G36*
G01*
X70185000Y40579997D02*
X70185000Y45880003D01*
G75*
G02*
X70434997Y46130000I249997J0D01*
G01*
X76335003Y46130000D01*
G75*
G02*
X76585000Y45880003I0J-249997D01*
G01*
X76585000Y40579997D01*
G75*
G02*
X76335003Y40330000I-249997J0D01*
G01*
X70434997Y40330000D01*
G75*
G02*
X70185000Y40579997I0J249997D01*
G01*
G37*
G04 #@! TD.AperFunction*
G04 #@! TA.AperFunction,SMDPad,CuDef*
G36*
G01*
X73535000Y43630000D02*
X73535000Y45880000D01*
G75*
G02*
X73785000Y46130000I250000J0D01*
G01*
X76335000Y46130000D01*
G75*
G02*
X76585000Y45880000I0J-250000D01*
G01*
X76585000Y43630000D01*
G75*
G02*
X76335000Y43380000I-250000J0D01*
G01*
X73785000Y43380000D01*
G75*
G02*
X73535000Y43630000I0J250000D01*
G01*
G37*
G04 #@! TD.AperFunction*
G04 #@! TA.AperFunction,SMDPad,CuDef*
G36*
G01*
X73535000Y40580000D02*
X73535000Y42830000D01*
G75*
G02*
X73785000Y43080000I250000J0D01*
G01*
X76335000Y43080000D01*
G75*
G02*
X76585000Y42830000I0J-250000D01*
G01*
X76585000Y40580000D01*
G75*
G02*
X76335000Y40330000I-250000J0D01*
G01*
X73785000Y40330000D01*
G75*
G02*
X73535000Y40580000I0J250000D01*
G01*
G37*
G04 #@! TD.AperFunction*
G04 #@! TO.P,Q5,3,E*
G04 #@! TO.N,PIN114*
G04 #@! TA.AperFunction,SMDPad,CuDef*
G36*
G01*
X65985000Y40600000D02*
X65985000Y41300000D01*
G75*
G02*
X66235000Y41550000I250000J0D01*
G01*
X67935000Y41550000D01*
G75*
G02*
X68185000Y41300000I0J-250000D01*
G01*
X68185000Y40600000D01*
G75*
G02*
X67935000Y40350000I-250000J0D01*
G01*
X66235000Y40350000D01*
G75*
G02*
X65985000Y40600000I0J250000D01*
G01*
G37*
G04 #@! TD.AperFunction*
G04 #@! TD*
G04 #@! TO.P,R1,1*
G04 #@! TO.N,PIN106*
G04 #@! TA.AperFunction,SMDPad,CuDef*
G36*
G01*
X24520000Y73737138D02*
X24520000Y74517138D01*
G75*
G02*
X24590000Y74587138I70000J0D01*
G01*
X25150000Y74587138D01*
G75*
G02*
X25220000Y74517138I0J-70000D01*
G01*
X25220000Y73737138D01*
G75*
G02*
X25150000Y73667138I-70000J0D01*
G01*
X24590000Y73667138D01*
G75*
G02*
X24520000Y73737138I0J70000D01*
G01*
G37*
G04 #@! TD.AperFunction*
G04 #@! TO.P,R1,2*
G04 #@! TO.N,PIN20*
G04 #@! TA.AperFunction,SMDPad,CuDef*
G36*
G01*
X26120000Y73737138D02*
X26120000Y74517138D01*
G75*
G02*
X26190000Y74587138I70000J0D01*
G01*
X26750000Y74587138D01*
G75*
G02*
X26820000Y74517138I0J-70000D01*
G01*
X26820000Y73737138D01*
G75*
G02*
X26750000Y73667138I-70000J0D01*
G01*
X26190000Y73667138D01*
G75*
G02*
X26120000Y73737138I0J70000D01*
G01*
G37*
G04 #@! TD.AperFunction*
G04 #@! TD*
G04 #@! TO.P,R39,1*
G04 #@! TO.N,/INJ1*
G04 #@! TA.AperFunction,SMDPad,CuDef*
G36*
G01*
X20620000Y43711908D02*
X20620000Y44491908D01*
G75*
G02*
X20690000Y44561908I70000J0D01*
G01*
X21250000Y44561908D01*
G75*
G02*
X21320000Y44491908I0J-70000D01*
G01*
X21320000Y43711908D01*
G75*
G02*
X21250000Y43641908I-70000J0D01*
G01*
X20690000Y43641908D01*
G75*
G02*
X20620000Y43711908I0J70000D01*
G01*
G37*
G04 #@! TD.AperFunction*
G04 #@! TO.P,R39,2*
G04 #@! TO.N,PIN114*
G04 #@! TA.AperFunction,SMDPad,CuDef*
G36*
G01*
X22220000Y43711908D02*
X22220000Y44491908D01*
G75*
G02*
X22290000Y44561908I70000J0D01*
G01*
X22850000Y44561908D01*
G75*
G02*
X22920000Y44491908I0J-70000D01*
G01*
X22920000Y43711908D01*
G75*
G02*
X22850000Y43641908I-70000J0D01*
G01*
X22290000Y43641908D01*
G75*
G02*
X22220000Y43711908I0J70000D01*
G01*
G37*
G04 #@! TD.AperFunction*
G04 #@! TD*
G04 #@! TO.P,U6,1,IN1*
G04 #@! TO.N,Net-(U6-IN1)*
G04 #@! TA.AperFunction,SMDPad,CuDef*
G36*
G01*
X88825000Y58840000D02*
X88825000Y59140000D01*
G75*
G02*
X88975000Y59290000I150000J0D01*
G01*
X90625000Y59290000D01*
G75*
G02*
X90775000Y59140000I0J-150000D01*
G01*
X90775000Y58840000D01*
G75*
G02*
X90625000Y58690000I-150000J0D01*
G01*
X88975000Y58690000D01*
G75*
G02*
X88825000Y58840000I0J150000D01*
G01*
G37*
G04 #@! TD.AperFunction*
G04 #@! TO.P,U6,2,STATUS1*
G04 #@! TO.N,unconnected-(U6-STATUS1-Pad2)*
G04 #@! TA.AperFunction,SMDPad,CuDef*
G36*
G01*
X88825000Y57570000D02*
X88825000Y57870000D01*
G75*
G02*
X88975000Y58020000I150000J0D01*
G01*
X90625000Y58020000D01*
G75*
G02*
X90775000Y57870000I0J-150000D01*
G01*
X90775000Y57570000D01*
G75*
G02*
X90625000Y57420000I-150000J0D01*
G01*
X88975000Y57420000D01*
G75*
G02*
X88825000Y57570000I0J150000D01*
G01*
G37*
G04 #@! TD.AperFunction*
G04 #@! TO.P,U6,3,IN2*
G04 #@! TO.N,Net-(U6-IN2)*
G04 #@! TA.AperFunction,SMDPad,CuDef*
G36*
G01*
X88825000Y56300000D02*
X88825000Y56600000D01*
G75*
G02*
X88975000Y56750000I150000J0D01*
G01*
X90625000Y56750000D01*
G75*
G02*
X90775000Y56600000I0J-150000D01*
G01*
X90775000Y56300000D01*
G75*
G02*
X90625000Y56150000I-150000J0D01*
G01*
X88975000Y56150000D01*
G75*
G02*
X88825000Y56300000I0J150000D01*
G01*
G37*
G04 #@! TD.AperFunction*
G04 #@! TO.P,U6,4,STATUS2*
G04 #@! TO.N,unconnected-(U6-STATUS2-Pad4)*
G04 #@! TA.AperFunction,SMDPad,CuDef*
G36*
G01*
X88825000Y55030000D02*
X88825000Y55330000D01*
G75*
G02*
X88975000Y55480000I150000J0D01*
G01*
X90625000Y55480000D01*
G75*
G02*
X90775000Y55330000I0J-150000D01*
G01*
X90775000Y55030000D01*
G75*
G02*
X90625000Y54880000I-150000J0D01*
G01*
X88975000Y54880000D01*
G75*
G02*
X88825000Y55030000I0J150000D01*
G01*
G37*
G04 #@! TD.AperFunction*
G04 #@! TO.P,U6,5,S2*
G04 #@! TO.N,PIN114*
G04 #@! TA.AperFunction,SMDPad,CuDef*
G36*
G01*
X93775000Y55030000D02*
X93775000Y55330000D01*
G75*
G02*
X93925000Y55480000I150000J0D01*
G01*
X95575000Y55480000D01*
G75*
G02*
X95725000Y55330000I0J-150000D01*
G01*
X95725000Y55030000D01*
G75*
G02*
X95575000Y54880000I-150000J0D01*
G01*
X93925000Y54880000D01*
G75*
G02*
X93775000Y55030000I0J150000D01*
G01*
G37*
G04 #@! TD.AperFunction*
G04 #@! TO.P,U6,6,D2*
G04 #@! TO.N,PIN45*
G04 #@! TA.AperFunction,SMDPad,CuDef*
G36*
G01*
X93775000Y56300000D02*
X93775000Y56600000D01*
G75*
G02*
X93925000Y56750000I150000J0D01*
G01*
X95575000Y56750000D01*
G75*
G02*
X95725000Y56600000I0J-150000D01*
G01*
X95725000Y56300000D01*
G75*
G02*
X95575000Y56150000I-150000J0D01*
G01*
X93925000Y56150000D01*
G75*
G02*
X93775000Y56300000I0J150000D01*
G01*
G37*
G04 #@! TD.AperFunction*
G04 #@! TO.P,U6,7,S1*
G04 #@! TO.N,PIN114*
G04 #@! TA.AperFunction,SMDPad,CuDef*
G36*
G01*
X93775000Y57570000D02*
X93775000Y57870000D01*
G75*
G02*
X93925000Y58020000I150000J0D01*
G01*
X95575000Y58020000D01*
G75*
G02*
X95725000Y57870000I0J-150000D01*
G01*
X95725000Y57570000D01*
G75*
G02*
X95575000Y57420000I-150000J0D01*
G01*
X93925000Y57420000D01*
G75*
G02*
X93775000Y57570000I0J150000D01*
G01*
G37*
G04 #@! TD.AperFunction*
G04 #@! TO.P,U6,8,D1*
G04 #@! TO.N,PIN44*
G04 #@! TA.AperFunction,SMDPad,CuDef*
G36*
G01*
X93775000Y58840000D02*
X93775000Y59140000D01*
G75*
G02*
X93925000Y59290000I150000J0D01*
G01*
X95575000Y59290000D01*
G75*
G02*
X95725000Y59140000I0J-150000D01*
G01*
X95725000Y58840000D01*
G75*
G02*
X95575000Y58690000I-150000J0D01*
G01*
X93925000Y58690000D01*
G75*
G02*
X93775000Y58840000I0J150000D01*
G01*
G37*
G04 #@! TD.AperFunction*
G04 #@! TD*
G04 #@! TO.P,Q6,1,G*
G04 #@! TO.N,Net-(Q6-G)*
G04 #@! TA.AperFunction,SMDPad,CuDef*
G36*
G01*
X65985000Y36965000D02*
X65985000Y37665000D01*
G75*
G02*
X66235000Y37915000I250000J0D01*
G01*
X67935000Y37915000D01*
G75*
G02*
X68185000Y37665000I0J-250000D01*
G01*
X68185000Y36965000D01*
G75*
G02*
X67935000Y36715000I-250000J0D01*
G01*
X66235000Y36715000D01*
G75*
G02*
X65985000Y36965000I0J250000D01*
G01*
G37*
G04 #@! TD.AperFunction*
G04 #@! TO.P,Q6,2,C*
G04 #@! TO.N,PIN8*
G04 #@! TA.AperFunction,SMDPad,CuDef*
G36*
G01*
X70185000Y35435000D02*
X70185000Y37685000D01*
G75*
G02*
X70435000Y37935000I250000J0D01*
G01*
X72985000Y37935000D01*
G75*
G02*
X73235000Y37685000I0J-250000D01*
G01*
X73235000Y35435000D01*
G75*
G02*
X72985000Y35185000I-250000J0D01*
G01*
X70435000Y35185000D01*
G75*
G02*
X70185000Y35435000I0J250000D01*
G01*
G37*
G04 #@! TD.AperFunction*
G04 #@! TA.AperFunction,SMDPad,CuDef*
G36*
G01*
X70185000Y32385000D02*
X70185000Y34635000D01*
G75*
G02*
X70435000Y34885000I250000J0D01*
G01*
X72985000Y34885000D01*
G75*
G02*
X73235000Y34635000I0J-250000D01*
G01*
X73235000Y32385000D01*
G75*
G02*
X72985000Y32135000I-250000J0D01*
G01*
X70435000Y32135000D01*
G75*
G02*
X70185000Y32385000I0J250000D01*
G01*
G37*
G04 #@! TD.AperFunction*
G04 #@! TA.AperFunction,SMDPad,CuDef*
G36*
G01*
X70185000Y32384997D02*
X70185000Y37685003D01*
G75*
G02*
X70434997Y37935000I249997J0D01*
G01*
X76335003Y37935000D01*
G75*
G02*
X76585000Y37685003I0J-249997D01*
G01*
X76585000Y32384997D01*
G75*
G02*
X76335003Y32135000I-249997J0D01*
G01*
X70434997Y32135000D01*
G75*
G02*
X70185000Y32384997I0J249997D01*
G01*
G37*
G04 #@! TD.AperFunction*
G04 #@! TA.AperFunction,SMDPad,CuDef*
G36*
G01*
X73535000Y35435000D02*
X73535000Y37685000D01*
G75*
G02*
X73785000Y37935000I250000J0D01*
G01*
X76335000Y37935000D01*
G75*
G02*
X76585000Y37685000I0J-250000D01*
G01*
X76585000Y35435000D01*
G75*
G02*
X76335000Y35185000I-250000J0D01*
G01*
X73785000Y35185000D01*
G75*
G02*
X73535000Y35435000I0J250000D01*
G01*
G37*
G04 #@! TD.AperFunction*
G04 #@! TA.AperFunction,SMDPad,CuDef*
G36*
G01*
X73535000Y32385000D02*
X73535000Y34635000D01*
G75*
G02*
X73785000Y34885000I250000J0D01*
G01*
X76335000Y34885000D01*
G75*
G02*
X76585000Y34635000I0J-250000D01*
G01*
X76585000Y32385000D01*
G75*
G02*
X76335000Y32135000I-250000J0D01*
G01*
X73785000Y32135000D01*
G75*
G02*
X73535000Y32385000I0J250000D01*
G01*
G37*
G04 #@! TD.AperFunction*
G04 #@! TO.P,Q6,3,E*
G04 #@! TO.N,PIN114*
G04 #@! TA.AperFunction,SMDPad,CuDef*
G36*
G01*
X65985000Y32405000D02*
X65985000Y33105000D01*
G75*
G02*
X66235000Y33355000I250000J0D01*
G01*
X67935000Y33355000D01*
G75*
G02*
X68185000Y33105000I0J-250000D01*
G01*
X68185000Y32405000D01*
G75*
G02*
X67935000Y32155000I-250000J0D01*
G01*
X66235000Y32155000D01*
G75*
G02*
X65985000Y32405000I0J250000D01*
G01*
G37*
G04 #@! TD.AperFunction*
G04 #@! TD*
G04 #@! TO.P,R50,1*
G04 #@! TO.N,/LS_HOT2*
G04 #@! TA.AperFunction,SMDPad,CuDef*
G36*
G01*
X43250000Y53457138D02*
X43250000Y54237138D01*
G75*
G02*
X43320000Y54307138I70000J0D01*
G01*
X43880000Y54307138D01*
G75*
G02*
X43950000Y54237138I0J-70000D01*
G01*
X43950000Y53457138D01*
G75*
G02*
X43880000Y53387138I-70000J0D01*
G01*
X43320000Y53387138D01*
G75*
G02*
X43250000Y53457138I0J70000D01*
G01*
G37*
G04 #@! TD.AperFunction*
G04 #@! TO.P,R50,2*
G04 #@! TO.N,Net-(U7-IN1)*
G04 #@! TA.AperFunction,SMDPad,CuDef*
G36*
G01*
X44850000Y53457138D02*
X44850000Y54237138D01*
G75*
G02*
X44920000Y54307138I70000J0D01*
G01*
X45480000Y54307138D01*
G75*
G02*
X45550000Y54237138I0J-70000D01*
G01*
X45550000Y53457138D01*
G75*
G02*
X45480000Y53387138I-70000J0D01*
G01*
X44920000Y53387138D01*
G75*
G02*
X44850000Y53457138I0J70000D01*
G01*
G37*
G04 #@! TD.AperFunction*
G04 #@! TD*
G04 #@! TO.P,R28,1*
G04 #@! TO.N,Net-(Q4-G)*
G04 #@! TA.AperFunction,SMDPad,CuDef*
G36*
G01*
X32520000Y47610000D02*
X32520000Y48390000D01*
G75*
G02*
X32590000Y48460000I70000J0D01*
G01*
X33150000Y48460000D01*
G75*
G02*
X33220000Y48390000I0J-70000D01*
G01*
X33220000Y47610000D01*
G75*
G02*
X33150000Y47540000I-70000J0D01*
G01*
X32590000Y47540000D01*
G75*
G02*
X32520000Y47610000I0J70000D01*
G01*
G37*
G04 #@! TD.AperFunction*
G04 #@! TO.P,R28,2*
G04 #@! TO.N,Net-(F7-Pad1)*
G04 #@! TA.AperFunction,SMDPad,CuDef*
G36*
G01*
X34120000Y47610000D02*
X34120000Y48390000D01*
G75*
G02*
X34190000Y48460000I70000J0D01*
G01*
X34750000Y48460000D01*
G75*
G02*
X34820000Y48390000I0J-70000D01*
G01*
X34820000Y47610000D01*
G75*
G02*
X34750000Y47540000I-70000J0D01*
G01*
X34190000Y47540000D01*
G75*
G02*
X34120000Y47610000I0J70000D01*
G01*
G37*
G04 #@! TD.AperFunction*
G04 #@! TD*
G04 #@! TO.P,R9,1*
G04 #@! TO.N,PIN89*
G04 #@! TA.AperFunction,SMDPad,CuDef*
G36*
G01*
X20620000Y68222876D02*
X20620000Y69472876D01*
G75*
G02*
X20720000Y69572876I100000J0D01*
G01*
X21520000Y69572876D01*
G75*
G02*
X21620000Y69472876I0J-100000D01*
G01*
X21620000Y68222876D01*
G75*
G02*
X21520000Y68122876I-100000J0D01*
G01*
X20720000Y68122876D01*
G75*
G02*
X20620000Y68222876I0J100000D01*
G01*
G37*
G04 #@! TD.AperFunction*
G04 #@! TO.P,R9,2*
G04 #@! TO.N,+5VA*
G04 #@! TA.AperFunction,SMDPad,CuDef*
G36*
G01*
X22520022Y68222876D02*
X22520022Y69472876D01*
G75*
G02*
X22620022Y69572876I100000J0D01*
G01*
X23420022Y69572876D01*
G75*
G02*
X23520022Y69472876I0J-100000D01*
G01*
X23520022Y68222876D01*
G75*
G02*
X23420022Y68122876I-100000J0D01*
G01*
X22620022Y68122876D01*
G75*
G02*
X22520022Y68222876I0J100000D01*
G01*
G37*
G04 #@! TD.AperFunction*
G04 #@! TD*
G04 #@! TO.P,R29,1*
G04 #@! TO.N,Net-(Q5-G)*
G04 #@! TA.AperFunction,SMDPad,CuDef*
G36*
G01*
X32520000Y45660954D02*
X32520000Y46440954D01*
G75*
G02*
X32590000Y46510954I70000J0D01*
G01*
X33150000Y46510954D01*
G75*
G02*
X33220000Y46440954I0J-70000D01*
G01*
X33220000Y45660954D01*
G75*
G02*
X33150000Y45590954I-70000J0D01*
G01*
X32590000Y45590954D01*
G75*
G02*
X32520000Y45660954I0J70000D01*
G01*
G37*
G04 #@! TD.AperFunction*
G04 #@! TO.P,R29,2*
G04 #@! TO.N,Net-(F8-Pad1)*
G04 #@! TA.AperFunction,SMDPad,CuDef*
G36*
G01*
X34120000Y45660954D02*
X34120000Y46440954D01*
G75*
G02*
X34190000Y46510954I70000J0D01*
G01*
X34750000Y46510954D01*
G75*
G02*
X34820000Y46440954I0J-70000D01*
G01*
X34820000Y45660954D01*
G75*
G02*
X34750000Y45590954I-70000J0D01*
G01*
X34190000Y45590954D01*
G75*
G02*
X34120000Y45660954I0J70000D01*
G01*
G37*
G04 #@! TD.AperFunction*
G04 #@! TD*
G04 #@! TO.P,M6,E1,V5A_SWITCHABLE*
G04 #@! TO.N,+5VA*
X149050003Y62049990D03*
G04 #@! TO.P,M6,E2,GNDA*
G04 #@! TO.N,unconnected-(M6-GNDA-PadE2)*
X149050013Y66349990D03*
G04 #@! TO.P,M6,E3,I2C_SCL_(PB10)*
G04 #@! TO.N,unconnected-(M6-I2C_SCL_(PB10)-PadE3)*
X149050013Y67149980D03*
G04 #@! TO.P,M6,E4,I2C_SDA_(PB11)*
G04 #@! TO.N,unconnected-(M6-I2C_SDA_(PB11)-PadE4)*
X149050013Y67949990D03*
G04 #@! TO.P,M6,E5,IN_VIGN_(PA5)*
G04 #@! TO.N,/VIGN*
X149050013Y68749990D03*
G04 #@! TO.P,M6,E6,SPI2_CS_/_CAN2_RX_(PB12)*
G04 #@! TO.N,E6INJ7CANRX*
X149050013Y69549990D03*
G04 #@! TO.P,M6,E7,SPI2_SCK_/_CAN2_TX_(PB13)*
G04 #@! TO.N,E7INJ8CANTX*
X149050013Y70349990D03*
G04 #@! TO.P,M6,E8,SPI2_MISO_(PB14)*
G04 #@! TO.N,DC1_DIS_W1*
X149050013Y71149990D03*
G04 #@! TO.P,M6,E9,SPI2_MOSI_(PB15)*
G04 #@! TO.N,/DC2_DIR*
X149050013Y71949990D03*
G04 #@! TO.P,M6,E10,OUT_INJ8_(PD12)*
G04 #@! TO.N,/LS2*
X149050013Y72749990D03*
G04 #@! TO.P,M6,E11,OUT_INJ7_(PD15)*
G04 #@! TO.N,/LS1*
X149050013Y73549990D03*
G04 #@! TO.P,M6,E12,OUT_INJ6_(PA8)*
G04 #@! TO.N,/INJ6*
X149050013Y74349990D03*
G04 #@! TO.P,M6,E13,OUT_INJ5_(PD2)*
G04 #@! TO.N,/INJ5*
X149050013Y75149990D03*
G04 #@! TO.P,M6,E14,OUT_INJ4_(PD10)*
G04 #@! TO.N,/INJ4*
X149050013Y75949990D03*
G04 #@! TO.P,M6,E15,OUT_INJ3_(PD11)*
G04 #@! TO.N,/INJ3*
X149050013Y76749990D03*
G04 #@! TO.P,M6,E16,OUT_INJ2_(PA9)*
G04 #@! TO.N,/INJ2*
X149050003Y77549980D03*
G04 #@! TO.P,M6,E17,OUT_INJ1_(PD3)*
G04 #@! TO.N,/INJ1*
X149050013Y78349990D03*
G04 #@! TO.P,M6,E18,OUT_PWM1_(PD13)*
G04 #@! TO.N,/LS3*
X149050013Y79749990D03*
G04 #@! TO.P,M6,E19,OUT_PWM2_(PC6)*
G04 #@! TO.N,/LS4*
X149050013Y80549980D03*
G04 #@! TO.P,M6,E20,OUT_PWM3_(PC7)*
G04 #@! TO.N,/DC1_PWM*
X149050013Y81349980D03*
G04 #@! TO.P,M6,E21,OUT_PWM4_(PC8)*
G04 #@! TO.N,/DC1_DIR*
X149050013Y82149980D03*
G04 #@! TO.P,M6,E22,OUT_PWM5_(PC9)*
G04 #@! TO.N,/DC2_PWM*
X149050013Y82949980D03*
G04 #@! TO.P,M6,E23,OUT_PWM6_(PD14)*
G04 #@! TO.N,/VR_DISCRETE_THR*
X149050013Y83749990D03*
D45*
G04 #@! TO.P,M6,G,GND*
G04 #@! TO.N,PIN114*
X115450003Y88599980D03*
D46*
X115450003Y85549990D03*
D45*
X115450003Y82499980D03*
D47*
X115450003Y78049990D03*
D48*
X115450003Y64399990D03*
D49*
X115450003Y56399990D03*
D50*
X117250013Y55349980D03*
D51*
X119350003Y91149980D03*
D52*
X125400003Y91149980D03*
D53*
X128900003Y91149980D03*
D50*
X138650003Y91149980D03*
D51*
X146150003Y55349980D03*
D54*
X149250013Y87750000D03*
D46*
X149250013Y79049980D03*
D55*
X149250013Y64199980D03*
D56*
X149250013Y58399980D03*
D31*
G04 #@! TO.P,M6,N1,VBUS*
G04 #@! TO.N,/VBUS*
X148650013Y90949990D03*
G04 #@! TO.P,M6,N2,USBM_(PA11)*
G04 #@! TO.N,/USB-*
X147850013Y90949990D03*
G04 #@! TO.P,M6,N3,USBP_(PA12)*
G04 #@! TO.N,/USB+*
X147050013Y90949990D03*
G04 #@! TO.P,M6,N4,USBID_(PA10)*
G04 #@! TO.N,/DC2_DIS*
X146250003Y90949990D03*
G04 #@! TO.P,M6,N5,SWDIO_(PA13)*
G04 #@! TO.N,unconnected-(M6-SWDIO_(PA13)-PadN5)*
X145450013Y90949990D03*
G04 #@! TO.P,M6,N6,SWCLK_(PA14)*
G04 #@! TO.N,unconnected-(M6-SWCLK_(PA14)-PadN6)*
X144650013Y90949990D03*
G04 #@! TO.P,M6,N7,nReset*
G04 #@! TO.N,unconnected-(M6-nReset-PadN7)*
X143850013Y90949990D03*
G04 #@! TO.P,M6,N8,SWO_(PB3)*
G04 #@! TO.N,unconnected-(M6-SWO_(PB3)-PadN8)*
X143050003Y90949990D03*
G04 #@! TO.P,M6,N9,SPI3_CS_(PA15)*
G04 #@! TO.N,/EGT/SPI_CS*
X142250013Y90949980D03*
G04 #@! TO.P,M6,N10,SPI3_SCK_(PC10)*
G04 #@! TO.N,/SCK3*
X141450013Y90949980D03*
G04 #@! TO.P,M6,N11,SPI3_MISO_(PC11)*
G04 #@! TO.N,/MISO3*
X140650013Y90949980D03*
G04 #@! TO.P,M6,N12,SPI3_MOSI_(PC12)*
G04 #@! TO.N,/PG_5VP*
X139850013Y90949980D03*
G04 #@! TO.P,M6,N13,UART2_TX_(PD5)*
G04 #@! TO.N,PIN7*
X137450003Y90949980D03*
G04 #@! TO.P,M6,N14,UART2_RX_(PD6)*
G04 #@! TO.N,PIN6*
X136650003Y90949980D03*
G04 #@! TO.P,M6,N14a,LED_GREEN*
G04 #@! TO.N,Net-(M6-LED_GREEN)*
X135850013Y90949990D03*
G04 #@! TO.P,M6,N14b,LED_YELLOW*
G04 #@! TO.N,unconnected-(M6-LED_YELLOW-PadN14b)*
X135050003Y90949990D03*
G04 #@! TO.P,M6,N15,V33_SWITCHABLE*
G04 #@! TO.N,+3.3VA*
X134250003Y90949990D03*
G04 #@! TO.P,M6,N16,BOOT0*
G04 #@! TO.N,unconnected-(M6-BOOT0-PadN16)*
X133450003Y90949990D03*
G04 #@! TO.P,M6,N17,VBAT*
G04 #@! TO.N,/VBAT*
X132650003Y90949990D03*
G04 #@! TO.P,M6,N18,UART8_RX_(PE0)*
G04 #@! TO.N,/VR_DISCRETE*
X131850003Y90949980D03*
G04 #@! TO.P,M6,N19,UART8_TX_(PE1)*
G04 #@! TO.N,/VR_MAX9924*
X131050003Y90949980D03*
G04 #@! TO.P,M6,N20,OUT_PWR_EN_(PE10)*
G04 #@! TO.N,/PWR_EN*
X126750003Y90949980D03*
G04 #@! TO.P,M6,N21,V33*
G04 #@! TO.N,+3.3V*
X124050003Y90949980D03*
G04 #@! TO.P,M6,N22,VCC*
G04 #@! TO.N,+5V*
X123050013Y90949980D03*
G04 #@! TO.P,M6,N23,V33*
G04 #@! TO.N,unconnected-(M6-V33-PadN23)*
X115650003Y90949980D03*
G04 #@! TO.P,M6,S1,IN_D4_(PE15)*
G04 #@! TO.N,PIN89*
X142450023Y55549980D03*
G04 #@! TO.P,M6,S2,IN_D3_(PE14)*
G04 #@! TO.N,PIN34*
X141250013Y55549980D03*
G04 #@! TO.P,M6,S3,IN_D2_(PE13)*
G04 #@! TO.N,PIN35*
X140050013Y55549980D03*
G04 #@! TO.P,M6,S4,IN_D1_(PE12)*
G04 #@! TO.N,PIN36*
X138850013Y55549980D03*
G04 #@! TO.P,M6,S5,VREF2*
G04 #@! TO.N,unconnected-(M6-VREF2-PadS5)*
X137650013Y55549980D03*
G04 #@! TO.P,M6,S6,IN_AUX4_(PC5)*
G04 #@! TO.N,/IN_VMAIN*
X136450013Y55549980D03*
G04 #@! TO.P,M6,S7,IN_AUX3_(PA7)*
G04 #@! TO.N,/IN_AUX3*
X135250013Y55549980D03*
G04 #@! TO.P,M6,S8,IN_AUX2_(PC4/PE9)*
G04 #@! TO.N,PIN91*
X134050013Y55549980D03*
G04 #@! TO.P,M6,S9,IN_AUX1_(PB0)*
G04 #@! TO.N,PIN39*
X132850013Y55549980D03*
G04 #@! TO.P,M6,S10,IN_O2S2_(PA1)*
G04 #@! TO.N,PIN41*
X131650013Y55549980D03*
G04 #@! TO.P,M6,S11,IN_O2S_/_CAN_WAKEUP_(PA0)*
G04 #@! TO.N,PIN40*
X130450013Y55549980D03*
G04 #@! TO.P,M6,S12,IN_MAP2_(PC1)*
G04 #@! TO.N,/INTERNAL_MAP*
X129250013Y55549980D03*
G04 #@! TO.P,M6,S13,IN_MAP1_(PC0)*
G04 #@! TO.N,PIN37*
X128050013Y55549980D03*
G04 #@! TO.P,M6,S14,IN_CRANK_(PB1)*
G04 #@! TO.N,PIN84*
X126850013Y55549980D03*
G04 #@! TO.P,M6,S15,IN_KNOCK_(PA2)*
G04 #@! TO.N,/ADC3*
X125650013Y55549980D03*
G04 #@! TO.P,M6,S16,IN_CAM_(PA6)*
G04 #@! TO.N,PIN85*
X124450013Y55549980D03*
G04 #@! TO.P,M6,S17,IN_VSS_(PE11)*
G04 #@! TO.N,PIN42*
X123250013Y55549980D03*
G04 #@! TO.P,M6,S18,IN_TPS_(PA4)*
G04 #@! TO.N,PIN38*
X122050003Y55549980D03*
G04 #@! TO.P,M6,S19,IN_PPS_(PA3)*
G04 #@! TO.N,PIN90*
X120850003Y55549980D03*
G04 #@! TO.P,M6,S20,IN_IAT_(PC3)*
G04 #@! TO.N,PIN63*
X119650003Y55549980D03*
G04 #@! TO.P,M6,S21,IN_CLT_(PC2)*
G04 #@! TO.N,PIN65*
X118450003Y55549980D03*
G04 #@! TO.P,M6,S22,VREF1*
G04 #@! TO.N,/VREF1*
X116050003Y55549980D03*
G04 #@! TO.P,M6,W1,GNDA*
G04 #@! TO.N,PIN113*
X115650003Y58049990D03*
G04 #@! TO.P,M6,W2,V5A_SWITCHABLE*
G04 #@! TO.N,+5VA*
X115650003Y59049990D03*
G04 #@! TO.P,M6,W3,IGN8_(PE6)*
G04 #@! TO.N,/LS_HOT2*
X115650003Y69749980D03*
G04 #@! TO.P,M6,W4,IGN7_(PB9)*
G04 #@! TO.N,/LS_HOT1*
X115650003Y70749990D03*
G04 #@! TO.P,M6,W5,IGN6_(PB8)*
G04 #@! TO.N,/IGN6*
X115650003Y71749980D03*
G04 #@! TO.P,M6,W6,IGN5_(PE2)*
G04 #@! TO.N,/IGN5*
X115650003Y72749980D03*
G04 #@! TO.P,M6,W7,IGN4_(PE3)*
G04 #@! TO.N,/IGN4*
X115650003Y73749980D03*
G04 #@! TO.P,M6,W8,IGN3_(PE4)*
G04 #@! TO.N,/IGN3*
X115650003Y74749980D03*
G04 #@! TO.P,M6,W9,IGN2_(PE5)*
G04 #@! TO.N,/IGN2*
X115650003Y75749980D03*
G04 #@! TO.P,M6,W10,IGN1_(PC13)*
G04 #@! TO.N,/IGN1*
X115650003Y76749980D03*
G04 #@! TO.P,M6,W11,CANH*
G04 #@! TO.N,PIN82*
X115650003Y79349980D03*
G04 #@! TO.P,M6,W12,CANL*
G04 #@! TO.N,PIN83*
X115650003Y80149980D03*
G04 #@! TO.P,M6,W13,V33_REF*
G04 #@! TO.N,unconnected-(M6-V33_REF-PadW13)*
X115650003Y84849990D03*
G04 #@! TO.P,M6,W14,V5A_SWITCHABLE*
G04 #@! TO.N,unconnected-(M6-V5A_SWITCHABLE-PadW14)*
X115650003Y86249980D03*
G04 #@! TD*
G04 #@! TO.P,R16,1*
G04 #@! TO.N,/LS1*
G04 #@! TA.AperFunction,SMDPad,CuDef*
G36*
G01*
X43250000Y69839046D02*
X43250000Y70619046D01*
G75*
G02*
X43320000Y70689046I70000J0D01*
G01*
X43880000Y70689046D01*
G75*
G02*
X43950000Y70619046I0J-70000D01*
G01*
X43950000Y69839046D01*
G75*
G02*
X43880000Y69769046I-70000J0D01*
G01*
X43320000Y69769046D01*
G75*
G02*
X43250000Y69839046I0J70000D01*
G01*
G37*
G04 #@! TD.AperFunction*
G04 #@! TO.P,R16,2*
G04 #@! TO.N,PIN114*
G04 #@! TA.AperFunction,SMDPad,CuDef*
G36*
G01*
X44850000Y69839046D02*
X44850000Y70619046D01*
G75*
G02*
X44920000Y70689046I70000J0D01*
G01*
X45480000Y70689046D01*
G75*
G02*
X45550000Y70619046I0J-70000D01*
G01*
X45550000Y69839046D01*
G75*
G02*
X45480000Y69769046I-70000J0D01*
G01*
X44920000Y69769046D01*
G75*
G02*
X44850000Y69839046I0J70000D01*
G01*
G37*
G04 #@! TD.AperFunction*
G04 #@! TD*
G04 #@! TO.P,D1,1,K*
G04 #@! TO.N,PIN117*
G04 #@! TA.AperFunction,SMDPad,CuDef*
G36*
G01*
X28030000Y73033733D02*
X28030000Y74053733D01*
G75*
G02*
X28120000Y74143733I90000J0D01*
G01*
X28840000Y74143733D01*
G75*
G02*
X28930000Y74053733I0J-90000D01*
G01*
X28930000Y73033733D01*
G75*
G02*
X28840000Y72943733I-90000J0D01*
G01*
X28120000Y72943733D01*
G75*
G02*
X28030000Y73033733I0J90000D01*
G01*
G37*
G04 #@! TD.AperFunction*
G04 #@! TO.P,D1,2,A*
G04 #@! TO.N,PIN14*
G04 #@! TA.AperFunction,SMDPad,CuDef*
G36*
G01*
X31330000Y73033733D02*
X31330000Y74053733D01*
G75*
G02*
X31420000Y74143733I90000J0D01*
G01*
X32140000Y74143733D01*
G75*
G02*
X32230000Y74053733I0J-90000D01*
G01*
X32230000Y73033733D01*
G75*
G02*
X32140000Y72943733I-90000J0D01*
G01*
X31420000Y72943733D01*
G75*
G02*
X31330000Y73033733I0J90000D01*
G01*
G37*
G04 #@! TD.AperFunction*
G04 #@! TD*
G04 #@! TO.P,R12,1*
G04 #@! TO.N,PIN113*
G04 #@! TA.AperFunction,SMDPad,CuDef*
G36*
G01*
X20620000Y60714092D02*
X20620000Y61964092D01*
G75*
G02*
X20720000Y62064092I100000J0D01*
G01*
X21520000Y62064092D01*
G75*
G02*
X21620000Y61964092I0J-100000D01*
G01*
X21620000Y60714092D01*
G75*
G02*
X21520000Y60614092I-100000J0D01*
G01*
X20720000Y60614092D01*
G75*
G02*
X20620000Y60714092I0J100000D01*
G01*
G37*
G04 #@! TD.AperFunction*
G04 #@! TO.P,R12,2*
G04 #@! TO.N,PIN89*
G04 #@! TA.AperFunction,SMDPad,CuDef*
G36*
G01*
X22520022Y60714092D02*
X22520022Y61964092D01*
G75*
G02*
X22620022Y62064092I100000J0D01*
G01*
X23420022Y62064092D01*
G75*
G02*
X23520022Y61964092I0J-100000D01*
G01*
X23520022Y60714092D01*
G75*
G02*
X23420022Y60614092I-100000J0D01*
G01*
X22620022Y60614092D01*
G75*
G02*
X22520022Y60714092I0J100000D01*
G01*
G37*
G04 #@! TD.AperFunction*
G04 #@! TD*
G04 #@! TO.P,F4,1*
G04 #@! TO.N,Net-(F4-Pad1)*
G04 #@! TA.AperFunction,SMDPad,CuDef*
G36*
G01*
X78140000Y49328750D02*
X78140000Y49841250D01*
G75*
G02*
X78358750Y50060000I218750J0D01*
G01*
X78796250Y50060000D01*
G75*
G02*
X79015000Y49841250I0J-218750D01*
G01*
X79015000Y49328750D01*
G75*
G02*
X78796250Y49110000I-218750J0D01*
G01*
X78358750Y49110000D01*
G75*
G02*
X78140000Y49328750I0J218750D01*
G01*
G37*
G04 #@! TD.AperFunction*
G04 #@! TO.P,F4,2*
G04 #@! TO.N,/IGN1*
G04 #@! TA.AperFunction,SMDPad,CuDef*
G36*
G01*
X79715000Y49328750D02*
X79715000Y49841250D01*
G75*
G02*
X79933750Y50060000I218750J0D01*
G01*
X80371250Y50060000D01*
G75*
G02*
X80590000Y49841250I0J-218750D01*
G01*
X80590000Y49328750D01*
G75*
G02*
X80371250Y49110000I-218750J0D01*
G01*
X79933750Y49110000D01*
G75*
G02*
X79715000Y49328750I0J218750D01*
G01*
G37*
G04 #@! TD.AperFunction*
G04 #@! TD*
G04 #@! TO.P,R53,1*
G04 #@! TO.N,/LS_HOT1*
G04 #@! TA.AperFunction,SMDPad,CuDef*
G36*
G01*
X43250000Y47610000D02*
X43250000Y48390000D01*
G75*
G02*
X43320000Y48460000I70000J0D01*
G01*
X43880000Y48460000D01*
G75*
G02*
X43950000Y48390000I0J-70000D01*
G01*
X43950000Y47610000D01*
G75*
G02*
X43880000Y47540000I-70000J0D01*
G01*
X43320000Y47540000D01*
G75*
G02*
X43250000Y47610000I0J70000D01*
G01*
G37*
G04 #@! TD.AperFunction*
G04 #@! TO.P,R53,2*
G04 #@! TO.N,PIN114*
G04 #@! TA.AperFunction,SMDPad,CuDef*
G36*
G01*
X44850000Y47610000D02*
X44850000Y48390000D01*
G75*
G02*
X44920000Y48460000I70000J0D01*
G01*
X45480000Y48460000D01*
G75*
G02*
X45550000Y48390000I0J-70000D01*
G01*
X45550000Y47610000D01*
G75*
G02*
X45480000Y47540000I-70000J0D01*
G01*
X44920000Y47540000D01*
G75*
G02*
X44850000Y47610000I0J70000D01*
G01*
G37*
G04 #@! TD.AperFunction*
G04 #@! TD*
D57*
G04 #@! TO.P,J22,1,VBUS*
G04 #@! TO.N,/VBUS*
X30645000Y58898733D03*
D58*
G04 #@! TO.P,J22,2,D-*
G04 #@! TO.N,/USB-*
X31445000Y60648733D03*
G04 #@! TO.P,J22,3,D+*
G04 #@! TO.N,/USB+*
X32245000Y58898733D03*
G04 #@! TO.P,J22,4,ID*
G04 #@! TO.N,unconnected-(J22-ID-Pad4)*
X33045000Y60648733D03*
G04 #@! TO.P,J22,5,GND*
G04 #@! TO.N,PIN114*
X33845000Y58898733D03*
D59*
G04 #@! TO.P,J22,6,Shield*
X28595000Y59773733D03*
X35895000Y59773733D03*
G04 #@! TD*
G04 #@! TO.P,C4,1*
G04 #@! TO.N,PIN114*
G04 #@! TA.AperFunction,SMDPad,CuDef*
G36*
G01*
X37820000Y47683792D02*
X37820000Y48363792D01*
G75*
G02*
X37905000Y48448792I85000J0D01*
G01*
X38585000Y48448792D01*
G75*
G02*
X38670000Y48363792I0J-85000D01*
G01*
X38670000Y47683792D01*
G75*
G02*
X38585000Y47598792I-85000J0D01*
G01*
X37905000Y47598792D01*
G75*
G02*
X37820000Y47683792I0J85000D01*
G01*
G37*
G04 #@! TD.AperFunction*
G04 #@! TO.P,C4,2*
G04 #@! TO.N,+3.3VA*
G04 #@! TA.AperFunction,SMDPad,CuDef*
G36*
G01*
X39400002Y47683792D02*
X39400002Y48363792D01*
G75*
G02*
X39485002Y48448792I85000J0D01*
G01*
X40165002Y48448792D01*
G75*
G02*
X40250002Y48363792I0J-85000D01*
G01*
X40250002Y47683792D01*
G75*
G02*
X40165002Y47598792I-85000J0D01*
G01*
X39485002Y47598792D01*
G75*
G02*
X39400002Y47683792I0J85000D01*
G01*
G37*
G04 #@! TD.AperFunction*
G04 #@! TD*
G04 #@! TO.P,U5,1,IN1*
G04 #@! TO.N,Net-(U5-IN1)*
G04 #@! TA.AperFunction,SMDPad,CuDef*
G36*
G01*
X88825000Y65420000D02*
X88825000Y65720000D01*
G75*
G02*
X88975000Y65870000I150000J0D01*
G01*
X90625000Y65870000D01*
G75*
G02*
X90775000Y65720000I0J-150000D01*
G01*
X90775000Y65420000D01*
G75*
G02*
X90625000Y65270000I-150000J0D01*
G01*
X88975000Y65270000D01*
G75*
G02*
X88825000Y65420000I0J150000D01*
G01*
G37*
G04 #@! TD.AperFunction*
G04 #@! TO.P,U5,2,STATUS1*
G04 #@! TO.N,unconnected-(U5-STATUS1-Pad2)*
G04 #@! TA.AperFunction,SMDPad,CuDef*
G36*
G01*
X88825000Y64150000D02*
X88825000Y64450000D01*
G75*
G02*
X88975000Y64600000I150000J0D01*
G01*
X90625000Y64600000D01*
G75*
G02*
X90775000Y64450000I0J-150000D01*
G01*
X90775000Y64150000D01*
G75*
G02*
X90625000Y64000000I-150000J0D01*
G01*
X88975000Y64000000D01*
G75*
G02*
X88825000Y64150000I0J150000D01*
G01*
G37*
G04 #@! TD.AperFunction*
G04 #@! TO.P,U5,3,IN2*
G04 #@! TO.N,Net-(U5-IN2)*
G04 #@! TA.AperFunction,SMDPad,CuDef*
G36*
G01*
X88825000Y62880000D02*
X88825000Y63180000D01*
G75*
G02*
X88975000Y63330000I150000J0D01*
G01*
X90625000Y63330000D01*
G75*
G02*
X90775000Y63180000I0J-150000D01*
G01*
X90775000Y62880000D01*
G75*
G02*
X90625000Y62730000I-150000J0D01*
G01*
X88975000Y62730000D01*
G75*
G02*
X88825000Y62880000I0J150000D01*
G01*
G37*
G04 #@! TD.AperFunction*
G04 #@! TO.P,U5,4,STATUS2*
G04 #@! TO.N,unconnected-(U5-STATUS2-Pad4)*
G04 #@! TA.AperFunction,SMDPad,CuDef*
G36*
G01*
X88825000Y61610000D02*
X88825000Y61910000D01*
G75*
G02*
X88975000Y62060000I150000J0D01*
G01*
X90625000Y62060000D01*
G75*
G02*
X90775000Y61910000I0J-150000D01*
G01*
X90775000Y61610000D01*
G75*
G02*
X90625000Y61460000I-150000J0D01*
G01*
X88975000Y61460000D01*
G75*
G02*
X88825000Y61610000I0J150000D01*
G01*
G37*
G04 #@! TD.AperFunction*
G04 #@! TO.P,U5,5,S2*
G04 #@! TO.N,PIN114*
G04 #@! TA.AperFunction,SMDPad,CuDef*
G36*
G01*
X93775000Y61610000D02*
X93775000Y61910000D01*
G75*
G02*
X93925000Y62060000I150000J0D01*
G01*
X95575000Y62060000D01*
G75*
G02*
X95725000Y61910000I0J-150000D01*
G01*
X95725000Y61610000D01*
G75*
G02*
X95575000Y61460000I-150000J0D01*
G01*
X93925000Y61460000D01*
G75*
G02*
X93775000Y61610000I0J150000D01*
G01*
G37*
G04 #@! TD.AperFunction*
G04 #@! TO.P,U5,6,D2*
G04 #@! TO.N,PIN49*
G04 #@! TA.AperFunction,SMDPad,CuDef*
G36*
G01*
X93775000Y62880000D02*
X93775000Y63180000D01*
G75*
G02*
X93925000Y63330000I150000J0D01*
G01*
X95575000Y63330000D01*
G75*
G02*
X95725000Y63180000I0J-150000D01*
G01*
X95725000Y62880000D01*
G75*
G02*
X95575000Y62730000I-150000J0D01*
G01*
X93925000Y62730000D01*
G75*
G02*
X93775000Y62880000I0J150000D01*
G01*
G37*
G04 #@! TD.AperFunction*
G04 #@! TO.P,U5,7,S1*
G04 #@! TO.N,PIN114*
G04 #@! TA.AperFunction,SMDPad,CuDef*
G36*
G01*
X93775000Y64150000D02*
X93775000Y64450000D01*
G75*
G02*
X93925000Y64600000I150000J0D01*
G01*
X95575000Y64600000D01*
G75*
G02*
X95725000Y64450000I0J-150000D01*
G01*
X95725000Y64150000D01*
G75*
G02*
X95575000Y64000000I-150000J0D01*
G01*
X93925000Y64000000D01*
G75*
G02*
X93775000Y64150000I0J150000D01*
G01*
G37*
G04 #@! TD.AperFunction*
G04 #@! TO.P,U5,8,D1*
G04 #@! TO.N,PIN48*
G04 #@! TA.AperFunction,SMDPad,CuDef*
G36*
G01*
X93775000Y65420000D02*
X93775000Y65720000D01*
G75*
G02*
X93925000Y65870000I150000J0D01*
G01*
X95575000Y65870000D01*
G75*
G02*
X95725000Y65720000I0J-150000D01*
G01*
X95725000Y65420000D01*
G75*
G02*
X95575000Y65270000I-150000J0D01*
G01*
X93925000Y65270000D01*
G75*
G02*
X93775000Y65420000I0J150000D01*
G01*
G37*
G04 #@! TD.AperFunction*
G04 #@! TD*
G04 #@! TO.P,R5,1*
G04 #@! TO.N,/IN_KNOCK*
G04 #@! TA.AperFunction,SMDPad,CuDef*
G36*
G01*
X24520000Y67890000D02*
X24520000Y68670000D01*
G75*
G02*
X24590000Y68740000I70000J0D01*
G01*
X25150000Y68740000D01*
G75*
G02*
X25220000Y68670000I0J-70000D01*
G01*
X25220000Y67890000D01*
G75*
G02*
X25150000Y67820000I-70000J0D01*
G01*
X24590000Y67820000D01*
G75*
G02*
X24520000Y67890000I0J70000D01*
G01*
G37*
G04 #@! TD.AperFunction*
G04 #@! TO.P,R5,2*
G04 #@! TO.N,/ADC3*
G04 #@! TA.AperFunction,SMDPad,CuDef*
G36*
G01*
X26120000Y67890000D02*
X26120000Y68670000D01*
G75*
G02*
X26190000Y68740000I70000J0D01*
G01*
X26750000Y68740000D01*
G75*
G02*
X26820000Y68670000I0J-70000D01*
G01*
X26820000Y67890000D01*
G75*
G02*
X26750000Y67820000I-70000J0D01*
G01*
X26190000Y67820000D01*
G75*
G02*
X26120000Y67890000I0J70000D01*
G01*
G37*
G04 #@! TD.AperFunction*
G04 #@! TD*
G04 #@! TO.P,C5,1*
G04 #@! TO.N,PIN114*
G04 #@! TA.AperFunction,SMDPad,CuDef*
G36*
G01*
X37820000Y45733807D02*
X37820000Y46413807D01*
G75*
G02*
X37905000Y46498807I85000J0D01*
G01*
X38585000Y46498807D01*
G75*
G02*
X38670000Y46413807I0J-85000D01*
G01*
X38670000Y45733807D01*
G75*
G02*
X38585000Y45648807I-85000J0D01*
G01*
X37905000Y45648807D01*
G75*
G02*
X37820000Y45733807I0J85000D01*
G01*
G37*
G04 #@! TD.AperFunction*
G04 #@! TO.P,C5,2*
G04 #@! TO.N,+3.3VA*
G04 #@! TA.AperFunction,SMDPad,CuDef*
G36*
G01*
X39400002Y45733807D02*
X39400002Y46413807D01*
G75*
G02*
X39485002Y46498807I85000J0D01*
G01*
X40165002Y46498807D01*
G75*
G02*
X40250002Y46413807I0J-85000D01*
G01*
X40250002Y45733807D01*
G75*
G02*
X40165002Y45648807I-85000J0D01*
G01*
X39485002Y45648807D01*
G75*
G02*
X39400002Y45733807I0J85000D01*
G01*
G37*
G04 #@! TD.AperFunction*
G04 #@! TD*
G04 #@! TO.P,R37,1*
G04 #@! TO.N,E6INJ7CANRX*
G04 #@! TA.AperFunction,SMDPad,CuDef*
G36*
G01*
X20620000Y47610000D02*
X20620000Y48390000D01*
G75*
G02*
X20690000Y48460000I70000J0D01*
G01*
X21250000Y48460000D01*
G75*
G02*
X21320000Y48390000I0J-70000D01*
G01*
X21320000Y47610000D01*
G75*
G02*
X21250000Y47540000I-70000J0D01*
G01*
X20690000Y47540000D01*
G75*
G02*
X20620000Y47610000I0J70000D01*
G01*
G37*
G04 #@! TD.AperFunction*
G04 #@! TO.P,R37,2*
G04 #@! TO.N,PIN114*
G04 #@! TA.AperFunction,SMDPad,CuDef*
G36*
G01*
X22220000Y47610000D02*
X22220000Y48390000D01*
G75*
G02*
X22290000Y48460000I70000J0D01*
G01*
X22850000Y48460000D01*
G75*
G02*
X22920000Y48390000I0J-70000D01*
G01*
X22920000Y47610000D01*
G75*
G02*
X22850000Y47540000I-70000J0D01*
G01*
X22290000Y47540000D01*
G75*
G02*
X22220000Y47610000I0J70000D01*
G01*
G37*
G04 #@! TD.AperFunction*
G04 #@! TD*
G04 #@! TO.P,R30,1*
G04 #@! TO.N,Net-(Q6-G)*
G04 #@! TA.AperFunction,SMDPad,CuDef*
G36*
G01*
X32520000Y43711908D02*
X32520000Y44491908D01*
G75*
G02*
X32590000Y44561908I70000J0D01*
G01*
X33150000Y44561908D01*
G75*
G02*
X33220000Y44491908I0J-70000D01*
G01*
X33220000Y43711908D01*
G75*
G02*
X33150000Y43641908I-70000J0D01*
G01*
X32590000Y43641908D01*
G75*
G02*
X32520000Y43711908I0J70000D01*
G01*
G37*
G04 #@! TD.AperFunction*
G04 #@! TO.P,R30,2*
G04 #@! TO.N,Net-(F9-Pad1)*
G04 #@! TA.AperFunction,SMDPad,CuDef*
G36*
G01*
X34120000Y43711908D02*
X34120000Y44491908D01*
G75*
G02*
X34190000Y44561908I70000J0D01*
G01*
X34750000Y44561908D01*
G75*
G02*
X34820000Y44491908I0J-70000D01*
G01*
X34820000Y43711908D01*
G75*
G02*
X34750000Y43641908I-70000J0D01*
G01*
X34190000Y43641908D01*
G75*
G02*
X34120000Y43711908I0J70000D01*
G01*
G37*
G04 #@! TD.AperFunction*
G04 #@! TD*
D21*
G04 #@! TO.P,F3,1,1*
G04 #@! TO.N,PIN120*
X34290000Y67303733D03*
G04 #@! TA.AperFunction,SMDPad,CuDef*
G36*
G01*
X35634990Y66403733D02*
X34944990Y66403733D01*
G75*
G02*
X34714990Y66633733I0J230000D01*
G01*
X34714990Y67973733D01*
G75*
G02*
X34944990Y68203733I230000J0D01*
G01*
X35634990Y68203733D01*
G75*
G02*
X35864990Y67973733I0J-230000D01*
G01*
X35864990Y66633733D01*
G75*
G02*
X35634990Y66403733I-230000J0D01*
G01*
G37*
G04 #@! TD.AperFunction*
G04 #@! TO.P,F3,2,2*
G04 #@! TO.N,Net-(F3-Pad2)*
G04 #@! TA.AperFunction,SMDPad,CuDef*
G36*
G01*
X38535010Y66403733D02*
X37845010Y66403733D01*
G75*
G02*
X37615010Y66633733I0J230000D01*
G01*
X37615010Y67973733D01*
G75*
G02*
X37845010Y68203733I230000J0D01*
G01*
X38535010Y68203733D01*
G75*
G02*
X38765010Y67973733I0J-230000D01*
G01*
X38765010Y66633733D01*
G75*
G02*
X38535010Y66403733I-230000J0D01*
G01*
G37*
G04 #@! TD.AperFunction*
X39190000Y67303733D03*
G04 #@! TD*
D31*
G04 #@! TO.P,M4,E1,NC*
G04 #@! TO.N,unconnected-(M4-NC-PadE1)*
X165400003Y77300000D03*
G04 #@! TO.P,M4,E2,NC*
G04 #@! TO.N,unconnected-(M4-NC-PadE2)*
X165400003Y76100000D03*
G04 #@! TO.P,M4,E3,OUT*
G04 #@! TO.N,/VR_MAX9924*
X165400003Y78500000D03*
G04 #@! TO.P,M4,E4,V5_IN*
G04 #@! TO.N,+5VA*
X165400003Y79700000D03*
D32*
G04 #@! TO.P,M4,G,GND*
G04 #@! TO.N,PIN114*
X150750003Y77032500D03*
D33*
X150750003Y70982500D03*
D34*
X157762503Y80000000D03*
D35*
X158175003Y70550000D03*
D36*
X165600003Y73012500D03*
D31*
G04 #@! TO.P,M4,W1,VR-*
G04 #@! TO.N,PIN20*
X150975003Y73240000D03*
G04 #@! TO.P,M4,W2,VR+*
G04 #@! TO.N,PIN19*
X150975003Y72240000D03*
G04 #@! TD*
G04 #@! TO.P,R35,1*
G04 #@! TO.N,E7INJ8CANTX*
G04 #@! TA.AperFunction,SMDPad,CuDef*
G36*
G01*
X20620000Y51508092D02*
X20620000Y52288092D01*
G75*
G02*
X20690000Y52358092I70000J0D01*
G01*
X21250000Y52358092D01*
G75*
G02*
X21320000Y52288092I0J-70000D01*
G01*
X21320000Y51508092D01*
G75*
G02*
X21250000Y51438092I-70000J0D01*
G01*
X20690000Y51438092D01*
G75*
G02*
X20620000Y51508092I0J70000D01*
G01*
G37*
G04 #@! TD.AperFunction*
G04 #@! TO.P,R35,2*
G04 #@! TO.N,PIN114*
G04 #@! TA.AperFunction,SMDPad,CuDef*
G36*
G01*
X22220000Y51508092D02*
X22220000Y52288092D01*
G75*
G02*
X22290000Y52358092I70000J0D01*
G01*
X22850000Y52358092D01*
G75*
G02*
X22920000Y52288092I0J-70000D01*
G01*
X22920000Y51508092D01*
G75*
G02*
X22850000Y51438092I-70000J0D01*
G01*
X22290000Y51438092D01*
G75*
G02*
X22220000Y51508092I0J70000D01*
G01*
G37*
G04 #@! TD.AperFunction*
G04 #@! TD*
G04 #@! TO.P,R48,1*
G04 #@! TO.N,/INJ6*
G04 #@! TA.AperFunction,SMDPad,CuDef*
G36*
G01*
X27220000Y49559046D02*
X27220000Y50339046D01*
G75*
G02*
X27290000Y50409046I70000J0D01*
G01*
X27850000Y50409046D01*
G75*
G02*
X27920000Y50339046I0J-70000D01*
G01*
X27920000Y49559046D01*
G75*
G02*
X27850000Y49489046I-70000J0D01*
G01*
X27290000Y49489046D01*
G75*
G02*
X27220000Y49559046I0J70000D01*
G01*
G37*
G04 #@! TD.AperFunction*
G04 #@! TO.P,R48,2*
G04 #@! TO.N,Net-(U5-IN2)*
G04 #@! TA.AperFunction,SMDPad,CuDef*
G36*
G01*
X28820000Y49559046D02*
X28820000Y50339046D01*
G75*
G02*
X28890000Y50409046I70000J0D01*
G01*
X29450000Y50409046D01*
G75*
G02*
X29520000Y50339046I0J-70000D01*
G01*
X29520000Y49559046D01*
G75*
G02*
X29450000Y49489046I-70000J0D01*
G01*
X28890000Y49489046D01*
G75*
G02*
X28820000Y49559046I0J70000D01*
G01*
G37*
G04 #@! TD.AperFunction*
G04 #@! TD*
G04 #@! TO.P,R27,1*
G04 #@! TO.N,Net-(F6-Pad1)*
G04 #@! TA.AperFunction,SMDPad,CuDef*
G36*
G01*
X78130000Y66530000D02*
X78130000Y69380000D01*
G75*
G02*
X78380000Y69630000I250000J0D01*
G01*
X79105000Y69630000D01*
G75*
G02*
X79355000Y69380000I0J-250000D01*
G01*
X79355000Y66530000D01*
G75*
G02*
X79105000Y66280000I-250000J0D01*
G01*
X78380000Y66280000D01*
G75*
G02*
X78130000Y66530000I0J250000D01*
G01*
G37*
G04 #@! TD.AperFunction*
G04 #@! TO.P,R27,2*
G04 #@! TO.N,PIN10*
G04 #@! TA.AperFunction,SMDPad,CuDef*
G36*
G01*
X84055000Y66530000D02*
X84055000Y69380000D01*
G75*
G02*
X84305000Y69630000I250000J0D01*
G01*
X85030000Y69630000D01*
G75*
G02*
X85280000Y69380000I0J-250000D01*
G01*
X85280000Y66530000D01*
G75*
G02*
X85030000Y66280000I-250000J0D01*
G01*
X84305000Y66280000D01*
G75*
G02*
X84055000Y66530000I0J250000D01*
G01*
G37*
G04 #@! TD.AperFunction*
G04 #@! TD*
G04 #@! TO.P,R47,1*
G04 #@! TO.N,/INJ5*
G04 #@! TA.AperFunction,SMDPad,CuDef*
G36*
G01*
X27220000Y51508092D02*
X27220000Y52288092D01*
G75*
G02*
X27290000Y52358092I70000J0D01*
G01*
X27850000Y52358092D01*
G75*
G02*
X27920000Y52288092I0J-70000D01*
G01*
X27920000Y51508092D01*
G75*
G02*
X27850000Y51438092I-70000J0D01*
G01*
X27290000Y51438092D01*
G75*
G02*
X27220000Y51508092I0J70000D01*
G01*
G37*
G04 #@! TD.AperFunction*
G04 #@! TO.P,R47,2*
G04 #@! TO.N,PIN114*
G04 #@! TA.AperFunction,SMDPad,CuDef*
G36*
G01*
X28820000Y51508092D02*
X28820000Y52288092D01*
G75*
G02*
X28890000Y52358092I70000J0D01*
G01*
X29450000Y52358092D01*
G75*
G02*
X29520000Y52288092I0J-70000D01*
G01*
X29520000Y51508092D01*
G75*
G02*
X29450000Y51438092I-70000J0D01*
G01*
X28890000Y51438092D01*
G75*
G02*
X28820000Y51508092I0J70000D01*
G01*
G37*
G04 #@! TD.AperFunction*
G04 #@! TD*
G04 #@! TO.P,C3,1*
G04 #@! TO.N,PIN114*
G04 #@! TA.AperFunction,SMDPad,CuDef*
G36*
G01*
X37820000Y49633777D02*
X37820000Y50313777D01*
G75*
G02*
X37905000Y50398777I85000J0D01*
G01*
X38585000Y50398777D01*
G75*
G02*
X38670000Y50313777I0J-85000D01*
G01*
X38670000Y49633777D01*
G75*
G02*
X38585000Y49548777I-85000J0D01*
G01*
X37905000Y49548777D01*
G75*
G02*
X37820000Y49633777I0J85000D01*
G01*
G37*
G04 #@! TD.AperFunction*
G04 #@! TO.P,C3,2*
G04 #@! TO.N,Net-(U8-T+)*
G04 #@! TA.AperFunction,SMDPad,CuDef*
G36*
G01*
X39400002Y49633777D02*
X39400002Y50313777D01*
G75*
G02*
X39485002Y50398777I85000J0D01*
G01*
X40165002Y50398777D01*
G75*
G02*
X40250002Y50313777I0J-85000D01*
G01*
X40250002Y49633777D01*
G75*
G02*
X40165002Y49548777I-85000J0D01*
G01*
X39485002Y49548777D01*
G75*
G02*
X39400002Y49633777I0J85000D01*
G01*
G37*
G04 #@! TD.AperFunction*
G04 #@! TD*
G04 #@! TO.P,R44,1*
G04 #@! TO.N,/INJ4*
G04 #@! TA.AperFunction,SMDPad,CuDef*
G36*
G01*
X23920000Y45660954D02*
X23920000Y46440954D01*
G75*
G02*
X23990000Y46510954I70000J0D01*
G01*
X24550000Y46510954D01*
G75*
G02*
X24620000Y46440954I0J-70000D01*
G01*
X24620000Y45660954D01*
G75*
G02*
X24550000Y45590954I-70000J0D01*
G01*
X23990000Y45590954D01*
G75*
G02*
X23920000Y45660954I0J70000D01*
G01*
G37*
G04 #@! TD.AperFunction*
G04 #@! TO.P,R44,2*
G04 #@! TO.N,PIN114*
G04 #@! TA.AperFunction,SMDPad,CuDef*
G36*
G01*
X25520000Y45660954D02*
X25520000Y46440954D01*
G75*
G02*
X25590000Y46510954I70000J0D01*
G01*
X26150000Y46510954D01*
G75*
G02*
X26220000Y46440954I0J-70000D01*
G01*
X26220000Y45660954D01*
G75*
G02*
X26150000Y45590954I-70000J0D01*
G01*
X25590000Y45590954D01*
G75*
G02*
X25520000Y45660954I0J70000D01*
G01*
G37*
G04 #@! TD.AperFunction*
G04 #@! TD*
G04 #@! TO.P,R46,1*
G04 #@! TO.N,/INJ5*
G04 #@! TA.AperFunction,SMDPad,CuDef*
G36*
G01*
X27220000Y53457138D02*
X27220000Y54237138D01*
G75*
G02*
X27290000Y54307138I70000J0D01*
G01*
X27850000Y54307138D01*
G75*
G02*
X27920000Y54237138I0J-70000D01*
G01*
X27920000Y53457138D01*
G75*
G02*
X27850000Y53387138I-70000J0D01*
G01*
X27290000Y53387138D01*
G75*
G02*
X27220000Y53457138I0J70000D01*
G01*
G37*
G04 #@! TD.AperFunction*
G04 #@! TO.P,R46,2*
G04 #@! TO.N,Net-(U5-IN1)*
G04 #@! TA.AperFunction,SMDPad,CuDef*
G36*
G01*
X28820000Y53457138D02*
X28820000Y54237138D01*
G75*
G02*
X28890000Y54307138I70000J0D01*
G01*
X29450000Y54307138D01*
G75*
G02*
X29520000Y54237138I0J-70000D01*
G01*
X29520000Y53457138D01*
G75*
G02*
X29450000Y53387138I-70000J0D01*
G01*
X28890000Y53387138D01*
G75*
G02*
X28820000Y53457138I0J70000D01*
G01*
G37*
G04 #@! TD.AperFunction*
G04 #@! TD*
D21*
G04 #@! TO.P,R4,1,1*
G04 #@! TO.N,Net-(M1-PG_5VP)*
X34155391Y64318342D03*
G04 #@! TA.AperFunction,SMDPad,CuDef*
G36*
G01*
X34610390Y63693342D02*
X34610390Y64943342D01*
G75*
G02*
X34710390Y65043342I100000J0D01*
G01*
X35510390Y65043342D01*
G75*
G02*
X35610390Y64943342I0J-100000D01*
G01*
X35610390Y63693342D01*
G75*
G02*
X35510390Y63593342I-100000J0D01*
G01*
X34710390Y63593342D01*
G75*
G02*
X34610390Y63693342I0J100000D01*
G01*
G37*
G04 #@! TD.AperFunction*
G04 #@! TO.P,R4,2,2*
G04 #@! TO.N,/PG_5VP*
G04 #@! TA.AperFunction,SMDPad,CuDef*
G36*
G01*
X36510412Y63693342D02*
X36510412Y64943342D01*
G75*
G02*
X36610412Y65043342I100000J0D01*
G01*
X37410412Y65043342D01*
G75*
G02*
X37510412Y64943342I0J-100000D01*
G01*
X37510412Y63693342D01*
G75*
G02*
X37410412Y63593342I-100000J0D01*
G01*
X36610412Y63593342D01*
G75*
G02*
X36510412Y63693342I0J100000D01*
G01*
G37*
G04 #@! TD.AperFunction*
X37965391Y64318342D03*
G04 #@! TD*
G04 #@! TO.P,Q2,1,G*
G04 #@! TO.N,Net-(Q2-G)*
G04 #@! TA.AperFunction,SMDPad,CuDef*
G36*
G01*
X65985000Y69745000D02*
X65985000Y70445000D01*
G75*
G02*
X66235000Y70695000I250000J0D01*
G01*
X67935000Y70695000D01*
G75*
G02*
X68185000Y70445000I0J-250000D01*
G01*
X68185000Y69745000D01*
G75*
G02*
X67935000Y69495000I-250000J0D01*
G01*
X66235000Y69495000D01*
G75*
G02*
X65985000Y69745000I0J250000D01*
G01*
G37*
G04 #@! TD.AperFunction*
G04 #@! TO.P,Q2,2,C*
G04 #@! TO.N,PIN12*
G04 #@! TA.AperFunction,SMDPad,CuDef*
G36*
G01*
X70185000Y68215000D02*
X70185000Y70465000D01*
G75*
G02*
X70435000Y70715000I250000J0D01*
G01*
X72985000Y70715000D01*
G75*
G02*
X73235000Y70465000I0J-250000D01*
G01*
X73235000Y68215000D01*
G75*
G02*
X72985000Y67965000I-250000J0D01*
G01*
X70435000Y67965000D01*
G75*
G02*
X70185000Y68215000I0J250000D01*
G01*
G37*
G04 #@! TD.AperFunction*
G04 #@! TA.AperFunction,SMDPad,CuDef*
G36*
G01*
X70185000Y65165000D02*
X70185000Y67415000D01*
G75*
G02*
X70435000Y67665000I250000J0D01*
G01*
X72985000Y67665000D01*
G75*
G02*
X73235000Y67415000I0J-250000D01*
G01*
X73235000Y65165000D01*
G75*
G02*
X72985000Y64915000I-250000J0D01*
G01*
X70435000Y64915000D01*
G75*
G02*
X70185000Y65165000I0J250000D01*
G01*
G37*
G04 #@! TD.AperFunction*
G04 #@! TA.AperFunction,SMDPad,CuDef*
G36*
G01*
X70185000Y65164997D02*
X70185000Y70465003D01*
G75*
G02*
X70434997Y70715000I249997J0D01*
G01*
X76335003Y70715000D01*
G75*
G02*
X76585000Y70465003I0J-249997D01*
G01*
X76585000Y65164997D01*
G75*
G02*
X76335003Y64915000I-249997J0D01*
G01*
X70434997Y64915000D01*
G75*
G02*
X70185000Y65164997I0J249997D01*
G01*
G37*
G04 #@! TD.AperFunction*
G04 #@! TA.AperFunction,SMDPad,CuDef*
G36*
G01*
X73535000Y68215000D02*
X73535000Y70465000D01*
G75*
G02*
X73785000Y70715000I250000J0D01*
G01*
X76335000Y70715000D01*
G75*
G02*
X76585000Y70465000I0J-250000D01*
G01*
X76585000Y68215000D01*
G75*
G02*
X76335000Y67965000I-250000J0D01*
G01*
X73785000Y67965000D01*
G75*
G02*
X73535000Y68215000I0J250000D01*
G01*
G37*
G04 #@! TD.AperFunction*
G04 #@! TA.AperFunction,SMDPad,CuDef*
G36*
G01*
X73535000Y65165000D02*
X73535000Y67415000D01*
G75*
G02*
X73785000Y67665000I250000J0D01*
G01*
X76335000Y67665000D01*
G75*
G02*
X76585000Y67415000I0J-250000D01*
G01*
X76585000Y65165000D01*
G75*
G02*
X76335000Y64915000I-250000J0D01*
G01*
X73785000Y64915000D01*
G75*
G02*
X73535000Y65165000I0J250000D01*
G01*
G37*
G04 #@! TD.AperFunction*
G04 #@! TO.P,Q2,3,E*
G04 #@! TO.N,PIN114*
G04 #@! TA.AperFunction,SMDPad,CuDef*
G36*
G01*
X65985000Y65185000D02*
X65985000Y65885000D01*
G75*
G02*
X66235000Y66135000I250000J0D01*
G01*
X67935000Y66135000D01*
G75*
G02*
X68185000Y65885000I0J-250000D01*
G01*
X68185000Y65185000D01*
G75*
G02*
X67935000Y64935000I-250000J0D01*
G01*
X66235000Y64935000D01*
G75*
G02*
X65985000Y65185000I0J250000D01*
G01*
G37*
G04 #@! TD.AperFunction*
G04 #@! TD*
G04 #@! TO.P,Q3,1,G*
G04 #@! TO.N,Net-(Q3-G)*
G04 #@! TA.AperFunction,SMDPad,CuDef*
G36*
G01*
X65985000Y61550000D02*
X65985000Y62250000D01*
G75*
G02*
X66235000Y62500000I250000J0D01*
G01*
X67935000Y62500000D01*
G75*
G02*
X68185000Y62250000I0J-250000D01*
G01*
X68185000Y61550000D01*
G75*
G02*
X67935000Y61300000I-250000J0D01*
G01*
X66235000Y61300000D01*
G75*
G02*
X65985000Y61550000I0J250000D01*
G01*
G37*
G04 #@! TD.AperFunction*
G04 #@! TO.P,Q3,2,C*
G04 #@! TO.N,PIN10*
G04 #@! TA.AperFunction,SMDPad,CuDef*
G36*
G01*
X70185000Y60020000D02*
X70185000Y62270000D01*
G75*
G02*
X70435000Y62520000I250000J0D01*
G01*
X72985000Y62520000D01*
G75*
G02*
X73235000Y62270000I0J-250000D01*
G01*
X73235000Y60020000D01*
G75*
G02*
X72985000Y59770000I-250000J0D01*
G01*
X70435000Y59770000D01*
G75*
G02*
X70185000Y60020000I0J250000D01*
G01*
G37*
G04 #@! TD.AperFunction*
G04 #@! TA.AperFunction,SMDPad,CuDef*
G36*
G01*
X70185000Y56970000D02*
X70185000Y59220000D01*
G75*
G02*
X70435000Y59470000I250000J0D01*
G01*
X72985000Y59470000D01*
G75*
G02*
X73235000Y59220000I0J-250000D01*
G01*
X73235000Y56970000D01*
G75*
G02*
X72985000Y56720000I-250000J0D01*
G01*
X70435000Y56720000D01*
G75*
G02*
X70185000Y56970000I0J250000D01*
G01*
G37*
G04 #@! TD.AperFunction*
G04 #@! TA.AperFunction,SMDPad,CuDef*
G36*
G01*
X70185000Y56969997D02*
X70185000Y62270003D01*
G75*
G02*
X70434997Y62520000I249997J0D01*
G01*
X76335003Y62520000D01*
G75*
G02*
X76585000Y62270003I0J-249997D01*
G01*
X76585000Y56969997D01*
G75*
G02*
X76335003Y56720000I-249997J0D01*
G01*
X70434997Y56720000D01*
G75*
G02*
X70185000Y56969997I0J249997D01*
G01*
G37*
G04 #@! TD.AperFunction*
G04 #@! TA.AperFunction,SMDPad,CuDef*
G36*
G01*
X73535000Y60020000D02*
X73535000Y62270000D01*
G75*
G02*
X73785000Y62520000I250000J0D01*
G01*
X76335000Y62520000D01*
G75*
G02*
X76585000Y62270000I0J-250000D01*
G01*
X76585000Y60020000D01*
G75*
G02*
X76335000Y59770000I-250000J0D01*
G01*
X73785000Y59770000D01*
G75*
G02*
X73535000Y60020000I0J250000D01*
G01*
G37*
G04 #@! TD.AperFunction*
G04 #@! TA.AperFunction,SMDPad,CuDef*
G36*
G01*
X73535000Y56970000D02*
X73535000Y59220000D01*
G75*
G02*
X73785000Y59470000I250000J0D01*
G01*
X76335000Y59470000D01*
G75*
G02*
X76585000Y59220000I0J-250000D01*
G01*
X76585000Y56970000D01*
G75*
G02*
X76335000Y56720000I-250000J0D01*
G01*
X73785000Y56720000D01*
G75*
G02*
X73535000Y56970000I0J250000D01*
G01*
G37*
G04 #@! TD.AperFunction*
G04 #@! TO.P,Q3,3,E*
G04 #@! TO.N,PIN114*
G04 #@! TA.AperFunction,SMDPad,CuDef*
G36*
G01*
X65985000Y56990000D02*
X65985000Y57690000D01*
G75*
G02*
X66235000Y57940000I250000J0D01*
G01*
X67935000Y57940000D01*
G75*
G02*
X68185000Y57690000I0J-250000D01*
G01*
X68185000Y56990000D01*
G75*
G02*
X67935000Y56740000I-250000J0D01*
G01*
X66235000Y56740000D01*
G75*
G02*
X65985000Y56990000I0J250000D01*
G01*
G37*
G04 #@! TD.AperFunction*
G04 #@! TD*
G04 #@! TO.P,F6,1*
G04 #@! TO.N,Net-(F6-Pad1)*
G04 #@! TA.AperFunction,SMDPad,CuDef*
G36*
G01*
X78140000Y44308750D02*
X78140000Y44821250D01*
G75*
G02*
X78358750Y45040000I218750J0D01*
G01*
X78796250Y45040000D01*
G75*
G02*
X79015000Y44821250I0J-218750D01*
G01*
X79015000Y44308750D01*
G75*
G02*
X78796250Y44090000I-218750J0D01*
G01*
X78358750Y44090000D01*
G75*
G02*
X78140000Y44308750I0J218750D01*
G01*
G37*
G04 #@! TD.AperFunction*
G04 #@! TO.P,F6,2*
G04 #@! TO.N,/IGN3*
G04 #@! TA.AperFunction,SMDPad,CuDef*
G36*
G01*
X79715000Y44308750D02*
X79715000Y44821250D01*
G75*
G02*
X79933750Y45040000I218750J0D01*
G01*
X80371250Y45040000D01*
G75*
G02*
X80590000Y44821250I0J-218750D01*
G01*
X80590000Y44308750D01*
G75*
G02*
X80371250Y44090000I-218750J0D01*
G01*
X79933750Y44090000D01*
G75*
G02*
X79715000Y44308750I0J218750D01*
G01*
G37*
G04 #@! TD.AperFunction*
G04 #@! TD*
G04 #@! TO.P,R36,1*
G04 #@! TO.N,E7INJ8CANTX*
G04 #@! TA.AperFunction,SMDPad,CuDef*
G36*
G01*
X20620000Y49559046D02*
X20620000Y50339046D01*
G75*
G02*
X20690000Y50409046I70000J0D01*
G01*
X21250000Y50409046D01*
G75*
G02*
X21320000Y50339046I0J-70000D01*
G01*
X21320000Y49559046D01*
G75*
G02*
X21250000Y49489046I-70000J0D01*
G01*
X20690000Y49489046D01*
G75*
G02*
X20620000Y49559046I0J70000D01*
G01*
G37*
G04 #@! TD.AperFunction*
G04 #@! TO.P,R36,2*
G04 #@! TO.N,Net-(U3-IN2)*
G04 #@! TA.AperFunction,SMDPad,CuDef*
G36*
G01*
X22220000Y49559046D02*
X22220000Y50339046D01*
G75*
G02*
X22290000Y50409046I70000J0D01*
G01*
X22850000Y50409046D01*
G75*
G02*
X22920000Y50339046I0J-70000D01*
G01*
X22920000Y49559046D01*
G75*
G02*
X22850000Y49489046I-70000J0D01*
G01*
X22290000Y49489046D01*
G75*
G02*
X22220000Y49559046I0J70000D01*
G01*
G37*
G04 #@! TD.AperFunction*
G04 #@! TD*
G04 #@! TO.P,F7,1*
G04 #@! TO.N,Net-(F7-Pad1)*
G04 #@! TA.AperFunction,SMDPad,CuDef*
G36*
G01*
X78140000Y41798750D02*
X78140000Y42311250D01*
G75*
G02*
X78358750Y42530000I218750J0D01*
G01*
X78796250Y42530000D01*
G75*
G02*
X79015000Y42311250I0J-218750D01*
G01*
X79015000Y41798750D01*
G75*
G02*
X78796250Y41580000I-218750J0D01*
G01*
X78358750Y41580000D01*
G75*
G02*
X78140000Y41798750I0J218750D01*
G01*
G37*
G04 #@! TD.AperFunction*
G04 #@! TO.P,F7,2*
G04 #@! TO.N,/IGN4*
G04 #@! TA.AperFunction,SMDPad,CuDef*
G36*
G01*
X79715000Y41798750D02*
X79715000Y42311250D01*
G75*
G02*
X79933750Y42530000I218750J0D01*
G01*
X80371250Y42530000D01*
G75*
G02*
X80590000Y42311250I0J-218750D01*
G01*
X80590000Y41798750D01*
G75*
G02*
X80371250Y41580000I-218750J0D01*
G01*
X79933750Y41580000D01*
G75*
G02*
X79715000Y41798750I0J218750D01*
G01*
G37*
G04 #@! TD.AperFunction*
G04 #@! TD*
G04 #@! TO.P,F9,1*
G04 #@! TO.N,Net-(F9-Pad1)*
G04 #@! TA.AperFunction,SMDPad,CuDef*
G36*
G01*
X78140000Y36778750D02*
X78140000Y37291250D01*
G75*
G02*
X78358750Y37510000I218750J0D01*
G01*
X78796250Y37510000D01*
G75*
G02*
X79015000Y37291250I0J-218750D01*
G01*
X79015000Y36778750D01*
G75*
G02*
X78796250Y36560000I-218750J0D01*
G01*
X78358750Y36560000D01*
G75*
G02*
X78140000Y36778750I0J218750D01*
G01*
G37*
G04 #@! TD.AperFunction*
G04 #@! TO.P,F9,2*
G04 #@! TO.N,/IGN6*
G04 #@! TA.AperFunction,SMDPad,CuDef*
G36*
G01*
X79715000Y36778750D02*
X79715000Y37291250D01*
G75*
G02*
X79933750Y37510000I218750J0D01*
G01*
X80371250Y37510000D01*
G75*
G02*
X80590000Y37291250I0J-218750D01*
G01*
X80590000Y36778750D01*
G75*
G02*
X80371250Y36560000I-218750J0D01*
G01*
X79933750Y36560000D01*
G75*
G02*
X79715000Y36778750I0J218750D01*
G01*
G37*
G04 #@! TD.AperFunction*
G04 #@! TD*
G04 #@! TO.P,U10,1,OUT*
G04 #@! TO.N,PIN43*
G04 #@! TA.AperFunction,SMDPad,CuDef*
G36*
G01*
X99275000Y71285000D02*
X99275000Y71685000D01*
G75*
G02*
X99475000Y71885000I200000J0D01*
G01*
X101275000Y71885000D01*
G75*
G02*
X101475000Y71685000I0J-200000D01*
G01*
X101475000Y71285000D01*
G75*
G02*
X101275000Y71085000I-200000J0D01*
G01*
X99475000Y71085000D01*
G75*
G02*
X99275000Y71285000I0J200000D01*
G01*
G37*
G04 #@! TD.AperFunction*
G04 #@! TO.P,U10,2,IN*
G04 #@! TO.N,Net-(Q7-D)*
G04 #@! TA.AperFunction,SMDPad,CuDef*
G36*
G01*
X99275000Y70145000D02*
X99275000Y70545000D01*
G75*
G02*
X99475000Y70745000I200000J0D01*
G01*
X101275000Y70745000D01*
G75*
G02*
X101475000Y70545000I0J-200000D01*
G01*
X101475000Y70145000D01*
G75*
G02*
X101275000Y69945000I-200000J0D01*
G01*
X99475000Y69945000D01*
G75*
G02*
X99275000Y70145000I0J200000D01*
G01*
G37*
G04 #@! TD.AperFunction*
G04 #@! TO.P,U10,3,Vbb*
G04 #@! TO.N,PIN120*
G04 #@! TA.AperFunction,SMDPad,CuDef*
G36*
G01*
X103475000Y69605000D02*
X103475000Y71855000D01*
G75*
G02*
X103725000Y72105000I250000J0D01*
G01*
X106275000Y72105000D01*
G75*
G02*
X106525000Y71855000I0J-250000D01*
G01*
X106525000Y69605000D01*
G75*
G02*
X106275000Y69355000I-250000J0D01*
G01*
X103725000Y69355000D01*
G75*
G02*
X103475000Y69605000I0J250000D01*
G01*
G37*
G04 #@! TD.AperFunction*
G04 #@! TA.AperFunction,SMDPad,CuDef*
G36*
G01*
X103475000Y66555000D02*
X103475000Y68805000D01*
G75*
G02*
X103725000Y69055000I250000J0D01*
G01*
X106275000Y69055000D01*
G75*
G02*
X106525000Y68805000I0J-250000D01*
G01*
X106525000Y66555000D01*
G75*
G02*
X106275000Y66305000I-250000J0D01*
G01*
X103725000Y66305000D01*
G75*
G02*
X103475000Y66555000I0J250000D01*
G01*
G37*
G04 #@! TD.AperFunction*
G04 #@! TA.AperFunction,SMDPad,CuDef*
G36*
G01*
X103475000Y66554997D02*
X103475000Y71855003D01*
G75*
G02*
X103724997Y72105000I249997J0D01*
G01*
X109625003Y72105000D01*
G75*
G02*
X109875000Y71855003I0J-249997D01*
G01*
X109875000Y66554997D01*
G75*
G02*
X109625003Y66305000I-249997J0D01*
G01*
X103724997Y66305000D01*
G75*
G02*
X103475000Y66554997I0J249997D01*
G01*
G37*
G04 #@! TD.AperFunction*
G04 #@! TA.AperFunction,SMDPad,CuDef*
G36*
G01*
X106825000Y69605000D02*
X106825000Y71855000D01*
G75*
G02*
X107075000Y72105000I250000J0D01*
G01*
X109625000Y72105000D01*
G75*
G02*
X109875000Y71855000I0J-250000D01*
G01*
X109875000Y69605000D01*
G75*
G02*
X109625000Y69355000I-250000J0D01*
G01*
X107075000Y69355000D01*
G75*
G02*
X106825000Y69605000I0J250000D01*
G01*
G37*
G04 #@! TD.AperFunction*
G04 #@! TA.AperFunction,SMDPad,CuDef*
G36*
G01*
X106825000Y66555000D02*
X106825000Y68805000D01*
G75*
G02*
X107075000Y69055000I250000J0D01*
G01*
X109625000Y69055000D01*
G75*
G02*
X109875000Y68805000I0J-250000D01*
G01*
X109875000Y66555000D01*
G75*
G02*
X109625000Y66305000I-250000J0D01*
G01*
X107075000Y66305000D01*
G75*
G02*
X106825000Y66555000I0J250000D01*
G01*
G37*
G04 #@! TD.AperFunction*
G04 #@! TO.P,U10,4,IS*
G04 #@! TO.N,Net-(U10-IS)*
G04 #@! TA.AperFunction,SMDPad,CuDef*
G36*
G01*
X99275000Y67865000D02*
X99275000Y68265000D01*
G75*
G02*
X99475000Y68465000I200000J0D01*
G01*
X101275000Y68465000D01*
G75*
G02*
X101475000Y68265000I0J-200000D01*
G01*
X101475000Y67865000D01*
G75*
G02*
X101275000Y67665000I-200000J0D01*
G01*
X99475000Y67665000D01*
G75*
G02*
X99275000Y67865000I0J200000D01*
G01*
G37*
G04 #@! TD.AperFunction*
G04 #@! TO.P,U10,5,OUT*
G04 #@! TO.N,PIN43*
G04 #@! TA.AperFunction,SMDPad,CuDef*
G36*
G01*
X99275000Y66725000D02*
X99275000Y67125000D01*
G75*
G02*
X99475000Y67325000I200000J0D01*
G01*
X101275000Y67325000D01*
G75*
G02*
X101475000Y67125000I0J-200000D01*
G01*
X101475000Y66725000D01*
G75*
G02*
X101275000Y66525000I-200000J0D01*
G01*
X99475000Y66525000D01*
G75*
G02*
X99275000Y66725000I0J200000D01*
G01*
G37*
G04 #@! TD.AperFunction*
G04 #@! TD*
G04 #@! TO.P,R34,1*
G04 #@! TO.N,E6INJ7CANRX*
G04 #@! TA.AperFunction,SMDPad,CuDef*
G36*
G01*
X20620000Y53457138D02*
X20620000Y54237138D01*
G75*
G02*
X20690000Y54307138I70000J0D01*
G01*
X21250000Y54307138D01*
G75*
G02*
X21320000Y54237138I0J-70000D01*
G01*
X21320000Y53457138D01*
G75*
G02*
X21250000Y53387138I-70000J0D01*
G01*
X20690000Y53387138D01*
G75*
G02*
X20620000Y53457138I0J70000D01*
G01*
G37*
G04 #@! TD.AperFunction*
G04 #@! TO.P,R34,2*
G04 #@! TO.N,Net-(U3-IN1)*
G04 #@! TA.AperFunction,SMDPad,CuDef*
G36*
G01*
X22220000Y53457138D02*
X22220000Y54237138D01*
G75*
G02*
X22290000Y54307138I70000J0D01*
G01*
X22850000Y54307138D01*
G75*
G02*
X22920000Y54237138I0J-70000D01*
G01*
X22920000Y53457138D01*
G75*
G02*
X22850000Y53387138I-70000J0D01*
G01*
X22290000Y53387138D01*
G75*
G02*
X22220000Y53457138I0J70000D01*
G01*
G37*
G04 #@! TD.AperFunction*
G04 #@! TD*
G04 #@! TO.P,R7,1*
G04 #@! TO.N,PIN84*
G04 #@! TA.AperFunction,SMDPad,CuDef*
G36*
G01*
X20620000Y73228732D02*
X20620000Y74478732D01*
G75*
G02*
X20720000Y74578732I100000J0D01*
G01*
X21520000Y74578732D01*
G75*
G02*
X21620000Y74478732I0J-100000D01*
G01*
X21620000Y73228732D01*
G75*
G02*
X21520000Y73128732I-100000J0D01*
G01*
X20720000Y73128732D01*
G75*
G02*
X20620000Y73228732I0J100000D01*
G01*
G37*
G04 #@! TD.AperFunction*
G04 #@! TO.P,R7,2*
G04 #@! TO.N,+5VA*
G04 #@! TA.AperFunction,SMDPad,CuDef*
G36*
G01*
X22520022Y73228732D02*
X22520022Y74478732D01*
G75*
G02*
X22620022Y74578732I100000J0D01*
G01*
X23420022Y74578732D01*
G75*
G02*
X23520022Y74478732I0J-100000D01*
G01*
X23520022Y73228732D01*
G75*
G02*
X23420022Y73128732I-100000J0D01*
G01*
X22620022Y73128732D01*
G75*
G02*
X22520022Y73228732I0J100000D01*
G01*
G37*
G04 #@! TD.AperFunction*
G04 #@! TD*
G04 #@! TO.P,D2,1,K*
G04 #@! TO.N,PIN117*
G04 #@! TA.AperFunction,SMDPad,CuDef*
G36*
G01*
X28030000Y69913733D02*
X28030000Y70933733D01*
G75*
G02*
X28120000Y71023733I90000J0D01*
G01*
X28840000Y71023733D01*
G75*
G02*
X28930000Y70933733I0J-90000D01*
G01*
X28930000Y69913733D01*
G75*
G02*
X28840000Y69823733I-90000J0D01*
G01*
X28120000Y69823733D01*
G75*
G02*
X28030000Y69913733I0J90000D01*
G01*
G37*
G04 #@! TD.AperFunction*
G04 #@! TO.P,D2,2,A*
G04 #@! TO.N,PIN15*
G04 #@! TA.AperFunction,SMDPad,CuDef*
G36*
G01*
X31330000Y69913733D02*
X31330000Y70933733D01*
G75*
G02*
X31420000Y71023733I90000J0D01*
G01*
X32140000Y71023733D01*
G75*
G02*
X32230000Y70933733I0J-90000D01*
G01*
X32230000Y69913733D01*
G75*
G02*
X32140000Y69823733I-90000J0D01*
G01*
X31420000Y69823733D01*
G75*
G02*
X31330000Y69913733I0J90000D01*
G01*
G37*
G04 #@! TD.AperFunction*
G04 #@! TD*
G04 #@! TO.P,R10,1*
G04 #@! TO.N,PIN113*
G04 #@! TA.AperFunction,SMDPad,CuDef*
G36*
G01*
X20620000Y65719948D02*
X20620000Y66969948D01*
G75*
G02*
X20720000Y67069948I100000J0D01*
G01*
X21520000Y67069948D01*
G75*
G02*
X21620000Y66969948I0J-100000D01*
G01*
X21620000Y65719948D01*
G75*
G02*
X21520000Y65619948I-100000J0D01*
G01*
X20720000Y65619948D01*
G75*
G02*
X20620000Y65719948I0J100000D01*
G01*
G37*
G04 #@! TD.AperFunction*
G04 #@! TO.P,R10,2*
G04 #@! TO.N,PIN84*
G04 #@! TA.AperFunction,SMDPad,CuDef*
G36*
G01*
X22520022Y65719948D02*
X22520022Y66969948D01*
G75*
G02*
X22620022Y67069948I100000J0D01*
G01*
X23420022Y67069948D01*
G75*
G02*
X23520022Y66969948I0J-100000D01*
G01*
X23520022Y65719948D01*
G75*
G02*
X23420022Y65619948I-100000J0D01*
G01*
X22620022Y65619948D01*
G75*
G02*
X22520022Y65719948I0J100000D01*
G01*
G37*
G04 #@! TD.AperFunction*
G04 #@! TD*
G04 #@! TO.P,R14,1*
G04 #@! TO.N,/LS2*
G04 #@! TA.AperFunction,SMDPad,CuDef*
G36*
G01*
X43250000Y71788092D02*
X43250000Y72568092D01*
G75*
G02*
X43320000Y72638092I70000J0D01*
G01*
X43880000Y72638092D01*
G75*
G02*
X43950000Y72568092I0J-70000D01*
G01*
X43950000Y71788092D01*
G75*
G02*
X43880000Y71718092I-70000J0D01*
G01*
X43320000Y71718092D01*
G75*
G02*
X43250000Y71788092I0J70000D01*
G01*
G37*
G04 #@! TD.AperFunction*
G04 #@! TO.P,R14,2*
G04 #@! TO.N,Net-(U1-IN2)*
G04 #@! TA.AperFunction,SMDPad,CuDef*
G36*
G01*
X44850000Y71788092D02*
X44850000Y72568092D01*
G75*
G02*
X44920000Y72638092I70000J0D01*
G01*
X45480000Y72638092D01*
G75*
G02*
X45550000Y72568092I0J-70000D01*
G01*
X45550000Y71788092D01*
G75*
G02*
X45480000Y71718092I-70000J0D01*
G01*
X44920000Y71718092D01*
G75*
G02*
X44850000Y71788092I0J70000D01*
G01*
G37*
G04 #@! TD.AperFunction*
G04 #@! TD*
G04 #@! TO.P,R20,1*
G04 #@! TO.N,/LS3*
G04 #@! TA.AperFunction,SMDPad,CuDef*
G36*
G01*
X43250000Y62042862D02*
X43250000Y62822862D01*
G75*
G02*
X43320000Y62892862I70000J0D01*
G01*
X43880000Y62892862D01*
G75*
G02*
X43950000Y62822862I0J-70000D01*
G01*
X43950000Y62042862D01*
G75*
G02*
X43880000Y61972862I-70000J0D01*
G01*
X43320000Y61972862D01*
G75*
G02*
X43250000Y62042862I0J70000D01*
G01*
G37*
G04 #@! TD.AperFunction*
G04 #@! TO.P,R20,2*
G04 #@! TO.N,PIN114*
G04 #@! TA.AperFunction,SMDPad,CuDef*
G36*
G01*
X44850000Y62042862D02*
X44850000Y62822862D01*
G75*
G02*
X44920000Y62892862I70000J0D01*
G01*
X45480000Y62892862D01*
G75*
G02*
X45550000Y62822862I0J-70000D01*
G01*
X45550000Y62042862D01*
G75*
G02*
X45480000Y61972862I-70000J0D01*
G01*
X44920000Y61972862D01*
G75*
G02*
X44850000Y62042862I0J70000D01*
G01*
G37*
G04 #@! TD.AperFunction*
G04 #@! TD*
G04 #@! TO.P,R22,1*
G04 #@! TO.N,Net-(Q1-G)*
G04 #@! TA.AperFunction,SMDPad,CuDef*
G36*
G01*
X32520000Y53457138D02*
X32520000Y54237138D01*
G75*
G02*
X32590000Y54307138I70000J0D01*
G01*
X33150000Y54307138D01*
G75*
G02*
X33220000Y54237138I0J-70000D01*
G01*
X33220000Y53457138D01*
G75*
G02*
X33150000Y53387138I-70000J0D01*
G01*
X32590000Y53387138D01*
G75*
G02*
X32520000Y53457138I0J70000D01*
G01*
G37*
G04 #@! TD.AperFunction*
G04 #@! TO.P,R22,2*
G04 #@! TO.N,Net-(F4-Pad1)*
G04 #@! TA.AperFunction,SMDPad,CuDef*
G36*
G01*
X34120000Y53457138D02*
X34120000Y54237138D01*
G75*
G02*
X34190000Y54307138I70000J0D01*
G01*
X34750000Y54307138D01*
G75*
G02*
X34820000Y54237138I0J-70000D01*
G01*
X34820000Y53457138D01*
G75*
G02*
X34750000Y53387138I-70000J0D01*
G01*
X34190000Y53387138D01*
G75*
G02*
X34120000Y53457138I0J70000D01*
G01*
G37*
G04 #@! TD.AperFunction*
G04 #@! TD*
G04 #@! TO.P,R3,1*
G04 #@! TO.N,PIN114*
G04 #@! TA.AperFunction,SMDPad,CuDef*
G36*
G01*
X24520000Y69839046D02*
X24520000Y70619046D01*
G75*
G02*
X24590000Y70689046I70000J0D01*
G01*
X25150000Y70689046D01*
G75*
G02*
X25220000Y70619046I0J-70000D01*
G01*
X25220000Y69839046D01*
G75*
G02*
X25150000Y69769046I-70000J0D01*
G01*
X24590000Y69769046D01*
G75*
G02*
X24520000Y69839046I0J70000D01*
G01*
G37*
G04 #@! TD.AperFunction*
G04 #@! TO.P,R3,2*
G04 #@! TO.N,/IN_VMAIN*
G04 #@! TA.AperFunction,SMDPad,CuDef*
G36*
G01*
X26120000Y69839046D02*
X26120000Y70619046D01*
G75*
G02*
X26190000Y70689046I70000J0D01*
G01*
X26750000Y70689046D01*
G75*
G02*
X26820000Y70619046I0J-70000D01*
G01*
X26820000Y69839046D01*
G75*
G02*
X26750000Y69769046I-70000J0D01*
G01*
X26190000Y69769046D01*
G75*
G02*
X26120000Y69839046I0J70000D01*
G01*
G37*
G04 #@! TD.AperFunction*
G04 #@! TD*
G04 #@! TO.P,U1,1,IN1*
G04 #@! TO.N,Net-(U1-IN1)*
G04 #@! TA.AperFunction,SMDPad,CuDef*
G36*
G01*
X88825000Y50260000D02*
X88825000Y50560000D01*
G75*
G02*
X88975000Y50710000I150000J0D01*
G01*
X90625000Y50710000D01*
G75*
G02*
X90775000Y50560000I0J-150000D01*
G01*
X90775000Y50260000D01*
G75*
G02*
X90625000Y50110000I-150000J0D01*
G01*
X88975000Y50110000D01*
G75*
G02*
X88825000Y50260000I0J150000D01*
G01*
G37*
G04 #@! TD.AperFunction*
G04 #@! TO.P,U1,2,STATUS1*
G04 #@! TO.N,unconnected-(U1-STATUS1-Pad2)*
G04 #@! TA.AperFunction,SMDPad,CuDef*
G36*
G01*
X88825000Y48990000D02*
X88825000Y49290000D01*
G75*
G02*
X88975000Y49440000I150000J0D01*
G01*
X90625000Y49440000D01*
G75*
G02*
X90775000Y49290000I0J-150000D01*
G01*
X90775000Y48990000D01*
G75*
G02*
X90625000Y48840000I-150000J0D01*
G01*
X88975000Y48840000D01*
G75*
G02*
X88825000Y48990000I0J150000D01*
G01*
G37*
G04 #@! TD.AperFunction*
G04 #@! TO.P,U1,3,IN2*
G04 #@! TO.N,Net-(U1-IN2)*
G04 #@! TA.AperFunction,SMDPad,CuDef*
G36*
G01*
X88825000Y47720000D02*
X88825000Y48020000D01*
G75*
G02*
X88975000Y48170000I150000J0D01*
G01*
X90625000Y48170000D01*
G75*
G02*
X90775000Y48020000I0J-150000D01*
G01*
X90775000Y47720000D01*
G75*
G02*
X90625000Y47570000I-150000J0D01*
G01*
X88975000Y47570000D01*
G75*
G02*
X88825000Y47720000I0J150000D01*
G01*
G37*
G04 #@! TD.AperFunction*
G04 #@! TO.P,U1,4,STATUS2*
G04 #@! TO.N,unconnected-(U1-STATUS2-Pad4)*
G04 #@! TA.AperFunction,SMDPad,CuDef*
G36*
G01*
X88825000Y46450000D02*
X88825000Y46750000D01*
G75*
G02*
X88975000Y46900000I150000J0D01*
G01*
X90625000Y46900000D01*
G75*
G02*
X90775000Y46750000I0J-150000D01*
G01*
X90775000Y46450000D01*
G75*
G02*
X90625000Y46300000I-150000J0D01*
G01*
X88975000Y46300000D01*
G75*
G02*
X88825000Y46450000I0J150000D01*
G01*
G37*
G04 #@! TD.AperFunction*
G04 #@! TO.P,U1,5,S2*
G04 #@! TO.N,PIN114*
G04 #@! TA.AperFunction,SMDPad,CuDef*
G36*
G01*
X93775000Y46450000D02*
X93775000Y46750000D01*
G75*
G02*
X93925000Y46900000I150000J0D01*
G01*
X95575000Y46900000D01*
G75*
G02*
X95725000Y46750000I0J-150000D01*
G01*
X95725000Y46450000D01*
G75*
G02*
X95575000Y46300000I-150000J0D01*
G01*
X93925000Y46300000D01*
G75*
G02*
X93775000Y46450000I0J150000D01*
G01*
G37*
G04 #@! TD.AperFunction*
G04 #@! TO.P,U1,6,D2*
G04 #@! TO.N,PIN15*
G04 #@! TA.AperFunction,SMDPad,CuDef*
G36*
G01*
X93775000Y47720000D02*
X93775000Y48020000D01*
G75*
G02*
X93925000Y48170000I150000J0D01*
G01*
X95575000Y48170000D01*
G75*
G02*
X95725000Y48020000I0J-150000D01*
G01*
X95725000Y47720000D01*
G75*
G02*
X95575000Y47570000I-150000J0D01*
G01*
X93925000Y47570000D01*
G75*
G02*
X93775000Y47720000I0J150000D01*
G01*
G37*
G04 #@! TD.AperFunction*
G04 #@! TO.P,U1,7,S1*
G04 #@! TO.N,PIN114*
G04 #@! TA.AperFunction,SMDPad,CuDef*
G36*
G01*
X93775000Y48990000D02*
X93775000Y49290000D01*
G75*
G02*
X93925000Y49440000I150000J0D01*
G01*
X95575000Y49440000D01*
G75*
G02*
X95725000Y49290000I0J-150000D01*
G01*
X95725000Y48990000D01*
G75*
G02*
X95575000Y48840000I-150000J0D01*
G01*
X93925000Y48840000D01*
G75*
G02*
X93775000Y48990000I0J150000D01*
G01*
G37*
G04 #@! TD.AperFunction*
G04 #@! TO.P,U1,8,D1*
G04 #@! TO.N,PIN14*
G04 #@! TA.AperFunction,SMDPad,CuDef*
G36*
G01*
X93775000Y50260000D02*
X93775000Y50560000D01*
G75*
G02*
X93925000Y50710000I150000J0D01*
G01*
X95575000Y50710000D01*
G75*
G02*
X95725000Y50560000I0J-150000D01*
G01*
X95725000Y50260000D01*
G75*
G02*
X95575000Y50110000I-150000J0D01*
G01*
X93925000Y50110000D01*
G75*
G02*
X93775000Y50260000I0J150000D01*
G01*
G37*
G04 #@! TD.AperFunction*
G04 #@! TD*
G04 #@! TO.P,R31,1*
G04 #@! TO.N,Net-(F7-Pad1)*
G04 #@! TA.AperFunction,SMDPad,CuDef*
G36*
G01*
X78130000Y61640000D02*
X78130000Y64490000D01*
G75*
G02*
X78380000Y64740000I250000J0D01*
G01*
X79105000Y64740000D01*
G75*
G02*
X79355000Y64490000I0J-250000D01*
G01*
X79355000Y61640000D01*
G75*
G02*
X79105000Y61390000I-250000J0D01*
G01*
X78380000Y61390000D01*
G75*
G02*
X78130000Y61640000I0J250000D01*
G01*
G37*
G04 #@! TD.AperFunction*
G04 #@! TO.P,R31,2*
G04 #@! TO.N,PIN9*
G04 #@! TA.AperFunction,SMDPad,CuDef*
G36*
G01*
X84055000Y61640000D02*
X84055000Y64490000D01*
G75*
G02*
X84305000Y64740000I250000J0D01*
G01*
X85030000Y64740000D01*
G75*
G02*
X85280000Y64490000I0J-250000D01*
G01*
X85280000Y61640000D01*
G75*
G02*
X85030000Y61390000I-250000J0D01*
G01*
X84305000Y61390000D01*
G75*
G02*
X84055000Y61640000I0J250000D01*
G01*
G37*
G04 #@! TD.AperFunction*
G04 #@! TD*
G04 #@! TO.P,R49,1*
G04 #@! TO.N,/INJ6*
G04 #@! TA.AperFunction,SMDPad,CuDef*
G36*
G01*
X27220000Y47610000D02*
X27220000Y48390000D01*
G75*
G02*
X27290000Y48460000I70000J0D01*
G01*
X27850000Y48460000D01*
G75*
G02*
X27920000Y48390000I0J-70000D01*
G01*
X27920000Y47610000D01*
G75*
G02*
X27850000Y47540000I-70000J0D01*
G01*
X27290000Y47540000D01*
G75*
G02*
X27220000Y47610000I0J70000D01*
G01*
G37*
G04 #@! TD.AperFunction*
G04 #@! TO.P,R49,2*
G04 #@! TO.N,PIN114*
G04 #@! TA.AperFunction,SMDPad,CuDef*
G36*
G01*
X28820000Y47610000D02*
X28820000Y48390000D01*
G75*
G02*
X28890000Y48460000I70000J0D01*
G01*
X29450000Y48460000D01*
G75*
G02*
X29520000Y48390000I0J-70000D01*
G01*
X29520000Y47610000D01*
G75*
G02*
X29450000Y47540000I-70000J0D01*
G01*
X28890000Y47540000D01*
G75*
G02*
X28820000Y47610000I0J70000D01*
G01*
G37*
G04 #@! TD.AperFunction*
G04 #@! TD*
G04 #@! TO.P,R6,1*
G04 #@! TO.N,/VR_DISCRETE_A*
G04 #@! TA.AperFunction,SMDPad,CuDef*
G36*
G01*
X24520000Y65940954D02*
X24520000Y66720954D01*
G75*
G02*
X24590000Y66790954I70000J0D01*
G01*
X25150000Y66790954D01*
G75*
G02*
X25220000Y66720954I0J-70000D01*
G01*
X25220000Y65940954D01*
G75*
G02*
X25150000Y65870954I-70000J0D01*
G01*
X24590000Y65870954D01*
G75*
G02*
X24520000Y65940954I0J70000D01*
G01*
G37*
G04 #@! TD.AperFunction*
G04 #@! TO.P,R6,2*
G04 #@! TO.N,/ADC3*
G04 #@! TA.AperFunction,SMDPad,CuDef*
G36*
G01*
X26120000Y65940954D02*
X26120000Y66720954D01*
G75*
G02*
X26190000Y66790954I70000J0D01*
G01*
X26750000Y66790954D01*
G75*
G02*
X26820000Y66720954I0J-70000D01*
G01*
X26820000Y65940954D01*
G75*
G02*
X26750000Y65870954I-70000J0D01*
G01*
X26190000Y65870954D01*
G75*
G02*
X26120000Y65940954I0J70000D01*
G01*
G37*
G04 #@! TD.AperFunction*
G04 #@! TD*
G04 #@! TO.P,R51,1*
G04 #@! TO.N,/LS_HOT2*
G04 #@! TA.AperFunction,SMDPad,CuDef*
G36*
G01*
X43250000Y51508092D02*
X43250000Y52288092D01*
G75*
G02*
X43320000Y52358092I70000J0D01*
G01*
X43880000Y52358092D01*
G75*
G02*
X43950000Y52288092I0J-70000D01*
G01*
X43950000Y51508092D01*
G75*
G02*
X43880000Y51438092I-70000J0D01*
G01*
X43320000Y51438092D01*
G75*
G02*
X43250000Y51508092I0J70000D01*
G01*
G37*
G04 #@! TD.AperFunction*
G04 #@! TO.P,R51,2*
G04 #@! TO.N,PIN114*
G04 #@! TA.AperFunction,SMDPad,CuDef*
G36*
G01*
X44850000Y51508092D02*
X44850000Y52288092D01*
G75*
G02*
X44920000Y52358092I70000J0D01*
G01*
X45480000Y52358092D01*
G75*
G02*
X45550000Y52288092I0J-70000D01*
G01*
X45550000Y51508092D01*
G75*
G02*
X45480000Y51438092I-70000J0D01*
G01*
X44920000Y51438092D01*
G75*
G02*
X44850000Y51508092I0J70000D01*
G01*
G37*
G04 #@! TD.AperFunction*
G04 #@! TD*
G04 #@! TO.P,R38,1*
G04 #@! TO.N,/INJ1*
G04 #@! TA.AperFunction,SMDPad,CuDef*
G36*
G01*
X20620000Y45660954D02*
X20620000Y46440954D01*
G75*
G02*
X20690000Y46510954I70000J0D01*
G01*
X21250000Y46510954D01*
G75*
G02*
X21320000Y46440954I0J-70000D01*
G01*
X21320000Y45660954D01*
G75*
G02*
X21250000Y45590954I-70000J0D01*
G01*
X20690000Y45590954D01*
G75*
G02*
X20620000Y45660954I0J70000D01*
G01*
G37*
G04 #@! TD.AperFunction*
G04 #@! TO.P,R38,2*
G04 #@! TO.N,Net-(U6-IN1)*
G04 #@! TA.AperFunction,SMDPad,CuDef*
G36*
G01*
X22220000Y45660954D02*
X22220000Y46440954D01*
G75*
G02*
X22290000Y46510954I70000J0D01*
G01*
X22850000Y46510954D01*
G75*
G02*
X22920000Y46440954I0J-70000D01*
G01*
X22920000Y45660954D01*
G75*
G02*
X22850000Y45590954I-70000J0D01*
G01*
X22290000Y45590954D01*
G75*
G02*
X22220000Y45660954I0J70000D01*
G01*
G37*
G04 #@! TD.AperFunction*
G04 #@! TD*
G04 #@! TO.P,R33,1*
G04 #@! TO.N,Net-(F9-Pad1)*
G04 #@! TA.AperFunction,SMDPad,CuDef*
G36*
G01*
X78130000Y51860000D02*
X78130000Y54710000D01*
G75*
G02*
X78380000Y54960000I250000J0D01*
G01*
X79105000Y54960000D01*
G75*
G02*
X79355000Y54710000I0J-250000D01*
G01*
X79355000Y51860000D01*
G75*
G02*
X79105000Y51610000I-250000J0D01*
G01*
X78380000Y51610000D01*
G75*
G02*
X78130000Y51860000I0J250000D01*
G01*
G37*
G04 #@! TD.AperFunction*
G04 #@! TO.P,R33,2*
G04 #@! TO.N,PIN8*
G04 #@! TA.AperFunction,SMDPad,CuDef*
G36*
G01*
X84055000Y51860000D02*
X84055000Y54710000D01*
G75*
G02*
X84305000Y54960000I250000J0D01*
G01*
X85030000Y54960000D01*
G75*
G02*
X85280000Y54710000I0J-250000D01*
G01*
X85280000Y51860000D01*
G75*
G02*
X85030000Y51610000I-250000J0D01*
G01*
X84305000Y51610000D01*
G75*
G02*
X84055000Y51860000I0J250000D01*
G01*
G37*
G04 #@! TD.AperFunction*
G04 #@! TD*
G04 #@! TO.P,F8,1*
G04 #@! TO.N,Net-(F8-Pad1)*
G04 #@! TA.AperFunction,SMDPad,CuDef*
G36*
G01*
X78140000Y39288750D02*
X78140000Y39801250D01*
G75*
G02*
X78358750Y40020000I218750J0D01*
G01*
X78796250Y40020000D01*
G75*
G02*
X79015000Y39801250I0J-218750D01*
G01*
X79015000Y39288750D01*
G75*
G02*
X78796250Y39070000I-218750J0D01*
G01*
X78358750Y39070000D01*
G75*
G02*
X78140000Y39288750I0J218750D01*
G01*
G37*
G04 #@! TD.AperFunction*
G04 #@! TO.P,F8,2*
G04 #@! TO.N,/IGN5*
G04 #@! TA.AperFunction,SMDPad,CuDef*
G36*
G01*
X79715000Y39288750D02*
X79715000Y39801250D01*
G75*
G02*
X79933750Y40020000I218750J0D01*
G01*
X80371250Y40020000D01*
G75*
G02*
X80590000Y39801250I0J-218750D01*
G01*
X80590000Y39288750D01*
G75*
G02*
X80371250Y39070000I-218750J0D01*
G01*
X79933750Y39070000D01*
G75*
G02*
X79715000Y39288750I0J218750D01*
G01*
G37*
G04 #@! TD.AperFunction*
G04 #@! TD*
G04 #@! TO.P,D3,1,K*
G04 #@! TO.N,PIN117*
G04 #@! TA.AperFunction,SMDPad,CuDef*
G36*
G01*
X28030000Y66793733D02*
X28030000Y67813733D01*
G75*
G02*
X28120000Y67903733I90000J0D01*
G01*
X28840000Y67903733D01*
G75*
G02*
X28930000Y67813733I0J-90000D01*
G01*
X28930000Y66793733D01*
G75*
G02*
X28840000Y66703733I-90000J0D01*
G01*
X28120000Y66703733D01*
G75*
G02*
X28030000Y66793733I0J90000D01*
G01*
G37*
G04 #@! TD.AperFunction*
G04 #@! TO.P,D3,2,A*
G04 #@! TO.N,PIN16*
G04 #@! TA.AperFunction,SMDPad,CuDef*
G36*
G01*
X31330000Y66793733D02*
X31330000Y67813733D01*
G75*
G02*
X31420000Y67903733I90000J0D01*
G01*
X32140000Y67903733D01*
G75*
G02*
X32230000Y67813733I0J-90000D01*
G01*
X32230000Y66793733D01*
G75*
G02*
X32140000Y66703733I-90000J0D01*
G01*
X31420000Y66703733D01*
G75*
G02*
X31330000Y66793733I0J90000D01*
G01*
G37*
G04 #@! TD.AperFunction*
G04 #@! TD*
G04 #@! TO.P,R54,1*
G04 #@! TO.N,Net-(U10-IS)*
G04 #@! TA.AperFunction,SMDPad,CuDef*
G36*
G01*
X24520000Y62042862D02*
X24520000Y62822862D01*
G75*
G02*
X24590000Y62892862I70000J0D01*
G01*
X25150000Y62892862D01*
G75*
G02*
X25220000Y62822862I0J-70000D01*
G01*
X25220000Y62042862D01*
G75*
G02*
X25150000Y61972862I-70000J0D01*
G01*
X24590000Y61972862D01*
G75*
G02*
X24520000Y62042862I0J70000D01*
G01*
G37*
G04 #@! TD.AperFunction*
G04 #@! TO.P,R54,2*
G04 #@! TO.N,PIN114*
G04 #@! TA.AperFunction,SMDPad,CuDef*
G36*
G01*
X26120000Y62042862D02*
X26120000Y62822862D01*
G75*
G02*
X26190000Y62892862I70000J0D01*
G01*
X26750000Y62892862D01*
G75*
G02*
X26820000Y62822862I0J-70000D01*
G01*
X26820000Y62042862D01*
G75*
G02*
X26750000Y61972862I-70000J0D01*
G01*
X26190000Y61972862D01*
G75*
G02*
X26120000Y62042862I0J70000D01*
G01*
G37*
G04 #@! TD.AperFunction*
G04 #@! TD*
D31*
G04 #@! TO.P,M2,E1,V5A*
G04 #@! TO.N,+5VA*
X136970003Y37949997D03*
D60*
G04 #@! TO.P,M2,E2,GND*
G04 #@! TO.N,PIN114*
X128070003Y35974997D03*
D61*
X132620003Y38549997D03*
X132620003Y35449997D03*
D31*
X136970003Y36999997D03*
G04 #@! TO.P,M2,E3,OUT_KNOCK*
G04 #@! TO.N,/IN_KNOCK*
X136970003Y36049999D03*
G04 #@! TO.P,M2,W1,IN_KNOCK*
G04 #@! TO.N,PIN81*
X128270003Y37049997D03*
G04 #@! TO.P,M2,W2,VREF*
G04 #@! TO.N,/VREF1*
X128270003Y37949997D03*
G04 #@! TD*
G04 #@! TO.P,C2,1*
G04 #@! TO.N,Net-(U8-T-)*
G04 #@! TA.AperFunction,SMDPad,CuDef*
G36*
G01*
X37820000Y51583762D02*
X37820000Y52263762D01*
G75*
G02*
X37905000Y52348762I85000J0D01*
G01*
X38585000Y52348762D01*
G75*
G02*
X38670000Y52263762I0J-85000D01*
G01*
X38670000Y51583762D01*
G75*
G02*
X38585000Y51498762I-85000J0D01*
G01*
X37905000Y51498762D01*
G75*
G02*
X37820000Y51583762I0J85000D01*
G01*
G37*
G04 #@! TD.AperFunction*
G04 #@! TO.P,C2,2*
G04 #@! TO.N,Net-(U8-T+)*
G04 #@! TA.AperFunction,SMDPad,CuDef*
G36*
G01*
X39400002Y51583762D02*
X39400002Y52263762D01*
G75*
G02*
X39485002Y52348762I85000J0D01*
G01*
X40165002Y52348762D01*
G75*
G02*
X40250002Y52263762I0J-85000D01*
G01*
X40250002Y51583762D01*
G75*
G02*
X40165002Y51498762I-85000J0D01*
G01*
X39485002Y51498762D01*
G75*
G02*
X39400002Y51583762I0J85000D01*
G01*
G37*
G04 #@! TD.AperFunction*
G04 #@! TD*
G04 #@! TO.P,C1,1*
G04 #@! TO.N,PIN114*
G04 #@! TA.AperFunction,SMDPad,CuDef*
G36*
G01*
X37820000Y53533747D02*
X37820000Y54213747D01*
G75*
G02*
X37905000Y54298747I85000J0D01*
G01*
X38585000Y54298747D01*
G75*
G02*
X38670000Y54213747I0J-85000D01*
G01*
X38670000Y53533747D01*
G75*
G02*
X38585000Y53448747I-85000J0D01*
G01*
X37905000Y53448747D01*
G75*
G02*
X37820000Y53533747I0J85000D01*
G01*
G37*
G04 #@! TD.AperFunction*
G04 #@! TO.P,C1,2*
G04 #@! TO.N,Net-(U8-T-)*
G04 #@! TA.AperFunction,SMDPad,CuDef*
G36*
G01*
X39400002Y53533747D02*
X39400002Y54213747D01*
G75*
G02*
X39485002Y54298747I85000J0D01*
G01*
X40165002Y54298747D01*
G75*
G02*
X40250002Y54213747I0J-85000D01*
G01*
X40250002Y53533747D01*
G75*
G02*
X40165002Y53448747I-85000J0D01*
G01*
X39485002Y53448747D01*
G75*
G02*
X39400002Y53533747I0J85000D01*
G01*
G37*
G04 #@! TD.AperFunction*
G04 #@! TD*
D13*
G04 #@! TO.P,M1,E1,VBAT*
G04 #@! TO.N,/VBAT*
X160549999Y52799998D03*
G04 #@! TO.P,M1,E2,V12*
G04 #@! TO.N,unconnected-(M1-V12-PadE2)*
X160549999Y46400001D03*
G04 #@! TO.P,M1,E3,VIGN*
G04 #@! TO.N,/VIGN*
X160549999Y44499998D03*
G04 #@! TO.P,M1,E4,V5*
G04 #@! TO.N,+5V*
X160549999Y40199998D03*
D31*
G04 #@! TO.P,M1,E5,EN_5VP*
G04 #@! TO.N,/PWR_EN*
X160999998Y37800001D03*
G04 #@! TO.P,M1,E6,PG_5VP*
G04 #@! TO.N,Net-(M1-PG_5VP)*
X160999998Y36800000D03*
D62*
G04 #@! TO.P,M1,S1,GND*
G04 #@! TO.N,PIN114*
X144400003Y48949998D03*
D63*
X144400003Y40450000D03*
D64*
X144400003Y33349998D03*
D65*
X152800001Y33299998D03*
D66*
X153600002Y53899998D03*
D13*
X160549999Y33949998D03*
D64*
X161200000Y53849998D03*
D67*
X161200000Y49650000D03*
D68*
X161200000Y42299998D03*
D69*
X161200000Y38800001D03*
D70*
X161200000Y35500000D03*
D13*
G04 #@! TO.P,M1,V1,V12_PERM*
G04 #@! TO.N,PIN116*
X145050002Y53250000D03*
G04 #@! TO.P,M1,V2,IN_VIGN*
G04 #@! TO.N,/IN_VIGN*
X145050002Y51400001D03*
G04 #@! TO.P,M1,V3,V12_RAW*
G04 #@! TO.N,PIN117*
X145050002Y46449998D03*
G04 #@! TO.P,M1,V4,5VP*
G04 #@! TO.N,PIN106*
X145050002Y34400000D03*
G04 #@! TD*
G04 #@! TO.P,R24,1*
G04 #@! TO.N,Net-(Q3-G)*
G04 #@! TA.AperFunction,SMDPad,CuDef*
G36*
G01*
X32520000Y49559046D02*
X32520000Y50339046D01*
G75*
G02*
X32590000Y50409046I70000J0D01*
G01*
X33150000Y50409046D01*
G75*
G02*
X33220000Y50339046I0J-70000D01*
G01*
X33220000Y49559046D01*
G75*
G02*
X33150000Y49489046I-70000J0D01*
G01*
X32590000Y49489046D01*
G75*
G02*
X32520000Y49559046I0J70000D01*
G01*
G37*
G04 #@! TD.AperFunction*
G04 #@! TO.P,R24,2*
G04 #@! TO.N,Net-(F6-Pad1)*
G04 #@! TA.AperFunction,SMDPad,CuDef*
G36*
G01*
X34120000Y49559046D02*
X34120000Y50339046D01*
G75*
G02*
X34190000Y50409046I70000J0D01*
G01*
X34750000Y50409046D01*
G75*
G02*
X34820000Y50339046I0J-70000D01*
G01*
X34820000Y49559046D01*
G75*
G02*
X34750000Y49489046I-70000J0D01*
G01*
X34190000Y49489046D01*
G75*
G02*
X34120000Y49559046I0J70000D01*
G01*
G37*
G04 #@! TD.AperFunction*
G04 #@! TD*
G04 #@! TO.P,R26,1*
G04 #@! TO.N,Net-(F5-Pad1)*
G04 #@! TA.AperFunction,SMDPad,CuDef*
G36*
G01*
X78130000Y71420000D02*
X78130000Y74270000D01*
G75*
G02*
X78380000Y74520000I250000J0D01*
G01*
X79105000Y74520000D01*
G75*
G02*
X79355000Y74270000I0J-250000D01*
G01*
X79355000Y71420000D01*
G75*
G02*
X79105000Y71170000I-250000J0D01*
G01*
X78380000Y71170000D01*
G75*
G02*
X78130000Y71420000I0J250000D01*
G01*
G37*
G04 #@! TD.AperFunction*
G04 #@! TO.P,R26,2*
G04 #@! TO.N,PIN12*
G04 #@! TA.AperFunction,SMDPad,CuDef*
G36*
G01*
X84055000Y71420000D02*
X84055000Y74270000D01*
G75*
G02*
X84305000Y74520000I250000J0D01*
G01*
X85030000Y74520000D01*
G75*
G02*
X85280000Y74270000I0J-250000D01*
G01*
X85280000Y71420000D01*
G75*
G02*
X85030000Y71170000I-250000J0D01*
G01*
X84305000Y71170000D01*
G75*
G02*
X84055000Y71420000I0J250000D01*
G01*
G37*
G04 #@! TD.AperFunction*
G04 #@! TD*
G04 #@! TO.P,R23,1*
G04 #@! TO.N,Net-(Q2-G)*
G04 #@! TA.AperFunction,SMDPad,CuDef*
G36*
G01*
X32520000Y51508092D02*
X32520000Y52288092D01*
G75*
G02*
X32590000Y52358092I70000J0D01*
G01*
X33150000Y52358092D01*
G75*
G02*
X33220000Y52288092I0J-70000D01*
G01*
X33220000Y51508092D01*
G75*
G02*
X33150000Y51438092I-70000J0D01*
G01*
X32590000Y51438092D01*
G75*
G02*
X32520000Y51508092I0J70000D01*
G01*
G37*
G04 #@! TD.AperFunction*
G04 #@! TO.P,R23,2*
G04 #@! TO.N,Net-(F5-Pad1)*
G04 #@! TA.AperFunction,SMDPad,CuDef*
G36*
G01*
X34120000Y51508092D02*
X34120000Y52288092D01*
G75*
G02*
X34190000Y52358092I70000J0D01*
G01*
X34750000Y52358092D01*
G75*
G02*
X34820000Y52288092I0J-70000D01*
G01*
X34820000Y51508092D01*
G75*
G02*
X34750000Y51438092I-70000J0D01*
G01*
X34190000Y51438092D01*
G75*
G02*
X34120000Y51508092I0J70000D01*
G01*
G37*
G04 #@! TD.AperFunction*
G04 #@! TD*
G04 #@! TO.P,R25,1*
G04 #@! TO.N,Net-(F4-Pad1)*
G04 #@! TA.AperFunction,SMDPad,CuDef*
G36*
G01*
X78130000Y76310000D02*
X78130000Y79160000D01*
G75*
G02*
X78380000Y79410000I250000J0D01*
G01*
X79105000Y79410000D01*
G75*
G02*
X79355000Y79160000I0J-250000D01*
G01*
X79355000Y76310000D01*
G75*
G02*
X79105000Y76060000I-250000J0D01*
G01*
X78380000Y76060000D01*
G75*
G02*
X78130000Y76310000I0J250000D01*
G01*
G37*
G04 #@! TD.AperFunction*
G04 #@! TO.P,R25,2*
G04 #@! TO.N,PIN13*
G04 #@! TA.AperFunction,SMDPad,CuDef*
G36*
G01*
X84055000Y76310000D02*
X84055000Y79160000D01*
G75*
G02*
X84305000Y79410000I250000J0D01*
G01*
X85030000Y79410000D01*
G75*
G02*
X85280000Y79160000I0J-250000D01*
G01*
X85280000Y76310000D01*
G75*
G02*
X85030000Y76060000I-250000J0D01*
G01*
X84305000Y76060000D01*
G75*
G02*
X84055000Y76310000I0J250000D01*
G01*
G37*
G04 #@! TD.AperFunction*
G04 #@! TD*
D71*
G04 #@! TO.N,PIN113*
X168900000Y95125000D03*
X168900000Y104525000D03*
X168900000Y40150000D03*
X168900000Y53725000D03*
X168900000Y29275000D03*
X57100000Y10925000D03*
X168750000Y111350000D03*
X67625000Y10875000D03*
X10600000Y93650000D03*
X168900000Y85100000D03*
X10600000Y83625000D03*
X144675000Y10900000D03*
X100550000Y10900000D03*
X122625000Y10900000D03*
X23475000Y10875000D03*
X10600000Y38675000D03*
X10600000Y73100000D03*
X10600000Y111025000D03*
X10600000Y27800000D03*
X10600000Y63200000D03*
X155550000Y10900000D03*
X110825000Y10900000D03*
X168900000Y74575000D03*
X10600000Y103050000D03*
X89675000Y10875000D03*
X35025000Y10925000D03*
X79050000Y10875000D03*
X168900000Y64675000D03*
X134050000Y10900000D03*
X10600000Y52250000D03*
G04 #@! TD*
G04 #@! TA.AperFunction,Conductor*
G04 #@! TO.N,PIN113*
G36*
X13640857Y112704498D02*
G01*
X13687350Y112650842D01*
X13698736Y112598356D01*
X13599999Y26500001D01*
X13600000Y26500001D01*
X13600000Y26500000D01*
X14583340Y26401666D01*
X14615651Y26394038D01*
X18778998Y24808001D01*
X18816939Y24785233D01*
X22685879Y21412310D01*
X22709926Y21384118D01*
X22873023Y21123163D01*
X24687489Y18220017D01*
X24704416Y18176813D01*
X25500000Y14000000D01*
X153299999Y14000000D01*
X153300000Y14000000D01*
X153996617Y17781637D01*
X154008563Y17816593D01*
X155586944Y20874705D01*
X155622664Y20917226D01*
X160576274Y24681969D01*
X160629287Y24705492D01*
X165400000Y25600000D01*
X165415476Y52870283D01*
X165425255Y70098572D01*
X165445296Y70166681D01*
X165498978Y70213143D01*
X165551255Y70224500D01*
X165744750Y70224500D01*
X165744751Y70224500D01*
X165803234Y70236133D01*
X165869555Y70280448D01*
X165913870Y70346769D01*
X165925503Y70405252D01*
X165925503Y75619748D01*
X165913870Y75678231D01*
X165869555Y75744552D01*
X165869554Y75744553D01*
X165862660Y75754871D01*
X165865513Y75756778D01*
X165841332Y75801062D01*
X165846397Y75871877D01*
X165849828Y75880161D01*
X165885168Y75957543D01*
X165905650Y76100000D01*
X165885168Y76242457D01*
X165825380Y76373373D01*
X165731131Y76482143D01*
X165731130Y76482144D01*
X165657882Y76529218D01*
X165611389Y76582874D01*
X165600003Y76635216D01*
X165600003Y76764786D01*
X165620005Y76832907D01*
X165657878Y76870781D01*
X165731131Y76917857D01*
X165825380Y77026627D01*
X165885168Y77157543D01*
X165905650Y77300000D01*
X165885168Y77442457D01*
X165825380Y77573373D01*
X165731131Y77682143D01*
X165731130Y77682144D01*
X165657882Y77729218D01*
X165611389Y77782874D01*
X165600003Y77835216D01*
X165600003Y77964786D01*
X165620005Y78032907D01*
X165657878Y78070781D01*
X165731131Y78117857D01*
X165825380Y78226627D01*
X165885168Y78357543D01*
X165905650Y78500000D01*
X165885168Y78642457D01*
X165825380Y78773373D01*
X165731131Y78882143D01*
X165731130Y78882144D01*
X165657882Y78929218D01*
X165611389Y78982874D01*
X165600003Y79035216D01*
X165600003Y79164786D01*
X165620005Y79232907D01*
X165657878Y79270781D01*
X165731131Y79317857D01*
X165825380Y79426627D01*
X165885168Y79557543D01*
X165905650Y79700000D01*
X165885168Y79842457D01*
X165825380Y79973373D01*
X165731131Y80082143D01*
X165731130Y80082144D01*
X165731129Y80082145D01*
X165610056Y80159953D01*
X165521549Y80185941D01*
X165461823Y80224325D01*
X165432330Y80288906D01*
X165431048Y80306909D01*
X165431526Y81148572D01*
X165451567Y81216681D01*
X165505249Y81263143D01*
X165557526Y81274500D01*
X165744750Y81274500D01*
X165744751Y81274500D01*
X165803234Y81286133D01*
X165869555Y81330448D01*
X165913870Y81396769D01*
X165925503Y81455252D01*
X165925503Y86669748D01*
X165913870Y86728231D01*
X165869555Y86794552D01*
X165869554Y86794553D01*
X165862660Y86804871D01*
X165865513Y86806778D01*
X165841332Y86851062D01*
X165846397Y86921877D01*
X165849828Y86930161D01*
X165885168Y87007543D01*
X165905650Y87150000D01*
X165885168Y87292457D01*
X165825380Y87423373D01*
X165731131Y87532143D01*
X165731130Y87532144D01*
X165657882Y87579218D01*
X165611389Y87632874D01*
X165600003Y87685216D01*
X165600003Y87814786D01*
X165620005Y87882907D01*
X165657878Y87920781D01*
X165731131Y87967857D01*
X165825380Y88076627D01*
X165885168Y88207543D01*
X165905650Y88350000D01*
X165885168Y88492457D01*
X165825380Y88623373D01*
X165731131Y88732143D01*
X165731130Y88732144D01*
X165657882Y88779218D01*
X165611389Y88832874D01*
X165600003Y88885216D01*
X165600003Y89014786D01*
X165620005Y89082907D01*
X165657878Y89120781D01*
X165731131Y89167857D01*
X165825380Y89276627D01*
X165885168Y89407543D01*
X165905650Y89550000D01*
X165885168Y89692457D01*
X165825380Y89823373D01*
X165731131Y89932143D01*
X165731130Y89932144D01*
X165657882Y89979218D01*
X165611389Y90032874D01*
X165600003Y90085216D01*
X165600003Y90214786D01*
X165620005Y90282907D01*
X165657878Y90320781D01*
X165731131Y90367857D01*
X165825380Y90476627D01*
X165885168Y90607543D01*
X165905650Y90750000D01*
X165885168Y90892457D01*
X165825380Y91023373D01*
X165731131Y91132143D01*
X165731130Y91132144D01*
X165731129Y91132145D01*
X165610056Y91209953D01*
X165527819Y91234100D01*
X165468093Y91272484D01*
X165438600Y91337065D01*
X165437318Y91355068D01*
X165449375Y112598572D01*
X165469416Y112666681D01*
X165523098Y112713143D01*
X165575375Y112724500D01*
X169826281Y112724500D01*
X169894402Y112704498D01*
X169915376Y112687595D01*
X170962595Y111640377D01*
X170996620Y111578065D01*
X170999500Y111551282D01*
X170999500Y49351500D01*
X170979498Y49283379D01*
X170925842Y49236886D01*
X170873500Y49225500D01*
X169200067Y49225500D01*
X169063224Y49225519D01*
X168792059Y49188282D01*
X168528506Y49114469D01*
X168277448Y49005449D01*
X168043596Y48863267D01*
X168043590Y48863263D01*
X168043588Y48863261D01*
X167831263Y48690549D01*
X167655319Y48502185D01*
X167644435Y48490531D01*
X167486583Y48266929D01*
X167360661Y48023933D01*
X167360659Y48023930D01*
X167360659Y48023928D01*
X167272641Y47776291D01*
X167268996Y47766037D01*
X167268993Y47766028D01*
X167213304Y47498065D01*
X167213304Y47498061D01*
X167194625Y47225004D01*
X167194625Y47224997D01*
X167203821Y47090573D01*
X167213301Y46951976D01*
X167213304Y46951940D01*
X167213304Y46951936D01*
X167268993Y46683973D01*
X167268995Y46683965D01*
X167360659Y46426072D01*
X167360660Y46426069D01*
X167360661Y46426068D01*
X167486583Y46183072D01*
X167486586Y46183068D01*
X167486588Y46183064D01*
X167644436Y45959468D01*
X167831263Y45759451D01*
X168043588Y45586739D01*
X168043595Y45586735D01*
X168043596Y45586734D01*
X168277448Y45444552D01*
X168277451Y45444551D01*
X168277454Y45444549D01*
X168528505Y45335532D01*
X168712882Y45283894D01*
X168791891Y45261766D01*
X168792063Y45261718D01*
X169063217Y45224482D01*
X169200067Y45224500D01*
X170873500Y45224500D01*
X170941621Y45204498D01*
X170988114Y45150842D01*
X170999500Y45098500D01*
X170999500Y22408718D01*
X170979498Y22340597D01*
X170962595Y22319623D01*
X169915377Y21272405D01*
X169853065Y21238379D01*
X169826282Y21235500D01*
X167341424Y21235500D01*
X166745473Y21198006D01*
X166745472Y21198006D01*
X166153066Y21123166D01*
X166153053Y21123164D01*
X165566496Y21011272D01*
X165566488Y21011271D01*
X164988144Y20862777D01*
X164988120Y20862770D01*
X164420228Y20678249D01*
X163865033Y20458432D01*
X163865015Y20458424D01*
X163324741Y20204190D01*
X162801449Y19916509D01*
X162297293Y19596560D01*
X162297281Y19596552D01*
X161814213Y19245583D01*
X161814206Y19245578D01*
X161354121Y18864963D01*
X161354097Y18864941D01*
X160918815Y18456185D01*
X160510059Y18020903D01*
X160510037Y18020879D01*
X160129422Y17560794D01*
X160129417Y17560787D01*
X159778448Y17077719D01*
X159778440Y17077707D01*
X159458491Y16573551D01*
X159170810Y16050259D01*
X158916576Y15509985D01*
X158916568Y15509967D01*
X158696751Y14954772D01*
X158512230Y14386880D01*
X158512223Y14386856D01*
X158363729Y13808512D01*
X158363728Y13808504D01*
X158251836Y13221947D01*
X158251834Y13221934D01*
X158176994Y12629528D01*
X158176994Y12629527D01*
X158139500Y12033577D01*
X158139500Y9548718D01*
X158119498Y9480597D01*
X158102595Y9459623D01*
X157055377Y8412405D01*
X156993065Y8378379D01*
X156966282Y8375500D01*
X22033717Y8375500D01*
X21965596Y8395502D01*
X21944622Y8412405D01*
X20897405Y9459622D01*
X20863379Y9521934D01*
X20860500Y9548717D01*
X20860500Y11808608D01*
X20860499Y11808626D01*
X20860499Y12033575D01*
X20860498Y12033576D01*
X20823004Y12629526D01*
X20823004Y12629527D01*
X20794451Y12855539D01*
X20748164Y13221938D01*
X20636273Y13808492D01*
X20636269Y13808505D01*
X20636269Y13808511D01*
X20487775Y14386855D01*
X20487768Y14386879D01*
X20303253Y14954757D01*
X20303250Y14954767D01*
X20083431Y15509965D01*
X19829186Y16050265D01*
X19541516Y16573534D01*
X19221558Y17077708D01*
X18870573Y17560797D01*
X18718143Y17745053D01*
X18489962Y18020878D01*
X18489954Y18020887D01*
X18489948Y18020894D01*
X18302959Y18220017D01*
X18081184Y18456184D01*
X17645902Y18864940D01*
X17645901Y18864941D01*
X17645895Y18864947D01*
X17645888Y18864953D01*
X17645878Y18864962D01*
X17185793Y19245576D01*
X17185786Y19245581D01*
X16702718Y19596551D01*
X16702706Y19596559D01*
X16198547Y19916508D01*
X16198539Y19916513D01*
X15917195Y20071183D01*
X15675266Y20204185D01*
X15675260Y20204188D01*
X15675258Y20204189D01*
X15134984Y20458423D01*
X15134966Y20458431D01*
X14579771Y20678248D01*
X14011879Y20862769D01*
X14011855Y20862776D01*
X13433511Y21011270D01*
X13433503Y21011271D01*
X13433487Y21011274D01*
X13306788Y21035444D01*
X12846946Y21123163D01*
X12846933Y21123165D01*
X12254526Y21198005D01*
X11658576Y21235499D01*
X11658565Y21235499D01*
X11425892Y21235499D01*
X9173717Y21235499D01*
X9105596Y21255501D01*
X9084622Y21272404D01*
X8037405Y22319621D01*
X8003379Y22381933D01*
X8000500Y22408716D01*
X8000500Y45098499D01*
X8020502Y45166620D01*
X8074158Y45213113D01*
X8126500Y45224499D01*
X9874659Y45224499D01*
X9874687Y45224501D01*
X9936838Y45224501D01*
X9936851Y45224502D01*
X10167645Y45256225D01*
X10207965Y45261766D01*
X10471492Y45335603D01*
X10722510Y45444636D01*
X10956344Y45586833D01*
X11168638Y45759547D01*
X11355436Y45959559D01*
X11513260Y46183144D01*
X11639168Y46426136D01*
X11730817Y46684011D01*
X11786498Y46951962D01*
X11786807Y46956483D01*
X11805174Y47224996D01*
X11805174Y47225005D01*
X11786499Y47498025D01*
X11786498Y47498031D01*
X11786498Y47498038D01*
X11730817Y47765989D01*
X11639168Y48023864D01*
X11513260Y48266856D01*
X11355436Y48490441D01*
X11168638Y48690453D01*
X10956344Y48863167D01*
X10956339Y48863170D01*
X10956338Y48863171D01*
X10722508Y49005366D01*
X10471493Y49114397D01*
X10471483Y49114400D01*
X10207972Y49188233D01*
X10207964Y49188235D01*
X9936851Y49225499D01*
X9936838Y49225499D01*
X9865892Y49225499D01*
X8126500Y49225499D01*
X8058379Y49245501D01*
X8011886Y49299157D01*
X8000500Y49351499D01*
X8000500Y111551283D01*
X8020502Y111619404D01*
X8037405Y111640378D01*
X9084622Y112687595D01*
X9146934Y112721621D01*
X9173717Y112724500D01*
X13572736Y112724500D01*
X13640857Y112704498D01*
G37*
G04 #@! TD.AperFunction*
G04 #@! TD*
M02*
