G04 #@! TF.GenerationSoftware,KiCad,Pcbnew,8.0.8*
G04 #@! TF.CreationDate,2025-12-20T21:17:57-05:00*
G04 #@! TF.ProjectId,greenenergyecu,67726565-6e65-46e6-9572-67796563752e,d*
G04 #@! TF.SameCoordinates,PX2b953a0PY6943058*
G04 #@! TF.FileFunction,Paste,Top*
G04 #@! TF.FilePolarity,Positive*
%FSLAX46Y46*%
G04 Gerber Fmt 4.6, Leading zero omitted, Abs format (unit mm)*
G04 Created by KiCad (PCBNEW 8.0.8) date 2025-12-20 21:17:57*
%MOMM*%
%LPD*%
G01*
G04 APERTURE LIST*
%ADD10O,0.000001X0.000001*%
G04 APERTURE END LIST*
G04 #@! TO.C,U2*
G36*
G01*
X12375000Y51535000D02*
X12375000Y51835000D01*
G75*
G02*
X12525000Y51985000I150000J0D01*
G01*
X14175000Y51985000D01*
G75*
G02*
X14325000Y51835000I0J-150000D01*
G01*
X14325000Y51535000D01*
G75*
G02*
X14175000Y51385000I-150000J0D01*
G01*
X12525000Y51385000D01*
G75*
G02*
X12375000Y51535000I0J150000D01*
G01*
G37*
G36*
G01*
X12375000Y50265000D02*
X12375000Y50565000D01*
G75*
G02*
X12525000Y50715000I150000J0D01*
G01*
X14175000Y50715000D01*
G75*
G02*
X14325000Y50565000I0J-150000D01*
G01*
X14325000Y50265000D01*
G75*
G02*
X14175000Y50115000I-150000J0D01*
G01*
X12525000Y50115000D01*
G75*
G02*
X12375000Y50265000I0J150000D01*
G01*
G37*
G36*
G01*
X12375000Y48995000D02*
X12375000Y49295000D01*
G75*
G02*
X12525000Y49445000I150000J0D01*
G01*
X14175000Y49445000D01*
G75*
G02*
X14325000Y49295000I0J-150000D01*
G01*
X14325000Y48995000D01*
G75*
G02*
X14175000Y48845000I-150000J0D01*
G01*
X12525000Y48845000D01*
G75*
G02*
X12375000Y48995000I0J150000D01*
G01*
G37*
G36*
G01*
X12375000Y47725000D02*
X12375000Y48025000D01*
G75*
G02*
X12525000Y48175000I150000J0D01*
G01*
X14175000Y48175000D01*
G75*
G02*
X14325000Y48025000I0J-150000D01*
G01*
X14325000Y47725000D01*
G75*
G02*
X14175000Y47575000I-150000J0D01*
G01*
X12525000Y47575000D01*
G75*
G02*
X12375000Y47725000I0J150000D01*
G01*
G37*
G36*
G01*
X17325000Y47725000D02*
X17325000Y48025000D01*
G75*
G02*
X17475000Y48175000I150000J0D01*
G01*
X19125000Y48175000D01*
G75*
G02*
X19275000Y48025000I0J-150000D01*
G01*
X19275000Y47725000D01*
G75*
G02*
X19125000Y47575000I-150000J0D01*
G01*
X17475000Y47575000D01*
G75*
G02*
X17325000Y47725000I0J150000D01*
G01*
G37*
G36*
G01*
X17325000Y48995000D02*
X17325000Y49295000D01*
G75*
G02*
X17475000Y49445000I150000J0D01*
G01*
X19125000Y49445000D01*
G75*
G02*
X19275000Y49295000I0J-150000D01*
G01*
X19275000Y48995000D01*
G75*
G02*
X19125000Y48845000I-150000J0D01*
G01*
X17475000Y48845000D01*
G75*
G02*
X17325000Y48995000I0J150000D01*
G01*
G37*
G36*
G01*
X17325000Y50265000D02*
X17325000Y50565000D01*
G75*
G02*
X17475000Y50715000I150000J0D01*
G01*
X19125000Y50715000D01*
G75*
G02*
X19275000Y50565000I0J-150000D01*
G01*
X19275000Y50265000D01*
G75*
G02*
X19125000Y50115000I-150000J0D01*
G01*
X17475000Y50115000D01*
G75*
G02*
X17325000Y50265000I0J150000D01*
G01*
G37*
G36*
G01*
X17325000Y51535000D02*
X17325000Y51835000D01*
G75*
G02*
X17475000Y51985000I150000J0D01*
G01*
X19125000Y51985000D01*
G75*
G02*
X19275000Y51835000I0J-150000D01*
G01*
X19275000Y51535000D01*
G75*
G02*
X19125000Y51385000I-150000J0D01*
G01*
X17475000Y51385000D01*
G75*
G02*
X17325000Y51535000I0J150000D01*
G01*
G37*
G04 #@! TD*
G04 #@! TO.C,U1*
G36*
G01*
X12375000Y58115000D02*
X12375000Y58415000D01*
G75*
G02*
X12525000Y58565000I150000J0D01*
G01*
X14175000Y58565000D01*
G75*
G02*
X14325000Y58415000I0J-150000D01*
G01*
X14325000Y58115000D01*
G75*
G02*
X14175000Y57965000I-150000J0D01*
G01*
X12525000Y57965000D01*
G75*
G02*
X12375000Y58115000I0J150000D01*
G01*
G37*
G36*
G01*
X12375000Y56845000D02*
X12375000Y57145000D01*
G75*
G02*
X12525000Y57295000I150000J0D01*
G01*
X14175000Y57295000D01*
G75*
G02*
X14325000Y57145000I0J-150000D01*
G01*
X14325000Y56845000D01*
G75*
G02*
X14175000Y56695000I-150000J0D01*
G01*
X12525000Y56695000D01*
G75*
G02*
X12375000Y56845000I0J150000D01*
G01*
G37*
G36*
G01*
X12375000Y55575000D02*
X12375000Y55875000D01*
G75*
G02*
X12525000Y56025000I150000J0D01*
G01*
X14175000Y56025000D01*
G75*
G02*
X14325000Y55875000I0J-150000D01*
G01*
X14325000Y55575000D01*
G75*
G02*
X14175000Y55425000I-150000J0D01*
G01*
X12525000Y55425000D01*
G75*
G02*
X12375000Y55575000I0J150000D01*
G01*
G37*
G36*
G01*
X12375000Y54305000D02*
X12375000Y54605000D01*
G75*
G02*
X12525000Y54755000I150000J0D01*
G01*
X14175000Y54755000D01*
G75*
G02*
X14325000Y54605000I0J-150000D01*
G01*
X14325000Y54305000D01*
G75*
G02*
X14175000Y54155000I-150000J0D01*
G01*
X12525000Y54155000D01*
G75*
G02*
X12375000Y54305000I0J150000D01*
G01*
G37*
G36*
G01*
X17325000Y54305000D02*
X17325000Y54605000D01*
G75*
G02*
X17475000Y54755000I150000J0D01*
G01*
X19125000Y54755000D01*
G75*
G02*
X19275000Y54605000I0J-150000D01*
G01*
X19275000Y54305000D01*
G75*
G02*
X19125000Y54155000I-150000J0D01*
G01*
X17475000Y54155000D01*
G75*
G02*
X17325000Y54305000I0J150000D01*
G01*
G37*
G36*
G01*
X17325000Y55575000D02*
X17325000Y55875000D01*
G75*
G02*
X17475000Y56025000I150000J0D01*
G01*
X19125000Y56025000D01*
G75*
G02*
X19275000Y55875000I0J-150000D01*
G01*
X19275000Y55575000D01*
G75*
G02*
X19125000Y55425000I-150000J0D01*
G01*
X17475000Y55425000D01*
G75*
G02*
X17325000Y55575000I0J150000D01*
G01*
G37*
G36*
G01*
X17325000Y56845000D02*
X17325000Y57145000D01*
G75*
G02*
X17475000Y57295000I150000J0D01*
G01*
X19125000Y57295000D01*
G75*
G02*
X19275000Y57145000I0J-150000D01*
G01*
X19275000Y56845000D01*
G75*
G02*
X19125000Y56695000I-150000J0D01*
G01*
X17475000Y56695000D01*
G75*
G02*
X17325000Y56845000I0J150000D01*
G01*
G37*
G36*
G01*
X17325000Y58115000D02*
X17325000Y58415000D01*
G75*
G02*
X17475000Y58565000I150000J0D01*
G01*
X19125000Y58565000D01*
G75*
G02*
X19275000Y58415000I0J-150000D01*
G01*
X19275000Y58115000D01*
G75*
G02*
X19125000Y57965000I-150000J0D01*
G01*
X17475000Y57965000D01*
G75*
G02*
X17325000Y58115000I0J150000D01*
G01*
G37*
G04 #@! TD*
G04 #@! TO.C,F4*
G36*
G01*
X22830000Y58203750D02*
X22830000Y58716250D01*
G75*
G02*
X23048750Y58935000I218750J0D01*
G01*
X23486250Y58935000D01*
G75*
G02*
X23705000Y58716250I0J-218750D01*
G01*
X23705000Y58203750D01*
G75*
G02*
X23486250Y57985000I-218750J0D01*
G01*
X23048750Y57985000D01*
G75*
G02*
X22830000Y58203750I0J218750D01*
G01*
G37*
G36*
G01*
X24405000Y58203750D02*
X24405000Y58716250D01*
G75*
G02*
X24623750Y58935000I218750J0D01*
G01*
X25061250Y58935000D01*
G75*
G02*
X25280000Y58716250I0J-218750D01*
G01*
X25280000Y58203750D01*
G75*
G02*
X25061250Y57985000I-218750J0D01*
G01*
X24623750Y57985000D01*
G75*
G02*
X24405000Y58203750I0J218750D01*
G01*
G37*
G04 #@! TD*
G04 #@! TO.C,R12*
G36*
G01*
X99349999Y51250000D02*
X99349999Y52500000D01*
G75*
G02*
X99449999Y52600000I100000J0D01*
G01*
X100249999Y52600000D01*
G75*
G02*
X100349999Y52500000I0J-100000D01*
G01*
X100349999Y51250000D01*
G75*
G02*
X100249999Y51150000I-100000J0D01*
G01*
X99449999Y51150000D01*
G75*
G02*
X99349999Y51250000I0J100000D01*
G01*
G37*
G36*
G01*
X101250021Y51250000D02*
X101250021Y52500000D01*
G75*
G02*
X101350021Y52600000I100000J0D01*
G01*
X102150021Y52600000D01*
G75*
G02*
X102250021Y52500000I0J-100000D01*
G01*
X102250021Y51250000D01*
G75*
G02*
X102150021Y51150000I-100000J0D01*
G01*
X101350021Y51150000D01*
G75*
G02*
X101250021Y51250000I0J100000D01*
G01*
G37*
G04 #@! TD*
G04 #@! TO.C,L2*
G36*
G01*
X38043750Y75600000D02*
X38556250Y75600000D01*
G75*
G02*
X38775000Y75381250I0J-218750D01*
G01*
X38775000Y74943750D01*
G75*
G02*
X38556250Y74725000I-218750J0D01*
G01*
X38043750Y74725000D01*
G75*
G02*
X37825000Y74943750I0J218750D01*
G01*
X37825000Y75381250D01*
G75*
G02*
X38043750Y75600000I218750J0D01*
G01*
G37*
G36*
G01*
X38043750Y74025000D02*
X38556250Y74025000D01*
G75*
G02*
X38775000Y73806250I0J-218750D01*
G01*
X38775000Y73368750D01*
G75*
G02*
X38556250Y73150000I-218750J0D01*
G01*
X38043750Y73150000D01*
G75*
G02*
X37825000Y73368750I0J218750D01*
G01*
X37825000Y73806250D01*
G75*
G02*
X38043750Y74025000I218750J0D01*
G01*
G37*
G04 #@! TD*
G04 #@! TO.C,Q1*
G36*
G01*
X82150000Y64300000D02*
X81450000Y64300000D01*
G75*
G02*
X81200000Y64550000I0J250000D01*
G01*
X81200000Y66250000D01*
G75*
G02*
X81450000Y66500000I250000J0D01*
G01*
X82150000Y66500000D01*
G75*
G02*
X82400000Y66250000I0J-250000D01*
G01*
X82400000Y64550000D01*
G75*
G02*
X82150000Y64300000I-250000J0D01*
G01*
G37*
G36*
G01*
X83680000Y68500000D02*
X81430000Y68500000D01*
G75*
G02*
X81180000Y68750000I0J250000D01*
G01*
X81180000Y71300000D01*
G75*
G02*
X81430000Y71550000I250000J0D01*
G01*
X83680000Y71550000D01*
G75*
G02*
X83930000Y71300000I0J-250000D01*
G01*
X83930000Y68750000D01*
G75*
G02*
X83680000Y68500000I-250000J0D01*
G01*
G37*
G36*
G01*
X86730000Y68500000D02*
X84480000Y68500000D01*
G75*
G02*
X84230000Y68750000I0J250000D01*
G01*
X84230000Y71300000D01*
G75*
G02*
X84480000Y71550000I250000J0D01*
G01*
X86730000Y71550000D01*
G75*
G02*
X86980000Y71300000I0J-250000D01*
G01*
X86980000Y68750000D01*
G75*
G02*
X86730000Y68500000I-250000J0D01*
G01*
G37*
G36*
G01*
X83680000Y71850000D02*
X81430000Y71850000D01*
G75*
G02*
X81180000Y72100000I0J250000D01*
G01*
X81180000Y74650000D01*
G75*
G02*
X81430000Y74900000I250000J0D01*
G01*
X83680000Y74900000D01*
G75*
G02*
X83930000Y74650000I0J-250000D01*
G01*
X83930000Y72100000D01*
G75*
G02*
X83680000Y71850000I-250000J0D01*
G01*
G37*
G36*
G01*
X86730000Y71850000D02*
X84480000Y71850000D01*
G75*
G02*
X84230000Y72100000I0J250000D01*
G01*
X84230000Y74650000D01*
G75*
G02*
X84480000Y74900000I250000J0D01*
G01*
X86730000Y74900000D01*
G75*
G02*
X86980000Y74650000I0J-250000D01*
G01*
X86980000Y72100000D01*
G75*
G02*
X86730000Y71850000I-250000J0D01*
G01*
G37*
G36*
G01*
X86710000Y64300000D02*
X86010000Y64300000D01*
G75*
G02*
X85760000Y64550000I0J250000D01*
G01*
X85760000Y66250000D01*
G75*
G02*
X86010000Y66500000I250000J0D01*
G01*
X86710000Y66500000D01*
G75*
G02*
X86960000Y66250000I0J-250000D01*
G01*
X86960000Y64550000D01*
G75*
G02*
X86710000Y64300000I-250000J0D01*
G01*
G37*
G04 #@! TD*
G04 #@! TO.C,Q4*
G36*
G01*
X57565000Y64300000D02*
X56865000Y64300000D01*
G75*
G02*
X56615000Y64550000I0J250000D01*
G01*
X56615000Y66250000D01*
G75*
G02*
X56865000Y66500000I250000J0D01*
G01*
X57565000Y66500000D01*
G75*
G02*
X57815000Y66250000I0J-250000D01*
G01*
X57815000Y64550000D01*
G75*
G02*
X57565000Y64300000I-250000J0D01*
G01*
G37*
G36*
G01*
X59095000Y68500000D02*
X56845000Y68500000D01*
G75*
G02*
X56595000Y68750000I0J250000D01*
G01*
X56595000Y71300000D01*
G75*
G02*
X56845000Y71550000I250000J0D01*
G01*
X59095000Y71550000D01*
G75*
G02*
X59345000Y71300000I0J-250000D01*
G01*
X59345000Y68750000D01*
G75*
G02*
X59095000Y68500000I-250000J0D01*
G01*
G37*
G36*
G01*
X62145000Y68500000D02*
X59895000Y68500000D01*
G75*
G02*
X59645000Y68750000I0J250000D01*
G01*
X59645000Y71300000D01*
G75*
G02*
X59895000Y71550000I250000J0D01*
G01*
X62145000Y71550000D01*
G75*
G02*
X62395000Y71300000I0J-250000D01*
G01*
X62395000Y68750000D01*
G75*
G02*
X62145000Y68500000I-250000J0D01*
G01*
G37*
G36*
G01*
X59095000Y71850000D02*
X56845000Y71850000D01*
G75*
G02*
X56595000Y72100000I0J250000D01*
G01*
X56595000Y74650000D01*
G75*
G02*
X56845000Y74900000I250000J0D01*
G01*
X59095000Y74900000D01*
G75*
G02*
X59345000Y74650000I0J-250000D01*
G01*
X59345000Y72100000D01*
G75*
G02*
X59095000Y71850000I-250000J0D01*
G01*
G37*
G36*
G01*
X62145000Y71850000D02*
X59895000Y71850000D01*
G75*
G02*
X59645000Y72100000I0J250000D01*
G01*
X59645000Y74650000D01*
G75*
G02*
X59895000Y74900000I250000J0D01*
G01*
X62145000Y74900000D01*
G75*
G02*
X62395000Y74650000I0J-250000D01*
G01*
X62395000Y72100000D01*
G75*
G02*
X62145000Y71850000I-250000J0D01*
G01*
G37*
G36*
G01*
X62125000Y64300000D02*
X61425000Y64300000D01*
G75*
G02*
X61175000Y64550000I0J250000D01*
G01*
X61175000Y66250000D01*
G75*
G02*
X61425000Y66500000I250000J0D01*
G01*
X62125000Y66500000D01*
G75*
G02*
X62375000Y66250000I0J-250000D01*
G01*
X62375000Y64550000D01*
G75*
G02*
X62125000Y64300000I-250000J0D01*
G01*
G37*
G04 #@! TD*
G04 #@! TO.C,C28*
G36*
G01*
X36875000Y70535000D02*
X36875000Y71215000D01*
G75*
G02*
X36960000Y71300000I85000J0D01*
G01*
X37640000Y71300000D01*
G75*
G02*
X37725000Y71215000I0J-85000D01*
G01*
X37725000Y70535000D01*
G75*
G02*
X37640000Y70450000I-85000J0D01*
G01*
X36960000Y70450000D01*
G75*
G02*
X36875000Y70535000I0J85000D01*
G01*
G37*
G36*
G01*
X38455002Y70535000D02*
X38455002Y71215000D01*
G75*
G02*
X38540002Y71300000I85000J0D01*
G01*
X39220002Y71300000D01*
G75*
G02*
X39305002Y71215000I0J-85000D01*
G01*
X39305002Y70535000D01*
G75*
G02*
X39220002Y70450000I-85000J0D01*
G01*
X38540002Y70450000D01*
G75*
G02*
X38455002Y70535000I0J85000D01*
G01*
G37*
G04 #@! TD*
G04 #@! TO.C,U7*
G36*
G01*
X46640000Y55425000D02*
X46340000Y55425000D01*
G75*
G02*
X46190000Y55575000I0J150000D01*
G01*
X46190000Y57225000D01*
G75*
G02*
X46340000Y57375000I150000J0D01*
G01*
X46640000Y57375000D01*
G75*
G02*
X46790000Y57225000I0J-150000D01*
G01*
X46790000Y55575000D01*
G75*
G02*
X46640000Y55425000I-150000J0D01*
G01*
G37*
G36*
G01*
X47910000Y55425000D02*
X47610000Y55425000D01*
G75*
G02*
X47460000Y55575000I0J150000D01*
G01*
X47460000Y57225000D01*
G75*
G02*
X47610000Y57375000I150000J0D01*
G01*
X47910000Y57375000D01*
G75*
G02*
X48060000Y57225000I0J-150000D01*
G01*
X48060000Y55575000D01*
G75*
G02*
X47910000Y55425000I-150000J0D01*
G01*
G37*
G36*
G01*
X49180000Y55425000D02*
X48880000Y55425000D01*
G75*
G02*
X48730000Y55575000I0J150000D01*
G01*
X48730000Y57225000D01*
G75*
G02*
X48880000Y57375000I150000J0D01*
G01*
X49180000Y57375000D01*
G75*
G02*
X49330000Y57225000I0J-150000D01*
G01*
X49330000Y55575000D01*
G75*
G02*
X49180000Y55425000I-150000J0D01*
G01*
G37*
G36*
G01*
X50450000Y55425000D02*
X50150000Y55425000D01*
G75*
G02*
X50000000Y55575000I0J150000D01*
G01*
X50000000Y57225000D01*
G75*
G02*
X50150000Y57375000I150000J0D01*
G01*
X50450000Y57375000D01*
G75*
G02*
X50600000Y57225000I0J-150000D01*
G01*
X50600000Y55575000D01*
G75*
G02*
X50450000Y55425000I-150000J0D01*
G01*
G37*
G36*
G01*
X50450000Y60375000D02*
X50150000Y60375000D01*
G75*
G02*
X50000000Y60525000I0J150000D01*
G01*
X50000000Y62175000D01*
G75*
G02*
X50150000Y62325000I150000J0D01*
G01*
X50450000Y62325000D01*
G75*
G02*
X50600000Y62175000I0J-150000D01*
G01*
X50600000Y60525000D01*
G75*
G02*
X50450000Y60375000I-150000J0D01*
G01*
G37*
G36*
G01*
X49180000Y60375000D02*
X48880000Y60375000D01*
G75*
G02*
X48730000Y60525000I0J150000D01*
G01*
X48730000Y62175000D01*
G75*
G02*
X48880000Y62325000I150000J0D01*
G01*
X49180000Y62325000D01*
G75*
G02*
X49330000Y62175000I0J-150000D01*
G01*
X49330000Y60525000D01*
G75*
G02*
X49180000Y60375000I-150000J0D01*
G01*
G37*
G36*
G01*
X47910000Y60375000D02*
X47610000Y60375000D01*
G75*
G02*
X47460000Y60525000I0J150000D01*
G01*
X47460000Y62175000D01*
G75*
G02*
X47610000Y62325000I150000J0D01*
G01*
X47910000Y62325000D01*
G75*
G02*
X48060000Y62175000I0J-150000D01*
G01*
X48060000Y60525000D01*
G75*
G02*
X47910000Y60375000I-150000J0D01*
G01*
G37*
G36*
G01*
X46640000Y60375000D02*
X46340000Y60375000D01*
G75*
G02*
X46190000Y60525000I0J150000D01*
G01*
X46190000Y62175000D01*
G75*
G02*
X46340000Y62325000I150000J0D01*
G01*
X46640000Y62325000D01*
G75*
G02*
X46790000Y62175000I0J-150000D01*
G01*
X46790000Y60525000D01*
G75*
G02*
X46640000Y60375000I-150000J0D01*
G01*
G37*
G04 #@! TD*
G04 #@! TO.C,U10*
G36*
G01*
X142220000Y80075000D02*
X141820000Y80075000D01*
G75*
G02*
X141620000Y80275000I0J200000D01*
G01*
X141620000Y82075000D01*
G75*
G02*
X141820000Y82275000I200000J0D01*
G01*
X142220000Y82275000D01*
G75*
G02*
X142420000Y82075000I0J-200000D01*
G01*
X142420000Y80275000D01*
G75*
G02*
X142220000Y80075000I-200000J0D01*
G01*
G37*
G36*
G01*
X143360000Y80075000D02*
X142960000Y80075000D01*
G75*
G02*
X142760000Y80275000I0J200000D01*
G01*
X142760000Y82075000D01*
G75*
G02*
X142960000Y82275000I200000J0D01*
G01*
X143360000Y82275000D01*
G75*
G02*
X143560000Y82075000I0J-200000D01*
G01*
X143560000Y80275000D01*
G75*
G02*
X143360000Y80075000I-200000J0D01*
G01*
G37*
G36*
G01*
X143900000Y84275000D02*
X141650000Y84275000D01*
G75*
G02*
X141400000Y84525000I0J250000D01*
G01*
X141400000Y87075000D01*
G75*
G02*
X141650000Y87325000I250000J0D01*
G01*
X143900000Y87325000D01*
G75*
G02*
X144150000Y87075000I0J-250000D01*
G01*
X144150000Y84525000D01*
G75*
G02*
X143900000Y84275000I-250000J0D01*
G01*
G37*
G36*
G01*
X146950000Y84275000D02*
X144700000Y84275000D01*
G75*
G02*
X144450000Y84525000I0J250000D01*
G01*
X144450000Y87075000D01*
G75*
G02*
X144700000Y87325000I250000J0D01*
G01*
X146950000Y87325000D01*
G75*
G02*
X147200000Y87075000I0J-250000D01*
G01*
X147200000Y84525000D01*
G75*
G02*
X146950000Y84275000I-250000J0D01*
G01*
G37*
G36*
G01*
X143900000Y87625000D02*
X141650000Y87625000D01*
G75*
G02*
X141400000Y87875000I0J250000D01*
G01*
X141400000Y90425000D01*
G75*
G02*
X141650000Y90675000I250000J0D01*
G01*
X143900000Y90675000D01*
G75*
G02*
X144150000Y90425000I0J-250000D01*
G01*
X144150000Y87875000D01*
G75*
G02*
X143900000Y87625000I-250000J0D01*
G01*
G37*
G36*
G01*
X146950000Y87625000D02*
X144700000Y87625000D01*
G75*
G02*
X144450000Y87875000I0J250000D01*
G01*
X144450000Y90425000D01*
G75*
G02*
X144700000Y90675000I250000J0D01*
G01*
X146950000Y90675000D01*
G75*
G02*
X147200000Y90425000I0J-250000D01*
G01*
X147200000Y87875000D01*
G75*
G02*
X146950000Y87625000I-250000J0D01*
G01*
G37*
G36*
G01*
X145640000Y80075000D02*
X145240000Y80075000D01*
G75*
G02*
X145040000Y80275000I0J200000D01*
G01*
X145040000Y82075000D01*
G75*
G02*
X145240000Y82275000I200000J0D01*
G01*
X145640000Y82275000D01*
G75*
G02*
X145840000Y82075000I0J-200000D01*
G01*
X145840000Y80275000D01*
G75*
G02*
X145640000Y80075000I-200000J0D01*
G01*
G37*
G36*
G01*
X146780000Y80075000D02*
X146380000Y80075000D01*
G75*
G02*
X146180000Y80275000I0J200000D01*
G01*
X146180000Y82075000D01*
G75*
G02*
X146380000Y82275000I200000J0D01*
G01*
X146780000Y82275000D01*
G75*
G02*
X146980000Y82075000I0J-200000D01*
G01*
X146980000Y80275000D01*
G75*
G02*
X146780000Y80075000I-200000J0D01*
G01*
G37*
G04 #@! TD*
G04 #@! TO.C,Q6*
G36*
G01*
X41175000Y64300000D02*
X40475000Y64300000D01*
G75*
G02*
X40225000Y64550000I0J250000D01*
G01*
X40225000Y66250000D01*
G75*
G02*
X40475000Y66500000I250000J0D01*
G01*
X41175000Y66500000D01*
G75*
G02*
X41425000Y66250000I0J-250000D01*
G01*
X41425000Y64550000D01*
G75*
G02*
X41175000Y64300000I-250000J0D01*
G01*
G37*
G36*
G01*
X42705000Y68500000D02*
X40455000Y68500000D01*
G75*
G02*
X40205000Y68750000I0J250000D01*
G01*
X40205000Y71300000D01*
G75*
G02*
X40455000Y71550000I250000J0D01*
G01*
X42705000Y71550000D01*
G75*
G02*
X42955000Y71300000I0J-250000D01*
G01*
X42955000Y68750000D01*
G75*
G02*
X42705000Y68500000I-250000J0D01*
G01*
G37*
G36*
G01*
X45755000Y68500000D02*
X43505000Y68500000D01*
G75*
G02*
X43255000Y68750000I0J250000D01*
G01*
X43255000Y71300000D01*
G75*
G02*
X43505000Y71550000I250000J0D01*
G01*
X45755000Y71550000D01*
G75*
G02*
X46005000Y71300000I0J-250000D01*
G01*
X46005000Y68750000D01*
G75*
G02*
X45755000Y68500000I-250000J0D01*
G01*
G37*
G36*
G01*
X42705000Y71850000D02*
X40455000Y71850000D01*
G75*
G02*
X40205000Y72100000I0J250000D01*
G01*
X40205000Y74650000D01*
G75*
G02*
X40455000Y74900000I250000J0D01*
G01*
X42705000Y74900000D01*
G75*
G02*
X42955000Y74650000I0J-250000D01*
G01*
X42955000Y72100000D01*
G75*
G02*
X42705000Y71850000I-250000J0D01*
G01*
G37*
G36*
G01*
X45755000Y71850000D02*
X43505000Y71850000D01*
G75*
G02*
X43255000Y72100000I0J250000D01*
G01*
X43255000Y74650000D01*
G75*
G02*
X43505000Y74900000I250000J0D01*
G01*
X45755000Y74900000D01*
G75*
G02*
X46005000Y74650000I0J-250000D01*
G01*
X46005000Y72100000D01*
G75*
G02*
X45755000Y71850000I-250000J0D01*
G01*
G37*
G36*
G01*
X45735000Y64300000D02*
X45035000Y64300000D01*
G75*
G02*
X44785000Y64550000I0J250000D01*
G01*
X44785000Y66250000D01*
G75*
G02*
X45035000Y66500000I250000J0D01*
G01*
X45735000Y66500000D01*
G75*
G02*
X45985000Y66250000I0J-250000D01*
G01*
X45985000Y64550000D01*
G75*
G02*
X45735000Y64300000I-250000J0D01*
G01*
G37*
G04 #@! TD*
G04 #@! TO.C,C29*
G36*
G01*
X37015001Y63715000D02*
X37015001Y63035000D01*
G75*
G02*
X36930001Y62950000I-85000J0D01*
G01*
X36250001Y62950000D01*
G75*
G02*
X36165001Y63035000I0J85000D01*
G01*
X36165001Y63715000D01*
G75*
G02*
X36250001Y63800000I85000J0D01*
G01*
X36930001Y63800000D01*
G75*
G02*
X37015001Y63715000I0J-85000D01*
G01*
G37*
G36*
G01*
X35434999Y63715000D02*
X35434999Y63035000D01*
G75*
G02*
X35349999Y62950000I-85000J0D01*
G01*
X34669999Y62950000D01*
G75*
G02*
X34584999Y63035000I0J85000D01*
G01*
X34584999Y63715000D01*
G75*
G02*
X34669999Y63800000I85000J0D01*
G01*
X35349999Y63800000D01*
G75*
G02*
X35434999Y63715000I0J-85000D01*
G01*
G37*
G04 #@! TD*
G04 #@! TO.C,C31*
G36*
G01*
X35140000Y58159999D02*
X34460000Y58159999D01*
G75*
G02*
X34375000Y58244999I0J85000D01*
G01*
X34375000Y58924999D01*
G75*
G02*
X34460000Y59009999I85000J0D01*
G01*
X35140000Y59009999D01*
G75*
G02*
X35225000Y58924999I0J-85000D01*
G01*
X35225000Y58244999D01*
G75*
G02*
X35140000Y58159999I-85000J0D01*
G01*
G37*
G36*
G01*
X35140000Y59740001D02*
X34460000Y59740001D01*
G75*
G02*
X34375000Y59825001I0J85000D01*
G01*
X34375000Y60505001D01*
G75*
G02*
X34460000Y60590001I85000J0D01*
G01*
X35140000Y60590001D01*
G75*
G02*
X35225000Y60505001I0J-85000D01*
G01*
X35225000Y59825001D01*
G75*
G02*
X35140000Y59740001I-85000J0D01*
G01*
G37*
G04 #@! TD*
G04 #@! TO.C,R8*
G36*
G01*
X102849999Y54250000D02*
X102849999Y55500000D01*
G75*
G02*
X102949999Y55600000I100000J0D01*
G01*
X103749999Y55600000D01*
G75*
G02*
X103849999Y55500000I0J-100000D01*
G01*
X103849999Y54250000D01*
G75*
G02*
X103749999Y54150000I-100000J0D01*
G01*
X102949999Y54150000D01*
G75*
G02*
X102849999Y54250000I0J100000D01*
G01*
G37*
G36*
G01*
X104750021Y54250000D02*
X104750021Y55500000D01*
G75*
G02*
X104850021Y55600000I100000J0D01*
G01*
X105650021Y55600000D01*
G75*
G02*
X105750021Y55500000I0J-100000D01*
G01*
X105750021Y54250000D01*
G75*
G02*
X105650021Y54150000I-100000J0D01*
G01*
X104850021Y54150000D01*
G75*
G02*
X104750021Y54250000I0J100000D01*
G01*
G37*
G04 #@! TD*
G04 #@! TO.C,R10*
G36*
G01*
X99349999Y57250000D02*
X99349999Y58500000D01*
G75*
G02*
X99449999Y58600000I100000J0D01*
G01*
X100249999Y58600000D01*
G75*
G02*
X100349999Y58500000I0J-100000D01*
G01*
X100349999Y57250000D01*
G75*
G02*
X100249999Y57150000I-100000J0D01*
G01*
X99449999Y57150000D01*
G75*
G02*
X99349999Y57250000I0J100000D01*
G01*
G37*
G36*
G01*
X101250021Y57250000D02*
X101250021Y58500000D01*
G75*
G02*
X101350021Y58600000I100000J0D01*
G01*
X102150021Y58600000D01*
G75*
G02*
X102250021Y58500000I0J-100000D01*
G01*
X102250021Y57250000D01*
G75*
G02*
X102150021Y57150000I-100000J0D01*
G01*
X101350021Y57150000D01*
G75*
G02*
X101250021Y57250000I0J100000D01*
G01*
G37*
G04 #@! TD*
G04 #@! TO.C,U5*
G36*
G01*
X60545000Y55425000D02*
X60245000Y55425000D01*
G75*
G02*
X60095000Y55575000I0J150000D01*
G01*
X60095000Y57225000D01*
G75*
G02*
X60245000Y57375000I150000J0D01*
G01*
X60545000Y57375000D01*
G75*
G02*
X60695000Y57225000I0J-150000D01*
G01*
X60695000Y55575000D01*
G75*
G02*
X60545000Y55425000I-150000J0D01*
G01*
G37*
G36*
G01*
X61815000Y55425000D02*
X61515000Y55425000D01*
G75*
G02*
X61365000Y55575000I0J150000D01*
G01*
X61365000Y57225000D01*
G75*
G02*
X61515000Y57375000I150000J0D01*
G01*
X61815000Y57375000D01*
G75*
G02*
X61965000Y57225000I0J-150000D01*
G01*
X61965000Y55575000D01*
G75*
G02*
X61815000Y55425000I-150000J0D01*
G01*
G37*
G36*
G01*
X63085000Y55425000D02*
X62785000Y55425000D01*
G75*
G02*
X62635000Y55575000I0J150000D01*
G01*
X62635000Y57225000D01*
G75*
G02*
X62785000Y57375000I150000J0D01*
G01*
X63085000Y57375000D01*
G75*
G02*
X63235000Y57225000I0J-150000D01*
G01*
X63235000Y55575000D01*
G75*
G02*
X63085000Y55425000I-150000J0D01*
G01*
G37*
G36*
G01*
X64355000Y55425000D02*
X64055000Y55425000D01*
G75*
G02*
X63905000Y55575000I0J150000D01*
G01*
X63905000Y57225000D01*
G75*
G02*
X64055000Y57375000I150000J0D01*
G01*
X64355000Y57375000D01*
G75*
G02*
X64505000Y57225000I0J-150000D01*
G01*
X64505000Y55575000D01*
G75*
G02*
X64355000Y55425000I-150000J0D01*
G01*
G37*
G36*
G01*
X64355000Y60375000D02*
X64055000Y60375000D01*
G75*
G02*
X63905000Y60525000I0J150000D01*
G01*
X63905000Y62175000D01*
G75*
G02*
X64055000Y62325000I150000J0D01*
G01*
X64355000Y62325000D01*
G75*
G02*
X64505000Y62175000I0J-150000D01*
G01*
X64505000Y60525000D01*
G75*
G02*
X64355000Y60375000I-150000J0D01*
G01*
G37*
G36*
G01*
X63085000Y60375000D02*
X62785000Y60375000D01*
G75*
G02*
X62635000Y60525000I0J150000D01*
G01*
X62635000Y62175000D01*
G75*
G02*
X62785000Y62325000I150000J0D01*
G01*
X63085000Y62325000D01*
G75*
G02*
X63235000Y62175000I0J-150000D01*
G01*
X63235000Y60525000D01*
G75*
G02*
X63085000Y60375000I-150000J0D01*
G01*
G37*
G36*
G01*
X61815000Y60375000D02*
X61515000Y60375000D01*
G75*
G02*
X61365000Y60525000I0J150000D01*
G01*
X61365000Y62175000D01*
G75*
G02*
X61515000Y62325000I150000J0D01*
G01*
X61815000Y62325000D01*
G75*
G02*
X61965000Y62175000I0J-150000D01*
G01*
X61965000Y60525000D01*
G75*
G02*
X61815000Y60375000I-150000J0D01*
G01*
G37*
G36*
G01*
X60545000Y60375000D02*
X60245000Y60375000D01*
G75*
G02*
X60095000Y60525000I0J150000D01*
G01*
X60095000Y62175000D01*
G75*
G02*
X60245000Y62325000I150000J0D01*
G01*
X60545000Y62325000D01*
G75*
G02*
X60695000Y62175000I0J-150000D01*
G01*
X60695000Y60525000D01*
G75*
G02*
X60545000Y60375000I-150000J0D01*
G01*
G37*
G04 #@! TD*
G04 #@! TO.C,F2*
G36*
G01*
X32400000Y73980010D02*
X32400000Y74670010D01*
G75*
G02*
X32630000Y74900010I230000J0D01*
G01*
X33970000Y74900010D01*
G75*
G02*
X34200000Y74670010I0J-230000D01*
G01*
X34200000Y73980010D01*
G75*
G02*
X33970000Y73750010I-230000J0D01*
G01*
X32630000Y73750010D01*
G75*
G02*
X32400000Y73980010I0J230000D01*
G01*
G37*
G36*
G01*
X32400000Y71079990D02*
X32400000Y71769990D01*
G75*
G02*
X32630000Y71999990I230000J0D01*
G01*
X33970000Y71999990D01*
G75*
G02*
X34200000Y71769990I0J-230000D01*
G01*
X34200000Y71079990D01*
G75*
G02*
X33970000Y70849990I-230000J0D01*
G01*
X32630000Y70849990D01*
G75*
G02*
X32400000Y71079990I0J230000D01*
G01*
G37*
G04 #@! TD*
G04 #@! TO.C,Q3*
G36*
G01*
X65760000Y64300000D02*
X65060000Y64300000D01*
G75*
G02*
X64810000Y64550000I0J250000D01*
G01*
X64810000Y66250000D01*
G75*
G02*
X65060000Y66500000I250000J0D01*
G01*
X65760000Y66500000D01*
G75*
G02*
X66010000Y66250000I0J-250000D01*
G01*
X66010000Y64550000D01*
G75*
G02*
X65760000Y64300000I-250000J0D01*
G01*
G37*
G36*
G01*
X67290000Y68500000D02*
X65040000Y68500000D01*
G75*
G02*
X64790000Y68750000I0J250000D01*
G01*
X64790000Y71300000D01*
G75*
G02*
X65040000Y71550000I250000J0D01*
G01*
X67290000Y71550000D01*
G75*
G02*
X67540000Y71300000I0J-250000D01*
G01*
X67540000Y68750000D01*
G75*
G02*
X67290000Y68500000I-250000J0D01*
G01*
G37*
G36*
G01*
X70340000Y68500000D02*
X68090000Y68500000D01*
G75*
G02*
X67840000Y68750000I0J250000D01*
G01*
X67840000Y71300000D01*
G75*
G02*
X68090000Y71550000I250000J0D01*
G01*
X70340000Y71550000D01*
G75*
G02*
X70590000Y71300000I0J-250000D01*
G01*
X70590000Y68750000D01*
G75*
G02*
X70340000Y68500000I-250000J0D01*
G01*
G37*
G36*
G01*
X67290000Y71850000D02*
X65040000Y71850000D01*
G75*
G02*
X64790000Y72100000I0J250000D01*
G01*
X64790000Y74650000D01*
G75*
G02*
X65040000Y74900000I250000J0D01*
G01*
X67290000Y74900000D01*
G75*
G02*
X67540000Y74650000I0J-250000D01*
G01*
X67540000Y72100000D01*
G75*
G02*
X67290000Y71850000I-250000J0D01*
G01*
G37*
G36*
G01*
X70340000Y71850000D02*
X68090000Y71850000D01*
G75*
G02*
X67840000Y72100000I0J250000D01*
G01*
X67840000Y74650000D01*
G75*
G02*
X68090000Y74900000I250000J0D01*
G01*
X70340000Y74900000D01*
G75*
G02*
X70590000Y74650000I0J-250000D01*
G01*
X70590000Y72100000D01*
G75*
G02*
X70340000Y71850000I-250000J0D01*
G01*
G37*
G36*
G01*
X70320000Y64300000D02*
X69620000Y64300000D01*
G75*
G02*
X69370000Y64550000I0J250000D01*
G01*
X69370000Y66250000D01*
G75*
G02*
X69620000Y66500000I250000J0D01*
G01*
X70320000Y66500000D01*
G75*
G02*
X70570000Y66250000I0J-250000D01*
G01*
X70570000Y64550000D01*
G75*
G02*
X70320000Y64300000I-250000J0D01*
G01*
G37*
G04 #@! TD*
G04 #@! TO.C,R4*
G36*
G01*
X52175000Y26875000D02*
X53425000Y26875000D01*
G75*
G02*
X53525000Y26775000I0J-100000D01*
G01*
X53525000Y25975000D01*
G75*
G02*
X53425000Y25875000I-100000J0D01*
G01*
X52175000Y25875000D01*
G75*
G02*
X52075000Y25975000I0J100000D01*
G01*
X52075000Y26775000D01*
G75*
G02*
X52175000Y26875000I100000J0D01*
G01*
G37*
G36*
G01*
X52175000Y24974978D02*
X53425000Y24974978D01*
G75*
G02*
X53525000Y24874978I0J-100000D01*
G01*
X53525000Y24074978D01*
G75*
G02*
X53425000Y23974978I-100000J0D01*
G01*
X52175000Y23974978D01*
G75*
G02*
X52075000Y24074978I0J100000D01*
G01*
X52075000Y24874978D01*
G75*
G02*
X52175000Y24974978I100000J0D01*
G01*
G37*
G04 #@! TD*
G04 #@! TO.C,R9*
G36*
G01*
X102849999Y51250000D02*
X102849999Y52500000D01*
G75*
G02*
X102949999Y52600000I100000J0D01*
G01*
X103749999Y52600000D01*
G75*
G02*
X103849999Y52500000I0J-100000D01*
G01*
X103849999Y51250000D01*
G75*
G02*
X103749999Y51150000I-100000J0D01*
G01*
X102949999Y51150000D01*
G75*
G02*
X102849999Y51250000I0J100000D01*
G01*
G37*
G36*
G01*
X104750021Y51250000D02*
X104750021Y52500000D01*
G75*
G02*
X104850021Y52600000I100000J0D01*
G01*
X105650021Y52600000D01*
G75*
G02*
X105750021Y52500000I0J-100000D01*
G01*
X105750021Y51250000D01*
G75*
G02*
X105650021Y51150000I-100000J0D01*
G01*
X104850021Y51150000D01*
G75*
G02*
X104750021Y51250000I0J100000D01*
G01*
G37*
G04 #@! TD*
G04 #@! TO.C,F3*
G36*
G01*
X116905010Y52275000D02*
X117595010Y52275000D01*
G75*
G02*
X117825010Y52045000I0J-230000D01*
G01*
X117825010Y50705000D01*
G75*
G02*
X117595010Y50475000I-230000J0D01*
G01*
X116905010Y50475000D01*
G75*
G02*
X116675010Y50705000I0J230000D01*
G01*
X116675010Y52045000D01*
G75*
G02*
X116905010Y52275000I230000J0D01*
G01*
G37*
G36*
G01*
X114004990Y52275000D02*
X114694990Y52275000D01*
G75*
G02*
X114924990Y52045000I0J-230000D01*
G01*
X114924990Y50705000D01*
G75*
G02*
X114694990Y50475000I-230000J0D01*
G01*
X114004990Y50475000D01*
G75*
G02*
X113774990Y50705000I0J230000D01*
G01*
X113774990Y52045000D01*
G75*
G02*
X114004990Y52275000I230000J0D01*
G01*
G37*
G04 #@! TD*
G04 #@! TO.C,F1*
G36*
G01*
X29900000Y73980010D02*
X29900000Y74670010D01*
G75*
G02*
X30130000Y74900010I230000J0D01*
G01*
X31470000Y74900010D01*
G75*
G02*
X31700000Y74670010I0J-230000D01*
G01*
X31700000Y73980010D01*
G75*
G02*
X31470000Y73750010I-230000J0D01*
G01*
X30130000Y73750010D01*
G75*
G02*
X29900000Y73980010I0J230000D01*
G01*
G37*
G36*
G01*
X29900000Y71079990D02*
X29900000Y71769990D01*
G75*
G02*
X30130000Y71999990I230000J0D01*
G01*
X31470000Y71999990D01*
G75*
G02*
X31700000Y71769990I0J-230000D01*
G01*
X31700000Y71079990D01*
G75*
G02*
X31470000Y70849990I-230000J0D01*
G01*
X30130000Y70849990D01*
G75*
G02*
X29900000Y71079990I0J230000D01*
G01*
G37*
G04 #@! TD*
G04 #@! TO.C,Q7*
G36*
G01*
X142500000Y75200000D02*
X142200000Y75200000D01*
G75*
G02*
X142050000Y75350000I0J150000D01*
G01*
X142050000Y76525000D01*
G75*
G02*
X142200000Y76675000I150000J0D01*
G01*
X142500000Y76675000D01*
G75*
G02*
X142650000Y76525000I0J-150000D01*
G01*
X142650000Y75350000D01*
G75*
G02*
X142500000Y75200000I-150000J0D01*
G01*
G37*
G36*
G01*
X144400000Y75200000D02*
X144100000Y75200000D01*
G75*
G02*
X143950000Y75350000I0J150000D01*
G01*
X143950000Y76525000D01*
G75*
G02*
X144100000Y76675000I150000J0D01*
G01*
X144400000Y76675000D01*
G75*
G02*
X144550000Y76525000I0J-150000D01*
G01*
X144550000Y75350000D01*
G75*
G02*
X144400000Y75200000I-150000J0D01*
G01*
G37*
G36*
G01*
X143450000Y77075000D02*
X143150000Y77075000D01*
G75*
G02*
X143000000Y77225000I0J150000D01*
G01*
X143000000Y78400000D01*
G75*
G02*
X143150000Y78550000I150000J0D01*
G01*
X143450000Y78550000D01*
G75*
G02*
X143600000Y78400000I0J-150000D01*
G01*
X143600000Y77225000D01*
G75*
G02*
X143450000Y77075000I-150000J0D01*
G01*
G37*
G04 #@! TD*
G04 #@! TO.C,R15*
G36*
G01*
X142150000Y72485000D02*
X142150000Y73265000D01*
G75*
G02*
X142220000Y73335000I70000J0D01*
G01*
X142780000Y73335000D01*
G75*
G02*
X142850000Y73265000I0J-70000D01*
G01*
X142850000Y72485000D01*
G75*
G02*
X142780000Y72415000I-70000J0D01*
G01*
X142220000Y72415000D01*
G75*
G02*
X142150000Y72485000I0J70000D01*
G01*
G37*
G36*
G01*
X143750000Y72485000D02*
X143750000Y73265000D01*
G75*
G02*
X143820000Y73335000I70000J0D01*
G01*
X144380000Y73335000D01*
G75*
G02*
X144450000Y73265000I0J-70000D01*
G01*
X144450000Y72485000D01*
G75*
G02*
X144380000Y72415000I-70000J0D01*
G01*
X143820000Y72415000D01*
G75*
G02*
X143750000Y72485000I0J70000D01*
G01*
G37*
G04 #@! TD*
G04 #@! TO.C,C30*
G36*
G01*
X37225000Y70215000D02*
X37225000Y69535000D01*
G75*
G02*
X37140000Y69450000I-85000J0D01*
G01*
X36460000Y69450000D01*
G75*
G02*
X36375000Y69535000I0J85000D01*
G01*
X36375000Y70215000D01*
G75*
G02*
X36460000Y70300000I85000J0D01*
G01*
X37140000Y70300000D01*
G75*
G02*
X37225000Y70215000I0J-85000D01*
G01*
G37*
G36*
G01*
X35644998Y70215000D02*
X35644998Y69535000D01*
G75*
G02*
X35559998Y69450000I-85000J0D01*
G01*
X34879998Y69450000D01*
G75*
G02*
X34794998Y69535000I0J85000D01*
G01*
X34794998Y70215000D01*
G75*
G02*
X34879998Y70300000I85000J0D01*
G01*
X35559998Y70300000D01*
G75*
G02*
X35644998Y70215000I0J-85000D01*
G01*
G37*
G04 #@! TD*
G04 #@! TO.C,D6*
G36*
G01*
X36600000Y68050000D02*
X36900000Y68050000D01*
G75*
G02*
X37050000Y67900000I0J-150000D01*
G01*
X37050000Y66725000D01*
G75*
G02*
X36900000Y66575000I-150000J0D01*
G01*
X36600000Y66575000D01*
G75*
G02*
X36450000Y66725000I0J150000D01*
G01*
X36450000Y67900000D01*
G75*
G02*
X36600000Y68050000I150000J0D01*
G01*
G37*
G36*
G01*
X34700000Y68050000D02*
X35000000Y68050000D01*
G75*
G02*
X35150000Y67900000I0J-150000D01*
G01*
X35150000Y66725000D01*
G75*
G02*
X35000000Y66575000I-150000J0D01*
G01*
X34700000Y66575000D01*
G75*
G02*
X34550000Y66725000I0J150000D01*
G01*
X34550000Y67900000D01*
G75*
G02*
X34700000Y68050000I150000J0D01*
G01*
G37*
G36*
G01*
X35650000Y66175000D02*
X35950000Y66175000D01*
G75*
G02*
X36100000Y66025000I0J-150000D01*
G01*
X36100000Y64850000D01*
G75*
G02*
X35950000Y64700000I-150000J0D01*
G01*
X35650000Y64700000D01*
G75*
G02*
X35500000Y64850000I0J150000D01*
G01*
X35500000Y66025000D01*
G75*
G02*
X35650000Y66175000I150000J0D01*
G01*
G37*
G04 #@! TD*
G04 #@! TO.C,U3*
G36*
G01*
X75045000Y55425000D02*
X74745000Y55425000D01*
G75*
G02*
X74595000Y55575000I0J150000D01*
G01*
X74595000Y57225000D01*
G75*
G02*
X74745000Y57375000I150000J0D01*
G01*
X75045000Y57375000D01*
G75*
G02*
X75195000Y57225000I0J-150000D01*
G01*
X75195000Y55575000D01*
G75*
G02*
X75045000Y55425000I-150000J0D01*
G01*
G37*
G36*
G01*
X76315000Y55425000D02*
X76015000Y55425000D01*
G75*
G02*
X75865000Y55575000I0J150000D01*
G01*
X75865000Y57225000D01*
G75*
G02*
X76015000Y57375000I150000J0D01*
G01*
X76315000Y57375000D01*
G75*
G02*
X76465000Y57225000I0J-150000D01*
G01*
X76465000Y55575000D01*
G75*
G02*
X76315000Y55425000I-150000J0D01*
G01*
G37*
G36*
G01*
X77585000Y55425000D02*
X77285000Y55425000D01*
G75*
G02*
X77135000Y55575000I0J150000D01*
G01*
X77135000Y57225000D01*
G75*
G02*
X77285000Y57375000I150000J0D01*
G01*
X77585000Y57375000D01*
G75*
G02*
X77735000Y57225000I0J-150000D01*
G01*
X77735000Y55575000D01*
G75*
G02*
X77585000Y55425000I-150000J0D01*
G01*
G37*
G36*
G01*
X78855000Y55425000D02*
X78555000Y55425000D01*
G75*
G02*
X78405000Y55575000I0J150000D01*
G01*
X78405000Y57225000D01*
G75*
G02*
X78555000Y57375000I150000J0D01*
G01*
X78855000Y57375000D01*
G75*
G02*
X79005000Y57225000I0J-150000D01*
G01*
X79005000Y55575000D01*
G75*
G02*
X78855000Y55425000I-150000J0D01*
G01*
G37*
G36*
G01*
X78855000Y60375000D02*
X78555000Y60375000D01*
G75*
G02*
X78405000Y60525000I0J150000D01*
G01*
X78405000Y62175000D01*
G75*
G02*
X78555000Y62325000I150000J0D01*
G01*
X78855000Y62325000D01*
G75*
G02*
X79005000Y62175000I0J-150000D01*
G01*
X79005000Y60525000D01*
G75*
G02*
X78855000Y60375000I-150000J0D01*
G01*
G37*
G36*
G01*
X77585000Y60375000D02*
X77285000Y60375000D01*
G75*
G02*
X77135000Y60525000I0J150000D01*
G01*
X77135000Y62175000D01*
G75*
G02*
X77285000Y62325000I150000J0D01*
G01*
X77585000Y62325000D01*
G75*
G02*
X77735000Y62175000I0J-150000D01*
G01*
X77735000Y60525000D01*
G75*
G02*
X77585000Y60375000I-150000J0D01*
G01*
G37*
G36*
G01*
X76315000Y60375000D02*
X76015000Y60375000D01*
G75*
G02*
X75865000Y60525000I0J150000D01*
G01*
X75865000Y62175000D01*
G75*
G02*
X76015000Y62325000I150000J0D01*
G01*
X76315000Y62325000D01*
G75*
G02*
X76465000Y62175000I0J-150000D01*
G01*
X76465000Y60525000D01*
G75*
G02*
X76315000Y60375000I-150000J0D01*
G01*
G37*
G36*
G01*
X75045000Y60375000D02*
X74745000Y60375000D01*
G75*
G02*
X74595000Y60525000I0J150000D01*
G01*
X74595000Y62175000D01*
G75*
G02*
X74745000Y62325000I150000J0D01*
G01*
X75045000Y62325000D01*
G75*
G02*
X75195000Y62175000I0J-150000D01*
G01*
X75195000Y60525000D01*
G75*
G02*
X75045000Y60375000I-150000J0D01*
G01*
G37*
G04 #@! TD*
G04 #@! TO.C,Q5*
G36*
G01*
X49370000Y64300000D02*
X48670000Y64300000D01*
G75*
G02*
X48420000Y64550000I0J250000D01*
G01*
X48420000Y66250000D01*
G75*
G02*
X48670000Y66500000I250000J0D01*
G01*
X49370000Y66500000D01*
G75*
G02*
X49620000Y66250000I0J-250000D01*
G01*
X49620000Y64550000D01*
G75*
G02*
X49370000Y64300000I-250000J0D01*
G01*
G37*
G36*
G01*
X50900000Y68500000D02*
X48650000Y68500000D01*
G75*
G02*
X48400000Y68750000I0J250000D01*
G01*
X48400000Y71300000D01*
G75*
G02*
X48650000Y71550000I250000J0D01*
G01*
X50900000Y71550000D01*
G75*
G02*
X51150000Y71300000I0J-250000D01*
G01*
X51150000Y68750000D01*
G75*
G02*
X50900000Y68500000I-250000J0D01*
G01*
G37*
G36*
G01*
X53950000Y68500000D02*
X51700000Y68500000D01*
G75*
G02*
X51450000Y68750000I0J250000D01*
G01*
X51450000Y71300000D01*
G75*
G02*
X51700000Y71550000I250000J0D01*
G01*
X53950000Y71550000D01*
G75*
G02*
X54200000Y71300000I0J-250000D01*
G01*
X54200000Y68750000D01*
G75*
G02*
X53950000Y68500000I-250000J0D01*
G01*
G37*
G36*
G01*
X50900000Y71850000D02*
X48650000Y71850000D01*
G75*
G02*
X48400000Y72100000I0J250000D01*
G01*
X48400000Y74650000D01*
G75*
G02*
X48650000Y74900000I250000J0D01*
G01*
X50900000Y74900000D01*
G75*
G02*
X51150000Y74650000I0J-250000D01*
G01*
X51150000Y72100000D01*
G75*
G02*
X50900000Y71850000I-250000J0D01*
G01*
G37*
G36*
G01*
X53950000Y71850000D02*
X51700000Y71850000D01*
G75*
G02*
X51450000Y72100000I0J250000D01*
G01*
X51450000Y74650000D01*
G75*
G02*
X51700000Y74900000I250000J0D01*
G01*
X53950000Y74900000D01*
G75*
G02*
X54200000Y74650000I0J-250000D01*
G01*
X54200000Y72100000D01*
G75*
G02*
X53950000Y71850000I-250000J0D01*
G01*
G37*
G36*
G01*
X53930000Y64300000D02*
X53230000Y64300000D01*
G75*
G02*
X52980000Y64550000I0J250000D01*
G01*
X52980000Y66250000D01*
G75*
G02*
X53230000Y66500000I250000J0D01*
G01*
X53930000Y66500000D01*
G75*
G02*
X54180000Y66250000I0J-250000D01*
G01*
X54180000Y64550000D01*
G75*
G02*
X53930000Y64300000I-250000J0D01*
G01*
G37*
G04 #@! TD*
G04 #@! TO.C,R1*
G36*
G01*
X110190000Y69225000D02*
X109410000Y69225000D01*
G75*
G02*
X109340000Y69295000I0J70000D01*
G01*
X109340000Y69855000D01*
G75*
G02*
X109410000Y69925000I70000J0D01*
G01*
X110190000Y69925000D01*
G75*
G02*
X110260000Y69855000I0J-70000D01*
G01*
X110260000Y69295000D01*
G75*
G02*
X110190000Y69225000I-70000J0D01*
G01*
G37*
G36*
G01*
X110190000Y70825000D02*
X109410000Y70825000D01*
G75*
G02*
X109340000Y70895000I0J70000D01*
G01*
X109340000Y71455000D01*
G75*
G02*
X109410000Y71525000I70000J0D01*
G01*
X110190000Y71525000D01*
G75*
G02*
X110260000Y71455000I0J-70000D01*
G01*
X110260000Y70895000D01*
G75*
G02*
X110190000Y70825000I-70000J0D01*
G01*
G37*
G04 #@! TD*
G04 #@! TO.C,R54*
G36*
G01*
X145910000Y78025000D02*
X146690000Y78025000D01*
G75*
G02*
X146760000Y77955000I0J-70000D01*
G01*
X146760000Y77395000D01*
G75*
G02*
X146690000Y77325000I-70000J0D01*
G01*
X145910000Y77325000D01*
G75*
G02*
X145840000Y77395000I0J70000D01*
G01*
X145840000Y77955000D01*
G75*
G02*
X145910000Y78025000I70000J0D01*
G01*
G37*
G36*
G01*
X145910000Y76425000D02*
X146690000Y76425000D01*
G75*
G02*
X146760000Y76355000I0J-70000D01*
G01*
X146760000Y75795000D01*
G75*
G02*
X146690000Y75725000I-70000J0D01*
G01*
X145910000Y75725000D01*
G75*
G02*
X145840000Y75795000I0J70000D01*
G01*
X145840000Y76355000D01*
G75*
G02*
X145910000Y76425000I70000J0D01*
G01*
G37*
G04 #@! TD*
G04 #@! TO.C,R6*
G36*
G01*
X93910000Y59225000D02*
X94690000Y59225000D01*
G75*
G02*
X94760000Y59155000I0J-70000D01*
G01*
X94760000Y58595000D01*
G75*
G02*
X94690000Y58525000I-70000J0D01*
G01*
X93910000Y58525000D01*
G75*
G02*
X93840000Y58595000I0J70000D01*
G01*
X93840000Y59155000D01*
G75*
G02*
X93910000Y59225000I70000J0D01*
G01*
G37*
G36*
G01*
X93910000Y57625000D02*
X94690000Y57625000D01*
G75*
G02*
X94760000Y57555000I0J-70000D01*
G01*
X94760000Y56995000D01*
G75*
G02*
X94690000Y56925000I-70000J0D01*
G01*
X93910000Y56925000D01*
G75*
G02*
X93840000Y56995000I0J70000D01*
G01*
X93840000Y57555000D01*
G75*
G02*
X93910000Y57625000I70000J0D01*
G01*
G37*
G04 #@! TD*
G04 #@! TO.C,U6*
G36*
G01*
X67680000Y55425000D02*
X67380000Y55425000D01*
G75*
G02*
X67230000Y55575000I0J150000D01*
G01*
X67230000Y57225000D01*
G75*
G02*
X67380000Y57375000I150000J0D01*
G01*
X67680000Y57375000D01*
G75*
G02*
X67830000Y57225000I0J-150000D01*
G01*
X67830000Y55575000D01*
G75*
G02*
X67680000Y55425000I-150000J0D01*
G01*
G37*
G36*
G01*
X68950000Y55425000D02*
X68650000Y55425000D01*
G75*
G02*
X68500000Y55575000I0J150000D01*
G01*
X68500000Y57225000D01*
G75*
G02*
X68650000Y57375000I150000J0D01*
G01*
X68950000Y57375000D01*
G75*
G02*
X69100000Y57225000I0J-150000D01*
G01*
X69100000Y55575000D01*
G75*
G02*
X68950000Y55425000I-150000J0D01*
G01*
G37*
G36*
G01*
X70220000Y55425000D02*
X69920000Y55425000D01*
G75*
G02*
X69770000Y55575000I0J150000D01*
G01*
X69770000Y57225000D01*
G75*
G02*
X69920000Y57375000I150000J0D01*
G01*
X70220000Y57375000D01*
G75*
G02*
X70370000Y57225000I0J-150000D01*
G01*
X70370000Y55575000D01*
G75*
G02*
X70220000Y55425000I-150000J0D01*
G01*
G37*
G36*
G01*
X71490000Y55425000D02*
X71190000Y55425000D01*
G75*
G02*
X71040000Y55575000I0J150000D01*
G01*
X71040000Y57225000D01*
G75*
G02*
X71190000Y57375000I150000J0D01*
G01*
X71490000Y57375000D01*
G75*
G02*
X71640000Y57225000I0J-150000D01*
G01*
X71640000Y55575000D01*
G75*
G02*
X71490000Y55425000I-150000J0D01*
G01*
G37*
G36*
G01*
X71490000Y60375000D02*
X71190000Y60375000D01*
G75*
G02*
X71040000Y60525000I0J150000D01*
G01*
X71040000Y62175000D01*
G75*
G02*
X71190000Y62325000I150000J0D01*
G01*
X71490000Y62325000D01*
G75*
G02*
X71640000Y62175000I0J-150000D01*
G01*
X71640000Y60525000D01*
G75*
G02*
X71490000Y60375000I-150000J0D01*
G01*
G37*
G36*
G01*
X70220000Y60375000D02*
X69920000Y60375000D01*
G75*
G02*
X69770000Y60525000I0J150000D01*
G01*
X69770000Y62175000D01*
G75*
G02*
X69920000Y62325000I150000J0D01*
G01*
X70220000Y62325000D01*
G75*
G02*
X70370000Y62175000I0J-150000D01*
G01*
X70370000Y60525000D01*
G75*
G02*
X70220000Y60375000I-150000J0D01*
G01*
G37*
G36*
G01*
X68950000Y60375000D02*
X68650000Y60375000D01*
G75*
G02*
X68500000Y60525000I0J150000D01*
G01*
X68500000Y62175000D01*
G75*
G02*
X68650000Y62325000I150000J0D01*
G01*
X68950000Y62325000D01*
G75*
G02*
X69100000Y62175000I0J-150000D01*
G01*
X69100000Y60525000D01*
G75*
G02*
X68950000Y60375000I-150000J0D01*
G01*
G37*
G36*
G01*
X67680000Y60375000D02*
X67380000Y60375000D01*
G75*
G02*
X67230000Y60525000I0J150000D01*
G01*
X67230000Y62175000D01*
G75*
G02*
X67380000Y62325000I150000J0D01*
G01*
X67680000Y62325000D01*
G75*
G02*
X67830000Y62175000I0J-150000D01*
G01*
X67830000Y60525000D01*
G75*
G02*
X67680000Y60375000I-150000J0D01*
G01*
G37*
G04 #@! TD*
G04 #@! TO.C,L1*
G36*
G01*
X36043750Y75600000D02*
X36556250Y75600000D01*
G75*
G02*
X36775000Y75381250I0J-218750D01*
G01*
X36775000Y74943750D01*
G75*
G02*
X36556250Y74725000I-218750J0D01*
G01*
X36043750Y74725000D01*
G75*
G02*
X35825000Y74943750I0J218750D01*
G01*
X35825000Y75381250D01*
G75*
G02*
X36043750Y75600000I218750J0D01*
G01*
G37*
G36*
G01*
X36043750Y74025000D02*
X36556250Y74025000D01*
G75*
G02*
X36775000Y73806250I0J-218750D01*
G01*
X36775000Y73368750D01*
G75*
G02*
X36556250Y73150000I-218750J0D01*
G01*
X36043750Y73150000D01*
G75*
G02*
X35825000Y73368750I0J218750D01*
G01*
X35825000Y73806250D01*
G75*
G02*
X36043750Y74025000I218750J0D01*
G01*
G37*
G04 #@! TD*
G04 #@! TO.C,R7*
G36*
G01*
X102849999Y57250000D02*
X102849999Y58500000D01*
G75*
G02*
X102949999Y58600000I100000J0D01*
G01*
X103749999Y58600000D01*
G75*
G02*
X103849999Y58500000I0J-100000D01*
G01*
X103849999Y57250000D01*
G75*
G02*
X103749999Y57150000I-100000J0D01*
G01*
X102949999Y57150000D01*
G75*
G02*
X102849999Y57250000I0J100000D01*
G01*
G37*
G36*
G01*
X104750021Y57250000D02*
X104750021Y58500000D01*
G75*
G02*
X104850021Y58600000I100000J0D01*
G01*
X105650021Y58600000D01*
G75*
G02*
X105750021Y58500000I0J-100000D01*
G01*
X105750021Y57250000D01*
G75*
G02*
X105650021Y57150000I-100000J0D01*
G01*
X104850021Y57150000D01*
G75*
G02*
X104750021Y57250000I0J100000D01*
G01*
G37*
G04 #@! TD*
G04 #@! TO.C,R11*
G36*
G01*
X99349999Y54250000D02*
X99349999Y55500000D01*
G75*
G02*
X99449999Y55600000I100000J0D01*
G01*
X100249999Y55600000D01*
G75*
G02*
X100349999Y55500000I0J-100000D01*
G01*
X100349999Y54250000D01*
G75*
G02*
X100249999Y54150000I-100000J0D01*
G01*
X99449999Y54150000D01*
G75*
G02*
X99349999Y54250000I0J100000D01*
G01*
G37*
G36*
G01*
X101250021Y54250000D02*
X101250021Y55500000D01*
G75*
G02*
X101350021Y55600000I100000J0D01*
G01*
X102150021Y55600000D01*
G75*
G02*
X102250021Y55500000I0J-100000D01*
G01*
X102250021Y54250000D01*
G75*
G02*
X102150021Y54150000I-100000J0D01*
G01*
X101350021Y54150000D01*
G75*
G02*
X101250021Y54250000I0J100000D01*
G01*
G37*
G04 #@! TD*
G04 #@! TO.C,U4*
G36*
G01*
X54045000Y55425000D02*
X53745000Y55425000D01*
G75*
G02*
X53595000Y55575000I0J150000D01*
G01*
X53595000Y57225000D01*
G75*
G02*
X53745000Y57375000I150000J0D01*
G01*
X54045000Y57375000D01*
G75*
G02*
X54195000Y57225000I0J-150000D01*
G01*
X54195000Y55575000D01*
G75*
G02*
X54045000Y55425000I-150000J0D01*
G01*
G37*
G36*
G01*
X55315000Y55425000D02*
X55015000Y55425000D01*
G75*
G02*
X54865000Y55575000I0J150000D01*
G01*
X54865000Y57225000D01*
G75*
G02*
X55015000Y57375000I150000J0D01*
G01*
X55315000Y57375000D01*
G75*
G02*
X55465000Y57225000I0J-150000D01*
G01*
X55465000Y55575000D01*
G75*
G02*
X55315000Y55425000I-150000J0D01*
G01*
G37*
G36*
G01*
X56585000Y55425000D02*
X56285000Y55425000D01*
G75*
G02*
X56135000Y55575000I0J150000D01*
G01*
X56135000Y57225000D01*
G75*
G02*
X56285000Y57375000I150000J0D01*
G01*
X56585000Y57375000D01*
G75*
G02*
X56735000Y57225000I0J-150000D01*
G01*
X56735000Y55575000D01*
G75*
G02*
X56585000Y55425000I-150000J0D01*
G01*
G37*
G36*
G01*
X57855000Y55425000D02*
X57555000Y55425000D01*
G75*
G02*
X57405000Y55575000I0J150000D01*
G01*
X57405000Y57225000D01*
G75*
G02*
X57555000Y57375000I150000J0D01*
G01*
X57855000Y57375000D01*
G75*
G02*
X58005000Y57225000I0J-150000D01*
G01*
X58005000Y55575000D01*
G75*
G02*
X57855000Y55425000I-150000J0D01*
G01*
G37*
G36*
G01*
X57855000Y60375000D02*
X57555000Y60375000D01*
G75*
G02*
X57405000Y60525000I0J150000D01*
G01*
X57405000Y62175000D01*
G75*
G02*
X57555000Y62325000I150000J0D01*
G01*
X57855000Y62325000D01*
G75*
G02*
X58005000Y62175000I0J-150000D01*
G01*
X58005000Y60525000D01*
G75*
G02*
X57855000Y60375000I-150000J0D01*
G01*
G37*
G36*
G01*
X56585000Y60375000D02*
X56285000Y60375000D01*
G75*
G02*
X56135000Y60525000I0J150000D01*
G01*
X56135000Y62175000D01*
G75*
G02*
X56285000Y62325000I150000J0D01*
G01*
X56585000Y62325000D01*
G75*
G02*
X56735000Y62175000I0J-150000D01*
G01*
X56735000Y60525000D01*
G75*
G02*
X56585000Y60375000I-150000J0D01*
G01*
G37*
G36*
G01*
X55315000Y60375000D02*
X55015000Y60375000D01*
G75*
G02*
X54865000Y60525000I0J150000D01*
G01*
X54865000Y62175000D01*
G75*
G02*
X55015000Y62325000I150000J0D01*
G01*
X55315000Y62325000D01*
G75*
G02*
X55465000Y62175000I0J-150000D01*
G01*
X55465000Y60525000D01*
G75*
G02*
X55315000Y60375000I-150000J0D01*
G01*
G37*
G36*
G01*
X54045000Y60375000D02*
X53745000Y60375000D01*
G75*
G02*
X53595000Y60525000I0J150000D01*
G01*
X53595000Y62175000D01*
G75*
G02*
X53745000Y62325000I150000J0D01*
G01*
X54045000Y62325000D01*
G75*
G02*
X54195000Y62175000I0J-150000D01*
G01*
X54195000Y60525000D01*
G75*
G02*
X54045000Y60375000I-150000J0D01*
G01*
G37*
G04 #@! TD*
G04 #@! TO.C,D5*
G36*
G01*
X152950000Y80125000D02*
X151650000Y80125000D01*
G75*
G02*
X151400000Y80375000I0J250000D01*
G01*
X151400000Y82375000D01*
G75*
G02*
X151650000Y82625000I250000J0D01*
G01*
X152950000Y82625000D01*
G75*
G02*
X153200000Y82375000I0J-250000D01*
G01*
X153200000Y80375000D01*
G75*
G02*
X152950000Y80125000I-250000J0D01*
G01*
G37*
G36*
G01*
X152950000Y84125000D02*
X151650000Y84125000D01*
G75*
G02*
X151400000Y84375000I0J250000D01*
G01*
X151400000Y86375000D01*
G75*
G02*
X151650000Y86625000I250000J0D01*
G01*
X152950000Y86625000D01*
G75*
G02*
X153200000Y86375000I0J-250000D01*
G01*
X153200000Y84375000D01*
G75*
G02*
X152950000Y84125000I-250000J0D01*
G01*
G37*
G04 #@! TD*
G04 #@! TO.C,Q2*
G36*
G01*
X73955000Y64300000D02*
X73255000Y64300000D01*
G75*
G02*
X73005000Y64550000I0J250000D01*
G01*
X73005000Y66250000D01*
G75*
G02*
X73255000Y66500000I250000J0D01*
G01*
X73955000Y66500000D01*
G75*
G02*
X74205000Y66250000I0J-250000D01*
G01*
X74205000Y64550000D01*
G75*
G02*
X73955000Y64300000I-250000J0D01*
G01*
G37*
G36*
G01*
X75485000Y68500000D02*
X73235000Y68500000D01*
G75*
G02*
X72985000Y68750000I0J250000D01*
G01*
X72985000Y71300000D01*
G75*
G02*
X73235000Y71550000I250000J0D01*
G01*
X75485000Y71550000D01*
G75*
G02*
X75735000Y71300000I0J-250000D01*
G01*
X75735000Y68750000D01*
G75*
G02*
X75485000Y68500000I-250000J0D01*
G01*
G37*
G36*
G01*
X78535000Y68500000D02*
X76285000Y68500000D01*
G75*
G02*
X76035000Y68750000I0J250000D01*
G01*
X76035000Y71300000D01*
G75*
G02*
X76285000Y71550000I250000J0D01*
G01*
X78535000Y71550000D01*
G75*
G02*
X78785000Y71300000I0J-250000D01*
G01*
X78785000Y68750000D01*
G75*
G02*
X78535000Y68500000I-250000J0D01*
G01*
G37*
G36*
G01*
X75485000Y71850000D02*
X73235000Y71850000D01*
G75*
G02*
X72985000Y72100000I0J250000D01*
G01*
X72985000Y74650000D01*
G75*
G02*
X73235000Y74900000I250000J0D01*
G01*
X75485000Y74900000D01*
G75*
G02*
X75735000Y74650000I0J-250000D01*
G01*
X75735000Y72100000D01*
G75*
G02*
X75485000Y71850000I-250000J0D01*
G01*
G37*
G36*
G01*
X78535000Y71850000D02*
X76285000Y71850000D01*
G75*
G02*
X76035000Y72100000I0J250000D01*
G01*
X76035000Y74650000D01*
G75*
G02*
X76285000Y74900000I250000J0D01*
G01*
X78535000Y74900000D01*
G75*
G02*
X78785000Y74650000I0J-250000D01*
G01*
X78785000Y72100000D01*
G75*
G02*
X78535000Y71850000I-250000J0D01*
G01*
G37*
G36*
G01*
X78515000Y64300000D02*
X77815000Y64300000D01*
G75*
G02*
X77565000Y64550000I0J250000D01*
G01*
X77565000Y66250000D01*
G75*
G02*
X77815000Y66500000I250000J0D01*
G01*
X78515000Y66500000D01*
G75*
G02*
X78765000Y66250000I0J-250000D01*
G01*
X78765000Y64550000D01*
G75*
G02*
X78515000Y64300000I-250000J0D01*
G01*
G37*
G04 #@! TD*
G04 #@! TO.C,C32*
G36*
G01*
X33640000Y58159999D02*
X32960000Y58159999D01*
G75*
G02*
X32875000Y58244999I0J85000D01*
G01*
X32875000Y58924999D01*
G75*
G02*
X32960000Y59009999I85000J0D01*
G01*
X33640000Y59009999D01*
G75*
G02*
X33725000Y58924999I0J-85000D01*
G01*
X33725000Y58244999D01*
G75*
G02*
X33640000Y58159999I-85000J0D01*
G01*
G37*
G36*
G01*
X33640000Y59740001D02*
X32960000Y59740001D01*
G75*
G02*
X32875000Y59825001I0J85000D01*
G01*
X32875000Y60505001D01*
G75*
G02*
X32960000Y60590001I85000J0D01*
G01*
X33640000Y60590001D01*
G75*
G02*
X33725000Y60505001I0J-85000D01*
G01*
X33725000Y59825001D01*
G75*
G02*
X33640000Y59740001I-85000J0D01*
G01*
G37*
G04 #@! TD*
D10*
G04 #@! TO.C,M7*
X42112501Y20231666D03*
G04 #@! TD*
G04 #@! TO.C,R5*
G36*
G01*
X95910000Y59225000D02*
X96690000Y59225000D01*
G75*
G02*
X96760000Y59155000I0J-70000D01*
G01*
X96760000Y58595000D01*
G75*
G02*
X96690000Y58525000I-70000J0D01*
G01*
X95910000Y58525000D01*
G75*
G02*
X95840000Y58595000I0J70000D01*
G01*
X95840000Y59155000D01*
G75*
G02*
X95910000Y59225000I70000J0D01*
G01*
G37*
G36*
G01*
X95910000Y57625000D02*
X96690000Y57625000D01*
G75*
G02*
X96760000Y57555000I0J-70000D01*
G01*
X96760000Y56995000D01*
G75*
G02*
X96690000Y56925000I-70000J0D01*
G01*
X95910000Y56925000D01*
G75*
G02*
X95840000Y56995000I0J70000D01*
G01*
X95840000Y57555000D01*
G75*
G02*
X95910000Y57625000I70000J0D01*
G01*
G37*
G04 #@! TD*
G04 #@! TO.C,U9*
G36*
G01*
X82545000Y55425000D02*
X82245000Y55425000D01*
G75*
G02*
X82095000Y55575000I0J150000D01*
G01*
X82095000Y57225000D01*
G75*
G02*
X82245000Y57375000I150000J0D01*
G01*
X82545000Y57375000D01*
G75*
G02*
X82695000Y57225000I0J-150000D01*
G01*
X82695000Y55575000D01*
G75*
G02*
X82545000Y55425000I-150000J0D01*
G01*
G37*
G36*
G01*
X83815000Y55425000D02*
X83515000Y55425000D01*
G75*
G02*
X83365000Y55575000I0J150000D01*
G01*
X83365000Y57225000D01*
G75*
G02*
X83515000Y57375000I150000J0D01*
G01*
X83815000Y57375000D01*
G75*
G02*
X83965000Y57225000I0J-150000D01*
G01*
X83965000Y55575000D01*
G75*
G02*
X83815000Y55425000I-150000J0D01*
G01*
G37*
G36*
G01*
X85085000Y55425000D02*
X84785000Y55425000D01*
G75*
G02*
X84635000Y55575000I0J150000D01*
G01*
X84635000Y57225000D01*
G75*
G02*
X84785000Y57375000I150000J0D01*
G01*
X85085000Y57375000D01*
G75*
G02*
X85235000Y57225000I0J-150000D01*
G01*
X85235000Y55575000D01*
G75*
G02*
X85085000Y55425000I-150000J0D01*
G01*
G37*
G36*
G01*
X86355000Y55425000D02*
X86055000Y55425000D01*
G75*
G02*
X85905000Y55575000I0J150000D01*
G01*
X85905000Y57225000D01*
G75*
G02*
X86055000Y57375000I150000J0D01*
G01*
X86355000Y57375000D01*
G75*
G02*
X86505000Y57225000I0J-150000D01*
G01*
X86505000Y55575000D01*
G75*
G02*
X86355000Y55425000I-150000J0D01*
G01*
G37*
G36*
G01*
X86355000Y60375000D02*
X86055000Y60375000D01*
G75*
G02*
X85905000Y60525000I0J150000D01*
G01*
X85905000Y62175000D01*
G75*
G02*
X86055000Y62325000I150000J0D01*
G01*
X86355000Y62325000D01*
G75*
G02*
X86505000Y62175000I0J-150000D01*
G01*
X86505000Y60525000D01*
G75*
G02*
X86355000Y60375000I-150000J0D01*
G01*
G37*
G36*
G01*
X85085000Y60375000D02*
X84785000Y60375000D01*
G75*
G02*
X84635000Y60525000I0J150000D01*
G01*
X84635000Y62175000D01*
G75*
G02*
X84785000Y62325000I150000J0D01*
G01*
X85085000Y62325000D01*
G75*
G02*
X85235000Y62175000I0J-150000D01*
G01*
X85235000Y60525000D01*
G75*
G02*
X85085000Y60375000I-150000J0D01*
G01*
G37*
G36*
G01*
X83815000Y60375000D02*
X83515000Y60375000D01*
G75*
G02*
X83365000Y60525000I0J150000D01*
G01*
X83365000Y62175000D01*
G75*
G02*
X83515000Y62325000I150000J0D01*
G01*
X83815000Y62325000D01*
G75*
G02*
X83965000Y62175000I0J-150000D01*
G01*
X83965000Y60525000D01*
G75*
G02*
X83815000Y60375000I-150000J0D01*
G01*
G37*
G36*
G01*
X82545000Y60375000D02*
X82245000Y60375000D01*
G75*
G02*
X82095000Y60525000I0J150000D01*
G01*
X82095000Y62175000D01*
G75*
G02*
X82245000Y62325000I150000J0D01*
G01*
X82545000Y62325000D01*
G75*
G02*
X82695000Y62175000I0J-150000D01*
G01*
X82695000Y60525000D01*
G75*
G02*
X82545000Y60375000I-150000J0D01*
G01*
G37*
G04 #@! TD*
G04 #@! TO.C,U11*
G36*
G01*
X22045000Y26925000D02*
X21745000Y26925000D01*
G75*
G02*
X21595000Y27075000I0J150000D01*
G01*
X21595000Y28725000D01*
G75*
G02*
X21745000Y28875000I150000J0D01*
G01*
X22045000Y28875000D01*
G75*
G02*
X22195000Y28725000I0J-150000D01*
G01*
X22195000Y27075000D01*
G75*
G02*
X22045000Y26925000I-150000J0D01*
G01*
G37*
G36*
G01*
X23315000Y26925000D02*
X23015000Y26925000D01*
G75*
G02*
X22865000Y27075000I0J150000D01*
G01*
X22865000Y28725000D01*
G75*
G02*
X23015000Y28875000I150000J0D01*
G01*
X23315000Y28875000D01*
G75*
G02*
X23465000Y28725000I0J-150000D01*
G01*
X23465000Y27075000D01*
G75*
G02*
X23315000Y26925000I-150000J0D01*
G01*
G37*
G36*
G01*
X24585000Y26925000D02*
X24285000Y26925000D01*
G75*
G02*
X24135000Y27075000I0J150000D01*
G01*
X24135000Y28725000D01*
G75*
G02*
X24285000Y28875000I150000J0D01*
G01*
X24585000Y28875000D01*
G75*
G02*
X24735000Y28725000I0J-150000D01*
G01*
X24735000Y27075000D01*
G75*
G02*
X24585000Y26925000I-150000J0D01*
G01*
G37*
G36*
G01*
X25855000Y26925000D02*
X25555000Y26925000D01*
G75*
G02*
X25405000Y27075000I0J150000D01*
G01*
X25405000Y28725000D01*
G75*
G02*
X25555000Y28875000I150000J0D01*
G01*
X25855000Y28875000D01*
G75*
G02*
X26005000Y28725000I0J-150000D01*
G01*
X26005000Y27075000D01*
G75*
G02*
X25855000Y26925000I-150000J0D01*
G01*
G37*
G36*
G01*
X25855000Y31875000D02*
X25555000Y31875000D01*
G75*
G02*
X25405000Y32025000I0J150000D01*
G01*
X25405000Y33675000D01*
G75*
G02*
X25555000Y33825000I150000J0D01*
G01*
X25855000Y33825000D01*
G75*
G02*
X26005000Y33675000I0J-150000D01*
G01*
X26005000Y32025000D01*
G75*
G02*
X25855000Y31875000I-150000J0D01*
G01*
G37*
G36*
G01*
X24585000Y31875000D02*
X24285000Y31875000D01*
G75*
G02*
X24135000Y32025000I0J150000D01*
G01*
X24135000Y33675000D01*
G75*
G02*
X24285000Y33825000I150000J0D01*
G01*
X24585000Y33825000D01*
G75*
G02*
X24735000Y33675000I0J-150000D01*
G01*
X24735000Y32025000D01*
G75*
G02*
X24585000Y31875000I-150000J0D01*
G01*
G37*
G36*
G01*
X23315000Y31875000D02*
X23015000Y31875000D01*
G75*
G02*
X22865000Y32025000I0J150000D01*
G01*
X22865000Y33675000D01*
G75*
G02*
X23015000Y33825000I150000J0D01*
G01*
X23315000Y33825000D01*
G75*
G02*
X23465000Y33675000I0J-150000D01*
G01*
X23465000Y32025000D01*
G75*
G02*
X23315000Y31875000I-150000J0D01*
G01*
G37*
G36*
G01*
X22045000Y31875000D02*
X21745000Y31875000D01*
G75*
G02*
X21595000Y32025000I0J150000D01*
G01*
X21595000Y33675000D01*
G75*
G02*
X21745000Y33825000I150000J0D01*
G01*
X22045000Y33825000D01*
G75*
G02*
X22195000Y33675000I0J-150000D01*
G01*
X22195000Y32025000D01*
G75*
G02*
X22045000Y31875000I-150000J0D01*
G01*
G37*
G04 #@! TD*
G04 #@! TO.C,U8*
G36*
G01*
X40555000Y61325000D02*
X40855000Y61325000D01*
G75*
G02*
X41005000Y61175000I0J-150000D01*
G01*
X41005000Y59525000D01*
G75*
G02*
X40855000Y59375000I-150000J0D01*
G01*
X40555000Y59375000D01*
G75*
G02*
X40405000Y59525000I0J150000D01*
G01*
X40405000Y61175000D01*
G75*
G02*
X40555000Y61325000I150000J0D01*
G01*
G37*
G36*
G01*
X39285000Y61325000D02*
X39585000Y61325000D01*
G75*
G02*
X39735000Y61175000I0J-150000D01*
G01*
X39735000Y59525000D01*
G75*
G02*
X39585000Y59375000I-150000J0D01*
G01*
X39285000Y59375000D01*
G75*
G02*
X39135000Y59525000I0J150000D01*
G01*
X39135000Y61175000D01*
G75*
G02*
X39285000Y61325000I150000J0D01*
G01*
G37*
G36*
G01*
X38015000Y61325000D02*
X38315000Y61325000D01*
G75*
G02*
X38465000Y61175000I0J-150000D01*
G01*
X38465000Y59525000D01*
G75*
G02*
X38315000Y59375000I-150000J0D01*
G01*
X38015000Y59375000D01*
G75*
G02*
X37865000Y59525000I0J150000D01*
G01*
X37865000Y61175000D01*
G75*
G02*
X38015000Y61325000I150000J0D01*
G01*
G37*
G36*
G01*
X36745000Y61325000D02*
X37045000Y61325000D01*
G75*
G02*
X37195000Y61175000I0J-150000D01*
G01*
X37195000Y59525000D01*
G75*
G02*
X37045000Y59375000I-150000J0D01*
G01*
X36745000Y59375000D01*
G75*
G02*
X36595000Y59525000I0J150000D01*
G01*
X36595000Y61175000D01*
G75*
G02*
X36745000Y61325000I150000J0D01*
G01*
G37*
G36*
G01*
X36745000Y56375000D02*
X37045000Y56375000D01*
G75*
G02*
X37195000Y56225000I0J-150000D01*
G01*
X37195000Y54575000D01*
G75*
G02*
X37045000Y54425000I-150000J0D01*
G01*
X36745000Y54425000D01*
G75*
G02*
X36595000Y54575000I0J150000D01*
G01*
X36595000Y56225000D01*
G75*
G02*
X36745000Y56375000I150000J0D01*
G01*
G37*
G36*
G01*
X38015000Y56375000D02*
X38315000Y56375000D01*
G75*
G02*
X38465000Y56225000I0J-150000D01*
G01*
X38465000Y54575000D01*
G75*
G02*
X38315000Y54425000I-150000J0D01*
G01*
X38015000Y54425000D01*
G75*
G02*
X37865000Y54575000I0J150000D01*
G01*
X37865000Y56225000D01*
G75*
G02*
X38015000Y56375000I150000J0D01*
G01*
G37*
G36*
G01*
X39285000Y56375000D02*
X39585000Y56375000D01*
G75*
G02*
X39735000Y56225000I0J-150000D01*
G01*
X39735000Y54575000D01*
G75*
G02*
X39585000Y54425000I-150000J0D01*
G01*
X39285000Y54425000D01*
G75*
G02*
X39135000Y54575000I0J150000D01*
G01*
X39135000Y56225000D01*
G75*
G02*
X39285000Y56375000I150000J0D01*
G01*
G37*
G36*
G01*
X40555000Y56375000D02*
X40855000Y56375000D01*
G75*
G02*
X41005000Y56225000I0J-150000D01*
G01*
X41005000Y54575000D01*
G75*
G02*
X40855000Y54425000I-150000J0D01*
G01*
X40555000Y54425000D01*
G75*
G02*
X40405000Y54575000I0J150000D01*
G01*
X40405000Y56225000D01*
G75*
G02*
X40555000Y56375000I150000J0D01*
G01*
G37*
G04 #@! TD*
M02*
