G04 #@! TF.GenerationSoftware,KiCad,Pcbnew,8.0.8*
G04 #@! TF.CreationDate,2025-12-21T11:00:02-05:00*
G04 #@! TF.ProjectId,greenenergyecu,67726565-6e65-46e6-9572-67796563752e,d*
G04 #@! TF.SameCoordinates,PX2b953a0PY6943058*
G04 #@! TF.FileFunction,Paste,Top*
G04 #@! TF.FilePolarity,Positive*
%FSLAX46Y46*%
G04 Gerber Fmt 4.6, Leading zero omitted, Abs format (unit mm)*
G04 Created by KiCad (PCBNEW 8.0.8) date 2025-12-21 11:00:02*
%MOMM*%
%LPD*%
G01*
G04 APERTURE LIST*
%ADD10O,0.000001X0.000001*%
G04 APERTURE END LIST*
G04 #@! TO.C,U10*
G36*
G01*
X84485000Y59292779D02*
X84485000Y59692779D01*
G75*
G02*
X84685000Y59892779I200000J0D01*
G01*
X86485000Y59892779D01*
G75*
G02*
X86685000Y59692779I0J-200000D01*
G01*
X86685000Y59292779D01*
G75*
G02*
X86485000Y59092779I-200000J0D01*
G01*
X84685000Y59092779D01*
G75*
G02*
X84485000Y59292779I0J200000D01*
G01*
G37*
G36*
G01*
X84485000Y58152779D02*
X84485000Y58552779D01*
G75*
G02*
X84685000Y58752779I200000J0D01*
G01*
X86485000Y58752779D01*
G75*
G02*
X86685000Y58552779I0J-200000D01*
G01*
X86685000Y58152779D01*
G75*
G02*
X86485000Y57952779I-200000J0D01*
G01*
X84685000Y57952779D01*
G75*
G02*
X84485000Y58152779I0J200000D01*
G01*
G37*
G36*
G01*
X88685000Y57612779D02*
X88685000Y59862779D01*
G75*
G02*
X88935000Y60112779I250000J0D01*
G01*
X91485000Y60112779D01*
G75*
G02*
X91735000Y59862779I0J-250000D01*
G01*
X91735000Y57612779D01*
G75*
G02*
X91485000Y57362779I-250000J0D01*
G01*
X88935000Y57362779D01*
G75*
G02*
X88685000Y57612779I0J250000D01*
G01*
G37*
G36*
G01*
X88685000Y54562779D02*
X88685000Y56812779D01*
G75*
G02*
X88935000Y57062779I250000J0D01*
G01*
X91485000Y57062779D01*
G75*
G02*
X91735000Y56812779I0J-250000D01*
G01*
X91735000Y54562779D01*
G75*
G02*
X91485000Y54312779I-250000J0D01*
G01*
X88935000Y54312779D01*
G75*
G02*
X88685000Y54562779I0J250000D01*
G01*
G37*
G36*
G01*
X92035000Y57612779D02*
X92035000Y59862779D01*
G75*
G02*
X92285000Y60112779I250000J0D01*
G01*
X94835000Y60112779D01*
G75*
G02*
X95085000Y59862779I0J-250000D01*
G01*
X95085000Y57612779D01*
G75*
G02*
X94835000Y57362779I-250000J0D01*
G01*
X92285000Y57362779D01*
G75*
G02*
X92035000Y57612779I0J250000D01*
G01*
G37*
G36*
G01*
X92035000Y54562779D02*
X92035000Y56812779D01*
G75*
G02*
X92285000Y57062779I250000J0D01*
G01*
X94835000Y57062779D01*
G75*
G02*
X95085000Y56812779I0J-250000D01*
G01*
X95085000Y54562779D01*
G75*
G02*
X94835000Y54312779I-250000J0D01*
G01*
X92285000Y54312779D01*
G75*
G02*
X92035000Y54562779I0J250000D01*
G01*
G37*
G36*
G01*
X84485000Y55872779D02*
X84485000Y56272779D01*
G75*
G02*
X84685000Y56472779I200000J0D01*
G01*
X86485000Y56472779D01*
G75*
G02*
X86685000Y56272779I0J-200000D01*
G01*
X86685000Y55872779D01*
G75*
G02*
X86485000Y55672779I-200000J0D01*
G01*
X84685000Y55672779D01*
G75*
G02*
X84485000Y55872779I0J200000D01*
G01*
G37*
G36*
G01*
X84485000Y54732779D02*
X84485000Y55132779D01*
G75*
G02*
X84685000Y55332779I200000J0D01*
G01*
X86485000Y55332779D01*
G75*
G02*
X86685000Y55132779I0J-200000D01*
G01*
X86685000Y54732779D01*
G75*
G02*
X86485000Y54532779I-200000J0D01*
G01*
X84685000Y54532779D01*
G75*
G02*
X84485000Y54732779I0J200000D01*
G01*
G37*
G04 #@! TD*
G04 #@! TO.C,U8*
G36*
G01*
X54465000Y40227779D02*
X54465000Y40527779D01*
G75*
G02*
X54615000Y40677779I150000J0D01*
G01*
X56265000Y40677779D01*
G75*
G02*
X56415000Y40527779I0J-150000D01*
G01*
X56415000Y40227779D01*
G75*
G02*
X56265000Y40077779I-150000J0D01*
G01*
X54615000Y40077779D01*
G75*
G02*
X54465000Y40227779I0J150000D01*
G01*
G37*
G36*
G01*
X54465000Y38957779D02*
X54465000Y39257779D01*
G75*
G02*
X54615000Y39407779I150000J0D01*
G01*
X56265000Y39407779D01*
G75*
G02*
X56415000Y39257779I0J-150000D01*
G01*
X56415000Y38957779D01*
G75*
G02*
X56265000Y38807779I-150000J0D01*
G01*
X54615000Y38807779D01*
G75*
G02*
X54465000Y38957779I0J150000D01*
G01*
G37*
G36*
G01*
X54465000Y37687779D02*
X54465000Y37987779D01*
G75*
G02*
X54615000Y38137779I150000J0D01*
G01*
X56265000Y38137779D01*
G75*
G02*
X56415000Y37987779I0J-150000D01*
G01*
X56415000Y37687779D01*
G75*
G02*
X56265000Y37537779I-150000J0D01*
G01*
X54615000Y37537779D01*
G75*
G02*
X54465000Y37687779I0J150000D01*
G01*
G37*
G36*
G01*
X54465000Y36417779D02*
X54465000Y36717779D01*
G75*
G02*
X54615000Y36867779I150000J0D01*
G01*
X56265000Y36867779D01*
G75*
G02*
X56415000Y36717779I0J-150000D01*
G01*
X56415000Y36417779D01*
G75*
G02*
X56265000Y36267779I-150000J0D01*
G01*
X54615000Y36267779D01*
G75*
G02*
X54465000Y36417779I0J150000D01*
G01*
G37*
G36*
G01*
X59415000Y36417779D02*
X59415000Y36717779D01*
G75*
G02*
X59565000Y36867779I150000J0D01*
G01*
X61215000Y36867779D01*
G75*
G02*
X61365000Y36717779I0J-150000D01*
G01*
X61365000Y36417779D01*
G75*
G02*
X61215000Y36267779I-150000J0D01*
G01*
X59565000Y36267779D01*
G75*
G02*
X59415000Y36417779I0J150000D01*
G01*
G37*
G36*
G01*
X59415000Y37687779D02*
X59415000Y37987779D01*
G75*
G02*
X59565000Y38137779I150000J0D01*
G01*
X61215000Y38137779D01*
G75*
G02*
X61365000Y37987779I0J-150000D01*
G01*
X61365000Y37687779D01*
G75*
G02*
X61215000Y37537779I-150000J0D01*
G01*
X59565000Y37537779D01*
G75*
G02*
X59415000Y37687779I0J150000D01*
G01*
G37*
G36*
G01*
X59415000Y38957779D02*
X59415000Y39257779D01*
G75*
G02*
X59565000Y39407779I150000J0D01*
G01*
X61215000Y39407779D01*
G75*
G02*
X61365000Y39257779I0J-150000D01*
G01*
X61365000Y38957779D01*
G75*
G02*
X61215000Y38807779I-150000J0D01*
G01*
X59565000Y38807779D01*
G75*
G02*
X59415000Y38957779I0J150000D01*
G01*
G37*
G36*
G01*
X59415000Y40227779D02*
X59415000Y40527779D01*
G75*
G02*
X59565000Y40677779I150000J0D01*
G01*
X61215000Y40677779D01*
G75*
G02*
X61365000Y40527779I0J-150000D01*
G01*
X61365000Y40227779D01*
G75*
G02*
X61215000Y40077779I-150000J0D01*
G01*
X59565000Y40077779D01*
G75*
G02*
X59415000Y40227779I0J150000D01*
G01*
G37*
G04 #@! TD*
G04 #@! TO.C,U7*
G36*
G01*
X68665000Y40227779D02*
X68665000Y40527779D01*
G75*
G02*
X68815000Y40677779I150000J0D01*
G01*
X70465000Y40677779D01*
G75*
G02*
X70615000Y40527779I0J-150000D01*
G01*
X70615000Y40227779D01*
G75*
G02*
X70465000Y40077779I-150000J0D01*
G01*
X68815000Y40077779D01*
G75*
G02*
X68665000Y40227779I0J150000D01*
G01*
G37*
G36*
G01*
X68665000Y38957779D02*
X68665000Y39257779D01*
G75*
G02*
X68815000Y39407779I150000J0D01*
G01*
X70465000Y39407779D01*
G75*
G02*
X70615000Y39257779I0J-150000D01*
G01*
X70615000Y38957779D01*
G75*
G02*
X70465000Y38807779I-150000J0D01*
G01*
X68815000Y38807779D01*
G75*
G02*
X68665000Y38957779I0J150000D01*
G01*
G37*
G36*
G01*
X68665000Y37687779D02*
X68665000Y37987779D01*
G75*
G02*
X68815000Y38137779I150000J0D01*
G01*
X70465000Y38137779D01*
G75*
G02*
X70615000Y37987779I0J-150000D01*
G01*
X70615000Y37687779D01*
G75*
G02*
X70465000Y37537779I-150000J0D01*
G01*
X68815000Y37537779D01*
G75*
G02*
X68665000Y37687779I0J150000D01*
G01*
G37*
G36*
G01*
X68665000Y36417779D02*
X68665000Y36717779D01*
G75*
G02*
X68815000Y36867779I150000J0D01*
G01*
X70465000Y36867779D01*
G75*
G02*
X70615000Y36717779I0J-150000D01*
G01*
X70615000Y36417779D01*
G75*
G02*
X70465000Y36267779I-150000J0D01*
G01*
X68815000Y36267779D01*
G75*
G02*
X68665000Y36417779I0J150000D01*
G01*
G37*
G36*
G01*
X73615000Y36417779D02*
X73615000Y36717779D01*
G75*
G02*
X73765000Y36867779I150000J0D01*
G01*
X75415000Y36867779D01*
G75*
G02*
X75565000Y36717779I0J-150000D01*
G01*
X75565000Y36417779D01*
G75*
G02*
X75415000Y36267779I-150000J0D01*
G01*
X73765000Y36267779D01*
G75*
G02*
X73615000Y36417779I0J150000D01*
G01*
G37*
G36*
G01*
X73615000Y37687779D02*
X73615000Y37987779D01*
G75*
G02*
X73765000Y38137779I150000J0D01*
G01*
X75415000Y38137779D01*
G75*
G02*
X75565000Y37987779I0J-150000D01*
G01*
X75565000Y37687779D01*
G75*
G02*
X75415000Y37537779I-150000J0D01*
G01*
X73765000Y37537779D01*
G75*
G02*
X73615000Y37687779I0J150000D01*
G01*
G37*
G36*
G01*
X73615000Y38957779D02*
X73615000Y39257779D01*
G75*
G02*
X73765000Y39407779I150000J0D01*
G01*
X75415000Y39407779D01*
G75*
G02*
X75565000Y39257779I0J-150000D01*
G01*
X75565000Y38957779D01*
G75*
G02*
X75415000Y38807779I-150000J0D01*
G01*
X73765000Y38807779D01*
G75*
G02*
X73615000Y38957779I0J150000D01*
G01*
G37*
G36*
G01*
X73615000Y40227779D02*
X73615000Y40527779D01*
G75*
G02*
X73765000Y40677779I150000J0D01*
G01*
X75415000Y40677779D01*
G75*
G02*
X75565000Y40527779I0J-150000D01*
G01*
X75565000Y40227779D01*
G75*
G02*
X75415000Y40077779I-150000J0D01*
G01*
X73765000Y40077779D01*
G75*
G02*
X73615000Y40227779I0J150000D01*
G01*
G37*
G04 #@! TD*
G04 #@! TO.C,U6*
G36*
G01*
X99175000Y34307779D02*
X99175000Y34607779D01*
G75*
G02*
X99325000Y34757779I150000J0D01*
G01*
X100975000Y34757779D01*
G75*
G02*
X101125000Y34607779I0J-150000D01*
G01*
X101125000Y34307779D01*
G75*
G02*
X100975000Y34157779I-150000J0D01*
G01*
X99325000Y34157779D01*
G75*
G02*
X99175000Y34307779I0J150000D01*
G01*
G37*
G36*
G01*
X99175000Y33037779D02*
X99175000Y33337779D01*
G75*
G02*
X99325000Y33487779I150000J0D01*
G01*
X100975000Y33487779D01*
G75*
G02*
X101125000Y33337779I0J-150000D01*
G01*
X101125000Y33037779D01*
G75*
G02*
X100975000Y32887779I-150000J0D01*
G01*
X99325000Y32887779D01*
G75*
G02*
X99175000Y33037779I0J150000D01*
G01*
G37*
G36*
G01*
X99175000Y31767779D02*
X99175000Y32067779D01*
G75*
G02*
X99325000Y32217779I150000J0D01*
G01*
X100975000Y32217779D01*
G75*
G02*
X101125000Y32067779I0J-150000D01*
G01*
X101125000Y31767779D01*
G75*
G02*
X100975000Y31617779I-150000J0D01*
G01*
X99325000Y31617779D01*
G75*
G02*
X99175000Y31767779I0J150000D01*
G01*
G37*
G36*
G01*
X99175000Y30497779D02*
X99175000Y30797779D01*
G75*
G02*
X99325000Y30947779I150000J0D01*
G01*
X100975000Y30947779D01*
G75*
G02*
X101125000Y30797779I0J-150000D01*
G01*
X101125000Y30497779D01*
G75*
G02*
X100975000Y30347779I-150000J0D01*
G01*
X99325000Y30347779D01*
G75*
G02*
X99175000Y30497779I0J150000D01*
G01*
G37*
G36*
G01*
X104125000Y30497779D02*
X104125000Y30797779D01*
G75*
G02*
X104275000Y30947779I150000J0D01*
G01*
X105925000Y30947779D01*
G75*
G02*
X106075000Y30797779I0J-150000D01*
G01*
X106075000Y30497779D01*
G75*
G02*
X105925000Y30347779I-150000J0D01*
G01*
X104275000Y30347779D01*
G75*
G02*
X104125000Y30497779I0J150000D01*
G01*
G37*
G36*
G01*
X104125000Y31767779D02*
X104125000Y32067779D01*
G75*
G02*
X104275000Y32217779I150000J0D01*
G01*
X105925000Y32217779D01*
G75*
G02*
X106075000Y32067779I0J-150000D01*
G01*
X106075000Y31767779D01*
G75*
G02*
X105925000Y31617779I-150000J0D01*
G01*
X104275000Y31617779D01*
G75*
G02*
X104125000Y31767779I0J150000D01*
G01*
G37*
G36*
G01*
X104125000Y33037779D02*
X104125000Y33337779D01*
G75*
G02*
X104275000Y33487779I150000J0D01*
G01*
X105925000Y33487779D01*
G75*
G02*
X106075000Y33337779I0J-150000D01*
G01*
X106075000Y33037779D01*
G75*
G02*
X105925000Y32887779I-150000J0D01*
G01*
X104275000Y32887779D01*
G75*
G02*
X104125000Y33037779I0J150000D01*
G01*
G37*
G36*
G01*
X104125000Y34307779D02*
X104125000Y34607779D01*
G75*
G02*
X104275000Y34757779I150000J0D01*
G01*
X105925000Y34757779D01*
G75*
G02*
X106075000Y34607779I0J-150000D01*
G01*
X106075000Y34307779D01*
G75*
G02*
X105925000Y34157779I-150000J0D01*
G01*
X104275000Y34157779D01*
G75*
G02*
X104125000Y34307779I0J150000D01*
G01*
G37*
G04 #@! TD*
G04 #@! TO.C,U5*
G36*
G01*
X99175000Y40887779D02*
X99175000Y41187779D01*
G75*
G02*
X99325000Y41337779I150000J0D01*
G01*
X100975000Y41337779D01*
G75*
G02*
X101125000Y41187779I0J-150000D01*
G01*
X101125000Y40887779D01*
G75*
G02*
X100975000Y40737779I-150000J0D01*
G01*
X99325000Y40737779D01*
G75*
G02*
X99175000Y40887779I0J150000D01*
G01*
G37*
G36*
G01*
X99175000Y39617779D02*
X99175000Y39917779D01*
G75*
G02*
X99325000Y40067779I150000J0D01*
G01*
X100975000Y40067779D01*
G75*
G02*
X101125000Y39917779I0J-150000D01*
G01*
X101125000Y39617779D01*
G75*
G02*
X100975000Y39467779I-150000J0D01*
G01*
X99325000Y39467779D01*
G75*
G02*
X99175000Y39617779I0J150000D01*
G01*
G37*
G36*
G01*
X99175000Y38347779D02*
X99175000Y38647779D01*
G75*
G02*
X99325000Y38797779I150000J0D01*
G01*
X100975000Y38797779D01*
G75*
G02*
X101125000Y38647779I0J-150000D01*
G01*
X101125000Y38347779D01*
G75*
G02*
X100975000Y38197779I-150000J0D01*
G01*
X99325000Y38197779D01*
G75*
G02*
X99175000Y38347779I0J150000D01*
G01*
G37*
G36*
G01*
X99175000Y37077779D02*
X99175000Y37377779D01*
G75*
G02*
X99325000Y37527779I150000J0D01*
G01*
X100975000Y37527779D01*
G75*
G02*
X101125000Y37377779I0J-150000D01*
G01*
X101125000Y37077779D01*
G75*
G02*
X100975000Y36927779I-150000J0D01*
G01*
X99325000Y36927779D01*
G75*
G02*
X99175000Y37077779I0J150000D01*
G01*
G37*
G36*
G01*
X104125000Y37077779D02*
X104125000Y37377779D01*
G75*
G02*
X104275000Y37527779I150000J0D01*
G01*
X105925000Y37527779D01*
G75*
G02*
X106075000Y37377779I0J-150000D01*
G01*
X106075000Y37077779D01*
G75*
G02*
X105925000Y36927779I-150000J0D01*
G01*
X104275000Y36927779D01*
G75*
G02*
X104125000Y37077779I0J150000D01*
G01*
G37*
G36*
G01*
X104125000Y38347779D02*
X104125000Y38647779D01*
G75*
G02*
X104275000Y38797779I150000J0D01*
G01*
X105925000Y38797779D01*
G75*
G02*
X106075000Y38647779I0J-150000D01*
G01*
X106075000Y38347779D01*
G75*
G02*
X105925000Y38197779I-150000J0D01*
G01*
X104275000Y38197779D01*
G75*
G02*
X104125000Y38347779I0J150000D01*
G01*
G37*
G36*
G01*
X104125000Y39617779D02*
X104125000Y39917779D01*
G75*
G02*
X104275000Y40067779I150000J0D01*
G01*
X105925000Y40067779D01*
G75*
G02*
X106075000Y39917779I0J-150000D01*
G01*
X106075000Y39617779D01*
G75*
G02*
X105925000Y39467779I-150000J0D01*
G01*
X104275000Y39467779D01*
G75*
G02*
X104125000Y39617779I0J150000D01*
G01*
G37*
G36*
G01*
X104125000Y40887779D02*
X104125000Y41187779D01*
G75*
G02*
X104275000Y41337779I150000J0D01*
G01*
X105925000Y41337779D01*
G75*
G02*
X106075000Y41187779I0J-150000D01*
G01*
X106075000Y40887779D01*
G75*
G02*
X105925000Y40737779I-150000J0D01*
G01*
X104275000Y40737779D01*
G75*
G02*
X104125000Y40887779I0J150000D01*
G01*
G37*
G04 #@! TD*
G04 #@! TO.C,U4*
G36*
G01*
X99175000Y47467779D02*
X99175000Y47767779D01*
G75*
G02*
X99325000Y47917779I150000J0D01*
G01*
X100975000Y47917779D01*
G75*
G02*
X101125000Y47767779I0J-150000D01*
G01*
X101125000Y47467779D01*
G75*
G02*
X100975000Y47317779I-150000J0D01*
G01*
X99325000Y47317779D01*
G75*
G02*
X99175000Y47467779I0J150000D01*
G01*
G37*
G36*
G01*
X99175000Y46197779D02*
X99175000Y46497779D01*
G75*
G02*
X99325000Y46647779I150000J0D01*
G01*
X100975000Y46647779D01*
G75*
G02*
X101125000Y46497779I0J-150000D01*
G01*
X101125000Y46197779D01*
G75*
G02*
X100975000Y46047779I-150000J0D01*
G01*
X99325000Y46047779D01*
G75*
G02*
X99175000Y46197779I0J150000D01*
G01*
G37*
G36*
G01*
X99175000Y44927779D02*
X99175000Y45227779D01*
G75*
G02*
X99325000Y45377779I150000J0D01*
G01*
X100975000Y45377779D01*
G75*
G02*
X101125000Y45227779I0J-150000D01*
G01*
X101125000Y44927779D01*
G75*
G02*
X100975000Y44777779I-150000J0D01*
G01*
X99325000Y44777779D01*
G75*
G02*
X99175000Y44927779I0J150000D01*
G01*
G37*
G36*
G01*
X99175000Y43657779D02*
X99175000Y43957779D01*
G75*
G02*
X99325000Y44107779I150000J0D01*
G01*
X100975000Y44107779D01*
G75*
G02*
X101125000Y43957779I0J-150000D01*
G01*
X101125000Y43657779D01*
G75*
G02*
X100975000Y43507779I-150000J0D01*
G01*
X99325000Y43507779D01*
G75*
G02*
X99175000Y43657779I0J150000D01*
G01*
G37*
G36*
G01*
X104125000Y43657779D02*
X104125000Y43957779D01*
G75*
G02*
X104275000Y44107779I150000J0D01*
G01*
X105925000Y44107779D01*
G75*
G02*
X106075000Y43957779I0J-150000D01*
G01*
X106075000Y43657779D01*
G75*
G02*
X105925000Y43507779I-150000J0D01*
G01*
X104275000Y43507779D01*
G75*
G02*
X104125000Y43657779I0J150000D01*
G01*
G37*
G36*
G01*
X104125000Y44927779D02*
X104125000Y45227779D01*
G75*
G02*
X104275000Y45377779I150000J0D01*
G01*
X105925000Y45377779D01*
G75*
G02*
X106075000Y45227779I0J-150000D01*
G01*
X106075000Y44927779D01*
G75*
G02*
X105925000Y44777779I-150000J0D01*
G01*
X104275000Y44777779D01*
G75*
G02*
X104125000Y44927779I0J150000D01*
G01*
G37*
G36*
G01*
X104125000Y46197779D02*
X104125000Y46497779D01*
G75*
G02*
X104275000Y46647779I150000J0D01*
G01*
X105925000Y46647779D01*
G75*
G02*
X106075000Y46497779I0J-150000D01*
G01*
X106075000Y46197779D01*
G75*
G02*
X105925000Y46047779I-150000J0D01*
G01*
X104275000Y46047779D01*
G75*
G02*
X104125000Y46197779I0J150000D01*
G01*
G37*
G36*
G01*
X104125000Y47467779D02*
X104125000Y47767779D01*
G75*
G02*
X104275000Y47917779I150000J0D01*
G01*
X105925000Y47917779D01*
G75*
G02*
X106075000Y47767779I0J-150000D01*
G01*
X106075000Y47467779D01*
G75*
G02*
X105925000Y47317779I-150000J0D01*
G01*
X104275000Y47317779D01*
G75*
G02*
X104125000Y47467779I0J150000D01*
G01*
G37*
G04 #@! TD*
G04 #@! TO.C,U3*
G36*
G01*
X99175000Y54047779D02*
X99175000Y54347779D01*
G75*
G02*
X99325000Y54497779I150000J0D01*
G01*
X100975000Y54497779D01*
G75*
G02*
X101125000Y54347779I0J-150000D01*
G01*
X101125000Y54047779D01*
G75*
G02*
X100975000Y53897779I-150000J0D01*
G01*
X99325000Y53897779D01*
G75*
G02*
X99175000Y54047779I0J150000D01*
G01*
G37*
G36*
G01*
X99175000Y52777779D02*
X99175000Y53077779D01*
G75*
G02*
X99325000Y53227779I150000J0D01*
G01*
X100975000Y53227779D01*
G75*
G02*
X101125000Y53077779I0J-150000D01*
G01*
X101125000Y52777779D01*
G75*
G02*
X100975000Y52627779I-150000J0D01*
G01*
X99325000Y52627779D01*
G75*
G02*
X99175000Y52777779I0J150000D01*
G01*
G37*
G36*
G01*
X99175000Y51507779D02*
X99175000Y51807779D01*
G75*
G02*
X99325000Y51957779I150000J0D01*
G01*
X100975000Y51957779D01*
G75*
G02*
X101125000Y51807779I0J-150000D01*
G01*
X101125000Y51507779D01*
G75*
G02*
X100975000Y51357779I-150000J0D01*
G01*
X99325000Y51357779D01*
G75*
G02*
X99175000Y51507779I0J150000D01*
G01*
G37*
G36*
G01*
X99175000Y50237779D02*
X99175000Y50537779D01*
G75*
G02*
X99325000Y50687779I150000J0D01*
G01*
X100975000Y50687779D01*
G75*
G02*
X101125000Y50537779I0J-150000D01*
G01*
X101125000Y50237779D01*
G75*
G02*
X100975000Y50087779I-150000J0D01*
G01*
X99325000Y50087779D01*
G75*
G02*
X99175000Y50237779I0J150000D01*
G01*
G37*
G36*
G01*
X104125000Y50237779D02*
X104125000Y50537779D01*
G75*
G02*
X104275000Y50687779I150000J0D01*
G01*
X105925000Y50687779D01*
G75*
G02*
X106075000Y50537779I0J-150000D01*
G01*
X106075000Y50237779D01*
G75*
G02*
X105925000Y50087779I-150000J0D01*
G01*
X104275000Y50087779D01*
G75*
G02*
X104125000Y50237779I0J150000D01*
G01*
G37*
G36*
G01*
X104125000Y51507779D02*
X104125000Y51807779D01*
G75*
G02*
X104275000Y51957779I150000J0D01*
G01*
X105925000Y51957779D01*
G75*
G02*
X106075000Y51807779I0J-150000D01*
G01*
X106075000Y51507779D01*
G75*
G02*
X105925000Y51357779I-150000J0D01*
G01*
X104275000Y51357779D01*
G75*
G02*
X104125000Y51507779I0J150000D01*
G01*
G37*
G36*
G01*
X104125000Y52777779D02*
X104125000Y53077779D01*
G75*
G02*
X104275000Y53227779I150000J0D01*
G01*
X105925000Y53227779D01*
G75*
G02*
X106075000Y53077779I0J-150000D01*
G01*
X106075000Y52777779D01*
G75*
G02*
X105925000Y52627779I-150000J0D01*
G01*
X104275000Y52627779D01*
G75*
G02*
X104125000Y52777779I0J150000D01*
G01*
G37*
G36*
G01*
X104125000Y54047779D02*
X104125000Y54347779D01*
G75*
G02*
X104275000Y54497779I150000J0D01*
G01*
X105925000Y54497779D01*
G75*
G02*
X106075000Y54347779I0J-150000D01*
G01*
X106075000Y54047779D01*
G75*
G02*
X105925000Y53897779I-150000J0D01*
G01*
X104275000Y53897779D01*
G75*
G02*
X104125000Y54047779I0J150000D01*
G01*
G37*
G04 #@! TD*
G04 #@! TO.C,U2*
G36*
G01*
X40585000Y33647779D02*
X40585000Y33947779D01*
G75*
G02*
X40735000Y34097779I150000J0D01*
G01*
X42385000Y34097779D01*
G75*
G02*
X42535000Y33947779I0J-150000D01*
G01*
X42535000Y33647779D01*
G75*
G02*
X42385000Y33497779I-150000J0D01*
G01*
X40735000Y33497779D01*
G75*
G02*
X40585000Y33647779I0J150000D01*
G01*
G37*
G36*
G01*
X40585000Y32377779D02*
X40585000Y32677779D01*
G75*
G02*
X40735000Y32827779I150000J0D01*
G01*
X42385000Y32827779D01*
G75*
G02*
X42535000Y32677779I0J-150000D01*
G01*
X42535000Y32377779D01*
G75*
G02*
X42385000Y32227779I-150000J0D01*
G01*
X40735000Y32227779D01*
G75*
G02*
X40585000Y32377779I0J150000D01*
G01*
G37*
G36*
G01*
X40585000Y31107779D02*
X40585000Y31407779D01*
G75*
G02*
X40735000Y31557779I150000J0D01*
G01*
X42385000Y31557779D01*
G75*
G02*
X42535000Y31407779I0J-150000D01*
G01*
X42535000Y31107779D01*
G75*
G02*
X42385000Y30957779I-150000J0D01*
G01*
X40735000Y30957779D01*
G75*
G02*
X40585000Y31107779I0J150000D01*
G01*
G37*
G36*
G01*
X40585000Y29837779D02*
X40585000Y30137779D01*
G75*
G02*
X40735000Y30287779I150000J0D01*
G01*
X42385000Y30287779D01*
G75*
G02*
X42535000Y30137779I0J-150000D01*
G01*
X42535000Y29837779D01*
G75*
G02*
X42385000Y29687779I-150000J0D01*
G01*
X40735000Y29687779D01*
G75*
G02*
X40585000Y29837779I0J150000D01*
G01*
G37*
G36*
G01*
X45535000Y29837779D02*
X45535000Y30137779D01*
G75*
G02*
X45685000Y30287779I150000J0D01*
G01*
X47335000Y30287779D01*
G75*
G02*
X47485000Y30137779I0J-150000D01*
G01*
X47485000Y29837779D01*
G75*
G02*
X47335000Y29687779I-150000J0D01*
G01*
X45685000Y29687779D01*
G75*
G02*
X45535000Y29837779I0J150000D01*
G01*
G37*
G36*
G01*
X45535000Y31107779D02*
X45535000Y31407779D01*
G75*
G02*
X45685000Y31557779I150000J0D01*
G01*
X47335000Y31557779D01*
G75*
G02*
X47485000Y31407779I0J-150000D01*
G01*
X47485000Y31107779D01*
G75*
G02*
X47335000Y30957779I-150000J0D01*
G01*
X45685000Y30957779D01*
G75*
G02*
X45535000Y31107779I0J150000D01*
G01*
G37*
G36*
G01*
X45535000Y32377779D02*
X45535000Y32677779D01*
G75*
G02*
X45685000Y32827779I150000J0D01*
G01*
X47335000Y32827779D01*
G75*
G02*
X47485000Y32677779I0J-150000D01*
G01*
X47485000Y32377779D01*
G75*
G02*
X47335000Y32227779I-150000J0D01*
G01*
X45685000Y32227779D01*
G75*
G02*
X45535000Y32377779I0J150000D01*
G01*
G37*
G36*
G01*
X45535000Y33647779D02*
X45535000Y33947779D01*
G75*
G02*
X45685000Y34097779I150000J0D01*
G01*
X47335000Y34097779D01*
G75*
G02*
X47485000Y33947779I0J-150000D01*
G01*
X47485000Y33647779D01*
G75*
G02*
X47335000Y33497779I-150000J0D01*
G01*
X45685000Y33497779D01*
G75*
G02*
X45535000Y33647779I0J150000D01*
G01*
G37*
G04 #@! TD*
G04 #@! TO.C,U1*
G36*
G01*
X40585000Y40227779D02*
X40585000Y40527779D01*
G75*
G02*
X40735000Y40677779I150000J0D01*
G01*
X42385000Y40677779D01*
G75*
G02*
X42535000Y40527779I0J-150000D01*
G01*
X42535000Y40227779D01*
G75*
G02*
X42385000Y40077779I-150000J0D01*
G01*
X40735000Y40077779D01*
G75*
G02*
X40585000Y40227779I0J150000D01*
G01*
G37*
G36*
G01*
X40585000Y38957779D02*
X40585000Y39257779D01*
G75*
G02*
X40735000Y39407779I150000J0D01*
G01*
X42385000Y39407779D01*
G75*
G02*
X42535000Y39257779I0J-150000D01*
G01*
X42535000Y38957779D01*
G75*
G02*
X42385000Y38807779I-150000J0D01*
G01*
X40735000Y38807779D01*
G75*
G02*
X40585000Y38957779I0J150000D01*
G01*
G37*
G36*
G01*
X40585000Y37687779D02*
X40585000Y37987779D01*
G75*
G02*
X40735000Y38137779I150000J0D01*
G01*
X42385000Y38137779D01*
G75*
G02*
X42535000Y37987779I0J-150000D01*
G01*
X42535000Y37687779D01*
G75*
G02*
X42385000Y37537779I-150000J0D01*
G01*
X40735000Y37537779D01*
G75*
G02*
X40585000Y37687779I0J150000D01*
G01*
G37*
G36*
G01*
X40585000Y36417779D02*
X40585000Y36717779D01*
G75*
G02*
X40735000Y36867779I150000J0D01*
G01*
X42385000Y36867779D01*
G75*
G02*
X42535000Y36717779I0J-150000D01*
G01*
X42535000Y36417779D01*
G75*
G02*
X42385000Y36267779I-150000J0D01*
G01*
X40735000Y36267779D01*
G75*
G02*
X40585000Y36417779I0J150000D01*
G01*
G37*
G36*
G01*
X45535000Y36417779D02*
X45535000Y36717779D01*
G75*
G02*
X45685000Y36867779I150000J0D01*
G01*
X47335000Y36867779D01*
G75*
G02*
X47485000Y36717779I0J-150000D01*
G01*
X47485000Y36417779D01*
G75*
G02*
X47335000Y36267779I-150000J0D01*
G01*
X45685000Y36267779D01*
G75*
G02*
X45535000Y36417779I0J150000D01*
G01*
G37*
G36*
G01*
X45535000Y37687779D02*
X45535000Y37987779D01*
G75*
G02*
X45685000Y38137779I150000J0D01*
G01*
X47335000Y38137779D01*
G75*
G02*
X47485000Y37987779I0J-150000D01*
G01*
X47485000Y37687779D01*
G75*
G02*
X47335000Y37537779I-150000J0D01*
G01*
X45685000Y37537779D01*
G75*
G02*
X45535000Y37687779I0J150000D01*
G01*
G37*
G36*
G01*
X45535000Y38957779D02*
X45535000Y39257779D01*
G75*
G02*
X45685000Y39407779I150000J0D01*
G01*
X47335000Y39407779D01*
G75*
G02*
X47485000Y39257779I0J-150000D01*
G01*
X47485000Y38957779D01*
G75*
G02*
X47335000Y38807779I-150000J0D01*
G01*
X45685000Y38807779D01*
G75*
G02*
X45535000Y38957779I0J150000D01*
G01*
G37*
G36*
G01*
X45535000Y40227779D02*
X45535000Y40527779D01*
G75*
G02*
X45685000Y40677779I150000J0D01*
G01*
X47335000Y40677779D01*
G75*
G02*
X47485000Y40527779I0J-150000D01*
G01*
X47485000Y40227779D01*
G75*
G02*
X47335000Y40077779I-150000J0D01*
G01*
X45685000Y40077779D01*
G75*
G02*
X45535000Y40227779I0J150000D01*
G01*
G37*
G04 #@! TD*
G04 #@! TO.C,R54*
G36*
G01*
X88710000Y93756908D02*
X88710000Y94536908D01*
G75*
G02*
X88780000Y94606908I70000J0D01*
G01*
X89340000Y94606908D01*
G75*
G02*
X89410000Y94536908I0J-70000D01*
G01*
X89410000Y93756908D01*
G75*
G02*
X89340000Y93686908I-70000J0D01*
G01*
X88780000Y93686908D01*
G75*
G02*
X88710000Y93756908I0J70000D01*
G01*
G37*
G36*
G01*
X90310000Y93756908D02*
X90310000Y94536908D01*
G75*
G02*
X90380000Y94606908I70000J0D01*
G01*
X90940000Y94606908D01*
G75*
G02*
X91010000Y94536908I0J-70000D01*
G01*
X91010000Y93756908D01*
G75*
G02*
X90940000Y93686908I-70000J0D01*
G01*
X90380000Y93686908D01*
G75*
G02*
X90310000Y93756908I0J70000D01*
G01*
G37*
G04 #@! TD*
G04 #@! TO.C,R53*
G36*
G01*
X65090000Y34614046D02*
X65090000Y35394046D01*
G75*
G02*
X65160000Y35464046I70000J0D01*
G01*
X65720000Y35464046D01*
G75*
G02*
X65790000Y35394046I0J-70000D01*
G01*
X65790000Y34614046D01*
G75*
G02*
X65720000Y34544046I-70000J0D01*
G01*
X65160000Y34544046D01*
G75*
G02*
X65090000Y34614046I0J70000D01*
G01*
G37*
G36*
G01*
X66690000Y34614046D02*
X66690000Y35394046D01*
G75*
G02*
X66760000Y35464046I70000J0D01*
G01*
X67320000Y35464046D01*
G75*
G02*
X67390000Y35394046I0J-70000D01*
G01*
X67390000Y34614046D01*
G75*
G02*
X67320000Y34544046I-70000J0D01*
G01*
X66760000Y34544046D01*
G75*
G02*
X66690000Y34614046I0J70000D01*
G01*
G37*
G04 #@! TD*
G04 #@! TO.C,R52*
G36*
G01*
X65090000Y36563092D02*
X65090000Y37343092D01*
G75*
G02*
X65160000Y37413092I70000J0D01*
G01*
X65720000Y37413092D01*
G75*
G02*
X65790000Y37343092I0J-70000D01*
G01*
X65790000Y36563092D01*
G75*
G02*
X65720000Y36493092I-70000J0D01*
G01*
X65160000Y36493092D01*
G75*
G02*
X65090000Y36563092I0J70000D01*
G01*
G37*
G36*
G01*
X66690000Y36563092D02*
X66690000Y37343092D01*
G75*
G02*
X66760000Y37413092I70000J0D01*
G01*
X67320000Y37413092D01*
G75*
G02*
X67390000Y37343092I0J-70000D01*
G01*
X67390000Y36563092D01*
G75*
G02*
X67320000Y36493092I-70000J0D01*
G01*
X66760000Y36493092D01*
G75*
G02*
X66690000Y36563092I0J70000D01*
G01*
G37*
G04 #@! TD*
G04 #@! TO.C,R51*
G36*
G01*
X65090000Y38512138D02*
X65090000Y39292138D01*
G75*
G02*
X65160000Y39362138I70000J0D01*
G01*
X65720000Y39362138D01*
G75*
G02*
X65790000Y39292138I0J-70000D01*
G01*
X65790000Y38512138D01*
G75*
G02*
X65720000Y38442138I-70000J0D01*
G01*
X65160000Y38442138D01*
G75*
G02*
X65090000Y38512138I0J70000D01*
G01*
G37*
G36*
G01*
X66690000Y38512138D02*
X66690000Y39292138D01*
G75*
G02*
X66760000Y39362138I70000J0D01*
G01*
X67320000Y39362138D01*
G75*
G02*
X67390000Y39292138I0J-70000D01*
G01*
X67390000Y38512138D01*
G75*
G02*
X67320000Y38442138I-70000J0D01*
G01*
X66760000Y38442138D01*
G75*
G02*
X66690000Y38512138I0J70000D01*
G01*
G37*
G04 #@! TD*
G04 #@! TO.C,R50*
G36*
G01*
X65090000Y40461184D02*
X65090000Y41241184D01*
G75*
G02*
X65160000Y41311184I70000J0D01*
G01*
X65720000Y41311184D01*
G75*
G02*
X65790000Y41241184I0J-70000D01*
G01*
X65790000Y40461184D01*
G75*
G02*
X65720000Y40391184I-70000J0D01*
G01*
X65160000Y40391184D01*
G75*
G02*
X65090000Y40461184I0J70000D01*
G01*
G37*
G36*
G01*
X66690000Y40461184D02*
X66690000Y41241184D01*
G75*
G02*
X66760000Y41311184I70000J0D01*
G01*
X67320000Y41311184D01*
G75*
G02*
X67390000Y41241184I0J-70000D01*
G01*
X67390000Y40461184D01*
G75*
G02*
X67320000Y40391184I-70000J0D01*
G01*
X66760000Y40391184D01*
G75*
G02*
X66690000Y40461184I0J70000D01*
G01*
G37*
G04 #@! TD*
G04 #@! TO.C,R49*
G36*
G01*
X113950000Y48434046D02*
X113950000Y49214046D01*
G75*
G02*
X114020000Y49284046I70000J0D01*
G01*
X114580000Y49284046D01*
G75*
G02*
X114650000Y49214046I0J-70000D01*
G01*
X114650000Y48434046D01*
G75*
G02*
X114580000Y48364046I-70000J0D01*
G01*
X114020000Y48364046D01*
G75*
G02*
X113950000Y48434046I0J70000D01*
G01*
G37*
G36*
G01*
X115550000Y48434046D02*
X115550000Y49214046D01*
G75*
G02*
X115620000Y49284046I70000J0D01*
G01*
X116180000Y49284046D01*
G75*
G02*
X116250000Y49214046I0J-70000D01*
G01*
X116250000Y48434046D01*
G75*
G02*
X116180000Y48364046I-70000J0D01*
G01*
X115620000Y48364046D01*
G75*
G02*
X115550000Y48434046I0J70000D01*
G01*
G37*
G04 #@! TD*
G04 #@! TO.C,R48*
G36*
G01*
X113950000Y50383092D02*
X113950000Y51163092D01*
G75*
G02*
X114020000Y51233092I70000J0D01*
G01*
X114580000Y51233092D01*
G75*
G02*
X114650000Y51163092I0J-70000D01*
G01*
X114650000Y50383092D01*
G75*
G02*
X114580000Y50313092I-70000J0D01*
G01*
X114020000Y50313092D01*
G75*
G02*
X113950000Y50383092I0J70000D01*
G01*
G37*
G36*
G01*
X115550000Y50383092D02*
X115550000Y51163092D01*
G75*
G02*
X115620000Y51233092I70000J0D01*
G01*
X116180000Y51233092D01*
G75*
G02*
X116250000Y51163092I0J-70000D01*
G01*
X116250000Y50383092D01*
G75*
G02*
X116180000Y50313092I-70000J0D01*
G01*
X115620000Y50313092D01*
G75*
G02*
X115550000Y50383092I0J70000D01*
G01*
G37*
G04 #@! TD*
G04 #@! TO.C,R47*
G36*
G01*
X113950000Y52332138D02*
X113950000Y53112138D01*
G75*
G02*
X114020000Y53182138I70000J0D01*
G01*
X114580000Y53182138D01*
G75*
G02*
X114650000Y53112138I0J-70000D01*
G01*
X114650000Y52332138D01*
G75*
G02*
X114580000Y52262138I-70000J0D01*
G01*
X114020000Y52262138D01*
G75*
G02*
X113950000Y52332138I0J70000D01*
G01*
G37*
G36*
G01*
X115550000Y52332138D02*
X115550000Y53112138D01*
G75*
G02*
X115620000Y53182138I70000J0D01*
G01*
X116180000Y53182138D01*
G75*
G02*
X116250000Y53112138I0J-70000D01*
G01*
X116250000Y52332138D01*
G75*
G02*
X116180000Y52262138I-70000J0D01*
G01*
X115620000Y52262138D01*
G75*
G02*
X115550000Y52332138I0J70000D01*
G01*
G37*
G04 #@! TD*
G04 #@! TO.C,R46*
G36*
G01*
X113950000Y54281184D02*
X113950000Y55061184D01*
G75*
G02*
X114020000Y55131184I70000J0D01*
G01*
X114580000Y55131184D01*
G75*
G02*
X114650000Y55061184I0J-70000D01*
G01*
X114650000Y54281184D01*
G75*
G02*
X114580000Y54211184I-70000J0D01*
G01*
X114020000Y54211184D01*
G75*
G02*
X113950000Y54281184I0J70000D01*
G01*
G37*
G36*
G01*
X115550000Y54281184D02*
X115550000Y55061184D01*
G75*
G02*
X115620000Y55131184I70000J0D01*
G01*
X116180000Y55131184D01*
G75*
G02*
X116250000Y55061184I0J-70000D01*
G01*
X116250000Y54281184D01*
G75*
G02*
X116180000Y54211184I-70000J0D01*
G01*
X115620000Y54211184D01*
G75*
G02*
X115550000Y54281184I0J70000D01*
G01*
G37*
G04 #@! TD*
G04 #@! TO.C,R45*
G36*
G01*
X110650000Y44535954D02*
X110650000Y45315954D01*
G75*
G02*
X110720000Y45385954I70000J0D01*
G01*
X111280000Y45385954D01*
G75*
G02*
X111350000Y45315954I0J-70000D01*
G01*
X111350000Y44535954D01*
G75*
G02*
X111280000Y44465954I-70000J0D01*
G01*
X110720000Y44465954D01*
G75*
G02*
X110650000Y44535954I0J70000D01*
G01*
G37*
G36*
G01*
X112250000Y44535954D02*
X112250000Y45315954D01*
G75*
G02*
X112320000Y45385954I70000J0D01*
G01*
X112880000Y45385954D01*
G75*
G02*
X112950000Y45315954I0J-70000D01*
G01*
X112950000Y44535954D01*
G75*
G02*
X112880000Y44465954I-70000J0D01*
G01*
X112320000Y44465954D01*
G75*
G02*
X112250000Y44535954I0J70000D01*
G01*
G37*
G04 #@! TD*
G04 #@! TO.C,R44*
G36*
G01*
X110650000Y46485000D02*
X110650000Y47265000D01*
G75*
G02*
X110720000Y47335000I70000J0D01*
G01*
X111280000Y47335000D01*
G75*
G02*
X111350000Y47265000I0J-70000D01*
G01*
X111350000Y46485000D01*
G75*
G02*
X111280000Y46415000I-70000J0D01*
G01*
X110720000Y46415000D01*
G75*
G02*
X110650000Y46485000I0J70000D01*
G01*
G37*
G36*
G01*
X112250000Y46485000D02*
X112250000Y47265000D01*
G75*
G02*
X112320000Y47335000I70000J0D01*
G01*
X112880000Y47335000D01*
G75*
G02*
X112950000Y47265000I0J-70000D01*
G01*
X112950000Y46485000D01*
G75*
G02*
X112880000Y46415000I-70000J0D01*
G01*
X112320000Y46415000D01*
G75*
G02*
X112250000Y46485000I0J70000D01*
G01*
G37*
G04 #@! TD*
G04 #@! TO.C,R43*
G36*
G01*
X110650000Y48434046D02*
X110650000Y49214046D01*
G75*
G02*
X110720000Y49284046I70000J0D01*
G01*
X111280000Y49284046D01*
G75*
G02*
X111350000Y49214046I0J-70000D01*
G01*
X111350000Y48434046D01*
G75*
G02*
X111280000Y48364046I-70000J0D01*
G01*
X110720000Y48364046D01*
G75*
G02*
X110650000Y48434046I0J70000D01*
G01*
G37*
G36*
G01*
X112250000Y48434046D02*
X112250000Y49214046D01*
G75*
G02*
X112320000Y49284046I70000J0D01*
G01*
X112880000Y49284046D01*
G75*
G02*
X112950000Y49214046I0J-70000D01*
G01*
X112950000Y48434046D01*
G75*
G02*
X112880000Y48364046I-70000J0D01*
G01*
X112320000Y48364046D01*
G75*
G02*
X112250000Y48434046I0J70000D01*
G01*
G37*
G04 #@! TD*
G04 #@! TO.C,R42*
G36*
G01*
X110650000Y50383092D02*
X110650000Y51163092D01*
G75*
G02*
X110720000Y51233092I70000J0D01*
G01*
X111280000Y51233092D01*
G75*
G02*
X111350000Y51163092I0J-70000D01*
G01*
X111350000Y50383092D01*
G75*
G02*
X111280000Y50313092I-70000J0D01*
G01*
X110720000Y50313092D01*
G75*
G02*
X110650000Y50383092I0J70000D01*
G01*
G37*
G36*
G01*
X112250000Y50383092D02*
X112250000Y51163092D01*
G75*
G02*
X112320000Y51233092I70000J0D01*
G01*
X112880000Y51233092D01*
G75*
G02*
X112950000Y51163092I0J-70000D01*
G01*
X112950000Y50383092D01*
G75*
G02*
X112880000Y50313092I-70000J0D01*
G01*
X112320000Y50313092D01*
G75*
G02*
X112250000Y50383092I0J70000D01*
G01*
G37*
G04 #@! TD*
G04 #@! TO.C,R41*
G36*
G01*
X110650000Y52332138D02*
X110650000Y53112138D01*
G75*
G02*
X110720000Y53182138I70000J0D01*
G01*
X111280000Y53182138D01*
G75*
G02*
X111350000Y53112138I0J-70000D01*
G01*
X111350000Y52332138D01*
G75*
G02*
X111280000Y52262138I-70000J0D01*
G01*
X110720000Y52262138D01*
G75*
G02*
X110650000Y52332138I0J70000D01*
G01*
G37*
G36*
G01*
X112250000Y52332138D02*
X112250000Y53112138D01*
G75*
G02*
X112320000Y53182138I70000J0D01*
G01*
X112880000Y53182138D01*
G75*
G02*
X112950000Y53112138I0J-70000D01*
G01*
X112950000Y52332138D01*
G75*
G02*
X112880000Y52262138I-70000J0D01*
G01*
X112320000Y52262138D01*
G75*
G02*
X112250000Y52332138I0J70000D01*
G01*
G37*
G04 #@! TD*
G04 #@! TO.C,R40*
G36*
G01*
X110650000Y54281184D02*
X110650000Y55061184D01*
G75*
G02*
X110720000Y55131184I70000J0D01*
G01*
X111280000Y55131184D01*
G75*
G02*
X111350000Y55061184I0J-70000D01*
G01*
X111350000Y54281184D01*
G75*
G02*
X111280000Y54211184I-70000J0D01*
G01*
X110720000Y54211184D01*
G75*
G02*
X110650000Y54281184I0J70000D01*
G01*
G37*
G36*
G01*
X112250000Y54281184D02*
X112250000Y55061184D01*
G75*
G02*
X112320000Y55131184I70000J0D01*
G01*
X112880000Y55131184D01*
G75*
G02*
X112950000Y55061184I0J-70000D01*
G01*
X112950000Y54281184D01*
G75*
G02*
X112880000Y54211184I-70000J0D01*
G01*
X112320000Y54211184D01*
G75*
G02*
X112250000Y54281184I0J70000D01*
G01*
G37*
G04 #@! TD*
G04 #@! TO.C,R39*
G36*
G01*
X107350000Y44535954D02*
X107350000Y45315954D01*
G75*
G02*
X107420000Y45385954I70000J0D01*
G01*
X107980000Y45385954D01*
G75*
G02*
X108050000Y45315954I0J-70000D01*
G01*
X108050000Y44535954D01*
G75*
G02*
X107980000Y44465954I-70000J0D01*
G01*
X107420000Y44465954D01*
G75*
G02*
X107350000Y44535954I0J70000D01*
G01*
G37*
G36*
G01*
X108950000Y44535954D02*
X108950000Y45315954D01*
G75*
G02*
X109020000Y45385954I70000J0D01*
G01*
X109580000Y45385954D01*
G75*
G02*
X109650000Y45315954I0J-70000D01*
G01*
X109650000Y44535954D01*
G75*
G02*
X109580000Y44465954I-70000J0D01*
G01*
X109020000Y44465954D01*
G75*
G02*
X108950000Y44535954I0J70000D01*
G01*
G37*
G04 #@! TD*
G04 #@! TO.C,R38*
G36*
G01*
X107350000Y46485000D02*
X107350000Y47265000D01*
G75*
G02*
X107420000Y47335000I70000J0D01*
G01*
X107980000Y47335000D01*
G75*
G02*
X108050000Y47265000I0J-70000D01*
G01*
X108050000Y46485000D01*
G75*
G02*
X107980000Y46415000I-70000J0D01*
G01*
X107420000Y46415000D01*
G75*
G02*
X107350000Y46485000I0J70000D01*
G01*
G37*
G36*
G01*
X108950000Y46485000D02*
X108950000Y47265000D01*
G75*
G02*
X109020000Y47335000I70000J0D01*
G01*
X109580000Y47335000D01*
G75*
G02*
X109650000Y47265000I0J-70000D01*
G01*
X109650000Y46485000D01*
G75*
G02*
X109580000Y46415000I-70000J0D01*
G01*
X109020000Y46415000D01*
G75*
G02*
X108950000Y46485000I0J70000D01*
G01*
G37*
G04 #@! TD*
G04 #@! TO.C,R37*
G36*
G01*
X107350000Y48434046D02*
X107350000Y49214046D01*
G75*
G02*
X107420000Y49284046I70000J0D01*
G01*
X107980000Y49284046D01*
G75*
G02*
X108050000Y49214046I0J-70000D01*
G01*
X108050000Y48434046D01*
G75*
G02*
X107980000Y48364046I-70000J0D01*
G01*
X107420000Y48364046D01*
G75*
G02*
X107350000Y48434046I0J70000D01*
G01*
G37*
G36*
G01*
X108950000Y48434046D02*
X108950000Y49214046D01*
G75*
G02*
X109020000Y49284046I70000J0D01*
G01*
X109580000Y49284046D01*
G75*
G02*
X109650000Y49214046I0J-70000D01*
G01*
X109650000Y48434046D01*
G75*
G02*
X109580000Y48364046I-70000J0D01*
G01*
X109020000Y48364046D01*
G75*
G02*
X108950000Y48434046I0J70000D01*
G01*
G37*
G04 #@! TD*
G04 #@! TO.C,R36*
G36*
G01*
X107350000Y50383092D02*
X107350000Y51163092D01*
G75*
G02*
X107420000Y51233092I70000J0D01*
G01*
X107980000Y51233092D01*
G75*
G02*
X108050000Y51163092I0J-70000D01*
G01*
X108050000Y50383092D01*
G75*
G02*
X107980000Y50313092I-70000J0D01*
G01*
X107420000Y50313092D01*
G75*
G02*
X107350000Y50383092I0J70000D01*
G01*
G37*
G36*
G01*
X108950000Y50383092D02*
X108950000Y51163092D01*
G75*
G02*
X109020000Y51233092I70000J0D01*
G01*
X109580000Y51233092D01*
G75*
G02*
X109650000Y51163092I0J-70000D01*
G01*
X109650000Y50383092D01*
G75*
G02*
X109580000Y50313092I-70000J0D01*
G01*
X109020000Y50313092D01*
G75*
G02*
X108950000Y50383092I0J70000D01*
G01*
G37*
G04 #@! TD*
G04 #@! TO.C,R35*
G36*
G01*
X107350000Y52332138D02*
X107350000Y53112138D01*
G75*
G02*
X107420000Y53182138I70000J0D01*
G01*
X107980000Y53182138D01*
G75*
G02*
X108050000Y53112138I0J-70000D01*
G01*
X108050000Y52332138D01*
G75*
G02*
X107980000Y52262138I-70000J0D01*
G01*
X107420000Y52262138D01*
G75*
G02*
X107350000Y52332138I0J70000D01*
G01*
G37*
G36*
G01*
X108950000Y52332138D02*
X108950000Y53112138D01*
G75*
G02*
X109020000Y53182138I70000J0D01*
G01*
X109580000Y53182138D01*
G75*
G02*
X109650000Y53112138I0J-70000D01*
G01*
X109650000Y52332138D01*
G75*
G02*
X109580000Y52262138I-70000J0D01*
G01*
X109020000Y52262138D01*
G75*
G02*
X108950000Y52332138I0J70000D01*
G01*
G37*
G04 #@! TD*
G04 #@! TO.C,R34*
G36*
G01*
X107350000Y54281184D02*
X107350000Y55061184D01*
G75*
G02*
X107420000Y55131184I70000J0D01*
G01*
X107980000Y55131184D01*
G75*
G02*
X108050000Y55061184I0J-70000D01*
G01*
X108050000Y54281184D01*
G75*
G02*
X107980000Y54211184I-70000J0D01*
G01*
X107420000Y54211184D01*
G75*
G02*
X107350000Y54281184I0J70000D01*
G01*
G37*
G36*
G01*
X108950000Y54281184D02*
X108950000Y55061184D01*
G75*
G02*
X109020000Y55131184I70000J0D01*
G01*
X109580000Y55131184D01*
G75*
G02*
X109650000Y55061184I0J-70000D01*
G01*
X109650000Y54281184D01*
G75*
G02*
X109580000Y54211184I-70000J0D01*
G01*
X109020000Y54211184D01*
G75*
G02*
X108950000Y54281184I0J70000D01*
G01*
G37*
G04 #@! TD*
G04 #@! TO.C,R33*
G36*
G01*
X111320000Y78497779D02*
X111320000Y81347779D01*
G75*
G02*
X111570000Y81597779I250000J0D01*
G01*
X112295000Y81597779D01*
G75*
G02*
X112545000Y81347779I0J-250000D01*
G01*
X112545000Y78497779D01*
G75*
G02*
X112295000Y78247779I-250000J0D01*
G01*
X111570000Y78247779D01*
G75*
G02*
X111320000Y78497779I0J250000D01*
G01*
G37*
G36*
G01*
X117245000Y78497779D02*
X117245000Y81347779D01*
G75*
G02*
X117495000Y81597779I250000J0D01*
G01*
X118220000Y81597779D01*
G75*
G02*
X118470000Y81347779I0J-250000D01*
G01*
X118470000Y78497779D01*
G75*
G02*
X118220000Y78247779I-250000J0D01*
G01*
X117495000Y78247779D01*
G75*
G02*
X117245000Y78497779I0J250000D01*
G01*
G37*
G04 #@! TD*
G04 #@! TO.C,R32*
G36*
G01*
X111320000Y83387779D02*
X111320000Y86237779D01*
G75*
G02*
X111570000Y86487779I250000J0D01*
G01*
X112295000Y86487779D01*
G75*
G02*
X112545000Y86237779I0J-250000D01*
G01*
X112545000Y83387779D01*
G75*
G02*
X112295000Y83137779I-250000J0D01*
G01*
X111570000Y83137779D01*
G75*
G02*
X111320000Y83387779I0J250000D01*
G01*
G37*
G36*
G01*
X117245000Y83387779D02*
X117245000Y86237779D01*
G75*
G02*
X117495000Y86487779I250000J0D01*
G01*
X118220000Y86487779D01*
G75*
G02*
X118470000Y86237779I0J-250000D01*
G01*
X118470000Y83387779D01*
G75*
G02*
X118220000Y83137779I-250000J0D01*
G01*
X117495000Y83137779D01*
G75*
G02*
X117245000Y83387779I0J250000D01*
G01*
G37*
G04 #@! TD*
G04 #@! TO.C,R31*
G36*
G01*
X111320000Y88277779D02*
X111320000Y91127779D01*
G75*
G02*
X111570000Y91377779I250000J0D01*
G01*
X112295000Y91377779D01*
G75*
G02*
X112545000Y91127779I0J-250000D01*
G01*
X112545000Y88277779D01*
G75*
G02*
X112295000Y88027779I-250000J0D01*
G01*
X111570000Y88027779D01*
G75*
G02*
X111320000Y88277779I0J250000D01*
G01*
G37*
G36*
G01*
X117245000Y88277779D02*
X117245000Y91127779D01*
G75*
G02*
X117495000Y91377779I250000J0D01*
G01*
X118220000Y91377779D01*
G75*
G02*
X118470000Y91127779I0J-250000D01*
G01*
X118470000Y88277779D01*
G75*
G02*
X118220000Y88027779I-250000J0D01*
G01*
X117495000Y88027779D01*
G75*
G02*
X117245000Y88277779I0J250000D01*
G01*
G37*
G04 #@! TD*
G04 #@! TO.C,R30*
G36*
G01*
X115060000Y66365954D02*
X115060000Y67145954D01*
G75*
G02*
X115130000Y67215954I70000J0D01*
G01*
X115690000Y67215954D01*
G75*
G02*
X115760000Y67145954I0J-70000D01*
G01*
X115760000Y66365954D01*
G75*
G02*
X115690000Y66295954I-70000J0D01*
G01*
X115130000Y66295954D01*
G75*
G02*
X115060000Y66365954I0J70000D01*
G01*
G37*
G36*
G01*
X116660000Y66365954D02*
X116660000Y67145954D01*
G75*
G02*
X116730000Y67215954I70000J0D01*
G01*
X117290000Y67215954D01*
G75*
G02*
X117360000Y67145954I0J-70000D01*
G01*
X117360000Y66365954D01*
G75*
G02*
X117290000Y66295954I-70000J0D01*
G01*
X116730000Y66295954D01*
G75*
G02*
X116660000Y66365954I0J70000D01*
G01*
G37*
G04 #@! TD*
G04 #@! TO.C,R29*
G36*
G01*
X115060000Y68315000D02*
X115060000Y69095000D01*
G75*
G02*
X115130000Y69165000I70000J0D01*
G01*
X115690000Y69165000D01*
G75*
G02*
X115760000Y69095000I0J-70000D01*
G01*
X115760000Y68315000D01*
G75*
G02*
X115690000Y68245000I-70000J0D01*
G01*
X115130000Y68245000D01*
G75*
G02*
X115060000Y68315000I0J70000D01*
G01*
G37*
G36*
G01*
X116660000Y68315000D02*
X116660000Y69095000D01*
G75*
G02*
X116730000Y69165000I70000J0D01*
G01*
X117290000Y69165000D01*
G75*
G02*
X117360000Y69095000I0J-70000D01*
G01*
X117360000Y68315000D01*
G75*
G02*
X117290000Y68245000I-70000J0D01*
G01*
X116730000Y68245000D01*
G75*
G02*
X116660000Y68315000I0J70000D01*
G01*
G37*
G04 #@! TD*
G04 #@! TO.C,R28*
G36*
G01*
X115060000Y70264046D02*
X115060000Y71044046D01*
G75*
G02*
X115130000Y71114046I70000J0D01*
G01*
X115690000Y71114046D01*
G75*
G02*
X115760000Y71044046I0J-70000D01*
G01*
X115760000Y70264046D01*
G75*
G02*
X115690000Y70194046I-70000J0D01*
G01*
X115130000Y70194046D01*
G75*
G02*
X115060000Y70264046I0J70000D01*
G01*
G37*
G36*
G01*
X116660000Y70264046D02*
X116660000Y71044046D01*
G75*
G02*
X116730000Y71114046I70000J0D01*
G01*
X117290000Y71114046D01*
G75*
G02*
X117360000Y71044046I0J-70000D01*
G01*
X117360000Y70264046D01*
G75*
G02*
X117290000Y70194046I-70000J0D01*
G01*
X116730000Y70194046D01*
G75*
G02*
X116660000Y70264046I0J70000D01*
G01*
G37*
G04 #@! TD*
G04 #@! TO.C,R27*
G36*
G01*
X111320000Y93167779D02*
X111320000Y96017779D01*
G75*
G02*
X111570000Y96267779I250000J0D01*
G01*
X112295000Y96267779D01*
G75*
G02*
X112545000Y96017779I0J-250000D01*
G01*
X112545000Y93167779D01*
G75*
G02*
X112295000Y92917779I-250000J0D01*
G01*
X111570000Y92917779D01*
G75*
G02*
X111320000Y93167779I0J250000D01*
G01*
G37*
G36*
G01*
X117245000Y93167779D02*
X117245000Y96017779D01*
G75*
G02*
X117495000Y96267779I250000J0D01*
G01*
X118220000Y96267779D01*
G75*
G02*
X118470000Y96017779I0J-250000D01*
G01*
X118470000Y93167779D01*
G75*
G02*
X118220000Y92917779I-250000J0D01*
G01*
X117495000Y92917779D01*
G75*
G02*
X117245000Y93167779I0J250000D01*
G01*
G37*
G04 #@! TD*
G04 #@! TO.C,R26*
G36*
G01*
X111320000Y98057779D02*
X111320000Y100907779D01*
G75*
G02*
X111570000Y101157779I250000J0D01*
G01*
X112295000Y101157779D01*
G75*
G02*
X112545000Y100907779I0J-250000D01*
G01*
X112545000Y98057779D01*
G75*
G02*
X112295000Y97807779I-250000J0D01*
G01*
X111570000Y97807779D01*
G75*
G02*
X111320000Y98057779I0J250000D01*
G01*
G37*
G36*
G01*
X117245000Y98057779D02*
X117245000Y100907779D01*
G75*
G02*
X117495000Y101157779I250000J0D01*
G01*
X118220000Y101157779D01*
G75*
G02*
X118470000Y100907779I0J-250000D01*
G01*
X118470000Y98057779D01*
G75*
G02*
X118220000Y97807779I-250000J0D01*
G01*
X117495000Y97807779D01*
G75*
G02*
X117245000Y98057779I0J250000D01*
G01*
G37*
G04 #@! TD*
G04 #@! TO.C,R25*
G36*
G01*
X111320000Y102947779D02*
X111320000Y105797779D01*
G75*
G02*
X111570000Y106047779I250000J0D01*
G01*
X112295000Y106047779D01*
G75*
G02*
X112545000Y105797779I0J-250000D01*
G01*
X112545000Y102947779D01*
G75*
G02*
X112295000Y102697779I-250000J0D01*
G01*
X111570000Y102697779D01*
G75*
G02*
X111320000Y102947779I0J250000D01*
G01*
G37*
G36*
G01*
X117245000Y102947779D02*
X117245000Y105797779D01*
G75*
G02*
X117495000Y106047779I250000J0D01*
G01*
X118220000Y106047779D01*
G75*
G02*
X118470000Y105797779I0J-250000D01*
G01*
X118470000Y102947779D01*
G75*
G02*
X118220000Y102697779I-250000J0D01*
G01*
X117495000Y102697779D01*
G75*
G02*
X117245000Y102947779I0J250000D01*
G01*
G37*
G04 #@! TD*
G04 #@! TO.C,R24*
G36*
G01*
X115060000Y72213092D02*
X115060000Y72993092D01*
G75*
G02*
X115130000Y73063092I70000J0D01*
G01*
X115690000Y73063092D01*
G75*
G02*
X115760000Y72993092I0J-70000D01*
G01*
X115760000Y72213092D01*
G75*
G02*
X115690000Y72143092I-70000J0D01*
G01*
X115130000Y72143092D01*
G75*
G02*
X115060000Y72213092I0J70000D01*
G01*
G37*
G36*
G01*
X116660000Y72213092D02*
X116660000Y72993092D01*
G75*
G02*
X116730000Y73063092I70000J0D01*
G01*
X117290000Y73063092D01*
G75*
G02*
X117360000Y72993092I0J-70000D01*
G01*
X117360000Y72213092D01*
G75*
G02*
X117290000Y72143092I-70000J0D01*
G01*
X116730000Y72143092D01*
G75*
G02*
X116660000Y72213092I0J70000D01*
G01*
G37*
G04 #@! TD*
G04 #@! TO.C,R23*
G36*
G01*
X115060000Y74162138D02*
X115060000Y74942138D01*
G75*
G02*
X115130000Y75012138I70000J0D01*
G01*
X115690000Y75012138D01*
G75*
G02*
X115760000Y74942138I0J-70000D01*
G01*
X115760000Y74162138D01*
G75*
G02*
X115690000Y74092138I-70000J0D01*
G01*
X115130000Y74092138D01*
G75*
G02*
X115060000Y74162138I0J70000D01*
G01*
G37*
G36*
G01*
X116660000Y74162138D02*
X116660000Y74942138D01*
G75*
G02*
X116730000Y75012138I70000J0D01*
G01*
X117290000Y75012138D01*
G75*
G02*
X117360000Y74942138I0J-70000D01*
G01*
X117360000Y74162138D01*
G75*
G02*
X117290000Y74092138I-70000J0D01*
G01*
X116730000Y74092138D01*
G75*
G02*
X116660000Y74162138I0J70000D01*
G01*
G37*
G04 #@! TD*
G04 #@! TO.C,R22*
G36*
G01*
X115060000Y76111184D02*
X115060000Y76891184D01*
G75*
G02*
X115130000Y76961184I70000J0D01*
G01*
X115690000Y76961184D01*
G75*
G02*
X115760000Y76891184I0J-70000D01*
G01*
X115760000Y76111184D01*
G75*
G02*
X115690000Y76041184I-70000J0D01*
G01*
X115130000Y76041184D01*
G75*
G02*
X115060000Y76111184I0J70000D01*
G01*
G37*
G36*
G01*
X116660000Y76111184D02*
X116660000Y76891184D01*
G75*
G02*
X116730000Y76961184I70000J0D01*
G01*
X117290000Y76961184D01*
G75*
G02*
X117360000Y76891184I0J-70000D01*
G01*
X117360000Y76111184D01*
G75*
G02*
X117290000Y76041184I-70000J0D01*
G01*
X116730000Y76041184D01*
G75*
G02*
X116660000Y76111184I0J70000D01*
G01*
G37*
G04 #@! TD*
G04 #@! TO.C,R21*
G36*
G01*
X37010000Y26817862D02*
X37010000Y27597862D01*
G75*
G02*
X37080000Y27667862I70000J0D01*
G01*
X37640000Y27667862D01*
G75*
G02*
X37710000Y27597862I0J-70000D01*
G01*
X37710000Y26817862D01*
G75*
G02*
X37640000Y26747862I-70000J0D01*
G01*
X37080000Y26747862D01*
G75*
G02*
X37010000Y26817862I0J70000D01*
G01*
G37*
G36*
G01*
X38610000Y26817862D02*
X38610000Y27597862D01*
G75*
G02*
X38680000Y27667862I70000J0D01*
G01*
X39240000Y27667862D01*
G75*
G02*
X39310000Y27597862I0J-70000D01*
G01*
X39310000Y26817862D01*
G75*
G02*
X39240000Y26747862I-70000J0D01*
G01*
X38680000Y26747862D01*
G75*
G02*
X38610000Y26817862I0J70000D01*
G01*
G37*
G04 #@! TD*
G04 #@! TO.C,R20*
G36*
G01*
X37010000Y28766908D02*
X37010000Y29546908D01*
G75*
G02*
X37080000Y29616908I70000J0D01*
G01*
X37640000Y29616908D01*
G75*
G02*
X37710000Y29546908I0J-70000D01*
G01*
X37710000Y28766908D01*
G75*
G02*
X37640000Y28696908I-70000J0D01*
G01*
X37080000Y28696908D01*
G75*
G02*
X37010000Y28766908I0J70000D01*
G01*
G37*
G36*
G01*
X38610000Y28766908D02*
X38610000Y29546908D01*
G75*
G02*
X38680000Y29616908I70000J0D01*
G01*
X39240000Y29616908D01*
G75*
G02*
X39310000Y29546908I0J-70000D01*
G01*
X39310000Y28766908D01*
G75*
G02*
X39240000Y28696908I-70000J0D01*
G01*
X38680000Y28696908D01*
G75*
G02*
X38610000Y28766908I0J70000D01*
G01*
G37*
G04 #@! TD*
G04 #@! TO.C,R19*
G36*
G01*
X37010000Y30715954D02*
X37010000Y31495954D01*
G75*
G02*
X37080000Y31565954I70000J0D01*
G01*
X37640000Y31565954D01*
G75*
G02*
X37710000Y31495954I0J-70000D01*
G01*
X37710000Y30715954D01*
G75*
G02*
X37640000Y30645954I-70000J0D01*
G01*
X37080000Y30645954D01*
G75*
G02*
X37010000Y30715954I0J70000D01*
G01*
G37*
G36*
G01*
X38610000Y30715954D02*
X38610000Y31495954D01*
G75*
G02*
X38680000Y31565954I70000J0D01*
G01*
X39240000Y31565954D01*
G75*
G02*
X39310000Y31495954I0J-70000D01*
G01*
X39310000Y30715954D01*
G75*
G02*
X39240000Y30645954I-70000J0D01*
G01*
X38680000Y30645954D01*
G75*
G02*
X38610000Y30715954I0J70000D01*
G01*
G37*
G04 #@! TD*
G04 #@! TO.C,R18*
G36*
G01*
X37010000Y32665000D02*
X37010000Y33445000D01*
G75*
G02*
X37080000Y33515000I70000J0D01*
G01*
X37640000Y33515000D01*
G75*
G02*
X37710000Y33445000I0J-70000D01*
G01*
X37710000Y32665000D01*
G75*
G02*
X37640000Y32595000I-70000J0D01*
G01*
X37080000Y32595000D01*
G75*
G02*
X37010000Y32665000I0J70000D01*
G01*
G37*
G36*
G01*
X38610000Y32665000D02*
X38610000Y33445000D01*
G75*
G02*
X38680000Y33515000I70000J0D01*
G01*
X39240000Y33515000D01*
G75*
G02*
X39310000Y33445000I0J-70000D01*
G01*
X39310000Y32665000D01*
G75*
G02*
X39240000Y32595000I-70000J0D01*
G01*
X38680000Y32595000D01*
G75*
G02*
X38610000Y32665000I0J70000D01*
G01*
G37*
G04 #@! TD*
G04 #@! TO.C,R17*
G36*
G01*
X37010000Y34614046D02*
X37010000Y35394046D01*
G75*
G02*
X37080000Y35464046I70000J0D01*
G01*
X37640000Y35464046D01*
G75*
G02*
X37710000Y35394046I0J-70000D01*
G01*
X37710000Y34614046D01*
G75*
G02*
X37640000Y34544046I-70000J0D01*
G01*
X37080000Y34544046D01*
G75*
G02*
X37010000Y34614046I0J70000D01*
G01*
G37*
G36*
G01*
X38610000Y34614046D02*
X38610000Y35394046D01*
G75*
G02*
X38680000Y35464046I70000J0D01*
G01*
X39240000Y35464046D01*
G75*
G02*
X39310000Y35394046I0J-70000D01*
G01*
X39310000Y34614046D01*
G75*
G02*
X39240000Y34544046I-70000J0D01*
G01*
X38680000Y34544046D01*
G75*
G02*
X38610000Y34614046I0J70000D01*
G01*
G37*
G04 #@! TD*
G04 #@! TO.C,R16*
G36*
G01*
X37010000Y36563092D02*
X37010000Y37343092D01*
G75*
G02*
X37080000Y37413092I70000J0D01*
G01*
X37640000Y37413092D01*
G75*
G02*
X37710000Y37343092I0J-70000D01*
G01*
X37710000Y36563092D01*
G75*
G02*
X37640000Y36493092I-70000J0D01*
G01*
X37080000Y36493092D01*
G75*
G02*
X37010000Y36563092I0J70000D01*
G01*
G37*
G36*
G01*
X38610000Y36563092D02*
X38610000Y37343092D01*
G75*
G02*
X38680000Y37413092I70000J0D01*
G01*
X39240000Y37413092D01*
G75*
G02*
X39310000Y37343092I0J-70000D01*
G01*
X39310000Y36563092D01*
G75*
G02*
X39240000Y36493092I-70000J0D01*
G01*
X38680000Y36493092D01*
G75*
G02*
X38610000Y36563092I0J70000D01*
G01*
G37*
G04 #@! TD*
G04 #@! TO.C,R15*
G36*
G01*
X88710000Y95705954D02*
X88710000Y96485954D01*
G75*
G02*
X88780000Y96555954I70000J0D01*
G01*
X89340000Y96555954D01*
G75*
G02*
X89410000Y96485954I0J-70000D01*
G01*
X89410000Y95705954D01*
G75*
G02*
X89340000Y95635954I-70000J0D01*
G01*
X88780000Y95635954D01*
G75*
G02*
X88710000Y95705954I0J70000D01*
G01*
G37*
G36*
G01*
X90310000Y95705954D02*
X90310000Y96485954D01*
G75*
G02*
X90380000Y96555954I70000J0D01*
G01*
X90940000Y96555954D01*
G75*
G02*
X91010000Y96485954I0J-70000D01*
G01*
X91010000Y95705954D01*
G75*
G02*
X90940000Y95635954I-70000J0D01*
G01*
X90380000Y95635954D01*
G75*
G02*
X90310000Y95705954I0J70000D01*
G01*
G37*
G04 #@! TD*
G04 #@! TO.C,R14*
G36*
G01*
X37010000Y38512138D02*
X37010000Y39292138D01*
G75*
G02*
X37080000Y39362138I70000J0D01*
G01*
X37640000Y39362138D01*
G75*
G02*
X37710000Y39292138I0J-70000D01*
G01*
X37710000Y38512138D01*
G75*
G02*
X37640000Y38442138I-70000J0D01*
G01*
X37080000Y38442138D01*
G75*
G02*
X37010000Y38512138I0J70000D01*
G01*
G37*
G36*
G01*
X38610000Y38512138D02*
X38610000Y39292138D01*
G75*
G02*
X38680000Y39362138I70000J0D01*
G01*
X39240000Y39362138D01*
G75*
G02*
X39310000Y39292138I0J-70000D01*
G01*
X39310000Y38512138D01*
G75*
G02*
X39240000Y38442138I-70000J0D01*
G01*
X38680000Y38442138D01*
G75*
G02*
X38610000Y38512138I0J70000D01*
G01*
G37*
G04 #@! TD*
G04 #@! TO.C,R13*
G36*
G01*
X37010000Y40461184D02*
X37010000Y41241184D01*
G75*
G02*
X37080000Y41311184I70000J0D01*
G01*
X37640000Y41311184D01*
G75*
G02*
X37710000Y41241184I0J-70000D01*
G01*
X37710000Y40461184D01*
G75*
G02*
X37640000Y40391184I-70000J0D01*
G01*
X37080000Y40391184D01*
G75*
G02*
X37010000Y40461184I0J70000D01*
G01*
G37*
G36*
G01*
X38610000Y40461184D02*
X38610000Y41241184D01*
G75*
G02*
X38680000Y41311184I70000J0D01*
G01*
X39240000Y41311184D01*
G75*
G02*
X39310000Y41241184I0J-70000D01*
G01*
X39310000Y40461184D01*
G75*
G02*
X39240000Y40391184I-70000J0D01*
G01*
X38680000Y40391184D01*
G75*
G02*
X38610000Y40461184I0J70000D01*
G01*
G37*
G04 #@! TD*
G04 #@! TO.C,R12*
G36*
G01*
X87310000Y70328138D02*
X87310000Y71578138D01*
G75*
G02*
X87410000Y71678138I100000J0D01*
G01*
X88210000Y71678138D01*
G75*
G02*
X88310000Y71578138I0J-100000D01*
G01*
X88310000Y70328138D01*
G75*
G02*
X88210000Y70228138I-100000J0D01*
G01*
X87410000Y70228138D01*
G75*
G02*
X87310000Y70328138I0J100000D01*
G01*
G37*
G36*
G01*
X89210022Y70328138D02*
X89210022Y71578138D01*
G75*
G02*
X89310022Y71678138I100000J0D01*
G01*
X90110022Y71678138D01*
G75*
G02*
X90210022Y71578138I0J-100000D01*
G01*
X90210022Y70328138D01*
G75*
G02*
X90110022Y70228138I-100000J0D01*
G01*
X89310022Y70228138D01*
G75*
G02*
X89210022Y70328138I0J100000D01*
G01*
G37*
G04 #@! TD*
G04 #@! TO.C,R11*
G36*
G01*
X87310000Y72831066D02*
X87310000Y74081066D01*
G75*
G02*
X87410000Y74181066I100000J0D01*
G01*
X88210000Y74181066D01*
G75*
G02*
X88310000Y74081066I0J-100000D01*
G01*
X88310000Y72831066D01*
G75*
G02*
X88210000Y72731066I-100000J0D01*
G01*
X87410000Y72731066D01*
G75*
G02*
X87310000Y72831066I0J100000D01*
G01*
G37*
G36*
G01*
X89210022Y72831066D02*
X89210022Y74081066D01*
G75*
G02*
X89310022Y74181066I100000J0D01*
G01*
X90110022Y74181066D01*
G75*
G02*
X90210022Y74081066I0J-100000D01*
G01*
X90210022Y72831066D01*
G75*
G02*
X90110022Y72731066I-100000J0D01*
G01*
X89310022Y72731066D01*
G75*
G02*
X89210022Y72831066I0J100000D01*
G01*
G37*
G04 #@! TD*
G04 #@! TO.C,R10*
G36*
G01*
X87310000Y75333994D02*
X87310000Y76583994D01*
G75*
G02*
X87410000Y76683994I100000J0D01*
G01*
X88210000Y76683994D01*
G75*
G02*
X88310000Y76583994I0J-100000D01*
G01*
X88310000Y75333994D01*
G75*
G02*
X88210000Y75233994I-100000J0D01*
G01*
X87410000Y75233994D01*
G75*
G02*
X87310000Y75333994I0J100000D01*
G01*
G37*
G36*
G01*
X89210022Y75333994D02*
X89210022Y76583994D01*
G75*
G02*
X89310022Y76683994I100000J0D01*
G01*
X90110022Y76683994D01*
G75*
G02*
X90210022Y76583994I0J-100000D01*
G01*
X90210022Y75333994D01*
G75*
G02*
X90110022Y75233994I-100000J0D01*
G01*
X89310022Y75233994D01*
G75*
G02*
X89210022Y75333994I0J100000D01*
G01*
G37*
G04 #@! TD*
G04 #@! TO.C,R9*
G36*
G01*
X87310000Y77836922D02*
X87310000Y79086922D01*
G75*
G02*
X87410000Y79186922I100000J0D01*
G01*
X88210000Y79186922D01*
G75*
G02*
X88310000Y79086922I0J-100000D01*
G01*
X88310000Y77836922D01*
G75*
G02*
X88210000Y77736922I-100000J0D01*
G01*
X87410000Y77736922D01*
G75*
G02*
X87310000Y77836922I0J100000D01*
G01*
G37*
G36*
G01*
X89210022Y77836922D02*
X89210022Y79086922D01*
G75*
G02*
X89310022Y79186922I100000J0D01*
G01*
X90110022Y79186922D01*
G75*
G02*
X90210022Y79086922I0J-100000D01*
G01*
X90210022Y77836922D01*
G75*
G02*
X90110022Y77736922I-100000J0D01*
G01*
X89310022Y77736922D01*
G75*
G02*
X89210022Y77836922I0J100000D01*
G01*
G37*
G04 #@! TD*
G04 #@! TO.C,R8*
G36*
G01*
X87310000Y80339850D02*
X87310000Y81589850D01*
G75*
G02*
X87410000Y81689850I100000J0D01*
G01*
X88210000Y81689850D01*
G75*
G02*
X88310000Y81589850I0J-100000D01*
G01*
X88310000Y80339850D01*
G75*
G02*
X88210000Y80239850I-100000J0D01*
G01*
X87410000Y80239850D01*
G75*
G02*
X87310000Y80339850I0J100000D01*
G01*
G37*
G36*
G01*
X89210022Y80339850D02*
X89210022Y81589850D01*
G75*
G02*
X89310022Y81689850I100000J0D01*
G01*
X90110022Y81689850D01*
G75*
G02*
X90210022Y81589850I0J-100000D01*
G01*
X90210022Y80339850D01*
G75*
G02*
X90110022Y80239850I-100000J0D01*
G01*
X89310022Y80239850D01*
G75*
G02*
X89210022Y80339850I0J100000D01*
G01*
G37*
G04 #@! TD*
G04 #@! TO.C,R7*
G36*
G01*
X87310000Y82842778D02*
X87310000Y84092778D01*
G75*
G02*
X87410000Y84192778I100000J0D01*
G01*
X88210000Y84192778D01*
G75*
G02*
X88310000Y84092778I0J-100000D01*
G01*
X88310000Y82842778D01*
G75*
G02*
X88210000Y82742778I-100000J0D01*
G01*
X87410000Y82742778D01*
G75*
G02*
X87310000Y82842778I0J100000D01*
G01*
G37*
G36*
G01*
X89210022Y82842778D02*
X89210022Y84092778D01*
G75*
G02*
X89310022Y84192778I100000J0D01*
G01*
X90110022Y84192778D01*
G75*
G02*
X90210022Y84092778I0J-100000D01*
G01*
X90210022Y82842778D01*
G75*
G02*
X90110022Y82742778I-100000J0D01*
G01*
X89310022Y82742778D01*
G75*
G02*
X89210022Y82842778I0J100000D01*
G01*
G37*
G04 #@! TD*
G04 #@! TO.C,R6*
G36*
G01*
X88710000Y97655000D02*
X88710000Y98435000D01*
G75*
G02*
X88780000Y98505000I70000J0D01*
G01*
X89340000Y98505000D01*
G75*
G02*
X89410000Y98435000I0J-70000D01*
G01*
X89410000Y97655000D01*
G75*
G02*
X89340000Y97585000I-70000J0D01*
G01*
X88780000Y97585000D01*
G75*
G02*
X88710000Y97655000I0J70000D01*
G01*
G37*
G36*
G01*
X90310000Y97655000D02*
X90310000Y98435000D01*
G75*
G02*
X90380000Y98505000I70000J0D01*
G01*
X90940000Y98505000D01*
G75*
G02*
X91010000Y98435000I0J-70000D01*
G01*
X91010000Y97655000D01*
G75*
G02*
X90940000Y97585000I-70000J0D01*
G01*
X90380000Y97585000D01*
G75*
G02*
X90310000Y97655000I0J70000D01*
G01*
G37*
G04 #@! TD*
G04 #@! TO.C,R5*
G36*
G01*
X88710000Y99604046D02*
X88710000Y100384046D01*
G75*
G02*
X88780000Y100454046I70000J0D01*
G01*
X89340000Y100454046D01*
G75*
G02*
X89410000Y100384046I0J-70000D01*
G01*
X89410000Y99604046D01*
G75*
G02*
X89340000Y99534046I-70000J0D01*
G01*
X88780000Y99534046D01*
G75*
G02*
X88710000Y99604046I0J70000D01*
G01*
G37*
G36*
G01*
X90310000Y99604046D02*
X90310000Y100384046D01*
G75*
G02*
X90380000Y100454046I70000J0D01*
G01*
X90940000Y100454046D01*
G75*
G02*
X91010000Y100384046I0J-70000D01*
G01*
X91010000Y99604046D01*
G75*
G02*
X90940000Y99534046I-70000J0D01*
G01*
X90380000Y99534046D01*
G75*
G02*
X90310000Y99604046I0J70000D01*
G01*
G37*
G04 #@! TD*
G04 #@! TO.C,R4*
G36*
G01*
X90090390Y86577388D02*
X90090390Y87827388D01*
G75*
G02*
X90190390Y87927388I100000J0D01*
G01*
X90990390Y87927388D01*
G75*
G02*
X91090390Y87827388I0J-100000D01*
G01*
X91090390Y86577388D01*
G75*
G02*
X90990390Y86477388I-100000J0D01*
G01*
X90190390Y86477388D01*
G75*
G02*
X90090390Y86577388I0J100000D01*
G01*
G37*
G36*
G01*
X91990412Y86577388D02*
X91990412Y87827388D01*
G75*
G02*
X92090412Y87927388I100000J0D01*
G01*
X92890412Y87927388D01*
G75*
G02*
X92990412Y87827388I0J-100000D01*
G01*
X92990412Y86577388D01*
G75*
G02*
X92890412Y86477388I-100000J0D01*
G01*
X92090412Y86477388D01*
G75*
G02*
X91990412Y86577388I0J100000D01*
G01*
G37*
G04 #@! TD*
G04 #@! TO.C,R3*
G36*
G01*
X88710000Y101553092D02*
X88710000Y102333092D01*
G75*
G02*
X88780000Y102403092I70000J0D01*
G01*
X89340000Y102403092D01*
G75*
G02*
X89410000Y102333092I0J-70000D01*
G01*
X89410000Y101553092D01*
G75*
G02*
X89340000Y101483092I-70000J0D01*
G01*
X88780000Y101483092D01*
G75*
G02*
X88710000Y101553092I0J70000D01*
G01*
G37*
G36*
G01*
X90310000Y101553092D02*
X90310000Y102333092D01*
G75*
G02*
X90380000Y102403092I70000J0D01*
G01*
X90940000Y102403092D01*
G75*
G02*
X91010000Y102333092I0J-70000D01*
G01*
X91010000Y101553092D01*
G75*
G02*
X90940000Y101483092I-70000J0D01*
G01*
X90380000Y101483092D01*
G75*
G02*
X90310000Y101553092I0J70000D01*
G01*
G37*
G04 #@! TD*
G04 #@! TO.C,R2*
G36*
G01*
X88710000Y103502138D02*
X88710000Y104282138D01*
G75*
G02*
X88780000Y104352138I70000J0D01*
G01*
X89340000Y104352138D01*
G75*
G02*
X89410000Y104282138I0J-70000D01*
G01*
X89410000Y103502138D01*
G75*
G02*
X89340000Y103432138I-70000J0D01*
G01*
X88780000Y103432138D01*
G75*
G02*
X88710000Y103502138I0J70000D01*
G01*
G37*
G36*
G01*
X90310000Y103502138D02*
X90310000Y104282138D01*
G75*
G02*
X90380000Y104352138I70000J0D01*
G01*
X90940000Y104352138D01*
G75*
G02*
X91010000Y104282138I0J-70000D01*
G01*
X91010000Y103502138D01*
G75*
G02*
X90940000Y103432138I-70000J0D01*
G01*
X90380000Y103432138D01*
G75*
G02*
X90310000Y103502138I0J70000D01*
G01*
G37*
G04 #@! TD*
G04 #@! TO.C,R1*
G36*
G01*
X88710000Y105451184D02*
X88710000Y106231184D01*
G75*
G02*
X88780000Y106301184I70000J0D01*
G01*
X89340000Y106301184D01*
G75*
G02*
X89410000Y106231184I0J-70000D01*
G01*
X89410000Y105451184D01*
G75*
G02*
X89340000Y105381184I-70000J0D01*
G01*
X88780000Y105381184D01*
G75*
G02*
X88710000Y105451184I0J70000D01*
G01*
G37*
G36*
G01*
X90310000Y105451184D02*
X90310000Y106231184D01*
G75*
G02*
X90380000Y106301184I70000J0D01*
G01*
X90940000Y106301184D01*
G75*
G02*
X91010000Y106231184I0J-70000D01*
G01*
X91010000Y105451184D01*
G75*
G02*
X90940000Y105381184I-70000J0D01*
G01*
X90380000Y105381184D01*
G75*
G02*
X90310000Y105451184I0J70000D01*
G01*
G37*
G04 #@! TD*
G04 #@! TO.C,Q7*
G36*
G01*
X92280000Y105217779D02*
X92280000Y105517779D01*
G75*
G02*
X92430000Y105667779I150000J0D01*
G01*
X93605000Y105667779D01*
G75*
G02*
X93755000Y105517779I0J-150000D01*
G01*
X93755000Y105217779D01*
G75*
G02*
X93605000Y105067779I-150000J0D01*
G01*
X92430000Y105067779D01*
G75*
G02*
X92280000Y105217779I0J150000D01*
G01*
G37*
G36*
G01*
X92280000Y103317779D02*
X92280000Y103617779D01*
G75*
G02*
X92430000Y103767779I150000J0D01*
G01*
X93605000Y103767779D01*
G75*
G02*
X93755000Y103617779I0J-150000D01*
G01*
X93755000Y103317779D01*
G75*
G02*
X93605000Y103167779I-150000J0D01*
G01*
X92430000Y103167779D01*
G75*
G02*
X92280000Y103317779I0J150000D01*
G01*
G37*
G36*
G01*
X94155000Y104267779D02*
X94155000Y104567779D01*
G75*
G02*
X94305000Y104717779I150000J0D01*
G01*
X95480000Y104717779D01*
G75*
G02*
X95630000Y104567779I0J-150000D01*
G01*
X95630000Y104267779D01*
G75*
G02*
X95480000Y104117779I-150000J0D01*
G01*
X94305000Y104117779D01*
G75*
G02*
X94155000Y104267779I0J150000D01*
G01*
G37*
G04 #@! TD*
G04 #@! TO.C,Q6*
G36*
G01*
X99175000Y63602779D02*
X99175000Y64302779D01*
G75*
G02*
X99425000Y64552779I250000J0D01*
G01*
X101125000Y64552779D01*
G75*
G02*
X101375000Y64302779I0J-250000D01*
G01*
X101375000Y63602779D01*
G75*
G02*
X101125000Y63352779I-250000J0D01*
G01*
X99425000Y63352779D01*
G75*
G02*
X99175000Y63602779I0J250000D01*
G01*
G37*
G36*
G01*
X103375000Y62072779D02*
X103375000Y64322779D01*
G75*
G02*
X103625000Y64572779I250000J0D01*
G01*
X106175000Y64572779D01*
G75*
G02*
X106425000Y64322779I0J-250000D01*
G01*
X106425000Y62072779D01*
G75*
G02*
X106175000Y61822779I-250000J0D01*
G01*
X103625000Y61822779D01*
G75*
G02*
X103375000Y62072779I0J250000D01*
G01*
G37*
G36*
G01*
X103375000Y59022779D02*
X103375000Y61272779D01*
G75*
G02*
X103625000Y61522779I250000J0D01*
G01*
X106175000Y61522779D01*
G75*
G02*
X106425000Y61272779I0J-250000D01*
G01*
X106425000Y59022779D01*
G75*
G02*
X106175000Y58772779I-250000J0D01*
G01*
X103625000Y58772779D01*
G75*
G02*
X103375000Y59022779I0J250000D01*
G01*
G37*
G36*
G01*
X106725000Y62072779D02*
X106725000Y64322779D01*
G75*
G02*
X106975000Y64572779I250000J0D01*
G01*
X109525000Y64572779D01*
G75*
G02*
X109775000Y64322779I0J-250000D01*
G01*
X109775000Y62072779D01*
G75*
G02*
X109525000Y61822779I-250000J0D01*
G01*
X106975000Y61822779D01*
G75*
G02*
X106725000Y62072779I0J250000D01*
G01*
G37*
G36*
G01*
X106725000Y59022779D02*
X106725000Y61272779D01*
G75*
G02*
X106975000Y61522779I250000J0D01*
G01*
X109525000Y61522779D01*
G75*
G02*
X109775000Y61272779I0J-250000D01*
G01*
X109775000Y59022779D01*
G75*
G02*
X109525000Y58772779I-250000J0D01*
G01*
X106975000Y58772779D01*
G75*
G02*
X106725000Y59022779I0J250000D01*
G01*
G37*
G36*
G01*
X99175000Y59042779D02*
X99175000Y59742779D01*
G75*
G02*
X99425000Y59992779I250000J0D01*
G01*
X101125000Y59992779D01*
G75*
G02*
X101375000Y59742779I0J-250000D01*
G01*
X101375000Y59042779D01*
G75*
G02*
X101125000Y58792779I-250000J0D01*
G01*
X99425000Y58792779D01*
G75*
G02*
X99175000Y59042779I0J250000D01*
G01*
G37*
G04 #@! TD*
G04 #@! TO.C,Q5*
G36*
G01*
X99175000Y71797779D02*
X99175000Y72497779D01*
G75*
G02*
X99425000Y72747779I250000J0D01*
G01*
X101125000Y72747779D01*
G75*
G02*
X101375000Y72497779I0J-250000D01*
G01*
X101375000Y71797779D01*
G75*
G02*
X101125000Y71547779I-250000J0D01*
G01*
X99425000Y71547779D01*
G75*
G02*
X99175000Y71797779I0J250000D01*
G01*
G37*
G36*
G01*
X103375000Y70267779D02*
X103375000Y72517779D01*
G75*
G02*
X103625000Y72767779I250000J0D01*
G01*
X106175000Y72767779D01*
G75*
G02*
X106425000Y72517779I0J-250000D01*
G01*
X106425000Y70267779D01*
G75*
G02*
X106175000Y70017779I-250000J0D01*
G01*
X103625000Y70017779D01*
G75*
G02*
X103375000Y70267779I0J250000D01*
G01*
G37*
G36*
G01*
X103375000Y67217779D02*
X103375000Y69467779D01*
G75*
G02*
X103625000Y69717779I250000J0D01*
G01*
X106175000Y69717779D01*
G75*
G02*
X106425000Y69467779I0J-250000D01*
G01*
X106425000Y67217779D01*
G75*
G02*
X106175000Y66967779I-250000J0D01*
G01*
X103625000Y66967779D01*
G75*
G02*
X103375000Y67217779I0J250000D01*
G01*
G37*
G36*
G01*
X106725000Y70267779D02*
X106725000Y72517779D01*
G75*
G02*
X106975000Y72767779I250000J0D01*
G01*
X109525000Y72767779D01*
G75*
G02*
X109775000Y72517779I0J-250000D01*
G01*
X109775000Y70267779D01*
G75*
G02*
X109525000Y70017779I-250000J0D01*
G01*
X106975000Y70017779D01*
G75*
G02*
X106725000Y70267779I0J250000D01*
G01*
G37*
G36*
G01*
X106725000Y67217779D02*
X106725000Y69467779D01*
G75*
G02*
X106975000Y69717779I250000J0D01*
G01*
X109525000Y69717779D01*
G75*
G02*
X109775000Y69467779I0J-250000D01*
G01*
X109775000Y67217779D01*
G75*
G02*
X109525000Y66967779I-250000J0D01*
G01*
X106975000Y66967779D01*
G75*
G02*
X106725000Y67217779I0J250000D01*
G01*
G37*
G36*
G01*
X99175000Y67237779D02*
X99175000Y67937779D01*
G75*
G02*
X99425000Y68187779I250000J0D01*
G01*
X101125000Y68187779D01*
G75*
G02*
X101375000Y67937779I0J-250000D01*
G01*
X101375000Y67237779D01*
G75*
G02*
X101125000Y66987779I-250000J0D01*
G01*
X99425000Y66987779D01*
G75*
G02*
X99175000Y67237779I0J250000D01*
G01*
G37*
G04 #@! TD*
G04 #@! TO.C,Q4*
G36*
G01*
X99175000Y79992779D02*
X99175000Y80692779D01*
G75*
G02*
X99425000Y80942779I250000J0D01*
G01*
X101125000Y80942779D01*
G75*
G02*
X101375000Y80692779I0J-250000D01*
G01*
X101375000Y79992779D01*
G75*
G02*
X101125000Y79742779I-250000J0D01*
G01*
X99425000Y79742779D01*
G75*
G02*
X99175000Y79992779I0J250000D01*
G01*
G37*
G36*
G01*
X103375000Y78462779D02*
X103375000Y80712779D01*
G75*
G02*
X103625000Y80962779I250000J0D01*
G01*
X106175000Y80962779D01*
G75*
G02*
X106425000Y80712779I0J-250000D01*
G01*
X106425000Y78462779D01*
G75*
G02*
X106175000Y78212779I-250000J0D01*
G01*
X103625000Y78212779D01*
G75*
G02*
X103375000Y78462779I0J250000D01*
G01*
G37*
G36*
G01*
X103375000Y75412779D02*
X103375000Y77662779D01*
G75*
G02*
X103625000Y77912779I250000J0D01*
G01*
X106175000Y77912779D01*
G75*
G02*
X106425000Y77662779I0J-250000D01*
G01*
X106425000Y75412779D01*
G75*
G02*
X106175000Y75162779I-250000J0D01*
G01*
X103625000Y75162779D01*
G75*
G02*
X103375000Y75412779I0J250000D01*
G01*
G37*
G36*
G01*
X106725000Y78462779D02*
X106725000Y80712779D01*
G75*
G02*
X106975000Y80962779I250000J0D01*
G01*
X109525000Y80962779D01*
G75*
G02*
X109775000Y80712779I0J-250000D01*
G01*
X109775000Y78462779D01*
G75*
G02*
X109525000Y78212779I-250000J0D01*
G01*
X106975000Y78212779D01*
G75*
G02*
X106725000Y78462779I0J250000D01*
G01*
G37*
G36*
G01*
X106725000Y75412779D02*
X106725000Y77662779D01*
G75*
G02*
X106975000Y77912779I250000J0D01*
G01*
X109525000Y77912779D01*
G75*
G02*
X109775000Y77662779I0J-250000D01*
G01*
X109775000Y75412779D01*
G75*
G02*
X109525000Y75162779I-250000J0D01*
G01*
X106975000Y75162779D01*
G75*
G02*
X106725000Y75412779I0J250000D01*
G01*
G37*
G36*
G01*
X99175000Y75432779D02*
X99175000Y76132779D01*
G75*
G02*
X99425000Y76382779I250000J0D01*
G01*
X101125000Y76382779D01*
G75*
G02*
X101375000Y76132779I0J-250000D01*
G01*
X101375000Y75432779D01*
G75*
G02*
X101125000Y75182779I-250000J0D01*
G01*
X99425000Y75182779D01*
G75*
G02*
X99175000Y75432779I0J250000D01*
G01*
G37*
G04 #@! TD*
G04 #@! TO.C,Q3*
G36*
G01*
X99175000Y88187779D02*
X99175000Y88887779D01*
G75*
G02*
X99425000Y89137779I250000J0D01*
G01*
X101125000Y89137779D01*
G75*
G02*
X101375000Y88887779I0J-250000D01*
G01*
X101375000Y88187779D01*
G75*
G02*
X101125000Y87937779I-250000J0D01*
G01*
X99425000Y87937779D01*
G75*
G02*
X99175000Y88187779I0J250000D01*
G01*
G37*
G36*
G01*
X103375000Y86657779D02*
X103375000Y88907779D01*
G75*
G02*
X103625000Y89157779I250000J0D01*
G01*
X106175000Y89157779D01*
G75*
G02*
X106425000Y88907779I0J-250000D01*
G01*
X106425000Y86657779D01*
G75*
G02*
X106175000Y86407779I-250000J0D01*
G01*
X103625000Y86407779D01*
G75*
G02*
X103375000Y86657779I0J250000D01*
G01*
G37*
G36*
G01*
X103375000Y83607779D02*
X103375000Y85857779D01*
G75*
G02*
X103625000Y86107779I250000J0D01*
G01*
X106175000Y86107779D01*
G75*
G02*
X106425000Y85857779I0J-250000D01*
G01*
X106425000Y83607779D01*
G75*
G02*
X106175000Y83357779I-250000J0D01*
G01*
X103625000Y83357779D01*
G75*
G02*
X103375000Y83607779I0J250000D01*
G01*
G37*
G36*
G01*
X106725000Y86657779D02*
X106725000Y88907779D01*
G75*
G02*
X106975000Y89157779I250000J0D01*
G01*
X109525000Y89157779D01*
G75*
G02*
X109775000Y88907779I0J-250000D01*
G01*
X109775000Y86657779D01*
G75*
G02*
X109525000Y86407779I-250000J0D01*
G01*
X106975000Y86407779D01*
G75*
G02*
X106725000Y86657779I0J250000D01*
G01*
G37*
G36*
G01*
X106725000Y83607779D02*
X106725000Y85857779D01*
G75*
G02*
X106975000Y86107779I250000J0D01*
G01*
X109525000Y86107779D01*
G75*
G02*
X109775000Y85857779I0J-250000D01*
G01*
X109775000Y83607779D01*
G75*
G02*
X109525000Y83357779I-250000J0D01*
G01*
X106975000Y83357779D01*
G75*
G02*
X106725000Y83607779I0J250000D01*
G01*
G37*
G36*
G01*
X99175000Y83627779D02*
X99175000Y84327779D01*
G75*
G02*
X99425000Y84577779I250000J0D01*
G01*
X101125000Y84577779D01*
G75*
G02*
X101375000Y84327779I0J-250000D01*
G01*
X101375000Y83627779D01*
G75*
G02*
X101125000Y83377779I-250000J0D01*
G01*
X99425000Y83377779D01*
G75*
G02*
X99175000Y83627779I0J250000D01*
G01*
G37*
G04 #@! TD*
G04 #@! TO.C,Q2*
G36*
G01*
X99175000Y96382779D02*
X99175000Y97082779D01*
G75*
G02*
X99425000Y97332779I250000J0D01*
G01*
X101125000Y97332779D01*
G75*
G02*
X101375000Y97082779I0J-250000D01*
G01*
X101375000Y96382779D01*
G75*
G02*
X101125000Y96132779I-250000J0D01*
G01*
X99425000Y96132779D01*
G75*
G02*
X99175000Y96382779I0J250000D01*
G01*
G37*
G36*
G01*
X103375000Y94852779D02*
X103375000Y97102779D01*
G75*
G02*
X103625000Y97352779I250000J0D01*
G01*
X106175000Y97352779D01*
G75*
G02*
X106425000Y97102779I0J-250000D01*
G01*
X106425000Y94852779D01*
G75*
G02*
X106175000Y94602779I-250000J0D01*
G01*
X103625000Y94602779D01*
G75*
G02*
X103375000Y94852779I0J250000D01*
G01*
G37*
G36*
G01*
X103375000Y91802779D02*
X103375000Y94052779D01*
G75*
G02*
X103625000Y94302779I250000J0D01*
G01*
X106175000Y94302779D01*
G75*
G02*
X106425000Y94052779I0J-250000D01*
G01*
X106425000Y91802779D01*
G75*
G02*
X106175000Y91552779I-250000J0D01*
G01*
X103625000Y91552779D01*
G75*
G02*
X103375000Y91802779I0J250000D01*
G01*
G37*
G36*
G01*
X106725000Y94852779D02*
X106725000Y97102779D01*
G75*
G02*
X106975000Y97352779I250000J0D01*
G01*
X109525000Y97352779D01*
G75*
G02*
X109775000Y97102779I0J-250000D01*
G01*
X109775000Y94852779D01*
G75*
G02*
X109525000Y94602779I-250000J0D01*
G01*
X106975000Y94602779D01*
G75*
G02*
X106725000Y94852779I0J250000D01*
G01*
G37*
G36*
G01*
X106725000Y91802779D02*
X106725000Y94052779D01*
G75*
G02*
X106975000Y94302779I250000J0D01*
G01*
X109525000Y94302779D01*
G75*
G02*
X109775000Y94052779I0J-250000D01*
G01*
X109775000Y91802779D01*
G75*
G02*
X109525000Y91552779I-250000J0D01*
G01*
X106975000Y91552779D01*
G75*
G02*
X106725000Y91802779I0J250000D01*
G01*
G37*
G36*
G01*
X99175000Y91822779D02*
X99175000Y92522779D01*
G75*
G02*
X99425000Y92772779I250000J0D01*
G01*
X101125000Y92772779D01*
G75*
G02*
X101375000Y92522779I0J-250000D01*
G01*
X101375000Y91822779D01*
G75*
G02*
X101125000Y91572779I-250000J0D01*
G01*
X99425000Y91572779D01*
G75*
G02*
X99175000Y91822779I0J250000D01*
G01*
G37*
G04 #@! TD*
G04 #@! TO.C,Q1*
G36*
G01*
X99175000Y104577779D02*
X99175000Y105277779D01*
G75*
G02*
X99425000Y105527779I250000J0D01*
G01*
X101125000Y105527779D01*
G75*
G02*
X101375000Y105277779I0J-250000D01*
G01*
X101375000Y104577779D01*
G75*
G02*
X101125000Y104327779I-250000J0D01*
G01*
X99425000Y104327779D01*
G75*
G02*
X99175000Y104577779I0J250000D01*
G01*
G37*
G36*
G01*
X103375000Y103047779D02*
X103375000Y105297779D01*
G75*
G02*
X103625000Y105547779I250000J0D01*
G01*
X106175000Y105547779D01*
G75*
G02*
X106425000Y105297779I0J-250000D01*
G01*
X106425000Y103047779D01*
G75*
G02*
X106175000Y102797779I-250000J0D01*
G01*
X103625000Y102797779D01*
G75*
G02*
X103375000Y103047779I0J250000D01*
G01*
G37*
G36*
G01*
X103375000Y99997779D02*
X103375000Y102247779D01*
G75*
G02*
X103625000Y102497779I250000J0D01*
G01*
X106175000Y102497779D01*
G75*
G02*
X106425000Y102247779I0J-250000D01*
G01*
X106425000Y99997779D01*
G75*
G02*
X106175000Y99747779I-250000J0D01*
G01*
X103625000Y99747779D01*
G75*
G02*
X103375000Y99997779I0J250000D01*
G01*
G37*
G36*
G01*
X106725000Y103047779D02*
X106725000Y105297779D01*
G75*
G02*
X106975000Y105547779I250000J0D01*
G01*
X109525000Y105547779D01*
G75*
G02*
X109775000Y105297779I0J-250000D01*
G01*
X109775000Y103047779D01*
G75*
G02*
X109525000Y102797779I-250000J0D01*
G01*
X106975000Y102797779D01*
G75*
G02*
X106725000Y103047779I0J250000D01*
G01*
G37*
G36*
G01*
X106725000Y99997779D02*
X106725000Y102247779D01*
G75*
G02*
X106975000Y102497779I250000J0D01*
G01*
X109525000Y102497779D01*
G75*
G02*
X109775000Y102247779I0J-250000D01*
G01*
X109775000Y99997779D01*
G75*
G02*
X109525000Y99747779I-250000J0D01*
G01*
X106975000Y99747779D01*
G75*
G02*
X106725000Y99997779I0J250000D01*
G01*
G37*
G36*
G01*
X99175000Y100017779D02*
X99175000Y100717779D01*
G75*
G02*
X99425000Y100967779I250000J0D01*
G01*
X101125000Y100967779D01*
G75*
G02*
X101375000Y100717779I0J-250000D01*
G01*
X101375000Y100017779D01*
G75*
G02*
X101125000Y99767779I-250000J0D01*
G01*
X99425000Y99767779D01*
G75*
G02*
X99175000Y100017779I0J250000D01*
G01*
G37*
G04 #@! TD*
D10*
G04 #@! TO.C,M7*
X90834999Y62256108D03*
G04 #@! TD*
G04 #@! TO.C,L2*
G36*
G01*
X54470000Y31226529D02*
X54470000Y31739029D01*
G75*
G02*
X54688750Y31957779I218750J0D01*
G01*
X55126250Y31957779D01*
G75*
G02*
X55345000Y31739029I0J-218750D01*
G01*
X55345000Y31226529D01*
G75*
G02*
X55126250Y31007779I-218750J0D01*
G01*
X54688750Y31007779D01*
G75*
G02*
X54470000Y31226529I0J218750D01*
G01*
G37*
G36*
G01*
X56045000Y31226529D02*
X56045000Y31739029D01*
G75*
G02*
X56263750Y31957779I218750J0D01*
G01*
X56701250Y31957779D01*
G75*
G02*
X56920000Y31739029I0J-218750D01*
G01*
X56920000Y31226529D01*
G75*
G02*
X56701250Y31007779I-218750J0D01*
G01*
X56263750Y31007779D01*
G75*
G02*
X56045000Y31226529I0J218750D01*
G01*
G37*
G04 #@! TD*
G04 #@! TO.C,L1*
G36*
G01*
X54470000Y33736529D02*
X54470000Y34249029D01*
G75*
G02*
X54688750Y34467779I218750J0D01*
G01*
X55126250Y34467779D01*
G75*
G02*
X55345000Y34249029I0J-218750D01*
G01*
X55345000Y33736529D01*
G75*
G02*
X55126250Y33517779I-218750J0D01*
G01*
X54688750Y33517779D01*
G75*
G02*
X54470000Y33736529I0J218750D01*
G01*
G37*
G36*
G01*
X56045000Y33736529D02*
X56045000Y34249029D01*
G75*
G02*
X56263750Y34467779I218750J0D01*
G01*
X56701250Y34467779D01*
G75*
G02*
X56920000Y34249029I0J-218750D01*
G01*
X56920000Y33736529D01*
G75*
G02*
X56701250Y33517779I-218750J0D01*
G01*
X56263750Y33517779D01*
G75*
G02*
X56045000Y33736529I0J218750D01*
G01*
G37*
G04 #@! TD*
G04 #@! TO.C,F9*
G36*
G01*
X111330000Y63416529D02*
X111330000Y63929029D01*
G75*
G02*
X111548750Y64147779I218750J0D01*
G01*
X111986250Y64147779D01*
G75*
G02*
X112205000Y63929029I0J-218750D01*
G01*
X112205000Y63416529D01*
G75*
G02*
X111986250Y63197779I-218750J0D01*
G01*
X111548750Y63197779D01*
G75*
G02*
X111330000Y63416529I0J218750D01*
G01*
G37*
G36*
G01*
X112905000Y63416529D02*
X112905000Y63929029D01*
G75*
G02*
X113123750Y64147779I218750J0D01*
G01*
X113561250Y64147779D01*
G75*
G02*
X113780000Y63929029I0J-218750D01*
G01*
X113780000Y63416529D01*
G75*
G02*
X113561250Y63197779I-218750J0D01*
G01*
X113123750Y63197779D01*
G75*
G02*
X112905000Y63416529I0J218750D01*
G01*
G37*
G04 #@! TD*
G04 #@! TO.C,F8*
G36*
G01*
X111330000Y65926529D02*
X111330000Y66439029D01*
G75*
G02*
X111548750Y66657779I218750J0D01*
G01*
X111986250Y66657779D01*
G75*
G02*
X112205000Y66439029I0J-218750D01*
G01*
X112205000Y65926529D01*
G75*
G02*
X111986250Y65707779I-218750J0D01*
G01*
X111548750Y65707779D01*
G75*
G02*
X111330000Y65926529I0J218750D01*
G01*
G37*
G36*
G01*
X112905000Y65926529D02*
X112905000Y66439029D01*
G75*
G02*
X113123750Y66657779I218750J0D01*
G01*
X113561250Y66657779D01*
G75*
G02*
X113780000Y66439029I0J-218750D01*
G01*
X113780000Y65926529D01*
G75*
G02*
X113561250Y65707779I-218750J0D01*
G01*
X113123750Y65707779D01*
G75*
G02*
X112905000Y65926529I0J218750D01*
G01*
G37*
G04 #@! TD*
G04 #@! TO.C,F7*
G36*
G01*
X111330000Y68436529D02*
X111330000Y68949029D01*
G75*
G02*
X111548750Y69167779I218750J0D01*
G01*
X111986250Y69167779D01*
G75*
G02*
X112205000Y68949029I0J-218750D01*
G01*
X112205000Y68436529D01*
G75*
G02*
X111986250Y68217779I-218750J0D01*
G01*
X111548750Y68217779D01*
G75*
G02*
X111330000Y68436529I0J218750D01*
G01*
G37*
G36*
G01*
X112905000Y68436529D02*
X112905000Y68949029D01*
G75*
G02*
X113123750Y69167779I218750J0D01*
G01*
X113561250Y69167779D01*
G75*
G02*
X113780000Y68949029I0J-218750D01*
G01*
X113780000Y68436529D01*
G75*
G02*
X113561250Y68217779I-218750J0D01*
G01*
X113123750Y68217779D01*
G75*
G02*
X112905000Y68436529I0J218750D01*
G01*
G37*
G04 #@! TD*
G04 #@! TO.C,F6*
G36*
G01*
X111330000Y70946529D02*
X111330000Y71459029D01*
G75*
G02*
X111548750Y71677779I218750J0D01*
G01*
X111986250Y71677779D01*
G75*
G02*
X112205000Y71459029I0J-218750D01*
G01*
X112205000Y70946529D01*
G75*
G02*
X111986250Y70727779I-218750J0D01*
G01*
X111548750Y70727779D01*
G75*
G02*
X111330000Y70946529I0J218750D01*
G01*
G37*
G36*
G01*
X112905000Y70946529D02*
X112905000Y71459029D01*
G75*
G02*
X113123750Y71677779I218750J0D01*
G01*
X113561250Y71677779D01*
G75*
G02*
X113780000Y71459029I0J-218750D01*
G01*
X113780000Y70946529D01*
G75*
G02*
X113561250Y70727779I-218750J0D01*
G01*
X113123750Y70727779D01*
G75*
G02*
X112905000Y70946529I0J218750D01*
G01*
G37*
G04 #@! TD*
G04 #@! TO.C,F5*
G36*
G01*
X111330000Y73456529D02*
X111330000Y73969029D01*
G75*
G02*
X111548750Y74187779I218750J0D01*
G01*
X111986250Y74187779D01*
G75*
G02*
X112205000Y73969029I0J-218750D01*
G01*
X112205000Y73456529D01*
G75*
G02*
X111986250Y73237779I-218750J0D01*
G01*
X111548750Y73237779D01*
G75*
G02*
X111330000Y73456529I0J218750D01*
G01*
G37*
G36*
G01*
X112905000Y73456529D02*
X112905000Y73969029D01*
G75*
G02*
X113123750Y74187779I218750J0D01*
G01*
X113561250Y74187779D01*
G75*
G02*
X113780000Y73969029I0J-218750D01*
G01*
X113780000Y73456529D01*
G75*
G02*
X113561250Y73237779I-218750J0D01*
G01*
X113123750Y73237779D01*
G75*
G02*
X112905000Y73456529I0J218750D01*
G01*
G37*
G04 #@! TD*
G04 #@! TO.C,F4*
G36*
G01*
X111330000Y75966529D02*
X111330000Y76479029D01*
G75*
G02*
X111548750Y76697779I218750J0D01*
G01*
X111986250Y76697779D01*
G75*
G02*
X112205000Y76479029I0J-218750D01*
G01*
X112205000Y75966529D01*
G75*
G02*
X111986250Y75747779I-218750J0D01*
G01*
X111548750Y75747779D01*
G75*
G02*
X111330000Y75966529I0J218750D01*
G01*
G37*
G36*
G01*
X112905000Y75966529D02*
X112905000Y76479029D01*
G75*
G02*
X113123750Y76697779I218750J0D01*
G01*
X113561250Y76697779D01*
G75*
G02*
X113780000Y76479029I0J-218750D01*
G01*
X113780000Y75966529D01*
G75*
G02*
X113561250Y75747779I-218750J0D01*
G01*
X113123750Y75747779D01*
G75*
G02*
X112905000Y75966529I0J218750D01*
G01*
G37*
G04 #@! TD*
G04 #@! TO.C,F3*
G36*
G01*
X86614990Y44487779D02*
X85924990Y44487779D01*
G75*
G02*
X85694990Y44717779I0J230000D01*
G01*
X85694990Y46057779D01*
G75*
G02*
X85924990Y46287779I230000J0D01*
G01*
X86614990Y46287779D01*
G75*
G02*
X86844990Y46057779I0J-230000D01*
G01*
X86844990Y44717779D01*
G75*
G02*
X86614990Y44487779I-230000J0D01*
G01*
G37*
G36*
G01*
X89515010Y44487779D02*
X88825010Y44487779D01*
G75*
G02*
X88595010Y44717779I0J230000D01*
G01*
X88595010Y46057779D01*
G75*
G02*
X88825010Y46287779I230000J0D01*
G01*
X89515010Y46287779D01*
G75*
G02*
X89745010Y46057779I0J-230000D01*
G01*
X89745010Y44717779D01*
G75*
G02*
X89515010Y44487779I-230000J0D01*
G01*
G37*
G04 #@! TD*
G04 #@! TO.C,F2*
G36*
G01*
X86614990Y47607779D02*
X85924990Y47607779D01*
G75*
G02*
X85694990Y47837779I0J230000D01*
G01*
X85694990Y49177779D01*
G75*
G02*
X85924990Y49407779I230000J0D01*
G01*
X86614990Y49407779D01*
G75*
G02*
X86844990Y49177779I0J-230000D01*
G01*
X86844990Y47837779D01*
G75*
G02*
X86614990Y47607779I-230000J0D01*
G01*
G37*
G36*
G01*
X89515010Y47607779D02*
X88825010Y47607779D01*
G75*
G02*
X88595010Y47837779I0J230000D01*
G01*
X88595010Y49177779D01*
G75*
G02*
X88825010Y49407779I230000J0D01*
G01*
X89515010Y49407779D01*
G75*
G02*
X89745010Y49177779I0J-230000D01*
G01*
X89745010Y47837779D01*
G75*
G02*
X89515010Y47607779I-230000J0D01*
G01*
G37*
G04 #@! TD*
G04 #@! TO.C,F1*
G36*
G01*
X86614990Y50727779D02*
X85924990Y50727779D01*
G75*
G02*
X85694990Y50957779I0J230000D01*
G01*
X85694990Y52297779D01*
G75*
G02*
X85924990Y52527779I230000J0D01*
G01*
X86614990Y52527779D01*
G75*
G02*
X86844990Y52297779I0J-230000D01*
G01*
X86844990Y50957779D01*
G75*
G02*
X86614990Y50727779I-230000J0D01*
G01*
G37*
G36*
G01*
X89515010Y50727779D02*
X88825010Y50727779D01*
G75*
G02*
X88595010Y50957779I0J230000D01*
G01*
X88595010Y52297779D01*
G75*
G02*
X88825010Y52527779I230000J0D01*
G01*
X89515010Y52527779D01*
G75*
G02*
X89745010Y52297779I0J-230000D01*
G01*
X89745010Y50957779D01*
G75*
G02*
X89515010Y50727779I-230000J0D01*
G01*
G37*
G04 #@! TD*
G04 #@! TO.C,D6*
G36*
G01*
X58470000Y33647779D02*
X58470000Y33947779D01*
G75*
G02*
X58620000Y34097779I150000J0D01*
G01*
X59795000Y34097779D01*
G75*
G02*
X59945000Y33947779I0J-150000D01*
G01*
X59945000Y33647779D01*
G75*
G02*
X59795000Y33497779I-150000J0D01*
G01*
X58620000Y33497779D01*
G75*
G02*
X58470000Y33647779I0J150000D01*
G01*
G37*
G36*
G01*
X58470000Y31747779D02*
X58470000Y32047779D01*
G75*
G02*
X58620000Y32197779I150000J0D01*
G01*
X59795000Y32197779D01*
G75*
G02*
X59945000Y32047779I0J-150000D01*
G01*
X59945000Y31747779D01*
G75*
G02*
X59795000Y31597779I-150000J0D01*
G01*
X58620000Y31597779D01*
G75*
G02*
X58470000Y31747779I0J150000D01*
G01*
G37*
G36*
G01*
X60345000Y32697779D02*
X60345000Y32997779D01*
G75*
G02*
X60495000Y33147779I150000J0D01*
G01*
X61670000Y33147779D01*
G75*
G02*
X61820000Y32997779I0J-150000D01*
G01*
X61820000Y32697779D01*
G75*
G02*
X61670000Y32547779I-150000J0D01*
G01*
X60495000Y32547779D01*
G75*
G02*
X60345000Y32697779I0J150000D01*
G01*
G37*
G04 #@! TD*
G04 #@! TO.C,D5*
G36*
G01*
X89030000Y90252779D02*
X89030000Y91552779D01*
G75*
G02*
X89280000Y91802779I250000J0D01*
G01*
X91280000Y91802779D01*
G75*
G02*
X91530000Y91552779I0J-250000D01*
G01*
X91530000Y90252779D01*
G75*
G02*
X91280000Y90002779I-250000J0D01*
G01*
X89280000Y90002779D01*
G75*
G02*
X89030000Y90252779I0J250000D01*
G01*
G37*
G36*
G01*
X93030000Y90252779D02*
X93030000Y91552779D01*
G75*
G02*
X93280000Y91802779I250000J0D01*
G01*
X95280000Y91802779D01*
G75*
G02*
X95530000Y91552779I0J-250000D01*
G01*
X95530000Y90252779D01*
G75*
G02*
X95280000Y90002779I-250000J0D01*
G01*
X93280000Y90002779D01*
G75*
G02*
X93030000Y90252779I0J250000D01*
G01*
G37*
G04 #@! TD*
G04 #@! TO.C,D4*
G36*
G01*
X91420000Y73287779D02*
X91420000Y74307779D01*
G75*
G02*
X91510000Y74397779I90000J0D01*
G01*
X92230000Y74397779D01*
G75*
G02*
X92320000Y74307779I0J-90000D01*
G01*
X92320000Y73287779D01*
G75*
G02*
X92230000Y73197779I-90000J0D01*
G01*
X91510000Y73197779D01*
G75*
G02*
X91420000Y73287779I0J90000D01*
G01*
G37*
G36*
G01*
X94720000Y73287779D02*
X94720000Y74307779D01*
G75*
G02*
X94810000Y74397779I90000J0D01*
G01*
X95530000Y74397779D01*
G75*
G02*
X95620000Y74307779I0J-90000D01*
G01*
X95620000Y73287779D01*
G75*
G02*
X95530000Y73197779I-90000J0D01*
G01*
X94810000Y73197779D01*
G75*
G02*
X94720000Y73287779I0J90000D01*
G01*
G37*
G04 #@! TD*
G04 #@! TO.C,D3*
G36*
G01*
X91420000Y76407779D02*
X91420000Y77427779D01*
G75*
G02*
X91510000Y77517779I90000J0D01*
G01*
X92230000Y77517779D01*
G75*
G02*
X92320000Y77427779I0J-90000D01*
G01*
X92320000Y76407779D01*
G75*
G02*
X92230000Y76317779I-90000J0D01*
G01*
X91510000Y76317779D01*
G75*
G02*
X91420000Y76407779I0J90000D01*
G01*
G37*
G36*
G01*
X94720000Y76407779D02*
X94720000Y77427779D01*
G75*
G02*
X94810000Y77517779I90000J0D01*
G01*
X95530000Y77517779D01*
G75*
G02*
X95620000Y77427779I0J-90000D01*
G01*
X95620000Y76407779D01*
G75*
G02*
X95530000Y76317779I-90000J0D01*
G01*
X94810000Y76317779D01*
G75*
G02*
X94720000Y76407779I0J90000D01*
G01*
G37*
G04 #@! TD*
G04 #@! TO.C,D2*
G36*
G01*
X91420000Y79527779D02*
X91420000Y80547779D01*
G75*
G02*
X91510000Y80637779I90000J0D01*
G01*
X92230000Y80637779D01*
G75*
G02*
X92320000Y80547779I0J-90000D01*
G01*
X92320000Y79527779D01*
G75*
G02*
X92230000Y79437779I-90000J0D01*
G01*
X91510000Y79437779D01*
G75*
G02*
X91420000Y79527779I0J90000D01*
G01*
G37*
G36*
G01*
X94720000Y79527779D02*
X94720000Y80547779D01*
G75*
G02*
X94810000Y80637779I90000J0D01*
G01*
X95530000Y80637779D01*
G75*
G02*
X95620000Y80547779I0J-90000D01*
G01*
X95620000Y79527779D01*
G75*
G02*
X95530000Y79437779I-90000J0D01*
G01*
X94810000Y79437779D01*
G75*
G02*
X94720000Y79527779I0J90000D01*
G01*
G37*
G04 #@! TD*
G04 #@! TO.C,D1*
G36*
G01*
X91420000Y82647779D02*
X91420000Y83667779D01*
G75*
G02*
X91510000Y83757779I90000J0D01*
G01*
X92230000Y83757779D01*
G75*
G02*
X92320000Y83667779I0J-90000D01*
G01*
X92320000Y82647779D01*
G75*
G02*
X92230000Y82557779I-90000J0D01*
G01*
X91510000Y82557779D01*
G75*
G02*
X91420000Y82647779I0J90000D01*
G01*
G37*
G36*
G01*
X94720000Y82647779D02*
X94720000Y83667779D01*
G75*
G02*
X94810000Y83757779I90000J0D01*
G01*
X95530000Y83757779D01*
G75*
G02*
X95620000Y83667779I0J-90000D01*
G01*
X95620000Y82647779D01*
G75*
G02*
X95530000Y82557779I-90000J0D01*
G01*
X94810000Y82557779D01*
G75*
G02*
X94720000Y82647779I0J90000D01*
G01*
G37*
G04 #@! TD*
G04 #@! TO.C,C5*
G36*
G01*
X50760000Y32737853D02*
X50760000Y33417853D01*
G75*
G02*
X50845000Y33502853I85000J0D01*
G01*
X51525000Y33502853D01*
G75*
G02*
X51610000Y33417853I0J-85000D01*
G01*
X51610000Y32737853D01*
G75*
G02*
X51525000Y32652853I-85000J0D01*
G01*
X50845000Y32652853D01*
G75*
G02*
X50760000Y32737853I0J85000D01*
G01*
G37*
G36*
G01*
X52340002Y32737853D02*
X52340002Y33417853D01*
G75*
G02*
X52425002Y33502853I85000J0D01*
G01*
X53105002Y33502853D01*
G75*
G02*
X53190002Y33417853I0J-85000D01*
G01*
X53190002Y32737853D01*
G75*
G02*
X53105002Y32652853I-85000J0D01*
G01*
X52425002Y32652853D01*
G75*
G02*
X52340002Y32737853I0J85000D01*
G01*
G37*
G04 #@! TD*
G04 #@! TO.C,C4*
G36*
G01*
X50760000Y34687838D02*
X50760000Y35367838D01*
G75*
G02*
X50845000Y35452838I85000J0D01*
G01*
X51525000Y35452838D01*
G75*
G02*
X51610000Y35367838I0J-85000D01*
G01*
X51610000Y34687838D01*
G75*
G02*
X51525000Y34602838I-85000J0D01*
G01*
X50845000Y34602838D01*
G75*
G02*
X50760000Y34687838I0J85000D01*
G01*
G37*
G36*
G01*
X52340002Y34687838D02*
X52340002Y35367838D01*
G75*
G02*
X52425002Y35452838I85000J0D01*
G01*
X53105002Y35452838D01*
G75*
G02*
X53190002Y35367838I0J-85000D01*
G01*
X53190002Y34687838D01*
G75*
G02*
X53105002Y34602838I-85000J0D01*
G01*
X52425002Y34602838D01*
G75*
G02*
X52340002Y34687838I0J85000D01*
G01*
G37*
G04 #@! TD*
G04 #@! TO.C,C3*
G36*
G01*
X50760000Y36637823D02*
X50760000Y37317823D01*
G75*
G02*
X50845000Y37402823I85000J0D01*
G01*
X51525000Y37402823D01*
G75*
G02*
X51610000Y37317823I0J-85000D01*
G01*
X51610000Y36637823D01*
G75*
G02*
X51525000Y36552823I-85000J0D01*
G01*
X50845000Y36552823D01*
G75*
G02*
X50760000Y36637823I0J85000D01*
G01*
G37*
G36*
G01*
X52340002Y36637823D02*
X52340002Y37317823D01*
G75*
G02*
X52425002Y37402823I85000J0D01*
G01*
X53105002Y37402823D01*
G75*
G02*
X53190002Y37317823I0J-85000D01*
G01*
X53190002Y36637823D01*
G75*
G02*
X53105002Y36552823I-85000J0D01*
G01*
X52425002Y36552823D01*
G75*
G02*
X52340002Y36637823I0J85000D01*
G01*
G37*
G04 #@! TD*
G04 #@! TO.C,C2*
G36*
G01*
X50760000Y38587808D02*
X50760000Y39267808D01*
G75*
G02*
X50845000Y39352808I85000J0D01*
G01*
X51525000Y39352808D01*
G75*
G02*
X51610000Y39267808I0J-85000D01*
G01*
X51610000Y38587808D01*
G75*
G02*
X51525000Y38502808I-85000J0D01*
G01*
X50845000Y38502808D01*
G75*
G02*
X50760000Y38587808I0J85000D01*
G01*
G37*
G36*
G01*
X52340002Y38587808D02*
X52340002Y39267808D01*
G75*
G02*
X52425002Y39352808I85000J0D01*
G01*
X53105002Y39352808D01*
G75*
G02*
X53190002Y39267808I0J-85000D01*
G01*
X53190002Y38587808D01*
G75*
G02*
X53105002Y38502808I-85000J0D01*
G01*
X52425002Y38502808D01*
G75*
G02*
X52340002Y38587808I0J85000D01*
G01*
G37*
G04 #@! TD*
G04 #@! TO.C,C1*
G36*
G01*
X50760000Y40537793D02*
X50760000Y41217793D01*
G75*
G02*
X50845000Y41302793I85000J0D01*
G01*
X51525000Y41302793D01*
G75*
G02*
X51610000Y41217793I0J-85000D01*
G01*
X51610000Y40537793D01*
G75*
G02*
X51525000Y40452793I-85000J0D01*
G01*
X50845000Y40452793D01*
G75*
G02*
X50760000Y40537793I0J85000D01*
G01*
G37*
G36*
G01*
X52340002Y40537793D02*
X52340002Y41217793D01*
G75*
G02*
X52425002Y41302793I85000J0D01*
G01*
X53105002Y41302793D01*
G75*
G02*
X53190002Y41217793I0J-85000D01*
G01*
X53190002Y40537793D01*
G75*
G02*
X53105002Y40452793I-85000J0D01*
G01*
X52425002Y40452793D01*
G75*
G02*
X52340002Y40537793I0J85000D01*
G01*
G37*
G04 #@! TD*
M02*
