M48
; DRILL file {KiCad 8.0.9-8.0.9-0~ubuntu24.04.1} date 2025-12-21T13:30:01+0000
; FORMAT={2:4/ absolute / inch / suppress leading zeros}
; #@! TF.CreationDate,2025-12-21T13:30:01+00:00
; #@! TF.GenerationSoftware,Kicad,Pcbnew,8.0.9-8.0.9-0~ubuntu24.04.1
; #@! TF.FileFunction,MixedPlating,1,4
FMAT,2
INCH,TZ
; #@! TA.AperFunction,Plated,PTH,ComponentDrill
T1C0.0118
; #@! TA.AperFunction,Plated,PTH,ComponentDrill
T2C0.0118
; #@! TA.AperFunction,Plated,PTH,ComponentDrill
T3C0.0276
; #@! TA.AperFunction,Plated,PTH,ComponentDrill
T4C0.0320
; #@! TA.AperFunction,Plated,PTH,ComponentDrill
T5C0.0335
; #@! TA.AperFunction,Plated,PTH,ViaDrill
T6C0.0394
; #@! TA.AperFunction,Plated,PTH,ComponentDrill
T7C0.0394
; #@! TA.AperFunction,Plated,PTH,ComponentDrill
T8C0.0433
; #@! TA.AperFunction,Plated,PTH,ComponentDrill
T9C0.0866
; #@! TA.AperFunction,Plated,PTH,ComponentDrill
T10C0.1457
%
G90
G05
T1
X44990Y10369
X45335Y10163
X45423Y12062
X45453Y10665
T2
X42421Y33002
X42421Y31152
X42421Y30600
X42421Y28750
X42421Y28435
X42421Y27411
X42421Y27018
X42421Y26624
X42421Y26230
X42421Y25837
X42421Y25443
X42421Y25049
X42421Y24656
X42421Y20443
X42421Y20049
X42523Y17746
X42523Y17352
X42523Y16959
X42523Y16061
X42523Y15661
X42579Y19065
X43524Y19065
X43996Y19065
X44469Y19065
X44941Y19065
X45335Y33002
X45413Y19065
X45728Y33002
X45886Y19065
X46358Y19065
X46791Y33002
X46831Y19065
X47303Y19065
X47390Y12136
X47390Y11781
X47776Y19065
X48248Y19065
X48484Y33002
X48720Y19065
X48799Y33002
X49114Y33002
X49193Y19065
X49429Y33002
X49665Y19065
X49744Y33002
X50059Y33002
X50138Y19065
X50374Y33002
X50610Y19065
X50689Y33002
X50815Y12136
X50815Y11762
X50815Y11388
X51004Y33002
X51083Y19065
X51555Y19065
X51949Y33002
X52028Y19065
X52264Y33002
X52500Y19065
X52579Y33002
X52894Y33002
X52972Y19065
X52992Y14734
X52992Y14341
X52992Y13947
X52992Y13553
X53209Y33002
X53524Y33002
X53839Y33002
X54154Y33002
X54469Y33002
X54783Y33002
X55098Y33002
X55413Y33002
X55571Y27726
X55571Y21624
X55571Y30167
X55571Y29852
X55571Y29537
X55571Y29222
X55571Y28907
X55571Y28593
X55571Y28041
X55571Y27411
X55571Y27096
X55571Y26781
X55571Y26467
X55571Y26152
X55571Y25837
X55571Y25522
X55571Y25207
X55571Y24892
X55571Y24577
X55571Y24262
X55571Y23947
X55571Y23632
X55571Y23317
X56299Y24301
X56299Y23986
X56299Y23671
X56299Y23356
X56299Y23041
X56299Y22726
X56299Y22411
X56329Y30380
X56329Y29986
X56329Y26030
X56329Y25636
X56614Y24301
X60276Y12077
X60276Y11683
X62008Y32923
X62008Y32451
X62008Y31978
X62008Y31506
X62008Y28573
X62008Y28100
X62008Y27628
X62008Y27156
T3
X8955Y20383
X9270Y21072
X9585Y20383
X9900Y21072
X10215Y20383
X56929Y20679
X57402Y20679
X59764Y24222
X60630Y20679
T4
X10337Y22517
X10390Y26149
X10390Y24921
X10390Y23692
X11837Y22517
X12319Y26149
X12319Y24921
X12319Y23692
T5
X37037Y27138
X38022Y27138
X39006Y27138
X39990Y27138
X40974Y27138
T6
X1063Y40906
X1063Y37766
X1063Y34065
X1063Y30118
X1063Y25974
X1063Y22077
X1063Y17766
X1063Y12421
X1063Y8140
X6132Y1476
X10679Y1496
X19370Y1496
X23514Y1476
X28012Y1476
X32195Y1476
X36476Y1486
X40522Y1486
X45167Y1486
X49665Y1486
X53848Y1486
X58130Y1486
X63327Y41033
X63386Y38346
X63386Y34646
X63386Y30699
X63386Y26555
X63386Y22657
X63386Y18346
X63386Y13002
X63386Y8720
T7
X53996Y18159
X53996Y17431
X53996Y15482
X53996Y10738
X60098Y17982
X60098Y15463
X60098Y14715
X60098Y13022
X60098Y10561
T8
X17591Y43802
X17591Y42802
X17591Y40420
X17591Y39420
X18591Y43802
X18591Y42802
X18591Y40420
X18591Y39420
X19591Y43802
X19591Y42802
X19591Y40420
X19591Y39420
X20591Y43802
X20591Y42802
X20591Y40420
X20591Y39420
X21591Y43802
X21591Y42802
X21591Y40420
X21591Y39420
X22591Y43802
X22591Y42802
X22591Y40420
X22591Y39420
X23591Y43802
X23591Y42802
X23591Y40420
X23591Y39420
X24591Y43802
X24591Y42802
X24591Y40420
X24591Y39420
X30879Y43802
X30879Y42802
X30879Y40420
X30879Y39420
X31879Y43802
X31879Y42802
X31879Y40420
X31879Y39420
X32879Y43802
X32879Y42802
X32879Y40420
X32879Y39420
X33879Y43802
X33879Y42802
X33879Y40420
X33879Y39420
X34879Y43802
X34879Y42802
X34879Y40420
X34879Y39420
X35879Y43802
X35879Y42802
X35879Y40420
X35879Y39420
X36879Y43802
X36879Y42802
X36879Y40420
X36879Y39420
X37879Y43802
X37879Y42802
X37879Y40420
X37879Y39420
X38879Y43802
X38879Y42802
X38879Y40420
X38879Y39420
X39879Y43802
X39879Y42802
X39879Y40420
X39879Y39420
X40879Y43802
X40879Y42802
X40879Y40420
X40879Y39420
X41879Y43802
X41879Y42802
X41879Y40420
X41879Y39420
X42879Y43802
X42879Y42802
X42879Y40420
X42879Y39420
X43879Y43802
X43879Y42802
X43879Y40420
X43879Y39420
X44879Y43802
X44879Y42802
X44879Y40420
X44879Y39420
X45879Y43802
X45879Y42802
X45879Y40420
X45879Y39420
X46879Y43802
X46879Y42802
X46879Y40420
X46879Y39420
X47879Y43802
X47879Y42802
X47879Y40420
X47879Y39420
X48879Y43802
X48879Y42802
X48879Y40420
X48879Y39420
T9
X8150Y41519
X9902Y42621
X9902Y39420
X11044Y41704
X12225Y42621
X12225Y39420
X13367Y41704
X14509Y42621
X14509Y39420
X51989Y42621
X51989Y39420
X53131Y41704
X54272Y42621
X54272Y39420
X56103Y41519
T10
X7186Y44590
X27737Y44590
X57068Y44590
T3
X8148Y20984G85X8148Y20472
G05
X11022Y20984G85X11022Y20472
G05
M30
