G04 #@! TF.GenerationSoftware,KiCad,Pcbnew,8.0.9-8.0.9-0~ubuntu24.04.1*
G04 #@! TF.CreationDate,2025-11-28T03:05:08+00:00*
G04 #@! TF.ProjectId,greenenergyecu,67726565-6e65-46e6-9572-67796563752e,rev?*
G04 #@! TF.SameCoordinates,Original*
G04 #@! TF.FileFunction,Copper,L1,Top*
G04 #@! TF.FilePolarity,Positive*
%FSLAX46Y46*%
G04 Gerber Fmt 4.6, Leading zero omitted, Abs format (unit mm)*
G04 Created by KiCad (PCBNEW 8.0.9-8.0.9-0~ubuntu24.04.1) date 2025-11-28 03:05:08*
%MOMM*%
%LPD*%
G01*
G04 APERTURE LIST*
G04 #@! TA.AperFunction,ComponentPad*
%ADD10C,0.700000*%
G04 #@! TD*
G04 #@! TA.AperFunction,SMDPad,CuDef*
%ADD11C,3.000000*%
G04 #@! TD*
G04 #@! TA.AperFunction,SMDPad,CuDef*
%ADD12R,0.250000X3.000000*%
G04 #@! TD*
G04 #@! TA.AperFunction,SMDPad,CuDef*
%ADD13R,0.250000X1.100000*%
G04 #@! TD*
G04 #@! TA.AperFunction,SMDPad,CuDef*
%ADD14R,0.250000X0.980000*%
G04 #@! TD*
G04 #@! TA.AperFunction,SMDPad,CuDef*
%ADD15R,0.250000X1.450000*%
G04 #@! TD*
G04 #@! TA.AperFunction,SMDPad,CuDef*
%ADD16R,27.600000X0.250000*%
G04 #@! TD*
G04 #@! TA.AperFunction,SMDPad,CuDef*
%ADD17R,0.250000X1.950000*%
G04 #@! TD*
G04 #@! TA.AperFunction,SMDPad,CuDef*
%ADD18R,0.250000X0.950000*%
G04 #@! TD*
G04 #@! TA.AperFunction,ComponentPad*
%ADD19C,0.600000*%
G04 #@! TD*
G04 #@! TA.AperFunction,SMDPad,CuDef*
%ADD20O,0.200000X1.225000*%
G04 #@! TD*
G04 #@! TA.AperFunction,SMDPad,CuDef*
%ADD21O,9.300000X0.200000*%
G04 #@! TD*
G04 APERTURE END LIST*
D10*
G04 #@! TO.P,REF\u002A\u002A,E1*
G04 #@! TO.N,N/C*
X31150000Y-15850000D03*
G04 #@! TO.P,REF\u002A\u002A,E2*
X31150000Y-12850000D03*
G04 #@! TO.P,REF\u002A\u002A,E3*
X31150000Y-13850000D03*
G04 #@! TO.P,REF\u002A\u002A,E4*
X31150000Y-14850000D03*
D11*
G04 #@! TO.P,REF\u002A\u002A,E5*
X29900000Y-10700000D03*
D12*
G04 #@! TO.P,REF\u002A\u002A,E6*
X31525000Y-7200000D03*
D13*
G04 #@! TO.P,REF\u002A\u002A,G*
X4175000Y-4000000D03*
D14*
X4175000Y-8340000D03*
X4175000Y-11640000D03*
D15*
X4175000Y-16725000D03*
D16*
X17850000Y-3575000D03*
X17850000Y-17325000D03*
D17*
X31525000Y-4425000D03*
D18*
X31525000Y-16975000D03*
G04 #@! TO.P,REF\u002A\u002A,J1*
G04 #@! TA.AperFunction,SMDPad,CuDef*
G36*
G01*
X13600000Y-4600000D02*
X13600000Y-5850000D01*
G75*
G02*
X13475000Y-5975000I-125000J0D01*
G01*
X13225000Y-5975000D01*
G75*
G02*
X13100000Y-5850000I0J125000D01*
G01*
X13100000Y-4600000D01*
G75*
G02*
X13225000Y-4475000I125000J0D01*
G01*
X13475000Y-4475000D01*
G75*
G02*
X13600000Y-4600000I0J-125000D01*
G01*
G37*
G04 #@! TD.AperFunction*
G04 #@! TO.P,REF\u002A\u002A,J2*
G04 #@! TA.AperFunction,SMDPad,CuDef*
G36*
G01*
X11925000Y-7275000D02*
X11925000Y-7525000D01*
G75*
G02*
X11800000Y-7650000I-125000J0D01*
G01*
X10550000Y-7650000D01*
G75*
G02*
X10425000Y-7525000I0J125000D01*
G01*
X10425000Y-7275000D01*
G75*
G02*
X10550000Y-7150000I125000J0D01*
G01*
X11800000Y-7150000D01*
G75*
G02*
X11925000Y-7275000I0J-125000D01*
G01*
G37*
G04 #@! TD.AperFunction*
G04 #@! TO.P,REF\u002A\u002A,J_GND1*
G04 #@! TA.AperFunction,SMDPad,CuDef*
G36*
G01*
X12800000Y-4600000D02*
X12800000Y-5850000D01*
G75*
G02*
X12675000Y-5975000I-125000J0D01*
G01*
X12425000Y-5975000D01*
G75*
G02*
X12300000Y-5850000I0J125000D01*
G01*
X12300000Y-4600000D01*
G75*
G02*
X12425000Y-4475000I125000J0D01*
G01*
X12675000Y-4475000D01*
G75*
G02*
X12800000Y-4600000I0J-125000D01*
G01*
G37*
G04 #@! TD.AperFunction*
G04 #@! TO.P,REF\u002A\u002A,J_GND2*
G04 #@! TA.AperFunction,SMDPad,CuDef*
G36*
G01*
X12475000Y-7150000D02*
X12725000Y-7150000D01*
G75*
G02*
X12850000Y-7275000I0J-125000D01*
G01*
X12850000Y-7525000D01*
G75*
G02*
X12725000Y-7650000I-125000J0D01*
G01*
X12475000Y-7650000D01*
G75*
G02*
X12350000Y-7525000I0J125000D01*
G01*
X12350000Y-7275000D01*
G75*
G02*
X12475000Y-7150000I125000J0D01*
G01*
G37*
G04 #@! TD.AperFunction*
G04 #@! TO.P,REF\u002A\u002A,J_VCC1*
G04 #@! TA.AperFunction,SMDPad,CuDef*
G36*
G01*
X13600000Y-6475000D02*
X13600000Y-6725000D01*
G75*
G02*
X13475000Y-6850000I-125000J0D01*
G01*
X13225000Y-6850000D01*
G75*
G02*
X13100000Y-6725000I0J125000D01*
G01*
X13100000Y-6475000D01*
G75*
G02*
X13225000Y-6350000I125000J0D01*
G01*
X13475000Y-6350000D01*
G75*
G02*
X13600000Y-6475000I0J-125000D01*
G01*
G37*
G04 #@! TD.AperFunction*
G04 #@! TO.P,REF\u002A\u002A,J_VCC2*
G04 #@! TA.AperFunction,SMDPad,CuDef*
G36*
G01*
X11925000Y-6475000D02*
X11925000Y-6725000D01*
G75*
G02*
X11800000Y-6850000I-125000J0D01*
G01*
X10550000Y-6850000D01*
G75*
G02*
X10425000Y-6725000I0J125000D01*
G01*
X10425000Y-6475000D01*
G75*
G02*
X10550000Y-6350000I125000J0D01*
G01*
X11800000Y-6350000D01*
G75*
G02*
X11925000Y-6475000I0J-125000D01*
G01*
G37*
G04 #@! TD.AperFunction*
D10*
G04 #@! TO.P,REF\u002A\u002A,W1*
X4558800Y-6200000D03*
G04 #@! TO.P,REF\u002A\u002A,W2*
X4558800Y-7200000D03*
G04 #@! TO.P,REF\u002A\u002A,W3*
X4558800Y-10496000D03*
G04 #@! TO.P,REF\u002A\u002A,W4*
X4558800Y-9480000D03*
G04 #@! TO.P,REF\u002A\u002A,W5*
G04 #@! TA.AperFunction,SMDPad,CuDef*
G36*
G01*
X4050000Y-12500000D02*
X4050000Y-12500000D01*
G75*
G02*
X4175000Y-12375000I125000J0D01*
G01*
X4425000Y-12375000D01*
G75*
G02*
X4550000Y-12500000I0J-125000D01*
G01*
X4550000Y-12500000D01*
G75*
G02*
X4425000Y-12625000I-125000J0D01*
G01*
X4175000Y-12625000D01*
G75*
G02*
X4050000Y-12500000I0J125000D01*
G01*
G37*
G04 #@! TD.AperFunction*
G04 #@! TO.P,REF\u002A\u002A,W6*
G04 #@! TA.AperFunction,SMDPad,CuDef*
G36*
G01*
X4050000Y-13000000D02*
X4050000Y-13000000D01*
G75*
G02*
X4175000Y-12875000I125000J0D01*
G01*
X4425000Y-12875000D01*
G75*
G02*
X4550000Y-13000000I0J-125000D01*
G01*
X4550000Y-13000000D01*
G75*
G02*
X4425000Y-13125000I-125000J0D01*
G01*
X4175000Y-13125000D01*
G75*
G02*
X4050000Y-13000000I0J125000D01*
G01*
G37*
G04 #@! TD.AperFunction*
G04 #@! TO.P,REF\u002A\u002A,W7*
G04 #@! TA.AperFunction,SMDPad,CuDef*
G36*
G01*
X4050000Y-13500000D02*
X4050000Y-13500000D01*
G75*
G02*
X4175000Y-13375000I125000J0D01*
G01*
X4425000Y-13375000D01*
G75*
G02*
X4550000Y-13500000I0J-125000D01*
G01*
X4550000Y-13500000D01*
G75*
G02*
X4425000Y-13625000I-125000J0D01*
G01*
X4175000Y-13625000D01*
G75*
G02*
X4050000Y-13500000I0J125000D01*
G01*
G37*
G04 #@! TD.AperFunction*
G04 #@! TO.P,REF\u002A\u002A,W8*
G04 #@! TA.AperFunction,SMDPad,CuDef*
G36*
G01*
X4050000Y-15600000D02*
X4050000Y-15600000D01*
G75*
G02*
X4175000Y-15475000I125000J0D01*
G01*
X4425000Y-15475000D01*
G75*
G02*
X4550000Y-15600000I0J-125000D01*
G01*
X4550000Y-15600000D01*
G75*
G02*
X4425000Y-15725000I-125000J0D01*
G01*
X4175000Y-15725000D01*
G75*
G02*
X4050000Y-15600000I0J125000D01*
G01*
G37*
G04 #@! TD.AperFunction*
G04 #@! TO.P,REF\u002A\u002A,W9*
X4558800Y-5200000D03*
G04 #@! TD*
D19*
G04 #@! TO.P,M1,E1,V5A*
G04 #@! TO.N,unconnected-(M1-V5A-PadE1)*
X9500000Y-19100002D03*
D20*
G04 #@! TO.P,M1,E2,GND*
G04 #@! TO.N,unconnected-(M1-GND-PadE2)*
X600000Y-21075002D03*
D21*
X5150000Y-18500002D03*
X5150000Y-21600002D03*
D19*
X9500000Y-20050002D03*
G04 #@! TO.P,M1,E3,OUT_KNOCK*
G04 #@! TO.N,unconnected-(M1-OUT_KNOCK-PadE3)*
X9500000Y-21000000D03*
G04 #@! TO.P,M1,W1,IN_KNOCK*
G04 #@! TO.N,unconnected-(M1-IN_KNOCK-PadW1)*
X800000Y-20000002D03*
G04 #@! TO.P,M1,W2,VREF*
G04 #@! TO.N,unconnected-(M1-VREF-PadW2)*
X800000Y-19100002D03*
G04 #@! TD*
M02*
