G04 #@! TF.GenerationSoftware,KiCad,Pcbnew,8.0.9-8.0.9-0~ubuntu24.04.1*
G04 #@! TF.CreationDate,2025-12-21T15:30:04+00:00*
G04 #@! TF.ProjectId,greenenergyecu,67726565-6e65-46e6-9572-67796563752e,d*
G04 #@! TF.SameCoordinates,PX240c840PY700e860*
G04 #@! TF.FileFunction,Legend,Bot*
G04 #@! TF.FilePolarity,Positive*
%FSLAX46Y46*%
G04 Gerber Fmt 4.6, Leading zero omitted, Abs format (unit mm)*
G04 Created by KiCad (PCBNEW 8.0.9-8.0.9-0~ubuntu24.04.1) date 2025-12-21 15:30:04*
%MOMM*%
%LPD*%
G01*
G04 APERTURE LIST*
%ADD10C,0.127000*%
%ADD11C,0.200000*%
%ADD12C,0.120000*%
%ADD13C,0.100000*%
%ADD14C,0.099060*%
G04 APERTURE END LIST*
D10*
X32686768Y70677733D02*
X32686768Y70931733D01*
X33085911Y70931733D02*
X32323911Y70931733D01*
X32323911Y70931733D02*
X32323911Y70568876D01*
X32396483Y70314876D02*
X32360197Y70278590D01*
X32360197Y70278590D02*
X32323911Y70206018D01*
X32323911Y70206018D02*
X32323911Y70024590D01*
X32323911Y70024590D02*
X32360197Y69952018D01*
X32360197Y69952018D02*
X32396483Y69915733D01*
X32396483Y69915733D02*
X32469054Y69879447D01*
X32469054Y69879447D02*
X32541626Y69879447D01*
X32541626Y69879447D02*
X32650483Y69915733D01*
X32650483Y69915733D02*
X33085911Y70351161D01*
X33085911Y70351161D02*
X33085911Y69879447D01*
X32686768Y73797733D02*
X32686768Y74051733D01*
X33085911Y74051733D02*
X32323911Y74051733D01*
X32323911Y74051733D02*
X32323911Y73688876D01*
X33085911Y72999447D02*
X33085911Y73434876D01*
X33085911Y73217161D02*
X32323911Y73217161D01*
X32323911Y73217161D02*
X32432768Y73289733D01*
X32432768Y73289733D02*
X32505340Y73362304D01*
X32505340Y73362304D02*
X32541626Y73434876D01*
X32686768Y67557733D02*
X32686768Y67811733D01*
X33085911Y67811733D02*
X32323911Y67811733D01*
X32323911Y67811733D02*
X32323911Y67448876D01*
X32323911Y67231161D02*
X32323911Y66759447D01*
X32323911Y66759447D02*
X32614197Y67013447D01*
X32614197Y67013447D02*
X32614197Y66904590D01*
X32614197Y66904590D02*
X32650483Y66832018D01*
X32650483Y66832018D02*
X32686768Y66795733D01*
X32686768Y66795733D02*
X32759340Y66759447D01*
X32759340Y66759447D02*
X32940768Y66759447D01*
X32940768Y66759447D02*
X33013340Y66795733D01*
X33013340Y66795733D02*
X33049626Y66832018D01*
X33049626Y66832018D02*
X33085911Y66904590D01*
X33085911Y66904590D02*
X33085911Y67122304D01*
X33085911Y67122304D02*
X33049626Y67194876D01*
X33049626Y67194876D02*
X33013340Y67231161D01*
X32906302Y64445342D02*
X32543445Y64699342D01*
X32906302Y64880771D02*
X32144302Y64880771D01*
X32144302Y64880771D02*
X32144302Y64590485D01*
X32144302Y64590485D02*
X32180588Y64517914D01*
X32180588Y64517914D02*
X32216874Y64481628D01*
X32216874Y64481628D02*
X32289445Y64445342D01*
X32289445Y64445342D02*
X32398302Y64445342D01*
X32398302Y64445342D02*
X32470874Y64481628D01*
X32470874Y64481628D02*
X32507159Y64517914D01*
X32507159Y64517914D02*
X32543445Y64590485D01*
X32543445Y64590485D02*
X32543445Y64880771D01*
X32398302Y63792199D02*
X32906302Y63792199D01*
X32108017Y63973628D02*
X32652302Y64155057D01*
X32652302Y64155057D02*
X32652302Y63683342D01*
D11*
G04 #@! TO.C,M7*
X115450000Y38511153D02*
X126625000Y38550000D01*
X115450000Y32813331D02*
X115450000Y38511153D01*
X115450000Y32813331D02*
X115725004Y32538325D01*
X115725004Y31713326D02*
X115725004Y32538325D01*
X115725004Y31713326D02*
X115781206Y31663326D01*
X115781206Y31663326D02*
X126625000Y31663326D01*
X126625000Y31657123D02*
X126625000Y38550000D01*
D12*
G04 #@! TO.C,F2*
X39140000Y71423733D02*
X34290000Y71423733D01*
X39140000Y69423733D02*
X34290000Y69423733D01*
X34290000Y69423733D02*
G75*
G02*
X34290000Y71423733I0J1000000D01*
G01*
X39190000Y71423733D02*
G75*
G02*
X39190000Y69423733I0J-1000000D01*
G01*
G04 #@! TO.C,F1*
X39140000Y74543733D02*
X34290000Y74543733D01*
X39140000Y72543733D02*
X34290000Y72543733D01*
X34290000Y72543733D02*
G75*
G02*
X34290000Y74543733I0J1000000D01*
G01*
X39190000Y74543733D02*
G75*
G02*
X39190000Y72543733I0J-1000000D01*
G01*
G04 #@! TO.C,M5*
D11*
X142950003Y53900000D02*
X115450003Y53900000D01*
X115450003Y40000000D01*
X142950003Y40000000D01*
X142950003Y53900000D01*
G04 #@! TO.C,M3*
X150700003Y91150000D02*
X150700003Y84750000D01*
X150700003Y81550000D02*
X150700003Y82850000D01*
X150700003Y81550000D02*
X165700003Y81550000D01*
X165100003Y91150000D02*
X150700003Y91150000D01*
X165700003Y81550000D02*
X165700003Y86650000D01*
G04 #@! TO.C,M8*
D13*
X164350003Y69100000D02*
X150650003Y69100000D01*
X150650003Y59200000D01*
X164350003Y59200000D01*
X164350003Y69100000D01*
D11*
G04 #@! TO.C,M6*
X115450003Y91149980D02*
X149250013Y91149980D01*
X115450003Y55349990D02*
X115450003Y91149980D01*
X115450003Y55349990D02*
X149250013Y55349990D01*
X149250013Y55349990D02*
X149250013Y91149980D01*
D12*
G04 #@! TO.C,F3*
X39140000Y68303733D02*
X34290000Y68303733D01*
X39140000Y66303733D02*
X34290000Y66303733D01*
X34290000Y66303733D02*
G75*
G02*
X34290000Y68303733I0J1000000D01*
G01*
X39190000Y68303733D02*
G75*
G02*
X39190000Y66303733I0J-1000000D01*
G01*
D11*
G04 #@! TO.C,M4*
X150700003Y80100000D02*
X150700003Y73700000D01*
X150700003Y70500000D02*
X150700003Y71800000D01*
X150700003Y70500000D02*
X165700003Y70500000D01*
X165100003Y80100000D02*
X150700003Y80100000D01*
X165700003Y70500000D02*
X165700003Y75600000D01*
D14*
G04 #@! TO.C,R4*
X34536391Y63518342D02*
X35552391Y63518342D01*
X35552391Y65118342D02*
X34536391Y65118342D01*
X36568391Y63518342D02*
X37584391Y63518342D01*
X37584391Y65118342D02*
X36568391Y65118342D01*
D12*
X34481391Y63516704D02*
G75*
G02*
X34485391Y65118342I-326000J801638D01*
G01*
X37635391Y65118342D02*
G75*
G02*
X37643993Y63514847I330000J-800000D01*
G01*
D11*
G04 #@! TO.C,M2*
X128070003Y38550000D02*
X137170003Y38550000D01*
X128070003Y35449997D02*
X128070003Y36449999D01*
X128070003Y35449997D02*
X137170003Y35449997D01*
G04 #@! TO.C,M1*
X144400003Y47299998D02*
X144400003Y50500001D01*
X144400003Y35199998D02*
X144400003Y45600000D01*
X144400003Y33299998D02*
X144400003Y33599998D01*
X144400003Y33299998D02*
X159800003Y33299998D01*
X145900003Y53899996D02*
X161200002Y53899998D01*
X161200000Y47200000D02*
X161200000Y52000000D01*
X161200000Y40999998D02*
X161200000Y43699998D01*
X161200000Y38300000D02*
X161200000Y39400003D01*
X161200000Y34749998D02*
X161200005Y36299998D01*
X161200002Y53600000D02*
X161200002Y53899998D01*
G04 #@! TD*
M02*
