G04 #@! TF.GenerationSoftware,KiCad,Pcbnew,8.0.8*
G04 #@! TF.CreationDate,2025-12-20T22:28:28-05:00*
G04 #@! TF.ProjectId,greenenergyecu,67726565-6e65-46e6-9572-67796563752e,d*
G04 #@! TF.SameCoordinates,PX2b953a0PY6943058*
G04 #@! TF.FileFunction,Legend,Top*
G04 #@! TF.FilePolarity,Positive*
%FSLAX46Y46*%
G04 Gerber Fmt 4.6, Leading zero omitted, Abs format (unit mm)*
G04 Created by KiCad (PCBNEW 8.0.8) date 2025-12-20 22:28:28*
%MOMM*%
%LPD*%
G01*
G04 APERTURE LIST*
%ADD10C,0.170000*%
%ADD11C,0.150000*%
%ADD12C,0.127000*%
%ADD13C,0.200000*%
%ADD14C,0.120000*%
%ADD15C,0.099060*%
%ADD16C,0.203200*%
%ADD17C,0.100000*%
%ADD18C,3.700000*%
%ADD19C,2.200000*%
%ADD20C,2.600000*%
%ADD21C,1.500000*%
G04 APERTURE END LIST*
D10*
X100461978Y52963153D02*
X100188644Y53353629D01*
X99993406Y52963153D02*
X99993406Y53783154D01*
X99993406Y53783154D02*
X100305787Y53783154D01*
X100305787Y53783154D02*
X100383883Y53744106D01*
X100383883Y53744106D02*
X100422930Y53705058D01*
X100422930Y53705058D02*
X100461978Y53626963D01*
X100461978Y53626963D02*
X100461978Y53509820D01*
X100461978Y53509820D02*
X100422930Y53431725D01*
X100422930Y53431725D02*
X100383883Y53392677D01*
X100383883Y53392677D02*
X100305787Y53353629D01*
X100305787Y53353629D02*
X99993406Y53353629D01*
X101242931Y52963153D02*
X100774359Y52963153D01*
X101008645Y52963153D02*
X101008645Y53783154D01*
X101008645Y53783154D02*
X100930550Y53666011D01*
X100930550Y53666011D02*
X100852455Y53587915D01*
X100852455Y53587915D02*
X100774359Y53548868D01*
X101555312Y53705058D02*
X101594360Y53744106D01*
X101594360Y53744106D02*
X101672455Y53783154D01*
X101672455Y53783154D02*
X101867694Y53783154D01*
X101867694Y53783154D02*
X101945789Y53744106D01*
X101945789Y53744106D02*
X101984837Y53705058D01*
X101984837Y53705058D02*
X102023884Y53626963D01*
X102023884Y53626963D02*
X102023884Y53548868D01*
X102023884Y53548868D02*
X101984837Y53431725D01*
X101984837Y53431725D02*
X101516265Y52963153D01*
X101516265Y52963153D02*
X102023884Y52963153D01*
D11*
X38754819Y76995834D02*
X38754819Y76519644D01*
X38754819Y76519644D02*
X37754819Y76519644D01*
X37850057Y77281549D02*
X37802438Y77329168D01*
X37802438Y77329168D02*
X37754819Y77424406D01*
X37754819Y77424406D02*
X37754819Y77662501D01*
X37754819Y77662501D02*
X37802438Y77757739D01*
X37802438Y77757739D02*
X37850057Y77805358D01*
X37850057Y77805358D02*
X37945295Y77852977D01*
X37945295Y77852977D02*
X38040533Y77852977D01*
X38040533Y77852977D02*
X38183390Y77805358D01*
X38183390Y77805358D02*
X38754819Y77233930D01*
X38754819Y77233930D02*
X38754819Y77852977D01*
X15063095Y53725181D02*
X15063095Y52915658D01*
X15063095Y52915658D02*
X15110714Y52820420D01*
X15110714Y52820420D02*
X15158333Y52772800D01*
X15158333Y52772800D02*
X15253571Y52725181D01*
X15253571Y52725181D02*
X15444047Y52725181D01*
X15444047Y52725181D02*
X15539285Y52772800D01*
X15539285Y52772800D02*
X15586904Y52820420D01*
X15586904Y52820420D02*
X15634523Y52915658D01*
X15634523Y52915658D02*
X15634523Y53725181D01*
X16063095Y53629943D02*
X16110714Y53677562D01*
X16110714Y53677562D02*
X16205952Y53725181D01*
X16205952Y53725181D02*
X16444047Y53725181D01*
X16444047Y53725181D02*
X16539285Y53677562D01*
X16539285Y53677562D02*
X16586904Y53629943D01*
X16586904Y53629943D02*
X16634523Y53534705D01*
X16634523Y53534705D02*
X16634523Y53439467D01*
X16634523Y53439467D02*
X16586904Y53296610D01*
X16586904Y53296610D02*
X16015476Y52725181D01*
X16015476Y52725181D02*
X16634523Y52725181D01*
X80130057Y70344762D02*
X80082438Y70249524D01*
X80082438Y70249524D02*
X79987200Y70154286D01*
X79987200Y70154286D02*
X79844342Y70011429D01*
X79844342Y70011429D02*
X79796723Y69916191D01*
X79796723Y69916191D02*
X79796723Y69820953D01*
X80034819Y69868572D02*
X79987200Y69773334D01*
X79987200Y69773334D02*
X79891961Y69678096D01*
X79891961Y69678096D02*
X79701485Y69630477D01*
X79701485Y69630477D02*
X79368152Y69630477D01*
X79368152Y69630477D02*
X79177676Y69678096D01*
X79177676Y69678096D02*
X79082438Y69773334D01*
X79082438Y69773334D02*
X79034819Y69868572D01*
X79034819Y69868572D02*
X79034819Y70059048D01*
X79034819Y70059048D02*
X79082438Y70154286D01*
X79082438Y70154286D02*
X79177676Y70249524D01*
X79177676Y70249524D02*
X79368152Y70297143D01*
X79368152Y70297143D02*
X79701485Y70297143D01*
X79701485Y70297143D02*
X79891961Y70249524D01*
X79891961Y70249524D02*
X79987200Y70154286D01*
X79987200Y70154286D02*
X80034819Y70059048D01*
X80034819Y70059048D02*
X80034819Y69868572D01*
X80034819Y71249524D02*
X80034819Y70678096D01*
X80034819Y70963810D02*
X79034819Y70963810D01*
X79034819Y70963810D02*
X79177676Y70868572D01*
X79177676Y70868572D02*
X79272914Y70773334D01*
X79272914Y70773334D02*
X79320533Y70678096D01*
X23721666Y59958991D02*
X23388333Y59958991D01*
X23388333Y59435181D02*
X23388333Y60435181D01*
X23388333Y60435181D02*
X23864523Y60435181D01*
X24674047Y60101848D02*
X24674047Y59435181D01*
X24435952Y60482800D02*
X24197857Y59768515D01*
X24197857Y59768515D02*
X24816904Y59768515D01*
X55545057Y70344762D02*
X55497438Y70249524D01*
X55497438Y70249524D02*
X55402200Y70154286D01*
X55402200Y70154286D02*
X55259342Y70011429D01*
X55259342Y70011429D02*
X55211723Y69916191D01*
X55211723Y69916191D02*
X55211723Y69820953D01*
X55449819Y69868572D02*
X55402200Y69773334D01*
X55402200Y69773334D02*
X55306961Y69678096D01*
X55306961Y69678096D02*
X55116485Y69630477D01*
X55116485Y69630477D02*
X54783152Y69630477D01*
X54783152Y69630477D02*
X54592676Y69678096D01*
X54592676Y69678096D02*
X54497438Y69773334D01*
X54497438Y69773334D02*
X54449819Y69868572D01*
X54449819Y69868572D02*
X54449819Y70059048D01*
X54449819Y70059048D02*
X54497438Y70154286D01*
X54497438Y70154286D02*
X54592676Y70249524D01*
X54592676Y70249524D02*
X54783152Y70297143D01*
X54783152Y70297143D02*
X55116485Y70297143D01*
X55116485Y70297143D02*
X55306961Y70249524D01*
X55306961Y70249524D02*
X55402200Y70154286D01*
X55402200Y70154286D02*
X55449819Y70059048D01*
X55449819Y70059048D02*
X55449819Y69868572D01*
X54783152Y71154286D02*
X55449819Y71154286D01*
X54402200Y70916191D02*
X55116485Y70678096D01*
X55116485Y70678096D02*
X55116485Y71297143D01*
D10*
X37575652Y71802418D02*
X37536604Y71763370D01*
X37536604Y71763370D02*
X37419461Y71724323D01*
X37419461Y71724323D02*
X37341366Y71724323D01*
X37341366Y71724323D02*
X37224223Y71763370D01*
X37224223Y71763370D02*
X37146128Y71841466D01*
X37146128Y71841466D02*
X37107080Y71919561D01*
X37107080Y71919561D02*
X37068032Y72075752D01*
X37068032Y72075752D02*
X37068032Y72192895D01*
X37068032Y72192895D02*
X37107080Y72349085D01*
X37107080Y72349085D02*
X37146128Y72427181D01*
X37146128Y72427181D02*
X37224223Y72505276D01*
X37224223Y72505276D02*
X37341366Y72544324D01*
X37341366Y72544324D02*
X37419461Y72544324D01*
X37419461Y72544324D02*
X37536604Y72505276D01*
X37536604Y72505276D02*
X37575652Y72466228D01*
X37888033Y72466228D02*
X37927081Y72505276D01*
X37927081Y72505276D02*
X38005176Y72544324D01*
X38005176Y72544324D02*
X38200415Y72544324D01*
X38200415Y72544324D02*
X38278510Y72505276D01*
X38278510Y72505276D02*
X38317558Y72466228D01*
X38317558Y72466228D02*
X38356605Y72388133D01*
X38356605Y72388133D02*
X38356605Y72310038D01*
X38356605Y72310038D02*
X38317558Y72192895D01*
X38317558Y72192895D02*
X37848986Y71724323D01*
X37848986Y71724323D02*
X38356605Y71724323D01*
X38825177Y72192895D02*
X38747082Y72231942D01*
X38747082Y72231942D02*
X38708034Y72270990D01*
X38708034Y72270990D02*
X38668986Y72349085D01*
X38668986Y72349085D02*
X38668986Y72388133D01*
X38668986Y72388133D02*
X38708034Y72466228D01*
X38708034Y72466228D02*
X38747082Y72505276D01*
X38747082Y72505276D02*
X38825177Y72544324D01*
X38825177Y72544324D02*
X38981368Y72544324D01*
X38981368Y72544324D02*
X39059463Y72505276D01*
X39059463Y72505276D02*
X39098511Y72466228D01*
X39098511Y72466228D02*
X39137558Y72388133D01*
X39137558Y72388133D02*
X39137558Y72349085D01*
X39137558Y72349085D02*
X39098511Y72270990D01*
X39098511Y72270990D02*
X39059463Y72231942D01*
X39059463Y72231942D02*
X38981368Y72192895D01*
X38981368Y72192895D02*
X38825177Y72192895D01*
X38825177Y72192895D02*
X38747082Y72153847D01*
X38747082Y72153847D02*
X38708034Y72114799D01*
X38708034Y72114799D02*
X38668986Y72036704D01*
X38668986Y72036704D02*
X38668986Y71880513D01*
X38668986Y71880513D02*
X38708034Y71802418D01*
X38708034Y71802418D02*
X38747082Y71763370D01*
X38747082Y71763370D02*
X38825177Y71724323D01*
X38825177Y71724323D02*
X38981368Y71724323D01*
X38981368Y71724323D02*
X39059463Y71763370D01*
X39059463Y71763370D02*
X39098511Y71802418D01*
X39098511Y71802418D02*
X39137558Y71880513D01*
X39137558Y71880513D02*
X39137558Y72036704D01*
X39137558Y72036704D02*
X39098511Y72114799D01*
X39098511Y72114799D02*
X39059463Y72153847D01*
X39059463Y72153847D02*
X38981368Y72192895D01*
D11*
X44449819Y58113096D02*
X45259342Y58113096D01*
X45259342Y58113096D02*
X45354580Y58160715D01*
X45354580Y58160715D02*
X45402200Y58208334D01*
X45402200Y58208334D02*
X45449819Y58303572D01*
X45449819Y58303572D02*
X45449819Y58494048D01*
X45449819Y58494048D02*
X45402200Y58589286D01*
X45402200Y58589286D02*
X45354580Y58636905D01*
X45354580Y58636905D02*
X45259342Y58684524D01*
X45259342Y58684524D02*
X44449819Y58684524D01*
X44449819Y59065477D02*
X44449819Y59732143D01*
X44449819Y59732143D02*
X45449819Y59303572D01*
X118183258Y71780573D02*
X118183258Y71180573D01*
X118183258Y71180573D02*
X117983258Y71609144D01*
X117983258Y71609144D02*
X117783258Y71180573D01*
X117783258Y71180573D02*
X117783258Y71780573D01*
X117526116Y71237716D02*
X117497544Y71209144D01*
X117497544Y71209144D02*
X117440402Y71180573D01*
X117440402Y71180573D02*
X117297544Y71180573D01*
X117297544Y71180573D02*
X117240402Y71209144D01*
X117240402Y71209144D02*
X117211830Y71237716D01*
X117211830Y71237716D02*
X117183259Y71294859D01*
X117183259Y71294859D02*
X117183259Y71352001D01*
X117183259Y71352001D02*
X117211830Y71437716D01*
X117211830Y71437716D02*
X117554687Y71780573D01*
X117554687Y71780573D02*
X117183259Y71780573D01*
X139254819Y84976906D02*
X140064342Y84976906D01*
X140064342Y84976906D02*
X140159580Y85024525D01*
X140159580Y85024525D02*
X140207200Y85072144D01*
X140207200Y85072144D02*
X140254819Y85167382D01*
X140254819Y85167382D02*
X140254819Y85357858D01*
X140254819Y85357858D02*
X140207200Y85453096D01*
X140207200Y85453096D02*
X140159580Y85500715D01*
X140159580Y85500715D02*
X140064342Y85548334D01*
X140064342Y85548334D02*
X139254819Y85548334D01*
X140254819Y86548334D02*
X140254819Y85976906D01*
X140254819Y86262620D02*
X139254819Y86262620D01*
X139254819Y86262620D02*
X139397676Y86167382D01*
X139397676Y86167382D02*
X139492914Y86072144D01*
X139492914Y86072144D02*
X139540533Y85976906D01*
X139254819Y87167382D02*
X139254819Y87262620D01*
X139254819Y87262620D02*
X139302438Y87357858D01*
X139302438Y87357858D02*
X139350057Y87405477D01*
X139350057Y87405477D02*
X139445295Y87453096D01*
X139445295Y87453096D02*
X139635771Y87500715D01*
X139635771Y87500715D02*
X139873866Y87500715D01*
X139873866Y87500715D02*
X140064342Y87453096D01*
X140064342Y87453096D02*
X140159580Y87405477D01*
X140159580Y87405477D02*
X140207200Y87357858D01*
X140207200Y87357858D02*
X140254819Y87262620D01*
X140254819Y87262620D02*
X140254819Y87167382D01*
X140254819Y87167382D02*
X140207200Y87072144D01*
X140207200Y87072144D02*
X140159580Y87024525D01*
X140159580Y87024525D02*
X140064342Y86976906D01*
X140064342Y86976906D02*
X139873866Y86929287D01*
X139873866Y86929287D02*
X139635771Y86929287D01*
X139635771Y86929287D02*
X139445295Y86976906D01*
X139445295Y86976906D02*
X139350057Y87024525D01*
X139350057Y87024525D02*
X139302438Y87072144D01*
X139302438Y87072144D02*
X139254819Y87167382D01*
X43350057Y76279762D02*
X43302438Y76184524D01*
X43302438Y76184524D02*
X43207200Y76089286D01*
X43207200Y76089286D02*
X43064342Y75946429D01*
X43064342Y75946429D02*
X43016723Y75851191D01*
X43016723Y75851191D02*
X43016723Y75755953D01*
X43254819Y75803572D02*
X43207200Y75708334D01*
X43207200Y75708334D02*
X43111961Y75613096D01*
X43111961Y75613096D02*
X42921485Y75565477D01*
X42921485Y75565477D02*
X42588152Y75565477D01*
X42588152Y75565477D02*
X42397676Y75613096D01*
X42397676Y75613096D02*
X42302438Y75708334D01*
X42302438Y75708334D02*
X42254819Y75803572D01*
X42254819Y75803572D02*
X42254819Y75994048D01*
X42254819Y75994048D02*
X42302438Y76089286D01*
X42302438Y76089286D02*
X42397676Y76184524D01*
X42397676Y76184524D02*
X42588152Y76232143D01*
X42588152Y76232143D02*
X42921485Y76232143D01*
X42921485Y76232143D02*
X43111961Y76184524D01*
X43111961Y76184524D02*
X43207200Y76089286D01*
X43207200Y76089286D02*
X43254819Y75994048D01*
X43254819Y75994048D02*
X43254819Y75803572D01*
X42254819Y77089286D02*
X42254819Y76898810D01*
X42254819Y76898810D02*
X42302438Y76803572D01*
X42302438Y76803572D02*
X42350057Y76755953D01*
X42350057Y76755953D02*
X42492914Y76660715D01*
X42492914Y76660715D02*
X42683390Y76613096D01*
X42683390Y76613096D02*
X43064342Y76613096D01*
X43064342Y76613096D02*
X43159580Y76660715D01*
X43159580Y76660715D02*
X43207200Y76708334D01*
X43207200Y76708334D02*
X43254819Y76803572D01*
X43254819Y76803572D02*
X43254819Y76994048D01*
X43254819Y76994048D02*
X43207200Y77089286D01*
X43207200Y77089286D02*
X43159580Y77136905D01*
X43159580Y77136905D02*
X43064342Y77184524D01*
X43064342Y77184524D02*
X42826247Y77184524D01*
X42826247Y77184524D02*
X42731009Y77136905D01*
X42731009Y77136905D02*
X42683390Y77089286D01*
X42683390Y77089286D02*
X42635771Y76994048D01*
X42635771Y76994048D02*
X42635771Y76803572D01*
X42635771Y76803572D02*
X42683390Y76708334D01*
X42683390Y76708334D02*
X42731009Y76660715D01*
X42731009Y76660715D02*
X42826247Y76613096D01*
D10*
X35732466Y62447583D02*
X35771514Y62486630D01*
X35771514Y62486630D02*
X35888657Y62525678D01*
X35888657Y62525678D02*
X35966752Y62525678D01*
X35966752Y62525678D02*
X36083895Y62486630D01*
X36083895Y62486630D02*
X36161991Y62408535D01*
X36161991Y62408535D02*
X36201038Y62330440D01*
X36201038Y62330440D02*
X36240086Y62174249D01*
X36240086Y62174249D02*
X36240086Y62057106D01*
X36240086Y62057106D02*
X36201038Y61900915D01*
X36201038Y61900915D02*
X36161991Y61822820D01*
X36161991Y61822820D02*
X36083895Y61744725D01*
X36083895Y61744725D02*
X35966752Y61705677D01*
X35966752Y61705677D02*
X35888657Y61705677D01*
X35888657Y61705677D02*
X35771514Y61744725D01*
X35771514Y61744725D02*
X35732466Y61783772D01*
X35420085Y61783772D02*
X35381037Y61744725D01*
X35381037Y61744725D02*
X35302942Y61705677D01*
X35302942Y61705677D02*
X35107704Y61705677D01*
X35107704Y61705677D02*
X35029608Y61744725D01*
X35029608Y61744725D02*
X34990561Y61783772D01*
X34990561Y61783772D02*
X34951513Y61861868D01*
X34951513Y61861868D02*
X34951513Y61939963D01*
X34951513Y61939963D02*
X34990561Y62057106D01*
X34990561Y62057106D02*
X35459133Y62525678D01*
X35459133Y62525678D02*
X34951513Y62525678D01*
X34561037Y62525678D02*
X34404846Y62525678D01*
X34404846Y62525678D02*
X34326751Y62486630D01*
X34326751Y62486630D02*
X34287703Y62447583D01*
X34287703Y62447583D02*
X34209608Y62330440D01*
X34209608Y62330440D02*
X34170560Y62174249D01*
X34170560Y62174249D02*
X34170560Y61861868D01*
X34170560Y61861868D02*
X34209608Y61783772D01*
X34209608Y61783772D02*
X34248655Y61744725D01*
X34248655Y61744725D02*
X34326751Y61705677D01*
X34326751Y61705677D02*
X34482941Y61705677D01*
X34482941Y61705677D02*
X34561037Y61744725D01*
X34561037Y61744725D02*
X34600084Y61783772D01*
X34600084Y61783772D02*
X34639132Y61861868D01*
X34639132Y61861868D02*
X34639132Y62057106D01*
X34639132Y62057106D02*
X34600084Y62135201D01*
X34600084Y62135201D02*
X34561037Y62174249D01*
X34561037Y62174249D02*
X34482941Y62213297D01*
X34482941Y62213297D02*
X34326751Y62213297D01*
X34326751Y62213297D02*
X34248655Y62174249D01*
X34248655Y62174249D02*
X34209608Y62135201D01*
X34209608Y62135201D02*
X34170560Y62057106D01*
X35112712Y56150653D02*
X35151760Y56111605D01*
X35151760Y56111605D02*
X35190807Y55994462D01*
X35190807Y55994462D02*
X35190807Y55916367D01*
X35190807Y55916367D02*
X35151760Y55799224D01*
X35151760Y55799224D02*
X35073664Y55721128D01*
X35073664Y55721128D02*
X34995569Y55682081D01*
X34995569Y55682081D02*
X34839378Y55643033D01*
X34839378Y55643033D02*
X34722235Y55643033D01*
X34722235Y55643033D02*
X34566045Y55682081D01*
X34566045Y55682081D02*
X34487949Y55721128D01*
X34487949Y55721128D02*
X34409854Y55799224D01*
X34409854Y55799224D02*
X34370806Y55916367D01*
X34370806Y55916367D02*
X34370806Y55994462D01*
X34370806Y55994462D02*
X34409854Y56111605D01*
X34409854Y56111605D02*
X34448902Y56150653D01*
X34370806Y56423986D02*
X34370806Y56931606D01*
X34370806Y56931606D02*
X34683188Y56658272D01*
X34683188Y56658272D02*
X34683188Y56775415D01*
X34683188Y56775415D02*
X34722235Y56853511D01*
X34722235Y56853511D02*
X34761283Y56892558D01*
X34761283Y56892558D02*
X34839378Y56931606D01*
X34839378Y56931606D02*
X35034617Y56931606D01*
X35034617Y56931606D02*
X35112712Y56892558D01*
X35112712Y56892558D02*
X35151760Y56853511D01*
X35151760Y56853511D02*
X35190807Y56775415D01*
X35190807Y56775415D02*
X35190807Y56541129D01*
X35190807Y56541129D02*
X35151760Y56463034D01*
X35151760Y56463034D02*
X35112712Y56423986D01*
X35190807Y57712559D02*
X35190807Y57243987D01*
X35190807Y57478273D02*
X34370806Y57478273D01*
X34370806Y57478273D02*
X34487949Y57400178D01*
X34487949Y57400178D02*
X34566045Y57322082D01*
X34566045Y57322082D02*
X34605092Y57243987D01*
X103961978Y55963153D02*
X103688644Y56353629D01*
X103493406Y55963153D02*
X103493406Y56783154D01*
X103493406Y56783154D02*
X103805787Y56783154D01*
X103805787Y56783154D02*
X103883883Y56744106D01*
X103883883Y56744106D02*
X103922930Y56705058D01*
X103922930Y56705058D02*
X103961978Y56626963D01*
X103961978Y56626963D02*
X103961978Y56509820D01*
X103961978Y56509820D02*
X103922930Y56431725D01*
X103922930Y56431725D02*
X103883883Y56392677D01*
X103883883Y56392677D02*
X103805787Y56353629D01*
X103805787Y56353629D02*
X103493406Y56353629D01*
X104430550Y56431725D02*
X104352455Y56470772D01*
X104352455Y56470772D02*
X104313407Y56509820D01*
X104313407Y56509820D02*
X104274359Y56587915D01*
X104274359Y56587915D02*
X104274359Y56626963D01*
X104274359Y56626963D02*
X104313407Y56705058D01*
X104313407Y56705058D02*
X104352455Y56744106D01*
X104352455Y56744106D02*
X104430550Y56783154D01*
X104430550Y56783154D02*
X104586741Y56783154D01*
X104586741Y56783154D02*
X104664836Y56744106D01*
X104664836Y56744106D02*
X104703884Y56705058D01*
X104703884Y56705058D02*
X104742931Y56626963D01*
X104742931Y56626963D02*
X104742931Y56587915D01*
X104742931Y56587915D02*
X104703884Y56509820D01*
X104703884Y56509820D02*
X104664836Y56470772D01*
X104664836Y56470772D02*
X104586741Y56431725D01*
X104586741Y56431725D02*
X104430550Y56431725D01*
X104430550Y56431725D02*
X104352455Y56392677D01*
X104352455Y56392677D02*
X104313407Y56353629D01*
X104313407Y56353629D02*
X104274359Y56275534D01*
X104274359Y56275534D02*
X104274359Y56119343D01*
X104274359Y56119343D02*
X104313407Y56041248D01*
X104313407Y56041248D02*
X104352455Y56002200D01*
X104352455Y56002200D02*
X104430550Y55963153D01*
X104430550Y55963153D02*
X104586741Y55963153D01*
X104586741Y55963153D02*
X104664836Y56002200D01*
X104664836Y56002200D02*
X104703884Y56041248D01*
X104703884Y56041248D02*
X104742931Y56119343D01*
X104742931Y56119343D02*
X104742931Y56275534D01*
X104742931Y56275534D02*
X104703884Y56353629D01*
X104703884Y56353629D02*
X104664836Y56392677D01*
X104664836Y56392677D02*
X104586741Y56431725D01*
X100461978Y58963153D02*
X100188644Y59353629D01*
X99993406Y58963153D02*
X99993406Y59783154D01*
X99993406Y59783154D02*
X100305787Y59783154D01*
X100305787Y59783154D02*
X100383883Y59744106D01*
X100383883Y59744106D02*
X100422930Y59705058D01*
X100422930Y59705058D02*
X100461978Y59626963D01*
X100461978Y59626963D02*
X100461978Y59509820D01*
X100461978Y59509820D02*
X100422930Y59431725D01*
X100422930Y59431725D02*
X100383883Y59392677D01*
X100383883Y59392677D02*
X100305787Y59353629D01*
X100305787Y59353629D02*
X99993406Y59353629D01*
X101242931Y58963153D02*
X100774359Y58963153D01*
X101008645Y58963153D02*
X101008645Y59783154D01*
X101008645Y59783154D02*
X100930550Y59666011D01*
X100930550Y59666011D02*
X100852455Y59587915D01*
X100852455Y59587915D02*
X100774359Y59548868D01*
X101750551Y59783154D02*
X101828646Y59783154D01*
X101828646Y59783154D02*
X101906741Y59744106D01*
X101906741Y59744106D02*
X101945789Y59705058D01*
X101945789Y59705058D02*
X101984837Y59626963D01*
X101984837Y59626963D02*
X102023884Y59470772D01*
X102023884Y59470772D02*
X102023884Y59275534D01*
X102023884Y59275534D02*
X101984837Y59119343D01*
X101984837Y59119343D02*
X101945789Y59041248D01*
X101945789Y59041248D02*
X101906741Y59002200D01*
X101906741Y59002200D02*
X101828646Y58963153D01*
X101828646Y58963153D02*
X101750551Y58963153D01*
X101750551Y58963153D02*
X101672455Y59002200D01*
X101672455Y59002200D02*
X101633408Y59041248D01*
X101633408Y59041248D02*
X101594360Y59119343D01*
X101594360Y59119343D02*
X101555312Y59275534D01*
X101555312Y59275534D02*
X101555312Y59470772D01*
X101555312Y59470772D02*
X101594360Y59626963D01*
X101594360Y59626963D02*
X101633408Y59705058D01*
X101633408Y59705058D02*
X101672455Y59744106D01*
X101672455Y59744106D02*
X101750551Y59783154D01*
D11*
X58354819Y58113096D02*
X59164342Y58113096D01*
X59164342Y58113096D02*
X59259580Y58160715D01*
X59259580Y58160715D02*
X59307200Y58208334D01*
X59307200Y58208334D02*
X59354819Y58303572D01*
X59354819Y58303572D02*
X59354819Y58494048D01*
X59354819Y58494048D02*
X59307200Y58589286D01*
X59307200Y58589286D02*
X59259580Y58636905D01*
X59259580Y58636905D02*
X59164342Y58684524D01*
X59164342Y58684524D02*
X58354819Y58684524D01*
X58354819Y59636905D02*
X58354819Y59160715D01*
X58354819Y59160715D02*
X58831009Y59113096D01*
X58831009Y59113096D02*
X58783390Y59160715D01*
X58783390Y59160715D02*
X58735771Y59255953D01*
X58735771Y59255953D02*
X58735771Y59494048D01*
X58735771Y59494048D02*
X58783390Y59589286D01*
X58783390Y59589286D02*
X58831009Y59636905D01*
X58831009Y59636905D02*
X58926247Y59684524D01*
X58926247Y59684524D02*
X59164342Y59684524D01*
X59164342Y59684524D02*
X59259580Y59636905D01*
X59259580Y59636905D02*
X59307200Y59589286D01*
X59307200Y59589286D02*
X59354819Y59494048D01*
X59354819Y59494048D02*
X59354819Y59255953D01*
X59354819Y59255953D02*
X59307200Y59160715D01*
X59307200Y59160715D02*
X59259580Y59113096D01*
D12*
X33046000Y76928232D02*
X32792000Y76928232D01*
X32792000Y76529089D02*
X32792000Y77291089D01*
X32792000Y77291089D02*
X33154857Y77291089D01*
X33408857Y77218517D02*
X33445143Y77254803D01*
X33445143Y77254803D02*
X33517715Y77291089D01*
X33517715Y77291089D02*
X33699143Y77291089D01*
X33699143Y77291089D02*
X33771715Y77254803D01*
X33771715Y77254803D02*
X33808000Y77218517D01*
X33808000Y77218517D02*
X33844286Y77145946D01*
X33844286Y77145946D02*
X33844286Y77073374D01*
X33844286Y77073374D02*
X33808000Y76964517D01*
X33808000Y76964517D02*
X33372572Y76529089D01*
X33372572Y76529089D02*
X33844286Y76529089D01*
D11*
X63740057Y70344762D02*
X63692438Y70249524D01*
X63692438Y70249524D02*
X63597200Y70154286D01*
X63597200Y70154286D02*
X63454342Y70011429D01*
X63454342Y70011429D02*
X63406723Y69916191D01*
X63406723Y69916191D02*
X63406723Y69820953D01*
X63644819Y69868572D02*
X63597200Y69773334D01*
X63597200Y69773334D02*
X63501961Y69678096D01*
X63501961Y69678096D02*
X63311485Y69630477D01*
X63311485Y69630477D02*
X62978152Y69630477D01*
X62978152Y69630477D02*
X62787676Y69678096D01*
X62787676Y69678096D02*
X62692438Y69773334D01*
X62692438Y69773334D02*
X62644819Y69868572D01*
X62644819Y69868572D02*
X62644819Y70059048D01*
X62644819Y70059048D02*
X62692438Y70154286D01*
X62692438Y70154286D02*
X62787676Y70249524D01*
X62787676Y70249524D02*
X62978152Y70297143D01*
X62978152Y70297143D02*
X63311485Y70297143D01*
X63311485Y70297143D02*
X63501961Y70249524D01*
X63501961Y70249524D02*
X63597200Y70154286D01*
X63597200Y70154286D02*
X63644819Y70059048D01*
X63644819Y70059048D02*
X63644819Y69868572D01*
X62644819Y70630477D02*
X62644819Y71249524D01*
X62644819Y71249524D02*
X63025771Y70916191D01*
X63025771Y70916191D02*
X63025771Y71059048D01*
X63025771Y71059048D02*
X63073390Y71154286D01*
X63073390Y71154286D02*
X63121009Y71201905D01*
X63121009Y71201905D02*
X63216247Y71249524D01*
X63216247Y71249524D02*
X63454342Y71249524D01*
X63454342Y71249524D02*
X63549580Y71201905D01*
X63549580Y71201905D02*
X63597200Y71154286D01*
X63597200Y71154286D02*
X63644819Y71059048D01*
X63644819Y71059048D02*
X63644819Y70773334D01*
X63644819Y70773334D02*
X63597200Y70678096D01*
X63597200Y70678096D02*
X63549580Y70630477D01*
D12*
X52673000Y28579088D02*
X52419000Y28941945D01*
X52237571Y28579088D02*
X52237571Y29341088D01*
X52237571Y29341088D02*
X52527857Y29341088D01*
X52527857Y29341088D02*
X52600428Y29304802D01*
X52600428Y29304802D02*
X52636714Y29268516D01*
X52636714Y29268516D02*
X52673000Y29195945D01*
X52673000Y29195945D02*
X52673000Y29087088D01*
X52673000Y29087088D02*
X52636714Y29014516D01*
X52636714Y29014516D02*
X52600428Y28978231D01*
X52600428Y28978231D02*
X52527857Y28941945D01*
X52527857Y28941945D02*
X52237571Y28941945D01*
X53326143Y29087088D02*
X53326143Y28579088D01*
X53144714Y29377373D02*
X52963285Y28833088D01*
X52963285Y28833088D02*
X53435000Y28833088D01*
D10*
X103961978Y52963153D02*
X103688644Y53353629D01*
X103493406Y52963153D02*
X103493406Y53783154D01*
X103493406Y53783154D02*
X103805787Y53783154D01*
X103805787Y53783154D02*
X103883883Y53744106D01*
X103883883Y53744106D02*
X103922930Y53705058D01*
X103922930Y53705058D02*
X103961978Y53626963D01*
X103961978Y53626963D02*
X103961978Y53509820D01*
X103961978Y53509820D02*
X103922930Y53431725D01*
X103922930Y53431725D02*
X103883883Y53392677D01*
X103883883Y53392677D02*
X103805787Y53353629D01*
X103805787Y53353629D02*
X103493406Y53353629D01*
X104352455Y52963153D02*
X104508645Y52963153D01*
X104508645Y52963153D02*
X104586741Y53002200D01*
X104586741Y53002200D02*
X104625788Y53041248D01*
X104625788Y53041248D02*
X104703884Y53158391D01*
X104703884Y53158391D02*
X104742931Y53314582D01*
X104742931Y53314582D02*
X104742931Y53626963D01*
X104742931Y53626963D02*
X104703884Y53705058D01*
X104703884Y53705058D02*
X104664836Y53744106D01*
X104664836Y53744106D02*
X104586741Y53783154D01*
X104586741Y53783154D02*
X104430550Y53783154D01*
X104430550Y53783154D02*
X104352455Y53744106D01*
X104352455Y53744106D02*
X104313407Y53705058D01*
X104313407Y53705058D02*
X104274359Y53626963D01*
X104274359Y53626963D02*
X104274359Y53431725D01*
X104274359Y53431725D02*
X104313407Y53353629D01*
X104313407Y53353629D02*
X104352455Y53314582D01*
X104352455Y53314582D02*
X104430550Y53275534D01*
X104430550Y53275534D02*
X104586741Y53275534D01*
X104586741Y53275534D02*
X104664836Y53314582D01*
X104664836Y53314582D02*
X104703884Y53353629D01*
X104703884Y53353629D02*
X104742931Y53431725D01*
D12*
X119746768Y51121001D02*
X119746768Y50867001D01*
X120145911Y50867001D02*
X119383911Y50867001D01*
X119383911Y50867001D02*
X119383911Y51229858D01*
X119383911Y51447573D02*
X119383911Y51919287D01*
X119383911Y51919287D02*
X119674197Y51665287D01*
X119674197Y51665287D02*
X119674197Y51774144D01*
X119674197Y51774144D02*
X119710483Y51846715D01*
X119710483Y51846715D02*
X119746768Y51883001D01*
X119746768Y51883001D02*
X119819340Y51919287D01*
X119819340Y51919287D02*
X120000768Y51919287D01*
X120000768Y51919287D02*
X120073340Y51883001D01*
X120073340Y51883001D02*
X120109626Y51846715D01*
X120109626Y51846715D02*
X120145911Y51774144D01*
X120145911Y51774144D02*
X120145911Y51556430D01*
X120145911Y51556430D02*
X120109626Y51483858D01*
X120109626Y51483858D02*
X120073340Y51447573D01*
X30546000Y76928232D02*
X30292000Y76928232D01*
X30292000Y76529089D02*
X30292000Y77291089D01*
X30292000Y77291089D02*
X30654857Y77291089D01*
X31344286Y76529089D02*
X30908857Y76529089D01*
X31126572Y76529089D02*
X31126572Y77291089D01*
X31126572Y77291089D02*
X31054000Y77182232D01*
X31054000Y77182232D02*
X30981429Y77109660D01*
X30981429Y77109660D02*
X30908857Y77073374D01*
D11*
X141450057Y76779762D02*
X141402438Y76684524D01*
X141402438Y76684524D02*
X141307200Y76589286D01*
X141307200Y76589286D02*
X141164342Y76446429D01*
X141164342Y76446429D02*
X141116723Y76351191D01*
X141116723Y76351191D02*
X141116723Y76255953D01*
X141354819Y76303572D02*
X141307200Y76208334D01*
X141307200Y76208334D02*
X141211961Y76113096D01*
X141211961Y76113096D02*
X141021485Y76065477D01*
X141021485Y76065477D02*
X140688152Y76065477D01*
X140688152Y76065477D02*
X140497676Y76113096D01*
X140497676Y76113096D02*
X140402438Y76208334D01*
X140402438Y76208334D02*
X140354819Y76303572D01*
X140354819Y76303572D02*
X140354819Y76494048D01*
X140354819Y76494048D02*
X140402438Y76589286D01*
X140402438Y76589286D02*
X140497676Y76684524D01*
X140497676Y76684524D02*
X140688152Y76732143D01*
X140688152Y76732143D02*
X141021485Y76732143D01*
X141021485Y76732143D02*
X141211961Y76684524D01*
X141211961Y76684524D02*
X141307200Y76589286D01*
X141307200Y76589286D02*
X141354819Y76494048D01*
X141354819Y76494048D02*
X141354819Y76303572D01*
X140354819Y77065477D02*
X140354819Y77732143D01*
X140354819Y77732143D02*
X141354819Y77303572D01*
X39490476Y19570181D02*
X39490476Y18855896D01*
X39490476Y18855896D02*
X39442857Y18713039D01*
X39442857Y18713039D02*
X39347619Y18617800D01*
X39347619Y18617800D02*
X39204762Y18570181D01*
X39204762Y18570181D02*
X39109524Y18570181D01*
X39919048Y19474943D02*
X39966667Y19522562D01*
X39966667Y19522562D02*
X40061905Y19570181D01*
X40061905Y19570181D02*
X40300000Y19570181D01*
X40300000Y19570181D02*
X40395238Y19522562D01*
X40395238Y19522562D02*
X40442857Y19474943D01*
X40442857Y19474943D02*
X40490476Y19379705D01*
X40490476Y19379705D02*
X40490476Y19284467D01*
X40490476Y19284467D02*
X40442857Y19141610D01*
X40442857Y19141610D02*
X39871429Y18570181D01*
X39871429Y18570181D02*
X40490476Y18570181D01*
X41442857Y18570181D02*
X40871429Y18570181D01*
X41157143Y18570181D02*
X41157143Y19570181D01*
X41157143Y19570181D02*
X41061905Y19427324D01*
X41061905Y19427324D02*
X40966667Y19332086D01*
X40966667Y19332086D02*
X40871429Y19284467D01*
D10*
X142840092Y73638015D02*
X142566759Y74028491D01*
X142371521Y73638015D02*
X142371521Y74458015D01*
X142371521Y74458015D02*
X142683902Y74458015D01*
X142683902Y74458015D02*
X142761997Y74418967D01*
X142761997Y74418967D02*
X142801044Y74379920D01*
X142801044Y74379920D02*
X142840092Y74301824D01*
X142840092Y74301824D02*
X142840092Y74184682D01*
X142840092Y74184682D02*
X142801044Y74106586D01*
X142801044Y74106586D02*
X142761997Y74067539D01*
X142761997Y74067539D02*
X142683902Y74028491D01*
X142683902Y74028491D02*
X142371521Y74028491D01*
X143621044Y73638015D02*
X143152473Y73638015D01*
X143386759Y73638015D02*
X143386759Y74458015D01*
X143386759Y74458015D02*
X143308663Y74340872D01*
X143308663Y74340872D02*
X143230568Y74262777D01*
X143230568Y74262777D02*
X143152473Y74223729D01*
X144362949Y74458015D02*
X143972473Y74458015D01*
X143972473Y74458015D02*
X143933425Y74067539D01*
X143933425Y74067539D02*
X143972473Y74106586D01*
X143972473Y74106586D02*
X144050568Y74145634D01*
X144050568Y74145634D02*
X144245806Y74145634D01*
X144245806Y74145634D02*
X144323901Y74106586D01*
X144323901Y74106586D02*
X144362949Y74067539D01*
X144362949Y74067539D02*
X144401996Y73989443D01*
X144401996Y73989443D02*
X144401996Y73794205D01*
X144401996Y73794205D02*
X144362949Y73716110D01*
X144362949Y73716110D02*
X144323901Y73677062D01*
X144323901Y73677062D02*
X144245806Y73638015D01*
X144245806Y73638015D02*
X144050568Y73638015D01*
X144050568Y73638015D02*
X143972473Y73677062D01*
X143972473Y73677062D02*
X143933425Y73716110D01*
X35075652Y71062288D02*
X35036604Y71023240D01*
X35036604Y71023240D02*
X34919461Y70984193D01*
X34919461Y70984193D02*
X34841366Y70984193D01*
X34841366Y70984193D02*
X34724223Y71023240D01*
X34724223Y71023240D02*
X34646128Y71101336D01*
X34646128Y71101336D02*
X34607080Y71179431D01*
X34607080Y71179431D02*
X34568032Y71335622D01*
X34568032Y71335622D02*
X34568032Y71452765D01*
X34568032Y71452765D02*
X34607080Y71608955D01*
X34607080Y71608955D02*
X34646128Y71687051D01*
X34646128Y71687051D02*
X34724223Y71765146D01*
X34724223Y71765146D02*
X34841366Y71804194D01*
X34841366Y71804194D02*
X34919461Y71804194D01*
X34919461Y71804194D02*
X35036604Y71765146D01*
X35036604Y71765146D02*
X35075652Y71726098D01*
X35348986Y71804194D02*
X35856605Y71804194D01*
X35856605Y71804194D02*
X35583272Y71491812D01*
X35583272Y71491812D02*
X35700415Y71491812D01*
X35700415Y71491812D02*
X35778510Y71452765D01*
X35778510Y71452765D02*
X35817558Y71413717D01*
X35817558Y71413717D02*
X35856605Y71335622D01*
X35856605Y71335622D02*
X35856605Y71140383D01*
X35856605Y71140383D02*
X35817558Y71062288D01*
X35817558Y71062288D02*
X35778510Y71023240D01*
X35778510Y71023240D02*
X35700415Y70984193D01*
X35700415Y70984193D02*
X35466129Y70984193D01*
X35466129Y70984193D02*
X35388033Y71023240D01*
X35388033Y71023240D02*
X35348986Y71062288D01*
X36364225Y71804194D02*
X36442320Y71804194D01*
X36442320Y71804194D02*
X36520415Y71765146D01*
X36520415Y71765146D02*
X36559463Y71726098D01*
X36559463Y71726098D02*
X36598511Y71648003D01*
X36598511Y71648003D02*
X36637558Y71491812D01*
X36637558Y71491812D02*
X36637558Y71296574D01*
X36637558Y71296574D02*
X36598511Y71140383D01*
X36598511Y71140383D02*
X36559463Y71062288D01*
X36559463Y71062288D02*
X36520415Y71023240D01*
X36520415Y71023240D02*
X36442320Y70984193D01*
X36442320Y70984193D02*
X36364225Y70984193D01*
X36364225Y70984193D02*
X36286129Y71023240D01*
X36286129Y71023240D02*
X36247082Y71062288D01*
X36247082Y71062288D02*
X36208034Y71140383D01*
X36208034Y71140383D02*
X36168986Y71296574D01*
X36168986Y71296574D02*
X36168986Y71491812D01*
X36168986Y71491812D02*
X36208034Y71648003D01*
X36208034Y71648003D02*
X36247082Y71726098D01*
X36247082Y71726098D02*
X36286129Y71765146D01*
X36286129Y71765146D02*
X36364225Y71804194D01*
D11*
X38654819Y65636906D02*
X37654819Y65636906D01*
X37654819Y65636906D02*
X37654819Y65875001D01*
X37654819Y65875001D02*
X37702438Y66017858D01*
X37702438Y66017858D02*
X37797676Y66113096D01*
X37797676Y66113096D02*
X37892914Y66160715D01*
X37892914Y66160715D02*
X38083390Y66208334D01*
X38083390Y66208334D02*
X38226247Y66208334D01*
X38226247Y66208334D02*
X38416723Y66160715D01*
X38416723Y66160715D02*
X38511961Y66113096D01*
X38511961Y66113096D02*
X38607200Y66017858D01*
X38607200Y66017858D02*
X38654819Y65875001D01*
X38654819Y65875001D02*
X38654819Y65636906D01*
X37654819Y67065477D02*
X37654819Y66875001D01*
X37654819Y66875001D02*
X37702438Y66779763D01*
X37702438Y66779763D02*
X37750057Y66732144D01*
X37750057Y66732144D02*
X37892914Y66636906D01*
X37892914Y66636906D02*
X38083390Y66589287D01*
X38083390Y66589287D02*
X38464342Y66589287D01*
X38464342Y66589287D02*
X38559580Y66636906D01*
X38559580Y66636906D02*
X38607200Y66684525D01*
X38607200Y66684525D02*
X38654819Y66779763D01*
X38654819Y66779763D02*
X38654819Y66970239D01*
X38654819Y66970239D02*
X38607200Y67065477D01*
X38607200Y67065477D02*
X38559580Y67113096D01*
X38559580Y67113096D02*
X38464342Y67160715D01*
X38464342Y67160715D02*
X38226247Y67160715D01*
X38226247Y67160715D02*
X38131009Y67113096D01*
X38131009Y67113096D02*
X38083390Y67065477D01*
X38083390Y67065477D02*
X38035771Y66970239D01*
X38035771Y66970239D02*
X38035771Y66779763D01*
X38035771Y66779763D02*
X38083390Y66684525D01*
X38083390Y66684525D02*
X38131009Y66636906D01*
X38131009Y66636906D02*
X38226247Y66589287D01*
X72854819Y58113096D02*
X73664342Y58113096D01*
X73664342Y58113096D02*
X73759580Y58160715D01*
X73759580Y58160715D02*
X73807200Y58208334D01*
X73807200Y58208334D02*
X73854819Y58303572D01*
X73854819Y58303572D02*
X73854819Y58494048D01*
X73854819Y58494048D02*
X73807200Y58589286D01*
X73807200Y58589286D02*
X73759580Y58636905D01*
X73759580Y58636905D02*
X73664342Y58684524D01*
X73664342Y58684524D02*
X72854819Y58684524D01*
X72854819Y59065477D02*
X72854819Y59684524D01*
X72854819Y59684524D02*
X73235771Y59351191D01*
X73235771Y59351191D02*
X73235771Y59494048D01*
X73235771Y59494048D02*
X73283390Y59589286D01*
X73283390Y59589286D02*
X73331009Y59636905D01*
X73331009Y59636905D02*
X73426247Y59684524D01*
X73426247Y59684524D02*
X73664342Y59684524D01*
X73664342Y59684524D02*
X73759580Y59636905D01*
X73759580Y59636905D02*
X73807200Y59589286D01*
X73807200Y59589286D02*
X73854819Y59494048D01*
X73854819Y59494048D02*
X73854819Y59208334D01*
X73854819Y59208334D02*
X73807200Y59113096D01*
X73807200Y59113096D02*
X73759580Y59065477D01*
X47350057Y70344762D02*
X47302438Y70249524D01*
X47302438Y70249524D02*
X47207200Y70154286D01*
X47207200Y70154286D02*
X47064342Y70011429D01*
X47064342Y70011429D02*
X47016723Y69916191D01*
X47016723Y69916191D02*
X47016723Y69820953D01*
X47254819Y69868572D02*
X47207200Y69773334D01*
X47207200Y69773334D02*
X47111961Y69678096D01*
X47111961Y69678096D02*
X46921485Y69630477D01*
X46921485Y69630477D02*
X46588152Y69630477D01*
X46588152Y69630477D02*
X46397676Y69678096D01*
X46397676Y69678096D02*
X46302438Y69773334D01*
X46302438Y69773334D02*
X46254819Y69868572D01*
X46254819Y69868572D02*
X46254819Y70059048D01*
X46254819Y70059048D02*
X46302438Y70154286D01*
X46302438Y70154286D02*
X46397676Y70249524D01*
X46397676Y70249524D02*
X46588152Y70297143D01*
X46588152Y70297143D02*
X46921485Y70297143D01*
X46921485Y70297143D02*
X47111961Y70249524D01*
X47111961Y70249524D02*
X47207200Y70154286D01*
X47207200Y70154286D02*
X47254819Y70059048D01*
X47254819Y70059048D02*
X47254819Y69868572D01*
X46254819Y71201905D02*
X46254819Y70725715D01*
X46254819Y70725715D02*
X46731009Y70678096D01*
X46731009Y70678096D02*
X46683390Y70725715D01*
X46683390Y70725715D02*
X46635771Y70820953D01*
X46635771Y70820953D02*
X46635771Y71059048D01*
X46635771Y71059048D02*
X46683390Y71154286D01*
X46683390Y71154286D02*
X46731009Y71201905D01*
X46731009Y71201905D02*
X46826247Y71249524D01*
X46826247Y71249524D02*
X47064342Y71249524D01*
X47064342Y71249524D02*
X47159580Y71201905D01*
X47159580Y71201905D02*
X47207200Y71154286D01*
X47207200Y71154286D02*
X47254819Y71059048D01*
X47254819Y71059048D02*
X47254819Y70820953D01*
X47254819Y70820953D02*
X47207200Y70725715D01*
X47207200Y70725715D02*
X47159580Y70678096D01*
D10*
X109036985Y70650652D02*
X108646509Y70377319D01*
X109036985Y70182081D02*
X108216985Y70182081D01*
X108216985Y70182081D02*
X108216985Y70494462D01*
X108216985Y70494462D02*
X108256033Y70572557D01*
X108256033Y70572557D02*
X108295080Y70611604D01*
X108295080Y70611604D02*
X108373176Y70650652D01*
X108373176Y70650652D02*
X108490318Y70650652D01*
X108490318Y70650652D02*
X108568414Y70611604D01*
X108568414Y70611604D02*
X108607461Y70572557D01*
X108607461Y70572557D02*
X108646509Y70494462D01*
X108646509Y70494462D02*
X108646509Y70182081D01*
X109036985Y71431604D02*
X109036985Y70963033D01*
X109036985Y71197319D02*
X108216985Y71197319D01*
X108216985Y71197319D02*
X108334128Y71119223D01*
X108334128Y71119223D02*
X108412223Y71041128D01*
X108412223Y71041128D02*
X108451271Y70963033D01*
X147063014Y77334908D02*
X147453490Y77608241D01*
X147063014Y77803479D02*
X147883014Y77803479D01*
X147883014Y77803479D02*
X147883014Y77491098D01*
X147883014Y77491098D02*
X147843966Y77413003D01*
X147843966Y77413003D02*
X147804919Y77373956D01*
X147804919Y77373956D02*
X147726823Y77334908D01*
X147726823Y77334908D02*
X147609681Y77334908D01*
X147609681Y77334908D02*
X147531585Y77373956D01*
X147531585Y77373956D02*
X147492538Y77413003D01*
X147492538Y77413003D02*
X147453490Y77491098D01*
X147453490Y77491098D02*
X147453490Y77803479D01*
X147883014Y76593003D02*
X147883014Y76983479D01*
X147883014Y76983479D02*
X147492538Y77022527D01*
X147492538Y77022527D02*
X147531585Y76983479D01*
X147531585Y76983479D02*
X147570633Y76905384D01*
X147570633Y76905384D02*
X147570633Y76710146D01*
X147570633Y76710146D02*
X147531585Y76632051D01*
X147531585Y76632051D02*
X147492538Y76593003D01*
X147492538Y76593003D02*
X147414442Y76553956D01*
X147414442Y76553956D02*
X147219204Y76553956D01*
X147219204Y76553956D02*
X147141109Y76593003D01*
X147141109Y76593003D02*
X147102062Y76632051D01*
X147102062Y76632051D02*
X147063014Y76710146D01*
X147063014Y76710146D02*
X147063014Y76905384D01*
X147063014Y76905384D02*
X147102062Y76983479D01*
X147102062Y76983479D02*
X147141109Y77022527D01*
X147609681Y75851099D02*
X147063014Y75851099D01*
X147922062Y76046337D02*
X147336347Y76241575D01*
X147336347Y76241575D02*
X147336347Y75733956D01*
X93909191Y55799349D02*
X94299667Y56072682D01*
X93909191Y56267920D02*
X94729191Y56267920D01*
X94729191Y56267920D02*
X94729191Y55955539D01*
X94729191Y55955539D02*
X94690143Y55877444D01*
X94690143Y55877444D02*
X94651096Y55838397D01*
X94651096Y55838397D02*
X94573000Y55799349D01*
X94573000Y55799349D02*
X94455858Y55799349D01*
X94455858Y55799349D02*
X94377762Y55838397D01*
X94377762Y55838397D02*
X94338715Y55877444D01*
X94338715Y55877444D02*
X94299667Y55955539D01*
X94299667Y55955539D02*
X94299667Y56267920D01*
X94729191Y55096492D02*
X94729191Y55252682D01*
X94729191Y55252682D02*
X94690143Y55330778D01*
X94690143Y55330778D02*
X94651096Y55369825D01*
X94651096Y55369825D02*
X94533953Y55447920D01*
X94533953Y55447920D02*
X94377762Y55486968D01*
X94377762Y55486968D02*
X94065381Y55486968D01*
X94065381Y55486968D02*
X93987286Y55447920D01*
X93987286Y55447920D02*
X93948239Y55408873D01*
X93948239Y55408873D02*
X93909191Y55330778D01*
X93909191Y55330778D02*
X93909191Y55174587D01*
X93909191Y55174587D02*
X93948239Y55096492D01*
X93948239Y55096492D02*
X93987286Y55057444D01*
X93987286Y55057444D02*
X94065381Y55018397D01*
X94065381Y55018397D02*
X94260619Y55018397D01*
X94260619Y55018397D02*
X94338715Y55057444D01*
X94338715Y55057444D02*
X94377762Y55096492D01*
X94377762Y55096492D02*
X94416810Y55174587D01*
X94416810Y55174587D02*
X94416810Y55330778D01*
X94416810Y55330778D02*
X94377762Y55408873D01*
X94377762Y55408873D02*
X94338715Y55447920D01*
X94338715Y55447920D02*
X94260619Y55486968D01*
D11*
X65489819Y58113096D02*
X66299342Y58113096D01*
X66299342Y58113096D02*
X66394580Y58160715D01*
X66394580Y58160715D02*
X66442200Y58208334D01*
X66442200Y58208334D02*
X66489819Y58303572D01*
X66489819Y58303572D02*
X66489819Y58494048D01*
X66489819Y58494048D02*
X66442200Y58589286D01*
X66442200Y58589286D02*
X66394580Y58636905D01*
X66394580Y58636905D02*
X66299342Y58684524D01*
X66299342Y58684524D02*
X65489819Y58684524D01*
X65489819Y59589286D02*
X65489819Y59398810D01*
X65489819Y59398810D02*
X65537438Y59303572D01*
X65537438Y59303572D02*
X65585057Y59255953D01*
X65585057Y59255953D02*
X65727914Y59160715D01*
X65727914Y59160715D02*
X65918390Y59113096D01*
X65918390Y59113096D02*
X66299342Y59113096D01*
X66299342Y59113096D02*
X66394580Y59160715D01*
X66394580Y59160715D02*
X66442200Y59208334D01*
X66442200Y59208334D02*
X66489819Y59303572D01*
X66489819Y59303572D02*
X66489819Y59494048D01*
X66489819Y59494048D02*
X66442200Y59589286D01*
X66442200Y59589286D02*
X66394580Y59636905D01*
X66394580Y59636905D02*
X66299342Y59684524D01*
X66299342Y59684524D02*
X66061247Y59684524D01*
X66061247Y59684524D02*
X65966009Y59636905D01*
X65966009Y59636905D02*
X65918390Y59589286D01*
X65918390Y59589286D02*
X65870771Y59494048D01*
X65870771Y59494048D02*
X65870771Y59303572D01*
X65870771Y59303572D02*
X65918390Y59208334D01*
X65918390Y59208334D02*
X65966009Y59160715D01*
X65966009Y59160715D02*
X66061247Y59113096D01*
X36754819Y76995834D02*
X36754819Y76519644D01*
X36754819Y76519644D02*
X35754819Y76519644D01*
X36754819Y77852977D02*
X36754819Y77281549D01*
X36754819Y77567263D02*
X35754819Y77567263D01*
X35754819Y77567263D02*
X35897676Y77472025D01*
X35897676Y77472025D02*
X35992914Y77376787D01*
X35992914Y77376787D02*
X36040533Y77281549D01*
D10*
X103961978Y58963153D02*
X103688644Y59353629D01*
X103493406Y58963153D02*
X103493406Y59783154D01*
X103493406Y59783154D02*
X103805787Y59783154D01*
X103805787Y59783154D02*
X103883883Y59744106D01*
X103883883Y59744106D02*
X103922930Y59705058D01*
X103922930Y59705058D02*
X103961978Y59626963D01*
X103961978Y59626963D02*
X103961978Y59509820D01*
X103961978Y59509820D02*
X103922930Y59431725D01*
X103922930Y59431725D02*
X103883883Y59392677D01*
X103883883Y59392677D02*
X103805787Y59353629D01*
X103805787Y59353629D02*
X103493406Y59353629D01*
X104235312Y59783154D02*
X104781979Y59783154D01*
X104781979Y59783154D02*
X104430550Y58963153D01*
X100461978Y55963153D02*
X100188644Y56353629D01*
X99993406Y55963153D02*
X99993406Y56783154D01*
X99993406Y56783154D02*
X100305787Y56783154D01*
X100305787Y56783154D02*
X100383883Y56744106D01*
X100383883Y56744106D02*
X100422930Y56705058D01*
X100422930Y56705058D02*
X100461978Y56626963D01*
X100461978Y56626963D02*
X100461978Y56509820D01*
X100461978Y56509820D02*
X100422930Y56431725D01*
X100422930Y56431725D02*
X100383883Y56392677D01*
X100383883Y56392677D02*
X100305787Y56353629D01*
X100305787Y56353629D02*
X99993406Y56353629D01*
X101242931Y55963153D02*
X100774359Y55963153D01*
X101008645Y55963153D02*
X101008645Y56783154D01*
X101008645Y56783154D02*
X100930550Y56666011D01*
X100930550Y56666011D02*
X100852455Y56587915D01*
X100852455Y56587915D02*
X100774359Y56548868D01*
X102023884Y55963153D02*
X101555312Y55963153D01*
X101789598Y55963153D02*
X101789598Y56783154D01*
X101789598Y56783154D02*
X101711503Y56666011D01*
X101711503Y56666011D02*
X101633408Y56587915D01*
X101633408Y56587915D02*
X101555312Y56548868D01*
D11*
X51854819Y58113096D02*
X52664342Y58113096D01*
X52664342Y58113096D02*
X52759580Y58160715D01*
X52759580Y58160715D02*
X52807200Y58208334D01*
X52807200Y58208334D02*
X52854819Y58303572D01*
X52854819Y58303572D02*
X52854819Y58494048D01*
X52854819Y58494048D02*
X52807200Y58589286D01*
X52807200Y58589286D02*
X52759580Y58636905D01*
X52759580Y58636905D02*
X52664342Y58684524D01*
X52664342Y58684524D02*
X51854819Y58684524D01*
X52188152Y59589286D02*
X52854819Y59589286D01*
X51807200Y59351191D02*
X52521485Y59113096D01*
X52521485Y59113096D02*
X52521485Y59732143D01*
X150254819Y82636906D02*
X149254819Y82636906D01*
X149254819Y82636906D02*
X149254819Y82875001D01*
X149254819Y82875001D02*
X149302438Y83017858D01*
X149302438Y83017858D02*
X149397676Y83113096D01*
X149397676Y83113096D02*
X149492914Y83160715D01*
X149492914Y83160715D02*
X149683390Y83208334D01*
X149683390Y83208334D02*
X149826247Y83208334D01*
X149826247Y83208334D02*
X150016723Y83160715D01*
X150016723Y83160715D02*
X150111961Y83113096D01*
X150111961Y83113096D02*
X150207200Y83017858D01*
X150207200Y83017858D02*
X150254819Y82875001D01*
X150254819Y82875001D02*
X150254819Y82636906D01*
X149254819Y84113096D02*
X149254819Y83636906D01*
X149254819Y83636906D02*
X149731009Y83589287D01*
X149731009Y83589287D02*
X149683390Y83636906D01*
X149683390Y83636906D02*
X149635771Y83732144D01*
X149635771Y83732144D02*
X149635771Y83970239D01*
X149635771Y83970239D02*
X149683390Y84065477D01*
X149683390Y84065477D02*
X149731009Y84113096D01*
X149731009Y84113096D02*
X149826247Y84160715D01*
X149826247Y84160715D02*
X150064342Y84160715D01*
X150064342Y84160715D02*
X150159580Y84113096D01*
X150159580Y84113096D02*
X150207200Y84065477D01*
X150207200Y84065477D02*
X150254819Y83970239D01*
X150254819Y83970239D02*
X150254819Y83732144D01*
X150254819Y83732144D02*
X150207200Y83636906D01*
X150207200Y83636906D02*
X150159580Y83589287D01*
X15063095Y60305181D02*
X15063095Y59495658D01*
X15063095Y59495658D02*
X15110714Y59400420D01*
X15110714Y59400420D02*
X15158333Y59352800D01*
X15158333Y59352800D02*
X15253571Y59305181D01*
X15253571Y59305181D02*
X15444047Y59305181D01*
X15444047Y59305181D02*
X15539285Y59352800D01*
X15539285Y59352800D02*
X15586904Y59400420D01*
X15586904Y59400420D02*
X15634523Y59495658D01*
X15634523Y59495658D02*
X15634523Y60305181D01*
X16634523Y59305181D02*
X16063095Y59305181D01*
X16348809Y59305181D02*
X16348809Y60305181D01*
X16348809Y60305181D02*
X16253571Y60162324D01*
X16253571Y60162324D02*
X16158333Y60067086D01*
X16158333Y60067086D02*
X16063095Y60019467D01*
X48429819Y15915477D02*
X49144104Y15915477D01*
X49144104Y15915477D02*
X49286961Y15867858D01*
X49286961Y15867858D02*
X49382200Y15772620D01*
X49382200Y15772620D02*
X49429819Y15629763D01*
X49429819Y15629763D02*
X49429819Y15534525D01*
X48525057Y16344049D02*
X48477438Y16391668D01*
X48477438Y16391668D02*
X48429819Y16486906D01*
X48429819Y16486906D02*
X48429819Y16725001D01*
X48429819Y16725001D02*
X48477438Y16820239D01*
X48477438Y16820239D02*
X48525057Y16867858D01*
X48525057Y16867858D02*
X48620295Y16915477D01*
X48620295Y16915477D02*
X48715533Y16915477D01*
X48715533Y16915477D02*
X48858390Y16867858D01*
X48858390Y16867858D02*
X49429819Y16296430D01*
X49429819Y16296430D02*
X49429819Y16915477D01*
X48525057Y17296430D02*
X48477438Y17344049D01*
X48477438Y17344049D02*
X48429819Y17439287D01*
X48429819Y17439287D02*
X48429819Y17677382D01*
X48429819Y17677382D02*
X48477438Y17772620D01*
X48477438Y17772620D02*
X48525057Y17820239D01*
X48525057Y17820239D02*
X48620295Y17867858D01*
X48620295Y17867858D02*
X48715533Y17867858D01*
X48715533Y17867858D02*
X48858390Y17820239D01*
X48858390Y17820239D02*
X49429819Y17248811D01*
X49429819Y17248811D02*
X49429819Y17867858D01*
X71935057Y70344762D02*
X71887438Y70249524D01*
X71887438Y70249524D02*
X71792200Y70154286D01*
X71792200Y70154286D02*
X71649342Y70011429D01*
X71649342Y70011429D02*
X71601723Y69916191D01*
X71601723Y69916191D02*
X71601723Y69820953D01*
X71839819Y69868572D02*
X71792200Y69773334D01*
X71792200Y69773334D02*
X71696961Y69678096D01*
X71696961Y69678096D02*
X71506485Y69630477D01*
X71506485Y69630477D02*
X71173152Y69630477D01*
X71173152Y69630477D02*
X70982676Y69678096D01*
X70982676Y69678096D02*
X70887438Y69773334D01*
X70887438Y69773334D02*
X70839819Y69868572D01*
X70839819Y69868572D02*
X70839819Y70059048D01*
X70839819Y70059048D02*
X70887438Y70154286D01*
X70887438Y70154286D02*
X70982676Y70249524D01*
X70982676Y70249524D02*
X71173152Y70297143D01*
X71173152Y70297143D02*
X71506485Y70297143D01*
X71506485Y70297143D02*
X71696961Y70249524D01*
X71696961Y70249524D02*
X71792200Y70154286D01*
X71792200Y70154286D02*
X71839819Y70059048D01*
X71839819Y70059048D02*
X71839819Y69868572D01*
X70935057Y70678096D02*
X70887438Y70725715D01*
X70887438Y70725715D02*
X70839819Y70820953D01*
X70839819Y70820953D02*
X70839819Y71059048D01*
X70839819Y71059048D02*
X70887438Y71154286D01*
X70887438Y71154286D02*
X70935057Y71201905D01*
X70935057Y71201905D02*
X71030295Y71249524D01*
X71030295Y71249524D02*
X71125533Y71249524D01*
X71125533Y71249524D02*
X71268390Y71201905D01*
X71268390Y71201905D02*
X71839819Y70630477D01*
X71839819Y70630477D02*
X71839819Y71249524D01*
D10*
X33612712Y56150653D02*
X33651760Y56111605D01*
X33651760Y56111605D02*
X33690807Y55994462D01*
X33690807Y55994462D02*
X33690807Y55916367D01*
X33690807Y55916367D02*
X33651760Y55799224D01*
X33651760Y55799224D02*
X33573664Y55721128D01*
X33573664Y55721128D02*
X33495569Y55682081D01*
X33495569Y55682081D02*
X33339378Y55643033D01*
X33339378Y55643033D02*
X33222235Y55643033D01*
X33222235Y55643033D02*
X33066045Y55682081D01*
X33066045Y55682081D02*
X32987949Y55721128D01*
X32987949Y55721128D02*
X32909854Y55799224D01*
X32909854Y55799224D02*
X32870806Y55916367D01*
X32870806Y55916367D02*
X32870806Y55994462D01*
X32870806Y55994462D02*
X32909854Y56111605D01*
X32909854Y56111605D02*
X32948902Y56150653D01*
X32870806Y56423986D02*
X32870806Y56931606D01*
X32870806Y56931606D02*
X33183188Y56658272D01*
X33183188Y56658272D02*
X33183188Y56775415D01*
X33183188Y56775415D02*
X33222235Y56853511D01*
X33222235Y56853511D02*
X33261283Y56892558D01*
X33261283Y56892558D02*
X33339378Y56931606D01*
X33339378Y56931606D02*
X33534617Y56931606D01*
X33534617Y56931606D02*
X33612712Y56892558D01*
X33612712Y56892558D02*
X33651760Y56853511D01*
X33651760Y56853511D02*
X33690807Y56775415D01*
X33690807Y56775415D02*
X33690807Y56541129D01*
X33690807Y56541129D02*
X33651760Y56463034D01*
X33651760Y56463034D02*
X33612712Y56423986D01*
X32948902Y57243987D02*
X32909854Y57283035D01*
X32909854Y57283035D02*
X32870806Y57361130D01*
X32870806Y57361130D02*
X32870806Y57556368D01*
X32870806Y57556368D02*
X32909854Y57634464D01*
X32909854Y57634464D02*
X32948902Y57673511D01*
X32948902Y57673511D02*
X33026997Y57712559D01*
X33026997Y57712559D02*
X33105092Y57712559D01*
X33105092Y57712559D02*
X33222235Y57673511D01*
X33222235Y57673511D02*
X33690807Y57204939D01*
X33690807Y57204939D02*
X33690807Y57712559D01*
X95909191Y55599349D02*
X96299667Y55872682D01*
X95909191Y56067920D02*
X96729191Y56067920D01*
X96729191Y56067920D02*
X96729191Y55755539D01*
X96729191Y55755539D02*
X96690143Y55677444D01*
X96690143Y55677444D02*
X96651096Y55638397D01*
X96651096Y55638397D02*
X96573000Y55599349D01*
X96573000Y55599349D02*
X96455858Y55599349D01*
X96455858Y55599349D02*
X96377762Y55638397D01*
X96377762Y55638397D02*
X96338715Y55677444D01*
X96338715Y55677444D02*
X96299667Y55755539D01*
X96299667Y55755539D02*
X96299667Y56067920D01*
X96729191Y54857444D02*
X96729191Y55247920D01*
X96729191Y55247920D02*
X96338715Y55286968D01*
X96338715Y55286968D02*
X96377762Y55247920D01*
X96377762Y55247920D02*
X96416810Y55169825D01*
X96416810Y55169825D02*
X96416810Y54974587D01*
X96416810Y54974587D02*
X96377762Y54896492D01*
X96377762Y54896492D02*
X96338715Y54857444D01*
X96338715Y54857444D02*
X96260619Y54818397D01*
X96260619Y54818397D02*
X96065381Y54818397D01*
X96065381Y54818397D02*
X95987286Y54857444D01*
X95987286Y54857444D02*
X95948239Y54896492D01*
X95948239Y54896492D02*
X95909191Y54974587D01*
X95909191Y54974587D02*
X95909191Y55169825D01*
X95909191Y55169825D02*
X95948239Y55247920D01*
X95948239Y55247920D02*
X95987286Y55286968D01*
D11*
X80354819Y58113096D02*
X81164342Y58113096D01*
X81164342Y58113096D02*
X81259580Y58160715D01*
X81259580Y58160715D02*
X81307200Y58208334D01*
X81307200Y58208334D02*
X81354819Y58303572D01*
X81354819Y58303572D02*
X81354819Y58494048D01*
X81354819Y58494048D02*
X81307200Y58589286D01*
X81307200Y58589286D02*
X81259580Y58636905D01*
X81259580Y58636905D02*
X81164342Y58684524D01*
X81164342Y58684524D02*
X80354819Y58684524D01*
X81354819Y59208334D02*
X81354819Y59398810D01*
X81354819Y59398810D02*
X81307200Y59494048D01*
X81307200Y59494048D02*
X81259580Y59541667D01*
X81259580Y59541667D02*
X81116723Y59636905D01*
X81116723Y59636905D02*
X80926247Y59684524D01*
X80926247Y59684524D02*
X80545295Y59684524D01*
X80545295Y59684524D02*
X80450057Y59636905D01*
X80450057Y59636905D02*
X80402438Y59589286D01*
X80402438Y59589286D02*
X80354819Y59494048D01*
X80354819Y59494048D02*
X80354819Y59303572D01*
X80354819Y59303572D02*
X80402438Y59208334D01*
X80402438Y59208334D02*
X80450057Y59160715D01*
X80450057Y59160715D02*
X80545295Y59113096D01*
X80545295Y59113096D02*
X80783390Y59113096D01*
X80783390Y59113096D02*
X80878628Y59160715D01*
X80878628Y59160715D02*
X80926247Y59208334D01*
X80926247Y59208334D02*
X80973866Y59303572D01*
X80973866Y59303572D02*
X80973866Y59494048D01*
X80973866Y59494048D02*
X80926247Y59589286D01*
X80926247Y59589286D02*
X80878628Y59636905D01*
X80878628Y59636905D02*
X80783390Y59684524D01*
X19854819Y29136906D02*
X20664342Y29136906D01*
X20664342Y29136906D02*
X20759580Y29184525D01*
X20759580Y29184525D02*
X20807200Y29232144D01*
X20807200Y29232144D02*
X20854819Y29327382D01*
X20854819Y29327382D02*
X20854819Y29517858D01*
X20854819Y29517858D02*
X20807200Y29613096D01*
X20807200Y29613096D02*
X20759580Y29660715D01*
X20759580Y29660715D02*
X20664342Y29708334D01*
X20664342Y29708334D02*
X19854819Y29708334D01*
X20854819Y30708334D02*
X20854819Y30136906D01*
X20854819Y30422620D02*
X19854819Y30422620D01*
X19854819Y30422620D02*
X19997676Y30327382D01*
X19997676Y30327382D02*
X20092914Y30232144D01*
X20092914Y30232144D02*
X20140533Y30136906D01*
X20854819Y31660715D02*
X20854819Y31089287D01*
X20854819Y31375001D02*
X19854819Y31375001D01*
X19854819Y31375001D02*
X19997676Y31279763D01*
X19997676Y31279763D02*
X20092914Y31184525D01*
X20092914Y31184525D02*
X20140533Y31089287D01*
X41754819Y57113096D02*
X42564342Y57113096D01*
X42564342Y57113096D02*
X42659580Y57160715D01*
X42659580Y57160715D02*
X42707200Y57208334D01*
X42707200Y57208334D02*
X42754819Y57303572D01*
X42754819Y57303572D02*
X42754819Y57494048D01*
X42754819Y57494048D02*
X42707200Y57589286D01*
X42707200Y57589286D02*
X42659580Y57636905D01*
X42659580Y57636905D02*
X42564342Y57684524D01*
X42564342Y57684524D02*
X41754819Y57684524D01*
X42183390Y58303572D02*
X42135771Y58208334D01*
X42135771Y58208334D02*
X42088152Y58160715D01*
X42088152Y58160715D02*
X41992914Y58113096D01*
X41992914Y58113096D02*
X41945295Y58113096D01*
X41945295Y58113096D02*
X41850057Y58160715D01*
X41850057Y58160715D02*
X41802438Y58208334D01*
X41802438Y58208334D02*
X41754819Y58303572D01*
X41754819Y58303572D02*
X41754819Y58494048D01*
X41754819Y58494048D02*
X41802438Y58589286D01*
X41802438Y58589286D02*
X41850057Y58636905D01*
X41850057Y58636905D02*
X41945295Y58684524D01*
X41945295Y58684524D02*
X41992914Y58684524D01*
X41992914Y58684524D02*
X42088152Y58636905D01*
X42088152Y58636905D02*
X42135771Y58589286D01*
X42135771Y58589286D02*
X42183390Y58494048D01*
X42183390Y58494048D02*
X42183390Y58303572D01*
X42183390Y58303572D02*
X42231009Y58208334D01*
X42231009Y58208334D02*
X42278628Y58160715D01*
X42278628Y58160715D02*
X42373866Y58113096D01*
X42373866Y58113096D02*
X42564342Y58113096D01*
X42564342Y58113096D02*
X42659580Y58160715D01*
X42659580Y58160715D02*
X42707200Y58208334D01*
X42707200Y58208334D02*
X42754819Y58303572D01*
X42754819Y58303572D02*
X42754819Y58494048D01*
X42754819Y58494048D02*
X42707200Y58589286D01*
X42707200Y58589286D02*
X42659580Y58636905D01*
X42659580Y58636905D02*
X42564342Y58684524D01*
X42564342Y58684524D02*
X42373866Y58684524D01*
X42373866Y58684524D02*
X42278628Y58636905D01*
X42278628Y58636905D02*
X42231009Y58589286D01*
X42231009Y58589286D02*
X42183390Y58494048D01*
D13*
G04 #@! TO.C,R12*
X100595611Y51222073D02*
X100995611Y51222073D01*
X100600000Y52525001D02*
X101000000Y52525001D01*
D14*
G04 #@! TO.C,L2*
X37790000Y74537779D02*
X37790000Y74212221D01*
X38810000Y74537779D02*
X38810000Y74212221D01*
G04 #@! TO.C,U2*
X15825000Y52340000D02*
X13875000Y52340000D01*
X15825000Y52340000D02*
X17775000Y52340000D01*
X15825000Y47220000D02*
X13875000Y47220000D01*
X15825000Y47220000D02*
X17775000Y47220000D01*
X13125000Y52245000D02*
X12885000Y52575000D01*
X13365000Y52575000D01*
X13125000Y52245000D01*
G36*
X13125000Y52245000D02*
G01*
X12885000Y52575000D01*
X13365000Y52575000D01*
X13125000Y52245000D01*
G37*
G04 #@! TO.C,Q1*
X80630000Y73550000D02*
X80630000Y67130000D01*
X80630000Y67130000D02*
X80900000Y67130000D01*
X87530000Y73550000D02*
X87530000Y67130000D01*
X87530000Y67130000D02*
X87260000Y67130000D01*
X80940000Y65400000D02*
X80470000Y65060000D01*
X80470000Y65740000D01*
X80940000Y65400000D01*
G36*
X80940000Y65400000D02*
G01*
X80470000Y65060000D01*
X80470000Y65740000D01*
X80940000Y65400000D01*
G37*
G04 #@! TO.C,F4*
X23892221Y58970000D02*
X24217779Y58970000D01*
X23892221Y57950000D02*
X24217779Y57950000D01*
G04 #@! TO.C,Q4*
X56045000Y73550000D02*
X56045000Y67130000D01*
X56045000Y67130000D02*
X56315000Y67130000D01*
X62945000Y73550000D02*
X62945000Y67130000D01*
X62945000Y67130000D02*
X62675000Y67130000D01*
X56355000Y65400000D02*
X55885000Y65060000D01*
X55885000Y65740000D01*
X56355000Y65400000D01*
G36*
X56355000Y65400000D02*
G01*
X55885000Y65060000D01*
X55885000Y65740000D01*
X56355000Y65400000D01*
G37*
D13*
G04 #@! TO.C,C28*
X38090001Y71224986D02*
X38090001Y70475001D01*
D14*
G04 #@! TO.C,U7*
X45835000Y58875000D02*
X45835000Y60825000D01*
X45835000Y58875000D02*
X45835000Y56925000D01*
X50955000Y58875000D02*
X50955000Y60825000D01*
X50955000Y58875000D02*
X50955000Y56925000D01*
X45930000Y56175000D02*
X45600000Y55935000D01*
X45600000Y56415000D01*
X45930000Y56175000D01*
G36*
X45930000Y56175000D02*
G01*
X45600000Y55935000D01*
X45600000Y56415000D01*
X45930000Y56175000D01*
G37*
D13*
G04 #@! TO.C,M1*
X33900002Y42374997D02*
X33900002Y45575000D01*
X33900002Y30274997D02*
X33900002Y40674999D01*
X33900002Y28374997D02*
X33900002Y28674997D01*
X33900002Y28374997D02*
X49300002Y28374997D01*
X35400002Y48974995D02*
X50700001Y48974997D01*
X50699999Y42274999D02*
X50699999Y47074999D01*
X50699999Y36074997D02*
X50699999Y38774997D01*
X50699999Y33374999D02*
X50699999Y34475002D01*
X50699999Y29824997D02*
X50700004Y31374997D01*
X50700001Y48674999D02*
X50700001Y48974997D01*
G04 #@! TO.C,M2*
X118225000Y75800001D02*
X109125000Y75800001D01*
X118225000Y75800001D02*
X118225000Y74799999D01*
X118225000Y72699998D02*
X109125000Y72699998D01*
D14*
G04 #@! TO.C,U10*
X140850000Y89325000D02*
X140850000Y82905000D01*
X140850000Y82905000D02*
X141320000Y82905000D01*
X147750000Y89325000D02*
X147750000Y82905000D01*
X147750000Y82905000D02*
X147280000Y82905000D01*
X141360000Y81175000D02*
X140890000Y80835000D01*
X140890000Y81515000D01*
X141360000Y81175000D01*
G36*
X141360000Y81175000D02*
G01*
X140890000Y80835000D01*
X140890000Y81515000D01*
X141360000Y81175000D01*
G37*
G04 #@! TO.C,Q6*
X39655000Y73550000D02*
X39655000Y67130000D01*
X39655000Y67130000D02*
X39925000Y67130000D01*
X46555000Y73550000D02*
X46555000Y67130000D01*
X46555000Y67130000D02*
X46285000Y67130000D01*
X39965000Y65400000D02*
X39495000Y65060000D01*
X39495000Y65740000D01*
X39965000Y65400000D01*
G36*
X39965000Y65400000D02*
G01*
X39495000Y65060000D01*
X39495000Y65740000D01*
X39965000Y65400000D01*
G37*
D13*
G04 #@! TO.C,C29*
X35800000Y63025014D02*
X35800000Y63774999D01*
G04 #@! TO.C,M4*
X98300000Y75937500D02*
X98300000Y60937500D01*
X98300000Y75937500D02*
X99600000Y75937500D01*
X98300000Y60937500D02*
X103400000Y60937500D01*
X107900000Y75937500D02*
X101500000Y75937500D01*
X107900000Y61537500D02*
X107900000Y75937500D01*
G04 #@! TO.C,C31*
X34450014Y59375000D02*
X35199999Y59375000D01*
G04 #@! TO.C,R8*
X104095611Y54222073D02*
X104495611Y54222073D01*
X104100000Y55525001D02*
X104500000Y55525001D01*
G04 #@! TO.C,R10*
X100595611Y57222073D02*
X100995611Y57222073D01*
X100600000Y58525001D02*
X101000000Y58525001D01*
D14*
G04 #@! TO.C,U5*
X59740000Y58875000D02*
X59740000Y60825000D01*
X59740000Y58875000D02*
X59740000Y56925000D01*
X64860000Y58875000D02*
X64860000Y60825000D01*
X64860000Y58875000D02*
X64860000Y56925000D01*
X59835000Y56175000D02*
X59505000Y55935000D01*
X59505000Y56415000D01*
X59835000Y56175000D01*
G36*
X59835000Y56175000D02*
G01*
X59505000Y55935000D01*
X59505000Y56415000D01*
X59835000Y56175000D01*
G37*
G04 #@! TO.C,F2*
X32300000Y75275000D02*
X32300000Y70425000D01*
X34300000Y75275000D02*
X34300000Y70425000D01*
X32300000Y75325000D02*
G75*
G02*
X34300000Y75325000I1000000J0D01*
G01*
X34300000Y70425000D02*
G75*
G02*
X32300000Y70425000I-1000000J0D01*
G01*
G04 #@! TO.C,Q3*
X64240000Y73550000D02*
X64240000Y67130000D01*
X64240000Y67130000D02*
X64510000Y67130000D01*
X71140000Y73550000D02*
X71140000Y67130000D01*
X71140000Y67130000D02*
X70870000Y67130000D01*
X64550000Y65400000D02*
X64080000Y65060000D01*
X64080000Y65740000D01*
X64550000Y65400000D01*
G36*
X64550000Y65400000D02*
G01*
X64080000Y65060000D01*
X64080000Y65740000D01*
X64550000Y65400000D01*
G37*
D15*
G04 #@! TO.C,R4*
X52000000Y25932999D02*
X52000000Y26948999D01*
X52000000Y23900999D02*
X52000000Y24916999D01*
X53600000Y26948999D02*
X53600000Y25932999D01*
X53600000Y24916999D02*
X53600000Y23900999D01*
D14*
X51996505Y27008601D02*
G75*
G02*
X53600000Y26999999I803495J321398D01*
G01*
X53600000Y23849999D02*
G75*
G02*
X51998362Y23845999I-800000J-330000D01*
G01*
D13*
G04 #@! TO.C,R9*
X104095611Y51222073D02*
X104495611Y51222073D01*
X104100000Y52525001D02*
X104500000Y52525001D01*
D14*
G04 #@! TO.C,F3*
X118200000Y52375000D02*
X113350000Y52375000D01*
X118200000Y50375000D02*
X113350000Y50375000D01*
X113350000Y50375000D02*
G75*
G02*
X113350000Y52375000I0J1000000D01*
G01*
X118250000Y52375000D02*
G75*
G02*
X118250000Y50375000I0J-1000000D01*
G01*
G04 #@! TO.C,F1*
X29800000Y75275000D02*
X29800000Y70425000D01*
X31800000Y75275000D02*
X31800000Y70425000D01*
X29800000Y75325000D02*
G75*
G02*
X31800000Y75325000I1000000J0D01*
G01*
X31800000Y70425000D02*
G75*
G02*
X29800000Y70425000I-1000000J0D01*
G01*
G04 #@! TO.C,Q7*
X141740000Y76875000D02*
X141740000Y77525000D01*
X141740000Y76875000D02*
X141740000Y76225000D01*
X144860000Y76875000D02*
X144860000Y77525000D01*
X144860000Y76875000D02*
X144860000Y76225000D01*
X141790000Y75712500D02*
X141460000Y75472500D01*
X141460000Y75952500D01*
X141790000Y75712500D01*
G36*
X141790000Y75712500D02*
G01*
X141460000Y75472500D01*
X141460000Y75952500D01*
X141790000Y75712500D01*
G37*
G04 #@! TO.C,J21*
X32440000Y14925000D02*
X32440000Y12515000D01*
X32440000Y12515000D02*
X34850000Y12515000D01*
X32740000Y17935000D02*
X32740000Y12815000D01*
X32740000Y12815000D02*
X46860000Y12815000D01*
X46860000Y12815000D02*
X47860000Y13815000D01*
X47860000Y17935000D02*
X32740000Y17935000D01*
X47860000Y13815000D02*
X47860000Y17935000D01*
D16*
G04 #@! TO.C,R15*
X143098944Y72504160D02*
X143498943Y72504149D01*
X143100000Y73249995D02*
X143500000Y73249985D01*
D13*
G04 #@! TO.C,C30*
X36009999Y69525014D02*
X36009999Y70274999D01*
D14*
G04 #@! TO.C,D6*
X34240000Y66375000D02*
X34240000Y67025000D01*
X34240000Y66375000D02*
X34240000Y65725000D01*
X37360000Y66375000D02*
X37360000Y67025000D01*
X37360000Y66375000D02*
X37360000Y65725000D01*
X37640000Y67297500D02*
X37310000Y67537500D01*
X37640000Y67777500D01*
X37640000Y67297500D01*
G36*
X37640000Y67297500D02*
G01*
X37310000Y67537500D01*
X37640000Y67777500D01*
X37640000Y67297500D01*
G37*
D13*
G04 #@! TO.C,M6*
X55774995Y48150005D02*
X55774995Y12350015D01*
X89575005Y48150005D02*
X55775005Y48150005D01*
X89575005Y48150005D02*
X89575005Y12350015D01*
X89575005Y12350015D02*
X55774995Y12350015D01*
D14*
G04 #@! TO.C,U3*
X74240000Y58875000D02*
X74240000Y60825000D01*
X74240000Y58875000D02*
X74240000Y56925000D01*
X79360000Y58875000D02*
X79360000Y60825000D01*
X79360000Y58875000D02*
X79360000Y56925000D01*
X74335000Y56175000D02*
X74005000Y55935000D01*
X74005000Y56415000D01*
X74335000Y56175000D01*
G36*
X74335000Y56175000D02*
G01*
X74005000Y55935000D01*
X74005000Y56415000D01*
X74335000Y56175000D01*
G37*
G04 #@! TO.C,Q5*
X47850000Y73550000D02*
X47850000Y67130000D01*
X47850000Y67130000D02*
X48120000Y67130000D01*
X54750000Y73550000D02*
X54750000Y67130000D01*
X54750000Y67130000D02*
X54480000Y67130000D01*
X48160000Y65400000D02*
X47690000Y65060000D01*
X47690000Y65740000D01*
X48160000Y65400000D01*
G36*
X48160000Y65400000D02*
G01*
X47690000Y65060000D01*
X47690000Y65740000D01*
X48160000Y65400000D01*
G37*
G04 #@! TO.C,M8*
D17*
X111225000Y56650000D02*
X121125000Y56650000D01*
X121125000Y70350000D01*
X111225000Y70350000D01*
X111225000Y56650000D01*
D13*
G04 #@! TO.C,M3*
X88125000Y75750000D02*
X88125000Y60750000D01*
X88125000Y75750000D02*
X89425000Y75750000D01*
X88125000Y60750000D02*
X93225000Y60750000D01*
X97725000Y75750000D02*
X91325000Y75750000D01*
X97725000Y61350000D02*
X97725000Y75750000D01*
G04 #@! TO.C,M5*
X122725000Y76250000D02*
X136625000Y76250000D01*
X136625000Y48750000D01*
X122725000Y48750000D01*
X122725000Y76250000D01*
D16*
G04 #@! TO.C,R1*
X109425005Y70175000D02*
X109425015Y70575000D01*
X110170840Y70173944D02*
X110170851Y70573943D01*
G04 #@! TO.C,R54*
X145929160Y77076056D02*
X145929149Y76676057D01*
X146674995Y77075000D02*
X146674985Y76675000D01*
G04 #@! TO.C,R6*
X93929160Y58276056D02*
X93929149Y57876057D01*
X94674995Y58275000D02*
X94674985Y57875000D01*
D14*
G04 #@! TO.C,U6*
X66875000Y58875000D02*
X66875000Y60825000D01*
X66875000Y58875000D02*
X66875000Y56925000D01*
X71995000Y58875000D02*
X71995000Y60825000D01*
X71995000Y58875000D02*
X71995000Y56925000D01*
X66970000Y56175000D02*
X66640000Y55935000D01*
X66640000Y56415000D01*
X66970000Y56175000D01*
G36*
X66970000Y56175000D02*
G01*
X66640000Y55935000D01*
X66640000Y56415000D01*
X66970000Y56175000D01*
G37*
G04 #@! TO.C,L1*
X35790000Y74537779D02*
X35790000Y74212221D01*
X36810000Y74537779D02*
X36810000Y74212221D01*
D13*
G04 #@! TO.C,R7*
X104095611Y57222073D02*
X104495611Y57222073D01*
X104100000Y58525001D02*
X104500000Y58525001D01*
G04 #@! TO.C,R11*
X100595611Y54222073D02*
X100995611Y54222073D01*
X100600000Y55525001D02*
X101000000Y55525001D01*
D14*
G04 #@! TO.C,U4*
X53240000Y58875000D02*
X53240000Y60825000D01*
X53240000Y58875000D02*
X53240000Y56925000D01*
X58360000Y58875000D02*
X58360000Y60825000D01*
X58360000Y58875000D02*
X58360000Y56925000D01*
X53335000Y56175000D02*
X53005000Y55935000D01*
X53005000Y56415000D01*
X53335000Y56175000D01*
G36*
X53335000Y56175000D02*
G01*
X53005000Y55935000D01*
X53005000Y56415000D01*
X53335000Y56175000D01*
G37*
G04 #@! TO.C,D5*
X150650000Y79865000D02*
X150650000Y85375000D01*
X150650000Y79865000D02*
X153950000Y79865000D01*
X153950000Y79865000D02*
X153950000Y85375000D01*
G04 #@! TO.C,U1*
X15825000Y58920000D02*
X13875000Y58920000D01*
X15825000Y58920000D02*
X17775000Y58920000D01*
X15825000Y53800000D02*
X13875000Y53800000D01*
X15825000Y53800000D02*
X17775000Y53800000D01*
X13125000Y58825000D02*
X12885000Y59155000D01*
X13365000Y59155000D01*
X13125000Y58825000D01*
G36*
X13125000Y58825000D02*
G01*
X12885000Y59155000D01*
X13365000Y59155000D01*
X13125000Y58825000D01*
G37*
D11*
G04 #@! TO.C,J22*
X49775000Y20625000D02*
X50375000Y20625000D01*
X49775000Y12825000D02*
X49775000Y20625000D01*
X50375000Y12825000D02*
X49775000Y12825000D01*
X53275000Y12825000D02*
X53875000Y12825000D01*
X53875000Y20625000D02*
X53275000Y20625000D01*
X53875000Y12825000D02*
X53875000Y20625000D01*
X54175000Y14625000D02*
X54175000Y15625000D01*
D14*
G04 #@! TO.C,Q2*
X72435000Y73550000D02*
X72435000Y67130000D01*
X72435000Y67130000D02*
X72705000Y67130000D01*
X79335000Y73550000D02*
X79335000Y67130000D01*
X79335000Y67130000D02*
X79065000Y67130000D01*
X72745000Y65400000D02*
X72275000Y65060000D01*
X72275000Y65740000D01*
X72745000Y65400000D01*
G36*
X72745000Y65400000D02*
G01*
X72275000Y65060000D01*
X72275000Y65740000D01*
X72745000Y65400000D01*
G37*
D13*
G04 #@! TO.C,C32*
X32950014Y59375000D02*
X33699999Y59375000D01*
G04 #@! TO.C,M7*
X35837499Y26904142D02*
X47012499Y26942989D01*
X35837499Y21206661D02*
X35837499Y26904142D01*
X35837499Y21206661D02*
X36112503Y20931657D01*
X36112503Y20056663D02*
X36112503Y20931657D01*
X36112503Y20056663D02*
X36112505Y20056660D01*
X36112505Y20056660D02*
X47012499Y20056660D01*
X47012499Y20056660D02*
X47012499Y26942989D01*
D16*
G04 #@! TO.C,R5*
X95929160Y58276056D02*
X95929149Y57876057D01*
X96674995Y58275000D02*
X96674985Y57875000D01*
D14*
G04 #@! TO.C,U9*
X81740000Y58875000D02*
X81740000Y60825000D01*
X81740000Y58875000D02*
X81740000Y56925000D01*
X86860000Y58875000D02*
X86860000Y60825000D01*
X86860000Y58875000D02*
X86860000Y56925000D01*
X81835000Y56175000D02*
X81505000Y55935000D01*
X81505000Y56415000D01*
X81835000Y56175000D01*
G36*
X81835000Y56175000D02*
G01*
X81505000Y55935000D01*
X81505000Y56415000D01*
X81835000Y56175000D01*
G37*
G04 #@! TO.C,U11*
X21240000Y30375000D02*
X21240000Y32325000D01*
X21240000Y30375000D02*
X21240000Y28425000D01*
X26360000Y30375000D02*
X26360000Y32325000D01*
X26360000Y30375000D02*
X26360000Y28425000D01*
X21335000Y27675000D02*
X21005000Y27435000D01*
X21005000Y27915000D01*
X21335000Y27675000D01*
G36*
X21335000Y27675000D02*
G01*
X21005000Y27435000D01*
X21005000Y27915000D01*
X21335000Y27675000D01*
G37*
G04 #@! TO.C,U8*
X36240000Y57875000D02*
X36240000Y59825000D01*
X36240000Y57875000D02*
X36240000Y55925000D01*
X41360000Y57875000D02*
X41360000Y59825000D01*
X41360000Y57875000D02*
X41360000Y55925000D01*
X41595000Y60335000D02*
X41265000Y60575000D01*
X41595000Y60815000D01*
X41595000Y60335000D01*
G36*
X41595000Y60335000D02*
G01*
X41265000Y60575000D01*
X41595000Y60815000D01*
X41595000Y60335000D01*
G37*
G04 #@! TD*
D18*
G04 #@! TO.C,P1*
X144952000Y113258000D03*
D19*
X142502000Y105458000D03*
D18*
X70452000Y113258000D03*
D19*
X20702000Y105458000D03*
D18*
X18252000Y113258000D03*
D20*
X137852000Y108258000D03*
X132052000Y108258000D03*
X134952000Y105928000D03*
X137852000Y100128000D03*
X132052000Y100128000D03*
D21*
X78432000Y100128000D03*
X80972000Y100128000D03*
X83512000Y100128000D03*
X86052000Y100128000D03*
X88592000Y100128000D03*
X91132000Y100128000D03*
X93672000Y100128000D03*
X96212000Y100128000D03*
X98752000Y100128000D03*
X101292000Y100128000D03*
X103832000Y100128000D03*
X106372000Y100128000D03*
X108912000Y100128000D03*
X111452000Y100128000D03*
X113992000Y100128000D03*
X116532000Y100128000D03*
X119072000Y100128000D03*
X121612000Y100128000D03*
X124152000Y100128000D03*
X78432000Y102668000D03*
X80972000Y102668000D03*
X83512000Y102668000D03*
X86052000Y102668000D03*
X88592000Y102668000D03*
X91132000Y102668000D03*
X93672000Y102668000D03*
X96212000Y102668000D03*
X98752000Y102668000D03*
X101292000Y102668000D03*
X103832000Y102668000D03*
X106372000Y102668000D03*
X108912000Y102668000D03*
X111452000Y102668000D03*
X113992000Y102668000D03*
X116532000Y102668000D03*
X119072000Y102668000D03*
X121612000Y102668000D03*
X124152000Y102668000D03*
X78432000Y108718000D03*
X80972000Y108718000D03*
X83512000Y108718000D03*
X86052000Y108718000D03*
X88592000Y108718000D03*
X91132000Y108718000D03*
X93672000Y108718000D03*
X96212000Y108718000D03*
X98752000Y108718000D03*
X101292000Y108718000D03*
X103832000Y108718000D03*
X106372000Y108718000D03*
X108912000Y108718000D03*
X111452000Y108718000D03*
X113992000Y108718000D03*
X116532000Y108718000D03*
X119072000Y108718000D03*
X121612000Y108718000D03*
X124152000Y108718000D03*
X78432000Y111258000D03*
X80972000Y111258000D03*
X83512000Y111258000D03*
X86052000Y111258000D03*
X88592000Y111258000D03*
X91132000Y111258000D03*
X93672000Y111258000D03*
X96212000Y111258000D03*
X98752000Y111258000D03*
X101292000Y111258000D03*
X103832000Y111258000D03*
X106372000Y111258000D03*
X108912000Y111258000D03*
X111452000Y111258000D03*
X113992000Y111258000D03*
X116532000Y111258000D03*
X119072000Y111258000D03*
X121612000Y111258000D03*
X124152000Y111258000D03*
X62462000Y111258000D03*
X59922000Y111258000D03*
X57382000Y111258000D03*
X54842000Y111258000D03*
X52302000Y111258000D03*
X49762000Y111258000D03*
X47222000Y111258000D03*
X44682000Y111258000D03*
X62462000Y108718000D03*
X59922000Y108718000D03*
X57382000Y108718000D03*
X54842000Y108718000D03*
X52302000Y108718000D03*
X49762000Y108718000D03*
X47222000Y108718000D03*
X44682000Y108718000D03*
X62462000Y102668000D03*
X59922000Y102668000D03*
X57382000Y102668000D03*
X54842000Y102668000D03*
X52302000Y102668000D03*
X49762000Y102668000D03*
X47222000Y102668000D03*
X44682000Y102668000D03*
X62462000Y100128000D03*
X59922000Y100128000D03*
X57382000Y100128000D03*
X54842000Y100128000D03*
X52302000Y100128000D03*
X49762000Y100128000D03*
X47222000Y100128000D03*
X44682000Y100128000D03*
D20*
X36852000Y108258000D03*
X31052000Y108258000D03*
X25152000Y108258000D03*
X33952000Y105928000D03*
X28052000Y105928000D03*
X36852000Y100128000D03*
X31052000Y100128000D03*
X25152000Y100128000D03*
G04 #@! TD*
M02*
