G04 #@! TF.GenerationSoftware,KiCad,Pcbnew,8.0.8*
G04 #@! TF.CreationDate,2026-01-13T17:51:09-05:00*
G04 #@! TF.ProjectId,greenenergyecu,67726565-6e65-46e6-9572-67796563752e,d*
G04 #@! TF.SameCoordinates,PX2b953a0PY6943058*
G04 #@! TF.FileFunction,Soldermask,Top*
G04 #@! TF.FilePolarity,Negative*
%FSLAX46Y46*%
G04 Gerber Fmt 4.6, Leading zero omitted, Abs format (unit mm)*
G04 Created by KiCad (PCBNEW 8.0.8) date 2026-01-13 17:51:09*
%MOMM*%
%LPD*%
G01*
G04 APERTURE LIST*
%ADD10R,1.100000X1.100000*%
%ADD11C,1.100000*%
%ADD12O,2.400000X1.100000*%
%ADD13C,1.700000*%
%ADD14C,2.600000*%
%ADD15C,1.500000*%
%ADD16C,3.700000*%
%ADD17C,2.200000*%
%ADD18C,1.524000*%
%ADD19C,0.600000*%
%ADD20O,0.499999X0.250000*%
%ADD21O,0.250000X0.499999*%
%ADD22C,0.599999*%
%ADD23O,0.399999X0.200000*%
G04 APERTURE END LIST*
G04 #@! TO.C,R1*
G36*
G01*
X34949000Y26853000D02*
X34169000Y26853000D01*
G75*
G02*
X34099000Y26923000I0J70000D01*
G01*
X34099000Y27483000D01*
G75*
G02*
X34169000Y27553000I70000J0D01*
G01*
X34949000Y27553000D01*
G75*
G02*
X35019000Y27483000I0J-70000D01*
G01*
X35019000Y26923000D01*
G75*
G02*
X34949000Y26853000I-70000J0D01*
G01*
G37*
G36*
G01*
X34949000Y28453000D02*
X34169000Y28453000D01*
G75*
G02*
X34099000Y28523000I0J70000D01*
G01*
X34099000Y29083000D01*
G75*
G02*
X34169000Y29153000I70000J0D01*
G01*
X34949000Y29153000D01*
G75*
G02*
X35019000Y29083000I0J-70000D01*
G01*
X35019000Y28523000D01*
G75*
G02*
X34949000Y28453000I-70000J0D01*
G01*
G37*
G04 #@! TD*
D10*
G04 #@! TO.C,J22*
X102050000Y99625000D03*
D11*
X100300000Y100425000D03*
X102050000Y101225000D03*
X100300000Y102025000D03*
X102050000Y102825000D03*
D12*
X101175000Y97575000D03*
X101175000Y104875000D03*
G04 #@! TD*
G04 #@! TO.C,R309*
G36*
G01*
X88250000Y96955000D02*
X88250000Y97735000D01*
G75*
G02*
X88320000Y97805000I70000J0D01*
G01*
X88880000Y97805000D01*
G75*
G02*
X88950000Y97735000I0J-70000D01*
G01*
X88950000Y96955000D01*
G75*
G02*
X88880000Y96885000I-70000J0D01*
G01*
X88320000Y96885000D01*
G75*
G02*
X88250000Y96955000I0J70000D01*
G01*
G37*
G36*
G01*
X89850000Y96955000D02*
X89850000Y97735000D01*
G75*
G02*
X89920000Y97805000I70000J0D01*
G01*
X90480000Y97805000D01*
G75*
G02*
X90550000Y97735000I0J-70000D01*
G01*
X90550000Y96955000D01*
G75*
G02*
X90480000Y96885000I-70000J0D01*
G01*
X89920000Y96885000D01*
G75*
G02*
X89850000Y96955000I0J70000D01*
G01*
G37*
G04 #@! TD*
G04 #@! TO.C,D1*
G36*
G01*
X9564000Y68870000D02*
X8264000Y68870000D01*
G75*
G02*
X8014000Y69120000I0J250000D01*
G01*
X8014000Y71120000D01*
G75*
G02*
X8264000Y71370000I250000J0D01*
G01*
X9564000Y71370000D01*
G75*
G02*
X9814000Y71120000I0J-250000D01*
G01*
X9814000Y69120000D01*
G75*
G02*
X9564000Y68870000I-250000J0D01*
G01*
G37*
G36*
G01*
X9564000Y72870000D02*
X8264000Y72870000D01*
G75*
G02*
X8014000Y73120000I0J250000D01*
G01*
X8014000Y75120000D01*
G75*
G02*
X8264000Y75370000I250000J0D01*
G01*
X9564000Y75370000D01*
G75*
G02*
X9814000Y75120000I0J-250000D01*
G01*
X9814000Y73120000D01*
G75*
G02*
X9564000Y72870000I-250000J0D01*
G01*
G37*
G04 #@! TD*
D13*
G04 #@! TO.C,G16*
X153640000Y76145000D03*
X151100000Y76145000D03*
X148560000Y76145000D03*
X153640000Y73605000D03*
X151100000Y73605000D03*
X148560000Y73605000D03*
X153640000Y71065000D03*
X151100000Y71065000D03*
X148560000Y71065000D03*
G04 #@! TD*
D14*
G04 #@! TO.C,P1*
X138448000Y18622000D03*
X132548000Y18622000D03*
X126748000Y18622000D03*
X135548000Y12822000D03*
X129648000Y12822000D03*
X138448000Y10492000D03*
X132548000Y10492000D03*
X126748000Y10492000D03*
D15*
X118918000Y18622000D03*
X116378000Y18622000D03*
X113838000Y18622000D03*
X111298000Y18622000D03*
X108758000Y18622000D03*
X106218000Y18622000D03*
X103678000Y18622000D03*
X101138000Y18622000D03*
X118918000Y16082000D03*
X116378000Y16082000D03*
X113838000Y16082000D03*
X111298000Y16082000D03*
X108758000Y16082000D03*
X106218000Y16082000D03*
X103678000Y16082000D03*
X101138000Y16082000D03*
X118918000Y10032000D03*
X116378000Y10032000D03*
X113838000Y10032000D03*
X111298000Y10032000D03*
X108758000Y10032000D03*
X106218000Y10032000D03*
X103678000Y10032000D03*
X101138000Y10032000D03*
X118918000Y7492000D03*
X116378000Y7492000D03*
X113838000Y7492000D03*
X111298000Y7492000D03*
X108758000Y7492000D03*
X106218000Y7492000D03*
X103678000Y7492000D03*
X101138000Y7492000D03*
X39448000Y7492000D03*
X41988000Y7492000D03*
X44528000Y7492000D03*
X47068000Y7492000D03*
X49608000Y7492000D03*
X52148000Y7492000D03*
X54688000Y7492000D03*
X57228000Y7492000D03*
X59768000Y7492000D03*
X62308000Y7492000D03*
X64848000Y7492000D03*
X67388000Y7492000D03*
X69928000Y7492000D03*
X72468000Y7492000D03*
X75008000Y7492000D03*
X77548000Y7492000D03*
X80088000Y7492000D03*
X82628000Y7492000D03*
X85168000Y7492000D03*
X39448000Y10032000D03*
X41988000Y10032000D03*
X44528000Y10032000D03*
X47068000Y10032000D03*
X49608000Y10032000D03*
X52148000Y10032000D03*
X54688000Y10032000D03*
X57228000Y10032000D03*
X59768000Y10032000D03*
X62308000Y10032000D03*
X64848000Y10032000D03*
X67388000Y10032000D03*
X69928000Y10032000D03*
X72468000Y10032000D03*
X75008000Y10032000D03*
X77548000Y10032000D03*
X80088000Y10032000D03*
X82628000Y10032000D03*
X85168000Y10032000D03*
X39448000Y16082000D03*
X41988000Y16082000D03*
X44528000Y16082000D03*
X47068000Y16082000D03*
X49608000Y16082000D03*
X52148000Y16082000D03*
X54688000Y16082000D03*
X57228000Y16082000D03*
X59768000Y16082000D03*
X62308000Y16082000D03*
X64848000Y16082000D03*
X67388000Y16082000D03*
X69928000Y16082000D03*
X72468000Y16082000D03*
X75008000Y16082000D03*
X77548000Y16082000D03*
X80088000Y16082000D03*
X82628000Y16082000D03*
X85168000Y16082000D03*
X39448000Y18622000D03*
X41988000Y18622000D03*
X44528000Y18622000D03*
X47068000Y18622000D03*
X49608000Y18622000D03*
X52148000Y18622000D03*
X54688000Y18622000D03*
X57228000Y18622000D03*
X59768000Y18622000D03*
X62308000Y18622000D03*
X64848000Y18622000D03*
X67388000Y18622000D03*
X69928000Y18622000D03*
X72468000Y18622000D03*
X75008000Y18622000D03*
X77548000Y18622000D03*
X80088000Y18622000D03*
X82628000Y18622000D03*
X85168000Y18622000D03*
D14*
X31548000Y18622000D03*
X25748000Y18622000D03*
X28648000Y12822000D03*
X31548000Y10492000D03*
X25748000Y10492000D03*
D16*
X145348000Y5492000D03*
D17*
X142898000Y13292000D03*
D16*
X93148000Y5492000D03*
D17*
X21098000Y13292000D03*
D16*
X18648000Y5492000D03*
G04 #@! TD*
D18*
G04 #@! TO.C,F842*
X147770000Y93865000D03*
G36*
G01*
X148670000Y95209990D02*
X148670000Y94519990D01*
G75*
G02*
X148440000Y94289990I-230000J0D01*
G01*
X147100000Y94289990D01*
G75*
G02*
X146870000Y94519990I0J230000D01*
G01*
X146870000Y95209990D01*
G75*
G02*
X147100000Y95439990I230000J0D01*
G01*
X148440000Y95439990D01*
G75*
G02*
X148670000Y95209990I0J-230000D01*
G01*
G37*
G36*
G01*
X148670000Y98110010D02*
X148670000Y97420010D01*
G75*
G02*
X148440000Y97190010I-230000J0D01*
G01*
X147100000Y97190010D01*
G75*
G02*
X146870000Y97420010I0J230000D01*
G01*
X146870000Y98110010D01*
G75*
G02*
X147100000Y98340010I230000J0D01*
G01*
X148440000Y98340010D01*
G75*
G02*
X148670000Y98110010I0J-230000D01*
G01*
G37*
X147770000Y98765000D03*
G04 #@! TD*
G04 #@! TO.C,Q901*
G36*
G01*
X99295000Y54460000D02*
X99995000Y54460000D01*
G75*
G02*
X100245000Y54210000I0J-250000D01*
G01*
X100245000Y52510000D01*
G75*
G02*
X99995000Y52260000I-250000J0D01*
G01*
X99295000Y52260000D01*
G75*
G02*
X99045000Y52510000I0J250000D01*
G01*
X99045000Y54210000D01*
G75*
G02*
X99295000Y54460000I250000J0D01*
G01*
G37*
G36*
G01*
X94714997Y50260000D02*
X100015003Y50260000D01*
G75*
G02*
X100265000Y50010003I0J-249997D01*
G01*
X100265000Y44109997D01*
G75*
G02*
X100015003Y43860000I-249997J0D01*
G01*
X94714997Y43860000D01*
G75*
G02*
X94465000Y44109997I0J249997D01*
G01*
X94465000Y50010003D01*
G75*
G02*
X94714997Y50260000I249997J0D01*
G01*
G37*
G36*
G01*
X94735000Y54460000D02*
X95435000Y54460000D01*
G75*
G02*
X95685000Y54210000I0J-250000D01*
G01*
X95685000Y52510000D01*
G75*
G02*
X95435000Y52260000I-250000J0D01*
G01*
X94735000Y52260000D01*
G75*
G02*
X94485000Y52510000I0J250000D01*
G01*
X94485000Y54210000D01*
G75*
G02*
X94735000Y54460000I250000J0D01*
G01*
G37*
G04 #@! TD*
G04 #@! TO.C,F843*
X92980010Y55345000D03*
G36*
G01*
X91635020Y56245000D02*
X92325020Y56245000D01*
G75*
G02*
X92555020Y56015000I0J-230000D01*
G01*
X92555020Y54675000D01*
G75*
G02*
X92325020Y54445000I-230000J0D01*
G01*
X91635020Y54445000D01*
G75*
G02*
X91405020Y54675000I0J230000D01*
G01*
X91405020Y56015000D01*
G75*
G02*
X91635020Y56245000I230000J0D01*
G01*
G37*
G36*
G01*
X88735000Y56245000D02*
X89425000Y56245000D01*
G75*
G02*
X89655000Y56015000I0J-230000D01*
G01*
X89655000Y54675000D01*
G75*
G02*
X89425000Y54445000I-230000J0D01*
G01*
X88735000Y54445000D01*
G75*
G02*
X88505000Y54675000I0J230000D01*
G01*
X88505000Y56015000D01*
G75*
G02*
X88735000Y56245000I230000J0D01*
G01*
G37*
X88080010Y55345000D03*
G04 #@! TD*
G04 #@! TO.C,Q841*
G36*
G01*
X131670000Y54505000D02*
X132370000Y54505000D01*
G75*
G02*
X132620000Y54255000I0J-250000D01*
G01*
X132620000Y52555000D01*
G75*
G02*
X132370000Y52305000I-250000J0D01*
G01*
X131670000Y52305000D01*
G75*
G02*
X131420000Y52555000I0J250000D01*
G01*
X131420000Y54255000D01*
G75*
G02*
X131670000Y54505000I250000J0D01*
G01*
G37*
G36*
G01*
X127089997Y50305000D02*
X132390003Y50305000D01*
G75*
G02*
X132640000Y50055003I0J-249997D01*
G01*
X132640000Y44154997D01*
G75*
G02*
X132390003Y43905000I-249997J0D01*
G01*
X127089997Y43905000D01*
G75*
G02*
X126840000Y44154997I0J249997D01*
G01*
X126840000Y50055003D01*
G75*
G02*
X127089997Y50305000I249997J0D01*
G01*
G37*
G36*
G01*
X127110000Y54505000D02*
X127810000Y54505000D01*
G75*
G02*
X128060000Y54255000I0J-250000D01*
G01*
X128060000Y52555000D01*
G75*
G02*
X127810000Y52305000I-250000J0D01*
G01*
X127110000Y52305000D01*
G75*
G02*
X126860000Y52555000I0J250000D01*
G01*
X126860000Y54255000D01*
G75*
G02*
X127110000Y54505000I250000J0D01*
G01*
G37*
G04 #@! TD*
G04 #@! TO.C,F841*
X97541010Y41814000D03*
G36*
G01*
X96196020Y42714000D02*
X96886020Y42714000D01*
G75*
G02*
X97116020Y42484000I0J-230000D01*
G01*
X97116020Y41144000D01*
G75*
G02*
X96886020Y40914000I-230000J0D01*
G01*
X96196020Y40914000D01*
G75*
G02*
X95966020Y41144000I0J230000D01*
G01*
X95966020Y42484000D01*
G75*
G02*
X96196020Y42714000I230000J0D01*
G01*
G37*
G36*
G01*
X93296000Y42714000D02*
X93986000Y42714000D01*
G75*
G02*
X94216000Y42484000I0J-230000D01*
G01*
X94216000Y41144000D01*
G75*
G02*
X93986000Y40914000I-230000J0D01*
G01*
X93296000Y40914000D01*
G75*
G02*
X93066000Y41144000I0J230000D01*
G01*
X93066000Y42484000D01*
G75*
G02*
X93296000Y42714000I230000J0D01*
G01*
G37*
X92641010Y41814000D03*
G04 #@! TD*
G04 #@! TO.C,R843*
G36*
G01*
X32821000Y42411000D02*
X32821000Y43191000D01*
G75*
G02*
X32891000Y43261000I70000J0D01*
G01*
X33451000Y43261000D01*
G75*
G02*
X33521000Y43191000I0J-70000D01*
G01*
X33521000Y42411000D01*
G75*
G02*
X33451000Y42341000I-70000J0D01*
G01*
X32891000Y42341000D01*
G75*
G02*
X32821000Y42411000I0J70000D01*
G01*
G37*
G36*
G01*
X34421000Y42411000D02*
X34421000Y43191000D01*
G75*
G02*
X34491000Y43261000I70000J0D01*
G01*
X35051000Y43261000D01*
G75*
G02*
X35121000Y43191000I0J-70000D01*
G01*
X35121000Y42411000D01*
G75*
G02*
X35051000Y42341000I-70000J0D01*
G01*
X34491000Y42341000D01*
G75*
G02*
X34421000Y42411000I0J70000D01*
G01*
G37*
G04 #@! TD*
G04 #@! TO.C,R847*
G36*
G01*
X44393000Y60126000D02*
X43613000Y60126000D01*
G75*
G02*
X43543000Y60196000I0J70000D01*
G01*
X43543000Y60756000D01*
G75*
G02*
X43613000Y60826000I70000J0D01*
G01*
X44393000Y60826000D01*
G75*
G02*
X44463000Y60756000I0J-70000D01*
G01*
X44463000Y60196000D01*
G75*
G02*
X44393000Y60126000I-70000J0D01*
G01*
G37*
G36*
G01*
X44393000Y61726000D02*
X43613000Y61726000D01*
G75*
G02*
X43543000Y61796000I0J70000D01*
G01*
X43543000Y62356000D01*
G75*
G02*
X43613000Y62426000I70000J0D01*
G01*
X44393000Y62426000D01*
G75*
G02*
X44463000Y62356000I0J-70000D01*
G01*
X44463000Y61796000D01*
G75*
G02*
X44393000Y61726000I-70000J0D01*
G01*
G37*
G04 #@! TD*
G04 #@! TO.C,Q905*
G36*
G01*
X121970000Y67345000D02*
X122670000Y67345000D01*
G75*
G02*
X122920000Y67095000I0J-250000D01*
G01*
X122920000Y65395000D01*
G75*
G02*
X122670000Y65145000I-250000J0D01*
G01*
X121970000Y65145000D01*
G75*
G02*
X121720000Y65395000I0J250000D01*
G01*
X121720000Y67095000D01*
G75*
G02*
X121970000Y67345000I250000J0D01*
G01*
G37*
G36*
G01*
X117389997Y63145000D02*
X122690003Y63145000D01*
G75*
G02*
X122940000Y62895003I0J-249997D01*
G01*
X122940000Y56994997D01*
G75*
G02*
X122690003Y56745000I-249997J0D01*
G01*
X117389997Y56745000D01*
G75*
G02*
X117140000Y56994997I0J249997D01*
G01*
X117140000Y62895003D01*
G75*
G02*
X117389997Y63145000I249997J0D01*
G01*
G37*
G36*
G01*
X117410000Y67345000D02*
X118110000Y67345000D01*
G75*
G02*
X118360000Y67095000I0J-250000D01*
G01*
X118360000Y65395000D01*
G75*
G02*
X118110000Y65145000I-250000J0D01*
G01*
X117410000Y65145000D01*
G75*
G02*
X117160000Y65395000I0J250000D01*
G01*
X117160000Y67095000D01*
G75*
G02*
X117410000Y67345000I250000J0D01*
G01*
G37*
G04 #@! TD*
G04 #@! TO.C,R848*
G36*
G01*
X49082072Y60327000D02*
X48302072Y60327000D01*
G75*
G02*
X48232072Y60397000I0J70000D01*
G01*
X48232072Y60957000D01*
G75*
G02*
X48302072Y61027000I70000J0D01*
G01*
X49082072Y61027000D01*
G75*
G02*
X49152072Y60957000I0J-70000D01*
G01*
X49152072Y60397000D01*
G75*
G02*
X49082072Y60327000I-70000J0D01*
G01*
G37*
G36*
G01*
X49082072Y61927000D02*
X48302072Y61927000D01*
G75*
G02*
X48232072Y61997000I0J70000D01*
G01*
X48232072Y62557000D01*
G75*
G02*
X48302072Y62627000I70000J0D01*
G01*
X49082072Y62627000D01*
G75*
G02*
X49152072Y62557000I0J-70000D01*
G01*
X49152072Y61997000D01*
G75*
G02*
X49082072Y61927000I-70000J0D01*
G01*
G37*
G04 #@! TD*
D13*
G04 #@! TO.C,G11*
X93980000Y77635000D03*
X93980000Y75095000D03*
X93980000Y72555000D03*
X96520000Y77635000D03*
X96520000Y75095000D03*
X96520000Y72555000D03*
X99060000Y77635000D03*
X99060000Y75095000D03*
X99060000Y72555000D03*
G04 #@! TD*
D19*
G04 #@! TO.C,M3*
X43423000Y58503000D03*
X44623000Y58503000D03*
X42223000Y58503000D03*
X41023000Y58503000D03*
X47483000Y44078000D03*
X48483000Y44078000D03*
G04 #@! TD*
G04 #@! TO.C,Q845*
G36*
G01*
X153400000Y66855000D02*
X154100000Y66855000D01*
G75*
G02*
X154350000Y66605000I0J-250000D01*
G01*
X154350000Y64905000D01*
G75*
G02*
X154100000Y64655000I-250000J0D01*
G01*
X153400000Y64655000D01*
G75*
G02*
X153150000Y64905000I0J250000D01*
G01*
X153150000Y66605000D01*
G75*
G02*
X153400000Y66855000I250000J0D01*
G01*
G37*
G36*
G01*
X148819997Y62655000D02*
X154120003Y62655000D01*
G75*
G02*
X154370000Y62405003I0J-249997D01*
G01*
X154370000Y56504997D01*
G75*
G02*
X154120003Y56255000I-249997J0D01*
G01*
X148819997Y56255000D01*
G75*
G02*
X148570000Y56504997I0J249997D01*
G01*
X148570000Y62405003D01*
G75*
G02*
X148819997Y62655000I249997J0D01*
G01*
G37*
G36*
G01*
X148840000Y66855000D02*
X149540000Y66855000D01*
G75*
G02*
X149790000Y66605000I0J-250000D01*
G01*
X149790000Y64905000D01*
G75*
G02*
X149540000Y64655000I-250000J0D01*
G01*
X148840000Y64655000D01*
G75*
G02*
X148590000Y64905000I0J250000D01*
G01*
X148590000Y66605000D01*
G75*
G02*
X148840000Y66855000I250000J0D01*
G01*
G37*
G04 #@! TD*
G04 #@! TO.C,Q842*
G36*
G01*
X153345000Y38350000D02*
X154045000Y38350000D01*
G75*
G02*
X154295000Y38100000I0J-250000D01*
G01*
X154295000Y36400000D01*
G75*
G02*
X154045000Y36150000I-250000J0D01*
G01*
X153345000Y36150000D01*
G75*
G02*
X153095000Y36400000I0J250000D01*
G01*
X153095000Y38100000D01*
G75*
G02*
X153345000Y38350000I250000J0D01*
G01*
G37*
G36*
G01*
X148764997Y34150000D02*
X154065003Y34150000D01*
G75*
G02*
X154315000Y33900003I0J-249997D01*
G01*
X154315000Y27999997D01*
G75*
G02*
X154065003Y27750000I-249997J0D01*
G01*
X148764997Y27750000D01*
G75*
G02*
X148515000Y27999997I0J249997D01*
G01*
X148515000Y33900003D01*
G75*
G02*
X148764997Y34150000I249997J0D01*
G01*
G37*
G36*
G01*
X148785000Y38350000D02*
X149485000Y38350000D01*
G75*
G02*
X149735000Y38100000I0J-250000D01*
G01*
X149735000Y36400000D01*
G75*
G02*
X149485000Y36150000I-250000J0D01*
G01*
X148785000Y36150000D01*
G75*
G02*
X148535000Y36400000I0J250000D01*
G01*
X148535000Y38100000D01*
G75*
G02*
X148785000Y38350000I250000J0D01*
G01*
G37*
G04 #@! TD*
D15*
G04 #@! TO.C,M1*
X136699997Y92594999D03*
X130300000Y92594999D03*
X128399997Y92594999D03*
X124099997Y92594999D03*
D19*
X121700000Y92145000D03*
X120699999Y92145000D03*
D15*
X117849997Y92594999D03*
X137149999Y108094996D03*
X135300000Y108094996D03*
X130349997Y108094996D03*
X118299999Y108094996D03*
G04 #@! TD*
D19*
G04 #@! TO.C,M4*
X32947000Y58421000D03*
X34147000Y58421000D03*
X31747000Y58421000D03*
X30547000Y58421000D03*
X37007000Y43996000D03*
X38007000Y43996000D03*
G04 #@! TD*
D13*
G04 #@! TO.C,G6*
X148890000Y62175000D03*
X148890000Y59635000D03*
X148890000Y57095000D03*
X151430000Y62175000D03*
X151430000Y59635000D03*
X151430000Y57095000D03*
X153970000Y62175000D03*
X153970000Y59635000D03*
X153970000Y57095000D03*
G04 #@! TD*
G04 #@! TO.C,G15*
X117330000Y34045000D03*
X117330000Y31505000D03*
X117330000Y28965000D03*
X119870000Y34045000D03*
X119870000Y31505000D03*
X119870000Y28965000D03*
X122410000Y34045000D03*
X122410000Y31505000D03*
X122410000Y28965000D03*
G04 #@! TD*
G04 #@! TO.C,R311*
G36*
G01*
X85390000Y96965000D02*
X85390000Y97745000D01*
G75*
G02*
X85460000Y97815000I70000J0D01*
G01*
X86020000Y97815000D01*
G75*
G02*
X86090000Y97745000I0J-70000D01*
G01*
X86090000Y96965000D01*
G75*
G02*
X86020000Y96895000I-70000J0D01*
G01*
X85460000Y96895000D01*
G75*
G02*
X85390000Y96965000I0J70000D01*
G01*
G37*
G36*
G01*
X86990000Y96965000D02*
X86990000Y97745000D01*
G75*
G02*
X87060000Y97815000I70000J0D01*
G01*
X87620000Y97815000D01*
G75*
G02*
X87690000Y97745000I0J-70000D01*
G01*
X87690000Y96965000D01*
G75*
G02*
X87620000Y96895000I-70000J0D01*
G01*
X87060000Y96895000D01*
G75*
G02*
X86990000Y96965000I0J70000D01*
G01*
G37*
G04 #@! TD*
G04 #@! TO.C,R313*
G36*
G01*
X90040000Y95385000D02*
X90040000Y96165000D01*
G75*
G02*
X90110000Y96235000I70000J0D01*
G01*
X90670000Y96235000D01*
G75*
G02*
X90740000Y96165000I0J-70000D01*
G01*
X90740000Y95385000D01*
G75*
G02*
X90670000Y95315000I-70000J0D01*
G01*
X90110000Y95315000D01*
G75*
G02*
X90040000Y95385000I0J70000D01*
G01*
G37*
G36*
G01*
X91640000Y95385000D02*
X91640000Y96165000D01*
G75*
G02*
X91710000Y96235000I70000J0D01*
G01*
X92270000Y96235000D01*
G75*
G02*
X92340000Y96165000I0J-70000D01*
G01*
X92340000Y95385000D01*
G75*
G02*
X92270000Y95315000I-70000J0D01*
G01*
X91710000Y95315000D01*
G75*
G02*
X91640000Y95385000I0J70000D01*
G01*
G37*
G04 #@! TD*
G04 #@! TO.C,Q903*
G36*
G01*
X98500000Y82410000D02*
X99200000Y82410000D01*
G75*
G02*
X99450000Y82160000I0J-250000D01*
G01*
X99450000Y80460000D01*
G75*
G02*
X99200000Y80210000I-250000J0D01*
G01*
X98500000Y80210000D01*
G75*
G02*
X98250000Y80460000I0J250000D01*
G01*
X98250000Y82160000D01*
G75*
G02*
X98500000Y82410000I250000J0D01*
G01*
G37*
G36*
G01*
X93919997Y78210000D02*
X99220003Y78210000D01*
G75*
G02*
X99470000Y77960003I0J-249997D01*
G01*
X99470000Y72059997D01*
G75*
G02*
X99220003Y71810000I-249997J0D01*
G01*
X93919997Y71810000D01*
G75*
G02*
X93670000Y72059997I0J249997D01*
G01*
X93670000Y77960003D01*
G75*
G02*
X93919997Y78210000I249997J0D01*
G01*
G37*
G36*
G01*
X93940000Y82410000D02*
X94640000Y82410000D01*
G75*
G02*
X94890000Y82160000I0J-250000D01*
G01*
X94890000Y80460000D01*
G75*
G02*
X94640000Y80210000I-250000J0D01*
G01*
X93940000Y80210000D01*
G75*
G02*
X93690000Y80460000I0J250000D01*
G01*
X93690000Y82160000D01*
G75*
G02*
X93940000Y82410000I250000J0D01*
G01*
G37*
G04 #@! TD*
G04 #@! TO.C,Q906*
G36*
G01*
X122260000Y54495000D02*
X122960000Y54495000D01*
G75*
G02*
X123210000Y54245000I0J-250000D01*
G01*
X123210000Y52545000D01*
G75*
G02*
X122960000Y52295000I-250000J0D01*
G01*
X122260000Y52295000D01*
G75*
G02*
X122010000Y52545000I0J250000D01*
G01*
X122010000Y54245000D01*
G75*
G02*
X122260000Y54495000I250000J0D01*
G01*
G37*
G36*
G01*
X117679997Y50295000D02*
X122980003Y50295000D01*
G75*
G02*
X123230000Y50045003I0J-249997D01*
G01*
X123230000Y44144997D01*
G75*
G02*
X122980003Y43895000I-249997J0D01*
G01*
X117679997Y43895000D01*
G75*
G02*
X117430000Y44144997I0J249997D01*
G01*
X117430000Y50045003D01*
G75*
G02*
X117679997Y50295000I249997J0D01*
G01*
G37*
G36*
G01*
X117700000Y54495000D02*
X118400000Y54495000D01*
G75*
G02*
X118650000Y54245000I0J-250000D01*
G01*
X118650000Y52545000D01*
G75*
G02*
X118400000Y52295000I-250000J0D01*
G01*
X117700000Y52295000D01*
G75*
G02*
X117450000Y52545000I0J250000D01*
G01*
X117450000Y54245000D01*
G75*
G02*
X117700000Y54495000I250000J0D01*
G01*
G37*
G04 #@! TD*
G04 #@! TO.C,G10*
X94130000Y62885000D03*
X94130000Y60345000D03*
X94130000Y57805000D03*
X96670000Y62885000D03*
X96670000Y60345000D03*
X96670000Y57805000D03*
X99210000Y62885000D03*
X99210000Y60345000D03*
X99210000Y57805000D03*
G04 #@! TD*
G04 #@! TO.C,Q907*
G36*
G01*
X121860000Y38765000D02*
X122560000Y38765000D01*
G75*
G02*
X122810000Y38515000I0J-250000D01*
G01*
X122810000Y36815000D01*
G75*
G02*
X122560000Y36565000I-250000J0D01*
G01*
X121860000Y36565000D01*
G75*
G02*
X121610000Y36815000I0J250000D01*
G01*
X121610000Y38515000D01*
G75*
G02*
X121860000Y38765000I250000J0D01*
G01*
G37*
G36*
G01*
X117279997Y34565000D02*
X122580003Y34565000D01*
G75*
G02*
X122830000Y34315003I0J-249997D01*
G01*
X122830000Y28414997D01*
G75*
G02*
X122580003Y28165000I-249997J0D01*
G01*
X117279997Y28165000D01*
G75*
G02*
X117030000Y28414997I0J249997D01*
G01*
X117030000Y34315003D01*
G75*
G02*
X117279997Y34565000I249997J0D01*
G01*
G37*
G36*
G01*
X117300000Y38765000D02*
X118000000Y38765000D01*
G75*
G02*
X118250000Y38515000I0J-250000D01*
G01*
X118250000Y36815000D01*
G75*
G02*
X118000000Y36565000I-250000J0D01*
G01*
X117300000Y36565000D01*
G75*
G02*
X117050000Y36815000I0J250000D01*
G01*
X117050000Y38515000D01*
G75*
G02*
X117300000Y38765000I250000J0D01*
G01*
G37*
G04 #@! TD*
G04 #@! TO.C,Q900*
G36*
G01*
X99157500Y38915000D02*
X99857500Y38915000D01*
G75*
G02*
X100107500Y38665000I0J-250000D01*
G01*
X100107500Y36965000D01*
G75*
G02*
X99857500Y36715000I-250000J0D01*
G01*
X99157500Y36715000D01*
G75*
G02*
X98907500Y36965000I0J250000D01*
G01*
X98907500Y38665000D01*
G75*
G02*
X99157500Y38915000I250000J0D01*
G01*
G37*
G36*
G01*
X94577497Y34715000D02*
X99877503Y34715000D01*
G75*
G02*
X100127500Y34465003I0J-249997D01*
G01*
X100127500Y28564997D01*
G75*
G02*
X99877503Y28315000I-249997J0D01*
G01*
X94577497Y28315000D01*
G75*
G02*
X94327500Y28564997I0J249997D01*
G01*
X94327500Y34465003D01*
G75*
G02*
X94577497Y34715000I249997J0D01*
G01*
G37*
G36*
G01*
X94597500Y38915000D02*
X95297500Y38915000D01*
G75*
G02*
X95547500Y38665000I0J-250000D01*
G01*
X95547500Y36965000D01*
G75*
G02*
X95297500Y36715000I-250000J0D01*
G01*
X94597500Y36715000D01*
G75*
G02*
X94347500Y36965000I0J250000D01*
G01*
X94347500Y38665000D01*
G75*
G02*
X94597500Y38915000I250000J0D01*
G01*
G37*
G04 #@! TD*
D18*
G04 #@! TO.C,R846*
X111855000Y101355000D03*
G36*
G01*
X111400001Y101980000D02*
X111400001Y100730000D01*
G75*
G02*
X111300001Y100630000I-100000J0D01*
G01*
X110500001Y100630000D01*
G75*
G02*
X110400001Y100730000I0J100000D01*
G01*
X110400001Y101980000D01*
G75*
G02*
X110500001Y102080000I100000J0D01*
G01*
X111300001Y102080000D01*
G75*
G02*
X111400001Y101980000I0J-100000D01*
G01*
G37*
G36*
G01*
X109499979Y101980000D02*
X109499979Y100730000D01*
G75*
G02*
X109399979Y100630000I-100000J0D01*
G01*
X108599979Y100630000D01*
G75*
G02*
X108499979Y100730000I0J100000D01*
G01*
X108499979Y101980000D01*
G75*
G02*
X108599979Y102080000I100000J0D01*
G01*
X109399979Y102080000D01*
G75*
G02*
X109499979Y101980000I0J-100000D01*
G01*
G37*
X108045000Y101355000D03*
G04 #@! TD*
G04 #@! TO.C,R315*
G36*
G01*
X87220000Y95395000D02*
X87220000Y96175000D01*
G75*
G02*
X87290000Y96245000I70000J0D01*
G01*
X87850000Y96245000D01*
G75*
G02*
X87920000Y96175000I0J-70000D01*
G01*
X87920000Y95395000D01*
G75*
G02*
X87850000Y95325000I-70000J0D01*
G01*
X87290000Y95325000D01*
G75*
G02*
X87220000Y95395000I0J70000D01*
G01*
G37*
G36*
G01*
X88820000Y95395000D02*
X88820000Y96175000D01*
G75*
G02*
X88890000Y96245000I70000J0D01*
G01*
X89450000Y96245000D01*
G75*
G02*
X89520000Y96175000I0J-70000D01*
G01*
X89520000Y95395000D01*
G75*
G02*
X89450000Y95325000I-70000J0D01*
G01*
X88890000Y95325000D01*
G75*
G02*
X88820000Y95395000I0J70000D01*
G01*
G37*
G04 #@! TD*
G04 #@! TO.C,Q843*
G36*
G01*
X153492500Y53987500D02*
X154192500Y53987500D01*
G75*
G02*
X154442500Y53737500I0J-250000D01*
G01*
X154442500Y52037500D01*
G75*
G02*
X154192500Y51787500I-250000J0D01*
G01*
X153492500Y51787500D01*
G75*
G02*
X153242500Y52037500I0J250000D01*
G01*
X153242500Y53737500D01*
G75*
G02*
X153492500Y53987500I250000J0D01*
G01*
G37*
G36*
G01*
X148912497Y49787500D02*
X154212503Y49787500D01*
G75*
G02*
X154462500Y49537503I0J-249997D01*
G01*
X154462500Y43637497D01*
G75*
G02*
X154212503Y43387500I-249997J0D01*
G01*
X148912497Y43387500D01*
G75*
G02*
X148662500Y43637497I0J249997D01*
G01*
X148662500Y49537503D01*
G75*
G02*
X148912497Y49787500I249997J0D01*
G01*
G37*
G36*
G01*
X148932500Y53987500D02*
X149632500Y53987500D01*
G75*
G02*
X149882500Y53737500I0J-250000D01*
G01*
X149882500Y52037500D01*
G75*
G02*
X149632500Y51787500I-250000J0D01*
G01*
X148932500Y51787500D01*
G75*
G02*
X148682500Y52037500I0J250000D01*
G01*
X148682500Y53737500D01*
G75*
G02*
X148932500Y53987500I250000J0D01*
G01*
G37*
G04 #@! TD*
G04 #@! TO.C,Q846*
G36*
G01*
X131760000Y38437500D02*
X132460000Y38437500D01*
G75*
G02*
X132710000Y38187500I0J-250000D01*
G01*
X132710000Y36487500D01*
G75*
G02*
X132460000Y36237500I-250000J0D01*
G01*
X131760000Y36237500D01*
G75*
G02*
X131510000Y36487500I0J250000D01*
G01*
X131510000Y38187500D01*
G75*
G02*
X131760000Y38437500I250000J0D01*
G01*
G37*
G36*
G01*
X127179997Y34237500D02*
X132480003Y34237500D01*
G75*
G02*
X132730000Y33987503I0J-249997D01*
G01*
X132730000Y28087497D01*
G75*
G02*
X132480003Y27837500I-249997J0D01*
G01*
X127179997Y27837500D01*
G75*
G02*
X126930000Y28087497I0J249997D01*
G01*
X126930000Y33987503D01*
G75*
G02*
X127179997Y34237500I249997J0D01*
G01*
G37*
G36*
G01*
X127200000Y38437500D02*
X127900000Y38437500D01*
G75*
G02*
X128150000Y38187500I0J-250000D01*
G01*
X128150000Y36487500D01*
G75*
G02*
X127900000Y36237500I-250000J0D01*
G01*
X127200000Y36237500D01*
G75*
G02*
X126950000Y36487500I0J250000D01*
G01*
X126950000Y38187500D01*
G75*
G02*
X127200000Y38437500I250000J0D01*
G01*
G37*
G04 #@! TD*
G04 #@! TO.C,R842*
G36*
G01*
X68286000Y67180000D02*
X68286000Y66400000D01*
G75*
G02*
X68216000Y66330000I-70000J0D01*
G01*
X67656000Y66330000D01*
G75*
G02*
X67586000Y66400000I0J70000D01*
G01*
X67586000Y67180000D01*
G75*
G02*
X67656000Y67250000I70000J0D01*
G01*
X68216000Y67250000D01*
G75*
G02*
X68286000Y67180000I0J-70000D01*
G01*
G37*
G36*
G01*
X66686000Y67180000D02*
X66686000Y66400000D01*
G75*
G02*
X66616000Y66330000I-70000J0D01*
G01*
X66056000Y66330000D01*
G75*
G02*
X65986000Y66400000I0J70000D01*
G01*
X65986000Y67180000D01*
G75*
G02*
X66056000Y67250000I70000J0D01*
G01*
X66616000Y67250000D01*
G75*
G02*
X66686000Y67180000I0J-70000D01*
G01*
G37*
G04 #@! TD*
D13*
G04 #@! TO.C,G13*
X117470000Y62545000D03*
X117470000Y60005000D03*
X117470000Y57465000D03*
X120010000Y62545000D03*
X120010000Y60005000D03*
X120010000Y57465000D03*
X122550000Y62545000D03*
X122550000Y60005000D03*
X122550000Y57465000D03*
G04 #@! TD*
G04 #@! TO.C,G8*
X94630000Y34085000D03*
X94630000Y31545000D03*
X94630000Y29005000D03*
X97170000Y34085000D03*
X97170000Y31545000D03*
X97170000Y29005000D03*
X99710000Y34085000D03*
X99710000Y31545000D03*
X99710000Y29005000D03*
G04 #@! TD*
D18*
G04 #@! TO.C,F1*
X142960000Y94355000D03*
G36*
G01*
X143860000Y95699990D02*
X143860000Y95009990D01*
G75*
G02*
X143630000Y94779990I-230000J0D01*
G01*
X142290000Y94779990D01*
G75*
G02*
X142060000Y95009990I0J230000D01*
G01*
X142060000Y95699990D01*
G75*
G02*
X142290000Y95929990I230000J0D01*
G01*
X143630000Y95929990D01*
G75*
G02*
X143860000Y95699990I0J-230000D01*
G01*
G37*
G36*
G01*
X143860000Y98600010D02*
X143860000Y97910010D01*
G75*
G02*
X143630000Y97680010I-230000J0D01*
G01*
X142290000Y97680010D01*
G75*
G02*
X142060000Y97910010I0J230000D01*
G01*
X142060000Y98600010D01*
G75*
G02*
X142290000Y98830010I230000J0D01*
G01*
X143630000Y98830010D01*
G75*
G02*
X143860000Y98600010I0J-230000D01*
G01*
G37*
X142960000Y99255000D03*
G04 #@! TD*
G04 #@! TO.C,R307*
G36*
G01*
X83750000Y98595000D02*
X83750000Y99375000D01*
G75*
G02*
X83820000Y99445000I70000J0D01*
G01*
X84380000Y99445000D01*
G75*
G02*
X84450000Y99375000I0J-70000D01*
G01*
X84450000Y98595000D01*
G75*
G02*
X84380000Y98525000I-70000J0D01*
G01*
X83820000Y98525000D01*
G75*
G02*
X83750000Y98595000I0J70000D01*
G01*
G37*
G36*
G01*
X85350000Y98595000D02*
X85350000Y99375000D01*
G75*
G02*
X85420000Y99445000I70000J0D01*
G01*
X85980000Y99445000D01*
G75*
G02*
X86050000Y99375000I0J-70000D01*
G01*
X86050000Y98595000D01*
G75*
G02*
X85980000Y98525000I-70000J0D01*
G01*
X85420000Y98525000D01*
G75*
G02*
X85350000Y98595000I0J70000D01*
G01*
G37*
G04 #@! TD*
G04 #@! TO.C,R327*
G36*
G01*
X90910000Y93905000D02*
X90910000Y94685000D01*
G75*
G02*
X90980000Y94755000I70000J0D01*
G01*
X91540000Y94755000D01*
G75*
G02*
X91610000Y94685000I0J-70000D01*
G01*
X91610000Y93905000D01*
G75*
G02*
X91540000Y93835000I-70000J0D01*
G01*
X90980000Y93835000D01*
G75*
G02*
X90910000Y93905000I0J70000D01*
G01*
G37*
G36*
G01*
X92510000Y93905000D02*
X92510000Y94685000D01*
G75*
G02*
X92580000Y94755000I70000J0D01*
G01*
X93140000Y94755000D01*
G75*
G02*
X93210000Y94685000I0J-70000D01*
G01*
X93210000Y93905000D01*
G75*
G02*
X93140000Y93835000I-70000J0D01*
G01*
X92580000Y93835000D01*
G75*
G02*
X92510000Y93905000I0J70000D01*
G01*
G37*
G04 #@! TD*
D13*
G04 #@! TO.C,G9*
X94760000Y49635000D03*
X94760000Y47095000D03*
X94760000Y44555000D03*
X97300000Y49635000D03*
X97300000Y47095000D03*
X97300000Y44555000D03*
X99840000Y49635000D03*
X99840000Y47095000D03*
X99840000Y44555000D03*
G04 #@! TD*
D19*
G04 #@! TO.C,M2*
X26409002Y58386000D03*
X27359002Y58386000D03*
X28309000Y58386000D03*
X27309002Y49686000D03*
X26409002Y49686000D03*
G04 #@! TD*
G04 #@! TO.C,R841*
G36*
G01*
X65945000Y64555000D02*
X65945000Y65335000D01*
G75*
G02*
X66015000Y65405000I70000J0D01*
G01*
X66575000Y65405000D01*
G75*
G02*
X66645000Y65335000I0J-70000D01*
G01*
X66645000Y64555000D01*
G75*
G02*
X66575000Y64485000I-70000J0D01*
G01*
X66015000Y64485000D01*
G75*
G02*
X65945000Y64555000I0J70000D01*
G01*
G37*
G36*
G01*
X67545000Y64555000D02*
X67545000Y65335000D01*
G75*
G02*
X67615000Y65405000I70000J0D01*
G01*
X68175000Y65405000D01*
G75*
G02*
X68245000Y65335000I0J-70000D01*
G01*
X68245000Y64555000D01*
G75*
G02*
X68175000Y64485000I-70000J0D01*
G01*
X67615000Y64485000D01*
G75*
G02*
X67545000Y64555000I0J70000D01*
G01*
G37*
G04 #@! TD*
G04 #@! TO.C,R325*
G36*
G01*
X88030000Y93825000D02*
X88030000Y94605000D01*
G75*
G02*
X88100000Y94675000I70000J0D01*
G01*
X88660000Y94675000D01*
G75*
G02*
X88730000Y94605000I0J-70000D01*
G01*
X88730000Y93825000D01*
G75*
G02*
X88660000Y93755000I-70000J0D01*
G01*
X88100000Y93755000D01*
G75*
G02*
X88030000Y93825000I0J70000D01*
G01*
G37*
G36*
G01*
X89630000Y93825000D02*
X89630000Y94605000D01*
G75*
G02*
X89700000Y94675000I70000J0D01*
G01*
X90260000Y94675000D01*
G75*
G02*
X90330000Y94605000I0J-70000D01*
G01*
X90330000Y93825000D01*
G75*
G02*
X90260000Y93755000I-70000J0D01*
G01*
X89700000Y93755000D01*
G75*
G02*
X89630000Y93825000I0J70000D01*
G01*
G37*
G04 #@! TD*
D13*
G04 #@! TO.C,G5*
X127230000Y76245000D03*
X127230000Y73705000D03*
X127230000Y71165000D03*
X129770000Y76245000D03*
X129770000Y73705000D03*
X129770000Y71165000D03*
X132310000Y76245000D03*
X132310000Y73705000D03*
X132310000Y71165000D03*
G04 #@! TD*
G04 #@! TO.C,Q3*
G36*
G01*
X28319000Y26870000D02*
X27619000Y26870000D01*
G75*
G02*
X27369000Y27120000I0J250000D01*
G01*
X27369000Y28820000D01*
G75*
G02*
X27619000Y29070000I250000J0D01*
G01*
X28319000Y29070000D01*
G75*
G02*
X28569000Y28820000I0J-250000D01*
G01*
X28569000Y27120000D01*
G75*
G02*
X28319000Y26870000I-250000J0D01*
G01*
G37*
G36*
G01*
X32899003Y31070000D02*
X27598997Y31070000D01*
G75*
G02*
X27349000Y31319997I0J249997D01*
G01*
X27349000Y37220003D01*
G75*
G02*
X27598997Y37470000I249997J0D01*
G01*
X32899003Y37470000D01*
G75*
G02*
X33149000Y37220003I0J-249997D01*
G01*
X33149000Y31319997D01*
G75*
G02*
X32899003Y31070000I-249997J0D01*
G01*
G37*
G36*
G01*
X32879000Y26870000D02*
X32179000Y26870000D01*
G75*
G02*
X31929000Y27120000I0J250000D01*
G01*
X31929000Y28820000D01*
G75*
G02*
X32179000Y29070000I250000J0D01*
G01*
X32879000Y29070000D01*
G75*
G02*
X33129000Y28820000I0J-250000D01*
G01*
X33129000Y27120000D01*
G75*
G02*
X32879000Y26870000I-250000J0D01*
G01*
G37*
G04 #@! TD*
G04 #@! TO.C,Q904*
G36*
G01*
X122390000Y81525000D02*
X123090000Y81525000D01*
G75*
G02*
X123340000Y81275000I0J-250000D01*
G01*
X123340000Y79575000D01*
G75*
G02*
X123090000Y79325000I-250000J0D01*
G01*
X122390000Y79325000D01*
G75*
G02*
X122140000Y79575000I0J250000D01*
G01*
X122140000Y81275000D01*
G75*
G02*
X122390000Y81525000I250000J0D01*
G01*
G37*
G36*
G01*
X117809997Y77325000D02*
X123110003Y77325000D01*
G75*
G02*
X123360000Y77075003I0J-249997D01*
G01*
X123360000Y71174997D01*
G75*
G02*
X123110003Y70925000I-249997J0D01*
G01*
X117809997Y70925000D01*
G75*
G02*
X117560000Y71174997I0J249997D01*
G01*
X117560000Y77075003D01*
G75*
G02*
X117809997Y77325000I249997J0D01*
G01*
G37*
G36*
G01*
X117830000Y81525000D02*
X118530000Y81525000D01*
G75*
G02*
X118780000Y81275000I0J-250000D01*
G01*
X118780000Y79575000D01*
G75*
G02*
X118530000Y79325000I-250000J0D01*
G01*
X117830000Y79325000D01*
G75*
G02*
X117580000Y79575000I0J250000D01*
G01*
X117580000Y81275000D01*
G75*
G02*
X117830000Y81525000I250000J0D01*
G01*
G37*
G04 #@! TD*
G04 #@! TO.C,R9*
G36*
G01*
X51003000Y53128001D02*
X52253000Y53128001D01*
G75*
G02*
X52353000Y53028001I0J-100000D01*
G01*
X52353000Y52228001D01*
G75*
G02*
X52253000Y52128001I-100000J0D01*
G01*
X51003000Y52128001D01*
G75*
G02*
X50903000Y52228001I0J100000D01*
G01*
X50903000Y53028001D01*
G75*
G02*
X51003000Y53128001I100000J0D01*
G01*
G37*
G36*
G01*
X51003000Y51227979D02*
X52253000Y51227979D01*
G75*
G02*
X52353000Y51127979I0J-100000D01*
G01*
X52353000Y50327979D01*
G75*
G02*
X52253000Y50227979I-100000J0D01*
G01*
X51003000Y50227979D01*
G75*
G02*
X50903000Y50327979I0J100000D01*
G01*
X50903000Y51127979D01*
G75*
G02*
X51003000Y51227979I100000J0D01*
G01*
G37*
G04 #@! TD*
G04 #@! TO.C,G4*
X148990000Y49215000D03*
X148990000Y46675000D03*
X148990000Y44135000D03*
X151530000Y49215000D03*
X151530000Y46675000D03*
X151530000Y44135000D03*
X154070000Y49215000D03*
X154070000Y46675000D03*
X154070000Y44135000D03*
G04 #@! TD*
G04 #@! TO.C,U1*
G36*
G01*
X16351000Y70848000D02*
X16751000Y70848000D01*
G75*
G02*
X16951000Y70648000I0J-200000D01*
G01*
X16951000Y68848000D01*
G75*
G02*
X16751000Y68648000I-200000J0D01*
G01*
X16351000Y68648000D01*
G75*
G02*
X16151000Y68848000I0J200000D01*
G01*
X16151000Y70648000D01*
G75*
G02*
X16351000Y70848000I200000J0D01*
G01*
G37*
G36*
G01*
X15211000Y70848000D02*
X15611000Y70848000D01*
G75*
G02*
X15811000Y70648000I0J-200000D01*
G01*
X15811000Y68848000D01*
G75*
G02*
X15611000Y68648000I-200000J0D01*
G01*
X15211000Y68648000D01*
G75*
G02*
X15011000Y68848000I0J200000D01*
G01*
X15011000Y70648000D01*
G75*
G02*
X15211000Y70848000I200000J0D01*
G01*
G37*
G36*
G01*
X11620997Y66648000D02*
X16921003Y66648000D01*
G75*
G02*
X17171000Y66398003I0J-249997D01*
G01*
X17171000Y60497997D01*
G75*
G02*
X16921003Y60248000I-249997J0D01*
G01*
X11620997Y60248000D01*
G75*
G02*
X11371000Y60497997I0J249997D01*
G01*
X11371000Y66398003D01*
G75*
G02*
X11620997Y66648000I249997J0D01*
G01*
G37*
G36*
G01*
X12931000Y70848000D02*
X13331000Y70848000D01*
G75*
G02*
X13531000Y70648000I0J-200000D01*
G01*
X13531000Y68848000D01*
G75*
G02*
X13331000Y68648000I-200000J0D01*
G01*
X12931000Y68648000D01*
G75*
G02*
X12731000Y68848000I0J200000D01*
G01*
X12731000Y70648000D01*
G75*
G02*
X12931000Y70848000I200000J0D01*
G01*
G37*
G36*
G01*
X11791000Y70848000D02*
X12191000Y70848000D01*
G75*
G02*
X12391000Y70648000I0J-200000D01*
G01*
X12391000Y68848000D01*
G75*
G02*
X12191000Y68648000I-200000J0D01*
G01*
X11791000Y68648000D01*
G75*
G02*
X11591000Y68848000I0J200000D01*
G01*
X11591000Y70648000D01*
G75*
G02*
X11791000Y70848000I200000J0D01*
G01*
G37*
G04 #@! TD*
G04 #@! TO.C,G7*
X127250000Y33685000D03*
X127250000Y31145000D03*
X127250000Y28605000D03*
X129790000Y33685000D03*
X129790000Y31145000D03*
X129790000Y28605000D03*
X132330000Y33685000D03*
X132330000Y31145000D03*
X132330000Y28605000D03*
G04 #@! TD*
G04 #@! TO.C,G14*
X117750000Y49715000D03*
X117750000Y47175000D03*
X117750000Y44635000D03*
X120290000Y49715000D03*
X120290000Y47175000D03*
X120290000Y44635000D03*
X122830000Y49715000D03*
X122830000Y47175000D03*
X122830000Y44635000D03*
G04 #@! TD*
G04 #@! TO.C,Q902*
G36*
G01*
X98670000Y67705000D02*
X99370000Y67705000D01*
G75*
G02*
X99620000Y67455000I0J-250000D01*
G01*
X99620000Y65755000D01*
G75*
G02*
X99370000Y65505000I-250000J0D01*
G01*
X98670000Y65505000D01*
G75*
G02*
X98420000Y65755000I0J250000D01*
G01*
X98420000Y67455000D01*
G75*
G02*
X98670000Y67705000I250000J0D01*
G01*
G37*
G36*
G01*
X94089997Y63505000D02*
X99390003Y63505000D01*
G75*
G02*
X99640000Y63255003I0J-249997D01*
G01*
X99640000Y57354997D01*
G75*
G02*
X99390003Y57105000I-249997J0D01*
G01*
X94089997Y57105000D01*
G75*
G02*
X93840000Y57354997I0J249997D01*
G01*
X93840000Y63255003D01*
G75*
G02*
X94089997Y63505000I249997J0D01*
G01*
G37*
G36*
G01*
X94110000Y67705000D02*
X94810000Y67705000D01*
G75*
G02*
X95060000Y67455000I0J-250000D01*
G01*
X95060000Y65755000D01*
G75*
G02*
X94810000Y65505000I-250000J0D01*
G01*
X94110000Y65505000D01*
G75*
G02*
X93860000Y65755000I0J250000D01*
G01*
X93860000Y67455000D01*
G75*
G02*
X94110000Y67705000I250000J0D01*
G01*
G37*
G04 #@! TD*
G04 #@! TO.C,R3*
G36*
G01*
X13322000Y72504500D02*
X12542000Y72504500D01*
G75*
G02*
X12472000Y72574500I0J70000D01*
G01*
X12472000Y73134500D01*
G75*
G02*
X12542000Y73204500I70000J0D01*
G01*
X13322000Y73204500D01*
G75*
G02*
X13392000Y73134500I0J-70000D01*
G01*
X13392000Y72574500D01*
G75*
G02*
X13322000Y72504500I-70000J0D01*
G01*
G37*
G36*
G01*
X13322000Y74104500D02*
X12542000Y74104500D01*
G75*
G02*
X12472000Y74174500I0J70000D01*
G01*
X12472000Y74734500D01*
G75*
G02*
X12542000Y74804500I70000J0D01*
G01*
X13322000Y74804500D01*
G75*
G02*
X13392000Y74734500I0J-70000D01*
G01*
X13392000Y74174500D01*
G75*
G02*
X13322000Y74104500I-70000J0D01*
G01*
G37*
G04 #@! TD*
D20*
G04 #@! TO.C,M7*
X85576994Y55002006D03*
D21*
X75227000Y55052004D03*
X75727001Y55052004D03*
D22*
X82276998Y56102002D03*
X81401996Y56627002D03*
X82577000Y57377000D03*
X82501997Y60927001D03*
G04 #@! TD*
D23*
G04 #@! TO.C,M9*
X94738000Y93004943D03*
X94738000Y92244964D03*
X94738000Y91069971D03*
X94738000Y89894984D03*
X94738000Y89055072D03*
X94738000Y88305000D03*
X94738000Y87129989D03*
X94738000Y85954992D03*
D22*
X84638393Y90994995D03*
X85063401Y92830005D03*
X85613398Y90779997D03*
X86488357Y90994992D03*
X87338380Y91069999D03*
X87663396Y92830005D03*
X88963363Y91520005D03*
X89613380Y92830005D03*
X82438377Y86904990D03*
X82738379Y90979996D03*
G04 #@! TD*
G04 #@! TO.C,Q849*
G36*
G01*
X153050000Y80935000D02*
X153750000Y80935000D01*
G75*
G02*
X154000000Y80685000I0J-250000D01*
G01*
X154000000Y78985000D01*
G75*
G02*
X153750000Y78735000I-250000J0D01*
G01*
X153050000Y78735000D01*
G75*
G02*
X152800000Y78985000I0J250000D01*
G01*
X152800000Y80685000D01*
G75*
G02*
X153050000Y80935000I250000J0D01*
G01*
G37*
G36*
G01*
X148469997Y76735000D02*
X153770003Y76735000D01*
G75*
G02*
X154020000Y76485003I0J-249997D01*
G01*
X154020000Y70584997D01*
G75*
G02*
X153770003Y70335000I-249997J0D01*
G01*
X148469997Y70335000D01*
G75*
G02*
X148220000Y70584997I0J249997D01*
G01*
X148220000Y76485003D01*
G75*
G02*
X148469997Y76735000I249997J0D01*
G01*
G37*
G36*
G01*
X148490000Y80935000D02*
X149190000Y80935000D01*
G75*
G02*
X149440000Y80685000I0J-250000D01*
G01*
X149440000Y78985000D01*
G75*
G02*
X149190000Y78735000I-250000J0D01*
G01*
X148490000Y78735000D01*
G75*
G02*
X148240000Y78985000I0J250000D01*
G01*
X148240000Y80685000D01*
G75*
G02*
X148490000Y80935000I250000J0D01*
G01*
G37*
G04 #@! TD*
D13*
G04 #@! TO.C,G3*
X148840000Y33605000D03*
X148840000Y31065000D03*
X148840000Y28525000D03*
X151380000Y33605000D03*
X151380000Y31065000D03*
X151380000Y28525000D03*
X153920000Y33605000D03*
X153920000Y31065000D03*
X153920000Y28525000D03*
G04 #@! TD*
G04 #@! TO.C,G1*
X132030000Y62405000D03*
X129490000Y62405000D03*
X126950000Y62405000D03*
X132030000Y59865000D03*
X129490000Y59865000D03*
X126950000Y59865000D03*
X132030000Y57325000D03*
X129490000Y57325000D03*
X126950000Y57325000D03*
G04 #@! TD*
G04 #@! TO.C,R305*
G36*
G01*
X86600000Y98535000D02*
X86600000Y99315000D01*
G75*
G02*
X86670000Y99385000I70000J0D01*
G01*
X87230000Y99385000D01*
G75*
G02*
X87300000Y99315000I0J-70000D01*
G01*
X87300000Y98535000D01*
G75*
G02*
X87230000Y98465000I-70000J0D01*
G01*
X86670000Y98465000D01*
G75*
G02*
X86600000Y98535000I0J70000D01*
G01*
G37*
G36*
G01*
X88200000Y98535000D02*
X88200000Y99315000D01*
G75*
G02*
X88270000Y99385000I70000J0D01*
G01*
X88830000Y99385000D01*
G75*
G02*
X88900000Y99315000I0J-70000D01*
G01*
X88900000Y98535000D01*
G75*
G02*
X88830000Y98465000I-70000J0D01*
G01*
X88270000Y98465000D01*
G75*
G02*
X88200000Y98535000I0J70000D01*
G01*
G37*
G04 #@! TD*
G04 #@! TO.C,Q847*
G36*
G01*
X131417500Y66965000D02*
X132117500Y66965000D01*
G75*
G02*
X132367500Y66715000I0J-250000D01*
G01*
X132367500Y65015000D01*
G75*
G02*
X132117500Y64765000I-250000J0D01*
G01*
X131417500Y64765000D01*
G75*
G02*
X131167500Y65015000I0J250000D01*
G01*
X131167500Y66715000D01*
G75*
G02*
X131417500Y66965000I250000J0D01*
G01*
G37*
G36*
G01*
X126837497Y62765000D02*
X132137503Y62765000D01*
G75*
G02*
X132387500Y62515003I0J-249997D01*
G01*
X132387500Y56614997D01*
G75*
G02*
X132137503Y56365000I-249997J0D01*
G01*
X126837497Y56365000D01*
G75*
G02*
X126587500Y56614997I0J249997D01*
G01*
X126587500Y62515003D01*
G75*
G02*
X126837497Y62765000I249997J0D01*
G01*
G37*
G36*
G01*
X126857500Y66965000D02*
X127557500Y66965000D01*
G75*
G02*
X127807500Y66715000I0J-250000D01*
G01*
X127807500Y65015000D01*
G75*
G02*
X127557500Y64765000I-250000J0D01*
G01*
X126857500Y64765000D01*
G75*
G02*
X126607500Y65015000I0J250000D01*
G01*
X126607500Y66715000D01*
G75*
G02*
X126857500Y66965000I250000J0D01*
G01*
G37*
G04 #@! TD*
G04 #@! TO.C,R4*
G36*
G01*
X16542000Y76884572D02*
X16542000Y76104572D01*
G75*
G02*
X16472000Y76034572I-70000J0D01*
G01*
X15912000Y76034572D01*
G75*
G02*
X15842000Y76104572I0J70000D01*
G01*
X15842000Y76884572D01*
G75*
G02*
X15912000Y76954572I70000J0D01*
G01*
X16472000Y76954572D01*
G75*
G02*
X16542000Y76884572I0J-70000D01*
G01*
G37*
G36*
G01*
X14942000Y76884572D02*
X14942000Y76104572D01*
G75*
G02*
X14872000Y76034572I-70000J0D01*
G01*
X14312000Y76034572D01*
G75*
G02*
X14242000Y76104572I0J70000D01*
G01*
X14242000Y76884572D01*
G75*
G02*
X14312000Y76954572I70000J0D01*
G01*
X14872000Y76954572D01*
G75*
G02*
X14942000Y76884572I0J-70000D01*
G01*
G37*
G04 #@! TD*
G04 #@! TO.C,G2*
X127010000Y49805000D03*
X127010000Y47265000D03*
X127010000Y44725000D03*
X129550000Y49805000D03*
X129550000Y47265000D03*
X129550000Y44725000D03*
X132090000Y49805000D03*
X132090000Y47265000D03*
X132090000Y44725000D03*
G04 #@! TD*
G04 #@! TO.C,Q1*
G36*
G01*
X16217000Y75153500D02*
X16517000Y75153500D01*
G75*
G02*
X16667000Y75003500I0J-150000D01*
G01*
X16667000Y73828500D01*
G75*
G02*
X16517000Y73678500I-150000J0D01*
G01*
X16217000Y73678500D01*
G75*
G02*
X16067000Y73828500I0J150000D01*
G01*
X16067000Y75003500D01*
G75*
G02*
X16217000Y75153500I150000J0D01*
G01*
G37*
G36*
G01*
X14317000Y75153500D02*
X14617000Y75153500D01*
G75*
G02*
X14767000Y75003500I0J-150000D01*
G01*
X14767000Y73828500D01*
G75*
G02*
X14617000Y73678500I-150000J0D01*
G01*
X14317000Y73678500D01*
G75*
G02*
X14167000Y73828500I0J150000D01*
G01*
X14167000Y75003500D01*
G75*
G02*
X14317000Y75153500I150000J0D01*
G01*
G37*
G36*
G01*
X15267000Y73278500D02*
X15567000Y73278500D01*
G75*
G02*
X15717000Y73128500I0J-150000D01*
G01*
X15717000Y71953500D01*
G75*
G02*
X15567000Y71803500I-150000J0D01*
G01*
X15267000Y71803500D01*
G75*
G02*
X15117000Y71953500I0J150000D01*
G01*
X15117000Y73128500D01*
G75*
G02*
X15267000Y73278500I150000J0D01*
G01*
G37*
G04 #@! TD*
G04 #@! TO.C,R12*
G36*
G01*
X50944000Y56754001D02*
X52194000Y56754001D01*
G75*
G02*
X52294000Y56654001I0J-100000D01*
G01*
X52294000Y55854001D01*
G75*
G02*
X52194000Y55754001I-100000J0D01*
G01*
X50944000Y55754001D01*
G75*
G02*
X50844000Y55854001I0J100000D01*
G01*
X50844000Y56654001D01*
G75*
G02*
X50944000Y56754001I100000J0D01*
G01*
G37*
G36*
G01*
X50944000Y54853979D02*
X52194000Y54853979D01*
G75*
G02*
X52294000Y54753979I0J-100000D01*
G01*
X52294000Y53953979D01*
G75*
G02*
X52194000Y53853979I-100000J0D01*
G01*
X50944000Y53853979D01*
G75*
G02*
X50844000Y53953979I0J100000D01*
G01*
X50844000Y54753979D01*
G75*
G02*
X50944000Y54853979I100000J0D01*
G01*
G37*
G04 #@! TD*
G04 #@! TO.C,G12*
X117890000Y76805000D03*
X117890000Y74265000D03*
X117890000Y71725000D03*
X120430000Y76805000D03*
X120430000Y74265000D03*
X120430000Y71725000D03*
X122970000Y76805000D03*
X122970000Y74265000D03*
X122970000Y71725000D03*
G04 #@! TD*
G04 #@! TO.C,Q844*
G36*
G01*
X131725000Y80960000D02*
X132425000Y80960000D01*
G75*
G02*
X132675000Y80710000I0J-250000D01*
G01*
X132675000Y79010000D01*
G75*
G02*
X132425000Y78760000I-250000J0D01*
G01*
X131725000Y78760000D01*
G75*
G02*
X131475000Y79010000I0J250000D01*
G01*
X131475000Y80710000D01*
G75*
G02*
X131725000Y80960000I250000J0D01*
G01*
G37*
G36*
G01*
X127144997Y76760000D02*
X132445003Y76760000D01*
G75*
G02*
X132695000Y76510003I0J-249997D01*
G01*
X132695000Y70609997D01*
G75*
G02*
X132445003Y70360000I-249997J0D01*
G01*
X127144997Y70360000D01*
G75*
G02*
X126895000Y70609997I0J249997D01*
G01*
X126895000Y76510003D01*
G75*
G02*
X127144997Y76760000I249997J0D01*
G01*
G37*
G36*
G01*
X127165000Y80960000D02*
X127865000Y80960000D01*
G75*
G02*
X128115000Y80710000I0J-250000D01*
G01*
X128115000Y79010000D01*
G75*
G02*
X127865000Y78760000I-250000J0D01*
G01*
X127165000Y78760000D01*
G75*
G02*
X126915000Y79010000I0J250000D01*
G01*
X126915000Y80710000D01*
G75*
G02*
X127165000Y80960000I250000J0D01*
G01*
G37*
G04 #@! TD*
M02*
