G75*
G70*
%OFA0B0*%
%FSLAX25Y25*%
%IPPOS*%
%LPD*%
%AMOC8*
5,1,8,0,0,1.08239X$1,22.5*
%
%ADD77C,0.00787*%
X0000000Y0000000D02*
%LPD*%
G01*
D77*
X0102519Y0464567D02*
X0057814Y0456693D01*
X0595039Y0015197D02*
X0595039Y0005568D01*
X0636614Y0149016D02*
G75*
G02*
X0636614Y0160827I-000001J0005906D01*
G01*
X0015196Y0050630D02*
G75*
G02*
X0050629Y0015197I0000000J-035433D01*
G01*
X0587795Y0456693D02*
X0587795Y0432252D01*
X0605511Y0414764D02*
G75*
G02*
X0587795Y0432252I0000185J0017905D01*
G01*
X0009055Y0149016D02*
X0000000Y0149016D01*
X0057874Y0432724D02*
G75*
G02*
X0039814Y0414764I-017989J0000028D01*
G01*
X0645669Y0409196D02*
X0645669Y0160827D01*
X0630472Y0050630D02*
X0640101Y0050630D01*
X0056197Y0000000D02*
X0589471Y0000000D01*
X0005567Y0414764D02*
X0039814Y0414764D01*
X0636614Y0160827D02*
X0645669Y0160827D01*
X0057814Y0456693D02*
X0057874Y0432724D01*
X0102519Y0464567D02*
X0543149Y0464567D01*
X0000000Y0409196D02*
X0000000Y0160827D01*
X0595039Y0005568D02*
X0589471Y0000000D01*
X0000000Y0149016D02*
X0000000Y0056198D01*
X0050629Y0005568D02*
X0056197Y0000000D01*
X0636614Y0149016D02*
X0645669Y0149016D01*
X0543149Y0464567D02*
X0587795Y0456693D01*
X0000000Y0056198D02*
X0005567Y0050630D01*
X0015196Y0050630D02*
X0005567Y0050630D01*
X0009055Y0160827D02*
X0000000Y0160827D01*
X0000000Y0409196D02*
X0005567Y0414764D01*
X0595039Y0015197D02*
G75*
G02*
X0630472Y0050630I0035433J0000000D01*
G01*
X0645669Y0056198D02*
X0640101Y0050630D01*
X0050629Y0015197D02*
X0050629Y0005568D01*
X0009055Y0160827D02*
G75*
G02*
X0009055Y0149016I0000000J-005906D01*
G01*
X0645669Y0149016D02*
X0645669Y0056198D01*
X0645669Y0409196D02*
X0640101Y0414764D01*
X0640101Y0414764D02*
X0605511Y0414764D01*
X0568110Y0130709D02*
G01*
G75*
X0503819Y0139173D02*
G01*
G75*
X0592913Y0320669D02*
G01*
G75*
X0592913Y0277165D02*
G01*
G75*
X0454134Y0157087D02*
G01*
G75*
X0454134Y0217520D02*
G01*
G75*
X0454134Y0124265D02*
G01*
G75*
X0592913Y0232874D02*
G01*
G75*
M02*
