M48
INCH,TZ
T01C0.011800
T02C0.029550
T03C0.032750
T04C0.039200
T05C0.043300
T06C0.086600
T07C0.145700
%
T01
X45147Y10074
X45492Y9867
X45581Y11767
X45610Y10369
X42579Y32706
X42579Y30856
X42579Y30305
X42579Y28454
X42579Y28139
X42579Y27116
X42579Y26722
X42579Y26328
X42579Y25935
X42579Y25541
X42579Y25147
X42579Y24754
X42579Y24360
X42579Y20147
X42579Y19754
X42680Y17450
X42680Y17057
X42680Y16663
X42680Y15765
X42680Y15365
X42736Y18769
X43681Y18769
X44153Y18769
X44626Y18769
X45098Y18769
X45492Y32706
X45571Y18769
X45886Y32706
X46043Y18769
X46516Y18769
X46949Y32706
X46988Y18769
X47460Y18769
X47547Y11840
X47547Y11486
X47933Y18769
X48405Y18769
X48642Y32706
X48878Y18769
X48957Y32706
X49272Y32706
X49350Y18769
X49586Y32706
X49823Y18769
X49901Y32706
X50216Y32706
X50295Y18769
X50531Y32706
X50768Y18769
X50846Y32706
X50972Y11840
X50972Y11466
X50972Y11092
X51161Y32706
X51240Y18769
X51712Y18769
X52106Y32706
X52185Y18769
X52421Y32706
X52657Y18769
X52736Y32706
X53051Y32706
X53130Y18769
X53149Y14439
X53149Y14045
X53149Y13651
X53149Y13258
X53366Y32706
X53681Y32706
X53996Y32706
X54311Y32706
X54626Y32706
X54941Y32706
X55256Y32706
X55571Y32706
X55728Y27431
X55728Y21328
X55728Y29872
X55728Y29557
X55728Y29242
X55728Y28927
X55728Y28612
X55728Y28297
X55728Y27746
X55728Y27116
X55728Y26801
X55728Y26486
X55728Y26171
X55728Y25856
X55728Y25541
X55728Y25226
X55728Y24911
X55728Y24596
X55728Y24281
X55728Y23966
X55728Y23651
X55728Y23336
X55728Y23021
X56457Y24006
X56457Y23691
X56457Y23376
X56457Y23061
X56457Y22746
X56457Y22431
X56457Y22116
X56486Y30084
X56486Y29691
X56486Y25734
X56486Y25340
X56772Y24006
X60433Y11781
X60433Y11387
X62165Y32628
X62165Y32155
X62165Y31683
X62165Y31210
X62165Y28277
X62165Y27805
X62165Y27332
X62165Y26860
X55148Y10301
X54876Y10937
X55090Y11322
X54449Y11751
X54409Y12087
X54606Y12677
X54882Y12933
X55000Y13464
X54606Y13760
X54409Y13268
X54409Y14449
X54409Y16024
X54882Y16004
X55993Y16296
X57040Y16271
X57362Y15983
X58415Y15908
X59527Y16024
X60315Y16024
X59842Y15020
X59197Y15014
X59257Y13768
X59724Y13858
X59892Y13378
X60315Y13661
X59893Y12493
X60589Y12321
X60630Y11929
X60630Y11535
X59948Y11629
X59638Y11140
X60025Y10823
X59628Y10393
X59239Y10772
X59164Y11496
X59212Y11929
X57896Y10944
X57896Y10315
X56977Y10301
X56122Y10301
X56345Y10943
X56929Y11968
X57322Y13415
X56575Y13464
X57008Y13974
X57597Y14972
X58543Y16929
X59475Y16996
X59921Y16614
X60315Y17205
X59488Y17992
X57489Y18160
X57447Y17754
X56660Y17744
X56395Y17341
X54958Y17418
X55367Y16783
X54527Y16550
X47750Y11094
X47902Y11347
X47744Y11634
X47744Y11989
X48746Y11655
X49020Y11550
X49263Y11763
X48713Y11250
X50192Y11990
X51169Y11989
X51169Y11615
X51169Y11241
X56673Y30984
X56700Y32630
X56722Y31801
X57444Y29277
X57453Y30034
X57479Y30813
X57527Y32642
X57529Y31710
X57701Y31008
X57875Y32614
X57962Y29405
X57992Y30720
X58267Y29271
X58323Y32805
X58400Y31258
X58411Y30012
X58565Y32333
X58688Y31322
X58982Y31299
X59224Y31700
X59356Y30894
X59409Y31220
X59419Y30502
X59439Y29419
X59489Y29791
X59529Y30141
X59750Y30799
X60059Y29271
X60128Y30846
X60442Y31270
X60561Y30984
X60659Y30480
X60681Y31943
X60724Y29431
X60747Y31240
X60816Y32614
X61112Y32555
X61295Y31285
X61307Y32784
X61634Y29911
X62110Y29903
X62352Y29734
X62362Y30147
X62378Y29252
X56683Y30232
X56683Y29838
X62362Y32775
X62362Y32303
X62362Y31831
X62362Y31358
X56811Y26988
X56811Y25020
X56850Y28327
X57677Y26910
X57834Y25847
X57952Y25020
X58189Y28327
X58582Y27421
X58622Y26437
X59173Y25807
X59212Y25020
X59606Y28327
X59842Y27618
X59921Y25020
X60007Y26927
X60433Y25374
X60944Y26240
X61181Y25295
X61338Y28327
X61653Y25020
X61971Y27502
X62244Y26634
X62244Y25295
X56683Y25882
X56683Y25488
X62362Y28425
X62362Y27953
X62362Y27481
X62362Y27008
X42815Y15138
X42890Y18068
X42934Y16398
X42934Y13032
X43167Y13222
X43223Y14502
X43223Y14813
X43377Y17836
X43605Y16245
X43697Y16943
X43760Y14315
X43897Y13382
X44189Y13110
X44292Y18150
X44338Y17513
X44380Y17136
X44455Y15829
X44459Y14592
X44735Y13071
X44816Y15157
X44941Y13868
X45001Y15817
X45010Y16864
X45119Y15107
X45217Y13032
X46014Y18155
X46182Y13839
X46472Y15644
X46702Y16583
X46703Y15083
X46704Y15876
X46910Y16119
X46930Y12933
X46988Y15778
X47295Y17155
X47503Y15020
X47592Y17104
X47717Y12963
X47733Y16457
X47902Y17110
X47920Y13677
X47993Y15059
X48052Y16059
X48205Y16734
X48209Y13760
X48510Y14493
X48528Y17459
X48536Y17760
X48908Y12953
X49115Y17591
X49140Y18176
X49149Y17292
X49406Y17957
X49544Y16315
X49590Y15468
X49660Y14955
X49660Y14055
X49660Y13754
X49660Y13453
X49660Y13152
X49664Y14547
X50040Y16083
X50296Y15866
X52371Y12911
X52588Y14660
X52628Y17913
X52776Y17500
X52875Y14567
X52914Y16919
X52914Y16644
X52914Y16368
X53091Y17480
X53111Y12904
X53219Y16919
X53219Y16644
X53416Y17894
X42878Y17599
X42878Y17205
X42878Y16811
X42878Y15913
X42878Y15513
X53347Y14587
X53347Y14193
X53347Y13799
X53347Y13406
X42934Y18917
X43410Y18948
X43642Y19138
X43878Y18917
X44115Y19118
X44351Y18917
X44587Y19118
X44823Y18917
X45060Y19118
X45296Y18917
X45532Y19118
X45768Y18917
X46004Y19118
X46241Y18917
X46477Y19118
X46713Y18917
X46949Y19118
X47186Y18917
X47422Y19118
X47658Y18917
X47894Y19118
X48130Y18917
X48367Y19118
X48603Y18917
X48839Y19118
X49075Y18917
X49312Y19118
X49548Y18917
X49784Y19118
X50020Y18917
X50256Y19118
X50493Y18917
X50729Y19118
X50965Y18917
X51201Y19118
X51438Y18917
X51674Y19118
X51910Y18917
X52146Y19118
X52382Y18917
X52619Y19118
X52855Y18917
X53091Y19118
X53327Y18917
X53642Y19075
X53635Y19610
X53208Y19804
X52757Y19814
X52315Y19821
X51842Y19819
X51337Y20866
X51027Y20866
X50780Y20393
X50182Y20596
X49886Y20605
X50043Y20876
X50160Y21558
X49905Y21826
X49808Y22367
X50247Y22367
X50707Y22247
X50707Y22579
X50707Y22874
X50701Y23165
X51031Y23849
X51576Y23845
X51438Y24429
X50808Y24350
X50738Y25182
X50723Y25568
X50375Y25374
X50141Y25174
X49884Y25607
X49191Y25908
X48593Y25925
X48246Y25629
X47471Y25804
X47489Y25249
X47479Y24702
X46771Y24829
X46816Y25628
X46790Y26393
X46768Y27203
X47471Y27243
X47471Y26958
X47471Y26673
X47471Y27544
X48259Y27860
X48246Y28145
X48214Y28443
X48264Y28925
X48668Y28976
X49298Y29454
X49675Y29442
X50611Y29586
X50936Y28986
X51144Y29189
X51126Y28662
X51484Y28615
X50933Y28431
X50727Y27288
X50504Y27059
X50458Y26376
X50167Y26365
X50654Y26157
X51323Y26157
X52189Y25968
X52383Y25754
X52587Y25550
X52789Y25348
X52786Y26161
X52339Y26626
X52326Y27327
X52702Y27229
X52579Y27697
X52377Y28234
X52617Y28460
X52811Y28858
X52619Y29114
X52518Y29497
X52478Y29803
X52776Y29705
X53280Y29503
X53336Y29202
X53280Y28640
X53427Y28395
X53170Y28012
X53152Y27521
X54380Y27129
X54690Y26815
X54508Y26594
X54473Y26074
X55926Y26004
X55926Y26319
X55926Y26634
X55926Y26949
X55926Y27264
X55926Y27579
X55926Y27893
X55787Y28171
X55926Y28445
X55926Y28760
X55926Y29075
X55926Y29390
X55926Y29705
X55926Y30019
X55569Y30107
X55786Y30351
X55477Y31053
X55473Y31988
X55100Y32032
X55098Y31747
X54725Y31988
X54823Y32854
X54508Y32854
X54193Y32854
X53878Y32854
X53564Y32854
X53249Y32854
X52934Y32854
X52619Y32854
X52304Y32854
X51713Y32657
X51359Y32854
X51044Y32854
X50729Y32854
X50414Y32854
X50099Y32854
X49784Y32854
X49469Y32854
X49154Y32854
X48839Y32854
X48327Y32815
X48421Y32160
X48023Y32124
X47678Y32169
X47399Y31867
X47457Y32622
X47146Y32854
X46083Y32854
X45689Y32854
X45328Y32830
X45336Y32367
X45106Y31922
X45025Y31049
X44585Y31272
X45771Y31584
X46234Y31903
X46191Y31052
X46634Y31004
X47119Y30576
X47127Y30291
X47195Y29931
X47198Y29635
X46468Y29734
X46477Y29350
X46468Y29025
X46807Y28697
X46468Y28317
X46484Y27965
X46464Y27670
X46781Y27988
X45786Y28416
X45783Y28860
X44607Y28716
X44627Y28195
X44626Y27806
X45451Y27341
X45751Y27380
X45774Y26927
X45774Y26640
X45774Y26353
X45774Y25937
X45774Y25651
X45792Y25227
X45792Y24919
X45792Y24630
X46016Y23890
X46296Y23795
X46608Y23400
X46310Y23080
X46310Y22514
X46303Y22228
X46394Y21567
X46191Y20822
X46359Y20590
X46059Y20555
X45434Y20391
X45138Y20391
X44512Y20596
X44226Y20596
X44390Y20879
X44494Y21555
X44335Y21824
X44155Y22401
X44631Y22401
X45117Y22247
X45117Y22579
X45117Y22874
X45110Y23165
X44347Y23387
X44351Y23764
X43548Y23772
X43575Y23438
X43280Y23870
X42801Y23913
X42776Y24508
X42776Y24901
X42776Y25295
X42776Y25689
X42776Y26082
X42776Y26476
X42776Y26870
X42776Y27264
X42815Y27893
X42776Y28287
X42776Y28602
X42776Y28976
X42904Y29459
X42815Y29823
X42776Y30453
X43060Y30563
X42776Y31004
X42797Y32166
X42776Y32854
X43800Y29586
X43926Y29291
X44795Y29776
X46787Y30068
X47664Y30516
X47796Y30905
X48134Y30834
X48557Y30512
X48997Y30413
X49738Y30491
X50266Y31427
X50406Y31706
X50477Y32013
X50739Y31323
X51570Y31352
X51762Y31677
X52506Y31331
X52432Y30483
X52726Y30483
X53017Y30483
X54203Y30541
X54233Y31004
X53958Y31535
X53932Y32439
X52822Y32566
X55138Y32854
X55453Y32854
X55768Y32854
X54574Y29950
X54418Y29711
X54646Y29419
X54863Y28992
X54422Y28994
X54324Y28310
X54840Y28021
X55116Y28575
X55127Y27366
X55926Y25689
X55926Y25374
X55926Y25059
X55926Y24744
X55926Y24429
X55926Y24114
X55926Y23799
X55926Y23484
X55926Y23169
X55407Y22555
X55847Y21949
X55926Y21476
X55355Y20878
X55355Y20559
X55355Y20241
X55355Y19923
X55355Y19604
X54991Y19278
X55709Y19235
X54113Y20066
X54246Y20645
X53682Y21555
X53449Y22259
X53463Y22579
X53458Y22867
X53457Y23165
X52670Y23387
X52661Y23800
X52151Y23415
X51861Y23199
X51861Y22626
X51898Y22240
X52502Y22374
X53002Y22367
X52662Y21821
X52783Y21155
X52466Y21155
X52120Y21155
X53130Y21144
X51319Y21555
X49103Y22240
X49105Y22639
X49105Y23078
X49187Y23462
X49914Y23440
X49863Y23722
X48721Y23854
X48397Y23862
X48375Y24354
X47965Y24074
X47894Y23245
X47917Y22874
X47904Y22579
X47894Y22079
X47599Y22342
X46930Y22387
X47130Y21845
X47059Y20969
X47290Y20389
X48000Y20596
X48292Y20596
X48150Y20886
X48273Y21555
X48919Y20435
X49247Y20384
X47252Y23393
X47053Y23799
X45440Y23849
X44906Y24468
X44906Y25229
X44906Y25990
X44907Y26752
X48590Y26699
X48386Y27024
X48548Y27912
X47469Y29012
X48268Y31635
X48712Y31539
X48805Y31269
X49008Y31632
X51514Y30290
X51572Y30007
X53145Y24474
X53524Y24823
X54611Y24678
X54562Y23949
X54250Y23981
X53787Y23849
X55322Y24156
X49000Y25211
X43514Y22667
X43552Y22202
X43270Y21880
X42779Y21841
X43377Y21289
X43111Y20977
X42776Y20295
X42776Y19901
X42796Y19316
X43367Y19508
X43564Y20391
X42904Y23199
X45345Y10222
X45689Y10015
X45808Y10517
X45778Y11915
X56775Y20575
X56933Y22032
X57838Y24059
X57855Y21025
X58232Y22583
X58270Y21919
X58626Y24040
X58626Y20536
X58665Y23292
X58665Y21166
X59374Y24059
X59374Y23292
X59374Y22583
X59374Y21874
X59374Y21166
X60082Y22583
X60122Y20536
X60515Y21874
X60515Y21166
X60946Y23652
X60948Y23961
X61263Y23489
X61578Y24040
X61618Y20929
X61716Y22426
X61736Y20575
X61775Y23528
X56657Y24158
X56657Y23843
X56657Y23528
X56657Y23213
X56657Y22898
X56657Y22583
X56657Y22268
X56972Y24158
T02
X9112Y20088
X9427Y20777
X9742Y20088
X10057Y20777
X10372Y20088
X57086Y20383
X57559Y20383
X59921Y23927
X60787Y20383
X8305Y20688G85X8305Y20176
X11179Y20688G85X11179Y20176
X57287Y20536
X57759Y20536
X60122Y24079
X60988Y20536
T03
X10494Y22221
X10547Y25853
X10547Y24625
X10547Y23397
X11994Y22221
X12476Y25853
X12476Y24625
X12476Y23397
X37195Y26842
X38179Y26842
X39163Y26842
X40147Y26842
X41132Y26842
X48871Y24212
X50449Y24212
X51871Y24212
T04
X1220Y40610
X1220Y37470
X1220Y33769
X1220Y29822
X1220Y25679
X1220Y21781
X1220Y17470
X1220Y12126
X1220Y7844
X6289Y1181
X10836Y1200
X19527Y1200
X23671Y1181
X28169Y1181
X32352Y1181
X36634Y1191
X40679Y1191
X45325Y1191
X49823Y1191
X54006Y1191
X58287Y1191
X63484Y40738
X63543Y38051
X63543Y34350
X63543Y30403
X63543Y26259
X63543Y22362
X63543Y18051
X63543Y12706
X63543Y8425
X54153Y17864
X54153Y17135
X54153Y15187
X54153Y10443
X60256Y17687
X60256Y15167
X60256Y14419
X60256Y12726
X60256Y10265
X54350Y10590
X54350Y15335
X60453Y15315
X60453Y14567
X60453Y12874
X60453Y10413
X60453Y17835
X54350Y18012
X54350Y17283
X50201Y13917
X50989Y15099
X51776Y13917
X43075Y13839
X45075Y14239
X45075Y13439
X43091Y32539
X52170Y31568
X52170Y32368
X54170Y31968
T05
X17749Y43507
X17749Y42507
X17749Y40125
X17749Y39125
X18749Y43507
X18749Y42507
X18749Y40125
X18749Y39125
X19749Y43507
X19749Y42507
X19749Y40125
X19749Y39125
X20749Y43507
X20749Y42507
X20749Y40125
X20749Y39125
X21749Y43507
X21749Y42507
X21749Y40125
X21749Y39125
X22749Y43507
X22749Y42507
X22749Y40125
X22749Y39125
X23749Y43507
X23749Y42507
X23749Y40125
X23749Y39125
X24749Y43507
X24749Y42507
X24749Y40125
X24749Y39125
X31036Y43507
X31036Y42507
X31036Y40125
X31036Y39125
X32036Y43507
X32036Y42507
X32036Y40125
X32036Y39125
X33036Y43507
X33036Y42507
X33036Y40125
X33036Y39125
X34036Y43507
X34036Y42507
X34036Y40125
X34036Y39125
X35036Y43507
X35036Y42507
X35036Y40125
X35036Y39125
X36036Y43507
X36036Y42507
X36036Y40125
X36036Y39125
X37036Y43507
X37036Y42507
X37036Y40125
X37036Y39125
X38036Y43507
X38036Y42507
X38036Y40125
X38036Y39125
X39036Y43507
X39036Y42507
X39036Y40125
X39036Y39125
X40036Y43507
X40036Y42507
X40036Y40125
X40036Y39125
X41036Y43507
X41036Y42507
X41036Y40125
X41036Y39125
X42036Y43507
X42036Y42507
X42036Y40125
X42036Y39125
X43036Y43507
X43036Y42507
X43036Y40125
X43036Y39125
X44036Y43507
X44036Y42507
X44036Y40125
X44036Y39125
X45036Y43507
X45036Y42507
X45036Y40125
X45036Y39125
X46036Y43507
X46036Y42507
X46036Y40125
X46036Y39125
X47036Y43507
X47036Y42507
X47036Y40125
X47036Y39125
X48036Y43507
X48036Y42507
X48036Y40125
X48036Y39125
X49036Y43507
X49036Y42507
X49036Y40125
X49036Y39125
X50024Y17726
X51024Y17726
X52024Y17726
T06
X8308Y41223
X10060Y42326
X10060Y39125
X11201Y41408
X12383Y42326
X12383Y39125
X13524Y41408
X14666Y42326
X14666Y39125
X52146Y42326
X52146Y39125
X53288Y41408
X54430Y42326
X54430Y39125
X56260Y41223
T07
X7343Y44294
X27894Y44294
X57225Y44294
M30
