M48
INCH,TZ
T01C0.011800
T02C0.029550
T03C0.032750
T04C0.039200
T05C0.043300
T06C0.086600
T07C0.145700
%
T01
X45147Y10075
X45492Y9868
X45580Y11767
X45610Y10370
X42578Y32707
X42578Y30857
X42578Y30306
X42578Y28455
X42578Y28140
X42578Y27117
X42578Y26723
X42578Y26329
X42578Y25935
X42578Y25542
X42578Y25148
X42578Y24754
X42578Y24361
X42578Y20148
X42578Y19754
X42680Y17451
X42680Y17057
X42680Y16664
X42680Y15766
X42680Y15366
X42736Y18770
X43681Y18770
X44153Y18770
X44626Y18770
X45098Y18770
X45492Y32707
X45571Y18770
X45886Y32707
X46043Y18770
X46516Y18770
X46949Y32707
X46988Y18770
X47460Y18770
X47547Y11841
X47547Y11487
X47933Y18770
X48405Y18770
X48641Y32707
X48878Y18770
X48956Y32707
X49271Y32707
X49350Y18770
X49586Y32707
X49823Y18770
X49901Y32707
X50216Y32707
X50295Y18770
X50531Y32707
X50767Y18770
X50846Y32707
X50972Y11841
X50972Y11467
X50972Y11093
X51161Y32707
X51240Y18770
X51712Y18770
X52106Y32707
X52185Y18770
X52421Y32707
X52657Y18770
X52736Y32707
X53051Y32707
X53130Y18770
X53149Y14439
X53149Y14046
X53149Y13652
X53149Y13258
X53366Y32707
X53681Y32707
X53996Y32707
X54311Y32707
X54626Y32707
X54941Y32707
X55256Y32707
X55571Y32707
X55728Y27431
X55728Y21329
X55728Y29872
X55728Y29557
X55728Y29243
X55728Y28928
X55728Y28613
X55728Y28298
X55728Y27746
X55728Y27117
X55728Y26802
X55728Y26487
X55728Y26172
X55728Y25857
X55728Y25542
X55728Y25227
X55728Y24912
X55728Y24597
X55728Y24282
X55728Y23967
X55728Y23652
X55728Y23337
X55728Y23022
X56456Y24006
X56456Y23691
X56456Y23376
X56456Y23061
X56456Y22746
X56456Y22431
X56456Y22117
X56486Y30085
X56486Y29691
X56486Y25735
X56486Y25341
X56771Y24006
X60433Y11782
X60433Y11388
X62165Y32628
X62165Y32156
X62165Y31683
X62165Y31211
X62165Y28278
X62165Y27806
X62165Y27333
X62165Y26861
X57904Y13254
X57632Y13890
X57846Y14275
X57205Y14704
X57165Y15040
X57362Y15630
X57638Y15886
X57756Y16417
X57362Y16713
X57165Y16221
X57165Y17402
X57165Y18977
X57638Y18957
X58749Y19249
X59796Y19224
X60118Y18936
X61171Y18861
X62283Y18977
X63071Y18977
X62598Y17973
X61953Y17967
X62013Y16721
X62480Y16811
X62648Y16331
X63071Y16614
X62649Y15446
X63345Y15274
X63386Y14882
X63386Y14488
X62704Y14582
X62394Y14093
X62781Y13776
X62384Y13346
X61995Y13725
X61920Y14449
X61968Y14882
X60652Y13897
X60652Y13268
X59733Y13254
X58878Y13254
X59101Y13896
X59685Y14921
X60078Y16368
X59331Y16417
X59764Y16927
X60353Y17925
X61299Y19882
X62231Y19949
X62677Y19567
X63071Y20158
X62244Y20945
X60245Y21113
X60203Y20707
X59416Y20697
X59151Y20294
X57714Y20371
X58123Y19736
X57283Y19503
X50506Y14046
X50658Y14299
X50500Y14586
X50500Y14941
X51502Y14607
X51776Y14502
X52019Y14715
X51469Y14202
X52948Y14942
X53925Y14941
X53925Y14567
X53925Y14193
X59429Y33937
X59456Y35583
X59478Y34754
X60200Y32230
X60209Y32987
X60235Y33766
X60283Y35595
X60285Y34663
X60457Y33961
X60631Y35567
X60718Y32358
X60748Y33673
X61023Y32224
X61079Y35758
X61156Y34211
X61167Y32965
X61321Y35286
X61444Y34275
X61738Y34252
X61980Y34653
X62112Y33847
X62165Y34173
X62175Y33455
X62195Y32372
X62245Y32744
X62285Y33094
X62506Y33752
X62815Y32224
X62884Y33799
X63198Y34223
X63317Y33937
X63415Y33433
X63437Y34896
X63480Y32384
X63503Y34193
X63572Y35567
X63868Y35508
X64051Y34238
X64063Y35737
X64390Y32864
X64866Y32856
X65108Y32687
X65118Y33100
X65134Y32205
X59439Y33185
X59439Y32791
X65118Y35728
X65118Y35256
X65118Y34784
X65118Y34311
X59567Y29940
X59567Y27972
X59606Y31279
X60433Y29862
X60590Y28799
X60708Y27972
X60945Y31279
X61338Y30373
X61378Y29389
X61929Y28759
X61968Y27972
X62362Y31279
X62598Y30570
X62677Y27972
X62763Y29879
X63189Y28326
X63700Y29192
X63937Y28247
X64094Y31279
X64409Y27972
X64727Y30454
X65000Y29586
X65000Y28247
X59439Y28834
X59439Y28440
X65118Y31377
X65118Y30905
X65118Y30433
X65118Y29960
X45570Y18091
X45645Y21021
X45689Y19351
X45689Y15985
X45922Y16175
X45978Y17455
X45978Y17766
X46132Y20789
X46360Y19198
X46452Y19896
X46515Y17268
X46652Y16335
X46944Y16063
X47047Y21103
X47093Y20466
X47135Y20089
X47210Y18782
X47214Y17545
X47490Y16024
X47571Y18110
X47696Y16821
X47756Y18770
X47765Y19817
X47874Y18060
X47972Y15985
X48769Y21108
X48937Y16792
X49227Y18597
X49457Y19536
X49458Y18036
X49459Y18829
X49665Y19072
X49685Y15886
X49743Y18731
X50050Y20108
X50258Y17973
X50347Y20057
X50472Y15916
X50488Y19410
X50657Y20063
X50675Y16630
X50748Y18012
X50807Y19012
X50960Y19687
X50964Y16713
X51265Y17446
X51283Y20412
X51291Y20713
X51663Y15906
X51870Y20544
X51895Y21129
X51904Y20245
X52161Y20910
X52299Y19268
X52345Y18421
X52415Y17908
X52415Y17008
X52415Y16707
X52415Y16406
X52415Y16105
X52419Y17500
X52795Y19036
X53051Y18819
X55126Y15864
X55343Y17613
X55383Y20866
X55531Y20453
X55630Y17520
X55669Y19872
X55669Y19597
X55669Y19321
X55846Y20433
X55866Y15857
X55974Y19872
X55974Y19597
X56171Y20847
X45633Y20552
X45633Y20158
X45633Y19764
X45633Y18866
X45633Y18466
X56102Y17540
X56102Y17146
X56102Y16752
X56102Y16359
X45689Y21870
X46165Y21901
X46397Y22091
X46633Y21870
X46870Y22071
X47106Y21870
X47342Y22071
X47578Y21870
X47815Y22071
X48051Y21870
X48287Y22071
X48523Y21870
X48759Y22071
X48996Y21870
X49232Y22071
X49468Y21870
X49704Y22071
X49941Y21870
X50177Y22071
X50413Y21870
X50649Y22071
X50885Y21870
X51122Y22071
X51358Y21870
X51594Y22071
X51830Y21870
X52067Y22071
X52303Y21870
X52539Y22071
X52775Y21870
X53011Y22071
X53248Y21870
X53484Y22071
X53720Y21870
X53956Y22071
X54193Y21870
X54429Y22071
X54665Y21870
X54901Y22071
X55137Y21870
X55374Y22071
X55610Y21870
X55846Y22071
X56082Y21870
X56397Y22028
X56390Y22563
X55963Y22757
X55512Y22767
X55070Y22774
X54597Y22772
X54092Y23819
X53782Y23819
X53535Y23346
X52937Y23549
X52641Y23558
X52798Y23829
X52915Y24511
X52660Y24779
X52563Y25320
X53002Y25320
X53462Y25200
X53462Y25532
X53462Y25827
X53456Y26118
X53786Y26802
X54331Y26798
X54193Y27382
X53563Y27303
X53493Y28135
X53478Y28521
X53130Y28327
X52896Y28127
X52639Y28560
X51946Y28861
X51348Y28878
X51001Y28582
X50226Y28757
X50244Y28202
X50234Y27655
X49526Y27782
X49571Y28581
X49545Y29346
X49523Y30156
X50226Y30196
X50226Y29911
X50226Y29626
X50226Y30497
X51014Y30813
X51001Y31098
X50969Y31396
X51019Y31878
X51423Y31929
X52053Y32407
X52430Y32395
X53366Y32539
X53691Y31939
X53899Y32142
X53881Y31615
X54239Y31568
X53688Y31384
X53482Y30241
X53259Y30012
X53213Y29329
X52922Y29318
X53409Y29110
X54078Y29110
X54944Y28921
X55138Y28707
X55342Y28503
X55544Y28301
X55541Y29114
X55094Y29579
X55081Y30280
X55457Y30182
X55334Y30650
X55132Y31187
X55372Y31413
X55566Y31811
X55374Y32067
X55273Y32450
X55233Y32756
X55531Y32658
X56035Y32456
X56091Y32155
X56035Y31593
X56182Y31348
X55925Y30965
X55907Y30474
X57135Y30082
X57445Y29768
X57263Y29547
X57228Y29027
X58681Y28957
X58681Y29272
X58681Y29587
X58681Y29902
X58681Y30217
X58681Y30532
X58681Y30846
X58542Y31124
X58681Y31398
X58681Y31713
X58681Y32028
X58681Y32343
X58681Y32658
X58681Y32972
X58324Y33060
X58541Y33304
X58232Y34006
X58228Y34941
X57855Y34985
X57853Y34700
X57480Y34941
X57578Y35807
X57263Y35807
X56948Y35807
X56633Y35807
X56319Y35807
X56004Y35807
X55689Y35807
X55374Y35807
X55059Y35807
X54468Y35610
X54114Y35807
X53799Y35807
X53484Y35807
X53169Y35807
X52854Y35807
X52539Y35807
X52224Y35807
X51909Y35807
X51594Y35807
X51082Y35768
X51176Y35113
X50778Y35077
X50433Y35122
X50154Y34820
X50212Y35575
X49901Y35807
X48838Y35807
X48444Y35807
X48083Y35783
X48091Y35320
X47861Y34875
X47780Y34002
X47340Y34225
X48526Y34537
X48989Y34856
X48946Y34005
X49389Y33957
X49874Y33529
X49882Y33244
X49950Y32884
X49953Y32588
X49223Y32687
X49232Y32303
X49223Y31978
X49562Y31650
X49223Y31270
X49239Y30918
X49219Y30623
X49536Y30941
X48541Y31369
X48538Y31813
X47362Y31669
X47382Y31148
X47381Y30759
X48206Y30294
X48506Y30333
X48529Y29880
X48529Y29593
X48529Y29306
X48529Y28890
X48529Y28604
X48547Y28180
X48547Y27872
X48547Y27583
X48771Y26843
X49051Y26748
X49363Y26353
X49065Y26033
X49065Y25467
X49058Y25181
X49149Y24520
X48946Y23775
X49114Y23543
X48814Y23508
X48189Y23344
X47893Y23344
X47267Y23549
X46981Y23549
X47145Y23832
X47249Y24508
X47090Y24777
X46910Y25354
X47386Y25354
X47872Y25200
X47872Y25532
X47872Y25827
X47865Y26118
X47102Y26340
X47106Y26717
X46303Y26725
X46330Y26391
X46035Y26823
X45556Y26866
X45531Y27461
X45531Y27854
X45531Y28248
X45531Y28642
X45531Y29035
X45531Y29429
X45531Y29823
X45531Y30217
X45570Y30846
X45531Y31240
X45531Y31555
X45531Y31929
X45659Y32412
X45570Y32776
X45531Y33406
X45815Y33516
X45531Y33957
X45552Y35119
X45531Y35807
X46555Y32539
X46681Y32244
X47550Y32729
X49542Y33021
X50419Y33469
X50551Y33858
X50889Y33787
X51312Y33465
X51752Y33366
X52493Y33444
X53021Y34380
X53161Y34659
X53232Y34966
X53494Y34276
X54325Y34305
X54517Y34630
X55261Y34284
X55187Y33436
X55481Y33436
X55772Y33436
X56958Y33494
X56988Y33957
X56713Y34488
X56687Y35392
X55577Y35519
X57893Y35807
X58208Y35807
X58523Y35807
X57329Y32903
X57173Y32664
X57401Y32372
X57618Y31945
X57177Y31947
X57079Y31263
X57595Y30974
X57871Y31528
X57882Y30319
X58681Y28642
X58681Y28327
X58681Y28012
X58681Y27697
X58681Y27382
X58681Y27067
X58681Y26752
X58681Y26437
X58681Y26122
X58162Y25508
X58602Y24902
X58681Y24429
X58110Y23831
X58110Y23512
X58110Y23194
X58110Y22876
X58110Y22557
X57746Y22231
X58464Y22188
X56868Y23019
X57001Y23598
X56437Y24508
X56204Y25212
X56218Y25532
X56213Y25820
X56212Y26118
X55425Y26340
X55416Y26753
X54906Y26368
X54616Y26152
X54616Y25579
X54653Y25193
X55257Y25327
X55757Y25320
X55417Y24774
X55538Y24108
X55221Y24108
X54875Y24108
X55885Y24097
X54074Y24508
X51858Y25193
X51860Y25592
X51860Y26031
X51942Y26415
X52669Y26393
X52618Y26675
X51476Y26807
X51152Y26815
X51130Y27307
X50720Y27027
X50649Y26198
X50672Y25827
X50659Y25532
X50649Y25032
X50354Y25295
X49685Y25340
X49885Y24798
X49814Y23922
X50045Y23342
X50755Y23549
X51047Y23549
X50905Y23839
X51028Y24508
X51674Y23388
X52002Y23337
X50007Y26346
X49808Y26752
X48195Y26802
X47661Y27421
X47661Y28182
X47661Y28943
X47662Y29705
X51345Y29652
X51141Y29977
X51303Y30865
X50224Y31965
X51023Y34588
X51467Y34492
X51560Y34222
X51763Y34585
X54269Y33243
X54327Y32960
X55900Y27427
X56279Y27776
X57366Y27631
X57317Y26902
X57005Y26934
X56542Y26802
X58077Y27109
X51755Y28164
X46269Y25620
X46307Y25155
X46025Y24833
X45534Y24794
X46132Y24242
X45866Y23930
X45531Y23248
X45531Y22854
X45551Y22269
X46122Y22461
X46319Y23344
X45659Y26152
X48100Y13174
X48444Y12967
X48563Y13469
X48533Y14867
X59531Y23527
X59689Y24984
X60594Y27011
X60611Y23977
X60988Y25535
X61026Y24871
X61382Y26992
X61382Y23488
X61421Y26244
X61421Y24118
X62130Y27011
X62130Y26244
X62130Y25535
X62130Y24826
X62130Y24118
X62838Y25535
X62878Y23488
X63271Y24826
X63271Y24118
X63702Y26604
X63704Y26913
X64019Y26441
X64334Y26992
X64374Y23881
X64472Y25378
X64492Y23527
X64531Y26480
X59413Y27110
X59413Y26795
X59413Y26480
X59413Y26165
X59413Y25850
X59413Y25535
X59413Y25220
X59728Y27110
T02
X9112Y20088
X9427Y20777
X9742Y20088
X10057Y20777
X10372Y20088
X57086Y20384
X57559Y20384
X59921Y23928
X60787Y20384
X8305Y20689G85X8305Y20177
X11179Y20689G85X11179Y20177
X60043Y23488
X60515Y23488
X62878Y27031
X63744Y23488
T03
X10494Y22222
X10547Y25854
X10547Y24626
X10547Y23398
X11994Y22222
X12476Y25854
X12476Y24626
X12476Y23398
X37195Y26843
X38179Y26843
X39163Y26843
X40147Y26843
X41132Y26843
X51626Y27165
X53204Y27165
X54626Y27165
T04
X1220Y40611
X1220Y37471
X1220Y33770
X1220Y29823
X1220Y25680
X1220Y21782
X1220Y17471
X1220Y12126
X1220Y7845
X6289Y1181
X10836Y1201
X19527Y1201
X23671Y1181
X28169Y1181
X32352Y1181
X36634Y1191
X40679Y1191
X45325Y1191
X49823Y1191
X54006Y1191
X58287Y1191
X63484Y40739
X63543Y38052
X63543Y34351
X63543Y30404
X63543Y26260
X63543Y22363
X63543Y18052
X63543Y12707
X63543Y8426
X54153Y17865
X54153Y17136
X54153Y15187
X54153Y10443
X60256Y17687
X60256Y15168
X60256Y14420
X60256Y12727
X60256Y10266
X57106Y13543
X57106Y18288
X63209Y18268
X63209Y17520
X63209Y15827
X63209Y13366
X63209Y20788
X57106Y20965
X57106Y20236
X52956Y16870
X53744Y18052
X54531Y16870
X45830Y16792
X47830Y17192
X47830Y16392
X45846Y35492
X54925Y34521
X54925Y35321
X56925Y34921
T05
X17749Y43507
X17749Y42507
X17749Y40126
X17749Y39126
X18749Y43507
X18749Y42507
X18749Y40126
X18749Y39126
X19749Y43507
X19749Y42507
X19749Y40126
X19749Y39126
X20749Y43507
X20749Y42507
X20749Y40126
X20749Y39126
X21749Y43507
X21749Y42507
X21749Y40126
X21749Y39126
X22749Y43507
X22749Y42507
X22749Y40126
X22749Y39126
X23749Y43507
X23749Y42507
X23749Y40126
X23749Y39126
X24749Y43507
X24749Y42507
X24749Y40126
X24749Y39126
X31036Y43507
X31036Y42507
X31036Y40126
X31036Y39126
X32036Y43507
X32036Y42507
X32036Y40126
X32036Y39126
X33036Y43507
X33036Y42507
X33036Y40126
X33036Y39126
X34036Y43507
X34036Y42507
X34036Y40126
X34036Y39126
X35036Y43507
X35036Y42507
X35036Y40126
X35036Y39126
X36036Y43507
X36036Y42507
X36036Y40126
X36036Y39126
X37036Y43507
X37036Y42507
X37036Y40126
X37036Y39126
X38036Y43507
X38036Y42507
X38036Y40126
X38036Y39126
X39036Y43507
X39036Y42507
X39036Y40126
X39036Y39126
X40036Y43507
X40036Y42507
X40036Y40126
X40036Y39126
X41036Y43507
X41036Y42507
X41036Y40126
X41036Y39126
X42036Y43507
X42036Y42507
X42036Y40126
X42036Y39126
X43036Y43507
X43036Y42507
X43036Y40126
X43036Y39126
X44036Y43507
X44036Y42507
X44036Y40126
X44036Y39126
X45036Y43507
X45036Y42507
X45036Y40126
X45036Y39126
X46036Y43507
X46036Y42507
X46036Y40126
X46036Y39126
X47036Y43507
X47036Y42507
X47036Y40126
X47036Y39126
X48036Y43507
X48036Y42507
X48036Y40126
X48036Y39126
X49036Y43507
X49036Y42507
X49036Y40126
X49036Y39126
X52779Y20679
X53779Y20679
X54779Y20679
T06
X8308Y41224
X10060Y42326
X10060Y39126
X11201Y41409
X12382Y42326
X12382Y39126
X13524Y41409
X14666Y42326
X14666Y39126
X52146Y42326
X52146Y39126
X53288Y41409
X54430Y42326
X54430Y39126
X56260Y41224
T07
X7343Y44295
X27894Y44295
X57225Y44295
M30
