M48
INCH,TZ
T01C0.004450
T02C0.009850
T03C0.017700
T04C0.029550
T05C0.032000
T06C0.039200
T07C0.043300
T08C0.086600
T09C0.145700
%
T01
X3174Y26242
X3463Y13454
X3756Y14330
X3843Y12144
X4071Y13594
X4152Y25133
X4351Y26502
X8959Y15519
X9252Y15459
X10161Y21274
X10699Y25748
X10728Y25587
X11381Y21274
X11908Y19994
X13631Y11094
X15620Y28421
X15629Y20156
X16033Y20026
X16088Y27454
X16252Y39821
X16252Y38620
X16252Y37419
X16252Y35667
X16252Y30293
X16252Y27144
X16961Y26730
X17787Y40825
X18784Y23111
X19366Y10860
X19812Y13712
X19907Y10909
X20156Y12315
X20169Y40825
X20711Y12861
X20871Y12741
X21048Y12410
X21547Y40825
X21617Y21576
X22346Y17785
X24585Y23169
X25386Y40825
X25884Y23169
X26298Y12402
X27704Y24191
X27760Y17785
X28664Y14298
X28664Y13865
X28860Y17972
X29057Y17146
X29200Y21304
X29267Y21622
X29559Y39486
X29559Y36061
X29559Y30215
X29559Y27931
X30398Y30403
X30574Y24632
X30645Y30388
X30789Y21004
X31175Y13573
X31207Y14413
X31656Y17146
X31870Y16808
X32164Y30303
X32509Y31193
X32528Y37301
X32626Y37459
X32677Y37616
X32724Y37774
X32764Y37931
X32846Y38094
X33173Y24679
X33467Y21004
X33900Y17146
X34073Y23788
X34215Y19075
X34253Y25196
X35208Y24522
X38867Y31344
X46142Y39506
X47008Y36199
X48307Y36199
X48957Y42813
X49685Y36199
X52303Y42813
X52579Y36199
X54232Y36199
X54252Y39191
X6570Y30624
X9539Y30880
X10217Y27213
X10801Y23405
X10902Y31162
X10967Y29370
X24605Y23669
X25891Y23731
X26431Y26089
X27587Y25577
X30198Y29911
X30752Y39830
X30842Y30274
X30966Y39512
X31085Y35532
X31124Y39331
X31246Y35365
X31450Y35570
X31664Y39081
X32402Y36986
X32455Y37144
X33158Y29320
X33485Y27373
X34332Y28084
X34690Y27961
X38466Y25972
X38669Y14603
X38719Y20831
X47602Y14654
X47759Y20954
X4266Y33993
X4300Y34667
X4418Y29181
X5188Y11281
X5406Y29777
X5613Y11707
X6556Y13761
X6607Y34628
X6668Y34016
X26350Y25581
X27350Y26334
X28468Y26514
X29970Y39249
X31803Y34839
X33473Y38969
X34129Y38331
X34717Y39300
X34871Y37707
X35128Y37098
X38734Y41231
X41354Y38606
X41548Y38801
X45856Y39661
T02
X4571Y13344
X10432Y17548
X11328Y18211
X12518Y16938
X12621Y23781
X13576Y26791
X14643Y26721
X16028Y27247
X16081Y23978
X20306Y21033
X20306Y19567
X23222Y10238
X28416Y15232
X28482Y12444
X29486Y26334
X29886Y26444
X30245Y26482
X30740Y26684
X30899Y13799
X31104Y26679
X31113Y12868
X31466Y26707
X34794Y14967
X32048Y22294
X32393Y22087
X32456Y34215
X32481Y23987
X32511Y22589
X32574Y35819
X33322Y35825
X33490Y36547
X33706Y35740
X34051Y35825
X34385Y35854
X34513Y36547
X35025Y36031
X35281Y36547
X5144Y20423
X7083Y36078
X10613Y9770
X12567Y37826
X12886Y38466
X13634Y37782
X14981Y38651
X15600Y38097
X15915Y37858
X22320Y11967
X22423Y11404
X22713Y10967
X23036Y10573
X30862Y40060
X30880Y25817
X30935Y40502
X31268Y40683
X31358Y25778
X33937Y33087
X34025Y31715
X36656Y20945
X37651Y16345
X37697Y35161
X37837Y36732
X38102Y34866
X38548Y36437
X39035Y34423
X39453Y35963
X40028Y33961
X40303Y35464
X47780Y26719
X47846Y31846
X51457Y25955
X51545Y30711
X51594Y14652
X51606Y20998
X59961Y31478
X60094Y25915
X60181Y20707
X60340Y15242
X10397Y22987
X10397Y19561
X10752Y19561
X10771Y22987
X11145Y22987
X12026Y23000
X12499Y23000
X12971Y23000
X13444Y23000
X14570Y17321
X14963Y17321
X16151Y23033
X16331Y40746
X16331Y38896
X16331Y38344
X16331Y36494
X16331Y36179
X16331Y35156
X16331Y34762
X16331Y34368
X16331Y33974
X16331Y33581
X16331Y33187
X16331Y32793
X16331Y32400
X16331Y28187
X16331Y27793
X16488Y26809
X16623Y23033
X17096Y23033
X17433Y26809
X17568Y23033
X17906Y26809
X18378Y26809
X18694Y17354
X18850Y26809
X19088Y17354
X19244Y40746
X19323Y26809
X19638Y40746
X19795Y26809
X20268Y26809
X20701Y40746
X20740Y26809
X21213Y26809
X21685Y26809
X22157Y26809
X22394Y40746
X22630Y26809
X22709Y40746
X22927Y12549
X23024Y40746
X23102Y26809
X23321Y12549
X23339Y40746
X23575Y26809
X23654Y40746
X23715Y12549
X23969Y40746
X24047Y26809
X24108Y12549
X24283Y40746
X24520Y26809
X24598Y40746
X24913Y40746
X24992Y26809
X25035Y23018
X25435Y23018
X25465Y26809
X25858Y40746
X25937Y26809
X26173Y40746
X26333Y23018
X26409Y26809
X26488Y40746
X26726Y23018
X26803Y40746
X26882Y26809
X27118Y40746
X27120Y23018
X27433Y40746
X27748Y40746
X28063Y40746
X28378Y40746
X28693Y40746
X28939Y20925
X28939Y20610
X28939Y20295
X28939Y19980
X28939Y19665
X28939Y19350
X28939Y19035
X29008Y40746
X29254Y20925
X29323Y40746
X29480Y35470
X29480Y29368
X29480Y37911
X29480Y37596
X29480Y37281
X29480Y36967
X29480Y36652
X29480Y36337
X29480Y35785
X29480Y35156
X29480Y34841
X29480Y34526
X29480Y34211
X29480Y33896
X29480Y33581
X29480Y33266
X29480Y32951
X29480Y32636
X29480Y32321
X29480Y32006
X29480Y31691
X29480Y31376
X29480Y31061
X47520Y36278
X47913Y36278
X46285Y41759
X46921Y42031
X47306Y41817
X47735Y42458
X48071Y42498
X48661Y42301
X48917Y42025
X49448Y41907
X49744Y42301
X49252Y42498
X50433Y42498
X52008Y42498
X51988Y42025
X52280Y40914
X52255Y39867
X51967Y39545
X51892Y38492
X52008Y37380
X52008Y36592
X51004Y37065
X50998Y37710
X49752Y37650
X49842Y37183
X49362Y37015
X49645Y36592
X48477Y37014
X48305Y36318
X47913Y36277
X47519Y36277
X47613Y36959
X47124Y37269
X46807Y36882
X46377Y37279
X46756Y37668
X47480Y37743
X47913Y37695
X46928Y39011
X46299Y39011
X46285Y39930
X46285Y40785
X46927Y40562
X47952Y39978
X49399Y39585
X49448Y40332
X49958Y39899
X50956Y39310
X52913Y38364
X52980Y37432
X52598Y36986
X53189Y36592
X53976Y37419
X54144Y39418
X53738Y39460
X53728Y40247
X53325Y40512
X53402Y41949
X52767Y41540
X52534Y42380
X11292Y19567
X11039Y19719
X10752Y19561
X10397Y19561
X10731Y20563
X10836Y20837
X10623Y21080
X11136Y20530
X10396Y22009
X10397Y22986
X10771Y22986
X11145Y22986
X17942Y17344
X16296Y17371
X17125Y17393
X19649Y18115
X18892Y18124
X18113Y18150
X16284Y18198
X17216Y18200
X17918Y18372
X16312Y18546
X19521Y18633
X18206Y18663
X19655Y18938
X16121Y18994
X17668Y19071
X18914Y19082
X16593Y19236
X17604Y19359
X17627Y19653
X17226Y19895
X18032Y20027
X17706Y20080
X18424Y20090
X19507Y20110
X19135Y20160
X18785Y20200
X18127Y20421
X19655Y20730
X18080Y20799
X17656Y21113
X17942Y21232
X18446Y21330
X16983Y21352
X19495Y21395
X17686Y21418
X16312Y21487
X16371Y21783
X17641Y21966
X16142Y21978
X19015Y22305
X19023Y22781
X19192Y23023
X18779Y23033
X19674Y23049
X18694Y17354
X19088Y17354
X16151Y23033
X16623Y23033
X17095Y23033
X17568Y23033
X13464Y17450
X15432Y17450
X12125Y17489
X13542Y18316
X14605Y18473
X15432Y18591
X12125Y18828
X13031Y19221
X14015Y19261
X14645Y19812
X15432Y19851
X12125Y20245
X12834Y20481
X15432Y20560
X13525Y20646
X15078Y21072
X14212Y21583
X15157Y21820
X12125Y21977
X15432Y22292
X12950Y22610
X13818Y22883
X15157Y22883
X14570Y17322
X14964Y17322
X12027Y23001
X12499Y23001
X12971Y23001
X13444Y23001
X24660Y23081
X27590Y23006
X25920Y22962
X22554Y22962
X22744Y22729
X24024Y22673
X24335Y22673
X27358Y22519
X25767Y22291
X26465Y22199
X23837Y22136
X22904Y21999
X22632Y21707
X27672Y21604
X27035Y21558
X26658Y21516
X25351Y21441
X24114Y21437
X22593Y21161
X24679Y21080
X23390Y20955
X25339Y20895
X26386Y20886
X24629Y20777
X22554Y20679
X27677Y19882
X23361Y19714
X25166Y19424
X26105Y19194
X24605Y19193
X25398Y19192
X25641Y18986
X22455Y18966
X25300Y18908
X26677Y18601
X24542Y18393
X26626Y18304
X22485Y18179
X25979Y18163
X26632Y17994
X23199Y17976
X24581Y17903
X25581Y17844
X26256Y17691
X23282Y17687
X24015Y17386
X26981Y17368
X27282Y17360
X22475Y16988
X27113Y16781
X27698Y16756
X26814Y16747
X27479Y16490
X25837Y16352
X24990Y16306
X24477Y16236
X23577Y16236
X23276Y16236
X22975Y16236
X22674Y16236
X24069Y16232
X25605Y15856
X25388Y15600
X22433Y13525
X24182Y13308
X27435Y13268
X27022Y13120
X24089Y13021
X26441Y12982
X26166Y12982
X25890Y12982
X27002Y12805
X22426Y12785
X26441Y12677
X26166Y12677
X27416Y12480
X27121Y23018
X26727Y23018
X26333Y23018
X25435Y23018
X25035Y23018
X24109Y12549
X23715Y12549
X23321Y12549
X22928Y12549
X16489Y26809
X16965Y26840
X17197Y27030
X17433Y26809
X17670Y27010
X17906Y26809
X18142Y27010
X18378Y26809
X18615Y27010
X18851Y26809
X19087Y27010
X19323Y26809
X19559Y27010
X19796Y26809
X20032Y27010
X20268Y26809
X20504Y27010
X20741Y26809
X20977Y27010
X21213Y26809
X21449Y27010
X21685Y26809
X21922Y27010
X22158Y26809
X22394Y27010
X22630Y26809
X22867Y27010
X23103Y26809
X23339Y27010
X23575Y26809
X23811Y27010
X24048Y26809
X24284Y27010
X24520Y26809
X24756Y27010
X24993Y26809
X25229Y27010
X25465Y26809
X25701Y27010
X25937Y26809
X26174Y27010
X26410Y26809
X26646Y27010
X26882Y26809
X27197Y26967
X27190Y27502
X26763Y27696
X26312Y27706
X25870Y27713
X25397Y27711
X24892Y28758
X24582Y28758
X24335Y28285
X23737Y28488
X23441Y28497
X23598Y28768
X23715Y29450
X23460Y29718
X23363Y30259
X23802Y30259
X24262Y30139
X24262Y30471
X24262Y30766
X24256Y31057
X24586Y31741
X25131Y31737
X24993Y32321
X24363Y32242
X24293Y33074
X24278Y33460
X23930Y33266
X23696Y33066
X23439Y33499
X22746Y33800
X22148Y33817
X21801Y33521
X21026Y33696
X21044Y33141
X21034Y32594
X20326Y32721
X20371Y33520
X20345Y34285
X20323Y35095
X21026Y35135
X21026Y34850
X21026Y34565
X21026Y35436
X21814Y35752
X21801Y36037
X21769Y36335
X21819Y36817
X22223Y36868
X22853Y37346
X23230Y37334
X24166Y37478
X24491Y36878
X24699Y37081
X24681Y36554
X25039Y36507
X24488Y36323
X24282Y35180
X24059Y34951
X24013Y34268
X23722Y34257
X24209Y34049
X24878Y34049
X25744Y33860
X25938Y33646
X26142Y33442
X26344Y33240
X26341Y34053
X25894Y34518
X25881Y35219
X26257Y35121
X26134Y35589
X25932Y36126
X26172Y36352
X26366Y36750
X26174Y37006
X26073Y37389
X26033Y37695
X26331Y37597
X26835Y37395
X26891Y37094
X26835Y36532
X26982Y36287
X26725Y35904
X26707Y35413
X27935Y35021
X28245Y34707
X28063Y34486
X28028Y33966
X29481Y33896
X29481Y34211
X29481Y34526
X29481Y34841
X29481Y35156
X29481Y35471
X29481Y35785
X29342Y36063
X29481Y36337
X29481Y36652
X29481Y36967
X29481Y37282
X29481Y37597
X29481Y37911
X29124Y37999
X29341Y38243
X29032Y38945
X29028Y39880
X28655Y39924
X28653Y39639
X28280Y39880
X28378Y40746
X28063Y40746
X27748Y40746
X27433Y40746
X27119Y40746
X26804Y40746
X26489Y40746
X26174Y40746
X25859Y40746
X25268Y40549
X24914Y40746
X24599Y40746
X24284Y40746
X23969Y40746
X23654Y40746
X23339Y40746
X23024Y40746
X22709Y40746
X22394Y40746
X21882Y40707
X21976Y40052
X21578Y40016
X21233Y40061
X20954Y39759
X21012Y40514
X20701Y40746
X19638Y40746
X19244Y40746
X18883Y40722
X18891Y40259
X18661Y39814
X18580Y38941
X18140Y39164
X19326Y39476
X19789Y39795
X19746Y38944
X20189Y38896
X20674Y38468
X20682Y38183
X20750Y37823
X20753Y37527
X20023Y37626
X20032Y37242
X20023Y36917
X20362Y36589
X20023Y36209
X20039Y35857
X20019Y35562
X20336Y35880
X19341Y36308
X19338Y36752
X18162Y36608
X18182Y36087
X18181Y35698
X19006Y35233
X19306Y35272
X19329Y34819
X19329Y34532
X19329Y34245
X19329Y33829
X19329Y33543
X19347Y33119
X19347Y32811
X19347Y32522
X19571Y31782
X19851Y31687
X20163Y31292
X19865Y30972
X19865Y30406
X19858Y30120
X19949Y29459
X19746Y28714
X19914Y28482
X19614Y28447
X18989Y28283
X18693Y28283
X18067Y28488
X17781Y28488
X17945Y28771
X18049Y29447
X17890Y29716
X17710Y30293
X18186Y30293
X18672Y30139
X18672Y30471
X18672Y30766
X18665Y31057
X17902Y31279
X17906Y31656
X17103Y31664
X17130Y31330
X16835Y31762
X16356Y31805
X16331Y32400
X16331Y32793
X16331Y33187
X16331Y33581
X16331Y33974
X16331Y34368
X16331Y34762
X16331Y35156
X16370Y35785
X16331Y36179
X16331Y36494
X16331Y36868
X16459Y37351
X16370Y37715
X16331Y38345
X16615Y38455
X16331Y38896
X16352Y40058
X16331Y40746
X17355Y37478
X17481Y37183
X18350Y37668
X20342Y37960
X21219Y38408
X21351Y38797
X21689Y38726
X22112Y38404
X22552Y38305
X23293Y38383
X23821Y39319
X23961Y39598
X24032Y39905
X24294Y39215
X25125Y39244
X25317Y39569
X26061Y39223
X25987Y38375
X26281Y38375
X26572Y38375
X27758Y38433
X27788Y38896
X27513Y39427
X27487Y40331
X26377Y40458
X28693Y40746
X29008Y40746
X29323Y40746
X28129Y37842
X27973Y37603
X28201Y37311
X28418Y36884
X27977Y36886
X27879Y36202
X28395Y35913
X28671Y36467
X28682Y35258
X29481Y33581
X29481Y33266
X29481Y32951
X29481Y32636
X29481Y32321
X29481Y32006
X29481Y31691
X29481Y31376
X29481Y31061
X28962Y30447
X29402Y29841
X29481Y29368
X28910Y28770
X28910Y28451
X28910Y28133
X28910Y27815
X28910Y27496
X28546Y27170
X29264Y27127
X27668Y27958
X27801Y28537
X27237Y29447
X27004Y30151
X27018Y30471
X27013Y30759
X27012Y31057
X26225Y31279
X26216Y31692
X25706Y31307
X25416Y31091
X25416Y30518
X25453Y30132
X26057Y30266
X26557Y30259
X26217Y29713
X26338Y29047
X26021Y29047
X25675Y29047
X26685Y29036
X24874Y29447
X22658Y30132
X22660Y30531
X22660Y30970
X22742Y31354
X23469Y31332
X23418Y31614
X22276Y31746
X21952Y31754
X21930Y32246
X21520Y31966
X21449Y31137
X21472Y30766
X21459Y30471
X21449Y29971
X21154Y30234
X20485Y30279
X20685Y29737
X20614Y28861
X20845Y28281
X21555Y28488
X21847Y28488
X21705Y28778
X21828Y29447
X22474Y28327
X22802Y28276
X20807Y31285
X20608Y31691
X18995Y31741
X18461Y32360
X18461Y33121
X18461Y33882
X18462Y34644
X22145Y34591
X21941Y34916
X22103Y35804
X21024Y36904
X21823Y39527
X22267Y39431
X22360Y39161
X22563Y39524
X25069Y38182
X25127Y37899
X26700Y32366
X27079Y32715
X28166Y32570
X28117Y31841
X27805Y31873
X27342Y31741
X28877Y32048
X22555Y33103
X17069Y30559
X17107Y30094
X16825Y29772
X16334Y29733
X16932Y29181
X16666Y28869
X16331Y28187
X16331Y27793
X16351Y27208
X16922Y27400
X17119Y28283
X16459Y31091
X32048Y22294
X32392Y22087
X32511Y22589
X32481Y23987
X29061Y17346
X29219Y18803
X30124Y20830
X30141Y17796
X30518Y19354
X30556Y18690
X30912Y20811
X30912Y17307
X30951Y20063
X30951Y17937
X31660Y20830
X31660Y20063
X31660Y19354
X31660Y18645
X31660Y17937
X32368Y19354
X32408Y17307
X32801Y18645
X32801Y17937
X33232Y20423
X33234Y20732
X33549Y20260
X33864Y20811
X33904Y17700
X34002Y19197
X34022Y17346
X34061Y20299
X28943Y20929
X28943Y20614
X28943Y20299
X28943Y19984
X28943Y19669
X28943Y19354
X28943Y19039
X29258Y20929
X35025Y36031
X35281Y36547
X34513Y36547
X34385Y35854
X34051Y35825
X33706Y35740
X33322Y35825
X32574Y35819
X33490Y36547
X32456Y34214
T03
X37346Y25552
X37835Y14434
X37906Y31307
X37943Y20500
X38090Y25543
X38360Y31307
X38555Y14154
X38582Y20300
X46810Y14338
X46969Y25474
X46970Y31221
X47012Y20486
X47534Y14120
X47540Y30955
X47574Y25234
X47597Y20313
X48997Y25234
X49077Y14120
X49167Y20313
X49267Y30955
X49648Y25498
X49783Y20627
X49796Y14280
X49854Y31093
X57075Y31778
X57130Y25238
X57947Y26055
X58213Y31778
X59146Y14234
X59911Y13990
X59987Y21653
X60476Y21653
X5969Y22728
T04
X34840Y32125
X36741Y27476
X29569Y17303
X30041Y17303
X32404Y20846
X33270Y17303
X39488Y40167
X39488Y39537
X40177Y40482
X40177Y39852
X40177Y39222
X39577Y41289G85X40089Y41289
X39577Y38415G85X40089Y38415
X29573Y17307
X30045Y17307
X32408Y20850
X33274Y17307
T05
X34677Y21789
X36473Y16462
X36606Y21789
X38402Y16462
X42537Y39904
X44037Y39904
X56283Y39077
X56283Y37148
X58177Y38884
X58177Y36955
X22426Y32104
X24004Y32104
X25426Y32104
T06
X37000Y30565
X37000Y29565
X37000Y28565
X37059Y24758
X37059Y23758
X37059Y22758
X37256Y13419
X37256Y12419
X37256Y11419
X37307Y19541
X37307Y18541
X37307Y17541
X38000Y30565
X38000Y29565
X38000Y28565
X38059Y24758
X38059Y23758
X38059Y22758
X38256Y13419
X38256Y12419
X38256Y11419
X38307Y19541
X38307Y18541
X38307Y17541
X39000Y30565
X39000Y29565
X39000Y28565
X39059Y24758
X39059Y23758
X39059Y22758
X39256Y13419
X39256Y12419
X39256Y11419
X39307Y19541
X39307Y18541
X39307Y17541
X46193Y13404
X46193Y12404
X46193Y11404
X46248Y24624
X46248Y23624
X46248Y22624
X46358Y19573
X46358Y18573
X46358Y17573
X46398Y36455
X46413Y30238
X46413Y29238
X46413Y28238
X46575Y42557
X47193Y13404
X47193Y12404
X47193Y11404
X47248Y24624
X47248Y23624
X47248Y22624
X47358Y19573
X47358Y18573
X47358Y17573
X47413Y30238
X47413Y29238
X47413Y28238
X48193Y13404
X48193Y12404
X48193Y11404
X48248Y24624
X48248Y23624
X48248Y22624
X48358Y19573
X48358Y18573
X48358Y17573
X48413Y30238
X48413Y29238
X48413Y28238
X48858Y36455
X49980Y24569
X49980Y23569
X49980Y22569
X50004Y19608
X50004Y18608
X50004Y17608
X50091Y30018
X50091Y29018
X50091Y28018
X50098Y13262
X50098Y12262
X50098Y11262
X50551Y36455
X50980Y24569
X50980Y23569
X50980Y22569
X51004Y19608
X51004Y18608
X51004Y17608
X51091Y30018
X51091Y29018
X51091Y28018
X51098Y13262
X51098Y12262
X51098Y11262
X51299Y36455
X51319Y42557
X51980Y24569
X51980Y23569
X51980Y22569
X52004Y19608
X52004Y18608
X52004Y17608
X52091Y30018
X52091Y29018
X52091Y28018
X52098Y13262
X52098Y12262
X52098Y11262
X53268Y42557
X53819Y36455
X53996Y42557
X58488Y29978
X58488Y28978
X58488Y27978
X58598Y13230
X58598Y12230
X58598Y11230
X58618Y24478
X58618Y23478
X58618Y22478
X58657Y19376
X58657Y18376
X58657Y17376
X59488Y29978
X59488Y28978
X59488Y27978
X59598Y13230
X59598Y12230
X59598Y11230
X59618Y24478
X59618Y23478
X59618Y22478
X59657Y19376
X59657Y18376
X59657Y17376
X60488Y29978
X60488Y28978
X60488Y27978
X60598Y13230
X60598Y12230
X60598Y11230
X60618Y24478
X60618Y23478
X60618Y22478
X60657Y19376
X60657Y18376
X60657Y17376
X46574Y42557
X51319Y42557
X51299Y36454
X50551Y36454
X48858Y36454
X46397Y36454
X53819Y36454
X53996Y42557
X53267Y42557
X23439Y15695
X24621Y14907
X23439Y14120
X23361Y22821
X23761Y20821
X22961Y20821
X16646Y40431
X25725Y39460
X25725Y40260
X27725Y39860
T07
X15531Y7331
X15531Y6331
X15531Y3950
X15531Y2950
X16531Y7331
X16531Y6331
X16531Y3950
X16531Y2950
X17531Y7331
X17531Y6331
X17531Y3950
X17531Y2950
X18531Y7331
X18531Y6331
X18531Y3950
X18531Y2950
X19531Y7331
X19531Y6331
X19531Y3950
X19531Y2950
X20531Y7331
X20531Y6331
X20531Y3950
X20531Y2950
X21531Y7331
X21531Y6331
X21531Y3950
X21531Y2950
X22531Y7331
X22531Y6331
X22531Y3950
X22531Y2950
X23531Y7331
X23531Y6331
X23531Y3950
X23531Y2950
X24531Y7331
X24531Y6331
X24531Y3950
X24531Y2950
X25531Y7331
X25531Y6331
X25531Y3950
X25531Y2950
X26531Y7331
X26531Y6331
X26531Y3950
X26531Y2950
X27531Y7331
X27531Y6331
X27531Y3950
X27531Y2950
X28531Y7331
X28531Y6331
X28531Y3950
X28531Y2950
X29531Y7331
X29531Y6331
X29531Y3950
X29531Y2950
X30531Y7331
X30531Y6331
X30531Y3950
X30531Y2950
X31531Y7331
X31531Y6331
X31531Y3950
X31531Y2950
X32531Y7331
X32531Y6331
X32531Y3950
X32531Y2950
X33531Y7331
X33531Y6331
X33531Y3950
X33531Y2950
X39818Y7331
X39818Y6331
X39818Y3950
X39818Y2950
X40818Y7331
X40818Y6331
X40818Y3950
X40818Y2950
X41818Y7331
X41818Y6331
X41818Y3950
X41818Y2950
X42818Y7331
X42818Y6331
X42818Y3950
X42818Y2950
X43818Y7331
X43818Y6331
X43818Y3950
X43818Y2950
X44818Y7331
X44818Y6331
X44818Y3950
X44818Y2950
X45818Y7331
X45818Y6331
X45818Y3950
X45818Y2950
X46818Y7331
X46818Y6331
X46818Y3950
X46818Y2950
X27248Y15872
X27248Y14872
X27248Y13872
T08
X8306Y5233
X10137Y7331
X10137Y4131
X11279Y5048
X12420Y7331
X12420Y4131
X49901Y7331
X49901Y4131
X51043Y5048
X52184Y7331
X52184Y4131
X53365Y5048
X54507Y7331
X54507Y4131
X56259Y5233
T09
X7342Y2162
X36672Y2162
X57224Y2162
M30
