G75*
G70*
%OFA0B0*%
%FSLAX25Y25*%
%IPPOS*%
%LPD*%
%AMOC8*
5,1,8,0,0,1.08239X$1,22.5*
%
%AMM10*
21,1,0.025200,0.019680,0.000000,0.000000,0.000000*
21,1,0.015750,0.029130,0.000000,0.000000,0.000000*
1,1,0.009450,0.007870,-0.009840*
1,1,0.009450,-0.007870,-0.009840*
1,1,0.009450,-0.007870,0.009840*
1,1,0.009450,0.007870,0.009840*
%
%AMM7*
21,1,0.029130,0.018900,0.000000,0.000000,180.000000*
21,1,0.018900,0.029130,0.000000,0.000000,180.000000*
1,1,0.010240,-0.009450,0.009450*
1,1,0.010240,0.009450,0.009450*
1,1,0.010240,0.009450,-0.009450*
1,1,0.010240,-0.009450,-0.009450*
%
%AMM8*
21,1,0.025200,0.019680,0.000000,0.000000,270.000000*
21,1,0.015750,0.029130,0.000000,0.000000,270.000000*
1,1,0.009450,-0.009840,-0.007870*
1,1,0.009450,-0.009840,0.007870*
1,1,0.009450,0.009840,0.007870*
1,1,0.009450,0.009840,-0.007870*
%
%AMM9*
21,1,0.038980,0.026770,0.000000,0.000000,270.000000*
21,1,0.026770,0.038980,0.000000,0.000000,270.000000*
1,1,0.012210,-0.013390,-0.013390*
1,1,0.012210,-0.013390,0.013390*
1,1,0.012210,0.013390,0.013390*
1,1,0.012210,0.013390,-0.013390*
%
%ADD10C,0.02362*%
%ADD21C,0.02913*%
%ADD26M7*%
%ADD27M8*%
%ADD28M9*%
%ADD29M10*%
X0000000Y0000000D02*
%LPD*%
G01*
D10*
X0037402Y0017323D03*
X0037402Y0013583D03*
X0037402Y0009843D03*
X0003150Y0013780D03*
X0003150Y0017323D03*
X0001969Y0007087D02*
G01*
G75*
D21*
X0037402Y0017323D02*
D03*
X0037402Y0013583D02*
D03*
X0037402Y0009843D02*
D03*
X0003150Y0013780D02*
D03*
X0003150Y0017323D02*
D03*
D26*
X0029922Y0017323D02*
D03*
X0033859Y0017323D02*
D03*
X0018799Y0017323D02*
D03*
X0014862Y0017323D02*
D03*
X0010433Y0017323D02*
D03*
X0006496Y0017323D02*
D03*
X0029922Y0010040D02*
D03*
X0033859Y0010040D02*
D03*
D27*
X0026537Y0009843D02*
D03*
X0026537Y0013386D02*
D03*
D28*
X0022652Y0016556D02*
D03*
X0022652Y0010335D02*
D03*
D29*
X0010040Y0013386D02*
D03*
X0006497Y0013386D02*
D03*
X0018406Y0009843D02*
D03*
X0014863Y0009843D02*
D03*
X0033268Y0013444D02*
D03*
X0029725Y0013444D02*
D03*
X0006497Y0009843D02*
D03*
X0010040Y0009843D02*
D03*
M02*
