M48
INCH,TZ
T01C0.011800
T02C0.029550
T03C0.032750
T04C0.039200
T05C0.043300
T06C0.086600
T07C0.145700
%
T01
X45147Y10074
X45492Y9868
X45580Y11767
X45610Y10370
X42578Y32707
X42578Y30857
X42578Y30305
X42578Y28455
X42578Y28140
X42578Y27116
X42578Y26723
X42578Y26329
X42578Y25935
X42578Y25542
X42578Y25148
X42578Y24754
X42578Y24361
X42578Y20148
X42578Y19754
X42680Y17451
X42680Y17057
X42680Y16664
X42680Y15766
X42680Y15366
X42736Y18770
X43681Y18770
X44153Y18770
X44626Y18770
X45098Y18770
X45492Y32707
X45570Y18770
X45885Y32707
X46043Y18770
X46515Y18770
X46948Y32707
X46988Y18770
X47460Y18770
X47547Y11841
X47547Y11486
X47933Y18770
X48405Y18770
X48641Y32707
X48877Y18770
X48956Y32707
X49271Y32707
X49350Y18770
X49586Y32707
X49822Y18770
X49901Y32707
X50216Y32707
X50295Y18770
X50531Y32707
X50767Y18770
X50846Y32707
X50972Y11841
X50972Y11467
X50972Y11093
X51161Y32707
X51240Y18770
X51712Y18770
X52106Y32707
X52185Y18770
X52421Y32707
X52657Y18770
X52736Y32707
X53051Y32707
X53129Y18770
X53149Y14439
X53149Y14046
X53149Y13652
X53149Y13258
X53366Y32707
X53681Y32707
X53996Y32707
X54311Y32707
X54626Y32707
X54940Y32707
X55255Y32707
X55570Y32707
X55728Y27431
X55728Y21329
X55728Y29872
X55728Y29557
X55728Y29242
X55728Y28927
X55728Y28612
X55728Y28298
X55728Y27746
X55728Y27116
X55728Y26801
X55728Y26486
X55728Y26172
X55728Y25857
X55728Y25542
X55728Y25227
X55728Y24912
X55728Y24597
X55728Y24282
X55728Y23967
X55728Y23652
X55728Y23337
X55728Y23022
X56456Y24006
X56456Y23691
X56456Y23376
X56456Y23061
X56456Y22746
X56456Y22431
X56456Y22116
X56486Y30085
X56486Y29691
X56486Y25735
X56486Y25341
X56771Y24006
X60433Y11782
X60433Y11388
X62165Y32628
X62165Y32156
X62165Y31683
X62165Y31211
X62165Y28278
X62165Y27805
X62165Y27333
X62165Y26861
X54794Y10449
X54522Y11085
X54736Y11470
X54095Y11899
X54055Y12235
X54252Y12825
X54528Y13081
X54646Y13612
X54252Y13908
X54055Y13416
X54055Y14597
X54055Y16172
X54528Y16152
X55639Y16444
X56686Y16419
X57008Y16131
X58061Y16056
X59173Y16172
X59961Y16172
X59488Y15168
X58843Y15162
X58903Y13916
X59370Y14006
X59538Y13526
X59961Y13809
X59539Y12641
X60235Y12469
X60276Y12077
X60276Y11683
X59594Y11777
X59284Y11288
X59671Y10971
X59274Y10541
X58885Y10920
X58810Y11644
X58858Y12077
X57542Y11092
X57542Y10463
X56623Y10449
X55768Y10449
X55991Y11091
X56575Y12116
X56968Y13563
X56221Y13612
X56654Y14122
X57243Y15120
X58189Y17077
X59121Y17144
X59567Y16762
X59961Y17353
X59134Y18140
X57135Y18308
X57093Y17902
X56306Y17892
X56041Y17489
X54604Y17566
X55013Y16931
X54173Y16698
X47396Y11241
X47548Y11494
X47390Y11781
X47390Y12136
X48392Y11802
X48666Y11697
X48909Y11910
X48359Y11397
X49838Y12137
X50815Y12136
X50815Y11762
X50815Y11388
X56319Y31132
X56346Y32778
X56368Y31949
X57090Y29425
X57099Y30182
X57125Y30961
X57173Y32790
X57175Y31858
X57347Y31156
X57521Y32762
X57608Y29553
X57638Y30868
X57913Y29419
X57969Y32953
X58046Y31406
X58057Y30160
X58211Y32481
X58334Y31470
X58628Y31447
X58870Y31848
X59002Y31042
X59055Y31368
X59065Y30650
X59085Y29567
X59135Y29939
X59175Y30289
X59396Y30947
X59705Y29419
X59774Y30994
X60088Y31418
X60207Y31132
X60305Y30628
X60327Y32091
X60370Y29579
X60393Y31388
X60462Y32762
X60758Y32703
X60941Y31433
X60953Y32932
X61280Y30059
X61756Y30051
X61998Y29882
X62008Y30295
X62024Y29400
X56329Y30380
X56329Y29986
X62008Y32923
X62008Y32451
X62008Y31979
X62008Y31506
X56457Y27135
X56457Y25167
X56496Y28474
X57323Y27057
X57480Y25994
X57598Y25167
X57835Y28474
X58228Y27568
X58268Y26584
X58819Y25954
X58858Y25167
X59252Y28474
X59488Y27765
X59567Y25167
X59653Y27074
X60079Y25521
X60590Y26387
X60827Y25442
X60984Y28474
X61299Y25167
X61617Y27649
X61890Y26781
X61890Y25442
X56329Y26029
X56329Y25635
X62008Y28572
X62008Y28100
X62008Y27628
X62008Y27155
X42460Y15286
X42535Y18216
X42579Y16546
X42579Y13180
X42812Y13370
X42868Y14650
X42868Y14961
X43022Y17984
X43250Y16393
X43342Y17091
X43405Y14463
X43542Y13530
X43834Y13258
X43937Y18298
X43983Y17661
X44025Y17284
X44100Y15977
X44104Y14740
X44380Y13219
X44461Y15305
X44586Y14016
X44646Y15965
X44655Y17012
X44764Y15255
X44862Y13180
X45659Y18303
X45827Y13987
X46117Y15792
X46347Y16731
X46348Y15231
X46349Y16024
X46555Y16267
X46575Y13081
X46633Y15926
X46940Y17303
X47148Y15168
X47237Y17252
X47362Y13111
X47378Y16605
X47547Y17258
X47565Y13825
X47638Y15207
X47697Y16207
X47850Y16882
X47854Y13908
X48155Y14641
X48173Y17607
X48181Y17908
X48553Y13101
X48760Y17739
X48785Y18324
X48794Y17440
X49051Y18105
X49189Y16463
X49235Y15616
X49305Y15103
X49305Y14203
X49305Y13902
X49305Y13601
X49305Y13300
X49309Y14695
X49685Y16231
X49941Y16014
X52016Y13059
X52233Y14808
X52273Y18061
X52421Y17648
X52520Y14715
X52559Y17067
X52559Y16792
X52559Y16516
X52736Y17628
X52756Y13052
X52864Y17067
X52864Y16792
X53061Y18042
X42523Y17747
X42523Y17353
X42523Y16959
X42523Y16061
X42523Y15661
X52992Y14735
X52992Y14341
X52992Y13947
X52992Y13554
X42579Y19065
X43055Y19096
X43287Y19286
X43523Y19065
X43760Y19266
X43996Y19065
X44232Y19266
X44468Y19065
X44705Y19266
X44941Y19065
X45177Y19266
X45413Y19065
X45649Y19266
X45886Y19065
X46122Y19266
X46358Y19065
X46594Y19266
X46831Y19065
X47067Y19266
X47303Y19065
X47539Y19266
X47775Y19065
X48012Y19266
X48248Y19065
X48484Y19266
X48720Y19065
X48957Y19266
X49193Y19065
X49429Y19266
X49665Y19065
X49901Y19266
X50138Y19065
X50374Y19266
X50610Y19065
X50846Y19266
X51083Y19065
X51319Y19266
X51555Y19065
X51791Y19266
X52027Y19065
X52264Y19266
X52500Y19065
X52736Y19266
X52972Y19065
X53287Y19223
X53280Y19758
X52853Y19952
X52402Y19962
X51960Y19969
X51487Y19967
X50982Y21014
X50672Y21014
X50425Y20541
X49827Y20744
X49531Y20753
X49688Y21024
X49805Y21706
X49550Y21974
X49453Y22515
X49892Y22515
X50352Y22395
X50352Y22727
X50352Y23022
X50346Y23313
X50676Y23997
X51221Y23993
X51083Y24577
X50453Y24498
X50383Y25330
X50368Y25716
X50020Y25522
X49786Y25322
X49529Y25755
X48836Y26056
X48238Y26073
X47891Y25777
X47116Y25952
X47134Y25397
X47124Y24850
X46416Y24977
X46461Y25776
X46435Y26541
X46413Y27351
X47116Y27391
X47116Y27106
X47116Y26821
X47116Y27692
X47904Y28008
X47891Y28293
X47859Y28591
X47909Y29073
X48313Y29124
X48943Y29602
X49320Y29590
X50256Y29734
X50581Y29134
X50789Y29337
X50771Y28810
X51129Y28763
X50578Y28579
X50372Y27436
X50149Y27207
X50103Y26524
X49812Y26513
X50299Y26305
X50968Y26305
X51834Y26116
X52028Y25902
X52232Y25698
X52434Y25496
X52431Y26309
X51984Y26774
X51971Y27475
X52347Y27377
X52224Y27845
X52022Y28382
X52262Y28608
X52456Y29006
X52264Y29262
X52163Y29645
X52123Y29951
X52421Y29853
X52925Y29651
X52981Y29350
X52925Y28788
X53072Y28543
X52815Y28160
X52797Y27669
X54025Y27277
X54335Y26963
X54153Y26742
X54118Y26222
X55571Y26152
X55571Y26467
X55571Y26782
X55571Y27097
X55571Y27412
X55571Y27727
X55571Y28041
X55432Y28319
X55571Y28593
X55571Y28908
X55571Y29223
X55571Y29538
X55571Y29853
X55571Y30167
X55214Y30255
X55431Y30499
X55122Y31201
X55118Y32136
X54745Y32180
X54743Y31895
X54370Y32136
X54468Y33002
X54153Y33002
X53838Y33002
X53523Y33002
X53209Y33002
X52894Y33002
X52579Y33002
X52264Y33002
X51949Y33002
X51358Y32805
X51004Y33002
X50689Y33002
X50374Y33002
X50059Y33002
X49744Y33002
X49429Y33002
X49114Y33002
X48799Y33002
X48484Y33002
X47972Y32963
X48066Y32308
X47668Y32272
X47323Y32317
X47044Y32015
X47102Y32770
X46791Y33002
X45728Y33002
X45334Y33002
X44973Y32978
X44981Y32515
X44751Y32070
X44670Y31197
X44230Y31420
X45416Y31732
X45879Y32051
X45836Y31200
X46279Y31152
X46764Y30724
X46772Y30439
X46840Y30079
X46843Y29783
X46113Y29882
X46122Y29498
X46113Y29173
X46452Y28845
X46113Y28465
X46129Y28113
X46109Y27818
X46426Y28136
X45431Y28564
X45428Y29008
X44252Y28864
X44272Y28343
X44271Y27954
X45096Y27489
X45396Y27528
X45419Y27075
X45419Y26788
X45419Y26501
X45419Y26085
X45419Y25799
X45437Y25375
X45437Y25067
X45437Y24778
X45661Y24038
X45941Y23943
X46253Y23548
X45955Y23228
X45955Y22662
X45948Y22376
X46039Y21715
X45836Y20970
X46004Y20738
X45704Y20703
X45079Y20539
X44783Y20539
X44157Y20744
X43871Y20744
X44035Y21027
X44139Y21703
X43980Y21972
X43800Y22549
X44276Y22549
X44762Y22395
X44762Y22727
X44762Y23022
X44755Y23313
X43992Y23535
X43996Y23912
X43193Y23920
X43220Y23586
X42925Y24018
X42446Y24061
X42421Y24656
X42421Y25049
X42421Y25443
X42421Y25837
X42421Y26230
X42421Y26624
X42421Y27018
X42421Y27412
X42460Y28041
X42421Y28435
X42421Y28750
X42421Y29124
X42549Y29607
X42460Y29971
X42421Y30601
X42705Y30711
X42421Y31152
X42442Y32314
X42421Y33002
X43445Y29734
X43571Y29439
X44440Y29924
X46432Y30216
X47309Y30664
X47441Y31053
X47779Y30982
X48202Y30660
X48642Y30561
X49383Y30639
X49911Y31575
X50051Y31854
X50122Y32161
X50384Y31471
X51215Y31500
X51407Y31825
X52151Y31479
X52077Y30631
X52371Y30631
X52662Y30631
X53848Y30689
X53878Y31152
X53603Y31683
X53577Y32587
X52467Y32714
X54783Y33002
X55098Y33002
X55413Y33002
X54219Y30098
X54063Y29859
X54291Y29567
X54508Y29140
X54067Y29142
X53969Y28458
X54485Y28169
X54761Y28723
X54772Y27514
X55571Y25837
X55571Y25522
X55571Y25207
X55571Y24892
X55571Y24577
X55571Y24262
X55571Y23947
X55571Y23632
X55571Y23317
X55052Y22703
X55492Y22097
X55571Y21624
X55000Y21026
X55000Y20707
X55000Y20389
X55000Y20071
X55000Y19752
X54636Y19426
X55354Y19383
X53758Y20214
X53891Y20793
X53327Y21703
X53094Y22407
X53108Y22727
X53103Y23015
X53102Y23313
X52315Y23535
X52306Y23948
X51796Y23563
X51506Y23347
X51506Y22774
X51543Y22388
X52147Y22522
X52647Y22515
X52307Y21969
X52428Y21303
X52111Y21303
X51765Y21303
X52775Y21292
X50964Y21703
X48748Y22388
X48750Y22787
X48750Y23226
X48832Y23610
X49559Y23588
X49508Y23870
X48366Y24002
X48042Y24010
X48020Y24502
X47610Y24222
X47539Y23393
X47562Y23022
X47549Y22727
X47539Y22227
X47244Y22490
X46575Y22535
X46775Y21993
X46704Y21117
X46935Y20537
X47645Y20744
X47937Y20744
X47795Y21034
X47918Y21703
X48564Y20583
X48892Y20532
X46897Y23541
X46698Y23947
X45085Y23997
X44551Y24616
X44551Y25377
X44551Y26138
X44552Y26900
X48235Y26847
X48031Y27172
X48193Y28060
X47114Y29160
X47913Y31783
X48357Y31687
X48450Y31417
X48653Y31780
X51159Y30438
X51217Y30155
X52790Y24622
X53169Y24971
X54256Y24826
X54207Y24097
X53895Y24129
X53432Y23997
X54967Y24304
X48645Y25359
X43159Y22815
X43197Y22350
X42915Y22028
X42424Y21989
X43022Y21437
X42756Y21125
X42421Y20443
X42421Y20049
X42441Y19464
X43012Y19656
X43209Y20539
X42549Y23347
X44990Y10369
X45334Y10162
X45453Y10664
X45423Y12062
X56421Y20722
X56579Y22179
X57484Y24206
X57501Y21172
X57878Y22730
X57916Y22066
X58272Y24187
X58272Y20683
X58311Y23439
X58311Y21313
X59020Y24206
X59020Y23439
X59020Y22730
X59020Y22021
X59020Y21313
X59728Y22730
X59768Y20683
X60161Y22021
X60161Y21313
X60592Y23799
X60594Y24108
X60909Y23636
X61224Y24187
X61264Y21076
X61362Y22573
X61382Y20722
X61421Y23675
X56303Y24305
X56303Y23990
X56303Y23675
X56303Y23360
X56303Y23045
X56303Y22730
X56303Y22415
X56618Y24305
T02
X9112Y20088
X9427Y20777
X9742Y20088
X10057Y20777
X10372Y20088
X57086Y20384
X57559Y20384
X59921Y23927
X60787Y20384
X8305Y20689G85X8305Y20177
X11179Y20689G85X11179Y20177
X56933Y20683
X57405Y20683
X59768Y24226
X60634Y20683
T03
X10494Y22222
X10547Y25854
X10547Y24626
X10547Y23397
X11994Y22222
X12476Y25854
X12476Y24626
X12476Y23397
X37194Y26843
X38179Y26843
X39163Y26843
X40147Y26843
X41131Y26843
X48516Y24360
X50094Y24360
X51516Y24360
T04
X1220Y40611
X1220Y37471
X1220Y33770
X1220Y29823
X1220Y25679
X1220Y21782
X1220Y17471
X1220Y12126
X1220Y7845
X6289Y1181
X10836Y1201
X19527Y1201
X23671Y1181
X28169Y1181
X32352Y1181
X36633Y1191
X40679Y1191
X45324Y1191
X49822Y1191
X54005Y1191
X58287Y1191
X63484Y40738
X63543Y38051
X63543Y34351
X63543Y30404
X63543Y26260
X63543Y22362
X63543Y18051
X63543Y12707
X63543Y8425
X54153Y17864
X54153Y17136
X54153Y15187
X54153Y10443
X60255Y17687
X60255Y15168
X60255Y14420
X60255Y12727
X60255Y10266
X53996Y10738
X53996Y15483
X60099Y15463
X60099Y14715
X60099Y13022
X60099Y10561
X60099Y17983
X53996Y18160
X53996Y17431
X49846Y14065
X50634Y15247
X51421Y14065
X42720Y13987
X44720Y14387
X44720Y13587
X42736Y32687
X51815Y31716
X51815Y32516
X53815Y32116
T05
X17748Y43507
X17748Y42507
X17748Y40125
X17748Y39125
X18748Y43507
X18748Y42507
X18748Y40125
X18748Y39125
X19748Y43507
X19748Y42507
X19748Y40125
X19748Y39125
X20748Y43507
X20748Y42507
X20748Y40125
X20748Y39125
X21748Y43507
X21748Y42507
X21748Y40125
X21748Y39125
X22748Y43507
X22748Y42507
X22748Y40125
X22748Y39125
X23748Y43507
X23748Y42507
X23748Y40125
X23748Y39125
X24748Y43507
X24748Y42507
X24748Y40125
X24748Y39125
X31036Y43507
X31036Y42507
X31036Y40125
X31036Y39125
X32036Y43507
X32036Y42507
X32036Y40125
X32036Y39125
X33036Y43507
X33036Y42507
X33036Y40125
X33036Y39125
X34036Y43507
X34036Y42507
X34036Y40125
X34036Y39125
X35036Y43507
X35036Y42507
X35036Y40125
X35036Y39125
X36036Y43507
X36036Y42507
X36036Y40125
X36036Y39125
X37036Y43507
X37036Y42507
X37036Y40125
X37036Y39125
X38036Y43507
X38036Y42507
X38036Y40125
X38036Y39125
X39036Y43507
X39036Y42507
X39036Y40125
X39036Y39125
X40036Y43507
X40036Y42507
X40036Y40125
X40036Y39125
X41036Y43507
X41036Y42507
X41036Y40125
X41036Y39125
X42036Y43507
X42036Y42507
X42036Y40125
X42036Y39125
X43036Y43507
X43036Y42507
X43036Y40125
X43036Y39125
X44036Y43507
X44036Y42507
X44036Y40125
X44036Y39125
X45036Y43507
X45036Y42507
X45036Y40125
X45036Y39125
X46036Y43507
X46036Y42507
X46036Y40125
X46036Y39125
X47036Y43507
X47036Y42507
X47036Y40125
X47036Y39125
X48036Y43507
X48036Y42507
X48036Y40125
X48036Y39125
X49036Y43507
X49036Y42507
X49036Y40125
X49036Y39125
X49669Y17874
X50669Y17874
X51669Y17874
T06
X8307Y41224
X10059Y42326
X10059Y39125
X11201Y41409
X12382Y42326
X12382Y39125
X13524Y41409
X14666Y42326
X14666Y39125
X52146Y42326
X52146Y39125
X53288Y41409
X54429Y42326
X54429Y39125
X56260Y41224
T07
X7343Y44295
X27894Y44295
X57225Y44295
M30
