G75*
G70*
%OFA0B0*%
%FSLAX25Y25*%
%IPPOS*%
%LPD*%
%AMOC8*
5,1,8,0,0,1.08239X$1,22.5*
%
%AMM1*
21,1,0.086610,0.073230,0.000000,0.000000,270.000000*
21,1,0.069290,0.090550,0.000000,0.000000,270.000000*
1,1,0.017320,-0.036610,-0.034650*
1,1,0.017320,-0.036610,0.034650*
1,1,0.017320,0.036610,0.034650*
1,1,0.017320,0.036610,-0.034650*
%
%AMM10*
21,1,0.015750,0.016540,0.000000,0.000000,270.000000*
21,1,0.012600,0.019680,0.000000,0.000000,270.000000*
1,1,0.003150,-0.008270,-0.006300*
1,1,0.003150,-0.008270,0.006300*
1,1,0.003150,0.008270,0.006300*
1,1,0.003150,0.008270,-0.006300*
%
%AMM11*
21,1,0.023620,0.018900,0.000000,0.000000,90.000000*
21,1,0.018900,0.023620,0.000000,0.000000,90.000000*
1,1,0.004720,0.009450,0.009450*
1,1,0.004720,0.009450,-0.009450*
1,1,0.004720,-0.009450,-0.009450*
1,1,0.004720,-0.009450,0.009450*
%
%AMM12*
21,1,0.019680,0.019680,0.000000,0.000000,0.000000*
21,1,0.015750,0.023620,0.000000,0.000000,0.000000*
1,1,0.003940,0.007870,-0.009840*
1,1,0.003940,-0.007870,-0.009840*
1,1,0.003940,-0.007870,0.009840*
1,1,0.003940,0.007870,0.009840*
%
%AMM13*
21,1,0.019680,0.019680,0.000000,0.000000,270.000000*
21,1,0.015750,0.023620,0.000000,0.000000,270.000000*
1,1,0.003940,-0.009840,-0.007870*
1,1,0.003940,-0.009840,0.007870*
1,1,0.003940,0.009840,0.007870*
1,1,0.003940,0.009840,-0.007870*
%
%AMM2*
21,1,0.094490,0.111020,0.000000,0.000000,0.000000*
21,1,0.075590,0.129920,0.000000,0.000000,0.000000*
1,1,0.018900,0.037800,-0.055510*
1,1,0.018900,-0.037800,-0.055510*
1,1,0.018900,-0.037800,0.055510*
1,1,0.018900,0.037800,0.055510*
%
%AMM3*
21,1,0.074800,0.083460,0.000000,0.000000,0.000000*
21,1,0.059840,0.098430,0.000000,0.000000,0.000000*
1,1,0.014960,0.029920,-0.041730*
1,1,0.014960,-0.029920,-0.041730*
1,1,0.014960,-0.029920,0.041730*
1,1,0.014960,0.029920,0.041730*
%
%AMM39*
21,1,0.025590,0.026380,0.000000,0.000000,270.000000*
21,1,0.020470,0.031500,0.000000,0.000000,270.000000*
1,1,0.005120,-0.013190,-0.010240*
1,1,0.005120,-0.013190,0.010240*
1,1,0.005120,0.013190,0.010240*
1,1,0.005120,0.013190,-0.010240*
%
%AMM4*
21,1,0.078740,0.053540,0.000000,0.000000,180.000000*
21,1,0.065350,0.066930,0.000000,0.000000,180.000000*
1,1,0.013390,-0.032680,0.026770*
1,1,0.013390,0.032680,0.026770*
1,1,0.013390,0.032680,-0.026770*
1,1,0.013390,-0.032680,-0.026770*
%
%AMM40*
21,1,0.017720,0.027950,0.000000,0.000000,270.000000*
21,1,0.014170,0.031500,0.000000,0.000000,270.000000*
1,1,0.003540,-0.013980,-0.007090*
1,1,0.003540,-0.013980,0.007090*
1,1,0.003540,0.013980,0.007090*
1,1,0.003540,0.013980,-0.007090*
%
%AMM41*
21,1,0.012600,0.028980,0.000000,0.000000,90.000000*
21,1,0.010080,0.031500,0.000000,0.000000,90.000000*
1,1,0.002520,0.014490,0.005040*
1,1,0.002520,0.014490,-0.005040*
1,1,0.002520,-0.014490,-0.005040*
1,1,0.002520,-0.014490,0.005040*
%
%AMM42*
21,1,0.023620,0.030710,0.000000,0.000000,180.000000*
21,1,0.018900,0.035430,0.000000,0.000000,180.000000*
1,1,0.004720,-0.009450,0.015350*
1,1,0.004720,0.009450,0.015350*
1,1,0.004720,0.009450,-0.015350*
1,1,0.004720,-0.009450,-0.015350*
%
%AMM43*
21,1,0.027560,0.018900,0.000000,0.000000,90.000000*
21,1,0.022840,0.023620,0.000000,0.000000,90.000000*
1,1,0.004720,0.009450,0.011420*
1,1,0.004720,0.009450,-0.011420*
1,1,0.004720,-0.009450,-0.011420*
1,1,0.004720,-0.009450,0.011420*
%
%AMM44*
21,1,0.031500,0.072440,0.000000,0.000000,90.000000*
21,1,0.025200,0.078740,0.000000,0.000000,90.000000*
1,1,0.006300,0.036220,0.012600*
1,1,0.006300,0.036220,-0.012600*
1,1,0.006300,-0.036220,-0.012600*
1,1,0.006300,-0.036220,0.012600*
%
%AMM45*
21,1,0.027560,0.018900,0.000000,0.000000,180.000000*
21,1,0.022840,0.023620,0.000000,0.000000,180.000000*
1,1,0.004720,-0.011420,0.009450*
1,1,0.004720,0.011420,0.009450*
1,1,0.004720,0.011420,-0.009450*
1,1,0.004720,-0.011420,-0.009450*
%
%AMM46*
21,1,0.023620,0.030710,0.000000,0.000000,270.000000*
21,1,0.018900,0.035430,0.000000,0.000000,270.000000*
1,1,0.004720,-0.015350,-0.009450*
1,1,0.004720,-0.015350,0.009450*
1,1,0.004720,0.015350,0.009450*
1,1,0.004720,0.015350,-0.009450*
%
%AMM47*
21,1,0.035430,0.030320,0.000000,0.000000,270.000000*
21,1,0.028350,0.037400,0.000000,0.000000,270.000000*
1,1,0.007090,-0.015160,-0.014170*
1,1,0.007090,-0.015160,0.014170*
1,1,0.007090,0.015160,0.014170*
1,1,0.007090,0.015160,-0.014170*
%
%AMM48*
21,1,0.043310,0.075980,0.000000,0.000000,0.000000*
21,1,0.034650,0.084650,0.000000,0.000000,0.000000*
1,1,0.008660,0.017320,-0.037990*
1,1,0.008660,-0.017320,-0.037990*
1,1,0.008660,-0.017320,0.037990*
1,1,0.008660,0.017320,0.037990*
%
%AMM49*
21,1,0.039370,0.035430,0.000000,0.000000,0.000000*
21,1,0.031500,0.043310,0.000000,0.000000,0.000000*
1,1,0.007870,0.015750,-0.017720*
1,1,0.007870,-0.015750,-0.017720*
1,1,0.007870,-0.015750,0.017720*
1,1,0.007870,0.015750,0.017720*
%
%AMM5*
21,1,0.035430,0.030320,0.000000,0.000000,90.000000*
21,1,0.028350,0.037400,0.000000,0.000000,90.000000*
1,1,0.007090,0.015160,0.014170*
1,1,0.007090,0.015160,-0.014170*
1,1,0.007090,-0.015160,-0.014170*
1,1,0.007090,-0.015160,0.014170*
%
%AMM50*
21,1,0.027560,0.030710,0.000000,0.000000,0.000000*
21,1,0.022050,0.036220,0.000000,0.000000,0.000000*
1,1,0.005510,0.011020,-0.015350*
1,1,0.005510,-0.011020,-0.015350*
1,1,0.005510,-0.011020,0.015350*
1,1,0.005510,0.011020,0.015350*
%
%AMM51*
21,1,0.031500,0.072440,0.000000,0.000000,0.000000*
21,1,0.025200,0.078740,0.000000,0.000000,0.000000*
1,1,0.006300,0.012600,-0.036220*
1,1,0.006300,-0.012600,-0.036220*
1,1,0.006300,-0.012600,0.036220*
1,1,0.006300,0.012600,0.036220*
%
%AMM52*
21,1,0.137800,0.067720,0.000000,0.000000,0.000000*
21,1,0.120870,0.084650,0.000000,0.000000,0.000000*
1,1,0.016930,0.060430,-0.033860*
1,1,0.016930,-0.060430,-0.033860*
1,1,0.016930,-0.060430,0.033860*
1,1,0.016930,0.060430,0.033860*
%
%AMM53*
21,1,0.043310,0.075990,0.000000,0.000000,0.000000*
21,1,0.034650,0.084650,0.000000,0.000000,0.000000*
1,1,0.008660,0.017320,-0.037990*
1,1,0.008660,-0.017320,-0.037990*
1,1,0.008660,-0.017320,0.037990*
1,1,0.008660,0.017320,0.037990*
%
%AMM54*
21,1,0.086610,0.073230,0.000000,0.000000,90.000000*
21,1,0.069290,0.090550,0.000000,0.000000,90.000000*
1,1,0.017320,0.036610,0.034650*
1,1,0.017320,0.036610,-0.034650*
1,1,0.017320,-0.036610,-0.034650*
1,1,0.017320,-0.036610,0.034650*
%
%AMM6*
21,1,0.021650,0.052760,0.000000,0.000000,270.000000*
21,1,0.017320,0.057090,0.000000,0.000000,270.000000*
1,1,0.004330,-0.026380,-0.008660*
1,1,0.004330,-0.026380,0.008660*
1,1,0.004330,0.026380,0.008660*
1,1,0.004330,0.026380,-0.008660*
%
%AMM7*
21,1,0.035830,0.026770,0.000000,0.000000,0.000000*
21,1,0.029130,0.033470,0.000000,0.000000,0.000000*
1,1,0.006690,0.014570,-0.013390*
1,1,0.006690,-0.014570,-0.013390*
1,1,0.006690,-0.014570,0.013390*
1,1,0.006690,0.014570,0.013390*
%
%AMM76*
21,1,0.035430,0.030320,0.000000,0.000000,180.000000*
21,1,0.028350,0.037400,0.000000,0.000000,180.000000*
1,1,0.007090,-0.014170,0.015160*
1,1,0.007090,0.014170,0.015160*
1,1,0.007090,0.014170,-0.015160*
1,1,0.007090,-0.014170,-0.015160*
%
%AMM8*
21,1,0.070870,0.036220,0.000000,0.000000,90.000000*
21,1,0.061810,0.045280,0.000000,0.000000,90.000000*
1,1,0.009060,0.018110,0.030910*
1,1,0.009060,0.018110,-0.030910*
1,1,0.009060,-0.018110,-0.030910*
1,1,0.009060,-0.018110,0.030910*
%
%AMM9*
21,1,0.033470,0.026770,0.000000,0.000000,0.000000*
21,1,0.026770,0.033470,0.000000,0.000000,0.000000*
1,1,0.006690,0.013390,-0.013390*
1,1,0.006690,-0.013390,-0.013390*
1,1,0.006690,-0.013390,0.013390*
1,1,0.006690,0.013390,0.013390*
%
%AMM94*
21,1,0.027560,0.030710,0.000000,0.000000,180.000000*
21,1,0.022050,0.036220,0.000000,0.000000,180.000000*
1,1,0.005510,-0.011020,0.015350*
1,1,0.005510,0.011020,0.015350*
1,1,0.005510,0.011020,-0.015350*
1,1,0.005510,-0.011020,-0.015350*
%
%ADD100C,0.03150*%
%ADD133R,0.02559X0.01575*%
%ADD134R,0.01575X0.02559*%
%ADD136R,0.05512X0.01181*%
%ADD137R,0.03543X0.03150*%
%ADD138R,0.04724X0.08661*%
%ADD14C,0.02362*%
%ADD141R,0.03150X0.03543*%
%ADD147R,0.10827X0.12008*%
%ADD150M39*%
%ADD151M40*%
%ADD152M41*%
%ADD153O,0.04724X0.00866*%
%ADD154O,0.00866X0.04724*%
%ADD155O,0.04331X0.01181*%
%ADD156M42*%
%ADD157M43*%
%ADD158R,0.01378X0.00984*%
%ADD159R,0.00984X0.01378*%
%ADD160M44*%
%ADD161M45*%
%ADD162M46*%
%ADD163M47*%
%ADD164O,0.08661X0.02362*%
%ADD165M48*%
%ADD166M49*%
%ADD167M50*%
%ADD168M51*%
%ADD169M52*%
%ADD170M53*%
%ADD171M54*%
%ADD207M76*%
%ADD237M94*%
%ADD245R,0.07874X0.02559*%
%ADD247R,0.07677X0.04567*%
%ADD36R,0.00787X0.14567*%
%ADD37R,0.00787X0.01575*%
%ADD38R,0.00787X0.06299*%
%ADD39R,0.00787X0.38189*%
%ADD40R,0.00787X0.09055*%
%ADD41R,0.05512X0.00787*%
%ADD42R,0.25197X0.00787*%
%ADD43R,0.06693X0.00787*%
%ADD44R,0.12992X0.00787*%
%ADD45R,0.00787X0.27559*%
%ADD46R,0.00787X0.12992*%
%ADD47R,0.00787X0.24803*%
%ADD71O,0.00000X0.00000*%
%ADD86M1*%
%ADD87M2*%
%ADD88M3*%
%ADD89M4*%
%ADD90M5*%
%ADD91M6*%
%ADD92M7*%
%ADD93M8*%
%ADD94M9*%
%ADD95M10*%
%ADD96M11*%
%ADD97M12*%
%ADD98M13*%
X0000000Y0000000D02*
%LPD*%
G01*
G36*
G01*
X0390453Y0212787D02*
X0390453Y0213968D01*
G75*
G02*
X0391043Y0214558I0000591J0000000D01*
G01*
X0397539Y0214558D01*
G75*
G02*
X0398130Y0213968I0000000J-000591D01*
G01*
X0398130Y0212787D01*
G75*
G02*
X0397539Y0212196I-000591J0000000D01*
G01*
X0391043Y0212196D01*
G75*
G02*
X0390453Y0212787I0000000J0000591D01*
G01*
G37*
G36*
G01*
X0390453Y0207787D02*
X0390453Y0208968D01*
G75*
G02*
X0391043Y0209558I0000591J0000000D01*
G01*
X0397539Y0209558D01*
G75*
G02*
X0398130Y0208968I0000000J-000591D01*
G01*
X0398130Y0207787D01*
G75*
G02*
X0397539Y0207196I-000591J0000000D01*
G01*
X0391043Y0207196D01*
G75*
G02*
X0390453Y0207787I0000000J0000591D01*
G01*
G37*
G36*
G01*
X0390453Y0202787D02*
X0390453Y0203968D01*
G75*
G02*
X0391043Y0204558I0000591J0000000D01*
G01*
X0397539Y0204558D01*
G75*
G02*
X0398130Y0203968I0000000J-000591D01*
G01*
X0398130Y0202787D01*
G75*
G02*
X0397539Y0202196I-000591J0000000D01*
G01*
X0391043Y0202196D01*
G75*
G02*
X0390453Y0202787I0000000J0000591D01*
G01*
G37*
G36*
G01*
X0390453Y0197787D02*
X0390453Y0198968D01*
G75*
G02*
X0391043Y0199558I0000591J0000000D01*
G01*
X0397539Y0199558D01*
G75*
G02*
X0398130Y0198968I0000000J-000591D01*
G01*
X0398130Y0197787D01*
G75*
G02*
X0397539Y0197196I-000591J0000000D01*
G01*
X0391043Y0197196D01*
G75*
G02*
X0390453Y0197787I0000000J0000591D01*
G01*
G37*
G36*
G01*
X0409941Y0197787D02*
X0409941Y0198968D01*
G75*
G02*
X0410531Y0199558I0000591J0000000D01*
G01*
X0417028Y0199558D01*
G75*
G02*
X0417618Y0198968I0000000J-000591D01*
G01*
X0417618Y0197787D01*
G75*
G02*
X0417028Y0197196I-000591J0000000D01*
G01*
X0410531Y0197196D01*
G75*
G02*
X0409941Y0197787I0000000J0000591D01*
G01*
G37*
G36*
G01*
X0409941Y0202787D02*
X0409941Y0203968D01*
G75*
G02*
X0410531Y0204558I0000591J0000000D01*
G01*
X0417028Y0204558D01*
G75*
G02*
X0417618Y0203968I0000000J-000591D01*
G01*
X0417618Y0202787D01*
G75*
G02*
X0417028Y0202196I-000591J0000000D01*
G01*
X0410531Y0202196D01*
G75*
G02*
X0409941Y0202787I0000000J0000591D01*
G01*
G37*
G36*
G01*
X0409941Y0207787D02*
X0409941Y0208968D01*
G75*
G02*
X0410531Y0209558I0000591J0000000D01*
G01*
X0417028Y0209558D01*
G75*
G02*
X0417618Y0208968I0000000J-000591D01*
G01*
X0417618Y0207787D01*
G75*
G02*
X0417028Y0207196I-000591J0000000D01*
G01*
X0410531Y0207196D01*
G75*
G02*
X0409941Y0207787I0000000J0000591D01*
G01*
G37*
G36*
G01*
X0409941Y0212787D02*
X0409941Y0213968D01*
G75*
G02*
X0410531Y0214558I0000591J0000000D01*
G01*
X0417028Y0214558D01*
G75*
G02*
X0417618Y0213968I0000000J-000591D01*
G01*
X0417618Y0212787D01*
G75*
G02*
X0417028Y0212196I-000591J0000000D01*
G01*
X0410531Y0212196D01*
G75*
G02*
X0409941Y0212787I0000000J0000591D01*
G01*
G37*
G36*
G01*
X0145709Y0136276D02*
X0145709Y0139347D01*
G75*
G02*
X0145984Y0139622I0000276J0000000D01*
G01*
X0148189Y0139622D01*
G75*
G02*
X0148465Y0139347I0000000J-000276D01*
G01*
X0148465Y0136276D01*
G75*
G02*
X0148189Y0136000I-000276J0000000D01*
G01*
X0145984Y0136000D01*
G75*
G02*
X0145709Y0136276I0000000J0000276D01*
G01*
G37*
G36*
G01*
X0152008Y0136276D02*
X0152008Y0139347D01*
G75*
G02*
X0152283Y0139622I0000276J0000000D01*
G01*
X0154488Y0139622D01*
G75*
G02*
X0154764Y0139347I0000000J-000276D01*
G01*
X0154764Y0136276D01*
G75*
G02*
X0154488Y0136000I-000276J0000000D01*
G01*
X0152283Y0136000D01*
G75*
G02*
X0152008Y0136276I0000000J0000276D01*
G01*
G37*
G36*
G01*
X0422638Y0183012D02*
X0422638Y0186083D01*
G75*
G02*
X0422913Y0186358I0000276J0000000D01*
G01*
X0425118Y0186358D01*
G75*
G02*
X0425394Y0186083I0000000J-000276D01*
G01*
X0425394Y0183012D01*
G75*
G02*
X0425118Y0182736I-000276J0000000D01*
G01*
X0422913Y0182736D01*
G75*
G02*
X0422638Y0183012I0000000J0000276D01*
G01*
G37*
G36*
G01*
X0428937Y0183012D02*
X0428937Y0186083D01*
G75*
G02*
X0429213Y0186358I0000276J0000000D01*
G01*
X0431417Y0186358D01*
G75*
G02*
X0431693Y0186083I0000000J-000276D01*
G01*
X0431693Y0183012D01*
G75*
G02*
X0431417Y0182736I-000276J0000000D01*
G01*
X0429213Y0182736D01*
G75*
G02*
X0428937Y0183012I0000000J0000276D01*
G01*
G37*
G36*
G01*
X0435630Y0206032D02*
X0435630Y0209103D01*
G75*
G02*
X0435906Y0209378I0000276J0000000D01*
G01*
X0438110Y0209378D01*
G75*
G02*
X0438386Y0209103I0000000J-000276D01*
G01*
X0438386Y0206032D01*
G75*
G02*
X0438110Y0205756I-000276J0000000D01*
G01*
X0435906Y0205756D01*
G75*
G02*
X0435630Y0206032I0000000J0000276D01*
G01*
G37*
G36*
G01*
X0441929Y0206032D02*
X0441929Y0209103D01*
G75*
G02*
X0442205Y0209378I0000276J0000000D01*
G01*
X0444409Y0209378D01*
G75*
G02*
X0444685Y0209103I0000000J-000276D01*
G01*
X0444685Y0206032D01*
G75*
G02*
X0444409Y0205756I-000276J0000000D01*
G01*
X0442205Y0205756D01*
G75*
G02*
X0441929Y0206032I0000000J0000276D01*
G01*
G37*
G36*
G01*
X0422638Y0206032D02*
X0422638Y0209103D01*
G75*
G02*
X0422913Y0209378I0000276J0000000D01*
G01*
X0425118Y0209378D01*
G75*
G02*
X0425394Y0209103I0000000J-000276D01*
G01*
X0425394Y0206032D01*
G75*
G02*
X0425118Y0205756I-000276J0000000D01*
G01*
X0422913Y0205756D01*
G75*
G02*
X0422638Y0206032I0000000J0000276D01*
G01*
G37*
G36*
G01*
X0428937Y0206032D02*
X0428937Y0209103D01*
G75*
G02*
X0429213Y0209378I0000276J0000000D01*
G01*
X0431417Y0209378D01*
G75*
G02*
X0431693Y0209103I0000000J-000276D01*
G01*
X0431693Y0206032D01*
G75*
G02*
X0431417Y0205756I-000276J0000000D01*
G01*
X0429213Y0205756D01*
G75*
G02*
X0428937Y0206032I0000000J0000276D01*
G01*
G37*
G36*
G01*
X0438268Y0386054D02*
X0438268Y0397275D01*
G75*
G02*
X0439252Y0398259I0000984J0000000D01*
G01*
X0442106Y0398259D01*
G75*
G02*
X0443091Y0397275I0000000J-000984D01*
G01*
X0443091Y0386054D01*
G75*
G02*
X0442106Y0385070I-000984J0000000D01*
G01*
X0439252Y0385070D01*
G75*
G02*
X0438268Y0386054I0000000J0000984D01*
G01*
G37*
G36*
G01*
X0461594Y0386054D02*
X0461594Y0397275D01*
G75*
G02*
X0462579Y0398259I0000984J0000000D01*
G01*
X0465433Y0398259D01*
G75*
G02*
X0466417Y0397275I0000000J-000984D01*
G01*
X0466417Y0386054D01*
G75*
G02*
X0465433Y0385070I-000984J0000000D01*
G01*
X0462579Y0385070D01*
G75*
G02*
X0461594Y0386054I0000000J0000984D01*
G01*
G37*
G36*
G01*
X0145709Y0151623D02*
X0145709Y0154693D01*
G75*
G02*
X0145984Y0154969I0000276J0000000D01*
G01*
X0148189Y0154969D01*
G75*
G02*
X0148465Y0154693I0000000J-000276D01*
G01*
X0148465Y0151623D01*
G75*
G02*
X0148189Y0151347I-000276J0000000D01*
G01*
X0145984Y0151347D01*
G75*
G02*
X0145709Y0151623I0000000J0000276D01*
G01*
G37*
G36*
G01*
X0152008Y0151623D02*
X0152008Y0154693D01*
G75*
G02*
X0152283Y0154969I0000276J0000000D01*
G01*
X0154488Y0154969D01*
G75*
G02*
X0154764Y0154693I0000000J-000276D01*
G01*
X0154764Y0151623D01*
G75*
G02*
X0154488Y0151347I-000276J0000000D01*
G01*
X0152283Y0151347D01*
G75*
G02*
X0152008Y0151623I0000000J0000276D01*
G01*
G37*
G36*
G01*
X0145709Y0128602D02*
X0145709Y0131673D01*
G75*
G02*
X0145984Y0131949I0000276J0000000D01*
G01*
X0148189Y0131949D01*
G75*
G02*
X0148465Y0131673I0000000J-000276D01*
G01*
X0148465Y0128602D01*
G75*
G02*
X0148189Y0128327I-000276J0000000D01*
G01*
X0145984Y0128327D01*
G75*
G02*
X0145709Y0128602I0000000J0000276D01*
G01*
G37*
G36*
G01*
X0152008Y0128602D02*
X0152008Y0131673D01*
G75*
G02*
X0152283Y0131949I0000276J0000000D01*
G01*
X0154488Y0131949D01*
G75*
G02*
X0154764Y0131673I0000000J-000276D01*
G01*
X0154764Y0128602D01*
G75*
G02*
X0154488Y0128327I-000276J0000000D01*
G01*
X0152283Y0128327D01*
G75*
G02*
X0152008Y0128602I0000000J0000276D01*
G01*
G37*
G36*
G01*
X0435630Y0175338D02*
X0435630Y0178409D01*
G75*
G02*
X0435906Y0178685I0000276J0000000D01*
G01*
X0438110Y0178685D01*
G75*
G02*
X0438386Y0178409I0000000J-000276D01*
G01*
X0438386Y0175338D01*
G75*
G02*
X0438110Y0175063I-000276J0000000D01*
G01*
X0435906Y0175063D01*
G75*
G02*
X0435630Y0175338I0000000J0000276D01*
G01*
G37*
G36*
G01*
X0441929Y0175338D02*
X0441929Y0178409D01*
G75*
G02*
X0442205Y0178685I0000276J0000000D01*
G01*
X0444409Y0178685D01*
G75*
G02*
X0444685Y0178409I0000000J-000276D01*
G01*
X0444685Y0175338D01*
G75*
G02*
X0444409Y0175063I-000276J0000000D01*
G01*
X0442205Y0175063D01*
G75*
G02*
X0441929Y0175338I0000000J0000276D01*
G01*
G37*
G36*
G01*
X0390453Y0160976D02*
X0390453Y0162157D01*
G75*
G02*
X0391043Y0162747I0000591J0000000D01*
G01*
X0397539Y0162747D01*
G75*
G02*
X0398130Y0162157I0000000J-000591D01*
G01*
X0398130Y0160976D01*
G75*
G02*
X0397539Y0160385I-000591J0000000D01*
G01*
X0391043Y0160385D01*
G75*
G02*
X0390453Y0160976I0000000J0000591D01*
G01*
G37*
G36*
G01*
X0390453Y0155976D02*
X0390453Y0157157D01*
G75*
G02*
X0391043Y0157747I0000591J0000000D01*
G01*
X0397539Y0157747D01*
G75*
G02*
X0398130Y0157157I0000000J-000591D01*
G01*
X0398130Y0155976D01*
G75*
G02*
X0397539Y0155385I-000591J0000000D01*
G01*
X0391043Y0155385D01*
G75*
G02*
X0390453Y0155976I0000000J0000591D01*
G01*
G37*
G36*
G01*
X0390453Y0150976D02*
X0390453Y0152157D01*
G75*
G02*
X0391043Y0152747I0000591J0000000D01*
G01*
X0397539Y0152747D01*
G75*
G02*
X0398130Y0152157I0000000J-000591D01*
G01*
X0398130Y0150976D01*
G75*
G02*
X0397539Y0150385I-000591J0000000D01*
G01*
X0391043Y0150385D01*
G75*
G02*
X0390453Y0150976I0000000J0000591D01*
G01*
G37*
G36*
G01*
X0390453Y0145976D02*
X0390453Y0147157D01*
G75*
G02*
X0391043Y0147747I0000591J0000000D01*
G01*
X0397539Y0147747D01*
G75*
G02*
X0398130Y0147157I0000000J-000591D01*
G01*
X0398130Y0145976D01*
G75*
G02*
X0397539Y0145385I-000591J0000000D01*
G01*
X0391043Y0145385D01*
G75*
G02*
X0390453Y0145976I0000000J0000591D01*
G01*
G37*
G36*
G01*
X0409941Y0145976D02*
X0409941Y0147157D01*
G75*
G02*
X0410531Y0147747I0000591J0000000D01*
G01*
X0417028Y0147747D01*
G75*
G02*
X0417618Y0147157I0000000J-000591D01*
G01*
X0417618Y0145976D01*
G75*
G02*
X0417028Y0145385I-000591J0000000D01*
G01*
X0410531Y0145385D01*
G75*
G02*
X0409941Y0145976I0000000J0000591D01*
G01*
G37*
G36*
G01*
X0409941Y0150976D02*
X0409941Y0152157D01*
G75*
G02*
X0410531Y0152747I0000591J0000000D01*
G01*
X0417028Y0152747D01*
G75*
G02*
X0417618Y0152157I0000000J-000591D01*
G01*
X0417618Y0150976D01*
G75*
G02*
X0417028Y0150385I-000591J0000000D01*
G01*
X0410531Y0150385D01*
G75*
G02*
X0409941Y0150976I0000000J0000591D01*
G01*
G37*
G36*
G01*
X0409941Y0155976D02*
X0409941Y0157157D01*
G75*
G02*
X0410531Y0157747I0000591J0000000D01*
G01*
X0417028Y0157747D01*
G75*
G02*
X0417618Y0157157I0000000J-000591D01*
G01*
X0417618Y0155976D01*
G75*
G02*
X0417028Y0155385I-000591J0000000D01*
G01*
X0410531Y0155385D01*
G75*
G02*
X0409941Y0155976I0000000J0000591D01*
G01*
G37*
G36*
G01*
X0409941Y0160976D02*
X0409941Y0162157D01*
G75*
G02*
X0410531Y0162747I0000591J0000000D01*
G01*
X0417028Y0162747D01*
G75*
G02*
X0417618Y0162157I0000000J-000591D01*
G01*
X0417618Y0160976D01*
G75*
G02*
X0417028Y0160385I-000591J0000000D01*
G01*
X0410531Y0160385D01*
G75*
G02*
X0409941Y0160976I0000000J0000591D01*
G01*
G37*
G36*
G01*
X0359921Y0313101D02*
X0359921Y0317117D01*
G75*
G02*
X0360276Y0317472I0000354J0000000D01*
G01*
X0363110Y0317472D01*
G75*
G02*
X0363465Y0317117I0000000J-000354D01*
G01*
X0363465Y0313101D01*
G75*
G02*
X0363110Y0312747I-000354J0000000D01*
G01*
X0360276Y0312747D01*
G75*
G02*
X0359921Y0313101I0000000J0000354D01*
G01*
G37*
G36*
G01*
X0372913Y0313101D02*
X0372913Y0317117D01*
G75*
G02*
X0373268Y0317472I0000354J0000000D01*
G01*
X0376102Y0317472D01*
G75*
G02*
X0376457Y0317117I0000000J-000354D01*
G01*
X0376457Y0313101D01*
G75*
G02*
X0376102Y0312747I-000354J0000000D01*
G01*
X0373268Y0312747D01*
G75*
G02*
X0372913Y0313101I0000000J0000354D01*
G01*
G37*
G36*
G01*
X0452992Y0291977D02*
X0452992Y0295048D01*
G75*
G02*
X0453268Y0295323I0000276J0000000D01*
G01*
X0455472Y0295323D01*
G75*
G02*
X0455748Y0295048I0000000J-000276D01*
G01*
X0455748Y0291977D01*
G75*
G02*
X0455472Y0291701I-000276J0000000D01*
G01*
X0453268Y0291701D01*
G75*
G02*
X0452992Y0291977I0000000J0000276D01*
G01*
G37*
G36*
G01*
X0459291Y0291977D02*
X0459291Y0295048D01*
G75*
G02*
X0459567Y0295323I0000276J0000000D01*
G01*
X0461772Y0295323D01*
G75*
G02*
X0462047Y0295048I0000000J-000276D01*
G01*
X0462047Y0291977D01*
G75*
G02*
X0461772Y0291701I-000276J0000000D01*
G01*
X0459567Y0291701D01*
G75*
G02*
X0459291Y0291977I0000000J0000276D01*
G01*
G37*
G36*
G01*
X0359921Y0325385D02*
X0359921Y0329401D01*
G75*
G02*
X0360276Y0329755I0000354J0000000D01*
G01*
X0363110Y0329755D01*
G75*
G02*
X0363465Y0329401I0000000J-000354D01*
G01*
X0363465Y0325385D01*
G75*
G02*
X0363110Y0325031I-000354J0000000D01*
G01*
X0360276Y0325031D01*
G75*
G02*
X0359921Y0325385I0000000J0000354D01*
G01*
G37*
G36*
G01*
X0372913Y0325385D02*
X0372913Y0329401D01*
G75*
G02*
X0373268Y0329755I0000354J0000000D01*
G01*
X0376102Y0329755D01*
G75*
G02*
X0376457Y0329401I0000000J-000354D01*
G01*
X0376457Y0325385D01*
G75*
G02*
X0376102Y0325031I-000354J0000000D01*
G01*
X0373268Y0325031D01*
G75*
G02*
X0372913Y0325385I0000000J0000354D01*
G01*
G37*
G36*
G01*
X0438307Y0249671D02*
X0438307Y0251689D01*
G75*
G02*
X0439168Y0252550I0000861J0000000D01*
G01*
X0440891Y0252550D01*
G75*
G02*
X0441752Y0251689I0000000J-000861D01*
G01*
X0441752Y0249671D01*
G75*
G02*
X0440891Y0248810I-000861J0000000D01*
G01*
X0439168Y0248810D01*
G75*
G02*
X0438307Y0249671I0000000J0000861D01*
G01*
G37*
G36*
G01*
X0444508Y0249671D02*
X0444508Y0251689D01*
G75*
G02*
X0445369Y0252550I0000861J0000000D01*
G01*
X0447092Y0252550D01*
G75*
G02*
X0447953Y0251689I0000000J-000861D01*
G01*
X0447953Y0249671D01*
G75*
G02*
X0447092Y0248810I-000861J0000000D01*
G01*
X0445369Y0248810D01*
G75*
G02*
X0444508Y0249671I0000000J0000861D01*
G01*
G37*
G36*
G01*
X0448622Y0190685D02*
X0448622Y0193756D01*
G75*
G02*
X0448898Y0194032I0000276J0000000D01*
G01*
X0451102Y0194032D01*
G75*
G02*
X0451378Y0193756I0000000J-000276D01*
G01*
X0451378Y0190685D01*
G75*
G02*
X0451102Y0190410I-000276J0000000D01*
G01*
X0448898Y0190410D01*
G75*
G02*
X0448622Y0190685I0000000J0000276D01*
G01*
G37*
G36*
G01*
X0454921Y0190685D02*
X0454921Y0193756D01*
G75*
G02*
X0455197Y0194032I0000276J0000000D01*
G01*
X0457402Y0194032D01*
G75*
G02*
X0457677Y0193756I0000000J-000276D01*
G01*
X0457677Y0190685D01*
G75*
G02*
X0457402Y0190410I-000276J0000000D01*
G01*
X0455197Y0190410D01*
G75*
G02*
X0454921Y0190685I0000000J0000276D01*
G01*
G37*
G36*
G01*
X0452992Y0268957D02*
X0452992Y0272028D01*
G75*
G02*
X0453268Y0272303I0000276J0000000D01*
G01*
X0455472Y0272303D01*
G75*
G02*
X0455748Y0272028I0000000J-000276D01*
G01*
X0455748Y0268957D01*
G75*
G02*
X0455472Y0268681I-000276J0000000D01*
G01*
X0453268Y0268681D01*
G75*
G02*
X0452992Y0268957I0000000J0000276D01*
G01*
G37*
G36*
G01*
X0459291Y0268957D02*
X0459291Y0272028D01*
G75*
G02*
X0459567Y0272303I0000276J0000000D01*
G01*
X0461772Y0272303D01*
G75*
G02*
X0462047Y0272028I0000000J-000276D01*
G01*
X0462047Y0268957D01*
G75*
G02*
X0461772Y0268681I-000276J0000000D01*
G01*
X0459567Y0268681D01*
G75*
G02*
X0459291Y0268957I0000000J0000276D01*
G01*
G37*
G36*
G01*
X0256260Y0136276D02*
X0256260Y0139347D01*
G75*
G02*
X0256535Y0139622I0000276J0000000D01*
G01*
X0258740Y0139622D01*
G75*
G02*
X0259016Y0139347I0000000J-000276D01*
G01*
X0259016Y0136276D01*
G75*
G02*
X0258740Y0136000I-000276J0000000D01*
G01*
X0256535Y0136000D01*
G75*
G02*
X0256260Y0136276I0000000J0000276D01*
G01*
G37*
G36*
G01*
X0262559Y0136276D02*
X0262559Y0139347D01*
G75*
G02*
X0262835Y0139622I0000276J0000000D01*
G01*
X0265039Y0139622D01*
G75*
G02*
X0265315Y0139347I0000000J-000276D01*
G01*
X0265315Y0136276D01*
G75*
G02*
X0265039Y0136000I-000276J0000000D01*
G01*
X0262835Y0136000D01*
G75*
G02*
X0262559Y0136276I0000000J0000276D01*
G01*
G37*
G36*
G01*
X0452992Y0276630D02*
X0452992Y0279701D01*
G75*
G02*
X0453268Y0279977I0000276J0000000D01*
G01*
X0455472Y0279977D01*
G75*
G02*
X0455748Y0279701I0000000J-000276D01*
G01*
X0455748Y0276630D01*
G75*
G02*
X0455472Y0276355I-000276J0000000D01*
G01*
X0453268Y0276355D01*
G75*
G02*
X0452992Y0276630I0000000J0000276D01*
G01*
G37*
G36*
G01*
X0459291Y0276630D02*
X0459291Y0279701D01*
G75*
G02*
X0459567Y0279977I0000276J0000000D01*
G01*
X0461772Y0279977D01*
G75*
G02*
X0462047Y0279701I0000000J-000276D01*
G01*
X0462047Y0276630D01*
G75*
G02*
X0461772Y0276355I-000276J0000000D01*
G01*
X0459567Y0276355D01*
G75*
G02*
X0459291Y0276630I0000000J0000276D01*
G01*
G37*
G36*
G01*
X0438268Y0366802D02*
X0438268Y0378023D01*
G75*
G02*
X0439252Y0379007I0000984J0000000D01*
G01*
X0442106Y0379007D01*
G75*
G02*
X0443091Y0378023I0000000J-000984D01*
G01*
X0443091Y0366802D01*
G75*
G02*
X0442106Y0365818I-000984J0000000D01*
G01*
X0439252Y0365818D01*
G75*
G02*
X0438268Y0366802I0000000J0000984D01*
G01*
G37*
G36*
G01*
X0461594Y0366802D02*
X0461594Y0378023D01*
G75*
G02*
X0462579Y0379007I0000984J0000000D01*
G01*
X0465433Y0379007D01*
G75*
G02*
X0466417Y0378023I0000000J-000984D01*
G01*
X0466417Y0366802D01*
G75*
G02*
X0465433Y0365818I-000984J0000000D01*
G01*
X0462579Y0365818D01*
G75*
G02*
X0461594Y0366802I0000000J0000984D01*
G01*
G37*
G36*
G01*
X0435630Y0183012D02*
X0435630Y0186083D01*
G75*
G02*
X0435906Y0186358I0000276J0000000D01*
G01*
X0438110Y0186358D01*
G75*
G02*
X0438386Y0186083I0000000J-000276D01*
G01*
X0438386Y0183012D01*
G75*
G02*
X0438110Y0182736I-000276J0000000D01*
G01*
X0435906Y0182736D01*
G75*
G02*
X0435630Y0183012I0000000J0000276D01*
G01*
G37*
G36*
G01*
X0441929Y0183012D02*
X0441929Y0186083D01*
G75*
G02*
X0442205Y0186358I0000276J0000000D01*
G01*
X0444409Y0186358D01*
G75*
G02*
X0444685Y0186083I0000000J-000276D01*
G01*
X0444685Y0183012D01*
G75*
G02*
X0444409Y0182736I-000276J0000000D01*
G01*
X0442205Y0182736D01*
G75*
G02*
X0441929Y0183012I0000000J0000276D01*
G01*
G37*
G36*
G01*
X0159783Y0132472D02*
X0159783Y0133653D01*
G75*
G02*
X0160374Y0134243I0000591J0000000D01*
G01*
X0166870Y0134243D01*
G75*
G02*
X0167461Y0133653I0000000J-000591D01*
G01*
X0167461Y0132472D01*
G75*
G02*
X0166870Y0131881I-000591J0000000D01*
G01*
X0160374Y0131881D01*
G75*
G02*
X0159783Y0132472I0000000J0000591D01*
G01*
G37*
G36*
G01*
X0159783Y0127472D02*
X0159783Y0128653D01*
G75*
G02*
X0160374Y0129243I0000591J0000000D01*
G01*
X0166870Y0129243D01*
G75*
G02*
X0167461Y0128653I0000000J-000591D01*
G01*
X0167461Y0127472D01*
G75*
G02*
X0166870Y0126881I-000591J0000000D01*
G01*
X0160374Y0126881D01*
G75*
G02*
X0159783Y0127472I0000000J0000591D01*
G01*
G37*
G36*
G01*
X0159783Y0122472D02*
X0159783Y0123653D01*
G75*
G02*
X0160374Y0124243I0000591J0000000D01*
G01*
X0166870Y0124243D01*
G75*
G02*
X0167461Y0123653I0000000J-000591D01*
G01*
X0167461Y0122472D01*
G75*
G02*
X0166870Y0121881I-000591J0000000D01*
G01*
X0160374Y0121881D01*
G75*
G02*
X0159783Y0122472I0000000J0000591D01*
G01*
G37*
G36*
G01*
X0159783Y0117472D02*
X0159783Y0118653D01*
G75*
G02*
X0160374Y0119243I0000591J0000000D01*
G01*
X0166870Y0119243D01*
G75*
G02*
X0167461Y0118653I0000000J-000591D01*
G01*
X0167461Y0117472D01*
G75*
G02*
X0166870Y0116881I-000591J0000000D01*
G01*
X0160374Y0116881D01*
G75*
G02*
X0159783Y0117472I0000000J0000591D01*
G01*
G37*
G36*
G01*
X0179272Y0117472D02*
X0179272Y0118653D01*
G75*
G02*
X0179862Y0119243I0000591J0000000D01*
G01*
X0186358Y0119243D01*
G75*
G02*
X0186949Y0118653I0000000J-000591D01*
G01*
X0186949Y0117472D01*
G75*
G02*
X0186358Y0116881I-000591J0000000D01*
G01*
X0179862Y0116881D01*
G75*
G02*
X0179272Y0117472I0000000J0000591D01*
G01*
G37*
G36*
G01*
X0179272Y0122472D02*
X0179272Y0123653D01*
G75*
G02*
X0179862Y0124243I0000591J0000000D01*
G01*
X0186358Y0124243D01*
G75*
G02*
X0186949Y0123653I0000000J-000591D01*
G01*
X0186949Y0122472D01*
G75*
G02*
X0186358Y0121881I-000591J0000000D01*
G01*
X0179862Y0121881D01*
G75*
G02*
X0179272Y0122472I0000000J0000591D01*
G01*
G37*
G36*
G01*
X0179272Y0127472D02*
X0179272Y0128653D01*
G75*
G02*
X0179862Y0129243I0000591J0000000D01*
G01*
X0186358Y0129243D01*
G75*
G02*
X0186949Y0128653I0000000J-000591D01*
G01*
X0186949Y0127472D01*
G75*
G02*
X0186358Y0126881I-000591J0000000D01*
G01*
X0179862Y0126881D01*
G75*
G02*
X0179272Y0127472I0000000J0000591D01*
G01*
G37*
G36*
G01*
X0179272Y0132472D02*
X0179272Y0133653D01*
G75*
G02*
X0179862Y0134243I0000591J0000000D01*
G01*
X0186358Y0134243D01*
G75*
G02*
X0186949Y0133653I0000000J-000591D01*
G01*
X0186949Y0132472D01*
G75*
G02*
X0186358Y0131881I-000591J0000000D01*
G01*
X0179862Y0131881D01*
G75*
G02*
X0179272Y0132472I0000000J0000591D01*
G01*
G37*
G36*
G01*
X0256260Y0151623D02*
X0256260Y0154693D01*
G75*
G02*
X0256535Y0154969I0000276J0000000D01*
G01*
X0258740Y0154969D01*
G75*
G02*
X0259016Y0154693I0000000J-000276D01*
G01*
X0259016Y0151623D01*
G75*
G02*
X0258740Y0151347I-000276J0000000D01*
G01*
X0256535Y0151347D01*
G75*
G02*
X0256260Y0151623I0000000J0000276D01*
G01*
G37*
G36*
G01*
X0262559Y0151623D02*
X0262559Y0154693D01*
G75*
G02*
X0262835Y0154969I0000276J0000000D01*
G01*
X0265039Y0154969D01*
G75*
G02*
X0265315Y0154693I0000000J-000276D01*
G01*
X0265315Y0151623D01*
G75*
G02*
X0265039Y0151347I-000276J0000000D01*
G01*
X0262835Y0151347D01*
G75*
G02*
X0262559Y0151623I0000000J0000276D01*
G01*
G37*
G36*
G01*
X0199843Y0128889D02*
X0199843Y0131566D01*
G75*
G02*
X0200177Y0131901I0000335J0000000D01*
G01*
X0202854Y0131901D01*
G75*
G02*
X0203189Y0131566I0000000J-000335D01*
G01*
X0203189Y0128889D01*
G75*
G02*
X0202854Y0128555I-000335J0000000D01*
G01*
X0200177Y0128555D01*
G75*
G02*
X0199843Y0128889I0000000J0000335D01*
G01*
G37*
G36*
G01*
X0206063Y0128889D02*
X0206063Y0131566D01*
G75*
G02*
X0206398Y0131901I0000335J0000000D01*
G01*
X0209075Y0131901D01*
G75*
G02*
X0209409Y0131566I0000000J-000335D01*
G01*
X0209409Y0128889D01*
G75*
G02*
X0209075Y0128555I-000335J0000000D01*
G01*
X0206398Y0128555D01*
G75*
G02*
X0206063Y0128889I0000000J0000335D01*
G01*
G37*
G36*
G01*
X0214429Y0158377D02*
X0214429Y0159558D01*
G75*
G02*
X0215020Y0160149I0000591J0000000D01*
G01*
X0221516Y0160149D01*
G75*
G02*
X0222106Y0159558I0000000J-000591D01*
G01*
X0222106Y0158377D01*
G75*
G02*
X0221516Y0157787I-000591J0000000D01*
G01*
X0215020Y0157787D01*
G75*
G02*
X0214429Y0158377I0000000J0000591D01*
G01*
G37*
G36*
G01*
X0214429Y0153377D02*
X0214429Y0154558D01*
G75*
G02*
X0215020Y0155149I0000591J0000000D01*
G01*
X0221516Y0155149D01*
G75*
G02*
X0222106Y0154558I0000000J-000591D01*
G01*
X0222106Y0153377D01*
G75*
G02*
X0221516Y0152787I-000591J0000000D01*
G01*
X0215020Y0152787D01*
G75*
G02*
X0214429Y0153377I0000000J0000591D01*
G01*
G37*
G36*
G01*
X0214429Y0148377D02*
X0214429Y0149558D01*
G75*
G02*
X0215020Y0150149I0000591J0000000D01*
G01*
X0221516Y0150149D01*
G75*
G02*
X0222106Y0149558I0000000J-000591D01*
G01*
X0222106Y0148377D01*
G75*
G02*
X0221516Y0147787I-000591J0000000D01*
G01*
X0215020Y0147787D01*
G75*
G02*
X0214429Y0148377I0000000J0000591D01*
G01*
G37*
G36*
G01*
X0214429Y0143377D02*
X0214429Y0144558D01*
G75*
G02*
X0215020Y0145149I0000591J0000000D01*
G01*
X0221516Y0145149D01*
G75*
G02*
X0222106Y0144558I0000000J-000591D01*
G01*
X0222106Y0143377D01*
G75*
G02*
X0221516Y0142787I-000591J0000000D01*
G01*
X0215020Y0142787D01*
G75*
G02*
X0214429Y0143377I0000000J0000591D01*
G01*
G37*
G36*
G01*
X0233917Y0143377D02*
X0233917Y0144558D01*
G75*
G02*
X0234508Y0145149I0000591J0000000D01*
G01*
X0241004Y0145149D01*
G75*
G02*
X0241594Y0144558I0000000J-000591D01*
G01*
X0241594Y0143377D01*
G75*
G02*
X0241004Y0142787I-000591J0000000D01*
G01*
X0234508Y0142787D01*
G75*
G02*
X0233917Y0143377I0000000J0000591D01*
G01*
G37*
G36*
G01*
X0233917Y0148377D02*
X0233917Y0149558D01*
G75*
G02*
X0234508Y0150149I0000591J0000000D01*
G01*
X0241004Y0150149D01*
G75*
G02*
X0241594Y0149558I0000000J-000591D01*
G01*
X0241594Y0148377D01*
G75*
G02*
X0241004Y0147787I-000591J0000000D01*
G01*
X0234508Y0147787D01*
G75*
G02*
X0233917Y0148377I0000000J0000591D01*
G01*
G37*
G36*
G01*
X0233917Y0153377D02*
X0233917Y0154558D01*
G75*
G02*
X0234508Y0155149I0000591J0000000D01*
G01*
X0241004Y0155149D01*
G75*
G02*
X0241594Y0154558I0000000J-000591D01*
G01*
X0241594Y0153377D01*
G75*
G02*
X0241004Y0152787I-000591J0000000D01*
G01*
X0234508Y0152787D01*
G75*
G02*
X0233917Y0153377I0000000J0000591D01*
G01*
G37*
G36*
G01*
X0233917Y0158377D02*
X0233917Y0159558D01*
G75*
G02*
X0234508Y0160149I0000591J0000000D01*
G01*
X0241004Y0160149D01*
G75*
G02*
X0241594Y0159558I0000000J-000591D01*
G01*
X0241594Y0158377D01*
G75*
G02*
X0241004Y0157787I-000591J0000000D01*
G01*
X0234508Y0157787D01*
G75*
G02*
X0233917Y0158377I0000000J0000591D01*
G01*
G37*
G36*
G01*
X0435630Y0190685D02*
X0435630Y0193756D01*
G75*
G02*
X0435906Y0194032I0000276J0000000D01*
G01*
X0438110Y0194032D01*
G75*
G02*
X0438386Y0193756I0000000J-000276D01*
G01*
X0438386Y0190685D01*
G75*
G02*
X0438110Y0190410I-000276J0000000D01*
G01*
X0435906Y0190410D01*
G75*
G02*
X0435630Y0190685I0000000J0000276D01*
G01*
G37*
G36*
G01*
X0441929Y0190685D02*
X0441929Y0193756D01*
G75*
G02*
X0442205Y0194032I0000276J0000000D01*
G01*
X0444409Y0194032D01*
G75*
G02*
X0444685Y0193756I0000000J-000276D01*
G01*
X0444685Y0190685D01*
G75*
G02*
X0444409Y0190410I-000276J0000000D01*
G01*
X0442205Y0190410D01*
G75*
G02*
X0441929Y0190685I0000000J0000276D01*
G01*
G37*
G36*
G01*
X0359921Y0300818D02*
X0359921Y0304834D01*
G75*
G02*
X0360276Y0305188I0000354J0000000D01*
G01*
X0363110Y0305188D01*
G75*
G02*
X0363465Y0304834I0000000J-000354D01*
G01*
X0363465Y0300818D01*
G75*
G02*
X0363110Y0300464I-000354J0000000D01*
G01*
X0360276Y0300464D01*
G75*
G02*
X0359921Y0300818I0000000J0000354D01*
G01*
G37*
G36*
G01*
X0372913Y0300818D02*
X0372913Y0304834D01*
G75*
G02*
X0373268Y0305188I0000354J0000000D01*
G01*
X0376102Y0305188D01*
G75*
G02*
X0376457Y0304834I0000000J-000354D01*
G01*
X0376457Y0300818D01*
G75*
G02*
X0376102Y0300464I-000354J0000000D01*
G01*
X0373268Y0300464D01*
G75*
G02*
X0372913Y0300818I0000000J0000354D01*
G01*
G37*
G36*
G01*
X0214449Y0122939D02*
X0214449Y0124957D01*
G75*
G02*
X0215310Y0125818I0000861J0000000D01*
G01*
X0217032Y0125818D01*
G75*
G02*
X0217894Y0124957I0000000J-000861D01*
G01*
X0217894Y0122939D01*
G75*
G02*
X0217032Y0122078I-000861J0000000D01*
G01*
X0215310Y0122078D01*
G75*
G02*
X0214449Y0122939I0000000J0000861D01*
G01*
G37*
G36*
G01*
X0220650Y0122939D02*
X0220650Y0124957D01*
G75*
G02*
X0221511Y0125818I0000861J0000000D01*
G01*
X0223233Y0125818D01*
G75*
G02*
X0224094Y0124957I0000000J-000861D01*
G01*
X0224094Y0122939D01*
G75*
G02*
X0223233Y0122078I-000861J0000000D01*
G01*
X0221511Y0122078D01*
G75*
G02*
X0220650Y0122939I0000000J0000861D01*
G01*
G37*
G36*
G01*
X0199843Y0151921D02*
X0199843Y0154598D01*
G75*
G02*
X0200177Y0154932I0000335J0000000D01*
G01*
X0202854Y0154932D01*
G75*
G02*
X0203189Y0154598I0000000J-000335D01*
G01*
X0203189Y0151921D01*
G75*
G02*
X0202854Y0151586I-000335J0000000D01*
G01*
X0200177Y0151586D01*
G75*
G02*
X0199843Y0151921I0000000J0000335D01*
G01*
G37*
G36*
G01*
X0206063Y0151921D02*
X0206063Y0154598D01*
G75*
G02*
X0206398Y0154932I0000335J0000000D01*
G01*
X0209075Y0154932D01*
G75*
G02*
X0209409Y0154598I0000000J-000335D01*
G01*
X0209409Y0151921D01*
G75*
G02*
X0209075Y0151586I-000335J0000000D01*
G01*
X0206398Y0151586D01*
G75*
G02*
X0206063Y0151921I0000000J0000335D01*
G01*
G37*
G36*
G01*
X0145709Y0113256D02*
X0145709Y0116326D01*
G75*
G02*
X0145984Y0116602I0000276J0000000D01*
G01*
X0148189Y0116602D01*
G75*
G02*
X0148465Y0116326I0000000J-000276D01*
G01*
X0148465Y0113256D01*
G75*
G02*
X0148189Y0112980I-000276J0000000D01*
G01*
X0145984Y0112980D01*
G75*
G02*
X0145709Y0113256I0000000J0000276D01*
G01*
G37*
G36*
G01*
X0152008Y0113256D02*
X0152008Y0116326D01*
G75*
G02*
X0152283Y0116602I0000276J0000000D01*
G01*
X0154488Y0116602D01*
G75*
G02*
X0154764Y0116326I0000000J-000276D01*
G01*
X0154764Y0113256D01*
G75*
G02*
X0154488Y0112980I-000276J0000000D01*
G01*
X0152283Y0112980D01*
G75*
G02*
X0152008Y0113256I0000000J0000276D01*
G01*
G37*
G36*
G01*
X0390453Y0282668D02*
X0390453Y0285424D01*
G75*
G02*
X0391437Y0286409I0000984J0000000D01*
G01*
X0398130Y0286409D01*
G75*
G02*
X0399114Y0285424I0000000J-000984D01*
G01*
X0399114Y0282668D01*
G75*
G02*
X0398130Y0281684I-000984J0000000D01*
G01*
X0391437Y0281684D01*
G75*
G02*
X0390453Y0282668I0000000J0000984D01*
G01*
G37*
G36*
G01*
X0406988Y0276645D02*
X0406988Y0285503D01*
G75*
G02*
X0407972Y0286487I0000984J0000000D01*
G01*
X0418012Y0286487D01*
G75*
G02*
X0418996Y0285503I0000000J-000984D01*
G01*
X0418996Y0276645D01*
G75*
G02*
X0418012Y0275661I-000984J0000000D01*
G01*
X0407972Y0275661D01*
G75*
G02*
X0406988Y0276645I0000000J0000984D01*
G01*
G37*
G36*
G01*
X0406988Y0264637D02*
X0406988Y0273495D01*
G75*
G02*
X0407972Y0274479I0000984J0000000D01*
G01*
X0418012Y0274479D01*
G75*
G02*
X0418996Y0273495I0000000J-000984D01*
G01*
X0418996Y0264637D01*
G75*
G02*
X0418012Y0263653I-000984J0000000D01*
G01*
X0407972Y0263653D01*
G75*
G02*
X0406988Y0264637I0000000J0000984D01*
G01*
G37*
G36*
G01*
X0420177Y0276645D02*
X0420177Y0285503D01*
G75*
G02*
X0421161Y0286487I0000984J0000000D01*
G01*
X0431201Y0286487D01*
G75*
G02*
X0432185Y0285503I0000000J-000984D01*
G01*
X0432185Y0276645D01*
G75*
G02*
X0431201Y0275661I-000984J0000000D01*
G01*
X0421161Y0275661D01*
G75*
G02*
X0420177Y0276645I0000000J0000984D01*
G01*
G37*
G36*
G01*
X0420177Y0264637D02*
X0420177Y0273495D01*
G75*
G02*
X0421161Y0274479I0000984J0000000D01*
G01*
X0431201Y0274479D01*
G75*
G02*
X0432185Y0273495I0000000J-000984D01*
G01*
X0432185Y0264637D01*
G75*
G02*
X0431201Y0263653I-000984J0000000D01*
G01*
X0421161Y0263653D01*
G75*
G02*
X0420177Y0264637I0000000J0000984D01*
G01*
G37*
G36*
G01*
X0390453Y0264716D02*
X0390453Y0267472D01*
G75*
G02*
X0391437Y0268456I0000984J0000000D01*
G01*
X0398130Y0268456D01*
G75*
G02*
X0399114Y0267472I0000000J-000984D01*
G01*
X0399114Y0264716D01*
G75*
G02*
X0398130Y0263731I-000984J0000000D01*
G01*
X0391437Y0263731D01*
G75*
G02*
X0390453Y0264716I0000000J0000984D01*
G01*
G37*
G36*
G01*
X0422638Y0190685D02*
X0422638Y0193756D01*
G75*
G02*
X0422913Y0194032I0000276J0000000D01*
G01*
X0425118Y0194032D01*
G75*
G02*
X0425394Y0193756I0000000J-000276D01*
G01*
X0425394Y0190685D01*
G75*
G02*
X0425118Y0190410I-000276J0000000D01*
G01*
X0422913Y0190410D01*
G75*
G02*
X0422638Y0190685I0000000J0000276D01*
G01*
G37*
G36*
G01*
X0428937Y0190685D02*
X0428937Y0193756D01*
G75*
G02*
X0429213Y0194032I0000276J0000000D01*
G01*
X0431417Y0194032D01*
G75*
G02*
X0431693Y0193756I0000000J-000276D01*
G01*
X0431693Y0190685D01*
G75*
G02*
X0431417Y0190410I-000276J0000000D01*
G01*
X0429213Y0190410D01*
G75*
G02*
X0428937Y0190685I0000000J0000276D01*
G01*
G37*
G36*
G01*
X0349252Y0415162D02*
X0349252Y0418233D01*
G75*
G02*
X0349528Y0418509I0000276J0000000D01*
G01*
X0351732Y0418509D01*
G75*
G02*
X0352008Y0418233I0000000J-000276D01*
G01*
X0352008Y0415162D01*
G75*
G02*
X0351732Y0414887I-000276J0000000D01*
G01*
X0349528Y0414887D01*
G75*
G02*
X0349252Y0415162I0000000J0000276D01*
G01*
G37*
G36*
G01*
X0355551Y0415162D02*
X0355551Y0418233D01*
G75*
G02*
X0355827Y0418509I0000276J0000000D01*
G01*
X0358031Y0418509D01*
G75*
G02*
X0358307Y0418233I0000000J-000276D01*
G01*
X0358307Y0415162D01*
G75*
G02*
X0358031Y0414887I-000276J0000000D01*
G01*
X0355827Y0414887D01*
G75*
G02*
X0355551Y0415162I0000000J0000276D01*
G01*
G37*
G36*
G01*
X0452992Y0261283D02*
X0452992Y0264354D01*
G75*
G02*
X0453268Y0264630I0000276J0000000D01*
G01*
X0455472Y0264630D01*
G75*
G02*
X0455748Y0264354I0000000J-000276D01*
G01*
X0455748Y0261283D01*
G75*
G02*
X0455472Y0261008I-000276J0000000D01*
G01*
X0453268Y0261008D01*
G75*
G02*
X0452992Y0261283I0000000J0000276D01*
G01*
G37*
G36*
G01*
X0459291Y0261283D02*
X0459291Y0264354D01*
G75*
G02*
X0459567Y0264630I0000276J0000000D01*
G01*
X0461772Y0264630D01*
G75*
G02*
X0462047Y0264354I0000000J-000276D01*
G01*
X0462047Y0261283D01*
G75*
G02*
X0461772Y0261008I-000276J0000000D01*
G01*
X0459567Y0261008D01*
G75*
G02*
X0459291Y0261283I0000000J0000276D01*
G01*
G37*
G36*
G01*
X0422638Y0198359D02*
X0422638Y0201429D01*
G75*
G02*
X0422913Y0201705I0000276J0000000D01*
G01*
X0425118Y0201705D01*
G75*
G02*
X0425394Y0201429I0000000J-000276D01*
G01*
X0425394Y0198359D01*
G75*
G02*
X0425118Y0198083I-000276J0000000D01*
G01*
X0422913Y0198083D01*
G75*
G02*
X0422638Y0198359I0000000J0000276D01*
G01*
G37*
G36*
G01*
X0428937Y0198359D02*
X0428937Y0201429D01*
G75*
G02*
X0429213Y0201705I0000276J0000000D01*
G01*
X0431417Y0201705D01*
G75*
G02*
X0431693Y0201429I0000000J-000276D01*
G01*
X0431693Y0198359D01*
G75*
G02*
X0431417Y0198083I-000276J0000000D01*
G01*
X0429213Y0198083D01*
G75*
G02*
X0428937Y0198359I0000000J0000276D01*
G01*
G37*
G36*
G01*
X0452992Y0284304D02*
X0452992Y0287374D01*
G75*
G02*
X0453268Y0287650I0000276J0000000D01*
G01*
X0455472Y0287650D01*
G75*
G02*
X0455748Y0287374I0000000J-000276D01*
G01*
X0455748Y0284304D01*
G75*
G02*
X0455472Y0284028I-000276J0000000D01*
G01*
X0453268Y0284028D01*
G75*
G02*
X0452992Y0284304I0000000J0000276D01*
G01*
G37*
G36*
G01*
X0459291Y0284304D02*
X0459291Y0287374D01*
G75*
G02*
X0459567Y0287650I0000276J0000000D01*
G01*
X0461772Y0287650D01*
G75*
G02*
X0462047Y0287374I0000000J-000276D01*
G01*
X0462047Y0284304D01*
G75*
G02*
X0461772Y0284028I-000276J0000000D01*
G01*
X0459567Y0284028D01*
G75*
G02*
X0459291Y0284304I0000000J0000276D01*
G01*
G37*
G36*
G01*
X0145709Y0143949D02*
X0145709Y0147020D01*
G75*
G02*
X0145984Y0147296I0000276J0000000D01*
G01*
X0148189Y0147296D01*
G75*
G02*
X0148465Y0147020I0000000J-000276D01*
G01*
X0148465Y0143949D01*
G75*
G02*
X0148189Y0143674I-000276J0000000D01*
G01*
X0145984Y0143674D01*
G75*
G02*
X0145709Y0143949I0000000J0000276D01*
G01*
G37*
G36*
G01*
X0152008Y0143949D02*
X0152008Y0147020D01*
G75*
G02*
X0152283Y0147296I0000276J0000000D01*
G01*
X0154488Y0147296D01*
G75*
G02*
X0154764Y0147020I0000000J-000276D01*
G01*
X0154764Y0143949D01*
G75*
G02*
X0154488Y0143674I-000276J0000000D01*
G01*
X0152283Y0143674D01*
G75*
G02*
X0152008Y0143949I0000000J0000276D01*
G01*
G37*
G36*
G01*
X0349252Y0369122D02*
X0349252Y0372193D01*
G75*
G02*
X0349528Y0372468I0000276J0000000D01*
G01*
X0351732Y0372468D01*
G75*
G02*
X0352008Y0372193I0000000J-000276D01*
G01*
X0352008Y0369122D01*
G75*
G02*
X0351732Y0368846I-000276J0000000D01*
G01*
X0349528Y0368846D01*
G75*
G02*
X0349252Y0369122I0000000J0000276D01*
G01*
G37*
G36*
G01*
X0355551Y0369122D02*
X0355551Y0372193D01*
G75*
G02*
X0355827Y0372468I0000276J0000000D01*
G01*
X0358031Y0372468D01*
G75*
G02*
X0358307Y0372193I0000000J-000276D01*
G01*
X0358307Y0369122D01*
G75*
G02*
X0358031Y0368846I-000276J0000000D01*
G01*
X0355827Y0368846D01*
G75*
G02*
X0355551Y0369122I0000000J0000276D01*
G01*
G37*
G36*
G01*
X0438307Y0259553D02*
X0438307Y0261571D01*
G75*
G02*
X0439168Y0262432I0000861J0000000D01*
G01*
X0440891Y0262432D01*
G75*
G02*
X0441752Y0261571I0000000J-000861D01*
G01*
X0441752Y0259553D01*
G75*
G02*
X0440891Y0258692I-000861J0000000D01*
G01*
X0439168Y0258692D01*
G75*
G02*
X0438307Y0259553I0000000J0000861D01*
G01*
G37*
G36*
G01*
X0444508Y0259553D02*
X0444508Y0261571D01*
G75*
G02*
X0445369Y0262432I0000861J0000000D01*
G01*
X0447092Y0262432D01*
G75*
G02*
X0447953Y0261571I0000000J-000861D01*
G01*
X0447953Y0259553D01*
G75*
G02*
X0447092Y0258692I-000861J0000000D01*
G01*
X0445369Y0258692D01*
G75*
G02*
X0444508Y0259553I0000000J0000861D01*
G01*
G37*
G36*
G01*
X0349252Y0392142D02*
X0349252Y0395213D01*
G75*
G02*
X0349528Y0395488I0000276J0000000D01*
G01*
X0351732Y0395488D01*
G75*
G02*
X0352008Y0395213I0000000J-000276D01*
G01*
X0352008Y0392142D01*
G75*
G02*
X0351732Y0391866I-000276J0000000D01*
G01*
X0349528Y0391866D01*
G75*
G02*
X0349252Y0392142I0000000J0000276D01*
G01*
G37*
G36*
G01*
X0355551Y0392142D02*
X0355551Y0395213D01*
G75*
G02*
X0355827Y0395488I0000276J0000000D01*
G01*
X0358031Y0395488D01*
G75*
G02*
X0358307Y0395213I0000000J-000276D01*
G01*
X0358307Y0392142D01*
G75*
G02*
X0358031Y0391866I-000276J0000000D01*
G01*
X0355827Y0391866D01*
G75*
G02*
X0355551Y0392142I0000000J0000276D01*
G01*
G37*
G36*
G01*
X0343740Y0286736D02*
X0343740Y0291658D01*
G75*
G02*
X0344134Y0292051I0000394J0000000D01*
G01*
X0347283Y0292051D01*
G75*
G02*
X0347677Y0291658I0000000J-000394D01*
G01*
X0347677Y0286736D01*
G75*
G02*
X0347283Y0286343I-000394J0000000D01*
G01*
X0344134Y0286343D01*
G75*
G02*
X0343740Y0286736I0000000J0000394D01*
G01*
G37*
G36*
G01*
X0351221Y0286736D02*
X0351221Y0291658D01*
G75*
G02*
X0351614Y0292051I0000394J0000000D01*
G01*
X0354764Y0292051D01*
G75*
G02*
X0355158Y0291658I0000000J-000394D01*
G01*
X0355158Y0286736D01*
G75*
G02*
X0354764Y0286343I-000394J0000000D01*
G01*
X0351614Y0286343D01*
G75*
G02*
X0351221Y0286736I0000000J0000394D01*
G01*
G37*
D71*
X0357618Y0245103D03*
G36*
G01*
X0214449Y0132821D02*
X0214449Y0134839D01*
G75*
G02*
X0215310Y0135700I0000861J0000000D01*
G01*
X0217032Y0135700D01*
G75*
G02*
X0217894Y0134839I0000000J-000861D01*
G01*
X0217894Y0132821D01*
G75*
G02*
X0217032Y0131960I-000861J0000000D01*
G01*
X0215310Y0131960D01*
G75*
G02*
X0214449Y0132821I0000000J0000861D01*
G01*
G37*
G36*
G01*
X0220650Y0132821D02*
X0220650Y0134839D01*
G75*
G02*
X0221511Y0135700I0000861J0000000D01*
G01*
X0223233Y0135700D01*
G75*
G02*
X0224094Y0134839I0000000J-000861D01*
G01*
X0224094Y0132821D01*
G75*
G02*
X0223233Y0131960I-000861J0000000D01*
G01*
X0221511Y0131960D01*
G75*
G02*
X0220650Y0132821I0000000J0000861D01*
G01*
G37*
G36*
G01*
X0341004Y0175149D02*
X0338287Y0175149D01*
G75*
G02*
X0337382Y0176054I0000000J0000906D01*
G01*
X0337382Y0181330D01*
G75*
G02*
X0338287Y0182235I0000906J0000000D01*
G01*
X0341004Y0182235D01*
G75*
G02*
X0341909Y0181330I0000000J-000906D01*
G01*
X0341909Y0176054D01*
G75*
G02*
X0341004Y0175149I-000906J0000000D01*
G01*
G37*
G36*
G01*
X0352421Y0175149D02*
X0349705Y0175149D01*
G75*
G02*
X0348799Y0176054I0000000J0000906D01*
G01*
X0348799Y0181330D01*
G75*
G02*
X0349705Y0182235I0000906J0000000D01*
G01*
X0352421Y0182235D01*
G75*
G02*
X0353327Y0181330I0000000J-000906D01*
G01*
X0353327Y0176054D01*
G75*
G02*
X0352421Y0175149I-000906J0000000D01*
G01*
G37*
G36*
G01*
X0230197Y0132472D02*
X0230197Y0133653D01*
G75*
G02*
X0230787Y0134243I0000591J0000000D01*
G01*
X0235413Y0134243D01*
G75*
G02*
X0236004Y0133653I0000000J-000591D01*
G01*
X0236004Y0132472D01*
G75*
G02*
X0235413Y0131881I-000591J0000000D01*
G01*
X0230787Y0131881D01*
G75*
G02*
X0230197Y0132472I0000000J0000591D01*
G01*
G37*
G36*
G01*
X0230197Y0124991D02*
X0230197Y0126172D01*
G75*
G02*
X0230787Y0126763I0000591J0000000D01*
G01*
X0235413Y0126763D01*
G75*
G02*
X0236004Y0126172I0000000J-000591D01*
G01*
X0236004Y0124991D01*
G75*
G02*
X0235413Y0124401I-000591J0000000D01*
G01*
X0230787Y0124401D01*
G75*
G02*
X0230197Y0124991I0000000J0000591D01*
G01*
G37*
G36*
G01*
X0237579Y0128731D02*
X0237579Y0129913D01*
G75*
G02*
X0238169Y0130503I0000591J0000000D01*
G01*
X0242795Y0130503D01*
G75*
G02*
X0243386Y0129913I0000000J-000591D01*
G01*
X0243386Y0128731D01*
G75*
G02*
X0242795Y0128141I-000591J0000000D01*
G01*
X0238169Y0128141D01*
G75*
G02*
X0237579Y0128731I0000000J0000591D01*
G01*
G37*
G36*
G01*
X0350512Y0355326D02*
X0350512Y0360444D01*
G75*
G02*
X0351496Y0361428I0000984J0000000D01*
G01*
X0359370Y0361428D01*
G75*
G02*
X0360354Y0360444I0000000J-000984D01*
G01*
X0360354Y0355326D01*
G75*
G02*
X0359370Y0354342I-000984J0000000D01*
G01*
X0351496Y0354342D01*
G75*
G02*
X0350512Y0355326I0000000J0000984D01*
G01*
G37*
G36*
G01*
X0366260Y0355326D02*
X0366260Y0360444D01*
G75*
G02*
X0367244Y0361428I0000984J0000000D01*
G01*
X0375118Y0361428D01*
G75*
G02*
X0376102Y0360444I0000000J-000984D01*
G01*
X0376102Y0355326D01*
G75*
G02*
X0375118Y0354342I-000984J0000000D01*
G01*
X0367244Y0354342D01*
G75*
G02*
X0366260Y0355326I0000000J0000984D01*
G01*
G37*
G36*
G01*
X0332618Y0233436D02*
X0332618Y0235011D01*
G75*
G02*
X0333406Y0235798I0000787J0000000D01*
G01*
X0340492Y0235798D01*
G75*
G02*
X0341280Y0235011I0000000J-000787D01*
G01*
X0341280Y0233436D01*
G75*
G02*
X0340492Y0232649I-000787J0000000D01*
G01*
X0333406Y0232649D01*
G75*
G02*
X0332618Y0233436I0000000J0000787D01*
G01*
G37*
G36*
G01*
X0332618Y0228948D02*
X0332618Y0230523D01*
G75*
G02*
X0333406Y0231310I0000787J0000000D01*
G01*
X0340492Y0231310D01*
G75*
G02*
X0341280Y0230523I0000000J-000787D01*
G01*
X0341280Y0228948D01*
G75*
G02*
X0340492Y0228161I-000787J0000000D01*
G01*
X0333406Y0228161D01*
G75*
G02*
X0332618Y0228948I0000000J0000787D01*
G01*
G37*
G36*
G01*
X0349154Y0226822D02*
X0349154Y0235680D01*
G75*
G02*
X0350138Y0236664I0000984J0000000D01*
G01*
X0360177Y0236664D01*
G75*
G02*
X0361161Y0235680I0000000J-000984D01*
G01*
X0361161Y0226822D01*
G75*
G02*
X0360177Y0225838I-000984J0000000D01*
G01*
X0350138Y0225838D01*
G75*
G02*
X0349154Y0226822I0000000J0000984D01*
G01*
G37*
G36*
G01*
X0349154Y0214814D02*
X0349154Y0223672D01*
G75*
G02*
X0350138Y0224657I0000984J0000000D01*
G01*
X0360177Y0224657D01*
G75*
G02*
X0361161Y0223672I0000000J-000984D01*
G01*
X0361161Y0214814D01*
G75*
G02*
X0360177Y0213830I-000984J0000000D01*
G01*
X0350138Y0213830D01*
G75*
G02*
X0349154Y0214814I0000000J0000984D01*
G01*
G37*
G36*
G01*
X0362343Y0226822D02*
X0362343Y0235680D01*
G75*
G02*
X0363327Y0236664I0000984J0000000D01*
G01*
X0373366Y0236664D01*
G75*
G02*
X0374350Y0235680I0000000J-000984D01*
G01*
X0374350Y0226822D01*
G75*
G02*
X0373366Y0225838I-000984J0000000D01*
G01*
X0363327Y0225838D01*
G75*
G02*
X0362343Y0226822I0000000J0000984D01*
G01*
G37*
G36*
G01*
X0362343Y0214814D02*
X0362343Y0223672D01*
G75*
G02*
X0363327Y0224657I0000984J0000000D01*
G01*
X0373366Y0224657D01*
G75*
G02*
X0374350Y0223672I0000000J-000984D01*
G01*
X0374350Y0214814D01*
G75*
G02*
X0373366Y0213830I-000984J0000000D01*
G01*
X0363327Y0213830D01*
G75*
G02*
X0362343Y0214814I0000000J0000984D01*
G01*
G37*
G36*
G01*
X0332618Y0219972D02*
X0332618Y0221546D01*
G75*
G02*
X0333406Y0222334I0000787J0000000D01*
G01*
X0340492Y0222334D01*
G75*
G02*
X0341280Y0221546I0000000J-000787D01*
G01*
X0341280Y0219972D01*
G75*
G02*
X0340492Y0219184I-000787J0000000D01*
G01*
X0333406Y0219184D01*
G75*
G02*
X0332618Y0219972I0000000J0000787D01*
G01*
G37*
G36*
G01*
X0332618Y0215483D02*
X0332618Y0217058D01*
G75*
G02*
X0333406Y0217846I0000787J0000000D01*
G01*
X0340492Y0217846D01*
G75*
G02*
X0341280Y0217058I0000000J-000787D01*
G01*
X0341280Y0215483D01*
G75*
G02*
X0340492Y0214696I-000787J0000000D01*
G01*
X0333406Y0214696D01*
G75*
G02*
X0332618Y0215483I0000000J0000787D01*
G01*
G37*
G36*
G01*
X0422638Y0175338D02*
X0422638Y0178409D01*
G75*
G02*
X0422913Y0178685I0000276J0000000D01*
G01*
X0425118Y0178685D01*
G75*
G02*
X0425394Y0178409I0000000J-000276D01*
G01*
X0425394Y0175338D01*
G75*
G02*
X0425118Y0175063I-000276J0000000D01*
G01*
X0422913Y0175063D01*
G75*
G02*
X0422638Y0175338I0000000J0000276D01*
G01*
G37*
G36*
G01*
X0428937Y0175338D02*
X0428937Y0178409D01*
G75*
G02*
X0429213Y0178685I0000276J0000000D01*
G01*
X0431417Y0178685D01*
G75*
G02*
X0431693Y0178409I0000000J-000276D01*
G01*
X0431693Y0175338D01*
G75*
G02*
X0431417Y0175063I-000276J0000000D01*
G01*
X0429213Y0175063D01*
G75*
G02*
X0428937Y0175338I0000000J0000276D01*
G01*
G37*
G36*
G01*
X0390453Y0250405D02*
X0390453Y0253161D01*
G75*
G02*
X0391437Y0254145I0000984J0000000D01*
G01*
X0398130Y0254145D01*
G75*
G02*
X0399114Y0253161I0000000J-000984D01*
G01*
X0399114Y0250405D01*
G75*
G02*
X0398130Y0249420I-000984J0000000D01*
G01*
X0391437Y0249420D01*
G75*
G02*
X0390453Y0250405I0000000J0000984D01*
G01*
G37*
G36*
G01*
X0406988Y0244381D02*
X0406988Y0253239D01*
G75*
G02*
X0407972Y0254224I0000984J0000000D01*
G01*
X0418012Y0254224D01*
G75*
G02*
X0418996Y0253239I0000000J-000984D01*
G01*
X0418996Y0244381D01*
G75*
G02*
X0418012Y0243397I-000984J0000000D01*
G01*
X0407972Y0243397D01*
G75*
G02*
X0406988Y0244381I0000000J0000984D01*
G01*
G37*
G36*
G01*
X0406988Y0232373D02*
X0406988Y0241231D01*
G75*
G02*
X0407972Y0242216I0000984J0000000D01*
G01*
X0418012Y0242216D01*
G75*
G02*
X0418996Y0241231I0000000J-000984D01*
G01*
X0418996Y0232373D01*
G75*
G02*
X0418012Y0231389I-000984J0000000D01*
G01*
X0407972Y0231389D01*
G75*
G02*
X0406988Y0232373I0000000J0000984D01*
G01*
G37*
G36*
G01*
X0420177Y0244381D02*
X0420177Y0253239D01*
G75*
G02*
X0421161Y0254224I0000984J0000000D01*
G01*
X0431201Y0254224D01*
G75*
G02*
X0432185Y0253239I0000000J-000984D01*
G01*
X0432185Y0244381D01*
G75*
G02*
X0431201Y0243397I-000984J0000000D01*
G01*
X0421161Y0243397D01*
G75*
G02*
X0420177Y0244381I0000000J0000984D01*
G01*
G37*
G36*
G01*
X0420177Y0232373D02*
X0420177Y0241231D01*
G75*
G02*
X0421161Y0242216I0000984J0000000D01*
G01*
X0431201Y0242216D01*
G75*
G02*
X0432185Y0241231I0000000J-000984D01*
G01*
X0432185Y0232373D01*
G75*
G02*
X0431201Y0231389I-000984J0000000D01*
G01*
X0421161Y0231389D01*
G75*
G02*
X0420177Y0232373I0000000J0000984D01*
G01*
G37*
G36*
G01*
X0390453Y0232452D02*
X0390453Y0235208D01*
G75*
G02*
X0391437Y0236192I0000984J0000000D01*
G01*
X0398130Y0236192D01*
G75*
G02*
X0399114Y0235208I0000000J-000984D01*
G01*
X0399114Y0232452D01*
G75*
G02*
X0398130Y0231468I-000984J0000000D01*
G01*
X0391437Y0231468D01*
G75*
G02*
X0390453Y0232452I0000000J0000984D01*
G01*
G37*
G36*
G01*
X0438268Y0309046D02*
X0438268Y0320267D01*
G75*
G02*
X0439252Y0321251I0000984J0000000D01*
G01*
X0442106Y0321251D01*
G75*
G02*
X0443091Y0320267I0000000J-000984D01*
G01*
X0443091Y0309046D01*
G75*
G02*
X0442106Y0308062I-000984J0000000D01*
G01*
X0439252Y0308062D01*
G75*
G02*
X0438268Y0309046I0000000J0000984D01*
G01*
G37*
G36*
G01*
X0461594Y0309046D02*
X0461594Y0320267D01*
G75*
G02*
X0462579Y0321251I0000984J0000000D01*
G01*
X0465433Y0321251D01*
G75*
G02*
X0466417Y0320267I0000000J-000984D01*
G01*
X0466417Y0309046D01*
G75*
G02*
X0465433Y0308062I-000984J0000000D01*
G01*
X0462579Y0308062D01*
G75*
G02*
X0461594Y0309046I0000000J0000984D01*
G01*
G37*
G36*
G01*
X0159783Y0158377D02*
X0159783Y0159558D01*
G75*
G02*
X0160374Y0160149I0000591J0000000D01*
G01*
X0166870Y0160149D01*
G75*
G02*
X0167461Y0159558I0000000J-000591D01*
G01*
X0167461Y0158377D01*
G75*
G02*
X0166870Y0157787I-000591J0000000D01*
G01*
X0160374Y0157787D01*
G75*
G02*
X0159783Y0158377I0000000J0000591D01*
G01*
G37*
G36*
G01*
X0159783Y0153377D02*
X0159783Y0154558D01*
G75*
G02*
X0160374Y0155149I0000591J0000000D01*
G01*
X0166870Y0155149D01*
G75*
G02*
X0167461Y0154558I0000000J-000591D01*
G01*
X0167461Y0153377D01*
G75*
G02*
X0166870Y0152787I-000591J0000000D01*
G01*
X0160374Y0152787D01*
G75*
G02*
X0159783Y0153377I0000000J0000591D01*
G01*
G37*
G36*
G01*
X0159783Y0148377D02*
X0159783Y0149558D01*
G75*
G02*
X0160374Y0150149I0000591J0000000D01*
G01*
X0166870Y0150149D01*
G75*
G02*
X0167461Y0149558I0000000J-000591D01*
G01*
X0167461Y0148377D01*
G75*
G02*
X0166870Y0147787I-000591J0000000D01*
G01*
X0160374Y0147787D01*
G75*
G02*
X0159783Y0148377I0000000J0000591D01*
G01*
G37*
G36*
G01*
X0159783Y0143377D02*
X0159783Y0144558D01*
G75*
G02*
X0160374Y0145149I0000591J0000000D01*
G01*
X0166870Y0145149D01*
G75*
G02*
X0167461Y0144558I0000000J-000591D01*
G01*
X0167461Y0143377D01*
G75*
G02*
X0166870Y0142787I-000591J0000000D01*
G01*
X0160374Y0142787D01*
G75*
G02*
X0159783Y0143377I0000000J0000591D01*
G01*
G37*
G36*
G01*
X0179272Y0143377D02*
X0179272Y0144558D01*
G75*
G02*
X0179862Y0145149I0000591J0000000D01*
G01*
X0186358Y0145149D01*
G75*
G02*
X0186949Y0144558I0000000J-000591D01*
G01*
X0186949Y0143377D01*
G75*
G02*
X0186358Y0142787I-000591J0000000D01*
G01*
X0179862Y0142787D01*
G75*
G02*
X0179272Y0143377I0000000J0000591D01*
G01*
G37*
G36*
G01*
X0179272Y0148377D02*
X0179272Y0149558D01*
G75*
G02*
X0179862Y0150149I0000591J0000000D01*
G01*
X0186358Y0150149D01*
G75*
G02*
X0186949Y0149558I0000000J-000591D01*
G01*
X0186949Y0148377D01*
G75*
G02*
X0186358Y0147787I-000591J0000000D01*
G01*
X0179862Y0147787D01*
G75*
G02*
X0179272Y0148377I0000000J0000591D01*
G01*
G37*
G36*
G01*
X0179272Y0153377D02*
X0179272Y0154558D01*
G75*
G02*
X0179862Y0155149I0000591J0000000D01*
G01*
X0186358Y0155149D01*
G75*
G02*
X0186949Y0154558I0000000J-000591D01*
G01*
X0186949Y0153377D01*
G75*
G02*
X0186358Y0152787I-000591J0000000D01*
G01*
X0179862Y0152787D01*
G75*
G02*
X0179272Y0153377I0000000J0000591D01*
G01*
G37*
G36*
G01*
X0179272Y0158377D02*
X0179272Y0159558D01*
G75*
G02*
X0179862Y0160149I0000591J0000000D01*
G01*
X0186358Y0160149D01*
G75*
G02*
X0186949Y0159558I0000000J-000591D01*
G01*
X0186949Y0158377D01*
G75*
G02*
X0186358Y0157787I-000591J0000000D01*
G01*
X0179862Y0157787D01*
G75*
G02*
X0179272Y0158377I0000000J0000591D01*
G01*
G37*
G36*
G01*
X0452992Y0299650D02*
X0452992Y0302721D01*
G75*
G02*
X0453268Y0302997I0000276J0000000D01*
G01*
X0455472Y0302997D01*
G75*
G02*
X0455748Y0302721I0000000J-000276D01*
G01*
X0455748Y0299650D01*
G75*
G02*
X0455472Y0299375I-000276J0000000D01*
G01*
X0453268Y0299375D01*
G75*
G02*
X0452992Y0299650I0000000J0000276D01*
G01*
G37*
G36*
G01*
X0459291Y0299650D02*
X0459291Y0302721D01*
G75*
G02*
X0459567Y0302997I0000276J0000000D01*
G01*
X0461772Y0302997D01*
G75*
G02*
X0462047Y0302721I0000000J-000276D01*
G01*
X0462047Y0299650D01*
G75*
G02*
X0461772Y0299375I-000276J0000000D01*
G01*
X0459567Y0299375D01*
G75*
G02*
X0459291Y0299650I0000000J0000276D01*
G01*
G37*
G36*
G01*
X0390453Y0347196D02*
X0390453Y0349952D01*
G75*
G02*
X0391437Y0350936I0000984J0000000D01*
G01*
X0398130Y0350936D01*
G75*
G02*
X0399114Y0349952I0000000J-000984D01*
G01*
X0399114Y0347196D01*
G75*
G02*
X0398130Y0346212I-000984J0000000D01*
G01*
X0391437Y0346212D01*
G75*
G02*
X0390453Y0347196I0000000J0000984D01*
G01*
G37*
G36*
G01*
X0406988Y0341172D02*
X0406988Y0350031D01*
G75*
G02*
X0407972Y0351015I0000984J0000000D01*
G01*
X0418012Y0351015D01*
G75*
G02*
X0418996Y0350031I0000000J-000984D01*
G01*
X0418996Y0341172D01*
G75*
G02*
X0418012Y0340188I-000984J0000000D01*
G01*
X0407972Y0340188D01*
G75*
G02*
X0406988Y0341172I0000000J0000984D01*
G01*
G37*
G36*
G01*
X0406988Y0329164D02*
X0406988Y0338023D01*
G75*
G02*
X0407972Y0339007I0000984J0000000D01*
G01*
X0418012Y0339007D01*
G75*
G02*
X0418996Y0338023I0000000J-000984D01*
G01*
X0418996Y0329164D01*
G75*
G02*
X0418012Y0328180I-000984J0000000D01*
G01*
X0407972Y0328180D01*
G75*
G02*
X0406988Y0329164I0000000J0000984D01*
G01*
G37*
G36*
G01*
X0420177Y0341172D02*
X0420177Y0350031D01*
G75*
G02*
X0421161Y0351015I0000984J0000000D01*
G01*
X0431201Y0351015D01*
G75*
G02*
X0432185Y0350031I0000000J-000984D01*
G01*
X0432185Y0341172D01*
G75*
G02*
X0431201Y0340188I-000984J0000000D01*
G01*
X0421161Y0340188D01*
G75*
G02*
X0420177Y0341172I0000000J0000984D01*
G01*
G37*
G36*
G01*
X0420177Y0329164D02*
X0420177Y0338023D01*
G75*
G02*
X0421161Y0339007I0000984J0000000D01*
G01*
X0431201Y0339007D01*
G75*
G02*
X0432185Y0338023I0000000J-000984D01*
G01*
X0432185Y0329164D01*
G75*
G02*
X0431201Y0328180I-000984J0000000D01*
G01*
X0421161Y0328180D01*
G75*
G02*
X0420177Y0329164I0000000J0000984D01*
G01*
G37*
G36*
G01*
X0390453Y0329243D02*
X0390453Y0331999D01*
G75*
G02*
X0391437Y0332983I0000984J0000000D01*
G01*
X0398130Y0332983D01*
G75*
G02*
X0399114Y0331999I0000000J-000984D01*
G01*
X0399114Y0329243D01*
G75*
G02*
X0398130Y0328259I-000984J0000000D01*
G01*
X0391437Y0328259D01*
G75*
G02*
X0390453Y0329243I0000000J0000984D01*
G01*
G37*
G36*
G01*
X0270335Y0158377D02*
X0270335Y0159558D01*
G75*
G02*
X0270925Y0160149I0000591J0000000D01*
G01*
X0277421Y0160149D01*
G75*
G02*
X0278012Y0159558I0000000J-000591D01*
G01*
X0278012Y0158377D01*
G75*
G02*
X0277421Y0157787I-000591J0000000D01*
G01*
X0270925Y0157787D01*
G75*
G02*
X0270335Y0158377I0000000J0000591D01*
G01*
G37*
G36*
G01*
X0270335Y0153377D02*
X0270335Y0154558D01*
G75*
G02*
X0270925Y0155149I0000591J0000000D01*
G01*
X0277421Y0155149D01*
G75*
G02*
X0278012Y0154558I0000000J-000591D01*
G01*
X0278012Y0153377D01*
G75*
G02*
X0277421Y0152787I-000591J0000000D01*
G01*
X0270925Y0152787D01*
G75*
G02*
X0270335Y0153377I0000000J0000591D01*
G01*
G37*
G36*
G01*
X0270335Y0148377D02*
X0270335Y0149558D01*
G75*
G02*
X0270925Y0150149I0000591J0000000D01*
G01*
X0277421Y0150149D01*
G75*
G02*
X0278012Y0149558I0000000J-000591D01*
G01*
X0278012Y0148377D01*
G75*
G02*
X0277421Y0147787I-000591J0000000D01*
G01*
X0270925Y0147787D01*
G75*
G02*
X0270335Y0148377I0000000J0000591D01*
G01*
G37*
G36*
G01*
X0270335Y0143377D02*
X0270335Y0144558D01*
G75*
G02*
X0270925Y0145149I0000591J0000000D01*
G01*
X0277421Y0145149D01*
G75*
G02*
X0278012Y0144558I0000000J-000591D01*
G01*
X0278012Y0143377D01*
G75*
G02*
X0277421Y0142787I-000591J0000000D01*
G01*
X0270925Y0142787D01*
G75*
G02*
X0270335Y0143377I0000000J0000591D01*
G01*
G37*
G36*
G01*
X0289823Y0143377D02*
X0289823Y0144558D01*
G75*
G02*
X0290413Y0145149I0000591J0000000D01*
G01*
X0296909Y0145149D01*
G75*
G02*
X0297500Y0144558I0000000J-000591D01*
G01*
X0297500Y0143377D01*
G75*
G02*
X0296909Y0142787I-000591J0000000D01*
G01*
X0290413Y0142787D01*
G75*
G02*
X0289823Y0143377I0000000J0000591D01*
G01*
G37*
G36*
G01*
X0289823Y0148377D02*
X0289823Y0149558D01*
G75*
G02*
X0290413Y0150149I0000591J0000000D01*
G01*
X0296909Y0150149D01*
G75*
G02*
X0297500Y0149558I0000000J-000591D01*
G01*
X0297500Y0148377D01*
G75*
G02*
X0296909Y0147787I-000591J0000000D01*
G01*
X0290413Y0147787D01*
G75*
G02*
X0289823Y0148377I0000000J0000591D01*
G01*
G37*
G36*
G01*
X0289823Y0153377D02*
X0289823Y0154558D01*
G75*
G02*
X0290413Y0155149I0000591J0000000D01*
G01*
X0296909Y0155149D01*
G75*
G02*
X0297500Y0154558I0000000J-000591D01*
G01*
X0297500Y0153377D01*
G75*
G02*
X0296909Y0152787I-000591J0000000D01*
G01*
X0290413Y0152787D01*
G75*
G02*
X0289823Y0153377I0000000J0000591D01*
G01*
G37*
G36*
G01*
X0289823Y0158377D02*
X0289823Y0159558D01*
G75*
G02*
X0290413Y0160149I0000591J0000000D01*
G01*
X0296909Y0160149D01*
G75*
G02*
X0297500Y0159558I0000000J-000591D01*
G01*
X0297500Y0158377D01*
G75*
G02*
X0296909Y0157787I-000591J0000000D01*
G01*
X0290413Y0157787D01*
G75*
G02*
X0289823Y0158377I0000000J0000591D01*
G01*
G37*
G36*
G01*
X0438307Y0289199D02*
X0438307Y0291217D01*
G75*
G02*
X0439168Y0292078I0000861J0000000D01*
G01*
X0440891Y0292078D01*
G75*
G02*
X0441752Y0291217I0000000J-000861D01*
G01*
X0441752Y0289199D01*
G75*
G02*
X0440891Y0288338I-000861J0000000D01*
G01*
X0439168Y0288338D01*
G75*
G02*
X0438307Y0289199I0000000J0000861D01*
G01*
G37*
G36*
G01*
X0444508Y0289199D02*
X0444508Y0291217D01*
G75*
G02*
X0445369Y0292078I0000861J0000000D01*
G01*
X0447092Y0292078D01*
G75*
G02*
X0447953Y0291217I0000000J-000861D01*
G01*
X0447953Y0289199D01*
G75*
G02*
X0447092Y0288338I-000861J0000000D01*
G01*
X0445369Y0288338D01*
G75*
G02*
X0444508Y0289199I0000000J0000861D01*
G01*
G37*
G36*
G01*
X0145709Y0120929D02*
X0145709Y0124000D01*
G75*
G02*
X0145984Y0124275I0000276J0000000D01*
G01*
X0148189Y0124275D01*
G75*
G02*
X0148465Y0124000I0000000J-000276D01*
G01*
X0148465Y0120929D01*
G75*
G02*
X0148189Y0120653I-000276J0000000D01*
G01*
X0145984Y0120653D01*
G75*
G02*
X0145709Y0120929I0000000J0000276D01*
G01*
G37*
G36*
G01*
X0152008Y0120929D02*
X0152008Y0124000D01*
G75*
G02*
X0152283Y0124275I0000276J0000000D01*
G01*
X0154488Y0124275D01*
G75*
G02*
X0154764Y0124000I0000000J-000276D01*
G01*
X0154764Y0120929D01*
G75*
G02*
X0154488Y0120653I-000276J0000000D01*
G01*
X0152283Y0120653D01*
G75*
G02*
X0152008Y0120929I0000000J0000276D01*
G01*
G37*
G36*
G01*
X0448622Y0198359D02*
X0448622Y0201429D01*
G75*
G02*
X0448898Y0201705I0000276J0000000D01*
G01*
X0451102Y0201705D01*
G75*
G02*
X0451378Y0201429I0000000J-000276D01*
G01*
X0451378Y0198359D01*
G75*
G02*
X0451102Y0198083I-000276J0000000D01*
G01*
X0448898Y0198083D01*
G75*
G02*
X0448622Y0198359I0000000J0000276D01*
G01*
G37*
G36*
G01*
X0454921Y0198359D02*
X0454921Y0201429D01*
G75*
G02*
X0455197Y0201705I0000276J0000000D01*
G01*
X0457402Y0201705D01*
G75*
G02*
X0457677Y0201429I0000000J-000276D01*
G01*
X0457677Y0198359D01*
G75*
G02*
X0457402Y0198083I-000276J0000000D01*
G01*
X0455197Y0198083D01*
G75*
G02*
X0454921Y0198359I0000000J0000276D01*
G01*
G37*
G36*
G01*
X0343740Y0316299D02*
X0343740Y0321220D01*
G75*
G02*
X0344134Y0321614I0000394J0000000D01*
G01*
X0347283Y0321614D01*
G75*
G02*
X0347677Y0321220I0000000J-000394D01*
G01*
X0347677Y0316299D01*
G75*
G02*
X0347283Y0315905I-000394J0000000D01*
G01*
X0344134Y0315905D01*
G75*
G02*
X0343740Y0316299I0000000J0000394D01*
G01*
G37*
G36*
G01*
X0351221Y0316299D02*
X0351221Y0321220D01*
G75*
G02*
X0351614Y0321614I0000394J0000000D01*
G01*
X0354764Y0321614D01*
G75*
G02*
X0355158Y0321220I0000000J-000394D01*
G01*
X0355158Y0316299D01*
G75*
G02*
X0354764Y0315905I-000394J0000000D01*
G01*
X0351614Y0315905D01*
G75*
G02*
X0351221Y0316299I0000000J0000394D01*
G01*
G37*
G36*
G01*
X0438307Y0299081D02*
X0438307Y0301099D01*
G75*
G02*
X0439168Y0301960I0000861J0000000D01*
G01*
X0440891Y0301960D01*
G75*
G02*
X0441752Y0301099I0000000J-000861D01*
G01*
X0441752Y0299081D01*
G75*
G02*
X0440891Y0298220I-000861J0000000D01*
G01*
X0439168Y0298220D01*
G75*
G02*
X0438307Y0299081I0000000J0000861D01*
G01*
G37*
G36*
G01*
X0444508Y0299081D02*
X0444508Y0301099D01*
G75*
G02*
X0445369Y0301960I0000861J0000000D01*
G01*
X0447092Y0301960D01*
G75*
G02*
X0447953Y0301099I0000000J-000861D01*
G01*
X0447953Y0299081D01*
G75*
G02*
X0447092Y0298220I-000861J0000000D01*
G01*
X0445369Y0298220D01*
G75*
G02*
X0444508Y0299081I0000000J0000861D01*
G01*
G37*
G36*
G01*
X0341004Y0187432D02*
X0338287Y0187432D01*
G75*
G02*
X0337382Y0188338I0000000J0000906D01*
G01*
X0337382Y0193613D01*
G75*
G02*
X0338287Y0194519I0000906J0000000D01*
G01*
X0341004Y0194519D01*
G75*
G02*
X0341909Y0193613I0000000J-000906D01*
G01*
X0341909Y0188338D01*
G75*
G02*
X0341004Y0187432I-000906J0000000D01*
G01*
G37*
G36*
G01*
X0352421Y0187432D02*
X0349705Y0187432D01*
G75*
G02*
X0348799Y0188338I0000000J0000906D01*
G01*
X0348799Y0193613D01*
G75*
G02*
X0349705Y0194519I0000906J0000000D01*
G01*
X0352421Y0194519D01*
G75*
G02*
X0353327Y0193613I0000000J-000906D01*
G01*
X0353327Y0188338D01*
G75*
G02*
X0352421Y0187432I-000906J0000000D01*
G01*
G37*
G36*
G01*
X0343740Y0296591D02*
X0343740Y0301512D01*
G75*
G02*
X0344134Y0301905I0000394J0000000D01*
G01*
X0347283Y0301905D01*
G75*
G02*
X0347677Y0301512I0000000J-000394D01*
G01*
X0347677Y0296591D01*
G75*
G02*
X0347283Y0296197I-000394J0000000D01*
G01*
X0344134Y0296197D01*
G75*
G02*
X0343740Y0296591I0000000J0000394D01*
G01*
G37*
G36*
G01*
X0351221Y0296591D02*
X0351221Y0301512D01*
G75*
G02*
X0351614Y0301905I0000394J0000000D01*
G01*
X0354764Y0301905D01*
G75*
G02*
X0355158Y0301512I0000000J-000394D01*
G01*
X0355158Y0296591D01*
G75*
G02*
X0354764Y0296197I-000394J0000000D01*
G01*
X0351614Y0296197D01*
G75*
G02*
X0351221Y0296591I0000000J0000394D01*
G01*
G37*
G36*
G01*
X0145709Y0159296D02*
X0145709Y0162367D01*
G75*
G02*
X0145984Y0162642I0000276J0000000D01*
G01*
X0148189Y0162642D01*
G75*
G02*
X0148465Y0162367I0000000J-000276D01*
G01*
X0148465Y0159296D01*
G75*
G02*
X0148189Y0159020I-000276J0000000D01*
G01*
X0145984Y0159020D01*
G75*
G02*
X0145709Y0159296I0000000J0000276D01*
G01*
G37*
G36*
G01*
X0152008Y0159296D02*
X0152008Y0162367D01*
G75*
G02*
X0152283Y0162642I0000276J0000000D01*
G01*
X0154488Y0162642D01*
G75*
G02*
X0154764Y0162367I0000000J-000276D01*
G01*
X0154764Y0159296D01*
G75*
G02*
X0154488Y0159020I-000276J0000000D01*
G01*
X0152283Y0159020D01*
G75*
G02*
X0152008Y0159296I0000000J0000276D01*
G01*
G37*
G36*
G01*
X0422638Y0213705D02*
X0422638Y0216776D01*
G75*
G02*
X0422913Y0217052I0000276J0000000D01*
G01*
X0425118Y0217052D01*
G75*
G02*
X0425394Y0216776I0000000J-000276D01*
G01*
X0425394Y0213705D01*
G75*
G02*
X0425118Y0213430I-000276J0000000D01*
G01*
X0422913Y0213430D01*
G75*
G02*
X0422638Y0213705I0000000J0000276D01*
G01*
G37*
G36*
G01*
X0428937Y0213705D02*
X0428937Y0216776D01*
G75*
G02*
X0429213Y0217052I0000276J0000000D01*
G01*
X0431417Y0217052D01*
G75*
G02*
X0431693Y0216776I0000000J-000276D01*
G01*
X0431693Y0213705D01*
G75*
G02*
X0431417Y0213430I-000276J0000000D01*
G01*
X0429213Y0213430D01*
G75*
G02*
X0428937Y0213705I0000000J0000276D01*
G01*
G37*
G36*
G01*
X0435630Y0213705D02*
X0435630Y0216776D01*
G75*
G02*
X0435906Y0217052I0000276J0000000D01*
G01*
X0438110Y0217052D01*
G75*
G02*
X0438386Y0216776I0000000J-000276D01*
G01*
X0438386Y0213705D01*
G75*
G02*
X0438110Y0213430I-000276J0000000D01*
G01*
X0435906Y0213430D01*
G75*
G02*
X0435630Y0213705I0000000J0000276D01*
G01*
G37*
G36*
G01*
X0441929Y0213705D02*
X0441929Y0216776D01*
G75*
G02*
X0442205Y0217052I0000276J0000000D01*
G01*
X0444409Y0217052D01*
G75*
G02*
X0444685Y0216776I0000000J-000276D01*
G01*
X0444685Y0213705D01*
G75*
G02*
X0444409Y0213430I-000276J0000000D01*
G01*
X0442205Y0213430D01*
G75*
G02*
X0441929Y0213705I0000000J0000276D01*
G01*
G37*
G36*
G01*
X0349252Y0376795D02*
X0349252Y0379866D01*
G75*
G02*
X0349528Y0380142I0000276J0000000D01*
G01*
X0351732Y0380142D01*
G75*
G02*
X0352008Y0379866I0000000J-000276D01*
G01*
X0352008Y0376795D01*
G75*
G02*
X0351732Y0376520I-000276J0000000D01*
G01*
X0349528Y0376520D01*
G75*
G02*
X0349252Y0376795I0000000J0000276D01*
G01*
G37*
G36*
G01*
X0355551Y0376795D02*
X0355551Y0379866D01*
G75*
G02*
X0355827Y0380142I0000276J0000000D01*
G01*
X0358031Y0380142D01*
G75*
G02*
X0358307Y0379866I0000000J-000276D01*
G01*
X0358307Y0376795D01*
G75*
G02*
X0358031Y0376520I-000276J0000000D01*
G01*
X0355827Y0376520D01*
G75*
G02*
X0355551Y0376795I0000000J0000276D01*
G01*
G37*
G36*
G01*
X0256260Y0143949D02*
X0256260Y0147020D01*
G75*
G02*
X0256535Y0147296I0000276J0000000D01*
G01*
X0258740Y0147296D01*
G75*
G02*
X0259016Y0147020I0000000J-000276D01*
G01*
X0259016Y0143949D01*
G75*
G02*
X0258740Y0143674I-000276J0000000D01*
G01*
X0256535Y0143674D01*
G75*
G02*
X0256260Y0143949I0000000J0000276D01*
G01*
G37*
G36*
G01*
X0262559Y0143949D02*
X0262559Y0147020D01*
G75*
G02*
X0262835Y0147296I0000276J0000000D01*
G01*
X0265039Y0147296D01*
G75*
G02*
X0265315Y0147020I0000000J-000276D01*
G01*
X0265315Y0143949D01*
G75*
G02*
X0265039Y0143674I-000276J0000000D01*
G01*
X0262835Y0143674D01*
G75*
G02*
X0262559Y0143949I0000000J0000276D01*
G01*
G37*
G36*
G01*
X0438307Y0269435D02*
X0438307Y0271453D01*
G75*
G02*
X0439168Y0272314I0000861J0000000D01*
G01*
X0440891Y0272314D01*
G75*
G02*
X0441752Y0271453I0000000J-000861D01*
G01*
X0441752Y0269435D01*
G75*
G02*
X0440891Y0268574I-000861J0000000D01*
G01*
X0439168Y0268574D01*
G75*
G02*
X0438307Y0269435I0000000J0000861D01*
G01*
G37*
G36*
G01*
X0444508Y0269435D02*
X0444508Y0271453D01*
G75*
G02*
X0445369Y0272314I0000861J0000000D01*
G01*
X0447092Y0272314D01*
G75*
G02*
X0447953Y0271453I0000000J-000861D01*
G01*
X0447953Y0269435D01*
G75*
G02*
X0447092Y0268574I-000861J0000000D01*
G01*
X0445369Y0268574D01*
G75*
G02*
X0444508Y0269435I0000000J0000861D01*
G01*
G37*
G36*
G01*
X0343740Y0306445D02*
X0343740Y0311366D01*
G75*
G02*
X0344134Y0311760I0000394J0000000D01*
G01*
X0347283Y0311760D01*
G75*
G02*
X0347677Y0311366I0000000J-000394D01*
G01*
X0347677Y0306445D01*
G75*
G02*
X0347283Y0306051I-000394J0000000D01*
G01*
X0344134Y0306051D01*
G75*
G02*
X0343740Y0306445I0000000J0000394D01*
G01*
G37*
G36*
G01*
X0351221Y0306445D02*
X0351221Y0311366D01*
G75*
G02*
X0351614Y0311760I0000394J0000000D01*
G01*
X0354764Y0311760D01*
G75*
G02*
X0355158Y0311366I0000000J-000394D01*
G01*
X0355158Y0306445D01*
G75*
G02*
X0354764Y0306051I-000394J0000000D01*
G01*
X0351614Y0306051D01*
G75*
G02*
X0351221Y0306445I0000000J0000394D01*
G01*
G37*
G36*
G01*
X0390453Y0135070D02*
X0390453Y0136251D01*
G75*
G02*
X0391043Y0136842I0000591J0000000D01*
G01*
X0397539Y0136842D01*
G75*
G02*
X0398130Y0136251I0000000J-000591D01*
G01*
X0398130Y0135070D01*
G75*
G02*
X0397539Y0134479I-000591J0000000D01*
G01*
X0391043Y0134479D01*
G75*
G02*
X0390453Y0135070I0000000J0000591D01*
G01*
G37*
G36*
G01*
X0390453Y0130070D02*
X0390453Y0131251D01*
G75*
G02*
X0391043Y0131842I0000591J0000000D01*
G01*
X0397539Y0131842D01*
G75*
G02*
X0398130Y0131251I0000000J-000591D01*
G01*
X0398130Y0130070D01*
G75*
G02*
X0397539Y0129479I-000591J0000000D01*
G01*
X0391043Y0129479D01*
G75*
G02*
X0390453Y0130070I0000000J0000591D01*
G01*
G37*
G36*
G01*
X0390453Y0125070D02*
X0390453Y0126251D01*
G75*
G02*
X0391043Y0126842I0000591J0000000D01*
G01*
X0397539Y0126842D01*
G75*
G02*
X0398130Y0126251I0000000J-000591D01*
G01*
X0398130Y0125070D01*
G75*
G02*
X0397539Y0124479I-000591J0000000D01*
G01*
X0391043Y0124479D01*
G75*
G02*
X0390453Y0125070I0000000J0000591D01*
G01*
G37*
G36*
G01*
X0390453Y0120070D02*
X0390453Y0121251D01*
G75*
G02*
X0391043Y0121842I0000591J0000000D01*
G01*
X0397539Y0121842D01*
G75*
G02*
X0398130Y0121251I0000000J-000591D01*
G01*
X0398130Y0120070D01*
G75*
G02*
X0397539Y0119479I-000591J0000000D01*
G01*
X0391043Y0119479D01*
G75*
G02*
X0390453Y0120070I0000000J0000591D01*
G01*
G37*
G36*
G01*
X0409941Y0120070D02*
X0409941Y0121251D01*
G75*
G02*
X0410531Y0121842I0000591J0000000D01*
G01*
X0417028Y0121842D01*
G75*
G02*
X0417618Y0121251I0000000J-000591D01*
G01*
X0417618Y0120070D01*
G75*
G02*
X0417028Y0119479I-000591J0000000D01*
G01*
X0410531Y0119479D01*
G75*
G02*
X0409941Y0120070I0000000J0000591D01*
G01*
G37*
G36*
G01*
X0409941Y0125070D02*
X0409941Y0126251D01*
G75*
G02*
X0410531Y0126842I0000591J0000000D01*
G01*
X0417028Y0126842D01*
G75*
G02*
X0417618Y0126251I0000000J-000591D01*
G01*
X0417618Y0125070D01*
G75*
G02*
X0417028Y0124479I-000591J0000000D01*
G01*
X0410531Y0124479D01*
G75*
G02*
X0409941Y0125070I0000000J0000591D01*
G01*
G37*
G36*
G01*
X0409941Y0130070D02*
X0409941Y0131251D01*
G75*
G02*
X0410531Y0131842I0000591J0000000D01*
G01*
X0417028Y0131842D01*
G75*
G02*
X0417618Y0131251I0000000J-000591D01*
G01*
X0417618Y0130070D01*
G75*
G02*
X0417028Y0129479I-000591J0000000D01*
G01*
X0410531Y0129479D01*
G75*
G02*
X0409941Y0130070I0000000J0000591D01*
G01*
G37*
G36*
G01*
X0409941Y0135070D02*
X0409941Y0136251D01*
G75*
G02*
X0410531Y0136842I0000591J0000000D01*
G01*
X0417028Y0136842D01*
G75*
G02*
X0417618Y0136251I0000000J-000591D01*
G01*
X0417618Y0135070D01*
G75*
G02*
X0417028Y0134479I-000591J0000000D01*
G01*
X0410531Y0134479D01*
G75*
G02*
X0409941Y0135070I0000000J0000591D01*
G01*
G37*
G36*
G01*
X0199843Y0159598D02*
X0199843Y0162275D01*
G75*
G02*
X0200177Y0162609I0000335J0000000D01*
G01*
X0202854Y0162609D01*
G75*
G02*
X0203189Y0162275I0000000J-000335D01*
G01*
X0203189Y0159598D01*
G75*
G02*
X0202854Y0159263I-000335J0000000D01*
G01*
X0200177Y0159263D01*
G75*
G02*
X0199843Y0159598I0000000J0000335D01*
G01*
G37*
G36*
G01*
X0206063Y0159598D02*
X0206063Y0162275D01*
G75*
G02*
X0206398Y0162609I0000335J0000000D01*
G01*
X0209075Y0162609D01*
G75*
G02*
X0209409Y0162275I0000000J-000335D01*
G01*
X0209409Y0159598D01*
G75*
G02*
X0209075Y0159263I-000335J0000000D01*
G01*
X0206398Y0159263D01*
G75*
G02*
X0206063Y0159598I0000000J0000335D01*
G01*
G37*
G36*
G01*
X0390453Y0379460D02*
X0390453Y0382216D01*
G75*
G02*
X0391437Y0383200I0000984J0000000D01*
G01*
X0398130Y0383200D01*
G75*
G02*
X0399114Y0382216I0000000J-000984D01*
G01*
X0399114Y0379460D01*
G75*
G02*
X0398130Y0378476I-000984J0000000D01*
G01*
X0391437Y0378476D01*
G75*
G02*
X0390453Y0379460I0000000J0000984D01*
G01*
G37*
G36*
G01*
X0406988Y0373436D02*
X0406988Y0382294D01*
G75*
G02*
X0407972Y0383279I0000984J0000000D01*
G01*
X0418012Y0383279D01*
G75*
G02*
X0418996Y0382294I0000000J-000984D01*
G01*
X0418996Y0373436D01*
G75*
G02*
X0418012Y0372452I-000984J0000000D01*
G01*
X0407972Y0372452D01*
G75*
G02*
X0406988Y0373436I0000000J0000984D01*
G01*
G37*
G36*
G01*
X0406988Y0361428D02*
X0406988Y0370287D01*
G75*
G02*
X0407972Y0371271I0000984J0000000D01*
G01*
X0418012Y0371271D01*
G75*
G02*
X0418996Y0370287I0000000J-000984D01*
G01*
X0418996Y0361428D01*
G75*
G02*
X0418012Y0360444I-000984J0000000D01*
G01*
X0407972Y0360444D01*
G75*
G02*
X0406988Y0361428I0000000J0000984D01*
G01*
G37*
G36*
G01*
X0420177Y0373436D02*
X0420177Y0382294D01*
G75*
G02*
X0421161Y0383279I0000984J0000000D01*
G01*
X0431201Y0383279D01*
G75*
G02*
X0432185Y0382294I0000000J-000984D01*
G01*
X0432185Y0373436D01*
G75*
G02*
X0431201Y0372452I-000984J0000000D01*
G01*
X0421161Y0372452D01*
G75*
G02*
X0420177Y0373436I0000000J0000984D01*
G01*
G37*
G36*
G01*
X0420177Y0361428D02*
X0420177Y0370287D01*
G75*
G02*
X0421161Y0371271I0000984J0000000D01*
G01*
X0431201Y0371271D01*
G75*
G02*
X0432185Y0370287I0000000J-000984D01*
G01*
X0432185Y0361428D01*
G75*
G02*
X0431201Y0360444I-000984J0000000D01*
G01*
X0421161Y0360444D01*
G75*
G02*
X0420177Y0361428I0000000J0000984D01*
G01*
G37*
G36*
G01*
X0390453Y0361507D02*
X0390453Y0364263D01*
G75*
G02*
X0391437Y0365247I0000984J0000000D01*
G01*
X0398130Y0365247D01*
G75*
G02*
X0399114Y0364263I0000000J-000984D01*
G01*
X0399114Y0361507D01*
G75*
G02*
X0398130Y0360523I-000984J0000000D01*
G01*
X0391437Y0360523D01*
G75*
G02*
X0390453Y0361507I0000000J0000984D01*
G01*
G37*
G36*
G01*
X0354687Y0340856D02*
X0354687Y0345777D01*
G75*
G02*
X0355080Y0346171I0000394J0000000D01*
G01*
X0358230Y0346171D01*
G75*
G02*
X0358624Y0345777I0000000J-000394D01*
G01*
X0358624Y0340856D01*
G75*
G02*
X0358230Y0340462I-000394J0000000D01*
G01*
X0355080Y0340462D01*
G75*
G02*
X0354687Y0340856I0000000J0000394D01*
G01*
G37*
G36*
G01*
X0362167Y0340856D02*
X0362167Y0345777D01*
G75*
G02*
X0362561Y0346171I0000394J0000000D01*
G01*
X0365710Y0346171D01*
G75*
G02*
X0366104Y0345777I0000000J-000394D01*
G01*
X0366104Y0340856D01*
G75*
G02*
X0365710Y0340462I-000394J0000000D01*
G01*
X0362561Y0340462D01*
G75*
G02*
X0362167Y0340856I0000000J0000394D01*
G01*
G37*
G36*
G01*
X0349252Y0399815D02*
X0349252Y0402886D01*
G75*
G02*
X0349528Y0403162I0000276J0000000D01*
G01*
X0351732Y0403162D01*
G75*
G02*
X0352008Y0402886I0000000J-000276D01*
G01*
X0352008Y0399815D01*
G75*
G02*
X0351732Y0399540I-000276J0000000D01*
G01*
X0349528Y0399540D01*
G75*
G02*
X0349252Y0399815I0000000J0000276D01*
G01*
G37*
G36*
G01*
X0355551Y0399815D02*
X0355551Y0402886D01*
G75*
G02*
X0355827Y0403162I0000276J0000000D01*
G01*
X0358031Y0403162D01*
G75*
G02*
X0358307Y0402886I0000000J-000276D01*
G01*
X0358307Y0399815D01*
G75*
G02*
X0358031Y0399540I-000276J0000000D01*
G01*
X0355827Y0399540D01*
G75*
G02*
X0355551Y0399815I0000000J0000276D01*
G01*
G37*
G36*
G01*
X0359921Y0288535D02*
X0359921Y0292550D01*
G75*
G02*
X0360276Y0292905I0000354J0000000D01*
G01*
X0363110Y0292905D01*
G75*
G02*
X0363465Y0292550I0000000J-000354D01*
G01*
X0363465Y0288535D01*
G75*
G02*
X0363110Y0288180I-000354J0000000D01*
G01*
X0360276Y0288180D01*
G75*
G02*
X0359921Y0288535I0000000J0000354D01*
G01*
G37*
G36*
G01*
X0372913Y0288535D02*
X0372913Y0292550D01*
G75*
G02*
X0373268Y0292905I0000354J0000000D01*
G01*
X0376102Y0292905D01*
G75*
G02*
X0376457Y0292550I0000000J-000354D01*
G01*
X0376457Y0288535D01*
G75*
G02*
X0376102Y0288180I-000354J0000000D01*
G01*
X0373268Y0288180D01*
G75*
G02*
X0372913Y0288535I0000000J0000354D01*
G01*
G37*
G36*
G01*
X0349252Y0384469D02*
X0349252Y0387539D01*
G75*
G02*
X0349528Y0387815I0000276J0000000D01*
G01*
X0351732Y0387815D01*
G75*
G02*
X0352008Y0387539I0000000J-000276D01*
G01*
X0352008Y0384469D01*
G75*
G02*
X0351732Y0384193I-000276J0000000D01*
G01*
X0349528Y0384193D01*
G75*
G02*
X0349252Y0384469I0000000J0000276D01*
G01*
G37*
G36*
G01*
X0355551Y0384469D02*
X0355551Y0387539D01*
G75*
G02*
X0355827Y0387815I0000276J0000000D01*
G01*
X0358031Y0387815D01*
G75*
G02*
X0358307Y0387539I0000000J-000276D01*
G01*
X0358307Y0384469D01*
G75*
G02*
X0358031Y0384193I-000276J0000000D01*
G01*
X0355827Y0384193D01*
G75*
G02*
X0355551Y0384469I0000000J0000276D01*
G01*
G37*
G36*
G01*
X0435630Y0198359D02*
X0435630Y0201429D01*
G75*
G02*
X0435906Y0201705I0000276J0000000D01*
G01*
X0438110Y0201705D01*
G75*
G02*
X0438386Y0201429I0000000J-000276D01*
G01*
X0438386Y0198359D01*
G75*
G02*
X0438110Y0198083I-000276J0000000D01*
G01*
X0435906Y0198083D01*
G75*
G02*
X0435630Y0198359I0000000J0000276D01*
G01*
G37*
G36*
G01*
X0441929Y0198359D02*
X0441929Y0201429D01*
G75*
G02*
X0442205Y0201705I0000276J0000000D01*
G01*
X0444409Y0201705D01*
G75*
G02*
X0444685Y0201429I0000000J-000276D01*
G01*
X0444685Y0198359D01*
G75*
G02*
X0444409Y0198083I-000276J0000000D01*
G01*
X0442205Y0198083D01*
G75*
G02*
X0441929Y0198359I0000000J0000276D01*
G01*
G37*
G36*
G01*
X0256260Y0159296D02*
X0256260Y0162367D01*
G75*
G02*
X0256535Y0162642I0000276J0000000D01*
G01*
X0258740Y0162642D01*
G75*
G02*
X0259016Y0162367I0000000J-000276D01*
G01*
X0259016Y0159296D01*
G75*
G02*
X0258740Y0159020I-000276J0000000D01*
G01*
X0256535Y0159020D01*
G75*
G02*
X0256260Y0159296I0000000J0000276D01*
G01*
G37*
G36*
G01*
X0262559Y0159296D02*
X0262559Y0162367D01*
G75*
G02*
X0262835Y0162642I0000276J0000000D01*
G01*
X0265039Y0162642D01*
G75*
G02*
X0265315Y0162367I0000000J-000276D01*
G01*
X0265315Y0159296D01*
G75*
G02*
X0265039Y0159020I-000276J0000000D01*
G01*
X0262835Y0159020D01*
G75*
G02*
X0262559Y0159296I0000000J0000276D01*
G01*
G37*
G36*
G01*
X0438307Y0279317D02*
X0438307Y0281335D01*
G75*
G02*
X0439168Y0282196I0000861J0000000D01*
G01*
X0440891Y0282196D01*
G75*
G02*
X0441752Y0281335I0000000J-000861D01*
G01*
X0441752Y0279317D01*
G75*
G02*
X0440891Y0278456I-000861J0000000D01*
G01*
X0439168Y0278456D01*
G75*
G02*
X0438307Y0279317I0000000J0000861D01*
G01*
G37*
G36*
G01*
X0444508Y0279317D02*
X0444508Y0281335D01*
G75*
G02*
X0445369Y0282196I0000861J0000000D01*
G01*
X0447092Y0282196D01*
G75*
G02*
X0447953Y0281335I0000000J-000861D01*
G01*
X0447953Y0279317D01*
G75*
G02*
X0447092Y0278456I-000861J0000000D01*
G01*
X0445369Y0278456D01*
G75*
G02*
X0444508Y0279317I0000000J0000861D01*
G01*
G37*
G36*
G01*
X0438268Y0347550D02*
X0438268Y0358771D01*
G75*
G02*
X0439252Y0359755I0000984J0000000D01*
G01*
X0442106Y0359755D01*
G75*
G02*
X0443091Y0358771I0000000J-000984D01*
G01*
X0443091Y0347550D01*
G75*
G02*
X0442106Y0346566I-000984J0000000D01*
G01*
X0439252Y0346566D01*
G75*
G02*
X0438268Y0347550I0000000J0000984D01*
G01*
G37*
G36*
G01*
X0461594Y0347550D02*
X0461594Y0358771D01*
G75*
G02*
X0462579Y0359755I0000984J0000000D01*
G01*
X0465433Y0359755D01*
G75*
G02*
X0466417Y0358771I0000000J-000984D01*
G01*
X0466417Y0347550D01*
G75*
G02*
X0465433Y0346566I-000984J0000000D01*
G01*
X0462579Y0346566D01*
G75*
G02*
X0461594Y0347550I0000000J0000984D01*
G01*
G37*
G36*
G01*
X0390453Y0411724D02*
X0390453Y0414479D01*
G75*
G02*
X0391437Y0415464I0000984J0000000D01*
G01*
X0398130Y0415464D01*
G75*
G02*
X0399114Y0414479I0000000J-000984D01*
G01*
X0399114Y0411724D01*
G75*
G02*
X0398130Y0410739I-000984J0000000D01*
G01*
X0391437Y0410739D01*
G75*
G02*
X0390453Y0411724I0000000J0000984D01*
G01*
G37*
G36*
G01*
X0406988Y0405700D02*
X0406988Y0414558D01*
G75*
G02*
X0407972Y0415542I0000984J0000000D01*
G01*
X0418012Y0415542D01*
G75*
G02*
X0418996Y0414558I0000000J-000984D01*
G01*
X0418996Y0405700D01*
G75*
G02*
X0418012Y0404716I-000984J0000000D01*
G01*
X0407972Y0404716D01*
G75*
G02*
X0406988Y0405700I0000000J0000984D01*
G01*
G37*
G36*
G01*
X0406988Y0393692D02*
X0406988Y0402550D01*
G75*
G02*
X0407972Y0403535I0000984J0000000D01*
G01*
X0418012Y0403535D01*
G75*
G02*
X0418996Y0402550I0000000J-000984D01*
G01*
X0418996Y0393692D01*
G75*
G02*
X0418012Y0392708I-000984J0000000D01*
G01*
X0407972Y0392708D01*
G75*
G02*
X0406988Y0393692I0000000J0000984D01*
G01*
G37*
G36*
G01*
X0420177Y0405700D02*
X0420177Y0414558D01*
G75*
G02*
X0421161Y0415542I0000984J0000000D01*
G01*
X0431201Y0415542D01*
G75*
G02*
X0432185Y0414558I0000000J-000984D01*
G01*
X0432185Y0405700D01*
G75*
G02*
X0431201Y0404716I-000984J0000000D01*
G01*
X0421161Y0404716D01*
G75*
G02*
X0420177Y0405700I0000000J0000984D01*
G01*
G37*
G36*
G01*
X0420177Y0393692D02*
X0420177Y0402550D01*
G75*
G02*
X0421161Y0403535I0000984J0000000D01*
G01*
X0431201Y0403535D01*
G75*
G02*
X0432185Y0402550I0000000J-000984D01*
G01*
X0432185Y0393692D01*
G75*
G02*
X0431201Y0392708I-000984J0000000D01*
G01*
X0421161Y0392708D01*
G75*
G02*
X0420177Y0393692I0000000J0000984D01*
G01*
G37*
G36*
G01*
X0390453Y0393771D02*
X0390453Y0396527D01*
G75*
G02*
X0391437Y0397511I0000984J0000000D01*
G01*
X0398130Y0397511D01*
G75*
G02*
X0399114Y0396527I0000000J-000984D01*
G01*
X0399114Y0393771D01*
G75*
G02*
X0398130Y0392787I-000984J0000000D01*
G01*
X0391437Y0392787D01*
G75*
G02*
X0390453Y0393771I0000000J0000984D01*
G01*
G37*
G36*
G01*
X0448622Y0213705D02*
X0448622Y0216776D01*
G75*
G02*
X0448898Y0217052I0000276J0000000D01*
G01*
X0451102Y0217052D01*
G75*
G02*
X0451378Y0216776I0000000J-000276D01*
G01*
X0451378Y0213705D01*
G75*
G02*
X0451102Y0213430I-000276J0000000D01*
G01*
X0448898Y0213430D01*
G75*
G02*
X0448622Y0213705I0000000J0000276D01*
G01*
G37*
G36*
G01*
X0454921Y0213705D02*
X0454921Y0216776D01*
G75*
G02*
X0455197Y0217052I0000276J0000000D01*
G01*
X0457402Y0217052D01*
G75*
G02*
X0457677Y0216776I0000000J-000276D01*
G01*
X0457677Y0213705D01*
G75*
G02*
X0457402Y0213430I-000276J0000000D01*
G01*
X0455197Y0213430D01*
G75*
G02*
X0454921Y0213705I0000000J0000276D01*
G01*
G37*
G36*
G01*
X0199843Y0136566D02*
X0199843Y0139243D01*
G75*
G02*
X0200177Y0139578I0000335J0000000D01*
G01*
X0202854Y0139578D01*
G75*
G02*
X0203189Y0139243I0000000J-000335D01*
G01*
X0203189Y0136566D01*
G75*
G02*
X0202854Y0136232I-000335J0000000D01*
G01*
X0200177Y0136232D01*
G75*
G02*
X0199843Y0136566I0000000J0000335D01*
G01*
G37*
G36*
G01*
X0206063Y0136566D02*
X0206063Y0139243D01*
G75*
G02*
X0206398Y0139578I0000335J0000000D01*
G01*
X0209075Y0139578D01*
G75*
G02*
X0209409Y0139243I0000000J-000335D01*
G01*
X0209409Y0136566D01*
G75*
G02*
X0209075Y0136232I-000335J0000000D01*
G01*
X0206398Y0136232D01*
G75*
G02*
X0206063Y0136566I0000000J0000335D01*
G01*
G37*
G36*
G01*
X0390453Y0314932D02*
X0390453Y0317688D01*
G75*
G02*
X0391437Y0318672I0000984J0000000D01*
G01*
X0398130Y0318672D01*
G75*
G02*
X0399114Y0317688I0000000J-000984D01*
G01*
X0399114Y0314932D01*
G75*
G02*
X0398130Y0313948I-000984J0000000D01*
G01*
X0391437Y0313948D01*
G75*
G02*
X0390453Y0314932I0000000J0000984D01*
G01*
G37*
G36*
G01*
X0406988Y0308909D02*
X0406988Y0317767D01*
G75*
G02*
X0407972Y0318751I0000984J0000000D01*
G01*
X0418012Y0318751D01*
G75*
G02*
X0418996Y0317767I0000000J-000984D01*
G01*
X0418996Y0308909D01*
G75*
G02*
X0418012Y0307924I-000984J0000000D01*
G01*
X0407972Y0307924D01*
G75*
G02*
X0406988Y0308909I0000000J0000984D01*
G01*
G37*
G36*
G01*
X0406988Y0296901D02*
X0406988Y0305759D01*
G75*
G02*
X0407972Y0306743I0000984J0000000D01*
G01*
X0418012Y0306743D01*
G75*
G02*
X0418996Y0305759I0000000J-000984D01*
G01*
X0418996Y0296901D01*
G75*
G02*
X0418012Y0295916I-000984J0000000D01*
G01*
X0407972Y0295916D01*
G75*
G02*
X0406988Y0296901I0000000J0000984D01*
G01*
G37*
G36*
G01*
X0420177Y0308909D02*
X0420177Y0317767D01*
G75*
G02*
X0421161Y0318751I0000984J0000000D01*
G01*
X0431201Y0318751D01*
G75*
G02*
X0432185Y0317767I0000000J-000984D01*
G01*
X0432185Y0308909D01*
G75*
G02*
X0431201Y0307924I-000984J0000000D01*
G01*
X0421161Y0307924D01*
G75*
G02*
X0420177Y0308909I0000000J0000984D01*
G01*
G37*
G36*
G01*
X0420177Y0296901D02*
X0420177Y0305759D01*
G75*
G02*
X0421161Y0306743I0000984J0000000D01*
G01*
X0431201Y0306743D01*
G75*
G02*
X0432185Y0305759I0000000J-000984D01*
G01*
X0432185Y0296901D01*
G75*
G02*
X0431201Y0295916I-000984J0000000D01*
G01*
X0421161Y0295916D01*
G75*
G02*
X0420177Y0296901I0000000J0000984D01*
G01*
G37*
G36*
G01*
X0390453Y0296979D02*
X0390453Y0299735D01*
G75*
G02*
X0391437Y0300720I0000984J0000000D01*
G01*
X0398130Y0300720D01*
G75*
G02*
X0399114Y0299735I0000000J-000984D01*
G01*
X0399114Y0296979D01*
G75*
G02*
X0398130Y0295995I-000984J0000000D01*
G01*
X0391437Y0295995D01*
G75*
G02*
X0390453Y0296979I0000000J0000984D01*
G01*
G37*
G36*
G01*
X0438268Y0405306D02*
X0438268Y0416527D01*
G75*
G02*
X0439252Y0417511I0000984J0000000D01*
G01*
X0442106Y0417511D01*
G75*
G02*
X0443091Y0416527I0000000J-000984D01*
G01*
X0443091Y0405306D01*
G75*
G02*
X0442106Y0404322I-000984J0000000D01*
G01*
X0439252Y0404322D01*
G75*
G02*
X0438268Y0405306I0000000J0000984D01*
G01*
G37*
G36*
G01*
X0461594Y0405306D02*
X0461594Y0416527D01*
G75*
G02*
X0462579Y0417511I0000984J0000000D01*
G01*
X0465433Y0417511D01*
G75*
G02*
X0466417Y0416527I0000000J-000984D01*
G01*
X0466417Y0405306D01*
G75*
G02*
X0465433Y0404322I-000984J0000000D01*
G01*
X0462579Y0404322D01*
G75*
G02*
X0461594Y0405306I0000000J0000984D01*
G01*
G37*
G36*
G01*
X0145709Y0105582D02*
X0145709Y0108653D01*
G75*
G02*
X0145984Y0108929I0000276J0000000D01*
G01*
X0148189Y0108929D01*
G75*
G02*
X0148465Y0108653I0000000J-000276D01*
G01*
X0148465Y0105582D01*
G75*
G02*
X0148189Y0105307I-000276J0000000D01*
G01*
X0145984Y0105307D01*
G75*
G02*
X0145709Y0105582I0000000J0000276D01*
G01*
G37*
G36*
G01*
X0152008Y0105582D02*
X0152008Y0108653D01*
G75*
G02*
X0152283Y0108929I0000276J0000000D01*
G01*
X0154488Y0108929D01*
G75*
G02*
X0154764Y0108653I0000000J-000276D01*
G01*
X0154764Y0105582D01*
G75*
G02*
X0154488Y0105307I-000276J0000000D01*
G01*
X0152283Y0105307D01*
G75*
G02*
X0152008Y0105582I0000000J0000276D01*
G01*
G37*
G36*
G01*
X0363307Y0414243D02*
X0363307Y0415424D01*
G75*
G02*
X0363898Y0416015I0000591J0000000D01*
G01*
X0368524Y0416015D01*
G75*
G02*
X0369114Y0415424I0000000J-000591D01*
G01*
X0369114Y0414243D01*
G75*
G02*
X0368524Y0413653I-000591J0000000D01*
G01*
X0363898Y0413653D01*
G75*
G02*
X0363307Y0414243I0000000J0000591D01*
G01*
G37*
G36*
G01*
X0363307Y0406763D02*
X0363307Y0407944D01*
G75*
G02*
X0363898Y0408535I0000591J0000000D01*
G01*
X0368524Y0408535D01*
G75*
G02*
X0369114Y0407944I0000000J-000591D01*
G01*
X0369114Y0406763D01*
G75*
G02*
X0368524Y0406172I-000591J0000000D01*
G01*
X0363898Y0406172D01*
G75*
G02*
X0363307Y0406763I0000000J0000591D01*
G01*
G37*
G36*
G01*
X0370689Y0410503D02*
X0370689Y0411684D01*
G75*
G02*
X0371280Y0412275I0000591J0000000D01*
G01*
X0375906Y0412275D01*
G75*
G02*
X0376496Y0411684I0000000J-000591D01*
G01*
X0376496Y0410503D01*
G75*
G02*
X0375906Y0409913I-000591J0000000D01*
G01*
X0371280Y0409913D01*
G75*
G02*
X0370689Y0410503I0000000J0000591D01*
G01*
G37*
G36*
G01*
X0448622Y0206032D02*
X0448622Y0209103D01*
G75*
G02*
X0448898Y0209378I0000276J0000000D01*
G01*
X0451102Y0209378D01*
G75*
G02*
X0451378Y0209103I0000000J-000276D01*
G01*
X0451378Y0206032D01*
G75*
G02*
X0451102Y0205756I-000276J0000000D01*
G01*
X0448898Y0205756D01*
G75*
G02*
X0448622Y0206032I0000000J0000276D01*
G01*
G37*
G36*
G01*
X0454921Y0206032D02*
X0454921Y0209103D01*
G75*
G02*
X0455197Y0209378I0000276J0000000D01*
G01*
X0457402Y0209378D01*
G75*
G02*
X0457677Y0209103I0000000J-000276D01*
G01*
X0457677Y0206032D01*
G75*
G02*
X0457402Y0205756I-000276J0000000D01*
G01*
X0455197Y0205756D01*
G75*
G02*
X0454921Y0206032I0000000J0000276D01*
G01*
G37*
G36*
G01*
X0343740Y0276882D02*
X0343740Y0281804D01*
G75*
G02*
X0344134Y0282197I0000394J0000000D01*
G01*
X0347283Y0282197D01*
G75*
G02*
X0347677Y0281804I0000000J-000394D01*
G01*
X0347677Y0276882D01*
G75*
G02*
X0347283Y0276489I-000394J0000000D01*
G01*
X0344134Y0276489D01*
G75*
G02*
X0343740Y0276882I0000000J0000394D01*
G01*
G37*
G36*
G01*
X0351221Y0276882D02*
X0351221Y0281804D01*
G75*
G02*
X0351614Y0282197I0000394J0000000D01*
G01*
X0354764Y0282197D01*
G75*
G02*
X0355158Y0281804I0000000J-000394D01*
G01*
X0355158Y0276882D01*
G75*
G02*
X0354764Y0276489I-000394J0000000D01*
G01*
X0351614Y0276489D01*
G75*
G02*
X0351221Y0276882I0000000J0000394D01*
G01*
G37*
G36*
G01*
X0199843Y0144243D02*
X0199843Y0146921D01*
G75*
G02*
X0200177Y0147255I0000335J0000000D01*
G01*
X0202854Y0147255D01*
G75*
G02*
X0203189Y0146921I0000000J-000335D01*
G01*
X0203189Y0144243D01*
G75*
G02*
X0202854Y0143909I-000335J0000000D01*
G01*
X0200177Y0143909D01*
G75*
G02*
X0199843Y0144243I0000000J0000335D01*
G01*
G37*
G36*
G01*
X0206063Y0144243D02*
X0206063Y0146921D01*
G75*
G02*
X0206398Y0147255I0000335J0000000D01*
G01*
X0209075Y0147255D01*
G75*
G02*
X0209409Y0146921I0000000J-000335D01*
G01*
X0209409Y0144243D01*
G75*
G02*
X0209075Y0143909I-000335J0000000D01*
G01*
X0206398Y0143909D01*
G75*
G02*
X0206063Y0144243I0000000J0000335D01*
G01*
G37*
G36*
G01*
X0349252Y0407489D02*
X0349252Y0410560D01*
G75*
G02*
X0349528Y0410835I0000276J0000000D01*
G01*
X0351732Y0410835D01*
G75*
G02*
X0352008Y0410560I0000000J-000276D01*
G01*
X0352008Y0407489D01*
G75*
G02*
X0351732Y0407213I-000276J0000000D01*
G01*
X0349528Y0407213D01*
G75*
G02*
X0349252Y0407489I0000000J0000276D01*
G01*
G37*
G36*
G01*
X0355551Y0407489D02*
X0355551Y0410560D01*
G75*
G02*
X0355827Y0410835I0000276J0000000D01*
G01*
X0358031Y0410835D01*
G75*
G02*
X0358307Y0410560I0000000J-000276D01*
G01*
X0358307Y0407489D01*
G75*
G02*
X0358031Y0407213I-000276J0000000D01*
G01*
X0355827Y0407213D01*
G75*
G02*
X0355551Y0407489I0000000J0000276D01*
G01*
G37*
G36*
G01*
X0438268Y0328298D02*
X0438268Y0339519D01*
G75*
G02*
X0439252Y0340503I0000984J0000000D01*
G01*
X0442106Y0340503D01*
G75*
G02*
X0443091Y0339519I0000000J-000984D01*
G01*
X0443091Y0328298D01*
G75*
G02*
X0442106Y0327314I-000984J0000000D01*
G01*
X0439252Y0327314D01*
G75*
G02*
X0438268Y0328298I0000000J0000984D01*
G01*
G37*
G36*
G01*
X0461594Y0328298D02*
X0461594Y0339519D01*
G75*
G02*
X0462579Y0340503I0000984J0000000D01*
G01*
X0465433Y0340503D01*
G75*
G02*
X0466417Y0339519I0000000J-000984D01*
G01*
X0466417Y0328298D01*
G75*
G02*
X0465433Y0327314I-000984J0000000D01*
G01*
X0462579Y0327314D01*
G75*
G02*
X0461594Y0328298I0000000J0000984D01*
G01*
G37*
G36*
G01*
X0343740Y0326153D02*
X0343740Y0331074D01*
G75*
G02*
X0344134Y0331468I0000394J0000000D01*
G01*
X0347283Y0331468D01*
G75*
G02*
X0347677Y0331074I0000000J-000394D01*
G01*
X0347677Y0326153D01*
G75*
G02*
X0347283Y0325759I-000394J0000000D01*
G01*
X0344134Y0325759D01*
G75*
G02*
X0343740Y0326153I0000000J0000394D01*
G01*
G37*
G36*
G01*
X0351221Y0326153D02*
X0351221Y0331074D01*
G75*
G02*
X0351614Y0331468I0000394J0000000D01*
G01*
X0354764Y0331468D01*
G75*
G02*
X0355158Y0331074I0000000J-000394D01*
G01*
X0355158Y0326153D01*
G75*
G02*
X0354764Y0325759I-000394J0000000D01*
G01*
X0351614Y0325759D01*
G75*
G02*
X0351221Y0326153I0000000J0000394D01*
G01*
G37*
G36*
G01*
X0390453Y0186881D02*
X0390453Y0188062D01*
G75*
G02*
X0391043Y0188653I0000591J0000000D01*
G01*
X0397539Y0188653D01*
G75*
G02*
X0398130Y0188062I0000000J-000591D01*
G01*
X0398130Y0186881D01*
G75*
G02*
X0397539Y0186290I-000591J0000000D01*
G01*
X0391043Y0186290D01*
G75*
G02*
X0390453Y0186881I0000000J0000591D01*
G01*
G37*
G36*
G01*
X0390453Y0181881D02*
X0390453Y0183062D01*
G75*
G02*
X0391043Y0183653I0000591J0000000D01*
G01*
X0397539Y0183653D01*
G75*
G02*
X0398130Y0183062I0000000J-000591D01*
G01*
X0398130Y0181881D01*
G75*
G02*
X0397539Y0181290I-000591J0000000D01*
G01*
X0391043Y0181290D01*
G75*
G02*
X0390453Y0181881I0000000J0000591D01*
G01*
G37*
G36*
G01*
X0390453Y0176881D02*
X0390453Y0178062D01*
G75*
G02*
X0391043Y0178653I0000591J0000000D01*
G01*
X0397539Y0178653D01*
G75*
G02*
X0398130Y0178062I0000000J-000591D01*
G01*
X0398130Y0176881D01*
G75*
G02*
X0397539Y0176290I-000591J0000000D01*
G01*
X0391043Y0176290D01*
G75*
G02*
X0390453Y0176881I0000000J0000591D01*
G01*
G37*
G36*
G01*
X0390453Y0171881D02*
X0390453Y0173062D01*
G75*
G02*
X0391043Y0173653I0000591J0000000D01*
G01*
X0397539Y0173653D01*
G75*
G02*
X0398130Y0173062I0000000J-000591D01*
G01*
X0398130Y0171881D01*
G75*
G02*
X0397539Y0171290I-000591J0000000D01*
G01*
X0391043Y0171290D01*
G75*
G02*
X0390453Y0171881I0000000J0000591D01*
G01*
G37*
G36*
G01*
X0409941Y0171881D02*
X0409941Y0173062D01*
G75*
G02*
X0410531Y0173653I0000591J0000000D01*
G01*
X0417028Y0173653D01*
G75*
G02*
X0417618Y0173062I0000000J-000591D01*
G01*
X0417618Y0171881D01*
G75*
G02*
X0417028Y0171290I-000591J0000000D01*
G01*
X0410531Y0171290D01*
G75*
G02*
X0409941Y0171881I0000000J0000591D01*
G01*
G37*
G36*
G01*
X0409941Y0176881D02*
X0409941Y0178062D01*
G75*
G02*
X0410531Y0178653I0000591J0000000D01*
G01*
X0417028Y0178653D01*
G75*
G02*
X0417618Y0178062I0000000J-000591D01*
G01*
X0417618Y0176881D01*
G75*
G02*
X0417028Y0176290I-000591J0000000D01*
G01*
X0410531Y0176290D01*
G75*
G02*
X0409941Y0176881I0000000J0000591D01*
G01*
G37*
G36*
G01*
X0409941Y0181881D02*
X0409941Y0183062D01*
G75*
G02*
X0410531Y0183653I0000591J0000000D01*
G01*
X0417028Y0183653D01*
G75*
G02*
X0417618Y0183062I0000000J-000591D01*
G01*
X0417618Y0181881D01*
G75*
G02*
X0417028Y0181290I-000591J0000000D01*
G01*
X0410531Y0181290D01*
G75*
G02*
X0409941Y0181881I0000000J0000591D01*
G01*
G37*
G36*
G01*
X0409941Y0186881D02*
X0409941Y0188062D01*
G75*
G02*
X0410531Y0188653I0000591J0000000D01*
G01*
X0417028Y0188653D01*
G75*
G02*
X0417618Y0188062I0000000J-000591D01*
G01*
X0417618Y0186881D01*
G75*
G02*
X0417028Y0186290I-000591J0000000D01*
G01*
X0410531Y0186290D01*
G75*
G02*
X0409941Y0186881I0000000J0000591D01*
G01*
G37*
G36*
G01*
X0341004Y0199716D02*
X0338287Y0199716D01*
G75*
G02*
X0337382Y0200621I0000000J0000906D01*
G01*
X0337382Y0205897D01*
G75*
G02*
X0338287Y0206802I0000906J0000000D01*
G01*
X0341004Y0206802D01*
G75*
G02*
X0341909Y0205897I0000000J-000906D01*
G01*
X0341909Y0200621D01*
G75*
G02*
X0341004Y0199716I-000906J0000000D01*
G01*
G37*
G36*
G01*
X0352421Y0199716D02*
X0349705Y0199716D01*
G75*
G02*
X0348799Y0200621I0000000J0000906D01*
G01*
X0348799Y0205897D01*
G75*
G02*
X0349705Y0206802I0000906J0000000D01*
G01*
X0352421Y0206802D01*
G75*
G02*
X0353327Y0205897I0000000J-000906D01*
G01*
X0353327Y0200621D01*
G75*
G02*
X0352421Y0199716I-000906J0000000D01*
G01*
G37*
X0260669Y0190031D02*
G01*
G75*
D86*
X0305748Y0214398D02*
D03*
X0305748Y0196681D02*
D03*
D87*
X0302421Y0238850D02*
D03*
X0275059Y0238850D02*
D03*
D88*
X0291181Y0215622D02*
D03*
X0275039Y0215622D02*
D03*
D89*
X0292952Y0197511D02*
D03*
X0277204Y0197511D02*
D03*
D90*
X0270013Y0259289D02*
D03*
X0279265Y0255549D02*
D03*
D90*
X0279265Y0263029D02*
D03*
D91*
X0302100Y0268968D02*
D03*
D91*
X0302100Y0265228D02*
D03*
X0302100Y0261488D02*
D03*
X0310564Y0261488D02*
D03*
X0310564Y0268968D02*
D03*
D92*
X0314416Y0254967D02*
D03*
X0301424Y0254967D02*
D03*
D93*
X0296130Y0255255D02*
D03*
X0284712Y0255255D02*
D03*
D94*
X0315315Y0222708D02*
D03*
X0309094Y0222708D02*
D03*
X0304724Y0222708D02*
D03*
X0298504Y0222708D02*
D03*
D95*
X0264638Y0199819D02*
D03*
X0264638Y0203953D02*
D03*
X0315193Y0241693D02*
D03*
X0315193Y0245827D02*
D03*
X0315193Y0236980D02*
D03*
X0315193Y0232846D02*
D03*
X0316085Y0217331D02*
D03*
X0316085Y0213197D02*
D03*
D96*
X0296982Y0261538D02*
D03*
X0296982Y0265475D02*
D03*
X0283307Y0262440D02*
D03*
X0291968Y0262440D02*
D03*
X0283307Y0268837D02*
D03*
X0291968Y0268837D02*
D03*
D97*
X0274934Y0268968D02*
D03*
X0278478Y0268968D02*
D03*
D98*
X0310935Y0245630D02*
D03*
X0310935Y0242086D02*
D03*
X0310935Y0236586D02*
D03*
X0310935Y0233043D02*
D03*
X0316085Y0205030D02*
D03*
X0316085Y0208574D02*
D03*
X0213425Y0175661D02*
G01*
G75*
D91*
X0228130Y0185885D02*
D03*
X0228130Y0178405D02*
D03*
X0219665Y0178405D02*
D03*
X0219665Y0182145D02*
D03*
X0243779Y0185885D02*
D03*
X0243779Y0178405D02*
D03*
X0235315Y0178405D02*
D03*
X0235315Y0182145D02*
D03*
D91*
X0219665Y0185885D02*
D03*
X0235315Y0185885D02*
D03*
X0285472Y0379991D02*
%LPD*%
G01*
G36*
G01*
X0302913Y0397609D02*
X0302913Y0399066D01*
G75*
G02*
X0303444Y0399597I0000531J0000000D01*
G01*
X0304507Y0399597D01*
G75*
G02*
X0305039Y0399066I0000000J-000531D01*
G01*
X0305039Y0397609D01*
G75*
G02*
X0304507Y0397078I-000531J0000000D01*
G01*
X0303444Y0397078D01*
G75*
G02*
X0302913Y0397609I0000000J0000531D01*
G01*
G37*
G36*
G01*
X0298897Y0397609D02*
X0298897Y0399066D01*
G75*
G02*
X0299429Y0399597I0000531J0000000D01*
G01*
X0300492Y0399597D01*
G75*
G02*
X0301023Y0399066I0000000J-000531D01*
G01*
X0301023Y0397609D01*
G75*
G02*
X0300492Y0397078I-000531J0000000D01*
G01*
X0299429Y0397078D01*
G75*
G02*
X0298897Y0397609I0000000J0000531D01*
G01*
G37*
G36*
G01*
X0326161Y0381920D02*
X0324704Y0381920D01*
G75*
G02*
X0324173Y0382452I0000000J0000531D01*
G01*
X0324173Y0383515D01*
G75*
G02*
X0324704Y0384046I0000531J0000000D01*
G01*
X0326161Y0384046D01*
G75*
G02*
X0326692Y0383515I0000000J-000531D01*
G01*
X0326692Y0382452D01*
G75*
G02*
X0326161Y0381920I-000531J0000000D01*
G01*
G37*
G36*
G01*
X0326161Y0385936D02*
X0324704Y0385936D01*
G75*
G02*
X0324173Y0386467I0000000J0000531D01*
G01*
X0324173Y0387530D01*
G75*
G02*
X0324704Y0388062I0000531J0000000D01*
G01*
X0326161Y0388062D01*
G75*
G02*
X0326692Y0387530I0000000J-000531D01*
G01*
X0326692Y0386467D01*
G75*
G02*
X0326161Y0385936I-000531J0000000D01*
G01*
G37*
G36*
G01*
X0315189Y0414263D02*
X0315189Y0415444D01*
G75*
G02*
X0315779Y0416034I0000591J0000000D01*
G01*
X0322275Y0416034D01*
G75*
G02*
X0322866Y0415444I0000000J-000591D01*
G01*
X0322866Y0414263D01*
G75*
G02*
X0322275Y0413672I-000591J0000000D01*
G01*
X0315779Y0413672D01*
G75*
G02*
X0315189Y0414263I0000000J0000591D01*
G01*
G37*
G36*
G01*
X0315189Y0409263D02*
X0315189Y0410444D01*
G75*
G02*
X0315779Y0411034I0000591J0000000D01*
G01*
X0322275Y0411034D01*
G75*
G02*
X0322866Y0410444I0000000J-000591D01*
G01*
X0322866Y0409263D01*
G75*
G02*
X0322275Y0408672I-000591J0000000D01*
G01*
X0315779Y0408672D01*
G75*
G02*
X0315189Y0409263I0000000J0000591D01*
G01*
G37*
G36*
G01*
X0315189Y0404263D02*
X0315189Y0405444D01*
G75*
G02*
X0315779Y0406034I0000591J0000000D01*
G01*
X0322275Y0406034D01*
G75*
G02*
X0322866Y0405444I0000000J-000591D01*
G01*
X0322866Y0404263D01*
G75*
G02*
X0322275Y0403672I-000591J0000000D01*
G01*
X0315779Y0403672D01*
G75*
G02*
X0315189Y0404263I0000000J0000591D01*
G01*
G37*
G36*
G01*
X0315189Y0399263D02*
X0315189Y0400444D01*
G75*
G02*
X0315779Y0401034I0000591J0000000D01*
G01*
X0322275Y0401034D01*
G75*
G02*
X0322866Y0400444I0000000J-000591D01*
G01*
X0322866Y0399263D01*
G75*
G02*
X0322275Y0398672I-000591J0000000D01*
G01*
X0315779Y0398672D01*
G75*
G02*
X0315189Y0399263I0000000J0000591D01*
G01*
G37*
G36*
G01*
X0334677Y0399263D02*
X0334677Y0400444D01*
G75*
G02*
X0335267Y0401034I0000591J0000000D01*
G01*
X0341763Y0401034D01*
G75*
G02*
X0342354Y0400444I0000000J-000591D01*
G01*
X0342354Y0399263D01*
G75*
G02*
X0341763Y0398672I-000591J0000000D01*
G01*
X0335267Y0398672D01*
G75*
G02*
X0334677Y0399263I0000000J0000591D01*
G01*
G37*
G36*
G01*
X0334677Y0404263D02*
X0334677Y0405444D01*
G75*
G02*
X0335267Y0406034I0000591J0000000D01*
G01*
X0341763Y0406034D01*
G75*
G02*
X0342354Y0405444I0000000J-000591D01*
G01*
X0342354Y0404263D01*
G75*
G02*
X0341763Y0403672I-000591J0000000D01*
G01*
X0335267Y0403672D01*
G75*
G02*
X0334677Y0404263I0000000J0000591D01*
G01*
G37*
G36*
G01*
X0334677Y0409263D02*
X0334677Y0410444D01*
G75*
G02*
X0335267Y0411034I0000591J0000000D01*
G01*
X0341763Y0411034D01*
G75*
G02*
X0342354Y0410444I0000000J-000591D01*
G01*
X0342354Y0409263D01*
G75*
G02*
X0341763Y0408672I-000591J0000000D01*
G01*
X0335267Y0408672D01*
G75*
G02*
X0334677Y0409263I0000000J0000591D01*
G01*
G37*
G36*
G01*
X0334677Y0414263D02*
X0334677Y0415444D01*
G75*
G02*
X0335267Y0416034I0000591J0000000D01*
G01*
X0341763Y0416034D01*
G75*
G02*
X0342354Y0415444I0000000J-000591D01*
G01*
X0342354Y0414263D01*
G75*
G02*
X0341763Y0413672I-000591J0000000D01*
G01*
X0335267Y0413672D01*
G75*
G02*
X0334677Y0414263I0000000J0000591D01*
G01*
G37*
D133*
X0300669Y0414991D03*
X0300669Y0412432D03*
X0300669Y0409873D03*
X0308149Y0409873D03*
X0308149Y0412432D03*
X0308149Y0414991D03*
G36*
G01*
X0316830Y0395903D02*
X0318287Y0395903D01*
G75*
G02*
X0318818Y0395371I0000000J-000531D01*
G01*
X0318818Y0394308D01*
G75*
G02*
X0318287Y0393777I-000531J0000000D01*
G01*
X0316830Y0393777D01*
G75*
G02*
X0316299Y0394308I0000000J0000531D01*
G01*
X0316299Y0395371D01*
G75*
G02*
X0316830Y0395903I0000531J0000000D01*
G01*
G37*
G36*
G01*
X0316830Y0391887D02*
X0318287Y0391887D01*
G75*
G02*
X0318818Y0391356I0000000J-000531D01*
G01*
X0318818Y0390293D01*
G75*
G02*
X0318287Y0389761I-000531J0000000D01*
G01*
X0316830Y0389761D01*
G75*
G02*
X0316299Y0390293I0000000J0000531D01*
G01*
X0316299Y0391356D01*
G75*
G02*
X0316830Y0391887I0000531J0000000D01*
G01*
G37*
G36*
G01*
X0322165Y0389840D02*
X0320826Y0389840D01*
G75*
G02*
X0320275Y0390391I0000000J0000551D01*
G01*
X0320275Y0391493D01*
G75*
G02*
X0320826Y0392045I0000551J0000000D01*
G01*
X0322165Y0392045D01*
G75*
G02*
X0322716Y0391493I0000000J-000551D01*
G01*
X0322716Y0390391D01*
G75*
G02*
X0322165Y0389840I-000551J0000000D01*
G01*
G37*
G36*
G01*
X0322165Y0393619D02*
X0320826Y0393619D01*
G75*
G02*
X0320275Y0394171I0000000J0000551D01*
G01*
X0320275Y0395273D01*
G75*
G02*
X0320826Y0395824I0000551J0000000D01*
G01*
X0322165Y0395824D01*
G75*
G02*
X0322716Y0395273I0000000J-000551D01*
G01*
X0322716Y0394171D01*
G75*
G02*
X0322165Y0393619I-000551J0000000D01*
G01*
G37*
G36*
G01*
X0318287Y0381920D02*
X0316830Y0381920D01*
G75*
G02*
X0316299Y0382452I0000000J0000531D01*
G01*
X0316299Y0383515D01*
G75*
G02*
X0316830Y0384046I0000531J0000000D01*
G01*
X0318287Y0384046D01*
G75*
G02*
X0318818Y0383515I0000000J-000531D01*
G01*
X0318818Y0382452D01*
G75*
G02*
X0318287Y0381920I-000531J0000000D01*
G01*
G37*
G36*
G01*
X0318287Y0385936D02*
X0316830Y0385936D01*
G75*
G02*
X0316299Y0386467I0000000J0000531D01*
G01*
X0316299Y0387530D01*
G75*
G02*
X0316830Y0388062I0000531J0000000D01*
G01*
X0318287Y0388062D01*
G75*
G02*
X0318818Y0387530I0000000J-000531D01*
G01*
X0318818Y0386467D01*
G75*
G02*
X0318287Y0385936I-000531J0000000D01*
G01*
G37*
G36*
G01*
X0329881Y0387983D02*
X0331220Y0387983D01*
G75*
G02*
X0331771Y0387432I0000000J-000551D01*
G01*
X0331771Y0386330D01*
G75*
G02*
X0331220Y0385778I-000551J0000000D01*
G01*
X0329881Y0385778D01*
G75*
G02*
X0329330Y0386330I0000000J0000551D01*
G01*
X0329330Y0387432D01*
G75*
G02*
X0329881Y0387983I0000551J0000000D01*
G01*
G37*
G36*
G01*
X0329881Y0384204D02*
X0331220Y0384204D01*
G75*
G02*
X0331771Y0383652I0000000J-000551D01*
G01*
X0331771Y0382550D01*
G75*
G02*
X0331220Y0381999I-000551J0000000D01*
G01*
X0329881Y0381999D01*
G75*
G02*
X0329330Y0382550I0000000J0000551D01*
G01*
X0329330Y0383652D01*
G75*
G02*
X0329881Y0384204I0000551J0000000D01*
G01*
G37*
G36*
G01*
X0306752Y0391841D02*
X0308090Y0391841D01*
G75*
G02*
X0308641Y0391290I0000000J-000551D01*
G01*
X0308641Y0390188D01*
G75*
G02*
X0308090Y0389637I-000551J0000000D01*
G01*
X0306752Y0389637D01*
G75*
G02*
X0306200Y0390188I0000000J0000551D01*
G01*
X0306200Y0391290D01*
G75*
G02*
X0306752Y0391841I0000551J0000000D01*
G01*
G37*
G36*
G01*
X0306752Y0388062D02*
X0308090Y0388062D01*
G75*
G02*
X0308641Y0387511I0000000J-000551D01*
G01*
X0308641Y0386408D01*
G75*
G02*
X0308090Y0385857I-000551J0000000D01*
G01*
X0306752Y0385857D01*
G75*
G02*
X0306200Y0386408I0000000J0000551D01*
G01*
X0306200Y0387511D01*
G75*
G02*
X0306752Y0388062I0000551J0000000D01*
G01*
G37*
G36*
G01*
X0312519Y0395089D02*
X0312519Y0393633D01*
G75*
G02*
X0311988Y0393101I-000531J0000000D01*
G01*
X0310925Y0393101D01*
G75*
G02*
X0310393Y0393633I0000000J0000531D01*
G01*
X0310393Y0395089D01*
G75*
G02*
X0310925Y0395621I0000531J0000000D01*
G01*
X0311988Y0395621D01*
G75*
G02*
X0312519Y0395089I0000000J-000531D01*
G01*
G37*
G36*
G01*
X0308503Y0395089D02*
X0308503Y0393633D01*
G75*
G02*
X0307972Y0393101I-000531J0000000D01*
G01*
X0306909Y0393101D01*
G75*
G02*
X0306378Y0393633I0000000J0000531D01*
G01*
X0306378Y0395089D01*
G75*
G02*
X0306909Y0395621I0000531J0000000D01*
G01*
X0307972Y0395621D01*
G75*
G02*
X0308503Y0395089I0000000J-000531D01*
G01*
G37*
G36*
G01*
X0343346Y0395818D02*
X0343346Y0394479D01*
G75*
G02*
X0342795Y0393928I-000551J0000000D01*
G01*
X0341692Y0393928D01*
G75*
G02*
X0341141Y0394479I0000000J0000551D01*
G01*
X0341141Y0395818D01*
G75*
G02*
X0341692Y0396369I0000551J0000000D01*
G01*
X0342795Y0396369D01*
G75*
G02*
X0343346Y0395818I0000000J-000551D01*
G01*
G37*
G36*
G01*
X0339566Y0395818D02*
X0339566Y0394479D01*
G75*
G02*
X0339015Y0393928I-000551J0000000D01*
G01*
X0337913Y0393928D01*
G75*
G02*
X0337362Y0394479I0000000J0000551D01*
G01*
X0337362Y0395818D01*
G75*
G02*
X0337913Y0396369I0000551J0000000D01*
G01*
X0339015Y0396369D01*
G75*
G02*
X0339566Y0395818I0000000J-000551D01*
G01*
G37*
G36*
G01*
X0294291Y0401581D02*
X0294291Y0403598D01*
G75*
G02*
X0295152Y0404460I0000861J0000000D01*
G01*
X0296875Y0404460D01*
G75*
G02*
X0297736Y0403598I0000000J-000861D01*
G01*
X0297736Y0401581D01*
G75*
G02*
X0296875Y0400719I-000861J0000000D01*
G01*
X0295152Y0400719D01*
G75*
G02*
X0294291Y0401581I0000000J0000861D01*
G01*
G37*
G36*
G01*
X0288090Y0401581D02*
X0288090Y0403598D01*
G75*
G02*
X0288951Y0404460I0000861J0000000D01*
G01*
X0290674Y0404460D01*
G75*
G02*
X0291535Y0403598I0000000J-000861D01*
G01*
X0291535Y0401581D01*
G75*
G02*
X0290674Y0400719I-000861J0000000D01*
G01*
X0288951Y0400719D01*
G75*
G02*
X0288090Y0401581I0000000J0000861D01*
G01*
G37*
G36*
G01*
X0313070Y0406802D02*
X0311732Y0406802D01*
G75*
G02*
X0311181Y0407353I0000000J0000551D01*
G01*
X0311181Y0408456D01*
G75*
G02*
X0311732Y0409007I0000551J0000000D01*
G01*
X0313070Y0409007D01*
G75*
G02*
X0313622Y0408456I0000000J-000551D01*
G01*
X0313622Y0407353D01*
G75*
G02*
X0313070Y0406802I-000551J0000000D01*
G01*
G37*
G36*
G01*
X0313070Y0410582D02*
X0311732Y0410582D01*
G75*
G02*
X0311181Y0411133I0000000J0000551D01*
G01*
X0311181Y0412235D01*
G75*
G02*
X0311732Y0412786I0000551J0000000D01*
G01*
X0313070Y0412786D01*
G75*
G02*
X0313622Y0412235I0000000J-000551D01*
G01*
X0313622Y0411133D01*
G75*
G02*
X0313070Y0410582I-000551J0000000D01*
G01*
G37*
G36*
G01*
X0295433Y0409656D02*
X0295433Y0408200D01*
G75*
G02*
X0294901Y0407668I-000531J0000000D01*
G01*
X0293838Y0407668D01*
G75*
G02*
X0293307Y0408200I0000000J0000531D01*
G01*
X0293307Y0409656D01*
G75*
G02*
X0293838Y0410188I0000531J0000000D01*
G01*
X0294901Y0410188D01*
G75*
G02*
X0295433Y0409656I0000000J-000531D01*
G01*
G37*
G36*
G01*
X0291417Y0409656D02*
X0291417Y0408200D01*
G75*
G02*
X0290885Y0407668I-000531J0000000D01*
G01*
X0289822Y0407668D01*
G75*
G02*
X0289291Y0408200I0000000J0000531D01*
G01*
X0289291Y0409656D01*
G75*
G02*
X0289822Y0410188I0000531J0000000D01*
G01*
X0290885Y0410188D01*
G75*
G02*
X0291417Y0409656I0000000J-000531D01*
G01*
G37*
G36*
G01*
X0306378Y0397570D02*
X0306378Y0399026D01*
G75*
G02*
X0306909Y0399558I0000531J0000000D01*
G01*
X0307972Y0399558D01*
G75*
G02*
X0308503Y0399026I0000000J-000531D01*
G01*
X0308503Y0397570D01*
G75*
G02*
X0307972Y0397038I-000531J0000000D01*
G01*
X0306909Y0397038D01*
G75*
G02*
X0306378Y0397570I0000000J0000531D01*
G01*
G37*
G36*
G01*
X0310393Y0397570D02*
X0310393Y0399026D01*
G75*
G02*
X0310925Y0399558I0000531J0000000D01*
G01*
X0311988Y0399558D01*
G75*
G02*
X0312519Y0399026I0000000J-000531D01*
G01*
X0312519Y0397570D01*
G75*
G02*
X0311988Y0397038I-000531J0000000D01*
G01*
X0310925Y0397038D01*
G75*
G02*
X0310393Y0397570I0000000J0000531D01*
G01*
G37*
G36*
G01*
X0311515Y0391779D02*
X0312972Y0391779D01*
G75*
G02*
X0313503Y0391248I0000000J-000531D01*
G01*
X0313503Y0390185D01*
G75*
G02*
X0312972Y0389653I-000531J0000000D01*
G01*
X0311515Y0389653D01*
G75*
G02*
X0310984Y0390185I0000000J0000531D01*
G01*
X0310984Y0391248D01*
G75*
G02*
X0311515Y0391779I0000531J0000000D01*
G01*
G37*
G36*
G01*
X0311515Y0387763D02*
X0312972Y0387763D01*
G75*
G02*
X0313503Y0387232I0000000J-000531D01*
G01*
X0313503Y0386169D01*
G75*
G02*
X0312972Y0385638I-000531J0000000D01*
G01*
X0311515Y0385638D01*
G75*
G02*
X0310984Y0386169I0000000J0000531D01*
G01*
X0310984Y0387232D01*
G75*
G02*
X0311515Y0387763I0000531J0000000D01*
G01*
G37*
G36*
G01*
X0294173Y0398377D02*
X0294173Y0397038D01*
G75*
G02*
X0293622Y0396487I-000551J0000000D01*
G01*
X0292519Y0396487D01*
G75*
G02*
X0291968Y0397038I0000000J0000551D01*
G01*
X0291968Y0398377D01*
G75*
G02*
X0292519Y0398928I0000551J0000000D01*
G01*
X0293622Y0398928D01*
G75*
G02*
X0294173Y0398377I0000000J-000551D01*
G01*
G37*
G36*
G01*
X0290393Y0398377D02*
X0290393Y0397038D01*
G75*
G02*
X0289842Y0396487I-000551J0000000D01*
G01*
X0288740Y0396487D01*
G75*
G02*
X0288189Y0397038I0000000J0000551D01*
G01*
X0288189Y0398377D01*
G75*
G02*
X0288740Y0398928I0000551J0000000D01*
G01*
X0289842Y0398928D01*
G75*
G02*
X0290393Y0398377I0000000J-000551D01*
G01*
G37*
G36*
G01*
X0331220Y0389840D02*
X0329881Y0389840D01*
G75*
G02*
X0329330Y0390391I0000000J0000551D01*
G01*
X0329330Y0391493D01*
G75*
G02*
X0329881Y0392045I0000551J0000000D01*
G01*
X0331220Y0392045D01*
G75*
G02*
X0331771Y0391493I0000000J-000551D01*
G01*
X0331771Y0390391D01*
G75*
G02*
X0331220Y0389840I-000551J0000000D01*
G01*
G37*
G36*
G01*
X0331220Y0393619D02*
X0329881Y0393619D01*
G75*
G02*
X0329330Y0394171I0000000J0000551D01*
G01*
X0329330Y0395273D01*
G75*
G02*
X0329881Y0395824I0000551J0000000D01*
G01*
X0331220Y0395824D01*
G75*
G02*
X0331771Y0395273I0000000J-000551D01*
G01*
X0331771Y0394171D01*
G75*
G02*
X0331220Y0393619I-000551J0000000D01*
G01*
G37*
G36*
G01*
X0306200Y0382314D02*
X0306200Y0383771D01*
G75*
G02*
X0306732Y0384302I0000531J0000000D01*
G01*
X0307795Y0384302D01*
G75*
G02*
X0308326Y0383771I0000000J-000531D01*
G01*
X0308326Y0382314D01*
G75*
G02*
X0307795Y0381782I-000531J0000000D01*
G01*
X0306732Y0381782D01*
G75*
G02*
X0306200Y0382314I0000000J0000531D01*
G01*
G37*
G36*
G01*
X0310216Y0382314D02*
X0310216Y0383771D01*
G75*
G02*
X0310748Y0384302I0000531J0000000D01*
G01*
X0311811Y0384302D01*
G75*
G02*
X0312342Y0383771I0000000J-000531D01*
G01*
X0312342Y0382314D01*
G75*
G02*
X0311811Y0381782I-000531J0000000D01*
G01*
X0310748Y0381782D01*
G75*
G02*
X0310216Y0382314I0000000J0000531D01*
G01*
G37*
D134*
X0335459Y0383534D03*
X0338018Y0383534D03*
X0340577Y0383534D03*
X0340577Y0391015D03*
X0338018Y0391015D03*
X0335459Y0391015D03*
G36*
G01*
X0289510Y0392320D02*
X0289510Y0393501D01*
G75*
G02*
X0290101Y0394092I0000591J0000000D01*
G01*
X0294136Y0394092D01*
G75*
G02*
X0294727Y0393501I0000000J-000591D01*
G01*
X0294727Y0392320D01*
G75*
G02*
X0294136Y0391730I-000591J0000000D01*
G01*
X0290101Y0391730D01*
G75*
G02*
X0289510Y0392320I0000000J0000591D01*
G01*
G37*
G36*
G01*
X0289510Y0388580D02*
X0289510Y0389761D01*
G75*
G02*
X0290101Y0390352I0000591J0000000D01*
G01*
X0294136Y0390352D01*
G75*
G02*
X0294727Y0389761I0000000J-000591D01*
G01*
X0294727Y0388580D01*
G75*
G02*
X0294136Y0387989I-000591J0000000D01*
G01*
X0290101Y0387989D01*
G75*
G02*
X0289510Y0388580I0000000J0000591D01*
G01*
G37*
G36*
G01*
X0289510Y0384840D02*
X0289510Y0386021D01*
G75*
G02*
X0290101Y0386611I0000591J0000000D01*
G01*
X0294136Y0386611D01*
G75*
G02*
X0294727Y0386021I0000000J-000591D01*
G01*
X0294727Y0384840D01*
G75*
G02*
X0294136Y0384249I-000591J0000000D01*
G01*
X0290101Y0384249D01*
G75*
G02*
X0289510Y0384840I0000000J0000591D01*
G01*
G37*
G36*
G01*
X0298467Y0384840D02*
X0298467Y0386021D01*
G75*
G02*
X0299057Y0386611I0000591J0000000D01*
G01*
X0303093Y0386611D01*
G75*
G02*
X0303683Y0386021I0000000J-000591D01*
G01*
X0303683Y0384840D01*
G75*
G02*
X0303093Y0384249I-000591J0000000D01*
G01*
X0299057Y0384249D01*
G75*
G02*
X0298467Y0384840I0000000J0000591D01*
G01*
G37*
G36*
G01*
X0298467Y0388580D02*
X0298467Y0389761D01*
G75*
G02*
X0299057Y0390352I0000591J0000000D01*
G01*
X0303093Y0390352D01*
G75*
G02*
X0303683Y0389761I0000000J-000591D01*
G01*
X0303683Y0388580D01*
G75*
G02*
X0303093Y0387989I-000591J0000000D01*
G01*
X0299057Y0387989D01*
G75*
G02*
X0298467Y0388580I0000000J0000591D01*
G01*
G37*
G36*
G01*
X0298467Y0392320D02*
X0298467Y0393501D01*
G75*
G02*
X0299057Y0394092I0000591J0000000D01*
G01*
X0303093Y0394092D01*
G75*
G02*
X0303683Y0393501I0000000J-000591D01*
G01*
X0303683Y0392320D01*
G75*
G02*
X0303093Y0391730I-000591J0000000D01*
G01*
X0299057Y0391730D01*
G75*
G02*
X0298467Y0392320I0000000J0000591D01*
G01*
G37*
G36*
G01*
X0300629Y0404204D02*
X0300629Y0405542D01*
G75*
G02*
X0301181Y0406093I0000551J0000000D01*
G01*
X0302283Y0406093D01*
G75*
G02*
X0302834Y0405542I0000000J-000551D01*
G01*
X0302834Y0404204D01*
G75*
G02*
X0302283Y0403652I-000551J0000000D01*
G01*
X0301181Y0403652D01*
G75*
G02*
X0300629Y0404204I0000000J0000551D01*
G01*
G37*
G36*
G01*
X0304409Y0404204D02*
X0304409Y0405542D01*
G75*
G02*
X0304960Y0406093I0000551J0000000D01*
G01*
X0306063Y0406093D01*
G75*
G02*
X0306614Y0405542I0000000J-000551D01*
G01*
X0306614Y0404204D01*
G75*
G02*
X0306063Y0403652I-000551J0000000D01*
G01*
X0304960Y0403652D01*
G75*
G02*
X0304409Y0404204I0000000J0000551D01*
G01*
G37*
G36*
G01*
X0322165Y0381999D02*
X0320826Y0381999D01*
G75*
G02*
X0320275Y0382550I0000000J0000551D01*
G01*
X0320275Y0383652D01*
G75*
G02*
X0320826Y0384204I0000551J0000000D01*
G01*
X0322165Y0384204D01*
G75*
G02*
X0322716Y0383652I0000000J-000551D01*
G01*
X0322716Y0382550D01*
G75*
G02*
X0322165Y0381999I-000551J0000000D01*
G01*
G37*
G36*
G01*
X0322165Y0385778D02*
X0320826Y0385778D01*
G75*
G02*
X0320275Y0386330I0000000J0000551D01*
G01*
X0320275Y0387432D01*
G75*
G02*
X0320826Y0387983I0000551J0000000D01*
G01*
X0322165Y0387983D01*
G75*
G02*
X0322716Y0387432I0000000J-000551D01*
G01*
X0322716Y0386330D01*
G75*
G02*
X0322165Y0385778I-000551J0000000D01*
G01*
G37*
G36*
G01*
X0326161Y0389761D02*
X0324704Y0389761D01*
G75*
G02*
X0324173Y0390293I0000000J0000531D01*
G01*
X0324173Y0391356D01*
G75*
G02*
X0324704Y0391887I0000531J0000000D01*
G01*
X0326161Y0391887D01*
G75*
G02*
X0326692Y0391356I0000000J-000531D01*
G01*
X0326692Y0390293D01*
G75*
G02*
X0326161Y0389761I-000531J0000000D01*
G01*
G37*
G36*
G01*
X0326161Y0393777D02*
X0324704Y0393777D01*
G75*
G02*
X0324173Y0394308I0000000J0000531D01*
G01*
X0324173Y0395371D01*
G75*
G02*
X0324704Y0395903I0000531J0000000D01*
G01*
X0326161Y0395903D01*
G75*
G02*
X0326692Y0395371I0000000J-000531D01*
G01*
X0326692Y0394308D01*
G75*
G02*
X0326161Y0393777I-000531J0000000D01*
G01*
G37*
X0285472Y0336487D02*
%LPD*%
G01*
D136*
X0319330Y0349479D03*
X0319330Y0347511D03*
X0319330Y0345542D03*
X0319330Y0343574D03*
X0319330Y0341605D03*
X0336653Y0341605D03*
X0336653Y0343574D03*
X0336653Y0345542D03*
X0336653Y0347511D03*
X0336653Y0349479D03*
G36*
G01*
X0326850Y0362668D02*
X0329921Y0362668D01*
G75*
G02*
X0330196Y0362393I0000000J-000276D01*
G01*
X0330196Y0360188D01*
G75*
G02*
X0329921Y0359912I-000276J0000000D01*
G01*
X0326850Y0359912D01*
G75*
G02*
X0326574Y0360188I0000000J0000276D01*
G01*
X0326574Y0362393D01*
G75*
G02*
X0326850Y0362668I0000276J0000000D01*
G01*
G37*
G36*
G01*
X0326850Y0356369D02*
X0329921Y0356369D01*
G75*
G02*
X0330196Y0356093I0000000J-000276D01*
G01*
X0330196Y0353889D01*
G75*
G02*
X0329921Y0353613I-000276J0000000D01*
G01*
X0326850Y0353613D01*
G75*
G02*
X0326574Y0353889I0000000J0000276D01*
G01*
X0326574Y0356093D01*
G75*
G02*
X0326850Y0356369I0000276J0000000D01*
G01*
G37*
G36*
G01*
X0341181Y0369322D02*
X0341181Y0366251D01*
G75*
G02*
X0340905Y0365975I-000276J0000000D01*
G01*
X0338700Y0365975D01*
G75*
G02*
X0338425Y0366251I0000000J0000276D01*
G01*
X0338425Y0369322D01*
G75*
G02*
X0338700Y0369597I0000276J0000000D01*
G01*
X0340905Y0369597D01*
G75*
G02*
X0341181Y0369322I0000000J-000276D01*
G01*
G37*
G36*
G01*
X0334881Y0369322D02*
X0334881Y0366251D01*
G75*
G02*
X0334606Y0365975I-000276J0000000D01*
G01*
X0332401Y0365975D01*
G75*
G02*
X0332126Y0366251I0000000J0000276D01*
G01*
X0332126Y0369322D01*
G75*
G02*
X0332401Y0369597I0000276J0000000D01*
G01*
X0334606Y0369597D01*
G75*
G02*
X0334881Y0369322I0000000J-000276D01*
G01*
G37*
G36*
G01*
X0320944Y0362668D02*
X0324015Y0362668D01*
G75*
G02*
X0324291Y0362393I0000000J-000276D01*
G01*
X0324291Y0360188D01*
G75*
G02*
X0324015Y0359912I-000276J0000000D01*
G01*
X0320944Y0359912D01*
G75*
G02*
X0320669Y0360188I0000000J0000276D01*
G01*
X0320669Y0362393D01*
G75*
G02*
X0320944Y0362668I0000276J0000000D01*
G01*
G37*
G36*
G01*
X0320944Y0356369D02*
X0324015Y0356369D01*
G75*
G02*
X0324291Y0356093I0000000J-000276D01*
G01*
X0324291Y0353889D01*
G75*
G02*
X0324015Y0353613I-000276J0000000D01*
G01*
X0320944Y0353613D01*
G75*
G02*
X0320669Y0353889I0000000J0000276D01*
G01*
X0320669Y0356093D01*
G75*
G02*
X0320944Y0356369I0000276J0000000D01*
G01*
G37*
G36*
G01*
X0329271Y0368992D02*
X0329271Y0366974D01*
G75*
G02*
X0328410Y0366113I-000861J0000000D01*
G01*
X0326688Y0366113D01*
G75*
G02*
X0325826Y0366974I0000000J0000861D01*
G01*
X0325826Y0368992D01*
G75*
G02*
X0326688Y0369853I0000861J0000000D01*
G01*
X0328410Y0369853D01*
G75*
G02*
X0329271Y0368992I0000000J-000861D01*
G01*
G37*
G36*
G01*
X0323070Y0368992D02*
X0323070Y0366974D01*
G75*
G02*
X0322209Y0366113I-000861J0000000D01*
G01*
X0320487Y0366113D01*
G75*
G02*
X0319626Y0366974I0000000J0000861D01*
G01*
X0319626Y0368992D01*
G75*
G02*
X0320487Y0369853I0000861J0000000D01*
G01*
X0322209Y0369853D01*
G75*
G02*
X0323070Y0368992I0000000J-000861D01*
G01*
G37*
G36*
G01*
X0335216Y0362030D02*
X0335216Y0359353D01*
G75*
G02*
X0334881Y0359018I-000335J0000000D01*
G01*
X0332204Y0359018D01*
G75*
G02*
X0331870Y0359353I0000000J0000335D01*
G01*
X0331870Y0362030D01*
G75*
G02*
X0332204Y0362365I0000335J0000000D01*
G01*
X0334881Y0362365D01*
G75*
G02*
X0335216Y0362030I0000000J-000335D01*
G01*
G37*
G36*
G01*
X0341437Y0362030D02*
X0341437Y0359353D01*
G75*
G02*
X0341102Y0359018I-000335J0000000D01*
G01*
X0338425Y0359018D01*
G75*
G02*
X0338090Y0359353I0000000J0000335D01*
G01*
X0338090Y0362030D01*
G75*
G02*
X0338425Y0362365I0000335J0000000D01*
G01*
X0341102Y0362365D01*
G75*
G02*
X0341437Y0362030I0000000J-000335D01*
G01*
G37*
G36*
G01*
X0341437Y0356723D02*
X0341437Y0354046D01*
G75*
G02*
X0341102Y0353711I-000335J0000000D01*
G01*
X0338425Y0353711D01*
G75*
G02*
X0338090Y0354046I0000000J0000335D01*
G01*
X0338090Y0356723D01*
G75*
G02*
X0338425Y0357058I0000335J0000000D01*
G01*
X0341102Y0357058D01*
G75*
G02*
X0341437Y0356723I0000000J-000335D01*
G01*
G37*
G36*
G01*
X0335216Y0356723D02*
X0335216Y0354046D01*
G75*
G02*
X0334881Y0353711I-000335J0000000D01*
G01*
X0332204Y0353711D01*
G75*
G02*
X0331870Y0354046I0000000J0000335D01*
G01*
X0331870Y0356723D01*
G75*
G02*
X0332204Y0357058I0000335J0000000D01*
G01*
X0334881Y0357058D01*
G75*
G02*
X0335216Y0356723I0000000J-000335D01*
G01*
G37*
G36*
G01*
X0316023Y0362924D02*
X0318700Y0362924D01*
G75*
G02*
X0319035Y0362589I0000000J-000335D01*
G01*
X0319035Y0359912D01*
G75*
G02*
X0318700Y0359578I-000335J0000000D01*
G01*
X0316023Y0359578D01*
G75*
G02*
X0315689Y0359912I0000000J0000335D01*
G01*
X0315689Y0362589D01*
G75*
G02*
X0316023Y0362924I0000335J0000000D01*
G01*
G37*
G36*
G01*
X0316023Y0356704D02*
X0318700Y0356704D01*
G75*
G02*
X0319035Y0356369I0000000J-000335D01*
G01*
X0319035Y0353692D01*
G75*
G02*
X0318700Y0353357I-000335J0000000D01*
G01*
X0316023Y0353357D01*
G75*
G02*
X0315689Y0353692I0000000J0000335D01*
G01*
X0315689Y0356369D01*
G75*
G02*
X0316023Y0356704I0000335J0000000D01*
G01*
G37*
X0146693Y0216409D02*
%LPD*%
G01*
G36*
G01*
X0214301Y0252118D02*
X0212943Y0252118D01*
G75*
G02*
X0212362Y0252698I0000000J0000581D01*
G01*
X0212362Y0253860D01*
G75*
G02*
X0212943Y0254440I0000581J0000000D01*
G01*
X0214301Y0254440D01*
G75*
G02*
X0214882Y0253860I0000000J-000581D01*
G01*
X0214882Y0252698D01*
G75*
G02*
X0214301Y0252118I-000581J0000000D01*
G01*
G37*
G36*
G01*
X0214301Y0255937D02*
X0212943Y0255937D01*
G75*
G02*
X0212362Y0256517I0000000J0000581D01*
G01*
X0212362Y0257679D01*
G75*
G02*
X0212943Y0258259I0000581J0000000D01*
G01*
X0214301Y0258259D01*
G75*
G02*
X0214882Y0257679I0000000J-000581D01*
G01*
X0214882Y0256517D01*
G75*
G02*
X0214301Y0255937I-000581J0000000D01*
G01*
G37*
G36*
G01*
X0155728Y0236694D02*
X0155728Y0238053D01*
G75*
G02*
X0156309Y0238633I0000581J0000000D01*
G01*
X0157471Y0238633D01*
G75*
G02*
X0158051Y0238053I0000000J-000581D01*
G01*
X0158051Y0236694D01*
G75*
G02*
X0157471Y0236114I-000581J0000000D01*
G01*
X0156309Y0236114D01*
G75*
G02*
X0155728Y0236694I0000000J0000581D01*
G01*
G37*
G36*
G01*
X0159547Y0236694D02*
X0159547Y0238053D01*
G75*
G02*
X0160128Y0238633I0000581J0000000D01*
G01*
X0161289Y0238633D01*
G75*
G02*
X0161870Y0238053I0000000J-000581D01*
G01*
X0161870Y0236694D01*
G75*
G02*
X0161289Y0236114I-000581J0000000D01*
G01*
X0160128Y0236114D01*
G75*
G02*
X0159547Y0236694I0000000J0000581D01*
G01*
G37*
G36*
G01*
X0166255Y0251891D02*
X0168273Y0251891D01*
G75*
G02*
X0169134Y0251030I0000000J-000861D01*
G01*
X0169134Y0249308D01*
G75*
G02*
X0168273Y0248446I-000861J0000000D01*
G01*
X0166255Y0248446D01*
G75*
G02*
X0165394Y0249308I0000000J0000861D01*
G01*
X0165394Y0251030D01*
G75*
G02*
X0166255Y0251891I0000861J0000000D01*
G01*
G37*
G36*
G01*
X0166255Y0245690D02*
X0168273Y0245690D01*
G75*
G02*
X0169134Y0244829I0000000J-000861D01*
G01*
X0169134Y0243107D01*
G75*
G02*
X0168273Y0242246I-000861J0000000D01*
G01*
X0166255Y0242246D01*
G75*
G02*
X0165394Y0243107I0000000J0000861D01*
G01*
X0165394Y0244829D01*
G75*
G02*
X0166255Y0245690I0000861J0000000D01*
G01*
G37*
G36*
G01*
X0212746Y0226862D02*
X0214104Y0226862D01*
G75*
G02*
X0214685Y0226281I0000000J-000581D01*
G01*
X0214685Y0225120D01*
G75*
G02*
X0214104Y0224539I-000581J0000000D01*
G01*
X0212746Y0224539D01*
G75*
G02*
X0212165Y0225120I0000000J0000581D01*
G01*
X0212165Y0226281D01*
G75*
G02*
X0212746Y0226862I0000581J0000000D01*
G01*
G37*
G36*
G01*
X0212746Y0223043D02*
X0214104Y0223043D01*
G75*
G02*
X0214685Y0222462I0000000J-000581D01*
G01*
X0214685Y0221301D01*
G75*
G02*
X0214104Y0220720I-000581J0000000D01*
G01*
X0212746Y0220720D01*
G75*
G02*
X0212165Y0221301I0000000J0000581D01*
G01*
X0212165Y0222462D01*
G75*
G02*
X0212746Y0223043I0000581J0000000D01*
G01*
G37*
D137*
X0161555Y0242689D03*
X0161555Y0250169D03*
X0153681Y0246429D03*
G36*
G01*
X0208563Y0226862D02*
X0209921Y0226862D01*
G75*
G02*
X0210502Y0226281I0000000J-000581D01*
G01*
X0210502Y0225120D01*
G75*
G02*
X0209921Y0224539I-000581J0000000D01*
G01*
X0208563Y0224539D01*
G75*
G02*
X0207982Y0225120I0000000J0000581D01*
G01*
X0207982Y0226281D01*
G75*
G02*
X0208563Y0226862I0000581J0000000D01*
G01*
G37*
G36*
G01*
X0208563Y0223043D02*
X0209921Y0223043D01*
G75*
G02*
X0210502Y0222462I0000000J-000581D01*
G01*
X0210502Y0221301D01*
G75*
G02*
X0209921Y0220720I-000581J0000000D01*
G01*
X0208563Y0220720D01*
G75*
G02*
X0207982Y0221301I0000000J0000581D01*
G01*
X0207982Y0222462D01*
G75*
G02*
X0208563Y0223043I0000581J0000000D01*
G01*
G37*
G36*
G01*
X0212943Y0250779D02*
X0214301Y0250779D01*
G75*
G02*
X0214882Y0250198I0000000J-000581D01*
G01*
X0214882Y0249037D01*
G75*
G02*
X0214301Y0248456I-000581J0000000D01*
G01*
X0212943Y0248456D01*
G75*
G02*
X0212362Y0249037I0000000J0000581D01*
G01*
X0212362Y0250198D01*
G75*
G02*
X0212943Y0250779I0000581J0000000D01*
G01*
G37*
G36*
G01*
X0212943Y0246960D02*
X0214301Y0246960D01*
G75*
G02*
X0214882Y0246379I0000000J-000581D01*
G01*
X0214882Y0245218D01*
G75*
G02*
X0214301Y0244637I-000581J0000000D01*
G01*
X0212943Y0244637D01*
G75*
G02*
X0212362Y0245218I0000000J0000581D01*
G01*
X0212362Y0246379D01*
G75*
G02*
X0212943Y0246960I0000581J0000000D01*
G01*
G37*
G36*
G01*
X0209183Y0263043D02*
X0207825Y0263043D01*
G75*
G02*
X0207244Y0263624I0000000J0000581D01*
G01*
X0207244Y0264785D01*
G75*
G02*
X0207825Y0265366I0000581J0000000D01*
G01*
X0209183Y0265366D01*
G75*
G02*
X0209764Y0264785I0000000J-000581D01*
G01*
X0209764Y0263624D01*
G75*
G02*
X0209183Y0263043I-000581J0000000D01*
G01*
G37*
G36*
G01*
X0209183Y0266862D02*
X0207825Y0266862D01*
G75*
G02*
X0207244Y0267442I0000000J0000581D01*
G01*
X0207244Y0268604D01*
G75*
G02*
X0207825Y0269185I0000581J0000000D01*
G01*
X0209183Y0269185D01*
G75*
G02*
X0209764Y0268604I0000000J-000581D01*
G01*
X0209764Y0267442D01*
G75*
G02*
X0209183Y0266862I-000581J0000000D01*
G01*
G37*
G36*
G01*
X0214301Y0236271D02*
X0212943Y0236271D01*
G75*
G02*
X0212362Y0236852I0000000J0000581D01*
G01*
X0212362Y0238013D01*
G75*
G02*
X0212943Y0238594I0000581J0000000D01*
G01*
X0214301Y0238594D01*
G75*
G02*
X0214882Y0238013I0000000J-000581D01*
G01*
X0214882Y0236852D01*
G75*
G02*
X0214301Y0236271I-000581J0000000D01*
G01*
G37*
G36*
G01*
X0214301Y0240090D02*
X0212943Y0240090D01*
G75*
G02*
X0212362Y0240671I0000000J0000581D01*
G01*
X0212362Y0241832D01*
G75*
G02*
X0212943Y0242413I0000581J0000000D01*
G01*
X0214301Y0242413D01*
G75*
G02*
X0214882Y0241832I0000000J-000581D01*
G01*
X0214882Y0240671D01*
G75*
G02*
X0214301Y0240090I-000581J0000000D01*
G01*
G37*
G36*
G01*
X0174537Y0263043D02*
X0173179Y0263043D01*
G75*
G02*
X0172599Y0263624I0000000J0000581D01*
G01*
X0172599Y0264785D01*
G75*
G02*
X0173179Y0265366I0000581J0000000D01*
G01*
X0174537Y0265366D01*
G75*
G02*
X0175118Y0264785I0000000J-000581D01*
G01*
X0175118Y0263624D01*
G75*
G02*
X0174537Y0263043I-000581J0000000D01*
G01*
G37*
G36*
G01*
X0174537Y0266862D02*
X0173179Y0266862D01*
G75*
G02*
X0172599Y0267442I0000000J0000581D01*
G01*
X0172599Y0268604D01*
G75*
G02*
X0173179Y0269185I0000581J0000000D01*
G01*
X0174537Y0269185D01*
G75*
G02*
X0175118Y0268604I0000000J-000581D01*
G01*
X0175118Y0267442D01*
G75*
G02*
X0174537Y0266862I-000581J0000000D01*
G01*
G37*
D147*
X0236004Y0238161D03*
X0223996Y0238161D03*
X0236004Y0224972D03*
X0223996Y0224972D03*
D138*
X0238976Y0256370D03*
X0221024Y0256370D03*
G36*
G01*
X0163504Y0236596D02*
X0163504Y0237954D01*
G75*
G02*
X0164085Y0238535I0000581J0000000D01*
G01*
X0165246Y0238535D01*
G75*
G02*
X0165827Y0237954I0000000J-000581D01*
G01*
X0165827Y0236596D01*
G75*
G02*
X0165246Y0236015I-000581J0000000D01*
G01*
X0164085Y0236015D01*
G75*
G02*
X0163504Y0236596I0000000J0000581D01*
G01*
G37*
G36*
G01*
X0167323Y0236596D02*
X0167323Y0237954D01*
G75*
G02*
X0167904Y0238535I0000581J0000000D01*
G01*
X0169065Y0238535D01*
G75*
G02*
X0169646Y0237954I0000000J-000581D01*
G01*
X0169646Y0236596D01*
G75*
G02*
X0169065Y0236015I-000581J0000000D01*
G01*
X0167904Y0236015D01*
G75*
G02*
X0167323Y0236596I0000000J0000581D01*
G01*
G37*
G36*
G01*
X0202008Y0222930D02*
X0202008Y0220912D01*
G75*
G02*
X0201147Y0220051I-000861J0000000D01*
G01*
X0199424Y0220051D01*
G75*
G02*
X0198563Y0220912I0000000J0000861D01*
G01*
X0198563Y0222930D01*
G75*
G02*
X0199424Y0223791I0000861J0000000D01*
G01*
X0201147Y0223791D01*
G75*
G02*
X0202008Y0222930I0000000J-000861D01*
G01*
G37*
G36*
G01*
X0195807Y0222930D02*
X0195807Y0220912D01*
G75*
G02*
X0194946Y0220051I-000861J0000000D01*
G01*
X0193224Y0220051D01*
G75*
G02*
X0192362Y0220912I0000000J0000861D01*
G01*
X0192362Y0222930D01*
G75*
G02*
X0193224Y0223791I0000861J0000000D01*
G01*
X0194946Y0223791D01*
G75*
G02*
X0195807Y0222930I0000000J-000861D01*
G01*
G37*
G36*
G01*
X0204380Y0226862D02*
X0205738Y0226862D01*
G75*
G02*
X0206319Y0226281I0000000J-000581D01*
G01*
X0206319Y0225120D01*
G75*
G02*
X0205738Y0224539I-000581J0000000D01*
G01*
X0204380Y0224539D01*
G75*
G02*
X0203799Y0225120I0000000J0000581D01*
G01*
X0203799Y0226281D01*
G75*
G02*
X0204380Y0226862I0000581J0000000D01*
G01*
G37*
G36*
G01*
X0204380Y0223043D02*
X0205738Y0223043D01*
G75*
G02*
X0206319Y0222462I0000000J-000581D01*
G01*
X0206319Y0221301D01*
G75*
G02*
X0205738Y0220720I-000581J0000000D01*
G01*
X0204380Y0220720D01*
G75*
G02*
X0203799Y0221301I0000000J0000581D01*
G01*
X0203799Y0222462D01*
G75*
G02*
X0204380Y0223043I0000581J0000000D01*
G01*
G37*
G36*
G01*
X0248489Y0222315D02*
X0246472Y0222315D01*
G75*
G02*
X0245610Y0223176I0000000J0000861D01*
G01*
X0245610Y0224898D01*
G75*
G02*
X0246472Y0225759I0000861J0000000D01*
G01*
X0248489Y0225759D01*
G75*
G02*
X0249350Y0224898I0000000J-000861D01*
G01*
X0249350Y0223176D01*
G75*
G02*
X0248489Y0222315I-000861J0000000D01*
G01*
G37*
G36*
G01*
X0248489Y0228515D02*
X0246472Y0228515D01*
G75*
G02*
X0245610Y0229377I0000000J0000861D01*
G01*
X0245610Y0231099D01*
G75*
G02*
X0246472Y0231960I0000861J0000000D01*
G01*
X0248489Y0231960D01*
G75*
G02*
X0249350Y0231099I0000000J-000861D01*
G01*
X0249350Y0229377D01*
G75*
G02*
X0248489Y0228515I-000861J0000000D01*
G01*
G37*
G36*
G01*
X0180650Y0220912D02*
X0180650Y0222930D01*
G75*
G02*
X0181511Y0223791I0000861J0000000D01*
G01*
X0183233Y0223791D01*
G75*
G02*
X0184095Y0222930I0000000J-000861D01*
G01*
X0184095Y0220912D01*
G75*
G02*
X0183233Y0220051I-000861J0000000D01*
G01*
X0181511Y0220051D01*
G75*
G02*
X0180650Y0220912I0000000J0000861D01*
G01*
G37*
G36*
G01*
X0186850Y0220912D02*
X0186850Y0222930D01*
G75*
G02*
X0187712Y0223791I0000861J0000000D01*
G01*
X0189434Y0223791D01*
G75*
G02*
X0190295Y0222930I0000000J-000861D01*
G01*
X0190295Y0220912D01*
G75*
G02*
X0189434Y0220051I-000861J0000000D01*
G01*
X0187712Y0220051D01*
G75*
G02*
X0186850Y0220912I0000000J0000861D01*
G01*
G37*
G36*
G01*
X0176329Y0225090D02*
X0177687Y0225090D01*
G75*
G02*
X0178268Y0224509I0000000J-000581D01*
G01*
X0178268Y0223348D01*
G75*
G02*
X0177687Y0222767I-000581J0000000D01*
G01*
X0176329Y0222767D01*
G75*
G02*
X0175748Y0223348I0000000J0000581D01*
G01*
X0175748Y0224509D01*
G75*
G02*
X0176329Y0225090I0000581J0000000D01*
G01*
G37*
G36*
G01*
X0176329Y0221271D02*
X0177687Y0221271D01*
G75*
G02*
X0178268Y0220690I0000000J-000581D01*
G01*
X0178268Y0219529D01*
G75*
G02*
X0177687Y0218948I-000581J0000000D01*
G01*
X0176329Y0218948D01*
G75*
G02*
X0175748Y0219529I0000000J0000581D01*
G01*
X0175748Y0220690D01*
G75*
G02*
X0176329Y0221271I0000581J0000000D01*
G01*
G37*
G36*
G01*
X0210768Y0237767D02*
X0210768Y0236783D01*
G75*
G02*
X0210276Y0236291I-000492J0000000D01*
G01*
X0205354Y0236291D01*
G75*
G02*
X0204862Y0236783I0000000J0000492D01*
G01*
X0204862Y0237767D01*
G75*
G02*
X0205354Y0238259I0000492J0000000D01*
G01*
X0210276Y0238259D01*
G75*
G02*
X0210768Y0237767I0000000J-000492D01*
G01*
G37*
G36*
G01*
X0210768Y0240917D02*
X0210768Y0239933D01*
G75*
G02*
X0210276Y0239440I-000492J0000000D01*
G01*
X0205354Y0239440D01*
G75*
G02*
X0204862Y0239933I0000000J0000492D01*
G01*
X0204862Y0240917D01*
G75*
G02*
X0205354Y0241409I0000492J0000000D01*
G01*
X0210276Y0241409D01*
G75*
G02*
X0210768Y0240917I0000000J-000492D01*
G01*
G37*
G36*
G01*
X0210768Y0244066D02*
X0210768Y0243082D01*
G75*
G02*
X0210276Y0242590I-000492J0000000D01*
G01*
X0205354Y0242590D01*
G75*
G02*
X0204862Y0243082I0000000J0000492D01*
G01*
X0204862Y0244066D01*
G75*
G02*
X0205354Y0244559I0000492J0000000D01*
G01*
X0210276Y0244559D01*
G75*
G02*
X0210768Y0244066I0000000J-000492D01*
G01*
G37*
G36*
G01*
X0210768Y0247216D02*
X0210768Y0246232D01*
G75*
G02*
X0210276Y0245740I-000492J0000000D01*
G01*
X0205354Y0245740D01*
G75*
G02*
X0204862Y0246232I0000000J0000492D01*
G01*
X0204862Y0247216D01*
G75*
G02*
X0205354Y0247708I0000492J0000000D01*
G01*
X0210276Y0247708D01*
G75*
G02*
X0210768Y0247216I0000000J-000492D01*
G01*
G37*
G36*
G01*
X0210768Y0250366D02*
X0210768Y0249381D01*
G75*
G02*
X0210276Y0248889I-000492J0000000D01*
G01*
X0205354Y0248889D01*
G75*
G02*
X0204862Y0249381I0000000J0000492D01*
G01*
X0204862Y0250366D01*
G75*
G02*
X0205354Y0250858I0000492J0000000D01*
G01*
X0210276Y0250858D01*
G75*
G02*
X0210768Y0250366I0000000J-000492D01*
G01*
G37*
G36*
G01*
X0210768Y0253515D02*
X0210768Y0252531D01*
G75*
G02*
X0210276Y0252039I-000492J0000000D01*
G01*
X0205354Y0252039D01*
G75*
G02*
X0204862Y0252531I0000000J0000492D01*
G01*
X0204862Y0253515D01*
G75*
G02*
X0205354Y0254007I0000492J0000000D01*
G01*
X0210276Y0254007D01*
G75*
G02*
X0210768Y0253515I0000000J-000492D01*
G01*
G37*
G36*
G01*
X0210768Y0256665D02*
X0210768Y0255681D01*
G75*
G02*
X0210276Y0255189I-000492J0000000D01*
G01*
X0205354Y0255189D01*
G75*
G02*
X0204862Y0255681I0000000J0000492D01*
G01*
X0204862Y0256665D01*
G75*
G02*
X0205354Y0257157I0000492J0000000D01*
G01*
X0210276Y0257157D01*
G75*
G02*
X0210768Y0256665I0000000J-000492D01*
G01*
G37*
G36*
G01*
X0210768Y0259815D02*
X0210768Y0258830D01*
G75*
G02*
X0210276Y0258338I-000492J0000000D01*
G01*
X0205354Y0258338D01*
G75*
G02*
X0204862Y0258830I0000000J0000492D01*
G01*
X0204862Y0259815D01*
G75*
G02*
X0205354Y0260307I0000492J0000000D01*
G01*
X0210276Y0260307D01*
G75*
G02*
X0210768Y0259815I0000000J-000492D01*
G01*
G37*
G36*
G01*
X0203386Y0267196D02*
X0203386Y0262275D01*
G75*
G02*
X0202894Y0261783I-000492J0000000D01*
G01*
X0201910Y0261783D01*
G75*
G02*
X0201417Y0262275I0000000J0000492D01*
G01*
X0201417Y0267196D01*
G75*
G02*
X0201910Y0267689I0000492J0000000D01*
G01*
X0202894Y0267689D01*
G75*
G02*
X0203386Y0267196I0000000J-000492D01*
G01*
G37*
G36*
G01*
X0200236Y0267196D02*
X0200236Y0262275D01*
G75*
G02*
X0199744Y0261783I-000492J0000000D01*
G01*
X0198760Y0261783D01*
G75*
G02*
X0198268Y0262275I0000000J0000492D01*
G01*
X0198268Y0267196D01*
G75*
G02*
X0198760Y0267689I0000492J0000000D01*
G01*
X0199744Y0267689D01*
G75*
G02*
X0200236Y0267196I0000000J-000492D01*
G01*
G37*
G36*
G01*
X0197087Y0267196D02*
X0197087Y0262275D01*
G75*
G02*
X0196595Y0261783I-000492J0000000D01*
G01*
X0195610Y0261783D01*
G75*
G02*
X0195118Y0262275I0000000J0000492D01*
G01*
X0195118Y0267196D01*
G75*
G02*
X0195610Y0267689I0000492J0000000D01*
G01*
X0196595Y0267689D01*
G75*
G02*
X0197087Y0267196I0000000J-000492D01*
G01*
G37*
G36*
G01*
X0193937Y0267196D02*
X0193937Y0262275D01*
G75*
G02*
X0193445Y0261783I-000492J0000000D01*
G01*
X0192461Y0261783D01*
G75*
G02*
X0191969Y0262275I0000000J0000492D01*
G01*
X0191969Y0267196D01*
G75*
G02*
X0192461Y0267689I0000492J0000000D01*
G01*
X0193445Y0267689D01*
G75*
G02*
X0193937Y0267196I0000000J-000492D01*
G01*
G37*
G36*
G01*
X0190787Y0267196D02*
X0190787Y0262275D01*
G75*
G02*
X0190295Y0261783I-000492J0000000D01*
G01*
X0189311Y0261783D01*
G75*
G02*
X0188819Y0262275I0000000J0000492D01*
G01*
X0188819Y0267196D01*
G75*
G02*
X0189311Y0267689I0000492J0000000D01*
G01*
X0190295Y0267689D01*
G75*
G02*
X0190787Y0267196I0000000J-000492D01*
G01*
G37*
G36*
G01*
X0187638Y0267196D02*
X0187638Y0262275D01*
G75*
G02*
X0187146Y0261783I-000492J0000000D01*
G01*
X0186162Y0261783D01*
G75*
G02*
X0185669Y0262275I0000000J0000492D01*
G01*
X0185669Y0267196D01*
G75*
G02*
X0186162Y0267689I0000492J0000000D01*
G01*
X0187146Y0267689D01*
G75*
G02*
X0187638Y0267196I0000000J-000492D01*
G01*
G37*
G36*
G01*
X0184488Y0267196D02*
X0184488Y0262275D01*
G75*
G02*
X0183996Y0261783I-000492J0000000D01*
G01*
X0183012Y0261783D01*
G75*
G02*
X0182520Y0262275I0000000J0000492D01*
G01*
X0182520Y0267196D01*
G75*
G02*
X0183012Y0267689I0000492J0000000D01*
G01*
X0183996Y0267689D01*
G75*
G02*
X0184488Y0267196I0000000J-000492D01*
G01*
G37*
G36*
G01*
X0181339Y0267196D02*
X0181339Y0262275D01*
G75*
G02*
X0180847Y0261783I-000492J0000000D01*
G01*
X0179862Y0261783D01*
G75*
G02*
X0179370Y0262275I0000000J0000492D01*
G01*
X0179370Y0267196D01*
G75*
G02*
X0179862Y0267689I0000492J0000000D01*
G01*
X0180847Y0267689D01*
G75*
G02*
X0181339Y0267196I0000000J-000492D01*
G01*
G37*
G36*
G01*
X0177894Y0259815D02*
X0177894Y0258830D01*
G75*
G02*
X0177402Y0258338I-000492J0000000D01*
G01*
X0172480Y0258338D01*
G75*
G02*
X0171988Y0258830I0000000J0000492D01*
G01*
X0171988Y0259815D01*
G75*
G02*
X0172480Y0260307I0000492J0000000D01*
G01*
X0177402Y0260307D01*
G75*
G02*
X0177894Y0259815I0000000J-000492D01*
G01*
G37*
G36*
G01*
X0177894Y0256665D02*
X0177894Y0255681D01*
G75*
G02*
X0177402Y0255189I-000492J0000000D01*
G01*
X0172480Y0255189D01*
G75*
G02*
X0171988Y0255681I0000000J0000492D01*
G01*
X0171988Y0256665D01*
G75*
G02*
X0172480Y0257157I0000492J0000000D01*
G01*
X0177402Y0257157D01*
G75*
G02*
X0177894Y0256665I0000000J-000492D01*
G01*
G37*
G36*
G01*
X0177894Y0253515D02*
X0177894Y0252531D01*
G75*
G02*
X0177402Y0252039I-000492J0000000D01*
G01*
X0172480Y0252039D01*
G75*
G02*
X0171988Y0252531I0000000J0000492D01*
G01*
X0171988Y0253515D01*
G75*
G02*
X0172480Y0254007I0000492J0000000D01*
G01*
X0177402Y0254007D01*
G75*
G02*
X0177894Y0253515I0000000J-000492D01*
G01*
G37*
G36*
G01*
X0177894Y0250366D02*
X0177894Y0249381D01*
G75*
G02*
X0177402Y0248889I-000492J0000000D01*
G01*
X0172480Y0248889D01*
G75*
G02*
X0171988Y0249381I0000000J0000492D01*
G01*
X0171988Y0250366D01*
G75*
G02*
X0172480Y0250858I0000492J0000000D01*
G01*
X0177402Y0250858D01*
G75*
G02*
X0177894Y0250366I0000000J-000492D01*
G01*
G37*
G36*
G01*
X0177894Y0247216D02*
X0177894Y0246232D01*
G75*
G02*
X0177402Y0245740I-000492J0000000D01*
G01*
X0172480Y0245740D01*
G75*
G02*
X0171988Y0246232I0000000J0000492D01*
G01*
X0171988Y0247216D01*
G75*
G02*
X0172480Y0247708I0000492J0000000D01*
G01*
X0177402Y0247708D01*
G75*
G02*
X0177894Y0247216I0000000J-000492D01*
G01*
G37*
G36*
G01*
X0177894Y0244066D02*
X0177894Y0243082D01*
G75*
G02*
X0177402Y0242590I-000492J0000000D01*
G01*
X0172480Y0242590D01*
G75*
G02*
X0171988Y0243082I0000000J0000492D01*
G01*
X0171988Y0244066D01*
G75*
G02*
X0172480Y0244559I0000492J0000000D01*
G01*
X0177402Y0244559D01*
G75*
G02*
X0177894Y0244066I0000000J-000492D01*
G01*
G37*
G36*
G01*
X0177894Y0240917D02*
X0177894Y0239933D01*
G75*
G02*
X0177402Y0239440I-000492J0000000D01*
G01*
X0172480Y0239440D01*
G75*
G02*
X0171988Y0239933I0000000J0000492D01*
G01*
X0171988Y0240917D01*
G75*
G02*
X0172480Y0241409I0000492J0000000D01*
G01*
X0177402Y0241409D01*
G75*
G02*
X0177894Y0240917I0000000J-000492D01*
G01*
G37*
G36*
G01*
X0177894Y0237767D02*
X0177894Y0236783D01*
G75*
G02*
X0177402Y0236291I-000492J0000000D01*
G01*
X0172480Y0236291D01*
G75*
G02*
X0171988Y0236783I0000000J0000492D01*
G01*
X0171988Y0237767D01*
G75*
G02*
X0172480Y0238259I0000492J0000000D01*
G01*
X0177402Y0238259D01*
G75*
G02*
X0177894Y0237767I0000000J-000492D01*
G01*
G37*
G36*
G01*
X0181339Y0234322D02*
X0181339Y0229401D01*
G75*
G02*
X0180847Y0228909I-000492J0000000D01*
G01*
X0179862Y0228909D01*
G75*
G02*
X0179370Y0229401I0000000J0000492D01*
G01*
X0179370Y0234322D01*
G75*
G02*
X0179862Y0234815I0000492J0000000D01*
G01*
X0180847Y0234815D01*
G75*
G02*
X0181339Y0234322I0000000J-000492D01*
G01*
G37*
G36*
G01*
X0184488Y0234322D02*
X0184488Y0229401D01*
G75*
G02*
X0183996Y0228909I-000492J0000000D01*
G01*
X0183012Y0228909D01*
G75*
G02*
X0182520Y0229401I0000000J0000492D01*
G01*
X0182520Y0234322D01*
G75*
G02*
X0183012Y0234815I0000492J0000000D01*
G01*
X0183996Y0234815D01*
G75*
G02*
X0184488Y0234322I0000000J-000492D01*
G01*
G37*
G36*
G01*
X0187638Y0234322D02*
X0187638Y0229401D01*
G75*
G02*
X0187146Y0228909I-000492J0000000D01*
G01*
X0186162Y0228909D01*
G75*
G02*
X0185669Y0229401I0000000J0000492D01*
G01*
X0185669Y0234322D01*
G75*
G02*
X0186162Y0234815I0000492J0000000D01*
G01*
X0187146Y0234815D01*
G75*
G02*
X0187638Y0234322I0000000J-000492D01*
G01*
G37*
G36*
G01*
X0190787Y0234322D02*
X0190787Y0229401D01*
G75*
G02*
X0190295Y0228909I-000492J0000000D01*
G01*
X0189311Y0228909D01*
G75*
G02*
X0188819Y0229401I0000000J0000492D01*
G01*
X0188819Y0234322D01*
G75*
G02*
X0189311Y0234815I0000492J0000000D01*
G01*
X0190295Y0234815D01*
G75*
G02*
X0190787Y0234322I0000000J-000492D01*
G01*
G37*
G36*
G01*
X0193937Y0234322D02*
X0193937Y0229401D01*
G75*
G02*
X0193445Y0228909I-000492J0000000D01*
G01*
X0192461Y0228909D01*
G75*
G02*
X0191969Y0229401I0000000J0000492D01*
G01*
X0191969Y0234322D01*
G75*
G02*
X0192461Y0234815I0000492J0000000D01*
G01*
X0193445Y0234815D01*
G75*
G02*
X0193937Y0234322I0000000J-000492D01*
G01*
G37*
G36*
G01*
X0197087Y0234322D02*
X0197087Y0229401D01*
G75*
G02*
X0196595Y0228909I-000492J0000000D01*
G01*
X0195610Y0228909D01*
G75*
G02*
X0195118Y0229401I0000000J0000492D01*
G01*
X0195118Y0234322D01*
G75*
G02*
X0195610Y0234815I0000492J0000000D01*
G01*
X0196595Y0234815D01*
G75*
G02*
X0197087Y0234322I0000000J-000492D01*
G01*
G37*
G36*
G01*
X0200236Y0234322D02*
X0200236Y0229401D01*
G75*
G02*
X0199744Y0228909I-000492J0000000D01*
G01*
X0198760Y0228909D01*
G75*
G02*
X0198268Y0229401I0000000J0000492D01*
G01*
X0198268Y0234322D01*
G75*
G02*
X0198760Y0234815I0000492J0000000D01*
G01*
X0199744Y0234815D01*
G75*
G02*
X0200236Y0234322I0000000J-000492D01*
G01*
G37*
G36*
G01*
X0203386Y0234322D02*
X0203386Y0229401D01*
G75*
G02*
X0202894Y0228909I-000492J0000000D01*
G01*
X0201910Y0228909D01*
G75*
G02*
X0201417Y0229401I0000000J0000492D01*
G01*
X0201417Y0234322D01*
G75*
G02*
X0201910Y0234815I0000492J0000000D01*
G01*
X0202894Y0234815D01*
G75*
G02*
X0203386Y0234322I0000000J-000492D01*
G01*
G37*
G36*
G01*
X0168760Y0255868D02*
X0168760Y0254509D01*
G75*
G02*
X0168179Y0253929I-000581J0000000D01*
G01*
X0167018Y0253929D01*
G75*
G02*
X0166437Y0254509I0000000J0000581D01*
G01*
X0166437Y0255868D01*
G75*
G02*
X0167018Y0256448I0000581J0000000D01*
G01*
X0168179Y0256448D01*
G75*
G02*
X0168760Y0255868I0000000J-000581D01*
G01*
G37*
G36*
G01*
X0164941Y0255868D02*
X0164941Y0254509D01*
G75*
G02*
X0164360Y0253929I-000581J0000000D01*
G01*
X0163199Y0253929D01*
G75*
G02*
X0162618Y0254509I0000000J0000581D01*
G01*
X0162618Y0255868D01*
G75*
G02*
X0163199Y0256448I0000581J0000000D01*
G01*
X0164360Y0256448D01*
G75*
G02*
X0164941Y0255868I0000000J-000581D01*
G01*
G37*
G36*
G01*
X0175837Y0232472D02*
X0177195Y0232472D01*
G75*
G02*
X0177776Y0231891I0000000J-000581D01*
G01*
X0177776Y0230730D01*
G75*
G02*
X0177195Y0230149I-000581J0000000D01*
G01*
X0175837Y0230149D01*
G75*
G02*
X0175256Y0230730I0000000J0000581D01*
G01*
X0175256Y0231891D01*
G75*
G02*
X0175837Y0232472I0000581J0000000D01*
G01*
G37*
G36*
G01*
X0175837Y0228653D02*
X0177195Y0228653D01*
G75*
G02*
X0177776Y0228072I0000000J-000581D01*
G01*
X0177776Y0226911D01*
G75*
G02*
X0177195Y0226330I-000581J0000000D01*
G01*
X0175837Y0226330D01*
G75*
G02*
X0175256Y0226911I0000000J0000581D01*
G01*
X0175256Y0228072D01*
G75*
G02*
X0175837Y0228653I0000581J0000000D01*
G01*
G37*
G36*
G01*
X0152193Y0254509D02*
X0152193Y0255868D01*
G75*
G02*
X0152774Y0256448I0000581J0000000D01*
G01*
X0153935Y0256448D01*
G75*
G02*
X0154516Y0255868I0000000J-000581D01*
G01*
X0154516Y0254509D01*
G75*
G02*
X0153935Y0253929I-000581J0000000D01*
G01*
X0152774Y0253929D01*
G75*
G02*
X0152193Y0254509I0000000J0000581D01*
G01*
G37*
G36*
G01*
X0156012Y0254509D02*
X0156012Y0255868D01*
G75*
G02*
X0156593Y0256448I0000581J0000000D01*
G01*
X0157754Y0256448D01*
G75*
G02*
X0158335Y0255868I0000000J-000581D01*
G01*
X0158335Y0254509D01*
G75*
G02*
X0157754Y0253929I-000581J0000000D01*
G01*
X0156593Y0253929D01*
G75*
G02*
X0156012Y0254509I0000000J0000581D01*
G01*
G37*
D141*
X0153681Y0260110D03*
X0161162Y0260110D03*
X0157421Y0267984D03*
G36*
G01*
X0212746Y0234342D02*
X0214104Y0234342D01*
G75*
G02*
X0214685Y0233761I0000000J-000581D01*
G01*
X0214685Y0232600D01*
G75*
G02*
X0214104Y0232019I-000581J0000000D01*
G01*
X0212746Y0232019D01*
G75*
G02*
X0212165Y0232600I0000000J0000581D01*
G01*
X0212165Y0233761D01*
G75*
G02*
X0212746Y0234342I0000581J0000000D01*
G01*
G37*
G36*
G01*
X0212746Y0230523D02*
X0214104Y0230523D01*
G75*
G02*
X0214685Y0229942I0000000J-000581D01*
G01*
X0214685Y0228781D01*
G75*
G02*
X0214104Y0228200I-000581J0000000D01*
G01*
X0212746Y0228200D01*
G75*
G02*
X0212165Y0228781I0000000J0000581D01*
G01*
X0212165Y0229942D01*
G75*
G02*
X0212746Y0230523I0000581J0000000D01*
G01*
G37*
G36*
G01*
X0166619Y0269381D02*
X0168637Y0269381D01*
G75*
G02*
X0169498Y0268520I0000000J-000861D01*
G01*
X0169498Y0266798D01*
G75*
G02*
X0168637Y0265937I-000861J0000000D01*
G01*
X0166619Y0265937D01*
G75*
G02*
X0165758Y0266798I0000000J0000861D01*
G01*
X0165758Y0268520D01*
G75*
G02*
X0166619Y0269381I0000861J0000000D01*
G01*
G37*
G36*
G01*
X0166619Y0263181D02*
X0168637Y0263181D01*
G75*
G02*
X0169498Y0262319I0000000J-000861D01*
G01*
X0169498Y0260597D01*
G75*
G02*
X0168637Y0259736I-000861J0000000D01*
G01*
X0166619Y0259736D01*
G75*
G02*
X0165758Y0260597I0000000J0000861D01*
G01*
X0165758Y0262319D01*
G75*
G02*
X0166619Y0263181I0000861J0000000D01*
G01*
G37*
X0146693Y0276842D02*
G01*
G75*
D44*
X0200040Y0418181D02*
D03*
D43*
X0186260Y0418181D02*
D03*
D46*
X0280158Y0312078D02*
D03*
D41*
X0238425Y0418181D02*
D03*
X0154173Y0277236D02*
D03*
D42*
X0267953Y0277236D02*
D03*
X0162441Y0418181D02*
D03*
D39*
X0147087Y0312866D02*
D03*
D40*
X0147087Y0281370D02*
D03*
D38*
X0147087Y0366606D02*
D03*
D47*
X0280158Y0289244D02*
D03*
D45*
X0280158Y0404795D02*
D03*
D36*
X0147087Y0384125D02*
D03*
X0147087Y0408141D02*
D03*
D37*
X0147087Y0396133D02*
D03*
X0280158Y0370543D02*
D03*
D150*
X0270315Y0294932D02*
D03*
X0277402Y0294932D02*
D03*
X0277402Y0284893D02*
D03*
X0270315Y0284893D02*
D03*
X0158504Y0343673D02*
D03*
X0151417Y0343673D02*
D03*
X0151417Y0333633D02*
D03*
X0158504Y0333633D02*
D03*
X0158504Y0349775D02*
D03*
X0151417Y0349775D02*
D03*
X0151417Y0359815D02*
D03*
X0158504Y0359815D02*
D03*
D151*
X0270315Y0291488D02*
D03*
X0270315Y0288338D02*
D03*
X0277402Y0288338D02*
D03*
X0277402Y0291488D02*
D03*
X0151417Y0337078D02*
D03*
X0151417Y0340228D02*
D03*
X0158504Y0340228D02*
D03*
X0158504Y0337078D02*
D03*
X0158504Y0353220D02*
D03*
X0158504Y0356370D02*
D03*
X0151417Y0356370D02*
D03*
X0151417Y0353220D02*
D03*
D152*
X0266103Y0291936D02*
D03*
X0266103Y0294495D02*
D03*
X0266103Y0297055D02*
D03*
X0258623Y0291936D02*
D03*
X0258623Y0297055D02*
D03*
X0258623Y0294495D02*
D03*
X0258623Y0287311D02*
D03*
X0258623Y0282192D02*
D03*
X0266103Y0287311D02*
D03*
X0266103Y0284751D02*
D03*
X0266103Y0282192D02*
D03*
X0258623Y0284751D02*
D03*
D153*
X0198895Y0391212D02*
D03*
X0198895Y0389244D02*
D03*
X0198895Y0387275D02*
D03*
X0198895Y0385307D02*
D03*
X0198895Y0383338D02*
D03*
X0198895Y0381370D02*
D03*
X0198895Y0379401D02*
D03*
X0198895Y0377433D02*
D03*
X0198895Y0375464D02*
D03*
X0198895Y0371527D02*
D03*
X0198895Y0369558D02*
D03*
X0198895Y0367590D02*
D03*
X0198895Y0365621D02*
D03*
X0198895Y0363653D02*
D03*
X0198895Y0361684D02*
D03*
X0198895Y0359716D02*
D03*
X0198895Y0357747D02*
D03*
X0198895Y0355779D02*
D03*
X0198895Y0353810D02*
D03*
X0198895Y0351842D02*
D03*
X0198895Y0349874D02*
D03*
X0198895Y0347905D02*
D03*
X0198895Y0345937D02*
D03*
X0198895Y0343968D02*
D03*
X0259919Y0343968D02*
D03*
X0259919Y0345937D02*
D03*
X0259919Y0347905D02*
D03*
X0259919Y0349874D02*
D03*
X0259919Y0351842D02*
D03*
X0259919Y0353810D02*
D03*
X0259919Y0355779D02*
D03*
X0259919Y0357747D02*
D03*
X0259919Y0359716D02*
D03*
X0259919Y0361684D02*
D03*
X0259919Y0363653D02*
D03*
X0259919Y0365621D02*
D03*
X0259919Y0367590D02*
D03*
X0259919Y0369558D02*
D03*
X0259919Y0371527D02*
D03*
X0259919Y0373495D02*
D03*
X0259919Y0375464D02*
D03*
X0259919Y0377433D02*
D03*
X0259919Y0379401D02*
D03*
X0259919Y0381370D02*
D03*
X0259919Y0383338D02*
D03*
X0259919Y0385307D02*
D03*
X0259919Y0387275D02*
D03*
X0259919Y0391212D02*
D03*
X0198895Y0373495D02*
D03*
X0259919Y0389244D02*
D03*
D154*
X0205785Y0337078D02*
D03*
X0209722Y0337078D02*
D03*
X0211691Y0337078D02*
D03*
X0213659Y0337078D02*
D03*
X0215628Y0337078D02*
D03*
X0217596Y0337078D02*
D03*
X0219565Y0337078D02*
D03*
X0221533Y0337078D02*
D03*
X0223502Y0337078D02*
D03*
X0225470Y0337078D02*
D03*
X0227439Y0337078D02*
D03*
X0229407Y0337078D02*
D03*
X0231376Y0337078D02*
D03*
X0233344Y0337078D02*
D03*
X0235313Y0337078D02*
D03*
X0237281Y0337078D02*
D03*
X0239250Y0337078D02*
D03*
X0241218Y0337078D02*
D03*
X0243187Y0337078D02*
D03*
X0245155Y0337078D02*
D03*
X0247124Y0337078D02*
D03*
X0249092Y0337078D02*
D03*
X0251061Y0337078D02*
D03*
X0253029Y0337078D02*
D03*
X0253029Y0398102D02*
D03*
X0251061Y0398102D02*
D03*
X0249092Y0398102D02*
D03*
X0247124Y0398102D02*
D03*
X0245155Y0398102D02*
D03*
X0243187Y0398102D02*
D03*
X0241218Y0398102D02*
D03*
X0239250Y0398102D02*
D03*
X0237281Y0398102D02*
D03*
X0235313Y0398102D02*
D03*
X0233344Y0398102D02*
D03*
X0231376Y0398102D02*
D03*
X0229407Y0398102D02*
D03*
X0227439Y0398102D02*
D03*
X0225470Y0398102D02*
D03*
X0223502Y0398102D02*
D03*
X0221533Y0398102D02*
D03*
X0219565Y0398102D02*
D03*
X0217596Y0398102D02*
D03*
X0215628Y0398102D02*
D03*
X0213659Y0398102D02*
D03*
X0211691Y0398102D02*
D03*
X0209722Y0398102D02*
D03*
X0207754Y0398102D02*
D03*
X0205785Y0398102D02*
D03*
X0207754Y0337078D02*
D03*
D155*
X0202402Y0320149D02*
D03*
X0230354Y0320149D02*
D03*
X0174449Y0320149D02*
D03*
X0179961Y0315031D02*
D03*
X0207914Y0325267D02*
D03*
X0207914Y0322708D02*
D03*
X0207914Y0320149D02*
D03*
X0207914Y0317590D02*
D03*
X0207914Y0315031D02*
D03*
X0207914Y0312472D02*
D03*
X0207914Y0309913D02*
D03*
X0230354Y0325267D02*
D03*
X0230354Y0322708D02*
D03*
X0230354Y0317590D02*
D03*
X0230354Y0315031D02*
D03*
X0230354Y0312472D02*
D03*
X0230354Y0309913D02*
D03*
X0152008Y0325267D02*
D03*
X0152008Y0322708D02*
D03*
X0152008Y0320149D02*
D03*
X0152008Y0317590D02*
D03*
X0152008Y0315031D02*
D03*
X0152008Y0312472D02*
D03*
X0152008Y0309913D02*
D03*
X0174449Y0325267D02*
D03*
X0174449Y0322708D02*
D03*
X0174449Y0317590D02*
D03*
X0174449Y0315031D02*
D03*
X0174449Y0312472D02*
D03*
X0174449Y0309913D02*
D03*
X0179961Y0325267D02*
D03*
X0179961Y0322708D02*
D03*
X0179961Y0320149D02*
D03*
X0179961Y0317590D02*
D03*
X0179961Y0312472D02*
D03*
X0179961Y0309913D02*
D03*
X0202402Y0325267D02*
D03*
X0202402Y0322708D02*
D03*
X0202402Y0317590D02*
D03*
X0202402Y0315031D02*
D03*
X0202402Y0312472D02*
D03*
X0202402Y0309913D02*
D03*
X0258307Y0309913D02*
D03*
X0258307Y0312472D02*
D03*
X0258307Y0315031D02*
D03*
X0258307Y0317590D02*
D03*
X0258307Y0320149D02*
D03*
X0258307Y0322708D02*
D03*
X0258307Y0325267D02*
D03*
X0235866Y0309913D02*
D03*
X0235866Y0312472D02*
D03*
X0235866Y0315031D02*
D03*
X0235866Y0317590D02*
D03*
X0235866Y0320149D02*
D03*
X0235866Y0322708D02*
D03*
X0235866Y0325267D02*
D03*
D156*
X0271102Y0412275D02*
D03*
X0274843Y0412275D02*
D03*
X0267362Y0412275D02*
D03*
X0267362Y0402826D02*
D03*
X0271102Y0402826D02*
D03*
X0274843Y0402826D02*
D03*
D157*
X0272552Y0391015D02*
D03*
X0272552Y0395740D02*
D03*
X0271083Y0381468D02*
D03*
X0184543Y0408253D02*
D03*
X0197855Y0332387D02*
D03*
X0268616Y0391015D02*
D03*
X0275021Y0381468D02*
D03*
X0269721Y0344484D02*
D03*
X0273658Y0344484D02*
D03*
X0269721Y0335429D02*
D03*
X0273658Y0335429D02*
D03*
X0268616Y0395740D02*
D03*
X0188480Y0408253D02*
D03*
X0181403Y0391538D02*
D03*
X0185340Y0391538D02*
D03*
X0201792Y0332387D02*
D03*
X0201811Y0336683D02*
D03*
X0197874Y0336683D02*
D03*
D158*
X0275009Y0372833D02*
D03*
X0275009Y0370865D02*
D03*
X0268710Y0374802D02*
D03*
X0268710Y0372833D02*
D03*
X0268710Y0376770D02*
D03*
X0268710Y0370865D02*
D03*
X0275009Y0376770D02*
D03*
X0275009Y0374802D02*
D03*
D159*
X0272844Y0370668D02*
D03*
X0270875Y0370668D02*
D03*
X0270875Y0376967D02*
D03*
X0272844Y0376967D02*
D03*
D160*
X0270104Y0365818D02*
D03*
X0270104Y0349283D02*
D03*
D161*
X0241575Y0293377D02*
D03*
X0251024Y0293377D02*
D03*
X0246299Y0293377D02*
D03*
X0236851Y0293377D02*
D03*
X0251024Y0281960D02*
D03*
X0241575Y0281960D02*
D03*
X0246299Y0281960D02*
D03*
X0236851Y0281960D02*
D03*
X0230641Y0300357D02*
D03*
X0230641Y0304294D02*
D03*
X0236851Y0285897D02*
D03*
D03*
X0236851Y0289834D02*
D03*
X0241575Y0285897D02*
D03*
X0241575Y0289834D02*
D03*
X0236851Y0297314D02*
D03*
X0246299Y0285897D02*
D03*
X0246299Y0289834D02*
D03*
X0241575Y0297314D02*
D03*
X0246299Y0297314D02*
D03*
X0251024Y0285897D02*
D03*
X0251024Y0289834D02*
D03*
X0251024Y0285897D02*
D03*
X0251024Y0297314D02*
D03*
X0241575Y0285897D02*
D03*
X0246299Y0285897D02*
D03*
X0150827Y0288259D02*
D03*
X0150827Y0284322D02*
D03*
X0175433Y0285897D02*
D03*
X0175433Y0281960D02*
D03*
X0189606Y0285897D02*
D03*
X0189606Y0281960D02*
D03*
X0208504Y0289834D02*
D03*
X0208504Y0285897D02*
D03*
X0208504Y0281960D02*
D03*
X0208504Y0285897D02*
D03*
X0222677Y0289834D02*
D03*
X0222677Y0285897D02*
D03*
X0150827Y0304992D02*
D03*
X0150827Y0301055D02*
D03*
X0156536Y0285897D02*
D03*
X0156536Y0289834D02*
D03*
X0161260Y0285897D02*
D03*
X0161260Y0289834D02*
D03*
X0165984Y0285897D02*
D03*
X0165984Y0289834D02*
D03*
X0170709Y0285897D02*
D03*
X0170709Y0289834D02*
D03*
X0156536Y0285897D02*
D03*
X0156536Y0281960D02*
D03*
X0161260Y0285897D02*
D03*
X0161260Y0281960D02*
D03*
X0165984Y0285897D02*
D03*
X0165984Y0281960D02*
D03*
X0170709Y0285897D02*
D03*
X0170709Y0281960D02*
D03*
X0175433Y0285897D02*
D03*
X0175433Y0289834D02*
D03*
X0180158Y0285897D02*
D03*
X0180158Y0289834D02*
D03*
X0184882Y0285897D02*
D03*
X0184882Y0289834D02*
D03*
X0189606Y0285897D02*
D03*
X0189606Y0289834D02*
D03*
X0180158Y0285897D02*
D03*
X0180158Y0281960D02*
D03*
X0184882Y0285897D02*
D03*
X0184882Y0281960D02*
D03*
X0194331Y0289834D02*
D03*
X0194331Y0285897D02*
D03*
X0199055Y0289834D02*
D03*
X0199055Y0285897D02*
D03*
X0203780Y0289834D02*
D03*
X0203780Y0285897D02*
D03*
X0194331Y0281960D02*
D03*
X0194331Y0285897D02*
D03*
X0199055Y0281960D02*
D03*
X0199055Y0285897D02*
D03*
X0203780Y0281960D02*
D03*
X0203780Y0285897D02*
D03*
X0213229Y0289834D02*
D03*
X0213229Y0285897D02*
D03*
X0217953Y0289834D02*
D03*
X0217953Y0285897D02*
D03*
X0227402Y0289834D02*
D03*
X0227402Y0285897D02*
D03*
X0213229Y0281960D02*
D03*
X0213229Y0285897D02*
D03*
X0217953Y0281960D02*
D03*
X0217953Y0285897D02*
D03*
X0222677Y0281960D02*
D03*
X0222677Y0285897D02*
D03*
X0227402Y0281960D02*
D03*
X0227402Y0285897D02*
D03*
X0150827Y0295936D02*
D03*
X0150827Y0291999D02*
D03*
D162*
X0215591Y0298889D02*
D03*
X0196693Y0298889D02*
D03*
X0177795Y0298889D02*
D03*
X0158898Y0298889D02*
D03*
X0187244Y0302629D02*
D03*
X0187244Y0298889D02*
D03*
X0187244Y0295149D02*
D03*
X0177795Y0295149D02*
D03*
X0177795Y0302629D02*
D03*
X0168347Y0302629D02*
D03*
X0168347Y0298889D02*
D03*
X0168347Y0295149D02*
D03*
X0158898Y0295149D02*
D03*
X0158898Y0302629D02*
D03*
X0206142Y0302629D02*
D03*
X0206142Y0298889D02*
D03*
X0206142Y0295149D02*
D03*
X0196693Y0295149D02*
D03*
X0196693Y0302629D02*
D03*
X0225040Y0302629D02*
D03*
X0225040Y0298889D02*
D03*
X0225040Y0295149D02*
D03*
X0215591Y0295149D02*
D03*
X0215591Y0302629D02*
D03*
D163*
X0181606Y0395924D02*
D03*
X0199528Y0406173D02*
D03*
D164*
X0172284Y0370801D02*
D03*
X0153386Y0365801D02*
D03*
X0153386Y0380801D02*
D03*
X0153386Y0375801D02*
D03*
X0153386Y0370801D02*
D03*
X0172284Y0380801D02*
D03*
X0172284Y0375801D02*
D03*
X0172284Y0365801D02*
D03*
D165*
X0153976Y0388442D02*
D03*
X0172087Y0388442D02*
D03*
D166*
X0188438Y0356916D02*
D03*
X0172229Y0356368D02*
D03*
X0188915Y0348756D02*
D03*
X0188915Y0341145D02*
D03*
X0172229Y0348756D02*
D03*
X0172229Y0341145D02*
D03*
X0188915Y0333533D02*
D03*
X0172229Y0333533D02*
D03*
X0181745Y0356916D02*
D03*
X0182222Y0348756D02*
D03*
X0182222Y0341145D02*
D03*
X0182222Y0333533D02*
D03*
X0165536Y0348756D02*
D03*
X0165536Y0356368D02*
D03*
X0181745Y0364893D02*
D03*
X0188438Y0364893D02*
D03*
X0188438Y0371980D02*
D03*
X0181745Y0371980D02*
D03*
X0181745Y0379066D02*
D03*
X0188438Y0379066D02*
D03*
X0188438Y0386153D02*
D03*
X0181745Y0386153D02*
D03*
X0165536Y0341145D02*
D03*
X0165536Y0333533D02*
D03*
X0188438Y0413653D02*
D03*
X0181745Y0413653D02*
D03*
D167*
X0275112Y0386240D02*
D03*
X0268812Y0386240D02*
D03*
X0267752Y0339799D02*
D03*
X0274052Y0339799D02*
D03*
D168*
X0234487Y0409182D02*
D03*
X0217952Y0409182D02*
D03*
D163*
X0199528Y0413653D02*
D03*
X0208780Y0409913D02*
D03*
X0181606Y0403404D02*
D03*
X0190858Y0399664D02*
D03*
D169*
X0163032Y0412852D02*
D03*
D170*
X0163032Y0388442D02*
D03*
D100*
X0232323Y0285897D02*
D03*
X0151417Y0279992D02*
D03*
D171*
X0269514Y0303639D02*
D03*
X0269514Y0321355D02*
D03*
X0332520Y0244020D02*
G01*
G75*
D207*
X0343937Y0257032D02*
D03*
X0340197Y0247780D02*
D03*
D207*
X0336457Y0257032D02*
D03*
D164*
X0351496Y0268646D02*
D03*
X0351496Y0263646D02*
D03*
X0351496Y0258646D02*
D03*
X0351496Y0253646D02*
D03*
X0370394Y0268646D02*
D03*
X0370394Y0263646D02*
D03*
X0370394Y0258646D02*
D03*
X0370394Y0253646D02*
D03*
D94*
X0367205Y0248351D02*
D03*
X0373425Y0248351D02*
D03*
X0358859Y0248351D02*
D03*
X0352638Y0248351D02*
D03*
D237*
X0337047Y0261933D02*
D03*
X0343347Y0261933D02*
D03*
D14*
X0347677Y0245890D02*
D03*
X0285472Y0292196D02*
%LPD*%
G01*
D247*
X0309429Y0322629D03*
X0309429Y0316881D03*
X0309429Y0311133D03*
X0309429Y0305385D03*
X0309429Y0299637D03*
X0318287Y0322629D03*
X0318287Y0316881D03*
X0318287Y0311133D03*
X0318287Y0305385D03*
X0318287Y0299637D03*
D245*
X0294960Y0320976D03*
X0294960Y0317039D03*
X0294960Y0313102D03*
X0294960Y0309165D03*
X0294960Y0305227D03*
X0294960Y0301290D03*
X0332755Y0301290D03*
X0332755Y0305227D03*
X0332755Y0309165D03*
X0332755Y0313102D03*
X0332755Y0317039D03*
X0332755Y0320976D03*
M02*
