G75*
G70*
%OFA0B0*%
%FSLAX25Y25*%
%IPPOS*%
%LPD*%
%AMOC8*
5,1,8,0,0,1.08239X$1,22.5*
%
%ADD14C,0.00787*%
%ADD30C,0.00394*%
X0000000Y0000000D02*
%LPD*%
G01*
D14*
X0002362Y0019685D02*
X0038189Y0019685D01*
X0002362Y0007480D02*
X0002362Y0011417D01*
X0002362Y0007480D02*
X0038189Y0007480D01*
X0001969Y0007087D02*
G01*
G75*
G36*
X0020375Y0012636D02*
X0019939Y0012636D01*
X0019939Y0013162D01*
X0019737Y0013374D01*
X0019324Y0012636D01*
X0018854Y0012636D01*
X0019457Y0013679D01*
X0018894Y0014281D01*
X0019430Y0014281D01*
X0019939Y0013701D01*
X0019939Y0014906D01*
X0020375Y0014906D01*
X0020375Y0012636D01*
D02*
G37*
G36*
X0012975Y0012636D02*
X0012539Y0012636D01*
X0012539Y0013162D01*
X0012338Y0013374D01*
X0011924Y0012636D01*
X0011455Y0012636D01*
X0012057Y0013679D01*
X0011494Y0014281D01*
X0012030Y0014281D01*
X0012539Y0013701D01*
X0012539Y0014906D01*
X0012975Y0014906D01*
X0012975Y0012636D01*
D02*
G37*
G36*
X0014089Y0014316D02*
X0014153Y0014308D01*
X0014212Y0014296D01*
X0014269Y0014284D01*
X0014320Y0014264D01*
X0014367Y0014247D01*
X0014412Y0014225D01*
X0014451Y0014205D01*
X0014485Y0014183D01*
X0014517Y0014161D01*
X0014542Y0014144D01*
X0014564Y0014127D01*
X0014581Y0014112D01*
X0014594Y0014099D01*
X0014601Y0014092D01*
X0014603Y0014090D01*
X0014640Y0014045D01*
X0014675Y0013998D01*
X0014702Y0013947D01*
X0014726Y0013895D01*
X0014748Y0013841D01*
X0014766Y0013789D01*
X0014778Y0013738D01*
X0014790Y0013689D01*
X0014800Y0013639D01*
X0014805Y0013595D01*
X0014810Y0013556D01*
X0014815Y0013521D01*
X0014815Y0013494D01*
X0014817Y0013472D01*
X0014817Y0013460D01*
X0014817Y0013455D01*
X0014815Y0013381D01*
X0014808Y0013312D01*
X0014798Y0013248D01*
X0014783Y0013187D01*
X0014768Y0013130D01*
X0014748Y0013078D01*
X0014731Y0013032D01*
X0014709Y0012990D01*
X0014689Y0012953D01*
X0014670Y0012919D01*
X0014653Y0012891D01*
X0014638Y0012867D01*
X0014623Y0012850D01*
X0014613Y0012835D01*
X0014606Y0012828D01*
X0014603Y0012825D01*
X0014562Y0012786D01*
X0014517Y0012751D01*
X0014471Y0012719D01*
X0014424Y0012695D01*
X0014375Y0012673D01*
X0014328Y0012653D01*
X0014281Y0012638D01*
X0014237Y0012628D01*
X0014195Y0012618D01*
X0014156Y0012611D01*
X0014119Y0012606D01*
X0014089Y0012601D01*
X0014065Y0012601D01*
X0014045Y0012599D01*
X0014030Y0012599D01*
X0013971Y0012601D01*
X0013917Y0012606D01*
X0013865Y0012614D01*
X0013819Y0012621D01*
X0013772Y0012633D01*
X0013730Y0012646D01*
X0013693Y0012658D01*
X0013659Y0012673D01*
X0013629Y0012687D01*
X0013602Y0012700D01*
X0013580Y0012712D01*
X0013560Y0012724D01*
X0013546Y0012732D01*
X0013533Y0012739D01*
X0013528Y0012744D01*
X0013526Y0012746D01*
X0013491Y0012776D01*
X0013459Y0012808D01*
X0013432Y0012842D01*
X0013405Y0012879D01*
X0013381Y0012916D01*
X0013361Y0012953D01*
X0013327Y0013024D01*
X0013312Y0013059D01*
X0013300Y0013091D01*
X0013290Y0013118D01*
X0013282Y0013142D01*
X0013275Y0013165D01*
X0013270Y0013179D01*
X0013268Y0013189D01*
X0013268Y0013192D01*
X0013696Y0013266D01*
X0013710Y0013206D01*
X0013728Y0013155D01*
X0013747Y0013113D01*
X0013764Y0013078D01*
X0013782Y0013054D01*
X0013797Y0013037D01*
X0013806Y0013024D01*
X0013809Y0013022D01*
X0013841Y0013000D01*
X0013873Y0012983D01*
X0013907Y0012970D01*
X0013939Y0012963D01*
X0013966Y0012958D01*
X0013991Y0012953D01*
X0014011Y0012953D01*
X0014040Y0012956D01*
X0014069Y0012958D01*
X0014124Y0012973D01*
X0014168Y0012992D01*
X0014205Y0013015D01*
X0014237Y0013037D01*
X0014259Y0013054D01*
X0014271Y0013069D01*
X0014276Y0013071D01*
X0014276Y0013074D01*
X0014293Y0013098D01*
X0014308Y0013125D01*
X0014320Y0013157D01*
X0014333Y0013189D01*
X0014347Y0013258D01*
X0014360Y0013325D01*
X0014365Y0013359D01*
X0014367Y0013388D01*
X0014370Y0013416D01*
X0014370Y0013440D01*
X0014372Y0013460D01*
X0014372Y0013475D01*
X0014372Y0013484D01*
X0014372Y0013487D01*
X0014372Y0013534D01*
X0014367Y0013578D01*
X0014362Y0013620D01*
X0014357Y0013657D01*
X0014350Y0013691D01*
X0014343Y0013721D01*
X0014333Y0013750D01*
X0014323Y0013775D01*
X0014316Y0013794D01*
X0014306Y0013814D01*
X0014298Y0013829D01*
X0014291Y0013841D01*
X0014286Y0013851D01*
X0014281Y0013858D01*
X0014276Y0013861D01*
X0014276Y0013863D01*
X0014256Y0013883D01*
X0014237Y0013900D01*
X0014195Y0013930D01*
X0014153Y0013949D01*
X0014111Y0013962D01*
X0014074Y0013971D01*
X0014057Y0013974D01*
X0014045Y0013974D01*
X0014033Y0013976D01*
X0014018Y0013976D01*
X0013974Y0013974D01*
X0013934Y0013967D01*
X0013900Y0013954D01*
X0013873Y0013944D01*
X0013848Y0013932D01*
X0013833Y0013920D01*
X0013821Y0013912D01*
X0013819Y0013910D01*
X0013792Y0013883D01*
X0013769Y0013853D01*
X0013752Y0013821D01*
X0013737Y0013792D01*
X0013730Y0013765D01*
X0013723Y0013740D01*
X0013718Y0013726D01*
X0013718Y0013723D01*
X0013718Y0013721D01*
X0013290Y0013797D01*
X0013305Y0013844D01*
X0013324Y0013890D01*
X0013341Y0013930D01*
X0013363Y0013969D01*
X0013383Y0014003D01*
X0013405Y0014035D01*
X0013427Y0014065D01*
X0013447Y0014092D01*
X0013467Y0014114D01*
X0013484Y0014134D01*
X0013501Y0014151D01*
X0013516Y0014163D01*
X0013528Y0014176D01*
X0013538Y0014183D01*
X0013543Y0014185D01*
X0013546Y0014188D01*
X0013580Y0014210D01*
X0013617Y0014232D01*
X0013656Y0014250D01*
X0013696Y0014264D01*
X0013774Y0014286D01*
X0013851Y0014301D01*
X0013885Y0014308D01*
X0013920Y0014311D01*
X0013946Y0014313D01*
X0013974Y0014316D01*
X0013993Y0014318D01*
X0014023Y0014318D01*
X0014089Y0014316D01*
D02*
G37*
G36*
X0017715Y0014316D02*
X0017772Y0014306D01*
X0017826Y0014294D01*
X0017878Y0014274D01*
X0017924Y0014254D01*
X0017969Y0014230D01*
X0018010Y0014205D01*
X0018047Y0014178D01*
X0018082Y0014151D01*
X0018109Y0014127D01*
X0018136Y0014102D01*
X0018156Y0014082D01*
X0018173Y0014065D01*
X0018185Y0014050D01*
X0018193Y0014040D01*
X0018195Y0014038D01*
X0018195Y0014281D01*
X0018598Y0014281D01*
X0018598Y0012636D01*
X0018163Y0012636D01*
X0018163Y0013381D01*
X0018163Y0013430D01*
X0018161Y0013477D01*
X0018161Y0013519D01*
X0018158Y0013556D01*
X0018156Y0013590D01*
X0018153Y0013622D01*
X0018151Y0013649D01*
X0018146Y0013674D01*
X0018143Y0013693D01*
X0018141Y0013711D01*
X0018138Y0013726D01*
X0018136Y0013738D01*
X0018133Y0013748D01*
X0018133Y0013753D01*
X0018131Y0013758D01*
X0018116Y0013794D01*
X0018099Y0013826D01*
X0018079Y0013856D01*
X0018060Y0013878D01*
X0018040Y0013898D01*
X0018025Y0013910D01*
X0018015Y0013920D01*
X0018010Y0013922D01*
X0017976Y0013944D01*
X0017939Y0013959D01*
X0017905Y0013971D01*
X0017875Y0013979D01*
X0017846Y0013984D01*
X0017826Y0013986D01*
X0017806Y0013986D01*
X0017774Y0013984D01*
X0017747Y0013979D01*
X0017723Y0013971D01*
X0017701Y0013964D01*
X0017683Y0013957D01*
X0017668Y0013949D01*
X0017661Y0013944D01*
X0017659Y0013942D01*
X0017636Y0013925D01*
X0017617Y0013905D01*
X0017602Y0013883D01*
X0017590Y0013863D01*
X0017580Y0013846D01*
X0017573Y0013831D01*
X0017568Y0013821D01*
X0017568Y0013819D01*
X0017563Y0013802D01*
X0017558Y0013782D01*
X0017553Y0013760D01*
X0017550Y0013733D01*
X0017545Y0013676D01*
X0017541Y0013617D01*
X0017541Y0013563D01*
X0017538Y0013539D01*
X0017538Y0013519D01*
X0017538Y0013499D01*
X0017538Y0013487D01*
X0017538Y0013477D01*
X0017538Y0013475D01*
X0017538Y0012636D01*
X0017103Y0012636D01*
X0017103Y0013657D01*
X0017103Y0013726D01*
X0017108Y0013784D01*
X0017110Y0013834D01*
X0017115Y0013875D01*
X0017120Y0013907D01*
X0017122Y0013930D01*
X0017127Y0013944D01*
X0017127Y0013949D01*
X0017137Y0013986D01*
X0017152Y0014021D01*
X0017164Y0014053D01*
X0017179Y0014080D01*
X0017194Y0014102D01*
X0017204Y0014117D01*
X0017211Y0014129D01*
X0017213Y0014131D01*
X0017238Y0014161D01*
X0017268Y0014185D01*
X0017297Y0014210D01*
X0017327Y0014227D01*
X0017351Y0014245D01*
X0017373Y0014254D01*
X0017388Y0014262D01*
X0017390Y0014264D01*
X0017393Y0014264D01*
X0017437Y0014281D01*
X0017484Y0014296D01*
X0017528Y0014306D01*
X0017568Y0014311D01*
X0017605Y0014316D01*
X0017632Y0014318D01*
X0017656Y0014318D01*
X0017715Y0014316D01*
D02*
G37*
G36*
X0016003Y0014313D02*
X0016084Y0014301D01*
X0016158Y0014284D01*
X0016192Y0014274D01*
X0016224Y0014264D01*
X0016252Y0014254D01*
X0016276Y0014245D01*
X0016298Y0014235D01*
X0016318Y0014227D01*
X0016333Y0014220D01*
X0016343Y0014215D01*
X0016350Y0014213D01*
X0016352Y0014210D01*
X0016421Y0014166D01*
X0016480Y0014117D01*
X0016532Y0014065D01*
X0016576Y0014016D01*
X0016608Y0013971D01*
X0016623Y0013952D01*
X0016633Y0013935D01*
X0016640Y0013920D01*
X0016648Y0013910D01*
X0016650Y0013903D01*
X0016652Y0013900D01*
X0016672Y0013863D01*
X0016687Y0013824D01*
X0016714Y0013750D01*
X0016731Y0013679D01*
X0016746Y0013615D01*
X0016749Y0013585D01*
X0016753Y0013561D01*
X0016756Y0013536D01*
X0016756Y0013516D01*
X0016758Y0013502D01*
X0016758Y0013489D01*
X0016758Y0013482D01*
X0016758Y0013479D01*
X0016756Y0013428D01*
X0016753Y0013379D01*
X0016749Y0013329D01*
X0016741Y0013285D01*
X0016734Y0013243D01*
X0016724Y0013204D01*
X0016714Y0013167D01*
X0016704Y0013133D01*
X0016694Y0013103D01*
X0016687Y0013076D01*
X0016677Y0013054D01*
X0016670Y0013034D01*
X0016662Y0013019D01*
X0016657Y0013010D01*
X0016652Y0013002D01*
X0016652Y0013000D01*
X0016608Y0012931D01*
X0016559Y0012869D01*
X0016507Y0012818D01*
X0016458Y0012776D01*
X0016411Y0012744D01*
X0016394Y0012729D01*
X0016377Y0012719D01*
X0016362Y0012710D01*
X0016352Y0012705D01*
X0016345Y0012702D01*
X0016343Y0012700D01*
X0016266Y0012665D01*
X0016190Y0012641D01*
X0016116Y0012623D01*
X0016050Y0012611D01*
X0016020Y0012606D01*
X0015993Y0012604D01*
X0015971Y0012601D01*
X0015951Y0012601D01*
X0015934Y0012599D01*
X0015912Y0012599D01*
X0015846Y0012601D01*
X0015782Y0012609D01*
X0015720Y0012621D01*
X0015664Y0012638D01*
X0015610Y0012655D01*
X0015560Y0012675D01*
X0015514Y0012697D01*
X0015472Y0012722D01*
X0015435Y0012744D01*
X0015403Y0012766D01*
X0015373Y0012786D01*
X0015351Y0012805D01*
X0015332Y0012820D01*
X0015317Y0012832D01*
X0015309Y0012840D01*
X0015307Y0012842D01*
X0015265Y0012889D01*
X0015228Y0012941D01*
X0015196Y0012990D01*
X0015167Y0013044D01*
X0015145Y0013096D01*
X0015125Y0013147D01*
X0015108Y0013197D01*
X0015095Y0013246D01*
X0015085Y0013290D01*
X0015078Y0013332D01*
X0015073Y0013369D01*
X0015068Y0013401D01*
X0015068Y0013425D01*
X0015066Y0013445D01*
X0015066Y0013457D01*
X0015066Y0013462D01*
X0015068Y0013531D01*
X0015076Y0013595D01*
X0015088Y0013657D01*
X0015103Y0013713D01*
X0015120Y0013767D01*
X0015142Y0013819D01*
X0015162Y0013866D01*
X0015184Y0013907D01*
X0015208Y0013944D01*
X0015228Y0013979D01*
X0015248Y0014006D01*
X0015268Y0014031D01*
X0015282Y0014050D01*
X0015295Y0014063D01*
X0015302Y0014072D01*
X0015305Y0014075D01*
X0015351Y0014117D01*
X0015398Y0014156D01*
X0015450Y0014188D01*
X0015501Y0014215D01*
X0015550Y0014240D01*
X0015602Y0014259D01*
X0015651Y0014274D01*
X0015698Y0014289D01*
X0015742Y0014299D01*
X0015784Y0014306D01*
X0015821Y0014311D01*
X0015853Y0014313D01*
X0015878Y0014316D01*
X0015897Y0014318D01*
X0015959Y0014318D01*
X0016003Y0014313D01*
D02*
G37*
G36*
X0025291Y0018264D02*
X0025342Y0018259D01*
X0025391Y0018252D01*
X0025435Y0018243D01*
X0025479Y0018231D01*
X0025518Y0018220D01*
X0025553Y0018206D01*
X0025588Y0018192D01*
X0025618Y0018178D01*
X0025644Y0018164D01*
X0025667Y0018152D01*
X0025685Y0018141D01*
X0025699Y0018131D01*
X0025711Y0018125D01*
X0025718Y0018120D01*
X0025720Y0018117D01*
X0025755Y0018087D01*
X0025785Y0018055D01*
X0025813Y0018018D01*
X0025836Y0017978D01*
X0025857Y0017939D01*
X0025876Y0017897D01*
X0025892Y0017858D01*
X0025906Y0017818D01*
X0025917Y0017781D01*
X0025927Y0017746D01*
X0025934Y0017714D01*
X0025938Y0017686D01*
X0025943Y0017663D01*
X0025945Y0017644D01*
X0025948Y0017635D01*
X0025948Y0017630D01*
X0025539Y0017591D01*
X0025537Y0017623D01*
X0025532Y0017653D01*
X0025521Y0017707D01*
X0025507Y0017751D01*
X0025493Y0017786D01*
X0025477Y0017814D01*
X0025465Y0017832D01*
X0025456Y0017841D01*
X0025453Y0017846D01*
X0025423Y0017872D01*
X0025388Y0017893D01*
X0025354Y0017906D01*
X0025321Y0017916D01*
X0025291Y0017920D01*
X0025268Y0017925D01*
X0025247Y0017925D01*
X0025201Y0017923D01*
X0025161Y0017913D01*
X0025126Y0017902D01*
X0025096Y0017888D01*
X0025073Y0017874D01*
X0025057Y0017862D01*
X0025045Y0017853D01*
X0025043Y0017851D01*
X0025017Y0017821D01*
X0024999Y0017786D01*
X0024987Y0017751D01*
X0024978Y0017719D01*
X0024973Y0017686D01*
X0024968Y0017663D01*
X0024968Y0017653D01*
X0024968Y0017647D01*
X0024968Y0017642D01*
X0024968Y0017640D01*
X0024973Y0017593D01*
X0024982Y0017547D01*
X0024996Y0017505D01*
X0025010Y0017468D01*
X0025026Y0017435D01*
X0025040Y0017410D01*
X0025047Y0017401D01*
X0025050Y0017394D01*
X0025054Y0017391D01*
X0025054Y0017389D01*
X0025068Y0017370D01*
X0025087Y0017347D01*
X0025110Y0017322D01*
X0025133Y0017296D01*
X0025189Y0017238D01*
X0025249Y0017180D01*
X0025277Y0017152D01*
X0025305Y0017124D01*
X0025328Y0017101D01*
X0025351Y0017081D01*
X0025370Y0017064D01*
X0025384Y0017050D01*
X0025393Y0017041D01*
X0025395Y0017039D01*
X0025458Y0016981D01*
X0025514Y0016925D01*
X0025567Y0016872D01*
X0025613Y0016823D01*
X0025655Y0016779D01*
X0025692Y0016735D01*
X0025727Y0016698D01*
X0025755Y0016663D01*
X0025780Y0016630D01*
X0025801Y0016605D01*
X0025820Y0016579D01*
X0025834Y0016561D01*
X0025843Y0016547D01*
X0025852Y0016535D01*
X0025855Y0016528D01*
X0025857Y0016526D01*
X0025896Y0016454D01*
X0025927Y0016382D01*
X0025952Y0016312D01*
X0025971Y0016250D01*
X0025978Y0016222D01*
X0025982Y0016197D01*
X0025987Y0016173D01*
X0025992Y0016155D01*
X0025994Y0016139D01*
X0025994Y0016127D01*
X0025996Y0016120D01*
X0025996Y0016118D01*
X0024558Y0016118D01*
X0024558Y0016498D01*
X0025374Y0016498D01*
X0025347Y0016538D01*
X0025333Y0016556D01*
X0025321Y0016575D01*
X0025309Y0016589D01*
X0025300Y0016600D01*
X0025293Y0016607D01*
X0025291Y0016609D01*
X0025279Y0016621D01*
X0025266Y0016637D01*
X0025249Y0016654D01*
X0025231Y0016672D01*
X0025191Y0016712D01*
X0025149Y0016751D01*
X0025110Y0016788D01*
X0025091Y0016804D01*
X0025075Y0016818D01*
X0025064Y0016830D01*
X0025054Y0016839D01*
X0025047Y0016844D01*
X0025045Y0016846D01*
X0025010Y0016879D01*
X0024978Y0016909D01*
X0024948Y0016939D01*
X0024920Y0016964D01*
X0024897Y0016990D01*
X0024873Y0017011D01*
X0024855Y0017032D01*
X0024836Y0017050D01*
X0024811Y0017081D01*
X0024790Y0017101D01*
X0024781Y0017115D01*
X0024776Y0017120D01*
X0024737Y0017173D01*
X0024702Y0017224D01*
X0024674Y0017271D01*
X0024651Y0017310D01*
X0024634Y0017345D01*
X0024628Y0017359D01*
X0024620Y0017370D01*
X0024616Y0017380D01*
X0024614Y0017389D01*
X0024611Y0017391D01*
X0024611Y0017394D01*
X0024593Y0017442D01*
X0024581Y0017491D01*
X0024572Y0017538D01*
X0024565Y0017582D01*
X0024560Y0017616D01*
X0024560Y0017633D01*
X0024558Y0017644D01*
X0024558Y0017656D01*
X0024558Y0017663D01*
X0024558Y0017667D01*
X0024558Y0017670D01*
X0024560Y0017716D01*
X0024565Y0017760D01*
X0024574Y0017802D01*
X0024586Y0017844D01*
X0024600Y0017881D01*
X0024616Y0017916D01*
X0024632Y0017948D01*
X0024648Y0017976D01*
X0024667Y0018004D01*
X0024683Y0018027D01*
X0024699Y0018048D01*
X0024713Y0018064D01*
X0024725Y0018076D01*
X0024734Y0018087D01*
X0024739Y0018092D01*
X0024741Y0018094D01*
X0024776Y0018125D01*
X0024815Y0018150D01*
X0024855Y0018173D01*
X0024894Y0018194D01*
X0024936Y0018210D01*
X0024978Y0018224D01*
X0025017Y0018236D01*
X0025057Y0018245D01*
X0025094Y0018252D01*
X0025129Y0018257D01*
X0025159Y0018261D01*
X0025184Y0018264D01*
X0025207Y0018266D01*
X0025238Y0018266D01*
X0025291Y0018264D01*
D02*
G37*
G36*
X0026688Y0016118D02*
X0026277Y0016118D01*
X0026277Y0016528D01*
X0026688Y0016528D01*
X0026688Y0016118D01*
D02*
G37*
G36*
X0027801Y0018264D02*
X0027855Y0018257D01*
X0027906Y0018245D01*
X0027952Y0018231D01*
X0027996Y0018215D01*
X0028036Y0018196D01*
X0028073Y0018176D01*
X0028105Y0018157D01*
X0028133Y0018136D01*
X0028159Y0018115D01*
X0028179Y0018097D01*
X0028198Y0018080D01*
X0028212Y0018066D01*
X0028221Y0018055D01*
X0028228Y0018048D01*
X0028230Y0018046D01*
X0028268Y0017992D01*
X0028300Y0017932D01*
X0028328Y0017867D01*
X0028351Y0017797D01*
X0028372Y0017725D01*
X0028388Y0017653D01*
X0028402Y0017582D01*
X0028414Y0017510D01*
X0028421Y0017442D01*
X0028428Y0017380D01*
X0028432Y0017324D01*
X0028437Y0017273D01*
X0028437Y0017252D01*
X0028437Y0017234D01*
X0028439Y0017217D01*
X0028439Y0017201D01*
X0028439Y0017192D01*
X0028439Y0017183D01*
X0028439Y0017178D01*
X0028439Y0017176D01*
X0028437Y0017064D01*
X0028430Y0016962D01*
X0028421Y0016867D01*
X0028409Y0016781D01*
X0028395Y0016702D01*
X0028379Y0016633D01*
X0028363Y0016570D01*
X0028344Y0016514D01*
X0028326Y0016468D01*
X0028309Y0016426D01*
X0028293Y0016391D01*
X0028279Y0016364D01*
X0028268Y0016343D01*
X0028256Y0016329D01*
X0028251Y0016320D01*
X0028249Y0016317D01*
X0028212Y0016275D01*
X0028172Y0016238D01*
X0028131Y0016206D01*
X0028089Y0016178D01*
X0028047Y0016157D01*
X0028005Y0016136D01*
X0027966Y0016120D01*
X0027927Y0016108D01*
X0027889Y0016099D01*
X0027855Y0016090D01*
X0027824Y0016085D01*
X0027797Y0016083D01*
X0027776Y0016080D01*
X0027760Y0016078D01*
X0027745Y0016078D01*
X0027690Y0016080D01*
X0027637Y0016088D01*
X0027585Y0016099D01*
X0027539Y0016113D01*
X0027495Y0016129D01*
X0027455Y0016148D01*
X0027418Y0016166D01*
X0027386Y0016187D01*
X0027358Y0016208D01*
X0027333Y0016227D01*
X0027309Y0016245D01*
X0027293Y0016261D01*
X0027279Y0016275D01*
X0027268Y0016287D01*
X0027263Y0016294D01*
X0027261Y0016296D01*
X0027224Y0016350D01*
X0027191Y0016410D01*
X0027163Y0016477D01*
X0027138Y0016545D01*
X0027119Y0016616D01*
X0027101Y0016691D01*
X0027087Y0016763D01*
X0027075Y0016834D01*
X0027068Y0016902D01*
X0027061Y0016964D01*
X0027056Y0017022D01*
X0027052Y0017071D01*
X0027052Y0017094D01*
X0027052Y0017113D01*
X0027049Y0017129D01*
X0027049Y0017145D01*
X0027049Y0017155D01*
X0027049Y0017164D01*
X0027049Y0017169D01*
X0027049Y0017171D01*
X0027052Y0017280D01*
X0027059Y0017382D01*
X0027068Y0017477D01*
X0027082Y0017563D01*
X0027098Y0017642D01*
X0027115Y0017714D01*
X0027135Y0017779D01*
X0027154Y0017834D01*
X0027172Y0017885D01*
X0027191Y0017927D01*
X0027210Y0017964D01*
X0027226Y0017992D01*
X0027240Y0018015D01*
X0027249Y0018032D01*
X0027256Y0018041D01*
X0027258Y0018043D01*
X0027293Y0018083D01*
X0027330Y0018117D01*
X0027370Y0018148D01*
X0027409Y0018173D01*
X0027449Y0018194D01*
X0027490Y0018213D01*
X0027530Y0018227D01*
X0027567Y0018238D01*
X0027604Y0018247D01*
X0027639Y0018254D01*
X0027669Y0018259D01*
X0027694Y0018264D01*
X0027715Y0018264D01*
X0027732Y0018266D01*
X0027745Y0018266D01*
X0027801Y0018264D01*
D02*
G37*
%LPC*%
G36*
X0015932Y0013964D02*
X0015915Y0013964D01*
X0015883Y0013962D01*
X0015853Y0013959D01*
X0015799Y0013944D01*
X0015750Y0013922D01*
X0015708Y0013900D01*
X0015673Y0013875D01*
X0015649Y0013853D01*
X0015641Y0013846D01*
X0015634Y0013839D01*
X0015632Y0013836D01*
X0015629Y0013834D01*
X0015610Y0013809D01*
X0015590Y0013780D01*
X0015563Y0013721D01*
X0015541Y0013659D01*
X0015528Y0013598D01*
X0015523Y0013570D01*
X0015519Y0013543D01*
X0015516Y0013521D01*
X0015516Y0013499D01*
X0015514Y0013484D01*
X0015514Y0013470D01*
X0015514Y0013462D01*
X0015514Y0013460D01*
X0015514Y0013416D01*
X0015519Y0013371D01*
X0015523Y0013332D01*
X0015531Y0013295D01*
X0015541Y0013263D01*
X0015550Y0013231D01*
X0015560Y0013202D01*
X0015570Y0013177D01*
X0015582Y0013155D01*
X0015592Y0013135D01*
X0015602Y0013118D01*
X0015612Y0013106D01*
X0015619Y0013096D01*
X0015624Y0013088D01*
X0015627Y0013083D01*
X0015629Y0013081D01*
X0015651Y0013059D01*
X0015673Y0013039D01*
X0015698Y0013022D01*
X0015723Y0013007D01*
X0015769Y0012985D01*
X0015816Y0012970D01*
X0015855Y0012960D01*
X0015873Y0012958D01*
X0015885Y0012956D01*
X0015897Y0012953D01*
X0015915Y0012953D01*
X0015946Y0012956D01*
X0015976Y0012958D01*
X0016030Y0012973D01*
X0016079Y0012992D01*
X0016121Y0013017D01*
X0016153Y0013042D01*
X0016180Y0013061D01*
X0016188Y0013069D01*
X0016195Y0013076D01*
X0016197Y0013078D01*
X0016200Y0013081D01*
X0016220Y0013106D01*
X0016237Y0013135D01*
X0016266Y0013194D01*
X0016286Y0013258D01*
X0016298Y0013317D01*
X0016303Y0013347D01*
X0016308Y0013374D01*
X0016311Y0013396D01*
X0016311Y0013418D01*
X0016313Y0013433D01*
X0016313Y0013448D01*
X0016313Y0013455D01*
X0016313Y0013457D01*
X0016311Y0013502D01*
X0016308Y0013543D01*
X0016303Y0013583D01*
X0016296Y0013620D01*
X0016286Y0013654D01*
X0016276Y0013684D01*
X0016266Y0013713D01*
X0016257Y0013738D01*
X0016247Y0013760D01*
X0016237Y0013780D01*
X0016227Y0013797D01*
X0016217Y0013809D01*
X0016210Y0013819D01*
X0016205Y0013829D01*
X0016200Y0013831D01*
X0016200Y0013834D01*
X0016178Y0013856D01*
X0016153Y0013878D01*
X0016131Y0013895D01*
X0016106Y0013910D01*
X0016060Y0013932D01*
X0016013Y0013947D01*
X0015974Y0013957D01*
X0015956Y0013959D01*
X0015942Y0013962D01*
X0015932Y0013964D01*
D02*
G37*
G36*
X0027757Y0017925D02*
X0027745Y0017925D01*
X0027718Y0017923D01*
X0027694Y0017918D01*
X0027671Y0017909D01*
X0027650Y0017902D01*
X0027637Y0017893D01*
X0027623Y0017883D01*
X0027616Y0017878D01*
X0027613Y0017876D01*
X0027592Y0017855D01*
X0027574Y0017827D01*
X0027558Y0017797D01*
X0027544Y0017765D01*
X0027532Y0017735D01*
X0027525Y0017712D01*
X0027523Y0017702D01*
X0027521Y0017695D01*
X0027518Y0017691D01*
X0027518Y0017688D01*
X0027511Y0017658D01*
X0027504Y0017626D01*
X0027500Y0017589D01*
X0027495Y0017547D01*
X0027488Y0017463D01*
X0027483Y0017377D01*
X0027481Y0017336D01*
X0027481Y0017298D01*
X0027479Y0017261D01*
X0027479Y0017231D01*
X0027479Y0017206D01*
X0027479Y0017187D01*
X0027479Y0017176D01*
X0027479Y0017171D01*
X0027479Y0017104D01*
X0027481Y0017039D01*
X0027483Y0016981D01*
X0027486Y0016927D01*
X0027488Y0016879D01*
X0027493Y0016834D01*
X0027497Y0016795D01*
X0027500Y0016760D01*
X0027504Y0016730D01*
X0027509Y0016705D01*
X0027514Y0016684D01*
X0027516Y0016665D01*
X0027518Y0016651D01*
X0027521Y0016642D01*
X0027523Y0016637D01*
X0027523Y0016635D01*
X0027537Y0016593D01*
X0027551Y0016556D01*
X0027565Y0016528D01*
X0027581Y0016505D01*
X0027592Y0016486D01*
X0027604Y0016475D01*
X0027611Y0016468D01*
X0027613Y0016466D01*
X0027637Y0016449D01*
X0027657Y0016438D01*
X0027681Y0016431D01*
X0027701Y0016426D01*
X0027720Y0016422D01*
X0027734Y0016419D01*
X0027745Y0016419D01*
X0027773Y0016422D01*
X0027797Y0016426D01*
X0027820Y0016433D01*
X0027838Y0016443D01*
X0027855Y0016452D01*
X0027868Y0016459D01*
X0027876Y0016463D01*
X0027878Y0016466D01*
X0027899Y0016486D01*
X0027917Y0016514D01*
X0027933Y0016545D01*
X0027947Y0016577D01*
X0027959Y0016605D01*
X0027966Y0016628D01*
X0027968Y0016637D01*
X0027971Y0016644D01*
X0027973Y0016649D01*
X0027973Y0016651D01*
X0027980Y0016681D01*
X0027984Y0016714D01*
X0027989Y0016751D01*
X0027994Y0016793D01*
X0028001Y0016879D01*
X0028005Y0016964D01*
X0028008Y0017006D01*
X0028008Y0017043D01*
X0028008Y0017078D01*
X0028010Y0017111D01*
X0028010Y0017136D01*
X0028010Y0017155D01*
X0028010Y0017166D01*
X0028010Y0017171D01*
X0028010Y0017238D01*
X0028008Y0017301D01*
X0028005Y0017361D01*
X0028003Y0017412D01*
X0028001Y0017461D01*
X0027996Y0017505D01*
X0027994Y0017545D01*
X0027989Y0017579D01*
X0027984Y0017609D01*
X0027982Y0017637D01*
X0027978Y0017658D01*
X0027975Y0017677D01*
X0027973Y0017691D01*
X0027971Y0017700D01*
X0027968Y0017704D01*
X0027968Y0017707D01*
X0027954Y0017749D01*
X0027940Y0017786D01*
X0027924Y0017814D01*
X0027910Y0017837D01*
X0027899Y0017855D01*
X0027887Y0017867D01*
X0027880Y0017874D01*
X0027878Y0017876D01*
X0027855Y0017893D01*
X0027834Y0017904D01*
X0027811Y0017913D01*
X0027790Y0017918D01*
X0027771Y0017923D01*
X0027757Y0017925D01*
D02*
G37*
%LPD*%
D14*
X0002363Y0007481D02*
X0038189Y0007481D01*
X0002363Y0019685D02*
X0038189Y0019685D01*
X0002363Y0007481D02*
X0002363Y0011418D01*
X0021275Y0013445D02*
X0024227Y0013445D01*
D30*
X0031890Y0016142D02*
X0031890Y0018504D01*
X0025553Y0011807D02*
X0025553Y0011414D01*
X0027522Y0011811D02*
X0027522Y0011418D01*
X0016831Y0016142D02*
X0016831Y0018504D01*
X0008465Y0016142D02*
X0008465Y0018504D01*
X0008075Y0012402D02*
X0008469Y0012402D01*
X0008071Y0014370D02*
X0008465Y0014370D01*
X0031890Y0008859D02*
X0031890Y0011221D01*
X0016438Y0008859D02*
X0016831Y0008859D01*
X0016433Y0010827D02*
X0016827Y0010827D01*
X0031300Y0012459D02*
X0031693Y0012459D01*
X0031296Y0014428D02*
X0031689Y0014428D01*
X0008067Y0010827D02*
X0008461Y0010827D01*
X0008071Y0008859D02*
X0008465Y0008859D01*
M02*
