G75*
G70*
%OFA0B0*%
%FSLAX25Y25*%
%IPPOS*%
%LPD*%
%AMOC8*
5,1,8,0,0,1.08239X$1,22.5*
%
%AMM3*
21,1,0.023620,0.018900,0.000000,0.000000,180.000000*
21,1,0.018900,0.023620,0.000000,0.000000,180.000000*
1,1,0.004720,-0.009450,0.009450*
1,1,0.004720,0.009450,0.009450*
1,1,0.004720,0.009450,-0.009450*
1,1,0.004720,-0.009450,-0.009450*
%
%AMM4*
21,1,0.019680,0.019680,0.000000,0.000000,270.000000*
21,1,0.015750,0.023620,0.000000,0.000000,270.000000*
1,1,0.003940,-0.009840,-0.007870*
1,1,0.003940,-0.009840,0.007870*
1,1,0.003940,0.009840,0.007870*
1,1,0.003940,0.009840,-0.007870*
%
%AMM5*
21,1,0.033470,0.026770,0.000000,0.000000,270.000000*
21,1,0.026770,0.033470,0.000000,0.000000,270.000000*
1,1,0.006690,-0.013390,-0.013390*
1,1,0.006690,-0.013390,0.013390*
1,1,0.006690,0.013390,0.013390*
1,1,0.006690,0.013390,-0.013390*
%
%AMM6*
21,1,0.019680,0.019680,0.000000,0.000000,0.000000*
21,1,0.015750,0.023620,0.000000,0.000000,0.000000*
1,1,0.003940,0.007870,-0.009840*
1,1,0.003940,-0.007870,-0.009840*
1,1,0.003940,-0.007870,0.009840*
1,1,0.003940,0.007870,0.009840*
%
%ADD22M3*%
%ADD23M4*%
%ADD24M5*%
%ADD25M6*%
X0000000Y0000000D02*
%LPD*%
G01*
X0001969Y0007087D02*
G01*
G75*
D22*
X0029922Y0017323D02*
D03*
X0033859Y0017323D02*
D03*
X0018799Y0017323D02*
D03*
X0014862Y0017323D02*
D03*
X0010433Y0017323D02*
D03*
X0006496Y0017323D02*
D03*
X0029922Y0010040D02*
D03*
X0033859Y0010040D02*
D03*
D23*
X0026537Y0009843D02*
D03*
X0026537Y0013386D02*
D03*
D24*
X0022652Y0016556D02*
D03*
X0022652Y0010335D02*
D03*
D25*
X0010040Y0013386D02*
D03*
X0006497Y0013386D02*
D03*
X0018406Y0009843D02*
D03*
X0014863Y0009843D02*
D03*
X0033268Y0013444D02*
D03*
X0029725Y0013444D02*
D03*
X0006497Y0009843D02*
D03*
X0010040Y0009843D02*
D03*
M02*
