M48
INCH,TZ
T01C0.011800
T02C0.029550
T03C0.032750
T04C0.039200
T05C0.043300
T06C0.086600
T07C0.145700
%
T01
X35939Y25150
X36283Y24943
X36372Y26843
X36402Y25445
X14787Y41739
X14787Y39889
X14787Y39338
X14787Y37487
X14787Y37172
X14787Y36149
X14787Y35755
X14787Y35361
X14787Y34968
X14787Y34574
X14787Y34180
X14787Y33787
X14787Y33393
X14787Y29180
X14787Y28787
X14889Y26483
X14889Y26090
X14889Y25696
X14889Y24798
X14889Y24398
X14945Y27802
X15890Y27802
X16362Y27802
X16835Y27802
X17307Y27802
X17701Y41739
X17780Y27802
X18094Y41739
X18252Y27802
X18724Y27802
X19157Y41739
X19197Y27802
X19669Y27802
X20142Y27802
X20614Y27802
X20850Y41739
X21087Y27802
X21165Y41739
X21461Y18590
X21461Y18235
X21480Y41739
X21559Y27802
X21795Y41739
X22032Y27802
X22110Y41739
X22425Y41739
X22504Y27802
X22740Y41739
X22976Y27802
X23055Y41739
X23370Y41739
X23449Y27802
X23921Y27802
X24315Y41739
X24394Y27802
X24630Y41739
X24866Y27802
X24886Y18590
X24886Y18216
X24886Y17842
X24945Y41739
X25260Y41739
X25339Y27802
X25358Y23472
X25358Y23078
X25358Y22684
X25358Y22290
X25575Y41739
X25890Y41739
X26205Y41739
X26520Y41739
X26835Y41739
X27150Y41739
X27465Y41739
X27780Y41739
X27937Y36464
X27937Y30361
X27937Y38905
X27937Y38590
X27937Y38275
X27937Y37960
X27937Y37645
X27937Y37330
X27937Y36779
X27937Y36149
X27937Y35834
X27937Y35519
X27937Y35204
X27937Y34889
X27937Y34574
X27937Y34259
X27937Y33944
X27937Y33629
X27937Y33314
X27937Y32999
X27937Y32684
X27937Y32369
X27937Y32054
X28665Y33038
X28665Y32724
X28665Y32409
X28665Y32094
X28665Y31779
X28665Y31464
X28665Y31149
X28695Y39117
X28695Y38724
X28695Y34767
X28695Y34373
X28980Y33038
X32642Y20814
X32642Y20420
X34374Y41661
X34374Y41188
X34374Y40716
X34374Y40243
X34374Y37310
X34374Y36838
X34374Y36365
X34374Y35893
X27160Y19186
X26888Y19822
X27102Y20207
X26461Y20636
X26421Y20972
X26618Y21562
X26894Y21818
X27012Y22349
X26618Y22645
X26421Y22153
X26421Y23334
X26421Y24909
X26894Y24889
X28005Y25181
X29052Y25156
X29374Y24868
X30427Y24793
X31539Y24909
X32327Y24909
X31854Y23905
X31209Y23899
X31269Y22653
X31736Y22743
X31904Y22263
X32327Y22546
X31905Y21378
X32601Y21206
X32642Y20814
X32642Y20420
X31960Y20514
X31650Y20025
X32037Y19708
X31640Y19278
X31251Y19657
X31176Y20381
X31224Y20814
X29908Y19829
X29908Y19200
X28989Y19186
X28134Y19186
X28357Y19828
X28941Y20853
X29334Y22300
X28587Y22349
X29020Y22859
X29609Y23857
X30555Y25814
X31487Y25881
X31933Y25499
X32327Y26090
X31500Y26877
X29501Y27045
X29459Y26639
X28672Y26629
X28407Y26226
X26970Y26303
X27379Y25668
X26539Y25435
X21466Y17695
X21618Y17948
X21460Y18235
X21460Y18590
X22462Y18256
X22736Y18151
X22979Y18364
X22429Y17851
X23908Y18591
X24885Y18590
X24885Y18216
X24885Y17842
X28685Y39869
X28712Y41515
X28734Y40686
X29456Y38162
X29465Y38919
X29491Y39698
X29539Y41527
X29541Y40595
X29713Y39893
X29887Y41499
X29974Y38290
X30004Y39605
X30279Y38156
X30335Y41690
X30412Y40143
X30423Y38897
X30577Y41218
X30700Y40207
X30994Y40184
X31236Y40585
X31368Y39779
X31421Y40105
X31431Y39387
X31451Y38304
X31501Y38676
X31541Y39026
X31762Y39684
X32071Y38156
X32140Y39731
X32454Y40155
X32573Y39869
X32671Y39365
X32693Y40828
X32736Y38316
X32759Y40125
X32828Y41499
X33124Y41440
X33307Y40170
X33319Y41669
X33646Y38796
X34122Y38788
X34364Y38619
X34374Y39032
X34390Y38137
X28695Y39117
X28695Y38723
X34374Y41660
X34374Y41188
X34374Y40716
X34374Y40243
X28823Y35873
X28823Y33905
X28862Y37212
X29689Y35795
X29846Y34732
X29964Y33905
X30201Y37212
X30594Y36306
X30634Y35322
X31185Y34692
X31224Y33905
X31618Y37212
X31854Y36503
X31933Y33905
X32019Y35812
X32445Y34259
X32956Y35125
X33193Y34180
X33350Y37212
X33665Y33905
X33983Y36387
X34256Y35519
X34256Y34180
X28695Y34767
X28695Y34373
X34374Y37310
X34374Y36838
X34374Y36366
X34374Y35893
X14826Y24023
X14901Y26953
X14945Y25283
X14945Y21917
X15178Y22107
X15234Y23387
X15234Y23698
X15388Y26721
X15616Y25130
X15708Y25828
X15771Y23200
X15908Y22267
X16200Y21995
X16303Y27035
X16349Y26398
X16391Y26021
X16466Y24714
X16470Y23477
X16746Y21956
X16827Y24042
X16952Y22753
X17012Y24702
X17021Y25749
X17130Y23992
X17228Y21917
X18025Y27040
X18193Y22724
X18483Y24529
X18713Y25468
X18714Y23968
X18715Y24761
X18921Y25004
X18941Y21818
X18999Y24663
X19306Y26040
X19514Y23905
X19603Y25989
X19728Y21848
X19744Y25342
X19913Y25995
X19931Y22562
X20004Y23944
X20063Y24944
X20216Y25619
X20220Y22645
X20521Y23378
X20539Y26344
X20547Y26645
X20919Y21838
X21126Y26476
X21151Y27061
X21160Y26177
X21417Y26842
X21555Y25200
X21601Y24353
X21671Y23840
X21671Y22940
X21671Y22639
X21671Y22338
X21671Y22037
X21675Y23432
X22051Y24968
X22307Y24751
X24382Y21796
X24599Y23545
X24639Y26798
X24787Y26385
X24886Y23452
X24925Y25804
X24925Y25529
X24925Y25253
X25102Y26365
X25122Y21789
X25230Y25804
X25230Y25529
X25427Y26779
X14889Y26484
X14889Y26090
X14889Y25696
X14889Y24798
X14889Y24398
X25358Y23472
X25358Y23078
X25358Y22684
X25358Y22291
X14945Y27802
X15421Y27833
X15653Y28023
X15889Y27802
X16126Y28003
X16362Y27802
X16598Y28003
X16834Y27802
X17071Y28003
X17307Y27802
X17543Y28003
X17779Y27802
X18015Y28003
X18252Y27802
X18488Y28003
X18724Y27802
X18960Y28003
X19197Y27802
X19433Y28003
X19669Y27802
X19905Y28003
X20141Y27802
X20378Y28003
X20614Y27802
X20850Y28003
X21086Y27802
X21323Y28003
X21559Y27802
X21795Y28003
X22031Y27802
X22267Y28003
X22504Y27802
X22740Y28003
X22976Y27802
X23212Y28003
X23449Y27802
X23685Y28003
X23921Y27802
X24157Y28003
X24393Y27802
X24630Y28003
X24866Y27802
X25102Y28003
X25338Y27802
X25653Y27960
X25646Y28495
X25219Y28689
X24768Y28699
X24326Y28706
X23853Y28704
X23348Y29751
X23038Y29751
X22791Y29278
X22193Y29481
X21897Y29490
X22054Y29761
X22171Y30443
X21916Y30711
X21819Y31252
X22258Y31252
X22718Y31132
X22718Y31464
X22718Y31759
X22712Y32050
X23042Y32734
X23587Y32730
X23449Y33314
X22819Y33235
X22749Y34067
X22734Y34453
X22386Y34259
X22152Y34059
X21895Y34492
X21202Y34793
X20604Y34810
X20257Y34514
X19482Y34689
X19500Y34134
X19490Y33587
X18782Y33714
X18827Y34513
X18801Y35278
X18779Y36088
X19482Y36128
X19482Y35843
X19482Y35558
X19482Y36429
X20270Y36745
X20257Y37030
X20225Y37328
X20275Y37810
X20679Y37861
X21309Y38339
X21686Y38327
X22622Y38471
X22947Y37871
X23155Y38074
X23137Y37547
X23495Y37500
X22944Y37316
X22738Y36173
X22515Y35944
X22469Y35261
X22178Y35250
X22665Y35042
X23334Y35042
X24200Y34853
X24394Y34639
X24598Y34435
X24800Y34233
X24797Y35046
X24350Y35511
X24337Y36212
X24713Y36114
X24590Y36582
X24388Y37119
X24628Y37345
X24822Y37743
X24630Y37999
X24529Y38382
X24489Y38688
X24787Y38590
X25291Y38388
X25347Y38087
X25291Y37525
X25438Y37280
X25181Y36897
X25163Y36406
X26391Y36014
X26701Y35700
X26519Y35479
X26484Y34959
X27937Y34889
X27937Y35204
X27937Y35519
X27937Y35834
X27937Y36149
X27937Y36464
X27937Y36778
X27798Y37056
X27937Y37330
X27937Y37645
X27937Y37960
X27937Y38275
X27937Y38590
X27937Y38904
X27580Y38992
X27797Y39236
X27488Y39938
X27484Y40873
X27111Y40917
X27109Y40632
X26736Y40873
X26834Y41739
X26519Y41739
X26204Y41739
X25889Y41739
X25575Y41739
X25260Y41739
X24945Y41739
X24630Y41739
X24315Y41739
X23724Y41542
X23370Y41739
X23055Y41739
X22740Y41739
X22425Y41739
X22110Y41739
X21795Y41739
X21480Y41739
X21165Y41739
X20850Y41739
X20338Y41700
X20432Y41045
X20034Y41009
X19689Y41054
X19410Y40752
X19468Y41507
X19157Y41739
X18094Y41739
X17700Y41739
X17339Y41715
X17347Y41252
X17117Y40807
X17036Y39934
X16596Y40157
X17782Y40469
X18245Y40788
X18202Y39937
X18645Y39889
X19130Y39461
X19138Y39176
X19206Y38816
X19209Y38520
X18479Y38619
X18488Y38235
X18479Y37910
X18818Y37582
X18479Y37202
X18495Y36850
X18475Y36555
X18792Y36873
X17797Y37301
X17794Y37745
X16618Y37601
X16638Y37080
X16637Y36691
X17462Y36226
X17762Y36265
X17785Y35812
X17785Y35525
X17785Y35238
X17785Y34822
X17785Y34536
X17803Y34112
X17803Y33804
X17803Y33515
X18027Y32775
X18307Y32680
X18619Y32285
X18321Y31965
X18321Y31399
X18314Y31113
X18405Y30452
X18202Y29707
X18370Y29475
X18070Y29440
X17445Y29276
X17149Y29276
X16523Y29481
X16237Y29481
X16401Y29764
X16505Y30440
X16346Y30709
X16166Y31286
X16642Y31286
X17128Y31132
X17128Y31464
X17128Y31759
X17121Y32050
X16358Y32272
X16362Y32649
X15559Y32657
X15586Y32323
X15291Y32755
X14812Y32798
X14787Y33393
X14787Y33786
X14787Y34180
X14787Y34574
X14787Y34967
X14787Y35361
X14787Y35755
X14787Y36149
X14826Y36778
X14787Y37172
X14787Y37487
X14787Y37861
X14915Y38344
X14826Y38708
X14787Y39338
X15071Y39448
X14787Y39889
X14808Y41051
X14787Y41739
X15811Y38471
X15937Y38176
X16806Y38661
X18798Y38953
X19675Y39401
X19807Y39790
X20145Y39719
X20568Y39397
X21008Y39298
X21749Y39376
X22277Y40312
X22417Y40591
X22488Y40898
X22750Y40208
X23581Y40237
X23773Y40562
X24517Y40216
X24443Y39368
X24737Y39368
X25028Y39368
X26214Y39426
X26244Y39889
X25969Y40420
X25943Y41324
X24833Y41451
X27149Y41739
X27464Y41739
X27779Y41739
X26585Y38835
X26429Y38596
X26657Y38304
X26874Y37877
X26433Y37879
X26335Y37195
X26851Y36906
X27127Y37460
X27138Y36251
X27937Y34574
X27937Y34259
X27937Y33944
X27937Y33629
X27937Y33314
X27937Y32999
X27937Y32684
X27937Y32369
X27937Y32054
X27418Y31440
X27858Y30834
X27937Y30361
X27366Y29763
X27366Y29444
X27366Y29126
X27366Y28808
X27366Y28489
X27002Y28163
X27720Y28120
X26124Y28951
X26257Y29530
X25693Y30440
X25460Y31144
X25474Y31464
X25469Y31752
X25468Y32050
X24681Y32272
X24672Y32685
X24162Y32300
X23872Y32084
X23872Y31511
X23909Y31125
X24513Y31259
X25013Y31252
X24673Y30706
X24794Y30040
X24477Y30040
X24131Y30040
X25141Y30029
X23330Y30440
X21114Y31125
X21116Y31524
X21116Y31963
X21198Y32347
X21925Y32325
X21874Y32607
X20732Y32739
X20408Y32747
X20386Y33239
X19976Y32959
X19905Y32130
X19928Y31759
X19915Y31464
X19905Y30964
X19610Y31227
X18941Y31272
X19141Y30730
X19070Y29854
X19301Y29274
X20011Y29481
X20303Y29481
X20161Y29771
X20284Y30440
X20930Y29320
X21258Y29269
X19263Y32278
X19064Y32684
X17451Y32734
X16917Y33353
X16917Y34114
X16917Y34875
X16918Y35637
X20601Y35584
X20397Y35909
X20559Y36797
X19480Y37897
X20279Y40520
X20723Y40424
X20816Y40154
X21019Y40517
X23525Y39175
X23583Y38892
X25156Y33359
X25535Y33708
X26622Y33563
X26573Y32834
X26261Y32866
X25798Y32734
X27333Y33041
X21011Y34096
X15525Y31552
X15563Y31087
X15281Y30765
X14790Y30726
X15388Y30174
X15122Y29862
X14787Y29180
X14787Y28786
X14807Y28201
X15378Y28393
X15575Y29276
X14915Y32084
X35939Y25150
X36283Y24943
X36402Y25445
X36372Y26843
X28787Y29460
X28945Y30917
X29850Y32944
X29867Y29910
X30244Y31468
X30282Y30804
X30638Y32925
X30638Y29421
X30677Y32177
X30677Y30051
X31386Y32944
X31386Y32177
X31386Y31468
X31386Y30759
X31386Y30051
X32094Y31468
X32134Y29421
X32527Y30759
X32527Y30051
X32958Y32537
X32960Y32846
X33275Y32374
X33590Y32925
X33630Y29814
X33728Y31311
X33748Y29460
X33787Y32413
X28669Y33043
X28669Y32728
X28669Y32413
X28669Y32098
X28669Y31783
X28669Y31468
X28669Y31153
X28984Y33043
T02
X22356Y19879
X22671Y20568
X22986Y19879
X23301Y20568
X23616Y19879
X29295Y29416
X29768Y29416
X32130Y32960
X32996Y29416
X21549Y20479G85X21549Y19968
X24423Y20479G85X24423Y19968
X29299Y29421
X29771Y29421
X32134Y32964
X33000Y29421
T03
X33571Y20326
X33571Y19098
X33571Y17869
X35290Y34332
X35500Y20326
X35500Y19098
X35500Y17869
X36790Y34332
X15742Y19722
X16726Y19722
X17711Y19722
X18695Y19722
X19679Y19722
X20882Y33097
X22460Y33097
X23882Y33097
T04
X1024Y38031
X1024Y33750
X1024Y28406
X1024Y24094
X1024Y20197
X1024Y16053
X1024Y12106
X1024Y8406
X1083Y5719
X6280Y45266
X10561Y45266
X14744Y45266
X19242Y45266
X23888Y45266
X27933Y45266
X32215Y45276
X36398Y45276
X40896Y45276
X45039Y45256
X49587Y45276
X53730Y45256
X58278Y45276
X63346Y38612
X63346Y34331
X63346Y28986
X63346Y24675
X63346Y20778
X63346Y16634
X63346Y12687
X63346Y8986
X63346Y5846
X26362Y26897
X26362Y26168
X26362Y24220
X26362Y19476
X32465Y26720
X32465Y24200
X32465Y23452
X32465Y21759
X32465Y19298
X26362Y19475
X26362Y24220
X32465Y24200
X32465Y23452
X32465Y21759
X32465Y19298
X32465Y26720
X26362Y26897
X26362Y26168
X22212Y22802
X23000Y23984
X23787Y22802
X15086Y22724
X17086Y23124
X17086Y22324
X15102Y41424
X24181Y40453
X24181Y41253
X26181Y40853
T05
X15531Y7331
X15531Y6331
X15531Y3950
X15531Y2950
X16531Y7331
X16531Y6331
X16531Y3950
X16531Y2950
X17531Y7331
X17531Y6331
X17531Y3950
X17531Y2950
X18531Y7331
X18531Y6331
X18531Y3950
X18531Y2950
X19531Y7331
X19531Y6331
X19531Y3950
X19531Y2950
X20531Y7331
X20531Y6331
X20531Y3950
X20531Y2950
X21531Y7331
X21531Y6331
X21531Y3950
X21531Y2950
X22531Y7331
X22531Y6331
X22531Y3950
X22531Y2950
X23531Y7331
X23531Y6331
X23531Y3950
X23531Y2950
X24531Y7331
X24531Y6331
X24531Y3950
X24531Y2950
X25531Y7331
X25531Y6331
X25531Y3950
X25531Y2950
X26531Y7331
X26531Y6331
X26531Y3950
X26531Y2950
X27531Y7331
X27531Y6331
X27531Y3950
X27531Y2950
X28531Y7331
X28531Y6331
X28531Y3950
X28531Y2950
X29531Y7331
X29531Y6331
X29531Y3950
X29531Y2950
X30531Y7331
X30531Y6331
X30531Y3950
X30531Y2950
X31531Y7331
X31531Y6331
X31531Y3950
X31531Y2950
X32531Y7331
X32531Y6331
X32531Y3950
X32531Y2950
X33531Y7331
X33531Y6331
X33531Y3950
X33531Y2950
X39818Y7331
X39818Y6331
X39818Y3950
X39818Y2950
X40818Y7331
X40818Y6331
X40818Y3950
X40818Y2950
X41818Y7331
X41818Y6331
X41818Y3950
X41818Y2950
X42818Y7331
X42818Y6331
X42818Y3950
X42818Y2950
X43818Y7331
X43818Y6331
X43818Y3950
X43818Y2950
X44818Y7331
X44818Y6331
X44818Y3950
X44818Y2950
X45818Y7331
X45818Y6331
X45818Y3950
X45818Y2950
X46818Y7331
X46818Y6331
X46818Y3950
X46818Y2950
X22035Y26611
X23035Y26611
X24035Y26611
T06
X8306Y5233
X10137Y7331
X10137Y4131
X11279Y5048
X12420Y7331
X12420Y4131
X49901Y7331
X49901Y4131
X51043Y5048
X52184Y7331
X52184Y4131
X53365Y5048
X54507Y7331
X54507Y4131
X56259Y5233
T07
X7342Y2162
X36672Y2162
X57224Y2162
M30
