G75*
G70*
%OFA0B0*%
%FSLAX25Y25*%
%IPPOS*%
%LPD*%
%AMOC8*
5,1,8,0,0,1.08239X$1,22.5*
%
%ADD77C,0.00787*%
X0000000Y0000000D02*
%LPD*%
G01*
D77*
X0102520Y0464567D02*
X0057815Y0456693D01*
X0595040Y0015197D02*
X0595040Y0005568D01*
X0636615Y0149016D02*
G75*
G02*
X0636615Y0160827I-000001J0005906D01*
G01*
X0015197Y0050630D02*
G75*
G02*
X0050630Y0015197I0000000J-035433D01*
G01*
X0587796Y0456693D02*
X0587796Y0432252D01*
X0605512Y0414764D02*
G75*
G02*
X0587796Y0432252I0000185J0017905D01*
G01*
X0009056Y0149016D02*
X0000001Y0149016D01*
X0057875Y0432725D02*
G75*
G02*
X0039815Y0414764I-017989J0000028D01*
G01*
X0645670Y0409196D02*
X0645670Y0160827D01*
X0630473Y0050630D02*
X0640102Y0050630D01*
X0056198Y0000000D02*
X0589472Y0000000D01*
X0005568Y0414764D02*
X0039815Y0414764D01*
X0636615Y0160827D02*
X0645670Y0160827D01*
X0057815Y0456693D02*
X0057875Y0432725D01*
X0102520Y0464567D02*
X0543150Y0464567D01*
X0000001Y0409196D02*
X0000001Y0160827D01*
X0595040Y0005568D02*
X0589472Y0000000D01*
X0000001Y0149016D02*
X0000001Y0056198D01*
X0050630Y0005568D02*
X0056198Y0000000D01*
X0636615Y0149016D02*
X0645670Y0149016D01*
X0543150Y0464567D02*
X0587796Y0456693D01*
X0000000Y0056198D02*
X0005568Y0050630D01*
X0015197Y0050630D02*
X0005568Y0050630D01*
X0009056Y0160827D02*
X0000001Y0160827D01*
X0000001Y0409196D02*
X0005568Y0414764D01*
X0595040Y0015197D02*
G75*
G02*
X0630473Y0050630I0035433J0000000D01*
G01*
X0645670Y0056198D02*
X0640102Y0050630D01*
X0050630Y0015197D02*
X0050630Y0005568D01*
X0009056Y0160827D02*
G75*
G02*
X0009056Y0149016I0000000J-005906D01*
G01*
X0645670Y0149016D02*
X0645670Y0056198D01*
X0645670Y0409196D02*
X0640102Y0414764D01*
X0640102Y0414764D02*
X0605512Y0414764D01*
X0540551Y0101181D02*
G01*
G75*
X0476260Y0109646D02*
G01*
G75*
X0565354Y0291142D02*
G01*
G75*
X0565354Y0247638D02*
G01*
G75*
X0426575Y0127559D02*
G01*
G75*
X0426575Y0187992D02*
G01*
G75*
X0426575Y0094738D02*
G01*
G75*
X0565354Y0203346D02*
G01*
G75*
M02*
