M48
INCH,TZ
T01C0.011800
T02C0.029550
T03C0.032750
T04C0.039200
T05C0.043300
T06C0.086600
T07C0.145700
%
T01
X47977Y37458
X48007Y36060
X48095Y37960
X48440Y37753
X12018Y16516
X12411Y16516
X12805Y16516
X13199Y16516
X14126Y26985
X14526Y26985
X15423Y26985
X15817Y26985
X16211Y26985
X17943Y17500
X17943Y17146
X19419Y23957
X19734Y23957
X20049Y23957
X20364Y23957
X20679Y23957
X20994Y23957
X21309Y23957
X21309Y23642
X21368Y17500
X21368Y17126
X21368Y16752
X22874Y22249
X23346Y22249
X23819Y22249
X24291Y22249
X25417Y16570
X25811Y16570
X26880Y22323
X27352Y22323
X27825Y22323
X28297Y22323
X29423Y16644
X29817Y16644
X30010Y41417
X30010Y39567
X30010Y39016
X30010Y37165
X30010Y36850
X30010Y35827
X30010Y35433
X30010Y35039
X30010Y34646
X30010Y34252
X30010Y33858
X30010Y33465
X30010Y33071
X30010Y28858
X30010Y28465
X30167Y27480
X31112Y27480
X31585Y27480
X32057Y27480
X32530Y27480
X32923Y41417
X33002Y27480
X33317Y41417
X33474Y27480
X33947Y27480
X34380Y41417
X34419Y27480
X34892Y27480
X35364Y27480
X35837Y27480
X36073Y41417
X36309Y27480
X36388Y41417
X36703Y41417
X36781Y27480
X37018Y41417
X37254Y27480
X37333Y41417
X37648Y41417
X37726Y27480
X37963Y41417
X38199Y27480
X38278Y41417
X38593Y41417
X38671Y27480
X39144Y27480
X39537Y41417
X39616Y27480
X39852Y41417
X40089Y27480
X40167Y41417
X40482Y41417
X40561Y27480
X40797Y41417
X41112Y41417
X41427Y41417
X41742Y41417
X42057Y41417
X42372Y41417
X42687Y41417
X43002Y41417
X43159Y36142
X43159Y30039
X43159Y38583
X43159Y38268
X43159Y37953
X43159Y37638
X43159Y37323
X43159Y37008
X43159Y36457
X43159Y35827
X43159Y35512
X43159Y35197
X43159Y34882
X43159Y34567
X43159Y34252
X43159Y33937
X43159Y33622
X43159Y33307
X43159Y32992
X43159Y32677
X43159Y32362
X43159Y32047
X43159Y31732
X45315Y33809
X45315Y33415
X50797Y35043
X51069Y34407
X50855Y34022
X51496Y33593
X51536Y33257
X51339Y32667
X51063Y32411
X50945Y31880
X51339Y31584
X51536Y32076
X51536Y30895
X51536Y29320
X51063Y29340
X49952Y29048
X48905Y29073
X48583Y29361
X47530Y29436
X46418Y29320
X45630Y29320
X46103Y30324
X46748Y30330
X46688Y31576
X46221Y31486
X46053Y31966
X45630Y31683
X46052Y32851
X45356Y33023
X45315Y33415
X45315Y33809
X45997Y33715
X46307Y34204
X45920Y34521
X46317Y34951
X46706Y34572
X46781Y33848
X46733Y33415
X48049Y34400
X48049Y35029
X48968Y35043
X49823Y35043
X49600Y34401
X49016Y33376
X48623Y31929
X49370Y31880
X48937Y31370
X48348Y30372
X47402Y28415
X46470Y28348
X46024Y28730
X45630Y28139
X46457Y27352
X48456Y27184
X48498Y27590
X49285Y27600
X49550Y28003
X50987Y27926
X50578Y28561
X51418Y28794
X17949Y16605
X18101Y16858
X17943Y17145
X17943Y17500
X18945Y17166
X19219Y17061
X19462Y17274
X18912Y16761
X20391Y17501
X21368Y17500
X21368Y17126
X21368Y16752
X28671Y16634
X27025Y16661
X27854Y16683
X30378Y17405
X29621Y17414
X28842Y17440
X27013Y17488
X27945Y17490
X28647Y17662
X27041Y17836
X30250Y17923
X28935Y17953
X30384Y18228
X26850Y18284
X28397Y18361
X29643Y18372
X27322Y18526
X28333Y18649
X28356Y18943
X27955Y19185
X28761Y19317
X28435Y19370
X29153Y19380
X30236Y19400
X29864Y19450
X29514Y19490
X28856Y19711
X30384Y20020
X28809Y20089
X28385Y20403
X28671Y20522
X29175Y20620
X27712Y20642
X30224Y20685
X28415Y20708
X27041Y20777
X27100Y21073
X28370Y21256
X26871Y21268
X29744Y21595
X29752Y22071
X29921Y22313
X29508Y22323
X30403Y22339
X29423Y16644
X29817Y16644
X26880Y22323
X27352Y22323
X27824Y22323
X28297Y22323
X24311Y16698
X26279Y16698
X22972Y16737
X24389Y17564
X25452Y17721
X26279Y17839
X22972Y18076
X23878Y18469
X24862Y18509
X25492Y19060
X26279Y19099
X22972Y19493
X23681Y19729
X26279Y19808
X24372Y19894
X25925Y20320
X25059Y20831
X26004Y21068
X22972Y21225
X26279Y21540
X23797Y21858
X24665Y22131
X26004Y22131
X25417Y16570
X25811Y16570
X22874Y22249
X23346Y22249
X23818Y22249
X24291Y22249
X13750Y27048
X16680Y26973
X15010Y26929
X11644Y26929
X11834Y26696
X13114Y26640
X13425Y26640
X16448Y26486
X14857Y26258
X15555Y26166
X12927Y26103
X11994Y25966
X11722Y25674
X16762Y25571
X16125Y25525
X15748Y25483
X14441Y25408
X13204Y25404
X11683Y25128
X13769Y25047
X12480Y24922
X14429Y24862
X15476Y24853
X13719Y24744
X11644Y24646
X16767Y23849
X12451Y23681
X14256Y23391
X15195Y23161
X13695Y23160
X14488Y23159
X14731Y22953
X11545Y22933
X14390Y22875
X15767Y22568
X13632Y22360
X15716Y22271
X11575Y22146
X15069Y22130
X15722Y21961
X12289Y21943
X13671Y21870
X14671Y21811
X15346Y21658
X12372Y21654
X13105Y21353
X16071Y21335
X16372Y21327
X11565Y20955
X16203Y20748
X16788Y20723
X15904Y20714
X16569Y20457
X14927Y20319
X14080Y20273
X13567Y20203
X12667Y20203
X12366Y20203
X12065Y20203
X11764Y20203
X13159Y20199
X14695Y19823
X14478Y19567
X11523Y17492
X13272Y17275
X16525Y17235
X16112Y17087
X13179Y16988
X15531Y16949
X15256Y16949
X14980Y16949
X16092Y16772
X11516Y16752
X15531Y16644
X15256Y16644
X16506Y16447
X16211Y26985
X15817Y26985
X15423Y26985
X14525Y26985
X14125Y26985
X13199Y16516
X12805Y16516
X12411Y16516
X12018Y16516
X30168Y27480
X30644Y27511
X30876Y27701
X31112Y27480
X31349Y27681
X31585Y27480
X31821Y27681
X32057Y27480
X32294Y27681
X32530Y27480
X32766Y27681
X33002Y27480
X33238Y27681
X33475Y27480
X33711Y27681
X33947Y27480
X34183Y27681
X34420Y27480
X34656Y27681
X34892Y27480
X35128Y27681
X35364Y27480
X35601Y27681
X35837Y27480
X36073Y27681
X36309Y27480
X36546Y27681
X36782Y27480
X37018Y27681
X37254Y27480
X37490Y27681
X37727Y27480
X37963Y27681
X38199Y27480
X38435Y27681
X38672Y27480
X38908Y27681
X39144Y27480
X39380Y27681
X39616Y27480
X39853Y27681
X40089Y27480
X40325Y27681
X40561Y27480
X40876Y27638
X40869Y28173
X40442Y28367
X39991Y28377
X39549Y28384
X39076Y28382
X38571Y29429
X38261Y29429
X38014Y28956
X37416Y29159
X37120Y29168
X37277Y29439
X37394Y30121
X37139Y30389
X37042Y30930
X37481Y30930
X37941Y30810
X37941Y31142
X37941Y31437
X37935Y31728
X38265Y32412
X38810Y32408
X38672Y32992
X38042Y32913
X37972Y33745
X37957Y34131
X37609Y33937
X37375Y33737
X37118Y34170
X36425Y34471
X35827Y34488
X35480Y34192
X34705Y34367
X34723Y33812
X34713Y33265
X34005Y33392
X34050Y34191
X34024Y34956
X34002Y35766
X34705Y35806
X34705Y35521
X34705Y35236
X34705Y36107
X35493Y36423
X35480Y36708
X35448Y37006
X35498Y37488
X35902Y37539
X36532Y38017
X36909Y38005
X37845Y38149
X38170Y37549
X38378Y37752
X38360Y37225
X38718Y37178
X38167Y36994
X37961Y35851
X37738Y35622
X37692Y34939
X37401Y34928
X37888Y34720
X38557Y34720
X39423Y34531
X39617Y34317
X39821Y34113
X40023Y33911
X40020Y34724
X39573Y35189
X39560Y35890
X39936Y35792
X39813Y36260
X39611Y36797
X39851Y37023
X40045Y37421
X39853Y37677
X39752Y38060
X39712Y38366
X40010Y38268
X40514Y38066
X40570Y37765
X40514Y37203
X40661Y36958
X40404Y36575
X40386Y36084
X41614Y35692
X41924Y35378
X41742Y35157
X41707Y34637
X43160Y34567
X43160Y34882
X43160Y35197
X43160Y35512
X43160Y35827
X43160Y36142
X43160Y36456
X43021Y36734
X43160Y37008
X43160Y37323
X43160Y37638
X43160Y37953
X43160Y38268
X43160Y38582
X42803Y38670
X43020Y38914
X42711Y39616
X42707Y40551
X42334Y40595
X42332Y40310
X41959Y40551
X42057Y41417
X41742Y41417
X41427Y41417
X41112Y41417
X40798Y41417
X40483Y41417
X40168Y41417
X39853Y41417
X39538Y41417
X38947Y41220
X38593Y41417
X38278Y41417
X37963Y41417
X37648Y41417
X37333Y41417
X37018Y41417
X36703Y41417
X36388Y41417
X36073Y41417
X35561Y41378
X35655Y40723
X35257Y40687
X34912Y40732
X34633Y40430
X34691Y41185
X34380Y41417
X33317Y41417
X32923Y41417
X32562Y41393
X32570Y40930
X32340Y40485
X32259Y39612
X31819Y39835
X33005Y40147
X33468Y40466
X33425Y39615
X33868Y39567
X34353Y39139
X34361Y38854
X34429Y38494
X34432Y38198
X33702Y38297
X33711Y37913
X33702Y37588
X34041Y37260
X33702Y36880
X33718Y36528
X33698Y36233
X34015Y36551
X33020Y36979
X33017Y37423
X31841Y37279
X31861Y36758
X31860Y36369
X32685Y35904
X32985Y35943
X33008Y35490
X33008Y35203
X33008Y34916
X33008Y34500
X33008Y34214
X33026Y33790
X33026Y33482
X33026Y33193
X33250Y32453
X33530Y32358
X33842Y31963
X33544Y31643
X33544Y31077
X33537Y30791
X33628Y30130
X33425Y29385
X33593Y29153
X33293Y29118
X32668Y28954
X32372Y28954
X31746Y29159
X31460Y29159
X31624Y29442
X31728Y30118
X31569Y30387
X31389Y30964
X31865Y30964
X32351Y30810
X32351Y31142
X32351Y31437
X32344Y31728
X31581Y31950
X31585Y32327
X30782Y32335
X30809Y32001
X30514Y32433
X30035Y32476
X30010Y33071
X30010Y33464
X30010Y33858
X30010Y34252
X30010Y34645
X30010Y35039
X30010Y35433
X30010Y35827
X30049Y36456
X30010Y36850
X30010Y37165
X30010Y37539
X30138Y38022
X30049Y38386
X30010Y39016
X30294Y39126
X30010Y39567
X30031Y40729
X30010Y41417
X31034Y38149
X31160Y37854
X32029Y38339
X34021Y38631
X34898Y39079
X35030Y39468
X35368Y39397
X35791Y39075
X36231Y38976
X36972Y39054
X37500Y39990
X37640Y40269
X37711Y40576
X37973Y39886
X38804Y39915
X38996Y40240
X39740Y39894
X39666Y39046
X39960Y39046
X40251Y39046
X41437Y39104
X41467Y39567
X41192Y40098
X41166Y41002
X40056Y41129
X42372Y41417
X42687Y41417
X43002Y41417
X41808Y38513
X41652Y38274
X41880Y37982
X42097Y37555
X41656Y37557
X41558Y36873
X42074Y36584
X42350Y37138
X42361Y35929
X43160Y34252
X43160Y33937
X43160Y33622
X43160Y33307
X43160Y32992
X43160Y32677
X43160Y32362
X43160Y32047
X43160Y31732
X42641Y31118
X43081Y30512
X43160Y30039
X42589Y29441
X42589Y29122
X42589Y28804
X42589Y28486
X42589Y28167
X42225Y27841
X42943Y27798
X41347Y28629
X41480Y29208
X40916Y30118
X40683Y30822
X40697Y31142
X40692Y31430
X40691Y31728
X39904Y31950
X39895Y32363
X39385Y31978
X39095Y31762
X39095Y31189
X39132Y30803
X39736Y30937
X40236Y30930
X39896Y30384
X40017Y29718
X39700Y29718
X39354Y29718
X40364Y29707
X38553Y30118
X36337Y30803
X36339Y31202
X36339Y31641
X36421Y32025
X37148Y32003
X37097Y32285
X35955Y32417
X35631Y32425
X35609Y32917
X35199Y32637
X35128Y31808
X35151Y31437
X35138Y31142
X35128Y30642
X34833Y30905
X34164Y30950
X34364Y30408
X34293Y29532
X34524Y28952
X35234Y29159
X35526Y29159
X35384Y29449
X35507Y30118
X36153Y28998
X36481Y28947
X34486Y31956
X34287Y32362
X32674Y32412
X32140Y33031
X32140Y33792
X32140Y34553
X32141Y35315
X35824Y35262
X35620Y35587
X35782Y36475
X34703Y37575
X35502Y40198
X35946Y40102
X36039Y39832
X36242Y40195
X38748Y38853
X38806Y38570
X40379Y33037
X40758Y33386
X41845Y33241
X41796Y32512
X41484Y32544
X41021Y32412
X42556Y32719
X36234Y33774
X30748Y31230
X30786Y30765
X30504Y30443
X30013Y30404
X30611Y29852
X30345Y29540
X30010Y28858
X30010Y28464
X30030Y27879
X30601Y28071
X30798Y28954
X30138Y31762
X48440Y37753
X48096Y37960
X47977Y37458
X48007Y36060
X17730Y23835
X19187Y23677
X21214Y22772
X18180Y22755
X19738Y22378
X19074Y22340
X21195Y21984
X17691Y21984
X20447Y21945
X18321Y21945
X21214Y21236
X20447Y21236
X19738Y21236
X19029Y21236
X18321Y21236
X19738Y20528
X17691Y20488
X19029Y20095
X18321Y20095
X20807Y19664
X21116Y19662
X20644Y19347
X21195Y19032
X18084Y18992
X19581Y18894
X17730Y18874
X20683Y18835
X21313Y23953
X20998Y23953
X20683Y23953
X20368Y23953
X20053Y23953
X19738Y23953
X19423Y23953
X21313Y23638
T02
X17687Y23327
X17687Y22854
X17687Y19626
X21230Y20492
X44459Y40404
X44459Y39774
X44459Y39144
X45148Y40089
X45148Y39459
X45059Y41211G85X44547Y41211
X45059Y38337G85X44547Y38337
X17691Y23323
X17691Y22851
X21234Y20488
X17691Y19622
T03
X18642Y26132
X20571Y26132
X44409Y37098
X44409Y35598
X52087Y18632
X52087Y16703
X53071Y18632
X53071Y16703
X47362Y40561
X48346Y40561
X49331Y40561
X50315Y40561
X51299Y40561
X36105Y32775
X37683Y32775
X39105Y32775
T04
X1024Y38031
X1024Y33750
X1024Y28406
X1024Y24094
X1024Y20197
X1024Y16053
X1024Y12106
X1024Y8406
X1083Y5719
X6280Y45266
X10561Y45266
X14744Y45266
X19242Y45266
X23888Y45266
X27933Y45266
X32215Y45276
X36398Y45276
X40896Y45276
X45039Y45256
X49587Y45276
X53730Y45256
X58278Y45276
X63346Y38612
X63346Y34331
X63346Y28986
X63346Y24675
X63346Y20778
X63346Y16634
X63346Y12687
X63346Y8986
X63346Y5846
X45492Y34931
X45492Y32470
X45492Y30778
X45492Y30030
X45492Y27510
X51594Y34754
X51594Y30010
X51594Y28061
X51594Y27333
X51595Y34754
X51595Y30009
X45492Y30029
X45492Y30777
X45492Y32470
X45492Y34931
X45492Y27509
X51595Y27332
X51595Y28061
X12529Y19662
X13711Y18874
X12529Y18087
X12451Y26788
X12851Y24788
X12051Y24788
X30325Y41102
X39404Y40131
X39404Y40931
X41404Y40531
T05
X15531Y7331
X15531Y6331
X15531Y3950
X15531Y2950
X16531Y7331
X16531Y6331
X16531Y3950
X16531Y2950
X17531Y7331
X17531Y6331
X17531Y3950
X17531Y2950
X18531Y7331
X18531Y6331
X18531Y3950
X18531Y2950
X19531Y7331
X19531Y6331
X19531Y3950
X19531Y2950
X20531Y7331
X20531Y6331
X20531Y3950
X20531Y2950
X21531Y7331
X21531Y6331
X21531Y3950
X21531Y2950
X22531Y7331
X22531Y6331
X22531Y3950
X22531Y2950
X23531Y7331
X23531Y6331
X23531Y3950
X23531Y2950
X24531Y7331
X24531Y6331
X24531Y3950
X24531Y2950
X25531Y7331
X25531Y6331
X25531Y3950
X25531Y2950
X26531Y7331
X26531Y6331
X26531Y3950
X26531Y2950
X27531Y7331
X27531Y6331
X27531Y3950
X27531Y2950
X28531Y7331
X28531Y6331
X28531Y3950
X28531Y2950
X29531Y7331
X29531Y6331
X29531Y3950
X29531Y2950
X30531Y7331
X30531Y6331
X30531Y3950
X30531Y2950
X31531Y7331
X31531Y6331
X31531Y3950
X31531Y2950
X32531Y7331
X32531Y6331
X32531Y3950
X32531Y2950
X33531Y7331
X33531Y6331
X33531Y3950
X33531Y2950
X39818Y7331
X39818Y6331
X39818Y3950
X39818Y2950
X40818Y7331
X40818Y6331
X40818Y3950
X40818Y2950
X41818Y7331
X41818Y6331
X41818Y3950
X41818Y2950
X42818Y7331
X42818Y6331
X42818Y3950
X42818Y2950
X43818Y7331
X43818Y6331
X43818Y3950
X43818Y2950
X44818Y7331
X44818Y6331
X44818Y3950
X44818Y2950
X45818Y7331
X45818Y6331
X45818Y3950
X45818Y2950
X46818Y7331
X46818Y6331
X46818Y3950
X46818Y2950
X16338Y19839
X16338Y18839
X16338Y17839
T06
X8306Y5233
X10137Y7331
X10137Y4131
X11279Y5048
X12420Y7331
X12420Y4131
X49901Y7331
X49901Y4131
X51043Y5048
X52184Y7331
X52184Y4131
X53365Y5048
X54507Y7331
X54507Y4131
X56259Y5233
T07
X7342Y2162
X36672Y2162
X57224Y2162
M30
