G75*
G70*
%OFA0B0*%
%FSLAX25Y25*%
%IPPOS*%
%LPD*%
%AMOC8*
5,1,8,0,0,1.08239X$1,22.5*
%
%AMM1*
21,1,0.086610,0.073230,0.000000,0.000000,270.000000*
21,1,0.069290,0.090550,0.000000,0.000000,270.000000*
1,1,0.017320,-0.036610,-0.034650*
1,1,0.017320,-0.036610,0.034650*
1,1,0.017320,0.036610,0.034650*
1,1,0.017320,0.036610,-0.034650*
%
%AMM10*
21,1,0.015750,0.016540,0.000000,0.000000,270.000000*
21,1,0.012600,0.019680,0.000000,0.000000,270.000000*
1,1,0.003150,-0.008270,-0.006300*
1,1,0.003150,-0.008270,0.006300*
1,1,0.003150,0.008270,0.006300*
1,1,0.003150,0.008270,-0.006300*
%
%AMM11*
21,1,0.023620,0.018900,0.000000,0.000000,90.000000*
21,1,0.018900,0.023620,0.000000,0.000000,90.000000*
1,1,0.004720,0.009450,0.009450*
1,1,0.004720,0.009450,-0.009450*
1,1,0.004720,-0.009450,-0.009450*
1,1,0.004720,-0.009450,0.009450*
%
%AMM12*
21,1,0.019680,0.019680,0.000000,0.000000,0.000000*
21,1,0.015750,0.023620,0.000000,0.000000,0.000000*
1,1,0.003940,0.007870,-0.009840*
1,1,0.003940,-0.007870,-0.009840*
1,1,0.003940,-0.007870,0.009840*
1,1,0.003940,0.007870,0.009840*
%
%AMM13*
21,1,0.019680,0.019680,0.000000,0.000000,270.000000*
21,1,0.015750,0.023620,0.000000,0.000000,270.000000*
1,1,0.003940,-0.009840,-0.007870*
1,1,0.003940,-0.009840,0.007870*
1,1,0.003940,0.009840,0.007870*
1,1,0.003940,0.009840,-0.007870*
%
%AMM2*
21,1,0.094490,0.111020,0.000000,0.000000,0.000000*
21,1,0.075590,0.129920,0.000000,0.000000,0.000000*
1,1,0.018900,0.037800,-0.055510*
1,1,0.018900,-0.037800,-0.055510*
1,1,0.018900,-0.037800,0.055510*
1,1,0.018900,0.037800,0.055510*
%
%AMM3*
21,1,0.074800,0.083460,0.000000,0.000000,0.000000*
21,1,0.059840,0.098430,0.000000,0.000000,0.000000*
1,1,0.014960,0.029920,-0.041730*
1,1,0.014960,-0.029920,-0.041730*
1,1,0.014960,-0.029920,0.041730*
1,1,0.014960,0.029920,0.041730*
%
%AMM39*
21,1,0.025590,0.026380,0.000000,0.000000,270.000000*
21,1,0.020470,0.031500,0.000000,0.000000,270.000000*
1,1,0.005120,-0.013190,-0.010240*
1,1,0.005120,-0.013190,0.010240*
1,1,0.005120,0.013190,0.010240*
1,1,0.005120,0.013190,-0.010240*
%
%AMM4*
21,1,0.078740,0.053540,0.000000,0.000000,180.000000*
21,1,0.065350,0.066930,0.000000,0.000000,180.000000*
1,1,0.013390,-0.032680,0.026770*
1,1,0.013390,0.032680,0.026770*
1,1,0.013390,0.032680,-0.026770*
1,1,0.013390,-0.032680,-0.026770*
%
%AMM40*
21,1,0.017720,0.027950,0.000000,0.000000,270.000000*
21,1,0.014170,0.031500,0.000000,0.000000,270.000000*
1,1,0.003540,-0.013980,-0.007090*
1,1,0.003540,-0.013980,0.007090*
1,1,0.003540,0.013980,0.007090*
1,1,0.003540,0.013980,-0.007090*
%
%AMM41*
21,1,0.012600,0.028980,0.000000,0.000000,90.000000*
21,1,0.010080,0.031500,0.000000,0.000000,90.000000*
1,1,0.002520,0.014490,0.005040*
1,1,0.002520,0.014490,-0.005040*
1,1,0.002520,-0.014490,-0.005040*
1,1,0.002520,-0.014490,0.005040*
%
%AMM42*
21,1,0.023620,0.030710,0.000000,0.000000,180.000000*
21,1,0.018900,0.035430,0.000000,0.000000,180.000000*
1,1,0.004720,-0.009450,0.015350*
1,1,0.004720,0.009450,0.015350*
1,1,0.004720,0.009450,-0.015350*
1,1,0.004720,-0.009450,-0.015350*
%
%AMM43*
21,1,0.027560,0.018900,0.000000,0.000000,90.000000*
21,1,0.022840,0.023620,0.000000,0.000000,90.000000*
1,1,0.004720,0.009450,0.011420*
1,1,0.004720,0.009450,-0.011420*
1,1,0.004720,-0.009450,-0.011420*
1,1,0.004720,-0.009450,0.011420*
%
%AMM44*
21,1,0.031500,0.072440,0.000000,0.000000,90.000000*
21,1,0.025200,0.078740,0.000000,0.000000,90.000000*
1,1,0.006300,0.036220,0.012600*
1,1,0.006300,0.036220,-0.012600*
1,1,0.006300,-0.036220,-0.012600*
1,1,0.006300,-0.036220,0.012600*
%
%AMM45*
21,1,0.027560,0.018900,0.000000,0.000000,180.000000*
21,1,0.022840,0.023620,0.000000,0.000000,180.000000*
1,1,0.004720,-0.011420,0.009450*
1,1,0.004720,0.011420,0.009450*
1,1,0.004720,0.011420,-0.009450*
1,1,0.004720,-0.011420,-0.009450*
%
%AMM46*
21,1,0.023620,0.030710,0.000000,0.000000,270.000000*
21,1,0.018900,0.035430,0.000000,0.000000,270.000000*
1,1,0.004720,-0.015350,-0.009450*
1,1,0.004720,-0.015350,0.009450*
1,1,0.004720,0.015350,0.009450*
1,1,0.004720,0.015350,-0.009450*
%
%AMM47*
21,1,0.035430,0.030320,0.000000,0.000000,270.000000*
21,1,0.028350,0.037400,0.000000,0.000000,270.000000*
1,1,0.007090,-0.015160,-0.014170*
1,1,0.007090,-0.015160,0.014170*
1,1,0.007090,0.015160,0.014170*
1,1,0.007090,0.015160,-0.014170*
%
%AMM48*
21,1,0.043310,0.075980,0.000000,0.000000,0.000000*
21,1,0.034650,0.084650,0.000000,0.000000,0.000000*
1,1,0.008660,0.017320,-0.037990*
1,1,0.008660,-0.017320,-0.037990*
1,1,0.008660,-0.017320,0.037990*
1,1,0.008660,0.017320,0.037990*
%
%AMM49*
21,1,0.039370,0.035430,0.000000,0.000000,0.000000*
21,1,0.031500,0.043310,0.000000,0.000000,0.000000*
1,1,0.007870,0.015750,-0.017720*
1,1,0.007870,-0.015750,-0.017720*
1,1,0.007870,-0.015750,0.017720*
1,1,0.007870,0.015750,0.017720*
%
%AMM5*
21,1,0.035430,0.030320,0.000000,0.000000,90.000000*
21,1,0.028350,0.037400,0.000000,0.000000,90.000000*
1,1,0.007090,0.015160,0.014170*
1,1,0.007090,0.015160,-0.014170*
1,1,0.007090,-0.015160,-0.014170*
1,1,0.007090,-0.015160,0.014170*
%
%AMM50*
21,1,0.027560,0.030710,0.000000,0.000000,0.000000*
21,1,0.022050,0.036220,0.000000,0.000000,0.000000*
1,1,0.005510,0.011020,-0.015350*
1,1,0.005510,-0.011020,-0.015350*
1,1,0.005510,-0.011020,0.015350*
1,1,0.005510,0.011020,0.015350*
%
%AMM51*
21,1,0.031500,0.072440,0.000000,0.000000,0.000000*
21,1,0.025200,0.078740,0.000000,0.000000,0.000000*
1,1,0.006300,0.012600,-0.036220*
1,1,0.006300,-0.012600,-0.036220*
1,1,0.006300,-0.012600,0.036220*
1,1,0.006300,0.012600,0.036220*
%
%AMM52*
21,1,0.137800,0.067720,0.000000,0.000000,0.000000*
21,1,0.120870,0.084650,0.000000,0.000000,0.000000*
1,1,0.016930,0.060430,-0.033860*
1,1,0.016930,-0.060430,-0.033860*
1,1,0.016930,-0.060430,0.033860*
1,1,0.016930,0.060430,0.033860*
%
%AMM53*
21,1,0.043310,0.075990,0.000000,0.000000,0.000000*
21,1,0.034650,0.084650,0.000000,0.000000,0.000000*
1,1,0.008660,0.017320,-0.037990*
1,1,0.008660,-0.017320,-0.037990*
1,1,0.008660,-0.017320,0.037990*
1,1,0.008660,0.017320,0.037990*
%
%AMM54*
21,1,0.086610,0.073230,0.000000,0.000000,90.000000*
21,1,0.069290,0.090550,0.000000,0.000000,90.000000*
1,1,0.017320,0.036610,0.034650*
1,1,0.017320,0.036610,-0.034650*
1,1,0.017320,-0.036610,-0.034650*
1,1,0.017320,-0.036610,0.034650*
%
%AMM6*
21,1,0.021650,0.052760,0.000000,0.000000,270.000000*
21,1,0.017320,0.057090,0.000000,0.000000,270.000000*
1,1,0.004330,-0.026380,-0.008660*
1,1,0.004330,-0.026380,0.008660*
1,1,0.004330,0.026380,0.008660*
1,1,0.004330,0.026380,-0.008660*
%
%AMM7*
21,1,0.035830,0.026770,0.000000,0.000000,0.000000*
21,1,0.029130,0.033470,0.000000,0.000000,0.000000*
1,1,0.006690,0.014570,-0.013390*
1,1,0.006690,-0.014570,-0.013390*
1,1,0.006690,-0.014570,0.013390*
1,1,0.006690,0.014570,0.013390*
%
%AMM76*
21,1,0.035430,0.030320,0.000000,0.000000,180.000000*
21,1,0.028350,0.037400,0.000000,0.000000,180.000000*
1,1,0.007090,-0.014170,0.015160*
1,1,0.007090,0.014170,0.015160*
1,1,0.007090,0.014170,-0.015160*
1,1,0.007090,-0.014170,-0.015160*
%
%AMM8*
21,1,0.070870,0.036220,0.000000,0.000000,90.000000*
21,1,0.061810,0.045280,0.000000,0.000000,90.000000*
1,1,0.009060,0.018110,0.030910*
1,1,0.009060,0.018110,-0.030910*
1,1,0.009060,-0.018110,-0.030910*
1,1,0.009060,-0.018110,0.030910*
%
%AMM9*
21,1,0.033470,0.026770,0.000000,0.000000,0.000000*
21,1,0.026770,0.033470,0.000000,0.000000,0.000000*
1,1,0.006690,0.013390,-0.013390*
1,1,0.006690,-0.013390,-0.013390*
1,1,0.006690,-0.013390,0.013390*
1,1,0.006690,0.013390,0.013390*
%
%AMM94*
21,1,0.027560,0.030710,0.000000,0.000000,180.000000*
21,1,0.022050,0.036220,0.000000,0.000000,180.000000*
1,1,0.005510,-0.011020,0.015350*
1,1,0.005510,0.011020,0.015350*
1,1,0.005510,0.011020,-0.015350*
1,1,0.005510,-0.011020,-0.015350*
%
%ADD132R,0.02559X0.01575*%
%ADD133R,0.01575X0.02559*%
%ADD135R,0.05512X0.01181*%
%ADD136R,0.03543X0.03150*%
%ADD137R,0.04724X0.08661*%
%ADD140R,0.03150X0.03543*%
%ADD146R,0.10827X0.12008*%
%ADD149M39*%
%ADD150M40*%
%ADD151M41*%
%ADD152O,0.04724X0.00866*%
%ADD153O,0.00866X0.04724*%
%ADD154O,0.04331X0.01181*%
%ADD155M42*%
%ADD156M43*%
%ADD157R,0.01378X0.00984*%
%ADD158R,0.00984X0.01378*%
%ADD159M44*%
%ADD160M45*%
%ADD161M46*%
%ADD162M47*%
%ADD163O,0.08661X0.02362*%
%ADD164M48*%
%ADD165M49*%
%ADD166M50*%
%ADD167M51*%
%ADD168M52*%
%ADD169M53*%
%ADD170M54*%
%ADD20C,0.02362*%
%ADD206M76*%
%ADD236M94*%
%ADD244R,0.07874X0.02559*%
%ADD246R,0.07677X0.04567*%
%ADD44R,0.00787X0.14567*%
%ADD45R,0.00787X0.01575*%
%ADD46R,0.00787X0.06299*%
%ADD47R,0.00787X0.38189*%
%ADD48R,0.00787X0.09055*%
%ADD49R,0.05512X0.00787*%
%ADD50R,0.25197X0.00787*%
%ADD51R,0.06693X0.00787*%
%ADD52R,0.12992X0.00787*%
%ADD53R,0.00787X0.27559*%
%ADD54R,0.00787X0.12992*%
%ADD55R,0.00787X0.24803*%
%ADD71O,0.00000X0.00000*%
%ADD84M1*%
%ADD85M2*%
%ADD86M3*%
%ADD87M4*%
%ADD88M5*%
%ADD89M6*%
%ADD90M7*%
%ADD91M8*%
%ADD92M9*%
%ADD93M10*%
%ADD94M11*%
%ADD95M12*%
%ADD96M13*%
%ADD98C,0.03150*%
X0000000Y0000000D02*
%LPD*%
G01*
G36*
G01*
X0064645Y0156437D02*
X0064645Y0159508D01*
G75*
G02*
X0064921Y0159783I0000276J0000000D01*
G01*
X0067126Y0159783D01*
G75*
G02*
X0067401Y0159508I0000000J-000276D01*
G01*
X0067401Y0156437D01*
G75*
G02*
X0067126Y0156161I-000276J0000000D01*
G01*
X0064921Y0156161D01*
G75*
G02*
X0064645Y0156437I0000000J0000276D01*
G01*
G37*
G36*
G01*
X0070944Y0156437D02*
X0070944Y0159508D01*
G75*
G02*
X0071220Y0159783I0000276J0000000D01*
G01*
X0073425Y0159783D01*
G75*
G02*
X0073700Y0159508I0000000J-000276D01*
G01*
X0073700Y0156437D01*
G75*
G02*
X0073425Y0156161I-000276J0000000D01*
G01*
X0071220Y0156161D01*
G75*
G02*
X0070944Y0156437I0000000J0000276D01*
G01*
G37*
G36*
G01*
X0361338Y0131432D02*
X0361338Y0133450D01*
G75*
G02*
X0362199Y0134311I0000861J0000000D01*
G01*
X0363922Y0134311D01*
G75*
G02*
X0364783Y0133450I0000000J-000861D01*
G01*
X0364783Y0131432D01*
G75*
G02*
X0363922Y0130571I-000861J0000000D01*
G01*
X0362199Y0130571D01*
G75*
G02*
X0361338Y0131432I0000000J0000861D01*
G01*
G37*
G36*
G01*
X0367539Y0131432D02*
X0367539Y0133450D01*
G75*
G02*
X0368400Y0134311I0000861J0000000D01*
G01*
X0370123Y0134311D01*
G75*
G02*
X0370984Y0133450I0000000J-000861D01*
G01*
X0370984Y0131432D01*
G75*
G02*
X0370123Y0130571I-000861J0000000D01*
G01*
X0368400Y0130571D01*
G75*
G02*
X0367539Y0131432I0000000J0000861D01*
G01*
G37*
D71*
X0449704Y0094344D03*
G36*
G01*
X0064645Y0141090D02*
X0064645Y0144161D01*
G75*
G02*
X0064921Y0144437I0000276J0000000D01*
G01*
X0067126Y0144437D01*
G75*
G02*
X0067401Y0144161I0000000J-000276D01*
G01*
X0067401Y0141090D01*
G75*
G02*
X0067126Y0140815I-000276J0000000D01*
G01*
X0064921Y0140815D01*
G75*
G02*
X0064645Y0141090I0000000J0000276D01*
G01*
G37*
G36*
G01*
X0070944Y0141090D02*
X0070944Y0144161D01*
G75*
G02*
X0071220Y0144437I0000276J0000000D01*
G01*
X0073425Y0144437D01*
G75*
G02*
X0073700Y0144161I0000000J-000276D01*
G01*
X0073700Y0141090D01*
G75*
G02*
X0073425Y0140815I-000276J0000000D01*
G01*
X0071220Y0140815D01*
G75*
G02*
X0070944Y0141090I0000000J0000276D01*
G01*
G37*
G36*
G01*
X0278110Y0153322D02*
X0278110Y0155340D01*
G75*
G02*
X0278971Y0156201I0000861J0000000D01*
G01*
X0280693Y0156201D01*
G75*
G02*
X0281555Y0155340I0000000J-000861D01*
G01*
X0281555Y0153322D01*
G75*
G02*
X0280693Y0152461I-000861J0000000D01*
G01*
X0278971Y0152461D01*
G75*
G02*
X0278110Y0153322I0000000J0000861D01*
G01*
G37*
G36*
G01*
X0284311Y0153322D02*
X0284311Y0155340D01*
G75*
G02*
X0285172Y0156201I0000861J0000000D01*
G01*
X0286894Y0156201D01*
G75*
G02*
X0287755Y0155340I0000000J-000861D01*
G01*
X0287755Y0153322D01*
G75*
G02*
X0286894Y0152461I-000861J0000000D01*
G01*
X0285172Y0152461D01*
G75*
G02*
X0284311Y0153322I0000000J0000861D01*
G01*
G37*
G36*
G01*
X0140748Y0236279D02*
X0140748Y0239350D01*
G75*
G02*
X0141023Y0239626I0000276J0000000D01*
G01*
X0143228Y0239626D01*
G75*
G02*
X0143503Y0239350I0000000J-000276D01*
G01*
X0143503Y0236279D01*
G75*
G02*
X0143228Y0236004I-000276J0000000D01*
G01*
X0141023Y0236004D01*
G75*
G02*
X0140748Y0236279I0000000J0000276D01*
G01*
G37*
G36*
G01*
X0147047Y0236279D02*
X0147047Y0239350D01*
G75*
G02*
X0147322Y0239626I0000276J0000000D01*
G01*
X0149527Y0239626D01*
G75*
G02*
X0149803Y0239350I0000000J-000276D01*
G01*
X0149803Y0236279D01*
G75*
G02*
X0149527Y0236004I-000276J0000000D01*
G01*
X0147322Y0236004D01*
G75*
G02*
X0147047Y0236279I0000000J0000276D01*
G01*
G37*
G36*
G01*
X0067007Y0220933D02*
X0067007Y0224004D01*
G75*
G02*
X0067283Y0224279I0000276J0000000D01*
G01*
X0069488Y0224279D01*
G75*
G02*
X0069763Y0224004I0000000J-000276D01*
G01*
X0069763Y0220933D01*
G75*
G02*
X0069488Y0220657I-000276J0000000D01*
G01*
X0067283Y0220657D01*
G75*
G02*
X0067007Y0220933I0000000J0000276D01*
G01*
G37*
G36*
G01*
X0073307Y0220933D02*
X0073307Y0224004D01*
G75*
G02*
X0073582Y0224279I0000276J0000000D01*
G01*
X0075787Y0224279D01*
G75*
G02*
X0076063Y0224004I0000000J-000276D01*
G01*
X0076063Y0220933D01*
G75*
G02*
X0075787Y0220657I-000276J0000000D01*
G01*
X0073582Y0220657D01*
G75*
G02*
X0073307Y0220933I0000000J0000276D01*
G01*
G37*
G36*
G01*
X0110767Y0242711D02*
X0108051Y0242711D01*
G75*
G02*
X0107145Y0243617I0000000J0000906D01*
G01*
X0107145Y0248893D01*
G75*
G02*
X0108051Y0249798I0000906J0000000D01*
G01*
X0110767Y0249798D01*
G75*
G02*
X0111673Y0248893I0000000J-000906D01*
G01*
X0111673Y0243617D01*
G75*
G02*
X0110767Y0242711I-000906J0000000D01*
G01*
G37*
G36*
G01*
X0122185Y0242711D02*
X0119468Y0242711D01*
G75*
G02*
X0118563Y0243617I0000000J0000906D01*
G01*
X0118563Y0248893D01*
G75*
G02*
X0119468Y0249798I0000906J0000000D01*
G01*
X0122185Y0249798D01*
G75*
G02*
X0123090Y0248893I0000000J-000906D01*
G01*
X0123090Y0243617D01*
G75*
G02*
X0122185Y0242711I-000906J0000000D01*
G01*
G37*
G36*
G01*
X0230255Y0179055D02*
X0230255Y0181811D01*
G75*
G02*
X0231240Y0182795I0000984J0000000D01*
G01*
X0237933Y0182795D01*
G75*
G02*
X0238917Y0181811I0000000J-000984D01*
G01*
X0238917Y0179055D01*
G75*
G02*
X0237933Y0178071I-000984J0000000D01*
G01*
X0231240Y0178071D01*
G75*
G02*
X0230255Y0179055I0000000J0000984D01*
G01*
G37*
G36*
G01*
X0246791Y0173031D02*
X0246791Y0181890D01*
G75*
G02*
X0247775Y0182874I0000984J0000000D01*
G01*
X0257815Y0182874D01*
G75*
G02*
X0258799Y0181890I0000000J-000984D01*
G01*
X0258799Y0173031D01*
G75*
G02*
X0257815Y0172047I-000984J0000000D01*
G01*
X0247775Y0172047D01*
G75*
G02*
X0246791Y0173031I0000000J0000984D01*
G01*
G37*
G36*
G01*
X0246791Y0161024D02*
X0246791Y0169882D01*
G75*
G02*
X0247775Y0170866I0000984J0000000D01*
G01*
X0257815Y0170866D01*
G75*
G02*
X0258799Y0169882I0000000J-000984D01*
G01*
X0258799Y0161024D01*
G75*
G02*
X0257815Y0160039I-000984J0000000D01*
G01*
X0247775Y0160039D01*
G75*
G02*
X0246791Y0161024I0000000J0000984D01*
G01*
G37*
G36*
G01*
X0259980Y0173031D02*
X0259980Y0181890D01*
G75*
G02*
X0260964Y0182874I0000984J0000000D01*
G01*
X0271003Y0182874D01*
G75*
G02*
X0271988Y0181890I0000000J-000984D01*
G01*
X0271988Y0173031D01*
G75*
G02*
X0271003Y0172047I-000984J0000000D01*
G01*
X0260964Y0172047D01*
G75*
G02*
X0259980Y0173031I0000000J0000984D01*
G01*
G37*
G36*
G01*
X0259980Y0161024D02*
X0259980Y0169882D01*
G75*
G02*
X0260964Y0170866I0000984J0000000D01*
G01*
X0271003Y0170866D01*
G75*
G02*
X0271988Y0169882I0000000J-000984D01*
G01*
X0271988Y0161024D01*
G75*
G02*
X0271003Y0160039I-000984J0000000D01*
G01*
X0260964Y0160039D01*
G75*
G02*
X0259980Y0161024I0000000J0000984D01*
G01*
G37*
G36*
G01*
X0230255Y0161102D02*
X0230255Y0163858D01*
G75*
G02*
X0231240Y0164842I0000984J0000000D01*
G01*
X0237933Y0164842D01*
G75*
G02*
X0238917Y0163858I0000000J-000984D01*
G01*
X0238917Y0161102D01*
G75*
G02*
X0237933Y0160118I-000984J0000000D01*
G01*
X0231240Y0160118D01*
G75*
G02*
X0230255Y0161102I0000000J0000984D01*
G01*
G37*
G36*
G01*
X0064645Y0179457D02*
X0064645Y0182528D01*
G75*
G02*
X0064921Y0182804I0000276J0000000D01*
G01*
X0067126Y0182804D01*
G75*
G02*
X0067401Y0182528I0000000J-000276D01*
G01*
X0067401Y0179457D01*
G75*
G02*
X0067126Y0179182I-000276J0000000D01*
G01*
X0064921Y0179182D01*
G75*
G02*
X0064645Y0179457I0000000J0000276D01*
G01*
G37*
G36*
G01*
X0070944Y0179457D02*
X0070944Y0182528D01*
G75*
G02*
X0071220Y0182804I0000276J0000000D01*
G01*
X0073425Y0182804D01*
G75*
G02*
X0073700Y0182528I0000000J-000276D01*
G01*
X0073700Y0179457D01*
G75*
G02*
X0073425Y0179182I-000276J0000000D01*
G01*
X0071220Y0179182D01*
G75*
G02*
X0070944Y0179457I0000000J0000276D01*
G01*
G37*
G36*
G01*
X0051653Y0217882D02*
X0051653Y0222803D01*
G75*
G02*
X0052047Y0223197I0000394J0000000D01*
G01*
X0055196Y0223197D01*
G75*
G02*
X0055590Y0222803I0000000J-000394D01*
G01*
X0055590Y0217882D01*
G75*
G02*
X0055196Y0217488I-000394J0000000D01*
G01*
X0052047Y0217488D01*
G75*
G02*
X0051653Y0217882I0000000J0000394D01*
G01*
G37*
G36*
G01*
X0059134Y0217882D02*
X0059134Y0222803D01*
G75*
G02*
X0059527Y0223197I0000394J0000000D01*
G01*
X0062677Y0223197D01*
G75*
G02*
X0063071Y0222803I0000000J-000394D01*
G01*
X0063071Y0217882D01*
G75*
G02*
X0062677Y0217488I-000394J0000000D01*
G01*
X0059527Y0217488D01*
G75*
G02*
X0059134Y0217882I0000000J0000394D01*
G01*
G37*
G36*
G01*
X0361338Y0141314D02*
X0361338Y0143332D01*
G75*
G02*
X0362199Y0144193I0000861J0000000D01*
G01*
X0363922Y0144193D01*
G75*
G02*
X0364783Y0143332I0000000J-000861D01*
G01*
X0364783Y0141314D01*
G75*
G02*
X0363922Y0140453I-000861J0000000D01*
G01*
X0362199Y0140453D01*
G75*
G02*
X0361338Y0141314I0000000J0000861D01*
G01*
G37*
G36*
G01*
X0367539Y0141314D02*
X0367539Y0143332D01*
G75*
G02*
X0368400Y0144193I0000861J0000000D01*
G01*
X0370123Y0144193D01*
G75*
G02*
X0370984Y0143332I0000000J-000861D01*
G01*
X0370984Y0141314D01*
G75*
G02*
X0370123Y0140453I-000861J0000000D01*
G01*
X0368400Y0140453D01*
G75*
G02*
X0367539Y0141314I0000000J0000861D01*
G01*
G37*
G36*
G01*
X0110767Y0254995D02*
X0108051Y0254995D01*
G75*
G02*
X0107145Y0255900I0000000J0000906D01*
G01*
X0107145Y0261176D01*
G75*
G02*
X0108051Y0262082I0000906J0000000D01*
G01*
X0110767Y0262082D01*
G75*
G02*
X0111673Y0261176I0000000J-000906D01*
G01*
X0111673Y0255900D01*
G75*
G02*
X0110767Y0254995I-000906J0000000D01*
G01*
G37*
G36*
G01*
X0122185Y0254995D02*
X0119468Y0254995D01*
G75*
G02*
X0118563Y0255900I0000000J0000906D01*
G01*
X0118563Y0261176D01*
G75*
G02*
X0119468Y0262082I0000906J0000000D01*
G01*
X0122185Y0262082D01*
G75*
G02*
X0123090Y0261176I0000000J-000906D01*
G01*
X0123090Y0255900D01*
G75*
G02*
X0122185Y0254995I-000906J0000000D01*
G01*
G37*
G36*
G01*
X0064645Y0164110D02*
X0064645Y0167181D01*
G75*
G02*
X0064921Y0167457I0000276J0000000D01*
G01*
X0067126Y0167457D01*
G75*
G02*
X0067401Y0167181I0000000J-000276D01*
G01*
X0067401Y0164110D01*
G75*
G02*
X0067126Y0163835I-000276J0000000D01*
G01*
X0064921Y0163835D01*
G75*
G02*
X0064645Y0164110I0000000J0000276D01*
G01*
G37*
G36*
G01*
X0070944Y0164110D02*
X0070944Y0167181D01*
G75*
G02*
X0071220Y0167457I0000276J0000000D01*
G01*
X0073425Y0167457D01*
G75*
G02*
X0073700Y0167181I0000000J-000276D01*
G01*
X0073700Y0164110D01*
G75*
G02*
X0073425Y0163835I-000276J0000000D01*
G01*
X0071220Y0163835D01*
G75*
G02*
X0070944Y0164110I0000000J0000276D01*
G01*
G37*
G36*
G01*
X0230255Y0275846D02*
X0230255Y0278602D01*
G75*
G02*
X0231240Y0279587I0000984J0000000D01*
G01*
X0237933Y0279587D01*
G75*
G02*
X0238917Y0278602I0000000J-000984D01*
G01*
X0238917Y0275846D01*
G75*
G02*
X0237933Y0274862I-000984J0000000D01*
G01*
X0231240Y0274862D01*
G75*
G02*
X0230255Y0275846I0000000J0000984D01*
G01*
G37*
G36*
G01*
X0246791Y0269823D02*
X0246791Y0278681D01*
G75*
G02*
X0247775Y0279665I0000984J0000000D01*
G01*
X0257815Y0279665D01*
G75*
G02*
X0258799Y0278681I0000000J-000984D01*
G01*
X0258799Y0269823D01*
G75*
G02*
X0257815Y0268839I-000984J0000000D01*
G01*
X0247775Y0268839D01*
G75*
G02*
X0246791Y0269823I0000000J0000984D01*
G01*
G37*
G36*
G01*
X0246791Y0257815D02*
X0246791Y0266673D01*
G75*
G02*
X0247775Y0267657I0000984J0000000D01*
G01*
X0257815Y0267657D01*
G75*
G02*
X0258799Y0266673I0000000J-000984D01*
G01*
X0258799Y0257815D01*
G75*
G02*
X0257815Y0256831I-000984J0000000D01*
G01*
X0247775Y0256831D01*
G75*
G02*
X0246791Y0257815I0000000J0000984D01*
G01*
G37*
G36*
G01*
X0259980Y0269823D02*
X0259980Y0278681D01*
G75*
G02*
X0260964Y0279665I0000984J0000000D01*
G01*
X0271003Y0279665D01*
G75*
G02*
X0271988Y0278681I0000000J-000984D01*
G01*
X0271988Y0269823D01*
G75*
G02*
X0271003Y0268839I-000984J0000000D01*
G01*
X0260964Y0268839D01*
G75*
G02*
X0259980Y0269823I0000000J0000984D01*
G01*
G37*
G36*
G01*
X0259980Y0257815D02*
X0259980Y0266673D01*
G75*
G02*
X0260964Y0267657I0000984J0000000D01*
G01*
X0271003Y0267657D01*
G75*
G02*
X0271988Y0266673I0000000J-000984D01*
G01*
X0271988Y0257815D01*
G75*
G02*
X0271003Y0256831I-000984J0000000D01*
G01*
X0260964Y0256831D01*
G75*
G02*
X0259980Y0257815I0000000J0000984D01*
G01*
G37*
G36*
G01*
X0230255Y0257894D02*
X0230255Y0260650D01*
G75*
G02*
X0231240Y0261634I0000984J0000000D01*
G01*
X0237933Y0261634D01*
G75*
G02*
X0238917Y0260650I0000000J-000984D01*
G01*
X0238917Y0257894D01*
G75*
G02*
X0237933Y0256909I-000984J0000000D01*
G01*
X0231240Y0256909D01*
G75*
G02*
X0230255Y0257894I0000000J0000984D01*
G01*
G37*
G36*
G01*
X0320177Y0140965D02*
X0320177Y0142146D01*
G75*
G02*
X0320767Y0142736I0000591J0000000D01*
G01*
X0327263Y0142736D01*
G75*
G02*
X0327854Y0142146I0000000J-000591D01*
G01*
X0327854Y0140965D01*
G75*
G02*
X0327263Y0140374I-000591J0000000D01*
G01*
X0320767Y0140374D01*
G75*
G02*
X0320177Y0140965I0000000J0000591D01*
G01*
G37*
G36*
G01*
X0320177Y0135965D02*
X0320177Y0137146D01*
G75*
G02*
X0320767Y0137736I0000591J0000000D01*
G01*
X0327263Y0137736D01*
G75*
G02*
X0327854Y0137146I0000000J-000591D01*
G01*
X0327854Y0135965D01*
G75*
G02*
X0327263Y0135374I-000591J0000000D01*
G01*
X0320767Y0135374D01*
G75*
G02*
X0320177Y0135965I0000000J0000591D01*
G01*
G37*
G36*
G01*
X0320177Y0130965D02*
X0320177Y0132146D01*
G75*
G02*
X0320767Y0132736I0000591J0000000D01*
G01*
X0327263Y0132736D01*
G75*
G02*
X0327854Y0132146I0000000J-000591D01*
G01*
X0327854Y0130965D01*
G75*
G02*
X0327263Y0130374I-000591J0000000D01*
G01*
X0320767Y0130374D01*
G75*
G02*
X0320177Y0130965I0000000J0000591D01*
G01*
G37*
G36*
G01*
X0320177Y0125965D02*
X0320177Y0127146D01*
G75*
G02*
X0320767Y0127736I0000591J0000000D01*
G01*
X0327263Y0127736D01*
G75*
G02*
X0327854Y0127146I0000000J-000591D01*
G01*
X0327854Y0125965D01*
G75*
G02*
X0327263Y0125374I-000591J0000000D01*
G01*
X0320767Y0125374D01*
G75*
G02*
X0320177Y0125965I0000000J0000591D01*
G01*
G37*
G36*
G01*
X0339665Y0125965D02*
X0339665Y0127146D01*
G75*
G02*
X0340255Y0127736I0000591J0000000D01*
G01*
X0346752Y0127736D01*
G75*
G02*
X0347342Y0127146I0000000J-000591D01*
G01*
X0347342Y0125965D01*
G75*
G02*
X0346752Y0125374I-000591J0000000D01*
G01*
X0340255Y0125374D01*
G75*
G02*
X0339665Y0125965I0000000J0000591D01*
G01*
G37*
G36*
G01*
X0339665Y0130965D02*
X0339665Y0132146D01*
G75*
G02*
X0340255Y0132736I0000591J0000000D01*
G01*
X0346752Y0132736D01*
G75*
G02*
X0347342Y0132146I0000000J-000591D01*
G01*
X0347342Y0130965D01*
G75*
G02*
X0346752Y0130374I-000591J0000000D01*
G01*
X0340255Y0130374D01*
G75*
G02*
X0339665Y0130965I0000000J0000591D01*
G01*
G37*
G36*
G01*
X0339665Y0135965D02*
X0339665Y0137146D01*
G75*
G02*
X0340255Y0137736I0000591J0000000D01*
G01*
X0346752Y0137736D01*
G75*
G02*
X0347342Y0137146I0000000J-000591D01*
G01*
X0347342Y0135965D01*
G75*
G02*
X0346752Y0135374I-000591J0000000D01*
G01*
X0340255Y0135374D01*
G75*
G02*
X0339665Y0135965I0000000J0000591D01*
G01*
G37*
G36*
G01*
X0339665Y0140965D02*
X0339665Y0142146D01*
G75*
G02*
X0340255Y0142736I0000591J0000000D01*
G01*
X0346752Y0142736D01*
G75*
G02*
X0347342Y0142146I0000000J-000591D01*
G01*
X0347342Y0140965D01*
G75*
G02*
X0346752Y0140374I-000591J0000000D01*
G01*
X0340255Y0140374D01*
G75*
G02*
X0339665Y0140965I0000000J0000591D01*
G01*
G37*
G36*
G01*
X0140748Y0164110D02*
X0140748Y0167181D01*
G75*
G02*
X0141023Y0167457I0000276J0000000D01*
G01*
X0143228Y0167457D01*
G75*
G02*
X0143503Y0167181I0000000J-000276D01*
G01*
X0143503Y0164110D01*
G75*
G02*
X0143228Y0163835I-000276J0000000D01*
G01*
X0141023Y0163835D01*
G75*
G02*
X0140748Y0164110I0000000J0000276D01*
G01*
G37*
G36*
G01*
X0147047Y0164110D02*
X0147047Y0167181D01*
G75*
G02*
X0147322Y0167457I0000276J0000000D01*
G01*
X0149527Y0167457D01*
G75*
G02*
X0149803Y0167181I0000000J-000276D01*
G01*
X0149803Y0164110D01*
G75*
G02*
X0149527Y0163835I-000276J0000000D01*
G01*
X0147322Y0163835D01*
G75*
G02*
X0147047Y0164110I0000000J0000276D01*
G01*
G37*
G36*
G01*
X0409133Y0251004D02*
X0409133Y0252185D01*
G75*
G02*
X0409724Y0252776I0000591J0000000D01*
G01*
X0414350Y0252776D01*
G75*
G02*
X0414941Y0252185I0000000J-000591D01*
G01*
X0414941Y0251004D01*
G75*
G02*
X0414350Y0250413I-000591J0000000D01*
G01*
X0409724Y0250413D01*
G75*
G02*
X0409133Y0251004I0000000J0000591D01*
G01*
G37*
G36*
G01*
X0409133Y0243524D02*
X0409133Y0244705D01*
G75*
G02*
X0409724Y0245295I0000591J0000000D01*
G01*
X0414350Y0245295D01*
G75*
G02*
X0414941Y0244705I0000000J-000591D01*
G01*
X0414941Y0243524D01*
G75*
G02*
X0414350Y0242933I-000591J0000000D01*
G01*
X0409724Y0242933D01*
G75*
G02*
X0409133Y0243524I0000000J0000591D01*
G01*
G37*
G36*
G01*
X0416515Y0247264D02*
X0416515Y0248445D01*
G75*
G02*
X0417106Y0249035I0000591J0000000D01*
G01*
X0421732Y0249035D01*
G75*
G02*
X0422322Y0248445I0000000J-000591D01*
G01*
X0422322Y0247264D01*
G75*
G02*
X0421732Y0246673I-000591J0000000D01*
G01*
X0417106Y0246673D01*
G75*
G02*
X0416515Y0247264I0000000J0000591D01*
G01*
G37*
G36*
G01*
X0051653Y0247444D02*
X0051653Y0252365D01*
G75*
G02*
X0052047Y0252759I0000394J0000000D01*
G01*
X0055196Y0252759D01*
G75*
G02*
X0055590Y0252365I0000000J-000394D01*
G01*
X0055590Y0247444D01*
G75*
G02*
X0055196Y0247050I-000394J0000000D01*
G01*
X0052047Y0247050D01*
G75*
G02*
X0051653Y0247444I0000000J0000394D01*
G01*
G37*
G36*
G01*
X0059134Y0247444D02*
X0059134Y0252365D01*
G75*
G02*
X0059527Y0252759I0000394J0000000D01*
G01*
X0062677Y0252759D01*
G75*
G02*
X0063071Y0252365I0000000J-000394D01*
G01*
X0063071Y0247444D01*
G75*
G02*
X0062677Y0247050I-000394J0000000D01*
G01*
X0059527Y0247050D01*
G75*
G02*
X0059134Y0247444I0000000J0000394D01*
G01*
G37*
G36*
G01*
X0067007Y0251626D02*
X0067007Y0254697D01*
G75*
G02*
X0067283Y0254973I0000276J0000000D01*
G01*
X0069488Y0254973D01*
G75*
G02*
X0069763Y0254697I0000000J-000276D01*
G01*
X0069763Y0251626D01*
G75*
G02*
X0069488Y0251351I-000276J0000000D01*
G01*
X0067283Y0251351D01*
G75*
G02*
X0067007Y0251626I0000000J0000276D01*
G01*
G37*
G36*
G01*
X0073307Y0251626D02*
X0073307Y0254697D01*
G75*
G02*
X0073582Y0254973I0000276J0000000D01*
G01*
X0075787Y0254973D01*
G75*
G02*
X0076063Y0254697I0000000J-000276D01*
G01*
X0076063Y0251626D01*
G75*
G02*
X0075787Y0251351I-000276J0000000D01*
G01*
X0073582Y0251351D01*
G75*
G02*
X0073307Y0251626I0000000J0000276D01*
G01*
G37*
G36*
G01*
X0320177Y0278366D02*
X0320177Y0279547D01*
G75*
G02*
X0320767Y0280138I0000591J0000000D01*
G01*
X0327263Y0280138D01*
G75*
G02*
X0327854Y0279547I0000000J-000591D01*
G01*
X0327854Y0278366D01*
G75*
G02*
X0327263Y0277776I-000591J0000000D01*
G01*
X0320767Y0277776D01*
G75*
G02*
X0320177Y0278366I0000000J0000591D01*
G01*
G37*
G36*
G01*
X0320177Y0273366D02*
X0320177Y0274547D01*
G75*
G02*
X0320767Y0275138I0000591J0000000D01*
G01*
X0327263Y0275138D01*
G75*
G02*
X0327854Y0274547I0000000J-000591D01*
G01*
X0327854Y0273366D01*
G75*
G02*
X0327263Y0272776I-000591J0000000D01*
G01*
X0320767Y0272776D01*
G75*
G02*
X0320177Y0273366I0000000J0000591D01*
G01*
G37*
G36*
G01*
X0320177Y0268366D02*
X0320177Y0269547D01*
G75*
G02*
X0320767Y0270138I0000591J0000000D01*
G01*
X0327263Y0270138D01*
G75*
G02*
X0327854Y0269547I0000000J-000591D01*
G01*
X0327854Y0268366D01*
G75*
G02*
X0327263Y0267776I-000591J0000000D01*
G01*
X0320767Y0267776D01*
G75*
G02*
X0320177Y0268366I0000000J0000591D01*
G01*
G37*
G36*
G01*
X0320177Y0263366D02*
X0320177Y0264547D01*
G75*
G02*
X0320767Y0265138I0000591J0000000D01*
G01*
X0327263Y0265138D01*
G75*
G02*
X0327854Y0264547I0000000J-000591D01*
G01*
X0327854Y0263366D01*
G75*
G02*
X0327263Y0262776I-000591J0000000D01*
G01*
X0320767Y0262776D01*
G75*
G02*
X0320177Y0263366I0000000J0000591D01*
G01*
G37*
G36*
G01*
X0339665Y0263366D02*
X0339665Y0264547D01*
G75*
G02*
X0340255Y0265138I0000591J0000000D01*
G01*
X0346752Y0265138D01*
G75*
G02*
X0347342Y0264547I0000000J-000591D01*
G01*
X0347342Y0263366D01*
G75*
G02*
X0346752Y0262776I-000591J0000000D01*
G01*
X0340255Y0262776D01*
G75*
G02*
X0339665Y0263366I0000000J0000591D01*
G01*
G37*
G36*
G01*
X0339665Y0268366D02*
X0339665Y0269547D01*
G75*
G02*
X0340255Y0270138I0000591J0000000D01*
G01*
X0346752Y0270138D01*
G75*
G02*
X0347342Y0269547I0000000J-000591D01*
G01*
X0347342Y0268366D01*
G75*
G02*
X0346752Y0267776I-000591J0000000D01*
G01*
X0340255Y0267776D01*
G75*
G02*
X0339665Y0268366I0000000J0000591D01*
G01*
G37*
G36*
G01*
X0339665Y0273366D02*
X0339665Y0274547D01*
G75*
G02*
X0340255Y0275138I0000591J0000000D01*
G01*
X0346752Y0275138D01*
G75*
G02*
X0347342Y0274547I0000000J-000591D01*
G01*
X0347342Y0273366D01*
G75*
G02*
X0346752Y0272776I-000591J0000000D01*
G01*
X0340255Y0272776D01*
G75*
G02*
X0339665Y0273366I0000000J0000591D01*
G01*
G37*
G36*
G01*
X0339665Y0278366D02*
X0339665Y0279547D01*
G75*
G02*
X0340255Y0280138I0000591J0000000D01*
G01*
X0346752Y0280138D01*
G75*
G02*
X0347342Y0279547I0000000J-000591D01*
G01*
X0347342Y0278366D01*
G75*
G02*
X0346752Y0277776I-000591J0000000D01*
G01*
X0340255Y0277776D01*
G75*
G02*
X0339665Y0278366I0000000J0000591D01*
G01*
G37*
G36*
G01*
X0361318Y0113327D02*
X0361318Y0114508D01*
G75*
G02*
X0361909Y0115098I0000591J0000000D01*
G01*
X0368405Y0115098D01*
G75*
G02*
X0368996Y0114508I0000000J-000591D01*
G01*
X0368996Y0113327D01*
G75*
G02*
X0368405Y0112736I-000591J0000000D01*
G01*
X0361909Y0112736D01*
G75*
G02*
X0361318Y0113327I0000000J0000591D01*
G01*
G37*
G36*
G01*
X0361318Y0108327D02*
X0361318Y0109508D01*
G75*
G02*
X0361909Y0110098I0000591J0000000D01*
G01*
X0368405Y0110098D01*
G75*
G02*
X0368996Y0109508I0000000J-000591D01*
G01*
X0368996Y0108327D01*
G75*
G02*
X0368405Y0107736I-000591J0000000D01*
G01*
X0361909Y0107736D01*
G75*
G02*
X0361318Y0108327I0000000J0000591D01*
G01*
G37*
G36*
G01*
X0361318Y0103327D02*
X0361318Y0104508D01*
G75*
G02*
X0361909Y0105098I0000591J0000000D01*
G01*
X0368405Y0105098D01*
G75*
G02*
X0368996Y0104508I0000000J-000591D01*
G01*
X0368996Y0103327D01*
G75*
G02*
X0368405Y0102736I-000591J0000000D01*
G01*
X0361909Y0102736D01*
G75*
G02*
X0361318Y0103327I0000000J0000591D01*
G01*
G37*
G36*
G01*
X0361318Y0098327D02*
X0361318Y0099508D01*
G75*
G02*
X0361909Y0100098I0000591J0000000D01*
G01*
X0368405Y0100098D01*
G75*
G02*
X0368996Y0099508I0000000J-000591D01*
G01*
X0368996Y0098327D01*
G75*
G02*
X0368405Y0097736I-000591J0000000D01*
G01*
X0361909Y0097736D01*
G75*
G02*
X0361318Y0098327I0000000J0000591D01*
G01*
G37*
G36*
G01*
X0380807Y0098327D02*
X0380807Y0099508D01*
G75*
G02*
X0381397Y0100098I0000591J0000000D01*
G01*
X0387893Y0100098D01*
G75*
G02*
X0388484Y0099508I0000000J-000591D01*
G01*
X0388484Y0098327D01*
G75*
G02*
X0387893Y0097736I-000591J0000000D01*
G01*
X0381397Y0097736D01*
G75*
G02*
X0380807Y0098327I0000000J0000591D01*
G01*
G37*
G36*
G01*
X0380807Y0103327D02*
X0380807Y0104508D01*
G75*
G02*
X0381397Y0105098I0000591J0000000D01*
G01*
X0387893Y0105098D01*
G75*
G02*
X0388484Y0104508I0000000J-000591D01*
G01*
X0388484Y0103327D01*
G75*
G02*
X0387893Y0102736I-000591J0000000D01*
G01*
X0381397Y0102736D01*
G75*
G02*
X0380807Y0103327I0000000J0000591D01*
G01*
G37*
G36*
G01*
X0380807Y0108327D02*
X0380807Y0109508D01*
G75*
G02*
X0381397Y0110098I0000591J0000000D01*
G01*
X0387893Y0110098D01*
G75*
G02*
X0388484Y0109508I0000000J-000591D01*
G01*
X0388484Y0108327D01*
G75*
G02*
X0387893Y0107736I-000591J0000000D01*
G01*
X0381397Y0107736D01*
G75*
G02*
X0380807Y0108327I0000000J0000591D01*
G01*
G37*
G36*
G01*
X0380807Y0113327D02*
X0380807Y0114508D01*
G75*
G02*
X0381397Y0115098I0000591J0000000D01*
G01*
X0387893Y0115098D01*
G75*
G02*
X0388484Y0114508I0000000J-000591D01*
G01*
X0388484Y0113327D01*
G75*
G02*
X0387893Y0112736I-000591J0000000D01*
G01*
X0381397Y0112736D01*
G75*
G02*
X0380807Y0113327I0000000J0000591D01*
G01*
G37*
G36*
G01*
X0080826Y0219680D02*
X0080826Y0223696D01*
G75*
G02*
X0081181Y0224050I0000354J0000000D01*
G01*
X0084015Y0224050D01*
G75*
G02*
X0084370Y0223696I0000000J-000354D01*
G01*
X0084370Y0219680D01*
G75*
G02*
X0084015Y0219326I-000354J0000000D01*
G01*
X0081181Y0219326D01*
G75*
G02*
X0080826Y0219680I0000000J0000354D01*
G01*
G37*
G36*
G01*
X0093818Y0219680D02*
X0093818Y0223696D01*
G75*
G02*
X0094173Y0224050I0000354J0000000D01*
G01*
X0097007Y0224050D01*
G75*
G02*
X0097362Y0223696I0000000J-000354D01*
G01*
X0097362Y0219680D01*
G75*
G02*
X0097007Y0219326I-000354J0000000D01*
G01*
X0094173Y0219326D01*
G75*
G02*
X0093818Y0219680I0000000J0000354D01*
G01*
G37*
G36*
G01*
X0320177Y0252461D02*
X0320177Y0253642D01*
G75*
G02*
X0320767Y0254232I0000591J0000000D01*
G01*
X0327263Y0254232D01*
G75*
G02*
X0327854Y0253642I0000000J-000591D01*
G01*
X0327854Y0252461D01*
G75*
G02*
X0327263Y0251870I-000591J0000000D01*
G01*
X0320767Y0251870D01*
G75*
G02*
X0320177Y0252461I0000000J0000591D01*
G01*
G37*
G36*
G01*
X0320177Y0247461D02*
X0320177Y0248642D01*
G75*
G02*
X0320767Y0249232I0000591J0000000D01*
G01*
X0327263Y0249232D01*
G75*
G02*
X0327854Y0248642I0000000J-000591D01*
G01*
X0327854Y0247461D01*
G75*
G02*
X0327263Y0246870I-000591J0000000D01*
G01*
X0320767Y0246870D01*
G75*
G02*
X0320177Y0247461I0000000J0000591D01*
G01*
G37*
G36*
G01*
X0320177Y0242461D02*
X0320177Y0243642D01*
G75*
G02*
X0320767Y0244232I0000591J0000000D01*
G01*
X0327263Y0244232D01*
G75*
G02*
X0327854Y0243642I0000000J-000591D01*
G01*
X0327854Y0242461D01*
G75*
G02*
X0327263Y0241870I-000591J0000000D01*
G01*
X0320767Y0241870D01*
G75*
G02*
X0320177Y0242461I0000000J0000591D01*
G01*
G37*
G36*
G01*
X0320177Y0237461D02*
X0320177Y0238642D01*
G75*
G02*
X0320767Y0239232I0000591J0000000D01*
G01*
X0327263Y0239232D01*
G75*
G02*
X0327854Y0238642I0000000J-000591D01*
G01*
X0327854Y0237461D01*
G75*
G02*
X0327263Y0236870I-000591J0000000D01*
G01*
X0320767Y0236870D01*
G75*
G02*
X0320177Y0237461I0000000J0000591D01*
G01*
G37*
G36*
G01*
X0339665Y0237461D02*
X0339665Y0238642D01*
G75*
G02*
X0340255Y0239232I0000591J0000000D01*
G01*
X0346752Y0239232D01*
G75*
G02*
X0347342Y0238642I0000000J-000591D01*
G01*
X0347342Y0237461D01*
G75*
G02*
X0346752Y0236870I-000591J0000000D01*
G01*
X0340255Y0236870D01*
G75*
G02*
X0339665Y0237461I0000000J0000591D01*
G01*
G37*
G36*
G01*
X0339665Y0242461D02*
X0339665Y0243642D01*
G75*
G02*
X0340255Y0244232I0000591J0000000D01*
G01*
X0346752Y0244232D01*
G75*
G02*
X0347342Y0243642I0000000J-000591D01*
G01*
X0347342Y0242461D01*
G75*
G02*
X0346752Y0241870I-000591J0000000D01*
G01*
X0340255Y0241870D01*
G75*
G02*
X0339665Y0242461I0000000J0000591D01*
G01*
G37*
G36*
G01*
X0339665Y0247461D02*
X0339665Y0248642D01*
G75*
G02*
X0340255Y0249232I0000591J0000000D01*
G01*
X0346752Y0249232D01*
G75*
G02*
X0347342Y0248642I0000000J-000591D01*
G01*
X0347342Y0247461D01*
G75*
G02*
X0346752Y0246870I-000591J0000000D01*
G01*
X0340255Y0246870D01*
G75*
G02*
X0339665Y0247461I0000000J0000591D01*
G01*
G37*
G36*
G01*
X0339665Y0252461D02*
X0339665Y0253642D01*
G75*
G02*
X0340255Y0254232I0000591J0000000D01*
G01*
X0346752Y0254232D01*
G75*
G02*
X0347342Y0253642I0000000J-000591D01*
G01*
X0347342Y0252461D01*
G75*
G02*
X0346752Y0251870I-000591J0000000D01*
G01*
X0340255Y0251870D01*
G75*
G02*
X0339665Y0252461I0000000J0000591D01*
G01*
G37*
G36*
G01*
X0140748Y0220933D02*
X0140748Y0224004D01*
G75*
G02*
X0141023Y0224279I0000276J0000000D01*
G01*
X0143228Y0224279D01*
G75*
G02*
X0143503Y0224004I0000000J-000276D01*
G01*
X0143503Y0220933D01*
G75*
G02*
X0143228Y0220657I-000276J0000000D01*
G01*
X0141023Y0220657D01*
G75*
G02*
X0140748Y0220933I0000000J0000276D01*
G01*
G37*
G36*
G01*
X0147047Y0220933D02*
X0147047Y0224004D01*
G75*
G02*
X0147322Y0224279I0000276J0000000D01*
G01*
X0149527Y0224279D01*
G75*
G02*
X0149803Y0224004I0000000J-000276D01*
G01*
X0149803Y0220933D01*
G75*
G02*
X0149527Y0220657I-000276J0000000D01*
G01*
X0147322Y0220657D01*
G75*
G02*
X0147047Y0220933I0000000J0000276D01*
G01*
G37*
G36*
G01*
X0140748Y0205586D02*
X0140748Y0208657D01*
G75*
G02*
X0141023Y0208932I0000276J0000000D01*
G01*
X0143228Y0208932D01*
G75*
G02*
X0143503Y0208657I0000000J-000276D01*
G01*
X0143503Y0205586D01*
G75*
G02*
X0143228Y0205310I-000276J0000000D01*
G01*
X0141023Y0205310D01*
G75*
G02*
X0140748Y0205586I0000000J0000276D01*
G01*
G37*
G36*
G01*
X0147047Y0205586D02*
X0147047Y0208657D01*
G75*
G02*
X0147322Y0208932I0000276J0000000D01*
G01*
X0149527Y0208932D01*
G75*
G02*
X0149803Y0208657I0000000J-000276D01*
G01*
X0149803Y0205586D01*
G75*
G02*
X0149527Y0205310I-000276J0000000D01*
G01*
X0147322Y0205310D01*
G75*
G02*
X0147047Y0205586I0000000J0000276D01*
G01*
G37*
G36*
G01*
X0064645Y0171784D02*
X0064645Y0174855D01*
G75*
G02*
X0064921Y0175130I0000276J0000000D01*
G01*
X0067126Y0175130D01*
G75*
G02*
X0067401Y0174855I0000000J-000276D01*
G01*
X0067401Y0171784D01*
G75*
G02*
X0067126Y0171508I-000276J0000000D01*
G01*
X0064921Y0171508D01*
G75*
G02*
X0064645Y0171784I0000000J0000276D01*
G01*
G37*
G36*
G01*
X0070944Y0171784D02*
X0070944Y0174855D01*
G75*
G02*
X0071220Y0175130I0000276J0000000D01*
G01*
X0073425Y0175130D01*
G75*
G02*
X0073700Y0174855I0000000J-000276D01*
G01*
X0073700Y0171784D01*
G75*
G02*
X0073425Y0171508I-000276J0000000D01*
G01*
X0071220Y0171508D01*
G75*
G02*
X0070944Y0171784I0000000J0000276D01*
G01*
G37*
G36*
G01*
X0278070Y0192421D02*
X0278070Y0203642D01*
G75*
G02*
X0279055Y0204626I0000984J0000000D01*
G01*
X0281909Y0204626D01*
G75*
G02*
X0282893Y0203642I0000000J-000984D01*
G01*
X0282893Y0192421D01*
G75*
G02*
X0281909Y0191437I-000984J0000000D01*
G01*
X0279055Y0191437D01*
G75*
G02*
X0278070Y0192421I0000000J0000984D01*
G01*
G37*
G36*
G01*
X0301397Y0192421D02*
X0301397Y0203642D01*
G75*
G02*
X0302381Y0204626I0000984J0000000D01*
G01*
X0305236Y0204626D01*
G75*
G02*
X0306220Y0203642I0000000J-000984D01*
G01*
X0306220Y0192421D01*
G75*
G02*
X0305236Y0191437I-000984J0000000D01*
G01*
X0302381Y0191437D01*
G75*
G02*
X0301397Y0192421I0000000J0000984D01*
G01*
G37*
G36*
G01*
X0140748Y0259300D02*
X0140748Y0262371D01*
G75*
G02*
X0141023Y0262646I0000276J0000000D01*
G01*
X0143228Y0262646D01*
G75*
G02*
X0143503Y0262371I0000000J-000276D01*
G01*
X0143503Y0259300D01*
G75*
G02*
X0143228Y0259024I-000276J0000000D01*
G01*
X0141023Y0259024D01*
G75*
G02*
X0140748Y0259300I0000000J0000276D01*
G01*
G37*
G36*
G01*
X0147047Y0259300D02*
X0147047Y0262371D01*
G75*
G02*
X0147322Y0262646I0000276J0000000D01*
G01*
X0149527Y0262646D01*
G75*
G02*
X0149803Y0262371I0000000J-000276D01*
G01*
X0149803Y0259300D01*
G75*
G02*
X0149527Y0259024I-000276J0000000D01*
G01*
X0147322Y0259024D01*
G75*
G02*
X0147047Y0259300I0000000J0000276D01*
G01*
G37*
G36*
G01*
X0140748Y0228606D02*
X0140748Y0231677D01*
G75*
G02*
X0141023Y0231953I0000276J0000000D01*
G01*
X0143228Y0231953D01*
G75*
G02*
X0143503Y0231677I0000000J-000276D01*
G01*
X0143503Y0228606D01*
G75*
G02*
X0143228Y0228330I-000276J0000000D01*
G01*
X0141023Y0228330D01*
G75*
G02*
X0140748Y0228606I0000000J0000276D01*
G01*
G37*
G36*
G01*
X0147047Y0228606D02*
X0147047Y0231677D01*
G75*
G02*
X0147322Y0231953I0000276J0000000D01*
G01*
X0149527Y0231953D01*
G75*
G02*
X0149803Y0231677I0000000J-000276D01*
G01*
X0149803Y0228606D01*
G75*
G02*
X0149527Y0228330I-000276J0000000D01*
G01*
X0147322Y0228330D01*
G75*
G02*
X0147047Y0228606I0000000J0000276D01*
G01*
G37*
G36*
G01*
X0361318Y0166870D02*
X0361318Y0168051D01*
G75*
G02*
X0361909Y0168642I0000591J0000000D01*
G01*
X0368405Y0168642D01*
G75*
G02*
X0368996Y0168051I0000000J-000591D01*
G01*
X0368996Y0166870D01*
G75*
G02*
X0368405Y0166279I-000591J0000000D01*
G01*
X0361909Y0166279D01*
G75*
G02*
X0361318Y0166870I0000000J0000591D01*
G01*
G37*
G36*
G01*
X0361318Y0161870D02*
X0361318Y0163051D01*
G75*
G02*
X0361909Y0163642I0000591J0000000D01*
G01*
X0368405Y0163642D01*
G75*
G02*
X0368996Y0163051I0000000J-000591D01*
G01*
X0368996Y0161870D01*
G75*
G02*
X0368405Y0161279I-000591J0000000D01*
G01*
X0361909Y0161279D01*
G75*
G02*
X0361318Y0161870I0000000J0000591D01*
G01*
G37*
G36*
G01*
X0361318Y0156870D02*
X0361318Y0158051D01*
G75*
G02*
X0361909Y0158642I0000591J0000000D01*
G01*
X0368405Y0158642D01*
G75*
G02*
X0368996Y0158051I0000000J-000591D01*
G01*
X0368996Y0156870D01*
G75*
G02*
X0368405Y0156279I-000591J0000000D01*
G01*
X0361909Y0156279D01*
G75*
G02*
X0361318Y0156870I0000000J0000591D01*
G01*
G37*
G36*
G01*
X0361318Y0151870D02*
X0361318Y0153051D01*
G75*
G02*
X0361909Y0153642I0000591J0000000D01*
G01*
X0368405Y0153642D01*
G75*
G02*
X0368996Y0153051I0000000J-000591D01*
G01*
X0368996Y0151870D01*
G75*
G02*
X0368405Y0151279I-000591J0000000D01*
G01*
X0361909Y0151279D01*
G75*
G02*
X0361318Y0151870I0000000J0000591D01*
G01*
G37*
G36*
G01*
X0380807Y0151870D02*
X0380807Y0153051D01*
G75*
G02*
X0381397Y0153642I0000591J0000000D01*
G01*
X0387893Y0153642D01*
G75*
G02*
X0388484Y0153051I0000000J-000591D01*
G01*
X0388484Y0151870D01*
G75*
G02*
X0387893Y0151279I-000591J0000000D01*
G01*
X0381397Y0151279D01*
G75*
G02*
X0380807Y0151870I0000000J0000591D01*
G01*
G37*
G36*
G01*
X0380807Y0156870D02*
X0380807Y0158051D01*
G75*
G02*
X0381397Y0158642I0000591J0000000D01*
G01*
X0387893Y0158642D01*
G75*
G02*
X0388484Y0158051I0000000J-000591D01*
G01*
X0388484Y0156870D01*
G75*
G02*
X0387893Y0156279I-000591J0000000D01*
G01*
X0381397Y0156279D01*
G75*
G02*
X0380807Y0156870I0000000J0000591D01*
G01*
G37*
G36*
G01*
X0380807Y0161870D02*
X0380807Y0163051D01*
G75*
G02*
X0381397Y0163642I0000591J0000000D01*
G01*
X0387893Y0163642D01*
G75*
G02*
X0388484Y0163051I0000000J-000591D01*
G01*
X0388484Y0161870D01*
G75*
G02*
X0387893Y0161279I-000591J0000000D01*
G01*
X0381397Y0161279D01*
G75*
G02*
X0380807Y0161870I0000000J0000591D01*
G01*
G37*
G36*
G01*
X0380807Y0166870D02*
X0380807Y0168051D01*
G75*
G02*
X0381397Y0168642I0000591J0000000D01*
G01*
X0387893Y0168642D01*
G75*
G02*
X0388484Y0168051I0000000J-000591D01*
G01*
X0388484Y0166870D01*
G75*
G02*
X0387893Y0166279I-000591J0000000D01*
G01*
X0381397Y0166279D01*
G75*
G02*
X0380807Y0166870I0000000J0000591D01*
G01*
G37*
G36*
G01*
X0377086Y0140965D02*
X0377086Y0142146D01*
G75*
G02*
X0377677Y0142736I0000591J0000000D01*
G01*
X0382303Y0142736D01*
G75*
G02*
X0382893Y0142146I0000000J-000591D01*
G01*
X0382893Y0140965D01*
G75*
G02*
X0382303Y0140374I-000591J0000000D01*
G01*
X0377677Y0140374D01*
G75*
G02*
X0377086Y0140965I0000000J0000591D01*
G01*
G37*
G36*
G01*
X0377086Y0133484D02*
X0377086Y0134665D01*
G75*
G02*
X0377677Y0135256I0000591J0000000D01*
G01*
X0382303Y0135256D01*
G75*
G02*
X0382893Y0134665I0000000J-000591D01*
G01*
X0382893Y0133484D01*
G75*
G02*
X0382303Y0132894I-000591J0000000D01*
G01*
X0377677Y0132894D01*
G75*
G02*
X0377086Y0133484I0000000J0000591D01*
G01*
G37*
G36*
G01*
X0384468Y0137224D02*
X0384468Y0138405D01*
G75*
G02*
X0385059Y0138996I0000591J0000000D01*
G01*
X0389685Y0138996D01*
G75*
G02*
X0390275Y0138405I0000000J-000591D01*
G01*
X0390275Y0137224D01*
G75*
G02*
X0389685Y0136634I-000591J0000000D01*
G01*
X0385059Y0136634D01*
G75*
G02*
X0384468Y0137224I0000000J0000591D01*
G01*
G37*
G36*
G01*
X0361496Y0214094D02*
X0361496Y0219213D01*
G75*
G02*
X0362480Y0220197I0000984J0000000D01*
G01*
X0370354Y0220197D01*
G75*
G02*
X0371338Y0219213I0000000J-000984D01*
G01*
X0371338Y0214094D01*
G75*
G02*
X0370354Y0213110I-000984J0000000D01*
G01*
X0362480Y0213110D01*
G75*
G02*
X0361496Y0214094I0000000J0000984D01*
G01*
G37*
G36*
G01*
X0377244Y0214094D02*
X0377244Y0219213D01*
G75*
G02*
X0378228Y0220197I0000984J0000000D01*
G01*
X0386102Y0220197D01*
G75*
G02*
X0387086Y0219213I0000000J-000984D01*
G01*
X0387086Y0214094D01*
G75*
G02*
X0386102Y0213110I-000984J0000000D01*
G01*
X0378228Y0213110D01*
G75*
G02*
X0377244Y0214094I0000000J0000984D01*
G01*
G37*
G36*
G01*
X0230255Y0146791D02*
X0230255Y0149547D01*
G75*
G02*
X0231240Y0150531I0000984J0000000D01*
G01*
X0237933Y0150531D01*
G75*
G02*
X0238917Y0149547I0000000J-000984D01*
G01*
X0238917Y0146791D01*
G75*
G02*
X0237933Y0145807I-000984J0000000D01*
G01*
X0231240Y0145807D01*
G75*
G02*
X0230255Y0146791I0000000J0000984D01*
G01*
G37*
G36*
G01*
X0246791Y0140768D02*
X0246791Y0149626D01*
G75*
G02*
X0247775Y0150610I0000984J0000000D01*
G01*
X0257815Y0150610D01*
G75*
G02*
X0258799Y0149626I0000000J-000984D01*
G01*
X0258799Y0140768D01*
G75*
G02*
X0257815Y0139783I-000984J0000000D01*
G01*
X0247775Y0139783D01*
G75*
G02*
X0246791Y0140768I0000000J0000984D01*
G01*
G37*
G36*
G01*
X0246791Y0128760D02*
X0246791Y0137618D01*
G75*
G02*
X0247775Y0138602I0000984J0000000D01*
G01*
X0257815Y0138602D01*
G75*
G02*
X0258799Y0137618I0000000J-000984D01*
G01*
X0258799Y0128760D01*
G75*
G02*
X0257815Y0127776I-000984J0000000D01*
G01*
X0247775Y0127776D01*
G75*
G02*
X0246791Y0128760I0000000J0000984D01*
G01*
G37*
G36*
G01*
X0259980Y0140768D02*
X0259980Y0149626D01*
G75*
G02*
X0260964Y0150610I0000984J0000000D01*
G01*
X0271003Y0150610D01*
G75*
G02*
X0271988Y0149626I0000000J-000984D01*
G01*
X0271988Y0140768D01*
G75*
G02*
X0271003Y0139783I-000984J0000000D01*
G01*
X0260964Y0139783D01*
G75*
G02*
X0259980Y0140768I0000000J0000984D01*
G01*
G37*
G36*
G01*
X0259980Y0128760D02*
X0259980Y0137618D01*
G75*
G02*
X0260964Y0138602I0000984J0000000D01*
G01*
X0271003Y0138602D01*
G75*
G02*
X0271988Y0137618I0000000J-000984D01*
G01*
X0271988Y0128760D01*
G75*
G02*
X0271003Y0127776I-000984J0000000D01*
G01*
X0260964Y0127776D01*
G75*
G02*
X0259980Y0128760I0000000J0000984D01*
G01*
G37*
G36*
G01*
X0230255Y0128839D02*
X0230255Y0131594D01*
G75*
G02*
X0231240Y0132579I0000984J0000000D01*
G01*
X0237933Y0132579D01*
G75*
G02*
X0238917Y0131594I0000000J-000984D01*
G01*
X0238917Y0128839D01*
G75*
G02*
X0237933Y0127854I-000984J0000000D01*
G01*
X0231240Y0127854D01*
G75*
G02*
X0230255Y0128839I0000000J0000984D01*
G01*
G37*
G36*
G01*
X0067007Y0259300D02*
X0067007Y0262371D01*
G75*
G02*
X0067283Y0262646I0000276J0000000D01*
G01*
X0069488Y0262646D01*
G75*
G02*
X0069763Y0262371I0000000J-000276D01*
G01*
X0069763Y0259300D01*
G75*
G02*
X0069488Y0259024I-000276J0000000D01*
G01*
X0067283Y0259024D01*
G75*
G02*
X0067007Y0259300I0000000J0000276D01*
G01*
G37*
G36*
G01*
X0073307Y0259300D02*
X0073307Y0262371D01*
G75*
G02*
X0073582Y0262646I0000276J0000000D01*
G01*
X0075787Y0262646D01*
G75*
G02*
X0076063Y0262371I0000000J-000276D01*
G01*
X0076063Y0259300D01*
G75*
G02*
X0075787Y0259024I-000276J0000000D01*
G01*
X0073582Y0259024D01*
G75*
G02*
X0073307Y0259300I0000000J0000276D01*
G01*
G37*
G36*
G01*
X0051653Y0141090D02*
X0051653Y0144161D01*
G75*
G02*
X0051929Y0144437I0000276J0000000D01*
G01*
X0054133Y0144437D01*
G75*
G02*
X0054409Y0144161I0000000J-000276D01*
G01*
X0054409Y0141090D01*
G75*
G02*
X0054133Y0140815I-000276J0000000D01*
G01*
X0051929Y0140815D01*
G75*
G02*
X0051653Y0141090I0000000J0000276D01*
G01*
G37*
G36*
G01*
X0057952Y0141090D02*
X0057952Y0144161D01*
G75*
G02*
X0058228Y0144437I0000276J0000000D01*
G01*
X0060433Y0144437D01*
G75*
G02*
X0060708Y0144161I0000000J-000276D01*
G01*
X0060708Y0141090D01*
G75*
G02*
X0060433Y0140815I-000276J0000000D01*
G01*
X0058228Y0140815D01*
G75*
G02*
X0057952Y0141090I0000000J0000276D01*
G01*
G37*
G36*
G01*
X0320177Y0200650D02*
X0320177Y0201831D01*
G75*
G02*
X0320767Y0202421I0000591J0000000D01*
G01*
X0327263Y0202421D01*
G75*
G02*
X0327854Y0201831I0000000J-000591D01*
G01*
X0327854Y0200650D01*
G75*
G02*
X0327263Y0200059I-000591J0000000D01*
G01*
X0320767Y0200059D01*
G75*
G02*
X0320177Y0200650I0000000J0000591D01*
G01*
G37*
G36*
G01*
X0320177Y0195650D02*
X0320177Y0196831D01*
G75*
G02*
X0320767Y0197421I0000591J0000000D01*
G01*
X0327263Y0197421D01*
G75*
G02*
X0327854Y0196831I0000000J-000591D01*
G01*
X0327854Y0195650D01*
G75*
G02*
X0327263Y0195059I-000591J0000000D01*
G01*
X0320767Y0195059D01*
G75*
G02*
X0320177Y0195650I0000000J0000591D01*
G01*
G37*
G36*
G01*
X0320177Y0190650D02*
X0320177Y0191831D01*
G75*
G02*
X0320767Y0192421I0000591J0000000D01*
G01*
X0327263Y0192421D01*
G75*
G02*
X0327854Y0191831I0000000J-000591D01*
G01*
X0327854Y0190650D01*
G75*
G02*
X0327263Y0190059I-000591J0000000D01*
G01*
X0320767Y0190059D01*
G75*
G02*
X0320177Y0190650I0000000J0000591D01*
G01*
G37*
G36*
G01*
X0320177Y0185650D02*
X0320177Y0186831D01*
G75*
G02*
X0320767Y0187421I0000591J0000000D01*
G01*
X0327263Y0187421D01*
G75*
G02*
X0327854Y0186831I0000000J-000591D01*
G01*
X0327854Y0185650D01*
G75*
G02*
X0327263Y0185059I-000591J0000000D01*
G01*
X0320767Y0185059D01*
G75*
G02*
X0320177Y0185650I0000000J0000591D01*
G01*
G37*
G36*
G01*
X0339665Y0185650D02*
X0339665Y0186831D01*
G75*
G02*
X0340255Y0187421I0000591J0000000D01*
G01*
X0346752Y0187421D01*
G75*
G02*
X0347342Y0186831I0000000J-000591D01*
G01*
X0347342Y0185650D01*
G75*
G02*
X0346752Y0185059I-000591J0000000D01*
G01*
X0340255Y0185059D01*
G75*
G02*
X0339665Y0185650I0000000J0000591D01*
G01*
G37*
G36*
G01*
X0339665Y0190650D02*
X0339665Y0191831D01*
G75*
G02*
X0340255Y0192421I0000591J0000000D01*
G01*
X0346752Y0192421D01*
G75*
G02*
X0347342Y0191831I0000000J-000591D01*
G01*
X0347342Y0190650D01*
G75*
G02*
X0346752Y0190059I-000591J0000000D01*
G01*
X0340255Y0190059D01*
G75*
G02*
X0339665Y0190650I0000000J0000591D01*
G01*
G37*
G36*
G01*
X0339665Y0195650D02*
X0339665Y0196831D01*
G75*
G02*
X0340255Y0197421I0000591J0000000D01*
G01*
X0346752Y0197421D01*
G75*
G02*
X0347342Y0196831I0000000J-000591D01*
G01*
X0347342Y0195650D01*
G75*
G02*
X0346752Y0195059I-000591J0000000D01*
G01*
X0340255Y0195059D01*
G75*
G02*
X0339665Y0195650I0000000J0000591D01*
G01*
G37*
G36*
G01*
X0339665Y0200650D02*
X0339665Y0201831D01*
G75*
G02*
X0340255Y0202421I0000591J0000000D01*
G01*
X0346752Y0202421D01*
G75*
G02*
X0347342Y0201831I0000000J-000591D01*
G01*
X0347342Y0200650D01*
G75*
G02*
X0346752Y0200059I-000591J0000000D01*
G01*
X0340255Y0200059D01*
G75*
G02*
X0339665Y0200650I0000000J0000591D01*
G01*
G37*
G36*
G01*
X0230255Y0114527D02*
X0230255Y0117283D01*
G75*
G02*
X0231240Y0118268I0000984J0000000D01*
G01*
X0237933Y0118268D01*
G75*
G02*
X0238917Y0117283I0000000J-000984D01*
G01*
X0238917Y0114527D01*
G75*
G02*
X0237933Y0113543I-000984J0000000D01*
G01*
X0231240Y0113543D01*
G75*
G02*
X0230255Y0114527I0000000J0000984D01*
G01*
G37*
G36*
G01*
X0246791Y0108504D02*
X0246791Y0117362D01*
G75*
G02*
X0247775Y0118346I0000984J0000000D01*
G01*
X0257815Y0118346D01*
G75*
G02*
X0258799Y0117362I0000000J-000984D01*
G01*
X0258799Y0108504D01*
G75*
G02*
X0257815Y0107520I-000984J0000000D01*
G01*
X0247775Y0107520D01*
G75*
G02*
X0246791Y0108504I0000000J0000984D01*
G01*
G37*
G36*
G01*
X0246791Y0096496D02*
X0246791Y0105354D01*
G75*
G02*
X0247775Y0106339I0000984J0000000D01*
G01*
X0257815Y0106339D01*
G75*
G02*
X0258799Y0105354I0000000J-000984D01*
G01*
X0258799Y0096496D01*
G75*
G02*
X0257815Y0095512I-000984J0000000D01*
G01*
X0247775Y0095512D01*
G75*
G02*
X0246791Y0096496I0000000J0000984D01*
G01*
G37*
G36*
G01*
X0259980Y0108504D02*
X0259980Y0117362D01*
G75*
G02*
X0260964Y0118346I0000984J0000000D01*
G01*
X0271003Y0118346D01*
G75*
G02*
X0271988Y0117362I0000000J-000984D01*
G01*
X0271988Y0108504D01*
G75*
G02*
X0271003Y0107520I-000984J0000000D01*
G01*
X0260964Y0107520D01*
G75*
G02*
X0259980Y0108504I0000000J0000984D01*
G01*
G37*
G36*
G01*
X0259980Y0096496D02*
X0259980Y0105354D01*
G75*
G02*
X0260964Y0106339I0000984J0000000D01*
G01*
X0271003Y0106339D01*
G75*
G02*
X0271988Y0105354I0000000J-000984D01*
G01*
X0271988Y0096496D01*
G75*
G02*
X0271003Y0095512I-000984J0000000D01*
G01*
X0260964Y0095512D01*
G75*
G02*
X0259980Y0096496I0000000J0000984D01*
G01*
G37*
G36*
G01*
X0230255Y0096575D02*
X0230255Y0099331D01*
G75*
G02*
X0231240Y0100315I0000984J0000000D01*
G01*
X0237933Y0100315D01*
G75*
G02*
X0238917Y0099331I0000000J-000984D01*
G01*
X0238917Y0096575D01*
G75*
G02*
X0237933Y0095590I-000984J0000000D01*
G01*
X0231240Y0095590D01*
G75*
G02*
X0230255Y0096575I0000000J0000984D01*
G01*
G37*
G36*
G01*
X0140748Y0179457D02*
X0140748Y0182528D01*
G75*
G02*
X0141023Y0182804I0000276J0000000D01*
G01*
X0143228Y0182804D01*
G75*
G02*
X0143503Y0182528I0000000J-000276D01*
G01*
X0143503Y0179457D01*
G75*
G02*
X0143228Y0179182I-000276J0000000D01*
G01*
X0141023Y0179182D01*
G75*
G02*
X0140748Y0179457I0000000J0000276D01*
G01*
G37*
G36*
G01*
X0147047Y0179457D02*
X0147047Y0182528D01*
G75*
G02*
X0147322Y0182804I0000276J0000000D01*
G01*
X0149527Y0182804D01*
G75*
G02*
X0149803Y0182528I0000000J-000276D01*
G01*
X0149803Y0179457D01*
G75*
G02*
X0149527Y0179182I-000276J0000000D01*
G01*
X0147322Y0179182D01*
G75*
G02*
X0147047Y0179457I0000000J0000276D01*
G01*
G37*
G36*
G01*
X0098503Y0156437D02*
X0098503Y0159508D01*
G75*
G02*
X0098779Y0159783I0000276J0000000D01*
G01*
X0100984Y0159783D01*
G75*
G02*
X0101259Y0159508I0000000J-000276D01*
G01*
X0101259Y0156437D01*
G75*
G02*
X0100984Y0156161I-000276J0000000D01*
G01*
X0098779Y0156161D01*
G75*
G02*
X0098503Y0156437I0000000J0000276D01*
G01*
G37*
G36*
G01*
X0104803Y0156437D02*
X0104803Y0159508D01*
G75*
G02*
X0105078Y0159783I0000276J0000000D01*
G01*
X0107283Y0159783D01*
G75*
G02*
X0107559Y0159508I0000000J-000276D01*
G01*
X0107559Y0156437D01*
G75*
G02*
X0107283Y0156161I-000276J0000000D01*
G01*
X0105078Y0156161D01*
G75*
G02*
X0104803Y0156437I0000000J0000276D01*
G01*
G37*
G36*
G01*
X0051653Y0237590D02*
X0051653Y0242511D01*
G75*
G02*
X0052047Y0242905I0000394J0000000D01*
G01*
X0055196Y0242905D01*
G75*
G02*
X0055590Y0242511I0000000J-000394D01*
G01*
X0055590Y0237590D01*
G75*
G02*
X0055196Y0237196I-000394J0000000D01*
G01*
X0052047Y0237196D01*
G75*
G02*
X0051653Y0237590I0000000J0000394D01*
G01*
G37*
G36*
G01*
X0059134Y0237590D02*
X0059134Y0242511D01*
G75*
G02*
X0059527Y0242905I0000394J0000000D01*
G01*
X0062677Y0242905D01*
G75*
G02*
X0063071Y0242511I0000000J-000394D01*
G01*
X0063071Y0237590D01*
G75*
G02*
X0062677Y0237196I-000394J0000000D01*
G01*
X0059527Y0237196D01*
G75*
G02*
X0059134Y0237590I0000000J0000394D01*
G01*
G37*
G36*
G01*
X0098503Y0148764D02*
X0098503Y0151834D01*
G75*
G02*
X0098779Y0152110I0000276J0000000D01*
G01*
X0100984Y0152110D01*
G75*
G02*
X0101259Y0151834I0000000J-000276D01*
G01*
X0101259Y0148764D01*
G75*
G02*
X0100984Y0148488I-000276J0000000D01*
G01*
X0098779Y0148488D01*
G75*
G02*
X0098503Y0148764I0000000J0000276D01*
G01*
G37*
G36*
G01*
X0104803Y0148764D02*
X0104803Y0151834D01*
G75*
G02*
X0105078Y0152110I0000276J0000000D01*
G01*
X0107283Y0152110D01*
G75*
G02*
X0107559Y0151834I0000000J-000276D01*
G01*
X0107559Y0148764D01*
G75*
G02*
X0107283Y0148488I-000276J0000000D01*
G01*
X0105078Y0148488D01*
G75*
G02*
X0104803Y0148764I0000000J0000276D01*
G01*
G37*
G36*
G01*
X0140748Y0243953D02*
X0140748Y0247024D01*
G75*
G02*
X0141023Y0247299I0000276J0000000D01*
G01*
X0143228Y0247299D01*
G75*
G02*
X0143503Y0247024I0000000J-000276D01*
G01*
X0143503Y0243953D01*
G75*
G02*
X0143228Y0243677I-000276J0000000D01*
G01*
X0141023Y0243677D01*
G75*
G02*
X0140748Y0243953I0000000J0000276D01*
G01*
G37*
G36*
G01*
X0147047Y0243953D02*
X0147047Y0247024D01*
G75*
G02*
X0147322Y0247299I0000276J0000000D01*
G01*
X0149527Y0247299D01*
G75*
G02*
X0149803Y0247024I0000000J-000276D01*
G01*
X0149803Y0243953D01*
G75*
G02*
X0149527Y0243677I-000276J0000000D01*
G01*
X0147322Y0243677D01*
G75*
G02*
X0147047Y0243953I0000000J0000276D01*
G01*
G37*
G36*
G01*
X0080826Y0256530D02*
X0080826Y0260546D01*
G75*
G02*
X0081181Y0260900I0000354J0000000D01*
G01*
X0084015Y0260900D01*
G75*
G02*
X0084370Y0260546I0000000J-000354D01*
G01*
X0084370Y0256530D01*
G75*
G02*
X0084015Y0256176I-000354J0000000D01*
G01*
X0081181Y0256176D01*
G75*
G02*
X0080826Y0256530I0000000J0000354D01*
G01*
G37*
G36*
G01*
X0093818Y0256530D02*
X0093818Y0260546D01*
G75*
G02*
X0094173Y0260900I0000354J0000000D01*
G01*
X0097007Y0260900D01*
G75*
G02*
X0097362Y0260546I0000000J-000354D01*
G01*
X0097362Y0256530D01*
G75*
G02*
X0097007Y0256176I-000354J0000000D01*
G01*
X0094173Y0256176D01*
G75*
G02*
X0093818Y0256530I0000000J0000354D01*
G01*
G37*
G36*
G01*
X0051653Y0208028D02*
X0051653Y0212949D01*
G75*
G02*
X0052047Y0213343I0000394J0000000D01*
G01*
X0055196Y0213343D01*
G75*
G02*
X0055590Y0212949I0000000J-000394D01*
G01*
X0055590Y0208028D01*
G75*
G02*
X0055196Y0207634I-000394J0000000D01*
G01*
X0052047Y0207634D01*
G75*
G02*
X0051653Y0208028I0000000J0000394D01*
G01*
G37*
G36*
G01*
X0059134Y0208028D02*
X0059134Y0212949D01*
G75*
G02*
X0059527Y0213343I0000394J0000000D01*
G01*
X0062677Y0213343D01*
G75*
G02*
X0063071Y0212949I0000000J-000394D01*
G01*
X0063071Y0208028D01*
G75*
G02*
X0062677Y0207634I-000394J0000000D01*
G01*
X0059527Y0207634D01*
G75*
G02*
X0059134Y0208028I0000000J0000394D01*
G01*
G37*
G36*
G01*
X0278110Y0163204D02*
X0278110Y0165221D01*
G75*
G02*
X0278971Y0166083I0000861J0000000D01*
G01*
X0280693Y0166083D01*
G75*
G02*
X0281555Y0165221I0000000J-000861D01*
G01*
X0281555Y0163204D01*
G75*
G02*
X0280693Y0162342I-000861J0000000D01*
G01*
X0278971Y0162342D01*
G75*
G02*
X0278110Y0163204I0000000J0000861D01*
G01*
G37*
G36*
G01*
X0284311Y0163204D02*
X0284311Y0165221D01*
G75*
G02*
X0285172Y0166083I0000861J0000000D01*
G01*
X0286894Y0166083D01*
G75*
G02*
X0287755Y0165221I0000000J-000861D01*
G01*
X0287755Y0163204D01*
G75*
G02*
X0286894Y0162342I-000861J0000000D01*
G01*
X0285172Y0162342D01*
G75*
G02*
X0284311Y0163204I0000000J0000861D01*
G01*
G37*
G36*
G01*
X0140748Y0156437D02*
X0140748Y0159508D01*
G75*
G02*
X0141023Y0159783I0000276J0000000D01*
G01*
X0143228Y0159783D01*
G75*
G02*
X0143503Y0159508I0000000J-000276D01*
G01*
X0143503Y0156437D01*
G75*
G02*
X0143228Y0156161I-000276J0000000D01*
G01*
X0141023Y0156161D01*
G75*
G02*
X0140748Y0156437I0000000J0000276D01*
G01*
G37*
G36*
G01*
X0147047Y0156437D02*
X0147047Y0159508D01*
G75*
G02*
X0147322Y0159783I0000276J0000000D01*
G01*
X0149527Y0159783D01*
G75*
G02*
X0149803Y0159508I0000000J-000276D01*
G01*
X0149803Y0156437D01*
G75*
G02*
X0149527Y0156161I-000276J0000000D01*
G01*
X0147322Y0156161D01*
G75*
G02*
X0147047Y0156437I0000000J0000276D01*
G01*
G37*
G36*
G01*
X0119370Y0156727D02*
X0119370Y0159405D01*
G75*
G02*
X0119704Y0159739I0000335J0000000D01*
G01*
X0122381Y0159739D01*
G75*
G02*
X0122716Y0159405I0000000J-000335D01*
G01*
X0122716Y0156727D01*
G75*
G02*
X0122381Y0156393I-000335J0000000D01*
G01*
X0119704Y0156393D01*
G75*
G02*
X0119370Y0156727I0000000J0000335D01*
G01*
G37*
G36*
G01*
X0125590Y0156727D02*
X0125590Y0159405D01*
G75*
G02*
X0125925Y0159739I0000335J0000000D01*
G01*
X0128602Y0159739D01*
G75*
G02*
X0128937Y0159405I0000000J-000335D01*
G01*
X0128937Y0156727D01*
G75*
G02*
X0128602Y0156393I-000335J0000000D01*
G01*
X0125925Y0156393D01*
G75*
G02*
X0125590Y0156727I0000000J0000335D01*
G01*
G37*
G36*
G01*
X0320177Y0226555D02*
X0320177Y0227736D01*
G75*
G02*
X0320767Y0228327I0000591J0000000D01*
G01*
X0327263Y0228327D01*
G75*
G02*
X0327854Y0227736I0000000J-000591D01*
G01*
X0327854Y0226555D01*
G75*
G02*
X0327263Y0225965I-000591J0000000D01*
G01*
X0320767Y0225965D01*
G75*
G02*
X0320177Y0226555I0000000J0000591D01*
G01*
G37*
G36*
G01*
X0320177Y0221555D02*
X0320177Y0222736D01*
G75*
G02*
X0320767Y0223327I0000591J0000000D01*
G01*
X0327263Y0223327D01*
G75*
G02*
X0327854Y0222736I0000000J-000591D01*
G01*
X0327854Y0221555D01*
G75*
G02*
X0327263Y0220965I-000591J0000000D01*
G01*
X0320767Y0220965D01*
G75*
G02*
X0320177Y0221555I0000000J0000591D01*
G01*
G37*
G36*
G01*
X0320177Y0216555D02*
X0320177Y0217736D01*
G75*
G02*
X0320767Y0218327I0000591J0000000D01*
G01*
X0327263Y0218327D01*
G75*
G02*
X0327854Y0217736I0000000J-000591D01*
G01*
X0327854Y0216555D01*
G75*
G02*
X0327263Y0215965I-000591J0000000D01*
G01*
X0320767Y0215965D01*
G75*
G02*
X0320177Y0216555I0000000J0000591D01*
G01*
G37*
G36*
G01*
X0320177Y0211555D02*
X0320177Y0212736D01*
G75*
G02*
X0320767Y0213327I0000591J0000000D01*
G01*
X0327263Y0213327D01*
G75*
G02*
X0327854Y0212736I0000000J-000591D01*
G01*
X0327854Y0211555D01*
G75*
G02*
X0327263Y0210965I-000591J0000000D01*
G01*
X0320767Y0210965D01*
G75*
G02*
X0320177Y0211555I0000000J0000591D01*
G01*
G37*
G36*
G01*
X0339665Y0211555D02*
X0339665Y0212736D01*
G75*
G02*
X0340255Y0213327I0000591J0000000D01*
G01*
X0346752Y0213327D01*
G75*
G02*
X0347342Y0212736I0000000J-000591D01*
G01*
X0347342Y0211555D01*
G75*
G02*
X0346752Y0210965I-000591J0000000D01*
G01*
X0340255Y0210965D01*
G75*
G02*
X0339665Y0211555I0000000J0000591D01*
G01*
G37*
G36*
G01*
X0339665Y0216555D02*
X0339665Y0217736D01*
G75*
G02*
X0340255Y0218327I0000591J0000000D01*
G01*
X0346752Y0218327D01*
G75*
G02*
X0347342Y0217736I0000000J-000591D01*
G01*
X0347342Y0216555D01*
G75*
G02*
X0346752Y0215965I-000591J0000000D01*
G01*
X0340255Y0215965D01*
G75*
G02*
X0339665Y0216555I0000000J0000591D01*
G01*
G37*
G36*
G01*
X0339665Y0221555D02*
X0339665Y0222736D01*
G75*
G02*
X0340255Y0223327I0000591J0000000D01*
G01*
X0346752Y0223327D01*
G75*
G02*
X0347342Y0222736I0000000J-000591D01*
G01*
X0347342Y0221555D01*
G75*
G02*
X0346752Y0220965I-000591J0000000D01*
G01*
X0340255Y0220965D01*
G75*
G02*
X0339665Y0221555I0000000J0000591D01*
G01*
G37*
G36*
G01*
X0339665Y0226555D02*
X0339665Y0227736D01*
G75*
G02*
X0340255Y0228327I0000591J0000000D01*
G01*
X0346752Y0228327D01*
G75*
G02*
X0347342Y0227736I0000000J-000591D01*
G01*
X0347342Y0226555D01*
G75*
G02*
X0346752Y0225965I-000591J0000000D01*
G01*
X0340255Y0225965D01*
G75*
G02*
X0339665Y0226555I0000000J0000591D01*
G01*
G37*
G36*
G01*
X0067007Y0236279D02*
X0067007Y0239350D01*
G75*
G02*
X0067283Y0239626I0000276J0000000D01*
G01*
X0069488Y0239626D01*
G75*
G02*
X0069763Y0239350I0000000J-000276D01*
G01*
X0069763Y0236279D01*
G75*
G02*
X0069488Y0236004I-000276J0000000D01*
G01*
X0067283Y0236004D01*
G75*
G02*
X0067007Y0236279I0000000J0000276D01*
G01*
G37*
G36*
G01*
X0073307Y0236279D02*
X0073307Y0239350D01*
G75*
G02*
X0073582Y0239626I0000276J0000000D01*
G01*
X0075787Y0239626D01*
G75*
G02*
X0076063Y0239350I0000000J-000276D01*
G01*
X0076063Y0236279D01*
G75*
G02*
X0075787Y0236004I-000276J0000000D01*
G01*
X0073582Y0236004D01*
G75*
G02*
X0073307Y0236279I0000000J0000276D01*
G01*
G37*
G36*
G01*
X0119370Y0149050D02*
X0119370Y0151728D01*
G75*
G02*
X0119704Y0152062I0000335J0000000D01*
G01*
X0122381Y0152062D01*
G75*
G02*
X0122716Y0151728I0000000J-000335D01*
G01*
X0122716Y0149050D01*
G75*
G02*
X0122381Y0148716I-000335J0000000D01*
G01*
X0119704Y0148716D01*
G75*
G02*
X0119370Y0149050I0000000J0000335D01*
G01*
G37*
G36*
G01*
X0125590Y0149050D02*
X0125590Y0151728D01*
G75*
G02*
X0125925Y0152062I0000335J0000000D01*
G01*
X0128602Y0152062D01*
G75*
G02*
X0128937Y0151728I0000000J-000335D01*
G01*
X0128937Y0149050D01*
G75*
G02*
X0128602Y0148716I-000335J0000000D01*
G01*
X0125925Y0148716D01*
G75*
G02*
X0125590Y0149050I0000000J0000335D01*
G01*
G37*
G36*
G01*
X0051653Y0156437D02*
X0051653Y0159508D01*
G75*
G02*
X0051929Y0159783I0000276J0000000D01*
G01*
X0054133Y0159783D01*
G75*
G02*
X0054409Y0159508I0000000J-000276D01*
G01*
X0054409Y0156437D01*
G75*
G02*
X0054133Y0156161I-000276J0000000D01*
G01*
X0051929Y0156161D01*
G75*
G02*
X0051653Y0156437I0000000J0000276D01*
G01*
G37*
G36*
G01*
X0057952Y0156437D02*
X0057952Y0159508D01*
G75*
G02*
X0058228Y0159783I0000276J0000000D01*
G01*
X0060433Y0159783D01*
G75*
G02*
X0060708Y0159508I0000000J-000276D01*
G01*
X0060708Y0156437D01*
G75*
G02*
X0060433Y0156161I-000276J0000000D01*
G01*
X0058228Y0156161D01*
G75*
G02*
X0057952Y0156437I0000000J0000276D01*
G01*
G37*
G36*
G01*
X0098503Y0141090D02*
X0098503Y0144161D01*
G75*
G02*
X0098779Y0144437I0000276J0000000D01*
G01*
X0100984Y0144437D01*
G75*
G02*
X0101259Y0144161I0000000J-000276D01*
G01*
X0101259Y0141090D01*
G75*
G02*
X0100984Y0140815I-000276J0000000D01*
G01*
X0098779Y0140815D01*
G75*
G02*
X0098503Y0141090I0000000J0000276D01*
G01*
G37*
G36*
G01*
X0104803Y0141090D02*
X0104803Y0144161D01*
G75*
G02*
X0105078Y0144437I0000276J0000000D01*
G01*
X0107283Y0144437D01*
G75*
G02*
X0107559Y0144161I0000000J-000276D01*
G01*
X0107559Y0141090D01*
G75*
G02*
X0107283Y0140815I-000276J0000000D01*
G01*
X0105078Y0140815D01*
G75*
G02*
X0104803Y0141090I0000000J0000276D01*
G01*
G37*
G36*
G01*
X0110767Y0230428D02*
X0108051Y0230428D01*
G75*
G02*
X0107145Y0231334I0000000J0000906D01*
G01*
X0107145Y0236609D01*
G75*
G02*
X0108051Y0237515I0000906J0000000D01*
G01*
X0110767Y0237515D01*
G75*
G02*
X0111673Y0236609I0000000J-000906D01*
G01*
X0111673Y0231334D01*
G75*
G02*
X0110767Y0230428I-000906J0000000D01*
G01*
G37*
G36*
G01*
X0122185Y0230428D02*
X0119468Y0230428D01*
G75*
G02*
X0118563Y0231334I0000000J0000906D01*
G01*
X0118563Y0236609D01*
G75*
G02*
X0119468Y0237515I0000906J0000000D01*
G01*
X0122185Y0237515D01*
G75*
G02*
X0123090Y0236609I0000000J-000906D01*
G01*
X0123090Y0231334D01*
G75*
G02*
X0122185Y0230428I-000906J0000000D01*
G01*
G37*
G36*
G01*
X0051653Y0171784D02*
X0051653Y0174855D01*
G75*
G02*
X0051929Y0175130I0000276J0000000D01*
G01*
X0054133Y0175130D01*
G75*
G02*
X0054409Y0174855I0000000J-000276D01*
G01*
X0054409Y0171784D01*
G75*
G02*
X0054133Y0171508I-000276J0000000D01*
G01*
X0051929Y0171508D01*
G75*
G02*
X0051653Y0171784I0000000J0000276D01*
G01*
G37*
G36*
G01*
X0057952Y0171784D02*
X0057952Y0174855D01*
G75*
G02*
X0058228Y0175130I0000276J0000000D01*
G01*
X0060433Y0175130D01*
G75*
G02*
X0060708Y0174855I0000000J-000276D01*
G01*
X0060708Y0171784D01*
G75*
G02*
X0060433Y0171508I-000276J0000000D01*
G01*
X0058228Y0171508D01*
G75*
G02*
X0057952Y0171784I0000000J0000276D01*
G01*
G37*
G36*
G01*
X0077637Y0164110D02*
X0077637Y0167181D01*
G75*
G02*
X0077913Y0167457I0000276J0000000D01*
G01*
X0080118Y0167457D01*
G75*
G02*
X0080393Y0167181I0000000J-000276D01*
G01*
X0080393Y0164110D01*
G75*
G02*
X0080118Y0163835I-000276J0000000D01*
G01*
X0077913Y0163835D01*
G75*
G02*
X0077637Y0164110I0000000J0000276D01*
G01*
G37*
G36*
G01*
X0083937Y0164110D02*
X0083937Y0167181D01*
G75*
G02*
X0084212Y0167457I0000276J0000000D01*
G01*
X0086417Y0167457D01*
G75*
G02*
X0086692Y0167181I0000000J-000276D01*
G01*
X0086692Y0164110D01*
G75*
G02*
X0086417Y0163835I-000276J0000000D01*
G01*
X0084212Y0163835D01*
G75*
G02*
X0083937Y0164110I0000000J0000276D01*
G01*
G37*
G36*
G01*
X0278070Y0230925D02*
X0278070Y0242146D01*
G75*
G02*
X0279055Y0243130I0000984J0000000D01*
G01*
X0281909Y0243130D01*
G75*
G02*
X0282893Y0242146I0000000J-000984D01*
G01*
X0282893Y0230925D01*
G75*
G02*
X0281909Y0229941I-000984J0000000D01*
G01*
X0279055Y0229941D01*
G75*
G02*
X0278070Y0230925I0000000J0000984D01*
G01*
G37*
G36*
G01*
X0301397Y0230925D02*
X0301397Y0242146D01*
G75*
G02*
X0302381Y0243130I0000984J0000000D01*
G01*
X0305236Y0243130D01*
G75*
G02*
X0306220Y0242146I0000000J-000984D01*
G01*
X0306220Y0230925D01*
G75*
G02*
X0305236Y0229941I-000984J0000000D01*
G01*
X0302381Y0229941D01*
G75*
G02*
X0301397Y0230925I0000000J0000984D01*
G01*
G37*
G36*
G01*
X0077637Y0171784D02*
X0077637Y0174855D01*
G75*
G02*
X0077913Y0175130I0000276J0000000D01*
G01*
X0080118Y0175130D01*
G75*
G02*
X0080393Y0174855I0000000J-000276D01*
G01*
X0080393Y0171784D01*
G75*
G02*
X0080118Y0171508I-000276J0000000D01*
G01*
X0077913Y0171508D01*
G75*
G02*
X0077637Y0171784I0000000J0000276D01*
G01*
G37*
G36*
G01*
X0083937Y0171784D02*
X0083937Y0174855D01*
G75*
G02*
X0084212Y0175130I0000276J0000000D01*
G01*
X0086417Y0175130D01*
G75*
G02*
X0086692Y0174855I0000000J-000276D01*
G01*
X0086692Y0171784D01*
G75*
G02*
X0086417Y0171508I-000276J0000000D01*
G01*
X0084212Y0171508D01*
G75*
G02*
X0083937Y0171784I0000000J0000276D01*
G01*
G37*
G36*
G01*
X0119370Y0164405D02*
X0119370Y0167082D01*
G75*
G02*
X0119704Y0167416I0000335J0000000D01*
G01*
X0122381Y0167416D01*
G75*
G02*
X0122716Y0167082I0000000J-000335D01*
G01*
X0122716Y0164405D01*
G75*
G02*
X0122381Y0164070I-000335J0000000D01*
G01*
X0119704Y0164070D01*
G75*
G02*
X0119370Y0164405I0000000J0000335D01*
G01*
G37*
G36*
G01*
X0125590Y0164405D02*
X0125590Y0167082D01*
G75*
G02*
X0125925Y0167416I0000335J0000000D01*
G01*
X0128602Y0167416D01*
G75*
G02*
X0128937Y0167082I0000000J-000335D01*
G01*
X0128937Y0164405D01*
G75*
G02*
X0128602Y0164070I-000335J0000000D01*
G01*
X0125925Y0164070D01*
G75*
G02*
X0125590Y0164405I0000000J0000335D01*
G01*
G37*
G36*
G01*
X0064645Y0148764D02*
X0064645Y0151834D01*
G75*
G02*
X0064921Y0152110I0000276J0000000D01*
G01*
X0067126Y0152110D01*
G75*
G02*
X0067401Y0151834I0000000J-000276D01*
G01*
X0067401Y0148764D01*
G75*
G02*
X0067126Y0148488I-000276J0000000D01*
G01*
X0064921Y0148488D01*
G75*
G02*
X0064645Y0148764I0000000J0000276D01*
G01*
G37*
G36*
G01*
X0070944Y0148764D02*
X0070944Y0151834D01*
G75*
G02*
X0071220Y0152110I0000276J0000000D01*
G01*
X0073425Y0152110D01*
G75*
G02*
X0073700Y0151834I0000000J-000276D01*
G01*
X0073700Y0148764D01*
G75*
G02*
X0073425Y0148488I-000276J0000000D01*
G01*
X0071220Y0148488D01*
G75*
G02*
X0070944Y0148764I0000000J0000276D01*
G01*
G37*
G36*
G01*
X0077637Y0179457D02*
X0077637Y0182528D01*
G75*
G02*
X0077913Y0182804I0000276J0000000D01*
G01*
X0080118Y0182804D01*
G75*
G02*
X0080393Y0182528I0000000J-000276D01*
G01*
X0080393Y0179457D01*
G75*
G02*
X0080118Y0179182I-000276J0000000D01*
G01*
X0077913Y0179182D01*
G75*
G02*
X0077637Y0179457I0000000J0000276D01*
G01*
G37*
G36*
G01*
X0083937Y0179457D02*
X0083937Y0182528D01*
G75*
G02*
X0084212Y0182804I0000276J0000000D01*
G01*
X0086417Y0182804D01*
G75*
G02*
X0086692Y0182528I0000000J-000276D01*
G01*
X0086692Y0179457D01*
G75*
G02*
X0086417Y0179182I-000276J0000000D01*
G01*
X0084212Y0179182D01*
G75*
G02*
X0083937Y0179457I0000000J0000276D01*
G01*
G37*
G36*
G01*
X0106733Y0219757D02*
X0106733Y0224678D01*
G75*
G02*
X0107127Y0225072I0000394J0000000D01*
G01*
X0110277Y0225072D01*
G75*
G02*
X0110670Y0224678I0000000J-000394D01*
G01*
X0110670Y0219757D01*
G75*
G02*
X0110277Y0219363I-000394J0000000D01*
G01*
X0107127Y0219363D01*
G75*
G02*
X0106733Y0219757I0000000J0000394D01*
G01*
G37*
G36*
G01*
X0114214Y0219757D02*
X0114214Y0224678D01*
G75*
G02*
X0114607Y0225072I0000394J0000000D01*
G01*
X0117757Y0225072D01*
G75*
G02*
X0118151Y0224678I0000000J-000394D01*
G01*
X0118151Y0219757D01*
G75*
G02*
X0117757Y0219363I-000394J0000000D01*
G01*
X0114607Y0219363D01*
G75*
G02*
X0114214Y0219757I0000000J0000394D01*
G01*
G37*
G36*
G01*
X0230255Y0243583D02*
X0230255Y0246339D01*
G75*
G02*
X0231240Y0247323I0000984J0000000D01*
G01*
X0237933Y0247323D01*
G75*
G02*
X0238917Y0246339I0000000J-000984D01*
G01*
X0238917Y0243583D01*
G75*
G02*
X0237933Y0242598I-000984J0000000D01*
G01*
X0231240Y0242598D01*
G75*
G02*
X0230255Y0243583I0000000J0000984D01*
G01*
G37*
G36*
G01*
X0246791Y0237559D02*
X0246791Y0246417D01*
G75*
G02*
X0247775Y0247402I0000984J0000000D01*
G01*
X0257815Y0247402D01*
G75*
G02*
X0258799Y0246417I0000000J-000984D01*
G01*
X0258799Y0237559D01*
G75*
G02*
X0257815Y0236575I-000984J0000000D01*
G01*
X0247775Y0236575D01*
G75*
G02*
X0246791Y0237559I0000000J0000984D01*
G01*
G37*
G36*
G01*
X0246791Y0225551D02*
X0246791Y0234409D01*
G75*
G02*
X0247775Y0235394I0000984J0000000D01*
G01*
X0257815Y0235394D01*
G75*
G02*
X0258799Y0234409I0000000J-000984D01*
G01*
X0258799Y0225551D01*
G75*
G02*
X0257815Y0224567I-000984J0000000D01*
G01*
X0247775Y0224567D01*
G75*
G02*
X0246791Y0225551I0000000J0000984D01*
G01*
G37*
G36*
G01*
X0259980Y0237559D02*
X0259980Y0246417D01*
G75*
G02*
X0260964Y0247402I0000984J0000000D01*
G01*
X0271003Y0247402D01*
G75*
G02*
X0271988Y0246417I0000000J-000984D01*
G01*
X0271988Y0237559D01*
G75*
G02*
X0271003Y0236575I-000984J0000000D01*
G01*
X0260964Y0236575D01*
G75*
G02*
X0259980Y0237559I0000000J0000984D01*
G01*
G37*
G36*
G01*
X0259980Y0225551D02*
X0259980Y0234409D01*
G75*
G02*
X0260964Y0235394I0000984J0000000D01*
G01*
X0271003Y0235394D01*
G75*
G02*
X0271988Y0234409I0000000J-000984D01*
G01*
X0271988Y0225551D01*
G75*
G02*
X0271003Y0224567I-000984J0000000D01*
G01*
X0260964Y0224567D01*
G75*
G02*
X0259980Y0225551I0000000J0000984D01*
G01*
G37*
G36*
G01*
X0230255Y0225630D02*
X0230255Y0228386D01*
G75*
G02*
X0231240Y0229370I0000984J0000000D01*
G01*
X0237933Y0229370D01*
G75*
G02*
X0238917Y0228386I0000000J-000984D01*
G01*
X0238917Y0225630D01*
G75*
G02*
X0237933Y0224646I-000984J0000000D01*
G01*
X0231240Y0224646D01*
G75*
G02*
X0230255Y0225630I0000000J0000984D01*
G01*
G37*
G36*
G01*
X0230255Y0211319D02*
X0230255Y0214075D01*
G75*
G02*
X0231240Y0215059I0000984J0000000D01*
G01*
X0237933Y0215059D01*
G75*
G02*
X0238917Y0214075I0000000J-000984D01*
G01*
X0238917Y0211319D01*
G75*
G02*
X0237933Y0210335I-000984J0000000D01*
G01*
X0231240Y0210335D01*
G75*
G02*
X0230255Y0211319I0000000J0000984D01*
G01*
G37*
G36*
G01*
X0246791Y0205295D02*
X0246791Y0214153D01*
G75*
G02*
X0247775Y0215138I0000984J0000000D01*
G01*
X0257815Y0215138D01*
G75*
G02*
X0258799Y0214153I0000000J-000984D01*
G01*
X0258799Y0205295D01*
G75*
G02*
X0257815Y0204311I-000984J0000000D01*
G01*
X0247775Y0204311D01*
G75*
G02*
X0246791Y0205295I0000000J0000984D01*
G01*
G37*
G36*
G01*
X0246791Y0193287D02*
X0246791Y0202146D01*
G75*
G02*
X0247775Y0203130I0000984J0000000D01*
G01*
X0257815Y0203130D01*
G75*
G02*
X0258799Y0202146I0000000J-000984D01*
G01*
X0258799Y0193287D01*
G75*
G02*
X0257815Y0192303I-000984J0000000D01*
G01*
X0247775Y0192303D01*
G75*
G02*
X0246791Y0193287I0000000J0000984D01*
G01*
G37*
G36*
G01*
X0259980Y0205295D02*
X0259980Y0214153D01*
G75*
G02*
X0260964Y0215138I0000984J0000000D01*
G01*
X0271003Y0215138D01*
G75*
G02*
X0271988Y0214153I0000000J-000984D01*
G01*
X0271988Y0205295D01*
G75*
G02*
X0271003Y0204311I-000984J0000000D01*
G01*
X0260964Y0204311D01*
G75*
G02*
X0259980Y0205295I0000000J0000984D01*
G01*
G37*
G36*
G01*
X0259980Y0193287D02*
X0259980Y0202146D01*
G75*
G02*
X0260964Y0203130I0000984J0000000D01*
G01*
X0271003Y0203130D01*
G75*
G02*
X0271988Y0202146I0000000J-000984D01*
G01*
X0271988Y0193287D01*
G75*
G02*
X0271003Y0192303I-000984J0000000D01*
G01*
X0260964Y0192303D01*
G75*
G02*
X0259980Y0193287I0000000J0000984D01*
G01*
G37*
G36*
G01*
X0230255Y0193366D02*
X0230255Y0196122D01*
G75*
G02*
X0231240Y0197106I0000984J0000000D01*
G01*
X0237933Y0197106D01*
G75*
G02*
X0238917Y0196122I0000000J-000984D01*
G01*
X0238917Y0193366D01*
G75*
G02*
X0237933Y0192382I-000984J0000000D01*
G01*
X0231240Y0192382D01*
G75*
G02*
X0230255Y0193366I0000000J0000984D01*
G01*
G37*
G36*
G01*
X0278110Y0143440D02*
X0278110Y0145458D01*
G75*
G02*
X0278971Y0146319I0000861J0000000D01*
G01*
X0280693Y0146319D01*
G75*
G02*
X0281555Y0145458I0000000J-000861D01*
G01*
X0281555Y0143440D01*
G75*
G02*
X0280693Y0142579I-000861J0000000D01*
G01*
X0278971Y0142579D01*
G75*
G02*
X0278110Y0143440I0000000J0000861D01*
G01*
G37*
G36*
G01*
X0284311Y0143440D02*
X0284311Y0145458D01*
G75*
G02*
X0285172Y0146319I0000861J0000000D01*
G01*
X0286894Y0146319D01*
G75*
G02*
X0287755Y0145458I0000000J-000861D01*
G01*
X0287755Y0143440D01*
G75*
G02*
X0286894Y0142579I-000861J0000000D01*
G01*
X0285172Y0142579D01*
G75*
G02*
X0284311Y0143440I0000000J0000861D01*
G01*
G37*
G36*
G01*
X0051653Y0164110D02*
X0051653Y0167181D01*
G75*
G02*
X0051929Y0167457I0000276J0000000D01*
G01*
X0054133Y0167457D01*
G75*
G02*
X0054409Y0167181I0000000J-000276D01*
G01*
X0054409Y0164110D01*
G75*
G02*
X0054133Y0163835I-000276J0000000D01*
G01*
X0051929Y0163835D01*
G75*
G02*
X0051653Y0164110I0000000J0000276D01*
G01*
G37*
G36*
G01*
X0057952Y0164110D02*
X0057952Y0167181D01*
G75*
G02*
X0058228Y0167457I0000276J0000000D01*
G01*
X0060433Y0167457D01*
G75*
G02*
X0060708Y0167181I0000000J-000276D01*
G01*
X0060708Y0164110D01*
G75*
G02*
X0060433Y0163835I-000276J0000000D01*
G01*
X0058228Y0163835D01*
G75*
G02*
X0057952Y0164110I0000000J0000276D01*
G01*
G37*
G36*
G01*
X0278110Y0133558D02*
X0278110Y0135576D01*
G75*
G02*
X0278971Y0136437I0000861J0000000D01*
G01*
X0280693Y0136437D01*
G75*
G02*
X0281555Y0135576I0000000J-000861D01*
G01*
X0281555Y0133558D01*
G75*
G02*
X0280693Y0132697I-000861J0000000D01*
G01*
X0278971Y0132697D01*
G75*
G02*
X0278110Y0133558I0000000J0000861D01*
G01*
G37*
G36*
G01*
X0284311Y0133558D02*
X0284311Y0135576D01*
G75*
G02*
X0285172Y0136437I0000861J0000000D01*
G01*
X0286894Y0136437D01*
G75*
G02*
X0287755Y0135576I0000000J-000861D01*
G01*
X0287755Y0133558D01*
G75*
G02*
X0286894Y0132697I-000861J0000000D01*
G01*
X0285172Y0132697D01*
G75*
G02*
X0284311Y0133558I0000000J0000861D01*
G01*
G37*
G36*
G01*
X0278110Y0113794D02*
X0278110Y0115812D01*
G75*
G02*
X0278971Y0116673I0000861J0000000D01*
G01*
X0280693Y0116673D01*
G75*
G02*
X0281555Y0115812I0000000J-000861D01*
G01*
X0281555Y0113794D01*
G75*
G02*
X0280693Y0112933I-000861J0000000D01*
G01*
X0278971Y0112933D01*
G75*
G02*
X0278110Y0113794I0000000J0000861D01*
G01*
G37*
G36*
G01*
X0284311Y0113794D02*
X0284311Y0115812D01*
G75*
G02*
X0285172Y0116673I0000861J0000000D01*
G01*
X0286894Y0116673D01*
G75*
G02*
X0287755Y0115812I0000000J-000861D01*
G01*
X0287755Y0113794D01*
G75*
G02*
X0286894Y0112933I-000861J0000000D01*
G01*
X0285172Y0112933D01*
G75*
G02*
X0284311Y0113794I0000000J0000861D01*
G01*
G37*
G36*
G01*
X0361318Y0249646D02*
X0361318Y0251220D01*
G75*
G02*
X0362106Y0252008I0000787J0000000D01*
G01*
X0369192Y0252008D01*
G75*
G02*
X0369980Y0251220I0000000J-000787D01*
G01*
X0369980Y0249646D01*
G75*
G02*
X0369192Y0248858I-000787J0000000D01*
G01*
X0362106Y0248858D01*
G75*
G02*
X0361318Y0249646I0000000J0000787D01*
G01*
G37*
G36*
G01*
X0361318Y0245157D02*
X0361318Y0246732D01*
G75*
G02*
X0362106Y0247520I0000787J0000000D01*
G01*
X0369192Y0247520D01*
G75*
G02*
X0369980Y0246732I0000000J-000787D01*
G01*
X0369980Y0245157D01*
G75*
G02*
X0369192Y0244370I-000787J0000000D01*
G01*
X0362106Y0244370D01*
G75*
G02*
X0361318Y0245157I0000000J0000787D01*
G01*
G37*
G36*
G01*
X0377854Y0243031D02*
X0377854Y0251890D01*
G75*
G02*
X0378838Y0252874I0000984J0000000D01*
G01*
X0388878Y0252874D01*
G75*
G02*
X0389862Y0251890I0000000J-000984D01*
G01*
X0389862Y0243031D01*
G75*
G02*
X0388878Y0242047I-000984J0000000D01*
G01*
X0378838Y0242047D01*
G75*
G02*
X0377854Y0243031I0000000J0000984D01*
G01*
G37*
G36*
G01*
X0377854Y0231024D02*
X0377854Y0239882D01*
G75*
G02*
X0378838Y0240866I0000984J0000000D01*
G01*
X0388878Y0240866D01*
G75*
G02*
X0389862Y0239882I0000000J-000984D01*
G01*
X0389862Y0231024D01*
G75*
G02*
X0388878Y0230039I-000984J0000000D01*
G01*
X0378838Y0230039D01*
G75*
G02*
X0377854Y0231024I0000000J0000984D01*
G01*
G37*
G36*
G01*
X0391043Y0243031D02*
X0391043Y0251890D01*
G75*
G02*
X0392027Y0252874I0000984J0000000D01*
G01*
X0402066Y0252874D01*
G75*
G02*
X0403051Y0251890I0000000J-000984D01*
G01*
X0403051Y0243031D01*
G75*
G02*
X0402066Y0242047I-000984J0000000D01*
G01*
X0392027Y0242047D01*
G75*
G02*
X0391043Y0243031I0000000J0000984D01*
G01*
G37*
G36*
G01*
X0391043Y0231024D02*
X0391043Y0239882D01*
G75*
G02*
X0392027Y0240866I0000984J0000000D01*
G01*
X0402066Y0240866D01*
G75*
G02*
X0403051Y0239882I0000000J-000984D01*
G01*
X0403051Y0231024D01*
G75*
G02*
X0402066Y0230039I-000984J0000000D01*
G01*
X0392027Y0230039D01*
G75*
G02*
X0391043Y0231024I0000000J0000984D01*
G01*
G37*
G36*
G01*
X0361318Y0236181D02*
X0361318Y0237756D01*
G75*
G02*
X0362106Y0238543I0000787J0000000D01*
G01*
X0369192Y0238543D01*
G75*
G02*
X0369980Y0237756I0000000J-000787D01*
G01*
X0369980Y0236181D01*
G75*
G02*
X0369192Y0235394I-000787J0000000D01*
G01*
X0362106Y0235394D01*
G75*
G02*
X0361318Y0236181I0000000J0000787D01*
G01*
G37*
G36*
G01*
X0361318Y0231693D02*
X0361318Y0233268D01*
G75*
G02*
X0362106Y0234055I0000787J0000000D01*
G01*
X0369192Y0234055D01*
G75*
G02*
X0369980Y0233268I0000000J-000787D01*
G01*
X0369980Y0231693D01*
G75*
G02*
X0369192Y0230905I-000787J0000000D01*
G01*
X0362106Y0230905D01*
G75*
G02*
X0361318Y0231693I0000000J0000787D01*
G01*
G37*
G36*
G01*
X0051653Y0179457D02*
X0051653Y0182528D01*
G75*
G02*
X0051929Y0182804I0000276J0000000D01*
G01*
X0054133Y0182804D01*
G75*
G02*
X0054409Y0182528I0000000J-000276D01*
G01*
X0054409Y0179457D01*
G75*
G02*
X0054133Y0179182I-000276J0000000D01*
G01*
X0051929Y0179182D01*
G75*
G02*
X0051653Y0179457I0000000J0000276D01*
G01*
G37*
G36*
G01*
X0057952Y0179457D02*
X0057952Y0182528D01*
G75*
G02*
X0058228Y0182804I0000276J0000000D01*
G01*
X0060433Y0182804D01*
G75*
G02*
X0060708Y0182528I0000000J-000276D01*
G01*
X0060708Y0179457D01*
G75*
G02*
X0060433Y0179182I-000276J0000000D01*
G01*
X0058228Y0179182D01*
G75*
G02*
X0057952Y0179457I0000000J0000276D01*
G01*
G37*
G36*
G01*
X0051653Y0257298D02*
X0051653Y0262219D01*
G75*
G02*
X0052047Y0262613I0000394J0000000D01*
G01*
X0055196Y0262613D01*
G75*
G02*
X0055590Y0262219I0000000J-000394D01*
G01*
X0055590Y0257298D01*
G75*
G02*
X0055196Y0256904I-000394J0000000D01*
G01*
X0052047Y0256904D01*
G75*
G02*
X0051653Y0257298I0000000J0000394D01*
G01*
G37*
G36*
G01*
X0059134Y0257298D02*
X0059134Y0262219D01*
G75*
G02*
X0059527Y0262613I0000394J0000000D01*
G01*
X0062677Y0262613D01*
G75*
G02*
X0063071Y0262219I0000000J-000394D01*
G01*
X0063071Y0257298D01*
G75*
G02*
X0062677Y0256904I-000394J0000000D01*
G01*
X0059527Y0256904D01*
G75*
G02*
X0059134Y0257298I0000000J0000394D01*
G01*
G37*
G36*
G01*
X0080826Y0244247D02*
X0080826Y0248263D01*
G75*
G02*
X0081181Y0248617I0000354J0000000D01*
G01*
X0084015Y0248617D01*
G75*
G02*
X0084370Y0248263I0000000J-000354D01*
G01*
X0084370Y0244247D01*
G75*
G02*
X0084015Y0243893I-000354J0000000D01*
G01*
X0081181Y0243893D01*
G75*
G02*
X0080826Y0244247I0000000J0000354D01*
G01*
G37*
G36*
G01*
X0093818Y0244247D02*
X0093818Y0248263D01*
G75*
G02*
X0094173Y0248617I0000354J0000000D01*
G01*
X0097007Y0248617D01*
G75*
G02*
X0097362Y0248263I0000000J-000354D01*
G01*
X0097362Y0244247D01*
G75*
G02*
X0097007Y0243893I-000354J0000000D01*
G01*
X0094173Y0243893D01*
G75*
G02*
X0093818Y0244247I0000000J0000354D01*
G01*
G37*
G36*
G01*
X0051653Y0227736D02*
X0051653Y0232657D01*
G75*
G02*
X0052047Y0233051I0000394J0000000D01*
G01*
X0055196Y0233051D01*
G75*
G02*
X0055590Y0232657I0000000J-000394D01*
G01*
X0055590Y0227736D01*
G75*
G02*
X0055196Y0227342I-000394J0000000D01*
G01*
X0052047Y0227342D01*
G75*
G02*
X0051653Y0227736I0000000J0000394D01*
G01*
G37*
G36*
G01*
X0059134Y0227736D02*
X0059134Y0232657D01*
G75*
G02*
X0059527Y0233051I0000394J0000000D01*
G01*
X0062677Y0233051D01*
G75*
G02*
X0063071Y0232657I0000000J-000394D01*
G01*
X0063071Y0227736D01*
G75*
G02*
X0062677Y0227342I-000394J0000000D01*
G01*
X0059527Y0227342D01*
G75*
G02*
X0059134Y0227736I0000000J0000394D01*
G01*
G37*
G36*
G01*
X0140748Y0251626D02*
X0140748Y0254697D01*
G75*
G02*
X0141023Y0254973I0000276J0000000D01*
G01*
X0143228Y0254973D01*
G75*
G02*
X0143503Y0254697I0000000J-000276D01*
G01*
X0143503Y0251626D01*
G75*
G02*
X0143228Y0251351I-000276J0000000D01*
G01*
X0141023Y0251351D01*
G75*
G02*
X0140748Y0251626I0000000J0000276D01*
G01*
G37*
G36*
G01*
X0147047Y0251626D02*
X0147047Y0254697D01*
G75*
G02*
X0147322Y0254973I0000276J0000000D01*
G01*
X0149527Y0254973D01*
G75*
G02*
X0149803Y0254697I0000000J-000276D01*
G01*
X0149803Y0251626D01*
G75*
G02*
X0149527Y0251351I-000276J0000000D01*
G01*
X0147322Y0251351D01*
G75*
G02*
X0147047Y0251626I0000000J0000276D01*
G01*
G37*
G36*
G01*
X0140748Y0213259D02*
X0140748Y0216330D01*
G75*
G02*
X0141023Y0216606I0000276J0000000D01*
G01*
X0143228Y0216606D01*
G75*
G02*
X0143503Y0216330I0000000J-000276D01*
G01*
X0143503Y0213259D01*
G75*
G02*
X0143228Y0212984I-000276J0000000D01*
G01*
X0141023Y0212984D01*
G75*
G02*
X0140748Y0213259I0000000J0000276D01*
G01*
G37*
G36*
G01*
X0147047Y0213259D02*
X0147047Y0216330D01*
G75*
G02*
X0147322Y0216606I0000276J0000000D01*
G01*
X0149527Y0216606D01*
G75*
G02*
X0149803Y0216330I0000000J-000276D01*
G01*
X0149803Y0213259D01*
G75*
G02*
X0149527Y0212984I-000276J0000000D01*
G01*
X0147322Y0212984D01*
G75*
G02*
X0147047Y0213259I0000000J0000276D01*
G01*
G37*
G36*
G01*
X0098503Y0179457D02*
X0098503Y0182528D01*
G75*
G02*
X0098779Y0182804I0000276J0000000D01*
G01*
X0100984Y0182804D01*
G75*
G02*
X0101259Y0182528I0000000J-000276D01*
G01*
X0101259Y0179457D01*
G75*
G02*
X0100984Y0179182I-000276J0000000D01*
G01*
X0098779Y0179182D01*
G75*
G02*
X0098503Y0179457I0000000J0000276D01*
G01*
G37*
G36*
G01*
X0104803Y0179457D02*
X0104803Y0182528D01*
G75*
G02*
X0105078Y0182804I0000276J0000000D01*
G01*
X0107283Y0182804D01*
G75*
G02*
X0107559Y0182528I0000000J-000276D01*
G01*
X0107559Y0179457D01*
G75*
G02*
X0107283Y0179182I-000276J0000000D01*
G01*
X0105078Y0179182D01*
G75*
G02*
X0104803Y0179457I0000000J0000276D01*
G01*
G37*
G36*
G01*
X0067007Y0243953D02*
X0067007Y0247024D01*
G75*
G02*
X0067283Y0247299I0000276J0000000D01*
G01*
X0069488Y0247299D01*
G75*
G02*
X0069763Y0247024I0000000J-000276D01*
G01*
X0069763Y0243953D01*
G75*
G02*
X0069488Y0243677I-000276J0000000D01*
G01*
X0067283Y0243677D01*
G75*
G02*
X0067007Y0243953I0000000J0000276D01*
G01*
G37*
G36*
G01*
X0073307Y0243953D02*
X0073307Y0247024D01*
G75*
G02*
X0073582Y0247299I0000276J0000000D01*
G01*
X0075787Y0247299D01*
G75*
G02*
X0076063Y0247024I0000000J-000276D01*
G01*
X0076063Y0243953D01*
G75*
G02*
X0075787Y0243677I-000276J0000000D01*
G01*
X0073582Y0243677D01*
G75*
G02*
X0073307Y0243953I0000000J0000276D01*
G01*
G37*
G36*
G01*
X0320177Y0166870D02*
X0320177Y0168051D01*
G75*
G02*
X0320767Y0168642I0000591J0000000D01*
G01*
X0327263Y0168642D01*
G75*
G02*
X0327854Y0168051I0000000J-000591D01*
G01*
X0327854Y0166870D01*
G75*
G02*
X0327263Y0166279I-000591J0000000D01*
G01*
X0320767Y0166279D01*
G75*
G02*
X0320177Y0166870I0000000J0000591D01*
G01*
G37*
G36*
G01*
X0320177Y0161870D02*
X0320177Y0163051D01*
G75*
G02*
X0320767Y0163642I0000591J0000000D01*
G01*
X0327263Y0163642D01*
G75*
G02*
X0327854Y0163051I0000000J-000591D01*
G01*
X0327854Y0161870D01*
G75*
G02*
X0327263Y0161279I-000591J0000000D01*
G01*
X0320767Y0161279D01*
G75*
G02*
X0320177Y0161870I0000000J0000591D01*
G01*
G37*
G36*
G01*
X0320177Y0156870D02*
X0320177Y0158051D01*
G75*
G02*
X0320767Y0158642I0000591J0000000D01*
G01*
X0327263Y0158642D01*
G75*
G02*
X0327854Y0158051I0000000J-000591D01*
G01*
X0327854Y0156870D01*
G75*
G02*
X0327263Y0156279I-000591J0000000D01*
G01*
X0320767Y0156279D01*
G75*
G02*
X0320177Y0156870I0000000J0000591D01*
G01*
G37*
G36*
G01*
X0320177Y0151870D02*
X0320177Y0153051D01*
G75*
G02*
X0320767Y0153642I0000591J0000000D01*
G01*
X0327263Y0153642D01*
G75*
G02*
X0327854Y0153051I0000000J-000591D01*
G01*
X0327854Y0151870D01*
G75*
G02*
X0327263Y0151279I-000591J0000000D01*
G01*
X0320767Y0151279D01*
G75*
G02*
X0320177Y0151870I0000000J0000591D01*
G01*
G37*
G36*
G01*
X0339665Y0151870D02*
X0339665Y0153051D01*
G75*
G02*
X0340255Y0153642I0000591J0000000D01*
G01*
X0346752Y0153642D01*
G75*
G02*
X0347342Y0153051I0000000J-000591D01*
G01*
X0347342Y0151870D01*
G75*
G02*
X0346752Y0151279I-000591J0000000D01*
G01*
X0340255Y0151279D01*
G75*
G02*
X0339665Y0151870I0000000J0000591D01*
G01*
G37*
G36*
G01*
X0339665Y0156870D02*
X0339665Y0158051D01*
G75*
G02*
X0340255Y0158642I0000591J0000000D01*
G01*
X0346752Y0158642D01*
G75*
G02*
X0347342Y0158051I0000000J-000591D01*
G01*
X0347342Y0156870D01*
G75*
G02*
X0346752Y0156279I-000591J0000000D01*
G01*
X0340255Y0156279D01*
G75*
G02*
X0339665Y0156870I0000000J0000591D01*
G01*
G37*
G36*
G01*
X0339665Y0161870D02*
X0339665Y0163051D01*
G75*
G02*
X0340255Y0163642I0000591J0000000D01*
G01*
X0346752Y0163642D01*
G75*
G02*
X0347342Y0163051I0000000J-000591D01*
G01*
X0347342Y0161870D01*
G75*
G02*
X0346752Y0161279I-000591J0000000D01*
G01*
X0340255Y0161279D01*
G75*
G02*
X0339665Y0161870I0000000J0000591D01*
G01*
G37*
G36*
G01*
X0339665Y0166870D02*
X0339665Y0168051D01*
G75*
G02*
X0340255Y0168642I0000591J0000000D01*
G01*
X0346752Y0168642D01*
G75*
G02*
X0347342Y0168051I0000000J-000591D01*
G01*
X0347342Y0166870D01*
G75*
G02*
X0346752Y0166279I-000591J0000000D01*
G01*
X0340255Y0166279D01*
G75*
G02*
X0339665Y0166870I0000000J0000591D01*
G01*
G37*
G36*
G01*
X0278070Y0211673D02*
X0278070Y0222894D01*
G75*
G02*
X0279055Y0223878I0000984J0000000D01*
G01*
X0281909Y0223878D01*
G75*
G02*
X0282893Y0222894I0000000J-000984D01*
G01*
X0282893Y0211673D01*
G75*
G02*
X0281909Y0210689I-000984J0000000D01*
G01*
X0279055Y0210689D01*
G75*
G02*
X0278070Y0211673I0000000J0000984D01*
G01*
G37*
G36*
G01*
X0301397Y0211673D02*
X0301397Y0222894D01*
G75*
G02*
X0302381Y0223878I0000984J0000000D01*
G01*
X0305236Y0223878D01*
G75*
G02*
X0306220Y0222894I0000000J-000984D01*
G01*
X0306220Y0211673D01*
G75*
G02*
X0305236Y0210689I-000984J0000000D01*
G01*
X0302381Y0210689D01*
G75*
G02*
X0301397Y0211673I0000000J0000984D01*
G01*
G37*
G36*
G01*
X0077637Y0156437D02*
X0077637Y0159508D01*
G75*
G02*
X0077913Y0159783I0000276J0000000D01*
G01*
X0080118Y0159783D01*
G75*
G02*
X0080393Y0159508I0000000J-000276D01*
G01*
X0080393Y0156437D01*
G75*
G02*
X0080118Y0156161I-000276J0000000D01*
G01*
X0077913Y0156161D01*
G75*
G02*
X0077637Y0156437I0000000J0000276D01*
G01*
G37*
G36*
G01*
X0083937Y0156437D02*
X0083937Y0159508D01*
G75*
G02*
X0084212Y0159783I0000276J0000000D01*
G01*
X0086417Y0159783D01*
G75*
G02*
X0086692Y0159508I0000000J-000276D01*
G01*
X0086692Y0156437D01*
G75*
G02*
X0086417Y0156161I-000276J0000000D01*
G01*
X0084212Y0156161D01*
G75*
G02*
X0083937Y0156437I0000000J0000276D01*
G01*
G37*
G36*
G01*
X0067007Y0228606D02*
X0067007Y0231677D01*
G75*
G02*
X0067283Y0231953I0000276J0000000D01*
G01*
X0069488Y0231953D01*
G75*
G02*
X0069763Y0231677I0000000J-000276D01*
G01*
X0069763Y0228606D01*
G75*
G02*
X0069488Y0228330I-000276J0000000D01*
G01*
X0067283Y0228330D01*
G75*
G02*
X0067007Y0228606I0000000J0000276D01*
G01*
G37*
G36*
G01*
X0073307Y0228606D02*
X0073307Y0231677D01*
G75*
G02*
X0073582Y0231953I0000276J0000000D01*
G01*
X0075787Y0231953D01*
G75*
G02*
X0076063Y0231677I0000000J-000276D01*
G01*
X0076063Y0228606D01*
G75*
G02*
X0075787Y0228330I-000276J0000000D01*
G01*
X0073582Y0228330D01*
G75*
G02*
X0073307Y0228606I0000000J0000276D01*
G01*
G37*
G36*
G01*
X0140748Y0171784D02*
X0140748Y0174855D01*
G75*
G02*
X0141023Y0175130I0000276J0000000D01*
G01*
X0143228Y0175130D01*
G75*
G02*
X0143503Y0174855I0000000J-000276D01*
G01*
X0143503Y0171784D01*
G75*
G02*
X0143228Y0171508I-000276J0000000D01*
G01*
X0141023Y0171508D01*
G75*
G02*
X0140748Y0171784I0000000J0000276D01*
G01*
G37*
G36*
G01*
X0147047Y0171784D02*
X0147047Y0174855D01*
G75*
G02*
X0147322Y0175130I0000276J0000000D01*
G01*
X0149527Y0175130D01*
G75*
G02*
X0149803Y0174855I0000000J-000276D01*
G01*
X0149803Y0171784D01*
G75*
G02*
X0149527Y0171508I-000276J0000000D01*
G01*
X0147322Y0171508D01*
G75*
G02*
X0147047Y0171784I0000000J0000276D01*
G01*
G37*
G36*
G01*
X0051653Y0148764D02*
X0051653Y0151834D01*
G75*
G02*
X0051929Y0152110I0000276J0000000D01*
G01*
X0054133Y0152110D01*
G75*
G02*
X0054409Y0151834I0000000J-000276D01*
G01*
X0054409Y0148764D01*
G75*
G02*
X0054133Y0148488I-000276J0000000D01*
G01*
X0051929Y0148488D01*
G75*
G02*
X0051653Y0148764I0000000J0000276D01*
G01*
G37*
G36*
G01*
X0057952Y0148764D02*
X0057952Y0151834D01*
G75*
G02*
X0058228Y0152110I0000276J0000000D01*
G01*
X0060433Y0152110D01*
G75*
G02*
X0060708Y0151834I0000000J-000276D01*
G01*
X0060708Y0148764D01*
G75*
G02*
X0060433Y0148488I-000276J0000000D01*
G01*
X0058228Y0148488D01*
G75*
G02*
X0057952Y0148764I0000000J0000276D01*
G01*
G37*
G36*
G01*
X0278070Y0173169D02*
X0278070Y0184390D01*
G75*
G02*
X0279055Y0185374I0000984J0000000D01*
G01*
X0281909Y0185374D01*
G75*
G02*
X0282893Y0184390I0000000J-000984D01*
G01*
X0282893Y0173169D01*
G75*
G02*
X0281909Y0172185I-000984J0000000D01*
G01*
X0279055Y0172185D01*
G75*
G02*
X0278070Y0173169I0000000J0000984D01*
G01*
G37*
G36*
G01*
X0301397Y0173169D02*
X0301397Y0184390D01*
G75*
G02*
X0302381Y0185374I0000984J0000000D01*
G01*
X0305236Y0185374D01*
G75*
G02*
X0306220Y0184390I0000000J-000984D01*
G01*
X0306220Y0173169D01*
G75*
G02*
X0305236Y0172185I-000984J0000000D01*
G01*
X0302381Y0172185D01*
G75*
G02*
X0301397Y0173169I0000000J0000984D01*
G01*
G37*
G36*
G01*
X0278110Y0123676D02*
X0278110Y0125694D01*
G75*
G02*
X0278971Y0126555I0000861J0000000D01*
G01*
X0280693Y0126555D01*
G75*
G02*
X0281555Y0125694I0000000J-000861D01*
G01*
X0281555Y0123676D01*
G75*
G02*
X0280693Y0122815I-000861J0000000D01*
G01*
X0278971Y0122815D01*
G75*
G02*
X0278110Y0123676I0000000J0000861D01*
G01*
G37*
G36*
G01*
X0284311Y0123676D02*
X0284311Y0125694D01*
G75*
G02*
X0285172Y0126555I0000861J0000000D01*
G01*
X0286894Y0126555D01*
G75*
G02*
X0287755Y0125694I0000000J-000861D01*
G01*
X0287755Y0123676D01*
G75*
G02*
X0286894Y0122815I-000861J0000000D01*
G01*
X0285172Y0122815D01*
G75*
G02*
X0284311Y0123676I0000000J0000861D01*
G01*
G37*
G36*
G01*
X0080826Y0231963D02*
X0080826Y0235979D01*
G75*
G02*
X0081181Y0236334I0000354J0000000D01*
G01*
X0084015Y0236334D01*
G75*
G02*
X0084370Y0235979I0000000J-000354D01*
G01*
X0084370Y0231963D01*
G75*
G02*
X0084015Y0231609I-000354J0000000D01*
G01*
X0081181Y0231609D01*
G75*
G02*
X0080826Y0231963I0000000J0000354D01*
G01*
G37*
G36*
G01*
X0093818Y0231963D02*
X0093818Y0235979D01*
G75*
G02*
X0094173Y0236334I0000354J0000000D01*
G01*
X0097007Y0236334D01*
G75*
G02*
X0097362Y0235979I0000000J-000354D01*
G01*
X0097362Y0231963D01*
G75*
G02*
X0097007Y0231609I-000354J0000000D01*
G01*
X0094173Y0231609D01*
G75*
G02*
X0093818Y0231963I0000000J0000354D01*
G01*
G37*
G36*
G01*
X0067007Y0213259D02*
X0067007Y0216330D01*
G75*
G02*
X0067283Y0216606I0000276J0000000D01*
G01*
X0069488Y0216606D01*
G75*
G02*
X0069763Y0216330I0000000J-000276D01*
G01*
X0069763Y0213259D01*
G75*
G02*
X0069488Y0212984I-000276J0000000D01*
G01*
X0067283Y0212984D01*
G75*
G02*
X0067007Y0213259I0000000J0000276D01*
G01*
G37*
G36*
G01*
X0073307Y0213259D02*
X0073307Y0216330D01*
G75*
G02*
X0073582Y0216606I0000276J0000000D01*
G01*
X0075787Y0216606D01*
G75*
G02*
X0076063Y0216330I0000000J-000276D01*
G01*
X0076063Y0213259D01*
G75*
G02*
X0075787Y0212984I-000276J0000000D01*
G01*
X0073582Y0212984D01*
G75*
G02*
X0073307Y0213259I0000000J0000276D01*
G01*
G37*
G36*
G01*
X0119370Y0172082D02*
X0119370Y0174759D01*
G75*
G02*
X0119704Y0175093I0000335J0000000D01*
G01*
X0122381Y0175093D01*
G75*
G02*
X0122716Y0174759I0000000J-000335D01*
G01*
X0122716Y0172082D01*
G75*
G02*
X0122381Y0171747I-000335J0000000D01*
G01*
X0119704Y0171747D01*
G75*
G02*
X0119370Y0172082I0000000J0000335D01*
G01*
G37*
G36*
G01*
X0125590Y0172082D02*
X0125590Y0174759D01*
G75*
G02*
X0125925Y0175093I0000335J0000000D01*
G01*
X0128602Y0175093D01*
G75*
G02*
X0128937Y0174759I0000000J-000335D01*
G01*
X0128937Y0172082D01*
G75*
G02*
X0128602Y0171747I-000335J0000000D01*
G01*
X0125925Y0171747D01*
G75*
G02*
X0125590Y0172082I0000000J0000335D01*
G01*
G37*
G36*
G01*
X0119370Y0179759D02*
X0119370Y0182436D01*
G75*
G02*
X0119704Y0182771I0000335J0000000D01*
G01*
X0122381Y0182771D01*
G75*
G02*
X0122716Y0182436I0000000J-000335D01*
G01*
X0122716Y0179759D01*
G75*
G02*
X0122381Y0179424I-000335J0000000D01*
G01*
X0119704Y0179424D01*
G75*
G02*
X0119370Y0179759I0000000J0000335D01*
G01*
G37*
G36*
G01*
X0125590Y0179759D02*
X0125590Y0182436D01*
G75*
G02*
X0125925Y0182771I0000335J0000000D01*
G01*
X0128602Y0182771D01*
G75*
G02*
X0128937Y0182436I0000000J-000335D01*
G01*
X0128937Y0179759D01*
G75*
G02*
X0128602Y0179424I-000335J0000000D01*
G01*
X0125925Y0179424D01*
G75*
G02*
X0125590Y0179759I0000000J0000335D01*
G01*
G37*
G36*
G01*
X0098503Y0164110D02*
X0098503Y0167181D01*
G75*
G02*
X0098779Y0167457I0000276J0000000D01*
G01*
X0100984Y0167457D01*
G75*
G02*
X0101259Y0167181I0000000J-000276D01*
G01*
X0101259Y0164110D01*
G75*
G02*
X0100984Y0163835I-000276J0000000D01*
G01*
X0098779Y0163835D01*
G75*
G02*
X0098503Y0164110I0000000J0000276D01*
G01*
G37*
G36*
G01*
X0104803Y0164110D02*
X0104803Y0167181D01*
G75*
G02*
X0105078Y0167457I0000276J0000000D01*
G01*
X0107283Y0167457D01*
G75*
G02*
X0107559Y0167181I0000000J-000276D01*
G01*
X0107559Y0164110D01*
G75*
G02*
X0107283Y0163835I-000276J0000000D01*
G01*
X0105078Y0163835D01*
G75*
G02*
X0104803Y0164110I0000000J0000276D01*
G01*
G37*
G36*
G01*
X0278070Y0250177D02*
X0278070Y0261398D01*
G75*
G02*
X0279055Y0262382I0000984J0000000D01*
G01*
X0281909Y0262382D01*
G75*
G02*
X0282893Y0261398I0000000J-000984D01*
G01*
X0282893Y0250177D01*
G75*
G02*
X0281909Y0249193I-000984J0000000D01*
G01*
X0279055Y0249193D01*
G75*
G02*
X0278070Y0250177I0000000J0000984D01*
G01*
G37*
G36*
G01*
X0301397Y0250177D02*
X0301397Y0261398D01*
G75*
G02*
X0302381Y0262382I0000984J0000000D01*
G01*
X0305236Y0262382D01*
G75*
G02*
X0306220Y0261398I0000000J-000984D01*
G01*
X0306220Y0250177D01*
G75*
G02*
X0305236Y0249193I-000984J0000000D01*
G01*
X0302381Y0249193D01*
G75*
G02*
X0301397Y0250177I0000000J0000984D01*
G01*
G37*
G36*
G01*
X0098503Y0171784D02*
X0098503Y0174855D01*
G75*
G02*
X0098779Y0175130I0000276J0000000D01*
G01*
X0100984Y0175130D01*
G75*
G02*
X0101259Y0174855I0000000J-000276D01*
G01*
X0101259Y0171784D01*
G75*
G02*
X0100984Y0171508I-000276J0000000D01*
G01*
X0098779Y0171508D01*
G75*
G02*
X0098503Y0171784I0000000J0000276D01*
G01*
G37*
G36*
G01*
X0104803Y0171784D02*
X0104803Y0174855D01*
G75*
G02*
X0105078Y0175130I0000276J0000000D01*
G01*
X0107283Y0175130D01*
G75*
G02*
X0107559Y0174855I0000000J-000276D01*
G01*
X0107559Y0171784D01*
G75*
G02*
X0107283Y0171508I-000276J0000000D01*
G01*
X0105078Y0171508D01*
G75*
G02*
X0104803Y0171784I0000000J0000276D01*
G01*
G37*
G36*
G01*
X0278070Y0269429D02*
X0278070Y0280650D01*
G75*
G02*
X0279055Y0281634I0000984J0000000D01*
G01*
X0281909Y0281634D01*
G75*
G02*
X0282893Y0280650I0000000J-000984D01*
G01*
X0282893Y0269429D01*
G75*
G02*
X0281909Y0268445I-000984J0000000D01*
G01*
X0279055Y0268445D01*
G75*
G02*
X0278070Y0269429I0000000J0000984D01*
G01*
G37*
G36*
G01*
X0301397Y0269429D02*
X0301397Y0280650D01*
G75*
G02*
X0302381Y0281634I0000984J0000000D01*
G01*
X0305236Y0281634D01*
G75*
G02*
X0306220Y0280650I0000000J-000984D01*
G01*
X0306220Y0269429D01*
G75*
G02*
X0305236Y0268445I-000984J0000000D01*
G01*
X0302381Y0268445D01*
G75*
G02*
X0301397Y0269429I0000000J0000984D01*
G01*
G37*
X0568110Y0130709D02*
G01*
G75*
D84*
X0613189Y0155076D02*
D03*
X0613189Y0137359D02*
D03*
D85*
X0609862Y0179528D02*
D03*
X0582500Y0179528D02*
D03*
D86*
X0598622Y0156300D02*
D03*
X0582480Y0156300D02*
D03*
D87*
X0600393Y0138189D02*
D03*
X0584645Y0138189D02*
D03*
D88*
X0577454Y0199967D02*
D03*
X0586706Y0196227D02*
D03*
D88*
X0586706Y0203707D02*
D03*
D89*
X0609541Y0209646D02*
D03*
D89*
X0609541Y0205906D02*
D03*
X0609541Y0202166D02*
D03*
X0618005Y0202166D02*
D03*
X0618005Y0209646D02*
D03*
D90*
X0621857Y0195645D02*
D03*
X0608865Y0195645D02*
D03*
D91*
X0603571Y0195933D02*
D03*
X0592153Y0195933D02*
D03*
D92*
X0622756Y0163386D02*
D03*
X0616535Y0163386D02*
D03*
X0612165Y0163386D02*
D03*
X0605945Y0163386D02*
D03*
D93*
X0572079Y0140497D02*
D03*
X0572079Y0144631D02*
D03*
X0622634Y0182371D02*
D03*
X0622634Y0186505D02*
D03*
X0622634Y0177658D02*
D03*
X0622634Y0173524D02*
D03*
X0623526Y0158009D02*
D03*
X0623526Y0153875D02*
D03*
D94*
X0604423Y0202216D02*
D03*
X0604423Y0206153D02*
D03*
X0590748Y0203118D02*
D03*
X0599409Y0203118D02*
D03*
X0590748Y0209515D02*
D03*
X0599409Y0209515D02*
D03*
D95*
X0582375Y0209646D02*
D03*
X0585919Y0209646D02*
D03*
D96*
X0618376Y0186308D02*
D03*
X0618376Y0182764D02*
D03*
X0618376Y0177264D02*
D03*
X0618376Y0173721D02*
D03*
X0623526Y0145708D02*
D03*
X0623526Y0149252D02*
D03*
X0503819Y0139173D02*
G01*
G75*
D89*
X0518524Y0149397D02*
D03*
X0518524Y0141917D02*
D03*
X0510059Y0141917D02*
D03*
X0510059Y0145657D02*
D03*
X0534173Y0149397D02*
D03*
X0534173Y0141917D02*
D03*
X0525709Y0141917D02*
D03*
X0525709Y0145657D02*
D03*
D89*
X0510059Y0149397D02*
D03*
X0525709Y0149397D02*
D03*
X0592913Y0320669D02*
%LPD*%
G01*
G36*
G01*
X0610354Y0338287D02*
X0610354Y0339744D01*
G75*
G02*
X0610885Y0340275I0000531J0000000D01*
G01*
X0611948Y0340275D01*
G75*
G02*
X0612480Y0339744I0000000J-000531D01*
G01*
X0612480Y0338287D01*
G75*
G02*
X0611948Y0337756I-000531J0000000D01*
G01*
X0610885Y0337756D01*
G75*
G02*
X0610354Y0338287I0000000J0000531D01*
G01*
G37*
G36*
G01*
X0606338Y0338287D02*
X0606338Y0339744D01*
G75*
G02*
X0606870Y0340275I0000531J0000000D01*
G01*
X0607933Y0340275D01*
G75*
G02*
X0608464Y0339744I0000000J-000531D01*
G01*
X0608464Y0338287D01*
G75*
G02*
X0607933Y0337756I-000531J0000000D01*
G01*
X0606870Y0337756D01*
G75*
G02*
X0606338Y0338287I0000000J0000531D01*
G01*
G37*
G36*
G01*
X0633602Y0322598D02*
X0632145Y0322598D01*
G75*
G02*
X0631614Y0323130I0000000J0000531D01*
G01*
X0631614Y0324193D01*
G75*
G02*
X0632145Y0324724I0000531J0000000D01*
G01*
X0633602Y0324724D01*
G75*
G02*
X0634133Y0324193I0000000J-000531D01*
G01*
X0634133Y0323130D01*
G75*
G02*
X0633602Y0322598I-000531J0000000D01*
G01*
G37*
G36*
G01*
X0633602Y0326614D02*
X0632145Y0326614D01*
G75*
G02*
X0631614Y0327145I0000000J0000531D01*
G01*
X0631614Y0328208D01*
G75*
G02*
X0632145Y0328740I0000531J0000000D01*
G01*
X0633602Y0328740D01*
G75*
G02*
X0634133Y0328208I0000000J-000531D01*
G01*
X0634133Y0327145D01*
G75*
G02*
X0633602Y0326614I-000531J0000000D01*
G01*
G37*
G36*
G01*
X0622630Y0354941D02*
X0622630Y0356122D01*
G75*
G02*
X0623220Y0356712I0000591J0000000D01*
G01*
X0629716Y0356712D01*
G75*
G02*
X0630307Y0356122I0000000J-000591D01*
G01*
X0630307Y0354941D01*
G75*
G02*
X0629716Y0354350I-000591J0000000D01*
G01*
X0623220Y0354350D01*
G75*
G02*
X0622630Y0354941I0000000J0000591D01*
G01*
G37*
G36*
G01*
X0622630Y0349941D02*
X0622630Y0351122D01*
G75*
G02*
X0623220Y0351712I0000591J0000000D01*
G01*
X0629716Y0351712D01*
G75*
G02*
X0630307Y0351122I0000000J-000591D01*
G01*
X0630307Y0349941D01*
G75*
G02*
X0629716Y0349350I-000591J0000000D01*
G01*
X0623220Y0349350D01*
G75*
G02*
X0622630Y0349941I0000000J0000591D01*
G01*
G37*
G36*
G01*
X0622630Y0344941D02*
X0622630Y0346122D01*
G75*
G02*
X0623220Y0346712I0000591J0000000D01*
G01*
X0629716Y0346712D01*
G75*
G02*
X0630307Y0346122I0000000J-000591D01*
G01*
X0630307Y0344941D01*
G75*
G02*
X0629716Y0344350I-000591J0000000D01*
G01*
X0623220Y0344350D01*
G75*
G02*
X0622630Y0344941I0000000J0000591D01*
G01*
G37*
G36*
G01*
X0622630Y0339941D02*
X0622630Y0341122D01*
G75*
G02*
X0623220Y0341712I0000591J0000000D01*
G01*
X0629716Y0341712D01*
G75*
G02*
X0630307Y0341122I0000000J-000591D01*
G01*
X0630307Y0339941D01*
G75*
G02*
X0629716Y0339350I-000591J0000000D01*
G01*
X0623220Y0339350D01*
G75*
G02*
X0622630Y0339941I0000000J0000591D01*
G01*
G37*
G36*
G01*
X0642118Y0339941D02*
X0642118Y0341122D01*
G75*
G02*
X0642708Y0341712I0000591J0000000D01*
G01*
X0649204Y0341712D01*
G75*
G02*
X0649795Y0341122I0000000J-000591D01*
G01*
X0649795Y0339941D01*
G75*
G02*
X0649204Y0339350I-000591J0000000D01*
G01*
X0642708Y0339350D01*
G75*
G02*
X0642118Y0339941I0000000J0000591D01*
G01*
G37*
G36*
G01*
X0642118Y0344941D02*
X0642118Y0346122D01*
G75*
G02*
X0642708Y0346712I0000591J0000000D01*
G01*
X0649204Y0346712D01*
G75*
G02*
X0649795Y0346122I0000000J-000591D01*
G01*
X0649795Y0344941D01*
G75*
G02*
X0649204Y0344350I-000591J0000000D01*
G01*
X0642708Y0344350D01*
G75*
G02*
X0642118Y0344941I0000000J0000591D01*
G01*
G37*
G36*
G01*
X0642118Y0349941D02*
X0642118Y0351122D01*
G75*
G02*
X0642708Y0351712I0000591J0000000D01*
G01*
X0649204Y0351712D01*
G75*
G02*
X0649795Y0351122I0000000J-000591D01*
G01*
X0649795Y0349941D01*
G75*
G02*
X0649204Y0349350I-000591J0000000D01*
G01*
X0642708Y0349350D01*
G75*
G02*
X0642118Y0349941I0000000J0000591D01*
G01*
G37*
G36*
G01*
X0642118Y0354941D02*
X0642118Y0356122D01*
G75*
G02*
X0642708Y0356712I0000591J0000000D01*
G01*
X0649204Y0356712D01*
G75*
G02*
X0649795Y0356122I0000000J-000591D01*
G01*
X0649795Y0354941D01*
G75*
G02*
X0649204Y0354350I-000591J0000000D01*
G01*
X0642708Y0354350D01*
G75*
G02*
X0642118Y0354941I0000000J0000591D01*
G01*
G37*
D132*
X0608110Y0355669D03*
X0608110Y0353110D03*
X0608110Y0350551D03*
X0615590Y0350551D03*
X0615590Y0353110D03*
X0615590Y0355669D03*
G36*
G01*
X0624271Y0336581D02*
X0625728Y0336581D01*
G75*
G02*
X0626259Y0336049I0000000J-000531D01*
G01*
X0626259Y0334986D01*
G75*
G02*
X0625728Y0334455I-000531J0000000D01*
G01*
X0624271Y0334455D01*
G75*
G02*
X0623740Y0334986I0000000J0000531D01*
G01*
X0623740Y0336049D01*
G75*
G02*
X0624271Y0336581I0000531J0000000D01*
G01*
G37*
G36*
G01*
X0624271Y0332565D02*
X0625728Y0332565D01*
G75*
G02*
X0626259Y0332034I0000000J-000531D01*
G01*
X0626259Y0330971D01*
G75*
G02*
X0625728Y0330439I-000531J0000000D01*
G01*
X0624271Y0330439D01*
G75*
G02*
X0623740Y0330971I0000000J0000531D01*
G01*
X0623740Y0332034D01*
G75*
G02*
X0624271Y0332565I0000531J0000000D01*
G01*
G37*
G36*
G01*
X0629606Y0330518D02*
X0628267Y0330518D01*
G75*
G02*
X0627716Y0331069I0000000J0000551D01*
G01*
X0627716Y0332171D01*
G75*
G02*
X0628267Y0332723I0000551J0000000D01*
G01*
X0629606Y0332723D01*
G75*
G02*
X0630157Y0332171I0000000J-000551D01*
G01*
X0630157Y0331069D01*
G75*
G02*
X0629606Y0330518I-000551J0000000D01*
G01*
G37*
G36*
G01*
X0629606Y0334297D02*
X0628267Y0334297D01*
G75*
G02*
X0627716Y0334849I0000000J0000551D01*
G01*
X0627716Y0335951D01*
G75*
G02*
X0628267Y0336502I0000551J0000000D01*
G01*
X0629606Y0336502D01*
G75*
G02*
X0630157Y0335951I0000000J-000551D01*
G01*
X0630157Y0334849D01*
G75*
G02*
X0629606Y0334297I-000551J0000000D01*
G01*
G37*
G36*
G01*
X0625728Y0322598D02*
X0624271Y0322598D01*
G75*
G02*
X0623740Y0323130I0000000J0000531D01*
G01*
X0623740Y0324193D01*
G75*
G02*
X0624271Y0324724I0000531J0000000D01*
G01*
X0625728Y0324724D01*
G75*
G02*
X0626259Y0324193I0000000J-000531D01*
G01*
X0626259Y0323130D01*
G75*
G02*
X0625728Y0322598I-000531J0000000D01*
G01*
G37*
G36*
G01*
X0625728Y0326614D02*
X0624271Y0326614D01*
G75*
G02*
X0623740Y0327145I0000000J0000531D01*
G01*
X0623740Y0328208D01*
G75*
G02*
X0624271Y0328740I0000531J0000000D01*
G01*
X0625728Y0328740D01*
G75*
G02*
X0626259Y0328208I0000000J-000531D01*
G01*
X0626259Y0327145D01*
G75*
G02*
X0625728Y0326614I-000531J0000000D01*
G01*
G37*
G36*
G01*
X0637322Y0328661D02*
X0638661Y0328661D01*
G75*
G02*
X0639212Y0328110I0000000J-000551D01*
G01*
X0639212Y0327008D01*
G75*
G02*
X0638661Y0326456I-000551J0000000D01*
G01*
X0637322Y0326456D01*
G75*
G02*
X0636771Y0327008I0000000J0000551D01*
G01*
X0636771Y0328110D01*
G75*
G02*
X0637322Y0328661I0000551J0000000D01*
G01*
G37*
G36*
G01*
X0637322Y0324882D02*
X0638661Y0324882D01*
G75*
G02*
X0639212Y0324330I0000000J-000551D01*
G01*
X0639212Y0323228D01*
G75*
G02*
X0638661Y0322677I-000551J0000000D01*
G01*
X0637322Y0322677D01*
G75*
G02*
X0636771Y0323228I0000000J0000551D01*
G01*
X0636771Y0324330D01*
G75*
G02*
X0637322Y0324882I0000551J0000000D01*
G01*
G37*
G36*
G01*
X0614193Y0332519D02*
X0615531Y0332519D01*
G75*
G02*
X0616082Y0331968I0000000J-000551D01*
G01*
X0616082Y0330866D01*
G75*
G02*
X0615531Y0330315I-000551J0000000D01*
G01*
X0614193Y0330315D01*
G75*
G02*
X0613641Y0330866I0000000J0000551D01*
G01*
X0613641Y0331968D01*
G75*
G02*
X0614193Y0332519I0000551J0000000D01*
G01*
G37*
G36*
G01*
X0614193Y0328740D02*
X0615531Y0328740D01*
G75*
G02*
X0616082Y0328189I0000000J-000551D01*
G01*
X0616082Y0327086D01*
G75*
G02*
X0615531Y0326535I-000551J0000000D01*
G01*
X0614193Y0326535D01*
G75*
G02*
X0613641Y0327086I0000000J0000551D01*
G01*
X0613641Y0328189D01*
G75*
G02*
X0614193Y0328740I0000551J0000000D01*
G01*
G37*
G36*
G01*
X0619960Y0335767D02*
X0619960Y0334311D01*
G75*
G02*
X0619429Y0333779I-000531J0000000D01*
G01*
X0618366Y0333779D01*
G75*
G02*
X0617834Y0334311I0000000J0000531D01*
G01*
X0617834Y0335767D01*
G75*
G02*
X0618366Y0336299I0000531J0000000D01*
G01*
X0619429Y0336299D01*
G75*
G02*
X0619960Y0335767I0000000J-000531D01*
G01*
G37*
G36*
G01*
X0615944Y0335767D02*
X0615944Y0334311D01*
G75*
G02*
X0615413Y0333779I-000531J0000000D01*
G01*
X0614350Y0333779D01*
G75*
G02*
X0613819Y0334311I0000000J0000531D01*
G01*
X0613819Y0335767D01*
G75*
G02*
X0614350Y0336299I0000531J0000000D01*
G01*
X0615413Y0336299D01*
G75*
G02*
X0615944Y0335767I0000000J-000531D01*
G01*
G37*
G36*
G01*
X0650787Y0336496D02*
X0650787Y0335157D01*
G75*
G02*
X0650236Y0334606I-000551J0000000D01*
G01*
X0649133Y0334606D01*
G75*
G02*
X0648582Y0335157I0000000J0000551D01*
G01*
X0648582Y0336496D01*
G75*
G02*
X0649133Y0337047I0000551J0000000D01*
G01*
X0650236Y0337047D01*
G75*
G02*
X0650787Y0336496I0000000J-000551D01*
G01*
G37*
G36*
G01*
X0647007Y0336496D02*
X0647007Y0335157D01*
G75*
G02*
X0646456Y0334606I-000551J0000000D01*
G01*
X0645354Y0334606D01*
G75*
G02*
X0644803Y0335157I0000000J0000551D01*
G01*
X0644803Y0336496D01*
G75*
G02*
X0645354Y0337047I0000551J0000000D01*
G01*
X0646456Y0337047D01*
G75*
G02*
X0647007Y0336496I0000000J-000551D01*
G01*
G37*
G36*
G01*
X0601732Y0342259D02*
X0601732Y0344276D01*
G75*
G02*
X0602593Y0345138I0000861J0000000D01*
G01*
X0604316Y0345138D01*
G75*
G02*
X0605177Y0344276I0000000J-000861D01*
G01*
X0605177Y0342259D01*
G75*
G02*
X0604316Y0341397I-000861J0000000D01*
G01*
X0602593Y0341397D01*
G75*
G02*
X0601732Y0342259I0000000J0000861D01*
G01*
G37*
G36*
G01*
X0595531Y0342259D02*
X0595531Y0344276D01*
G75*
G02*
X0596392Y0345138I0000861J0000000D01*
G01*
X0598115Y0345138D01*
G75*
G02*
X0598976Y0344276I0000000J-000861D01*
G01*
X0598976Y0342259D01*
G75*
G02*
X0598115Y0341397I-000861J0000000D01*
G01*
X0596392Y0341397D01*
G75*
G02*
X0595531Y0342259I0000000J0000861D01*
G01*
G37*
G36*
G01*
X0620511Y0347480D02*
X0619173Y0347480D01*
G75*
G02*
X0618622Y0348031I0000000J0000551D01*
G01*
X0618622Y0349134D01*
G75*
G02*
X0619173Y0349685I0000551J0000000D01*
G01*
X0620511Y0349685D01*
G75*
G02*
X0621063Y0349134I0000000J-000551D01*
G01*
X0621063Y0348031D01*
G75*
G02*
X0620511Y0347480I-000551J0000000D01*
G01*
G37*
G36*
G01*
X0620511Y0351260D02*
X0619173Y0351260D01*
G75*
G02*
X0618622Y0351811I0000000J0000551D01*
G01*
X0618622Y0352913D01*
G75*
G02*
X0619173Y0353464I0000551J0000000D01*
G01*
X0620511Y0353464D01*
G75*
G02*
X0621063Y0352913I0000000J-000551D01*
G01*
X0621063Y0351811D01*
G75*
G02*
X0620511Y0351260I-000551J0000000D01*
G01*
G37*
G36*
G01*
X0602874Y0350334D02*
X0602874Y0348878D01*
G75*
G02*
X0602342Y0348346I-000531J0000000D01*
G01*
X0601279Y0348346D01*
G75*
G02*
X0600748Y0348878I0000000J0000531D01*
G01*
X0600748Y0350334D01*
G75*
G02*
X0601279Y0350866I0000531J0000000D01*
G01*
X0602342Y0350866D01*
G75*
G02*
X0602874Y0350334I0000000J-000531D01*
G01*
G37*
G36*
G01*
X0598858Y0350334D02*
X0598858Y0348878D01*
G75*
G02*
X0598326Y0348346I-000531J0000000D01*
G01*
X0597263Y0348346D01*
G75*
G02*
X0596732Y0348878I0000000J0000531D01*
G01*
X0596732Y0350334D01*
G75*
G02*
X0597263Y0350866I0000531J0000000D01*
G01*
X0598326Y0350866D01*
G75*
G02*
X0598858Y0350334I0000000J-000531D01*
G01*
G37*
G36*
G01*
X0613819Y0338248D02*
X0613819Y0339704D01*
G75*
G02*
X0614350Y0340236I0000531J0000000D01*
G01*
X0615413Y0340236D01*
G75*
G02*
X0615944Y0339704I0000000J-000531D01*
G01*
X0615944Y0338248D01*
G75*
G02*
X0615413Y0337716I-000531J0000000D01*
G01*
X0614350Y0337716D01*
G75*
G02*
X0613819Y0338248I0000000J0000531D01*
G01*
G37*
G36*
G01*
X0617834Y0338248D02*
X0617834Y0339704D01*
G75*
G02*
X0618366Y0340236I0000531J0000000D01*
G01*
X0619429Y0340236D01*
G75*
G02*
X0619960Y0339704I0000000J-000531D01*
G01*
X0619960Y0338248D01*
G75*
G02*
X0619429Y0337716I-000531J0000000D01*
G01*
X0618366Y0337716D01*
G75*
G02*
X0617834Y0338248I0000000J0000531D01*
G01*
G37*
G36*
G01*
X0618956Y0332457D02*
X0620413Y0332457D01*
G75*
G02*
X0620944Y0331926I0000000J-000531D01*
G01*
X0620944Y0330863D01*
G75*
G02*
X0620413Y0330331I-000531J0000000D01*
G01*
X0618956Y0330331D01*
G75*
G02*
X0618425Y0330863I0000000J0000531D01*
G01*
X0618425Y0331926D01*
G75*
G02*
X0618956Y0332457I0000531J0000000D01*
G01*
G37*
G36*
G01*
X0618956Y0328441D02*
X0620413Y0328441D01*
G75*
G02*
X0620944Y0327910I0000000J-000531D01*
G01*
X0620944Y0326847D01*
G75*
G02*
X0620413Y0326316I-000531J0000000D01*
G01*
X0618956Y0326316D01*
G75*
G02*
X0618425Y0326847I0000000J0000531D01*
G01*
X0618425Y0327910D01*
G75*
G02*
X0618956Y0328441I0000531J0000000D01*
G01*
G37*
G36*
G01*
X0601614Y0339055D02*
X0601614Y0337716D01*
G75*
G02*
X0601063Y0337165I-000551J0000000D01*
G01*
X0599960Y0337165D01*
G75*
G02*
X0599409Y0337716I0000000J0000551D01*
G01*
X0599409Y0339055D01*
G75*
G02*
X0599960Y0339606I0000551J0000000D01*
G01*
X0601063Y0339606D01*
G75*
G02*
X0601614Y0339055I0000000J-000551D01*
G01*
G37*
G36*
G01*
X0597834Y0339055D02*
X0597834Y0337716D01*
G75*
G02*
X0597283Y0337165I-000551J0000000D01*
G01*
X0596181Y0337165D01*
G75*
G02*
X0595630Y0337716I0000000J0000551D01*
G01*
X0595630Y0339055D01*
G75*
G02*
X0596181Y0339606I0000551J0000000D01*
G01*
X0597283Y0339606D01*
G75*
G02*
X0597834Y0339055I0000000J-000551D01*
G01*
G37*
G36*
G01*
X0638661Y0330518D02*
X0637322Y0330518D01*
G75*
G02*
X0636771Y0331069I0000000J0000551D01*
G01*
X0636771Y0332171D01*
G75*
G02*
X0637322Y0332723I0000551J0000000D01*
G01*
X0638661Y0332723D01*
G75*
G02*
X0639212Y0332171I0000000J-000551D01*
G01*
X0639212Y0331069D01*
G75*
G02*
X0638661Y0330518I-000551J0000000D01*
G01*
G37*
G36*
G01*
X0638661Y0334297D02*
X0637322Y0334297D01*
G75*
G02*
X0636771Y0334849I0000000J0000551D01*
G01*
X0636771Y0335951D01*
G75*
G02*
X0637322Y0336502I0000551J0000000D01*
G01*
X0638661Y0336502D01*
G75*
G02*
X0639212Y0335951I0000000J-000551D01*
G01*
X0639212Y0334849D01*
G75*
G02*
X0638661Y0334297I-000551J0000000D01*
G01*
G37*
G36*
G01*
X0613641Y0322992D02*
X0613641Y0324449D01*
G75*
G02*
X0614173Y0324980I0000531J0000000D01*
G01*
X0615236Y0324980D01*
G75*
G02*
X0615767Y0324449I0000000J-000531D01*
G01*
X0615767Y0322992D01*
G75*
G02*
X0615236Y0322460I-000531J0000000D01*
G01*
X0614173Y0322460D01*
G75*
G02*
X0613641Y0322992I0000000J0000531D01*
G01*
G37*
G36*
G01*
X0617657Y0322992D02*
X0617657Y0324449D01*
G75*
G02*
X0618189Y0324980I0000531J0000000D01*
G01*
X0619252Y0324980D01*
G75*
G02*
X0619783Y0324449I0000000J-000531D01*
G01*
X0619783Y0322992D01*
G75*
G02*
X0619252Y0322460I-000531J0000000D01*
G01*
X0618189Y0322460D01*
G75*
G02*
X0617657Y0322992I0000000J0000531D01*
G01*
G37*
D133*
X0642900Y0324212D03*
X0645459Y0324212D03*
X0648018Y0324212D03*
X0648018Y0331693D03*
X0645459Y0331693D03*
X0642900Y0331693D03*
G36*
G01*
X0596951Y0332998D02*
X0596951Y0334179D01*
G75*
G02*
X0597542Y0334770I0000591J0000000D01*
G01*
X0601577Y0334770D01*
G75*
G02*
X0602168Y0334179I0000000J-000591D01*
G01*
X0602168Y0332998D01*
G75*
G02*
X0601577Y0332408I-000591J0000000D01*
G01*
X0597542Y0332408D01*
G75*
G02*
X0596951Y0332998I0000000J0000591D01*
G01*
G37*
G36*
G01*
X0596951Y0329258D02*
X0596951Y0330439D01*
G75*
G02*
X0597542Y0331030I0000591J0000000D01*
G01*
X0601577Y0331030D01*
G75*
G02*
X0602168Y0330439I0000000J-000591D01*
G01*
X0602168Y0329258D01*
G75*
G02*
X0601577Y0328667I-000591J0000000D01*
G01*
X0597542Y0328667D01*
G75*
G02*
X0596951Y0329258I0000000J0000591D01*
G01*
G37*
G36*
G01*
X0596951Y0325518D02*
X0596951Y0326699D01*
G75*
G02*
X0597542Y0327289I0000591J0000000D01*
G01*
X0601577Y0327289D01*
G75*
G02*
X0602168Y0326699I0000000J-000591D01*
G01*
X0602168Y0325518D01*
G75*
G02*
X0601577Y0324927I-000591J0000000D01*
G01*
X0597542Y0324927D01*
G75*
G02*
X0596951Y0325518I0000000J0000591D01*
G01*
G37*
G36*
G01*
X0605908Y0325518D02*
X0605908Y0326699D01*
G75*
G02*
X0606498Y0327289I0000591J0000000D01*
G01*
X0610534Y0327289D01*
G75*
G02*
X0611124Y0326699I0000000J-000591D01*
G01*
X0611124Y0325518D01*
G75*
G02*
X0610534Y0324927I-000591J0000000D01*
G01*
X0606498Y0324927D01*
G75*
G02*
X0605908Y0325518I0000000J0000591D01*
G01*
G37*
G36*
G01*
X0605908Y0329258D02*
X0605908Y0330439D01*
G75*
G02*
X0606498Y0331030I0000591J0000000D01*
G01*
X0610534Y0331030D01*
G75*
G02*
X0611124Y0330439I0000000J-000591D01*
G01*
X0611124Y0329258D01*
G75*
G02*
X0610534Y0328667I-000591J0000000D01*
G01*
X0606498Y0328667D01*
G75*
G02*
X0605908Y0329258I0000000J0000591D01*
G01*
G37*
G36*
G01*
X0605908Y0332998D02*
X0605908Y0334179D01*
G75*
G02*
X0606498Y0334770I0000591J0000000D01*
G01*
X0610534Y0334770D01*
G75*
G02*
X0611124Y0334179I0000000J-000591D01*
G01*
X0611124Y0332998D01*
G75*
G02*
X0610534Y0332408I-000591J0000000D01*
G01*
X0606498Y0332408D01*
G75*
G02*
X0605908Y0332998I0000000J0000591D01*
G01*
G37*
G36*
G01*
X0608070Y0344882D02*
X0608070Y0346220D01*
G75*
G02*
X0608622Y0346771I0000551J0000000D01*
G01*
X0609724Y0346771D01*
G75*
G02*
X0610275Y0346220I0000000J-000551D01*
G01*
X0610275Y0344882D01*
G75*
G02*
X0609724Y0344330I-000551J0000000D01*
G01*
X0608622Y0344330D01*
G75*
G02*
X0608070Y0344882I0000000J0000551D01*
G01*
G37*
G36*
G01*
X0611850Y0344882D02*
X0611850Y0346220D01*
G75*
G02*
X0612401Y0346771I0000551J0000000D01*
G01*
X0613504Y0346771D01*
G75*
G02*
X0614055Y0346220I0000000J-000551D01*
G01*
X0614055Y0344882D01*
G75*
G02*
X0613504Y0344330I-000551J0000000D01*
G01*
X0612401Y0344330D01*
G75*
G02*
X0611850Y0344882I0000000J0000551D01*
G01*
G37*
G36*
G01*
X0629606Y0322677D02*
X0628267Y0322677D01*
G75*
G02*
X0627716Y0323228I0000000J0000551D01*
G01*
X0627716Y0324330D01*
G75*
G02*
X0628267Y0324882I0000551J0000000D01*
G01*
X0629606Y0324882D01*
G75*
G02*
X0630157Y0324330I0000000J-000551D01*
G01*
X0630157Y0323228D01*
G75*
G02*
X0629606Y0322677I-000551J0000000D01*
G01*
G37*
G36*
G01*
X0629606Y0326456D02*
X0628267Y0326456D01*
G75*
G02*
X0627716Y0327008I0000000J0000551D01*
G01*
X0627716Y0328110D01*
G75*
G02*
X0628267Y0328661I0000551J0000000D01*
G01*
X0629606Y0328661D01*
G75*
G02*
X0630157Y0328110I0000000J-000551D01*
G01*
X0630157Y0327008D01*
G75*
G02*
X0629606Y0326456I-000551J0000000D01*
G01*
G37*
G36*
G01*
X0633602Y0330439D02*
X0632145Y0330439D01*
G75*
G02*
X0631614Y0330971I0000000J0000531D01*
G01*
X0631614Y0332034D01*
G75*
G02*
X0632145Y0332565I0000531J0000000D01*
G01*
X0633602Y0332565D01*
G75*
G02*
X0634133Y0332034I0000000J-000531D01*
G01*
X0634133Y0330971D01*
G75*
G02*
X0633602Y0330439I-000531J0000000D01*
G01*
G37*
G36*
G01*
X0633602Y0334455D02*
X0632145Y0334455D01*
G75*
G02*
X0631614Y0334986I0000000J0000531D01*
G01*
X0631614Y0336049D01*
G75*
G02*
X0632145Y0336581I0000531J0000000D01*
G01*
X0633602Y0336581D01*
G75*
G02*
X0634133Y0336049I0000000J-000531D01*
G01*
X0634133Y0334986D01*
G75*
G02*
X0633602Y0334455I-000531J0000000D01*
G01*
G37*
X0592913Y0277165D02*
%LPD*%
G01*
D135*
X0626771Y0290157D03*
X0626771Y0288189D03*
X0626771Y0286220D03*
X0626771Y0284252D03*
X0626771Y0282283D03*
X0644094Y0282283D03*
X0644094Y0284252D03*
X0644094Y0286220D03*
X0644094Y0288189D03*
X0644094Y0290157D03*
G36*
G01*
X0634291Y0303346D02*
X0637362Y0303346D01*
G75*
G02*
X0637637Y0303071I0000000J-000276D01*
G01*
X0637637Y0300866D01*
G75*
G02*
X0637362Y0300590I-000276J0000000D01*
G01*
X0634291Y0300590D01*
G75*
G02*
X0634015Y0300866I0000000J0000276D01*
G01*
X0634015Y0303071D01*
G75*
G02*
X0634291Y0303346I0000276J0000000D01*
G01*
G37*
G36*
G01*
X0634291Y0297047D02*
X0637362Y0297047D01*
G75*
G02*
X0637637Y0296771I0000000J-000276D01*
G01*
X0637637Y0294567D01*
G75*
G02*
X0637362Y0294291I-000276J0000000D01*
G01*
X0634291Y0294291D01*
G75*
G02*
X0634015Y0294567I0000000J0000276D01*
G01*
X0634015Y0296771D01*
G75*
G02*
X0634291Y0297047I0000276J0000000D01*
G01*
G37*
G36*
G01*
X0648622Y0310000D02*
X0648622Y0306929D01*
G75*
G02*
X0648346Y0306653I-000276J0000000D01*
G01*
X0646141Y0306653D01*
G75*
G02*
X0645866Y0306929I0000000J0000276D01*
G01*
X0645866Y0310000D01*
G75*
G02*
X0646141Y0310275I0000276J0000000D01*
G01*
X0648346Y0310275D01*
G75*
G02*
X0648622Y0310000I0000000J-000276D01*
G01*
G37*
G36*
G01*
X0642322Y0310000D02*
X0642322Y0306929D01*
G75*
G02*
X0642047Y0306653I-000276J0000000D01*
G01*
X0639842Y0306653D01*
G75*
G02*
X0639567Y0306929I0000000J0000276D01*
G01*
X0639567Y0310000D01*
G75*
G02*
X0639842Y0310275I0000276J0000000D01*
G01*
X0642047Y0310275D01*
G75*
G02*
X0642322Y0310000I0000000J-000276D01*
G01*
G37*
G36*
G01*
X0628385Y0303346D02*
X0631456Y0303346D01*
G75*
G02*
X0631732Y0303071I0000000J-000276D01*
G01*
X0631732Y0300866D01*
G75*
G02*
X0631456Y0300590I-000276J0000000D01*
G01*
X0628385Y0300590D01*
G75*
G02*
X0628110Y0300866I0000000J0000276D01*
G01*
X0628110Y0303071D01*
G75*
G02*
X0628385Y0303346I0000276J0000000D01*
G01*
G37*
G36*
G01*
X0628385Y0297047D02*
X0631456Y0297047D01*
G75*
G02*
X0631732Y0296771I0000000J-000276D01*
G01*
X0631732Y0294567D01*
G75*
G02*
X0631456Y0294291I-000276J0000000D01*
G01*
X0628385Y0294291D01*
G75*
G02*
X0628110Y0294567I0000000J0000276D01*
G01*
X0628110Y0296771D01*
G75*
G02*
X0628385Y0297047I0000276J0000000D01*
G01*
G37*
G36*
G01*
X0636712Y0309670D02*
X0636712Y0307652D01*
G75*
G02*
X0635851Y0306791I-000861J0000000D01*
G01*
X0634129Y0306791D01*
G75*
G02*
X0633267Y0307652I0000000J0000861D01*
G01*
X0633267Y0309670D01*
G75*
G02*
X0634129Y0310531I0000861J0000000D01*
G01*
X0635851Y0310531D01*
G75*
G02*
X0636712Y0309670I0000000J-000861D01*
G01*
G37*
G36*
G01*
X0630511Y0309670D02*
X0630511Y0307652D01*
G75*
G02*
X0629650Y0306791I-000861J0000000D01*
G01*
X0627928Y0306791D01*
G75*
G02*
X0627067Y0307652I0000000J0000861D01*
G01*
X0627067Y0309670D01*
G75*
G02*
X0627928Y0310531I0000861J0000000D01*
G01*
X0629650Y0310531D01*
G75*
G02*
X0630511Y0309670I0000000J-000861D01*
G01*
G37*
G36*
G01*
X0642657Y0302708D02*
X0642657Y0300031D01*
G75*
G02*
X0642322Y0299696I-000335J0000000D01*
G01*
X0639645Y0299696D01*
G75*
G02*
X0639311Y0300031I0000000J0000335D01*
G01*
X0639311Y0302708D01*
G75*
G02*
X0639645Y0303043I0000335J0000000D01*
G01*
X0642322Y0303043D01*
G75*
G02*
X0642657Y0302708I0000000J-000335D01*
G01*
G37*
G36*
G01*
X0648878Y0302708D02*
X0648878Y0300031D01*
G75*
G02*
X0648543Y0299696I-000335J0000000D01*
G01*
X0645866Y0299696D01*
G75*
G02*
X0645531Y0300031I0000000J0000335D01*
G01*
X0645531Y0302708D01*
G75*
G02*
X0645866Y0303043I0000335J0000000D01*
G01*
X0648543Y0303043D01*
G75*
G02*
X0648878Y0302708I0000000J-000335D01*
G01*
G37*
G36*
G01*
X0648878Y0297401D02*
X0648878Y0294724D01*
G75*
G02*
X0648543Y0294389I-000335J0000000D01*
G01*
X0645866Y0294389D01*
G75*
G02*
X0645531Y0294724I0000000J0000335D01*
G01*
X0645531Y0297401D01*
G75*
G02*
X0645866Y0297736I0000335J0000000D01*
G01*
X0648543Y0297736D01*
G75*
G02*
X0648878Y0297401I0000000J-000335D01*
G01*
G37*
G36*
G01*
X0642657Y0297401D02*
X0642657Y0294724D01*
G75*
G02*
X0642322Y0294389I-000335J0000000D01*
G01*
X0639645Y0294389D01*
G75*
G02*
X0639311Y0294724I0000000J0000335D01*
G01*
X0639311Y0297401D01*
G75*
G02*
X0639645Y0297736I0000335J0000000D01*
G01*
X0642322Y0297736D01*
G75*
G02*
X0642657Y0297401I0000000J-000335D01*
G01*
G37*
G36*
G01*
X0623464Y0303602D02*
X0626141Y0303602D01*
G75*
G02*
X0626476Y0303267I0000000J-000335D01*
G01*
X0626476Y0300590D01*
G75*
G02*
X0626141Y0300256I-000335J0000000D01*
G01*
X0623464Y0300256D01*
G75*
G02*
X0623130Y0300590I0000000J0000335D01*
G01*
X0623130Y0303267D01*
G75*
G02*
X0623464Y0303602I0000335J0000000D01*
G01*
G37*
G36*
G01*
X0623464Y0297382D02*
X0626141Y0297382D01*
G75*
G02*
X0626476Y0297047I0000000J-000335D01*
G01*
X0626476Y0294370D01*
G75*
G02*
X0626141Y0294035I-000335J0000000D01*
G01*
X0623464Y0294035D01*
G75*
G02*
X0623130Y0294370I0000000J0000335D01*
G01*
X0623130Y0297047D01*
G75*
G02*
X0623464Y0297382I0000335J0000000D01*
G01*
G37*
X0454134Y0157087D02*
%LPD*%
G01*
G36*
G01*
X0521742Y0192796D02*
X0520384Y0192796D01*
G75*
G02*
X0519803Y0193376I0000000J0000581D01*
G01*
X0519803Y0194538D01*
G75*
G02*
X0520384Y0195118I0000581J0000000D01*
G01*
X0521742Y0195118D01*
G75*
G02*
X0522323Y0194538I0000000J-000581D01*
G01*
X0522323Y0193376D01*
G75*
G02*
X0521742Y0192796I-000581J0000000D01*
G01*
G37*
G36*
G01*
X0521742Y0196615D02*
X0520384Y0196615D01*
G75*
G02*
X0519803Y0197195I0000000J0000581D01*
G01*
X0519803Y0198357D01*
G75*
G02*
X0520384Y0198937I0000581J0000000D01*
G01*
X0521742Y0198937D01*
G75*
G02*
X0522323Y0198357I0000000J-000581D01*
G01*
X0522323Y0197195D01*
G75*
G02*
X0521742Y0196615I-000581J0000000D01*
G01*
G37*
G36*
G01*
X0463169Y0177372D02*
X0463169Y0178731D01*
G75*
G02*
X0463750Y0179311I0000581J0000000D01*
G01*
X0464912Y0179311D01*
G75*
G02*
X0465492Y0178731I0000000J-000581D01*
G01*
X0465492Y0177372D01*
G75*
G02*
X0464912Y0176792I-000581J0000000D01*
G01*
X0463750Y0176792D01*
G75*
G02*
X0463169Y0177372I0000000J0000581D01*
G01*
G37*
G36*
G01*
X0466988Y0177372D02*
X0466988Y0178731D01*
G75*
G02*
X0467569Y0179311I0000581J0000000D01*
G01*
X0468730Y0179311D01*
G75*
G02*
X0469311Y0178731I0000000J-000581D01*
G01*
X0469311Y0177372D01*
G75*
G02*
X0468730Y0176792I-000581J0000000D01*
G01*
X0467569Y0176792D01*
G75*
G02*
X0466988Y0177372I0000000J0000581D01*
G01*
G37*
G36*
G01*
X0473696Y0192569D02*
X0475714Y0192569D01*
G75*
G02*
X0476575Y0191708I0000000J-000861D01*
G01*
X0476575Y0189986D01*
G75*
G02*
X0475714Y0189124I-000861J0000000D01*
G01*
X0473696Y0189124D01*
G75*
G02*
X0472835Y0189986I0000000J0000861D01*
G01*
X0472835Y0191708D01*
G75*
G02*
X0473696Y0192569I0000861J0000000D01*
G01*
G37*
G36*
G01*
X0473696Y0186368D02*
X0475714Y0186368D01*
G75*
G02*
X0476575Y0185507I0000000J-000861D01*
G01*
X0476575Y0183785D01*
G75*
G02*
X0475714Y0182924I-000861J0000000D01*
G01*
X0473696Y0182924D01*
G75*
G02*
X0472835Y0183785I0000000J0000861D01*
G01*
X0472835Y0185507D01*
G75*
G02*
X0473696Y0186368I0000861J0000000D01*
G01*
G37*
G36*
G01*
X0520187Y0167540D02*
X0521545Y0167540D01*
G75*
G02*
X0522126Y0166959I0000000J-000581D01*
G01*
X0522126Y0165798D01*
G75*
G02*
X0521545Y0165217I-000581J0000000D01*
G01*
X0520187Y0165217D01*
G75*
G02*
X0519606Y0165798I0000000J0000581D01*
G01*
X0519606Y0166959D01*
G75*
G02*
X0520187Y0167540I0000581J0000000D01*
G01*
G37*
G36*
G01*
X0520187Y0163721D02*
X0521545Y0163721D01*
G75*
G02*
X0522126Y0163140I0000000J-000581D01*
G01*
X0522126Y0161979D01*
G75*
G02*
X0521545Y0161398I-000581J0000000D01*
G01*
X0520187Y0161398D01*
G75*
G02*
X0519606Y0161979I0000000J0000581D01*
G01*
X0519606Y0163140D01*
G75*
G02*
X0520187Y0163721I0000581J0000000D01*
G01*
G37*
D136*
X0468996Y0183367D03*
X0468996Y0190847D03*
X0461122Y0187107D03*
G36*
G01*
X0516004Y0167540D02*
X0517362Y0167540D01*
G75*
G02*
X0517943Y0166959I0000000J-000581D01*
G01*
X0517943Y0165798D01*
G75*
G02*
X0517362Y0165217I-000581J0000000D01*
G01*
X0516004Y0165217D01*
G75*
G02*
X0515423Y0165798I0000000J0000581D01*
G01*
X0515423Y0166959D01*
G75*
G02*
X0516004Y0167540I0000581J0000000D01*
G01*
G37*
G36*
G01*
X0516004Y0163721D02*
X0517362Y0163721D01*
G75*
G02*
X0517943Y0163140I0000000J-000581D01*
G01*
X0517943Y0161979D01*
G75*
G02*
X0517362Y0161398I-000581J0000000D01*
G01*
X0516004Y0161398D01*
G75*
G02*
X0515423Y0161979I0000000J0000581D01*
G01*
X0515423Y0163140D01*
G75*
G02*
X0516004Y0163721I0000581J0000000D01*
G01*
G37*
G36*
G01*
X0520384Y0191457D02*
X0521742Y0191457D01*
G75*
G02*
X0522323Y0190876I0000000J-000581D01*
G01*
X0522323Y0189715D01*
G75*
G02*
X0521742Y0189134I-000581J0000000D01*
G01*
X0520384Y0189134D01*
G75*
G02*
X0519803Y0189715I0000000J0000581D01*
G01*
X0519803Y0190876D01*
G75*
G02*
X0520384Y0191457I0000581J0000000D01*
G01*
G37*
G36*
G01*
X0520384Y0187638D02*
X0521742Y0187638D01*
G75*
G02*
X0522323Y0187057I0000000J-000581D01*
G01*
X0522323Y0185896D01*
G75*
G02*
X0521742Y0185315I-000581J0000000D01*
G01*
X0520384Y0185315D01*
G75*
G02*
X0519803Y0185896I0000000J0000581D01*
G01*
X0519803Y0187057D01*
G75*
G02*
X0520384Y0187638I0000581J0000000D01*
G01*
G37*
G36*
G01*
X0516624Y0203721D02*
X0515266Y0203721D01*
G75*
G02*
X0514685Y0204302I0000000J0000581D01*
G01*
X0514685Y0205463D01*
G75*
G02*
X0515266Y0206044I0000581J0000000D01*
G01*
X0516624Y0206044D01*
G75*
G02*
X0517205Y0205463I0000000J-000581D01*
G01*
X0517205Y0204302D01*
G75*
G02*
X0516624Y0203721I-000581J0000000D01*
G01*
G37*
G36*
G01*
X0516624Y0207540D02*
X0515266Y0207540D01*
G75*
G02*
X0514685Y0208120I0000000J0000581D01*
G01*
X0514685Y0209282D01*
G75*
G02*
X0515266Y0209863I0000581J0000000D01*
G01*
X0516624Y0209863D01*
G75*
G02*
X0517205Y0209282I0000000J-000581D01*
G01*
X0517205Y0208120D01*
G75*
G02*
X0516624Y0207540I-000581J0000000D01*
G01*
G37*
G36*
G01*
X0521742Y0176949D02*
X0520384Y0176949D01*
G75*
G02*
X0519803Y0177530I0000000J0000581D01*
G01*
X0519803Y0178691D01*
G75*
G02*
X0520384Y0179272I0000581J0000000D01*
G01*
X0521742Y0179272D01*
G75*
G02*
X0522323Y0178691I0000000J-000581D01*
G01*
X0522323Y0177530D01*
G75*
G02*
X0521742Y0176949I-000581J0000000D01*
G01*
G37*
G36*
G01*
X0521742Y0180768D02*
X0520384Y0180768D01*
G75*
G02*
X0519803Y0181349I0000000J0000581D01*
G01*
X0519803Y0182510D01*
G75*
G02*
X0520384Y0183091I0000581J0000000D01*
G01*
X0521742Y0183091D01*
G75*
G02*
X0522323Y0182510I0000000J-000581D01*
G01*
X0522323Y0181349D01*
G75*
G02*
X0521742Y0180768I-000581J0000000D01*
G01*
G37*
G36*
G01*
X0481978Y0203721D02*
X0480620Y0203721D01*
G75*
G02*
X0480040Y0204302I0000000J0000581D01*
G01*
X0480040Y0205463D01*
G75*
G02*
X0480620Y0206044I0000581J0000000D01*
G01*
X0481978Y0206044D01*
G75*
G02*
X0482559Y0205463I0000000J-000581D01*
G01*
X0482559Y0204302D01*
G75*
G02*
X0481978Y0203721I-000581J0000000D01*
G01*
G37*
G36*
G01*
X0481978Y0207540D02*
X0480620Y0207540D01*
G75*
G02*
X0480040Y0208120I0000000J0000581D01*
G01*
X0480040Y0209282D01*
G75*
G02*
X0480620Y0209863I0000581J0000000D01*
G01*
X0481978Y0209863D01*
G75*
G02*
X0482559Y0209282I0000000J-000581D01*
G01*
X0482559Y0208120D01*
G75*
G02*
X0481978Y0207540I-000581J0000000D01*
G01*
G37*
D146*
X0543445Y0178839D03*
X0531437Y0178839D03*
X0543445Y0165650D03*
X0531437Y0165650D03*
D137*
X0546417Y0197048D03*
X0528465Y0197048D03*
G36*
G01*
X0470945Y0177274D02*
X0470945Y0178632D01*
G75*
G02*
X0471526Y0179213I0000581J0000000D01*
G01*
X0472687Y0179213D01*
G75*
G02*
X0473268Y0178632I0000000J-000581D01*
G01*
X0473268Y0177274D01*
G75*
G02*
X0472687Y0176693I-000581J0000000D01*
G01*
X0471526Y0176693D01*
G75*
G02*
X0470945Y0177274I0000000J0000581D01*
G01*
G37*
G36*
G01*
X0474764Y0177274D02*
X0474764Y0178632D01*
G75*
G02*
X0475345Y0179213I0000581J0000000D01*
G01*
X0476506Y0179213D01*
G75*
G02*
X0477087Y0178632I0000000J-000581D01*
G01*
X0477087Y0177274D01*
G75*
G02*
X0476506Y0176693I-000581J0000000D01*
G01*
X0475345Y0176693D01*
G75*
G02*
X0474764Y0177274I0000000J0000581D01*
G01*
G37*
G36*
G01*
X0509449Y0163608D02*
X0509449Y0161590D01*
G75*
G02*
X0508588Y0160729I-000861J0000000D01*
G01*
X0506865Y0160729D01*
G75*
G02*
X0506004Y0161590I0000000J0000861D01*
G01*
X0506004Y0163608D01*
G75*
G02*
X0506865Y0164469I0000861J0000000D01*
G01*
X0508588Y0164469D01*
G75*
G02*
X0509449Y0163608I0000000J-000861D01*
G01*
G37*
G36*
G01*
X0503248Y0163608D02*
X0503248Y0161590D01*
G75*
G02*
X0502387Y0160729I-000861J0000000D01*
G01*
X0500665Y0160729D01*
G75*
G02*
X0499803Y0161590I0000000J0000861D01*
G01*
X0499803Y0163608D01*
G75*
G02*
X0500665Y0164469I0000861J0000000D01*
G01*
X0502387Y0164469D01*
G75*
G02*
X0503248Y0163608I0000000J-000861D01*
G01*
G37*
G36*
G01*
X0511821Y0167540D02*
X0513179Y0167540D01*
G75*
G02*
X0513760Y0166959I0000000J-000581D01*
G01*
X0513760Y0165798D01*
G75*
G02*
X0513179Y0165217I-000581J0000000D01*
G01*
X0511821Y0165217D01*
G75*
G02*
X0511240Y0165798I0000000J0000581D01*
G01*
X0511240Y0166959D01*
G75*
G02*
X0511821Y0167540I0000581J0000000D01*
G01*
G37*
G36*
G01*
X0511821Y0163721D02*
X0513179Y0163721D01*
G75*
G02*
X0513760Y0163140I0000000J-000581D01*
G01*
X0513760Y0161979D01*
G75*
G02*
X0513179Y0161398I-000581J0000000D01*
G01*
X0511821Y0161398D01*
G75*
G02*
X0511240Y0161979I0000000J0000581D01*
G01*
X0511240Y0163140D01*
G75*
G02*
X0511821Y0163721I0000581J0000000D01*
G01*
G37*
G36*
G01*
X0555930Y0162993D02*
X0553913Y0162993D01*
G75*
G02*
X0553051Y0163854I0000000J0000861D01*
G01*
X0553051Y0165576D01*
G75*
G02*
X0553913Y0166437I0000861J0000000D01*
G01*
X0555930Y0166437D01*
G75*
G02*
X0556791Y0165576I0000000J-000861D01*
G01*
X0556791Y0163854D01*
G75*
G02*
X0555930Y0162993I-000861J0000000D01*
G01*
G37*
G36*
G01*
X0555930Y0169193D02*
X0553913Y0169193D01*
G75*
G02*
X0553051Y0170055I0000000J0000861D01*
G01*
X0553051Y0171777D01*
G75*
G02*
X0553913Y0172638I0000861J0000000D01*
G01*
X0555930Y0172638D01*
G75*
G02*
X0556791Y0171777I0000000J-000861D01*
G01*
X0556791Y0170055D01*
G75*
G02*
X0555930Y0169193I-000861J0000000D01*
G01*
G37*
G36*
G01*
X0488091Y0161590D02*
X0488091Y0163608D01*
G75*
G02*
X0488952Y0164469I0000861J0000000D01*
G01*
X0490674Y0164469D01*
G75*
G02*
X0491536Y0163608I0000000J-000861D01*
G01*
X0491536Y0161590D01*
G75*
G02*
X0490674Y0160729I-000861J0000000D01*
G01*
X0488952Y0160729D01*
G75*
G02*
X0488091Y0161590I0000000J0000861D01*
G01*
G37*
G36*
G01*
X0494291Y0161590D02*
X0494291Y0163608D01*
G75*
G02*
X0495153Y0164469I0000861J0000000D01*
G01*
X0496875Y0164469D01*
G75*
G02*
X0497736Y0163608I0000000J-000861D01*
G01*
X0497736Y0161590D01*
G75*
G02*
X0496875Y0160729I-000861J0000000D01*
G01*
X0495153Y0160729D01*
G75*
G02*
X0494291Y0161590I0000000J0000861D01*
G01*
G37*
G36*
G01*
X0483770Y0165768D02*
X0485128Y0165768D01*
G75*
G02*
X0485709Y0165187I0000000J-000581D01*
G01*
X0485709Y0164026D01*
G75*
G02*
X0485128Y0163445I-000581J0000000D01*
G01*
X0483770Y0163445D01*
G75*
G02*
X0483189Y0164026I0000000J0000581D01*
G01*
X0483189Y0165187D01*
G75*
G02*
X0483770Y0165768I0000581J0000000D01*
G01*
G37*
G36*
G01*
X0483770Y0161949D02*
X0485128Y0161949D01*
G75*
G02*
X0485709Y0161368I0000000J-000581D01*
G01*
X0485709Y0160207D01*
G75*
G02*
X0485128Y0159626I-000581J0000000D01*
G01*
X0483770Y0159626D01*
G75*
G02*
X0483189Y0160207I0000000J0000581D01*
G01*
X0483189Y0161368D01*
G75*
G02*
X0483770Y0161949I0000581J0000000D01*
G01*
G37*
G36*
G01*
X0518209Y0178445D02*
X0518209Y0177461D01*
G75*
G02*
X0517717Y0176969I-000492J0000000D01*
G01*
X0512795Y0176969D01*
G75*
G02*
X0512303Y0177461I0000000J0000492D01*
G01*
X0512303Y0178445D01*
G75*
G02*
X0512795Y0178937I0000492J0000000D01*
G01*
X0517717Y0178937D01*
G75*
G02*
X0518209Y0178445I0000000J-000492D01*
G01*
G37*
G36*
G01*
X0518209Y0181595D02*
X0518209Y0180611D01*
G75*
G02*
X0517717Y0180118I-000492J0000000D01*
G01*
X0512795Y0180118D01*
G75*
G02*
X0512303Y0180611I0000000J0000492D01*
G01*
X0512303Y0181595D01*
G75*
G02*
X0512795Y0182087I0000492J0000000D01*
G01*
X0517717Y0182087D01*
G75*
G02*
X0518209Y0181595I0000000J-000492D01*
G01*
G37*
G36*
G01*
X0518209Y0184744D02*
X0518209Y0183760D01*
G75*
G02*
X0517717Y0183268I-000492J0000000D01*
G01*
X0512795Y0183268D01*
G75*
G02*
X0512303Y0183760I0000000J0000492D01*
G01*
X0512303Y0184744D01*
G75*
G02*
X0512795Y0185237I0000492J0000000D01*
G01*
X0517717Y0185237D01*
G75*
G02*
X0518209Y0184744I0000000J-000492D01*
G01*
G37*
G36*
G01*
X0518209Y0187894D02*
X0518209Y0186910D01*
G75*
G02*
X0517717Y0186418I-000492J0000000D01*
G01*
X0512795Y0186418D01*
G75*
G02*
X0512303Y0186910I0000000J0000492D01*
G01*
X0512303Y0187894D01*
G75*
G02*
X0512795Y0188386I0000492J0000000D01*
G01*
X0517717Y0188386D01*
G75*
G02*
X0518209Y0187894I0000000J-000492D01*
G01*
G37*
G36*
G01*
X0518209Y0191044D02*
X0518209Y0190059D01*
G75*
G02*
X0517717Y0189567I-000492J0000000D01*
G01*
X0512795Y0189567D01*
G75*
G02*
X0512303Y0190059I0000000J0000492D01*
G01*
X0512303Y0191044D01*
G75*
G02*
X0512795Y0191536I0000492J0000000D01*
G01*
X0517717Y0191536D01*
G75*
G02*
X0518209Y0191044I0000000J-000492D01*
G01*
G37*
G36*
G01*
X0518209Y0194193D02*
X0518209Y0193209D01*
G75*
G02*
X0517717Y0192717I-000492J0000000D01*
G01*
X0512795Y0192717D01*
G75*
G02*
X0512303Y0193209I0000000J0000492D01*
G01*
X0512303Y0194193D01*
G75*
G02*
X0512795Y0194685I0000492J0000000D01*
G01*
X0517717Y0194685D01*
G75*
G02*
X0518209Y0194193I0000000J-000492D01*
G01*
G37*
G36*
G01*
X0518209Y0197343D02*
X0518209Y0196359D01*
G75*
G02*
X0517717Y0195867I-000492J0000000D01*
G01*
X0512795Y0195867D01*
G75*
G02*
X0512303Y0196359I0000000J0000492D01*
G01*
X0512303Y0197343D01*
G75*
G02*
X0512795Y0197835I0000492J0000000D01*
G01*
X0517717Y0197835D01*
G75*
G02*
X0518209Y0197343I0000000J-000492D01*
G01*
G37*
G36*
G01*
X0518209Y0200493D02*
X0518209Y0199508D01*
G75*
G02*
X0517717Y0199016I-000492J0000000D01*
G01*
X0512795Y0199016D01*
G75*
G02*
X0512303Y0199508I0000000J0000492D01*
G01*
X0512303Y0200493D01*
G75*
G02*
X0512795Y0200985I0000492J0000000D01*
G01*
X0517717Y0200985D01*
G75*
G02*
X0518209Y0200493I0000000J-000492D01*
G01*
G37*
G36*
G01*
X0510827Y0207874D02*
X0510827Y0202953D01*
G75*
G02*
X0510335Y0202461I-000492J0000000D01*
G01*
X0509351Y0202461D01*
G75*
G02*
X0508858Y0202953I0000000J0000492D01*
G01*
X0508858Y0207874D01*
G75*
G02*
X0509351Y0208367I0000492J0000000D01*
G01*
X0510335Y0208367D01*
G75*
G02*
X0510827Y0207874I0000000J-000492D01*
G01*
G37*
G36*
G01*
X0507677Y0207874D02*
X0507677Y0202953D01*
G75*
G02*
X0507185Y0202461I-000492J0000000D01*
G01*
X0506201Y0202461D01*
G75*
G02*
X0505709Y0202953I0000000J0000492D01*
G01*
X0505709Y0207874D01*
G75*
G02*
X0506201Y0208367I0000492J0000000D01*
G01*
X0507185Y0208367D01*
G75*
G02*
X0507677Y0207874I0000000J-000492D01*
G01*
G37*
G36*
G01*
X0504528Y0207874D02*
X0504528Y0202953D01*
G75*
G02*
X0504036Y0202461I-000492J0000000D01*
G01*
X0503051Y0202461D01*
G75*
G02*
X0502559Y0202953I0000000J0000492D01*
G01*
X0502559Y0207874D01*
G75*
G02*
X0503051Y0208367I0000492J0000000D01*
G01*
X0504036Y0208367D01*
G75*
G02*
X0504528Y0207874I0000000J-000492D01*
G01*
G37*
G36*
G01*
X0501378Y0207874D02*
X0501378Y0202953D01*
G75*
G02*
X0500886Y0202461I-000492J0000000D01*
G01*
X0499902Y0202461D01*
G75*
G02*
X0499410Y0202953I0000000J0000492D01*
G01*
X0499410Y0207874D01*
G75*
G02*
X0499902Y0208367I0000492J0000000D01*
G01*
X0500886Y0208367D01*
G75*
G02*
X0501378Y0207874I0000000J-000492D01*
G01*
G37*
G36*
G01*
X0498228Y0207874D02*
X0498228Y0202953D01*
G75*
G02*
X0497736Y0202461I-000492J0000000D01*
G01*
X0496752Y0202461D01*
G75*
G02*
X0496260Y0202953I0000000J0000492D01*
G01*
X0496260Y0207874D01*
G75*
G02*
X0496752Y0208367I0000492J0000000D01*
G01*
X0497736Y0208367D01*
G75*
G02*
X0498228Y0207874I0000000J-000492D01*
G01*
G37*
G36*
G01*
X0495079Y0207874D02*
X0495079Y0202953D01*
G75*
G02*
X0494587Y0202461I-000492J0000000D01*
G01*
X0493603Y0202461D01*
G75*
G02*
X0493110Y0202953I0000000J0000492D01*
G01*
X0493110Y0207874D01*
G75*
G02*
X0493603Y0208367I0000492J0000000D01*
G01*
X0494587Y0208367D01*
G75*
G02*
X0495079Y0207874I0000000J-000492D01*
G01*
G37*
G36*
G01*
X0491929Y0207874D02*
X0491929Y0202953D01*
G75*
G02*
X0491437Y0202461I-000492J0000000D01*
G01*
X0490453Y0202461D01*
G75*
G02*
X0489961Y0202953I0000000J0000492D01*
G01*
X0489961Y0207874D01*
G75*
G02*
X0490453Y0208367I0000492J0000000D01*
G01*
X0491437Y0208367D01*
G75*
G02*
X0491929Y0207874I0000000J-000492D01*
G01*
G37*
G36*
G01*
X0488780Y0207874D02*
X0488780Y0202953D01*
G75*
G02*
X0488288Y0202461I-000492J0000000D01*
G01*
X0487303Y0202461D01*
G75*
G02*
X0486811Y0202953I0000000J0000492D01*
G01*
X0486811Y0207874D01*
G75*
G02*
X0487303Y0208367I0000492J0000000D01*
G01*
X0488288Y0208367D01*
G75*
G02*
X0488780Y0207874I0000000J-000492D01*
G01*
G37*
G36*
G01*
X0485335Y0200493D02*
X0485335Y0199508D01*
G75*
G02*
X0484843Y0199016I-000492J0000000D01*
G01*
X0479921Y0199016D01*
G75*
G02*
X0479429Y0199508I0000000J0000492D01*
G01*
X0479429Y0200493D01*
G75*
G02*
X0479921Y0200985I0000492J0000000D01*
G01*
X0484843Y0200985D01*
G75*
G02*
X0485335Y0200493I0000000J-000492D01*
G01*
G37*
G36*
G01*
X0485335Y0197343D02*
X0485335Y0196359D01*
G75*
G02*
X0484843Y0195867I-000492J0000000D01*
G01*
X0479921Y0195867D01*
G75*
G02*
X0479429Y0196359I0000000J0000492D01*
G01*
X0479429Y0197343D01*
G75*
G02*
X0479921Y0197835I0000492J0000000D01*
G01*
X0484843Y0197835D01*
G75*
G02*
X0485335Y0197343I0000000J-000492D01*
G01*
G37*
G36*
G01*
X0485335Y0194193D02*
X0485335Y0193209D01*
G75*
G02*
X0484843Y0192717I-000492J0000000D01*
G01*
X0479921Y0192717D01*
G75*
G02*
X0479429Y0193209I0000000J0000492D01*
G01*
X0479429Y0194193D01*
G75*
G02*
X0479921Y0194685I0000492J0000000D01*
G01*
X0484843Y0194685D01*
G75*
G02*
X0485335Y0194193I0000000J-000492D01*
G01*
G37*
G36*
G01*
X0485335Y0191044D02*
X0485335Y0190059D01*
G75*
G02*
X0484843Y0189567I-000492J0000000D01*
G01*
X0479921Y0189567D01*
G75*
G02*
X0479429Y0190059I0000000J0000492D01*
G01*
X0479429Y0191044D01*
G75*
G02*
X0479921Y0191536I0000492J0000000D01*
G01*
X0484843Y0191536D01*
G75*
G02*
X0485335Y0191044I0000000J-000492D01*
G01*
G37*
G36*
G01*
X0485335Y0187894D02*
X0485335Y0186910D01*
G75*
G02*
X0484843Y0186418I-000492J0000000D01*
G01*
X0479921Y0186418D01*
G75*
G02*
X0479429Y0186910I0000000J0000492D01*
G01*
X0479429Y0187894D01*
G75*
G02*
X0479921Y0188386I0000492J0000000D01*
G01*
X0484843Y0188386D01*
G75*
G02*
X0485335Y0187894I0000000J-000492D01*
G01*
G37*
G36*
G01*
X0485335Y0184744D02*
X0485335Y0183760D01*
G75*
G02*
X0484843Y0183268I-000492J0000000D01*
G01*
X0479921Y0183268D01*
G75*
G02*
X0479429Y0183760I0000000J0000492D01*
G01*
X0479429Y0184744D01*
G75*
G02*
X0479921Y0185237I0000492J0000000D01*
G01*
X0484843Y0185237D01*
G75*
G02*
X0485335Y0184744I0000000J-000492D01*
G01*
G37*
G36*
G01*
X0485335Y0181595D02*
X0485335Y0180611D01*
G75*
G02*
X0484843Y0180118I-000492J0000000D01*
G01*
X0479921Y0180118D01*
G75*
G02*
X0479429Y0180611I0000000J0000492D01*
G01*
X0479429Y0181595D01*
G75*
G02*
X0479921Y0182087I0000492J0000000D01*
G01*
X0484843Y0182087D01*
G75*
G02*
X0485335Y0181595I0000000J-000492D01*
G01*
G37*
G36*
G01*
X0485335Y0178445D02*
X0485335Y0177461D01*
G75*
G02*
X0484843Y0176969I-000492J0000000D01*
G01*
X0479921Y0176969D01*
G75*
G02*
X0479429Y0177461I0000000J0000492D01*
G01*
X0479429Y0178445D01*
G75*
G02*
X0479921Y0178937I0000492J0000000D01*
G01*
X0484843Y0178937D01*
G75*
G02*
X0485335Y0178445I0000000J-000492D01*
G01*
G37*
G36*
G01*
X0488780Y0175000D02*
X0488780Y0170079D01*
G75*
G02*
X0488288Y0169587I-000492J0000000D01*
G01*
X0487303Y0169587D01*
G75*
G02*
X0486811Y0170079I0000000J0000492D01*
G01*
X0486811Y0175000D01*
G75*
G02*
X0487303Y0175493I0000492J0000000D01*
G01*
X0488288Y0175493D01*
G75*
G02*
X0488780Y0175000I0000000J-000492D01*
G01*
G37*
G36*
G01*
X0491929Y0175000D02*
X0491929Y0170079D01*
G75*
G02*
X0491437Y0169587I-000492J0000000D01*
G01*
X0490453Y0169587D01*
G75*
G02*
X0489961Y0170079I0000000J0000492D01*
G01*
X0489961Y0175000D01*
G75*
G02*
X0490453Y0175493I0000492J0000000D01*
G01*
X0491437Y0175493D01*
G75*
G02*
X0491929Y0175000I0000000J-000492D01*
G01*
G37*
G36*
G01*
X0495079Y0175000D02*
X0495079Y0170079D01*
G75*
G02*
X0494587Y0169587I-000492J0000000D01*
G01*
X0493603Y0169587D01*
G75*
G02*
X0493110Y0170079I0000000J0000492D01*
G01*
X0493110Y0175000D01*
G75*
G02*
X0493603Y0175493I0000492J0000000D01*
G01*
X0494587Y0175493D01*
G75*
G02*
X0495079Y0175000I0000000J-000492D01*
G01*
G37*
G36*
G01*
X0498228Y0175000D02*
X0498228Y0170079D01*
G75*
G02*
X0497736Y0169587I-000492J0000000D01*
G01*
X0496752Y0169587D01*
G75*
G02*
X0496260Y0170079I0000000J0000492D01*
G01*
X0496260Y0175000D01*
G75*
G02*
X0496752Y0175493I0000492J0000000D01*
G01*
X0497736Y0175493D01*
G75*
G02*
X0498228Y0175000I0000000J-000492D01*
G01*
G37*
G36*
G01*
X0501378Y0175000D02*
X0501378Y0170079D01*
G75*
G02*
X0500886Y0169587I-000492J0000000D01*
G01*
X0499902Y0169587D01*
G75*
G02*
X0499410Y0170079I0000000J0000492D01*
G01*
X0499410Y0175000D01*
G75*
G02*
X0499902Y0175493I0000492J0000000D01*
G01*
X0500886Y0175493D01*
G75*
G02*
X0501378Y0175000I0000000J-000492D01*
G01*
G37*
G36*
G01*
X0504528Y0175000D02*
X0504528Y0170079D01*
G75*
G02*
X0504036Y0169587I-000492J0000000D01*
G01*
X0503051Y0169587D01*
G75*
G02*
X0502559Y0170079I0000000J0000492D01*
G01*
X0502559Y0175000D01*
G75*
G02*
X0503051Y0175493I0000492J0000000D01*
G01*
X0504036Y0175493D01*
G75*
G02*
X0504528Y0175000I0000000J-000492D01*
G01*
G37*
G36*
G01*
X0507677Y0175000D02*
X0507677Y0170079D01*
G75*
G02*
X0507185Y0169587I-000492J0000000D01*
G01*
X0506201Y0169587D01*
G75*
G02*
X0505709Y0170079I0000000J0000492D01*
G01*
X0505709Y0175000D01*
G75*
G02*
X0506201Y0175493I0000492J0000000D01*
G01*
X0507185Y0175493D01*
G75*
G02*
X0507677Y0175000I0000000J-000492D01*
G01*
G37*
G36*
G01*
X0510827Y0175000D02*
X0510827Y0170079D01*
G75*
G02*
X0510335Y0169587I-000492J0000000D01*
G01*
X0509351Y0169587D01*
G75*
G02*
X0508858Y0170079I0000000J0000492D01*
G01*
X0508858Y0175000D01*
G75*
G02*
X0509351Y0175493I0000492J0000000D01*
G01*
X0510335Y0175493D01*
G75*
G02*
X0510827Y0175000I0000000J-000492D01*
G01*
G37*
G36*
G01*
X0476201Y0196546D02*
X0476201Y0195187D01*
G75*
G02*
X0475620Y0194607I-000581J0000000D01*
G01*
X0474459Y0194607D01*
G75*
G02*
X0473878Y0195187I0000000J0000581D01*
G01*
X0473878Y0196546D01*
G75*
G02*
X0474459Y0197126I0000581J0000000D01*
G01*
X0475620Y0197126D01*
G75*
G02*
X0476201Y0196546I0000000J-000581D01*
G01*
G37*
G36*
G01*
X0472382Y0196546D02*
X0472382Y0195187D01*
G75*
G02*
X0471801Y0194607I-000581J0000000D01*
G01*
X0470640Y0194607D01*
G75*
G02*
X0470059Y0195187I0000000J0000581D01*
G01*
X0470059Y0196546D01*
G75*
G02*
X0470640Y0197126I0000581J0000000D01*
G01*
X0471801Y0197126D01*
G75*
G02*
X0472382Y0196546I0000000J-000581D01*
G01*
G37*
G36*
G01*
X0483278Y0173150D02*
X0484636Y0173150D01*
G75*
G02*
X0485217Y0172569I0000000J-000581D01*
G01*
X0485217Y0171408D01*
G75*
G02*
X0484636Y0170827I-000581J0000000D01*
G01*
X0483278Y0170827D01*
G75*
G02*
X0482697Y0171408I0000000J0000581D01*
G01*
X0482697Y0172569D01*
G75*
G02*
X0483278Y0173150I0000581J0000000D01*
G01*
G37*
G36*
G01*
X0483278Y0169331D02*
X0484636Y0169331D01*
G75*
G02*
X0485217Y0168750I0000000J-000581D01*
G01*
X0485217Y0167589D01*
G75*
G02*
X0484636Y0167008I-000581J0000000D01*
G01*
X0483278Y0167008D01*
G75*
G02*
X0482697Y0167589I0000000J0000581D01*
G01*
X0482697Y0168750D01*
G75*
G02*
X0483278Y0169331I0000581J0000000D01*
G01*
G37*
G36*
G01*
X0459634Y0195187D02*
X0459634Y0196546D01*
G75*
G02*
X0460215Y0197126I0000581J0000000D01*
G01*
X0461376Y0197126D01*
G75*
G02*
X0461957Y0196546I0000000J-000581D01*
G01*
X0461957Y0195187D01*
G75*
G02*
X0461376Y0194607I-000581J0000000D01*
G01*
X0460215Y0194607D01*
G75*
G02*
X0459634Y0195187I0000000J0000581D01*
G01*
G37*
G36*
G01*
X0463453Y0195187D02*
X0463453Y0196546D01*
G75*
G02*
X0464034Y0197126I0000581J0000000D01*
G01*
X0465195Y0197126D01*
G75*
G02*
X0465776Y0196546I0000000J-000581D01*
G01*
X0465776Y0195187D01*
G75*
G02*
X0465195Y0194607I-000581J0000000D01*
G01*
X0464034Y0194607D01*
G75*
G02*
X0463453Y0195187I0000000J0000581D01*
G01*
G37*
D140*
X0461122Y0200788D03*
X0468603Y0200788D03*
X0464862Y0208662D03*
G36*
G01*
X0520187Y0175020D02*
X0521545Y0175020D01*
G75*
G02*
X0522126Y0174439I0000000J-000581D01*
G01*
X0522126Y0173278D01*
G75*
G02*
X0521545Y0172697I-000581J0000000D01*
G01*
X0520187Y0172697D01*
G75*
G02*
X0519606Y0173278I0000000J0000581D01*
G01*
X0519606Y0174439D01*
G75*
G02*
X0520187Y0175020I0000581J0000000D01*
G01*
G37*
G36*
G01*
X0520187Y0171201D02*
X0521545Y0171201D01*
G75*
G02*
X0522126Y0170620I0000000J-000581D01*
G01*
X0522126Y0169459D01*
G75*
G02*
X0521545Y0168878I-000581J0000000D01*
G01*
X0520187Y0168878D01*
G75*
G02*
X0519606Y0169459I0000000J0000581D01*
G01*
X0519606Y0170620D01*
G75*
G02*
X0520187Y0171201I0000581J0000000D01*
G01*
G37*
G36*
G01*
X0474060Y0210059D02*
X0476078Y0210059D01*
G75*
G02*
X0476939Y0209198I0000000J-000861D01*
G01*
X0476939Y0207476D01*
G75*
G02*
X0476078Y0206615I-000861J0000000D01*
G01*
X0474060Y0206615D01*
G75*
G02*
X0473199Y0207476I0000000J0000861D01*
G01*
X0473199Y0209198D01*
G75*
G02*
X0474060Y0210059I0000861J0000000D01*
G01*
G37*
G36*
G01*
X0474060Y0203859D02*
X0476078Y0203859D01*
G75*
G02*
X0476939Y0202997I0000000J-000861D01*
G01*
X0476939Y0201275D01*
G75*
G02*
X0476078Y0200414I-000861J0000000D01*
G01*
X0474060Y0200414D01*
G75*
G02*
X0473199Y0201275I0000000J0000861D01*
G01*
X0473199Y0202997D01*
G75*
G02*
X0474060Y0203859I0000861J0000000D01*
G01*
G37*
X0454134Y0217520D02*
G01*
G75*
D52*
X0507481Y0358859D02*
D03*
D51*
X0493701Y0358859D02*
D03*
D54*
X0587599Y0252756D02*
D03*
D49*
X0545866Y0358859D02*
D03*
X0461614Y0217914D02*
D03*
D50*
X0575394Y0217914D02*
D03*
X0469882Y0358859D02*
D03*
D47*
X0454528Y0253544D02*
D03*
D48*
X0454528Y0222048D02*
D03*
D46*
X0454528Y0307284D02*
D03*
D55*
X0587599Y0229922D02*
D03*
D53*
X0587599Y0345473D02*
D03*
D44*
X0454528Y0324803D02*
D03*
X0454528Y0348819D02*
D03*
D45*
X0454528Y0336811D02*
D03*
X0587599Y0311221D02*
D03*
D149*
X0577756Y0235610D02*
D03*
X0584843Y0235610D02*
D03*
X0584843Y0225571D02*
D03*
X0577756Y0225571D02*
D03*
X0465945Y0284351D02*
D03*
X0458858Y0284351D02*
D03*
X0458858Y0274311D02*
D03*
X0465945Y0274311D02*
D03*
X0465945Y0290453D02*
D03*
X0458858Y0290453D02*
D03*
X0458858Y0300493D02*
D03*
X0465945Y0300493D02*
D03*
D150*
X0577756Y0232166D02*
D03*
X0577756Y0229016D02*
D03*
X0584843Y0229016D02*
D03*
X0584843Y0232166D02*
D03*
X0458858Y0277756D02*
D03*
X0458858Y0280906D02*
D03*
X0465945Y0280906D02*
D03*
X0465945Y0277756D02*
D03*
X0465945Y0293898D02*
D03*
X0465945Y0297048D02*
D03*
X0458858Y0297048D02*
D03*
X0458858Y0293898D02*
D03*
D151*
X0573544Y0232614D02*
D03*
X0573544Y0235173D02*
D03*
X0573544Y0237733D02*
D03*
X0566064Y0232614D02*
D03*
X0566064Y0237733D02*
D03*
X0566064Y0235173D02*
D03*
X0566064Y0227989D02*
D03*
X0566064Y0222870D02*
D03*
X0573544Y0227989D02*
D03*
X0573544Y0225429D02*
D03*
X0573544Y0222870D02*
D03*
X0566064Y0225429D02*
D03*
D152*
X0506336Y0331890D02*
D03*
X0506336Y0329922D02*
D03*
X0506336Y0327953D02*
D03*
X0506336Y0325985D02*
D03*
X0506336Y0324016D02*
D03*
X0506336Y0322048D02*
D03*
X0506336Y0320079D02*
D03*
X0506336Y0318111D02*
D03*
X0506336Y0316142D02*
D03*
X0506336Y0312205D02*
D03*
X0506336Y0310236D02*
D03*
X0506336Y0308268D02*
D03*
X0506336Y0306299D02*
D03*
X0506336Y0304331D02*
D03*
X0506336Y0302362D02*
D03*
X0506336Y0300394D02*
D03*
X0506336Y0298425D02*
D03*
X0506336Y0296457D02*
D03*
X0506336Y0294488D02*
D03*
X0506336Y0292520D02*
D03*
X0506336Y0290552D02*
D03*
X0506336Y0288583D02*
D03*
X0506336Y0286615D02*
D03*
X0506336Y0284646D02*
D03*
X0567360Y0284646D02*
D03*
X0567360Y0286615D02*
D03*
X0567360Y0288583D02*
D03*
X0567360Y0290552D02*
D03*
X0567360Y0292520D02*
D03*
X0567360Y0294488D02*
D03*
X0567360Y0296457D02*
D03*
X0567360Y0298425D02*
D03*
X0567360Y0300394D02*
D03*
X0567360Y0302362D02*
D03*
X0567360Y0304331D02*
D03*
X0567360Y0306299D02*
D03*
X0567360Y0308268D02*
D03*
X0567360Y0310236D02*
D03*
X0567360Y0312205D02*
D03*
X0567360Y0314173D02*
D03*
X0567360Y0316142D02*
D03*
X0567360Y0318111D02*
D03*
X0567360Y0320079D02*
D03*
X0567360Y0322048D02*
D03*
X0567360Y0324016D02*
D03*
X0567360Y0325985D02*
D03*
X0567360Y0327953D02*
D03*
X0567360Y0331890D02*
D03*
X0506336Y0314173D02*
D03*
X0567360Y0329922D02*
D03*
D153*
X0513226Y0277756D02*
D03*
X0517163Y0277756D02*
D03*
X0519132Y0277756D02*
D03*
X0521100Y0277756D02*
D03*
X0523069Y0277756D02*
D03*
X0525037Y0277756D02*
D03*
X0527006Y0277756D02*
D03*
X0528974Y0277756D02*
D03*
X0530943Y0277756D02*
D03*
X0532911Y0277756D02*
D03*
X0534880Y0277756D02*
D03*
X0536848Y0277756D02*
D03*
X0538817Y0277756D02*
D03*
X0540785Y0277756D02*
D03*
X0542754Y0277756D02*
D03*
X0544722Y0277756D02*
D03*
X0546691Y0277756D02*
D03*
X0548659Y0277756D02*
D03*
X0550628Y0277756D02*
D03*
X0552596Y0277756D02*
D03*
X0554565Y0277756D02*
D03*
X0556533Y0277756D02*
D03*
X0558502Y0277756D02*
D03*
X0560470Y0277756D02*
D03*
X0560470Y0338780D02*
D03*
X0558502Y0338780D02*
D03*
X0556533Y0338780D02*
D03*
X0554565Y0338780D02*
D03*
X0552596Y0338780D02*
D03*
X0550628Y0338780D02*
D03*
X0548659Y0338780D02*
D03*
X0546691Y0338780D02*
D03*
X0544722Y0338780D02*
D03*
X0542754Y0338780D02*
D03*
X0540785Y0338780D02*
D03*
X0538817Y0338780D02*
D03*
X0536848Y0338780D02*
D03*
X0534880Y0338780D02*
D03*
X0532911Y0338780D02*
D03*
X0530943Y0338780D02*
D03*
X0528974Y0338780D02*
D03*
X0527006Y0338780D02*
D03*
X0525037Y0338780D02*
D03*
X0523069Y0338780D02*
D03*
X0521100Y0338780D02*
D03*
X0519132Y0338780D02*
D03*
X0517163Y0338780D02*
D03*
X0515195Y0338780D02*
D03*
X0513226Y0338780D02*
D03*
X0515195Y0277756D02*
D03*
D154*
X0509843Y0260827D02*
D03*
X0537795Y0260827D02*
D03*
X0481890Y0260827D02*
D03*
X0487402Y0255709D02*
D03*
X0515355Y0265945D02*
D03*
X0515355Y0263386D02*
D03*
X0515355Y0260827D02*
D03*
X0515355Y0258268D02*
D03*
X0515355Y0255709D02*
D03*
X0515355Y0253150D02*
D03*
X0515355Y0250591D02*
D03*
X0537795Y0265945D02*
D03*
X0537795Y0263386D02*
D03*
X0537795Y0258268D02*
D03*
X0537795Y0255709D02*
D03*
X0537795Y0253150D02*
D03*
X0537795Y0250591D02*
D03*
X0459449Y0265945D02*
D03*
X0459449Y0263386D02*
D03*
X0459449Y0260827D02*
D03*
X0459449Y0258268D02*
D03*
X0459449Y0255709D02*
D03*
X0459449Y0253150D02*
D03*
X0459449Y0250591D02*
D03*
X0481890Y0265945D02*
D03*
X0481890Y0263386D02*
D03*
X0481890Y0258268D02*
D03*
X0481890Y0255709D02*
D03*
X0481890Y0253150D02*
D03*
X0481890Y0250591D02*
D03*
X0487402Y0265945D02*
D03*
X0487402Y0263386D02*
D03*
X0487402Y0260827D02*
D03*
X0487402Y0258268D02*
D03*
X0487402Y0253150D02*
D03*
X0487402Y0250591D02*
D03*
X0509843Y0265945D02*
D03*
X0509843Y0263386D02*
D03*
X0509843Y0258268D02*
D03*
X0509843Y0255709D02*
D03*
X0509843Y0253150D02*
D03*
X0509843Y0250591D02*
D03*
X0565748Y0250591D02*
D03*
X0565748Y0253150D02*
D03*
X0565748Y0255709D02*
D03*
X0565748Y0258268D02*
D03*
X0565748Y0260827D02*
D03*
X0565748Y0263386D02*
D03*
X0565748Y0265945D02*
D03*
X0543307Y0250591D02*
D03*
X0543307Y0253150D02*
D03*
X0543307Y0255709D02*
D03*
X0543307Y0258268D02*
D03*
X0543307Y0260827D02*
D03*
X0543307Y0263386D02*
D03*
X0543307Y0265945D02*
D03*
D155*
X0578543Y0352953D02*
D03*
X0582284Y0352953D02*
D03*
X0574803Y0352953D02*
D03*
X0574803Y0343504D02*
D03*
X0578543Y0343504D02*
D03*
X0582284Y0343504D02*
D03*
D156*
X0579993Y0331693D02*
D03*
X0579993Y0336418D02*
D03*
X0578524Y0322146D02*
D03*
X0491984Y0348931D02*
D03*
X0505296Y0273065D02*
D03*
X0576057Y0331693D02*
D03*
X0582462Y0322146D02*
D03*
X0577162Y0285162D02*
D03*
X0581099Y0285162D02*
D03*
X0577162Y0276107D02*
D03*
X0581099Y0276107D02*
D03*
X0576057Y0336418D02*
D03*
X0495921Y0348931D02*
D03*
X0488844Y0332216D02*
D03*
X0492781Y0332216D02*
D03*
X0509233Y0273065D02*
D03*
X0509252Y0277361D02*
D03*
X0505315Y0277361D02*
D03*
D157*
X0582450Y0313511D02*
D03*
X0582450Y0311543D02*
D03*
X0576151Y0315480D02*
D03*
X0576151Y0313511D02*
D03*
X0576151Y0317448D02*
D03*
X0576151Y0311543D02*
D03*
X0582450Y0317448D02*
D03*
X0582450Y0315480D02*
D03*
D158*
X0580285Y0311346D02*
D03*
X0578316Y0311346D02*
D03*
X0578316Y0317645D02*
D03*
X0580285Y0317645D02*
D03*
D159*
X0577545Y0306496D02*
D03*
X0577545Y0289961D02*
D03*
D160*
X0549016Y0234055D02*
D03*
X0558465Y0234055D02*
D03*
X0553740Y0234055D02*
D03*
X0544292Y0234055D02*
D03*
X0558465Y0222638D02*
D03*
X0549016Y0222638D02*
D03*
X0553740Y0222638D02*
D03*
X0544292Y0222638D02*
D03*
X0538082Y0241035D02*
D03*
X0538082Y0244972D02*
D03*
X0544292Y0226575D02*
D03*
D03*
X0544292Y0230512D02*
D03*
X0549016Y0226575D02*
D03*
X0549016Y0230512D02*
D03*
X0544292Y0237992D02*
D03*
X0553740Y0226575D02*
D03*
X0553740Y0230512D02*
D03*
X0549016Y0237992D02*
D03*
X0553740Y0237992D02*
D03*
X0558465Y0226575D02*
D03*
X0558465Y0230512D02*
D03*
X0558465Y0226575D02*
D03*
X0558465Y0237992D02*
D03*
X0549016Y0226575D02*
D03*
X0553740Y0226575D02*
D03*
X0458268Y0228937D02*
D03*
X0458268Y0225000D02*
D03*
X0482874Y0226575D02*
D03*
X0482874Y0222638D02*
D03*
X0497047Y0226575D02*
D03*
X0497047Y0222638D02*
D03*
X0515945Y0230512D02*
D03*
X0515945Y0226575D02*
D03*
X0515945Y0222638D02*
D03*
X0515945Y0226575D02*
D03*
X0530118Y0230512D02*
D03*
X0530118Y0226575D02*
D03*
X0458268Y0245670D02*
D03*
X0458268Y0241733D02*
D03*
X0463977Y0226575D02*
D03*
X0463977Y0230512D02*
D03*
X0468701Y0226575D02*
D03*
X0468701Y0230512D02*
D03*
X0473425Y0226575D02*
D03*
X0473425Y0230512D02*
D03*
X0478150Y0226575D02*
D03*
X0478150Y0230512D02*
D03*
X0463977Y0226575D02*
D03*
X0463977Y0222638D02*
D03*
X0468701Y0226575D02*
D03*
X0468701Y0222638D02*
D03*
X0473425Y0226575D02*
D03*
X0473425Y0222638D02*
D03*
X0478150Y0226575D02*
D03*
X0478150Y0222638D02*
D03*
X0482874Y0226575D02*
D03*
X0482874Y0230512D02*
D03*
X0487599Y0226575D02*
D03*
X0487599Y0230512D02*
D03*
X0492323Y0226575D02*
D03*
X0492323Y0230512D02*
D03*
X0497047Y0226575D02*
D03*
X0497047Y0230512D02*
D03*
X0487599Y0226575D02*
D03*
X0487599Y0222638D02*
D03*
X0492323Y0226575D02*
D03*
X0492323Y0222638D02*
D03*
X0501772Y0230512D02*
D03*
X0501772Y0226575D02*
D03*
X0506496Y0230512D02*
D03*
X0506496Y0226575D02*
D03*
X0511221Y0230512D02*
D03*
X0511221Y0226575D02*
D03*
X0501772Y0222638D02*
D03*
X0501772Y0226575D02*
D03*
X0506496Y0222638D02*
D03*
X0506496Y0226575D02*
D03*
X0511221Y0222638D02*
D03*
X0511221Y0226575D02*
D03*
X0520670Y0230512D02*
D03*
X0520670Y0226575D02*
D03*
X0525394Y0230512D02*
D03*
X0525394Y0226575D02*
D03*
X0534843Y0230512D02*
D03*
X0534843Y0226575D02*
D03*
X0520670Y0222638D02*
D03*
X0520670Y0226575D02*
D03*
X0525394Y0222638D02*
D03*
X0525394Y0226575D02*
D03*
X0530118Y0222638D02*
D03*
X0530118Y0226575D02*
D03*
X0534843Y0222638D02*
D03*
X0534843Y0226575D02*
D03*
X0458268Y0236614D02*
D03*
X0458268Y0232677D02*
D03*
D161*
X0523032Y0239567D02*
D03*
X0504134Y0239567D02*
D03*
X0485236Y0239567D02*
D03*
X0466339Y0239567D02*
D03*
X0494685Y0243307D02*
D03*
X0494685Y0239567D02*
D03*
X0494685Y0235827D02*
D03*
X0485236Y0235827D02*
D03*
X0485236Y0243307D02*
D03*
X0475788Y0243307D02*
D03*
X0475788Y0239567D02*
D03*
X0475788Y0235827D02*
D03*
X0466339Y0235827D02*
D03*
X0466339Y0243307D02*
D03*
X0513583Y0243307D02*
D03*
X0513583Y0239567D02*
D03*
X0513583Y0235827D02*
D03*
X0504134Y0235827D02*
D03*
X0504134Y0243307D02*
D03*
X0532481Y0243307D02*
D03*
X0532481Y0239567D02*
D03*
X0532481Y0235827D02*
D03*
X0523032Y0235827D02*
D03*
X0523032Y0243307D02*
D03*
D162*
X0489047Y0336602D02*
D03*
X0506969Y0346851D02*
D03*
D163*
X0479725Y0311479D02*
D03*
X0460827Y0306479D02*
D03*
X0460827Y0321479D02*
D03*
X0460827Y0316479D02*
D03*
X0460827Y0311479D02*
D03*
X0479725Y0321479D02*
D03*
X0479725Y0316479D02*
D03*
X0479725Y0306479D02*
D03*
D164*
X0461417Y0329120D02*
D03*
X0479528Y0329120D02*
D03*
D165*
X0495879Y0297594D02*
D03*
X0479670Y0297046D02*
D03*
X0496356Y0289434D02*
D03*
X0496356Y0281823D02*
D03*
X0479670Y0289434D02*
D03*
X0479670Y0281823D02*
D03*
X0496356Y0274211D02*
D03*
X0479670Y0274211D02*
D03*
X0489186Y0297594D02*
D03*
X0489663Y0289434D02*
D03*
X0489663Y0281823D02*
D03*
X0489663Y0274211D02*
D03*
X0472977Y0289434D02*
D03*
X0472977Y0297046D02*
D03*
X0489186Y0305571D02*
D03*
X0495879Y0305571D02*
D03*
X0495879Y0312658D02*
D03*
X0489186Y0312658D02*
D03*
X0489186Y0319744D02*
D03*
X0495879Y0319744D02*
D03*
X0495879Y0326831D02*
D03*
X0489186Y0326831D02*
D03*
X0472977Y0281823D02*
D03*
X0472977Y0274211D02*
D03*
X0495879Y0354331D02*
D03*
X0489186Y0354331D02*
D03*
D166*
X0582553Y0326918D02*
D03*
X0576253Y0326918D02*
D03*
X0575193Y0280477D02*
D03*
X0581493Y0280477D02*
D03*
D167*
X0541928Y0349860D02*
D03*
X0525393Y0349860D02*
D03*
D162*
X0506969Y0354331D02*
D03*
X0516221Y0350591D02*
D03*
X0489047Y0344082D02*
D03*
X0498299Y0340342D02*
D03*
D168*
X0470473Y0353530D02*
D03*
D169*
X0470473Y0329120D02*
D03*
D98*
X0539764Y0226575D02*
D03*
X0458858Y0220670D02*
D03*
D170*
X0576955Y0244317D02*
D03*
X0576955Y0262033D02*
D03*
X0454134Y0124265D02*
G01*
G75*
D206*
X0465551Y0137277D02*
D03*
X0461811Y0128025D02*
D03*
D206*
X0458071Y0137277D02*
D03*
D163*
X0473110Y0148891D02*
D03*
X0473110Y0143891D02*
D03*
X0473110Y0138891D02*
D03*
X0473110Y0133891D02*
D03*
X0492008Y0148891D02*
D03*
X0492008Y0143891D02*
D03*
X0492008Y0138891D02*
D03*
X0492008Y0133891D02*
D03*
D92*
X0488819Y0128596D02*
D03*
X0495039Y0128596D02*
D03*
X0480473Y0128596D02*
D03*
X0474252Y0128596D02*
D03*
D236*
X0458661Y0142178D02*
D03*
X0464961Y0142178D02*
D03*
D20*
X0469291Y0126135D02*
D03*
X0592913Y0232874D02*
%LPD*%
G01*
D246*
X0616870Y0263307D03*
X0616870Y0257559D03*
X0616870Y0251811D03*
X0616870Y0246063D03*
X0616870Y0240315D03*
X0625728Y0263307D03*
X0625728Y0257559D03*
X0625728Y0251811D03*
X0625728Y0246063D03*
X0625728Y0240315D03*
D244*
X0602401Y0261654D03*
X0602401Y0257717D03*
X0602401Y0253780D03*
X0602401Y0249843D03*
X0602401Y0245905D03*
X0602401Y0241968D03*
X0640196Y0241968D03*
X0640196Y0245905D03*
X0640196Y0249843D03*
X0640196Y0253780D03*
X0640196Y0257717D03*
X0640196Y0261654D03*
M02*
