G75*
G70*
%OFA0B0*%
%FSLAX25Y25*%
%IPPOS*%
%LPD*%
%AMOC8*
5,1,8,0,0,1.08239X$1,22.5*
%
%AMM125*
21,1,0.025200,0.019680,-0.000000,0.000000,90.000000*
21,1,0.015750,0.029130,-0.000000,0.000000,90.000000*
1,1,0.009450,0.009840,0.007870*
1,1,0.009450,0.009840,-0.007870*
1,1,0.009450,-0.009840,-0.007870*
1,1,0.009450,-0.009840,0.007870*
%
%AMM126*
21,1,0.025200,0.019680,-0.000000,0.000000,0.000000*
21,1,0.015750,0.029130,-0.000000,0.000000,0.000000*
1,1,0.009450,0.007870,-0.009840*
1,1,0.009450,-0.007870,-0.009840*
1,1,0.009450,-0.007870,0.009840*
1,1,0.009450,0.007870,0.009840*
%
%AMM134*
21,1,0.038980,0.026770,-0.000000,0.000000,0.000000*
21,1,0.026770,0.038980,-0.000000,0.000000,0.000000*
1,1,0.012210,0.013390,-0.013390*
1,1,0.012210,-0.013390,-0.013390*
1,1,0.012210,-0.013390,0.013390*
1,1,0.012210,0.013390,0.013390*
%
%AMM192*
21,1,0.041340,0.026770,0.000000,-0.000000,270.000000*
21,1,0.029130,0.038980,0.000000,-0.000000,270.000000*
1,1,0.012210,-0.013390,-0.014570*
1,1,0.012210,-0.013390,0.014570*
1,1,0.012210,0.013390,0.014570*
1,1,0.012210,0.013390,-0.014570*
%
%AMM193*
21,1,0.076380,0.036220,0.000000,-0.000000,0.000000*
21,1,0.061810,0.050790,0.000000,-0.000000,0.000000*
1,1,0.014570,0.030910,-0.018110*
1,1,0.014570,-0.030910,-0.018110*
1,1,0.014570,-0.030910,0.018110*
1,1,0.014570,0.030910,0.018110*
%
%AMM196*
21,1,0.029130,0.018900,0.000000,-0.000000,0.000000*
21,1,0.018900,0.029130,0.000000,-0.000000,0.000000*
1,1,0.010240,0.009450,-0.009450*
1,1,0.010240,-0.009450,-0.009450*
1,1,0.010240,-0.009450,0.009450*
1,1,0.010240,0.009450,0.009450*
%
%AMM197*
21,1,0.025200,0.019680,0.000000,-0.000000,270.000000*
21,1,0.015750,0.029130,0.000000,-0.000000,270.000000*
1,1,0.009450,-0.009840,-0.007870*
1,1,0.009450,-0.009840,0.007870*
1,1,0.009450,0.009840,0.007870*
1,1,0.009450,0.009840,-0.007870*
%
%AMM198*
21,1,0.025200,0.019680,0.000000,-0.000000,180.000000*
21,1,0.015750,0.029130,0.000000,-0.000000,180.000000*
1,1,0.009450,-0.007870,0.009840*
1,1,0.009450,0.007870,0.009840*
1,1,0.009450,0.007870,-0.009840*
1,1,0.009450,-0.007870,-0.009840*
%
%AMM204*
21,1,0.029130,0.018900,0.000000,-0.000000,270.000000*
21,1,0.018900,0.029130,0.000000,-0.000000,270.000000*
1,1,0.010240,-0.009450,-0.009450*
1,1,0.010240,-0.009450,0.009450*
1,1,0.010240,0.009450,0.009450*
1,1,0.010240,0.009450,-0.009450*
%
%AMM205*
21,1,0.111810,0.050390,0.000000,-0.000000,0.000000*
21,1,0.093700,0.068500,0.000000,-0.000000,0.000000*
1,1,0.018110,0.046850,-0.025200*
1,1,0.018110,-0.046850,-0.025200*
1,1,0.018110,-0.046850,0.025200*
1,1,0.018110,0.046850,0.025200*
%
%AMM206*
21,1,0.038980,0.026770,0.000000,-0.000000,180.000000*
21,1,0.026770,0.038980,0.000000,-0.000000,180.000000*
1,1,0.012210,-0.013390,0.013390*
1,1,0.012210,0.013390,0.013390*
1,1,0.012210,0.013390,-0.013390*
1,1,0.012210,-0.013390,-0.013390*
%
%AMM207*
21,1,0.127560,0.075590,0.000000,-0.000000,90.000000*
21,1,0.103150,0.100000,0.000000,-0.000000,90.000000*
1,1,0.024410,0.037800,0.051580*
1,1,0.024410,0.037800,-0.051580*
1,1,0.024410,-0.037800,-0.051580*
1,1,0.024410,-0.037800,0.051580*
%
%AMM208*
21,1,0.123620,0.083460,0.000000,-0.000000,270.000000*
21,1,0.097240,0.109840,0.000000,-0.000000,270.000000*
1,1,0.026380,-0.041730,-0.048620*
1,1,0.026380,-0.041730,0.048620*
1,1,0.026380,0.041730,0.048620*
1,1,0.026380,0.041730,-0.048620*
%
%AMM210*
21,1,0.029130,0.018900,-0.000000,0.000000,270.000000*
21,1,0.018900,0.029130,-0.000000,0.000000,270.000000*
1,1,0.010240,-0.009450,-0.009450*
1,1,0.010240,-0.009450,0.009450*
1,1,0.010240,0.009450,0.009450*
1,1,0.010240,0.009450,-0.009450*
%
%AMM55*
21,1,0.029530,0.026380,0.000000,0.000000,270.000000*
21,1,0.020470,0.035430,0.000000,0.000000,270.000000*
1,1,0.009060,-0.013190,-0.010240*
1,1,0.009060,-0.013190,0.010240*
1,1,0.009060,0.013190,0.010240*
1,1,0.009060,0.013190,-0.010240*
%
%AMM56*
21,1,0.021650,0.027950,0.000000,0.000000,270.000000*
21,1,0.014170,0.035430,0.000000,0.000000,270.000000*
1,1,0.007480,-0.013980,-0.007090*
1,1,0.007480,-0.013980,0.007090*
1,1,0.007480,0.013980,0.007090*
1,1,0.007480,0.013980,-0.007090*
%
%AMM59*
21,1,0.031500,0.018900,0.000000,0.000000,90.000000*
21,1,0.022840,0.027560,0.000000,0.000000,90.000000*
1,1,0.008660,0.009450,0.011420*
1,1,0.008660,0.009450,-0.011420*
1,1,0.008660,-0.009450,-0.011420*
1,1,0.008660,-0.009450,0.011420*
%
%AMM61*
21,1,0.031500,0.018900,0.000000,0.000000,180.000000*
21,1,0.022840,0.027560,0.000000,0.000000,180.000000*
1,1,0.008660,-0.011420,0.009450*
1,1,0.008660,0.011420,0.009450*
1,1,0.008660,0.011420,-0.009450*
1,1,0.008660,-0.011420,-0.009450*
%
%AMM63*
21,1,0.039370,0.030320,0.000000,0.000000,270.000000*
21,1,0.028350,0.041340,0.000000,0.000000,270.000000*
1,1,0.011020,-0.015160,-0.014170*
1,1,0.011020,-0.015160,0.014170*
1,1,0.011020,0.015160,0.014170*
1,1,0.011020,0.015160,-0.014170*
%
%AMM66*
21,1,0.031500,0.030710,0.000000,0.000000,0.000000*
21,1,0.022050,0.040160,0.000000,0.000000,0.000000*
1,1,0.009450,0.011020,-0.015350*
1,1,0.009450,-0.011020,-0.015350*
1,1,0.009450,-0.011020,0.015350*
1,1,0.009450,0.011020,0.015350*
%
%AMM81*
21,1,0.037400,0.026770,0.000000,0.000000,90.000000*
21,1,0.026770,0.037400,0.000000,0.000000,90.000000*
1,1,0.010630,0.013390,0.013390*
1,1,0.010630,0.013390,-0.013390*
1,1,0.010630,-0.013390,-0.013390*
1,1,0.010630,-0.013390,0.013390*
%
%AMM82*
21,1,0.029530,0.026380,0.000000,0.000000,0.000000*
21,1,0.020470,0.035430,0.000000,0.000000,0.000000*
1,1,0.009060,0.010240,-0.013190*
1,1,0.009060,-0.010240,-0.013190*
1,1,0.009060,-0.010240,0.013190*
1,1,0.009060,0.010240,0.013190*
%
%AMM83*
21,1,0.021650,0.027950,0.000000,0.000000,0.000000*
21,1,0.014170,0.035430,0.000000,0.000000,0.000000*
1,1,0.007480,0.007090,-0.013980*
1,1,0.007480,-0.007090,-0.013980*
1,1,0.007480,-0.007090,0.013980*
1,1,0.007480,0.007090,0.013980*
%
%AMM84*
21,1,0.037400,0.026770,0.000000,0.000000,0.000000*
21,1,0.026770,0.037400,0.000000,0.000000,0.000000*
1,1,0.010630,0.013390,-0.013390*
1,1,0.010630,-0.013390,-0.013390*
1,1,0.010630,-0.013390,0.013390*
1,1,0.010630,0.013390,0.013390*
%
%AMM85*
21,1,0.082680,0.045670,0.000000,0.000000,180.000000*
21,1,0.067320,0.061020,0.000000,0.000000,180.000000*
1,1,0.015350,-0.033660,0.022840*
1,1,0.015350,0.033660,0.022840*
1,1,0.015350,0.033660,-0.022840*
1,1,0.015350,-0.033660,-0.022840*
%
%AMM86*
21,1,0.062990,0.020470,0.000000,0.000000,180.000000*
21,1,0.053940,0.029530,0.000000,0.000000,180.000000*
1,1,0.009060,-0.026970,0.010240*
1,1,0.009060,0.026970,0.010240*
1,1,0.009060,0.026970,-0.010240*
1,1,0.009060,-0.026970,-0.010240*
%
%AMM87*
21,1,0.039370,0.030320,0.000000,0.000000,180.000000*
21,1,0.028350,0.041340,0.000000,0.000000,180.000000*
1,1,0.011020,-0.014170,0.015160*
1,1,0.011020,0.014170,0.015160*
1,1,0.011020,0.014170,-0.015160*
1,1,0.011020,-0.014170,-0.015160*
%
%AMM88*
21,1,0.016540,0.028980,0.000000,0.000000,180.000000*
21,1,0.010080,0.035430,0.000000,0.000000,180.000000*
1,1,0.006460,-0.005040,0.014490*
1,1,0.006460,0.005040,0.014490*
1,1,0.006460,0.005040,-0.014490*
1,1,0.006460,-0.005040,-0.014490*
%
%AMM89*
21,1,0.074800,0.036220,0.000000,0.000000,0.000000*
21,1,0.061810,0.049210,0.000000,0.000000,0.000000*
1,1,0.012990,0.030910,-0.018110*
1,1,0.012990,-0.030910,-0.018110*
1,1,0.012990,-0.030910,0.018110*
1,1,0.012990,0.030910,0.018110*
%
%AMM90*
21,1,0.039760,0.026770,0.000000,0.000000,0.000000*
21,1,0.029130,0.037400,0.000000,0.000000,0.000000*
1,1,0.010630,0.014570,-0.013390*
1,1,0.010630,-0.014570,-0.013390*
1,1,0.010630,-0.014570,0.013390*
1,1,0.010630,0.014570,0.013390*
%
%AMM91*
21,1,0.031500,0.049610,0.000000,0.000000,0.000000*
21,1,0.022050,0.059060,0.000000,0.000000,0.000000*
1,1,0.009450,0.011020,-0.024800*
1,1,0.009450,-0.011020,-0.024800*
1,1,0.009450,-0.011020,0.024800*
1,1,0.009450,0.011020,0.024800*
%
%AMM92*
21,1,0.074800,0.036220,0.000000,0.000000,90.000000*
21,1,0.061810,0.049210,0.000000,0.000000,90.000000*
1,1,0.012990,0.018110,0.030910*
1,1,0.012990,0.018110,-0.030910*
1,1,0.012990,-0.018110,-0.030910*
1,1,0.012990,-0.018110,0.030910*
%
%AMM93*
21,1,0.031500,0.030710,0.000000,0.000000,90.000000*
21,1,0.022050,0.040160,0.000000,0.000000,90.000000*
1,1,0.009450,0.015350,0.011020*
1,1,0.009450,0.015350,-0.011020*
1,1,0.009450,-0.015350,-0.011020*
1,1,0.009450,-0.015350,0.011020*
%
%ADD10R,0.04331X0.04331*%
%ADD11C,0.04331*%
%ADD12O,0.09449X0.04331*%
%ADD13C,0.06693*%
%ADD134C,0.02913*%
%ADD135C,0.06457*%
%ADD14C,0.14567*%
%ADD15C,0.08661*%
%ADD16C,0.10236*%
%ADD17C,0.05906*%
%ADD176C,0.03900*%
%ADD18C,0.06000*%
%ADD206M55*%
%ADD207M56*%
%ADD214M59*%
%ADD218M61*%
%ADD220M63*%
%ADD224M66*%
%ADD230C,0.04294*%
%ADD248M81*%
%ADD249M82*%
%ADD250M83*%
%ADD251M84*%
%ADD252M85*%
%ADD253M86*%
%ADD254M87*%
%ADD255R,0.01772X0.01870*%
%ADD256M88*%
%ADD257O,0.05354X0.01378*%
%ADD258M89*%
%ADD259M90*%
%ADD260R,0.09843X0.07087*%
%ADD261R,0.01870X0.01772*%
%ADD262M91*%
%ADD263R,0.04331X0.04724*%
%ADD264M92*%
%ADD265M93*%
%ADD312M125*%
%ADD313M126*%
%ADD322M134*%
%ADD323O,0.09213X0.02520*%
%ADD34C,0.02362*%
%ADD381M192*%
%ADD382M193*%
%ADD385M196*%
%ADD386M197*%
%ADD387M198*%
%ADD393M204*%
%ADD394M205*%
%ADD395M206*%
%ADD396M207*%
%ADD397M208*%
%ADD399M210*%
%ADD403R,0.07874X0.07500*%
%ADD404O,0.07874X0.07500*%
%ADD406R,0.01772X0.05709*%
%ADD407R,0.02559X0.04803*%
%ADD95C,0.05118*%
%ADD96C,0.04724*%
X0000000Y0000000D02*
%LPD*%
G01*
D10*
X0438602Y0387343D03*
D11*
X0431713Y0390492D03*
X0438602Y0393642D03*
X0431713Y0396791D03*
X0438602Y0399941D03*
D12*
X0435157Y0379272D03*
X0435157Y0408012D03*
D13*
X0604882Y0299783D03*
X0594882Y0299783D03*
X0584882Y0299783D03*
X0604882Y0289783D03*
X0594882Y0289783D03*
X0584882Y0289783D03*
X0604882Y0279783D03*
X0594882Y0279783D03*
X0584882Y0279783D03*
D14*
X0073425Y0021634D03*
D15*
X0083071Y0052343D03*
D14*
X0366732Y0021634D03*
D15*
X0562598Y0052343D03*
D14*
X0572244Y0021634D03*
D16*
X0101378Y0041319D03*
X0124213Y0041319D03*
X0112795Y0050492D03*
X0101378Y0073327D03*
X0124213Y0073327D03*
D17*
X0335315Y0073327D03*
X0325315Y0073327D03*
X0315315Y0073327D03*
X0305315Y0073327D03*
X0295315Y0073327D03*
X0285315Y0073327D03*
X0275315Y0073327D03*
X0265315Y0073327D03*
X0255315Y0073327D03*
X0245315Y0073327D03*
X0235315Y0073327D03*
X0225315Y0073327D03*
X0215315Y0073327D03*
X0205315Y0073327D03*
X0195315Y0073327D03*
X0185315Y0073327D03*
X0175315Y0073327D03*
X0165315Y0073327D03*
X0155315Y0073327D03*
X0335315Y0063327D03*
X0325315Y0063327D03*
X0315315Y0063327D03*
X0305315Y0063327D03*
X0295315Y0063327D03*
X0285315Y0063327D03*
X0275315Y0063327D03*
X0265315Y0063327D03*
X0255315Y0063327D03*
X0245315Y0063327D03*
X0235315Y0063327D03*
X0225315Y0063327D03*
X0215315Y0063327D03*
X0205315Y0063327D03*
X0195315Y0063327D03*
X0185315Y0063327D03*
X0175315Y0063327D03*
X0165315Y0063327D03*
X0155315Y0063327D03*
X0335315Y0039508D03*
X0325315Y0039508D03*
X0315315Y0039508D03*
X0305315Y0039508D03*
X0295315Y0039508D03*
X0285315Y0039508D03*
X0275315Y0039508D03*
X0265315Y0039508D03*
X0255315Y0039508D03*
X0245315Y0039508D03*
X0235315Y0039508D03*
X0225315Y0039508D03*
X0215315Y0039508D03*
X0205315Y0039508D03*
X0195315Y0039508D03*
X0185315Y0039508D03*
X0175315Y0039508D03*
X0165315Y0039508D03*
X0155315Y0039508D03*
X0335315Y0029508D03*
X0325315Y0029508D03*
X0315315Y0029508D03*
X0305315Y0029508D03*
X0295315Y0029508D03*
X0285315Y0029508D03*
X0275315Y0029508D03*
X0265315Y0029508D03*
X0255315Y0029508D03*
X0245315Y0029508D03*
X0235315Y0029508D03*
X0225315Y0029508D03*
X0215315Y0029508D03*
X0205315Y0029508D03*
X0195315Y0029508D03*
X0185315Y0029508D03*
X0175315Y0029508D03*
X0165315Y0029508D03*
X0155315Y0029508D03*
X0398189Y0029508D03*
X0408189Y0029508D03*
X0418189Y0029508D03*
X0428189Y0029508D03*
X0438189Y0029508D03*
X0448189Y0029508D03*
X0458189Y0029508D03*
X0468189Y0029508D03*
X0398189Y0039508D03*
X0408189Y0039508D03*
X0418189Y0039508D03*
X0428189Y0039508D03*
X0438189Y0039508D03*
X0448189Y0039508D03*
X0458189Y0039508D03*
X0468189Y0039508D03*
X0398189Y0063327D03*
X0408189Y0063327D03*
X0418189Y0063327D03*
X0428189Y0063327D03*
X0438189Y0063327D03*
X0448189Y0063327D03*
X0458189Y0063327D03*
X0468189Y0063327D03*
X0398189Y0073327D03*
X0408189Y0073327D03*
X0418189Y0073327D03*
X0428189Y0073327D03*
X0438189Y0073327D03*
X0448189Y0073327D03*
X0458189Y0073327D03*
X0468189Y0073327D03*
D16*
X0499016Y0041319D03*
X0521850Y0041319D03*
X0545079Y0041319D03*
X0510433Y0050492D03*
X0533661Y0050492D03*
X0499016Y0073327D03*
X0521850Y0073327D03*
X0545079Y0073327D03*
D18*
X0581772Y0369547D03*
X0581772Y0388839D03*
X0369843Y0219272D03*
X0350551Y0219272D03*
X0384020Y0164622D03*
X0364728Y0164622D03*
D13*
X0370000Y0305650D03*
X0370000Y0295650D03*
X0370000Y0285650D03*
X0380000Y0305650D03*
X0380000Y0295650D03*
X0380000Y0285650D03*
X0390000Y0305650D03*
X0390000Y0295650D03*
X0390000Y0285650D03*
D34*
X0170957Y0230327D03*
X0175681Y0230327D03*
X0166232Y0230327D03*
X0161508Y0230327D03*
X0186941Y0173535D03*
X0190878Y0173535D03*
D17*
X0538189Y0364547D03*
X0512992Y0364547D03*
X0505512Y0364547D03*
X0488583Y0364547D03*
D34*
X0479134Y0362776D03*
X0475197Y0362776D03*
D17*
X0463976Y0364547D03*
X0539961Y0425571D03*
X0532677Y0425571D03*
X0513189Y0425571D03*
X0465748Y0425571D03*
D34*
X0129713Y0230004D03*
X0134437Y0230004D03*
X0124988Y0230004D03*
X0120264Y0230004D03*
X0145697Y0173213D03*
X0149634Y0173213D03*
D13*
X0586181Y0244783D03*
X0586181Y0234783D03*
X0586181Y0224783D03*
X0596181Y0244783D03*
X0596181Y0234783D03*
X0596181Y0224783D03*
X0606181Y0244783D03*
X0606181Y0234783D03*
X0606181Y0224783D03*
X0461929Y0134035D03*
X0461929Y0124035D03*
X0461929Y0114035D03*
X0471929Y0134035D03*
X0471929Y0124035D03*
X0471929Y0114035D03*
X0481929Y0134035D03*
X0481929Y0124035D03*
X0481929Y0114035D03*
X0370591Y0247579D03*
X0370591Y0237579D03*
X0370591Y0227579D03*
X0380591Y0247579D03*
X0380591Y0237579D03*
X0380591Y0227579D03*
X0390591Y0247579D03*
X0390591Y0237579D03*
X0390591Y0227579D03*
D18*
X0453760Y0416752D03*
X0438760Y0416752D03*
D13*
X0462480Y0246240D03*
X0462480Y0236240D03*
X0462480Y0226240D03*
X0472480Y0246240D03*
X0472480Y0236240D03*
X0472480Y0226240D03*
X0482480Y0246240D03*
X0482480Y0236240D03*
X0482480Y0226240D03*
X0372559Y0134193D03*
X0372559Y0124193D03*
X0372559Y0114193D03*
X0382559Y0134193D03*
X0382559Y0124193D03*
X0382559Y0114193D03*
X0392559Y0134193D03*
X0392559Y0124193D03*
X0392559Y0114193D03*
D18*
X0562835Y0371476D03*
X0562835Y0390768D03*
D13*
X0373071Y0195413D03*
X0373071Y0185413D03*
X0373071Y0175413D03*
X0383071Y0195413D03*
X0383071Y0185413D03*
X0383071Y0175413D03*
X0393071Y0195413D03*
X0393071Y0185413D03*
X0393071Y0175413D03*
D34*
X0103972Y0229866D03*
X0107713Y0229866D03*
X0111453Y0229866D03*
X0107516Y0195614D03*
X0103972Y0195614D03*
D13*
X0500906Y0300177D03*
X0500906Y0290177D03*
X0500906Y0280177D03*
X0510906Y0300177D03*
X0510906Y0290177D03*
X0510906Y0280177D03*
X0520906Y0300177D03*
X0520906Y0290177D03*
X0520906Y0280177D03*
X0586575Y0193760D03*
X0586575Y0183760D03*
X0586575Y0173760D03*
X0596575Y0193760D03*
X0596575Y0183760D03*
X0596575Y0173760D03*
X0606575Y0193760D03*
X0606575Y0183760D03*
X0606575Y0173760D03*
X0500984Y0132618D03*
X0500984Y0122618D03*
X0500984Y0112618D03*
X0510984Y0132618D03*
X0510984Y0122618D03*
X0510984Y0112618D03*
X0520984Y0132618D03*
X0520984Y0122618D03*
X0520984Y0112618D03*
X0463583Y0195728D03*
X0463583Y0185728D03*
X0463583Y0175728D03*
X0473583Y0195728D03*
X0473583Y0185728D03*
X0473583Y0175728D03*
X0483583Y0195728D03*
X0483583Y0185728D03*
X0483583Y0175728D03*
D34*
X0323925Y0220874D03*
X0320480Y0222941D03*
X0325106Y0225894D03*
X0324811Y0239870D03*
X0333222Y0358248D03*
X0334895Y0365472D03*
X0337061Y0357402D03*
X0340505Y0358248D03*
X0343852Y0358543D03*
X0345131Y0365472D03*
X0350249Y0360315D03*
X0352809Y0365472D03*
X0324561Y0342146D03*
X0325742Y0358189D03*
D13*
X0585984Y0132303D03*
X0585984Y0122303D03*
X0585984Y0112303D03*
X0595984Y0132303D03*
X0595984Y0122303D03*
X0595984Y0112303D03*
X0605984Y0132303D03*
X0605984Y0122303D03*
X0605984Y0112303D03*
X0519803Y0245689D03*
X0509803Y0245689D03*
X0499803Y0245689D03*
X0519803Y0235689D03*
X0509803Y0235689D03*
X0499803Y0235689D03*
X0519803Y0225689D03*
X0509803Y0225689D03*
X0499803Y0225689D03*
X0500039Y0196083D03*
X0500039Y0186083D03*
X0500039Y0176083D03*
X0510039Y0196083D03*
X0510039Y0186083D03*
X0510039Y0176083D03*
X0520039Y0196083D03*
X0520039Y0186083D03*
X0520039Y0176083D03*
X0464134Y0302382D03*
X0464134Y0292382D03*
X0464134Y0282382D03*
X0474134Y0302382D03*
X0474134Y0292382D03*
X0474134Y0282382D03*
X0484134Y0302382D03*
X0484134Y0292382D03*
X0484134Y0282382D03*
G36*
G01*
X0530374Y0137992D02*
X0541594Y0137992D01*
G75*
G02*
X0542579Y0137008I0000000J-000984D01*
G01*
X0542579Y0134154D01*
G75*
G02*
X0541594Y0133169I-000984J0000000D01*
G01*
X0530374Y0133169D01*
G75*
G02*
X0529390Y0134154I0000000J0000984D01*
G01*
X0529390Y0137008D01*
G75*
G02*
X0530374Y0137992I0000984J0000000D01*
G01*
G37*
G36*
G01*
X0530374Y0114665D02*
X0541594Y0114665D01*
G75*
G02*
X0542579Y0113681I0000000J-000984D01*
G01*
X0542579Y0110827D01*
G75*
G02*
X0541594Y0109843I-000984J0000000D01*
G01*
X0530374Y0109843D01*
G75*
G02*
X0529390Y0110827I0000000J0000984D01*
G01*
X0529390Y0113681D01*
G75*
G02*
X0530374Y0114665I0000984J0000000D01*
G01*
G37*
G36*
G01*
X0598819Y0312539D02*
X0598819Y0309469D01*
G75*
G02*
X0598543Y0309193I-000276J0000000D01*
G01*
X0596339Y0309193D01*
G75*
G02*
X0596063Y0309469I0000000J0000276D01*
G01*
X0596063Y0312539D01*
G75*
G02*
X0596339Y0312815I0000276J0000000D01*
G01*
X0598543Y0312815D01*
G75*
G02*
X0598819Y0312539I0000000J-000276D01*
G01*
G37*
G36*
G01*
X0592520Y0312539D02*
X0592520Y0309469D01*
G75*
G02*
X0592244Y0309193I-000276J0000000D01*
G01*
X0590039Y0309193D01*
G75*
G02*
X0589764Y0309469I0000000J0000276D01*
G01*
X0589764Y0312539D01*
G75*
G02*
X0590039Y0312815I0000276J0000000D01*
G01*
X0592244Y0312815D01*
G75*
G02*
X0592520Y0312539I0000000J-000276D01*
G01*
G37*
G36*
G01*
X0528839Y0250984D02*
X0540059Y0250984D01*
G75*
G02*
X0541043Y0250000I0000000J-000984D01*
G01*
X0541043Y0247146D01*
G75*
G02*
X0540059Y0246161I-000984J0000000D01*
G01*
X0528839Y0246161D01*
G75*
G02*
X0527854Y0247146I0000000J0000984D01*
G01*
X0527854Y0250000D01*
G75*
G02*
X0528839Y0250984I0000984J0000000D01*
G01*
G37*
G36*
G01*
X0528839Y0227657D02*
X0540059Y0227657D01*
G75*
G02*
X0541043Y0226673I0000000J-000984D01*
G01*
X0541043Y0223819D01*
G75*
G02*
X0540059Y0222835I-000984J0000000D01*
G01*
X0528839Y0222835D01*
G75*
G02*
X0527854Y0223819I0000000J0000984D01*
G01*
X0527854Y0226673D01*
G75*
G02*
X0528839Y0227657I0000984J0000000D01*
G01*
G37*
G36*
G01*
X0600362Y0149110D02*
X0600362Y0146039D01*
G75*
G02*
X0600087Y0145764I-000276J0000000D01*
G01*
X0597882Y0145764D01*
G75*
G02*
X0597606Y0146039I0000000J0000276D01*
G01*
X0597606Y0149110D01*
G75*
G02*
X0597882Y0149386I0000276J0000000D01*
G01*
X0600087Y0149386D01*
G75*
G02*
X0600362Y0149110I0000000J-000276D01*
G01*
G37*
G36*
G01*
X0594063Y0149110D02*
X0594063Y0146039D01*
G75*
G02*
X0593787Y0145764I-000276J0000000D01*
G01*
X0591583Y0145764D01*
G75*
G02*
X0591307Y0146039I0000000J0000276D01*
G01*
X0591307Y0149110D01*
G75*
G02*
X0591583Y0149386I0000276J0000000D01*
G01*
X0593787Y0149386D01*
G75*
G02*
X0594063Y0149110I0000000J-000276D01*
G01*
G37*
G36*
G01*
X0477283Y0264154D02*
X0477283Y0261083D01*
G75*
G02*
X0477008Y0260807I-000276J0000000D01*
G01*
X0474803Y0260807D01*
G75*
G02*
X0474528Y0261083I0000000J0000276D01*
G01*
X0474528Y0264154D01*
G75*
G02*
X0474803Y0264429I0000276J0000000D01*
G01*
X0477008Y0264429D01*
G75*
G02*
X0477283Y0264154I0000000J-000276D01*
G01*
G37*
G36*
G01*
X0470984Y0264154D02*
X0470984Y0261083D01*
G75*
G02*
X0470709Y0260807I-000276J0000000D01*
G01*
X0468504Y0260807D01*
G75*
G02*
X0468228Y0261083I0000000J0000276D01*
G01*
X0468228Y0264154D01*
G75*
G02*
X0468504Y0264429I0000276J0000000D01*
G01*
X0470709Y0264429D01*
G75*
G02*
X0470984Y0264154I0000000J-000276D01*
G01*
G37*
G36*
G01*
X0590256Y0320389D02*
X0590256Y0322406D01*
G75*
G02*
X0591117Y0323268I0000861J0000000D01*
G01*
X0592840Y0323268D01*
G75*
G02*
X0593701Y0322406I0000000J-000861D01*
G01*
X0593701Y0320389D01*
G75*
G02*
X0592840Y0319528I-000861J0000000D01*
G01*
X0591117Y0319528D01*
G75*
G02*
X0590256Y0320389I0000000J0000861D01*
G01*
G37*
G36*
G01*
X0596457Y0320389D02*
X0596457Y0322406D01*
G75*
G02*
X0597318Y0323268I0000861J0000000D01*
G01*
X0599040Y0323268D01*
G75*
G02*
X0599902Y0322406I0000000J-000861D01*
G01*
X0599902Y0320389D01*
G75*
G02*
X0599040Y0319528I-000861J0000000D01*
G01*
X0597318Y0319528D01*
G75*
G02*
X0596457Y0320389I0000000J0000861D01*
G01*
G37*
G36*
G01*
X0477992Y0214902D02*
X0477992Y0211831D01*
G75*
G02*
X0477717Y0211555I-000276J0000000D01*
G01*
X0475512Y0211555D01*
G75*
G02*
X0475236Y0211831I0000000J0000276D01*
G01*
X0475236Y0214902D01*
G75*
G02*
X0475512Y0215177I0000276J0000000D01*
G01*
X0477717Y0215177D01*
G75*
G02*
X0477992Y0214902I0000000J-000276D01*
G01*
G37*
G36*
G01*
X0471693Y0214902D02*
X0471693Y0211831D01*
G75*
G02*
X0471417Y0211555I-000276J0000000D01*
G01*
X0469213Y0211555D01*
G75*
G02*
X0468937Y0211831I0000000J0000276D01*
G01*
X0468937Y0214902D01*
G75*
G02*
X0469213Y0215177I0000276J0000000D01*
G01*
X0471417Y0215177D01*
G75*
G02*
X0471693Y0214902I0000000J-000276D01*
G01*
G37*
G36*
G01*
X0505551Y0150025D02*
X0505551Y0152042D01*
G75*
G02*
X0506412Y0152904I0000861J0000000D01*
G01*
X0508135Y0152904D01*
G75*
G02*
X0508996Y0152042I0000000J-000861D01*
G01*
X0508996Y0150025D01*
G75*
G02*
X0508135Y0149163I-000861J0000000D01*
G01*
X0506412Y0149163D01*
G75*
G02*
X0505551Y0150025I0000000J0000861D01*
G01*
G37*
G36*
G01*
X0511752Y0150025D02*
X0511752Y0152042D01*
G75*
G02*
X0512613Y0152904I0000861J0000000D01*
G01*
X0514336Y0152904D01*
G75*
G02*
X0515197Y0152042I0000000J-000861D01*
G01*
X0515197Y0150025D01*
G75*
G02*
X0514336Y0149163I-000861J0000000D01*
G01*
X0512613Y0149163D01*
G75*
G02*
X0511752Y0150025I0000000J0000861D01*
G01*
G37*
G36*
G01*
X0600797Y0205915D02*
X0600797Y0202844D01*
G75*
G02*
X0600522Y0202569I-000276J0000000D01*
G01*
X0598317Y0202569D01*
G75*
G02*
X0598041Y0202844I0000000J0000276D01*
G01*
X0598041Y0205915D01*
G75*
G02*
X0598317Y0206191I0000276J0000000D01*
G01*
X0600522Y0206191D01*
G75*
G02*
X0600797Y0205915I0000000J-000276D01*
G01*
G37*
G36*
G01*
X0594498Y0205915D02*
X0594498Y0202844D01*
G75*
G02*
X0594222Y0202569I-000276J0000000D01*
G01*
X0592018Y0202569D01*
G75*
G02*
X0591742Y0202844I0000000J0000276D01*
G01*
X0591742Y0205915D01*
G75*
G02*
X0592018Y0206191I0000276J0000000D01*
G01*
X0594222Y0206191D01*
G75*
G02*
X0594498Y0205915I0000000J-000276D01*
G01*
G37*
G36*
G01*
X0038905Y0106425D02*
X0036228Y0106425D01*
G75*
G02*
X0035894Y0106760I0000000J0000335D01*
G01*
X0035894Y0109437D01*
G75*
G02*
X0036228Y0109772I0000335J0000000D01*
G01*
X0038905Y0109772D01*
G75*
G02*
X0039240Y0109437I0000000J-000335D01*
G01*
X0039240Y0106760D01*
G75*
G02*
X0038905Y0106425I-000335J0000000D01*
G01*
G37*
G36*
G01*
X0038905Y0112646D02*
X0036228Y0112646D01*
G75*
G02*
X0035894Y0112980I0000000J0000335D01*
G01*
X0035894Y0115657D01*
G75*
G02*
X0036228Y0115992I0000335J0000000D01*
G01*
X0038905Y0115992D01*
G75*
G02*
X0039240Y0115657I0000000J-000335D01*
G01*
X0039240Y0112980D01*
G75*
G02*
X0038905Y0112646I-000335J0000000D01*
G01*
G37*
G36*
G01*
X0045264Y0266154D02*
X0045264Y0271075D01*
G75*
G02*
X0045657Y0271469I0000394J0000000D01*
G01*
X0048807Y0271469D01*
G75*
G02*
X0049201Y0271075I0000000J-000394D01*
G01*
X0049201Y0266154D01*
G75*
G02*
X0048807Y0265760I-000394J0000000D01*
G01*
X0045657Y0265760D01*
G75*
G02*
X0045264Y0266154I0000000J0000394D01*
G01*
G37*
G36*
G01*
X0052744Y0266154D02*
X0052744Y0271075D01*
G75*
G02*
X0053138Y0271469I0000394J0000000D01*
G01*
X0056287Y0271469D01*
G75*
G02*
X0056681Y0271075I0000000J-000394D01*
G01*
X0056681Y0266154D01*
G75*
G02*
X0056287Y0265760I-000394J0000000D01*
G01*
X0053138Y0265760D01*
G75*
G02*
X0052744Y0266154I0000000J0000394D01*
G01*
G37*
G36*
G01*
X0061169Y0119094D02*
X0058492Y0119094D01*
G75*
G02*
X0058157Y0119429I0000000J0000335D01*
G01*
X0058157Y0122106D01*
G75*
G02*
X0058492Y0122441I0000335J0000000D01*
G01*
X0061169Y0122441D01*
G75*
G02*
X0061504Y0122106I0000000J-000335D01*
G01*
X0061504Y0119429D01*
G75*
G02*
X0061169Y0119094I-000335J0000000D01*
G01*
G37*
G36*
G01*
X0061169Y0125315D02*
X0058492Y0125315D01*
G75*
G02*
X0058157Y0125650I0000000J0000335D01*
G01*
X0058157Y0128327D01*
G75*
G02*
X0058492Y0128661I0000335J0000000D01*
G01*
X0061169Y0128661D01*
G75*
G02*
X0061504Y0128327I0000000J-000335D01*
G01*
X0061504Y0125650D01*
G75*
G02*
X0061169Y0125315I-000335J0000000D01*
G01*
G37*
G36*
G01*
X0387165Y0153012D02*
X0387165Y0149941D01*
G75*
G02*
X0386890Y0149665I-000276J0000000D01*
G01*
X0384685Y0149665D01*
G75*
G02*
X0384409Y0149941I0000000J0000276D01*
G01*
X0384409Y0153012D01*
G75*
G02*
X0384685Y0153287I0000276J0000000D01*
G01*
X0386890Y0153287D01*
G75*
G02*
X0387165Y0153012I0000000J-000276D01*
G01*
G37*
G36*
G01*
X0380866Y0153012D02*
X0380866Y0149941D01*
G75*
G02*
X0380591Y0149665I-000276J0000000D01*
G01*
X0378386Y0149665D01*
G75*
G02*
X0378110Y0149941I0000000J0000276D01*
G01*
X0378110Y0153012D01*
G75*
G02*
X0378386Y0153287I0000276J0000000D01*
G01*
X0380591Y0153287D01*
G75*
G02*
X0380866Y0153012I0000000J-000276D01*
G01*
G37*
G36*
G01*
X0045587Y0254138D02*
X0045587Y0259059D01*
G75*
G02*
X0045980Y0259453I0000394J0000000D01*
G01*
X0049130Y0259453D01*
G75*
G02*
X0049524Y0259059I0000000J-000394D01*
G01*
X0049524Y0254138D01*
G75*
G02*
X0049130Y0253744I-000394J0000000D01*
G01*
X0045980Y0253744D01*
G75*
G02*
X0045587Y0254138I0000000J0000394D01*
G01*
G37*
G36*
G01*
X0053067Y0254138D02*
X0053067Y0259059D01*
G75*
G02*
X0053461Y0259453I0000394J0000000D01*
G01*
X0056610Y0259453D01*
G75*
G02*
X0057004Y0259059I0000000J-000394D01*
G01*
X0057004Y0254138D01*
G75*
G02*
X0056610Y0253744I-000394J0000000D01*
G01*
X0053461Y0253744D01*
G75*
G02*
X0053067Y0254138I0000000J0000394D01*
G01*
G37*
G36*
G01*
X0281520Y0139579D02*
X0281520Y0142650D01*
G75*
G02*
X0281795Y0142925I0000276J0000000D01*
G01*
X0284000Y0142925D01*
G75*
G02*
X0284276Y0142650I0000000J-000276D01*
G01*
X0284276Y0139579D01*
G75*
G02*
X0284000Y0139303I-000276J0000000D01*
G01*
X0281795Y0139303D01*
G75*
G02*
X0281520Y0139579I0000000J0000276D01*
G01*
G37*
G36*
G01*
X0287819Y0139579D02*
X0287819Y0142650D01*
G75*
G02*
X0288094Y0142925I0000276J0000000D01*
G01*
X0290299Y0142925D01*
G75*
G02*
X0290575Y0142650I0000000J-000276D01*
G01*
X0290575Y0139579D01*
G75*
G02*
X0290299Y0139303I-000276J0000000D01*
G01*
X0288094Y0139303D01*
G75*
G02*
X0287819Y0139579I0000000J0000276D01*
G01*
G37*
G36*
G01*
X0513740Y0258012D02*
X0513740Y0254941D01*
G75*
G02*
X0513465Y0254665I-000276J0000000D01*
G01*
X0511260Y0254665D01*
G75*
G02*
X0510984Y0254941I0000000J0000276D01*
G01*
X0510984Y0258012D01*
G75*
G02*
X0511260Y0258287I0000276J0000000D01*
G01*
X0513465Y0258287D01*
G75*
G02*
X0513740Y0258012I0000000J-000276D01*
G01*
G37*
G36*
G01*
X0507441Y0258012D02*
X0507441Y0254941D01*
G75*
G02*
X0507165Y0254665I-000276J0000000D01*
G01*
X0504961Y0254665D01*
G75*
G02*
X0504685Y0254941I0000000J0000276D01*
G01*
X0504685Y0258012D01*
G75*
G02*
X0504961Y0258287I0000276J0000000D01*
G01*
X0507165Y0258287D01*
G75*
G02*
X0507441Y0258012I0000000J-000276D01*
G01*
G37*
G36*
G01*
X0514449Y0207953D02*
X0514449Y0204882D01*
G75*
G02*
X0514173Y0204606I-000276J0000000D01*
G01*
X0511969Y0204606D01*
G75*
G02*
X0511693Y0204882I0000000J0000276D01*
G01*
X0511693Y0207953D01*
G75*
G02*
X0511969Y0208228I0000276J0000000D01*
G01*
X0514173Y0208228D01*
G75*
G02*
X0514449Y0207953I0000000J-000276D01*
G01*
G37*
G36*
G01*
X0508150Y0207953D02*
X0508150Y0204882D01*
G75*
G02*
X0507874Y0204606I-000276J0000000D01*
G01*
X0505669Y0204606D01*
G75*
G02*
X0505394Y0204882I0000000J0000276D01*
G01*
X0505394Y0207953D01*
G75*
G02*
X0505669Y0208228I0000276J0000000D01*
G01*
X0507874Y0208228D01*
G75*
G02*
X0508150Y0207953I0000000J-000276D01*
G01*
G37*
G36*
G01*
X0515866Y0312106D02*
X0515866Y0309035D01*
G75*
G02*
X0515591Y0308760I-000276J0000000D01*
G01*
X0513386Y0308760D01*
G75*
G02*
X0513110Y0309035I0000000J0000276D01*
G01*
X0513110Y0312106D01*
G75*
G02*
X0513386Y0312382I0000276J0000000D01*
G01*
X0515591Y0312382D01*
G75*
G02*
X0515866Y0312106I0000000J-000276D01*
G01*
G37*
G36*
G01*
X0509567Y0312106D02*
X0509567Y0309035D01*
G75*
G02*
X0509291Y0308760I-000276J0000000D01*
G01*
X0507087Y0308760D01*
G75*
G02*
X0506811Y0309035I0000000J0000276D01*
G01*
X0506811Y0312106D01*
G75*
G02*
X0507087Y0312382I0000276J0000000D01*
G01*
X0509291Y0312382D01*
G75*
G02*
X0509567Y0312106I0000000J-000276D01*
G01*
G37*
G36*
G01*
X0058646Y0139732D02*
X0061323Y0139732D01*
G75*
G02*
X0061657Y0139398I0000000J-000335D01*
G01*
X0061657Y0136720D01*
G75*
G02*
X0061323Y0136386I-000335J0000000D01*
G01*
X0058646Y0136386D01*
G75*
G02*
X0058311Y0136720I0000000J0000335D01*
G01*
X0058311Y0139398D01*
G75*
G02*
X0058646Y0139732I0000335J0000000D01*
G01*
G37*
G36*
G01*
X0058646Y0133512D02*
X0061323Y0133512D01*
G75*
G02*
X0061657Y0133177I0000000J-000335D01*
G01*
X0061657Y0130500D01*
G75*
G02*
X0061323Y0130165I-000335J0000000D01*
G01*
X0058646Y0130165D01*
G75*
G02*
X0058311Y0130500I0000000J0000335D01*
G01*
X0058311Y0133177D01*
G75*
G02*
X0058646Y0133512I0000335J0000000D01*
G01*
G37*
G36*
G01*
X0281386Y0145575D02*
X0281386Y0148646D01*
G75*
G02*
X0281661Y0148921I0000276J0000000D01*
G01*
X0283866Y0148921D01*
G75*
G02*
X0284142Y0148646I0000000J-000276D01*
G01*
X0284142Y0145575D01*
G75*
G02*
X0283866Y0145299I-000276J0000000D01*
G01*
X0281661Y0145299D01*
G75*
G02*
X0281386Y0145575I0000000J0000276D01*
G01*
G37*
G36*
G01*
X0287685Y0145575D02*
X0287685Y0148646D01*
G75*
G02*
X0287961Y0148921I0000276J0000000D01*
G01*
X0290165Y0148921D01*
G75*
G02*
X0290441Y0148646I0000000J-000276D01*
G01*
X0290441Y0145575D01*
G75*
G02*
X0290165Y0145299I-000276J0000000D01*
G01*
X0287961Y0145299D01*
G75*
G02*
X0287685Y0145575I0000000J0000276D01*
G01*
G37*
G36*
G01*
X0385079Y0320886D02*
X0385079Y0317815D01*
G75*
G02*
X0384803Y0317539I-000276J0000000D01*
G01*
X0382598Y0317539D01*
G75*
G02*
X0382323Y0317815I0000000J0000276D01*
G01*
X0382323Y0320886D01*
G75*
G02*
X0382598Y0321161I0000276J0000000D01*
G01*
X0384803Y0321161D01*
G75*
G02*
X0385079Y0320886I0000000J-000276D01*
G01*
G37*
G36*
G01*
X0378780Y0320886D02*
X0378780Y0317815D01*
G75*
G02*
X0378504Y0317539I-000276J0000000D01*
G01*
X0376299Y0317539D01*
G75*
G02*
X0376024Y0317815I0000000J0000276D01*
G01*
X0376024Y0320886D01*
G75*
G02*
X0376299Y0321161I0000276J0000000D01*
G01*
X0378504Y0321161D01*
G75*
G02*
X0378780Y0320886I0000000J-000276D01*
G01*
G37*
G36*
G01*
X0037343Y0347154D02*
X0037343Y0350225D01*
G75*
G02*
X0037618Y0350500I0000276J0000000D01*
G01*
X0039823Y0350500D01*
G75*
G02*
X0040098Y0350225I0000000J-000276D01*
G01*
X0040098Y0347154D01*
G75*
G02*
X0039823Y0346878I-000276J0000000D01*
G01*
X0037618Y0346878D01*
G75*
G02*
X0037343Y0347154I0000000J0000276D01*
G01*
G37*
G36*
G01*
X0043642Y0347154D02*
X0043642Y0350225D01*
G75*
G02*
X0043917Y0350500I0000276J0000000D01*
G01*
X0046122Y0350500D01*
G75*
G02*
X0046398Y0350225I0000000J-000276D01*
G01*
X0046398Y0347154D01*
G75*
G02*
X0046122Y0346878I-000276J0000000D01*
G01*
X0043917Y0346878D01*
G75*
G02*
X0043642Y0347154I0000000J0000276D01*
G01*
G37*
G36*
G01*
X0528248Y0200236D02*
X0539469Y0200236D01*
G75*
G02*
X0540453Y0199252I0000000J-000984D01*
G01*
X0540453Y0196398D01*
G75*
G02*
X0539469Y0195413I-000984J0000000D01*
G01*
X0528248Y0195413D01*
G75*
G02*
X0527264Y0196398I0000000J0000984D01*
G01*
X0527264Y0199252D01*
G75*
G02*
X0528248Y0200236I0000984J0000000D01*
G01*
G37*
G36*
G01*
X0528248Y0176909D02*
X0539469Y0176909D01*
G75*
G02*
X0540453Y0175925I0000000J-000984D01*
G01*
X0540453Y0173071D01*
G75*
G02*
X0539469Y0172087I-000984J0000000D01*
G01*
X0528248Y0172087D01*
G75*
G02*
X0527264Y0173071I0000000J0000984D01*
G01*
X0527264Y0175925D01*
G75*
G02*
X0528248Y0176909I0000984J0000000D01*
G01*
G37*
G36*
G01*
X0031039Y0254051D02*
X0031039Y0258972D01*
G75*
G02*
X0031433Y0259366I0000394J0000000D01*
G01*
X0034583Y0259366D01*
G75*
G02*
X0034976Y0258972I0000000J-000394D01*
G01*
X0034976Y0254051D01*
G75*
G02*
X0034583Y0253657I-000394J0000000D01*
G01*
X0031433Y0253657D01*
G75*
G02*
X0031039Y0254051I0000000J0000394D01*
G01*
G37*
G36*
G01*
X0038520Y0254051D02*
X0038520Y0258972D01*
G75*
G02*
X0038914Y0259366I0000394J0000000D01*
G01*
X0042063Y0259366D01*
G75*
G02*
X0042457Y0258972I0000000J-000394D01*
G01*
X0042457Y0254051D01*
G75*
G02*
X0042063Y0253657I-000394J0000000D01*
G01*
X0038914Y0253657D01*
G75*
G02*
X0038520Y0254051I0000000J0000394D01*
G01*
G37*
G36*
G01*
X0388110Y0213917D02*
X0388110Y0210846D01*
G75*
G02*
X0387835Y0210571I-000276J0000000D01*
G01*
X0385630Y0210571D01*
G75*
G02*
X0385354Y0210846I0000000J0000276D01*
G01*
X0385354Y0213917D01*
G75*
G02*
X0385630Y0214193I0000276J0000000D01*
G01*
X0387835Y0214193D01*
G75*
G02*
X0388110Y0213917I0000000J-000276D01*
G01*
G37*
G36*
G01*
X0381811Y0213917D02*
X0381811Y0210846D01*
G75*
G02*
X0381535Y0210571I-000276J0000000D01*
G01*
X0379331Y0210571D01*
G75*
G02*
X0379055Y0210846I0000000J0000276D01*
G01*
X0379055Y0213917D01*
G75*
G02*
X0379331Y0214193I0000276J0000000D01*
G01*
X0381535Y0214193D01*
G75*
G02*
X0381811Y0213917I0000000J-000276D01*
G01*
G37*
G36*
G01*
X0101583Y0336051D02*
X0101583Y0332035D01*
G75*
G02*
X0101228Y0331681I-000354J0000000D01*
G01*
X0098394Y0331681D01*
G75*
G02*
X0098039Y0332035I0000000J0000354D01*
G01*
X0098039Y0336051D01*
G75*
G02*
X0098394Y0336406I0000354J0000000D01*
G01*
X0101228Y0336406D01*
G75*
G02*
X0101583Y0336051I0000000J-000354D01*
G01*
G37*
G36*
G01*
X0088591Y0336051D02*
X0088591Y0332035D01*
G75*
G02*
X0088236Y0331681I-000354J0000000D01*
G01*
X0085402Y0331681D01*
G75*
G02*
X0085047Y0332035I0000000J0000354D01*
G01*
X0085047Y0336051D01*
G75*
G02*
X0085402Y0336406I0000354J0000000D01*
G01*
X0088236Y0336406D01*
G75*
G02*
X0088591Y0336051I0000000J-000354D01*
G01*
G37*
G36*
G01*
X0506949Y0317436D02*
X0506949Y0319454D01*
G75*
G02*
X0507810Y0320315I0000861J0000000D01*
G01*
X0509532Y0320315D01*
G75*
G02*
X0510394Y0319454I0000000J-000861D01*
G01*
X0510394Y0317436D01*
G75*
G02*
X0509532Y0316575I-000861J0000000D01*
G01*
X0507810Y0316575D01*
G75*
G02*
X0506949Y0317436I0000000J0000861D01*
G01*
G37*
G36*
G01*
X0513150Y0317436D02*
X0513150Y0319454D01*
G75*
G02*
X0514011Y0320315I0000861J0000000D01*
G01*
X0515733Y0320315D01*
G75*
G02*
X0516594Y0319454I0000000J-000861D01*
G01*
X0516594Y0317436D01*
G75*
G02*
X0515733Y0316575I-000861J0000000D01*
G01*
X0514011Y0316575D01*
G75*
G02*
X0513150Y0317436I0000000J0000861D01*
G01*
G37*
G36*
G01*
X0031224Y0266272D02*
X0031224Y0271193D01*
G75*
G02*
X0031618Y0271587I0000394J0000000D01*
G01*
X0034768Y0271587D01*
G75*
G02*
X0035161Y0271193I0000000J-000394D01*
G01*
X0035161Y0266272D01*
G75*
G02*
X0034768Y0265878I-000394J0000000D01*
G01*
X0031618Y0265878D01*
G75*
G02*
X0031224Y0266272I0000000J0000394D01*
G01*
G37*
G36*
G01*
X0038705Y0266272D02*
X0038705Y0271193D01*
G75*
G02*
X0039099Y0271587I0000394J0000000D01*
G01*
X0042248Y0271587D01*
G75*
G02*
X0042642Y0271193I0000000J-000394D01*
G01*
X0042642Y0266272D01*
G75*
G02*
X0042248Y0265878I-000394J0000000D01*
G01*
X0039099Y0265878D01*
G75*
G02*
X0038705Y0266272I0000000J0000394D01*
G01*
G37*
G36*
G01*
X0529252Y0303445D02*
X0540472Y0303445D01*
G75*
G02*
X0541457Y0302461I0000000J-000984D01*
G01*
X0541457Y0299606D01*
G75*
G02*
X0540472Y0298622I-000984J0000000D01*
G01*
X0529252Y0298622D01*
G75*
G02*
X0528268Y0299606I0000000J0000984D01*
G01*
X0528268Y0302461D01*
G75*
G02*
X0529252Y0303445I0000984J0000000D01*
G01*
G37*
G36*
G01*
X0529252Y0280118D02*
X0540472Y0280118D01*
G75*
G02*
X0541457Y0279134I0000000J-000984D01*
G01*
X0541457Y0276280D01*
G75*
G02*
X0540472Y0275295I-000984J0000000D01*
G01*
X0529252Y0275295D01*
G75*
G02*
X0528268Y0276280I0000000J0000984D01*
G01*
X0528268Y0279134D01*
G75*
G02*
X0529252Y0280118I0000984J0000000D01*
G01*
G37*
G36*
G01*
X0069631Y0097134D02*
X0067613Y0097134D01*
G75*
G02*
X0066752Y0097995I0000000J0000861D01*
G01*
X0066752Y0099718D01*
G75*
G02*
X0067613Y0100579I0000861J0000000D01*
G01*
X0069631Y0100579D01*
G75*
G02*
X0070492Y0099718I0000000J-000861D01*
G01*
X0070492Y0097995D01*
G75*
G02*
X0069631Y0097134I-000861J0000000D01*
G01*
G37*
G36*
G01*
X0069631Y0103335D02*
X0067613Y0103335D01*
G75*
G02*
X0066752Y0104196I0000000J0000861D01*
G01*
X0066752Y0105918D01*
G75*
G02*
X0067613Y0106780I0000861J0000000D01*
G01*
X0069631Y0106780D01*
G75*
G02*
X0070492Y0105918I0000000J-000861D01*
G01*
X0070492Y0104196D01*
G75*
G02*
X0069631Y0103335I-000861J0000000D01*
G01*
G37*
G36*
G01*
X0565965Y0304173D02*
X0577185Y0304173D01*
G75*
G02*
X0578169Y0303189I0000000J-000984D01*
G01*
X0578169Y0300335D01*
G75*
G02*
X0577185Y0299350I-000984J0000000D01*
G01*
X0565965Y0299350D01*
G75*
G02*
X0564980Y0300335I0000000J0000984D01*
G01*
X0564980Y0303189D01*
G75*
G02*
X0565965Y0304173I0000984J0000000D01*
G01*
G37*
G36*
G01*
X0565965Y0280846D02*
X0577185Y0280846D01*
G75*
G02*
X0578169Y0279862I0000000J-000984D01*
G01*
X0578169Y0277008D01*
G75*
G02*
X0577185Y0276024I-000984J0000000D01*
G01*
X0565965Y0276024D01*
G75*
G02*
X0564980Y0277008I0000000J0000984D01*
G01*
X0564980Y0279862D01*
G75*
G02*
X0565965Y0280846I0000984J0000000D01*
G01*
G37*
G36*
G01*
X0063232Y0133866D02*
X0065909Y0133866D01*
G75*
G02*
X0066244Y0133532I0000000J-000335D01*
G01*
X0066244Y0130854D01*
G75*
G02*
X0065909Y0130520I-000335J0000000D01*
G01*
X0063232Y0130520D01*
G75*
G02*
X0062898Y0130854I0000000J0000335D01*
G01*
X0062898Y0133532D01*
G75*
G02*
X0063232Y0133866I0000335J0000000D01*
G01*
G37*
G36*
G01*
X0063232Y0127646D02*
X0065909Y0127646D01*
G75*
G02*
X0066244Y0127311I0000000J-000335D01*
G01*
X0066244Y0124634D01*
G75*
G02*
X0065909Y0124299I-000335J0000000D01*
G01*
X0063232Y0124299D01*
G75*
G02*
X0062898Y0124634I0000000J0000335D01*
G01*
X0062898Y0127311D01*
G75*
G02*
X0063232Y0127646I0000335J0000000D01*
G01*
G37*
G36*
G01*
X0346094Y0133669D02*
X0346094Y0129654D01*
G75*
G02*
X0345740Y0129299I-000354J0000000D01*
G01*
X0342906Y0129299D01*
G75*
G02*
X0342551Y0129654I0000000J0000354D01*
G01*
X0342551Y0133669D01*
G75*
G02*
X0342906Y0134024I0000354J0000000D01*
G01*
X0345740Y0134024D01*
G75*
G02*
X0346094Y0133669I0000000J-000354D01*
G01*
G37*
G36*
G01*
X0333102Y0133669D02*
X0333102Y0129654D01*
G75*
G02*
X0332748Y0129299I-000354J0000000D01*
G01*
X0329913Y0129299D01*
G75*
G02*
X0329559Y0129654I0000000J0000354D01*
G01*
X0329559Y0133669D01*
G75*
G02*
X0329913Y0134024I0000354J0000000D01*
G01*
X0332748Y0134024D01*
G75*
G02*
X0333102Y0133669I0000000J-000354D01*
G01*
G37*
G36*
G01*
X0101583Y0344559D02*
X0101583Y0340543D01*
G75*
G02*
X0101228Y0340189I-000354J0000000D01*
G01*
X0098394Y0340189D01*
G75*
G02*
X0098039Y0340543I0000000J0000354D01*
G01*
X0098039Y0344559D01*
G75*
G02*
X0098394Y0344913I0000354J0000000D01*
G01*
X0101228Y0344913D01*
G75*
G02*
X0101583Y0344559I0000000J-000354D01*
G01*
G37*
G36*
G01*
X0088591Y0344559D02*
X0088591Y0340543D01*
G75*
G02*
X0088236Y0340189I-000354J0000000D01*
G01*
X0085402Y0340189D01*
G75*
G02*
X0085047Y0340543I0000000J0000354D01*
G01*
X0085047Y0344559D01*
G75*
G02*
X0085402Y0344913I0000354J0000000D01*
G01*
X0088236Y0344913D01*
G75*
G02*
X0088591Y0344559I0000000J-000354D01*
G01*
G37*
G36*
G01*
X0037169Y0336213D02*
X0037169Y0339284D01*
G75*
G02*
X0037445Y0339559I0000276J0000000D01*
G01*
X0039650Y0339559D01*
G75*
G02*
X0039925Y0339284I0000000J-000276D01*
G01*
X0039925Y0336213D01*
G75*
G02*
X0039650Y0335937I-000276J0000000D01*
G01*
X0037445Y0335937D01*
G75*
G02*
X0037169Y0336213I0000000J0000276D01*
G01*
G37*
G36*
G01*
X0043469Y0336213D02*
X0043469Y0339284D01*
G75*
G02*
X0043744Y0339559I0000276J0000000D01*
G01*
X0045949Y0339559D01*
G75*
G02*
X0046224Y0339284I0000000J-000276D01*
G01*
X0046224Y0336213D01*
G75*
G02*
X0045949Y0335937I-000276J0000000D01*
G01*
X0043744Y0335937D01*
G75*
G02*
X0043469Y0336213I0000000J0000276D01*
G01*
G37*
G36*
G01*
X0069102Y0108953D02*
X0067921Y0108953D01*
G75*
G02*
X0067331Y0109543I0000000J0000591D01*
G01*
X0067331Y0114169D01*
G75*
G02*
X0067921Y0114760I0000591J0000000D01*
G01*
X0069102Y0114760D01*
G75*
G02*
X0069693Y0114169I0000000J-000591D01*
G01*
X0069693Y0109543D01*
G75*
G02*
X0069102Y0108953I-000591J0000000D01*
G01*
G37*
G36*
G01*
X0061622Y0108953D02*
X0060441Y0108953D01*
G75*
G02*
X0059850Y0109543I0000000J0000591D01*
G01*
X0059850Y0114169D01*
G75*
G02*
X0060441Y0114760I0000591J0000000D01*
G01*
X0061622Y0114760D01*
G75*
G02*
X0062213Y0114169I0000000J-000591D01*
G01*
X0062213Y0109543D01*
G75*
G02*
X0061622Y0108953I-000591J0000000D01*
G01*
G37*
G36*
G01*
X0065362Y0116335D02*
X0064181Y0116335D01*
G75*
G02*
X0063591Y0116925I0000000J0000591D01*
G01*
X0063591Y0121551D01*
G75*
G02*
X0064181Y0122142I0000591J0000000D01*
G01*
X0065362Y0122142D01*
G75*
G02*
X0065953Y0121551I0000000J-000591D01*
G01*
X0065953Y0116925D01*
G75*
G02*
X0065362Y0116335I-000591J0000000D01*
G01*
G37*
G36*
G01*
X0590646Y0152688D02*
X0590646Y0154706D01*
G75*
G02*
X0591507Y0155567I0000861J0000000D01*
G01*
X0593229Y0155567D01*
G75*
G02*
X0594091Y0154706I0000000J-000861D01*
G01*
X0594091Y0152688D01*
G75*
G02*
X0593229Y0151827I-000861J0000000D01*
G01*
X0591507Y0151827D01*
G75*
G02*
X0590646Y0152688I0000000J0000861D01*
G01*
G37*
G36*
G01*
X0596846Y0152688D02*
X0596846Y0154706D01*
G75*
G02*
X0597708Y0155567I0000861J0000000D01*
G01*
X0599430Y0155567D01*
G75*
G02*
X0600291Y0154706I0000000J-000861D01*
G01*
X0600291Y0152688D01*
G75*
G02*
X0599430Y0151827I-000861J0000000D01*
G01*
X0597708Y0151827D01*
G75*
G02*
X0596846Y0152688I0000000J0000861D01*
G01*
G37*
G36*
G01*
X0505098Y0213282D02*
X0505098Y0215300D01*
G75*
G02*
X0505960Y0216161I0000861J0000000D01*
G01*
X0507682Y0216161D01*
G75*
G02*
X0508543Y0215300I0000000J-000861D01*
G01*
X0508543Y0213282D01*
G75*
G02*
X0507682Y0212421I-000861J0000000D01*
G01*
X0505960Y0212421D01*
G75*
G02*
X0505098Y0213282I0000000J0000861D01*
G01*
G37*
G36*
G01*
X0511299Y0213282D02*
X0511299Y0215300D01*
G75*
G02*
X0512160Y0216161I0000861J0000000D01*
G01*
X0513883Y0216161D01*
G75*
G02*
X0514744Y0215300I0000000J-000861D01*
G01*
X0514744Y0213282D01*
G75*
G02*
X0513883Y0212421I-000861J0000000D01*
G01*
X0512160Y0212421D01*
G75*
G02*
X0511299Y0213282I0000000J0000861D01*
G01*
G37*
G36*
G01*
X0591388Y0262938D02*
X0591388Y0264956D01*
G75*
G02*
X0592249Y0265817I0000861J0000000D01*
G01*
X0593971Y0265817D01*
G75*
G02*
X0594833Y0264956I0000000J-000861D01*
G01*
X0594833Y0262938D01*
G75*
G02*
X0593971Y0262077I-000861J0000000D01*
G01*
X0592249Y0262077D01*
G75*
G02*
X0591388Y0262938I0000000J0000861D01*
G01*
G37*
G36*
G01*
X0597589Y0262938D02*
X0597589Y0264956D01*
G75*
G02*
X0598450Y0265817I0000861J0000000D01*
G01*
X0600172Y0265817D01*
G75*
G02*
X0601033Y0264956I0000000J-000861D01*
G01*
X0601033Y0262938D01*
G75*
G02*
X0600172Y0262077I-000861J0000000D01*
G01*
X0598450Y0262077D01*
G75*
G02*
X0597589Y0262938I0000000J0000861D01*
G01*
G37*
G36*
G01*
X0384882Y0264665D02*
X0384882Y0261594D01*
G75*
G02*
X0384606Y0261319I-000276J0000000D01*
G01*
X0382402Y0261319D01*
G75*
G02*
X0382126Y0261594I0000000J0000276D01*
G01*
X0382126Y0264665D01*
G75*
G02*
X0382402Y0264941I0000276J0000000D01*
G01*
X0384606Y0264941D01*
G75*
G02*
X0384882Y0264665I0000000J-000276D01*
G01*
G37*
G36*
G01*
X0378583Y0264665D02*
X0378583Y0261594D01*
G75*
G02*
X0378307Y0261319I-000276J0000000D01*
G01*
X0376102Y0261319D01*
G75*
G02*
X0375827Y0261594I0000000J0000276D01*
G01*
X0375827Y0264665D01*
G75*
G02*
X0376102Y0264941I0000276J0000000D01*
G01*
X0378307Y0264941D01*
G75*
G02*
X0378583Y0264665I0000000J-000276D01*
G01*
G37*
G36*
G01*
X0504665Y0262987D02*
X0504665Y0265005D01*
G75*
G02*
X0505527Y0265866I0000861J0000000D01*
G01*
X0507249Y0265866D01*
G75*
G02*
X0508110Y0265005I0000000J-000861D01*
G01*
X0508110Y0262987D01*
G75*
G02*
X0507249Y0262126I-000861J0000000D01*
G01*
X0505527Y0262126D01*
G75*
G02*
X0504665Y0262987I0000000J0000861D01*
G01*
G37*
G36*
G01*
X0510866Y0262987D02*
X0510866Y0265005D01*
G75*
G02*
X0511727Y0265866I0000861J0000000D01*
G01*
X0513450Y0265866D01*
G75*
G02*
X0514311Y0265005I0000000J-000861D01*
G01*
X0514311Y0262987D01*
G75*
G02*
X0513450Y0262126I-000861J0000000D01*
G01*
X0511727Y0262126D01*
G75*
G02*
X0510866Y0262987I0000000J0000861D01*
G01*
G37*
G36*
G01*
X0037110Y0330728D02*
X0037110Y0333799D01*
G75*
G02*
X0037386Y0334075I0000276J0000000D01*
G01*
X0039591Y0334075D01*
G75*
G02*
X0039866Y0333799I0000000J-000276D01*
G01*
X0039866Y0330728D01*
G75*
G02*
X0039591Y0330453I-000276J0000000D01*
G01*
X0037386Y0330453D01*
G75*
G02*
X0037110Y0330728I0000000J0000276D01*
G01*
G37*
G36*
G01*
X0043409Y0330728D02*
X0043409Y0333799D01*
G75*
G02*
X0043685Y0334075I0000276J0000000D01*
G01*
X0045890Y0334075D01*
G75*
G02*
X0046165Y0333799I0000000J-000276D01*
G01*
X0046165Y0330728D01*
G75*
G02*
X0045890Y0330453I-000276J0000000D01*
G01*
X0043685Y0330453D01*
G75*
G02*
X0043409Y0330728I0000000J0000276D01*
G01*
G37*
G36*
G01*
X0049657Y0332098D02*
X0049657Y0333280D01*
G75*
G02*
X0050248Y0333870I0000591J0000000D01*
G01*
X0056744Y0333870D01*
G75*
G02*
X0057335Y0333280I0000000J-000591D01*
G01*
X0057335Y0332098D01*
G75*
G02*
X0056744Y0331508I-000591J0000000D01*
G01*
X0050248Y0331508D01*
G75*
G02*
X0049657Y0332098I0000000J0000591D01*
G01*
G37*
G36*
G01*
X0049657Y0337098D02*
X0049657Y0338280D01*
G75*
G02*
X0050248Y0338870I0000591J0000000D01*
G01*
X0056744Y0338870D01*
G75*
G02*
X0057335Y0338280I0000000J-000591D01*
G01*
X0057335Y0337098D01*
G75*
G02*
X0056744Y0336508I-000591J0000000D01*
G01*
X0050248Y0336508D01*
G75*
G02*
X0049657Y0337098I0000000J0000591D01*
G01*
G37*
G36*
G01*
X0049657Y0342098D02*
X0049657Y0343280D01*
G75*
G02*
X0050248Y0343870I0000591J0000000D01*
G01*
X0056744Y0343870D01*
G75*
G02*
X0057335Y0343280I0000000J-000591D01*
G01*
X0057335Y0342098D01*
G75*
G02*
X0056744Y0341508I-000591J0000000D01*
G01*
X0050248Y0341508D01*
G75*
G02*
X0049657Y0342098I0000000J0000591D01*
G01*
G37*
G36*
G01*
X0049657Y0347098D02*
X0049657Y0348280D01*
G75*
G02*
X0050248Y0348870I0000591J0000000D01*
G01*
X0056744Y0348870D01*
G75*
G02*
X0057335Y0348280I0000000J-000591D01*
G01*
X0057335Y0347098D01*
G75*
G02*
X0056744Y0346508I-000591J0000000D01*
G01*
X0050248Y0346508D01*
G75*
G02*
X0049657Y0347098I0000000J0000591D01*
G01*
G37*
G36*
G01*
X0069146Y0347098D02*
X0069146Y0348280D01*
G75*
G02*
X0069736Y0348870I0000591J0000000D01*
G01*
X0076232Y0348870D01*
G75*
G02*
X0076823Y0348280I0000000J-000591D01*
G01*
X0076823Y0347098D01*
G75*
G02*
X0076232Y0346508I-000591J0000000D01*
G01*
X0069736Y0346508D01*
G75*
G02*
X0069146Y0347098I0000000J0000591D01*
G01*
G37*
G36*
G01*
X0069146Y0342098D02*
X0069146Y0343280D01*
G75*
G02*
X0069736Y0343870I0000591J0000000D01*
G01*
X0076232Y0343870D01*
G75*
G02*
X0076823Y0343280I0000000J-000591D01*
G01*
X0076823Y0342098D01*
G75*
G02*
X0076232Y0341508I-000591J0000000D01*
G01*
X0069736Y0341508D01*
G75*
G02*
X0069146Y0342098I0000000J0000591D01*
G01*
G37*
G36*
G01*
X0069146Y0337098D02*
X0069146Y0338280D01*
G75*
G02*
X0069736Y0338870I0000591J0000000D01*
G01*
X0076232Y0338870D01*
G75*
G02*
X0076823Y0338280I0000000J-000591D01*
G01*
X0076823Y0337098D01*
G75*
G02*
X0076232Y0336508I-000591J0000000D01*
G01*
X0069736Y0336508D01*
G75*
G02*
X0069146Y0337098I0000000J0000591D01*
G01*
G37*
G36*
G01*
X0069146Y0332098D02*
X0069146Y0333280D01*
G75*
G02*
X0069736Y0333870I0000591J0000000D01*
G01*
X0076232Y0333870D01*
G75*
G02*
X0076823Y0333280I0000000J-000591D01*
G01*
X0076823Y0332098D01*
G75*
G02*
X0076232Y0331508I-000591J0000000D01*
G01*
X0069736Y0331508D01*
G75*
G02*
X0069146Y0332098I0000000J0000591D01*
G01*
G37*
G36*
G01*
X0037287Y0341669D02*
X0037287Y0344740D01*
G75*
G02*
X0037563Y0345016I0000276J0000000D01*
G01*
X0039768Y0345016D01*
G75*
G02*
X0040043Y0344740I0000000J-000276D01*
G01*
X0040043Y0341669D01*
G75*
G02*
X0039768Y0341394I-000276J0000000D01*
G01*
X0037563Y0341394D01*
G75*
G02*
X0037287Y0341669I0000000J0000276D01*
G01*
G37*
G36*
G01*
X0043587Y0341669D02*
X0043587Y0344740D01*
G75*
G02*
X0043862Y0345016I0000276J0000000D01*
G01*
X0046067Y0345016D01*
G75*
G02*
X0046343Y0344740I0000000J-000276D01*
G01*
X0046343Y0341669D01*
G75*
G02*
X0046067Y0341394I-000276J0000000D01*
G01*
X0043862Y0341394D01*
G75*
G02*
X0043587Y0341669I0000000J0000276D01*
G01*
G37*
G36*
G01*
X0600650Y0256575D02*
X0600650Y0253504D01*
G75*
G02*
X0600374Y0253228I-000276J0000000D01*
G01*
X0598169Y0253228D01*
G75*
G02*
X0597894Y0253504I0000000J0000276D01*
G01*
X0597894Y0256575D01*
G75*
G02*
X0598169Y0256850I0000276J0000000D01*
G01*
X0600374Y0256850D01*
G75*
G02*
X0600650Y0256575I0000000J-000276D01*
G01*
G37*
G36*
G01*
X0594350Y0256575D02*
X0594350Y0253504D01*
G75*
G02*
X0594075Y0253228I-000276J0000000D01*
G01*
X0591870Y0253228D01*
G75*
G02*
X0591594Y0253504I0000000J0000276D01*
G01*
X0591594Y0256575D01*
G75*
G02*
X0591870Y0256850I0000276J0000000D01*
G01*
X0594075Y0256850D01*
G75*
G02*
X0594350Y0256575I0000000J-000276D01*
G01*
G37*
G36*
G01*
X0478543Y0317933D02*
X0478543Y0314862D01*
G75*
G02*
X0478268Y0314587I-000276J0000000D01*
G01*
X0476063Y0314587D01*
G75*
G02*
X0475787Y0314862I0000000J0000276D01*
G01*
X0475787Y0317933D01*
G75*
G02*
X0476063Y0318209I0000276J0000000D01*
G01*
X0478268Y0318209D01*
G75*
G02*
X0478543Y0317933I0000000J-000276D01*
G01*
G37*
G36*
G01*
X0472244Y0317933D02*
X0472244Y0314862D01*
G75*
G02*
X0471969Y0314587I-000276J0000000D01*
G01*
X0469764Y0314587D01*
G75*
G02*
X0469488Y0314862I0000000J0000276D01*
G01*
X0469488Y0317933D01*
G75*
G02*
X0469764Y0318209I0000276J0000000D01*
G01*
X0471969Y0318209D01*
G75*
G02*
X0472244Y0317933I0000000J-000276D01*
G01*
G37*
G36*
G01*
X0048858Y0106634D02*
X0046181Y0106634D01*
G75*
G02*
X0045846Y0106969I0000000J0000335D01*
G01*
X0045846Y0109646D01*
G75*
G02*
X0046181Y0109980I0000335J0000000D01*
G01*
X0048858Y0109980D01*
G75*
G02*
X0049193Y0109646I0000000J-000335D01*
G01*
X0049193Y0106969D01*
G75*
G02*
X0048858Y0106634I-000335J0000000D01*
G01*
G37*
G36*
G01*
X0048858Y0112854D02*
X0046181Y0112854D01*
G75*
G02*
X0045846Y0113189I0000000J0000335D01*
G01*
X0045846Y0115866D01*
G75*
G02*
X0046181Y0116201I0000335J0000000D01*
G01*
X0048858Y0116201D01*
G75*
G02*
X0049193Y0115866I0000000J-000335D01*
G01*
X0049193Y0113189D01*
G75*
G02*
X0048858Y0112854I-000335J0000000D01*
G01*
G37*
G36*
G01*
X0591004Y0209916D02*
X0591004Y0211934D01*
G75*
G02*
X0591865Y0212795I0000861J0000000D01*
G01*
X0593588Y0212795D01*
G75*
G02*
X0594449Y0211934I0000000J-000861D01*
G01*
X0594449Y0209916D01*
G75*
G02*
X0593588Y0209055I-000861J0000000D01*
G01*
X0591865Y0209055D01*
G75*
G02*
X0591004Y0209916I0000000J0000861D01*
G01*
G37*
G36*
G01*
X0597205Y0209916D02*
X0597205Y0211934D01*
G75*
G02*
X0598066Y0212795I0000861J0000000D01*
G01*
X0599788Y0212795D01*
G75*
G02*
X0600650Y0211934I0000000J-000861D01*
G01*
X0600650Y0209916D01*
G75*
G02*
X0599788Y0209055I-000861J0000000D01*
G01*
X0598066Y0209055D01*
G75*
G02*
X0597205Y0209916I0000000J0000861D01*
G01*
G37*
G36*
G01*
X0061706Y0096496D02*
X0059688Y0096496D01*
G75*
G02*
X0058827Y0097357I0000000J0000861D01*
G01*
X0058827Y0099080D01*
G75*
G02*
X0059688Y0099941I0000861J0000000D01*
G01*
X0061706Y0099941D01*
G75*
G02*
X0062567Y0099080I0000000J-000861D01*
G01*
X0062567Y0097357D01*
G75*
G02*
X0061706Y0096496I-000861J0000000D01*
G01*
G37*
G36*
G01*
X0061706Y0102697D02*
X0059688Y0102697D01*
G75*
G02*
X0058827Y0103558I0000000J0000861D01*
G01*
X0058827Y0105281D01*
G75*
G02*
X0059688Y0106142I0000861J0000000D01*
G01*
X0061706Y0106142D01*
G75*
G02*
X0062567Y0105281I0000000J-000861D01*
G01*
X0062567Y0103558D01*
G75*
G02*
X0061706Y0102697I-000861J0000000D01*
G01*
G37*
G36*
G01*
X0346669Y0145539D02*
X0346669Y0141524D01*
G75*
G02*
X0346315Y0141169I-000354J0000000D01*
G01*
X0343480Y0141169D01*
G75*
G02*
X0343126Y0141524I0000000J0000354D01*
G01*
X0343126Y0145539D01*
G75*
G02*
X0343480Y0145894I0000354J0000000D01*
G01*
X0346315Y0145894D01*
G75*
G02*
X0346669Y0145539I0000000J-000354D01*
G01*
G37*
G36*
G01*
X0333677Y0145539D02*
X0333677Y0141524D01*
G75*
G02*
X0333323Y0141169I-000354J0000000D01*
G01*
X0330488Y0141169D01*
G75*
G02*
X0330134Y0141524I0000000J0000354D01*
G01*
X0330134Y0145539D01*
G75*
G02*
X0330488Y0145894I0000354J0000000D01*
G01*
X0333323Y0145894D01*
G75*
G02*
X0333677Y0145539I0000000J-000354D01*
G01*
G37*
G36*
G01*
X0566791Y0196929D02*
X0578012Y0196929D01*
G75*
G02*
X0578996Y0195945I0000000J-000984D01*
G01*
X0578996Y0193091D01*
G75*
G02*
X0578012Y0192106I-000984J0000000D01*
G01*
X0566791Y0192106D01*
G75*
G02*
X0565807Y0193091I0000000J0000984D01*
G01*
X0565807Y0195945D01*
G75*
G02*
X0566791Y0196929I0000984J0000000D01*
G01*
G37*
G36*
G01*
X0566791Y0173602D02*
X0578012Y0173602D01*
G75*
G02*
X0578996Y0172618I0000000J-000984D01*
G01*
X0578996Y0169764D01*
G75*
G02*
X0578012Y0168780I-000984J0000000D01*
G01*
X0566791Y0168780D01*
G75*
G02*
X0565807Y0169764I0000000J0000984D01*
G01*
X0565807Y0172618D01*
G75*
G02*
X0566791Y0173602I0000984J0000000D01*
G01*
G37*
G36*
G01*
X0294138Y0130142D02*
X0294138Y0131323D01*
G75*
G02*
X0294728Y0131913I0000591J0000000D01*
G01*
X0301224Y0131913D01*
G75*
G02*
X0301815Y0131323I0000000J-000591D01*
G01*
X0301815Y0130142D01*
G75*
G02*
X0301224Y0129551I-000591J0000000D01*
G01*
X0294728Y0129551D01*
G75*
G02*
X0294138Y0130142I0000000J0000591D01*
G01*
G37*
G36*
G01*
X0294138Y0135142D02*
X0294138Y0136323D01*
G75*
G02*
X0294728Y0136913I0000591J0000000D01*
G01*
X0301224Y0136913D01*
G75*
G02*
X0301815Y0136323I0000000J-000591D01*
G01*
X0301815Y0135142D01*
G75*
G02*
X0301224Y0134551I-000591J0000000D01*
G01*
X0294728Y0134551D01*
G75*
G02*
X0294138Y0135142I0000000J0000591D01*
G01*
G37*
G36*
G01*
X0294138Y0140142D02*
X0294138Y0141323D01*
G75*
G02*
X0294728Y0141913I0000591J0000000D01*
G01*
X0301224Y0141913D01*
G75*
G02*
X0301815Y0141323I0000000J-000591D01*
G01*
X0301815Y0140142D01*
G75*
G02*
X0301224Y0139551I-000591J0000000D01*
G01*
X0294728Y0139551D01*
G75*
G02*
X0294138Y0140142I0000000J0000591D01*
G01*
G37*
G36*
G01*
X0294138Y0145142D02*
X0294138Y0146323D01*
G75*
G02*
X0294728Y0146913I0000591J0000000D01*
G01*
X0301224Y0146913D01*
G75*
G02*
X0301815Y0146323I0000000J-000591D01*
G01*
X0301815Y0145142D01*
G75*
G02*
X0301224Y0144551I-000591J0000000D01*
G01*
X0294728Y0144551D01*
G75*
G02*
X0294138Y0145142I0000000J0000591D01*
G01*
G37*
G36*
G01*
X0313626Y0145142D02*
X0313626Y0146323D01*
G75*
G02*
X0314217Y0146913I0000591J0000000D01*
G01*
X0320713Y0146913D01*
G75*
G02*
X0321303Y0146323I0000000J-000591D01*
G01*
X0321303Y0145142D01*
G75*
G02*
X0320713Y0144551I-000591J0000000D01*
G01*
X0314217Y0144551D01*
G75*
G02*
X0313626Y0145142I0000000J0000591D01*
G01*
G37*
G36*
G01*
X0313626Y0140142D02*
X0313626Y0141323D01*
G75*
G02*
X0314217Y0141913I0000591J0000000D01*
G01*
X0320713Y0141913D01*
G75*
G02*
X0321303Y0141323I0000000J-000591D01*
G01*
X0321303Y0140142D01*
G75*
G02*
X0320713Y0139551I-000591J0000000D01*
G01*
X0314217Y0139551D01*
G75*
G02*
X0313626Y0140142I0000000J0000591D01*
G01*
G37*
G36*
G01*
X0313626Y0135142D02*
X0313626Y0136323D01*
G75*
G02*
X0314217Y0136913I0000591J0000000D01*
G01*
X0320713Y0136913D01*
G75*
G02*
X0321303Y0136323I0000000J-000591D01*
G01*
X0321303Y0135142D01*
G75*
G02*
X0320713Y0134551I-000591J0000000D01*
G01*
X0314217Y0134551D01*
G75*
G02*
X0313626Y0135142I0000000J0000591D01*
G01*
G37*
G36*
G01*
X0313626Y0130142D02*
X0313626Y0131323D01*
G75*
G02*
X0314217Y0131913I0000591J0000000D01*
G01*
X0320713Y0131913D01*
G75*
G02*
X0321303Y0131323I0000000J-000591D01*
G01*
X0321303Y0130142D01*
G75*
G02*
X0320713Y0129551I-000591J0000000D01*
G01*
X0314217Y0129551D01*
G75*
G02*
X0313626Y0130142I0000000J0000591D01*
G01*
G37*
G36*
G01*
X0281386Y0128260D02*
X0281386Y0131331D01*
G75*
G02*
X0281661Y0131607I0000276J0000000D01*
G01*
X0283866Y0131607D01*
G75*
G02*
X0284142Y0131331I0000000J-000276D01*
G01*
X0284142Y0128260D01*
G75*
G02*
X0283866Y0127985I-000276J0000000D01*
G01*
X0281661Y0127985D01*
G75*
G02*
X0281386Y0128260I0000000J0000276D01*
G01*
G37*
G36*
G01*
X0287685Y0128260D02*
X0287685Y0131331D01*
G75*
G02*
X0287961Y0131607I0000276J0000000D01*
G01*
X0290165Y0131607D01*
G75*
G02*
X0290441Y0131331I0000000J-000276D01*
G01*
X0290441Y0128260D01*
G75*
G02*
X0290165Y0127985I-000276J0000000D01*
G01*
X0287961Y0127985D01*
G75*
G02*
X0287685Y0128260I0000000J0000276D01*
G01*
G37*
G36*
G01*
X0566388Y0247451D02*
X0577608Y0247451D01*
G75*
G02*
X0578593Y0246467I0000000J-000984D01*
G01*
X0578593Y0243612D01*
G75*
G02*
X0577608Y0242628I-000984J0000000D01*
G01*
X0566388Y0242628D01*
G75*
G02*
X0565404Y0243612I0000000J0000984D01*
G01*
X0565404Y0246467D01*
G75*
G02*
X0566388Y0247451I0000984J0000000D01*
G01*
G37*
G36*
G01*
X0566388Y0224124D02*
X0577608Y0224124D01*
G75*
G02*
X0578593Y0223140I0000000J-000984D01*
G01*
X0578593Y0220285D01*
G75*
G02*
X0577608Y0219301I-000984J0000000D01*
G01*
X0566388Y0219301D01*
G75*
G02*
X0565404Y0220285I0000000J0000984D01*
G01*
X0565404Y0223140D01*
G75*
G02*
X0566388Y0224124I0000984J0000000D01*
G01*
G37*
G36*
G01*
X0281272Y0133949D02*
X0281272Y0137020D01*
G75*
G02*
X0281547Y0137295I0000276J0000000D01*
G01*
X0283752Y0137295D01*
G75*
G02*
X0284028Y0137020I0000000J-000276D01*
G01*
X0284028Y0133949D01*
G75*
G02*
X0283752Y0133673I-000276J0000000D01*
G01*
X0281547Y0133673D01*
G75*
G02*
X0281272Y0133949I0000000J0000276D01*
G01*
G37*
G36*
G01*
X0287571Y0133949D02*
X0287571Y0137020D01*
G75*
G02*
X0287846Y0137295I0000276J0000000D01*
G01*
X0290051Y0137295D01*
G75*
G02*
X0290327Y0137020I0000000J-000276D01*
G01*
X0290327Y0133949D01*
G75*
G02*
X0290051Y0133673I-000276J0000000D01*
G01*
X0287846Y0133673D01*
G75*
G02*
X0287571Y0133949I0000000J0000276D01*
G01*
G37*
G36*
G01*
X0566201Y0137323D02*
X0577421Y0137323D01*
G75*
G02*
X0578406Y0136339I0000000J-000984D01*
G01*
X0578406Y0133484D01*
G75*
G02*
X0577421Y0132500I-000984J0000000D01*
G01*
X0566201Y0132500D01*
G75*
G02*
X0565217Y0133484I0000000J0000984D01*
G01*
X0565217Y0136339D01*
G75*
G02*
X0566201Y0137323I0000984J0000000D01*
G01*
G37*
G36*
G01*
X0566201Y0113996D02*
X0577421Y0113996D01*
G75*
G02*
X0578406Y0113012I0000000J-000984D01*
G01*
X0578406Y0110157D01*
G75*
G02*
X0577421Y0109173I-000984J0000000D01*
G01*
X0566201Y0109173D01*
G75*
G02*
X0565217Y0110157I0000000J0000984D01*
G01*
X0565217Y0113012D01*
G75*
G02*
X0566201Y0113996I0000984J0000000D01*
G01*
G37*
G36*
G01*
X0476575Y0153760D02*
X0476575Y0150689D01*
G75*
G02*
X0476299Y0150413I-000276J0000000D01*
G01*
X0474094Y0150413D01*
G75*
G02*
X0473819Y0150689I0000000J0000276D01*
G01*
X0473819Y0153760D01*
G75*
G02*
X0474094Y0154035I0000276J0000000D01*
G01*
X0476299Y0154035D01*
G75*
G02*
X0476575Y0153760I0000000J-000276D01*
G01*
G37*
G36*
G01*
X0470276Y0153760D02*
X0470276Y0150689D01*
G75*
G02*
X0470000Y0150413I-000276J0000000D01*
G01*
X0467795Y0150413D01*
G75*
G02*
X0467520Y0150689I0000000J0000276D01*
G01*
X0467520Y0153760D01*
G75*
G02*
X0467795Y0154035I0000276J0000000D01*
G01*
X0470000Y0154035D01*
G75*
G02*
X0470276Y0153760I0000000J-000276D01*
G01*
G37*
G36*
G01*
X0055555Y0137839D02*
X0055555Y0136657D01*
G75*
G02*
X0054965Y0136067I-000591J0000000D01*
G01*
X0048469Y0136067D01*
G75*
G02*
X0047878Y0136657I0000000J0000591D01*
G01*
X0047878Y0137839D01*
G75*
G02*
X0048469Y0138429I0000591J0000000D01*
G01*
X0054965Y0138429D01*
G75*
G02*
X0055555Y0137839I0000000J-000591D01*
G01*
G37*
G36*
G01*
X0055555Y0132839D02*
X0055555Y0131657D01*
G75*
G02*
X0054965Y0131067I-000591J0000000D01*
G01*
X0048469Y0131067D01*
G75*
G02*
X0047878Y0131657I0000000J0000591D01*
G01*
X0047878Y0132839D01*
G75*
G02*
X0048469Y0133429I0000591J0000000D01*
G01*
X0054965Y0133429D01*
G75*
G02*
X0055555Y0132839I0000000J-000591D01*
G01*
G37*
G36*
G01*
X0055555Y0127839D02*
X0055555Y0126657D01*
G75*
G02*
X0054965Y0126067I-000591J0000000D01*
G01*
X0048469Y0126067D01*
G75*
G02*
X0047878Y0126657I0000000J0000591D01*
G01*
X0047878Y0127839D01*
G75*
G02*
X0048469Y0128429I0000591J0000000D01*
G01*
X0054965Y0128429D01*
G75*
G02*
X0055555Y0127839I0000000J-000591D01*
G01*
G37*
G36*
G01*
X0055555Y0122839D02*
X0055555Y0121657D01*
G75*
G02*
X0054965Y0121067I-000591J0000000D01*
G01*
X0048469Y0121067D01*
G75*
G02*
X0047878Y0121657I0000000J0000591D01*
G01*
X0047878Y0122839D01*
G75*
G02*
X0048469Y0123429I0000591J0000000D01*
G01*
X0054965Y0123429D01*
G75*
G02*
X0055555Y0122839I0000000J-000591D01*
G01*
G37*
G36*
G01*
X0036067Y0122839D02*
X0036067Y0121657D01*
G75*
G02*
X0035476Y0121067I-000591J0000000D01*
G01*
X0028980Y0121067D01*
G75*
G02*
X0028390Y0121657I0000000J0000591D01*
G01*
X0028390Y0122839D01*
G75*
G02*
X0028980Y0123429I0000591J0000000D01*
G01*
X0035476Y0123429D01*
G75*
G02*
X0036067Y0122839I0000000J-000591D01*
G01*
G37*
G36*
G01*
X0036067Y0127839D02*
X0036067Y0126657D01*
G75*
G02*
X0035476Y0126067I-000591J0000000D01*
G01*
X0028980Y0126067D01*
G75*
G02*
X0028390Y0126657I0000000J0000591D01*
G01*
X0028390Y0127839D01*
G75*
G02*
X0028980Y0128429I0000591J0000000D01*
G01*
X0035476Y0128429D01*
G75*
G02*
X0036067Y0127839I0000000J-000591D01*
G01*
G37*
G36*
G01*
X0036067Y0132839D02*
X0036067Y0131657D01*
G75*
G02*
X0035476Y0131067I-000591J0000000D01*
G01*
X0028980Y0131067D01*
G75*
G02*
X0028390Y0131657I0000000J0000591D01*
G01*
X0028390Y0132839D01*
G75*
G02*
X0028980Y0133429I0000591J0000000D01*
G01*
X0035476Y0133429D01*
G75*
G02*
X0036067Y0132839I0000000J-000591D01*
G01*
G37*
G36*
G01*
X0036067Y0137839D02*
X0036067Y0136657D01*
G75*
G02*
X0035476Y0136067I-000591J0000000D01*
G01*
X0028980Y0136067D01*
G75*
G02*
X0028390Y0136657I0000000J0000591D01*
G01*
X0028390Y0137839D01*
G75*
G02*
X0028980Y0138429I0000591J0000000D01*
G01*
X0035476Y0138429D01*
G75*
G02*
X0036067Y0137839I0000000J-000591D01*
G01*
G37*
G36*
G01*
X0514902Y0144695D02*
X0514902Y0141624D01*
G75*
G02*
X0514626Y0141348I-000276J0000000D01*
G01*
X0512421Y0141348D01*
G75*
G02*
X0512146Y0141624I0000000J0000276D01*
G01*
X0512146Y0144695D01*
G75*
G02*
X0512421Y0144970I0000276J0000000D01*
G01*
X0514626Y0144970D01*
G75*
G02*
X0514902Y0144695I0000000J-000276D01*
G01*
G37*
G36*
G01*
X0508602Y0144695D02*
X0508602Y0141624D01*
G75*
G02*
X0508327Y0141348I-000276J0000000D01*
G01*
X0506122Y0141348D01*
G75*
G02*
X0505846Y0141624I0000000J0000276D01*
G01*
X0505846Y0144695D01*
G75*
G02*
X0506122Y0144970I0000276J0000000D01*
G01*
X0508327Y0144970D01*
G75*
G02*
X0508602Y0144695I0000000J-000276D01*
G01*
G37*
G36*
X0070038Y0442667D02*
G01*
X0070250Y0442618D01*
X0070406Y0442543D01*
X0070541Y0442435D01*
X0070649Y0442300D01*
X0070729Y0442134D01*
X0070767Y0441987D01*
X0070776Y0441835D01*
X0070774Y0441770D01*
X0070773Y0441764D01*
X0070674Y0441545D01*
X0070465Y0441425D01*
X0070386Y0441417D01*
X0069943Y0441417D01*
X0069897Y0441008D01*
X0069896Y0440999D01*
X0069504Y0438059D01*
X0069502Y0438042D01*
X0068915Y0434719D01*
X0068909Y0434689D01*
X0067933Y0430886D01*
X0067921Y0430846D01*
X0066455Y0426936D01*
X0066449Y0426921D01*
X0065080Y0423694D01*
X0065067Y0423667D01*
X0063602Y0420834D01*
X0063593Y0420818D01*
X0062127Y0418278D01*
X0062114Y0418256D01*
X0060353Y0415615D01*
X0060345Y0415604D01*
X0058586Y0413160D01*
X0058569Y0413138D01*
X0056129Y0410210D01*
X0056105Y0410184D01*
X0053367Y0407446D01*
X0053355Y0407435D01*
X0050914Y0405188D01*
X0050887Y0405166D01*
X0047955Y0402918D01*
X0047941Y0402907D01*
X0044715Y0400660D01*
X0044684Y0400640D01*
X0041561Y0398883D01*
X0041539Y0398872D01*
X0038702Y0397502D01*
X0038690Y0397496D01*
X0036244Y0396420D01*
X0036227Y0396413D01*
X0033689Y0395437D01*
X0033663Y0395428D01*
X0030439Y0394451D01*
X0030418Y0394445D01*
X0026800Y0393565D01*
X0026773Y0393560D01*
X0023510Y0393001D01*
X0023510Y0392662D01*
X0023436Y0392433D01*
X0023241Y0392291D01*
X0023000Y0392291D01*
X0022932Y0392321D01*
X0022896Y0392341D01*
X0022766Y0392456D01*
X0022663Y0392602D01*
X0022598Y0392751D01*
X0022562Y0392931D01*
X0022554Y0393006D01*
X0022465Y0414377D01*
X0022539Y0414606D01*
X0022733Y0414749D01*
X0022779Y0414761D01*
X0023245Y0414853D01*
X0025485Y0415454D01*
X0027682Y0416199D01*
X0029824Y0417087D01*
X0029824Y0417087D01*
X0031904Y0418113D01*
X0033913Y0419272D01*
X0033913Y0419272D01*
X0035841Y0420561D01*
X0035841Y0420561D01*
X0037681Y0421973D01*
X0037681Y0421973D01*
X0039425Y0423502D01*
X0039425Y0423502D01*
X0041065Y0425142D01*
X0041065Y0425142D01*
X0042594Y0426886D01*
X0042594Y0426886D01*
X0044006Y0428726D01*
X0044006Y0428726D01*
X0045295Y0430654D01*
X0045295Y0430654D01*
X0046454Y0432663D01*
X0047480Y0434743D01*
X0047480Y0434743D01*
X0048368Y0436885D01*
X0049113Y0439082D01*
X0049714Y0441322D01*
X0049764Y0441575D01*
X0049882Y0441785D01*
X0050100Y0441886D01*
X0050146Y0441889D01*
X0050380Y0441889D01*
X0050380Y0441889D01*
X0050380Y0442287D01*
X0050455Y0442516D01*
X0050650Y0442657D01*
X0050770Y0442676D01*
X0069951Y0442676D01*
X0070038Y0442667D01*
G37*
G36*
X0589659Y0464373D02*
G01*
X0589705Y0464333D01*
X0594925Y0459113D01*
X0595035Y0458899D01*
X0595039Y0458838D01*
X0595039Y0449370D01*
X0595049Y0448210D01*
X0595049Y0448210D01*
X0595200Y0445896D01*
X0595200Y0445896D01*
X0595503Y0443597D01*
X0595503Y0443597D01*
X0595956Y0441322D01*
X0596010Y0441121D01*
X0595997Y0440880D01*
X0595845Y0440693D01*
X0595633Y0440630D01*
X0574435Y0440630D01*
X0574206Y0440704D01*
X0574064Y0440899D01*
X0574051Y0440954D01*
X0573971Y0441417D01*
X0069943Y0441417D01*
X0069897Y0441008D01*
X0069896Y0440999D01*
X0069892Y0440968D01*
X0069788Y0440751D01*
X0069576Y0440636D01*
X0069506Y0440630D01*
X0050424Y0440630D01*
X0050337Y0440640D01*
X0050125Y0440688D01*
X0049969Y0440763D01*
X0049835Y0440870D01*
X0049702Y0441072D01*
X0049701Y0441276D01*
X0049714Y0441322D01*
X0049764Y0441575D01*
X0049882Y0441785D01*
X0050100Y0441886D01*
X0050146Y0441889D01*
X0050380Y0441889D01*
X0050380Y0441889D01*
X0050380Y0445198D01*
X0050384Y0445249D01*
X0050469Y0445896D01*
X0050620Y0448210D01*
X0050630Y0449370D01*
X0050630Y0458838D01*
X0050704Y0459067D01*
X0050744Y0459113D01*
X0055868Y0464237D01*
X0056083Y0464347D01*
X0056144Y0464351D01*
X0589429Y0464448D01*
X0589659Y0464373D01*
G37*
G36*
X0621657Y0415059D02*
G01*
X0622424Y0414853D01*
X0622545Y0414829D01*
X0622744Y0414723D01*
X0622821Y0414646D01*
X0623429Y0414646D01*
X0623505Y0414638D01*
X0624699Y0414401D01*
X0624699Y0414401D01*
X0626998Y0414098D01*
X0629313Y0413946D01*
X0629313Y0413946D01*
X0630473Y0413937D01*
X0639940Y0413937D01*
X0640169Y0413863D01*
X0640216Y0413823D01*
X0644656Y0409382D01*
X0644766Y0409168D01*
X0644771Y0409107D01*
X0644779Y0315941D01*
X0644705Y0315712D01*
X0644510Y0315570D01*
X0644390Y0315551D01*
X0636614Y0315551D01*
X0636126Y0315541D01*
X0635162Y0315380D01*
X0634238Y0315063D01*
X0633379Y0314598D01*
X0633379Y0314598D01*
X0632608Y0313998D01*
X0632608Y0313998D01*
X0631946Y0313279D01*
X0631412Y0312461D01*
X0631412Y0312461D01*
X0631019Y0311566D01*
X0630779Y0310619D01*
X0630699Y0309646D01*
X0630779Y0308672D01*
X0631019Y0307725D01*
X0631412Y0306830D01*
X0631412Y0306830D01*
X0631946Y0306012D01*
X0632608Y0305293D01*
X0632608Y0305293D01*
X0633379Y0304693D01*
X0633379Y0304693D01*
X0634238Y0304228D01*
X0635162Y0303911D01*
X0636126Y0303750D01*
X0636614Y0303740D01*
X0644391Y0303740D01*
X0644620Y0303666D01*
X0644762Y0303471D01*
X0644781Y0303350D01*
X0644804Y0054668D01*
X0644730Y0054438D01*
X0644690Y0054392D01*
X0640766Y0050468D01*
X0640552Y0050358D01*
X0640490Y0050354D01*
X0622423Y0050374D01*
X0622194Y0050448D01*
X0622053Y0050643D01*
X0622034Y0050763D01*
X0622034Y0055000D01*
X0621941Y0395255D01*
X0621941Y0395255D01*
X0621940Y0395255D01*
X0621931Y0395256D01*
X0621491Y0395315D01*
X0621274Y0395419D01*
X0621160Y0395631D01*
X0621153Y0395701D01*
X0621148Y0414602D01*
X0621158Y0414688D01*
X0621176Y0414769D01*
X0621300Y0414976D01*
X0621521Y0415070D01*
X0621657Y0415059D01*
G37*
G36*
X0024047Y0414991D02*
G01*
X0024235Y0414840D01*
X0024298Y0414627D01*
X0024298Y0393464D01*
X0024223Y0393235D01*
X0024028Y0393093D01*
X0023974Y0393080D01*
X0023510Y0393001D01*
X0023512Y0051352D01*
X0023437Y0051123D01*
X0023242Y0050981D01*
X0023124Y0050962D01*
X0006063Y0050867D01*
X0005833Y0050940D01*
X0005778Y0050989D01*
X0000782Y0056265D01*
X0000679Y0056483D01*
X0000676Y0056533D01*
X0000676Y0303350D01*
X0000750Y0303579D01*
X0000945Y0303721D01*
X0001065Y0303740D01*
X0009055Y0303740D01*
X0009544Y0303750D01*
X0009544Y0303750D01*
X0010508Y0303910D01*
X0010508Y0303910D01*
X0011432Y0304228D01*
X0011432Y0304228D01*
X0012291Y0304693D01*
X0013062Y0305293D01*
X0013062Y0305293D01*
X0013724Y0306012D01*
X0014259Y0306830D01*
X0014259Y0306830D01*
X0014651Y0307725D01*
X0014891Y0308672D01*
X0014891Y0308672D01*
X0014972Y0309646D01*
X0014891Y0310620D01*
X0014891Y0310620D01*
X0014651Y0311567D01*
X0014259Y0312462D01*
X0014259Y0312462D01*
X0013724Y0313280D01*
X0013062Y0313999D01*
X0013062Y0313999D01*
X0012291Y0314599D01*
X0011432Y0315064D01*
X0011432Y0315064D01*
X0010508Y0315381D01*
X0010508Y0315381D01*
X0009544Y0315542D01*
X0009544Y0315542D01*
X0009055Y0315551D01*
X0001065Y0315551D01*
X0000836Y0315626D01*
X0000695Y0315821D01*
X0000676Y0315941D01*
X0000676Y0408883D01*
X0000750Y0409112D01*
X0000790Y0409159D01*
X0005454Y0413823D01*
X0005668Y0413932D01*
X0005729Y0413937D01*
X0015197Y0413937D01*
X0016357Y0413947D01*
X0018671Y0414098D01*
X0020970Y0414401D01*
X0020970Y0414401D01*
X0023245Y0414853D01*
X0023807Y0415004D01*
X0024047Y0414991D01*
G37*
G36*
X0595592Y0442614D02*
G01*
X0595734Y0442420D01*
X0595746Y0442374D01*
X0595956Y0441322D01*
X0596556Y0439082D01*
X0597301Y0436885D01*
X0598189Y0434743D01*
X0598189Y0434743D01*
X0599215Y0432663D01*
X0599215Y0432662D01*
X0600374Y0430654D01*
X0601663Y0428725D01*
X0601663Y0428725D01*
X0603075Y0426886D01*
X0603075Y0426885D01*
X0604604Y0425142D01*
X0604604Y0425142D01*
X0606244Y0423502D01*
X0606244Y0423502D01*
X0607988Y0421972D01*
X0607988Y0421972D01*
X0609828Y0420561D01*
X0611756Y0419272D01*
X0611756Y0419272D01*
X0613765Y0418112D01*
X0615845Y0417087D01*
X0615845Y0417087D01*
X0617988Y0416199D01*
X0620184Y0415453D01*
X0622424Y0414853D01*
X0622545Y0414829D01*
X0622744Y0414723D01*
X0622821Y0414646D01*
X0623219Y0414646D01*
X0623448Y0414571D01*
X0623590Y0414376D01*
X0623609Y0414256D01*
X0623609Y0395201D01*
X0623599Y0395115D01*
X0623550Y0394903D01*
X0623475Y0394746D01*
X0623368Y0394611D01*
X0623232Y0394503D01*
X0623066Y0394423D01*
X0622919Y0394385D01*
X0622767Y0394377D01*
X0622702Y0394378D01*
X0622288Y0394425D01*
X0622068Y0394524D01*
X0621949Y0394733D01*
X0621941Y0394812D01*
X0621941Y0395255D01*
X0621941Y0395255D01*
X0621940Y0395255D01*
X0621931Y0395256D01*
X0618991Y0395649D01*
X0618975Y0395651D01*
X0615651Y0396238D01*
X0615622Y0396244D01*
X0611818Y0397219D01*
X0611778Y0397232D01*
X0607868Y0398698D01*
X0607853Y0398704D01*
X0604626Y0400073D01*
X0604599Y0400086D01*
X0601766Y0401551D01*
X0601750Y0401560D01*
X0599210Y0403025D01*
X0599189Y0403038D01*
X0596548Y0404799D01*
X0596536Y0404807D01*
X0594092Y0406567D01*
X0594070Y0406584D01*
X0591142Y0409024D01*
X0591116Y0409048D01*
X0588378Y0411786D01*
X0588367Y0411797D01*
X0586120Y0414239D01*
X0586098Y0414266D01*
X0583850Y0417198D01*
X0583840Y0417212D01*
X0581592Y0420437D01*
X0581572Y0420469D01*
X0579815Y0423592D01*
X0579804Y0423613D01*
X0578434Y0426451D01*
X0578429Y0426463D01*
X0577352Y0428909D01*
X0577345Y0428926D01*
X0576370Y0431463D01*
X0576360Y0431490D01*
X0575383Y0434714D01*
X0575378Y0434735D01*
X0574498Y0438353D01*
X0574492Y0438379D01*
X0573971Y0441417D01*
X0573525Y0441417D01*
X0573296Y0441492D01*
X0573155Y0441687D01*
X0573136Y0441828D01*
X0573142Y0441939D01*
X0573190Y0442106D01*
X0573273Y0442257D01*
X0573388Y0442386D01*
X0573534Y0442490D01*
X0573683Y0442554D01*
X0573863Y0442591D01*
X0573939Y0442599D01*
X0595362Y0442687D01*
X0595592Y0442614D01*
G37*
X0461024Y0428524D02*
G01*
G75*
D381*
X0537402Y0398609D02*
D03*
X0537402Y0411601D02*
D03*
D382*
X0537796Y0378749D02*
D03*
X0537796Y0390166D02*
D03*
X0529764Y0378749D02*
D03*
X0529764Y0390166D02*
D03*
D385*
X0515748Y0416122D02*
D03*
X0519685Y0416122D02*
D03*
X0530315Y0419469D02*
D03*
X0530315Y0410807D02*
D03*
X0525067Y0420256D02*
D03*
X0525067Y0411595D02*
D03*
D386*
X0472441Y0408369D02*
D03*
X0472441Y0411913D02*
D03*
X0509174Y0398978D02*
D03*
X0509174Y0395434D02*
D03*
X0524279Y0406975D02*
D03*
X0524279Y0403432D02*
D03*
X0472441Y0399751D02*
D03*
X0472441Y0403294D02*
D03*
X0476378Y0420256D02*
D03*
X0476378Y0416713D02*
D03*
D387*
X0525854Y0394771D02*
D03*
X0529398Y0394771D02*
D03*
X0538256Y0415538D02*
D03*
X0534712Y0415538D02*
D03*
X0479939Y0366774D02*
D03*
X0483483Y0366774D02*
D03*
D134*
X0479134Y0362776D02*
D03*
X0475197Y0362776D02*
D03*
D135*
X0532677Y0425571D02*
D03*
X0465748Y0425571D02*
D03*
X0513189Y0425571D02*
D03*
X0512992Y0364548D02*
D03*
X0538189Y0364548D02*
D03*
X0488583Y0364548D02*
D03*
X0505512Y0364548D02*
D03*
X0463977Y0364548D02*
D03*
X0539961Y0425571D02*
D03*
D393*
X0538977Y0370650D02*
D03*
X0530315Y0370650D02*
D03*
X0476378Y0408566D02*
D03*
X0476378Y0412503D02*
D03*
X0476378Y0403885D02*
D03*
X0476378Y0399948D02*
D03*
X0530315Y0407172D02*
D03*
X0530315Y0403235D02*
D03*
X0508701Y0384239D02*
D03*
X0508701Y0380302D02*
D03*
X0471260Y0376463D02*
D03*
X0471260Y0380401D02*
D03*
D394*
X0517323Y0379311D02*
D03*
X0517323Y0390335D02*
D03*
D395*
X0513000Y0411989D02*
D03*
X0519220Y0411989D02*
D03*
X0513000Y0397895D02*
D03*
X0519220Y0397895D02*
D03*
X0513000Y0402586D02*
D03*
X0519220Y0402586D02*
D03*
X0513000Y0407278D02*
D03*
X0519220Y0407278D02*
D03*
X0525244Y0399076D02*
D03*
X0531465Y0399076D02*
D03*
D323*
X0483138Y0403452D02*
D03*
X0483138Y0408452D02*
D03*
X0483138Y0413452D02*
D03*
X0483138Y0418452D02*
D03*
X0505775Y0403452D02*
D03*
X0505775Y0408452D02*
D03*
X0505775Y0413452D02*
D03*
X0505775Y0418452D02*
D03*
X0477855Y0380385D02*
D03*
X0477855Y0385385D02*
D03*
X0477855Y0390385D02*
D03*
X0477855Y0395385D02*
D03*
X0501280Y0380385D02*
D03*
X0501280Y0385385D02*
D03*
X0501280Y0390385D02*
D03*
X0501280Y0395385D02*
D03*
D396*
X0494456Y0410952D02*
D03*
D397*
X0489567Y0387885D02*
D03*
X0114209Y0194433D02*
G01*
G75*
D134*
X0103973Y0229866D02*
D03*
X0107713Y0229866D02*
D03*
X0111453Y0229866D02*
D03*
X0107516Y0195614D02*
D03*
X0103973Y0195614D02*
D03*
D399*
X0103973Y0222386D02*
D03*
X0103973Y0226323D02*
D03*
X0103973Y0211263D02*
D03*
X0103973Y0207326D02*
D03*
X0103973Y0202897D02*
D03*
X0103973Y0198960D02*
D03*
X0111256Y0222386D02*
D03*
X0111256Y0226323D02*
D03*
D313*
X0111453Y0219001D02*
D03*
X0107910Y0219001D02*
D03*
D322*
X0104740Y0215116D02*
D03*
X0110961Y0215116D02*
D03*
D312*
X0107910Y0202504D02*
D03*
X0107910Y0198961D02*
D03*
X0111453Y0210870D02*
D03*
X0111453Y0207327D02*
D03*
X0107852Y0225732D02*
D03*
X0107852Y0222189D02*
D03*
X0111453Y0198961D02*
D03*
X0111453Y0202504D02*
D03*
X0198122Y0172059D02*
%LPD*%
G01*
D34*
X0170957Y0230327D03*
X0175681Y0230327D03*
X0166232Y0230327D03*
X0161508Y0230327D03*
X0186941Y0173535D03*
X0190878Y0173535D03*
G36*
G01*
X0167528Y0188988D02*
X0168709Y0188988D01*
G75*
G02*
X0169300Y0188398I0000000J-000591D01*
G01*
X0169300Y0184362D01*
G75*
G02*
X0168709Y0183772I-000591J0000000D01*
G01*
X0167528Y0183772D01*
G75*
G02*
X0166938Y0184362I0000000J0000591D01*
G01*
X0166938Y0188398D01*
G75*
G02*
X0167528Y0188988I0000591J0000000D01*
G01*
G37*
G36*
G01*
X0171269Y0188988D02*
X0172450Y0188988D01*
G75*
G02*
X0173040Y0188398I0000000J-000591D01*
G01*
X0173040Y0184362D01*
G75*
G02*
X0172450Y0183772I-000591J0000000D01*
G01*
X0171269Y0183772D01*
G75*
G02*
X0170678Y0184362I0000000J0000591D01*
G01*
X0170678Y0188398D01*
G75*
G02*
X0171269Y0188988I0000591J0000000D01*
G01*
G37*
G36*
G01*
X0175009Y0188988D02*
X0176190Y0188988D01*
G75*
G02*
X0176780Y0188398I0000000J-000591D01*
G01*
X0176780Y0184362D01*
G75*
G02*
X0176190Y0183772I-000591J0000000D01*
G01*
X0175009Y0183772D01*
G75*
G02*
X0174418Y0184362I0000000J0000591D01*
G01*
X0174418Y0188398D01*
G75*
G02*
X0175009Y0188988I0000591J0000000D01*
G01*
G37*
G36*
G01*
X0175009Y0180031D02*
X0176190Y0180031D01*
G75*
G02*
X0176780Y0179441I0000000J-000591D01*
G01*
X0176780Y0175405D01*
G75*
G02*
X0176190Y0174815I-000591J0000000D01*
G01*
X0175009Y0174815D01*
G75*
G02*
X0174418Y0175405I0000000J0000591D01*
G01*
X0174418Y0179441D01*
G75*
G02*
X0175009Y0180031I0000591J0000000D01*
G01*
G37*
G36*
G01*
X0167528Y0180031D02*
X0168709Y0180031D01*
G75*
G02*
X0169300Y0179441I0000000J-000591D01*
G01*
X0169300Y0175405D01*
G75*
G02*
X0168709Y0174815I-000591J0000000D01*
G01*
X0167528Y0174815D01*
G75*
G02*
X0166938Y0175405I0000000J0000591D01*
G01*
X0166938Y0179441D01*
G75*
G02*
X0167528Y0180031I0000591J0000000D01*
G01*
G37*
G36*
G01*
X0189815Y0188713D02*
X0189815Y0190051D01*
G75*
G02*
X0190366Y0190602I0000551J0000000D01*
G01*
X0191468Y0190602D01*
G75*
G02*
X0192020Y0190051I0000000J-000551D01*
G01*
X0192020Y0188713D01*
G75*
G02*
X0191468Y0188161I-000551J0000000D01*
G01*
X0190366Y0188161D01*
G75*
G02*
X0189815Y0188713I0000000J0000551D01*
G01*
G37*
G36*
G01*
X0193594Y0188713D02*
X0193594Y0190051D01*
G75*
G02*
X0194146Y0190602I0000551J0000000D01*
G01*
X0195248Y0190602D01*
G75*
G02*
X0195799Y0190051I0000000J-000551D01*
G01*
X0195799Y0188713D01*
G75*
G02*
X0195248Y0188161I-000551J0000000D01*
G01*
X0194146Y0188161D01*
G75*
G02*
X0193594Y0188713I0000000J0000551D01*
G01*
G37*
G36*
G01*
X0167098Y0215228D02*
X0165760Y0215228D01*
G75*
G02*
X0165209Y0215779I0000000J0000551D01*
G01*
X0165209Y0216882D01*
G75*
G02*
X0165760Y0217433I0000551J0000000D01*
G01*
X0167098Y0217433D01*
G75*
G02*
X0167650Y0216882I0000000J-000551D01*
G01*
X0167650Y0215779D01*
G75*
G02*
X0167098Y0215228I-000551J0000000D01*
G01*
G37*
G36*
G01*
X0167098Y0219008D02*
X0165760Y0219008D01*
G75*
G02*
X0165209Y0219559I0000000J0000551D01*
G01*
X0165209Y0220661D01*
G75*
G02*
X0165760Y0221213I0000551J0000000D01*
G01*
X0167098Y0221213D01*
G75*
G02*
X0167650Y0220661I0000000J-000551D01*
G01*
X0167650Y0219559D01*
G75*
G02*
X0167098Y0219008I-000551J0000000D01*
G01*
G37*
G36*
G01*
X0162098Y0228575D02*
X0163437Y0228575D01*
G75*
G02*
X0163988Y0228024I0000000J-000551D01*
G01*
X0163988Y0226921D01*
G75*
G02*
X0163437Y0226370I-000551J0000000D01*
G01*
X0162098Y0226370D01*
G75*
G02*
X0161547Y0226921I0000000J0000551D01*
G01*
X0161547Y0228024D01*
G75*
G02*
X0162098Y0228575I0000551J0000000D01*
G01*
G37*
G36*
G01*
X0162098Y0224795D02*
X0163437Y0224795D01*
G75*
G02*
X0163988Y0224244I0000000J-000551D01*
G01*
X0163988Y0223142D01*
G75*
G02*
X0163437Y0222590I-000551J0000000D01*
G01*
X0162098Y0222590D01*
G75*
G02*
X0161547Y0223142I0000000J0000551D01*
G01*
X0161547Y0224244D01*
G75*
G02*
X0162098Y0224795I0000551J0000000D01*
G01*
G37*
G36*
G01*
X0170839Y0206823D02*
X0169500Y0206823D01*
G75*
G02*
X0168949Y0207374I0000000J0000551D01*
G01*
X0168949Y0208476D01*
G75*
G02*
X0169500Y0209028I0000551J0000000D01*
G01*
X0170839Y0209028D01*
G75*
G02*
X0171390Y0208476I0000000J-000551D01*
G01*
X0171390Y0207374D01*
G75*
G02*
X0170839Y0206823I-000551J0000000D01*
G01*
G37*
G36*
G01*
X0170839Y0210602D02*
X0169500Y0210602D01*
G75*
G02*
X0168949Y0211153I0000000J0000551D01*
G01*
X0168949Y0212256D01*
G75*
G02*
X0169500Y0212807I0000551J0000000D01*
G01*
X0170839Y0212807D01*
G75*
G02*
X0171390Y0212256I0000000J-000551D01*
G01*
X0171390Y0211153D01*
G75*
G02*
X0170839Y0210602I-000551J0000000D01*
G01*
G37*
G36*
G01*
X0165760Y0228378D02*
X0167098Y0228378D01*
G75*
G02*
X0167650Y0227827I0000000J-000551D01*
G01*
X0167650Y0226724D01*
G75*
G02*
X0167098Y0226173I-000551J0000000D01*
G01*
X0165760Y0226173D01*
G75*
G02*
X0165209Y0226724I0000000J0000551D01*
G01*
X0165209Y0227827D01*
G75*
G02*
X0165760Y0228378I0000551J0000000D01*
G01*
G37*
G36*
G01*
X0165760Y0224598D02*
X0167098Y0224598D01*
G75*
G02*
X0167650Y0224047I0000000J-000551D01*
G01*
X0167650Y0222945D01*
G75*
G02*
X0167098Y0222394I-000551J0000000D01*
G01*
X0165760Y0222394D01*
G75*
G02*
X0165209Y0222945I0000000J0000551D01*
G01*
X0165209Y0224047D01*
G75*
G02*
X0165760Y0224598I0000551J0000000D01*
G01*
G37*
G36*
G01*
X0187276Y0223102D02*
X0185937Y0223102D01*
G75*
G02*
X0185386Y0223653I0000000J0000551D01*
G01*
X0185386Y0224756D01*
G75*
G02*
X0185937Y0225307I0000551J0000000D01*
G01*
X0187276Y0225307D01*
G75*
G02*
X0187827Y0224756I0000000J-000551D01*
G01*
X0187827Y0223653D01*
G75*
G02*
X0187276Y0223102I-000551J0000000D01*
G01*
G37*
G36*
G01*
X0187276Y0226882D02*
X0185937Y0226882D01*
G75*
G02*
X0185386Y0227433I0000000J0000551D01*
G01*
X0185386Y0228535D01*
G75*
G02*
X0185937Y0229087I0000551J0000000D01*
G01*
X0187276Y0229087D01*
G75*
G02*
X0187827Y0228535I0000000J-000551D01*
G01*
X0187827Y0227433D01*
G75*
G02*
X0187276Y0226882I-000551J0000000D01*
G01*
G37*
G36*
G01*
X0194776Y0192593D02*
X0193988Y0192593D01*
G75*
G02*
X0193594Y0192987I0000000J0000394D01*
G01*
X0193594Y0198007D01*
G75*
G02*
X0193988Y0198400I0000394J0000000D01*
G01*
X0194776Y0198400D01*
G75*
G02*
X0195169Y0198007I0000000J-000394D01*
G01*
X0195169Y0192987D01*
G75*
G02*
X0194776Y0192593I-000394J0000000D01*
G01*
G37*
G36*
G01*
X0192216Y0192593D02*
X0191429Y0192593D01*
G75*
G02*
X0191035Y0192987I0000000J0000394D01*
G01*
X0191035Y0198007D01*
G75*
G02*
X0191429Y0198400I0000394J0000000D01*
G01*
X0192216Y0198400D01*
G75*
G02*
X0192610Y0198007I0000000J-000394D01*
G01*
X0192610Y0192987D01*
G75*
G02*
X0192216Y0192593I-000394J0000000D01*
G01*
G37*
G36*
G01*
X0189657Y0192593D02*
X0188870Y0192593D01*
G75*
G02*
X0188476Y0192987I0000000J0000394D01*
G01*
X0188476Y0198007D01*
G75*
G02*
X0188870Y0198400I0000394J0000000D01*
G01*
X0189657Y0198400D01*
G75*
G02*
X0190051Y0198007I0000000J-000394D01*
G01*
X0190051Y0192987D01*
G75*
G02*
X0189657Y0192593I-000394J0000000D01*
G01*
G37*
G36*
G01*
X0187098Y0192593D02*
X0186311Y0192593D01*
G75*
G02*
X0185917Y0192987I0000000J0000394D01*
G01*
X0185917Y0198007D01*
G75*
G02*
X0186311Y0198400I0000394J0000000D01*
G01*
X0187098Y0198400D01*
G75*
G02*
X0187492Y0198007I0000000J-000394D01*
G01*
X0187492Y0192987D01*
G75*
G02*
X0187098Y0192593I-000394J0000000D01*
G01*
G37*
G36*
G01*
X0184539Y0192593D02*
X0183752Y0192593D01*
G75*
G02*
X0183358Y0192987I0000000J0000394D01*
G01*
X0183358Y0198007D01*
G75*
G02*
X0183752Y0198400I0000394J0000000D01*
G01*
X0184539Y0198400D01*
G75*
G02*
X0184933Y0198007I0000000J-000394D01*
G01*
X0184933Y0192987D01*
G75*
G02*
X0184539Y0192593I-000394J0000000D01*
G01*
G37*
G36*
G01*
X0181980Y0192593D02*
X0181193Y0192593D01*
G75*
G02*
X0180799Y0192987I0000000J0000394D01*
G01*
X0180799Y0198007D01*
G75*
G02*
X0181193Y0198400I0000394J0000000D01*
G01*
X0181980Y0198400D01*
G75*
G02*
X0182374Y0198007I0000000J-000394D01*
G01*
X0182374Y0192987D01*
G75*
G02*
X0181980Y0192593I-000394J0000000D01*
G01*
G37*
G36*
G01*
X0179421Y0192593D02*
X0178634Y0192593D01*
G75*
G02*
X0178240Y0192987I0000000J0000394D01*
G01*
X0178240Y0198007D01*
G75*
G02*
X0178634Y0198400I0000394J0000000D01*
G01*
X0179421Y0198400D01*
G75*
G02*
X0179815Y0198007I0000000J-000394D01*
G01*
X0179815Y0192987D01*
G75*
G02*
X0179421Y0192593I-000394J0000000D01*
G01*
G37*
G36*
G01*
X0179421Y0215133D02*
X0178634Y0215133D01*
G75*
G02*
X0178240Y0215526I0000000J0000394D01*
G01*
X0178240Y0220546D01*
G75*
G02*
X0178634Y0220940I0000394J0000000D01*
G01*
X0179421Y0220940D01*
G75*
G02*
X0179815Y0220546I0000000J-000394D01*
G01*
X0179815Y0215526D01*
G75*
G02*
X0179421Y0215133I-000394J0000000D01*
G01*
G37*
G36*
G01*
X0181980Y0215133D02*
X0181193Y0215133D01*
G75*
G02*
X0180799Y0215526I0000000J0000394D01*
G01*
X0180799Y0220546D01*
G75*
G02*
X0181193Y0220940I0000394J0000000D01*
G01*
X0181980Y0220940D01*
G75*
G02*
X0182374Y0220546I0000000J-000394D01*
G01*
X0182374Y0215526D01*
G75*
G02*
X0181980Y0215133I-000394J0000000D01*
G01*
G37*
G36*
G01*
X0184539Y0215133D02*
X0183752Y0215133D01*
G75*
G02*
X0183358Y0215526I0000000J0000394D01*
G01*
X0183358Y0220546D01*
G75*
G02*
X0183752Y0220940I0000394J0000000D01*
G01*
X0184539Y0220940D01*
G75*
G02*
X0184933Y0220546I0000000J-000394D01*
G01*
X0184933Y0215526D01*
G75*
G02*
X0184539Y0215133I-000394J0000000D01*
G01*
G37*
G36*
G01*
X0187098Y0215133D02*
X0186311Y0215133D01*
G75*
G02*
X0185917Y0215526I0000000J0000394D01*
G01*
X0185917Y0220546D01*
G75*
G02*
X0186311Y0220940I0000394J0000000D01*
G01*
X0187098Y0220940D01*
G75*
G02*
X0187492Y0220546I0000000J-000394D01*
G01*
X0187492Y0215526D01*
G75*
G02*
X0187098Y0215133I-000394J0000000D01*
G01*
G37*
G36*
G01*
X0189657Y0215133D02*
X0188870Y0215133D01*
G75*
G02*
X0188476Y0215526I0000000J0000394D01*
G01*
X0188476Y0220546D01*
G75*
G02*
X0188870Y0220940I0000394J0000000D01*
G01*
X0189657Y0220940D01*
G75*
G02*
X0190051Y0220546I0000000J-000394D01*
G01*
X0190051Y0215526D01*
G75*
G02*
X0189657Y0215133I-000394J0000000D01*
G01*
G37*
G36*
G01*
X0192216Y0215133D02*
X0191429Y0215133D01*
G75*
G02*
X0191035Y0215526I0000000J0000394D01*
G01*
X0191035Y0220546D01*
G75*
G02*
X0191429Y0220940I0000394J0000000D01*
G01*
X0192216Y0220940D01*
G75*
G02*
X0192610Y0220546I0000000J-000394D01*
G01*
X0192610Y0215526D01*
G75*
G02*
X0192216Y0215133I-000394J0000000D01*
G01*
G37*
G36*
G01*
X0194776Y0215133D02*
X0193988Y0215133D01*
G75*
G02*
X0193594Y0215526I0000000J0000394D01*
G01*
X0193594Y0220546D01*
G75*
G02*
X0193988Y0220940I0000394J0000000D01*
G01*
X0194776Y0220940D01*
G75*
G02*
X0195169Y0220546I0000000J-000394D01*
G01*
X0195169Y0215526D01*
G75*
G02*
X0194776Y0215133I-000394J0000000D01*
G01*
G37*
G36*
G01*
X0186905Y0174950D02*
X0183362Y0174950D01*
G75*
G02*
X0182378Y0175934I0000000J0000984D01*
G01*
X0182378Y0178001D01*
G75*
G02*
X0183362Y0178985I0000984J0000000D01*
G01*
X0186905Y0178985D01*
G75*
G02*
X0187890Y0178001I0000000J-000984D01*
G01*
X0187890Y0175934D01*
G75*
G02*
X0186905Y0174950I-000984J0000000D01*
G01*
G37*
G36*
G01*
X0186905Y0182135D02*
X0183362Y0182135D01*
G75*
G02*
X0182378Y0183119I0000000J0000984D01*
G01*
X0182378Y0185186D01*
G75*
G02*
X0183362Y0186170I0000984J0000000D01*
G01*
X0186905Y0186170D01*
G75*
G02*
X0187890Y0185186I0000000J-000984D01*
G01*
X0187890Y0183119D01*
G75*
G02*
X0186905Y0182135I-000984J0000000D01*
G01*
G37*
G36*
G01*
X0173181Y0221193D02*
X0174638Y0221193D01*
G75*
G02*
X0175169Y0220661I0000000J-000531D01*
G01*
X0175169Y0219598D01*
G75*
G02*
X0174638Y0219067I-000531J0000000D01*
G01*
X0173181Y0219067D01*
G75*
G02*
X0172650Y0219598I0000000J0000531D01*
G01*
X0172650Y0220661D01*
G75*
G02*
X0173181Y0221193I0000531J0000000D01*
G01*
G37*
G36*
G01*
X0173181Y0217177D02*
X0174638Y0217177D01*
G75*
G02*
X0175169Y0216646I0000000J-000531D01*
G01*
X0175169Y0215583D01*
G75*
G02*
X0174638Y0215051I-000531J0000000D01*
G01*
X0173181Y0215051D01*
G75*
G02*
X0172650Y0215583I0000000J0000531D01*
G01*
X0172650Y0216646D01*
G75*
G02*
X0173181Y0217177I0000531J0000000D01*
G01*
G37*
G36*
G01*
X0162256Y0180760D02*
X0163594Y0180760D01*
G75*
G02*
X0164146Y0180209I0000000J-000551D01*
G01*
X0164146Y0179106D01*
G75*
G02*
X0163594Y0178555I-000551J0000000D01*
G01*
X0162256Y0178555D01*
G75*
G02*
X0161705Y0179106I0000000J0000551D01*
G01*
X0161705Y0180209D01*
G75*
G02*
X0162256Y0180760I0000551J0000000D01*
G01*
G37*
G36*
G01*
X0162256Y0176980D02*
X0163594Y0176980D01*
G75*
G02*
X0164146Y0176429I0000000J-000551D01*
G01*
X0164146Y0175327D01*
G75*
G02*
X0163594Y0174776I-000551J0000000D01*
G01*
X0162256Y0174776D01*
G75*
G02*
X0161705Y0175327I0000000J0000551D01*
G01*
X0161705Y0176429D01*
G75*
G02*
X0162256Y0176980I0000551J0000000D01*
G01*
G37*
G36*
G01*
X0169441Y0228870D02*
X0170898Y0228870D01*
G75*
G02*
X0171429Y0228339I0000000J-000531D01*
G01*
X0171429Y0227276D01*
G75*
G02*
X0170898Y0226744I-000531J0000000D01*
G01*
X0169441Y0226744D01*
G75*
G02*
X0168909Y0227276I0000000J0000531D01*
G01*
X0168909Y0228339D01*
G75*
G02*
X0169441Y0228870I0000531J0000000D01*
G01*
G37*
G36*
G01*
X0169441Y0224854D02*
X0170898Y0224854D01*
G75*
G02*
X0171429Y0224323I0000000J-000531D01*
G01*
X0171429Y0223260D01*
G75*
G02*
X0170898Y0222728I-000531J0000000D01*
G01*
X0169441Y0222728D01*
G75*
G02*
X0168909Y0223260I0000000J0000531D01*
G01*
X0168909Y0224323D01*
G75*
G02*
X0169441Y0224854I0000531J0000000D01*
G01*
G37*
G36*
G01*
X0173181Y0212937D02*
X0174637Y0212937D01*
G75*
G02*
X0175169Y0212405I0000000J-000531D01*
G01*
X0175169Y0211342D01*
G75*
G02*
X0174637Y0210811I-000531J0000000D01*
G01*
X0173181Y0210811D01*
G75*
G02*
X0172649Y0211342I0000000J0000531D01*
G01*
X0172649Y0212405D01*
G75*
G02*
X0173181Y0212937I0000531J0000000D01*
G01*
G37*
G36*
G01*
X0173181Y0208921D02*
X0174637Y0208921D01*
G75*
G02*
X0175169Y0208389I0000000J-000531D01*
G01*
X0175169Y0207326D01*
G75*
G02*
X0174637Y0206795I-000531J0000000D01*
G01*
X0173181Y0206795D01*
G75*
G02*
X0172649Y0207326I0000000J0000531D01*
G01*
X0172649Y0208389D01*
G75*
G02*
X0173181Y0208921I0000531J0000000D01*
G01*
G37*
G36*
G01*
X0190937Y0186170D02*
X0194480Y0186170D01*
G75*
G02*
X0195465Y0185186I0000000J-000984D01*
G01*
X0195465Y0183119D01*
G75*
G02*
X0194480Y0182135I-000984J0000000D01*
G01*
X0190937Y0182135D01*
G75*
G02*
X0189953Y0183119I0000000J0000984D01*
G01*
X0189953Y0185186D01*
G75*
G02*
X0190937Y0186170I0000984J0000000D01*
G01*
G37*
G36*
G01*
X0190937Y0178985D02*
X0194480Y0178985D01*
G75*
G02*
X0195465Y0178001I0000000J-000984D01*
G01*
X0195465Y0175934D01*
G75*
G02*
X0194480Y0174950I-000984J0000000D01*
G01*
X0190937Y0174950D01*
G75*
G02*
X0189953Y0175934I0000000J0000984D01*
G01*
X0189953Y0178001D01*
G75*
G02*
X0190937Y0178985I0000984J0000000D01*
G01*
G37*
G36*
G01*
X0162039Y0212886D02*
X0163496Y0212886D01*
G75*
G02*
X0164028Y0212354I0000000J-000531D01*
G01*
X0164028Y0211291D01*
G75*
G02*
X0163496Y0210760I-000531J0000000D01*
G01*
X0162039Y0210760D01*
G75*
G02*
X0161508Y0211291I0000000J0000531D01*
G01*
X0161508Y0212354D01*
G75*
G02*
X0162039Y0212886I0000531J0000000D01*
G01*
G37*
G36*
G01*
X0162039Y0208870D02*
X0163496Y0208870D01*
G75*
G02*
X0164028Y0208339I0000000J-000531D01*
G01*
X0164028Y0207276D01*
G75*
G02*
X0163496Y0206744I-000531J0000000D01*
G01*
X0162039Y0206744D01*
G75*
G02*
X0161508Y0207276I0000000J0000531D01*
G01*
X0161508Y0208339D01*
G75*
G02*
X0162039Y0208870I0000531J0000000D01*
G01*
G37*
G36*
G01*
X0195543Y0222571D02*
X0194087Y0222571D01*
G75*
G02*
X0193555Y0223102I0000000J0000531D01*
G01*
X0193555Y0224165D01*
G75*
G02*
X0194087Y0224697I0000531J0000000D01*
G01*
X0195543Y0224697D01*
G75*
G02*
X0196075Y0224165I0000000J-000531D01*
G01*
X0196075Y0223102D01*
G75*
G02*
X0195543Y0222571I-000531J0000000D01*
G01*
G37*
G36*
G01*
X0195543Y0226587D02*
X0194087Y0226587D01*
G75*
G02*
X0193555Y0227118I0000000J0000531D01*
G01*
X0193555Y0228181D01*
G75*
G02*
X0194087Y0228713I0000531J0000000D01*
G01*
X0195543Y0228713D01*
G75*
G02*
X0196075Y0228181I0000000J-000531D01*
G01*
X0196075Y0227118D01*
G75*
G02*
X0195543Y0226587I-000531J0000000D01*
G01*
G37*
G36*
G01*
X0183594Y0223024D02*
X0182138Y0223024D01*
G75*
G02*
X0181606Y0223555I0000000J0000531D01*
G01*
X0181606Y0224618D01*
G75*
G02*
X0182138Y0225150I0000531J0000000D01*
G01*
X0183594Y0225150D01*
G75*
G02*
X0184126Y0224618I0000000J-000531D01*
G01*
X0184126Y0223555D01*
G75*
G02*
X0183594Y0223024I-000531J0000000D01*
G01*
G37*
G36*
G01*
X0183594Y0227039D02*
X0182138Y0227039D01*
G75*
G02*
X0181606Y0227571I0000000J0000531D01*
G01*
X0181606Y0228634D01*
G75*
G02*
X0182138Y0229165I0000531J0000000D01*
G01*
X0183594Y0229165D01*
G75*
G02*
X0184126Y0228634I0000000J-000531D01*
G01*
X0184126Y0227571D01*
G75*
G02*
X0183594Y0227039I-000531J0000000D01*
G01*
G37*
G36*
G01*
X0169441Y0221488D02*
X0170898Y0221488D01*
G75*
G02*
X0171429Y0220957I0000000J-000531D01*
G01*
X0171429Y0219894D01*
G75*
G02*
X0170898Y0219362I-000531J0000000D01*
G01*
X0169441Y0219362D01*
G75*
G02*
X0168909Y0219894I0000000J0000531D01*
G01*
X0168909Y0220957D01*
G75*
G02*
X0169441Y0221488I0000531J0000000D01*
G01*
G37*
G36*
G01*
X0169441Y0217472D02*
X0170898Y0217472D01*
G75*
G02*
X0171429Y0216941I0000000J-000531D01*
G01*
X0171429Y0215878D01*
G75*
G02*
X0170898Y0215346I-000531J0000000D01*
G01*
X0169441Y0215346D01*
G75*
G02*
X0168909Y0215878I0000000J0000531D01*
G01*
X0168909Y0216941D01*
G75*
G02*
X0169441Y0217472I0000531J0000000D01*
G01*
G37*
G36*
G01*
X0178358Y0229185D02*
X0179697Y0229185D01*
G75*
G02*
X0180248Y0228634I0000000J-000551D01*
G01*
X0180248Y0227531D01*
G75*
G02*
X0179697Y0226980I-000551J0000000D01*
G01*
X0178358Y0226980D01*
G75*
G02*
X0177807Y0227531I0000000J0000551D01*
G01*
X0177807Y0228634D01*
G75*
G02*
X0178358Y0229185I0000551J0000000D01*
G01*
G37*
G36*
G01*
X0178358Y0225405D02*
X0179697Y0225405D01*
G75*
G02*
X0180248Y0224854I0000000J-000551D01*
G01*
X0180248Y0223752D01*
G75*
G02*
X0179697Y0223201I-000551J0000000D01*
G01*
X0178358Y0223201D01*
G75*
G02*
X0177807Y0223752I0000000J0000551D01*
G01*
X0177807Y0224854D01*
G75*
G02*
X0178358Y0225405I0000551J0000000D01*
G01*
G37*
G36*
G01*
X0188573Y0190037D02*
X0188573Y0188699D01*
G75*
G02*
X0188022Y0188147I-000551J0000000D01*
G01*
X0186920Y0188147D01*
G75*
G02*
X0186368Y0188699I0000000J0000551D01*
G01*
X0186368Y0190037D01*
G75*
G02*
X0186920Y0190588I0000551J0000000D01*
G01*
X0188022Y0190588D01*
G75*
G02*
X0188573Y0190037I0000000J-000551D01*
G01*
G37*
G36*
G01*
X0184794Y0190037D02*
X0184794Y0188699D01*
G75*
G02*
X0184243Y0188147I-000551J0000000D01*
G01*
X0183140Y0188147D01*
G75*
G02*
X0182589Y0188699I0000000J0000551D01*
G01*
X0182589Y0190037D01*
G75*
G02*
X0183140Y0190588I0000551J0000000D01*
G01*
X0184243Y0190588D01*
G75*
G02*
X0184794Y0190037I0000000J-000551D01*
G01*
G37*
G36*
G01*
X0174638Y0222531D02*
X0173181Y0222531D01*
G75*
G02*
X0172650Y0223063I0000000J0000531D01*
G01*
X0172650Y0224126D01*
G75*
G02*
X0173181Y0224657I0000531J0000000D01*
G01*
X0174638Y0224657D01*
G75*
G02*
X0175169Y0224126I0000000J-000531D01*
G01*
X0175169Y0223063D01*
G75*
G02*
X0174638Y0222531I-000531J0000000D01*
G01*
G37*
G36*
G01*
X0174638Y0226547D02*
X0173181Y0226547D01*
G75*
G02*
X0172650Y0227079I0000000J0000531D01*
G01*
X0172650Y0228142D01*
G75*
G02*
X0173181Y0228673I0000531J0000000D01*
G01*
X0174638Y0228673D01*
G75*
G02*
X0175169Y0228142I0000000J-000531D01*
G01*
X0175169Y0227079D01*
G75*
G02*
X0174638Y0226547I-000531J0000000D01*
G01*
G37*
G36*
G01*
X0163279Y0205130D02*
X0164461Y0205130D01*
G75*
G02*
X0165051Y0204539I0000000J-000591D01*
G01*
X0165051Y0200504D01*
G75*
G02*
X0164461Y0199913I-000591J0000000D01*
G01*
X0163279Y0199913D01*
G75*
G02*
X0162689Y0200504I0000000J0000591D01*
G01*
X0162689Y0204539D01*
G75*
G02*
X0163279Y0205130I0000591J0000000D01*
G01*
G37*
G36*
G01*
X0167020Y0205130D02*
X0168201Y0205130D01*
G75*
G02*
X0168791Y0204539I0000000J-000591D01*
G01*
X0168791Y0200504D01*
G75*
G02*
X0168201Y0199913I-000591J0000000D01*
G01*
X0167020Y0199913D01*
G75*
G02*
X0166429Y0200504I0000000J0000591D01*
G01*
X0166429Y0204539D01*
G75*
G02*
X0167020Y0205130I0000591J0000000D01*
G01*
G37*
G36*
G01*
X0170760Y0205130D02*
X0171941Y0205130D01*
G75*
G02*
X0172531Y0204539I0000000J-000591D01*
G01*
X0172531Y0200504D01*
G75*
G02*
X0171941Y0199913I-000591J0000000D01*
G01*
X0170760Y0199913D01*
G75*
G02*
X0170169Y0200504I0000000J0000591D01*
G01*
X0170169Y0204539D01*
G75*
G02*
X0170760Y0205130I0000591J0000000D01*
G01*
G37*
G36*
G01*
X0170760Y0196173D02*
X0171941Y0196173D01*
G75*
G02*
X0172531Y0195583I0000000J-000591D01*
G01*
X0172531Y0191547D01*
G75*
G02*
X0171941Y0190957I-000591J0000000D01*
G01*
X0170760Y0190957D01*
G75*
G02*
X0170169Y0191547I0000000J0000591D01*
G01*
X0170169Y0195583D01*
G75*
G02*
X0170760Y0196173I0000591J0000000D01*
G01*
G37*
G36*
G01*
X0163279Y0196173D02*
X0164461Y0196173D01*
G75*
G02*
X0165051Y0195583I0000000J-000591D01*
G01*
X0165051Y0191547D01*
G75*
G02*
X0164461Y0190957I-000591J0000000D01*
G01*
X0163279Y0190957D01*
G75*
G02*
X0162689Y0191547I0000000J0000591D01*
G01*
X0162689Y0195583D01*
G75*
G02*
X0163279Y0196173I0000591J0000000D01*
G01*
G37*
G36*
G01*
X0167098Y0206823D02*
X0165760Y0206823D01*
G75*
G02*
X0165209Y0207374I0000000J0000551D01*
G01*
X0165209Y0208476D01*
G75*
G02*
X0165760Y0209028I0000551J0000000D01*
G01*
X0167098Y0209028D01*
G75*
G02*
X0167650Y0208476I0000000J-000551D01*
G01*
X0167650Y0207374D01*
G75*
G02*
X0167098Y0206823I-000551J0000000D01*
G01*
G37*
G36*
G01*
X0167098Y0210602D02*
X0165760Y0210602D01*
G75*
G02*
X0165209Y0211153I0000000J0000551D01*
G01*
X0165209Y0212256D01*
G75*
G02*
X0165760Y0212807I0000551J0000000D01*
G01*
X0167098Y0212807D01*
G75*
G02*
X0167650Y0212256I0000000J-000551D01*
G01*
X0167650Y0211153D01*
G75*
G02*
X0167098Y0210602I-000551J0000000D01*
G01*
G37*
X0156878Y0171736D02*
%LPD*%
G01*
D34*
X0129713Y0230004D03*
X0134437Y0230004D03*
X0124988Y0230004D03*
X0120264Y0230004D03*
X0145697Y0173212D03*
X0149634Y0173212D03*
X0222776Y0232382D02*
%LPD*%
G01*
D95*
X0234390Y0141201D03*
X0246201Y0149075D03*
X0234390Y0156949D03*
D176*
X0233603Y0228209D03*
X0229603Y0208209D03*
X0237603Y0208209D03*
D403*
X0272481Y0138721D03*
D404*
X0272481Y0148721D03*
X0272481Y0158721D03*
G36*
G01*
X0230135Y0152677D02*
X0231493Y0152677D01*
G75*
G02*
X0232074Y0152097I0000000J-000581D01*
G01*
X0232074Y0150935D01*
G75*
G02*
X0231493Y0150354I-000581J0000000D01*
G01*
X0230135Y0150354D01*
G75*
G02*
X0229554Y0150935I0000000J0000581D01*
G01*
X0229554Y0152097D01*
G75*
G02*
X0230135Y0152677I0000581J0000000D01*
G01*
G37*
G36*
G01*
X0230135Y0148858D02*
X0231493Y0148858D01*
G75*
G02*
X0232074Y0148278I0000000J-000581D01*
G01*
X0232074Y0147116D01*
G75*
G02*
X0231493Y0146536I-000581J0000000D01*
G01*
X0230135Y0146536D01*
G75*
G02*
X0229554Y0147116I0000000J0000581D01*
G01*
X0229554Y0148278D01*
G75*
G02*
X0230135Y0148858I0000581J0000000D01*
G01*
G37*
G36*
G01*
X0245424Y0138209D02*
X0246782Y0138209D01*
G75*
G02*
X0247363Y0137628I0000000J-000581D01*
G01*
X0247363Y0136467D01*
G75*
G02*
X0246782Y0135886I-000581J0000000D01*
G01*
X0245424Y0135886D01*
G75*
G02*
X0244843Y0136467I0000000J0000581D01*
G01*
X0244843Y0137628D01*
G75*
G02*
X0245424Y0138209I0000581J0000000D01*
G01*
G37*
G36*
G01*
X0245424Y0134390D02*
X0246782Y0134390D01*
G75*
G02*
X0247363Y0133809I0000000J-000581D01*
G01*
X0247363Y0132648D01*
G75*
G02*
X0246782Y0132067I-000581J0000000D01*
G01*
X0245424Y0132067D01*
G75*
G02*
X0244843Y0132648I0000000J0000581D01*
G01*
X0244843Y0133809D01*
G75*
G02*
X0245424Y0134390I0000581J0000000D01*
G01*
G37*
G36*
G01*
X0271620Y0188091D02*
X0269602Y0188091D01*
G75*
G02*
X0268741Y0188952I0000000J0000861D01*
G01*
X0268741Y0190674D01*
G75*
G02*
X0269602Y0191536I0000861J0000000D01*
G01*
X0271620Y0191536D01*
G75*
G02*
X0272481Y0190674I0000000J-000861D01*
G01*
X0272481Y0188952D01*
G75*
G02*
X0271620Y0188091I-000861J0000000D01*
G01*
G37*
G36*
G01*
X0271620Y0194291D02*
X0269602Y0194291D01*
G75*
G02*
X0268741Y0195153I0000000J0000861D01*
G01*
X0268741Y0196875D01*
G75*
G02*
X0269602Y0197736I0000861J0000000D01*
G01*
X0271620Y0197736D01*
G75*
G02*
X0272481Y0196875I0000000J-000861D01*
G01*
X0272481Y0195153D01*
G75*
G02*
X0271620Y0194291I-000861J0000000D01*
G01*
G37*
G36*
G01*
X0227294Y0146536D02*
X0225935Y0146536D01*
G75*
G02*
X0225355Y0147116I0000000J0000581D01*
G01*
X0225355Y0148278D01*
G75*
G02*
X0225935Y0148858I0000581J0000000D01*
G01*
X0227294Y0148858D01*
G75*
G02*
X0227874Y0148278I0000000J-000581D01*
G01*
X0227874Y0147116D01*
G75*
G02*
X0227294Y0146536I-000581J0000000D01*
G01*
G37*
G36*
G01*
X0227294Y0150354D02*
X0225935Y0150354D01*
G75*
G02*
X0225355Y0150935I0000000J0000581D01*
G01*
X0225355Y0152097D01*
G75*
G02*
X0225935Y0152677I0000581J0000000D01*
G01*
X0227294Y0152677D01*
G75*
G02*
X0227874Y0152097I0000000J-000581D01*
G01*
X0227874Y0150935D01*
G75*
G02*
X0227294Y0150354I-000581J0000000D01*
G01*
G37*
G36*
G01*
X0266290Y0206237D02*
X0267648Y0206237D01*
G75*
G02*
X0268229Y0205657I0000000J-000581D01*
G01*
X0268229Y0204495D01*
G75*
G02*
X0267648Y0203915I-000581J0000000D01*
G01*
X0266290Y0203915D01*
G75*
G02*
X0265709Y0204495I0000000J0000581D01*
G01*
X0265709Y0205657D01*
G75*
G02*
X0266290Y0206237I0000581J0000000D01*
G01*
G37*
G36*
G01*
X0266290Y0202419D02*
X0267648Y0202419D01*
G75*
G02*
X0268229Y0201838I0000000J-000581D01*
G01*
X0268229Y0200676D01*
G75*
G02*
X0267648Y0200096I-000581J0000000D01*
G01*
X0266290Y0200096D01*
G75*
G02*
X0265709Y0200676I0000000J0000581D01*
G01*
X0265709Y0201838D01*
G75*
G02*
X0266290Y0202419I0000581J0000000D01*
G01*
G37*
G36*
G01*
X0264420Y0198150D02*
X0265778Y0198150D01*
G75*
G02*
X0266359Y0197569I0000000J-000581D01*
G01*
X0266359Y0196408D01*
G75*
G02*
X0265778Y0195827I-000581J0000000D01*
G01*
X0264420Y0195827D01*
G75*
G02*
X0263839Y0196408I0000000J0000581D01*
G01*
X0263839Y0197569D01*
G75*
G02*
X0264420Y0198150I0000581J0000000D01*
G01*
G37*
G36*
G01*
X0264420Y0194331D02*
X0265778Y0194331D01*
G75*
G02*
X0266359Y0193750I0000000J-000581D01*
G01*
X0266359Y0192589D01*
G75*
G02*
X0265778Y0192008I-000581J0000000D01*
G01*
X0264420Y0192008D01*
G75*
G02*
X0263839Y0192589I0000000J0000581D01*
G01*
X0263839Y0193750D01*
G75*
G02*
X0264420Y0194331I0000581J0000000D01*
G01*
G37*
G36*
G01*
X0271752Y0226762D02*
X0271752Y0225404D01*
G75*
G02*
X0271172Y0224823I-000581J0000000D01*
G01*
X0270010Y0224823D01*
G75*
G02*
X0269430Y0225404I0000000J0000581D01*
G01*
X0269430Y0226762D01*
G75*
G02*
X0270010Y0227343I0000581J0000000D01*
G01*
X0271172Y0227343D01*
G75*
G02*
X0271752Y0226762I0000000J-000581D01*
G01*
G37*
G36*
G01*
X0267933Y0226762D02*
X0267933Y0225404D01*
G75*
G02*
X0267353Y0224823I-000581J0000000D01*
G01*
X0266191Y0224823D01*
G75*
G02*
X0265611Y0225404I0000000J0000581D01*
G01*
X0265611Y0226762D01*
G75*
G02*
X0266191Y0227343I0000581J0000000D01*
G01*
X0267353Y0227343D01*
G75*
G02*
X0267933Y0226762I0000000J-000581D01*
G01*
G37*
G36*
G01*
X0254164Y0177244D02*
X0252806Y0177244D01*
G75*
G02*
X0252225Y0177825I0000000J0000581D01*
G01*
X0252225Y0178986D01*
G75*
G02*
X0252806Y0179567I0000581J0000000D01*
G01*
X0254164Y0179567D01*
G75*
G02*
X0254745Y0178986I0000000J-000581D01*
G01*
X0254745Y0177825D01*
G75*
G02*
X0254164Y0177244I-000581J0000000D01*
G01*
G37*
G36*
G01*
X0254164Y0181063D02*
X0252806Y0181063D01*
G75*
G02*
X0252225Y0181644I0000000J0000581D01*
G01*
X0252225Y0182805D01*
G75*
G02*
X0252806Y0183386I0000581J0000000D01*
G01*
X0254164Y0183386D01*
G75*
G02*
X0254745Y0182805I0000000J-000581D01*
G01*
X0254745Y0181644D01*
G75*
G02*
X0254164Y0181063I-000581J0000000D01*
G01*
G37*
G36*
G01*
X0248869Y0183386D02*
X0250227Y0183386D01*
G75*
G02*
X0250807Y0182805I0000000J-000581D01*
G01*
X0250807Y0181644D01*
G75*
G02*
X0250227Y0181063I-000581J0000000D01*
G01*
X0248869Y0181063D01*
G75*
G02*
X0248288Y0181644I0000000J0000581D01*
G01*
X0248288Y0182805D01*
G75*
G02*
X0248869Y0183386I0000581J0000000D01*
G01*
G37*
G36*
G01*
X0248869Y0179567D02*
X0250227Y0179567D01*
G75*
G02*
X0250807Y0178986I0000000J-000581D01*
G01*
X0250807Y0177825D01*
G75*
G02*
X0250227Y0177244I-000581J0000000D01*
G01*
X0248869Y0177244D01*
G75*
G02*
X0248288Y0177825I0000000J0000581D01*
G01*
X0248288Y0178986D01*
G75*
G02*
X0248869Y0179567I0000581J0000000D01*
G01*
G37*
G36*
G01*
X0251309Y0135906D02*
X0249951Y0135906D01*
G75*
G02*
X0249370Y0136486I0000000J0000581D01*
G01*
X0249370Y0137648D01*
G75*
G02*
X0249951Y0138228I0000581J0000000D01*
G01*
X0251309Y0138228D01*
G75*
G02*
X0251890Y0137648I0000000J-000581D01*
G01*
X0251890Y0136486D01*
G75*
G02*
X0251309Y0135906I-000581J0000000D01*
G01*
G37*
G36*
G01*
X0251309Y0139725D02*
X0249951Y0139725D01*
G75*
G02*
X0249370Y0140305I0000000J0000581D01*
G01*
X0249370Y0141467D01*
G75*
G02*
X0249951Y0142047I0000581J0000000D01*
G01*
X0251309Y0142047D01*
G75*
G02*
X0251890Y0141467I0000000J-000581D01*
G01*
X0251890Y0140305D01*
G75*
G02*
X0251309Y0139725I-000581J0000000D01*
G01*
G37*
D406*
X0227894Y0190256D03*
X0230453Y0190256D03*
X0233012Y0190256D03*
X0235571Y0190256D03*
X0238130Y0190256D03*
X0240689Y0190256D03*
X0243248Y0190256D03*
X0243248Y0167028D03*
X0240689Y0167028D03*
X0238130Y0167028D03*
X0235571Y0167028D03*
X0233012Y0167028D03*
X0230453Y0167028D03*
X0227894Y0167028D03*
G36*
G01*
X0271388Y0200079D02*
X0270030Y0200079D01*
G75*
G02*
X0269449Y0200660I0000000J0000581D01*
G01*
X0269449Y0201821D01*
G75*
G02*
X0270030Y0202402I0000581J0000000D01*
G01*
X0271388Y0202402D01*
G75*
G02*
X0271969Y0201821I0000000J-000581D01*
G01*
X0271969Y0200660D01*
G75*
G02*
X0271388Y0200079I-000581J0000000D01*
G01*
G37*
G36*
G01*
X0271388Y0203898D02*
X0270030Y0203898D01*
G75*
G02*
X0269449Y0204478I0000000J0000581D01*
G01*
X0269449Y0205640D01*
G75*
G02*
X0270030Y0206221I0000581J0000000D01*
G01*
X0271388Y0206221D01*
G75*
G02*
X0271969Y0205640I0000000J-000581D01*
G01*
X0271969Y0204478D01*
G75*
G02*
X0271388Y0203898I-000581J0000000D01*
G01*
G37*
G36*
G01*
X0273770Y0206221D02*
X0275128Y0206221D01*
G75*
G02*
X0275709Y0205640I0000000J-000581D01*
G01*
X0275709Y0204478D01*
G75*
G02*
X0275128Y0203898I-000581J0000000D01*
G01*
X0273770Y0203898D01*
G75*
G02*
X0273189Y0204478I0000000J0000581D01*
G01*
X0273189Y0205640D01*
G75*
G02*
X0273770Y0206221I0000581J0000000D01*
G01*
G37*
G36*
G01*
X0273770Y0202402D02*
X0275128Y0202402D01*
G75*
G02*
X0275709Y0201821I0000000J-000581D01*
G01*
X0275709Y0200660D01*
G75*
G02*
X0275128Y0200079I-000581J0000000D01*
G01*
X0273770Y0200079D01*
G75*
G02*
X0273189Y0200660I0000000J0000581D01*
G01*
X0273189Y0201821D01*
G75*
G02*
X0273770Y0202402I0000581J0000000D01*
G01*
G37*
G36*
G01*
X0264321Y0145984D02*
X0265680Y0145984D01*
G75*
G02*
X0266260Y0145404I0000000J-000581D01*
G01*
X0266260Y0144242D01*
G75*
G02*
X0265680Y0143662I-000581J0000000D01*
G01*
X0264321Y0143662D01*
G75*
G02*
X0263741Y0144242I0000000J0000581D01*
G01*
X0263741Y0145404D01*
G75*
G02*
X0264321Y0145984I0000581J0000000D01*
G01*
G37*
G36*
G01*
X0264321Y0142165D02*
X0265680Y0142165D01*
G75*
G02*
X0266260Y0141585I0000000J-000581D01*
G01*
X0266260Y0140423D01*
G75*
G02*
X0265680Y0139843I-000581J0000000D01*
G01*
X0264321Y0139843D01*
G75*
G02*
X0263741Y0140423I0000000J0000581D01*
G01*
X0263741Y0141585D01*
G75*
G02*
X0264321Y0142165I0000581J0000000D01*
G01*
G37*
G36*
G01*
X0235023Y0152677D02*
X0236382Y0152677D01*
G75*
G02*
X0236962Y0152097I0000000J-000581D01*
G01*
X0236962Y0150935D01*
G75*
G02*
X0236382Y0150354I-000581J0000000D01*
G01*
X0235023Y0150354D01*
G75*
G02*
X0234443Y0150935I0000000J0000581D01*
G01*
X0234443Y0152097D01*
G75*
G02*
X0235023Y0152677I0000581J0000000D01*
G01*
G37*
G36*
G01*
X0235023Y0148858D02*
X0236382Y0148858D01*
G75*
G02*
X0236962Y0148278I0000000J-000581D01*
G01*
X0236962Y0147116D01*
G75*
G02*
X0236382Y0146536I-000581J0000000D01*
G01*
X0235023Y0146536D01*
G75*
G02*
X0234443Y0147116I0000000J0000581D01*
G01*
X0234443Y0148278D01*
G75*
G02*
X0235023Y0148858I0000581J0000000D01*
G01*
G37*
G36*
G01*
X0258101Y0180492D02*
X0256743Y0180492D01*
G75*
G02*
X0256162Y0181073I0000000J0000581D01*
G01*
X0256162Y0182234D01*
G75*
G02*
X0256743Y0182815I0000581J0000000D01*
G01*
X0258101Y0182815D01*
G75*
G02*
X0258682Y0182234I0000000J-000581D01*
G01*
X0258682Y0181073D01*
G75*
G02*
X0258101Y0180492I-000581J0000000D01*
G01*
G37*
G36*
G01*
X0258101Y0184311D02*
X0256743Y0184311D01*
G75*
G02*
X0256162Y0184892I0000000J0000581D01*
G01*
X0256162Y0186053D01*
G75*
G02*
X0256743Y0186634I0000581J0000000D01*
G01*
X0258101Y0186634D01*
G75*
G02*
X0258682Y0186053I0000000J-000581D01*
G01*
X0258682Y0184892D01*
G75*
G02*
X0258101Y0184311I-000581J0000000D01*
G01*
G37*
G36*
G01*
X0265680Y0132165D02*
X0264321Y0132165D01*
G75*
G02*
X0263741Y0132746I0000000J0000581D01*
G01*
X0263741Y0133908D01*
G75*
G02*
X0264321Y0134488I0000581J0000000D01*
G01*
X0265680Y0134488D01*
G75*
G02*
X0266260Y0133908I0000000J-000581D01*
G01*
X0266260Y0132746D01*
G75*
G02*
X0265680Y0132165I-000581J0000000D01*
G01*
G37*
G36*
G01*
X0265680Y0135984D02*
X0264321Y0135984D01*
G75*
G02*
X0263741Y0136565I0000000J0000581D01*
G01*
X0263741Y0137726D01*
G75*
G02*
X0264321Y0138307I0000581J0000000D01*
G01*
X0265680Y0138307D01*
G75*
G02*
X0266260Y0137726I0000000J-000581D01*
G01*
X0266260Y0136565D01*
G75*
G02*
X0265680Y0135984I-000581J0000000D01*
G01*
G37*
G36*
G01*
X0250227Y0184626D02*
X0248869Y0184626D01*
G75*
G02*
X0248288Y0185207I0000000J0000581D01*
G01*
X0248288Y0186368D01*
G75*
G02*
X0248869Y0186949I0000581J0000000D01*
G01*
X0250227Y0186949D01*
G75*
G02*
X0250807Y0186368I0000000J-000581D01*
G01*
X0250807Y0185207D01*
G75*
G02*
X0250227Y0184626I-000581J0000000D01*
G01*
G37*
G36*
G01*
X0250227Y0188445D02*
X0248869Y0188445D01*
G75*
G02*
X0248288Y0189026I0000000J0000581D01*
G01*
X0248288Y0190187D01*
G75*
G02*
X0248869Y0190768I0000581J0000000D01*
G01*
X0250227Y0190768D01*
G75*
G02*
X0250807Y0190187I0000000J-000581D01*
G01*
X0250807Y0189026D01*
G75*
G02*
X0250227Y0188445I-000581J0000000D01*
G01*
G37*
G36*
G01*
X0225611Y0195876D02*
X0225611Y0197234D01*
G75*
G02*
X0226191Y0197815I0000581J0000000D01*
G01*
X0227353Y0197815D01*
G75*
G02*
X0227933Y0197234I0000000J-000581D01*
G01*
X0227933Y0195876D01*
G75*
G02*
X0227353Y0195295I-000581J0000000D01*
G01*
X0226191Y0195295D01*
G75*
G02*
X0225611Y0195876I0000000J0000581D01*
G01*
G37*
G36*
G01*
X0229430Y0195876D02*
X0229430Y0197234D01*
G75*
G02*
X0230010Y0197815I0000581J0000000D01*
G01*
X0231172Y0197815D01*
G75*
G02*
X0231752Y0197234I0000000J-000581D01*
G01*
X0231752Y0195876D01*
G75*
G02*
X0231172Y0195295I-000581J0000000D01*
G01*
X0230010Y0195295D01*
G75*
G02*
X0229430Y0195876I0000000J0000581D01*
G01*
G37*
G36*
G01*
X0254164Y0169764D02*
X0252806Y0169764D01*
G75*
G02*
X0252225Y0170345I0000000J0000581D01*
G01*
X0252225Y0171506D01*
G75*
G02*
X0252806Y0172087I0000581J0000000D01*
G01*
X0254164Y0172087D01*
G75*
G02*
X0254745Y0171506I0000000J-000581D01*
G01*
X0254745Y0170345D01*
G75*
G02*
X0254164Y0169764I-000581J0000000D01*
G01*
G37*
G36*
G01*
X0254164Y0173583D02*
X0252806Y0173583D01*
G75*
G02*
X0252225Y0174163I0000000J0000581D01*
G01*
X0252225Y0175325D01*
G75*
G02*
X0252806Y0175906I0000581J0000000D01*
G01*
X0254164Y0175906D01*
G75*
G02*
X0254745Y0175325I0000000J-000581D01*
G01*
X0254745Y0174163D01*
G75*
G02*
X0254164Y0173583I-000581J0000000D01*
G01*
G37*
G36*
G01*
X0252806Y0168425D02*
X0254164Y0168425D01*
G75*
G02*
X0254745Y0167845I0000000J-000581D01*
G01*
X0254745Y0166683D01*
G75*
G02*
X0254164Y0166102I-000581J0000000D01*
G01*
X0252806Y0166102D01*
G75*
G02*
X0252225Y0166683I0000000J0000581D01*
G01*
X0252225Y0167845D01*
G75*
G02*
X0252806Y0168425I0000581J0000000D01*
G01*
G37*
G36*
G01*
X0252806Y0164606D02*
X0254164Y0164606D01*
G75*
G02*
X0254745Y0164026I0000000J-000581D01*
G01*
X0254745Y0162864D01*
G75*
G02*
X0254164Y0162284I-000581J0000000D01*
G01*
X0252806Y0162284D01*
G75*
G02*
X0252225Y0162864I0000000J0000581D01*
G01*
X0252225Y0164026D01*
G75*
G02*
X0252806Y0164606I0000581J0000000D01*
G01*
G37*
G36*
G01*
X0225611Y0199616D02*
X0225611Y0200975D01*
G75*
G02*
X0226191Y0201555I0000581J0000000D01*
G01*
X0227353Y0201555D01*
G75*
G02*
X0227933Y0200975I0000000J-000581D01*
G01*
X0227933Y0199616D01*
G75*
G02*
X0227353Y0199036I-000581J0000000D01*
G01*
X0226191Y0199036D01*
G75*
G02*
X0225611Y0199616I0000000J0000581D01*
G01*
G37*
G36*
G01*
X0229430Y0199616D02*
X0229430Y0200975D01*
G75*
G02*
X0230010Y0201555I0000581J0000000D01*
G01*
X0231172Y0201555D01*
G75*
G02*
X0231752Y0200975I0000000J-000581D01*
G01*
X0231752Y0199616D01*
G75*
G02*
X0231172Y0199036I-000581J0000000D01*
G01*
X0230010Y0199036D01*
G75*
G02*
X0229430Y0199616I0000000J0000581D01*
G01*
G37*
D407*
X0274449Y0210295D03*
X0270709Y0210295D03*
X0266969Y0210295D03*
X0266969Y0220610D03*
X0274449Y0220610D03*
G36*
G01*
X0256743Y0175807D02*
X0258101Y0175807D01*
G75*
G02*
X0258682Y0175226I0000000J-000581D01*
G01*
X0258682Y0174065D01*
G75*
G02*
X0258101Y0173484I-000581J0000000D01*
G01*
X0256743Y0173484D01*
G75*
G02*
X0256162Y0174065I0000000J0000581D01*
G01*
X0256162Y0175226D01*
G75*
G02*
X0256743Y0175807I0000581J0000000D01*
G01*
G37*
G36*
G01*
X0256743Y0171988D02*
X0258101Y0171988D01*
G75*
G02*
X0258682Y0171408I0000000J-000581D01*
G01*
X0258682Y0170246D01*
G75*
G02*
X0258101Y0169665I-000581J0000000D01*
G01*
X0256743Y0169665D01*
G75*
G02*
X0256162Y0170246I0000000J0000581D01*
G01*
X0256162Y0171408D01*
G75*
G02*
X0256743Y0171988I0000581J0000000D01*
G01*
G37*
G36*
G01*
X0260847Y0188396D02*
X0260847Y0189754D01*
G75*
G02*
X0261428Y0190335I0000581J0000000D01*
G01*
X0262589Y0190335D01*
G75*
G02*
X0263170Y0189754I0000000J-000581D01*
G01*
X0263170Y0188396D01*
G75*
G02*
X0262589Y0187815I-000581J0000000D01*
G01*
X0261428Y0187815D01*
G75*
G02*
X0260847Y0188396I0000000J0000581D01*
G01*
G37*
G36*
G01*
X0264666Y0188396D02*
X0264666Y0189754D01*
G75*
G02*
X0265246Y0190335I0000581J0000000D01*
G01*
X0266408Y0190335D01*
G75*
G02*
X0266989Y0189754I0000000J-000581D01*
G01*
X0266989Y0188396D01*
G75*
G02*
X0266408Y0187815I-000581J0000000D01*
G01*
X0265246Y0187815D01*
G75*
G02*
X0264666Y0188396I0000000J0000581D01*
G01*
G37*
G36*
G01*
X0240414Y0197234D02*
X0240414Y0195876D01*
G75*
G02*
X0239833Y0195295I-000581J0000000D01*
G01*
X0238672Y0195295D01*
G75*
G02*
X0238091Y0195876I0000000J0000581D01*
G01*
X0238091Y0197234D01*
G75*
G02*
X0238672Y0197815I0000581J0000000D01*
G01*
X0239833Y0197815D01*
G75*
G02*
X0240414Y0197234I0000000J-000581D01*
G01*
G37*
G36*
G01*
X0236595Y0197234D02*
X0236595Y0195876D01*
G75*
G02*
X0236014Y0195295I-000581J0000000D01*
G01*
X0234853Y0195295D01*
G75*
G02*
X0234272Y0195876I0000000J0000581D01*
G01*
X0234272Y0197234D01*
G75*
G02*
X0234853Y0197815I0000581J0000000D01*
G01*
X0236014Y0197815D01*
G75*
G02*
X0236595Y0197234I0000000J-000581D01*
G01*
G37*
G36*
G01*
X0241369Y0154114D02*
X0240010Y0154114D01*
G75*
G02*
X0239430Y0154695I0000000J0000581D01*
G01*
X0239430Y0155856D01*
G75*
G02*
X0240010Y0156437I0000581J0000000D01*
G01*
X0241369Y0156437D01*
G75*
G02*
X0241949Y0155856I0000000J-000581D01*
G01*
X0241949Y0154695D01*
G75*
G02*
X0241369Y0154114I-000581J0000000D01*
G01*
G37*
G36*
G01*
X0241369Y0157933D02*
X0240010Y0157933D01*
G75*
G02*
X0239430Y0158514I0000000J0000581D01*
G01*
X0239430Y0159675D01*
G75*
G02*
X0240010Y0160256I0000581J0000000D01*
G01*
X0241369Y0160256D01*
G75*
G02*
X0241949Y0159675I0000000J-000581D01*
G01*
X0241949Y0158514D01*
G75*
G02*
X0241369Y0157933I-000581J0000000D01*
G01*
G37*
G36*
G01*
X0241369Y0146536D02*
X0240010Y0146536D01*
G75*
G02*
X0239430Y0147116I0000000J0000581D01*
G01*
X0239430Y0148278D01*
G75*
G02*
X0240010Y0148858I0000581J0000000D01*
G01*
X0241369Y0148858D01*
G75*
G02*
X0241949Y0148278I0000000J-000581D01*
G01*
X0241949Y0147116D01*
G75*
G02*
X0241369Y0146536I-000581J0000000D01*
G01*
G37*
G36*
G01*
X0241369Y0150354D02*
X0240010Y0150354D01*
G75*
G02*
X0239430Y0150935I0000000J0000581D01*
G01*
X0239430Y0152097D01*
G75*
G02*
X0240010Y0152677I0000581J0000000D01*
G01*
X0241369Y0152677D01*
G75*
G02*
X0241949Y0152097I0000000J-000581D01*
G01*
X0241949Y0150935D01*
G75*
G02*
X0241369Y0150354I-000581J0000000D01*
G01*
G37*
G36*
G01*
X0240414Y0200975D02*
X0240414Y0199616D01*
G75*
G02*
X0239833Y0199036I-000581J0000000D01*
G01*
X0238672Y0199036D01*
G75*
G02*
X0238091Y0199616I0000000J0000581D01*
G01*
X0238091Y0200975D01*
G75*
G02*
X0238672Y0201555I0000581J0000000D01*
G01*
X0239833Y0201555D01*
G75*
G02*
X0240414Y0200975I0000000J-000581D01*
G01*
G37*
G36*
G01*
X0236595Y0200975D02*
X0236595Y0199616D01*
G75*
G02*
X0236014Y0199036I-000581J0000000D01*
G01*
X0234853Y0199036D01*
G75*
G02*
X0234272Y0199616I0000000J0000581D01*
G01*
X0234272Y0200975D01*
G75*
G02*
X0234853Y0201555I0000581J0000000D01*
G01*
X0236014Y0201555D01*
G75*
G02*
X0236595Y0200975I0000000J-000581D01*
G01*
G37*
G36*
G01*
X0250227Y0166614D02*
X0248869Y0166614D01*
G75*
G02*
X0248288Y0167195I0000000J0000581D01*
G01*
X0248288Y0168356D01*
G75*
G02*
X0248869Y0168937I0000581J0000000D01*
G01*
X0250227Y0168937D01*
G75*
G02*
X0250807Y0168356I0000000J-000581D01*
G01*
X0250807Y0167195D01*
G75*
G02*
X0250227Y0166614I-000581J0000000D01*
G01*
G37*
G36*
G01*
X0250227Y0170433D02*
X0248869Y0170433D01*
G75*
G02*
X0248288Y0171014I0000000J0000581D01*
G01*
X0248288Y0172175D01*
G75*
G02*
X0248869Y0172756I0000581J0000000D01*
G01*
X0250227Y0172756D01*
G75*
G02*
X0250807Y0172175I0000000J-000581D01*
G01*
X0250807Y0171014D01*
G75*
G02*
X0250227Y0170433I-000581J0000000D01*
G01*
G37*
G36*
G01*
X0240414Y0204715D02*
X0240414Y0203356D01*
G75*
G02*
X0239833Y0202776I-000581J0000000D01*
G01*
X0238672Y0202776D01*
G75*
G02*
X0238091Y0203356I0000000J0000581D01*
G01*
X0238091Y0204715D01*
G75*
G02*
X0238672Y0205295I0000581J0000000D01*
G01*
X0239833Y0205295D01*
G75*
G02*
X0240414Y0204715I0000000J-000581D01*
G01*
G37*
G36*
G01*
X0236595Y0204715D02*
X0236595Y0203356D01*
G75*
G02*
X0236014Y0202776I-000581J0000000D01*
G01*
X0234853Y0202776D01*
G75*
G02*
X0234272Y0203356I0000000J0000581D01*
G01*
X0234272Y0204715D01*
G75*
G02*
X0234853Y0205295I0000581J0000000D01*
G01*
X0236014Y0205295D01*
G75*
G02*
X0236595Y0204715I0000000J-000581D01*
G01*
G37*
G36*
G01*
X0231752Y0204715D02*
X0231752Y0203356D01*
G75*
G02*
X0231172Y0202776I-000581J0000000D01*
G01*
X0230010Y0202776D01*
G75*
G02*
X0229430Y0203356I0000000J0000581D01*
G01*
X0229430Y0204715D01*
G75*
G02*
X0230010Y0205295I0000581J0000000D01*
G01*
X0231172Y0205295D01*
G75*
G02*
X0231752Y0204715I0000000J-000581D01*
G01*
G37*
G36*
G01*
X0227933Y0204715D02*
X0227933Y0203356D01*
G75*
G02*
X0227353Y0202776I-000581J0000000D01*
G01*
X0226191Y0202776D01*
G75*
G02*
X0225611Y0203356I0000000J0000581D01*
G01*
X0225611Y0204715D01*
G75*
G02*
X0226191Y0205295I0000581J0000000D01*
G01*
X0227353Y0205295D01*
G75*
G02*
X0227933Y0204715I0000000J-000581D01*
G01*
G37*
G36*
G01*
X0237559Y0219528D02*
X0238898Y0219528D01*
G75*
G02*
X0239449Y0218977I0000000J-000551D01*
G01*
X0239449Y0217874D01*
G75*
G02*
X0238898Y0217323I-000551J0000000D01*
G01*
X0237559Y0217323D01*
G75*
G02*
X0237008Y0217874I0000000J0000551D01*
G01*
X0237008Y0218977D01*
G75*
G02*
X0237559Y0219528I0000551J0000000D01*
G01*
G37*
G36*
G01*
X0237559Y0215748D02*
X0238898Y0215748D01*
G75*
G02*
X0239449Y0215197I0000000J-000551D01*
G01*
X0239449Y0214095D01*
G75*
G02*
X0238898Y0213544I-000551J0000000D01*
G01*
X0237559Y0213544D01*
G75*
G02*
X0237008Y0214095I0000000J0000551D01*
G01*
X0237008Y0215197D01*
G75*
G02*
X0237559Y0215748I0000551J0000000D01*
G01*
G37*
G36*
G01*
X0263819Y0164587D02*
X0262363Y0164587D01*
G75*
G02*
X0261831Y0165118I0000000J0000531D01*
G01*
X0261831Y0166181D01*
G75*
G02*
X0262363Y0166713I0000531J0000000D01*
G01*
X0263819Y0166713D01*
G75*
G02*
X0264351Y0166181I0000000J-000531D01*
G01*
X0264351Y0165118D01*
G75*
G02*
X0263819Y0164587I-000531J0000000D01*
G01*
G37*
G36*
G01*
X0263819Y0168602D02*
X0262363Y0168602D01*
G75*
G02*
X0261831Y0169134I0000000J0000531D01*
G01*
X0261831Y0170197D01*
G75*
G02*
X0262363Y0170728I0000531J0000000D01*
G01*
X0263819Y0170728D01*
G75*
G02*
X0264351Y0170197I0000000J-000531D01*
G01*
X0264351Y0169134D01*
G75*
G02*
X0263819Y0168602I-000531J0000000D01*
G01*
G37*
G36*
G01*
X0249286Y0225315D02*
X0249286Y0226772D01*
G75*
G02*
X0249818Y0227303I0000531J0000000D01*
G01*
X0250881Y0227303D01*
G75*
G02*
X0251412Y0226772I0000000J-000531D01*
G01*
X0251412Y0225315D01*
G75*
G02*
X0250881Y0224784I-000531J0000000D01*
G01*
X0249818Y0224784D01*
G75*
G02*
X0249286Y0225315I0000000J0000531D01*
G01*
G37*
G36*
G01*
X0253302Y0225315D02*
X0253302Y0226772D01*
G75*
G02*
X0253834Y0227303I0000531J0000000D01*
G01*
X0254897Y0227303D01*
G75*
G02*
X0255428Y0226772I0000000J-000531D01*
G01*
X0255428Y0225315D01*
G75*
G02*
X0254897Y0224784I-000531J0000000D01*
G01*
X0253834Y0224784D01*
G75*
G02*
X0253302Y0225315I0000000J0000531D01*
G01*
G37*
G36*
G01*
X0225335Y0224705D02*
X0226516Y0224705D01*
G75*
G02*
X0227107Y0224114I0000000J-000591D01*
G01*
X0227107Y0219488D01*
G75*
G02*
X0226516Y0218898I-000591J0000000D01*
G01*
X0225335Y0218898D01*
G75*
G02*
X0224745Y0219488I0000000J0000591D01*
G01*
X0224745Y0224114D01*
G75*
G02*
X0225335Y0224705I0000591J0000000D01*
G01*
G37*
G36*
G01*
X0232815Y0224705D02*
X0233996Y0224705D01*
G75*
G02*
X0234587Y0224114I0000000J-000591D01*
G01*
X0234587Y0219488D01*
G75*
G02*
X0233996Y0218898I-000591J0000000D01*
G01*
X0232815Y0218898D01*
G75*
G02*
X0232225Y0219488I0000000J0000591D01*
G01*
X0232225Y0224114D01*
G75*
G02*
X0232815Y0224705I0000591J0000000D01*
G01*
G37*
G36*
G01*
X0229075Y0217323D02*
X0230256Y0217323D01*
G75*
G02*
X0230847Y0216732I0000000J-000591D01*
G01*
X0230847Y0212106D01*
G75*
G02*
X0230256Y0211516I-000591J0000000D01*
G01*
X0229075Y0211516D01*
G75*
G02*
X0228485Y0212106I0000000J0000591D01*
G01*
X0228485Y0216732D01*
G75*
G02*
X0229075Y0217323I0000591J0000000D01*
G01*
G37*
G36*
G01*
X0263267Y0226752D02*
X0263267Y0225413D01*
G75*
G02*
X0262715Y0224862I-000551J0000000D01*
G01*
X0261613Y0224862D01*
G75*
G02*
X0261062Y0225413I0000000J0000551D01*
G01*
X0261062Y0226752D01*
G75*
G02*
X0261613Y0227303I0000551J0000000D01*
G01*
X0262715Y0227303D01*
G75*
G02*
X0263267Y0226752I0000000J-000551D01*
G01*
G37*
G36*
G01*
X0259487Y0226752D02*
X0259487Y0225413D01*
G75*
G02*
X0258936Y0224862I-000551J0000000D01*
G01*
X0257834Y0224862D01*
G75*
G02*
X0257282Y0225413I0000000J0000551D01*
G01*
X0257282Y0226752D01*
G75*
G02*
X0257834Y0227303I0000551J0000000D01*
G01*
X0258936Y0227303D01*
G75*
G02*
X0259487Y0226752I0000000J-000551D01*
G01*
G37*
G36*
G01*
X0260196Y0195965D02*
X0259015Y0195965D01*
G75*
G02*
X0258424Y0196555I0000000J0000591D01*
G01*
X0258424Y0202264D01*
G75*
G02*
X0259015Y0202854I0000591J0000000D01*
G01*
X0260196Y0202854D01*
G75*
G02*
X0260786Y0202264I0000000J-000591D01*
G01*
X0260786Y0196555D01*
G75*
G02*
X0260196Y0195965I-000591J0000000D01*
G01*
G37*
G36*
G01*
X0255196Y0195965D02*
X0254015Y0195965D01*
G75*
G02*
X0253424Y0196555I0000000J0000591D01*
G01*
X0253424Y0202264D01*
G75*
G02*
X0254015Y0202854I0000591J0000000D01*
G01*
X0255196Y0202854D01*
G75*
G02*
X0255786Y0202264I0000000J-000591D01*
G01*
X0255786Y0196555D01*
G75*
G02*
X0255196Y0195965I-000591J0000000D01*
G01*
G37*
G36*
G01*
X0250196Y0195965D02*
X0249015Y0195965D01*
G75*
G02*
X0248424Y0196555I0000000J0000591D01*
G01*
X0248424Y0202264D01*
G75*
G02*
X0249015Y0202854I0000591J0000000D01*
G01*
X0250196Y0202854D01*
G75*
G02*
X0250786Y0202264I0000000J-000591D01*
G01*
X0250786Y0196555D01*
G75*
G02*
X0250196Y0195965I-000591J0000000D01*
G01*
G37*
G36*
G01*
X0245196Y0195965D02*
X0244015Y0195965D01*
G75*
G02*
X0243424Y0196555I0000000J0000591D01*
G01*
X0243424Y0202264D01*
G75*
G02*
X0244015Y0202854I0000591J0000000D01*
G01*
X0245196Y0202854D01*
G75*
G02*
X0245786Y0202264I0000000J-000591D01*
G01*
X0245786Y0196555D01*
G75*
G02*
X0245196Y0195965I-000591J0000000D01*
G01*
G37*
G36*
G01*
X0245196Y0216240D02*
X0244015Y0216240D01*
G75*
G02*
X0243424Y0216831I0000000J0000591D01*
G01*
X0243424Y0222539D01*
G75*
G02*
X0244015Y0223130I0000591J0000000D01*
G01*
X0245196Y0223130D01*
G75*
G02*
X0245786Y0222539I0000000J-000591D01*
G01*
X0245786Y0216831D01*
G75*
G02*
X0245196Y0216240I-000591J0000000D01*
G01*
G37*
G36*
G01*
X0250196Y0216240D02*
X0249015Y0216240D01*
G75*
G02*
X0248424Y0216831I0000000J0000591D01*
G01*
X0248424Y0222539D01*
G75*
G02*
X0249015Y0223130I0000591J0000000D01*
G01*
X0250196Y0223130D01*
G75*
G02*
X0250786Y0222539I0000000J-000591D01*
G01*
X0250786Y0216831D01*
G75*
G02*
X0250196Y0216240I-000591J0000000D01*
G01*
G37*
G36*
G01*
X0255196Y0216240D02*
X0254015Y0216240D01*
G75*
G02*
X0253424Y0216831I0000000J0000591D01*
G01*
X0253424Y0222539D01*
G75*
G02*
X0254015Y0223130I0000591J0000000D01*
G01*
X0255196Y0223130D01*
G75*
G02*
X0255786Y0222539I0000000J-000591D01*
G01*
X0255786Y0216831D01*
G75*
G02*
X0255196Y0216240I-000591J0000000D01*
G01*
G37*
G36*
G01*
X0260196Y0216240D02*
X0259015Y0216240D01*
G75*
G02*
X0258424Y0216831I0000000J0000591D01*
G01*
X0258424Y0222539D01*
G75*
G02*
X0259015Y0223130I0000591J0000000D01*
G01*
X0260196Y0223130D01*
G75*
G02*
X0260786Y0222539I0000000J-000591D01*
G01*
X0260786Y0216831D01*
G75*
G02*
X0260196Y0216240I-000591J0000000D01*
G01*
G37*
X0162126Y0266909D02*
G01*
G75*
D206*
X0214095Y0351948D02*
D03*
X0214095Y0326653D02*
D03*
X0214095Y0341909D02*
D03*
X0214095Y0336693D02*
D03*
X0207008Y0367204D02*
D03*
X0214095Y0367204D02*
D03*
X0214095Y0357165D02*
D03*
X0207008Y0357165D02*
D03*
X0207008Y0326653D02*
D03*
X0207008Y0336693D02*
D03*
X0207008Y0341909D02*
D03*
X0207008Y0351948D02*
D03*
D207*
X0214095Y0348503D02*
D03*
X0214095Y0333248D02*
D03*
X0214095Y0345354D02*
D03*
X0214095Y0330098D02*
D03*
X0214095Y0360610D02*
D03*
X0214095Y0363759D02*
D03*
X0207008Y0363759D02*
D03*
X0207008Y0360610D02*
D03*
X0207008Y0333248D02*
D03*
X0207008Y0330098D02*
D03*
X0207008Y0348503D02*
D03*
X0207008Y0345354D02*
D03*
D214*
X0216063Y0405098D02*
D03*
X0212126Y0405098D02*
D03*
X0210551Y0401555D02*
D03*
X0206614Y0401555D02*
D03*
X0218425Y0384232D02*
D03*
X0214488Y0384232D02*
D03*
X0247078Y0326530D02*
D03*
X0243141Y0326530D02*
D03*
X0238882Y0326530D02*
D03*
X0234945Y0326530D02*
D03*
X0195560Y0358997D02*
D03*
X0191623Y0358997D02*
D03*
X0195560Y0355274D02*
D03*
X0191623Y0355274D02*
D03*
X0193144Y0392106D02*
D03*
X0197081Y0392106D02*
D03*
X0281778Y0403039D02*
D03*
X0246030Y0402800D02*
D03*
X0260945Y0326530D02*
D03*
X0228661Y0380688D02*
D03*
X0228661Y0376358D02*
D03*
X0225231Y0372139D02*
D03*
X0213954Y0372194D02*
D03*
X0234370Y0342534D02*
D03*
X0225581Y0342534D02*
D03*
X0221644Y0334049D02*
D03*
X0286561Y0304183D02*
D03*
X0260945Y0322027D02*
D03*
X0220000Y0405098D02*
D03*
X0206614Y0372103D02*
D03*
X0184961Y0373501D02*
D03*
X0170896Y0373501D02*
D03*
X0184961Y0369271D02*
D03*
X0170896Y0369271D02*
D03*
X0210599Y0322363D02*
D03*
X0166063Y0320452D02*
D03*
X0232598Y0380688D02*
D03*
X0221644Y0342534D02*
D03*
X0230433Y0342534D02*
D03*
X0230433Y0338046D02*
D03*
X0234370Y0338046D02*
D03*
X0288504Y0318090D02*
D03*
X0284567Y0318090D02*
D03*
X0282624Y0304183D02*
D03*
X0197179Y0375007D02*
D03*
X0193242Y0375007D02*
D03*
X0166958Y0373501D02*
D03*
X0210551Y0372103D02*
D03*
X0225581Y0334049D02*
D03*
X0217891Y0372194D02*
D03*
X0221294Y0372139D02*
D03*
X0181024Y0369271D02*
D03*
X0206662Y0322363D02*
D03*
X0170000Y0320452D02*
D03*
X0242093Y0402800D02*
D03*
X0216063Y0405098D02*
D03*
X0189291Y0380074D02*
D03*
X0185354Y0380074D02*
D03*
X0181024Y0373501D02*
D03*
X0264882Y0322027D02*
D03*
X0264882Y0326530D02*
D03*
X0232598Y0376358D02*
D03*
X0277841Y0403039D02*
D03*
X0268525Y0403039D02*
D03*
X0272462Y0403039D02*
D03*
X0174833Y0369271D02*
D03*
X0166063Y0324389D02*
D03*
X0170000Y0324389D02*
D03*
X0166063Y0336791D02*
D03*
X0170000Y0336791D02*
D03*
X0166063Y0340925D02*
D03*
X0170000Y0340925D02*
D03*
X0166063Y0349193D02*
D03*
X0170000Y0349193D02*
D03*
X0166063Y0345059D02*
D03*
X0170000Y0345059D02*
D03*
X0166063Y0353326D02*
D03*
X0170000Y0353326D02*
D03*
X0166063Y0332657D02*
D03*
X0170000Y0332657D02*
D03*
X0166063Y0328523D02*
D03*
X0170000Y0328523D02*
D03*
D218*
X0221053Y0355885D02*
D03*
X0221053Y0360118D02*
D03*
X0266457Y0272027D02*
D03*
X0261732Y0272027D02*
D03*
X0257008Y0272027D02*
D03*
X0252284Y0272027D02*
D03*
X0182205Y0400374D02*
D03*
X0186339Y0400374D02*
D03*
X0277519Y0308153D02*
D03*
X0277519Y0312090D02*
D03*
X0166590Y0399192D02*
D03*
X0166590Y0395256D02*
D03*
X0221053Y0364055D02*
D03*
X0221053Y0351948D02*
D03*
X0273347Y0307657D02*
D03*
X0273347Y0311594D02*
D03*
X0248574Y0279881D02*
D03*
X0248574Y0283818D02*
D03*
X0252284Y0283818D02*
D03*
X0252284Y0279881D02*
D03*
X0252284Y0294468D02*
D03*
X0252284Y0290531D02*
D03*
X0252284Y0275964D02*
D03*
X0257008Y0275964D02*
D03*
X0266457Y0275964D02*
D03*
X0261732Y0275964D02*
D03*
X0167625Y0309158D02*
D03*
X0167625Y0313095D02*
D03*
X0217835Y0312185D02*
D03*
X0217835Y0308248D02*
D03*
X0217835Y0301948D02*
D03*
X0217835Y0298011D02*
D03*
X0189882Y0312185D02*
D03*
X0189882Y0308248D02*
D03*
X0213307Y0286791D02*
D03*
X0213307Y0290728D02*
D03*
X0183977Y0286791D02*
D03*
X0183977Y0290728D02*
D03*
X0171181Y0286791D02*
D03*
X0171181Y0290728D02*
D03*
X0188073Y0279881D02*
D03*
X0188073Y0275944D02*
D03*
X0166457Y0279507D02*
D03*
X0166457Y0283444D02*
D03*
X0166654Y0276358D02*
D03*
X0166654Y0272421D02*
D03*
X0166590Y0387666D02*
D03*
X0166590Y0391603D02*
D03*
X0182205Y0404311D02*
D03*
X0186339Y0404311D02*
D03*
X0190079Y0290728D02*
D03*
X0190079Y0286791D02*
D03*
X0194409Y0290728D02*
D03*
X0194409Y0286791D02*
D03*
X0202874Y0290728D02*
D03*
X0202874Y0286791D02*
D03*
X0207040Y0275944D02*
D03*
X0207040Y0279881D02*
D03*
X0245787Y0308248D02*
D03*
X0245787Y0312185D02*
D03*
X0175512Y0290728D02*
D03*
X0175512Y0286791D02*
D03*
X0225883Y0275944D02*
D03*
X0225883Y0279881D02*
D03*
X0221772Y0290728D02*
D03*
X0221772Y0286791D02*
D03*
X0208977Y0290728D02*
D03*
X0208977Y0286791D02*
D03*
X0244863Y0275944D02*
D03*
X0244863Y0279881D02*
D03*
X0240670Y0290728D02*
D03*
X0240670Y0286791D02*
D03*
X0232205Y0290728D02*
D03*
X0232205Y0286791D02*
D03*
X0227874Y0290728D02*
D03*
X0227874Y0286791D02*
D03*
X0245651Y0294468D02*
D03*
X0245651Y0290531D02*
D03*
D220*
X0201683Y0397165D02*
D03*
X0193943Y0387690D02*
D03*
X0175610Y0364320D02*
D03*
D224*
X0249331Y0395748D02*
D03*
X0243031Y0395748D02*
D03*
X0212717Y0397126D02*
D03*
X0206417Y0397126D02*
D03*
X0212717Y0392500D02*
D03*
X0206417Y0392500D02*
D03*
D220*
X0184862Y0360579D02*
D03*
X0193943Y0380210D02*
D03*
X0203195Y0383950D02*
D03*
X0201683Y0404645D02*
D03*
X0192431Y0400905D02*
D03*
X0175610Y0356839D02*
D03*
D96*
X0240039Y0321043D02*
D03*
X0254252Y0321043D02*
D03*
X0224252Y0321043D02*
D03*
D230*
X0277244Y0398602D02*
D03*
X0257244Y0394602D02*
D03*
X0257244Y0402602D02*
D03*
D17*
X0166457Y0404311D02*
D03*
D248*
X0210157Y0387303D02*
D03*
X0210157Y0381082D02*
D03*
D249*
X0239587Y0316515D02*
D03*
X0239587Y0309429D02*
D03*
X0229547Y0309429D02*
D03*
X0229547Y0316515D02*
D03*
X0211634Y0309429D02*
D03*
X0183681Y0309429D02*
D03*
X0201595Y0305492D02*
D03*
X0256713Y0280295D02*
D03*
X0256713Y0287381D02*
D03*
X0266752Y0287381D02*
D03*
X0266752Y0280295D02*
D03*
X0173642Y0298405D02*
D03*
X0173642Y0305492D02*
D03*
X0183681Y0305492D02*
D03*
X0183681Y0298405D02*
D03*
X0183681Y0316515D02*
D03*
X0173642Y0309429D02*
D03*
X0173642Y0316515D02*
D03*
X0201595Y0298405D02*
D03*
X0211634Y0305492D02*
D03*
X0211634Y0298405D02*
D03*
X0211634Y0316515D02*
D03*
X0201595Y0309429D02*
D03*
X0201595Y0316515D02*
D03*
X0202579Y0274586D02*
D03*
X0202579Y0281673D02*
D03*
X0192539Y0281673D02*
D03*
X0192539Y0274586D02*
D03*
X0183681Y0274586D02*
D03*
X0183681Y0281673D02*
D03*
X0173642Y0281673D02*
D03*
X0173642Y0274586D02*
D03*
X0221477Y0274586D02*
D03*
X0221477Y0281673D02*
D03*
X0211437Y0281673D02*
D03*
X0211437Y0274586D02*
D03*
X0240374Y0274586D02*
D03*
X0240374Y0281673D02*
D03*
X0230335Y0281673D02*
D03*
X0230335Y0274586D02*
D03*
X0239587Y0298405D02*
D03*
X0239587Y0305492D02*
D03*
X0229547Y0305492D02*
D03*
X0229547Y0298405D02*
D03*
X0267146Y0298405D02*
D03*
X0267146Y0305492D02*
D03*
X0257106Y0305492D02*
D03*
X0257106Y0298405D02*
D03*
X0257106Y0316515D02*
D03*
X0257106Y0309429D02*
D03*
X0267146Y0309429D02*
D03*
X0267146Y0316515D02*
D03*
D250*
X0232992Y0309429D02*
D03*
X0236142Y0309429D02*
D03*
X0236142Y0316515D02*
D03*
X0232992Y0316515D02*
D03*
X0208189Y0309429D02*
D03*
X0180236Y0309429D02*
D03*
X0205039Y0305492D02*
D03*
X0263307Y0287381D02*
D03*
X0260158Y0287381D02*
D03*
X0260158Y0280295D02*
D03*
X0263307Y0280295D02*
D03*
X0180236Y0305492D02*
D03*
X0177087Y0305492D02*
D03*
X0177087Y0298405D02*
D03*
X0180236Y0298405D02*
D03*
X0177087Y0309429D02*
D03*
X0180236Y0316515D02*
D03*
X0177087Y0316515D02*
D03*
X0208189Y0305492D02*
D03*
X0205039Y0298405D02*
D03*
X0208189Y0298405D02*
D03*
X0205040Y0309429D02*
D03*
X0208189Y0316515D02*
D03*
X0205040Y0316515D02*
D03*
X0199134Y0274586D02*
D03*
X0195984Y0274586D02*
D03*
X0195984Y0281673D02*
D03*
X0199134Y0281673D02*
D03*
X0180237Y0274586D02*
D03*
X0177087Y0274586D02*
D03*
X0177087Y0281673D02*
D03*
X0180237Y0281673D02*
D03*
X0218032Y0274586D02*
D03*
X0214882Y0274586D02*
D03*
X0214882Y0281673D02*
D03*
X0218032Y0281673D02*
D03*
X0236929Y0274586D02*
D03*
X0233780Y0274586D02*
D03*
X0233780Y0281673D02*
D03*
X0236929Y0281673D02*
D03*
X0236142Y0298405D02*
D03*
X0232992Y0298405D02*
D03*
X0232992Y0305492D02*
D03*
X0236142Y0305492D02*
D03*
X0263701Y0298405D02*
D03*
X0260551Y0298405D02*
D03*
X0260551Y0305492D02*
D03*
X0263701Y0305492D02*
D03*
X0260551Y0316515D02*
D03*
X0263701Y0316515D02*
D03*
X0263701Y0309429D02*
D03*
X0260551Y0309429D02*
D03*
D251*
X0271929Y0393779D02*
D03*
X0271929Y0398769D02*
D03*
X0265709Y0398769D02*
D03*
X0265709Y0393779D02*
D03*
D252*
X0284567Y0386889D02*
D03*
X0251890Y0386889D02*
D03*
X0284567Y0332756D02*
D03*
X0251890Y0332756D02*
D03*
D253*
X0274331Y0368858D02*
D03*
X0274331Y0377519D02*
D03*
X0274331Y0373189D02*
D03*
X0274331Y0364527D02*
D03*
X0274331Y0360196D02*
D03*
X0274331Y0355866D02*
D03*
X0274331Y0351535D02*
D03*
X0274331Y0347204D02*
D03*
D254*
X0292638Y0288248D02*
D03*
X0279434Y0288248D02*
D03*
X0285157Y0280216D02*
D03*
X0271954Y0280216D02*
D03*
X0288898Y0297500D02*
D03*
X0275694Y0297500D02*
D03*
X0275694Y0270964D02*
D03*
X0187520Y0385885D02*
D03*
X0183780Y0395137D02*
D03*
X0288898Y0270964D02*
D03*
D255*
X0286561Y0314021D02*
D03*
X0282624Y0314021D02*
D03*
X0286561Y0308017D02*
D03*
X0284593Y0308017D02*
D03*
X0284593Y0314021D02*
D03*
X0282624Y0308017D02*
D03*
D256*
X0195996Y0370669D02*
D03*
X0190878Y0370669D02*
D03*
X0193437Y0370669D02*
D03*
X0195996Y0363188D02*
D03*
X0190878Y0363188D02*
D03*
D257*
X0199213Y0351161D02*
D03*
X0176221Y0348602D02*
D03*
X0176221Y0351161D02*
D03*
X0199213Y0328130D02*
D03*
X0176221Y0325571D02*
D03*
X0176221Y0323011D02*
D03*
X0176221Y0328130D02*
D03*
X0176221Y0330689D02*
D03*
X0176221Y0333248D02*
D03*
X0176221Y0335807D02*
D03*
X0176221Y0338366D02*
D03*
X0176221Y0340925D02*
D03*
X0176221Y0343484D02*
D03*
X0176221Y0346043D02*
D03*
X0199213Y0323011D02*
D03*
X0199213Y0325571D02*
D03*
X0199213Y0330689D02*
D03*
X0199213Y0333248D02*
D03*
X0199213Y0335807D02*
D03*
X0199213Y0338366D02*
D03*
X0199213Y0340925D02*
D03*
X0199213Y0343484D02*
D03*
X0199213Y0346043D02*
D03*
X0199213Y0348602D02*
D03*
D258*
X0173150Y0388748D02*
D03*
X0173150Y0400166D02*
D03*
D259*
X0231240Y0390883D02*
D03*
X0218248Y0390883D02*
D03*
X0167163Y0379683D02*
D03*
X0180155Y0379683D02*
D03*
D260*
X0230015Y0365478D02*
D03*
X0230015Y0350911D02*
D03*
D261*
X0281591Y0310035D02*
D03*
X0281591Y0312003D02*
D03*
X0287595Y0312003D02*
D03*
X0287595Y0310035D02*
D03*
D262*
X0216604Y0378001D02*
D03*
X0222509Y0378001D02*
D03*
D254*
X0285157Y0288248D02*
D03*
X0271954Y0288248D02*
D03*
X0279434Y0280216D02*
D03*
X0180039Y0385885D02*
D03*
X0292638Y0280216D02*
D03*
D263*
X0219407Y0327342D02*
D03*
X0226100Y0327342D02*
D03*
D264*
X0235768Y0400879D02*
D03*
X0224351Y0400879D02*
D03*
D265*
X0166851Y0366515D02*
D03*
X0166851Y0360216D02*
D03*
X0293610Y0215461D02*
G01*
G75*
D134*
X0324811Y0239870D02*
D03*
X0325106Y0225894D02*
D03*
X0323925Y0220874D02*
D03*
X0320480Y0222941D02*
D03*
X0288209Y0171063D02*
%LPD*%
G01*
G36*
G01*
X0298839Y0188228D02*
X0295768Y0188228D01*
G75*
G02*
X0295492Y0188504I0000000J0000276D01*
G01*
X0295492Y0190709D01*
G75*
G02*
X0295768Y0190984I0000276J0000000D01*
G01*
X0298839Y0190984D01*
G75*
G02*
X0299115Y0190709I0000000J-000276D01*
G01*
X0299115Y0188504D01*
G75*
G02*
X0298839Y0188228I-000276J0000000D01*
G01*
G37*
G36*
G01*
X0298839Y0194528D02*
X0295768Y0194528D01*
G75*
G02*
X0295492Y0194803I0000000J0000276D01*
G01*
X0295492Y0197008D01*
G75*
G02*
X0295768Y0197283I0000276J0000000D01*
G01*
X0298839Y0197283D01*
G75*
G02*
X0299115Y0197008I0000000J-000276D01*
G01*
X0299115Y0194803D01*
G75*
G02*
X0298839Y0194528I-000276J0000000D01*
G01*
G37*
G36*
G01*
X0295768Y0209094D02*
X0298839Y0209094D01*
G75*
G02*
X0299115Y0208819I0000000J-000276D01*
G01*
X0299115Y0206614D01*
G75*
G02*
X0298839Y0206339I-000276J0000000D01*
G01*
X0295768Y0206339D01*
G75*
G02*
X0295492Y0206614I0000000J0000276D01*
G01*
X0295492Y0208819D01*
G75*
G02*
X0295768Y0209094I0000276J0000000D01*
G01*
G37*
G36*
G01*
X0295768Y0202795D02*
X0298839Y0202795D01*
G75*
G02*
X0299115Y0202520I0000000J-000276D01*
G01*
X0299115Y0200315D01*
G75*
G02*
X0298839Y0200039I-000276J0000000D01*
G01*
X0295768Y0200039D01*
G75*
G02*
X0295492Y0200315I0000000J0000276D01*
G01*
X0295492Y0202520D01*
G75*
G02*
X0295768Y0202795I0000276J0000000D01*
G01*
G37*
G36*
G01*
X0315020Y0206240D02*
X0315020Y0202106D01*
G75*
G02*
X0314626Y0201713I-000394J0000000D01*
G01*
X0311477Y0201713D01*
G75*
G02*
X0311083Y0202106I0000000J0000394D01*
G01*
X0311083Y0206240D01*
G75*
G02*
X0311477Y0206634I0000394J0000000D01*
G01*
X0314626Y0206634D01*
G75*
G02*
X0315020Y0206240I0000000J-000394D01*
G01*
G37*
G36*
G01*
X0307146Y0206240D02*
X0307146Y0202106D01*
G75*
G02*
X0306752Y0201713I-000394J0000000D01*
G01*
X0303603Y0201713D01*
G75*
G02*
X0303209Y0202106I0000000J0000394D01*
G01*
X0303209Y0206240D01*
G75*
G02*
X0303603Y0206634I0000394J0000000D01*
G01*
X0306752Y0206634D01*
G75*
G02*
X0307146Y0206240I0000000J-000394D01*
G01*
G37*
G36*
G01*
X0318170Y0187933D02*
X0318170Y0192067D01*
G75*
G02*
X0318563Y0192461I0000394J0000000D01*
G01*
X0321713Y0192461D01*
G75*
G02*
X0322107Y0192067I0000000J-000394D01*
G01*
X0322107Y0187933D01*
G75*
G02*
X0321713Y0187539I-000394J0000000D01*
G01*
X0318563Y0187539D01*
G75*
G02*
X0318170Y0187933I0000000J0000394D01*
G01*
G37*
G36*
G01*
X0326044Y0187933D02*
X0326044Y0192067D01*
G75*
G02*
X0326437Y0192461I0000394J0000000D01*
G01*
X0329587Y0192461D01*
G75*
G02*
X0329981Y0192067I0000000J-000394D01*
G01*
X0329981Y0187933D01*
G75*
G02*
X0329587Y0187539I-000394J0000000D01*
G01*
X0326437Y0187539D01*
G75*
G02*
X0326044Y0187933I0000000J0000394D01*
G01*
G37*
G36*
G01*
X0290059Y0185728D02*
X0292737Y0185728D01*
G75*
G02*
X0293071Y0185394I0000000J-000335D01*
G01*
X0293071Y0182717D01*
G75*
G02*
X0292737Y0182382I-000335J0000000D01*
G01*
X0290059Y0182382D01*
G75*
G02*
X0289725Y0182717I0000000J0000335D01*
G01*
X0289725Y0185394D01*
G75*
G02*
X0290059Y0185728I0000335J0000000D01*
G01*
G37*
G36*
G01*
X0290059Y0179508D02*
X0292737Y0179508D01*
G75*
G02*
X0293071Y0179173I0000000J-000335D01*
G01*
X0293071Y0176496D01*
G75*
G02*
X0292737Y0176161I-000335J0000000D01*
G01*
X0290059Y0176161D01*
G75*
G02*
X0289725Y0176496I0000000J0000335D01*
G01*
X0289725Y0179173D01*
G75*
G02*
X0290059Y0179508I0000335J0000000D01*
G01*
G37*
G36*
G01*
X0334154Y0183661D02*
X0336831Y0183661D01*
G75*
G02*
X0337166Y0183327I0000000J-000335D01*
G01*
X0337166Y0180650D01*
G75*
G02*
X0336831Y0180315I-000335J0000000D01*
G01*
X0334154Y0180315D01*
G75*
G02*
X0333819Y0180650I0000000J0000335D01*
G01*
X0333819Y0183327D01*
G75*
G02*
X0334154Y0183661I0000335J0000000D01*
G01*
G37*
G36*
G01*
X0334154Y0177441D02*
X0336831Y0177441D01*
G75*
G02*
X0337166Y0177106I0000000J-000335D01*
G01*
X0337166Y0174429D01*
G75*
G02*
X0336831Y0174094I-000335J0000000D01*
G01*
X0334154Y0174094D01*
G75*
G02*
X0333819Y0174429I0000000J0000335D01*
G01*
X0333819Y0177106D01*
G75*
G02*
X0334154Y0177441I0000335J0000000D01*
G01*
G37*
G36*
G01*
X0315020Y0199154D02*
X0315020Y0195020D01*
G75*
G02*
X0314626Y0194626I-000394J0000000D01*
G01*
X0311477Y0194626D01*
G75*
G02*
X0311083Y0195020I0000000J0000394D01*
G01*
X0311083Y0199154D01*
G75*
G02*
X0311477Y0199547I0000394J0000000D01*
G01*
X0314626Y0199547D01*
G75*
G02*
X0315020Y0199154I0000000J-000394D01*
G01*
G37*
G36*
G01*
X0307146Y0199154D02*
X0307146Y0195020D01*
G75*
G02*
X0306752Y0194626I-000394J0000000D01*
G01*
X0303603Y0194626D01*
G75*
G02*
X0303209Y0195020I0000000J0000394D01*
G01*
X0303209Y0199154D01*
G75*
G02*
X0303603Y0199547I0000394J0000000D01*
G01*
X0306752Y0199547D01*
G75*
G02*
X0307146Y0199154I0000000J-000394D01*
G01*
G37*
G36*
G01*
X0318170Y0195020D02*
X0318170Y0199154D01*
G75*
G02*
X0318563Y0199547I0000394J0000000D01*
G01*
X0321713Y0199547D01*
G75*
G02*
X0322107Y0199154I0000000J-000394D01*
G01*
X0322107Y0195020D01*
G75*
G02*
X0321713Y0194626I-000394J0000000D01*
G01*
X0318563Y0194626D01*
G75*
G02*
X0318170Y0195020I0000000J0000394D01*
G01*
G37*
G36*
G01*
X0326044Y0195020D02*
X0326044Y0199154D01*
G75*
G02*
X0326437Y0199547I0000394J0000000D01*
G01*
X0329587Y0199547D01*
G75*
G02*
X0329981Y0199154I0000000J-000394D01*
G01*
X0329981Y0195020D01*
G75*
G02*
X0329587Y0194626I-000394J0000000D01*
G01*
X0326437Y0194626D01*
G75*
G02*
X0326044Y0195020I0000000J0000394D01*
G01*
G37*
G36*
G01*
X0315020Y0184980D02*
X0315020Y0180846D01*
G75*
G02*
X0314626Y0180453I-000394J0000000D01*
G01*
X0311477Y0180453D01*
G75*
G02*
X0311083Y0180846I0000000J0000394D01*
G01*
X0311083Y0184980D01*
G75*
G02*
X0311477Y0185374I0000394J0000000D01*
G01*
X0314626Y0185374D01*
G75*
G02*
X0315020Y0184980I0000000J-000394D01*
G01*
G37*
G36*
G01*
X0307146Y0184980D02*
X0307146Y0180846D01*
G75*
G02*
X0306752Y0180453I-000394J0000000D01*
G01*
X0303603Y0180453D01*
G75*
G02*
X0303209Y0180846I0000000J0000394D01*
G01*
X0303209Y0184980D01*
G75*
G02*
X0303603Y0185374I0000394J0000000D01*
G01*
X0306752Y0185374D01*
G75*
G02*
X0307146Y0184980I0000000J-000394D01*
G01*
G37*
G36*
G01*
X0318170Y0173760D02*
X0318170Y0177894D01*
G75*
G02*
X0318563Y0178287I0000394J0000000D01*
G01*
X0321713Y0178287D01*
G75*
G02*
X0322107Y0177894I0000000J-000394D01*
G01*
X0322107Y0173760D01*
G75*
G02*
X0321713Y0173366I-000394J0000000D01*
G01*
X0318563Y0173366D01*
G75*
G02*
X0318170Y0173760I0000000J0000394D01*
G01*
G37*
G36*
G01*
X0326044Y0173760D02*
X0326044Y0177894D01*
G75*
G02*
X0326437Y0178287I0000394J0000000D01*
G01*
X0329587Y0178287D01*
G75*
G02*
X0329981Y0177894I0000000J-000394D01*
G01*
X0329981Y0173760D01*
G75*
G02*
X0329587Y0173366I-000394J0000000D01*
G01*
X0326437Y0173366D01*
G75*
G02*
X0326044Y0173760I0000000J0000394D01*
G01*
G37*
G36*
G01*
X0295965Y0185728D02*
X0298642Y0185728D01*
G75*
G02*
X0298977Y0185394I0000000J-000335D01*
G01*
X0298977Y0182717D01*
G75*
G02*
X0298642Y0182382I-000335J0000000D01*
G01*
X0295965Y0182382D01*
G75*
G02*
X0295630Y0182717I0000000J0000335D01*
G01*
X0295630Y0185394D01*
G75*
G02*
X0295965Y0185728I0000335J0000000D01*
G01*
G37*
G36*
G01*
X0295965Y0179508D02*
X0298642Y0179508D01*
G75*
G02*
X0298977Y0179173I0000000J-000335D01*
G01*
X0298977Y0176496D01*
G75*
G02*
X0298642Y0176161I-000335J0000000D01*
G01*
X0295965Y0176161D01*
G75*
G02*
X0295630Y0176496I0000000J0000335D01*
G01*
X0295630Y0179173D01*
G75*
G02*
X0295965Y0179508I0000335J0000000D01*
G01*
G37*
G36*
G01*
X0315020Y0177894D02*
X0315020Y0173760D01*
G75*
G02*
X0314626Y0173366I-000394J0000000D01*
G01*
X0311477Y0173366D01*
G75*
G02*
X0311083Y0173760I0000000J0000394D01*
G01*
X0311083Y0177894D01*
G75*
G02*
X0311477Y0178287I0000394J0000000D01*
G01*
X0314626Y0178287D01*
G75*
G02*
X0315020Y0177894I0000000J-000394D01*
G01*
G37*
G36*
G01*
X0307146Y0177894D02*
X0307146Y0173760D01*
G75*
G02*
X0306752Y0173366I-000394J0000000D01*
G01*
X0303603Y0173366D01*
G75*
G02*
X0303209Y0173760I0000000J0000394D01*
G01*
X0303209Y0177894D01*
G75*
G02*
X0303603Y0178287I0000394J0000000D01*
G01*
X0306752Y0178287D01*
G75*
G02*
X0307146Y0177894I0000000J-000394D01*
G01*
G37*
G36*
G01*
X0318170Y0180846D02*
X0318170Y0184980D01*
G75*
G02*
X0318563Y0185374I0000394J0000000D01*
G01*
X0321713Y0185374D01*
G75*
G02*
X0322107Y0184980I0000000J-000394D01*
G01*
X0322107Y0180846D01*
G75*
G02*
X0321713Y0180453I-000394J0000000D01*
G01*
X0318563Y0180453D01*
G75*
G02*
X0318170Y0180846I0000000J0000394D01*
G01*
G37*
G36*
G01*
X0326044Y0180846D02*
X0326044Y0184980D01*
G75*
G02*
X0326437Y0185374I0000394J0000000D01*
G01*
X0329587Y0185374D01*
G75*
G02*
X0329981Y0184980I0000000J-000394D01*
G01*
X0329981Y0180846D01*
G75*
G02*
X0329587Y0180453I-000394J0000000D01*
G01*
X0326437Y0180453D01*
G75*
G02*
X0326044Y0180846I0000000J0000394D01*
G01*
G37*
G36*
G01*
X0318170Y0202106D02*
X0318170Y0206240D01*
G75*
G02*
X0318563Y0206634I0000394J0000000D01*
G01*
X0321713Y0206634D01*
G75*
G02*
X0322107Y0206240I0000000J-000394D01*
G01*
X0322107Y0202106D01*
G75*
G02*
X0321713Y0201713I-000394J0000000D01*
G01*
X0318563Y0201713D01*
G75*
G02*
X0318170Y0202106I0000000J0000394D01*
G01*
G37*
G36*
G01*
X0326044Y0202106D02*
X0326044Y0206240D01*
G75*
G02*
X0326437Y0206634I0000394J0000000D01*
G01*
X0329587Y0206634D01*
G75*
G02*
X0329981Y0206240I0000000J-000394D01*
G01*
X0329981Y0202106D01*
G75*
G02*
X0329587Y0201713I-000394J0000000D01*
G01*
X0326437Y0201713D01*
G75*
G02*
X0326044Y0202106I0000000J0000394D01*
G01*
G37*
G36*
G01*
X0315020Y0192067D02*
X0315020Y0187933D01*
G75*
G02*
X0314626Y0187539I-000394J0000000D01*
G01*
X0311477Y0187539D01*
G75*
G02*
X0311083Y0187933I0000000J0000394D01*
G01*
X0311083Y0192067D01*
G75*
G02*
X0311477Y0192461I0000394J0000000D01*
G01*
X0314626Y0192461D01*
G75*
G02*
X0315020Y0192067I0000000J-000394D01*
G01*
G37*
G36*
G01*
X0307146Y0192067D02*
X0307146Y0187933D01*
G75*
G02*
X0306752Y0187539I-000394J0000000D01*
G01*
X0303603Y0187539D01*
G75*
G02*
X0303209Y0187933I0000000J0000394D01*
G01*
X0303209Y0192067D01*
G75*
G02*
X0303603Y0192461I0000394J0000000D01*
G01*
X0306752Y0192461D01*
G75*
G02*
X0307146Y0192067I0000000J-000394D01*
G01*
G37*
X0374068Y0335551D02*
G01*
G75*
D134*
X0324560Y0342145D02*
D03*
X0325741Y0358189D02*
D03*
X0352808Y0365472D02*
D03*
X0350249Y0360315D02*
D03*
X0343851Y0358543D02*
D03*
X0345131Y0365472D02*
D03*
X0340505Y0358248D02*
D03*
X0337060Y0357401D02*
D03*
X0334895Y0365472D02*
D03*
X0333222Y0358248D02*
D03*
M02*
